<?xml version="1.0" encoding="utf-8"?>
<!-- Generator: Adobe Illustrator 16.0.0, SVG Export Plug-In . SVG Version: 6.00 Build 0)  -->
<svg version="1.2" baseProfile="tiny"
	 id="svg548" xmlns:cc="http://creativecommons.org/ns#" xmlns:dc="http://purl.org/dc/elements/1.1/" xmlns:rdf="http://www.w3.org/1999/02/22-rdf-syntax-ns#"
	 xmlns="http://www.w3.org/2000/svg" xmlns:xlink="http://www.w3.org/1999/xlink" x="0px" y="0px" width="512px" height="512px"
	 viewBox="0 0 512 512" xml:space="preserve">
<g id="flag" transform="matrix(.72249 0 0 1.0321 0 -16.449)">
	<rect id="rect895" x="0" y="15.937" fill="#0000BD" width="237.399" height="496.06"/>
	<rect id="rect896" x="471.26" y="15.937" fill="#CC1900" width="237.399" height="496.06"/>
	<rect id="rect897" x="237.4" y="15.937" fill="#FFF600" width="233.861" height="496.06"/>
</g>
<g id="g919" transform="matrix(1.0086 0 0 .99179 -96.834 -480.19)">
	<g id="g853">
		<path id="path738" fill="#CBA323" stroke="#000000" d="M351.382,644.755c18.615,0.306,17.328-10.9,24.124-12.013
			c6.795-1.113,13.207,4.67,12.963,11.208c0.729,7.783-11.567,7.839-12.315,14.321s5.986,8.462,12.963,7.472
			s11.929-7.615,15.494-10.728c-5.185,2.802-9.427,1.787-9.813-3.2c0.262-6.543,7.047-8.917,10.255-6.716
			c2.521-1.981,2.371-2.776,5.142-2.336c1.879,1.101,2.391,1.07,3.502,2.774c1.448-0.881,2.052-1.324,4.751-0.223
			c1.676,0.661,2.794,1.855,3.83,3.667c1.225-0.929,3.148-1.276,5.356-0.074c1.406,0.687,3.156,2.686,3.395,4.86
			c3.29,0.634,4.43,1.366,5.463,2.974c6.137,8.143-0.948,21.866-0.558,28.87c0.391,7.004,6.481,7.471,6.481,7.471
			c-5.728-3.523-0.077-5.945,2.626-6.189c8.662,0.857,7.205,13.138-2.016,10.981c-7.388-1.937,15.15,1.227,14.606,23.423
			c-0.543,22.818-12.773,18.327-12.773,18.327s10.446,3.781,8.426,11.252c-2.021,5.051-12.819,8.397-11.903-1.29
			c-3.208,4.183-4.129,5.951-4.118,12.309c-0.447,8.119,0.256,11.829,2.665,15.818c0.576-3.716,3.194-3.875,5.431-3.403
			c3.153,0.031,4.907,2.408,3.722,5.49c1.588-0.387,3.036,0.658,3.66,1.915c0.488,2.321,1.571,3.349-0.95,4.229
			c2.521,0.441,3.741,0.758,4.039,4.132c0.071,2.716-4.903,4.206-10.173,3.326c2.75,1.32,11.671,18.706,10.479,38.68
			c-0.825,17.914-33.49,16.319-48.084,15.819c-14.592-0.498-28.225,0.29-33.916,4.881c4.377,2.685-0.507,11.047-4.229,7.129
			c0,3.082-3.678,7.845-8.757,4.756c0.208,5.565-5.542,9.47-10.557,9.47c-5.015,0-10.765-3.905-10.558-9.47
			c-5.078,3.089-8.757-1.674-8.757-4.756c-3.722,3.918-8.607-4.444-4.228-7.129c-5.691-4.59-19.325-5.379-33.916-4.881
			c-14.593,0.499-47.26,2.094-48.085-15.819c-1.192-19.976,9.224-37.36,11.975-38.68c-5.271,0.88-10.244-0.61-10.173-3.326
			c0.298-3.373,1.518-3.69,4.039-4.132c-2.52-0.88-1.438-1.908-0.949-4.229c0.623-1.257,2.072-2.302,3.66-1.915
			c-1.185-3.082,0.568-5.459,3.722-5.49c2.237-0.472,4.855-0.313,5.431,3.403c2.409-3.99,3.111-7.699,2.665-15.818
			c0.011-6.358-0.91-8.126-4.118-12.309c0.916,9.687-9.883,6.341-11.903,1.29c-2.022-7.471,8.426-11.252,8.426-11.252
			s-12.23,4.491-12.774-18.327c-0.543-22.195,21.994-25.36,14.607-23.423c-9.221,2.157-10.678-10.124-2.016-10.981
			c2.703,0.243,8.354,2.666,2.625,6.189c0,0,6.091-0.467,6.481-7.471c0.391-7.005-6.693-20.728-0.557-28.87
			c1.032-1.607,2.173-2.339,5.463-2.974c0.238-2.174,1.989-4.172,3.394-4.86c2.21-1.202,4.132-0.856,5.357,0.074
			c1.035-1.812,2.154-3.007,3.83-3.667c2.699-1.101,3.304-0.658,4.75,0.223c1.113-1.704,1.624-1.673,3.503-2.774
			c2.771-0.44,2.621,0.354,5.141,2.336c3.209-2.202,9.993,0.173,10.256,6.716c-0.386,4.987-4.628,6.002-9.813,3.2
			c3.564,3.113,8.517,9.739,15.494,10.728c6.977,0.99,13.711-0.99,12.963-7.472c-0.748-6.482-13.044-6.538-12.315-14.321
			c-0.244-6.538,6.168-12.321,12.963-11.208c6.796,1.113,5.508,12.319,24.205,12.013H351.382z"/>
		<path id="path619" fill="none" stroke="#000000" d="M334.994,665.845c-0.224,6.716-12.167,5.545-20.052,5.182
			c-10.247-0.46-30.201-17.231-17.229-26.133"/>
		<path id="path625" fill="none" stroke="#000000" d="M260.414,704.324c-6.416,6.604,11.168,5.047,3.667-3.522
			c-3.064-3.299-16.042,7.045-16.042,18.492c0,11.447,4.126,16.731,6.416,17.171c2.292,0.441,5.959-1.321,5.959-3.082
			c0-2.201-1.834-5.724-4.583-5.284c-4.584,0-2.293,3.963-0.001,3.963"/>
		<path id="path626" fill="none" stroke="#000000" d="M259.85,705.023c0,0-9.519,3.705-9.519,14.712
			c0,11.007,2.751,10.567,2.751,10.567"/>
		<path id="path627" fill="none" stroke="#000000" d="M260.873,697.278c0,0,9.625-1.321,9.167,7.044
			c-0.459,8.366-3.668,8.806-8.708,8.366c-5.042-0.44-2.292-6.164-2.292-6.164"/>
		<path id="path628" fill="none" stroke="#000000" d="M257.206,739.545c0,0,7.333-0.441,6.874-7.925
			c-0.458-7.485-5.958-7.925-9.165-7.485c-3.209,0.44-4.181,2.17-3.209,4.816"/>
		<path id="path630" fill="none" stroke="#000000" d="M254.913,748.352c0,0,1.533-3.05,6.573-3.05
			c5.042,0,7.389,11.362,6.931,23.691c-0.458,12.328-13.045,22.948-15.796,22.068c-2.75-0.88-4.125-1.321-1.833-3.082"/>
		<path id="path633" fill="none" stroke="#000000" d="M263.353,776.789l-8.898,14.272"/>
		<path id="path634" fill="none" stroke="#000000" d="M250.847,785.885c0,0.156,1.967-0.414,3.342,0.467
			c1.375,0.881,1.699,2.175,1.699,2.175"/>
		<path id="path635" fill="none" stroke="#000000" d="M253.919,779.954c0,0,1.603-0.487,3.692,0.144
			c2.089,0.63,2.021,2.051,2.021,2.051"/>
		<path id="path636" fill="none" stroke="#000000" d="M262.695,810.745c4.769,2.381,9.452-9.415,0.261-9.993
			c-6.573-0.258-11.322,8.701-10.405,13.103c2.503,14.98,4.066,25.002,19.683,26.941c11.916,0.881,30.537-1.907,42.156-0.57
			c11.46,1.284,24.11,5.338,28.694,9.74c4.583,4.403,7.439,4.448,7.439,8.85c0,4.403-6.545,6.662-9.138,4.017"/>
		<path id="path637" fill="none" stroke="#000000" d="M339.79,864.955c1.676-1.089,5.666-7.638,1.839-11.522
			c-5.915-5.76-10.185-8.033-13.102-8.966"/>
		<path id="path638" fill="none" stroke="#000000" d="M331.114,859.855c2.269-1.321,2.602-5.721,0.231-9.076
			c-2.371-3.357-8.541-6.046-20.658-7.03c-9.18-0.74-34.193,3.158-43.359,0.516c-12.869-4.757-20.959-12.77-18.985-32.678
			c0.592-7.712,4.639-12.889,12.564-13.876c8.898-0.053,11.216,5.51,11.216,12.553c0,3.621-9.855,7.059-11.642,3.629
			c-2.767-4.806-3.978-9.143,6.181-11.445"/>
		<path id="path642" fill="none" stroke="#000000" d="M327.167,852.866c0,0,3.8,2.126,2.884,3.887
			c-0.917,1.761-3.37,1.009-1.751-0.859"/>
		<path id="path643" fill="none" stroke="#000000" d="M289.262,645.196c0,0-2.593,2.491-1.296,8.406
			c1.296,5.915,3.889,5.604,3.889,5.604"/>
		<path id="path644" fill="none" stroke="#000000" d="M280.511,648.618c-0.324,0.622-3.778,4.434-1.833,8.481
			c1.944,4.047,3.486,4.853,3.486,4.853"/>
		<path id="path645" fill="none" stroke="#000000" d="M271.761,653.599c0,0-2.801,3.972-3.335,11.052
			c-0.534,7.08,3.032,16.828,2.932,20.454c-0.226,7.706-9.346,11.532-9.346,11.532"/>
		<path id="path652" fill="none" stroke="#000000" d="M258.472,739.526c0.648,0,13.287-11.208,13.287,28.642
			c-0.972,23.039-14.908,25.219-14.908,25.219"/>
		<path id="path653" fill="none" stroke="#000000" d="M260.159,795.039c5.118-1.247,15.736,4.11,11.916,13.21"/>
		<path id="path654" fill="none" stroke="#000000" d="M261.429,791.299c3.284,0.293,5.962,2.582,7.184,5.738"/>
		<path id="path655" fill="none" stroke="#000000" d="M253.937,714.622c0,0,3.889,5.292,9.723,5.292
			c5.833,0,7.778-5.915,7.778-5.915"/>
		<path id="path656" fill="none" stroke="#000000" d="M253.287,717.423c0,0,3.565,6.226,9.722,6.538
			c6.158,0.312,8.427-4.047,8.427-4.047"/>
		<path id="path657" fill="none" stroke="#000000" d="M266.252,726.76c0,0,4.538,1.868,4.538,7.161s-4.214,4.047-4.214,4.047"/>
		<path id="path712" fill="none" stroke="#000000" d="M367.686,665.845c0.224,6.716,12.167,5.545,20.052,5.182
			c10.247-0.46,30.201-17.231,17.229-26.133"/>
		<path id="path713" fill="none" stroke="#000000" d="M442.266,704.324c6.417,6.604-11.169,5.047-3.667-3.522
			c3.064-3.299,16.041,7.045,16.041,18.492c0,11.447-4.125,16.731-6.417,17.171c-2.291,0.441-5.958-1.321-5.958-3.082
			c0-2.201,1.833-5.724,4.583-5.284c4.584,0,2.292,3.963,0,3.963"/>
		<path id="path714" fill="none" stroke="#000000" d="M442.831,705.023c0,0,9.518,3.705,9.518,14.712
			c0,11.007-2.75,10.567-2.75,10.567"/>
		<path id="path715" fill="none" stroke="#000000" d="M441.806,697.278c0,0-9.624-1.321-9.166,7.044
			c0.459,8.366,3.667,8.806,8.708,8.366c5.042-0.44,2.291-6.164,2.291-6.164"/>
		<path id="path716" fill="none" stroke="#000000" d="M445.473,739.545c0,0-7.332-0.441-6.874-7.925
			c0.458-7.485,5.958-7.925,9.166-7.485c3.208,0.44,4.181,2.17,3.208,4.816"/>
		<path id="path717" fill="none" stroke="#000000" d="M447.766,748.352c0,0-1.532-3.05-6.573-3.05
			c-5.042,0-7.389,11.362-6.931,23.691c0.459,12.328,13.046,22.948,15.796,22.068c2.75-0.88,4.125-1.321,1.834-3.082"/>
		<path id="path718" fill="none" stroke="#000000" d="M439.327,776.789l8.898,14.272"/>
		<path id="path719" fill="none" stroke="#000000" d="M451.832,786.015c0,0.156-1.966-0.414-3.342,0.467
			c-1.375,0.881-1.699,2.175-1.699,2.175"/>
		<path id="path720" fill="none" stroke="#000000" d="M448.76,779.954c0,0-1.602-0.487-3.692,0.144
			c-2.088,0.63-2.021,2.051-2.021,2.051"/>
		<path id="path721" fill="none" stroke="#000000" d="M438.924,814.317c0.916,0-6.015-7.433,0.268-8.937
			c7.895-1.447,11.188,6.19,10.272,10.591c-1.974,10.749-6.577,23.945-20.609,24.825c-11.916,0.881-30.537-1.906-42.156-0.569
			c-11.459,1.284-24.11,5.337-28.693,9.74c-4.584,4.403-7.44,4.447-7.44,8.85c0,4.403,6.545,6.662,9.138,4.016"/>
		<path id="path722" fill="none" stroke="#000000" d="M361.299,864.955c-1.675-1.089-5.665-7.638-1.838-11.522
			c5.914-5.76,10.185-8.033,13.101-8.966"/>
		<path id="path723" fill="none" stroke="#000000" d="M369.977,859.855c-2.269-1.321-2.603-5.721-0.231-9.076
			c2.37-3.357,8.54-6.046,20.658-7.03c9.18-0.74,34.193,3.158,43.359,0.516c17.099-6.873,20.827-15.943,20.439-30.563
			c-0.593-7.712-4.771-13.682-12.697-14.669c-8.897-0.053-10.421,4.453-10.421,11.497c0,3.62,3.508,9.616,8.304,8.736
			c4.797-1.191,8.533-9.353,0.431-13.712"/>
		<path id="path724" fill="none" stroke="#000000" d="M373.923,852.866c0,0-3.801,2.126-2.884,3.887
			c0.916,1.761,3.37,1.009,1.751-0.859"/>
		<path id="path725" fill="none" stroke="#000000" d="M413.418,645.196c0,0,2.592,2.491,1.296,8.406
			c-1.296,5.915-3.889,5.604-3.889,5.604"/>
		<path id="path726" fill="none" stroke="#000000" d="M422.168,648.618c0.324,0.622,3.778,4.434,1.834,8.481
			c-1.944,4.047-3.487,4.853-3.487,4.853"/>
		<path id="path727" fill="none" stroke="#000000" d="M430.919,653.599c0,0,2.8,3.972,3.335,11.052
			c0.534,7.08-3.032,16.828-2.933,20.454c0.227,7.706,9.347,11.532,9.347,11.532"/>
		<path id="path730" fill="none" stroke="#000000" d="M444.208,739.526c-0.649,0-13.287-11.208-13.287,28.642
			c0.972,23.039,14.907,25.219,14.907,25.219"/>
		<path id="path731" fill="none" stroke="#000000" d="M445.031,796.633c-6.308-5.346-18.38,4.904-13.9,14.399"/>
		<path id="path732" fill="none" stroke="#000000" d="M442.711,792.229c-3.285,0.293-6.756,2.317-7.978,5.473"/>
		<path id="path733" fill="none" stroke="#000000" d="M448.743,714.622c0,0-3.888,5.292-9.722,5.292s-7.778-5.915-7.778-5.915"/>
		<path id="path734" fill="none" stroke="#000000" d="M449.393,717.423c0,0-3.565,6.226-9.723,6.538
			c-6.157,0.312-8.426-4.047-8.426-4.047"/>
		<path id="path735" fill="none" stroke="#000000" d="M436.427,726.76c0,0-4.537,1.868-4.537,7.161s4.213,4.047,4.213,4.047"/>
		<path id="path741" fill="none" stroke="#000000" d="M333.659,653.445c0.162-0.156-0.648-3.425,3.241-3.269
			c3.888,0.156,2.43,3.58,5.672,4.825c3.078,0.778,8.587,1.557,8.768,1.557s5.691-0.779,8.769-1.557
			c3.241-1.245,1.783-4.67,5.672-4.825c3.888-0.156,3.079,3.113,3.241,3.269"/>
		<path id="path744" fill="none" stroke="#000000" d="M341.549,666.892c-0.114-1.541-0.486-3.571-2.674-3.727
			c-4.098-0.129-7.34,7.705,1.729,7.76c6.639,0.041,6.694-12.099,0.313-12.277c-9.166-0.249-10.427,5.007-10.277,6.037
			c2.319-18.846-12.94-15.035-12.211-22.351c0.08-3.966,4.222-4.421,8.75-3.686c6.796,1.047,5.508,11.58,24.163,11.292
			c18.656,0.287,17.368-10.246,24.164-11.292c4.527-0.735,8.67-0.28,8.75,3.686c0.729,7.315-14.53,3.505-12.212,22.351
			c0.151-1.03-1.111-6.286-10.277-6.037c-6.381,0.178-6.326,12.318,0.314,12.277c9.069-0.056,5.826-7.889,1.729-7.76
			c-2.188,0.156-2.56,2.186-2.674,3.727"/>
		<path id="path814" d="M413.603,834.947l0.046,0.285l-4.381,1.098l-0.046-0.284l0.279-0.071c0.243-0.061,0.43-0.163,0.561-0.308
			c0.095-0.098,0.158-0.241,0.188-0.43c0.025-0.134-0.004-0.463-0.089-0.985l-1.111-6.854c-0.086-0.533-0.164-0.86-0.23-0.982
			s-0.179-0.214-0.335-0.276c-0.152-0.069-0.346-0.075-0.58-0.016l-0.279,0.071l-0.046-0.284l4.38-1.099l0.046,0.284l-0.279,0.069
			c-0.242,0.061-0.43,0.164-0.561,0.309c-0.095,0.099-0.16,0.243-0.194,0.433c-0.025,0.134,0.005,0.463,0.09,0.985l1.111,6.854
			c0.086,0.533,0.163,0.86,0.229,0.981c0.072,0.121,0.183,0.217,0.336,0.285c0.156,0.062,0.351,0.063,0.586,0.005L413.603,834.947z"
			/>
		<path id="path815" d="M407.14,826.216l0.298,2.853l-0.226,0.035c-0.201-0.636-0.399-1.085-0.591-1.342
			c-0.194-0.265-0.441-0.459-0.742-0.585c-0.168-0.067-0.45-0.069-0.846-0.005l-0.63,0.102l0.848,8.129
			c0.056,0.539,0.113,0.872,0.173,0.998c0.064,0.128,0.17,0.232,0.32,0.313c0.151,0.075,0.348,0.094,0.59,0.055l0.281-0.045
			l0.03,0.287l-4.437,0.716l-0.03-0.289l0.282-0.045c0.245-0.039,0.438-0.126,0.577-0.259c0.1-0.09,0.172-0.227,0.217-0.414
			c0.033-0.132,0.021-0.462-0.034-0.99l-0.848-8.131l-0.612,0.099c-0.571,0.092-0.97,0.308-1.197,0.652
			c-0.32,0.478-0.486,1.113-0.501,1.905l-0.237,0.038l-0.297-2.853L407.14,826.216L407.14,826.216z"/>
		<path id="path820" d="M375.637,830.577l0.283,4.35l0.246-0.024c0.376-0.038,0.679-0.138,0.909-0.303
			c0.228-0.164,0.415-0.421,0.556-0.772c0.147-0.351,0.227-0.811,0.24-1.384l0.22-0.022l0.345,5.319l-0.22,0.023
			c-0.144-0.995-0.405-1.637-0.781-1.919c-0.373-0.287-0.784-0.408-1.232-0.363l-0.245,0.025l0.21,3.243
			c0.035,0.541,0.079,0.877,0.135,1.007c0.059,0.131,0.162,0.241,0.306,0.332c0.149,0.085,0.344,0.114,0.582,0.091l0.283-0.029
			l0.018,0.289l-4.453,0.447l-0.019-0.289l0.282-0.029c0.248-0.025,0.443-0.099,0.587-0.224c0.105-0.085,0.18-0.217,0.227-0.401
			c0.038-0.129,0.041-0.46,0.006-0.991l-0.452-6.969c-0.035-0.542-0.08-0.877-0.136-1.008c-0.055-0.13-0.156-0.238-0.305-0.323
			c-0.144-0.091-0.337-0.124-0.576-0.1l-0.282,0.029l-0.018-0.288l7.186-0.721l0.197,3.039l-0.257,0.026
			c-0.106-0.707-0.291-1.221-0.556-1.541c-0.261-0.319-0.625-0.527-1.09-0.621c-0.256-0.053-0.723-0.045-1.402,0.024
			L375.637,830.577L375.637,830.577z"/>
		<path id="path823" d="M359.299,830.743v2.875h-0.228c-0.134-0.664-0.284-1.139-0.447-1.426c-0.165-0.292-0.389-0.526-0.674-0.698
			c-0.161-0.094-0.441-0.141-0.839-0.141h-0.635v8.198c0,0.544,0.022,0.883,0.069,1.018c0.05,0.137,0.145,0.257,0.284,0.361
			c0.142,0.099,0.336,0.149,0.58,0.149h0.283v0.291h-4.474v-0.291h0.284c0.248,0,0.447-0.055,0.599-0.164
			c0.108-0.074,0.195-0.198,0.258-0.376c0.046-0.125,0.07-0.454,0.07-0.987v-8.198h-0.618c-0.575,0-0.994,0.151-1.254,0.454
			c-0.366,0.423-0.597,1.026-0.694,1.81h-0.239v-2.875H359.299L359.299,830.743z"/>
		<path id="path824" d="M350.463,841.082v0.29h-4.467v-0.29h0.283c0.248,0,0.447-0.054,0.599-0.163
			c0.108-0.074,0.194-0.199,0.252-0.376c0.046-0.126,0.07-0.455,0.07-0.988v-6.992c0-0.543-0.024-0.882-0.07-1.018
			c-0.046-0.136-0.141-0.254-0.284-0.353c-0.138-0.105-0.327-0.158-0.567-0.158h-0.283v-0.289h4.467v0.289h-0.284
			c-0.248,0-0.447,0.055-0.598,0.164c-0.109,0.074-0.196,0.2-0.259,0.377c-0.046,0.124-0.069,0.455-0.069,0.987v6.992
			c0,0.544,0.022,0.883,0.069,1.018c0.05,0.137,0.145,0.257,0.284,0.361c0.143,0.098,0.334,0.148,0.573,0.148H350.463z"/>
		<path id="path825" d="M339.229,830.743l4.217,6.59v-4.57c0-0.636-0.074-1.067-0.222-1.292c-0.2-0.303-0.539-0.449-1.014-0.44
			v-0.289h2.823v0.289c-0.361,0.058-0.604,0.134-0.732,0.227c-0.121,0.09-0.218,0.238-0.289,0.447
			c-0.068,0.205-0.102,0.556-0.102,1.057v8.85h-0.214l-5.779-8.85v6.757c0,0.61,0.111,1.024,0.334,1.239
			c0.227,0.214,0.486,0.321,0.776,0.321h0.201v0.289h-3.032v-0.289c0.471-0.006,0.798-0.126,0.983-0.36
			c0.185-0.234,0.278-0.635,0.278-1.199v-7.5l-0.183-0.283c-0.181-0.282-0.34-0.468-0.478-0.555
			c-0.139-0.091-0.339-0.14-0.599-0.151v-0.289H339.229z"/>
		<path id="path826" d="M335.673,830.045l-0.01,0.289c-0.313,0.047-0.596,0.24-0.851,0.577c-0.185,0.252-0.467,0.853-0.848,1.8
			l-3.207,7.964l-0.207-0.01l-2.651-8.592c-0.32-1.036-0.537-1.645-0.653-1.829c-0.111-0.182-0.332-0.306-0.663-0.371l0.01-0.289
			l4.094,0.209l-0.01,0.288l-0.138-0.006c-0.37-0.02-0.624,0.026-0.761,0.134c-0.1,0.074-0.152,0.186-0.157,0.337
			c-0.003,0.094,0.01,0.207,0.04,0.34c0.029,0.127,0.131,0.476,0.306,1.044l1.645,5.378l1.844-4.621
			c0.22-0.559,0.357-0.933,0.409-1.124c0.052-0.191,0.081-0.354,0.086-0.489c0.005-0.158-0.024-0.296-0.088-0.42
			c-0.062-0.124-0.158-0.22-0.286-0.289c-0.178-0.096-0.416-0.155-0.714-0.169l0.009-0.289L335.673,830.045L335.673,830.045z"/>
		<path id="path827" d="M320.595,828.712l-0.1,3.541l-0.259-0.02c-0.078-0.895-0.344-1.629-0.796-2.202
			c-0.449-0.577-0.949-0.887-1.503-0.929c-0.428-0.031-0.776,0.088-1.04,0.355c-0.261,0.264-0.401,0.581-0.418,0.95
			c-0.012,0.235,0.022,0.446,0.102,0.636c0.109,0.253,0.293,0.511,0.55,0.771c0.19,0.187,0.629,0.525,1.322,1.016
			c0.969,0.683,1.614,1.311,1.936,1.879c0.319,0.569,0.461,1.201,0.427,1.9c-0.043,0.887-0.358,1.631-0.946,2.231
			c-0.585,0.595-1.304,0.861-2.16,0.797c-0.268-0.02-0.521-0.072-0.756-0.158c-0.236-0.086-0.53-0.235-0.881-0.45
			c-0.198-0.119-0.36-0.183-0.49-0.193c-0.109-0.008-0.227,0.035-0.353,0.13c-0.127,0.096-0.232,0.247-0.32,0.457l-0.231-0.018
			l0.192-4.006l0.232,0.018c0.131,1.138,0.443,2.026,0.94,2.659c0.5,0.63,1.053,0.966,1.661,1.011
			c0.471,0.034,0.851-0.096,1.143-0.394c0.296-0.296,0.455-0.658,0.475-1.08c0.012-0.25-0.031-0.496-0.129-0.739
			c-0.094-0.243-0.244-0.477-0.452-0.701c-0.208-0.229-0.581-0.535-1.118-0.915c-0.752-0.533-1.292-0.978-1.615-1.337
			c-0.324-0.358-0.568-0.752-0.733-1.177c-0.161-0.426-0.229-0.887-0.205-1.382c0.04-0.845,0.324-1.546,0.852-2.103
			s1.171-0.808,1.93-0.752c0.277,0.021,0.543,0.082,0.799,0.185c0.195,0.078,0.429,0.213,0.701,0.405
			c0.277,0.187,0.473,0.286,0.586,0.295c0.109,0.008,0.198-0.028,0.263-0.106c0.068-0.079,0.137-0.276,0.205-0.59L320.595,828.712
			L320.595,828.712z"/>
		<path id="path828" d="M314.753,828.368l-0.027,0.288c-0.315,0.017-0.608,0.183-0.884,0.494c-0.199,0.235-0.517,0.807-0.953,1.716
			l-3.681,7.642l-0.206-0.03l-2.124-8.815c-0.256-1.063-0.436-1.692-0.54-1.887c-0.1-0.191-0.313-0.336-0.638-0.431l0.027-0.288
			l4.069,0.591l-0.027,0.286l-0.137-0.02c-0.368-0.053-0.624-0.033-0.768,0.062c-0.104,0.065-0.162,0.172-0.176,0.322
			c-0.009,0.094-0.002,0.208,0.019,0.343c0.021,0.129,0.103,0.485,0.241,1.069l1.318,5.517l2.116-4.436
			c0.254-0.538,0.412-0.898,0.476-1.082c0.064-0.187,0.102-0.347,0.114-0.48c0.016-0.158-0.005-0.299-0.061-0.428
			c-0.055-0.129-0.145-0.233-0.268-0.315c-0.171-0.113-0.406-0.193-0.702-0.236l0.027-0.287L314.753,828.368L314.753,828.368z"/>
		<path id="path829" d="M305.044,827.489l-0.332,2.847l-0.225-0.041c-0.056-0.68-0.149-1.179-0.278-1.491
			c-0.128-0.319-0.323-0.59-0.587-0.811c-0.147-0.121-0.418-0.218-0.813-0.289l-0.63-0.113l-0.946,8.113
			c-0.062,0.538-0.079,0.877-0.049,1.019c0.035,0.145,0.114,0.281,0.24,0.409c0.13,0.123,0.315,0.207,0.556,0.25l0.282,0.051
			l-0.034,0.286l-4.428-0.799l0.033-0.287l0.28,0.05c0.246,0.044,0.449,0.026,0.612-0.056c0.116-0.053,0.217-0.161,0.299-0.326
			c0.06-0.116,0.122-0.437,0.183-0.964l0.946-8.114l-0.612-0.11c-0.57-0.102-1-0.028-1.294,0.226
			c-0.411,0.354-0.709,0.91-0.895,1.668l-0.237-0.043l0.331-2.846L305.044,827.489L305.044,827.489z"/>
		<path id="path832" d="M284.747,834.159l-0.055,0.283l-4.343-1.309l0.055-0.283l0.276,0.084c0.24,0.072,0.445,0.078,0.613,0.015
			c0.12-0.039,0.226-0.136,0.317-0.292c0.068-0.108,0.153-0.421,0.254-0.939l1.324-6.794c0.103-0.528,0.144-0.865,0.126-1.011
			c-0.019-0.145-0.089-0.286-0.209-0.425c-0.115-0.143-0.289-0.249-0.521-0.319l-0.276-0.084l0.054-0.28l4.343,1.308l-0.054,0.281
			l-0.276-0.084c-0.241-0.072-0.445-0.077-0.613-0.015c-0.12,0.039-0.228,0.137-0.322,0.291c-0.068,0.107-0.154,0.421-0.255,0.938
			l-1.324,6.795c-0.103,0.529-0.144,0.865-0.125,1.01c0.022,0.147,0.092,0.291,0.207,0.434c0.12,0.138,0.296,0.242,0.529,0.311
			L284.747,834.159L284.747,834.159z"/>
		<path id="path833" d="M281.661,823.053l-0.059,0.28c-0.315-0.038-0.625,0.075-0.932,0.335c-0.224,0.198-0.603,0.709-1.138,1.532
			l-4.509,6.922l-0.201-0.066l-1.105-9.099c-0.133-1.098-0.239-1.751-0.321-1.961c-0.077-0.209-0.271-0.388-0.583-0.54l0.059-0.28
			l3.962,1.297l-0.059,0.28l-0.135-0.044c-0.357-0.116-0.613-0.141-0.766-0.072c-0.11,0.045-0.181,0.141-0.211,0.288
			c-0.019,0.091-0.026,0.205-0.02,0.342c0.006,0.132,0.046,0.5,0.118,1.101l0.68,5.693l2.597-4.021
			c0.313-0.486,0.51-0.816,0.595-0.989c0.084-0.172,0.139-0.325,0.168-0.455c0.032-0.153,0.028-0.297-0.013-0.435
			c-0.04-0.137-0.117-0.256-0.23-0.358c-0.157-0.142-0.379-0.262-0.667-0.356l0.059-0.28L281.661,823.053L281.661,823.053z"/>
		<path id="path836" d="M417.515,823.894c1.343-0.28,2.49,0.034,3.441,0.939c0.955,0.906,1.512,2.14,1.676,3.705
			c0.139,1.337-0.052,2.564-0.575,3.681c-0.693,1.482-1.8,2.346-3.32,2.591c-1.526,0.246-2.772-0.207-3.739-1.357
			c-0.765-0.909-1.219-2.06-1.364-3.454c-0.164-1.566,0.128-2.937,0.873-4.116C415.256,824.697,416.258,824.033,417.515,823.894
			L417.515,823.894z M417.642,824.38c-0.775,0.124-1.313,0.711-1.614,1.763c-0.246,0.861-0.289,2.048-0.131,3.561
			c0.187,1.798,0.58,3.086,1.178,3.863c0.416,0.545,0.944,0.766,1.581,0.663c0.43-0.07,0.775-0.257,1.034-0.562
			c0.333-0.391,0.564-0.965,0.691-1.723c0.128-0.764,0.131-1.731,0.009-2.903c-0.145-1.393-0.358-2.417-0.638-3.074
			c-0.281-0.66-0.598-1.108-0.954-1.339C418.448,824.395,418.063,824.311,417.642,824.38z"/>
		<path id="path839" d="M384.884,828.885c1.353-0.199,2.485,0.184,3.399,1.145c0.918,0.962,1.428,2.228,1.53,3.802
			c0.087,1.344-0.151,2.558-0.717,3.642c-0.75,1.439-1.889,2.234-3.418,2.388c-1.533,0.154-2.759-0.374-3.681-1.582
			c-0.727-0.953-1.138-2.131-1.228-3.532c-0.103-1.573,0.241-2.925,1.032-4.058C382.596,829.55,383.623,828.949,384.884,828.885
			L384.884,828.885z M384.991,829.377c-0.778,0.078-1.339,0.632-1.682,1.663c-0.277,0.846-0.368,2.029-0.269,3.551
			c0.117,1.806,0.46,3.116,1.026,3.93c0.396,0.569,0.914,0.82,1.555,0.756c0.431-0.043,0.782-0.21,1.054-0.499
			c0.347-0.37,0.599-0.93,0.757-1.68c0.158-0.755,0.198-1.721,0.122-2.899c-0.091-1.4-0.263-2.436-0.518-3.108
			c-0.255-0.677-0.555-1.143-0.9-1.396C385.797,829.441,385.414,829.335,384.991,829.377L384.991,829.377z"/>
		<path id="path842" d="M393.83,833.705l0.309,2.952c0.059,0.571,0.123,0.928,0.194,1.068c0.074,0.135,0.185,0.235,0.336,0.302
			c0.151,0.064,0.42,0.065,0.808,0.003l0.03,0.288l-4.338,0.7l-0.03-0.288c0.392-0.063,0.652-0.15,0.78-0.26
			c0.132-0.117,0.218-0.252,0.256-0.406c0.044-0.154,0.035-0.516-0.024-1.087l-0.714-6.839c-0.059-0.57-0.126-0.923-0.199-1.058
			c-0.069-0.143-0.179-0.246-0.33-0.311c-0.151-0.065-0.42-0.067-0.808-0.004l-0.03-0.288l3.937-0.635
			c1.025-0.164,1.784-0.198,2.278-0.099c0.493,0.1,0.915,0.364,1.265,0.792c0.349,0.424,0.556,0.955,0.623,1.591
			c0.08,0.778-0.077,1.455-0.473,2.036c-0.255,0.367-0.631,0.674-1.131,0.918l2.41,3.24c0.315,0.417,0.534,0.674,0.658,0.77
			c0.187,0.134,0.394,0.189,0.621,0.168l0.031,0.289l-2.669,0.43l-3.233-4.363L393.83,833.705L393.83,833.705z M393.291,828.535
			l0.482,4.617l0.356-0.057c0.579-0.094,1.005-0.228,1.279-0.405c0.274-0.181,0.474-0.456,0.6-0.824
			c0.132-0.373,0.167-0.838,0.109-1.391c-0.083-0.804-0.298-1.373-0.642-1.707c-0.34-0.335-0.845-0.449-1.516-0.341L393.291,828.535
			L393.291,828.535z"/>
		<path id="path845" d="M426.259,827.913l0.595,2.884c0.115,0.557,0.214,0.901,0.297,1.031c0.085,0.122,0.207,0.206,0.363,0.248
			c0.157,0.041,0.424,0.002,0.802-0.12l0.058,0.282l-4.235,1.354l-0.058-0.281c0.382-0.122,0.631-0.248,0.748-0.376
			c0.119-0.137,0.19-0.284,0.214-0.441c0.028-0.159-0.015-0.519-0.131-1.076l-1.381-6.679c-0.115-0.557-0.215-0.897-0.302-1.02
			c-0.083-0.13-0.202-0.217-0.358-0.258c-0.157-0.041-0.424-0.003-0.802,0.118l-0.058-0.28l3.845-1.229
			c1.001-0.321,1.751-0.469,2.25-0.445c0.501,0.024,0.944,0.221,1.333,0.593c0.389,0.368,0.647,0.863,0.776,1.485
			c0.157,0.759,0.066,1.456-0.271,2.093c-0.215,0.403-0.559,0.764-1.031,1.082l2.71,2.849c0.353,0.366,0.595,0.589,0.729,0.665
			c0.199,0.103,0.411,0.127,0.633,0.072l0.058,0.282l-2.605,0.833l-3.638-3.838L426.259,827.913L426.259,827.913z M425.215,822.865
			l0.932,4.51l0.348-0.111c0.565-0.181,0.975-0.38,1.23-0.597c0.254-0.221,0.425-0.524,0.515-0.908
			c0.092-0.39,0.082-0.857-0.029-1.398c-0.163-0.786-0.43-1.317-0.805-1.597c-0.371-0.28-0.884-0.317-1.538-0.107L425.215,822.865z"
			/>
		<path id="path848" d="M290.915,830.629l-0.36,2.944c-0.07,0.568-0.088,0.933-0.051,1.093c0.041,0.155,0.126,0.29,0.256,0.406
			c0.131,0.114,0.389,0.207,0.776,0.281l-0.035,0.286l-4.324-0.819l0.035-0.287c0.39,0.075,0.659,0.081,0.807,0.02
			c0.153-0.067,0.265-0.167,0.337-0.301c0.076-0.134,0.149-0.485,0.219-1.054l0.836-6.818c0.07-0.569,0.084-0.93,0.045-1.085
			c-0.036-0.161-0.119-0.298-0.25-0.413c-0.13-0.114-0.389-0.21-0.776-0.283l0.036-0.286l3.925,0.744
			c1.022,0.194,1.758,0.423,2.211,0.689c0.451,0.265,0.799,0.664,1.039,1.195c0.241,0.528,0.323,1.109,0.246,1.743
			c-0.096,0.775-0.398,1.373-0.909,1.794c-0.326,0.266-0.756,0.43-1.291,0.492l1.595,3.943c0.209,0.509,0.363,0.832,0.461,0.967
			c0.152,0.192,0.338,0.317,0.561,0.375l-0.036,0.286l-2.66-0.504l-2.135-5.304L290.915,830.629L290.915,830.629z M291.548,825.476
			l-0.564,4.603l0.355,0.067c0.577,0.109,1.017,0.126,1.32,0.051c0.303-0.079,0.556-0.275,0.761-0.585
			c0.208-0.313,0.346-0.747,0.413-1.3c0.099-0.802,0.019-1.422-0.237-1.861c-0.252-0.439-0.713-0.723-1.381-0.849L291.548,825.476
			L291.548,825.476z"/>
		<path id="path851" d="M364.801,838.297l-3.015,0.159l-0.324,1.053c-0.107,0.351-0.155,0.638-0.147,0.863
			c0.011,0.297,0.113,0.512,0.312,0.644c0.116,0.077,0.397,0.124,0.843,0.143l0.01,0.29l-2.839,0.149l-0.01-0.29
			c0.304-0.073,0.55-0.242,0.739-0.508c0.189-0.273,0.414-0.82,0.677-1.645l2.766-8.631l0.119-0.007l3.374,8.546
			c0.322,0.808,0.581,1.316,0.777,1.52c0.148,0.155,0.352,0.238,0.613,0.25l0.011,0.29l-4.13,0.217l-0.01-0.29l0.17-0.009
			c0.331-0.018,0.562-0.087,0.692-0.209c0.09-0.089,0.132-0.211,0.127-0.366c-0.004-0.096-0.019-0.191-0.047-0.289
			c-0.011-0.046-0.079-0.239-0.209-0.578L364.801,838.297z M364.568,837.73l-1.395-3.591l-1.186,3.727L364.568,837.73z"/>
	</g>
	<g id="g658" transform="matrix(.38925 0 0 .37394 196.25 536.23)">
		<rect id="rect584" x="407.48" y="556.302" fill="#FFF600" width="177.17" height="177.17"/>
		<rect id="rect565" x="432.79" y="379.13" fill="#CC1900" width="25.31" height="177.171"/>
		<rect id="rect566" x="483.409" y="379.13" fill="#CC1900" width="25.31" height="177.171"/>
		<rect id="rect567" x="534.028" y="379.13" fill="#CC1900" width="25.31" height="177.171"/>
		<rect id="rect570" x="407.48" y="379.13" fill="#FFF600" width="25.31" height="177.171"/>
		<rect id="rect571" x="458.099" y="379.13" fill="#FFF600" width="25.31" height="177.171"/>
		<rect id="rect572" x="508.721" y="379.13" fill="#FFF600" width="25.307" height="177.171"/>
		<rect id="rect573" x="559.341" y="379.13" fill="#FFF600" width="25.307" height="177.171"/>
		<rect id="rect574" x="271.651" y="574.02" fill="#CC1900" width="19.683" height="159.451"/>
		<rect id="rect575" x="311.019" y="574.02" fill="#CC1900" width="19.686" height="159.451"/>
		<rect id="rect576" x="350.391" y="574.02" fill="#CC1900" width="19.686" height="159.451"/>
		<rect id="rect577" x="251.97" y="574.02" fill="#FFF600" width="19.686" height="159.451"/>
		<rect id="rect578" x="291.339" y="574.02" fill="#FFF600" width="19.686" height="159.451"/>
		<rect id="rect579" x="330.71" y="574.02" fill="#FFF600" width="19.686" height="159.451"/>
		<rect id="rect580" x="370.081" y="574.02" fill="#FFF600" width="19.683" height="159.451"/>
		<rect id="rect581" x="232.28" y="574.02" fill="#CC1900" width="19.686" height="159.451"/>
		<rect id="rect582" x="212.599" y="574.02" fill="#FFF600" width="19.686" height="159.451"/>
		<rect id="rect583" x="212.599" y="379.13" fill="#CC1900" width="177.17" height="177.171"/>
		<path id="path597" fill="#FFF600" d="M374.044,431.199c3.632-1.031,4.161-6.148,4.719-10.363
			c1.109-8.431-5.639-16.282-15.064-17.525c-9.427-1.242-17.872,3.781-18.984,12.211l-7.34,2.968l10.226,1.347l-11.029,4.762
			l13.661,1.8l-110.119,97.369l6.025,7.01l110.119-97.368c2.908-2.571,0.806-6.11-2.403-9.016c-3.786-3.427-2.818-4.104-2.321-7.876
			c0.724-5.495,5.704-7.842,11.36-7.096c5.656,0.745,9.703,5.456,9.037,10.514c-0.331,2.529-1.313,5.505-3.856,6.084
			C363.892,428.199,369.917,435.209,374.044,431.199L374.044,431.199z"/>
		<path id="path564" fill="#CBA323" stroke="#000000" d="M194.881,361.42v336.61c0,35.435,16.977,53.15,50.933,53.15h118.85
			c33.958,0,33.958,35.435,33.958,35.435s0-35.435,33.956-35.435h118.847c33.958,0,50.935-17.716,50.935-53.15V361.42H194.881
			L194.881,361.42z M212.596,379.137v177.159h177.17V379.137H212.596z M407.475,379.137v177.159h177.17V379.137H407.475z
			 M212.596,574.018v106.301c0,35.432,16.977,53.148,50.933,53.148h73.081h53.152V574.018h-177.16H212.596z M584.645,574.018
			v106.301c0,35.432-16.977,53.148-50.933,53.148h-73.081H407.48V574.018h177.16H584.645z"/>
		<path id="path585" fill="#FFFFFF" d="M301.174,396.853l-35.434,37.964l10.902,68.336h49.062l10.902-68.336L301.174,396.853z"/>
		<path id="path586" fill="#FFF600" d="M298.458,411.019l-27.255,28.346l10.902,56.693h16.352v-85.037V411.019z M303.91,411.019
			v85.036h16.355l10.9-56.693l-27.255-28.346V411.019z"/>
		<path id="path587" fill="#FFFBFF" d="M310.039,503.147h-8.858c0,0,4.43,14.677,8.858,14.677c17.718,0,53.241-21.406,53.152-14.677
			c0,14.677-8.86,7.339-8.86,14.677c0,7.339,17.718,0,17.718-7.339c0-7.339,0-14.676-8.858-14.676
			c-8.86,0-34.615,14.775-44.291,14.676C310.039,510.486,310.039,503.147,310.039,503.147z"/>
		<path id="path588" fill="#FFFBFF" d="M292.319,503.147h8.86c0,0-4.43,14.677-8.86,14.677c-17.716,0-53.239-21.406-53.149-14.677
			c0,14.677,8.858,7.339,8.858,14.677c0,7.339-17.716,0-17.716-7.339c0-7.339,0-14.676,8.858-14.676
			c8.858,0,34.615,14.775,44.291,14.676C292.319,510.486,292.319,503.147,292.319,503.147z"/>
		<g id="g657" transform="matrix(.38048 0 0 .32170 515.51 448.82)">
			<g id="g616" transform="translate(-2.5058 -84.936)">
				<path id="path612" fill="#CC1900" stroke="#FFF600" stroke-width="5" d="M21.489,576.049
					c-7.427,34.648,20.384,41.875,6.185,55.684l-45.783,44.535l-17.325-3.708l28.465-48.252
					C2.517,608.217,24.052,564.099,21.489,576.049z"/>
				<path id="path607" fill="#CC1900" stroke="#FFF600" stroke-width="7.9903" d="M52.367,613.202c0,1.842,1.759,15.961,0,17.557
					c-1.752,1.588-7.015-9.356-10.153-8.152c-3.132,1.203-5.949,12.089-10.094,12.769c-4.145,0.671-9.623-8.873-14.402-8.873
					c-4.786,0-9.342,9.544-13.487,8.873c-4.145-0.671-7.878-11.557-11.016-12.769c-3.132-1.195-8.394,9.74-10.153,8.152
					c-1.752-1.588,0-15.716,0-17.549c0-7.35,15.527-13.309,34.656-13.309c19.129,0,34.649,5.959,34.649,13.309V613.202z"/>
				<path id="path605" fill="#008D00" d="M-145.292,490.383c10.264,5.926,9.427,15.814,5.936,17.745s-8.329-4.813-18.593-10.731
					c-10.264-5.926-22.091-8.799-18.593-10.731C-173.051,484.727-155.556,484.465-145.292,490.383z"/>
				<path id="path602" fill="#CC1900" stroke="#FFF600" stroke-width="5" d="M-114.539,589.276l-44.914,28.411l28.413,44.92
					l14.971-9.47l-18.94-29.95l29.942-18.94L-114.539,589.276L-114.539,589.276z"/>
				<path id="path599" fill="#CC1900" stroke="#FFF600" stroke-width="5" d="M70.862,574.019c0,35.434,28.707,36.67,17.717,53.154
					L53.151,680.32H35.434l17.717-53.146c5.904-17.721-17.717-35.442-70.868,0c-12.225,0-70.868-8.971-70.868,0v53.146h-17.71
					v-53.146c0-6.941-35.434-53.154-35.434-70.867c0-12.229-53.151,0-53.151-17.721c0-8.856,35.434-17.721,35.434-35.434
					c0-17.713,35.434,0,53.151,0c0,17.713-17.717,35.434,17.71,35.434c24.451,0,177.17,0,177.17,17.721
					c0,17.713-17.717,5.484-17.717,17.713H70.862z"/>
				<path id="path608" fill="#008D00" d="M-100.405,680.312c9.617-0.065,13.082,8.889,11.428,12.319
					c-1.661,3.43-7.806,0.057-17.423,0.123c-9.617,0.065-19.083,3.552-17.423,0.123
					C-122.169,689.446-110.022,680.377-100.405,680.312z"/>
				<path id="path609" fill="#008D00" d="M41.324,680.312c9.617-0.065,13.082,8.889,11.421,12.319
					c-1.654,3.43-7.806,0.057-17.423,0.123c-9.617,0.065-19.077,3.552-17.416,0.123C19.561,689.446,31.708,680.377,41.324,680.312z"
					/>
				<path id="path610" fill="#008D00" d="M-122.796,655.56c7.799-5.623,15.815-0.344,16.455,3.421
					c0.641,3.749-6.328,4.567-14.128,10.199c-7.799,5.631-13.487,13.948-14.128,10.199
					C-135.237,675.614-130.589,661.191-122.796,655.56z"/>
				<path id="path613" fill="#008D00" d="M-27.602,665.66c9.61-0.327,13.311,8.529,11.748,11.999
					c-1.562,3.487-7.799,0.262-17.416,0.589c-9.61,0.327-18.972,4.06-17.41,0.589S-37.219,665.98-27.602,665.66z"/>
				<polygon id="rect614" fill="#008D00" points="-148.483,559.957 -106.302,527.626 -95.521,541.688 -137.709,574.019 				"/>
				<path id="path615" fill="#008D00" d="M-130.968,582.876c0,4.895-2.406,8.856-5.38,8.856s-5.38-3.962-5.38-8.856
					s2.406-8.856,5.38-8.856S-130.968,577.981-130.968,582.876z"/>
			</g>
			<path id="path629" fill="#CC1900" stroke="#FFF600" stroke-width="5.0546" d="M50.645,479.441
				c17.71,0.016,17.71,9.642,10.303,9.642c-10.303,0-35.251,3.274-35.251,2.456c0-0.827-8.564-10.616-8.564-10.616
				c-0.641-2.627,0.608,10.551-0.641,10.616c-1.255,0.049-8.545-11.492-8.545-11.492s0.673,11.377,0,11.435
				c-0.667,0.057-9.179-7.039-9.179-7.039l-0.608,6.163l-7.956,7.031l7.956,7.915v6.163l7.956-6.163l0.608,11.443l9.793-11.443
				c0,0,2.471,12.18,1.223,12.327c-1.249,0.131,8.564-12.327,8.564-12.327c-0.608-0.778,28.099,0,45.43-0.778
				c17.338-0.786,17.024-38.806,9.212-39.714c-7.812-0.909-30.302,2.488-30.302-0.156"/>
		</g>
		<g id="g671" transform="matrix(.38048 0 0 .32170 515.51 519.69)">
			<g id="g672" transform="translate(-2.5058 -84.936)">
				<path id="path673" fill="#CC1900" stroke="#FFF600" stroke-width="5" d="M21.489,576.046
					c-7.427,34.648,20.384,41.875,6.185,55.684l-45.783,44.544l-17.325-3.708l28.465-48.26
					C2.517,608.214,24.052,564.096,21.489,576.046z"/>
				<path id="path674" fill="#CC1900" stroke="#FFF600" stroke-width="7.9903" d="M52.367,613.207c0,1.833,1.759,15.961,0,17.549
					c-1.752,1.588-7.015-9.356-10.153-8.152c-3.132,1.211-5.949,12.098-10.094,12.769c-4.145,0.671-9.623-8.865-14.402-8.865
					c-4.786,0-9.342,9.536-13.487,8.865c-4.145-0.671-7.878-11.557-11.016-12.769c-3.132-1.195-8.394,9.74-10.153,8.152
					c-1.752-1.588,0-15.716,0-17.549c0-7.342,15.527-13.301,34.656-13.301C36.846,599.906,52.367,605.865,52.367,613.207
					L52.367,613.207z"/>
				<path id="path675" fill="#008D00" d="M-145.292,490.388c10.264,5.926,9.427,15.806,5.936,17.737s-8.329-4.805-18.593-10.731
					c-10.264-5.918-22.091-8.799-18.593-10.731C-173.051,484.733-155.556,484.462-145.292,490.388z"/>
				<path id="path676" fill="#CC1900" stroke="#FFF600" stroke-width="5" d="M-114.539,589.273l-44.914,28.419l28.413,44.912
					l14.971-9.47l-18.94-29.941l29.942-18.94L-114.539,589.273L-114.539,589.273z"/>
				<path id="path677" fill="#CC1900" stroke="#FFF600" stroke-width="5" d="M70.862,574.016c0,35.442,28.707,36.67,17.717,53.154
					l-35.427,53.146H35.434l17.717-53.146c5.904-17.713-17.717-35.434-70.868,0c-12.225,0-70.868-8.971-70.868,0v53.146h-17.71
					v-53.146c0-6.941-35.434-53.154-35.434-70.867c0-12.229-53.151,0-53.151-17.713c0-8.865,35.434-17.721,35.434-35.442
					c0-17.713,35.434,0,53.151,0c0,17.721-17.717,35.442,17.71,35.442c24.451,0,177.17,0,177.17,17.713
					c0,17.713-17.717,5.492-17.717,17.713H70.862z"/>
				<path id="path678" fill="#008D00" d="M-100.405,680.309c9.617-0.065,13.082,8.889,11.428,12.327
					c-1.661,3.43-7.806,0.049-17.423,0.115c-9.617,0.065-19.083,3.552-17.423,0.123
					C-122.169,689.443-110.022,680.383-100.405,680.309z"/>
				<path id="path679" fill="#008D00" d="M41.324,680.309c9.617-0.065,13.082,8.889,11.421,12.327
					c-1.654,3.43-7.806,0.049-17.423,0.115c-9.617,0.065-19.077,3.552-17.416,0.123C19.561,689.443,31.708,680.383,41.324,680.309z"
					/>
				<path id="path680" fill="#008D00" d="M-122.796,655.565c7.799-5.631,15.815-0.344,16.455,3.413
					c0.641,3.757-6.328,4.567-14.128,10.199c-7.799,5.631-13.487,13.956-14.128,10.199
					C-135.237,675.619-130.589,661.188-122.796,655.565z"/>
				<path id="path681" fill="#008D00" d="M-27.602,665.657c9.61-0.327,13.311,8.529,11.748,12.008
					c-1.562,3.479-7.799,0.262-17.416,0.581c-9.61,0.327-18.972,4.068-17.41,0.589C-49.117,675.365-37.219,665.985-27.602,665.657z"
					/>
				<polygon id="rect682" fill="#008D00" points="-148.483,559.954 -106.302,527.623 -95.521,541.685 -137.709,574.016 				"/>
				<path id="path683" fill="#008D00" d="M-130.968,582.873c0,4.895-2.406,8.856-5.38,8.856s-5.38-3.962-5.38-8.856
					c0-4.895,2.406-8.856,5.38-8.856S-130.968,577.978-130.968,582.873z"/>
			</g>
			<path id="path684" fill="#CC1900" stroke="#FFF600" stroke-width="5.0546" d="M50.645,479.446
				c17.71,0.008,17.71,9.634,10.303,9.634c-10.303,0-35.251,3.274-35.251,2.456c0-0.827-8.564-10.608-8.564-10.608
				c-0.641-2.636,0.608,10.551-0.641,10.608c-1.255,0.049-8.545-11.492-8.545-11.492s0.673,11.377,0,11.435
				c-0.667,0.057-9.179-7.031-9.179-7.031l-0.608,6.155l-7.956,7.039l7.956,7.915v6.163l7.956-6.163l0.608,11.435l9.793-11.435
				c0,0,2.471,12.18,1.223,12.319c-1.249,0.131,8.564-12.319,8.564-12.319c-0.608-0.786,28.099,0,45.43-0.786
				c17.338-0.778,17.024-38.806,9.212-39.714c-7.812-0.909-30.302,2.488-30.302-0.156"/>
		</g>
	</g>
</g>
</svg>
