<?xml version="1.0" encoding="utf-8"?>
<!-- Generator: Adobe Illustrator 16.0.0, SVG Export Plug-In . SVG Version: 6.00 Build 0)  -->
<svg version="1.2" baseProfile="tiny"
	 id="svg548" xmlns:cc="http://creativecommons.org/ns#" xmlns:dc="http://purl.org/dc/elements/1.1/" xmlns:rdf="http://www.w3.org/1999/02/22-rdf-syntax-ns#"
	 xmlns="http://www.w3.org/2000/svg" xmlns:xlink="http://www.w3.org/1999/xlink" x="0px" y="0px" width="512px" height="512px"
	 viewBox="0 0 512 512" xml:space="preserve">
<g>
	<polygon fill="#FFFFFF" points="116.576,317.06 261.652,511.49 262.41,511.49 407.485,317.06 	"/>
	<rect x="-0.003" y="0" fill="#FFFFFF" width="511.997" height="0.618"/>
	<polygon points="-0.003,160.819 31.642,203.23 86.582,203.23 165.88,182.839 102.099,135.001 179.548,147.53 138.545,78.054 
		209.16,121.335 195.492,38.189 243.329,103.11 264.97,26.8 284.332,100.833 332.168,37.051 319.64,117.918 390.256,76.915 
		349.253,146.391 428.981,135.001 364.06,183.978 439.936,203.23 492.419,203.23 511.994,176.995 511.994,0.618 -0.003,0.618 	"/>
	<polygon fill="#0061FF" points="116.576,317.06 407.485,317.06 492.419,203.23 439.936,203.23 440.37,203.34 440.373,203.34 
		440.37,203.34 86.153,203.34 86.582,203.23 31.642,203.23 	"/>
	<polygon fill="#E20000" points="407.485,317.06 262.41,511.49 262.033,511.996 511.994,511.996 511.994,176.995 492.419,203.23 	
		"/>
	<polygon fill="#E20000" points="31.642,203.23 -0.003,160.819 -0.003,511.996 262.03,511.996 261.652,511.49 116.576,317.06 	"/>
	
		<line fill="none" stroke="#FFD600" stroke-width="0" stroke-linecap="round" stroke-linejoin="round" x1="440.37" y1="203.34" x2="440.373" y2="203.34"/>
	<polygon fill="#FFD600" points="440.37,203.34 439.936,203.23 364.06,183.978 428.981,135.001 349.253,146.391 390.256,76.915 
		319.64,117.918 332.168,37.051 284.332,100.833 264.97,26.8 243.329,103.11 195.492,38.189 209.16,121.335 138.545,78.054 
		179.548,147.53 102.099,135.001 165.88,182.839 86.582,203.23 86.153,203.34 	"/>
</g>
</svg>
