<?xml version="1.0" encoding="utf-8"?>
<!-- Generator: Adobe Illustrator 16.0.0, SVG Export Plug-In . SVG Version: 6.00 Build 0)  -->
<svg version="1.2" baseProfile="tiny"
	 id="svg548" xmlns:cc="http://creativecommons.org/ns#" xmlns:dc="http://purl.org/dc/elements/1.1/" xmlns:rdf="http://www.w3.org/1999/02/22-rdf-syntax-ns#"
	 xmlns="http://www.w3.org/2000/svg" xmlns:xlink="http://www.w3.org/1999/xlink" x="0px" y="0px" width="512px" height="512px"
	 viewBox="0 0 512 512" xml:space="preserve">
<g id="flag">
	<rect id="rect1066" x="0" fill="#DE2110" width="512" height="512"/>
	<path id="path552" d="M167.48,127.3c7.354-0.718,8.847-0.622,14.246,0.776c-6.935,3.172-15.133,1.587-20.218-2.92
		c-7.685-6.977-25.985-19.041-19.441-8.761c33.953,37.625,63.195,12.186,80.979,33.851c6.058,7.379,11.407,17.285,8.22,27.014
		c-1.09,3.33-5.026,11.164-9.786,9.172c-6.232-2.607,1.181-23.087-3.356-29.751c-10.301-15.129-28.965-11.082-44.278-12.717
		c-4.443,12.048-15.146,10.233-24.986,4.155c-12.562-7.757-12.184-26.836-23.411-33.137c-11.699-6.566-9.792,15.425-7.907,20.65
		c8.166,22.642,32.212,31.105,54.221,27.079c-16.289,25.222-42.107-16.327-54.896-6.151c-8.114,6.457,6.219,18.204,11.184,20.899
		c13.736,7.457,30.243,3.712,43.712-2.25c-7.69,8.353-21.841,13.478-33.328,11.783c-5.933-0.875-17.819-8.331-23.224-3.362
		c-8.345,7.671,12.026,16.769,16.974,17.846c16.677,3.628,28.488-5.172,41.661-13.768c-8.271,8.267-17.103,19.587-29.162,22.061
		c-7.521,1.543-24.122-6.133-28.982,1.836c-5.812,9.528,9.599,15.558,16.484,14.962c16.314-1.411,31.462-14.537,43.744-24.278
		c-8.44,11.973-21.468,24.643-35.412,30.053c-7.318,2.839-19.901-1.555-25.411,4.822c-8.488,9.823,10.2,15.62,17.079,13.947
		c20.078-4.884,30.789-26.854,49.993-34.241c-13.025,11.997-26.823,30.583-41.849,39.476c-7.465,4.42-19.64-0.996-25.543,5.524
		c-13.345,14.737,20.09,17.887,29.534,10.08c15.821-13.075,23.405-31.819,42.023-42.581c-12.417,16.887-28.145,42.104-43.938,55.736
		c-7.519,6.488-24.026,0.796-28.789,8.011c-9.565,14.492,21.284,16.981,28.975,11.859c25.246-16.811,26.625-55.773,58.333-65.191
		c-8.984,19.243-17.949,45.291-39.578,52.076c3.245,9.775,14.719,10.631,22.093,3.504c12.654-12.225,10.042-40.057,32.066-40.998
		l-15.883,22.264c0.843,9.094,17.143-3.104,22.132-11.849h2.083c-8.678,20.701-23.997,32.26-43.744,41.661
		c0.388,12.342-7.87,18.699-18.747,22.913c-5.854-10.761-21.451-18.767-29.162-6.249c6.12,0.824,11.588,1.975,12.498,8.332
		c-9.704-3.504-17.363-5.164-20.83,6.249c11.37-1.866,15.254-1.452,17.185,3.517c-7.771,8.95-6.504,22.564,7.812,23.887
		c-3.993-2.885-6.684-4.795-4.49-8.656c3.174-4.217,6.932,0.05,8.773-2.463c3.437-5.016,0.342-3.264,4.725-1.245
		c3.591,2.571,9.432-8.187,17.746,9.957c10.001-7.194,0.38-18.565-3.841-27.079l31.245-6.249l35.412-33.328l2.083,2.083
		c-11.446,18.01-27.919,33.473-49.993,35.412c7.389,13.4,21.884,6.49,33.328,2.083c-4.977,9.709-17.896,9.763-22.232,17.797
		c-8.893,16.479,28.261-0.509,30.564-1.133c-2.969,10.456-14.671,12.552-17.712,21.416c-2.362,6.882,7.28,7.563,11.375,5.565
		c7.903-3.857,13.068-14.328,18.835-20.732c-2.7,12.498,2.414,22.394-11.351,36.846l21.116,25.971l24.105-26.002
		c-13.307-11.513-5.135-24.979-7.701-37.463c5.637,6.609,7.555,17.458,15.563,21.382c3.735,1.829,11.444,1.888,10.508-4.264
		c-1.327-8.71-14.123-13.185-16.829-22.718c2.666,0.881,38.682,17.771,30.397,1.133c-3.927-7.885-17.214-8.332-22.065-17.797
		c11.575,4.457,23.458,10.078,33.327,0c-18.345-6.374-45.633-17.23-47.909-39.578l36.005,31.002l30.651,10.659v2.083
		c-7.47,7.782-11.794,13.211-5.599,22.718l7.617,2.281c-4.883-5.383-3.254-8.161,0-10.288c5.512-2.627,8.828,2.473,10.961-2.789
		c0.969-2.555,1.309-3.756,1.8-0.638c0.544,5.522,8.194,1.274,10.869,1.995c4.185,4.123-2.041,8.245-2.735,11.717
		c11.836-4.146,14.073-11.408,10.415-22.912c0.781-4.362,3.517-6.445,6.249-6.25c3.104,0.369,5.556,1.391,8.332,2.084
		c-4.063-10.615-11.235-10.213-20.829-6.25c0.868-6.357,4.014-9.461,10.415-8.332c-4.811-14.433-22.203-2.848-27.079,6.25
		c-11.328-3.758-22.173-9.895-18.747-22.914c-19.142-9.11-36.957-20.396-43.744-41.66h2.083c4.989,8.744,20.964,14.758,19.853,6.641
		l-13.604-17.056c29.296,1.258,17.627,54.513,54.159,43.744v-4.166c-21.022-11.709-29.658-32.914-39.578-54.159
		c31.181,9.263,32.212,47.937,56.436,64.827c7.747,5.4,40.353,3.953,30.767-11.494c-4.312-6.949-21.508-1.934-28.795-8.012
		c-15.822-13.198-31.736-38.862-43.826-55.736c19.135,12.16,28.294,36.653,47.912,46.477c8.284,4.15,27.921,3.531,25.103-10.764
		c-2.004-10.175-18.32-4.502-25.073-7.397c-15.153-6.497-31.629-29.188-43.774-40.813c18.187,7.988,28.971,28.335,47.909,34.051
		c6.971,2.104,24.97-1.031,19.983-12.319c-3.543-8.02-19.406-3.696-26.231-6.154c-15.009-5.404-26.542-19.207-37.495-30.159
		c14.699,8.456,27.996,22.758,45.827,24.278c6.884,0.587,24.745-7.583,15.366-16.296c-6.101-5.667-18.437,0.657-25.781-0.177
		c-11.832-1.343-21.78-11.777-29.162-20.303c17.206,10.57,70.61,15.073,61.254-7.03c-6.495-5.404-13.592,4.008-26.367,4.363
		c-13.386,0.031-26.661-3.144-37.62-11.589c13.956,4.712,29.973,9.712,44.362,2.971c5.115-2.396,23.43-17.57,11.594-22.778
		c-9.228-4.061-18.739,9.015-26.144,12.323c-9.179,4.1-19.888,1.112-29.162-1.173v-2.083c19.023-1.01,37.915-2.091,50.432-18.831
		c4.109-5.498,14.823-28.012,2.855-31.679c-4.776-1.464-8.478,3.304-10.467,6.888c-5.845,10.536-31.91,52.379-42.821,22.791
		c-15.346,1.638-33.935-2.4-44.28,12.717c-4.591,6.708,2.5,27.293-3.695,29.751c-17.506,6.943-5.813-31.311-1.57-36.186
		c18.863-21.685,69.87-3.016,78.708-33.361c0.961-8.047-10.509,6.353-15.907,9.843c-5.85,3.604-13.275,3.839-19.503,2.655
		c6.607-3.461,11.913-2.365,16.079-3.06c-3.91-6.87-12.878-5.999-15.17-9.804c-2.991-5.401-14.921-6.976-21.698-5.905
		c-12.893,2.849-17.853,6.694-41.702,0.021l10.415,12.498l-14.927,6.238l6.595,4.178l-12.498,8.332
		c2.083,0.694,7.043,0.698,6.709,2.658l-10.068,17.125c-2.09-3.59-8.961-12.989-9.93-16.595c-0.485-1.61,2.42-2.361,6.351-3.073
		l-11.809-8.447l7.632-4.459l-15.964-5.956l8.332-12.498c-13.283,8.861-24.686-3.524-40.064,0.098
		c-6.558,1.491-11.853,8.792-18.027,7.574c-5.208-0.891-11.278,2.206-14.929,8.993V127.3z"/>
	<path id="path1069" fill="#DE2110" d="M132.34,331.3c0.651,0.312,1.848,0.156,2.03,0.859c-1.225,0.442-2.683,0.495-3.906,0.392
		C131.037,331.248,131.689,331.742,132.34,331.3L132.34,331.3z"/>
	<path id="path1075" fill="#DE2110" d="M188.2,331.529c-0.65,0.312-1.848,0.156-2.029,0.859c1.224,0.443,2.682,0.496,3.905,0.392
		C189.504,331.479,188.851,331.973,188.2,331.529L188.2,331.529z"/>
</g>
</svg>
