<?xml version="1.0" encoding="utf-8"?>
<!-- Generator: Adobe Illustrator 16.0.0, SVG Export Plug-In . SVG Version: 6.00 Build 0)  -->
<svg version="1.2" baseProfile="tiny"
	 id="svg820" xmlns:cc="http://creativecommons.org/ns#" xmlns:dc="http://purl.org/dc/elements/1.1/" xmlns:rdf="http://www.w3.org/1999/02/22-rdf-syntax-ns#"
	 xmlns="http://www.w3.org/2000/svg" xmlns:xlink="http://www.w3.org/1999/xlink" x="0px" y="0px" width="512px" height="512px"
	 viewBox="0 0 512 512" xml:space="preserve">
<g id="flag">
	<g id="g3332" transform="matrix(.68808 0 0 1.0168 0 -16.204)">
		<rect id="rect918" x="0" y="15.937" fill="#FF0000" width="744.09" height="255.53"/>
		<rect id="rect919" x="0" y="263.97" width="744.09" height="255.53"/>
	</g>
	<g id="g3311" transform="translate(-113.16 4.8627)">
		<path id="path824" fill="#FFEC00" d="M341.83,143.31c165.22,43.304,58.989,255.64-71.216,167.26
			c-2.939,4.515-5.877,9.03-8.817,13.545c76.628,54.658,152.57,10.66,173.899-46.358c22.298-58.788-7.521-141.479-92.511-150.029
			c-0.45,5.192-0.903,10.384-1.354,15.576L341.83,143.31z"/>
		<polygon id="rect825" fill="#FFEC00" points="283.115,325.963 304.844,336.089 294.703,357.786 272.974,347.66 		"/>
		<rect id="rect826" x="432.1" y="226.484" fill="#FFEC00" width="23.979" height="23.942"/>
		<polygon id="rect827" fill="#FFEC00" points="420.416,187.592 442.758,178.899 451.465,201.207 429.123,209.9 		"/>
		<polygon id="rect828" fill="#FFEC00" points="394.523,158.404 411.557,141.554 428.434,158.563 411.4,175.414 		"/>
		<polygon id="rect829" fill="#FFEC00" points="368.238,118.617 390.672,127.072 382.204,149.472 359.77,141.017 		"/>
		<polygon id="rect830" fill="#FFEC00" points="429.259,265.147 451.525,274.036 442.623,296.266 420.358,287.379 		"/>
		<polygon id="rect831" fill="#FFEC00" points="359.385,335.198 381.442,325.809 390.846,347.835 368.787,357.223 		"/>
		<rect id="rect832" x="319.88" y="337.965" fill="#FFEC00" width="23.979" height="23.942"/>
		<path id="path739" fill="#FFEC00" d="M361.17,222.03l-20.351-15.006l-20.244,14.469l8.034-22.918l-20.348-14.957l24.447-0.171
			l8.568-22.551l7.781,22.703l24.702-0.242l-19.587,15.232L361.17,222.03L361.17,222.03z"/>
		<path id="path878" fill="#FFEE00" d="M449.19,341.512c-1.211,0.419-6.229,12.39-9.675,18.248c1.797,0.51,2.559,0.598,3.625,1.025
			c13.655,4.801,20.384,9.182,26.187,17.506c2.888,2.791,7.031,2.931,10.197,0.697c0,0,2.795-1.115,6.43-5.022
			c2.969-4.52,2.194-8.109-1.384-11.16C473.626,354.856,461.67,348.905,449.19,341.512L449.19,341.512z"/>
		<path id="path879" d="M478.406,367.979c0,2.389-1.938,4.324-4.331,4.324c-2.392,0-4.331-1.936-4.331-4.324
			s1.939-4.324,4.331-4.324C476.468,363.655,478.406,365.59,478.406,367.979z"/>
		<path id="path880" d="M457.029,354.307c0,2.389-1.938,4.324-4.331,4.324c-2.392,0-4.331-1.936-4.331-4.324
			s1.939-4.324,4.331-4.324C455.091,349.983,457.029,351.919,457.029,354.307z"/>
		<path id="path881" d="M467.928,361.283c0,2.388-1.939,4.324-4.331,4.324c-2.393,0-4.332-1.937-4.332-4.324
			c0-2.389,1.939-4.325,4.332-4.325C465.988,356.958,467.928,358.894,467.928,361.283z"/>
		<path id="path882" fill="#FFEE00" d="M437.63,358.803c-42.57-24.272-87.31-50.521-129.88-74.795
			c-18.751-11.637-19.684-33.385-7.17-49.876c1.302-2.336,2.836-1.758,3.514-0.523c1.463,8.028,5.969,16.324,11.37,21.496
			c44.693,28.383,87.732,55.804,131.71,85.612c-3.448,5.768-6.104,12.322-9.55,18.087H437.63z"/>
		<polygon id="rect892" fill="#FFEC00" points="410.334,300.594 428.185,316.581 412.174,334.405 394.323,318.419 		"/>
		<path id="path893" fill="none" stroke="#000000" stroke-width="2.2878" d="M444.699,343.958L319.74,268.436"/>
		<path id="path894" fill="none" stroke="#000000" stroke-width="2.2878" d="M429.27,326.53l-42.239-27.279"/>
		<path id="path895" fill="none" stroke="#000000" stroke-width="2.2878" d="M405.24,341.938l-42.75-24.756"/>
	</g>
</g>
</svg>
