<?xml version="1.0" encoding="utf-8"?>
<!-- Generator: Adobe Illustrator 16.0.0, SVG Export Plug-In . SVG Version: 6.00 Build 0)  -->
<svg version="1.2" baseProfile="tiny"
	 id="svg562" xmlns:cc="http://creativecommons.org/ns#" xmlns:dc="http://purl.org/dc/elements/1.1/" xmlns:rdf="http://www.w3.org/1999/02/22-rdf-syntax-ns#"
	 xmlns="http://www.w3.org/2000/svg" xmlns:xlink="http://www.w3.org/1999/xlink" x="0px" y="0px" width="512px" height="512px"
	 viewBox="0 0 512 512" xml:space="preserve">
<g>
	<path fill="#3A7DCE" d="M0,512h512V0H0V512z M116.221,157.615c0.827-1.078,2.248-1.096,3.39-1.11
		c0.186-0.002,0.371-0.005,0.551-0.012c0.452-0.016,0.87,0.203,1.112,0.579c0.242,0.376,0.269,0.852,0.069,1.252
		c-0.246,0.493-0.684,0.641-0.974,0.739c-0.501,0.169-1.543,0.521-2.125,1.72c-0.213,0.439-0.658,0.713-1.139,0.713
		c-0.042,0-0.085-0.002-0.128-0.006c-0.529-0.053-0.968-0.432-1.1-0.946C115.558,159.292,115.671,158.334,116.221,157.615z
		 M120.643,164.656c-0.226,0.453-0.619,0.612-0.83,0.698c-0.314,0.127-0.968,0.392-1.57,1.633c-0.213,0.44-0.658,0.714-1.139,0.714
		c-0.042,0-0.085-0.002-0.127-0.006c-0.529-0.053-0.968-0.431-1.1-0.946c-0.355-1.388,0.031-2.274,0.417-2.772
		c0.586-0.755,1.597-1.171,2.846-1.171c0.316,0,0.525,0.027,0.525,0.027c0.406,0.053,0.767,0.301,0.959,0.663
		C120.815,163.857,120.826,164.29,120.643,164.656z M58.823,152.733l12.956,5.677c7.402,3.785,9.254,7.569,14.807,11.354
		l16.658,5.677c7.402,5.677,11.104,13.247,16.658,15.14c6.015,0,7.174-3.542,9.102-3.763c10.882-0.57,16.435-2.003,18.604-5.345
		c2.197-2.661,7.46,1.538,22.267-4.139l-1.85-7.57c0,0,3.933-3.312,9.254-1.893c-0.145-3.459-0.492-12.685,4.749-16.847
		c-3.183-3.415-1.047-5.862-1.047-5.862s2.95-2.898,3.296-4.436c-1.561-8.339,1.354-8.468,2.009-10.921
		c0.652-2.453-2.518-1.612-1.624-4.994c0.893-3.383,6.254-4.186,6.972-6.972c0.721-2.786-1.528-4.184-1.398-4.849
		c1.156-2.661,0.174-8.93,0-11.355c9.948-2.72,13.188-11,16.658-7.57c1.851-11.355,3.701-15.14,14.807-15.14
		c1.562-3.489-4.05-6.446-1.852-7.57c3.702-0.473,6.536-0.237,10.876,5.5c1.37,1.818,1.618-2.662,3.007-3.135
		c1.388-0.473,4.71-0.48,5.204-2.72c0.522-2.307,1.273-5.323,3.125-9.107c1.562-3.075,2.775,1.183,4.163,7.215
		c7.81,0.296,25.45,2.07,32.854,4.14c5.553,1.479,9.255-1.479,14.576-2.07c3.933,4.021,7.635,1.005,9.717,9.581
		c2.939,4.627,7.75,0.414,8.792,1.774c6.189,17.446,27.474,5.677,29.093,5.973c2.718,0,6.038,7.801,8.178,7.607
		c3.477-0.599,2.492-3.023,5.529-2.048c-0.811,6.564,5.959,14.134,5.959,19.042c0,0,1.647,0.828,3.174-0.628
		c1.525-1.456,2.928-5.196,4.286-5.107c3.239,0.473,4.552,0.898,8.284,1.565c10.036,3.506,15.148,4.297,19.047,6.093
		c1.813,3.393,3.57,5.13,7.245,4.497c3.037,2.085,0.822,4.817,2.615,4.995c3.702-1.893,4.917-3.962,8.618-2.07
		c3.702,1.893,7.403,5.678,9.255,9.463c0,1.892-1.852,9.462,0,20.816c0.925,3.785,1.373,6.786,5.35,13.277
		c-1.057,6.668,5.004,17.889,5.004,20.728c0,3.784-2.951,5.736-4.802,9.521c7.404,5.678,0,15.14-3.701,20.817
		c27.763,5.678,14.808,17.032,37.018,11.354c-5.554,13.247-3.587,12.184,1.966,25.43c-11.106,7.571-0.23,9.875-7.633,19.336
		c-0.464,0.592,4.394,8.222,11.22,8.222c-1.852,15.14-7.404,9.462-5.553,32.172c-14.576-0.295-8.678,16.974-18.51,15.14
		c0.578,10.822,5.611,11.77,3.702,22.709c-7.402,1.893-7.402,1.893-11.104,7.57l-5.553-1.893c-1.852,9.462-5.553,11.354,0,20.817
		c0,0-7.173,0.235-9.255,0c-0.174,3.253,3.182,4.14,3.702,7.569c-0.289,1.36-10.527,7.333-18.509,7.57
		c-2.082,4.672,5.552,9.64,5.09,12.005c-8.677,1.714-12.494,12.596-12.494,12.596s4.454,1.834,3.702,3.785
		c-2.37-1.774-3.702-1.893-7.402-1.893c-1.852,0.474-6.362-0.116-10.688,7.348c-4.747,1.602-6.988,1.022-10.59,5.892
		c-1.595-4.639-3.888,0.044-6.691,1.844c-2.802,1.802-6.576,6.28-7.083,6.09c0.116-1.303,1.736-6.033,1.736-6.033l-9.255,1.893
		c0,0-0.413,0.041-1.14,0.117c-0.728,0.073-0.533-5.524-2.288-5.321c-1.753,0.204-6.771,7.04-8.48,7.254
		c-1.708,0.214-2.249-2.175-3.721-1.967c-1.471,0.208-4.34,7.21-5.382,7.396s-5.175-4.256-8.718-3.636
		c-18.22,6.565-21.112-12.95-23.946-1.95c-3.817-2.071-3.156-0.869-7.035,0.17c-2.475,0.652-2.7-3.346-4.9-3.284
		c-4.403,0.128-4.173,4.386-6.573,3.114c-1.965-8.872-13.824-7.275-14.98-11.059c-0.94-3.948,5.138-3.93,7.104-6.604
		c1.504-3.858-1.569-5.323,4.529-9.046c7.949-5.498,3.38-7.571,4.773-11.703c2.493-5.966,2.508-7.422,0.426-12.685
		c0,0-6.189-17.033-7.404-17.033c-3.701-1.062-3.701,6.269-9.139,8.28c-11.105,3.784-30.711-9.581-34.125-9.581
		c-3.122,0.06-17.587,3.502-17.041-3.872c-2.162,7.169-10.115,1.685-10.605,1.685c-7.403,0-4.57,5.855-9.545,5.617
		c-2.257-0.768-25.044-2.129-25.044-2.129v3.785l-14.807-7.57l-12.956-3.783c-11.105-3.785-5.553-13.248-24.062-7.57v-11.354h-9.254
		c3.701-22.71,0-11.354-1.851-32.172l-7.404,1.893c-7.403-10.231,10.295-8.28-5.552-15.14c0,0,0.288-11.297-3.702-7.57
		c-0.81,0.473,1.851,5.678,1.851,5.678c-14.807-1.893-18.509-5.678-18.509-20.817c0,0,12.204,1.774,11.105,0
		c-1.735-2.839-3.991-21.29-3.586-22.531c-0.174-2.484,11.337-8.752,9.109-14.727c1.409-0.529,5.53-0.59,5.577-0.59
		c-3.696-7.561-3.697-7.564-3.697-15.131c-1.851,0-2.198,0.356-3.269,0.058c-1.069-0.295-1.475,6.98-4.945,5.56
		c-0.578-0.709,2.487-5.972-0.838-8.159c-1.07-0.713,0.26-5.029-0.203-6.921c0,0-4.222,2.246-7.403-5.677
		c-1.562-2.071-3.701,1.892-3.701,1.892s0.925,2.425-0.752,3.017c-2.371-1.775-4.107-0.844-7.114-3.283
		c-3.008-2.44,0.637-5.233-5.09-7.303c3.701-9.462,3.701-7.57,12.956-11.354c-5.554-3.785-5.554-3.785-9.255-9.463
		c-5.553-1.893-7.403-3.784-12.956-7.569c-7.403-9.47-11.105-28.39-11.105-41.64C43.148,127.481,49.568,147.057,58.823,152.733z"/>
	<path fill="#FFFFFF" d="M62.524,181.126c3.701,5.678,3.701,5.678,9.255,9.463c-9.255,3.784-9.255,1.892-12.956,11.354
		c5.727,2.07,2.082,4.863,5.09,7.303c3.007,2.438,4.743,1.508,7.114,3.283c1.677-0.592,0.752-3.017,0.752-3.017
		s2.139-3.962,3.701-1.892c3.182,7.923,7.403,5.677,7.403,5.677c0.463,1.893-0.867,6.208,0.203,6.921
		c3.325,2.188,0.26,7.45,0.838,8.159c3.471,1.42,3.876-5.855,4.945-5.56c1.07,0.298,1.418-0.058,3.269-0.058
		c0,7.567,0,7.57,3.697,15.131c-0.046,0-4.167,0.061-5.577,0.59c2.228,5.975-9.283,12.243-9.109,14.727
		c-0.405,1.241,1.851,19.692,3.586,22.531c1.099,1.774-11.105,0-11.105,0c0,15.14,3.702,18.925,18.509,20.817
		c0,0-2.66-5.205-1.851-5.678c3.99-3.727,3.702,7.57,3.702,7.57c15.847,6.859-1.852,4.908,5.552,15.14l7.404-1.893
		c1.851,20.817,5.552,9.462,1.851,32.172h9.254v11.354c18.509-5.678,12.956,3.785,24.062,7.57l12.956,3.783l14.807,7.57v-3.785
		c0,0,22.787,1.361,25.044,2.129c4.975,0.238,2.142-5.617,9.545-5.617c0.49,0,8.443,5.484,10.605-1.685
		c-0.546,7.374,13.919,3.932,17.041,3.872c3.414,0,23.02,13.365,34.125,9.581c5.438-2.012,5.438-9.343,9.139-8.28
		c1.215,0,7.404,17.033,7.404,17.033c2.082,5.263,2.067,6.719-0.426,12.685c-1.394,4.132,3.176,6.205-4.773,11.703
		c-6.099,3.723-3.025,5.188-4.529,9.046c-1.966,2.674-8.044,2.655-7.104,6.604c1.156,3.783,13.016,2.187,14.98,11.059
		c2.4,1.271,2.17-2.986,6.573-3.114c2.2-0.062,2.426,3.937,4.9,3.284c3.879-1.039,3.218-2.241,7.035-0.17
		c2.834-11,5.727,8.516,23.946,1.95c3.543-0.62,7.676,3.821,8.718,3.636s3.911-7.188,5.382-7.396
		c1.472-0.208,2.013,2.181,3.721,1.967c1.71-0.214,6.728-7.05,8.48-7.254c1.755-0.203,1.561,5.395,2.288,5.321
		c0.727-0.076,1.14-0.117,1.14-0.117l9.255-1.893c0,0-1.62,4.73-1.736,6.033c0.507,0.19,4.281-4.288,7.083-6.09
		c2.804-1.8,5.097-6.482,6.691-1.844c3.602-4.869,5.843-4.29,10.59-5.892c4.326-7.464,8.837-6.874,10.688-7.348
		c3.7,0,5.032,0.118,7.402,1.893c0.752-1.951-3.702-3.785-3.702-3.785s3.817-10.882,12.494-12.596
		c0.462-2.365-7.172-7.333-5.09-12.005c7.981-0.237,18.22-6.21,18.509-7.57c-0.521-3.43-3.876-4.316-3.702-7.569
		c2.082,0.235,9.255,0,9.255,0c-5.553-9.464-1.852-11.355,0-20.817l5.553,1.893c3.702-5.678,3.702-5.678,11.104-7.57
		c1.909-10.939-3.124-11.887-3.702-22.709c9.832,1.834,3.934-15.435,18.51-15.14c-1.852-22.71,3.701-17.032,5.553-32.172
		c-6.826,0-11.684-7.63-11.22-8.222c7.402-9.461-3.474-11.766,7.633-19.336c-5.553-13.246-7.52-12.183-1.966-25.43
		c-22.21,5.678-9.255-5.676-37.018-11.354c3.701-5.677,11.105-15.139,3.701-20.817c1.851-3.784,4.802-5.736,4.802-9.521
		c0-2.839-6.061-14.06-5.004-20.728c-3.977-6.491-4.425-9.492-5.35-13.277c-1.852-11.354,0-18.924,0-20.816
		c-1.852-3.785-5.553-7.57-9.255-9.463c-3.701-1.892-4.916,0.178-8.618,2.07c-1.793-0.178,0.422-2.91-2.615-4.995
		c-3.675,0.634-5.432-1.104-7.245-4.497c-3.898-1.796-9.011-2.587-19.047-6.093c-3.732-0.667-5.045-1.092-8.284-1.565
		c-1.358-0.089-2.761,3.652-4.286,5.107c-1.526,1.457-3.174,0.628-3.174,0.628c0-4.908-6.77-12.478-5.959-19.042
		c-3.037-0.976-2.053,1.449-5.529,2.048c-2.14,0.194-5.46-7.607-8.178-7.607c-1.619-0.295-22.903,11.473-29.093-5.973
		c-1.042-1.36-5.853,2.853-8.792-1.774c-2.082-8.575-5.784-5.559-9.717-9.581c-5.321,0.591-9.023,3.549-14.576,2.07
		c-7.403-2.069-25.044-3.844-32.854-4.14c-1.388-6.032-2.602-10.29-4.163-7.215c-1.852,3.785-2.603,6.801-3.125,9.107
		c-0.494,2.24-3.816,2.247-5.204,2.72c-1.389,0.473-1.637,4.953-3.007,3.135c-4.34-5.737-7.174-5.973-10.876-5.5
		c-2.198,1.124,3.414,4.081,1.852,7.57c-11.105,0-12.956,3.785-14.807,15.14c-3.471-3.43-6.71,4.85-16.658,7.57
		c0.174,2.425,1.156,8.694,0,11.355c-0.13,0.665,2.119,2.062,1.398,4.849c-0.718,2.786-6.079,3.589-6.972,6.972
		c-0.894,3.382,2.276,2.542,1.624,4.994c-0.654,2.454-3.569,2.583-2.009,10.921c-0.346,1.538-3.296,4.436-3.296,4.436
		s-2.136,2.447,1.047,5.862c-5.241,4.162-4.894,13.388-4.749,16.847c-5.321-1.419-9.254,1.893-9.254,1.893l1.85,7.57
		c-14.807,5.677-20.069,1.478-22.267,4.139c-2.169,3.342-7.722,4.775-18.604,5.345c-1.928,0.22-3.087,3.763-9.102,3.763
		c-5.554-1.893-9.256-9.463-16.658-15.14l-16.658-5.677c-5.553-3.785-7.404-7.569-14.807-11.354l-12.956-5.677
		c-9.255-5.676-15.675-25.252-20.36-20.816c0,13.25,3.702,32.17,11.105,41.64C55.12,177.342,56.971,179.233,62.524,181.126z
		 M130.791,193.432c0.206-0.368,0.588-0.61,1.008-0.646c0,0,1.851-0.141,2.855,1.152c0.406,0.523,0.81,1.461,0.426,2.959
		c-0.132,0.515-0.571,0.893-1.1,0.946c-0.042,0.004-0.085,0.006-0.127,0.006c-0.481,0-0.926-0.274-1.14-0.714
		c-0.677-1.397-1.233-1.802-1.443-1.955c-0.143-0.104-0.36-0.262-0.51-0.558C130.57,194.247,130.586,193.8,130.791,193.432z"/>
	<path fill="#FFFFFF" d="M119.664,162.833c0,0-0.208-0.027-0.525-0.027c-1.249,0-2.259,0.416-2.846,1.171
		c-0.387,0.498-0.773,1.384-0.417,2.772c0.132,0.515,0.571,0.893,1.1,0.946c0.042,0.004,0.085,0.006,0.127,0.006
		c0.481,0,0.926-0.274,1.139-0.714c0.602-1.241,1.256-1.505,1.57-1.633c0.211-0.085,0.604-0.245,0.83-0.698
		c0.184-0.366,0.172-0.799-0.02-1.161C120.431,163.133,120.07,162.886,119.664,162.833z"/>
	<path fill="#FFFFFF" d="M116.978,161.49c0.043,0.004,0.085,0.006,0.128,0.006c0.481,0,0.926-0.274,1.139-0.713
		c0.582-1.199,1.624-1.551,2.125-1.72c0.29-0.098,0.728-0.246,0.974-0.739c0.2-0.4,0.173-0.876-0.069-1.252
		c-0.243-0.376-0.66-0.595-1.112-0.579c-0.18,0.007-0.365,0.009-0.551,0.012c-1.142,0.014-2.563,0.032-3.39,1.11
		c-0.551,0.719-0.663,1.677-0.343,2.929C116.01,161.059,116.449,161.437,116.978,161.49z"/>
	<path fill="#FFFFFF" d="M131.271,195.182c0.209,0.153,0.766,0.558,1.443,1.955c0.213,0.44,0.658,0.714,1.14,0.714
		c0.042,0,0.085-0.002,0.127-0.006c0.529-0.053,0.968-0.431,1.1-0.946c0.384-1.498-0.02-2.436-0.426-2.959
		c-1.004-1.293-2.855-1.152-2.855-1.152c-0.42,0.035-0.803,0.277-1.008,0.646c-0.206,0.369-0.222,0.815-0.031,1.192
		C130.911,194.919,131.128,195.077,131.271,195.182z"/>
</g>
</svg>
