<?xml version="1.0" encoding="utf-8"?>
<!-- Generator: Adobe Illustrator 16.0.0, SVG Export Plug-In . SVG Version: 6.00 Build 0)  -->
<svg version="1.2" baseProfile="tiny"
	 id="svg1" xmlns:cc="http://creativecommons.org/ns#" xmlns:dc="http://purl.org/dc/elements/1.1/" xmlns:rdf="http://www.w3.org/1999/02/22-rdf-syntax-ns#"
	 xmlns="http://www.w3.org/2000/svg" xmlns:xlink="http://www.w3.org/1999/xlink" x="0px" y="0px" width="512px" height="512px"
	 viewBox="0 0 512 512" xml:space="preserve">
<g id="flag">
	<rect id="rect124" x="0" fill="#000066" width="512" height="512"/>
	<g id="g584" transform="scale(5.7614 8.3333)">
		<path id="path146" fill="#FFFFFF" d="M0,0v3.354L53.292,30H60v-3.354L6.708,0L0,0L0,0z M60,0v3.354L6.708,30H0v-3.354L53.292,0H60
			z"/>
		<path id="path136" fill="#FFFFFF" d="M25,0v30h10V0H25z M0,10v10h60V10H0z"/>
		<path id="path141" fill="#CC0000" d="M0,12v6h60v-6H0z M27,0v30h6V0H27z"/>
		<path id="path150" fill="#CC0000" d="M0,30l20-10h4.472l-20,10H0z M0,0l20,10h-4.472L0,2.236V0z M35.528,10l20-10H60L40,10H35.528
			z M60,30L40,20h4.472L60,27.764V30z"/>
	</g>
	<polygon id="polygon589" fill="#FFFFFF" points="54.886,368.641 95.551,384.039 108.871,342.637 108.871,342.637 122.191,384.039 
		162.856,368.641 138.794,404.863 176.192,427.06 132.864,430.827 138.833,473.909 108.871,442.382 78.909,473.909 84.878,430.827 
		41.551,427.06 78.948,404.863 	"/>
	<g id="g596" transform="matrix(6.9999 0 0 6.9999 -255.43 119.74)">
		<polygon id="polygon590" fill="#FFFFFF" points="94.178,50.954 91.489,51.188 91.86,53.861 90,51.905 88.14,53.861 88.511,51.188 
			85.822,50.954 88.143,49.576 86.649,47.328 89.174,48.284 90,45.714 90,45.714 90.826,48.284 93.351,47.328 91.857,49.576 		"/>
		<polygon id="polygon592" fill="#FFFFFF" points="94.178,10.954 91.489,11.188 91.86,13.861 90,11.905 88.14,13.861 88.511,11.188 
			85.822,10.954 88.143,9.576 86.649,7.328 89.174,8.284 90,5.714 90,5.714 90.826,8.284 93.351,7.328 91.857,9.576 		"/>
		<polygon id="polygon593" fill="#FFFFFF" points="79.178,27.204 76.489,27.438 76.86,30.111 75,28.155 73.14,30.111 73.511,27.438 
			70.822,27.204 73.143,25.826 71.649,23.578 74.174,24.534 75,21.964 75,21.964 75.826,24.534 78.351,23.578 76.857,25.826 		"/>
		<polygon id="polygon594" fill="#FFFFFF" points="107.51,23.204 104.82,23.438 105.19,26.111 103.33,24.155 101.47,26.111 
			101.84,23.438 99.155,23.204 101.48,21.826 99.983,19.578 102.51,20.534 103.33,17.964 103.33,17.964 104.16,20.534 
			106.68,19.578 105.19,21.826 		"/>
		<polygon id="polygon595" fill="#FFFFFF" points="96,33.611 94.53,34.522 94.943,32.843 93.622,31.728 95.347,31.601 96,30 96,30 
			96.653,31.601 98.378,31.728 97.057,32.843 97.47,34.522 		"/>
	</g>
</g>
</svg>
