<?xml version="1.0" encoding="utf-8"?>
<!-- Generator: Adobe Illustrator 16.0.0, SVG Export Plug-In . SVG Version: 6.00 Build 0)  -->
<svg version="1.2" baseProfile="tiny"
	 id="Flag_of_Åland" xmlns:cc="http://creativecommons.org/ns#" xmlns:dc="http://purl.org/dc/elements/1.1/" xmlns:rdf="http://www.w3.org/1999/02/22-rdf-syntax-ns#"
	 xmlns="http://www.w3.org/2000/svg" xmlns:xlink="http://www.w3.org/1999/xlink" x="0px" y="0px" width="512px" height="512px"
	 viewBox="0 0 512 512" xml:space="preserve">
<g>
	<rect x="291.528" y="331.293" fill="#0053A5" width="220.472" height="180.704"/>
	<rect x="0.002" fill="#0053A5" width="140.938" height="180.705"/>
	<rect x="291.528" fill="#0053A5" width="220.472" height="180.705"/>
	<rect x="0.002" y="331.293" fill="#0053A5" width="140.938" height="180.704"/>
	<rect x="246.351" y="331.293" fill="#FFCE00" width="45.177" height="180.704"/>
	<rect x="246.351" fill="#FFCE00" width="45.177" height="180.705"/>
	<rect x="140.94" fill="#FFCE00" width="45.177" height="180.705"/>
	<rect x="140.94" y="331.293" fill="#FFCE00" width="45.177" height="180.704"/>
	<polygon fill="#FFCE00" points="186.116,331.293 186.116,286.116 0.002,286.116 0.002,331.293 140.94,331.293 	"/>
	<polygon fill="#FFCE00" points="186.116,225.881 186.116,180.705 140.94,180.705 0.002,180.705 0.002,225.881 	"/>
	<polygon fill="#FFCE00" points="246.351,286.116 246.351,331.293 291.528,331.293 511.999,331.293 511.999,286.116 	"/>
	<polygon fill="#FFCE00" points="246.351,180.705 246.351,225.881 511.999,225.881 511.999,180.705 291.528,180.705 	"/>
	<polygon fill="#D21034" points="186.116,225.881 246.351,225.881 246.351,180.705 246.351,0 186.116,0 186.116,180.705 	"/>
	<polygon fill="#D21034" points="246.351,286.116 186.116,286.116 186.116,331.293 186.116,511.997 246.351,511.997 
		246.351,331.293 	"/>
	<polygon fill="#D21034" points="186.116,286.116 246.351,286.116 511.999,286.116 511.999,225.881 246.351,225.881 
		186.116,225.881 0.002,225.881 0.002,286.116 	"/>
</g>
</svg>
