<?xml version="1.0" encoding="utf-8"?>
<!-- Generator: Adobe Illustrator 16.0.0, SVG Export Plug-In . SVG Version: 6.00 Build 0)  -->
<svg version="1.2" baseProfile="tiny"
	 id="svg618" xmlns:cc="http://creativecommons.org/ns#" xmlns:dc="http://purl.org/dc/elements/1.1/" xmlns:rdf="http://www.w3.org/1999/02/22-rdf-syntax-ns#"
	 xmlns="http://www.w3.org/2000/svg" xmlns:xlink="http://www.w3.org/1999/xlink" x="0px" y="0px" width="512px" height="512px"
	 viewBox="0 0 512 512" xml:space="preserve">
<g id="flag">
	<g id="g646" transform="matrix(4.2667 0 0 8.5333 0 -.00002)">
		<rect id="rect622" x="0" y="20" fill="#CC3333" width="120" height="20"/>
		<rect id="rect621" x="0" y="0" fill="#0099CC" width="120" height="20"/>
		<rect id="rect623" x="0" y="40" fill="#009933" width="120" height="20"/>
	</g>
	<g id="g575" transform="matrix(8.3333 0 0 8.3333 -238.75 6.1292)">
		<g id="g638">
			<path id="path637" fill="#FFFFFF" d="M66,30c0.004,4.968-4.025,9-8.993,9c-4.968,0.008-9.003-4.018-9.007-8.986
				c-0.012-4.968,4.01-9.006,8.978-9.014c4.968-0.016,9.01,4.003,9.021,8.971L66,30L66,30z"/>
			<path id="path636" fill="#CC3333" d="M66.5,30c0.003,4.085-3.309,7.4-7.394,7.4c-4.085,0.006-7.403-3.303-7.406-7.388
				c-0.01-4.085,3.298-7.405,7.382-7.412c4.085-0.013,7.408,3.292,7.418,7.376V30L66.5,30z"/>
		</g>
		<polygon id="polygon574" fill="#FFFFFF" points="63.464,33.536 64.69,30.957 62,30 64.69,29.043 63.464,26.464 66.043,27.69 
			67,25 67,25 67.957,27.69 70.536,26.464 69.31,29.043 72,30 69.31,30.957 70.536,33.536 67.957,32.31 67,35 66.043,32.31 		"/>
	</g>
</g>
</svg>
