<?xml version="1.0" encoding="utf-8"?>
<!-- Generator: Adobe Illustrator 16.0.0, SVG Export Plug-In . SVG Version: 6.00 Build 0)  -->
<svg version="1.2" baseProfile="tiny"
	 id="svg797" xmlns:cc="http://creativecommons.org/ns#" xmlns:dc="http://purl.org/dc/elements/1.1/" xmlns:rdf="http://www.w3.org/1999/02/22-rdf-syntax-ns#"
	 xmlns="http://www.w3.org/2000/svg" xmlns:xlink="http://www.w3.org/1999/xlink" x="0px" y="0px" width="512px" height="512px"
	 viewBox="0 0 512 512" xml:space="preserve">
<g id="flag" transform="matrix(.68808 0 0 1.0321 0 -16.449)">
	<rect id="rect807" x="0" y="15.937" fill="#00009D" width="248.029" height="496.06"/>
	<rect id="rect808" x="496.059" y="15.937" fill="#00009D" width="248.031" height="496.06"/>
	<rect id="rect809" x="248.03" y="15.937" fill="#FFD400" width="248.029" height="496.06"/>
</g>
<g id="g3688" transform="matrix(1.1455 0 0 1.1455 -171.81 -39.547)">
	<path id="path803" d="M372.32,365.16c7.962,0.556,3.563-0.361,11.524,0.194l0.555-47.217h30.553
		c-0.181-56.391,21.723-103.92,47.86-144.21c1.571-2.021,0.544-2.89-1.199-2.443c-19.726,3.081-40.021,13.437-53.922,27.813
		c-1.622,1.991,0.233,2.301,1.15,2.183c7.613-2.282,6.113,6.244,5.561,9.665c-7.803,24.929-14.613,49.084-17.114,77.769
		c-0.003,1.995-0.317,3.446-1.263,3.542c-3.518,0.184-6.959,0.135-10.516,0.124c-1.298,0.012-1.581-1.42-1.667-2.777
		c0.185-28.886-0.072-57.771,0.113-86.657c0.089-1.906,6.991-9.644,8.114-9.674c3.535-0.091,5.025-0.004,8.978-0.071
		c1.03-0.008,1.251-3.18,0.072-3.334c-2.407,0-6.873-0.22-9.28-0.22c-1.14,0.044-17.29-12.273-17.327-14.804
		c-0.185-3.888-0.077-7.703-0.262-11.591c0.212-0.957-4.509-1.177-4.443,0.073v10.809c-0.809,5.15,2.324,175.08,2.509,190.82V365.16
		z"/>
	<path id="path806" d="M371.9,365.16c-7.962,0.556-3.563-0.361-11.525,0.194l-0.555-47.217h-30.553
		c0.181-56.391-21.723-103.92-47.861-144.21c-1.57-2.021-0.544-2.89,1.199-2.443c19.726,3.081,40.02,13.437,53.922,27.813
		c1.622,1.991-0.233,2.301-1.15,2.183c-7.613-2.282-6.113,6.244-5.561,9.665c7.803,24.929,14.613,49.084,17.113,77.769
		c0.003,1.995,0.317,3.446,1.263,3.542c3.517,0.184,6.959,0.135,10.516,0.124c1.297,0.012,1.58-1.42,1.666-2.777
		c-0.185-28.886,0.072-57.771-0.113-86.657c-0.09-1.906-6.992-9.644-8.114-9.674c-3.535-0.091-5.025-0.004-8.978-0.071
		c-1.03-0.008-1.252-3.18-0.073-3.334c2.408,0,6.873-0.22,9.281-0.22c1.14,0.044,17.29-12.273,17.327-14.804
		c0.185-3.888,0.076-7.703,0.261-11.591c-0.211-0.957,4.509-1.177,4.444,0.073v10.809c0.809,5.15-2.324,175.08-2.509,190.82V365.16z
		"/>
</g>
</svg>
