<?xml version="1.0" encoding="utf-8"?>
<!-- Generator: Adobe Illustrator 16.0.0, SVG Export Plug-In . SVG Version: 6.00 Build 0)  -->
<svg version="1.2" baseProfile="tiny"
	 id="svg548" xmlns:cc="http://creativecommons.org/ns#" xmlns:dc="http://purl.org/dc/elements/1.1/" xmlns:rdf="http://www.w3.org/1999/02/22-rdf-syntax-ns#"
	 xmlns="http://www.w3.org/2000/svg" xmlns:xlink="http://www.w3.org/1999/xlink" x="0px" y="0px" width="512px" height="512px"
	 viewBox="0 0 512 512" xml:space="preserve">
<g>
	<path fill="#00CF00" d="M102.749,255.978c0-13.05,1.696-25.704,4.866-37.759L-0.001,153.967v204.059l107.625-64.257
		C104.448,281.705,102.749,269.04,102.749,255.978z"/>
	<path fill="#00CF00" d="M398.854,255.978c0,13.067-1.7,25.735-4.878,37.803l118.021,70.463V147.75l-118.012,70.458
		C397.156,230.267,398.854,242.923,398.854,255.978z"/>
	<path fill="#FF0000" d="M250.802,107.926c39.121,0,74.691,15.181,101.16,39.963l160.034-95.547V-0.009H-0.001V58.56l149.633,89.337
		C176.102,123.109,211.676,107.926,250.802,107.926z"/>
	<path fill="#FF0000" d="M351.938,364.09c-26.467,24.77-62.027,39.94-101.136,39.94c-39.114,0-74.678-15.175-101.146-39.948
		L-0.001,453.434v58.555h511.997v-52.336L351.938,364.09z"/>
	<path fill="#FFFFFF" d="M393.985,218.208l118.012-70.458V52.342l-160.034,95.547C371.984,166.635,386.793,190.874,393.985,218.208z
		"/>
	<path fill="#FFFFFF" d="M107.624,293.77L-0.001,358.026v95.407l149.657-89.352C129.633,345.339,114.82,321.102,107.624,293.77z"/>
	<path fill="#FFFFFF" d="M393.985,218.208c-7.191-27.334-22.001-51.573-42.022-70.319c-26.469-24.783-62.039-39.963-101.16-39.963
		c-39.126,0-74.7,15.184-101.17,39.971l75.346,44.985l5.356-9.685l-9.511-17.36l19.773-0.34l10.263-16.929l10.202,16.968
		l19.776,0.421l-9.602,17.301l9.541,17.366l-19.805,0.331l-5.963,9.857l138.966,82.969c3.178-12.068,4.878-24.736,4.878-37.803
		C398.854,242.923,397.156,230.267,393.985,218.208z"/>
	<polygon fill="#FFFFFF" points="238.372,200.879 241.708,202.87 240.536,200.925 	"/>
	<polygon fill="#FFFFFF" points="206.734,277.397 191.08,268.051 196.569,277.181 	"/>
	<path fill="#FFFFFF" d="M214.037,281.758l-7.295,13.145l9.541,17.367l-19.804,0.33l-10.233,16.915l-10.203-16.945l-19.773-0.421
		l9.571-17.307l-9.511-17.359l19.773-0.341l8.026-13.24l-76.514-45.682c-3.17,12.055-4.866,24.708-4.866,37.759
		c0,13.062,1.699,25.727,4.875,37.792c7.195,27.332,22.008,51.569,42.032,70.312c26.468,24.773,62.032,39.948,101.146,39.948
		c39.108,0,74.669-15.171,101.136-39.94L214.037,281.758z"/>
	<path fill="#FFFFFF" d="M184.13,263.901l2.237-3.689l4.713,7.839l15.654,9.347l9.61,0.204l-2.306,4.156l137.9,82.332
		l160.059,95.562v-95.408l-118.021-70.463L255.01,210.812l-4.27,7.058l-9.032-15l-3.336-1.991l-17.609-0.375l4.215-7.622
		l-75.346-44.985L-0.001,58.56v95.407l107.616,64.252L184.13,263.901z M327.136,277.181l19.775,0.421l-9.602,17.301l9.541,17.367
		l-19.804,0.33l-10.233,16.915l-10.203-16.945l-19.773-0.421l9.571-17.307l-9.511-17.359l19.773-0.341l10.263-16.93L327.136,277.181
		z"/>
	<polygon fill="#FF0000" points="222.439,199.539 241.109,199.937 250.741,215.935 260.403,199.965 279.102,199.652 
		270.094,183.256 279.158,166.922 260.49,166.524 250.856,150.502 241.166,166.487 222.496,166.809 231.475,183.199 	"/>
	<path fill="#00DE00" d="M260.973,200.955l19.805-0.331l-9.541-17.366l9.602-17.301l-19.776-0.421l-10.202-16.968l-10.263,16.929
		l-19.773,0.34l9.511,17.36l-5.356,9.685l-4.215,7.622l17.609,0.375l2.165,0.046l1.171,1.945l9.032,15l4.27-7.058L260.973,200.955z
		 M222.496,166.809l18.67-0.321l9.69-15.985l9.634,16.022l18.669,0.398l-9.064,16.333l9.008,16.396l-18.699,0.312l-9.661,15.97
		l-9.633-15.998l-18.67-0.398l9.037-16.339L222.496,166.809z"/>
	<polygon fill="#FF0000" points="214.665,278.566 195.996,278.169 186.363,262.147 176.673,278.132 158.003,278.453 
		166.982,294.844 157.946,311.184 176.615,311.581 186.248,327.579 195.91,311.609 214.608,311.297 205.6,294.9 	"/>
	<path fill="#00DE00" d="M156.33,277.482l9.511,17.359l-9.571,17.307l19.773,0.421l10.203,16.945l10.233-16.915l19.804-0.33
		l-9.541-17.367l7.295-13.145l2.306-4.156l-9.61-0.204l-10.165-0.217l-5.489-9.13l-4.713-7.839l-2.237,3.689l-8.026,13.24
		L156.33,277.482z M214.608,311.297l-18.698,0.312l-9.662,15.97l-9.633-15.998l-18.67-0.397l9.037-16.34l-8.979-16.391l18.67-0.321
		l9.69-15.984l9.633,16.021l18.669,0.397L205.6,294.9L214.608,311.297z"/>
	<polygon fill="#FF0000" points="316.93,262.147 307.24,278.132 288.57,278.453 297.549,294.844 288.513,311.184 307.183,311.581 
		316.816,327.579 326.477,311.609 345.175,311.297 336.167,294.9 345.232,278.566 326.564,278.169 	"/>
	<path fill="#00DE00" d="M306.671,277.142l-19.773,0.341l9.511,17.359l-9.571,17.307l19.773,0.421l10.203,16.945l10.233-16.915
		l19.804-0.33l-9.541-17.367l9.602-17.301l-19.775-0.421l-10.202-16.969L306.671,277.142z M336.167,294.9l9.008,16.396
		l-18.698,0.312l-9.661,15.97l-9.633-15.998l-18.67-0.397l9.036-16.34l-8.979-16.391l18.67-0.321l9.69-15.984l9.634,16.021
		l18.668,0.397L336.167,294.9z"/>
</g>
</svg>
