<?xml version="1.0" encoding="utf-8"?>
<!-- Generator: Adobe Illustrator 16.0.0, SVG Export Plug-In . SVG Version: 6.00 Build 0)  -->
<svg version="1.2" baseProfile="tiny"
	 id="svg1" xmlns:cc="http://creativecommons.org/ns#" xmlns:dc="http://purl.org/dc/elements/1.1/" xmlns:rdf="http://www.w3.org/1999/02/22-rdf-syntax-ns#"
	 xmlns="http://www.w3.org/2000/svg" xmlns:xlink="http://www.w3.org/1999/xlink" x="0px" y="0px" width="512px" height="512px"
	 viewBox="0 0 512 512" xml:space="preserve">
<g id="flag">
	<rect id="rect2414" x="0" fill="#CC0000" width="512" height="512"/>
	<rect id="rect124" x="0" fill="#000066" width="512" height="256"/>
	<g id="g584" transform="scale(8.5333)">
		<path id="path146" fill="#FFFFFF" d="M0,0v3.354L53.292,30H60v-3.354L6.708,0L0,0L0,0z M60,0v3.354L6.708,30H0v-3.354L53.292,0H60
			z"/>
		<path id="path136" fill="#FFFFFF" d="M25,0v30h10V0H25z M0,10v10h60V10H0z"/>
		<path id="path141" fill="#CC0000" d="M0,12v6h60v-6H0z M27,0v30h6V0H27z"/>
		<path id="path150" fill="#CC0000" d="M0,30l20-10h4.472l-20,10H0z M0,0l20,10h-4.472L0,2.236V0z M35.528,10l20-10H60L40,10H35.528
			z M60,30L40,20h4.472L60,27.764V30z"/>
	</g>
	<g id="g1798" transform="matrix(.16872 0 0 .13815 986.16 438.1)">
		<path id="path1797" fill="#FFFFFF" d="M-3655.699,400.08c17.717,2.983,674.448-205.788,673.227-531.493V-1725.91h-1346.501
			v1594.497c-1.215,325.705,673.233,531.493,673.233,531.493H-3655.699z"/>
		<path id="path1760" fill="#007A0F" fill-opacity="0.9961" stroke="#002B00" stroke-width="11.125" d="M-2982.443-131.37
			c1.221,325.698-655.51,534.469-673.227,531.493c0,0-674.449-205.796-673.228-531.493c7.16-10.533,9.956-14.597,10.43-27.844
			c2.286-6.871,1.638-15.149,1.638-23.016v-23.023c-1.731-5.203-1.638-13.798-1.638-21.376c-0.22-5.804-1.644-15.453-1.644-16.442
			c1.279,9.472,3.021,14.088,6.569,1.64c2.512-6.277,3.924-11.437,6.581-19.729c0.29-8.094,1.644-14.59,1.644-23.023
			c0-7.967,0.376-15.552,1.65-21.376c2.529-2.071,4.734-5.719,8.219-3.287c-0.312,8.37-2.269,12.788-3.293,21.376v23.023v23.016
			c0.162,5.443,0.909,9.988,3.293,13.155c0.29-8.094,1.638-14.583,1.638-23.016c1.898-5.69,3.068-13.141,6.581-18.089
			c1.991-7.394,5.221-13.501,8.219-21.376c2.512-7.811,5.041-13.19,6.581-19.736c3.629-4.072,7.64-11.013,11.506-14.795
			c8.451-5.429,5.95,2.764,3.293,9.861v23.023c5.8,1.661,2.089-2.333,6.581-6.574c1.58-6.086,5.308-14.343,8.219-19.729
			c2.917-4.743,6.697-9.218,9.857-14.802c3.421-2.107,12.531-8.073,13.162-8.221c-3.652,3.824-6.79,9.366-9.869,14.795
			c-1.262,5.825-1.644,13.403-1.644,21.376c0.602,15.792,3.82,3.082,6.581-3.287c3.352-2.743,1.823-4.595,8.219-4.927
			c9.695-6.532,6.581,0.636,4.932,8.214c-1.308,7.352-1.638,14.845-1.638,23.023c0,8.921,1.54,12.745,1.638,21.376
			c0,7.585-0.087,16.174,1.649,21.376c1.169,8.878,3.583,12.583,6.569,19.729c2.512,7.253,5.423,11.876,8.219,18.089
			c6.442,7.896,3.293,0.721,3.293-8.221v-23.023v-23.016c3.021-5.16,3.89-11.444,8.219-16.442c1.65-6.023,4.648-10.674,8.231-14.802
			c2.448-3.909,6.158-8.808,8.219-13.155v23.023c0,8.179,0.33,15.672,1.638,23.016c2.263,7.62,3.93,12.286,4.943,19.736
			c4.289,2.778,5.91,6.899,9.857,9.861c1.991-7.592,3.293-14.385,3.293-23.016v-23.023c1.372-7.684,2.917-14.074,4.932-19.729
			c2.217-6.977,3.675,1.803,4.937,4.934c2.842,6.009,5.788,9.154,9.863,16.442c4.827,3.45,6.077,8.787,9.868,13.155
			c0.869,4.029,1.291,13.113,3.288,16.442c1.771-8.002,4.74-12.823,6.569-21.376c4.931-4.828,7.831-8.228,13.162-11.508
			c8.358-1.612,12.201-3.916,19.731-4.934c10.407,0,8.537,1.06,1.638,6.574c-2.61,4.248-6.361,10.872-9.857,14.802
			c-1.024,7.514-2.975,11.211-3.293,19.729c0.602,8.433,3.021,15.092,4.931,21.376c4.121-4.609,8.699-14.512,11.507-19.729
			c4.411-5.04,6.442-12.484,9.875-16.442c3.536-4.291,8.126-7.005,14.8-8.221c4.081-3.068,8.891-3.294,16.438-3.294
			c15.09,4.828,31.927,3.435,47.688,4.934c12.19,0,19.899-2.234,31.238-4.934c12.34-2.538,25.392-2.792,37.825-4.927
			c12.52,0,26.388-1.117,37.819,1.64h32.876c11.894,0,23.534-0.247,34.531-1.64c13.272,0,26.77,0.601,39.469-1.647
			c14.644,0,28.333-1.159,42.751-1.647c19.749,0,38.051-2.354,57.551-3.287c14.922-0.636,26.891-5.415,41.113-8.221
			c9.527-2.17,20.71-1.647,31.238-1.647c12.479,0,22.458,2.22,34.532,3.294c10.268,0,19.679,0.848,29.6,1.64h29.6h34.526h37.819
			c12.08,0,23.181,0.742,34.532,1.647c10.309,0,19.662,0.827,29.6,1.64h26.312c7.218,0.862,16.207,1.025,23.019,3.294
			c9.55,0,17.272,1.322,26.307,1.64c8.514,0.516,15.72,1.647,24.663,1.647c8.26,0.297,15.31,1.909,23.019,3.287
			c6.98,0.947,12.589,2.736,18.088,4.934c4.642,2.198,12.242,5.28,16.444,8.221c9.128,0,13.087-1.725,19.737-3.287
			c4.578-3.542,9.643-3.655,9.863-6.581c-5.07,4.524-9.44,5.577-11.512,13.155c-1.03,2.566-4.341,12.038,0,9.868
			c6.042-3.527,10.349-7.542,13.162-13.155c4.7-6.624,6.859-10.674,11.507-16.442c3.444-6.616,9.215-10.766,13.151-14.802
			c4.601-6.758,7.281-10.165,3.293,1.647c-1.412,7.91-2.72,14.018-3.293,21.376c-0.938,6.977-2.726,12.59-4.926,18.089
			c0,5.075-0.423,10.398,1.638,13.155c7.588-2.17,14.997-6.206,19.731-9.868c6.506-1.774,11.97-5.252,18.088-9.868
			c8.098-2.022,13.33-2.29,14.8-4.934c-4.428,4.524-8.647,8.447-13.151,11.515c-2.188,4.609-5.979,7.345-4.937,11.508
			c5.105-1.11,14.939-1.689,19.726-3.287c7.71-2.672,11.159-4.305,19.743-6.581c14.766,0.198,2.495,2.241-4.943,6.581
			c-4.457,3.033-9.07,7.542-14.8,11.508c-3.67,6.821-6.158,12.173-9.857,16.442c-1.933,7.161-4.59,12.25-8.219,16.442
			c-1.464,6.192-3.542,11.664-4.943,18.089c-1.418,10.554-5.319,13.113,6.581,8.221c5.099-5.563,10.031-10.193,13.162-14.795
			c3.027-4.729,7.166-10.547,11.507-14.802c2.263-6.383,5.811-8.907,9.863-16.442c3.658-3.838,8.798-9.614,13.156-14.802
			c3.762-3.584,8.942-7.38,14.794-9.861c9.018-3.004,7.872-8.779,4.937,1.64c-3.467,4.199-5.574,9.797-6.581,16.449
			c-3.565,14.816,0.359,9.161,6.581,4.927c5.342-4.411,3.346-7.479,11.512-9.861c1.8-1.52,10.546-6.298,8.219-1.647
			c-1.117,7.408-3.901,10.801-6.575,16.442c-3.617,6.525-6.488,11.713-8.225,18.089c-2.912,3.881-5.024,8.334,0,6.581
			c8.474-1.887,11.078-4.927,16.444-8.228c3.201-7.302,6.349-9.628,9.869-14.795c-2.014,8.051-4.903,13.579-6.581,19.729
			c-3.786,4.369-5.748,9.31-8.219,16.442c-3.606,7.019-4.821,10.377-4.931,19.736c-2.217,7.479-5.064,12.894-1.65,19.729
			c5.209-5.415,9.869-8.836,13.156-16.442c3.386-4.1,5.157-10.391,6.575-16.442c1.569-6.659,3.942-10.752,4.938-18.089
			c2.292-6.871,1.644-15.156,1.644-23.023v-23.016c-0.092-7.861-2.587-14.364,0-19.736c5.007,5.111,6.257,9.691,9.863,16.449
			c2.113,8.44,5.846,13.212,6.581,21.376c3.34,4.913,3.837,10.928,6.575,18.082c0.579,8.073,2.095,15.085,0,21.376
			c-0.498,5.295-3.068,9.069,0,13.155c5.308-4.383,5.539-10.914,6.575,3.294C-2983.282-145.438-2983.028-138.567-2982.443-131.37
			L-2982.443-131.37z"/>
		<path id="path1761" fill="none" stroke="#002B00" stroke-width="11.125" d="M-4257.601-267.743
			c-0.619,4.248-1.638,17.064-1.638,26.31c0,8.384,0.747,14.816,1.638,21.376c0.55,5.924,1.881,6.807,0,11.508"/>
		<path id="path1762" fill="none" stroke="#002B00" stroke-width="11.125" d="M-4233.001-280.898
			c0.631,4.241,1.649,17.057,1.649,26.31c0,8.73-1.077,14.018-1.649,21.376c-0.29,8.08-1.638,12.427-1.638,21.376v6.574"/>
		<path id="path1763" fill="none" stroke="#002B00" stroke-width="11.125" d="M-4251.101-193.753c1.551,0,0.932,4.206,1.638,9.868
			c0.949,6.998,2.512,12.978,4.932,18.089c0.353,9.409,2.153,11.423,8.23,14.802c5.869,5.782,8.028,9.684,11.512,14.795
			c4.185,0.742,4.909,1.852,6.57,4.934"/>
		<path id="path1764" fill="none" stroke="#002B00" stroke-width="11.125" d="M-4308.599-144.42h1.638
			c8.479,1.414,20.16,1.237,26.312,3.287c6.326,1.47,13.949,4.538,18.088,8.221c6.65,7.387,9.261,12.738,18.082,16.442
			c7.397,4.319,14.858,5.888,23.031,8.221c7.588,3.202,12.601,5.627,18.076,8.228c7.814,3.994,14.042,8.476,23.025,9.861h23.019
			c7.698,0,12.636,0.262,16.45-3.287l-16.45,3.287c7.698,0,12.636,0.262,16.45-3.287"/>
		<path id="path1765" fill="none" stroke="#002B00" stroke-width="11.125" d="M-4278.999-26.03h29.601h23.019
			c3.392,7.076,6.477,9.281,13.162,11.508c5.325,3.909,12.276,6.008,19.726,6.581h3.293"/>
		<path id="path1766" fill="none" stroke="#002B00" stroke-width="11.125" d="M-4264.199,1.927
			c4.468-0.919,17.266-4.284,26.307-4.927c9.62,0,14.8,2.071,19.731,6.574c5.042,3.428,7.988,6.602,14.8,9.868
			c7.27,2.509,14.621,3.287,23.019,3.287c0.781,2.319,0.48,1.647,3.293,1.647"/>
		<path id="path1767" fill="none" stroke="#002B00" stroke-width="11.125" d="M-4242.8,34.811h29.6
			c5.898,2.792,10.771,3.153,13.15,9.861c6.818,5.747,9.828,9.501,19.731,9.875c3.809,1.965,11.831,1.64,18.088,1.64"/>
		<path id="path1768" fill="none" stroke="#002B00" stroke-width="11.125" d="M-4163.897,92.38h29.589
			c9.66,0.983,16.507,0.283,21.381,6.581c5.417,7.797,9.967,6.079,16.438,9.868c5.701,0,9.452,1.181,14.8,1.64"/>
		<path id="path1769" fill="none" stroke="#002B00" stroke-width="11.125" d="M-4093.202,138.377
			c4.254,0.622,17.063,1.64,26.312,1.64c9.082,1.23,9.759,3.393,14.8,9.875c2.738,9.599,7.478,8.921,18.088,9.861
			c7.2,0,12.971-0.53,18.088-1.64"/>
		<path id="path1770" fill="none" stroke="#002B00" stroke-width="11.125" d="M-4228-190.459c0.55,0.544,1.088,1.096,1.638,1.64
			c-3.728-3.725-1.927-2.361,1.65,6.581c0.625,8.066,2.055,12.858,4.931,19.729c3.913,5.613,7.183,10.985,9.869,16.449
			c2.923,6.673,6.812,11.84,11.513,16.442c0.688,2.085,1.198,2.587,3.282,3.287"/>
		<path id="path1771" fill="none" stroke="#002B00" stroke-width="11.125" d="M-4193.498-183.878c0.839,0,5.227,5.082,8.219,9.861
			c5.695,4.079,10.228,9.204,14.8,14.802c5.128,3.386,11.107,7.55,18.088,11.508c7.981,2.764,10.743,5.005,18.082,8.221
			c3.866,3.351,10.818,5.818,16.449,8.221c2.42,0,1.25-0.382,3.288,1.647"/>
		<path id="path1772" fill="none" stroke="#002B00" stroke-width="11.125" d="M-4155.702-200.32c-1.8,0,0,4.241,0,9.868
			c2.75,6.086,7.009,12.116,11.513,18.089c5.209,3.435,10.488,10.504,14.8,16.442c2.651,4.22,5.701,7.309,11.506,9.861"/>
		<path id="path1773" fill="none" stroke="#002B00" stroke-width="11.125" d="M-4116.198-213.482
			c0.058,5.881,1.615,16.937,3.288,26.31c2.859,6.829,4.978,11.275,6.581,18.089c1.03,6.85,3.617,12.83,8.219,18.089
			c3.768,4.779,10.228,9.501,16.438,11.508c6.349,2.721,10.812,4.828,19.731,4.934c6.558-0.884,13-1.647,21.381-1.647h13.156"/>
		<path id="path1774" fill="none" stroke="#002B00" stroke-width="11.125" d="M-4078.402-200.32
			c0.139,5.28-1.401,10.766,4.931,14.802c2.13,6.659,6.842,14.364,11.512,21.376c4.167,5.28,9.956,9.133,18.088,9.861
			c5.771,1.343,14.499,2.644,21.381,4.934c6.24,4.058,12.78,10.9,21.37,13.155l-21.37-13.155c6.24,4.058,12.78,10.9,21.37,13.155"/>
		<path id="path1775" fill="none" stroke="#002B00" stroke-width="11.125" d="M-4063.602-200.32
			c4.353,5.549,16.155,17.799,24.675,26.31c5.875,4.863,11.935,8.737,18.076,11.508c7.519,1.166,15.807,4.453,21.381,6.581
			c3.589,1.534,4.607,3.011,9.857,3.287"/>
		<path id="path1776" fill="none" stroke="#002B00" stroke-width="11.125" d="M-4040.6-220.063c0.55,0.551,1.1,1.103,1.65,1.647
			c-4.682-4.673-2.251-2.142,8.219,6.581c6.141,4.948,8.578,6.277,9.857,14.795c3.021,2.856,3.994,7.924,8.225,4.934
			c-0.521-9.734-5.03-13.12,3.288-8.221c3.033,6.334,6.749,11.466,11.512,14.795c2.998,3.174,6.517,4.743,13.156,4.934"/>
		<path id="path1777" fill="none" stroke="#002B00" stroke-width="11.125" d="M-3869.603,1.927c4.133,0.516,21.433,0.573,29.6,3.294
			c7.351,1.308,14.841,1.64,23.019,1.64c8.323-0.304,13.023-2.785,21.381,0c9.591,0.742,10.673,3.033,18.082,9.868
			c6.112,4.142,8.728,8.808,13.162,16.442c1.939,1.251,14.256,8.829,4.926,3.287"/>
		<path id="path1778" fill="none" stroke="#002B00" stroke-width="11.125" d="M-3877.799-37.539
			c5.51,2.905,18.238,10.321,24.657,14.795c8.63,1.923,11.113,4.665,19.743,6.581c8.798-0.106,14.337-2.34,21.37-3.287
			c5.516-1.845,14.389-2.333,21.375,0c7.455,2.58,12.132,4.842,18.093,8.221c3.259,4.072,13.55,11.501,3.282,3.287
			c-2.744-3.838-3.832-4.383-8.225-6.581"/>
		<path id="path1779" fill="none" stroke="#002B00" stroke-width="11.125" d="M-3843.302-40.818
			c6.031,0.17,21.04,2.163,31.238,3.287c6.882,2.29,15.552,2.757,23.025,3.287c8.659,1.548,15.089,2.114,21.375,6.581
			c4.434,2.976,10.563,8.744,14.8,13.155c9.302,4.029,3.641,2.983-3.288-3.294"/>
		<path id="path1780" fill="none" stroke="#002B00" stroke-width="11.125" d="M-3818.599-55.621c6.477,0,16.646,1.449,26.307,3.287
			c3.82,4.623,9.979,5.91,18.094,8.221c5.724,1.4,9.915,4.729,16.438,8.221"/>
		<path id="path1781" fill="none" stroke="#002B00" stroke-width="11.125" d="M-3695.301,67.681l1.638-1.64
			c-3.617,3.619-2.396,1.788,6.581,0c9.973-2.693,19.28-3.775,29.6-1.654c8.04,0,15.888,0.141,23.019-1.64
			c3.299-2.474,7.449-1.308,9.863-4.934c4.74-0.834,4.578-4.616,4.937,0"/>
		<path id="path1782" fill="none" stroke="#002B00" stroke-width="11.125" d="M-3690.301,93.978
			c8.688-0.438,26.411-1.548,36.181-8.221c6.367-1.937,12.67-5.528,19.726-6.574c8.381,0,15.17-1.082,23.025-1.64
			c9.469-0.509,17.937-1.654,27.945-1.654h24.675c8.288,0,15.425,0.742,23.019,1.654c6.471,1.131,14.187,4.906,18.087,8.214
			c5.84,1.272,12.439,1.88,18.082,0"/>
		<path id="path1783" fill="none" stroke="#002B00" stroke-width="11.125" d="M-3521,240.381c0.55-0.537,1.088-1.089,1.638-1.64
			c-3.38,3.379-2.338,1.986,4.931-1.64c9.799,0,18.968-0.481,27.957-1.654c8.589,0.283,17.503,1.195,23.025,4.934
			c7.658,2.467,15.089,3.358,21.37,6.581c8.01,2.955,13.017,4.969,21.375,6.581c4.48,2.234,15.13,1.725,21.381,3.287
			c8.04,0,15.894,0.127,23.019-1.647c8.555-1.831,13.371-4.8,21.37-6.574c5.354-5.16,12.004-8.15,19.743-9.868
			c3.177-3.853,7.652-8.327,11.512-11.508l-11.512,11.508c3.177-3.853,7.652-8.327,11.512-11.508"/>
		<path id="path1784" fill="none" stroke="#002B00" stroke-width="11.125" d="M-3299.004-165.789
			c6.101-0.417,18.585-2.764,26.312-6.581c6.459-1.817,14.221-5.019,18.088-8.221c6.511-1.774,10.702-4.015,18.094-6.574
			c6.888-4.927,14.678-9.034,18.076-13.155c9.145-4.185,11.31-6.836,14.8-14.802c1.864-2.481,0.955-4.149,3.293-4.934"/>
		<path id="path1785" fill="none" stroke="#002B00" stroke-width="11.125" d="M-3162.504-220.063c-0.839,0-5.227,5.09-8.219,9.868
			c-5.649,5.273-11.049,12.922-14.8,19.736c-4.387,2.983-8.989,7.945-14.8,11.508c-7.426,6.355-13,10.313-21.381,14.795
			c-6.199,4.135-11.784,6.461-19.726,8.228c-7.704,2.665-11.154,4.298-19.731,6.574"/>
		<path id="path1786" fill="none" stroke="#002B00" stroke-width="11.125" d="M-3128.001-215.122c-0.55,0.551-1.1,1.096-1.638,1.647
			c4.115-4.128,2.118-2.248-4.943,6.574c-5.632,5.146-11.9,12.18-14.8,16.449c-4.659,3.103-12.699,11.296-18.076,14.795
			c-7.305,6.079-14.094,8.03-19.732,13.155c-8.103,3.124-13.174,6.546-21.381,9.868c-4.688,2.22-11.819,3.867-16.438,6.574h-4.943"
			/>
		<path id="path1787" fill="none" stroke="#002B00" stroke-width="11.125" d="M-3137.899-155.928
			c-0.544,0.544-1.094,1.096-1.644,1.64c3.901-3.902,2.043-2.304-3.288,6.581c-5.892,4.086-8.52,7.952-14.8,11.508
			c0,2.191,0.55,1.647-1.644,1.647"/>
		<path id="path1788" fill="none" stroke="#002B00" stroke-width="11.125" d="M-3067.14-183.878c0,0.481-3.039,4.807-4.937,9.861
			c-4.538,4.637-6.772,11.24-11.507,16.449c-3.617,7.55-6.471,9.19-13.156,16.442c-4.381,2.813-11.431,7.302-14.8,11.508
			c-6.743,2.955-11.003,6.376-18.082,8.221"/>
		<path id="path1789" fill="none" stroke="#002B00" stroke-width="11.125" d="M-3123.099-108.241
			c6.049-2.191,16.369-7.733,23.019-11.508c5.586-3.011,12.12-7.203,16.45-9.868c2.188-6.171,7.125-9.366,14.794-13.155
			c3.305-4.849,8.092-7.804,13.156-13.155c5.007-2.75,6.662-6.426,9.863-9.861"/>
		<path id="path1790" fill="none" stroke="#002B00" stroke-width="11.125" d="M-3126.3-100.02
			c6.911-0.057,19.928-0.148,27.951-4.934c8.636-2.707,11.64-6.044,19.731-8.221c4.509-3.16,11.57-6.277,16.438-9.868l-16.438,9.868
			c4.509-3.16,11.57-6.277,16.438-9.868"/>
		<path id="path1791" fill="none" stroke="#002B00" stroke-width="11.125" d="M-2998.083-141.133
			c-3.606,5.994-11.345,19.206-19.731,24.67c-3.207,3.874-11.489,7.528-16.444,11.508c-5.163,2.446-12.763,5.719-19.731,9.868
			c-7.791,1.668-13.168,3.711-19.732,6.574"/>
		<path id="path1792" fill="none" stroke="#002B00" stroke-width="11.125" d="M-3129.599-55.621
			c5.655-2.389,16.056-8.193,24.657-11.508c4.098-2.05,8.202-1.647,13.162-1.647"/>
		<path id="path1793" fill="none" stroke="#002B00" stroke-width="11.125" d="M-3091.803-45.76c0.573,0,4.972-4.128,9.863-6.581
			c6.454-4.05,13.694-8.15,19.731-11.508c6.847-1.788,14.331-6.821,23.019-8.221c4.439,2.22,14.731,2.813,21.381,3.287h9.863"/>
		<path id="path1794" fill="none" stroke="#002B00" stroke-width="11.125" d="M-3070.433-32.597
			c7.102-0.184,17.879-0.318,24.669-4.934c5.418-0.933,10.268-2.509,13.15-4.934"/>
		<path id="path1795" fill="none" stroke="#002B00" stroke-width="11.125" d="M-3187.202,44.679c1.36,0.071,9.168,1.583,13.15,3.294
			c5.719,2.856,8.508,6.15,14.8,9.861c5.452,4.779,12.537,6.263,21.369,6.574h23.031c9.672-0.544,14.083-2.955,23.019-3.287
			c7.71,0,13.064-1.082,18.082-3.287"/>
		<path id="path1796" fill="none" stroke="#002B00" stroke-width="11.125" d="M-3205.301,64.38
			c6.772,0.177,10.951,1.223,18.088,4.927c8.074,7.019,13.643,11.211,23.019,13.162c7.351,0.558,12.641,1.64,21.375,1.64
			c8.045,0,15.9-0.127,23.019,1.647c6.355,0.184,8.028,1.647,14.8,1.647"/>
		<g id="g1693" transform="translate(-4255.5 -962.73)">
			<path id="path876" fill="#D40F0F" fill-opacity="0.9961" stroke="#2B2B2B" d="M177.445-127.368
				c-7.976,0-17.497,0.714-22.209-2.608c-9.012-1.944-15.199-6.249-19.986-13.063c-8.242-6.722-10.876-12.95-17.769-20.896
				c-2.217-9.571-6.274-16.965-11.102-23.511c0.15-14.802,2.362-20.09,6.662-28.742c10.5-4.27,14.65-7.726,26.648-10.448
				c5.776-4.623,14.956-9.211,22.209-13.063c-3.334-6.631-6.836-10.632,0-18.287c5.62-6.305,12.028-11.282,22.209-13.056
				c11.304,1.202,13.92,6.249,19.986,13.056c10.87,0,21.468-0.219,31.094,2.615c8.948,2.87,14.58,6.482,24.426,13.056
				c9.024,3.542,13.191,7.055,17.769,18.294c7.143,8.172,2.414,13.6,2.223,26.119c-1.239,17.255-6.043,16.089-13.33,23.511
				c10.054,6.058,17.706,7.352,28.871,7.839h31.094h31.093c10.424-3.351,11.825-7.345,15.547-18.287
				c2.807-8.263,6.732-19.022,8.885-28.735c4.92-6.687,7.484-15.226,13.324-20.903c4.005-9.84,9.145-17.488,15.547-23.511
				c6.251-10.653,11.628-15.325,19.986-20.903c6.899-9.508,13.012-12.611,0-13.056c-10.609,2.191-15.101,8.263-26.648,10.448
				c-2.228-6.567-1.794-14.993,2.217-20.903c2.923-12.978,8.63-20.182,11.107-31.343c5.18-7.034,6.917-16.576,11.102-28.738
				c-0.741-11.384-2.587-21.337-4.439-31.347c-3.102-9.112-4.445-17.135-4.445-31.347c2.228-11.123,4.341-17.828,11.107-23.511
				c4.104-8.684,8.659-13.155,17.764-18.287c4.457-7.341,10.667-11.497,17.775-15.675c4.989-7.104,10.847-11.151,15.535-20.899
				c2.767-9.168,5.429-17.944,6.668-28.735c3.108-7.306,4.109-22.832,4.445-33.962c-0.145-13.869-1.493-21.373-6.662-28.735
				c-2.761-8.115-4.908-19.241-8.885-26.127c0-14.212,1.343-22.235,4.434-31.347c2.373-13.919,2.228-17.499,2.228-10.448v-2.615
				c12.693,8.794,16.166,12.413,31.094,13.063c6.228,0,10.239-0.739,15.541-2.612c12.624,1.605,17.353,1.658,17.769-15.675
				c1.974-9.303,3.745,3.188,4.439,7.839c4.914,11.558,5.302,4.21,11.102-2.615c3.646-12.837,7.727-5.394,15.547-2.612
				c0.891-3.131,3.768-4.432,6.662-7.836c1.667,9.797,4.121,17.962,11.113,20.899c11.206-2.414,11.796-7.656,13.324-20.899
				c7.935-1.933,8.566-4.888,8.879,7.836c5.858,1.424,10.528,4.429,15.547,0c1.968-5.8,4.243-10.844,6.662-15.672
				c2.888,15.297,3.918,17.683,17.769,18.284c4.48-4.98,6.396-7.832,6.662-18.284c5.03,7.161,11.385,11.918,22.203,13.06
				c8.948,0.986,7.762,4.878,17.775,5.224c2.535,6.316,3.687,17.573,8.873,23.515c7.64,5.772,17.972,7.804,22.215,5.224
				c0-7.27-0.833-14.689,2.223-18.287c8.694-3.411,16.259-0.799,24.426,2.612c11.264,3.612,11.107,6.761,11.107,23.511
				c-0.77,12.621-2.078,24.822-6.662,31.35c-1.8,9.759-2.026,23.299-6.662,33.959c-3.832,14.597,3.293,15.396,4.439,31.35
				c1.788,8.822-2.084,20.5-2.223,33.959c0.151,14.495-0.046,21.67,8.885,26.123c5.128,8.886,11.414,13.275,17.764,20.899
				c7.536,10.144,10.928,14.671,15.547,23.515c8.046,10.837,9.215,15.431,15.553,26.123c3.704,8.712,7.148,15.032,11.101,26.123
				c2.674,9.419,1.794,21.666,0,31.35c-7.114,6.595-10.667,14.307-11.101,28.735c-3.137,7.373-3.814,21.708-4.439,31.35
				c2.171,10.858,6.685,18.026,11.101,26.119c4.63,6.807,12.248,13.876,17.764,18.287c4.856,6.588,8.242,14.633,13.324,20.896
				c2.923,11.31,6.506,16.393,6.662,31.357c1.858,10.009,3.698,19.955,4.445,31.343c5.163,5.74,4.538,7.832,15.547,7.832
				c6.83,4.708,15.223,5.231,26.648,5.231c9.932,0.898,17.069,2.615,28.865,2.615c9.047,0,18.493-0.057,24.437-2.615
				c4.636-8.553,7.264-23.186,11.101-31.35c0.747-11.388,2.599-21.341,4.445-31.35c5.232-6.454,9.099-13.134,15.541-18.28
				c9.186-5.549,15.003-7.337,26.654-7.839c10.76,3.584,18.146,6.984,24.431-2.615c8.619-2.764,14.001-5.224,26.648-5.224
				c13.156-3.867,16.646-1.781,22.209,7.839c1.817,9.833,3.589,21.115,6.662,28.735c5.053,4.043,12.936,10.61,17.764,15.679
				c3.12,7.733,4.445,13.24,4.445,26.119c4,7.846,0.932,16.994,0,26.119c-5.227,6.447-9.244,13.636-15.547,20.903
				c-2.703,3.881-5.927,6.765-11.102,7.839l4.439,5.224L1025.843-9.82l-810.561-7.846l-37.779-109.709L177.445-127.368z"/>
			<path id="path877" fill="none" stroke="#2B2B2B" d="M597.161-608.047c0.735,0.869,1.476,1.739,2.217,2.612
				c-5.58-6.56-2.848-3.538,6.662,10.448v36.574c0,14.873,2.095,21.207,4.445,31.35c3.033,2.923,3.623,7.525,6.662,10.448"/>
			<path id="path878" fill="none" stroke="#2B2B2B" d="M663.788-605.431v2.612c0-7.691,0.382-3.358-6.662,10.448
				c-4.48,12.084-4.439,19.344-2.223,31.35c2.344,8.263,2.223,21.917,2.223,33.962c-1.187,4.181-1.042,1.043-2.223,5.224"/>
			<path id="path879" fill="none" stroke="#2B2B2B" d="M710.468-537.517h-2.223c6.54,0,2.859-0.445-8.879,7.839
				c-9.88,7.302-13.666,11.155-24.432,13.063c-7.235,8.341-11.484,10.264-24.426,10.448c-1.048,3.683-0.654,2.612-4.451,2.612"/>
			<path id="path880" fill="none" stroke="#2B2B2B" d="M657.137-490.485v2.612c2.929-1.294,13.197-4.627,17.764-5.224
				c5.562-5.408,14.574-7.535,19.986-13.063c8.532-1.294,5.794-4.888,15.552-5.224l-15.552,5.224
				c8.532-1.294,5.794-4.888,15.552-5.224"/>
			<path id="path881" fill="none" stroke="#2B2B2B" d="M690.453-480.044c3.785,0,19.402,0.763,26.648,2.615h11.101"/>
			<path id="path882" fill="none" stroke="#2B2B2B" d="M432.821-419.955h2.223c-5.996,0-2.917,0.166,8.885-2.612
				c9.938-0.898,18.186-2.98,28.871-5.224c11.866-3.492,16.583-3.524,24.431-13.063c8.89-6.977,11.825-13.074,13.324-26.123
				c1.54-8.345,2.489-18.245,6.662-23.511"/>
			<path id="path883" fill="none" stroke="#2B2B2B" d="M530.541-456.522v2.612v10.448c0,13.441,0.44,23.31,4.445,31.35
				c4.561,11.218,7.432,16.128,15.541,20.899c7.357,3.46,14.858,6.991,22.209,10.448h6.662"/>
			<path id="path884" fill="none" stroke="#2B2B2B" d="M586.083-393.829h2.223h8.891c16.455,0,30.717,2.082,46.634,2.612h31.088
				c10.934-0.459,19.703-2.612,31.094-2.612h22.203"/>
			<path id="path885" fill="none" stroke="#2B2B2B" d="M534.968-482.649h2.217h8.885c9.191-3.605,21.526-3.213,31.088-5.224
				c3.953,2.502,6.685,5.606,11.113,7.836"/>
			<path id="path886" fill="none" stroke="#2B2B2B" d="M543.911-519.227h2.223c-5.991,0-2.958-0.173,8.885,2.612
				c5.487,5.591,10.893,8.84,19.986,10.451"/>
			<path id="path887" fill="none" stroke="#2B2B2B" d="M550.556-545.353h2.223c-5.991,0-2.958-0.173,8.885,2.612
				c5.719,6.864,14.881,13.275,19.992,20.899c4.856,3.382,7.768,7.458,13.324,10.451"/>
			<path id="path888" fill="none" stroke="#2B2B2B" d="M488.363-388.608v2.615c0-7.691-0.37-3.361,6.662,10.448
				c0.741,12.18,1.615,26.222,6.662,33.962c1.47,12.703,1.789,16.174-2.211,26.119c-3.456,9.133-7.895,20.846-13.324,26.126
				c-4.439,7.67-11.026,10.844-15.553,18.287c-5.788,4.771-11.68,14.215-15.547,20.903c-8.503,11.141-10.384,17.601-17.764,23.511
				c-2.859,10.066-6.946,14.951-11.107,26.119c-6.662,9.246-11.559,18.188-15.541,28.735c-3.12,8.553-3.554,22.974-6.662,33.959
				v7.846"/>
			<path id="path889" fill="none" stroke="#2B2B2B" d="M463.914-153.488v-2.615v-10.448c0-13.176,1.001-24.522,2.223-36.574
				c3.403-9.338,6.703-19.793,8.879-31.35c4.573-7.903,6.512-15.997,11.113-26.119c2.367-10.222,6.789-18.139,13.324-23.511
				c2.778-9.819,6.315-15.594,11.102-26.126c3.49-8.37,10.488-18.605,13.324-31.35c3.392-4.743,4.63-12.519,6.662-20.899"/>
			<path id="path890" fill="none" stroke="#2B2B2B" d="M550.556-349.422v2.615c0-7.306,0.278-3.421-4.439,10.448
				c-3.415,11.197-8.711,20.542-11.102,31.343c-4.619,11.699-7.744,24.289-11.107,36.574c-1.771,11.678-2.217,23.582-2.217,36.574
				v36.574c0,13.367-2.09,23.398-2.223,36.574c-2.836,6.659-3.895,13.699-2.223,15.672"/>
			<path id="path891" fill="none" stroke="#2B2B2B" d="M575.005-338.974c-2.101,0-1.268,6.687-2.223,15.679
				c-0.805,12.314-2.223,21.723-2.223,36.574c-2.252,12.392-5.377,22.839-6.662,33.959c-3.126,12.42-6.211,19.241-6.662,33.959
				c4.544,7.861,10.297,13.502,13.324,26.126c3.589,8.596,7.779,17.418,11.107,28.735c0,14.18,2.078,20.252,2.217,33.966
				c0,6.44-0.428,10.476,2.223,15.672"/>
			<path id="path892" fill="none" stroke="#2B2B2B" d="M619.393-320.68v2.615c0-7.309,0.278-3.421-4.434,10.448
				c-7.032,11.197-11.484,20.973-15.553,28.735c-3.374,12.363-7.2,24.161-4.439,36.574c0.729,11.968,2.639,26.162,6.662,33.959
				c0.405,12.837,2.228,19.757,2.228,33.966c0.764,11.678,2.211,20.076,2.211,33.959c0,10.632-0.046,21.744-2.211,28.728
				c-4.179,2.107-3.114,4.475-8.89,5.231"/>
			<path id="path893" fill="none" stroke="#2B2B2B" d="M590.517-383.385c-2.796,0,1.291,6.988,2.217,15.675
				c3.068,6.016,2.223,18.782,2.223,28.735"/>
			<path id="path894" fill="none" stroke="#2B2B2B" d="M630.472-375.549h2.217c-6.957,0-2.796-0.541,8.885,10.451
				c1.661,8.974,3.334,19.061,4.439,28.738"/>
			<path id="path895" fill="none" stroke="#2B2B2B" d="M677.158-383.385v2.612v10.448c2.281,12.533,4.439,22.309,4.439,36.574
				l-4.439-36.574c2.281,12.533,4.439,22.309,4.439,36.574"/>
			<path id="path896" fill="none" stroke="#2B2B2B" d="M703.743-380.769h2.228c-6.541,0-2.859-0.449,8.873,7.836v7.839"/>
			<path id="path897" fill="none" stroke="#2B2B2B" d="M690.453-318.079h-2.228c6.963,0,2.692-0.679-6.662,13.063
				c-3.502,8.256-7.663,14.972-11.102,23.511c-4.069,8.864-5.626,13.374-6.662,23.511"/>
			<path id="path898" fill="none" stroke="#2B2B2B" d="M652.709-312.848c-1.285,0-3.884,8.157-8.879,13.063
				c-1.979,10.695-4.301,17.58-4.445,31.35c0,16.944,2.68,19.8,8.885,31.35c5.209,7.069,8.057,13.537,8.885,26.126v36.567v36.574
				c-1.534,11.996-4.376,17.863-11.107,23.511c-8.52,6.525-9.597,1.661-15.541-7.839c-2.078-8.059-4.989-11.819-6.662-20.896"/>
			<path id="path899" fill="none" stroke="#2B2B2B" d="M710.468-318.079v2.615c0-7.055,0.145-3.464-2.223,10.448
				c-4.04,11.763-9.927,23.214-13.324,31.35c-3.097,9.112-4.439,17.135-4.439,31.35c1.864,12.257,4.04,23.454,4.439,36.574
				c0,14.336-3.021,22.733-4.439,33.959c-4.358,9.72-8.167,21.928-13.324,28.735c-1.187,4.178-1.042,1.046-2.223,5.224"/>
			<path id="path900" fill="none" stroke="#2B2B2B" d="M737.059-346.807v2.615c0-7.309,0.272-3.421-4.439,10.448
				c-0.787,12.993-3.201,23.129-4.451,33.959c-2.929,8.066-8.063,23.327-11.096,31.35c-4.596,8.787-6.668,13-6.668,28.735
				c4.596,9.26,11.64,17.467,19.992,20.896c3.415,8.483,4.897,17.983,8.885,28.742c0.776,12.872,3.172,23.985,4.439,36.574v10.448"
				/>
			<path id="path901" fill="none" stroke="#2B2B2B" d="M761.508-325.911l-2.223,2.615c4.885-5.754,2.419-3.817,0,10.448
				c0,13.318-1.47,24.105-2.228,36.574c-3.953,9.317-7.6,20.189-8.873,31.343c1.922,12.413,6.928,15.156,15.535,20.896
				c5.169,5.796,12.653,10.787,19.992,15.679c8.294,5.69,13.99,12.144,19.992,20.896c6.616,9.656,10.766,11.777,15.541,23.511
				c1.273,11.098,4.243,21.595,2.223,31.357c0,3.478,0.741,2.608-2.223,2.608"/>
			<path id="path902" fill="none" stroke="#2B2B2B" d="M777.089-385.993h2.228c-6.963,0-2.674-0.664,6.662,13.063
				c2.402,11.324,2.223,23.79,2.223,36.571c4.248,7.352,5.904,17.142,6.662,28.742c2.338,8.256,2.217,21.913,2.217,33.959
				c-0.741,10.186-3.508,16.485,0,26.126c9.649,6.857,16.34,14.449,22.209,20.896c8.167,4.8,11.397,8.999,17.769,18.287
				c4.04,8.391,8.711,17.255,13.324,23.511c1.777,11.678,2.217,23.575,2.217,36.567c0,15.346,0.405,22.875-6.662,31.357
				c-3.363,0-7.085,0.7-2.217,2.608"/>
			<path id="path903" fill="none" stroke="#2B2B2B" d="M745.996-493.1v2.612v10.448c1.568,12.409,6.558,20.634,13.324,28.738
				c4.15,7.178,9.446,13.403,15.547,18.287c8.572,3.425,11.692,5.224,22.203,5.224"/>
			<path id="path904" fill="none" stroke="#2B2B2B" d="M772.661-414.731h2.223c-5.996,0-2.964-0.173,8.879,2.612
				c7.507,4.418,11.269,10.473,17.769,15.675c1.881,8.119,4.573,21.256,8.885,28.735c1.586,10.441,2.906,20.231,6.662,26.119"/>
			<path id="path905" fill="none" stroke="#2B2B2B" d="M581.655-474.813v2.612v10.451c6.378,6.507,11.842,7.836,24.426,7.836
				c9.932,0.898,17.075,2.612,28.871,2.612h31.094c11.865,0,14.285,0.209,17.769-13.06c4.549-7.274-1.488-9.787-4.439-15.675
				l4.439,15.675c4.549-7.274-1.488-9.787-4.439-15.675"/>
			<path id="path906" fill="none" stroke="#2B2B2B" d="M877.026-111.697h2.223c-6.969,0-2.801-0.537,8.879,10.448
				c1.378,7.818,4.191,11.932,6.662,18.294"/>
			<path id="path994" stroke="#000000" d="M241.843-216.188h-2.223c6.54,0,2.854-0.445-8.885,7.839
				c-6.529,5.379-10.951,13.297-13.324,23.511c-7.75,6.072-3.369,10.116,6.662,10.448c13.289-0.191,16.768-1.746,24.431-10.448
				c5.383-4.75,8.786-12.378,4.439-20.903l-4.439,20.896C253.888-189.595,257.292-197.223,241.843-216.188L241.843-216.188z"/>
			<path id="path907" fill="none" stroke="#2B2B2B" d="M912.553-103.857v2.608c0-7.048-0.145-3.464,2.217,10.455
				c1.187,3.23,2.008,5.931,4.445,7.839"/>
			<path id="path908" fill="none" stroke="#2B2B2B" d="M934.785-106.473v2.608v10.455c3.89,6.199,7.362,13.551,11.113,18.287"/>
			<path id="path909" fill="none" stroke="#2B2B2B" d="M956.942-98.633v2.615c0-7.691-0.382-3.365,6.668,10.448
				c0.938,3.308,1.626,4.114,4.445,5.217"/>
			<path id="path910" fill="none" stroke="#2B2B2B" d="M268.492-109.081v2.615v10.448c-1.655,9.741-6.859,16.428-11.102,20.896
				l11.102-20.896c-1.655,9.741-6.859,16.428-11.102,20.896"/>
			<path id="path911" fill="none" stroke="#2B2B2B" d="M292.923-101.242v2.608v10.455c-3.189,5.365-5.018,8.504-8.879,10.448"/>
			<path id="path912" fill="none" stroke="#2B2B2B" d="M312.915-106.473v2.608v10.455c-0.544,6.404-2.969,9.896-4.445,15.672"/>
			<path id="path913" fill="none" stroke="#2B2B2B" d="M341.786-111.697h2.223c-0.59,1.739,0,11.664,0,18.294
				c-2.402,5.245-5.933,6.192-8.885,10.448"/>
			<path id="path914" fill="#2B2B2B" d="M495.013-639.394h-2.217c0.77,2.439,3.108,14.629,4.439,18.284
				c6.141,5.164,9.365,13.332,13.324,20.899c5.533-7.507,6.662-13.926,6.662-28.735C514.27-638.98,505.31-637.973,495.013-639.394
				L495.013-639.394z"/>
			<path id="path915" fill="#2B2B2B" d="M754.857-628.943c-0.648,0-6.494,4.821-13.324,7.836
				c-1.65,14.329-0.915,15.884,4.439,26.127c10.604-0.961,10.841-3.771,13.324-15.675
				C764.205-618.353,760.755-616.604,754.857-628.943z"/>
			<path id="path916" fill="none" stroke="#2B2B2B" d="M706.035-589.76h-2.223h-6.662c-11.842-2.485-18.365-3.301-26.648,5.227
				c-2.552,11.208-3.936,20.281,2.223,26.123c7.559,2.174,12.033,5.804,19.986,7.836c4.289-8.193,7.779-14.148,13.324-23.511
				C711.163-576.096,707.505-580.563,706.035-589.76v15.675C711.163-576.096,707.505-580.563,706.035-589.76"/>
			<path id="path917" fill="none" stroke="#2B2B2B" d="M592.733-589.76c-0.741-0.869-1.482-1.739-2.217-2.612
				c5.036,5.927,3.201,3.075-8.885-2.612c-10.239,0-21.844-0.141-28.877,2.612c-2.784,6.563,3.369,11.48,8.891,15.675
				c6.101,4.881,11.391,11.109,15.535,18.287c6.176,5.333,7.519,12.819,15.552,15.675c3.589-8.914,6.697-15.385,8.885-28.738
				C600.217-576.393,596.542-581.79,592.733-589.76z"/>
			<path id="path951" stroke="#000000" d="M201.871-229.252c-2.57,0-18.522-0.17-24.431,2.608
				c-6.13,11.218-4.845,17.396,2.223,23.511c1.852,14.477,5.944,15.085,19.986,15.672c5.898,5.203,11.507,3.337,13.324-5.217
				c3.803-7.451,1.962-15.622-2.217-20.903C210.756-221.773,211.213-215.51,201.871-229.252z"/>
			<path id="path952" stroke="#000000" d="M155.237-179.614h-2.223c6.205,0,2.495-0.806-2.223,13.056
				c0,8.073-0.567,16.52,2.223,20.903c7.976,0,17.492,0.707,22.209-2.615c3.664-11.494,4.225-20.111-4.445-23.511
				C167.843-176.963,163.224-176.886,155.237-179.614z"/>
			<path id="path953" stroke="#000000" d="M239.627-148.271h-2.223h-8.879c-4.688,4.764-10.436,10.518-13.324,18.287
				c9.296,2.983,12.033,8.928,17.764,15.672c14.488-0.205,16.531-1.018,17.769-18.28C250.734-142.8,251.058-136.621,239.627-148.271
				z"/>
			<path id="path954" stroke="#000000" d="M996.902-135.208h-2.217h-8.885c-10.413,3.966-12.392,8.193-13.324,23.511
				c6.517,4.637,14.806,10.024,24.426,13.063c6.951,4.786,16.212,6.708,26.66,2.615c4.324-8.271,7.878-10.511,8.879-23.511
				c-7.611-2.729-19.448-8.094-24.431-13.063l24.431,13.063C1024.83-122.257,1012.993-127.623,996.902-135.208L996.902-135.208z"/>
			<path id="path955" stroke="#000000" d="M1019.134-197.894h-2.223c6.969,0,2.692-0.686-6.662,13.056
				c-2.35,12.759-0.452,17.58,4.445,28.735c9.834,5.705,10.824,14.463,19.992,18.287c4.26,5.019,2.223-6.751,2.223-13.056
				c1.887-13.834,5.753-17.531,6.662-31.357c-2.043-9.783-4.706-15.127-13.324-18.28l13.324,18.28
				C1041.528-192.013,1038.866-197.357,1019.134-197.894z"/>
			<path id="path956" stroke="#000000" d="M1070.249-190.062h-2.223c6.963,0,2.68-0.679-6.662,13.063
				c-4.295,8.327-4.439,20.924-4.439,33.959c3.67,11.649,9.07,4.453,13.324-2.615c7.525-6.023,10.627-8.447,11.102-23.511
				C1081.35-181.495,1081.472-175.974,1070.249-190.062L1070.249-190.062z"/>
			<path id="path957" stroke="#000000" d="M1101.348-153.488h-2.217c5.991,0,2.958-0.184-8.885,2.608
				c-7.374,9.932-12.965,15.05-15.552,28.735c10.418,2.658,17.185,0.827,28.877-2.615
				C1108.334-137.003,1108.855-134.614,1101.348-153.488L1101.348-153.488z"/>
			<path id="path997" d="M578.894-584.635h-1.042h-4.15c-2.043,3.167-0.897,6.542,1.042,9.645c1.071,4.135,0.625,5.726,4.15,7.231
				c2.512,3.485,5.967,5.252,10.384,6.026c7.16-0.756,4.411-2.884,3.108-8.437c-2.414-3.238-2.344-6.634-6.234-8.437
				C585.035-580.57,581.771-582.373,578.894-584.635L578.894-584.635z"/>
			<path id="path998" d="M687.443-583.949c-0.88,0.247-5.678,2.934-7.773,4.436c-3.566,5.641-4.874,7.461-3.34,13.311
				c3.687,1.962,7.849,3.566,13.336,4.436c5.441-1.393,5.255-4.892,5.557-11.83C694.048-577.259,691.281-579.503,687.443-583.949z"
				/>
			<path id="path1371" d="M567.405-440.953v2.987v11.982c2.801,14.484,3.114,19.397,17.231,20.963h34.462h34.456h34.462
				c10.829-1.237,9.846-4.192,9.846-17.965c1.621-3.068-1.239-12.65-4.92-17.966c-9.735,4.202-12.138,15.092-24.617,17.966
				c-14.181,0-20.849,0.184-27.077-8.981c-7.079-5.574-7.785-16.608-14.771-5.998c-7.947,5.842-15.362,8.985-29.536,8.985
				C581.904-428.982,581.678-431,567.405-440.953L567.405-440.953z"/>
			<path id="path1372" fill="none" stroke="#2B2B2B" stroke-width="1.1095" d="M600.403-514.48h2.46
				c-7.716,0-3.12-0.636,9.846,11.982c1.042,7.168,2.46,8.723,2.46,17.966"/>
			<path id="path1373" d="M596.721-494.797h-6.39c1.846,2.873,3.236,17.973,6.39,23.854
				C628.666-470.943,613.709-474.279,596.721-494.797z"/>
			<path id="path1375" d="M644.664-487.823h-1.545c4.312,0,2.02-0.286-6.176,4.641c-2.958,6.277-7.31,9.31-1.54,16.251
				c6.402,0.541,9.631,2.315,16.976,2.315v-16.244v16.244C652.379-470.031,652.379-475.446,644.664-487.823L644.664-487.823z"/>
			<path id="path1376" fill="none" stroke="#2B2B2B" stroke-width="1.1095" d="M651.349-511.49h-2.46
				c6.639,0,3.282-0.208-9.845,2.987c-2.576,5.295-6.24,10.826-9.845,14.975"/>
		</g>
		<g id="g1626" transform="translate(-4255.5 -962.73)">
			<path id="path918" fill="#D40F0F" fill-opacity="0.9961" stroke="#2B2B2B" d="M251.55,239.527c-4.677,0-22.163,0.41-31.968-2.672
				c-11.981,0.551-14.337,4.92-23.442,8.044c-10.471-0.488-16.114-2.686-27.707-2.686c-8.329-5.655-14.163-10.193-25.572-10.731
				c-8.503-1.442-16.843-2.672-27.708-2.672c-12.421,0.184-16.913,4.842-25.572,10.716c-3.971,7.352-9.058,14.23-14.922,21.461
				c-4.688,8.681-8.792,12.385-17.046,21.454c-4.526,8.37-9.238,12.561-12.792,26.826c0,12.356-0.116,26.381,2.136,34.864
				c1.395,13.007,3.924,19.538,4.26,34.864c0,14.081-0.741,25.547-4.26,37.55c-2.356,13.318-6.402,21.638-10.662,34.864
				c-2.234,8.447-3.594,23.172-4.26,34.871c1.563,11.204,5.858,22.048,8.526,34.856c2.576,12.978,4.665,24.147,8.526,32.185
				c2.483,10.342,6.176,9.38,6.39,24.14c0,14.562,1.997,20.797,2.136,34.864c3.178,8.009,4.694,21.122,6.39,32.185
				c5.07,7.755,6.344,15.954,14.922,21.461c1.829-12.908,3.525-22.854,4.26-34.871c1.233-8.666,1.609-23.935,4.266-29.491
				c2.321,10.731,6.193,16.075,8.52,26.805c4.081,6.214,7.588,18.273,10.656,26.826c4.382,1.506,4.266-0.509,4.266-10.731
				c2.506-9.465,3.919-20.422,6.39-32.185v-10.716c5.273,7.634,8.879,18.139,12.792,26.805c4.005,7.422,8.115,15.043,14.916,21.461
				c10.251,3.04,8.526,0.028,8.526-13.41v-37.543c0.446,15.085,3.913,18.047,6.396,29.491c5.001,6.298,7.362,11.713,17.046,13.417
				c4.214-8.61,8.607-13.148,12.786-24.133c0-14.788,0.926-23.306,4.266-32.185c6.344-9.903,9.18-13.466,17.052-21.461
				c8.3-9.317,16.207-18.563,25.572-24.14c5.244-9.508,11.449-15.728,19.182-24.133c8.665-10.101,15.963-21.998,21.312-34.864
				c6.205-7.818,11.894-21.065,14.916-34.871c5.678-11.204,7.524-24.204,8.526-40.229c4.555-13.084,8.48-25.858,10.656-40.229
				c0-14.42-0.92-26.261-2.13-37.543c-5.279-11.169-8.775-24.769-12.786-32.192c-2.518-9.925-8.537-21.956-10.656-32.184
				c-5.47-12.872-4.931-17.255-19.182-18.768C259.769,244.899,260.724,243.853,251.55,239.527L251.55,239.527z"/>
			<path id="path919" fill="none" stroke="#2B2B2B" d="M57.609,298.488v2.686c0-7.246-0.139-3.563,2.13,10.723
				c1.152,10.702,2.13,21.199,2.13,34.864c0,13.671,0.984,24.161,2.136,34.871c1.059,11.126,2.958,17.128,10.656,24.14"/>
			<path id="path920" fill="none" stroke="#2B2B2B" d="M78.921,362.892c1.505,0,2.298,8.256,6.396,13.417
				c2.153,9.939,6.014,20.203,10.656,32.177c2.101,13.699,5.082,20.344,8.526,29.505c1.997,6.291,2.761,14.449,6.396,18.775v-37.55
				v-37.55c-1.951-13.728-4.179-22.323-6.396-34.864v-16.096"/>
			<path id="path921" fill="none" stroke="#2B2B2B" d="M119.42,370.922c0.399,5.528,3.282,23.264,6.39,32.192
				c2.848,9.387,6.245,20.401,10.656,26.805c0.903,6.426,3.056,9.635,6.396,16.096c7.357-7.465,12.902-13.424,14.916-26.812
				c3.23-9.472,5.667-20.231,6.396-32.192c0.758-13.346,3.068-23.737,4.26-34.864c0-14.053-0.012-24.317-4.26-32.177l4.26,32.177
				c0-14.053-0.012-24.317-4.26-32.177"/>
			<path id="path922" fill="none" stroke="#2B2B2B" d="M174.823,389.74v2.686c0-7.239-0.139-3.563,2.13,10.731
				c1.54,8.878,2.136,19.892,2.136,32.177c-2.315,1.944-3.189,7.571-4.266,10.731"/>
			<path id="path923" fill="none" stroke="#2B2B2B" d="M194.011,349.511v2.686v10.723c0,11.72,0.886,27.286-2.13,34.864
				c0,13.671-0.984,24.168-2.13,34.871c2.813,17.693,5.18-1.039,6.39-8.051c2.564-8.447,5.25-22.451,8.526-29.505
				c1.326-13.996,3.861-21.207,4.266-34.857c2.159-10.865,2.13-22.543,2.13-34.871"/>
			<path id="path924" fill="none" stroke="#2B2B2B" d="M223.848,293.137c0.741,0,6.436,6.737,12.786,10.731
				c1.476,12.363,5.018,16.697,6.39,29.498v13.41"/>
			<path id="path925" fill="none" stroke="#2B2B2B" d="M221.713,274.404c2.738,1.442,12.676,10.165,17.046,13.41
				c5.846,0.742,7.912,1.067,8.526,8.044"/>
			<path id="path926" fill="none" stroke="#2B2B2B" d="M219.588,258.259h2.13h8.52c5.111,0.707,4.659,2.686,10.656,2.686"/>
		</g>
		<g id="g983" transform="matrix(7.3319 0 0 9.2267 -4606.2 -1852.4)">
			<path id="path927" fill="#D30F0F" fill-opacity="0.9961" stroke="#2B2B2B" d="M186.32,126.27h-0.291h-1.163
				c-1.3,0.238-1.723,0.857-2.325,1.744l2.325-1.744c-1.3,0.238-1.723,0.857-2.325,1.744"/>
			<path id="path928" fill="#D30F0F" fill-opacity="0.9961" stroke="#2B2B2B" d="M186.9,124.52
				c-0.097-0.097-0.194-0.193-0.291-0.291c0.64,0.64,0.424,0.317-1.163,0c-0.972-0.201-1.063-0.201-2.035,0"/>
			<path id="path929" fill="#D30F0F" fill-opacity="0.9961" stroke="#2B2B2B" d="M184.29,122.49h0.291h1.163
				c1.76,0.141,3.182,0.56,4.941,0.581c1.466,0,2.728-0.131,4.07-0.29c0.823-0.411,2.509-0.29,3.778-0.29
				c1.655,0,2.413,0.177,3.779,0.581c0.995,0.26,2.577,0.772,3.489,1.164c0.958,0.452,1.866,0.78,2.907,1.453
				c1.113,0.755,1.393,1.239,1.453,2.907c-0.156,1.15-0.344,2.453-0.581,3.779c0.102,1.433,0.414,2.668,0.581,4.069
				c0.315,1.26,0.291,2.648,0.291,4.07c-0.223,1.077-0.694,0.998-1.163,2.035c0.819,0.541,1.822,1.584,2.326,2.326
				c0.242,1.364,0.529,2.611,0.581,4.068c0,1.631-0.039,2.533-0.581,3.779c-0.38,1.406-0.832,1.999-1.164,3.488
				c-0.249,1.145-0.729,2.315-1.163,3.198c-0.481,0.707-0.812,2.278-1.162,3.197c-0.182,1.384-0.627,2.701-1.163,3.488
				c-0.296,1.085-0.443,1.898-1.453,2.326c-0.865-0.216-0.583-0.776-0.583-1.744c0.207-1.16,0.326-2.016,0-2.907
				c-0.95-0.224-1.014,0.454-1.453,1.744c-0.617,0.662-0.654,1.517-1.454,2.035c-0.992,1.201-1.342,0.777-2.034-0.872
				c0-1.546-0.191-2.479-0.291-3.78c-0.156-1.875-0.337,1.048-0.581,1.454c-0.329,1.479-0.835,1.992-1.163,3.198
				c-1.195,0.437-1.655,0.426-1.745-1.163c0.232-1.299,0.291-2.623,0.291-4.07c-0.73-0.841-0.783-0.179-1.163,0.581
				c-0.064,1.721-0.497,1.928-1.163,2.907c-0.971,0.574-0.748,0.582-1.164-0.872c-0.462-1.102-0.803-1.518-1.744-2.036
				c-0.834-0.723-1.549-0.872-3.196-0.872c-1.52-0.055-2.259-0.552-3.489-0.872c-1.16-0.332-2.288-0.587-2.907-1.163
				c-0.552-0.812-1.348-1.857-2.035-3.196c-0.749-1.368-1.105-2.228-1.162-3.779c-0.25-1.397-0.414-2.935-0.582-4.36
				c-0.329-1.977-0.816-4.129-1.162-6.105c-0.501-1.557-0.988-2.928-1.163-4.65c-0.578-1.277-0.896-2.666-1.163-4.07
				c0-1.341-0.017-2.859,0.291-3.779c0.554-1.075,1.189-1.8,1.744-2.617c0.818-1.014,1.359-1.754,2.616-2.616
				c0.649-0.775,1.93-1.303,2.907-1.744C182.622,122.79,183.069,122.705,184.29,122.49L184.29,122.49z"/>
			<path id="path930" fill="#D30F0F" fill-opacity="0.9961" stroke="#2B2B2B" d="M187.2,129.46v0.291
				c0-0.856,0.083-0.34-1.453,0.581c-0.794,0.756-1.504,1.015-2.326,2.035c-0.186,0.434-0.557,0.791,0,1.163"/>
			<path id="path931" fill="#D30F0F" fill-opacity="0.9961" stroke="#2B2B2B" d="M186.9,132.66v0.29
				c0-0.785-0.019-0.386,0.291,1.163c0.051,1.378,0.291,2,0.291,3.487c-0.535,0.892-0.221,2.138,0.29,3.199
				c0.456,1.269,1.035,2.151,1.454,3.197c0.62,0.207,0.29-0.223,0.29-1.163c-0.376-1.129-0.223-2.593,0-4.07v-3.487"/>
			<path id="path932" fill="#D30F0F" fill-opacity="0.9961" stroke="#2B2B2B" d="M194.749,132.08h-0.29
				c0.812,0,0.326-0.089-0.291,1.454v4.07c-0.306,0.919-0.291,2.439-0.291,3.779c-0.309,1.425-0.515,1.846,1.163,2.324
				c0.438,0.677,1.016,1.068,1.454,1.744c0.552-1.363,1.137-2.596,1.453-4.069c0.465-0.84,0.654-2.561,0.872-3.779
				c0.479-0.582,1.085-1.656,1.453-2.326"/>
			<path id="path933" fill="#D30F0F" fill-opacity="0.9961" stroke="#2B2B2B" d="M202.31,132.37v0.29
				c0-0.785-0.019-0.385,0.291,1.163c0.021,1.27,0.29,2.193,0.29,3.487c-0.572,0.843-0.653,2.029-1.162,3.198
				c-0.509,1.379-0.853,2.446-0.872,4.07c0,0.976-0.26,2.032,0.581,1.454c0.598-1.287,1.108-2.683,1.453-4.07
				c0.639-1.262,0.993-2.224,1.454-3.197c0.152-1.278,0.18-2.867,0.581-4.07l-0.581,4.07c0.152-1.278,0.18-2.867,0.581-4.07"/>
			<path id="path934" fill="#D30F0F" fill-opacity="0.9961" stroke="#2B2B2B" d="M209.29,130.34
				c-0.097,0.097-0.193,0.194-0.291,0.291c0.573-0.573,0.324-0.424,0,0.872c0,1.336,0.15,3.187-0.291,4.069
				c-0.206,1.73-0.456,2.275-1.453,3.488c-0.202,0.505-0.58,1.259-0.872,1.454"/>
			<path id="path935" fill="#D30F0F" fill-opacity="0.9961" stroke="#2B2B2B" d="M192.72,140.22v0.291
				c0-0.785,0.019-0.386-0.291,1.163c-0.555,0.64-1.384,1.872-1.744,2.906c-0.239,0.08-0.789,0.291-0.291,0.291"/>
			<path id="path936" fill="#D30F0F" fill-opacity="0.9961" stroke="#2B2B2B" d="M191.85,143.42h0.29
				c-0.812,0-0.327-0.091,0.291,1.453c0.233,0.932,0.639,0.812,0.872,1.744"/>
		</g>
		<path id="path945" fill="#000F0F" fill-opacity="0.9961" stroke="#000000" d="M-4039.297-11.532c-2.014,0-1.216,6.85-2.13,16.089
			v37.55c1.383,13.282,5.007,25.858,10.656,32.185c3.392,4.277,10.575,11.112,14.916,16.096c0-14.251,1.401-22.875,2.13-34.871
			c3.565-7.67,4.671-19.68,8.526-26.819c0.944-15.382,5.348-15.509,8.526-29.498c3.646-6.673-3.913-7.253-10.656-8.044
			c-7.959-2.354-15.425-5.698-21.312-10.731l21.312,10.731C-4015.288-11.2-4022.755-14.544-4039.297-11.532z"/>
		<path id="path946" fill="#000F0F" fill-opacity="0.9961" stroke="#000000" d="M-3928.479-16.883h-2.13
			c6.274,0,2.5-0.778-4.26,13.403c0,13.014,0.492,25.384,2.13,34.871c4.399,6.694,5.956,17.708,8.526,26.819
			c3.814,2.955,6.187-4.305,8.526-10.731c4.312-13.417,9.163-19.701,10.656-32.185c2.338-10.801,6.361-15.24,8.52-26.819
			c-4.526-11.904-6.917-17.057-19.176-18.768C-3921.041-23.556-3917.007-28.427-3928.479-16.883L-3928.479-16.883z"/>
		<path id="path947" fill="#000F0F" fill-opacity="0.9961" stroke="#000000" d="M-3370.116-19.562h2.124
			c-1.152,3.888-2.124,15.961-2.124,24.14c-1.592,11.218-3.299,21.115,0,32.192c6.112,3.386,10.065,5.938,12.786,13.403
			c4.978,5.28,6.077,8.03,6.396-5.358c4.619-12.809,6.801-16.018,12.786-26.819c4.231-9.112,5.869-15.283,4.26-29.513
			c-5.51-14.039-8.624-15.693-21.317-18.768c-13.365,0-13.174,12.561-17.046,24.14"/>
		<path id="path948" fill="#000F0F" fill-opacity="0.9961" stroke="#000000" d="M-3265.635-3.509h-2.136
			c1.708,5.613,4.26,17.199,4.26,26.826c1.702,11.982,2.136,24.211,2.136,37.55c-1.268,10.66-3.409,10.723,6.39,10.723
			c3.988-11.953,7.137-20.938,12.786-26.812c2.732-11.275,5.979-18.047,6.396-32.192c0-11.077,0.66-25.165-2.124-32.184
			C-3253.394-19.598-3252.896-16.912-3265.635-3.509L-3265.635-3.509z"/>
		<path id="path949" fill="#000F0F" fill-opacity="0.9961" stroke="#000000" d="M-3171.863-62.463h-2.13
			c5.95,0,2.784-0.325-8.532,5.365c-5.279,8.702-13.388,13.056-10.65,26.826c10.65,4.517,16.623,7.825,21.312,16.089
			c6.784,4.687,11.704,8.221,14.916,16.089c3.889,3.259,6.158,8.362,8.526,13.41c-1.273-13.502-3.513-22.55-4.26-34.871
			c-0.145-15.184-2.275-20.62-6.396-29.491C-3159.939-58.787-3162.191-56.568-3171.863-62.463z"/>
		<path id="path950" fill="#000F0F" fill-opacity="0.9961" stroke="#000000" d="M-3156.976-116.165h-2.13
			c6.269,0,2.738-0.459-8.526,8.044c-4.769,10.851-4.891,20.012-2.13,29.498c10.436,1.958,14.626,7.663,19.176,16.096
			c6.361,7.995,10.766,13.396,17.058,18.775c-4.561-9.776-8.642-18.683-10.662-29.498c-0.353-11.932-1.898-20.606-4.26-29.505
			l4.26,29.505C-3144.543-85.183-3146.088-93.856-3156.976-116.165L-3156.976-116.165z"/>
		<path id="path944" fill="#000F0F" fill-opacity="0.9961" stroke="#000000" d="M-4096.836-62.463c-0.718,0-6.83,4.955-10.656,10.73
			c-10.366,7.196-15.946,11.339-17.052,26.819c-0.376,12.703-2.13,18.457-2.13,32.185c3.016,3.803,0.544,15.396,4.26,10.731
			c6.5-8.999,9.839-17.17,17.051-24.14c4.827-5.789,13.787-11.883,21.312-16.089c11.924-4.369,10.991-2.891,4.26-16.089
			C-4083.582-46.403-4088.583-50.786-4096.836-62.463L-4096.836-62.463z"/>
		<path id="path943" fill="#000F0F" fill-opacity="0.9961" stroke="#000000" d="M-4111.758-113.394h-2.13
			c6.274,0,2.737-0.467-8.526,8.044c-5.337,8.384-11.924,10.822-14.922,21.454c-4.96,7.557-6.257,15.255-6.39,29.491
			c0.197,8.688,1.326,16.852,4.26,21.461c2.848-10.087,6.315-16.039,14.921-21.461c5.291-4.305,6.737-10.08,12.786-13.403
			c4.387-2.361,9.243-0.933,10.656-8.044C-4102.503-92.294-4106.438-97.115-4111.758-113.394z"/>
		<path id="path937" fill="#D40F0F" fill-opacity="0.9961" stroke="#2B2B2B" d="M-3947.655-196.623v2.679
			c0-7.889,0.365-3.45-6.396,10.731c-7.432,3.732-13.978,5.358-25.577,5.358c-6.454,6.1-10.679,4.22-14.916,16.089
			c-5.713,7.542-8.329,11.713-17.052,16.103c-9.822,0-20.964,0.141-27.702-2.686c-7.154-4.863-17.387-8.49-25.577-10.73
			c-11.565,0.177-17.347,3.612-25.572,8.044c-8.804,2.615-14.331,6.03-19.182,13.417c-5.73,2.884-5.73,7.189-6.396,16.096
			c3.044,6.376,0.272,9.861,6.396,10.716c3.409,5.252,4.26,5.436,4.26,16.096c2.292,11.522,1.974,26.028,4.266,37.55
			c4.908,14.717,8.624,15.891,17.046,24.14c7.316,4.354,12.537,8.567,21.312,13.403c7.849,5.075,17.289,5.789,25.578,8.044
			c6.812,10.123,11.177,14.138,21.312,18.782c10.453-1.986,12.085-7.571,21.312-10.731c3.6-4.531,9.197-0.827,12.786-8.051
			c3.131-7.592,4.515-24.741,8.526-32.177c4.677-11.939,11.09-17.997,21.312-21.454c5.608-5.295,12.091-5.952,19.182-2.686
			c-0.469,15.926-4.515,16.583-6.396,29.505c-3.652,8.511-5.996,16.032-2.13,24.14c8.908,3.739,19.639,2.672,29.837,2.672
			c13.758-2.912,14.754-6.871,14.916-24.133c-2.026-10.858-5.105-17.538-6.39-29.498c0-8.285-0.55-16.965,2.13-21.461
			c4.457,2.057,14.725,3.308,19.182,5.372c3.646,9.168,6.743,11.551,14.922,8.044c2.587-5.075,6.546-8.794,8.526-13.417
			c2.153,7.38,6.338,13.989,10.65,10.731c4.497-11.812,7.617-15.537,17.046-18.775c9.029-2.467,14.962-5.804,21.317-10.723
			c6.454-4.998,10.459-11.487,17.052-16.089c4.521-8.878,9.099-14.774,10.656-29.513c0-15.785-2.535-26.211-4.26-40.229
			c-4.752-9.38-7.091-19.503-14.922-26.819c-6.211-4.687-14.945-1.145-23.448,0c-9.533-0.919-16.38-2.672-27.702-2.672
			c-10.928,0-19.35,2.198-29.838,2.672h-29.837c-12.369,0-18.852,2.177-27.708,8.044
			C-3945.409-210.04-3940.9-210.803-3947.655-196.623L-3947.655-196.623z"/>
		<path id="path938" fill="#D40F0F" fill-opacity="0.9961" stroke="#2B2B2B" d="M-3451.062-100.02
			c3.658,1.152,13.376,7.118,21.318,8.044c8.259,0.544,6.39,3.372,6.39,13.41c3.056,2.206,6.025,8.405,10.656,10.731
			c1.702-3.966,5.146-10.144,8.526-13.41c1.974,5.789,4.214,12.045,10.656,16.096c5.4-12.901,4.937-15.884,19.176-16.096
			c8.96,10.695,6.292,20.627,0,29.498c-3.137,11.437-4.469,21.355-6.39,34.871c4.167,6.503,9.712,5.358,19.176,5.358
			c6.396-4.814,14.731-2.524,19.182,2.686c12.797-0.799,12.329-2.927,12.786-18.775v-37.543c4.717-5.931,9.788-7.528,14.922-2.686
			c5.325,5.535,7.883,18.379,12.786,26.819c0.729,11.791,1.887,22.634,6.396,29.498c4.81,12.632,6.378,15.502,19.182,16.096
			c11.159-0.17,17.335-2.107,27.708-5.365c9.539-2.191,12.635-7.924,17.052-16.089c10.552-3.57,13.503-7.486,25.572-8.044
			c10.98-3.075,14.36-8.03,21.312-13.41c4.59-6.673,6.627-16.668,10.656-24.147c3.189-10.017,7.062-14.625,8.532-26.812
			c0.868-14.279,5.47-17.63,8.514-29.505c1.893-9.493-1.875-15.481-8.514-21.454c-5.47-5.966-13.452-7.422-21.317-10.731h-29.838
			h-29.838c-10.87,0-19.668-1.76-29.837-2.686c-8.595-6.235-12.641-10.37-19.182-18.761c-9.244-1.739-18.024-8.292-25.572-13.417
			c-6.02-9.395-11.97-11.027-17.052-18.768c-8.671-4.63-13.116-10.639-23.448-16.096c-8.786-5.91-13.729-8.956-25.572-10.73
			c-10.17-0.912-18.968-2.679-29.832-2.679c-12.282,0-18.938,4.524-27.708,8.044c-7.397,9.833-12.959,10.646-14.921,24.133
			c-3.016,7.599-2.136,23.143-2.136,34.871c2.142,12.576,6.413,24.628,8.531,34.871
			C-3452.353-120.909-3451.062-114.957-3451.062-100.02L-3451.062-100.02z"/>
		<path id="path939" fill="none" stroke="#2B2B2B" d="M-3998.804-116.165c-4.636-0.855-20.872-2.686-31.968-2.686
			c-8.549,2.347-15.223,4.885-25.578,5.372c-7.837,2.312-15.998,5.203-21.312,10.724c-7.154,0.848-9.388,3.718-17.046,5.365"/>
		<path id="path940" fill="none" stroke="#2B2B2B" d="M-3996.674-91.99h-2.13c6.274,0,2.738-0.46-8.526,8.044
			c-8.457,9.303-14.349,13.968-19.176,26.819c-5.788,6.065-7.409,11.452-14.922,13.41c-4.457,5.959-8.919,11.225-12.786,16.089"/>
		<path id="path941" fill="none" stroke="#2B2B2B" d="M-3278.467-83.967h2.124c-5.95,0-2.784-0.332,8.532,5.365
			c8.914,9.797,9.284,14.717,21.312,16.089c11.235,5.146,12.433,8.214,17.046,21.461c1.557,4.552,2.136,8.44,2.136,16.096"/>
		<path id="path942" fill="none" stroke="#2B2B2B" d="M-3274.213-118.844c3.432,1.661,15.535,9.805,23.436,10.738
			c8.509,1.442,16.849,2.679,27.708,2.679c10.042,1.711,15.223,5.705,25.578,10.723h17.052"/>
		<g id="g1211" transform="matrix(.89560 0 0 .96835 -4129.7 -983.53)">
			<path id="path575" fill="#0068BD" d="M520.828-31.395c-1.254,30.995-9.087,49.26-35.435,49.26
				c-17.714,0-35.765-14.534-35.429-32.835c0.33-18.308,22.568-19.432,37.859-17.929c5.422-14.921-20.144-31.338-91.009-31.338
				C326.647-65.091,272.14,3.674,180.065,1.447C87.983-0.786,47.113-104.248,64.627-129.914
				c-6.863,22.849-22.322,37.054-29.186,59.903C28.584-47.148,60.019-15.313,53.155,7.543C46.298,30.399,1.136,44.276-5.721,67.124
				c-6.863,22.863-5.125,54.377-11.988,77.233c0-16.425,31.403-55.362,73.417-55.362c35.429,0,152.444-25.053,159.45,246.313
				c0,213.661-140.572,222.092-185.514,206.93C29.534,568,45.232,648.065,117.066,730.006
				c77.146,82.102,166.249,93.57,183.743,92.431c-8.221-22.856-42.015-49.267-10.088-49.559
				c21.224,0.292,27.952,42.682,27.952,42.682s34.537-24.323,46.041-12.198c11.11,19.075-35.048,35.499-35.048,35.499
				s23.428,51.691,53.15,82.095c35.429,43.398,86.743,57.83,106.3,58.414c9.5,0.285,27.867,7.227,27.208,23.695
				c-1.312,32.791-1.273,48.632-18.419,49.26h127.472c-17.146-0.628-17.107-16.469-18.419-49.26
				c-0.666-16.469,17.708-23.411,27.208-23.695c19.556-0.584,70.864-15.016,106.3-58.414c29.716-30.404,53.15-82.095,53.15-82.095
				s-46.157-16.425-35.048-35.499c11.504-12.125,46.041,12.198,46.041,12.198s6.728-42.391,27.952-42.682
				c31.92,0.292-1.868,26.703-10.088,49.559c17.495,1.139,106.604-10.329,183.75-92.424
				c71.834-81.949,87.532-162.014,87.422-187.775c-44.949,15.162-185.521,6.723-185.521-206.93
				c6.993-271.359,124.021-246.306,159.45-246.306c42.008,0,73.417,38.93,73.417,55.355c0,4.095,4.052-23.316-3.664-48.267
				c-7.723-24.944-46.312-42.916-56.601-78.226c-10.289-35.302,7.717-87.949,0-114.944c-7.723-26.995-22.064-32.842-22.064-32.842
				C1076.162-104.248,1035.291-0.794,943.21,1.44c-92.082,2.234-146.589-66.539-216.749-65.684
				c-70.864,0-96.431,16.425-91.009,31.338c15.291-1.504,37.529-0.387,37.859,17.921c0.336,18.308-17.714,32.85-35.429,32.85
				c-26.349,0-34.175-18.272-35.435-49.26h-81.599H520.828z"/>
			<g id="g671" transform="matrix(1 0 0 .92685 0 76.981)">
				<path id="path619" fill="#E8E1CB" stroke="#000000" stroke-width="1.25" d="M215.151,278.715
					c0,230.523-140.572,239.62-185.514,223.27c-0.11,27.787,15.595,114.171,87.422,202.587
					c77.146,88.582,166.249,100.947,183.743,99.718c-8.221-24.66-42.015-53.147-10.088-53.47
					c21.224,0.323,27.952,46.051,27.952,46.051s34.537-26.243,46.041-13.161c11.11,20.58-35.048,38.301-35.048,38.301
					s23.428,55.77,53.15,88.582c35.429,46.815,86.743,62.386,106.3,63.016c9.5,0.307,27.868,7.797,27.208,25.573
					c-1.312,35.371-1.273,52.462-18.419,53.14H625.37c-17.146-0.677-17.107-17.768-18.419-53.14
					c-0.666-17.776,17.708-25.266,27.208-25.573c19.556-0.63,70.864-16.201,106.3-63.016c29.722-32.812,53.15-88.582,53.15-88.582
					s-46.157-17.721-35.048-38.301c11.504-13.082,46.041,13.161,46.041,13.161s6.728-45.728,27.952-46.051
					c31.92,0.323-1.868,28.811-10.088,53.47c17.495,1.229,106.604-11.137,183.75-99.718
					c71.834-88.416,87.532-174.801,87.422-202.587c-44.949,16.351-176.208,16.555-176.208-213.96
					c-2.107-9.152-2.779-27.298-4.278-35.828c-1.499-8.53-35.474,26.771-38.854,26.582c-11.426-0.354-46.732-32.686-71.853-37.065
					c-11.853-1.89-50.629,33.3-60.175,33.993c-12.499,0.725-28.514-35.978-55.134-32.205c-19.595,3.103-35.642,36.537-40.444,31.756
					c-12.35-12.294-25.948-20.021-41.698-22.943c-23.55-2.032-36.935,16.414-49.595,31.599
					c-0.439-12.397-17.159-24.794-36.211-23.234C505.485,120.69,396.277-22.259,387.398-26.733
					c-6.592-2.638-4.078,13.602-6.114,20.399c-16.622-4.56-33.238-9.12-49.86-13.681c-3.18,8.089-1.713,16.169-9.546,24.25
					c-19.86-14.949-30.42-43.846-45.634-44.838c-5.422,17.808-1.545,54.226-2.314,81.336c-12.577-8.364-25.147-16.729-37.723-25.093
					c-1.008,8.845-2.023,17.69-3.031,26.542c-1.215,10.625-51.205-28.606-61.015-28.858c-9.811-0.26-21.482,27.448-30.298,27.298
					c-8.815-0.142,56.995,42.987,73.294,238.092H215.151z"/>
				<path id="path620" fill="none" stroke="#000000" d="M199.99,175.681c0,0,23.253-32.56,51.159-27.905
					c27.906,4.647,58.133,106.964,58.133,106.964"/>
				<path id="path621" fill="none" stroke="#000000" d="M279.049,40.804c0,4.655,18.6,79.067,34.88,102.317
					c16.28,23.25,53.486,41.853,72.092,69.766c18.6,27.905,27.9,104.641,27.9,104.641"/>
				<path id="path622" fill="none" stroke="#000000" d="M320.908,5.921c0,0,6.98,37.206,18.606,65.111s39.533,37.206,53.479,60.464
					c13.953,23.25,23.26,69.766,23.26,69.766"/>
				<path id="path623" fill="none" stroke="#000000" d="M211.61,336.131c0,0,32.553-4.647,60.459,32.56
					c27.906,37.206,32.553,86.038,32.553,86.038"/>
				<path id="path624" fill="none" stroke="#000000" d="M813.896,284.969c0,0,20.933-2.323,34.886,13.956
					c13.953,16.272,11.627,27.897,9.3,27.897"/>
				<path id="path625" fill="none" stroke="#000000" d="M811.569,308.234c0,0,18.6,0,25.58,4.647c6.973,4.647,9.3,27.905,9.3,27.905
					"/>
				<path id="path626" fill="none" stroke="#000000" d="M799.949,331.485c2.327,0,16.28-13.956,25.58-9.309
					c9.3,4.655,11.627,30.228,11.627,30.228"/>
				<path id="path627" fill="none" stroke="#000000" d="M788.316,343.11c0,0,16.28-2.323,25.58,4.647
					c9.306,6.978,6.98,18.603,6.98,18.603"/>
				<path id="path628" fill="none" stroke="#000000" d="M741.81,343.11c2.327,0,30.226,9.302,41.859,20.935
					c11.627,11.625,9.3,37.206,9.3,37.206"/>
				<path id="path629" fill="none" stroke="#000000" d="M874.362,357.058c0,0,6.973-4.655,23.253,9.302
					c16.273,13.956,18.6,30.228,18.6,30.228"/>
				<path id="path630" fill="none" stroke="#000000" d="M872.029,382.639c0,0,18.606,2.323,27.906,9.302s23.253,23.25,23.253,23.25"
					/>
				<path id="path631" fill="none" stroke="#000000" d="M865.062,412.875c0,0,23.253-9.309,32.553-4.655s25.58,18.603,25.58,18.603"
					/>
			</g>
			<g id="g986" transform="matrix(.54483 -.22219 .23288 .49056 695.97 290.53)">
				<path id="path745" fill="#B03F00" stroke="#000000" d="M-549.213-134.649l0.002,442.911l17.715-0.012l-0.002-442.911
					l-8.855-35.424L-549.213-134.649z"/>
				<path id="path743" fill="#B03F00" stroke="#000000" d="M-265.746-134.649l-0.001,407.479l17.71,0l0.007-407.491l-8.855-35.424
					L-265.746-134.649z"/>
				<g id="g866">
					<path id="path822" fill="none" stroke="#000000" d="M-248.034-99.216l17.723,400.73"/>
					<path id="path824" fill="none" stroke="#000000" d="M-248.034-99.216l53.152,400.736"/>
					<path id="path826" fill="none" stroke="#000000" d="M-248.034-99.216l88.582,400.741"/>
					<path id="path828" fill="none" stroke="#000000" d="M-248.034-99.216l124.016,400.734"/>
					<path id="path830" fill="none" stroke="#000000" d="M-265.759-99.209l-17.707,400.724"/>
					<path id="path832" fill="none" stroke="#000000" d="M-265.759-99.209L-318.9,301.522"/>
					<path id="path834" fill="none" stroke="#000000" d="M-265.759-99.209l-88.586,400.734"/>
					<path id="path836" fill="none" stroke="#000000" d="M-265.759-99.209l-124.005,400.732"/>
					<path id="path838" fill="none" stroke="#000000" d="M-265.759-99.209l-177.158,421.821"/>
					<path id="path839" fill="none" stroke="#000000" d="M-248.034-99.216l177.157,421.828"/>
					<path id="path840" fill="none" stroke="#000000" d="M-407.484,238.245l301.186,0.005"/>
					<path id="path841" fill="none" stroke="#000000" d="M-124.016,196.059l-265.762,0.013"/>
					<path id="path842" fill="none" stroke="#000000" d="M-372.057,153.891l230.322,0.006"/>
					<path id="path843" fill="none" stroke="#000000" d="M-159.453,111.706l-194.877-0.008"/>
					<path id="path844" fill="none" stroke="#000000" d="M-336.609,69.516c-0.002,0.698,159.448,0.003,159.448,0.003"/>
					<path id="path845" fill="none" stroke="#000000" d="M-194.879,27.328l-124.024,0.015"/>
					<path id="path846" fill="none" stroke="#000000" d="M-301.181-14.838c0.583-0.004,89.347,0.022,88.579-0.013"/>
					<path id="path847" fill="none" stroke="#000000" d="M-283.465-57.036l53.149,0.011"/>
					<path id="path848" fill="none" stroke="#000000" d="M-531.489-78.125l17.708,400.738"/>
					<path id="path849" fill="none" stroke="#000000" d="M-531.504-78.117l53.152,400.736"/>
					<path id="path850" fill="none" stroke="#000000" d="M-531.489-78.125l88.587,400.729"/>
					<path id="path851" fill="none" stroke="#000000" d="M-531.489-78.125l124.006,400.73"/>
					<path id="path852" fill="none" stroke="#000000" d="M-549.218-78.134l-17.727,400.745"/>
					<path id="path853" fill="none" stroke="#000000" d="M-549.208-78.13l-53.156,400.739"/>
					<path id="path854" fill="none" stroke="#000000" d="M-549.208-78.13l-88.586,400.734"/>
					<path id="path855" fill="none" stroke="#000000" d="M-549.223-78.122L-673.229,322.61"/>
					<path id="path856" fill="none" stroke="#000000" d="M-549.208-78.13l-177.163,421.833"/>
					<path id="path857" fill="none" stroke="#000000" d="M-531.504-78.117l177.163,421.815"/>
					<path id="path858" fill="none" stroke="#000000" d="M-690.939,259.337l301.176,0"/>
					<path id="path859" fill="none" stroke="#000000" d="M-407.486,217.159l-265.741-0.007"/>
					<path id="path860" fill="none" stroke="#000000" d="M-655.511,174.983l230.317-0.011"/>
					<path id="path861" fill="none" stroke="#000000" d="M-442.912,132.78l-194.883,0.004"/>
					<path id="path862" fill="none" stroke="#000000" d="M-620.073,90.603c-0.002,0.698,159.448,0.003,159.448,0.003"/>
					<path id="path863" fill="none" stroke="#000000" d="M-478.349,48.427l-124.013-0.01"/>
					<path id="path864" fill="none" stroke="#000000" d="M-584.641,6.237c0.583-0.004,89.336,0.047,88.584,0.004"/>
					<path id="path865" fill="none" stroke="#000000" d="M-566.92-35.944l53.155-0.002"/>
				</g>
				<g id="g955">
					<path id="path685" fill="#B03F00" stroke="#000000" d="M-407.479,237.4l372.041-0.001l0.006,53.157l17.719,17.713l-17.72-0.005
						l0.003,35.432l17.71,0.001l-17.716,17.719l53.16,70.863L-88.578,644.872l-566.938,0.013l0.003-283.462l88.584,0.004
						l-0.005-70.865l53.154-0.002L-407.479,237.4L-407.479,237.4z"/>
					<path id="path686" fill="#B03F00" stroke="#000000" d="M-566.93,361.426l531.494-0.01"/>
					<path id="path687" fill="#B03F00" stroke="#000000" d="M-566.933,343.702l531.498,0.006"/>
					<path id="path688" fill="#B03F00" stroke="#000000" d="M-566.936,308.269l531.504-0.006"/>
					<path id="path689" fill="#B03F00" stroke="#000000" d="M-513.781,290.56l478.349-0.004"/>
					<path id="path690" fill="#B03F00" stroke="#000000" d="M-35.436,361.416L-177.168,644.88"/>
					<path id="path691" fill="#B03F00" stroke="#000000" d="M-407.481,272.844l230.312,0.002"/>
					<path id="path692" fill="#B03F00" stroke="#000000" d="M-442.919,255.127c34.362,1.531,407.49-0.016,407.49-0.016"/>
					<path id="path693" fill="#B03F00" stroke="#000000" d="M-53.154,255.119l-17.717,35.427"/>
					<path id="path694" fill="#B03F00" stroke="#000000" d="M-70.867,308.27l-17.722,35.44"/>
					<path id="path695" fill="#B03F00" stroke="#000000" d="M-230.325,308.263l-17.707,35.432"/>
					<path id="path696" fill="#B03F00" stroke="#000000" d="M-212.605,308.268l-17.712,35.444"/>
					<path id="path697" fill="#B03F00" stroke="#000000" d="M-53.153,396.843l-88.574,0.001l17.707-35.432"/>
					<path id="path699" fill="#B03F00" stroke="#000000" d="M-70.87,432.27l-88.579,0.013l18.757-36.861l-1.044,1.417"/>
					<path id="path700" fill="#B03F00" stroke="#000000" d="M-88.588,467.727l-88.584-0.004l17.722-35.44"/>
					<path id="path701" fill="#B03F00" stroke="#000000" d="M-106.305,503.154l-88.584-0.004l17.717-35.427"/>
					<path id="path702" fill="#B03F00" stroke="#000000" d="M-124.021,538.581l-88.584-0.004l17.717-35.427"/>
					<path id="path703" fill="#B03F00" stroke="#000000" d="M-141.738,574.009l-88.584-0.004l17.717-35.427"/>
					<path id="path704" fill="#B03F00" stroke="#000000" d="M-53.153,396.843l70.867,35.431"/>
					<path id="path706" fill="#B03F00" stroke="#000000" d="M-88.588,467.727l70.867,35.431"/>
					<path id="path707" fill="#B03F00" stroke="#000000" d="M-160.456,433.807l-495.322-1.166"/>
					<path id="path708" fill="#B03F00" stroke="#000000" d="M-175.577,468.683c-1.159,1.157-480.202-2.323-480.202-2.323"/>
					<path id="path709" fill="#B03F00" stroke="#000000" d="M-212.605,538.578c-35.429-0.006-442.905,0.002-442,1.022"/>
					<path id="path710" fill="#B03F00" stroke="#000000" d="M-230.318,574.022c0,0-426.059-1.029-425.195,0.003"/>
					<path id="path711" fill="#B03F00" stroke="#000000" d="M-159.455,609.436l-88.579,0.013l17.712-35.444"/>
					<path id="path712" fill="#B03F00" stroke="#000000" d="M-177.168,644.88l-88.589,0.009l17.722-35.44"/>
					<path id="path714" fill="#B03F00" stroke="#000000" d="M-496.061,379.12l-17.723,11.824l0,23.616l70.874,0.003l17.717-11.811"
						/>
					<path id="path716" fill="#B03F00" stroke="#000000" d="M-372.048,379.13l-17.717,11.811l0,23.616l70.869,0.016l17.723-11.824"
						/>
					<path id="path718" fill="#B03F00" stroke="#000000" d="M-496.058,485.43l-17.717,11.811l0,23.616l70.859,0.011l17.723-11.824"
						/>
					<path id="path720" fill="#B03F00" stroke="#000000" d="M-372.045,485.439l-17.712,11.799l-0.005,23.628l70.864-0.001
						l17.717-11.811"/>
				</g>
				<polygon id="rect713" points="-496.061,379.12 -425.202,379.132 -425.192,402.752 -496.066,402.749 				"/>
				<polygon id="rect715" points="-372.048,379.13 -301.184,379.129 -301.184,402.745 -372.053,402.758 				"/>
				<polygon id="rect717" points="-496.058,485.43 -425.194,485.429 -425.194,509.045 -496.063,509.058 				"/>
				<polygon id="rect719" points="-372.055,485.435 -301.186,485.421 -301.191,509.05 -372.055,509.051 				"/>
				<polygon id="rect744" fill="#B03F00" stroke="#000000" points="-301.178,-99.21 -212.604,-99.211 -212.595,-81.499 
					-301.179,-81.502 				"/>
				<polygon id="rect746" fill="#B03F00" stroke="#000000" points="-584.655,-99.214 -496.071,-99.211 -496.072,-81.503 
					-584.646,-81.502 				"/>
				<g id="g747">
					<path id="path721" fill="none" stroke="#000000" d="M-407.479,237.4l-0.009-17.712l372.056-0.009l-0.006,17.72"/>
					<path id="path722" fill="none" stroke="#000000" d="M-389.762,219.68l-0.001,17.708"/>
					<path id="path723" fill="none" stroke="#000000" d="M-372.037,219.673l-0.006,17.72"/>
					<path id="path724" fill="none" stroke="#000000" d="M-354.333,219.686l-0.001,17.708"/>
					<path id="path725" fill="none" stroke="#000000" d="M-336.608,219.678l-0.001,17.708"/>
					<path id="path726" fill="none" stroke="#000000" d="M-318.898,219.679l0.004,17.725"/>
					<path id="path727" fill="none" stroke="#000000" d="M-301.179,219.684l-0.001,17.708"/>
					<path id="path728" fill="none" stroke="#000000" d="M-283.464,219.672l0.004,17.725"/>
					<path id="path729" fill="none" stroke="#000000" d="M-265.744,219.677l0.004,17.725"/>
					<path id="path730" fill="none" stroke="#000000" d="M-248.034,219.678l0.009,17.712"/>
					<path id="path731" fill="none" stroke="#000000" d="M-230.309,219.67l-0.002,17.737"/>
					<path id="path732" fill="none" stroke="#000000" d="M-212.595,219.688l-0.001,17.708"/>
					<path id="path733" fill="none" stroke="#000000" d="M-194.88,219.676l-0.006,17.72"/>
					<path id="path734" fill="none" stroke="#000000" d="M-177.16,219.681l-0.006,17.72"/>
					<path id="path735" fill="none" stroke="#000000" d="M-159.44,219.686l-0.001,17.708"/>
					<path id="path736" fill="none" stroke="#000000" d="M-141.725,219.674l-0.006,17.72"/>
					<path id="path737" fill="none" stroke="#000000" d="M-124.016,219.675l0.004,17.725"/>
					<path id="path738" fill="none" stroke="#000000" d="M-106.306,219.675l0.009,17.712"/>
					<path id="path739" fill="none" stroke="#000000" d="M-88.581,219.668l-0.002,17.737"/>
					<path id="path740" fill="none" stroke="#000000" d="M-70.866,219.686l0.009,17.712"/>
					<path id="path741" fill="none" stroke="#000000" d="M-53.151,219.674l0.004,17.725"/>
				</g>
			</g>
			<g id="g632" transform="matrix(1 0 0 .92685 0 76.981)">
				<path id="path576" fill="#00C8FF" stroke="#000000" stroke-width="1.25" d="M32.92,551.304
					c-0.11,27.802,12.299,64.851,84.132,153.268c77.14,88.582,166.249,100.947,183.737,99.718
					c-8.221-24.66-42.008-53.147-10.082-53.47c21.224,0.323,27.952,46.051,27.952,46.051s34.537-26.243,46.041-13.161
					c11.11,20.58-35.054,38.301-35.054,38.301s23.434,55.77,53.15,88.582c35.435,46.815,86.75,62.386,106.3,63.016
					c9.5,0.307,27.874,7.797,27.215,25.573c-1.318,35.371-1.273,52.462-18.419,53.14h127.465
					c-17.146-0.677-17.1-17.768-18.419-53.14c-0.659-17.776,17.715-25.266,27.215-25.573c19.55-0.63,70.864-16.201,106.3-63.016
					c29.716-32.812,53.15-88.582,53.15-88.582s-46.164-17.721-35.054-38.301c11.51-13.082,46.041,13.161,46.041,13.161
					s6.728-45.728,27.958-46.051c31.92,0.323-1.868,28.811-10.088,53.47c17.495,1.229,106.597-11.137,183.75-99.718
					c71.827-88.416,87.532-151.787,87.422-179.573c-2.811,1.024-59.781-13.783-69.481-4.285
					c-12.984-10.239-38.092-20.588-57.603-20.966c-22.801-0.378-43.288,9.215-50.319,25.707
					c-13.604-19.674-53.266-29.551-61.642-28.267c-27.331,4.702-44.373,41.318-35.416,87.337
					c-20.642-19.753-27.997-21.698-51.108-21.761c-50.429-0.118-55.386,89.818-129.146,89.283
					c-58.398-0.449-83.079-31.417-100.289-53.801c22.251-19.091,20.849-26.542,6.133-45.76
					c-16.693-18.068-42.764-16.445-60.66,1.796c-17.895-17.713-18.057-28.039-35.778-53.147
					c-17.314-24.534-29.606-26.968-60.996-26.841c-31.396,0.134-55.464,1.811-67.581,34.694
					c-15.401,8.593-37.213,26.566-54.087,23.022c-10.295-28.039-43.229-60.614-70.987-61c-27.764-0.386-72.797,56.44-82.749,82.927
					c-17.682-37.065-36.276-42.137-51.786-42.909c-15.517-0.764-21.088,24.888-27.182,40.309L32.92,551.304z"/>
				<path id="path582" fill="none" stroke="#000000" d="M167.721,489.997c0,0,16.441,9.869,36.172,39.467
					c19.731,29.598,3.29,42.751,3.29,42.751"/>
				<path id="path583" fill="none" stroke="#000000" d="M184.156,506.451c0,0,32.889,3.284,46.041,26.314
					c13.158,23.014,6.579,49.32,6.579,49.32"/>
				<path id="path584" fill="none" stroke="#000000" d="M220.341,631.419c0,0,23.02-55.904,65.772-32.89
					c42.751,23.03,39.462,59.196,36.172,59.196h-3.29v3.292"/>
				<path id="path585" fill="none" stroke="#000000" d="M263.086,687.323c0,0,23.027-9.869,49.33,0
					c26.31,9.861,9.869,32.882,9.869,32.882"/>
				<path id="path586" fill="none" stroke="#000000" d="M259.796,700.476c0,0,26.31-6.576,42.751,3.292
					c16.448,9.869,3.29,26.306,3.29,26.306"/>
				<path id="path587" fill="none" stroke="#000000" d="M200.61,710.337c0,0,3.29,26.314,19.731,42.759
					c16.441,16.437,46.041,23.014,46.041,23.014"/>
				<path id="path588" fill="none" stroke="#000000" d="M361.747,723.498c32.889,16.445,39.462,46.043,39.462,46.043"/>
				<path id="path589" fill="none" stroke="#000000" d="M374.898,710.337c49.33,0,46.041,29.598,46.041,29.598"/>
				<path id="path590" fill="none" stroke="#000000" d="M302.561,552.486c0,0,29.593-23.014,69.061,0
					c39.462,23.03,16.441,52.628,16.441,52.628"/>
				<path id="path591" fill="none" stroke="#000000" d="M322.291,513.019c0,0,39.462-26.314,72.344,0
					c32.889,26.314,23.027,46.043,23.027,46.043"/>
				<path id="path592" fill="none" stroke="#000000" d="M437.387,529.472c0,0,9.869,16.445,19.731,32.882
					c9.869,16.445,26.31,13.161,26.31,13.161"/>
				<path id="path593" fill="none" stroke="#000000" d="M526.179,647.865c0,0,23.021,32.882,75.641,39.459
					c52.613,6.577,98.654-13.153,98.654-13.153"/>
				<path id="path594" fill="none" stroke="#000000" d="M526.179,690.608c0,0,29.6,29.598,69.061,29.598
					c39.462,0,95.371-16.437,95.371-16.437"/>
				<path id="path595" fill="none" stroke="#000000" d="M526.179,720.214c0,0,16.441,26.306,75.641,26.306
					c59.193,0,85.503-13.153,85.503-13.153"/>
				<path id="path596" fill="none" stroke="#000000" d="M522.89,759.673c0,0,6.579,13.153,36.172,19.729
					c29.599,6.576,59.199-9.869,59.199-9.869"/>
				<path id="path597" fill="none" stroke="#000000" d="M618.261,785.979c0,0,19.731,26.314,46.041,26.314
					c26.31,0,0-39.467,19.731-46.043c19.731-6.577,49.33,0,49.33,0"/>
				<path id="path598" fill="none" stroke="#000000" d="M605.109,825.453c0,0,19.731,26.306,49.33,19.729
					c29.6-6.576,65.772-55.904,65.772-55.904l23.021-16.445"/>
				<path id="path599" fill="none" stroke="#000000" d="M388.057,887.926c0,0,3.29-16.437,39.468-9.861
					c36.172,6.577,0,55.904,39.462,55.904c39.462,0,75.64-23.022,98.661-26.306c23.02-3.292,65.772,23.022,88.792,29.598
					c23.021,6.576,65.772-26.314,65.772-26.314"/>
				<path id="path600" fill="none" stroke="#000000" d="M568.937,956.991c3.29,0,13.158-6.576,36.179-3.292
					c23.02,3.292,49.33,3.292,49.33,3.292"/>
				<path id="path601" fill="none" stroke="#000000" d="M559.068,989.881c0,0,16.441-6.577,29.599-6.577
					c13.152,0,9.862,19.729,9.862,19.729"/>
				<path id="path602" fill="none" stroke="#000000" d="M483.428,624.835c-3.29,0,16.441,0,26.31,3.292
					c9.869,3.292,13.152,26.306,13.152,26.306"/>
				<path id="path603" fill="none" stroke="#000000" d="M480.138,647.865c0,0,13.152-6.584,26.31,0
					c13.152,6.569,6.579,29.598,6.579,29.598"/>
				<path id="path604" fill="none" stroke="#000000" d="M470.276,674.171c0-3.292,19.737-9.861,26.31-6.576
					c6.579,3.284,6.579,32.882,6.579,32.882"/>
				<path id="path605" fill="none" stroke="#000000" d="M463.697,710.337c0,0,16.448-13.153,26.31-13.153
					c9.869,0,6.579,23.022,6.579,23.022"/>
				<path id="path606" fill="none" stroke="#000000" d="M460.408,739.943l23.02-13.161l9.869,19.737"/>
				<path id="path607" fill="none" stroke="#000000" d="M746.521,588.661c0,0,13.152-3.284,32.883,0s26.31,26.314,26.31,26.314"/>
				<path id="path608" fill="none" stroke="#000000" d="M753.1,614.974c0-3.292,19.731-3.292,26.31,0
					c6.573,3.284,16.441,19.729,16.441,19.729"/>
				<path id="path609" fill="none" stroke="#000000" d="M789.266,684.031c-3.283,0,3.29,13.153,6.579,29.598
					c3.29,16.445-13.152,32.882-13.152,32.882"/>
				<path id="path610" fill="none" stroke="#000000" d="M855.051,670.878c-3.29,0,19.731,23.022,23.02,42.751
					c3.29,19.737-16.448,39.467-16.448,39.467"/>
				<path id="path611" fill="none" stroke="#000000" d="M871.486,661.01c0,0,23.027,32.882,23.027,49.328
					s-16.448,42.751-16.448,42.751"/>
				<path id="path612" fill="none" stroke="#000000" d="M894.506,637.988c0,0,9.869,13.153,13.158,29.598
					s-6.579,42.751-6.579,42.751"/>
				<path id="path613" fill="none" stroke="#000000" d="M924.106,677.463c0,0,16.448,19.729,9.869,36.175
					c-6.579,16.437-19.731,29.598-19.731,29.598"/>
				<path id="path614" fill="none" stroke="#000000" d="M950.416,687.323c-3.283,3.284,6.579,23.014,3.29,32.882
					s-19.731,26.306-19.731,26.306"/>
				<path id="path615" fill="none" stroke="#000000" d="M957.001,634.696c0,3.292,23.021,23.029,23.021,46.043
					c0,23.022-13.158,46.043-13.158,46.043"/>
				<path id="path616" fill="none" stroke="#000000" d="M865.734,559.889c0,0,16.441,3.292,19.731,19.729
					c3.29,16.445-9.862,32.882-9.862,32.882"/>
				<path id="path617" fill="none" stroke="#000000" d="M872.313,530.291c0,0,26.31,29.598,32.889,39.459
					c6.579,9.869-3.29,32.89-3.29,32.89"/>
				<path id="path618" fill="none" stroke="#000000" d="M865.734,526.999c3.29,3.292,32.889,3.292,46.041,19.729
					c13.158,16.445,6.579,46.043,6.579,46.043"/>
			</g>
			<path id="path1052" fill="#FFD400" stroke="#000000" d="M503.45,7.083c5.81-4.65,24.416-15.118,59.296-13.95
				c34.88,1.161,59.302,17.439,59.302,17.439l-2.327-45.347c0,0-23.253-11.629-54.649-11.629c-31.39,0-58.133,6.979-58.133,6.979
				L503.45,7.09V7.083z"/>
			<g id="g577" transform="matrix(1 0 0 .92685 0 76.981)">
				<path id="path551" fill="#FFD400" stroke="#000000" stroke-width="1.25" d="M-17.709,72.694
					c0,17.666,2.546,28.858,20.261,28.858c17.721,0,24.242-17.847,24.668-30.504c0.536-15.996,3.49-40.365,38.919-40.365
					c17.714,0,128.008-11.775,131.298,248.032c3.29,259.799-184.241,206.714-184.241,206.714s-20.17,88.582,90.072,232.5
					c84.662,104.074,205.536,106.878,205.536,106.878s18.723,41.774,56.291,95.646c54.32,77.894,124.021,61,124.021,78.713
					c0,17.713-17.547,9.924-17.721,25.936c0.174,19.414,9.365,27.897,26.51,27.22c17.146-0.685,17.107-17.776,18.419-53.155
					c0.659-17.768-17.708-25.258-27.208-25.566c-19.556-0.63-70.864-16.201-106.3-63.024c-29.722-32.804-53.15-88.574-53.15-88.574
					s46.157-17.721,35.048-38.301c-11.504-13.082-46.041,13.161-46.041,13.161s-6.728-45.736-27.952-46.051
					c-31.926,0.315,1.868,28.811,10.088,53.47c-17.495,1.229-106.604-11.145-183.743-99.726
					C45.239,616.156,29.54,529.756,29.65,501.969c44.942,16.358,185.508,7.262,185.508-223.254
					C208.139-14.068,91.118,12.962,55.689,12.962c-42.008,0-73.417,42.011-73.417,59.724L-17.709,72.694z"/>
				<path id="path556" fill="#FFD400" stroke="#000000" stroke-width="1.25" d="M1140.996,72.694
					c0,17.666-2.546,28.858-20.261,28.858s-24.242-17.847-24.662-30.504c-0.543-15.996-3.49-40.365-38.925-40.365
					c-17.714,0-128.008-11.775-131.298,248.032c-3.29,259.799,184.241,206.714,184.241,206.714s20.17,88.582-90.072,232.5
					c-84.662,104.074-205.536,106.878-205.536,106.878s-18.723,41.774-56.291,95.646c-54.32,77.894-124.021,61-124.021,78.713
					c0,17.713,17.546,9.924,17.721,25.936c-0.175,19.414-9.365,27.897-26.51,27.22c-17.146-0.685-17.107-17.776-18.419-53.155
					c-0.666-17.768,17.708-25.258,27.208-25.566c19.556-0.63,70.864-16.201,106.3-63.024c29.722-32.804,53.15-88.574,53.15-88.574
					s-46.157-17.721-35.048-38.301c11.504-13.082,46.041,13.161,46.041,13.161s6.728-45.736,27.952-46.051
					c31.92,0.315-1.868,28.811-10.088,53.47c17.495,1.229,106.604-11.145,183.743-99.726
					c71.827-88.401,87.532-174.801,87.422-202.587c-44.949,16.358-185.514,7.262-185.514-223.254
					c7.019-292.784,124.04-265.753,159.469-265.753c42.015,0,73.417,42.011,73.417,59.724L1140.996,72.694z"/>
				<path id="path557" fill="#FFD400" stroke="#000000" stroke-width="1.25" d="M999.242-258.666
					c-26.426,0-22.652,26.715-17.721,42.979c4.931,16.264,35.435,27.889,63.115,10.168c-7.639,26.842-27.68,106.303-109.396,108.343
					c-95.371-2.032-103.644-71.798-209.375-72.349c-105.725-0.551-124.835,15.5-123.439,52.596
					c1.26,33.442,9.087,53.147,35.435,53.147c17.714,0,35.765-15.673,35.435-35.426c-0.336-19.753-22.568-20.966-37.859-19.344
					c-5.429-16.099,20.138-33.812,91.009-33.812c70.16-0.921,124.667,73.271,216.749,70.869
					c92.082-2.41,132.946-114.037,115.451-141.729c-18.529-33.812-31.26-35.434-59.406-35.434V-258.666z"/>
				<path id="path554" fill="#FFD400" stroke="#000000" stroke-width="1.25" d="M124.02-258.666
					c26.42,0,22.652,26.715,17.715,42.979c-4.931,16.264-35.429,27.889-63.116,10.168c7.645,26.842,27.687,106.303,109.402,108.343
					c95.371-2.032,103.637-71.798,209.368-72.349c105.731-0.551,124.841,15.5,123.439,52.596
					c-1.254,33.442-9.087,53.147-35.435,53.147c-17.714,0-35.765-15.673-35.429-35.426c0.33-19.753,22.568-20.966,37.859-19.344
					c5.422-16.099-20.144-33.812-91.009-33.812c-70.166-0.921-124.674,73.271-216.749,70.869
					C87.983-83.905,47.113-195.532,64.614-223.224c18.522-33.812,31.254-35.434,59.399-35.434L124.02-258.666z"/>
			</g>
		</g>
		<path id="path1756" fill="none" stroke="#000000" stroke-width="11.125" d="M-3655.699,400.08
			c17.717,2.983,674.449-205.789,673.227-531.493V-1725.91h-1346.501v1594.497c-1.215,325.705,673.233,531.493,673.233,531.493
			H-3655.699z"/>
	</g>
</g>
</svg>
