<?xml version="1.0" encoding="utf-8"?>
<!-- Generator: Adobe Illustrator 16.0.0, SVG Export Plug-In . SVG Version: 6.00 Build 0)  -->
<svg version="1.2" baseProfile="tiny"
	 id="svg378" xmlns:cc="http://creativecommons.org/ns#" xmlns:dc="http://purl.org/dc/elements/1.1/" xmlns:rdf="http://www.w3.org/1999/02/22-rdf-syntax-ns#"
	 xmlns="http://www.w3.org/2000/svg" xmlns:xlink="http://www.w3.org/1999/xlink" x="0px" y="0px" width="512px" height="512px"
	 viewBox="0 0 512 512" xml:space="preserve">
<g id="flag">
	<rect id="rect552" x="0" fill="#229E45" width="512" height="512"/>
	<g id="g3551" transform="matrix(.74806 0 0 .74806 65.576 64.496)">
		<path id="path554" fill="#F8E509" d="M261.721,455.71l307.29-199.44L259.86,56.29l-308.3,200.46L261.721,455.71L261.721,455.71z"
			/>
		<path id="path557" fill="#2B49A3" d="M395.615,256.005c0,71.683-58.205,129.793-130.002,129.793
			c-71.799,0-130.002-58.11-130.002-129.793c0-71.682,58.204-129.793,130.002-129.793
			C337.412,126.213,395.615,184.323,395.615,256.005L395.615,256.005z"/>
		<polygon id="polygon559" fill="#FFFFEF" points="222.878,333.744 218.862,331.425 214.69,333.49 215.623,328.853 212.402,325.457 
			217.01,324.916 219.173,320.757 221.104,325.06 225.649,325.885 222.239,329.075 		"/>
		<polygon id="polygon560" fill="#FFFFEF" points="309.998,355.803 305.981,353.485 301.809,355.55 302.743,350.913 299.52,347.516 
			304.128,346.976 306.293,342.818 308.222,347.119 312.768,347.944 309.359,351.135 		"/>
		<polygon id="polygon561" fill="#FFFFEF" points="272.446,320.564 268.978,318.561 265.373,320.344 266.18,316.339 
			263.395,313.405 267.377,312.937 269.246,309.346 270.914,313.061 274.84,313.775 271.895,316.531 		"/>
		<polygon id="polygon562" fill="#FFFFEF" points="360.433,307.893 357.026,305.927 353.488,307.677 354.28,303.744 
			351.547,300.863 355.455,300.405 357.291,296.877 358.928,300.526 362.783,301.227 359.891,303.933 		"/>
		<polygon id="polygon563" fill="#FFFFEF" points="270.856,281.513 266.841,279.196 262.668,281.259 263.602,276.623 
			260.38,273.225 264.988,272.686 267.151,268.528 269.082,272.828 273.628,273.655 270.218,276.846 		"/>
		<polygon id="polygon564" fill="#FFFFEF" points="163.588,241.241 159.572,238.923 155.4,240.987 156.335,236.352 153.111,232.954 
			157.72,232.414 159.883,228.256 161.814,232.557 166.359,233.382 162.949,236.574 		"/>
		<polygon id="polygon565" fill="#FFFFEF" points="176.488,294.813 172.471,292.496 168.3,294.559 169.234,289.923 166.012,286.525 
			170.619,285.986 172.783,281.828 174.714,286.128 179.259,286.955 175.85,290.146 		"/>
		<polygon id="polygon566" fill="#FFFFEF" points="310.346,221.52 306.799,219.473 303.114,221.296 303.939,217.201 
			301.092,214.199 305.162,213.722 307.073,210.049 308.778,213.849 312.794,214.578 309.782,217.397 		"/>
		<polygon id="polygon567" fill="#FFFFEF" points="302.99,256.374 300.195,254.761 297.293,256.197 297.943,252.971 
			295.702,250.607 298.907,250.232 300.412,247.338 301.755,250.331 304.917,250.906 302.546,253.126 		"/>
		<polygon id="polygon568" fill="#FFFFEF" points="157.609,304.521 154.927,302.974 152.141,304.351 152.766,301.256 
			150.614,298.987 153.691,298.627 155.135,295.851 156.423,298.723 159.459,299.274 157.182,301.405 		"/>
		<polygon id="polygon569" fill="#FFFFEF" points="361.177,316.861 358.992,315.703 356.723,316.733 357.231,314.419 
			355.477,312.722 357.984,312.452 359.161,310.376 360.211,312.523 362.685,312.936 360.83,314.53 		"/>
		<polygon id="polygon570" fill="#FFFFEF" points="157.609,304.521 154.927,302.974 152.141,304.351 152.766,301.256 
			150.614,298.987 153.691,298.627 155.135,295.851 156.423,298.723 159.459,299.274 157.182,301.405 		"/>
		<polygon id="polygon571" fill="#FFFFEF" points="157.609,304.521 154.927,302.974 152.141,304.351 152.766,301.256 
			150.614,298.987 153.691,298.627 155.135,295.851 156.423,298.723 159.459,299.274 157.182,301.405 		"/>
		<polygon id="polygon572" fill="#FFFFEF" points="200.296,304.51 197.615,302.963 194.829,304.342 195.453,301.245 
			193.301,298.978 196.377,298.616 197.822,295.841 199.111,298.713 202.146,299.264 199.869,301.394 		"/>
		<polygon id="polygon573" fill="#FFFFEF" points="194.992,318.71 192.311,317.163 189.525,318.542 190.149,315.446 
			187.997,313.177 191.073,312.817 192.518,310.042 193.807,312.912 196.842,313.465 194.565,315.595 		"/>
		<polygon id="polygon574" fill="#FFFFEF" points="283.63,292.861 280.949,291.314 278.163,292.692 278.787,289.596 
			276.635,287.327 279.711,286.966 281.156,284.191 282.445,287.063 285.48,287.614 283.203,289.744 		"/>
		<polygon id="polygon575" fill="#FFFFEF" points="257.62,292.851 254.939,291.303 252.153,292.682 252.777,289.585 
			250.625,287.318 253.701,286.957 255.146,284.181 256.435,287.053 259.47,287.603 257.193,289.734 		"/>
		<polygon id="polygon576" fill="#FFFFEF" points="187.069,283.784 185.389,282.814 183.644,283.677 184.035,281.737 
			182.687,280.316 184.615,280.089 185.52,278.35 186.328,280.149 188.228,280.495 186.803,281.831 		"/>
		<polygon id="polygon577" fill="#FFFFEF" points="357.872,328.091 355.19,326.543 352.404,327.921 353.028,324.826 
			350.877,322.558 353.953,322.198 355.398,319.42 356.686,322.292 359.721,322.843 357.445,324.974 		"/>
		<polygon id="polygon578" fill="#FFFFEF" points="336.211,330.929 333.991,329.643 331.684,330.788 332.2,328.218 330.418,326.334 
			332.966,326.034 334.163,323.728 335.231,326.113 337.744,326.571 335.859,328.34 		"/>
		<polygon id="polygon579" fill="#FFFFEF" points="346.431,330.681 344.361,329.487 342.213,330.55 342.693,328.16 341.034,326.41 
			343.407,326.13 344.522,323.987 345.515,326.203 347.857,326.629 346.102,328.275 		"/>
		<polygon id="polygon580" fill="#FFFFEF" points="375.771,305.078 373.779,303.927 371.709,304.95 372.172,302.651 
			370.574,300.966 372.86,300.697 373.933,298.635 374.891,300.769 377.145,301.178 375.455,302.762 		"/>
		<polygon id="polygon581" fill="#FFFFEF" points="335.956,345.378 333.352,343.958 330.65,345.224 331.255,342.382 329.167,340.3 
			332.153,339.969 333.555,337.422 334.805,340.057 337.75,340.563 335.542,342.519 		"/>
		<polygon id="polygon582" fill="#FFFFEF" points="336.102,357.038 333.728,355.618 331.262,356.883 331.815,354.042 329.91,351.96 
			332.633,351.63 333.912,349.081 335.053,351.717 337.74,352.224 335.724,354.179 		"/>
		<polygon id="polygon583" fill="#FFFFEF" points="316.431,330.677 314.439,329.527 312.37,330.55 312.832,328.252 311.234,326.566 
			313.52,326.297 314.593,324.235 315.551,326.369 317.806,326.778 316.115,328.362 		"/>
		<polygon id="polygon584" fill="#FFFFEF" points="297.991,330.677 295.999,329.527 293.929,330.55 294.392,328.252 
			292.794,326.566 295.08,326.297 296.153,324.235 297.112,326.369 299.366,326.778 297.674,328.362 		"/>
		<polygon id="polygon585" fill="#FFFFEF" points="266.68,303.298 264.688,302.148 262.619,303.171 263.082,300.872 
			261.483,299.185 263.769,298.918 264.842,296.855 265.8,298.99 268.055,299.398 266.364,300.982 		"/>
		<polygon id="polygon586" fill="#FFFFEF" points="270.169,359.102 268.481,358.127 266.728,358.995 267.121,357.046 
			265.767,355.619 267.703,355.393 268.612,353.645 269.424,355.453 271.334,355.799 269.902,357.14 		"/>
		<polygon id="polygon587" fill="#FFFFEF" points="222.878,268.841 218.862,266.523 214.69,268.587 215.623,263.951 
			212.402,260.553 217.01,260.014 219.173,255.855 221.104,260.156 225.649,260.981 222.239,264.173 		"/>
		<path id="path726" fill="#FFFFFF" d="M387.05,302.7c1.98-5.181,4.536-12.995,5.894-20.167
			c-69.048-60.656-146.02-91.728-243.28-85.335c-3.487,6.686-6.278,13.683-8.63,21.256c115.24-10.994,199.709,40.026,246.019,84.246
			H387.05z"/>
		<path id="path790" fill="#309E3A" d="M356.01,268.6l2.467,1.347c-0.388,0.875-0.492,1.64-0.316,2.291
			c0.183,0.661,0.636,1.234,1.359,1.723c0.768,0.523,1.453,0.752,2.056,0.692c0.611-0.063,1.065-0.312,1.36-0.749
			c0.187-0.278,0.262-0.572,0.228-0.88c-0.027-0.305-0.196-0.672-0.504-1.094c-0.214-0.287-0.734-0.89-1.559-1.812
			c-1.06-1.183-1.693-2.18-1.898-2.993c-0.283-1.144-0.111-2.183,0.521-3.119c0.407-0.603,0.954-1.051,1.644-1.345
			c0.698-0.294,1.461-0.36,2.282-0.201c0.828,0.161,1.697,0.55,2.6,1.166c1.48,1.004,2.373,2.086,2.679,3.244
			c0.312,1.159,0.121,2.296-0.574,3.41l-2.45-1.512c0.307-0.679,0.382-1.264,0.222-1.757c-0.15-0.493-0.561-0.969-1.232-1.423
			c-0.691-0.47-1.329-0.696-1.913-0.676c-0.376,0.012-0.666,0.17-0.872,0.478c-0.189,0.279-0.232,0.601-0.132,0.96
			c0.132,0.457,0.68,1.215,1.655,2.277c0.973,1.059,1.636,1.926,1.988,2.597c0.362,0.668,0.526,1.366,0.491,2.089
			c-0.023,0.721-0.29,1.454-0.792,2.202c-0.457,0.68-1.072,1.184-1.846,1.522c-0.774,0.337-1.602,0.419-2.484,0.243
			c-0.879-0.179-1.83-0.617-2.852-1.315c-1.491-1.01-2.405-2.133-2.739-3.363c-0.329-1.236-0.128-2.572,0.611-4V268.6z"/>
		<path id="path791" fill="#309E3A" d="M344.309,260.92l2.521,1.245c-0.351,0.888-0.424,1.658-0.223,2.302
			c0.211,0.65,0.683,1.206,1.427,1.667c0.79,0.491,1.482,0.693,2.081,0.608c0.611-0.089,1.056-0.352,1.33-0.802
			c0.178-0.286,0.24-0.585,0.195-0.888c-0.039-0.308-0.223-0.666-0.551-1.078c-0.223-0.277-0.764-0.856-1.628-1.745
			c-1.107-1.14-1.778-2.111-2.016-2.915c-0.329-1.131-0.197-2.175,0.393-3.137c0.385-0.618,0.914-1.087,1.589-1.407
			c0.689-0.322,1.448-0.421,2.274-0.296c0.834,0.13,1.717,0.482,2.645,1.061c1.521,0.943,2.456,1.99,2.807,3.132
			c0.358,1.149,0.213,2.291-0.435,3.431l-2.512-1.413c0.279-0.687,0.332-1.274,0.151-1.76c-0.171-0.491-0.601-0.948-1.287-1.376
			c-0.711-0.441-1.358-0.64-1.937-0.597c-0.376,0.025-0.659,0.198-0.854,0.513c-0.176,0.287-0.208,0.606-0.093,0.962
			c0.149,0.452,0.728,1.188,1.744,2.21c1.013,1.018,1.713,1.856,2.091,2.512c0.388,0.655,0.58,1.345,0.574,2.067
			c0.007,0.722-0.232,1.466-0.702,2.236c-0.43,0.692-1.029,1.225-1.786,1.595c-0.76,0.368-1.585,0.483-2.474,0.342
			c-0.881-0.144-1.85-0.546-2.902-1.198c-1.527-0.952-2.486-2.035-2.869-3.252C343.481,263.716,343.629,262.377,344.309,260.92
			L344.309,260.92z"/>
		<path id="path792" fill="#309E3A" d="M329.83,257.04l7.416-12.196l9.008,5.52L345,252.428l-6.553-4.018l-1.646,2.703l6.099,3.738
			l-1.251,2.055l-6.099-3.737l-2.017,3.318l6.786,4.16l-1.251,2.055L329.83,257.04L329.83,257.04z"/>
		<path id="path795" fill="#309E3A" d="M308.741,239.72l1.099-2.141l5.505,2.85l-2.595,5.058c-0.804,0.243-1.816,0.302-3.039,0.173
			c-1.213-0.132-2.339-0.465-3.381-1.005c-1.324-0.685-2.334-1.556-3.034-2.621c-0.696-1.07-1.027-2.247-0.992-3.538
			c0.039-1.298,0.371-2.553,0.996-3.773c0.676-1.323,1.56-2.353,2.641-3.098c1.076-0.742,2.291-1.111,3.637-1.111
			c1.027-0.003,2.145,0.311,3.354,0.933c1.572,0.815,2.628,1.781,3.164,2.9c0.548,1.117,0.65,2.324,0.303,3.623l-2.781-0.837
			c0.142-0.716,0.059-1.382-0.253-1.994c-0.303-0.618-0.822-1.116-1.557-1.498c-1.119-0.578-2.188-0.683-3.215-0.311
			c-1.02,0.369-1.888,1.253-2.603,2.651c-0.777,1.508-1.025,2.812-0.745,3.914c0.283,1.094,0.963,1.922,2.047,2.484
			c0.534,0.275,1.123,0.448,1.764,0.517c0.651,0.067,1.244,0.05,1.787-0.052l0.826-1.612l-2.928-1.513H308.741z"/>
		<path id="path804" fill="#309E3A" d="M216.76,216.91l2.073-14.135l4.252,0.63l1.145,10.017l3.935-9.269l4.268,0.63l-2.072,14.137
			l-2.641-0.39l1.633-11.128l-4.428,10.715l-2.736-0.405l-1.155-11.539l-1.632,11.126L216.76,216.91L216.76,216.91z"/>
		<path id="path805" fill="#309E3A" d="M202.38,215.24l1.33-14.229l10.506,0.993l-0.222,2.407l-7.647-0.721l-0.296,3.155
			l7.113,0.669l-0.223,2.398l-7.115-0.671l-0.36,3.872l7.912,0.745l-0.221,2.399L202.38,215.24L202.38,215.24z"/>
		<g id="g812" transform="matrix(1.397 -.89423 .89074 1.4025 -199.05 128.1)">
			<path id="path810" fill="#309E3A" d="M154.79,154.48c0.49-0.725,1.01-1.26,1.56-1.605c0.406-0.253,0.847-0.429,1.319-0.529
				c0.476-0.098,0.928-0.103,1.356-0.016c0.57,0.112,1.145,0.364,1.724,0.755c1.048,0.71,1.666,1.602,1.853,2.676
				c0.192,1.078-0.105,2.196-0.888,3.354c-0.777,1.148-1.698,1.837-2.763,2.064c-1.062,0.225-2.117-0.016-3.16-0.723
				c-1.059-0.716-1.681-1.607-1.87-2.673C153.734,156.713,154.024,155.612,154.79,154.48L154.79,154.48z"/>
			<path id="path811" fill="#F7FFFF" d="M156.31,155.43c-0.545,0.805-0.773,1.543-0.683,2.212c0.091,0.666,0.424,1.193,0.997,1.58
				c0.572,0.387,1.182,0.499,1.824,0.336c0.649-0.165,1.252-0.66,1.811-1.485c0.551-0.815,0.783-1.545,0.696-2.189
				c-0.085-0.642-0.423-1.163-1.015-1.564c-0.592-0.4-1.207-0.519-1.846-0.357C157.458,154.122,156.863,154.611,156.31,155.43z"/>
		</g>
		<g id="g815" transform="matrix(1.383 -.91592 .91234 1.3884 -199.32 133.77)">
			<path id="path808" fill="#309E3A" d="M160.44,163.42l4.814-7.115l3.023,2.046c0.761,0.515,1.268,0.952,1.524,1.314
				c0.261,0.36,0.384,0.773,0.37,1.241c-0.014,0.467-0.163,0.91-0.448,1.331c-0.361,0.534-0.817,0.869-1.367,1.006
				c-0.548,0.134-1.164,0.035-1.851-0.297c0.188,0.391,0.31,0.764,0.363,1.116c0.058,0.354,0.07,0.924,0.039,1.71l-0.07,1.975
				l-1.718-1.162l0.009-2.251c0.006-0.802-0.012-1.321-0.051-1.555c-0.038-0.238-0.115-0.434-0.232-0.589
				c-0.115-0.157-0.337-0.348-0.668-0.571l-0.29-0.197l-2.01,2.97L160.44,163.42L160.44,163.42z"/>
			<path id="path809" fill="#FFFFFF" d="M164.66,160.29l1.063,0.719c0.689,0.467,1.139,0.729,1.35,0.787
				c0.211,0.057,0.413,0.048,0.606-0.029c0.193-0.077,0.362-0.222,0.507-0.435c0.162-0.24,0.228-0.476,0.196-0.709
				c-0.025-0.234-0.141-0.45-0.348-0.646c-0.106-0.095-0.45-0.34-1.033-0.734l-1.121-0.758L164.66,160.29L164.66,160.29z"/>
		</g>
		<g id="g818" transform="matrix(1.4175 -.86112 .85776 1.4231 -194.72 119.26)">
			<path id="path806" fill="#309E3A" d="M172.42,161.16l2.626,1.776c0.592,0.401,1.012,0.751,1.261,1.052
				c0.334,0.405,0.544,0.866,0.629,1.381c0.086,0.515,0.052,1.053-0.101,1.615c-0.152,0.558-0.452,1.17-0.903,1.836
				c-0.396,0.586-0.811,1.041-1.243,1.367c-0.529,0.397-1.065,0.644-1.613,0.741c-0.412,0.075-0.877,0.036-1.393-0.115
				c-0.385-0.114-0.843-0.351-1.374-0.71l-2.702-1.828L172.42,161.16L172.42,161.16z"/>
			<path id="path807" fill="#FFFFFF" d="M173.05,163.33l-3.188,4.713l1.073,0.725c0.4,0.272,0.706,0.445,0.914,0.52
				c0.272,0.099,0.532,0.131,0.778,0.095c0.25-0.034,0.53-0.177,0.841-0.429c0.314-0.254,0.657-0.656,1.029-1.206
				c0.372-0.55,0.609-1.005,0.712-1.366c0.102-0.36,0.121-0.681,0.058-0.965c-0.063-0.283-0.209-0.544-0.438-0.784
				c-0.17-0.181-0.548-0.47-1.134-0.866L173.05,163.33L173.05,163.33z"/>
		</g>
		<g id="g824" transform="matrix(1.5511 -.58458 .58229 1.5572 -164.55 46.058)">
			<path id="path800" fill="#309E3A" d="M200.75,190.69l4.813-7.115l2.306,1.56c0.873,0.591,1.419,1.012,1.637,1.263
				c0.335,0.382,0.519,0.846,0.551,1.391c0.034,0.542-0.141,1.096-0.525,1.662c-0.294,0.437-0.622,0.751-0.983,0.941
				c-0.359,0.191-0.72,0.288-1.082,0.294c-0.358,0.004-0.68-0.052-0.97-0.168c-0.388-0.164-0.908-0.466-1.558-0.906l-0.936-0.634
				l-1.816,2.684L200.75,190.69z"/>
			<path id="path801" fill="#FFFFFF" d="M206.19,185.75l-1.366,2.019l0.786,0.532c0.567,0.383,0.971,0.602,1.211,0.656
				c0.242,0.055,0.469,0.039,0.683-0.047c0.217-0.084,0.396-0.231,0.539-0.442c0.175-0.259,0.243-0.523,0.206-0.794
				c-0.038-0.272-0.16-0.507-0.364-0.706c-0.15-0.149-0.483-0.398-1.001-0.748L206.19,185.75L206.19,185.75z"/>
		</g>
		<g id="g827" transform="matrix(1.6028 -.42116 .41952 1.6091 -143.19 2.8883)">
			<path id="path798" fill="#309E3A" d="M207.39,195.18l4.813-7.114l3.025,2.046c0.761,0.514,1.269,0.952,1.524,1.313
				c0.261,0.361,0.384,0.774,0.37,1.241c-0.014,0.467-0.163,0.911-0.449,1.331c-0.36,0.534-0.816,0.869-1.367,1.006
				c-0.547,0.134-1.165,0.035-1.85-0.296c0.188,0.391,0.309,0.763,0.363,1.115c0.058,0.355,0.07,0.925,0.039,1.71l-0.07,1.976
				l-1.718-1.162l0.009-2.251c0.005-0.803-0.012-1.321-0.051-1.556c-0.037-0.237-0.115-0.433-0.231-0.588
				c-0.115-0.158-0.337-0.348-0.668-0.572l-0.291-0.197l-2.01,2.971L207.39,195.18L207.39,195.18z"/>
			<path id="path799" fill="#FFFFFF" d="M211.6,192.05l1.063,0.719c0.689,0.466,1.139,0.728,1.349,0.785
				c0.211,0.058,0.413,0.049,0.607-0.028c0.193-0.076,0.362-0.222,0.506-0.435c0.161-0.24,0.228-0.476,0.197-0.709
				c-0.025-0.234-0.142-0.449-0.348-0.646c-0.106-0.095-0.45-0.339-1.032-0.733l-1.121-0.759L211.6,192.05z"/>
		</g>
		<g id="g830" transform="matrix(1.5864 -.47997 .47809 1.5926 -149.72 20.414)">
			<path id="path796" fill="#309E3A" d="M216.64,196.32c0.491-0.725,1.011-1.26,1.559-1.605c0.409-0.253,0.847-0.43,1.321-0.529
				c0.476-0.098,0.928-0.103,1.355-0.017c0.571,0.112,1.145,0.364,1.724,0.756c1.049,0.709,1.666,1.601,1.854,2.676
				c0.191,1.077-0.104,2.195-0.889,3.353c-0.777,1.149-1.698,1.837-2.762,2.065c-1.062,0.225-2.116-0.017-3.161-0.724
				c-1.058-0.715-1.681-1.606-1.87-2.672C215.584,198.553,215.874,197.452,216.64,196.32z"/>
			<path id="path797" fill="#FFFFFF" d="M218.16,197.28c-0.545,0.805-0.773,1.542-0.682,2.212c0.092,0.665,0.423,1.192,0.997,1.58
				c0.573,0.387,1.18,0.499,1.824,0.335c0.649-0.164,1.253-0.659,1.811-1.484c0.552-0.816,0.784-1.545,0.696-2.19
				c-0.084-0.641-0.423-1.163-1.015-1.563c-0.592-0.401-1.207-0.52-1.845-0.357C219.309,195.972,218.714,196.461,218.16,197.28
				L218.16,197.28z"/>
		</g>
		<g id="g833" transform="matrix(1.6454 -.19485 .19409 1.6519 -103.71 -53.916)">
			<path id="path793" fill="#309E3A" d="M230.03,210.5l4.813-7.115l3.024,2.046c0.76,0.515,1.268,0.952,1.524,1.314
				c0.26,0.36,0.384,0.774,0.37,1.241s-0.164,0.91-0.448,1.331c-0.361,0.534-0.817,0.869-1.368,1.006
				c-0.547,0.134-1.163,0.035-1.849-0.297c0.188,0.391,0.309,0.764,0.363,1.116c0.057,0.355,0.07,0.924,0.039,1.71l-0.07,1.975
				l-1.717-1.162l0.008-2.25c0.005-0.804-0.011-1.322-0.051-1.556c-0.037-0.237-0.115-0.434-0.232-0.589
				c-0.114-0.157-0.337-0.348-0.667-0.571l-0.291-0.197l-2.009,2.97L230.03,210.5L230.03,210.5z"/>
			<path id="path794" fill="#FFFFFF" d="M234.24,207.36l1.063,0.719c0.689,0.467,1.139,0.728,1.35,0.786
				c0.211,0.058,0.413,0.048,0.607-0.028c0.193-0.077,0.361-0.222,0.506-0.436c0.162-0.239,0.227-0.475,0.197-0.708
				c-0.026-0.234-0.142-0.45-0.348-0.646c-0.105-0.095-0.449-0.34-1.033-0.734l-1.12-0.758L234.24,207.36z"/>
		</g>
		<g id="g836" transform="matrix(1.6568 0 0 1.6633 -60.955 -99.344)">
			<path id="path788" fill="#309E3A" d="M259.17,225.1c0.49-0.724,1.01-1.26,1.56-1.605c0.407-0.253,0.846-0.429,1.32-0.529
				c0.477-0.097,0.928-0.103,1.354-0.017c0.571,0.113,1.146,0.366,1.726,0.757c1.048,0.709,1.666,1.601,1.854,2.676
				c0.191,1.078-0.106,2.194-0.89,3.354c-0.777,1.148-1.697,1.837-2.761,2.065c-1.063,0.224-2.116-0.017-3.162-0.724
				c-1.057-0.717-1.681-1.607-1.87-2.673C258.114,227.333,258.404,226.232,259.17,225.1L259.17,225.1z"/>
			<path id="path789" fill="#FFFFFF" d="M260.69,226.05c-0.545,0.805-0.773,1.543-0.684,2.212c0.093,0.666,0.425,1.192,0.997,1.58
				c0.573,0.387,1.181,0.499,1.825,0.336c0.649-0.165,1.253-0.658,1.811-1.485c0.551-0.815,0.782-1.545,0.695-2.189
				c-0.085-0.642-0.423-1.163-1.016-1.563c-0.592-0.402-1.206-0.52-1.845-0.358C261.838,224.742,261.244,225.232,260.69,226.05
				L260.69,226.05z"/>
		</g>
		<path id="path872" fill="#309E3A" d="M241.76,219.84l2.291-10.031l7.408,1.708l-0.385,1.694l-5.389-1.241l-0.514,2.223
			l5.019,1.157l-0.388,1.688l-5.013-1.154l-0.625,2.728l5.58,1.286l-0.385,1.691L241.76,219.84L241.76,219.84z"/>
	</g>
</g>
</svg>
