<?xml version="1.0" encoding="utf-8"?>
<!-- Generator: Adobe Illustrator 16.0.0, SVG Export Plug-In . SVG Version: 6.00 Build 0)  -->
<svg version="1.2" baseProfile="tiny"
	 id="svg378" xmlns:cc="http://creativecommons.org/ns#" xmlns:dc="http://purl.org/dc/elements/1.1/" xmlns:rdf="http://www.w3.org/1999/02/22-rdf-syntax-ns#"
	 xmlns="http://www.w3.org/2000/svg" xmlns:xlink="http://www.w3.org/1999/xlink" x="0px" y="0px" width="512px" height="512px"
	 viewBox="0 0 512 512" xml:space="preserve">
<g>
	<rect x="0.001" y="1.362" fill="#FFFFFF" width="512.01" height="0.149"/>
	<path fill="#FFE900" d="M367.426,252.346l-144.965,89.453h289.55V171.724H234.688C308.395,216.458,367.426,252.346,367.426,252.346
		z"/>
	<polygon fill="#08CED6" points="512.011,512.012 512.011,341.799 222.461,341.799 0.001,479.071 0.001,512.012 	"/>
	<path fill="#08CED6" d="M234.688,171.724h277.323V1.511H0.001v28.142C57.935,64.52,154.905,123.302,234.688,171.724z"/>
	<path d="M222.461,341.799l144.965-89.453c0,0-59.031-35.888-132.738-80.622C154.905,123.302,57.935,64.52,0.001,29.653v449.418
		L222.461,341.799z"/>
</g>
</svg>
