<?xml version="1.0" encoding="utf-8"?>
<!-- Generator: Adobe Illustrator 16.0.0, SVG Export Plug-In . SVG Version: 6.00 Build 0)  -->
<svg version="1.2" baseProfile="tiny"
	 id="islenskifaninn" xmlns:cc="http://creativecommons.org/ns#" xmlns:dc="http://purl.org/dc/elements/1.1/" xmlns:rdf="http://www.w3.org/1999/02/22-rdf-syntax-ns#"
	 xmlns="http://www.w3.org/2000/svg" xmlns:xlink="http://www.w3.org/1999/xlink" x="0px" y="0px" width="512px" height="512px"
	 viewBox="0 0 512 512" xml:space="preserve">
<g>
	<polygon fill="#FFFFFF" points="252,510.33 252,322.12 512,322.12 512,288.284 221.075,288.284 221.075,510.333 156.65,510.333 
		156.65,288.284 0,288.284 0,320.01 122.785,320.01 122.785,510.34 0,510.34 0,512 512,512 512,510.33 	"/>
	<polygon fill="#FFFFFF" points="156.65,0 125.728,0 125.728,198.423 0,198.423 0,224.84 156.65,224.84 	"/>
	<polygon fill="#FFFFFF" points="512,224.84 512,198.428 249.42,198.428 249.42,0 221.075,0 221.075,224.84 	"/>
	<rect x="0" fill="#D72828" width="125.728" height="198.423"/>
	<rect x="249.42" fill="#D72828" width="262.58" height="198.428"/>
	<rect x="0" y="320.01" fill="#D72828" width="122.785" height="190.33"/>
	<rect x="252" y="322.12" fill="#D72828" width="260" height="188.21"/>
	<rect x="156.65" fill="#003897" width="64.426" height="224.84"/>
	<rect x="156.65" y="288.284" fill="#003897" width="64.426" height="222.049"/>
	<polygon fill="#003897" points="221.075,288.284 512,288.284 512,224.84 221.075,224.84 156.65,224.84 0,224.84 0,288.284 
		156.65,288.284 	"/>
</g>
</svg>
