<?xml version="1.0" encoding="utf-8"?>
<!-- Generator: Adobe Illustrator 16.0.0, SVG Export Plug-In . SVG Version: 6.00 Build 0)  -->
<svg version="1.2" baseProfile="tiny"
	 id="svg548" xmlns:cc="http://creativecommons.org/ns#" xmlns:dc="http://purl.org/dc/elements/1.1/" xmlns:rdf="http://www.w3.org/1999/02/22-rdf-syntax-ns#"
	 xmlns="http://www.w3.org/2000/svg" xmlns:xlink="http://www.w3.org/1999/xlink" x="0px" y="0px" width="512px" height="512px"
	 viewBox="0 0 512 512" xml:space="preserve">
<g>
	<polygon fill="#B20000" points="113.371,43.384 113.371,52.062 113.366,52.062 113.366,104.13 113.371,104.13 113.371,112.808 
		113.366,112.808 113.366,164.874 113.371,164.874 113.371,173.552 113.366,173.552 113.366,216.941 113.371,216.941 
		113.371,225.619 113.366,225.619 113.366,286.364 113.371,286.364 113.371,295.042 113.366,295.042 113.366,338.432 
		113.371,338.432 113.371,340.107 511.984,340.107 511.984,0 113.366,0 113.366,43.384 	"/>
	<polygon fill="#429F00" points="113.371,347.109 113.366,347.109 113.366,399.181 113.371,399.181 113.371,407.858 
		113.366,407.858 113.366,459.918 113.371,459.918 113.371,468.596 113.366,468.596 113.366,511.983 511.984,511.983 
		511.984,340.107 113.371,340.107 	"/>
	<path fill="#FFFFFF" d="M0.001,511.983h113.365v-43.388h-10.793v-8.678h10.793v-52.06h-5.399v8.67H91.772v-8.67h-5.394v-8.678
		h10.797v8.67h5.398v-8.67h10.793v-52.071H86.378v-8.678h26.988v-43.39h-10.793v-8.678h10.793v-60.745h-5.389v8.677H97.18v-8.678
		h5.394v-8.677h10.793v-43.39h-5.389v8.677H80.985v-8.678h5.394v-8.677h26.988v-52.066h-5.399v8.677H91.772v-8.677h-5.394v-8.678
		h10.797v8.677h5.398v-8.677h10.793V52.062h-10.793v-8.677H97.18v-8.678h10.798v8.677h5.389V0H86.383v8.668h-5.398V0h-21.6v8.668
		h-5.398V0h-21.6v8.668h-5.398V0H0.001v340.107V511.983z M107.967,208.263h5.398v8.678h-5.398V208.263z M32.398,355.783v-8.67
		h21.594v8.678h-5.409v8.67H10.793v-8.67H5.4v-8.678h21.594v8.67H32.398z M26.993,156.196v8.678H5.4v-8.678h5.394v-8.678h5.408
		v-8.678h5.394v-8.678h5.394v-8.678h5.398v8.678h5.404v8.678h5.404v8.678h5.387v8.678h5.409v8.678H32.398v-8.678H26.993z
		 M10.793,130.163v-8.678h5.398v8.678H10.793z M21.595,86.774v-8.678h16.196v8.678h-5.404v8.677h-5.398v-8.677H21.595z M21.59,60.74
		v8.678H10.793V60.74H5.4v-8.678h10.797v8.677H21.59z M10.793,86.773h5.398v8.678h-5.398V86.773z M21.595,95.452v8.678H5.4v-8.678
		H21.595z M16.201,78.096v-8.678h10.798v8.678H16.201z M10.793,34.707v-8.678H21.59v8.678H10.793z M26.989,52.062v-8.678h5.398
		v8.678H26.989z M80.98,69.418v8.678H70.183v-8.677h-5.394v-8.678h10.797v8.677H80.98z M70.188,95.451h-5.398v-8.678h5.398V95.451z
		 M75.576,95.452v8.678H59.38v-8.678H75.576z M70.177,60.74H59.38v-8.678h10.797V60.74z M59.385,78.096v8.678h-5.398v-8.678H59.385z
		 M64.789,104.13v8.677h5.394v-8.677H80.98v8.678h-5.403v8.677H59.38v-8.677h-5.394v8.677H37.791v-8.677h-5.394v-8.678h10.797v8.677
		h5.398v-8.677H64.789z M70.188,121.485v8.678h-5.398v-8.678H70.188z M59.385,130.163v8.678h-5.398v-8.678H59.385z M48.583,121.485
		v8.678h-5.398v-8.678H48.583z M53.987,104.129H37.791v-8.678h16.195V104.129z M43.185,95.451v-8.678h5.398v8.678H43.185z
		 M53.982,60.74h-5.394v8.677H37.791V60.74h5.394v-8.677h10.797V60.74z M43.195,69.418v8.678H32.398v-8.678H43.195z M80.98,225.618
		v8.678H70.183v-8.677h-5.394v-8.678h10.797v8.677H80.98z M97.18,260.33v8.678H80.985v-8.678h5.394v-8.678h5.398v8.678H97.18z
		 M91.777,312.394h-5.398v-8.678h5.398V312.394z M97.18,312.398v8.678H80.985v-8.678H97.18z M86.373,269.013v8.678H80.98v8.67
		H70.183v-8.679h5.393v-8.669H86.373z M26.989,277.69v-8.678h10.797v8.669h5.409v8.679H32.398v-8.67H26.989z M32.398,260.33v8.678
		H16.201v-8.678h5.394v-8.678v0h5.398v0v8.678H32.398z M32.398,312.393v8.684H16.201v-8.684h5.394v-8.677h5.398v8.677H32.398z
		 M48.59,312.397v-8.673h-5.405v-8.678h10.797v8.673h5.398v-8.673h10.797v8.678h-5.392v8.673H48.59z M59.385,312.398v8.678h-5.398
		v-8.678H59.385z M53.991,242.974v8.678h-5.398v-8.678H53.991z M53.987,234.296v-8.678h5.398v8.678H53.987z M53.987,260.33v-8.678
		h5.398v8.678h5.394v8.678H59.38v-8.678h-5.389v8.678h-5.398v-8.678H53.987z M59.385,277.682v8.679h-5.398v-8.679H59.385z
		 M64.779,251.651H59.38v-8.678h5.398V251.651z M59.38,216.941v-8.678h10.797v8.678H59.38z M64.789,190.907H48.593v-8.678h16.196
		V190.907z M53.987,190.908h5.398v8.677h5.404v8.678H48.593v-8.678h5.394V190.908z M53.982,208.263v8.678H43.185v-8.678H53.982z
		 M48.588,216.941v8.678h-5.394v8.677H32.398v-8.678h5.394v-8.677H48.588z M37.791,251.652h5.398v8.678h-5.398V251.652z
		 M37.791,286.364h10.797v8.678H37.791V286.364z M43.185,329.75h5.408v-8.67h16.196v8.67h5.389v8.678H43.185V329.75z
		 M64.789,295.042v-8.678h10.797v8.678H64.789z M75.581,260.33h-5.398v-8.678h5.398V260.33z M43.185,182.229v-8.677h-5.394v-8.678
		H75.58v8.678h-5.402v8.677H43.185z M37.786,182.229v8.678H10.793v-8.678H37.786z M16.201,190.908h16.196v8.678h-5.404v8.677h-5.398
		v-8.677h-5.394V190.908z M21.59,234.296v8.677h5.398v-8.677h10.797v8.678h-5.388v8.677H16.201v-8.677h-5.408v-8.678H21.59z
		 M21.59,269.013v8.678h-5.394v8.67H5.4v-8.679h5.394v-8.669H21.59z M37.786,321.08v8.678h-5.394v8.67H5.4v-8.678h5.394v-8.67
		H37.786z M70.188,381.816v8.678h-5.398v-8.678H70.188z M70.183,373.143v-8.678h26.993v8.678H70.183z M75.576,390.498v8.679H59.38
		v-8.679H75.576z M37.791,451.244v-8.678h10.797v8.669h5.394v8.678H43.185v-8.669H37.791z M21.59,442.566v8.678h-5.394v8.669H5.4
		v-8.678h5.394v-8.669H21.59z M10.793,425.21v-8.678h5.398v8.678H10.793z M16.201,442.562v-8.678h10.798v8.678H16.201z
		 M26.989,459.918h5.398v8.678h-5.398V459.918z M21.595,433.88v-8.678h5.394v-8.67h5.398v8.67h5.404v8.678H21.595z M21.595,381.824
		v-8.678h16.196v8.678h-5.404v8.67h-5.398v-8.67H21.595z M21.595,390.498v8.679H5.4v-8.679H21.595z M10.793,390.494v-8.678h5.398
		v8.678H10.793z M16.201,373.143v-8.678h26.994v8.678H16.201z M48.583,390.494h-5.398v-8.678h5.398V390.494z M53.987,390.498v8.679
		H37.791v-8.679H53.987z M32.398,433.884h10.797v8.678H32.398V433.884z M43.185,425.21v-8.678h5.398v8.678H43.185z M48.593,459.918
		h16.196v8.678H48.593V459.918z M59.38,459.913v-8.678h5.409v-8.669h10.797v8.678h-5.409v8.669H59.38z M53.987,433.88v-8.678h5.398
		v8.678H53.987z M70.183,442.562v-8.678H80.98v8.678H70.183z M70.188,425.21h-5.398v-8.678h5.398V425.21z M59.38,416.528v-8.67
		h-5.394v8.67H37.791v-8.67h-5.394v-8.678h10.797v8.67h5.398v-8.67h16.196v8.67h5.394v-8.67H80.98v8.678h-5.403v8.67H59.38z
		 M59.385,381.824h-5.398v-8.678h5.398V381.824z M5.405,373.146v8.678H0.006v-8.678H5.405z M10.803,399.181v8.67h5.398v-8.67h10.798
		v8.678h-5.404v8.67H5.4v-8.67H0.006v-8.678H10.803z M5.405,425.202v8.678H0.006v-8.678H5.405z M10.803,459.918v8.678H0.006v-8.678
		H10.803z M10.798,503.311H5.4v-8.678h5.398V503.311z M10.793,485.955v-8.678H5.4V468.6h10.797v8.678h5.394v8.674h5.409v8.678
		H16.201v-8.674H10.793z M37.791,503.311h-5.404v8.67h-5.398v-8.67h-5.394v-8.678h16.196V503.311z M43.195,494.629H32.398v-8.678
		h10.797V494.629z M53.982,477.277h-5.394v8.67H37.791v-8.678h5.394v-8.67h10.797V477.277z M59.385,511.98h-5.398v-8.678h5.398
		V511.98z M59.38,477.277V468.6h10.797v8.67h5.409v8.678H64.789v-8.67H59.38z M70.183,485.951H80.98v8.678H70.183V485.951z
		 M91.772,503.311h-5.389v8.67h-5.398v-8.67h-5.409v-8.678h16.196V503.311z M97.175,494.629H86.378v-8.678h10.797V494.629z
		 M80.985,468.596v-8.678h5.398v8.678H80.985z M107.972,503.311h-5.398v-8.678h5.398V503.311z M107.978,468.6v8.678h-5.409v8.67
		H91.772v-8.678h5.408v-8.67H107.978z M107.978,459.913H97.18v-8.669h-5.408v-8.678h10.797v8.669h5.409V459.913z M107.967,425.202
		h5.398v8.678h-5.398V425.202z M97.18,416.532h5.399v8.678H97.18V416.532z M97.175,433.884v8.678H86.378v-8.678H97.175z
		 M86.383,416.532v8.67h5.389v8.678H75.575v-8.678h5.409v-8.67H86.383z M80.985,390.494v-8.67h-5.409v-8.678h16.196v8.678h-5.389
		v8.67H80.985z M107.967,399.177H91.772v-8.679h16.195V399.177z M97.18,390.494v-8.678h5.399v8.678H97.18z M113.365,381.824h-5.398
		v-8.678h5.398V381.824z M107.972,347.113v8.678h-5.394v8.67H64.789v-8.67H59.38v-8.678h21.594v8.67h5.404v-8.67H107.972z
		 M75.58,347.109H37.791v-8.678H75.58V347.109z M107.967,295.047h5.398v8.678h-5.398V295.047z M107.978,329.75v8.678H80.985v-8.67
		h-5.409v-8.678h26.994v8.67H107.978z M107.978,286.36H97.18v-8.67h-5.408v-8.678h10.797v8.669h5.409V286.36z M107.967,251.652
		h5.398v8.678h-5.398V251.652z M102.569,234.296v8.678H97.18v8.677H80.985v-8.677h-5.409v-8.678h10.798v8.677h5.398v-8.677H102.569z
		 M97.18,199.585h-5.403v8.677h-5.398v-8.677h-5.394v-8.678H97.18V199.585z M102.57,182.229v8.678H75.575v-8.678H102.57z
		 M107.967,130.163h5.398v8.678h-5.398V130.163z M97.18,121.485h5.399v8.678H97.18V121.485z M86.383,121.485v8.678h5.389v8.678
		h5.404v8.678h5.402v8.678h5.394v8.678H86.378v-8.678h-5.404v8.678H59.38v-8.678h5.409v-8.678h5.394v-8.678h5.393v-8.678h5.409
		v-8.678H86.383z M80.985,95.451v-8.677h-5.409v-8.678h16.196v8.678h-5.389v8.677H80.985z M86.383,52.062h-5.398v-8.678h5.398
		V52.062z M97.175,69.418v8.678H86.378v-8.678H97.175z M107.967,104.129H91.772v-8.678h16.195V104.129z M97.18,95.451v-8.678h5.399
		v8.678H97.18z M113.365,86.774h-5.398v-8.678h5.398V86.774z M107.978,52.062v8.678h-5.409v8.677H91.772V60.74h5.408v-8.677H107.978
		z M102.573,8.672h5.398v8.678h-5.398V8.672z M102.569,34.707H91.772v-8.678h10.797V34.707z M97.175,26.028H86.378v-8.678h10.797
		V26.028z M75.575,8.672h16.196v8.678H75.575V8.672z M70.183,17.351H80.98v8.678H70.183V17.351z M64.789,26.029h10.797v8.678H64.789
		V26.029z M59.38,43.384v-8.677h10.797v8.678h-5.388v8.677H48.593v-8.677h-5.408v-8.678h10.797v8.677H59.38z M48.588,34.707H37.791
		v-8.678h10.797V34.707z M43.195,26.028H32.398v-8.678h10.797V26.028z M21.595,8.672h16.196v8.678H21.595V8.672z M16.201,17.351
		h10.798v8.678H16.201V17.351z M5.4,8.672h5.398v8.678H5.4V8.672z M0.006,43.384H5.4v-8.677h10.797v8.678h-5.394v8.677H0.006V43.384
		z M0.006,78.096h5.398v8.678H0.006V78.096z M0.006,104.13h10.797v8.677h5.398v-8.677h10.798v8.678h-5.404v8.677H5.4v-8.677H0.006
		V104.13z M0.006,130.163h5.398v8.678H0.006V130.163z M0.006,164.874h26.993v8.677h5.394v8.678H5.4v-8.677H0.006V164.874z
		 M0.006,208.263h5.398v8.678H0.006V208.263z M0.006,216.941h10.797v8.677h5.394v8.678H5.4v-8.677H0.006V216.941z M0.006,251.652
		h5.398v8.678H0.006V251.652z M0.006,286.364h10.797v8.678H0.006V286.364z M0.006,295.047h5.398v8.678H0.006V295.047z
		 M0.006,338.432h26.993v8.678H0.006V338.432z"/>
	<rect x="5.4" y="8.672" fill="#B20000" width="5.398" height="8.678"/>
	<rect x="21.595" y="8.672" fill="#B20000" width="16.196" height="8.678"/>
	<rect x="26.989" fill="#B20000" width="5.398" height="8.668"/>
	<rect x="53.987" fill="#B20000" width="5.398" height="8.668"/>
	<rect x="75.575" y="8.672" fill="#B20000" width="16.196" height="8.678"/>
	<rect x="80.985" fill="#B20000" width="5.398" height="8.668"/>
	<rect x="16.201" y="17.351" fill="#B20000" width="10.798" height="8.678"/>
	<rect x="32.398" y="17.351" fill="#B20000" width="10.797" height="8.678"/>
	<rect x="70.183" y="17.351" fill="#B20000" width="10.797" height="8.678"/>
	<rect x="86.378" y="17.351" fill="#B20000" width="10.797" height="8.678"/>
	<rect x="10.793" y="26.029" fill="#B20000" width="10.797" height="8.678"/>
	<rect x="37.791" y="26.029" fill="#B20000" width="10.797" height="8.678"/>
	<rect x="64.789" y="26.029" fill="#B20000" width="10.797" height="8.678"/>
	<rect x="91.772" y="26.029" fill="#B20000" width="10.797" height="8.678"/>
	<rect x="102.573" y="8.672" fill="#B20000" width="5.398" height="8.678"/>
	<polygon fill="#B20000" points="10.803,43.385 16.197,43.385 16.197,34.707 5.4,34.707 5.4,43.384 10.803,43.384 	"/>
	<polygon fill="#B20000" points="43.185,34.707 43.185,43.385 48.593,43.385 48.593,43.384 53.982,43.384 53.982,34.707 	"/>
	<polygon fill="#B20000" points="107.978,43.384 107.978,34.707 97.18,34.707 97.18,43.385 102.573,43.385 102.573,43.384 	"/>
	<polygon fill="#B20000" points="10.793,60.74 10.793,69.417 21.59,69.417 21.59,60.74 16.197,60.74 16.197,60.74 	"/>
	<rect x="16.201" y="69.418" fill="#B20000" width="10.798" height="8.678"/>
	<polygon fill="#B20000" points="43.185,60.74 37.791,60.74 37.791,69.417 48.588,69.417 48.588,60.74 43.185,60.74 	"/>
	<rect x="32.398" y="69.418" fill="#B20000" width="10.797" height="8.678"/>
	<polygon fill="#B20000" points="32.387,86.773 32.387,86.774 37.791,86.774 37.791,78.096 21.595,78.096 21.595,86.774 
		26.989,86.774 26.989,86.773 	"/>
	<polygon fill="#B20000" points="32.387,95.451 32.387,86.774 32.387,86.773 26.989,86.773 26.989,86.774 26.989,95.451 	"/>
	<polygon fill="#B20000" points="64.789,60.741 64.789,69.418 70.183,69.418 70.183,69.418 75.586,69.418 75.586,60.741 	"/>
	<polygon fill="#B20000" points="70.183,69.418 70.183,78.096 80.98,78.096 80.98,69.418 75.586,69.418 70.183,69.418 	"/>
	<polygon fill="#B20000" points="97.18,60.74 91.772,60.74 91.772,69.417 102.569,69.417 102.569,60.74 97.18,60.74 	"/>
	<rect x="86.378" y="69.418" fill="#B20000" width="10.797" height="8.678"/>
	<polygon fill="#B20000" points="86.383,86.773 86.383,86.774 91.772,86.774 91.772,78.096 75.575,78.096 75.575,86.774 
		80.985,86.774 80.985,86.773 	"/>
	<polygon fill="#B20000" points="86.383,86.773 80.985,86.773 80.985,86.774 80.985,95.451 86.383,95.451 86.383,86.774 	"/>
	<rect x="53.987" y="78.096" fill="#B20000" width="5.398" height="8.678"/>
	<rect x="0.006" y="78.096" fill="#B20000" width="5.398" height="8.678"/>
	<rect x="107.967" y="78.096" fill="#B20000" width="5.398" height="8.678"/>
	<rect x="26.989" y="121.485" fill="#B20000" width="5.398" height="8.678"/>
	<polygon fill="#B20000" points="37.791,130.163 32.387,130.163 26.989,130.163 21.595,130.163 21.595,138.84 37.791,138.84 	"/>
	<polygon fill="#B20000" points="43.196,138.84 37.791,138.84 21.595,138.84 16.201,138.84 16.201,147.518 43.196,147.518 	"/>
	<rect x="80.985" y="121.485" fill="#B20000" width="5.398" height="8.678"/>
	<polygon fill="#B20000" points="75.575,130.163 75.575,138.84 91.772,138.84 91.772,130.163 86.383,130.163 80.985,130.163 	"/>
	<polygon fill="#B20000" points="70.183,138.84 70.183,147.518 97.176,147.518 97.176,138.84 91.772,138.84 75.575,138.84 	"/>
	<rect x="75.575" y="182.229" fill="#B20000" width="26.994" height="8.678"/>
	<polygon fill="#B20000" points="64.789,147.518 64.789,156.196 80.974,156.196 86.378,156.196 102.578,156.196 102.578,147.518 
		97.176,147.518 70.183,147.518 	"/>
	<polygon fill="#B20000" points="48.582,147.518 43.196,147.518 16.201,147.518 10.793,147.518 10.793,156.196 26.993,156.196 
		32.398,156.196 48.582,156.196 	"/>
	<polygon fill="#B20000" points="21.595,199.584 26.993,199.584 26.993,199.585 32.398,199.585 32.398,190.908 16.201,190.908 
		16.201,199.585 21.595,199.585 	"/>
	<rect x="10.793" y="182.229" fill="#B20000" width="26.993" height="8.678"/>
	<polygon fill="#B20000" points="113.371,164.874 113.366,164.874 86.378,164.874 86.378,173.551 107.978,173.551 107.978,173.552 
		113.366,173.552 113.371,173.552 	"/>
	<polygon fill="#B20000" points="80.985,199.585 86.378,199.585 86.378,199.584 91.777,199.584 91.777,199.585 97.18,199.585 
		97.18,190.908 80.985,190.908 	"/>
	<polygon fill="#B20000" points="21.595,199.584 21.595,199.585 21.595,208.263 26.993,208.263 26.993,199.585 26.993,199.584 	"/>
	<polygon fill="#B20000" points="86.378,199.584 86.378,199.585 86.378,208.263 91.777,208.263 91.777,199.585 91.777,199.584 	"/>
	<polygon fill="#B20000" points="5.4,173.551 26.999,173.551 26.999,164.874 0.006,164.874 0.006,173.552 5.4,173.552 	"/>
	<rect x="48.593" y="182.229" fill="#B20000" width="16.196" height="8.678"/>
	<rect x="53.987" y="190.908" fill="#B20000" width="5.398" height="8.677"/>
	<polygon fill="#B20000" points="70.178,173.551 70.178,173.552 75.58,173.552 75.58,164.874 37.791,164.874 37.791,173.552 
		43.185,173.552 43.185,173.551 	"/>
	<polygon fill="#B20000" points="64.789,43.385 70.177,43.385 70.177,34.707 59.38,34.707 59.38,43.384 64.789,43.384 	"/>
	<polygon fill="#B20000" points="48.593,43.385 48.593,52.062 64.789,52.062 64.789,43.385 64.789,43.384 59.38,43.384 
		53.982,43.384 48.593,43.384 	"/>
	<polygon fill="#B20000" points="43.185,60.74 43.185,60.74 48.588,60.74 53.982,60.74 53.982,52.062 43.185,52.062 	"/>
	<rect x="59.38" y="52.062" fill="#B20000" width="10.797" height="8.678"/>
	<polygon fill="#B20000" points="10.803,43.385 10.803,43.384 5.4,43.384 0.006,43.384 0.006,52.062 10.803,52.062 	"/>
	<polygon fill="#B20000" points="5.4,52.062 5.4,60.74 10.793,60.74 16.197,60.74 16.197,60.74 16.197,52.062 	"/>
	<polygon fill="#B20000" points="113.371,43.384 113.366,43.384 107.978,43.384 102.573,43.384 102.573,43.385 102.573,52.062 
		113.366,52.062 113.371,52.062 	"/>
	<polygon fill="#B20000" points="97.18,60.74 97.18,60.74 102.569,60.74 107.978,60.74 107.978,52.062 97.18,52.062 	"/>
	<rect x="0.006" y="130.163" fill="#B20000" width="5.398" height="8.678"/>
	<rect x="107.967" y="130.163" fill="#B20000" width="5.398" height="8.678"/>
	<polygon fill="#B20000" points="48.593,208.263 64.789,208.263 64.789,199.584 59.385,199.584 53.987,199.584 48.593,199.584 	"/>
	<rect x="43.185" y="208.263" fill="#B20000" width="10.797" height="8.678"/>
	<rect x="59.38" y="208.263" fill="#B20000" width="10.797" height="8.678"/>
	<polygon fill="#B20000" points="37.791,225.618 43.195,225.618 43.195,225.619 48.588,225.619 48.588,216.941 37.791,216.941 	"/>
	<polygon fill="#B20000" points="64.789,216.941 64.789,225.619 70.183,225.619 70.183,225.618 75.586,225.618 75.586,216.941 	"/>
	<polygon fill="#B20000" points="37.791,225.618 32.398,225.618 32.398,234.296 43.195,234.296 43.195,225.619 43.195,225.618 	"/>
	<polygon fill="#B20000" points="70.183,225.619 70.183,234.296 80.98,234.296 80.98,225.618 75.586,225.618 70.183,225.618 	"/>
	<polygon fill="#B20000" points="32.398,242.975 37.785,242.975 37.785,234.296 26.989,234.296 26.989,242.974 32.398,242.974 	"/>
	<polygon fill="#B20000" points="86.373,242.974 86.373,234.296 75.575,234.296 75.575,242.975 80.985,242.975 80.985,242.974 	"/>
	<polygon fill="#B20000" points="16.201,242.975 16.201,251.651 32.398,251.651 32.398,242.975 32.398,242.974 26.989,242.974 
		21.59,242.974 21.59,242.975 	"/>
	<polygon fill="#B20000" points="91.772,242.974 86.373,242.974 80.985,242.974 80.985,242.975 80.985,251.651 97.18,251.651 
		97.18,242.975 91.772,242.975 	"/>
	<polygon fill="#B20000" points="91.772,242.974 91.772,242.975 97.18,242.975 102.569,242.975 102.569,234.296 91.772,234.296 	"/>
	<polygon fill="#B20000" points="102.573,225.618 97.18,225.618 97.18,234.296 107.978,234.296 107.978,225.619 102.573,225.619 	
		"/>
	<polygon fill="#B20000" points="113.371,216.941 113.366,216.941 102.573,216.941 102.573,225.618 102.573,225.619 
		107.978,225.619 113.366,225.619 113.371,225.619 	"/>
	<polygon fill="#B20000" points="10.793,242.975 16.201,242.975 21.59,242.975 21.59,242.974 21.59,234.296 10.793,234.296 	"/>
	<polygon fill="#B20000" points="5.4,225.619 5.4,234.296 16.197,234.296 16.197,225.618 10.803,225.618 10.803,225.619 	"/>
	<polygon fill="#B20000" points="10.803,225.619 10.803,225.618 10.803,216.941 0.006,216.941 0.006,225.619 5.4,225.619 	"/>
	<rect x="21.595" y="251.652" fill="#B20000" width="5.398" height="0"/>
	<rect x="86.378" y="251.652" fill="#B20000" width="5.398" height="8.678"/>
	<rect x="53.987" y="225.618" fill="#B20000" width="5.398" height="8.678"/>
	<rect x="37.791" y="251.652" fill="#B20000" width="5.398" height="8.678"/>
	<rect x="70.183" y="251.652" fill="#B20000" width="5.398" height="8.678"/>
	<polygon fill="#B20000" points="59.38,260.33 59.385,260.33 59.385,251.652 53.987,251.652 53.987,260.33 53.991,260.33 	"/>
	<rect x="0.006" y="251.652" fill="#B20000" width="5.398" height="8.678"/>
	<rect x="107.967" y="251.652" fill="#B20000" width="5.398" height="8.678"/>
	<rect x="53.987" y="130.163" fill="#B20000" width="5.398" height="8.678"/>
	<rect x="26.989" y="43.384" fill="#B20000" width="5.398" height="8.678"/>
	<rect x="80.985" y="43.384" fill="#B20000" width="5.398" height="8.678"/>
	<polygon fill="#B20000" points="48.593,112.807 53.987,112.807 53.987,112.808 59.38,112.808 59.38,112.807 64.789,112.807 
		64.789,104.13 48.593,104.13 	"/>
	<polygon fill="#B20000" points="48.593,112.807 43.195,112.807 43.195,112.808 37.791,112.808 37.791,121.484 53.987,121.484 
		53.987,112.808 53.987,112.807 	"/>
	<rect x="43.185" y="121.485" fill="#B20000" width="5.398" height="8.678"/>
	<polygon fill="#B20000" points="43.195,112.807 43.195,104.13 32.398,104.13 32.398,112.808 37.791,112.808 43.195,112.808 	"/>
	<rect x="37.791" y="95.452" fill="#B20000" width="16.195" height="8.678"/>
	<rect x="43.185" y="86.773" fill="#B20000" width="5.398" height="8.678"/>
	<rect x="59.38" y="95.452" fill="#B20000" width="16.196" height="8.678"/>
	<rect x="64.789" y="86.773" fill="#B20000" width="5.398" height="8.678"/>
	<polygon fill="#B20000" points="75.576,112.808 80.98,112.808 80.98,104.13 70.183,104.13 70.183,112.807 75.576,112.807 	"/>
	<polygon fill="#B20000" points="59.38,112.808 59.38,121.484 75.576,121.484 75.576,112.808 75.576,112.807 70.183,112.807 
		64.789,112.807 59.38,112.807 	"/>
	<rect x="64.789" y="121.485" fill="#B20000" width="5.398" height="8.678"/>
	<polygon fill="#B20000" points="97.175,112.807 97.175,104.13 86.378,104.13 86.378,112.808 91.772,112.808 91.772,112.807 	"/>
	<rect x="91.772" y="95.452" fill="#B20000" width="16.195" height="8.678"/>
	<polygon fill="#B20000" points="113.371,104.13 113.366,104.13 102.573,104.13 102.573,112.807 107.967,112.807 107.967,112.808 
		113.366,112.808 113.371,112.808 	"/>
	<polygon fill="#B20000" points="102.573,112.807 97.175,112.807 91.772,112.807 91.772,112.808 91.772,121.484 107.967,121.484 
		107.967,112.808 107.967,112.807 	"/>
	<rect x="97.18" y="121.485" fill="#B20000" width="5.399" height="8.678"/>
	<rect x="97.18" y="86.773" fill="#B20000" width="5.399" height="8.678"/>
	<polygon fill="#B20000" points="5.4,112.807 10.803,112.807 10.803,104.13 0.006,104.13 0.006,112.808 5.4,112.808 	"/>
	<rect x="5.4" y="95.452" fill="#B20000" width="16.195" height="8.678"/>
	<polygon fill="#B20000" points="21.595,112.808 26.999,112.808 26.999,104.13 16.201,104.13 16.201,112.807 21.595,112.807 	"/>
	<polygon fill="#B20000" points="5.4,112.808 5.4,121.484 21.595,121.484 21.595,112.808 21.595,112.807 16.201,112.807 
		10.803,112.807 5.4,112.807 	"/>
	<rect x="10.793" y="121.485" fill="#B20000" width="5.398" height="8.678"/>
	<rect x="10.793" y="86.773" fill="#B20000" width="5.398" height="8.678"/>
	<polygon fill="#B20000" points="5.4,156.196 5.4,164.874 26.993,164.874 26.993,156.196 10.793,156.196 	"/>
	<polygon fill="#B20000" points="53.991,164.874 53.991,156.196 48.582,156.196 32.398,156.196 32.398,164.874 	"/>
	<polygon fill="#B20000" points="59.38,156.196 59.38,164.874 80.974,164.874 80.974,156.196 64.789,156.196 	"/>
	<polygon fill="#B20000" points="86.378,164.874 107.972,164.874 107.972,156.196 102.578,156.196 86.378,156.196 	"/>
	<polygon fill="#B20000" points="70.178,173.551 43.185,173.551 43.185,173.552 43.185,182.229 70.178,182.229 70.178,173.552 	"/>
	<polygon fill="#B20000" points="5.4,173.552 5.4,182.229 32.393,182.229 32.393,173.551 26.999,173.551 5.4,173.551 	"/>
	<polygon fill="#B20000" points="86.378,173.551 80.985,173.551 80.985,182.229 107.978,182.229 107.978,173.552 107.978,173.551 	
		"/>
	<rect x="107.967" y="208.263" fill="#B20000" width="5.398" height="8.678"/>
	<rect x="0.006" y="208.263" fill="#B20000" width="5.398" height="8.678"/>
	<rect x="5.4" y="494.633" fill="#B20000" width="5.398" height="8.678"/>
	<polygon fill="#B20000" points="21.595,503.311 26.989,503.311 26.989,503.303 32.387,503.303 32.387,503.311 37.791,503.311 
		37.791,494.633 21.595,494.633 	"/>
	<polygon fill="#B20000" points="26.989,503.303 26.989,503.311 26.989,511.98 32.387,511.98 32.387,503.311 32.387,503.303 	"/>
	<rect x="53.987" y="503.303" fill="#B20000" width="5.398" height="8.678"/>
	<polygon fill="#B20000" points="75.575,503.311 80.985,503.311 80.985,503.303 86.383,503.303 86.383,503.311 91.772,503.311 
		91.772,494.633 75.575,494.633 	"/>
	<polygon fill="#B20000" points="80.985,503.303 80.985,503.311 80.985,511.98 86.383,511.98 86.383,503.311 86.383,503.303 	"/>
	<polygon fill="#B20000" points="26.999,494.629 26.999,485.951 21.59,485.951 21.59,485.955 16.201,485.955 16.201,494.629 	"/>
	<rect x="32.398" y="485.951" fill="#B20000" width="10.797" height="8.678"/>
	<rect x="70.183" y="485.951" fill="#B20000" width="10.797" height="8.678"/>
	<rect x="86.378" y="485.951" fill="#B20000" width="10.797" height="8.678"/>
	<polygon fill="#B20000" points="43.185,477.27 37.791,477.27 37.791,485.947 48.588,485.947 48.588,477.277 43.185,477.277 	"/>
	<polygon fill="#B20000" points="75.586,485.947 75.586,477.27 70.177,477.27 70.177,477.277 64.789,477.277 64.789,485.947 	"/>
	<polygon fill="#B20000" points="97.18,477.27 91.772,477.27 91.772,485.947 102.569,485.947 102.569,477.277 97.18,477.277 	"/>
	<rect x="102.573" y="494.633" fill="#B20000" width="5.398" height="8.678"/>
	<polygon fill="#B20000" points="16.197,468.6 5.4,468.6 5.4,477.277 10.793,477.277 16.197,477.277 	"/>
	<polygon fill="#B20000" points="43.185,477.27 43.185,477.277 48.588,477.277 53.982,477.277 53.982,468.6 43.185,468.6 	"/>
	<polygon fill="#B20000" points="97.18,477.27 97.18,477.277 102.569,477.277 107.978,477.277 107.978,468.6 97.18,468.6 	"/>
	<polygon fill="#B20000" points="10.793,451.235 16.197,451.235 16.197,451.244 21.59,451.244 21.59,442.566 10.793,442.566 	"/>
	<rect x="16.201" y="433.884" fill="#B20000" width="10.798" height="8.678"/>
	<polygon fill="#B20000" points="48.588,451.235 48.588,442.566 37.791,442.566 37.791,451.244 43.185,451.244 43.185,451.235 	"/>
	<rect x="32.398" y="433.884" fill="#B20000" width="10.797" height="8.678"/>
	<polygon fill="#B20000" points="37.791,425.202 32.387,425.202 32.387,425.21 26.989,425.21 26.989,425.202 21.595,425.202 
		21.595,433.88 37.791,433.88 	"/>
	<polygon fill="#B20000" points="32.387,425.21 32.387,425.202 32.387,416.532 26.989,416.532 26.989,425.202 26.989,425.21 	"/>
	<polygon fill="#B20000" points="70.177,451.244 75.586,451.244 75.586,442.566 64.789,442.566 64.789,451.235 70.177,451.235 	"/>
	<rect x="70.183" y="433.884" fill="#B20000" width="10.797" height="8.678"/>
	<polygon fill="#B20000" points="102.569,451.235 102.569,442.566 91.772,442.566 91.772,451.244 97.18,451.244 97.18,451.235 	"/>
	<rect x="86.378" y="433.884" fill="#B20000" width="10.797" height="8.678"/>
	<polygon fill="#B20000" points="80.985,425.21 80.985,425.202 75.575,425.202 75.575,433.88 91.772,433.88 91.772,425.202 
		86.383,425.202 86.383,425.21 	"/>
	<polygon fill="#B20000" points="80.985,425.202 80.985,425.21 86.383,425.21 86.383,425.202 86.383,416.532 80.985,416.532 	"/>
	<rect x="53.987" y="425.202" fill="#B20000" width="5.398" height="8.678"/>
	<rect x="0.006" y="425.202" fill="#B20000" width="5.398" height="8.678"/>
	<rect x="107.967" y="425.202" fill="#B20000" width="5.398" height="8.678"/>
	<rect x="26.989" y="381.824" fill="#B20000" width="5.398" height="8.67"/>
	<polygon fill="#B20000" points="37.791,381.824 37.791,373.146 21.595,373.146 21.595,381.824 26.989,381.824 32.387,381.824 	"/>
	<rect x="16.201" y="364.465" fill="#B20000" width="26.994" height="8.678"/>
	<rect x="80.985" y="381.824" fill="#B20000" width="5.398" height="8.67"/>
	<polygon fill="#B20000" points="91.772,381.824 91.772,373.146 75.575,373.146 75.575,381.824 80.985,381.824 86.383,381.824 	"/>
	<rect x="70.183" y="364.465" fill="#B20000" width="26.993" height="8.678"/>
	<polygon fill="#B20000" points="102.57,329.75 102.57,321.08 75.575,321.08 75.575,329.758 80.985,329.758 80.985,329.75 	"/>
	<polygon fill="#B20000" points="86.378,355.783 80.974,355.783 80.974,355.791 64.789,355.791 64.789,364.461 102.578,364.461 
		102.578,355.791 86.378,355.791 	"/>
	<polygon fill="#B20000" points="10.793,355.791 10.793,364.461 48.582,364.461 48.582,355.791 32.398,355.791 32.398,355.783 
		26.993,355.783 26.993,355.791 	"/>
	<polygon fill="#B20000" points="21.595,312.394 21.595,312.393 16.201,312.393 16.201,321.076 32.398,321.076 32.398,312.393 
		26.993,312.393 26.993,312.394 	"/>
	<polygon fill="#B20000" points="10.793,329.75 32.393,329.75 32.393,329.758 37.786,329.758 37.786,321.08 10.793,321.08 	"/>
	<polygon fill="#B20000" points="113.371,340.107 113.371,338.432 113.366,338.432 86.378,338.432 86.378,347.109 113.366,347.109 
		113.371,347.109 	"/>
	<rect x="80.985" y="312.398" fill="#B20000" width="16.195" height="8.678"/>
	<rect x="0.006" y="338.432" fill="#B20000" width="26.993" height="8.678"/>
	<rect x="48.593" y="321.08" fill="#B20000" width="16.196" height="8.67"/>
	<rect x="53.987" y="312.398" fill="#B20000" width="5.398" height="8.678"/>
	<rect x="37.791" y="338.432" fill="#B20000" width="37.789" height="8.678"/>
	<polygon fill="#B20000" points="70.177,477.27 70.177,468.6 59.38,468.6 59.38,477.277 64.789,477.277 70.177,477.277 	"/>
	<rect x="48.593" y="459.918" fill="#B20000" width="16.196" height="8.678"/>
	<polygon fill="#B20000" points="53.982,459.913 53.982,451.235 48.588,451.235 43.185,451.235 43.185,451.244 43.185,459.913 	"/>
	<polygon fill="#B20000" points="70.177,451.244 70.177,451.235 64.789,451.235 59.38,451.235 59.38,459.913 70.177,459.913 	"/>
	<rect x="0.006" y="459.918" fill="#B20000" width="10.797" height="8.678"/>
	<polygon fill="#B20000" points="10.793,451.235 5.4,451.235 5.4,459.913 16.197,459.913 16.197,451.244 16.197,451.235 	"/>
	<polygon fill="#B20000" points="113.371,459.918 113.366,459.918 102.573,459.918 102.573,468.596 113.366,468.596 
		113.371,468.596 	"/>
	<polygon fill="#B20000" points="97.18,451.235 97.18,451.244 97.18,459.913 107.978,459.913 107.978,451.235 102.569,451.235 	"/>
	<rect x="0.006" y="373.146" fill="#B20000" width="5.398" height="8.678"/>
	<rect x="107.967" y="373.146" fill="#B20000" width="5.398" height="8.678"/>
	<polygon fill="#B20000" points="53.982,303.72 53.982,295.047 43.185,295.047 43.185,303.725 48.59,303.725 48.59,303.72 	"/>
	<polygon fill="#B20000" points="64.785,303.725 70.177,303.725 70.177,295.047 59.38,295.047 59.38,303.72 64.785,303.72 	"/>
	<rect x="37.791" y="286.364" fill="#B20000" width="10.797" height="8.678"/>
	<rect x="64.789" y="286.364" fill="#B20000" width="10.797" height="8.678"/>
	<polygon fill="#B20000" points="43.195,286.36 43.195,277.682 37.785,277.682 37.785,277.69 32.398,277.69 32.398,286.36 	"/>
	<polygon fill="#B20000" points="75.575,277.682 70.183,277.682 70.183,286.36 80.98,286.36 80.98,277.69 75.575,277.69 	"/>
	<polygon fill="#B20000" points="37.785,277.682 37.785,269.013 26.989,269.013 26.989,277.69 32.398,277.69 37.785,277.69 	"/>
	<polygon fill="#B20000" points="75.575,277.682 75.575,277.69 80.98,277.69 86.373,277.69 86.373,269.013 75.575,269.013 	"/>
	<polygon fill="#B20000" points="16.201,260.33 16.201,269.008 32.398,269.008 32.398,260.33 26.993,260.33 21.595,260.33 	"/>
	<polygon fill="#B20000" points="80.985,260.33 80.985,269.008 97.18,269.008 97.18,260.33 91.777,260.33 86.378,260.33 	"/>
	<polygon fill="#B20000" points="102.569,277.682 102.569,269.013 91.772,269.013 91.772,277.69 97.18,277.69 97.18,277.682 	"/>
	<polygon fill="#B20000" points="97.18,277.682 97.18,277.69 97.18,286.36 107.978,286.36 107.978,277.682 102.569,277.682 	"/>
	<polygon fill="#B20000" points="113.371,286.364 113.366,286.364 102.573,286.364 102.573,295.042 113.366,295.042 
		113.371,295.042 	"/>
	<polygon fill="#B20000" points="10.793,277.682 16.197,277.682 16.197,277.69 21.59,277.69 21.59,269.013 10.793,269.013 	"/>
	<polygon fill="#B20000" points="10.793,277.682 5.4,277.682 5.4,286.36 16.197,286.36 16.197,277.69 16.197,277.682 	"/>
	<rect x="0.006" y="286.364" fill="#B20000" width="10.797" height="8.678"/>
	<rect x="21.595" y="251.652" fill="#B20000" width="5.398" height="8.678"/>
	<rect x="53.987" y="277.682" fill="#B20000" width="5.398" height="8.679"/>
	<rect x="53.987" y="373.146" fill="#B20000" width="5.398" height="8.678"/>
	<rect x="26.989" y="459.918" fill="#B20000" width="5.398" height="8.678"/>
	<rect x="80.985" y="459.918" fill="#B20000" width="5.398" height="8.678"/>
	<polygon fill="#B20000" points="64.789,407.851 64.789,399.181 48.593,399.181 48.593,407.851 53.987,407.851 53.987,407.858 
		59.38,407.858 59.38,407.851 	"/>
	<rect x="37.791" y="390.498" fill="#B20000" width="16.195" height="8.679"/>
	<rect x="43.185" y="381.816" fill="#B20000" width="5.398" height="8.678"/>
	<polygon fill="#B20000" points="43.195,407.851 43.195,399.181 32.398,399.181 32.398,407.858 37.791,407.858 37.791,407.851 	"/>
	<polygon fill="#B20000" points="48.593,407.851 43.195,407.851 37.791,407.851 37.791,407.858 37.791,416.528 53.987,416.528 
		53.987,407.858 53.987,407.851 	"/>
	<rect x="43.185" y="416.532" fill="#B20000" width="5.398" height="8.678"/>
	<polygon fill="#B20000" points="75.576,407.858 70.183,407.858 70.183,407.851 64.789,407.851 59.38,407.851 59.38,407.858 
		59.38,416.528 75.576,416.528 	"/>
	<rect x="64.789" y="416.532" fill="#B20000" width="5.398" height="8.678"/>
	<polygon fill="#B20000" points="75.576,407.858 80.98,407.858 80.98,399.181 70.183,399.181 70.183,407.851 70.183,407.858 	"/>
	<rect x="59.38" y="390.498" fill="#B20000" width="16.196" height="8.679"/>
	<rect x="64.789" y="381.816" fill="#B20000" width="5.398" height="8.678"/>
	<polygon fill="#B20000" points="97.175,407.851 97.175,399.181 86.378,399.181 86.378,407.858 91.772,407.858 91.772,407.851 	"/>
	<polygon fill="#B20000" points="102.573,407.851 97.175,407.851 91.772,407.851 91.772,407.858 91.772,416.528 107.967,416.528 
		107.967,407.858 102.573,407.858 	"/>
	<polygon fill="#B20000" points="113.371,399.181 113.366,399.181 102.573,399.181 102.573,407.851 102.573,407.858 
		107.967,407.858 113.366,407.858 113.371,407.858 	"/>
	<rect x="91.772" y="390.498" fill="#B20000" width="16.195" height="8.679"/>
	<rect x="97.18" y="381.816" fill="#B20000" width="5.399" height="8.678"/>
	<rect x="97.18" y="416.532" fill="#B20000" width="5.399" height="8.678"/>
	<polygon fill="#B20000" points="0.006,407.858 5.4,407.858 5.4,407.851 10.803,407.851 10.803,399.181 0.006,399.181 	"/>
	<polygon fill="#B20000" points="5.4,407.858 5.4,416.528 21.595,416.528 21.595,407.858 16.201,407.858 16.201,407.851 
		10.803,407.851 5.4,407.851 	"/>
	<polygon fill="#B20000" points="21.595,407.858 26.999,407.858 26.999,399.181 16.201,399.181 16.201,407.851 16.201,407.858 	"/>
	<rect x="5.4" y="390.498" fill="#B20000" width="16.195" height="8.679"/>
	<rect x="10.793" y="381.816" fill="#B20000" width="5.398" height="8.678"/>
	<rect x="10.793" y="416.532" fill="#B20000" width="5.398" height="8.678"/>
	<polygon fill="#B20000" points="5.4,347.113 5.4,355.791 10.793,355.791 26.993,355.791 26.993,355.783 26.993,347.113 	"/>
	<polygon fill="#B20000" points="48.582,355.791 53.991,355.791 53.991,347.113 32.398,347.113 32.398,355.783 32.398,355.791 	"/>
	<polygon fill="#B20000" points="80.974,355.783 80.974,347.113 59.38,347.113 59.38,355.791 64.789,355.791 80.974,355.791 	"/>
	<polygon fill="#B20000" points="86.378,355.783 86.378,355.791 102.578,355.791 107.972,355.791 107.972,347.113 86.378,347.113 	
		"/>
	<polygon fill="#B20000" points="70.178,329.75 64.789,329.75 48.593,329.75 43.185,329.75 43.185,338.428 70.178,338.428 	"/>
	<polygon fill="#B20000" points="10.793,329.75 5.4,329.75 5.4,338.428 32.393,338.428 32.393,329.758 32.393,329.75 	"/>
	<polygon fill="#B20000" points="80.985,329.75 80.985,329.758 80.985,338.428 107.978,338.428 107.978,329.75 102.57,329.75 	"/>
	<rect x="107.967" y="295.047" fill="#B20000" width="5.398" height="8.678"/>
	<rect x="0.006" y="295.047" fill="#B20000" width="5.398" height="8.678"/>
	<polygon fill="#B20000" points="48.593,269.008 53.991,269.008 53.991,260.33 53.987,260.33 48.593,260.33 	"/>
	<polygon fill="#B20000" points="59.38,269.008 64.779,269.008 64.779,260.33 59.385,260.33 59.38,260.33 	"/>
	<rect x="59.38" y="242.974" fill="#B20000" width="5.398" height="8.678"/>
	<rect x="48.593" y="242.974" fill="#B20000" width="5.398" height="8.678"/>
	<polygon fill="#B20000" points="21.59,485.951 21.59,477.277 16.197,477.277 10.793,477.277 10.793,485.955 16.201,485.955 
		21.59,485.955 	"/>
	<rect x="86.378" y="303.716" fill="#B20000" width="5.398" height="8.678"/>
	<polygon fill="#B20000" points="21.595,303.716 21.595,312.393 21.595,312.394 26.993,312.394 26.993,312.393 26.993,303.716 	"/>
	<polygon fill="#B20000" points="64.785,303.725 64.785,303.72 59.38,303.72 53.982,303.72 48.59,303.72 48.59,303.725 
		48.59,312.397 64.785,312.397 	"/>
</g>
</svg>
