<?xml version="1.0" encoding="utf-8"?>
<!-- Generator: Adobe Illustrator 16.0.0, SVG Export Plug-In . SVG Version: 6.00 Build 0)  -->
<svg version="1.2" baseProfile="tiny"
	 id="canada" xmlns:cc="http://creativecommons.org/ns#" xmlns:dc="http://purl.org/dc/elements/1.1/" xmlns:rdf="http://www.w3.org/1999/02/22-rdf-syntax-ns#"
	 xmlns="http://www.w3.org/2000/svg" xmlns:xlink="http://www.w3.org/1999/xlink" x="0px" y="0px" width="512px" height="512px"
	 viewBox="0 0 512 512" xml:space="preserve">
<g>
	<path fill="#FFFFFF" d="M81.137,0v512h362.275V0H81.137z M332.575,336.111l-71.13-8.432l3.21,70.918l-14.718,0.424l1.851-71.512
		l-71.061,9.019c4.25-7.743,10.921-12.095,5.969-26.858l-65.456-57.447l14.067-4.808l0.001,0c8.715-8.655-5.057-35.062-9.462-50.957
		c12.894,2.815,32.13,10.024,37.873,7.638c5.744-2.549,8.688-13.924,13.033-20.885l33.216,37.737
		c3.256,1.701,6.024,0.816,7.18-2.326L202.62,139.48l24.203,13.578c1.579,1.242,3.48,1.03,5.382-0.796l25.209-50.952l24.445,49.073
		c1.402,2.48,3.53,3.265,5.658,2.355l25.419-14.297l-16.053,79.766c0.891,3.207,2.508,4.718,6.304,3.809l34.748-38.172l9.727,18.685
		c2.503,6.873,40.697-6.262,40.697-6.262c-2.021,17.394-15.425,44.956-6.065,52.178l11.447,4.144l-65.413,54.425
		C324.256,321.879,328.173,326.815,332.575,336.111z"/>
	<polygon fill="#BF0A30" points="81.136,0 0,0 0,512 81.136,512 81.137,512 81.137,0 	"/>
	<rect x="443.412" fill="#BF0A30" width="68.588" height="512"/>
	<path fill="#BF0A30" d="M393.741,252.589l-11.447-4.144c-9.359-7.222,4.044-34.784,6.065-52.178c0,0-38.194,13.135-40.697,6.262
		l-9.727-18.685l-34.748,38.172c-3.796,0.909-5.413-0.602-6.304-3.809l16.053-79.766l-25.419,14.297
		c-2.128,0.91-4.256,0.125-5.658-2.355l-24.445-49.073l-25.209,50.952c-1.901,1.826-3.803,2.038-5.382,0.796L202.62,139.48
		l14.528,79.143c-1.155,3.142-3.924,4.026-7.18,2.326l-33.216-37.737c-4.345,6.961-7.289,18.336-13.033,20.885
		c-5.743,2.386-24.979-4.823-37.873-7.638c4.405,15.895,18.177,42.302,9.462,50.957l-0.001,0l-14.067,4.808l65.456,57.447
		c4.952,14.764-1.719,19.115-5.969,26.858l71.061-9.019l-1.851,71.512l14.718-0.424l-3.21-70.918l71.13,8.432
		c-4.402-9.296-8.319-14.232-4.247-29.098L393.741,252.589z"/>
</g>
</svg>
