<?xml version="1.0" encoding="utf-8"?>
<!-- Generator: Adobe Illustrator 16.0.0, SVG Export Plug-In . SVG Version: 6.00 Build 0)  -->
<svg version="1.2" baseProfile="tiny"
	 id="svg548" xmlns:cc="http://creativecommons.org/ns#" xmlns:dc="http://purl.org/dc/elements/1.1/" xmlns:rdf="http://www.w3.org/1999/02/22-rdf-syntax-ns#"
	 xmlns="http://www.w3.org/2000/svg" xmlns:xlink="http://www.w3.org/1999/xlink" x="0px" y="0px" width="512px" height="512px"
	 viewBox="0 0 512 512" xml:space="preserve">
<g>
	<path fill="#0000FF" d="M268,0H0v126.49h268V0z M75.949,89.109l-33.434,23.424L54.12,73.329L21.603,48.646l40.723-1.034
		L75.66,8.937l13.562,38.561l40.758,0.781L97.644,73.146l11.849,39.16L75.949,89.109z"/>
	<rect x="396" fill="#0000FF" width="116" height="126.49"/>
	<rect x="396" y="383.5" fill="#FFFF00" width="116" height="128.5"/>
	<rect x="0" y="383.5" fill="#FFFF00" width="268" height="128.5"/>
	<rect x="396" y="255" fill="#009A00" width="116" height="128.5"/>
	<rect x="0" y="255" fill="#009A00" width="268" height="128.5"/>
	<rect x="396" y="126.49" fill="#FFFFFF" width="116" height="128.5"/>
	<rect x="0" y="126.49" fill="#FFFFFF" width="268" height="128.5"/>
	<polygon fill="#FF0000" points="396,255 396,254.99 396,126.49 396,0 268,0 268,126.49 268,254.99 268,255 268,383.5 268,512 
		396,512 396,383.5 	"/>
	<polygon fill="#FFFF00" points="129.98,48.279 89.222,47.498 75.66,8.937 62.325,47.612 21.603,48.646 54.12,73.329 
		42.516,112.534 75.949,89.109 109.492,112.306 97.644,73.146 	"/>
</g>
</svg>
