<?xml version="1.0" encoding="utf-8"?>
<!-- Generator: Adobe Illustrator 16.0.0, SVG Export Plug-In . SVG Version: 6.00 Build 0)  -->
<svg version="1.2" baseProfile="tiny"
	 id="svg1" xmlns:cc="http://creativecommons.org/ns#" xmlns:dc="http://purl.org/dc/elements/1.1/" xmlns:rdf="http://www.w3.org/1999/02/22-rdf-syntax-ns#"
	 xmlns="http://www.w3.org/2000/svg" xmlns:xlink="http://www.w3.org/1999/xlink" x="0px" y="0px" width="512px" height="512px"
	 viewBox="0 0 512 512" xml:space="preserve">
<g id="flag">
	<rect id="rect124" x="0" fill="#000066" width="512" height="512"/>
	<g id="g584" transform="matrix(6.1 0 0 6.1 0 .000022888)">
		<path id="path146" fill="#FFFFFF" d="M0,0v3.354L53.292,30H60v-3.354L6.708,0L0,0L0,0z M60,0v3.354L6.708,30H0v-3.354L53.292,0H60
			z"/>
		<path id="path136" fill="#FFFFFF" d="M25,0v30h10V0H25z M0,10v10h60V10H0z"/>
		<path id="path141" fill="#CC0000" d="M0,12v6h60v-6H0z M27,0v30h6V0H27z"/>
		<path id="path150" fill="#CC0000" d="M0,30l20-10h4.472l-20,10H0z M0,0l20,10h-4.472L0,2.236V0z M35.528,10l20-10H60L40,10H35.528
			z M60,30L40,20h4.472L60,27.764V30z"/>
	</g>
	<g id="g808" transform="matrix(.76758 0 0 .77858 -234.75 154.37)">
		<polygon id="polygon791" fill="#FFFFFF" points="744.641,122.959 752.08,99.446 732.029,84.427 757.291,84.11 765.707,60.923 
			773.875,84.236 799.14,84.919 778.925,99.642 786.119,123.261 765.458,109.045 		"/>
		<polygon id="polygon794" fill="#FFFFFF" points="804.159,127.58 819.053,107.924 805.202,87.05 829.106,95.225 844.812,76.204 
			844.688,100.906 868.26,110.023 844.278,117.114 843.133,141.778 828.436,121.455 		"/>
		<polygon id="polygon795" fill="#FFFFFF" points="687.649,142.577 686.656,117.936 662.697,110.623 686.349,101.742 
			686.385,77.075 701.988,96.227 725.982,88.285 711.972,109.001 726.763,128.771 702.501,122.42 		"/>
		<polygon id="polygon796" fill="#FFFFFF" points="645.705,180.064 635.214,157.746 610.295,160.319 628.635,142.945 
			619.083,120.202 640.903,131.784 659.924,115.141 655.066,139.674 676.378,152.141 651.555,155.719 		"/>
		<polygon id="polygon797" fill="#FFFFFF" points="626.555,234.122 607.509,218.456 586.099,231.462 595.221,207.904 
			576.842,191.451 601.519,192.562 611.57,169.373 617.699,193.618 642.296,195.745 621.405,209.62 		"/>
		<polygon id="polygon798" fill="#FFFFFF" points="626.099,294.849 602.393,288.053 587.926,308.506 586.921,283.262 
			563.513,275.48 586.594,266.68 586.588,241.406 601.858,261.212 625.272,253.377 611.625,274.419 		"/>
		<polygon id="polygon799" fill="#FFFFFF" points="653.856,346.151 629.428,349.529 624.473,374.085 613.34,351.407 
			588.785,353.762 606.332,336.375 596.101,313.265 618.078,325.199 636.321,308.561 632.354,333.324 		"/>
		<polygon id="polygon800" fill="#FFFFFF" points="696.799,386.859 675.038,398.462 678.866,423.219 660.588,405.779 
			638.356,416.467 648.822,394.091 631.239,375.935 655.986,379.547 667.361,357.634 672.19,382.245 		"/>
		<polygon id="polygon801" fill="#FFFFFF" points="749.216,394.896 737.342,416.511 754.084,435.146 729.244,430.538 
			716.473,451.642 713.001,427.185 688.354,421.597 711.048,411.09 708.591,386.522 726.089,404.49 		"/>
		<polygon id="polygon802" fill="#FFFFFF" points="808.085,385.974 807.344,410.624 830.732,419.6 806.516,426.8 804.748,451.404 
			790.526,431.205 766.035,437.443 781.464,417.762 768.098,397.002 791.855,405.039 		"/>
		<polygon id="polygon803" fill="#FFFFFF" points="869.777,118.375 886.867,136.154 909.647,125.73 897.842,148.066 
			914.179,166.548 889.798,162.57 877.114,184.43 873.853,159.636 849.67,154.655 872.038,143.311 		"/>
		<polygon id="polygon804" fill="#FFFFFF" points="920.952,173.083 928.709,196.493 953.758,196.907 933.476,211.972 
			940.251,235.692 919.968,221.592 899.099,235.85 906.844,212.071 887.17,197.153 912.242,196.558 		"/>
		<polygon id="polygon805" fill="#FFFFFF" points="940.184,243.403 937.314,267.897 959.836,278.864 935.088,283.939 
			931.197,308.299 918.778,286.945 893.838,291.04 910.913,272.767 899.393,250.929 922.365,260.992 		"/>
		<polygon id="polygon806" fill="#FFFFFF" points="926.637,317.125 915.524,339.14 932.905,357.181 907.919,353.442 
			895.893,374.979 891.569,350.657 866.742,345.931 889.057,334.64 885.744,310.173 903.858,327.52 		"/>
		<polygon id="polygon807" fill="#FFFFFF" points="889.758,382.691 868.762,395.626 874.122,420.097 854.793,403.828 
			833.269,415.878 842.324,392.893 823.647,375.866 848.571,377.932 858.562,355.353 864.909,379.616 		"/>
	</g>
</g>
</svg>
