<?xml version="1.0" encoding="utf-8"?>
<!-- Generator: Adobe Illustrator 16.0.0, SVG Export Plug-In . SVG Version: 6.00 Build 0)  -->
<svg version="1.2" baseProfile="tiny"
	 id="svg2" xmlns:cc="http://creativecommons.org/ns#" xmlns:dc="http://purl.org/dc/elements/1.1/" xmlns:rdf="http://www.w3.org/1999/02/22-rdf-syntax-ns#" sodipodi:docname="cn.svg" inkscape:version="0.48.4 r9939" xmlns:svg="http://www.w3.org/2000/svg" xmlns:inkscape="http://www.inkscape.org/namespaces/inkscape" xmlns:sodipodi="http://sodipodi.sourceforge.net/DTD/sodipodi-0.dtd"
	 xmlns="http://www.w3.org/2000/svg" xmlns:xlink="http://www.w3.org/1999/xlink" x="0px" y="0px" width="512px" height="512px"
	 viewBox="0 0 512 512" xml:space="preserve">
<sodipodi:namedview  inkscape:current-layer="svg2" inkscape:pageopacity="0" inkscape:window-maximized="1" inkscape:window-x="65" inkscape:window-y="24" inkscape:window-width="1215" inkscape:window-height="776" inkscape:pageshadow="2" id="namedview21" pagecolor="#ffffff" gridtolerance="10" guidetolerance="10" objecttolerance="10" inkscape:zoom="1.1660156" inkscape:cy="256" borderopacity="1" inkscape:cx="256" bordercolor="#666666" showgrid="false">
	</sodipodi:namedview>
<title  id="title4">Flag of the People&apos;s Republic of China</title>
<g>
	<path fill="#DE2910" d="M-5-5v512h511.999V-5H-5z M168.142,185.132L123,152.335l-45.142,32.797l17.243-53.067L49.959,99.268h55.798
		L123,46.2l17.243,53.067h55.798l-45.142,32.797L168.142,185.132z M231.69,29.393l17.117,7.278l12.211-14.029l-1.633,18.527
		l17.116,7.278l-18.125,4.172l-1.633,18.528l-9.57-15.949l-18.125,4.172l12.211-14.029L231.69,29.393z M257.773,250.088
		l-10.222-15.538l-17.937,4.92l11.619-14.524l-10.223-15.539l17.403,6.562l11.619-14.524l-0.863,18.58l17.403,6.562l-17.937,4.92
		L257.773,250.088z M290.925,74.417l12.951,13.35l16.698-8.191l-8.694,16.442l12.95,13.35l-18.324-3.188l-8.694,16.442
		l-2.631-18.413l-18.323-3.188l16.698-8.191L290.925,74.417z M317.98,194.358l-15.43-10.386l-14.646,11.465l5.11-17.884
		l-15.43-10.386l18.587-0.667l5.11-17.884l6.378,17.472l18.587-0.667l-14.646,11.465L317.98,194.358z"/>
	<polygon fill="#FFDE00" points="140.243,99.268 123,46.2 105.757,99.268 49.959,99.268 95.101,132.065 77.858,185.132 123,152.335 
		168.142,185.132 150.899,132.065 196.041,99.268 	"/>
	<polygon fill="#FFDE00" points="247.174,55.199 256.743,71.147 258.376,52.62 276.501,48.447 259.385,41.169 261.018,22.642 
		248.806,36.671 231.69,29.393 241.26,45.342 229.048,59.371 	"/>
	<polygon fill="#FFDE00" points="295.181,104.208 297.812,122.621 306.506,106.179 324.83,109.367 311.88,96.018 320.574,79.575 
		303.876,87.767 290.925,74.417 293.556,92.829 276.858,101.021 	"/>
	<polygon fill="#FFDE00" points="307.66,166.088 301.282,148.616 296.172,166.5 277.585,167.167 293.015,177.553 287.905,195.437 
		302.55,183.972 317.98,194.358 311.602,176.886 326.247,165.421 	"/>
	<polygon fill="#FFDE00" points="259.169,220.026 260.032,201.446 248.413,215.97 231.01,209.408 241.233,224.946 229.614,239.47 
		247.551,234.55 257.773,250.088 258.636,231.508 276.573,226.588 	"/>
</g>
</svg>
