<?xml version="1.0" encoding="utf-8"?>
<!-- Generator: Adobe Illustrator 16.0.0, SVG Export Plug-In . SVG Version: 6.00 Build 0)  -->
<svg version="1.2" baseProfile="tiny"
	 id="svg378" xmlns:cc="http://creativecommons.org/ns#" xmlns:dc="http://purl.org/dc/elements/1.1/" xmlns:rdf="http://www.w3.org/1999/02/22-rdf-syntax-ns#"
	 xmlns="http://www.w3.org/2000/svg" xmlns:xlink="http://www.w3.org/1999/xlink" x="0px" y="0px" width="512px" height="512px"
	 viewBox="0 0 512 512" xml:space="preserve">
<g>
	<polygon fill="#0050F0" points="408.69,255.67 319.754,307.2 512,307.2 512,204.8 321.007,204.8 	"/>
	<polygon fill="#0050F0" points="143.023,409.6 0,492.469 0,512 512,512 512,409.6 	"/>
	<polygon fill="#0050F0" points="512,102.4 512,0 0,0 0,18.565 144.503,102.4 	"/>
	<polygon fill="#FFFFFF" points="321.007,204.8 512,204.8 512,102.4 144.503,102.4 	"/>
	<polygon fill="#FFFFFF" points="143.023,409.6 512,409.6 512,307.2 319.754,307.2 	"/>
	<path fill="#ED0000" d="M319.754,307.2l88.936-51.53l-87.683-50.87L144.503,102.4L0,18.565v473.904L143.023,409.6L319.754,307.2z
		 M37.521,231.77l58.306-0.5l18.084-57.968l18.472,57.835l58.305,0.077l-46.886,36.242l17.946,58.014l0.003,0.002l-0.002,0.001
		l-0.001-0.003l-47.444-35.431l-47.214,35.78l17.56-58.145L37.521,231.77z"/>
	<polygon fill="#FFFFFF" points="67.089,325.818 114.303,290.038 161.747,325.469 143.801,267.455 190.687,231.213 132.382,231.136 
		113.91,173.301 95.826,231.27 37.521,231.77 84.649,267.674 	"/>
	<polygon fill="#FFFFFF" points="161.75,325.471 161.747,325.469 161.748,325.472 	"/>
</g>
</svg>
