<?xml version="1.0" encoding="utf-8"?>
<!-- Generator: Adobe Illustrator 16.0.0, SVG Export Plug-In . SVG Version: 6.00 Build 0)  -->
<svg version="1.2" baseProfile="tiny"
	 id="svg153" xmlns:cc="http://creativecommons.org/ns#" xmlns:dc="http://purl.org/dc/elements/1.1/" xmlns:rdf="http://www.w3.org/1999/02/22-rdf-syntax-ns#"
	 xmlns="http://www.w3.org/2000/svg" xmlns:xlink="http://www.w3.org/1999/xlink" x="0px" y="0px" width="512px" height="512px"
	 viewBox="0 0 512 512" xml:space="preserve">
<desc  id="desc549">The United States of America flag, produced by Daniel McRae</desc>
<g>
	<polygon fill="#FFFFFF" points="323.56,349.926 345.081,349.926 327.67,362.576 334.321,383.045 316.909,370.395 299.499,383.045 
		306.15,362.576 288.739,349.926 310.259,349.926 312.77,342.199 90.464,342.199 94.921,355.916 116.443,355.916 99.031,368.566 
		104.654,385.87 512,385.87 512,342.199 321.049,342.199 	"/>
	<polygon fill="#FFFFFF" points="70.885,302.55 101.483,302.55 86.184,291.435 	"/>
	<polygon fill="#FFFFFF" points="75.216,385.87 101.326,385.87 88.271,376.385 	"/>
	<polygon fill="#FFFFFF" points="77.511,368.566 60.1,355.916 81.62,355.916 86.077,342.199 0,342.199 0,385.87 71.888,385.87 	"/>
	<polygon fill="#FFFFFF" points="301.611,302.55 332.209,302.55 316.909,291.435 	"/>
	<polygon fill="#FFFFFF" points="323.56,270.967 345.081,270.967 327.67,283.616 333.823,302.55 512,302.55 512,256.641 
		318.906,256.641 	"/>
	<polygon fill="#FFFFFF" points="75.424,283.616 58.012,270.967 79.533,270.967 84.188,256.641 0,256.641 0,302.55 69.271,302.55 	
		"/>
	<polygon fill="#FFFFFF" points="288.739,270.967 310.259,270.967 314.913,256.641 88.179,256.641 92.834,270.967 114.356,270.967 
		96.945,283.616 103.096,302.55 299.997,302.55 306.15,283.616 	"/>
	<path fill="#081873" d="M86.184,250.498l1.996,6.143h226.734l1.996-6.143l1.996,6.143H512V0H0v256.641h84.188L86.184,250.498z
		 M263.169,208.646l6.65-20.468l6.65,20.468h21.521l-17.411,12.65l6.65,20.468l-17.411-12.65l-17.411,12.65l6.651-20.468
		l-17.411-12.65H263.169z M192.089,183.896l6.651-20.469l6.65,20.469h21.521l-17.411,12.65l6.651,20.468l-17.411-12.65
		l-17.412,12.65l6.651-20.468l-17.411-12.65H192.089z M120.999,207.256l6.65-20.468l6.65,20.468h21.521l-17.411,12.65l6.65,20.468
		l-17.411-12.65l-17.411,12.65l6.651-20.468l-17.411-12.65H120.999z"/>
	<path fill="#081873" d="M512,385.87H104.654l1.028,3.165l-4.356-3.165h-26.11l-4.356,3.165l1.028-3.165H0V512h512V385.87z
		 M130.92,440.104l-17.411,12.65l6.65-20.469l-17.411-12.649h21.521l6.65-20.469l6.65,20.469h21.521l-17.412,12.649l6.651,20.469
		L130.92,440.104z M216.152,473.995l-17.411-12.65l-17.412,12.65l6.651-20.469l-17.411-12.65h21.521l6.651-20.468l6.65,20.468
		h21.521l-17.411,12.65L216.152,473.995z M274.26,440.104l-17.411,12.65l6.65-20.469l-17.411-12.649h21.521l6.65-20.469l6.65,20.469
		h21.521l-17.411,12.649l6.65,20.469L274.26,440.104z"/>
	<polygon fill="#DE3929" points="88.271,335.448 90.464,342.199 312.77,342.199 316.909,329.458 321.049,342.199 512,342.199 
		512,302.55 333.823,302.55 334.321,304.084 332.209,302.55 301.611,302.55 299.499,304.084 299.997,302.55 103.096,302.55 
		103.595,304.084 101.483,302.55 70.885,302.55 68.773,304.084 69.271,302.55 0,302.55 0,342.199 86.077,342.199 	"/>
	<polygon fill="#FFCE08" points="141.68,432.286 159.092,419.637 137.571,419.637 130.92,399.168 124.27,419.637 102.748,419.637 
		120.159,432.286 113.509,452.755 130.92,440.104 148.331,452.755 	"/>
	<polygon fill="#FFCE08" points="345.081,270.967 323.56,270.967 318.906,256.641 316.909,250.498 314.913,256.641 310.259,270.967 
		288.739,270.967 306.15,283.616 299.997,302.55 299.499,304.084 301.611,302.55 316.909,291.435 332.209,302.55 334.321,304.084 
		333.823,302.55 327.67,283.616 	"/>
	<polygon fill="#FFCE08" points="116.443,355.916 94.921,355.916 90.464,342.199 88.271,335.448 86.077,342.199 81.62,355.916 
		60.1,355.916 77.511,368.566 71.888,385.87 70.86,389.035 75.216,385.87 88.271,376.385 101.326,385.87 105.682,389.035 
		104.654,385.87 99.031,368.566 	"/>
	<polygon fill="#FFCE08" points="288.739,349.926 306.15,362.576 299.499,383.045 316.909,370.395 334.321,383.045 327.67,362.576 
		345.081,349.926 323.56,349.926 321.049,342.199 316.909,329.458 312.77,342.199 310.259,349.926 	"/>
	<polygon fill="#FFCE08" points="252.408,241.765 269.82,229.115 287.231,241.765 280.58,221.296 297.991,208.646 276.47,208.646 
		269.82,188.178 263.169,208.646 241.649,208.646 259.06,221.296 	"/>
	<polygon fill="#FFCE08" points="181.328,217.015 198.74,204.365 216.152,217.015 209.5,196.546 226.911,183.896 205.391,183.896 
		198.74,163.428 192.089,183.896 170.569,183.896 187.98,196.546 	"/>
	<polygon fill="#FFCE08" points="110.239,240.375 127.65,227.725 145.061,240.375 138.41,219.906 155.822,207.256 134.3,207.256 
		127.65,186.788 120.999,207.256 99.479,207.256 116.89,219.906 	"/>
	<polygon fill="#FFCE08" points="114.356,270.967 92.834,270.967 88.179,256.641 86.184,250.498 84.188,256.641 79.533,270.967 
		58.012,270.967 75.424,283.616 69.271,302.55 68.773,304.084 70.885,302.55 86.184,291.435 101.483,302.55 103.595,304.084 
		103.096,302.55 96.945,283.616 	"/>
	<polygon fill="#FFCE08" points="205.391,440.876 198.74,420.408 192.089,440.876 170.569,440.876 187.98,453.526 181.328,473.995 
		198.74,461.345 216.152,473.995 209.5,453.526 226.911,440.876 	"/>
	<polygon fill="#FFCE08" points="285.021,432.286 302.432,419.637 280.91,419.637 274.26,399.168 267.61,419.637 246.088,419.637 
		263.499,432.286 256.849,452.755 274.26,440.104 291.671,452.755 	"/>
</g>
</svg>
