<?xml version="1.0" encoding="utf-8"?>
<!-- Generator: Adobe Illustrator 16.0.0, SVG Export Plug-In . SVG Version: 6.00 Build 0)  -->
<svg version="1.2" baseProfile="tiny"
	 id="Flag_of_Curacao" xmlns:cc="http://creativecommons.org/ns#" xmlns:dc="http://purl.org/dc/elements/1.1/" xmlns:rdf="http://www.w3.org/1999/02/22-rdf-syntax-ns#"
	 xmlns="http://www.w3.org/2000/svg" xmlns:xlink="http://www.w3.org/1999/xlink" x="0px" y="0px" width="512px" height="512px"
	 viewBox="0 0 512 512" xml:space="preserve">
<g>
	<rect x="0" y="384.001" fill="#002B7F" width="512.001" height="128"/>
	<path fill="#002B7F" d="M512.001,0H0v320h512.001V0z M85.333,101.631l-25.079,18.221l9.58-29.482L44.755,72.148h30.999
		l9.579-29.481l9.579,29.481h31L100.833,90.37l9.579,29.482L85.333,101.631z M170.667,192.397l-33.439,24.294l12.773-39.31
		l-33.439-24.295h41.333l12.772-39.309l12.771,39.309h41.333l-33.438,24.295l12.772,39.31L170.667,192.397z"/>
	<rect x="0" y="320" fill="#F9E814" width="512.001" height="64.001"/>
	<polygon fill="#FFFFFF" points="125.912,72.148 94.912,72.148 85.333,42.667 75.754,72.148 44.755,72.148 69.834,90.37 
		60.254,119.852 85.333,101.631 110.412,119.852 100.833,90.37 	"/>
	<polygon fill="#FFFFFF" points="224.772,153.087 183.439,153.087 170.667,113.778 157.895,153.087 116.562,153.087 
		150.001,177.382 137.228,216.691 170.667,192.397 204.106,216.691 191.333,177.382 	"/>
</g>
</svg>
