<?xml version="1.0" encoding="utf-8"?>
<!-- Generator: Adobe Illustrator 16.0.0, SVG Export Plug-In . SVG Version: 6.00 Build 0)  -->
<svg version="1.2" baseProfile="tiny"
	 id="svg697" xmlns:cc="http://creativecommons.org/ns#" xmlns:dc="http://purl.org/dc/elements/1.1/" xmlns:rdf="http://www.w3.org/1999/02/22-rdf-syntax-ns#"
	 xmlns="http://www.w3.org/2000/svg" xmlns:xlink="http://www.w3.org/1999/xlink" x="0px" y="0px" width="512px" height="512px"
	 viewBox="0 0 512 512" xml:space="preserve">
<g id="flag">
	<rect id="rect3447" x="0" fill="#0021AD" width="512" height="512"/>
	<path id="path3446" fill="#1C8A42" d="M0,0l512,512L511.71,0.38L0,0z"/>
	<path id="path733" fill="#FFC639" d="M345.383,258.746c0.024,51.082-41.366,92.51-92.447,92.534
		c-51.081,0.023-92.51-41.366-92.534-92.448c0-0.028,0-0.057,0-0.086c-0.023-51.081,41.367-92.51,92.448-92.534
		s92.51,41.367,92.533,92.448C345.383,258.689,345.383,258.718,345.383,258.746z"/>
	<path id="path732" fill="#1C8A42" d="M195.39,217.47c6.327,8.688,15.91,23.235,23.624,19.441c6.012,0.02,9.122,0.446,9.938,4.444
		c14.194,2.419,38.05-3.57,52.884-22.896c0,0,1.254,0.162,0.817-7.186c0.083-3.205,4.377-2.558,4.48-1.524
		c0.601,1.592,0.492,2.786,1.298,2.825c1.835-0.614,4.33-4.708,6.423-7.308c0.572-1.146,0.261-2.359,0.394-3.797
		c1.103-2.718,3.856-2.125,4.439-0.705c0.521,0.917,0.529,1.624,1.051,2.54c2.795,1.862,7.845,0.124,8.239,0.124
		c0.495-2.277,1.961-2.063,1.961-2.063c1.862-0.412,1.136-0.246,2.354,0.392c-1.078,12.293,2.418,12.834,2.129,19.146
		c0.125,7.034-2.129,9.034-2.129,11.728c0.715,3.273,11.097,3.387,7.442,6.163c-3.211,1.716,0.018,4.928-4.82,6.172
		c-14.05,7.136-16.744,13.256-16.744,13.256s-3.53,6.67-3.922,6.67c-2.359,4.449-5.343,2.018-6.997,4.189
		c-0.829,2.727-1.76,8.761-0.104,11.899c0.827,4.312-0.103,6.664-1.14,10.979c-0.931,8.998-4.496,10.362-4.908,13.526
		c-1.657,3.373,0.348,19.222-1.22,19.222c-10.468,0.205-18.488-2.003-22.628-2.828c4.036-17.384,2.474-32.668,2.474-34.235
		c-1.036-12.435-18.635-9.408-21.323-11.062c-2.235-0.476-3.64-2.294-4.426-3.08c-2.485-0.261-3.416-0.834-5.901-1.092
		c-1.243,0.619-0.493,1.263-3.263,2.113c-7.015,0.846-10.118-6.115-10.118-6.115c0.343-2.348-15.774,0.478-24.536-1.556
		c-3.593,2.003-5.16,7.924-8.106,8.63c-0.083,1.835-4.836-1.508-5.795-3.314c-0.206-5.254,4.579-7.583,4.579-7.583
		c3.793-2.667,6.05-3.105,7.878-4.946c0.916-4.576,0.453-7.959,2.403-11.4c1.65-2.625,4.084-1.393,5.734-2.572
		c1.779-1.176,2.526-8.872,0.893-10.982c0,0-7.103-6.409-7.494-6.8C188.938,221.258,193.95,216.989,195.39,217.47L195.39,217.47z"/>
	<path id="path3443" fill="#FFC639" d="M455.51,64.507c-2.437-9.64-24.239-30.401-40.625-43.612
		c-3.914-2.665-6.464-1.078-5.954,2.722c2.041,3.402,3.57,7.144,5.613,10.546c0.566,2.268,1.644,3.855,2.211,6.123
		c0,0,0.169,3.912,0.512,4.252c5.102,5.615,5.782,10.377,5.782,10.377c2.948,5.671,5.556,9.809,10.717,14.458
		c5.783,3.629,1.529,14.913,1.7,20.924c0,3.799-2.721,3.345-5.103,2.891c-18.769-17.237-37.366-17.293-53.754-22.282
		c-6.405-0.681-6.52,2.381-4.422,4.081c11.453,12.248,22.229,20.583,36.403,27.557c2.382,1.475,4.762,2.949,7.144,4.424
		c2.722,2.268,5.442,4.535,8.164,6.803c6.294,4.083,6.806,7.826,6.806,8.164c0.168,7.655-3.914,13.608-5.104,15.99
		c-2.149,8.119-6.463,9.526-6.463,9.526c-35.041,23.645-53.414,29.768-110.23,22.453c-0.85-0.454-6.294,0.454,0,2.722
		c14.46,4.819,49.979,12.546,84.342-3.727c8.25-5.785,13.77-3.887,19.746-7.349c9.812-6.051,23.83-13.588,26.382-14.438
		c7.654-4.083,29.087-8.676,34.02-12.759c5.67-0.455,11.544-1.198,11.941-6.074c1.864-1.203,4.584-0.325,6.609-4.294
		c4.489-0.782,3.733-2.391,3.733-2.391c-1.134-3.174-5.33-4.479-8.334-6.803c-4.424-1.476-7.484-1.928-10.718-0.341
		c-1.021,0.455-2.041,0.908-3.062,1.361c0,0-4.763-0.68-4.763-1.02c-10.584-0.581-9.555-35.656-13.298-50.285L455.51,64.507z"/>
	<path id="path3445" fill="#1C8A42" d="M480.323,121.929c-0.303,0.852-1.665,1.192-3.043,0.761c-1.377-0.431-2.248-1.47-1.945-2.322
		c0.001-0.001,0.002-0.003,0.002-0.005c0.304-0.851,1.666-1.192,3.043-0.761c1.378,0.431,2.249,1.471,1.945,2.322
		C480.325,121.926,480.324,121.928,480.323,121.929z"/>
	<polygon id="polygon3449" fill="#FFFFFF" points="52.902,392.236 41.137,381.223 29.23,392.083 30.506,376.023 14.591,373.483 
		27.947,364.465 20.006,350.442 35.385,355.259 41.4,340.307 47.221,355.336 62.661,350.715 54.541,364.635 67.78,373.824 
		51.833,376.16 	"/>
	<polygon id="polygon3451" fill="#FFFFFF" points="132.483,298.486 123.216,289.812 113.838,298.365 114.843,285.717 
		102.308,283.717 112.827,276.613 106.573,265.568 118.686,269.362 123.423,257.586 128.008,269.423 140.169,265.783 
		133.774,276.748 144.2,283.984 131.64,285.824 	"/>
	<polygon id="polygon3452" fill="#FFFFFF" points="144.595,497.251 129.103,489.442 122.909,505.649 117.483,489.173 
		101.643,496.253 109.451,480.768 93.25,474.573 109.727,469.141 102.64,453.307 118.132,461.115 124.326,444.908 129.753,461.385 
		145.593,454.305 137.784,469.797 153.986,475.984 137.509,481.417 	"/>
	<polygon id="polygon3455" fill="#FFFFFF" points="215.365,380.687 203.639,380.338 197.985,390.626 192.419,380.29 
		180.693,380.539 186.863,370.56 180.774,360.521 192.509,360.869 198.155,350.582 203.72,360.918 215.455,360.668 209.284,370.648 
			"/>
	<polygon id="polygon3461" fill="#FFFFFF" points="141.156,412.655 131.162,405.986 121.432,413.009 124.856,401.695 
		114.986,394.854 127.097,394.529 130.722,383.268 134.788,394.387 146.9,394.273 137.3,401.47 	"/>
</g>
</svg>
