<?xml version="1.0" encoding="utf-8"?>
<!-- Generator: Adobe Illustrator 16.0.0, SVG Export Plug-In . SVG Version: 6.00 Build 0)  -->
<svg version="1.2" baseProfile="tiny"
	 id="svg559" xmlns:cc="http://creativecommons.org/ns#" xmlns:dc="http://purl.org/dc/elements/1.1/" xmlns:rdf="http://www.w3.org/1999/02/22-rdf-syntax-ns#"
	 xmlns="http://www.w3.org/2000/svg" xmlns:xlink="http://www.w3.org/1999/xlink" x="0px" y="0px" width="512px" height="512px"
	 viewBox="0 0 512 512" xml:space="preserve">
<g id="flag">
	<rect id="rect4964" x="-2.086" y="2.086" fill="#FFFFFF" width="511.999" height="512"/>
	<polygon id="polygon565" fill="#808080" points="255.142,238.079 256.519,236.264 255.803,234.102 257.955,234.85 259.789,233.5 
		259.743,235.776 261.591,237.108 259.415,237.765 258.722,239.936 257.422,238.065 	"/>
	<path id="path568" fill="#FFCE00" d="M128.27,257.88h0.251c-0.669,0-0.317-0.051,0.751,0.765c0.874,0.355,1.643,0.51,3.006,0.51
		c1.194,0.088,2.229,0.256,3.506,0.256c1.176,0.504,1.845,0.965,2.756,1.273c0.401,0.619,1.277,2.007,1.753,2.55
		c0.882,0.661,1.946,1.063,2.755,1.784c1.008,0.28,1.649,0.717,2.755,1.529c0.833,0.402,1.62,0.732,2.756,1.275
		c1.09,0.383,2.281,0.896,3.255,1.274c0.858,0.206,2.006,0.557,2.756,1.02c1.064,0.235,1.957,0.537,3.256,0.765
		c1.326,0.161,1.995,0.518,3.256,0.766c1.132,0.582,2.014,1.018,3.256,1.529c0.505,0.754,0.938,1.434,2.004,1.783
		c0.548,0.676,1.456,0.855,2.004,1.53c0.807,0.389,1.695,0.646,2.755,1.02c1.277,0.093,2.198,0.462,3.507,0.511h3.507h3.506
		c1.118,0.135,2.37,0.312,3.256,0.509c1.226,0,2.421,0.021,3.507-0.255c1.401-0.017,2.056-0.416,3.256-0.51
		c1.34,0.217,2.249,0.097,2.756,1.275c0.83,0.844,1.335,1.672,1.502,2.804c0.264,0.806,0.251,2.139,0.251,3.313
		c0,1.107,0.006,2.314,0.25,3.06c0.798,0.782,1.419,1.014,2.505,1.274c0.806,0.272,2.289,0.512,3.006,1.02
		c0.592,0.632,0.881,1.636,1.753,2.295c0.763,0.596,2.037,0.72,3.256,0.764h3.507c1.095,0,2.548,0.105,3.256-0.255
		c1.085-0.401,1.37-1.147,2.755-1.274c1.306,0.2,1.278,0.829,2.254,1.274c0.621,0.911,1.21,1.287,2.004,1.784
		c0.515,0.75,1.188,1.331,2.255,1.53c1.305-0.135,2.485-0.524,3.506-0.765c0.357-0.91,0.795-1.538,1.253-2.295
		c0.339-0.584,0.5-0.735,0.5-1.785c0.375-0.762,0.328-2.311,0-3.312c-0.047-1.298-0.345-1.983-0.5-3.314
		c0-1.236,0.058-2.412,0.25-3.314c0.515-0.604,0.85-1.594,1.253-2.294c0.683-0.834,1.315-1.147,2.254-1.529
		c0.792-0.269,2.101-0.255,3.256-0.255c0.612-0.188,1.63-0.125,1.252-0.51c-0.324,0.33-1.57,0.436-0.25,0.51
		c0.719-0.496,2.03-0.725,2.755-1.02c1.07-0.164,1.711-0.534,2.755-0.765c0.781-0.466,1.655-0.688,2.756-1.021
		c0.906-0.351,1.927-0.694,3.005-1.02c1.153-0.551,1.864-0.862,3.006-1.02c0.785-0.422,1.771-0.51,3.006-0.51
		c1.157,0.756,1.765,1.348,2.755,2.295c0.474,0.709,0.896,1.135,1.252,2.039c0.802,0.555,1.23,0.965,2.755,1.02
		c1.207,0,1.686,0.21,2.004-0.765c0.659-0.598,1.001-1.655,1.753-2.294c0.748-0.748,1.671-1.127,2.505-1.529
		c0.94-0.262,1.7-0.607,3.006-0.766c0.869-0.322,1.767-0.391,2.755,0.256c0.735,1.045,1.565,2.111,2.505,3.313
		c0.637,0.42,1.417,0.51,2.504,0.51c0.765-0.389,2.343-0.255,3.507-0.255c1.025,0.301,1.474,0.988,2.505,1.274
		c0.576,0.06,0.887,0.255,1.503,0.255c1.832,0.242,2.595,0.059,4.007-0.255h3.507c1.23,0.047,1.895,0.255,3.256,0.255
		c0.761,0.471,2.065,0.688,3.006,1.02c1.186,0.285,1.412,0.742,2.505,1.275c0.708,0.359,2.161,0.254,3.256,0.254
		c1.308-0.158,2.177-0.385,3.256-0.765c0.95-0.235,1.353-0.479,1.753-1.274c0.623-0.431,1.482-1.12,2.004-1.784
		c0.688-0.476,1.285-1.084,1.753-1.784c0.675-0.453,1.809-1.607,2.255-2.295c0.64-0.521,1.324-1.613,1.753-2.294
		c0.55-0.831,1.243-1.312,1.753-2.549c0.391-1.192,0.442-2.126,0.752-3.313c0.258-0.964,0.731-1.779,1.002-3.06
		c0.509-1.116,0.916-2.204,1.252-3.06c0.615-0.701,1.022-1.551,1.753-2.294c0.419-0.659,0.978-0.995,1.503-1.529
		c0.597-0.579,1.497-1.007,2.505-1.274c1.034-0.287,1.481-0.749,2.003-1.53c0.947-0.321,1.506-0.736,2.756-1.02
		c1.099-0.332,1.998-0.542,3.006-0.765h3.506c1.264,0,2.351,0.115,3.507,0.255c1.142,0.332,2.213,0.621,3.256,0.765
		c0.717,0.345,1.909,0.976,2.505,1.529c0.748,0.503,1.564,1.314,2.004,2.04c0.327,1,0.859,1.441,1.502,2.294
		c0.669,0.887,1.232,1.447,2.505,2.039c1.014,0.24,1.844,0.674,3.006,0.766c1.33,0,2.136,0.167,3.256,0.254
		c1.226,0,2.421,0.021,3.507-0.254c1.094-0.643,1.485-0.814,2.254-1.785c1.01-0.506,1.743-0.906,3.006-1.02
		c0.829-0.184,1.857-0.254,3.005-0.254c0.65,0.454,1.341,0.625,1.754,1.274c0.659,0.477,0.703,0.734,1.753,0.766
		c0.717,0.426,1.771,0.629,2.755,0.765h3.507h-3.507h3.507c0.96-0.821,1.252-0.728,1.252-1.784c0.775-0.633,1.16-1.519,2.004-2.55
		c0.458-0.756,0.896-1.385,1.252-2.294c0.273-0.835,0.614-2.116,0.752-3.059c0.316-0.846,0.614-2.146,0.751-3.314
		c0.304-1.178,0.501-2.231,0.501-3.569v-3.569c-0.015-1.26-0.2-2.142-0.501-3.059c-0.396-1.126-1.061-1.949-1.503-2.804
		c-0.741-0.596-1.656-1.432-2.254-2.04c-1.139-0.699-2.002-1.208-3.005-1.784c-1.098-0.691-2.151-1.292-3.007-1.785
		c-0.502-0.572-1.318-1.357-1.752-1.785c-0.344-0.698-0.344-2.361,0-3.059c0.029-1.062,0.14-1.673,0.751-2.294
		c1.141-0.417,1.902-0.966,2.755-1.53c0.554-0.789,1.421-0.94,2.505-1.784c1.084-0.484,1.698-0.738,2.505-1.529
		c1.171-0.398,2.265-1.208,3.255-1.53c0.537-0.66,1.541-1.206,2.756-1.529c0.868-0.602,1.908-1.243,2.755-1.53
		c1.18-0.636,2.056-0.86,3.256-1.529c1.225-0.312,2.318-0.872,3.507-1.274c0.305-0.379,0.668-0.66,1.252-0.765
		c1.56-0.094,2.859-0.264,3.757-1.02c1.008-0.363,1.111-1.099,1.754-1.785c0.46-0.843,0.963-1.217,1.252-2.294
		c0.797-0.871,0.356-1.126-1.002-1.275c-0.428-0.435-0.812,0.004-1.002-0.764c-0.898-0.411-1.134-1.124-1.753-1.785
		c-0.379-1.054-0.37-1.527,0.751-2.04c0.699-0.483,1.692-0.646,2.255-1.274c1.043-0.16,1.836-0.619,2.755-1.02
		c1.361-0.099,2.085-0.412,3.256-0.765c0.996-0.542,1.644-0.859,2.505-1.274c1.029-0.454,2.258-1.094,3.256-1.53
		c0.897-0.609,2.038-1.205,3.256-1.529c0.897-0.464,2-0.829,3.006-1.275c0.857-0.206,2.005-0.557,2.755-1.02
		c1.154-0.224,2.404-0.647,3.256-1.02c0.838-0.385,1.825-0.87,2.505-1.274c1.037-0.457,1.778-1.003,2.755-1.275
		c0.592-0.574,1.39-0.981,2.254-1.274c0.705-0.666,2.205-1.586,3.006-2.039c0.76-0.366,1.647-0.739,2.255-1.275
		c0.582-0.066,0.418-0.189,1.001-0.255c1.826-0.559,2.758-0.767,3.758-1.785c0.776-0.374,1.574-0.78,2.254-1.274
		c0.835-0.675,1.501-1.286,2.003-2.039c0.912-0.33,1.411-0.972,2.255-1.53c0.873-0.355,1.643-0.51,3.005-0.51
		c1.096,0,2.548,0.106,3.257-0.254c1.571-0.019,1.98-0.403,3.005-1.02c0.34-0.973,1.063-1.459,2.004-2.04
		c0.555-0.515,1.955-1.286,2.505-1.784c1.084-0.528,1.553-1.202,2.505-2.04c0.735-0.805,1.656-1.55,2.504-2.039
		c1.053-0.467,1.808-0.677,2.755-1.02c1.187-0.215,2.378-0.437,3.505-0.765c1.281-0.1,1.733-0.481,2.759-0.765
		c0.709-0.688,1.139-1.035,2.003-2.039c0.423-1.171,1.049-1.6,2.252-1.785c1.21-0.644,2.182-0.72,3.01-1.53
		c0.847-0.863,1.431-1.834,2.253-2.804c0.465-1.098,0.899-1.759,1.001-3.059c-0.018-1.564-0.352-1.79-1.001-2.804
		c-0.626-0.914-1.02-1.495-1.502-2.294c-0.78-0.449-1.889-0.895-2.759-1.274c-1.192,0.093-1.925,0.366-2.754,0.765
		c-0.852,0.701-1.442,1.278-2.002,2.294c-0.382,0.821-0.638,1.726-1.001,2.804c-0.478,0.693-1.615,1.352-2.51,1.785
		c-1.049,0.467-1.8,0.677-2.753,1.02c-1.186,0.417-1.739,0.778-3.005,1.275c-0.74,0.357-1.766,0.905-2.505,1.274
		c-1.089,0.66-2.133,1.174-3.005,1.53c-1.111,0.642-1.746,0.994-2.756,1.274c-1.139,0.689-2.241,1.212-3.256,1.785
		c-0.842,0.421-1.664,0.967-2.755,1.529c-0.886,0.196-2.139,0.375-3.256,0.51h-3.758c-1.07-0.251-2.344-0.47-3.506-1.02
		c-1.247-0.658-1.857-1.074-2.755-1.785c-0.549-1.087-0.734-1.607-0.752-3.059c-0.778-0.396-1.854-0.496-3.005-0.51
		c-1.271,0-2.449-0.048-3.257,0.51c-1.09,0.165-2.007,0.614-2.755,1.274c-1.153,0.558-1.906,1.23-2.755,1.784
		c-0.883,0.542-2.024,1.353-3.006,1.785c-0.922,0.402-2.363,0.842-3.506,1.274c-1.471,0.43-2.535,0.904-4.008,1.02
		c-1.257,0.579-2.243,0.751-3.506,1.274c-1.283,0.485-2.188,0.843-3.507,1.274c-0.87,0.45-2.44,1.202-3.257,1.785
		c-1.495,0.761-2.59,1.408-3.757,2.039c-1.172,0.501-2.021,0.977-3.256,1.53c-0.606,0.55-1.809,0.981-2.505,1.53
		c-1.117,0.284-2.4,0.753-3.005,1.274c-0.988,0.121-1.537,0.386-2.004,1.02c-0.893,1.09-0.502,1.02-1.503,1.02
		c-0.855,0.529-2.187,0.51-3.507,0.51c-1.336-0.037-2.388-0.255-3.757-0.255c-1.175-0.213-2.249-0.464-3.506-0.51h-3.507h-3.506
		h-3.507h-4.008h-3.506h-3.507c-1.331,0-2.136,0.167-3.256,0.255c-1.246,0.091-2.218,0.367-3.256,0.51
		c-1.129,0.173-1.645,0.604-2.505,1.02c-0.791,0.381-1.588,0.766-2.505,1.02c-1.229,0.662-2.645,1.009-4.007,1.274
		c-1.029,0.486-2.489,0.746-3.257,1.275c-1.174,0.092-1.942,0.415-3.256,0.51c-1.115,0.514-2.034,0.787-3.006,1.02
		c-0.9,0.306-1.767,0.495-3.005,0.51c-1.159,0.159-1.798,0.491-3.006,0.765c-0.43,0.368-1.115,0.63-1.753,0.764
		c-1.472,0.71-1.954,0.765-3.507,0.765h-3.507c-1.67-0.165-3.328-0.377-5.009-0.765c-1.715-0.083-3.35-0.304-5.01-0.509h-3.757
		h-3.757h-3.506c-1.324-0.048-2.499-0.306-3.758-0.51c-1.177-0.214-2.422-0.318-3.506-0.764c-1.558-0.084-3.133-0.298-4.508-0.765
		c-1.253-0.227-2.454-0.655-3.757-0.765c-0.724-0.447-2.143-0.596-2.756-1.02c-1.145-0.09-2.097-0.452-2.755-1.02
		c-1.171-0.177-1.851-0.703-3.006-1.02c-1.04-0.642-2.297-0.856-3.757-1.53c-1.244-0.271-2.488-0.719-3.757-1.02
		c-0.999-0.352-2.217-0.687-3.006-1.274c-1.106-0.307-1.742-0.639-3.005-1.02c-0.59-0.534-1.751-1.094-2.505-1.529
		c-0.548-0.497-1.987-1.351-2.755-1.785c-0.816-0.961-1.639-1.91-2.755-3.059c-0.775-0.86-1.659-1.551-2.505-2.04
		c-1.086-0.46-2.316-1.119-3.006-1.529c-0.948-0.263-1.715-0.85-2.254-1.529c-0.854-0.493-1.412-0.932-2.254-1.529
		c-1.31,0.504-1.447,0.255-2.756,0.255c-1.492-0.125-2.591-0.172-4.007,0c-1.225,0.146-2.423,0.254-3.758,0.254h-3.506
		c-1.585,0.02-1.841,0.229-2.255,1.53c-0.729,0.816-1.033,1.771-1.753,2.294c-0.618,0.798-1.51,1.341-2.505,1.785
		c-1.236,0.871-1.609,1.185-2.254,2.294c-0.82,0.732-1.504,1.778-2.004,2.549c-0.454,0.792-0.76,1.525-1.001,2.804
		c0,1.22,0.098,2.503-0.251,3.569c0,1.22,0.099,2.503-0.251,3.569v3.569v3.569c0.522,0.781,1.226,1.081,1.503,2.294
		c0.372,1.007-0.316,0.646-1.001,1.274h-3.507h-3.507c-1.277,0-2.311-0.168-3.507-0.255c-1.012-0.184-2.493-0.251-3.255-0.509
		h-3.507c-1.246-0.091-2.218-0.367-3.257-0.51c-1.45-0.281-2.454-0.708-3.757-1.53c-1.333-0.291-2.352-0.802-3.507-1.529
		c-1.243-0.332-2.229-0.997-3.506-1.275c-0.859-0.414-1.474-0.815-2.505-1.274c-0.605-0.845-1.19-1.315-2.505-1.53
		c-1.008-0.527-1.861-0.51-3.255-0.51c-1.306,0.158-2.065,0.503-3.007,0.765c-1.043,0.48-2.403,0.889-3.255,1.274
		c-0.852,0.347-1.626,0.812-2.505,1.274c-0.674,0.882-1.067,1.409-1.503,2.294c-0.334,0-0.251-0.085-0.251,0.255
		c-1.349,0.049-2.768,0-4.257,0c-0.707,0.359-2.082,0.437-3.006,0.51c-0.734,0.577-1.602,1.078-2.254,1.529
		c-0.433,0.879-0.734,1.114-0.752,2.549c0.054,1.523,0.591,1.966,1.002,3.059c-0.302,1.391-0.838,1.506-2.004,1.785
		c-0.886,0.196-2.042,0.255-3.256,0.255h-3.757h-3.757c-1.443,0-2.121,0.016-2.756-0.764c-0.436-0.864-0.477-1.966-0.751-2.804
		c-0.746-1.033-1.079-1.726-2.254-2.549c-0.259-0.79-0.879-1.949-1.252-2.804c-0.402-0.862-0.712-1.623-1.503-2.294
		c-0.833-0.787-1.776-1.297-2.505-2.039c-0.838-0.547-1.511-1.001-3.006-1.02c-1.214,0-2.37,0.059-3.256,0.255
		c-0.61,0.539-1.632,1.115-2.505,1.785c-0.692,0.939-1.306,1.625-2.254,2.549c-1.068,0.997-2.132,1.603-3.006,2.039
		c-0.8,0.408-1.616,0.911-2.254,1.785c-0.744,0.33-1.105,0.884-1.503,1.784c-0.653,0.593-1.028,1.582-1.253,2.549
		c-0.408,1.248-0.464,2.681-0.5,4.079v3.569c-0.396,0.479-0.61,0.989-1.252,1.53c-0.613,0.556-1.535,1.164-2.255,1.529
		c-0.698,0.913-1.133,1.45-1.252,2.804c0,1.114-0.104,2.593,0.25,3.314c0.507,0.722,1.528,1.22,2.505,1.784
		c0.938,0.339,1.425,1.079,2.004,2.04c1.072,0.49,0.94,0.944,2.254,1.02c0.795,0.636,2.016,0.836,3.006,1.274
		c1.002,0.278,1.502,0.742,2.504,1.02c0.649,0.86,1.364,1.418,1.754,2.804c0.105,0.891,0.451,1.784,0,2.549
		c-1.021,0.618-2.39,1.012-3.006,1.53c-0.811,0.043-0.75,0.234-1.252,0.509c-0.011,1.704-0.233,2.572-0.501,3.824
		c-0.086,1.14-0.251,1.96-0.251,3.314v3.569c0.533,1.132,1.237,1.343,2.004,2.039c0.764,0.555,1.001,1.209,1.252,2.294
		c0.43,0.997,0.888,1.829,1.253,2.804c0.456,0.977,0.752,1.863,0.752,3.314c-0.126,1.396-0.699,1.636-1.754,2.294
		c-0.56,0.69-0.376,1.912-0.751,3.059c0,1.175-0.014,2.508,0.25,3.314C128.198,256.679,128.093,256.922,128.27,257.88L128.27,257.88
		z"/>
	<g id="g588" transform="matrix(.59595 0 0 .60655 -117.78 -72.873)">
		<path id="path569" fill="#009A00" d="M460.16,634.921l-0.683-0.684c1.55,1.55,0.803,0.98-0.683-2.731
			c-0.144-3.937-1.098-4.571-3.412-6.145c-2.715-0.903-3.875-2.064-4.78-4.779c-1.735-1.433-3.041-3.352-4.097-5.461
			c-1.876-1.275-3.503-2.904-4.778-4.78c-1.876-1.277-3.503-2.903-4.78-4.779c-2.594-0.906-4.306-2.752-7.51-4.096
			c-1.803-1.72-3.497-2.568-6.145-4.098c-2.963-1.418-3.132-2.446-6.827-2.731c-1.131,1.243-2.92,0.755-3.413,2.731
			c0.149,4.046,0.954,4.894,2.73,8.193c0.138,3.729,1.141,5.484,2.732,8.193c1.939,1.356,3.431,3.767,5.462,5.461
			c2.168,1.475,3.03,3.04,6.145,4.779c1.627,2.035,4.347,3.127,6.827,4.779c3.054,1.179,5.56,2.088,7.51,3.415
			c2.74,0.644,4.611,1.682,6.827,2.732C454.561,635.227,455.895,635.594,460.16,634.921z"/>
		<path id="path570" fill="#009A00" d="M474.5,654.03l-0.682-0.683c1.621,1.621,0.847,0.958-1.367-2.731
			c-2.524-2.391-3.069-4.221-6.827-4.78c-2.006-0.802-5.262-1.298-7.51-2.048c-3.887,0-5.668-0.415-8.877-1.365
			c-2.292-0.625-5.193-1.737-7.51-2.731c-2.745-0.409-5.588-1.481-8.192-2.048h-9.558c-3.068,0.721-4.793,0.753-5.462,4.096
			c1.399,1.695,3.248,3.173,4.778,4.779c0.864,2.999,2.946,3.714,4.778,5.463c3.161,1.093,3.803,1.911,7.51,2.048
			c3.143,1.048,5.429,1.323,8.877,1.365c3.658,0,6.288,0.742,9.558,1.365c2.723,0.369,5.396,0.683,8.875,0.683
			c2.966,0,6.197-0.018,8.193-0.683c4.301-3.441,3.413-4.188,3.413,0.683c0.456,0.456,0.911,0.91,1.367,1.365"/>
		<path id="path571" fill="#009A00" d="M497.71,664.27h-0.682c1.842,0,0.906,0.045-2.732-0.681
			c-3.405-0.974-5.339-1.919-8.875-2.051c-2.102-1.227-4.68-1.364-8.193-1.364h-9.558c-3.381,0.259-4.813,1.104-8.193,1.364
			c-1.794,1.051-5.358,1.913-7.51,2.732c-1.921,1.306-3.559,2.929-6.145,4.098c0.596,3.391,2.479,4.667,4.78,6.144
			c2.311,0.924,4.685,1.797,8.192,2.048c3.356,0.126,5.163,0.683,8.877,0.683c3.479,0,6.152-0.314,8.877-0.683
			c2.265-1.072,4.193-2.199,7.51-2.731c1.652-1.433,4.072-2.433,6.143-3.413c1.834-0.869,4.329-1.67,6.145-2.731l-6.145,2.731
			C492.034,669.546,494.529,668.746,497.71,664.27L497.71,664.27z"/>
		<path id="path573" fill="#009A00" d="M530.988,680.15v-0.58c0,1.625,0.085,0.76-1.365-2.327c-2.527-1.133-5.558-1.935-7.51-2.906
			c-2.984,0-6.945-0.242-8.875,0.581c-3.448,0.034-5.734,0.27-8.877,1.162c-2.995,0.385-4.723,1.277-6.827,2.325
			c-2.378,1.093-5.824,2.499-8.877,3.489c-2.697,1.6-3.612,2.541-6.827,4.07c-2.025,1.89-4.098,3.024-5.462,4.651
			c-0.606,1.963,0.039,4.276,2.732,5.231c1.701,1.198,4.315,1.823,6.827,2.326c3.187-0.101,6.001-0.477,8.193-1.744
			c3.382-0.382,5.393-1.227,8.192-1.745c2.397-0.725,4.69-1.418,7.51-1.744c1.953-1.129,5.416-2.101,7.51-2.906
			c3.43-1.183,5.622-2.743,8.193-4.07c1.226-1.208,2.863-2.513,4.78-2.908l-4.78,2.908
			C526.752,684.758,528.389,683.452,530.988,680.15L530.988,680.15z"/>
		<path id="path574" fill="#009A00" d="M557.11,693.175c-0.128-0.029-3.176-1.214-5.462-1.214c-2.024-1.051-5.298-1.262-8.192-2.426
			c-3.731,0-6.271,0.372-8.193,1.821c-2.838,0.338-5.375,1.08-7.51,2.425c-2.658,0.555-5.07,1.076-7.51,2.426
			c-3.294,1.228-4.744,2.381-6.828,3.64c-1.404,1.51-4.441,2.354-6.143,3.639c-1.531,1.645-1.527,3.819-0.683,6.065
			c1.747,0.955,4.736,1.905,6.827,3.033c3.051,0.485,6.161,0.605,9.558,0.605c3.032-0.208,5.588-0.659,7.51-1.819
			c3.435-1.47,4.349-2.555,6.828-4.246c1.434-1.542,3.833-2.782,6.145-3.639c1.742-1.341,3.856-2.322,6.827-3.033
			c1.663-1.407,3.194-2.769,4.778-4.246C556.971,696.207,555.66,696.395,557.11,693.175L557.11,693.175z"/>
		<path id="path575" fill="#009A00" d="M586.555,699.143c-0.164-0.021-3.854-0.591-6.145-0.591c-1.93-0.837-5.891-0.593-8.875-0.593
			c-3.762,0.121-4.924,0.795-6.828,2.367c-1.934,1.03-4.27,1.958-6.143,3.549c-2.394,1.272-4.551,3.024-6.828,4.141
			c-2.504,0.931-4.664,1.995-7.51,2.367c-1.372,1.439-3.777,2.682-5.462,4.141c-1.875,1.217-2.669,1.803-2.732,4.73
			c-1.39,0.972-2.329,2.879-2.047,3.55c2.763,1.228,5.047,1.736,8.875,1.776c3.648,0.035,6.209,0.724,9.558,0
			c3.413-0.878,4.778-1.491,8.193-2.367c1.742-1.967,3.051-3.284,5.462-4.733c1.303-1.658,2.863-3.185,5.462-4.139
			c1.948-1.534,4.831-3.231,6.827-4.143c1.222-1.48,3.603-3.056,5.463-4.139C585.192,703.052,585.582,702.719,586.555,699.143
			L586.555,699.143z"/>
		<path id="path577" fill="#009A00" d="M589.88,693.629v-10.922v-9.559c-3.171-1.876-3.644-2.996-4.778-6.827
			c-1.683-2.731-2.969-4.448-4.098-6.828c-1.58-1.658-2.884-3.813-3.413-6.826c-1.304-2.528-2.112-5.072-4.778-6.146
			c-2.415-0.525-5.567-0.684-8.875-0.684c-4.523,0.169-4.098,0.966-4.098,5.463c0.318,3.497,1.434,4.413,2.732,7.511
			c1.003,2.117,2.093,4.292,3.413,6.144c1.021,2.264,2.624,5.175,4.097,6.826c1.196,2.512,2.915,4.788,3.413,7.512
			c1.871,2.373,3.164,4.45,4.78,6.144c1.337,2.792,2.343,4.37,4.778,5.461C584.445,692.987,586.799,693.159,589.88,693.629
			L589.88,693.629z"/>
		<path id="path578" fill="#009A00" d="M557.11,682.71h0.683c-1.909,0-0.895,0.085,2.73-1.365c0.967-1.932,0.683-5.889,0.683-8.874
			c0-3.888-0.642-5.543-1.365-8.195c-1.242-2.964-2.256-4.354-2.732-7.509c-1.021-2.156-2.05-4.328-2.732-6.827
			c-1.226-1.806-2.104-4.529-2.73-6.827c-2.304-1.307-4.433-2.618-6.827-3.415c-2.171-1.029-4.193-2.562-6.828-3.415
			c-3.425,0.628-3.812,1.758-4.097,5.463c-0.787,2.755,0.293,5.244,1.367,7.511c1.127,2.694,1.801,5.426,3.413,7.509
			c0.985,3.062,1.986,4.131,2.048,7.509c1.175,2.011,1.667,4.97,2.732,7.511c1.37,3.17,2.646,4.539,4.778,6.828
			C551.15,680.596,552.151,681.428,557.11,682.71L557.11,682.71z"/>
		<path id="path579" fill="#009A00" d="M529.8,673.829c0-0.325,2.168-1.668,3.413-3.413c1.021-2.042,0.895-6.191,0-8.874
			c-1.295-3.201-2.705-5.598-3.413-8.193c-0.719-2.159-0.683-5.727-0.683-8.876c-0.623-2.867-1.648-4.988-2.73-8.192
			c-0.883-2.206-2.602-4.967-3.413-7.511c-1.065-1.006-2.27-3.07-3.415-4.096c-1.334-1.093-1.381-1.367-4.095-1.367
			c-3.63,0.135-5.455,0.47-7.512,2.732c-0.719,2.159-0.682,5.727-0.682,8.876c0.044,3.761,0.395,5.542,2.048,8.192
			c1.206,2.869,3.736,5.664,5.462,8.192c1.414,2.396,2.315,4.675,4.097,6.147c0.464,3.075,1.621,4.482,2.73,6.826
			c0.464,3.075,1.621,4.482,2.732,6.827c1.786,0.2,0.952,0.634,2.048,1.365l-2.048-1.365c1.786,0.2,0.952,0.634,5.462,2.732V673.829
			z"/>
		<path id="path581" fill="#009A00" d="M502.49,653.349c0.416-0.939,2.951-4.592,3.413-6.827c-0.046-3.874-0.498-6.516-2.732-8.876
			c-0.554-2.388-1.894-5.997-2.73-8.193c0-3.148,0.038-6.715-0.683-8.874c0-3.587-0.495-5.743-1.365-8.193
			c-1.542-2.269-3.204-2.932-6.827-4.098c-2.938-0.979-4.968-0.272-8.193,0.684v9.559c0.043,3.613,0.688,6.192,2.048,8.192
			c1.109,2.343,2.181,4.015,3.413,6.827c0.133,3.713,1.116,5.63,1.365,8.878c0.269,3.491,0.596,5.297,2.732,7.509
			c2.907,1.375,3.794,2.703,6.145,3.413l-6.145-3.413C495.839,651.311,496.725,652.639,502.49,653.349z"/>
		<path id="path582" fill="#009A00" d="M477.92,638.331v-0.683c0,1.908-0.084,0.894,1.367-2.731c0.739-2.961,0.682-6.218,0.682-9.56
			c-0.211-2.75-0.61-5.928-1.365-8.192c-0.624-3.494-1.339-5.682-2.048-8.874c-0.488-2.774-2.366-5.835-3.413-8.195
			c-0.67-2.009-1.354-6.199-2.048-8.192c-0.49-2.552-1.716-3.355-4.097-4.096c-1.87-0.935-6.324-0.935-8.193,0
			c-2.009,0.696-2.006,2.283-2.73,4.096c-0.254,3.532-0.854,6.144,0,9.559c1.155,1.975,2.376,4.072,3.413,6.144
			c1.342,2.423,2.686,6.059,4.097,8.193c1.027,3.466,1.406,5.068,3.413,8.192c0.737,2.214,1.901,4.874,3.413,6.828
			c0.972,2.43,2.391,4.152,3.413,6.828C475.667,637.648,474.285,637.603,477.92,638.331z"/>
		<path id="path583" fill="#009A00" d="M618.131,711.13h-0.595h-2.378h-8.321c-1.735,1.649-2.338,2.595-5.349,2.972
			c-1.521,1.317-2.961,2.534-5.349,2.971c-2.104,0.459-4.846,0.596-7.728,0.596c-3.523-0.043-4.732,0.108-5.349-2.972
			c0.056-3.064,0.2-3.235,2.973-3.566c1.483-1.227,3.97-1.806,6.537-2.376c1.963-0.699,4.365-1.311,6.538-1.784
			c2.107-0.749,4.118-1.513,5.943-2.378c-0.454-1.815-1.921-1.417-3.566-0.594c-2.135,0-4.682,0.163-5.945-0.596
			c-1.481-2.203-2.286-2.925-5.942-2.969c-3.471-0.042-4.062-0.953-7.133-1.19c-2.94-0.037-4.995-0.477-7.133-1.19
			c-3.136-0.224-5.245-0.702-7.725-1.782c-0.798-0.797,1.093-0.961,2.376-1.19c1.758-1.195,3.618-1.674,6.538-1.782h8.321
			c3.05,0,5.394,0.491,8.321,0.594c2.384,0.826,4.891,1.257,6.538,2.378c2.15,0.716,3.505,1.979,4.755,3.566
			c2.091,0.57,4.195,1.273,6.537,1.782c2.74,0,5.847-0.031,7.726,0.596C620.086,704.484,619.009,708.2,618.131,711.13
			L618.131,711.13z"/>
	</g>
	<g id="g601" transform="matrix(-.59595 0 0 .60655 620.4 -72.512)">
		<path id="path602" fill="#009A00" d="M460.161,634.92l-0.683-0.683c1.55,1.549,0.801,0.98-0.683-2.732
			c-0.144-3.935-1.098-4.569-3.413-6.144c-2.714-0.905-3.874-2.064-4.778-4.779c-1.735-1.433-3.041-3.352-4.097-5.463
			c-1.876-1.275-3.503-2.903-4.78-4.779c-1.875-1.277-3.502-2.903-4.778-4.78c-2.594-0.905-4.306-2.75-7.51-4.096
			c-1.803-1.718-3.497-2.566-6.145-4.096c-2.963-1.42-3.132-2.447-6.827-2.731c-1.131,1.243-2.92,0.753-3.415,2.731
			c0.151,4.046,0.955,4.894,2.732,8.192c0.138,3.729,1.141,5.485,2.732,8.195c1.939,1.356,3.43,3.767,5.462,5.461
			c2.168,1.475,3.03,3.04,6.145,4.779c1.627,2.035,4.347,3.127,6.827,4.779c3.054,1.179,5.558,2.087,7.51,3.415
			c2.74,0.644,4.611,1.681,6.827,2.731C454.561,635.227,455.895,635.593,460.161,634.92z"/>
		<path id="path603" fill="#009A00" d="M474.501,654.029l-0.682-0.681c1.621,1.621,0.847,0.958-1.367-2.732
			c-2.524-2.389-3.069-4.22-6.827-4.779c-2.006-0.802-5.262-1.298-7.51-2.048c-3.887,0-5.668-0.415-8.877-1.365
			c-2.293-0.626-5.193-1.739-7.51-2.731c-2.746-0.409-5.588-1.483-8.193-2.048h-9.557c-3.068,0.721-4.793,0.754-5.463,4.096
			c1.401,1.694,3.249,3.172,4.78,4.779c0.862,2.998,2.946,3.713,4.778,5.461c3.161,1.095,3.803,1.913,7.51,2.048
			c3.143,1.05,5.429,1.323,8.877,1.367c3.658,0,6.286,0.742,9.558,1.364c2.723,0.369,5.396,0.684,8.875,0.684
			c2.966,0,6.197-0.018,8.193-0.684c4.301-3.439,3.413-4.186,3.413,0.684c0.456,0.456,0.911,0.91,1.365,1.364"/>
		<path id="path604" fill="#009A00" d="M497.711,664.269h-0.682c1.842,0,0.906,0.045-2.732-0.681
			c-3.405-0.974-5.339-1.918-8.877-2.05c-2.101-1.227-4.68-1.365-8.192-1.365h-9.558c-3.381,0.261-4.813,1.106-8.193,1.365
			c-1.794,1.05-5.358,1.913-7.51,2.731c-1.921,1.307-3.559,2.93-6.145,4.097c0.596,3.392,2.479,4.667,4.78,6.146
			c2.311,0.924,4.685,1.797,8.192,2.048c3.356,0.124,5.163,0.683,8.877,0.683c3.479,0,6.152-0.316,8.875-0.683
			c2.266-1.074,4.195-2.199,7.51-2.731c1.653-1.433,4.074-2.434,6.145-3.415c1.834-0.868,4.329-1.67,6.145-2.731l-6.145,2.731
			C492.034,669.547,494.53,668.745,497.711,664.269L497.711,664.269z"/>
		<path id="path605" fill="#009A00" d="M530.989,680.15v-0.58c0,1.623,0.085,0.76-1.365-2.327c-2.527-1.135-5.558-1.937-7.51-2.908
			c-2.984,0-6.945-0.24-8.875,0.581c-3.449,0.035-5.734,0.271-8.877,1.162c-2.995,0.386-4.723,1.278-6.827,2.326
			c-2.378,1.093-5.824,2.497-8.877,3.489c-2.697,1.6-3.612,2.541-6.827,4.07c-2.025,1.889-4.098,3.024-5.462,4.65
			c-0.606,1.963,0.039,4.276,2.73,5.233c1.703,1.198,4.316,1.823,6.828,2.325c3.186-0.1,6.001-0.477,8.192-1.742
			c3.384-0.383,5.393-1.227,8.193-1.745c2.396-0.724,4.69-1.42,7.51-1.745c1.953-1.127,5.416-2.099,7.51-2.906
			c3.43-1.183,5.621-2.742,8.193-4.069c1.226-1.209,2.861-2.515,4.778-2.908l-4.778,2.908
			C526.753,684.757,528.388,683.451,530.989,680.15L530.989,680.15z"/>
		<path id="path606" fill="#009A00" d="M557.111,693.174c-0.128-0.027-3.177-1.212-5.462-1.212
			c-2.024-1.053-5.299-1.264-8.193-2.426c-3.731,0-6.271,0.372-8.193,1.819c-2.838,0.34-5.375,1.08-7.51,2.426
			c-2.656,0.554-5.068,1.076-7.508,2.426c-3.295,1.228-4.744,2.38-6.828,3.639c-1.406,1.512-4.441,2.355-6.145,3.64
			c-1.529,1.644-1.526,3.819-0.682,6.063c1.747,0.956,4.736,1.906,6.827,3.033c3.051,0.485,6.161,0.607,9.558,0.607
			c3.031-0.208,5.588-0.659,7.51-1.821c3.435-1.468,4.347-2.554,6.827-4.244c1.434-1.542,3.833-2.784,6.145-3.639
			c1.742-1.343,3.856-2.323,6.827-3.033c1.663-1.409,3.195-2.769,4.78-4.246C556.971,696.207,555.661,696.394,557.111,693.174
			L557.111,693.174z"/>
		<path id="path607" fill="#009A00" d="M586.556,699.142c-0.164-0.021-3.856-0.591-6.145-0.591
			c-1.932-0.836-5.891-0.591-8.875-0.591c-3.762,0.121-4.926,0.794-6.828,2.365c-1.935,1.032-4.27,1.959-6.143,3.55
			c-2.394,1.272-4.552,3.024-6.828,4.141c-2.506,0.929-4.664,1.993-7.51,2.367c-1.372,1.438-3.779,2.682-5.462,4.139
			c-1.875,1.219-2.669,1.805-2.732,4.732c-1.39,0.972-2.329,2.879-2.048,3.549c2.763,1.23,5.047,1.736,8.877,1.776
			c3.646,0.037,6.207,0.726,9.558,0c3.413-0.877,4.777-1.489,8.192-2.365c1.744-1.967,3.053-3.284,5.463-4.733
			c1.301-1.658,2.861-3.185,5.462-4.141c1.948-1.534,4.829-3.23,6.827-4.141c1.221-1.481,3.602-3.056,5.462-4.141
			C585.193,703.051,585.581,702.72,586.556,699.142L586.556,699.142z"/>
		<path id="path608" fill="#009A00" d="M589.881,693.63v-10.922v-9.559c-3.171-1.876-3.646-2.996-4.78-6.828
			c-1.683-2.729-2.969-4.447-4.097-6.827c-1.581-1.66-2.884-3.812-3.413-6.828c-1.304-2.528-2.114-5.07-4.78-6.145
			c-2.415-0.525-5.565-0.683-8.875-0.683c-4.521,0.167-4.097,0.966-4.097,5.463c0.318,3.497,1.432,4.411,2.732,7.511
			c1.003,2.117,2.091,4.292,3.413,6.144c1.021,2.262,2.624,5.175,4.097,6.827c1.195,2.512,2.914,4.787,3.413,7.512
			c1.871,2.373,3.164,4.45,4.778,6.144c1.337,2.79,2.343,4.37,4.78,5.461C584.445,692.987,586.8,693.159,589.881,693.63
			L589.881,693.63z"/>
		<path id="path609" fill="#009A00" d="M557.111,682.71h0.682c-1.907,0-0.893,0.084,2.732-1.365
			c0.965-1.932,0.683-5.891,0.683-8.876c0-3.887-0.644-5.542-1.367-8.193c-1.242-2.966-2.255-4.354-2.73-7.509
			c-1.022-2.157-2.05-4.329-2.732-6.827c-1.227-1.806-2.104-4.531-2.73-6.828c-2.306-1.306-4.433-2.616-6.828-3.415
			c-2.171-1.027-4.193-2.56-6.827-3.413c-3.425,0.628-3.812,1.757-4.097,5.461c-0.788,2.755,0.293,5.245,1.365,7.511
			c1.129,2.694,1.801,5.427,3.415,7.511c0.983,3.062,1.986,4.131,2.048,7.509c1.175,2.009,1.665,4.969,2.73,7.511
			c1.372,3.17,2.646,4.539,4.78,6.828C551.149,680.596,552.151,681.429,557.111,682.71L557.111,682.71z"/>
		<path id="path610" fill="#009A00" d="M529.801,673.829c0-0.327,2.168-1.67,3.413-3.413c1.019-2.042,0.895-6.192,0-8.876
			c-1.295-3.199-2.705-5.598-3.413-8.192c-0.721-2.161-0.683-5.729-0.683-8.876c-0.623-2.869-1.65-4.988-2.732-8.193
			c-0.882-2.206-2.601-4.965-3.412-7.511c-1.065-1.005-2.27-3.07-3.415-4.096c-1.336-1.092-1.381-1.365-4.095-1.365
			c-3.63,0.135-5.455,0.47-7.512,2.731c-0.719,2.161-0.682,5.728-0.682,8.878c0.044,3.761,0.395,5.54,2.048,8.192
			c1.206,2.869,3.736,5.664,5.462,8.192c1.414,2.396,2.315,4.676,4.095,6.145c0.465,3.077,1.622,4.484,2.732,6.827
			c0.464,3.077,1.621,4.484,2.732,6.828c1.786,0.198,0.952,0.634,2.047,1.365l-2.047-1.365
			C526.125,671.297,525.291,671.733,529.801,673.829L529.801,673.829z"/>
		<path id="path611" fill="#009A00" d="M502.491,653.35c0.416-0.939,2.951-4.592,3.413-6.828c-0.046-3.872-0.498-6.516-2.732-8.874
			c-0.554-2.389-1.894-5.997-2.732-8.193c0-3.148,0.039-6.717-0.682-8.876c0-3.587-0.495-5.741-1.365-8.193
			c-1.542-2.267-3.204-2.93-6.828-4.096c-2.936-0.979-4.967-0.272-8.192,0.683v9.559c0.043,3.613,0.687,6.194,2.047,8.193
			c1.111,2.341,2.183,4.015,3.415,6.827c0.131,3.711,1.116,5.629,1.365,8.876c0.269,3.492,0.596,5.299,2.73,7.511
			c2.907,1.373,3.795,2.702,6.145,3.413l-6.145-3.413C495.838,651.31,496.726,652.638,502.491,653.35z"/>
		<path id="path612" fill="#009A00" d="M477.921,638.33v-0.681c0,1.906-0.084,0.892,1.365-2.732
			c0.741-2.961,0.683-6.218,0.683-9.559c-0.211-2.75-0.611-5.928-1.365-8.192c-0.624-3.495-1.339-5.682-2.048-8.876
			c-0.488-2.774-2.366-5.833-3.415-8.193c-0.669-2.009-1.352-6.199-2.047-8.192c-0.49-2.554-1.716-3.355-4.098-4.096
			c-1.868-0.937-6.322-0.937-8.192,0c-2.009,0.696-2.006,2.283-2.73,4.096c-0.254,3.532-0.854,6.142,0,9.557
			c1.155,1.977,2.376,4.072,3.413,6.145c1.34,2.423,2.686,6.059,4.097,8.193c1.026,3.466,1.406,5.067,3.412,8.192
			c0.739,2.212,1.902,4.874,3.415,6.827c0.972,2.431,2.389,4.154,3.413,6.83C475.666,637.649,474.286,637.604,477.921,638.33z"/>
		<path id="path613" fill="#009A00" d="M618.13,711.131h-0.593h-2.378h-8.321c-1.735,1.647-2.34,2.595-5.35,2.972
			c-1.519,1.317-2.959,2.534-5.349,2.971c-2.102,0.459-4.844,0.594-7.726,0.594c-3.523-0.042-4.734,0.109-5.349-2.972
			c0.056-3.062,0.2-3.233,2.971-3.565c1.485-1.227,3.97-1.806,6.538-2.378c1.961-0.697,4.365-1.311,6.538-1.784
			c2.107-0.749,4.118-1.512,5.943-2.376c-0.454-1.815-1.922-1.418-3.567-0.594c-2.134,0-4.682,0.161-5.943-0.596
			c-1.483-2.203-2.286-2.927-5.943-2.971c-3.469-0.042-4.061-0.953-7.131-1.19c-2.94-0.035-4.995-0.475-7.133-1.188
			c-3.138-0.224-5.245-0.702-7.726-1.784c-0.796-0.795,1.095-0.961,2.378-1.188c1.758-1.195,3.617-1.674,6.538-1.784h8.321
			c3.048,0,5.394,0.491,8.321,0.596c2.384,0.824,4.89,1.257,6.537,2.376c2.152,0.718,3.505,1.979,4.755,3.568
			c2.091,0.57,4.195,1.272,6.538,1.782c2.74,0,5.847-0.032,7.726,0.594C620.085,704.483,619.01,708.2,618.13,711.131L618.13,711.131
			z"/>
	</g>
</g>
</svg>
