<?xml version="1.0" encoding="utf-8"?>
<!-- Generator: Adobe Illustrator 16.0.0, SVG Export Plug-In . SVG Version: 6.00 Build 0)  -->
<svg version="1.2" baseProfile="tiny"
	 id="svg378" xmlns:cc="http://creativecommons.org/ns#" xmlns:dc="http://purl.org/dc/elements/1.1/" xmlns:rdf="http://www.w3.org/1999/02/22-rdf-syntax-ns#"
	 xmlns="http://www.w3.org/2000/svg" xmlns:xlink="http://www.w3.org/1999/xlink" x="0px" y="0px" width="512px" height="512px"
	 viewBox="0 0 512 512" xml:space="preserve">
<g>
	<polygon fill="#00CC00" points="342.239,256 0,484.331 0,512 511.999,512 511.999,256 	"/>
	<polygon fill="#6699FF" points="342.239,256 511.999,256 511.999,0 0,0 0,26.722 342.726,255.675 	"/>
	<path fill="#FFFEFE" d="M342.726,255.675L0,26.722v457.609L342.239,256L342.726,255.675z M88.989,269.878l-30.67,22.405
		l11.407-36.409l-30.613-22.483l37.874-0.313l11.747-36.299l11.999,36.215l37.875,0.048l-30.457,22.694l11.659,36.328
		L88.989,269.878z"/>
	<polygon fill="#FF0000" points="108.151,255.736 138.608,233.042 100.733,232.994 88.734,196.779 76.987,233.078 39.113,233.391 
		69.726,255.874 58.319,292.283 88.989,269.878 119.81,292.064 	"/>
</g>
</svg>
