<?xml version="1.0" encoding="utf-8"?>
<!-- Generator: Adobe Illustrator 16.0.0, SVG Export Plug-In . SVG Version: 6.00 Build 0)  -->
<svg version="1.2" baseProfile="tiny"
	 id="svg5907" xmlns:cc="http://creativecommons.org/ns#" xmlns:dc="http://purl.org/dc/elements/1.1/" xmlns:rdf="http://www.w3.org/1999/02/22-rdf-syntax-ns#"
	 xmlns="http://www.w3.org/2000/svg" xmlns:xlink="http://www.w3.org/1999/xlink" x="0px" y="0px" width="512px" height="512px"
	 viewBox="0 0 512 512" xml:space="preserve">
<g>
	<rect x="0" y="276.752" fill="#108C00" width="122.31" height="0.008"/>
	<path fill="#108C00" d="M370.282,178.16H512V0H324.652v136.405C342.84,146.676,358.452,161,370.282,178.16z M400.203,80.891h-0.59
		H400.203z"/>
	<path fill="#108C00" d="M140.189,326.922H0V512h181.08V370.332C164.493,359.058,150.505,344.222,140.189,326.922z M101.578,423.898
		h0.59H101.578z"/>
	<rect x="276.212" fill="#108C00" width="0.008" height="120.1"/>
	<path fill="#108C00" d="M375.181,326.922c-12.258,20.557-29.707,37.625-50.529,49.383V512H512V326.922H375.181z"/>
	<rect x="276.212" y="392.611" fill="#108C00" width="0.008" height="119.389"/>
	<rect x="393.058" y="276.752" fill="#108C00" width="118.942" height="0.008"/>
	<path fill="#108C00" d="M181.08,142.378V0H0v178.16h145.087C154.772,164.111,166.987,151.958,181.08,142.378z"/>
	<path fill="#FFD600" d="M391.335,226.59H512v-48.43H370.282C380.201,192.55,387.457,208.932,391.335,226.59z M442.314,197.031h0.59
		H442.314z"/>
	<path fill="#FFD600" d="M145.088,178.16H0v48.43h124.034C127.912,208.932,135.168,192.55,145.088,178.16z"/>
	<path fill="#FFD600" d="M227.78,122.141V0H181.08v142.378C195.028,132.897,210.811,125.94,227.78,122.141z"/>
	<path fill="#FFD600" d="M181.08,370.332V512h46.699V390.569C210.811,386.77,195.028,379.812,181.08,370.332z"/>
	<path d="M257.685,393.87c-10.273,0-20.279-1.146-29.905-3.301V512h1.732h46.7V392.611
		C270.153,393.436,263.969,393.87,257.685,393.87z M250.286,423.898h0.59H250.286z"/>
	<path d="M257.685,118.84c6.284,0,12.468,0.435,18.527,1.259V0h-46.7h-1.732v122.141C237.406,119.985,247.412,118.84,257.685,118.84
		z M274.244,82.601h-0.59H274.244z"/>
	<path d="M120.81,256.36v-0.01c0-10.22,1.119-20.176,3.225-29.76H0v50.162h122.31C121.325,270.098,120.81,263.289,120.81,256.36z"/>
	<path d="M394.56,256.35v0.01c0,6.929-0.516,13.738-1.501,20.392H512V226.59H391.335C393.441,236.174,394.56,246.13,394.56,256.35z"
		/>
	<path fill="#FFFFFF" d="M375.181,326.922H512V276.76H393.058C390.376,294.875,384.176,311.836,375.181,326.922z"/>
	<path fill="#FFFFFF" d="M122.311,276.76H0v50.162h140.189C131.193,311.836,124.993,294.875,122.311,276.76z M75.011,301.988h-0.59
		H75.011z"/>
	<path fill="#FFFFFF" d="M276.22,392.61V512h48.432V376.305C309.97,384.596,293.615,390.244,276.22,392.61z"/>
	<path fill="#FFFFFF" d="M324.652,136.405V0H276.22v120.1C293.615,122.466,309.97,128.114,324.652,136.405z"/>
	<path fill="#E72910" d="M393.059,276.752c0.985-6.654,1.501-13.463,1.501-20.392v-0.01c0-10.22-1.119-20.176-3.225-29.76
		c-3.878-17.658-11.134-34.04-21.053-48.43c-11.83-17.161-27.442-31.484-45.631-41.755c-14.682-8.291-31.036-13.939-48.432-16.305
		c-0.003,0-0.005-0.001-0.008-0.001c-6.06-0.824-12.243-1.259-18.527-1.259c-10.273,0-20.279,1.146-29.905,3.301
		c-16.968,3.799-32.751,10.756-46.699,20.237c-14.094,9.58-26.309,21.733-35.993,35.782c-9.919,14.39-17.175,30.771-21.053,48.43
		c-2.105,9.584-3.225,19.54-3.225,29.76v0.01c0,6.929,0.516,13.738,1.5,20.392c0,0.003,0.001,0.005,0.001,0.008
		c2.682,18.115,8.882,35.076,17.878,50.162c10.316,17.3,24.304,32.136,40.891,43.41c13.948,9.48,29.731,16.438,46.699,20.237
		c9.626,2.155,19.632,3.301,29.905,3.301c6.284,0,12.468-0.435,18.527-1.259c0.003,0,0.005-0.001,0.008-0.001
		c17.396-2.366,33.75-8.015,48.432-16.306c20.822-11.758,38.271-28.826,50.529-49.383c8.995-15.086,15.195-32.047,17.877-50.162
		C393.059,276.757,393.059,276.755,393.059,276.752z M384.662,211.8c0,0.009-0.027,0.017-0.068,0.024
		c-0.983,0.542-13.443,10.296-13.443,10.296s6.374,18.062,6.119,17.545s-14.787-10.837-14.787-10.837s-13.765,9.608-14.5,10.281
		c-0.013,0.022-0.024,0.04-0.031,0.04c-0.009,0,0.005-0.016,0.031-0.04c0.496-0.827,5.577-16.989,5.577-16.989l-13.256-10.063
		l16.57-0.258v0c0-0.258,5.608-15.997,5.608-15.997l5.1,15.739c0,0,15.884,0.479,17.012,0.282
		C384.634,211.802,384.662,211.79,384.662,211.8z M337.014,282.001h-0.59H337.014z M304.22,146.274
		c0.255,0.516,14.786,10.837,14.786,10.837s13.763-9.605,14.499-10.281c0.014-0.022,0.025-0.04,0.032-0.04
		c0.009,0-0.005,0.016-0.032,0.04c-0.497,0.834-5.576,16.989-5.576,16.989l13.257,10.063l-16.57,0.258
		c-0.003,0.265-5.609,15.997-5.609,15.997l-5.099-15.739c0,0-15.884-0.48-17.012-0.283c-0.04,0.022-0.068,0.035-0.068,0.024
		c0-0.009,0.026-0.017,0.068-0.024c0.983-0.541,13.442-10.296,13.442-10.296S303.965,145.758,304.22,146.274z M237.524,197.031
		h-0.59H237.524z M256.119,120.923l5.099,15.739c0,0,15.885,0.48,17.013,0.283c0.04-0.022,0.068-0.035,0.068-0.024
		c0,0.009-0.027,0.017-0.068,0.024c-0.983,0.541-13.443,10.296-13.443,10.296s6.373,18.062,6.118,17.545
		s-14.786-10.837-14.786-10.837s-13.765,9.608-14.5,10.281c-0.013,0.022-0.025,0.04-0.031,0.04c-0.009,0,0.005-0.016,0.031-0.04
		c0.496-0.827,5.577-16.989,5.577-16.989l-13.257-10.063l16.57-0.258C250.515,136.647,256.119,120.923,256.119,120.923z
		 M175.512,230.169h-0.59H175.512z M178.26,147.984c0.255,0.516,14.787,10.837,14.787,10.837s13.765-9.608,14.5-10.281
		c0.013-0.022,0.025-0.04,0.031-0.04c0.009,0-0.005,0.016-0.031,0.04c-0.496,0.827-5.577,16.989-5.577,16.989l13.256,10.063
		l-16.57,0.258v0c0,0.258-5.608,15.997-5.608,15.997l-5.1-15.739c0,0-15.884-0.48-17.012-0.283
		c-0.041,0.022-0.068,0.035-0.068,0.024c0-0.009,0.027-0.017,0.068-0.024c0.983-0.541,13.443-10.296,13.443-10.296
		S178.005,147.468,178.26,147.984z M146.696,219.061l-13.257-10.063l16.57-0.258c0.002-0.265,5.609-15.997,5.609-15.997
		l5.099,15.739c0,0,15.884,0.48,17.013,0.282c0.041-0.022,0.068-0.035,0.068-0.024c0,0.009-0.027,0.017-0.068,0.024
		c-0.984,0.542-13.443,10.296-13.443,10.296s6.373,18.062,6.118,17.545s-14.786-10.837-14.786-10.837s-13.765,9.608-14.5,10.281
		c-0.013,0.022-0.025,0.04-0.031,0.04c-0.009,0,0.005-0.016,0.031-0.04C141.615,235.223,146.696,219.061,146.696,219.061z
		 M134.147,290.28c0-0.009,0.027-0.018,0.068-0.024c0.985-0.543,13.443-10.297,13.443-10.297s-6.373-18.061-6.118-17.545
		s14.786,10.837,14.786,10.837s13.763-9.606,14.5-10.281c0.013-0.021,0.025-0.04,0.032-0.04c0.009,0-0.005,0.016-0.032,0.04
		c-0.498,0.834-5.577,16.989-5.577,16.989l13.257,10.064l-16.57,0.258c-0.005,0.271-5.609,15.996-5.609,15.996l-5.099-15.739
		c0,0-15.883-0.48-17.013-0.282C134.175,290.278,134.147,290.29,134.147,290.28z M197.562,358.516
		c-0.255-0.516-14.786-10.836-14.786-10.836s-13.763,9.605-14.5,10.28c-0.013,0.021-0.025,0.04-0.032,0.04
		c-0.009,0,0.005-0.016,0.032-0.04c0.498-0.834,5.577-16.989,5.577-16.989l-13.257-10.063l16.57-0.258
		c0.005-0.272,5.609-15.997,5.609-15.997l5.099,15.739c0,0,15.884,0.48,17.013,0.283c0.041-0.022,0.068-0.034,0.068-0.024
		c0,0.009-0.027,0.017-0.068,0.024c-0.984,0.541-13.443,10.296-13.443,10.296S197.817,359.032,197.562,358.516z M261.425,375.251
		L261.425,375.251c0,0.257-5.608,15.996-5.608,15.996l-5.099-15.739c0,0-15.884-0.479-17.013-0.282
		c-0.041,0.022-0.068,0.034-0.068,0.024c0-0.009,0.027-0.018,0.068-0.024c0.984-0.542,13.443-10.296,13.443-10.296
		s-6.373-18.062-6.118-17.546s14.786,10.837,14.786,10.837s13.765-9.607,14.5-10.28c0.013-0.021,0.024-0.04,0.031-0.04
		c0.009,0-0.005,0.016-0.031,0.04c-0.496,0.827-5.577,16.989-5.577,16.989l13.257,10.062L261.425,375.251z M283.748,333.573
		c-0.079,0.008-0.157,0.013-0.235,0.013c-1.741,0-3.225-2.265-4.476-5.719c-1.305-0.199-2.483-1.322-3.538-3.106
		c-0.241,0.03-0.487,0.054-0.747,0.054c-0.731,0-1.527-0.127-2.344-0.35c-0.533,0.188-1.134,0.295-1.799,0.295
		c-0.689,0-1.438-0.115-2.205-0.313c-0.632,0.306-1.382,0.481-2.236,0.481c-0.731,0-1.527-0.127-2.344-0.35
		c-0.534,0.188-1.135,0.295-1.799,0.295c-3.027,0-7.116-1.994-9.507-5.312c-0.591,0.002-0.937,0.002-0.972,0.002
		c-21.884,0-22.899-0.741-23.387-1.098c-2.133-1.56-5.62-8.157-5.6-9.237l0.022-1.18l1.179-0.049c3-0.124,3.265-0.853,3.704-2.06
		c0.348-0.959,0.826-2.272,2.467-3.197c1.196-0.674,2.621-1.03,4.118-1.03c2.832,0,5.491,1.247,6.616,3.104
		c0.734,1.211,0.882,2.382,0.991,3.237c0.025,0.196,0.056,0.442,0.091,0.615c0.657-0.007,2.303-0.062,4.497-0.134
		c1.701-0.057,3.839-0.127,6.238-0.202c1.022-1.452,2.359-2.642,3.792-3.534c-0.597-1.245-1.041-2.771-1.272-4.479
		c-2.165-0.767-3.938-4.004-4.393-8.261c-0.157-1.467-0.126-2.988,0.093-4.386c-0.344-0.774-0.626-1.629-0.847-2.518
		c-6.478-7.091-13.002-17.631-13.756-31.776c-0.831-17.37,3.27-28.135,6.727-34.012c0.209-0.86,0.656-1.632,1.273-2.237
		c0.113-1.244,0.735-2.342,1.669-3.107c0.021-0.336,0.083-0.66,0.176-0.973c-0.443,0.258-0.92,0.49-1.435,0.682
		c-1.001,0.373-2.05,0.57-3.032,0.57c-0.119,0-0.23-0.013-0.346-0.019c-0.434,0.778-0.806,1.704-1.111,2.776l-2.513,8.813
		l-3.65-8.406c-2.53-5.827-2.938-10.498-1.214-13.884c1.195-2.348,3.317-3.938,6.143-4.606c0.89-0.279,1.682-0.478,2.409-0.608
		c0.696-1.684,1.755-3.192,3.155-4.289c2.665-1.982,6.463-3.109,10.445-3.109c3.113,0,6.122,0.694,8.702,2.006
		c2.332,1.143,5.242,3.743,8.323,6.495c3.646,3.258,7.78,6.95,11.045,8.181l4.25,1.603l-4.472,0.797
		c-0.808,0.144-1.557,0.229-2.283,0.285c1.104,0.561,2.11,0.912,2.952,0.927l2.531,0.046l-1.575,1.982
		c-0.718,0.904-1.487,1.658-2.294,2.295c2.048,1.346,3.927,2.314,5.346,2.34l2.531,0.046l-1.575,1.982
		c-0.82,1.032-1.704,1.876-2.64,2.561c1.33,0.736,2.537,1.211,3.521,1.229l2.531,0.046l-1.575,1.982
		c-0.931,1.171-1.939,2.113-3.017,2.836c1.325,0.732,2.527,1.204,3.509,1.222l2.531,0.046l-1.575,1.982
		c-2.412,3.035-5.334,4.573-8.686,4.573c-0.001,0-0.001,0-0.001,0c-0.874,0-1.738-0.113-2.589-0.302
		c3.413,4.86,6.712,10.789,9.549,17.39c6.308,14.675,8.575,28.497,5.899,35.573c0.793,3.143,0.88,5.935,0.691,8.476
		c1.334,5.133,0.754,9.354,0.238,13.079l-0.37,2.677l-1.604-3.561c-0.397-0.905-0.78-1.778-1.168-2.638
		c-0.027,0.613-0.06,1.222-0.096,1.826c0.014,0.014,0.026,0.028,0.039,0.042c1.212,1.326,1.875,3.361,1.732,5.312
		c-0.109,1.49-0.694,2.738-1.646,3.515c-0.168,0.137-0.575,0.263-1.18,0.379c-0.971,5.209-2.562,8.933-4.991,9.532
		C286.603,331.127,285.445,333.394,283.748,333.573z M336.582,330.392c0,0,15.883,0.48,17.012,0.283
		c0.04-0.022,0.068-0.034,0.068-0.024c0,0.009-0.027,0.017-0.068,0.024c-0.984,0.541-13.443,10.296-13.443,10.296
		s6.374,18.062,6.119,17.545c-0.255-0.516-14.787-10.836-14.787-10.836s-13.765,9.607-14.5,10.28
		c-0.013,0.021-0.024,0.04-0.031,0.04c-0.009,0,0.005-0.016,0.031-0.04c0.496-0.827,5.577-16.989,5.577-16.989l-13.256-10.063
		l16.57-0.258v0.001c0-0.259,5.608-15.998,5.608-15.998L336.582,330.392z M361.706,306.277l-5.099-15.739
		c0,0-15.884-0.48-17.013-0.282c-0.04,0.022-0.068,0.034-0.068,0.024c0-0.009,0.027-0.018,0.068-0.024
		c0.985-0.543,13.443-10.297,13.443-10.297s-6.373-18.061-6.118-17.545s14.786,10.837,14.786,10.837s13.765-9.608,14.5-10.281
		c0.013-0.021,0.024-0.04,0.031-0.04c0.009,0-0.005,0.016-0.031,0.04c-0.496,0.827-5.577,16.989-5.577,16.989l13.257,10.064
		l-16.57,0.258C367.311,290.553,361.706,306.277,361.706,306.277z"/>
	<path d="M241.588,164.27c0.006,0,0.019-0.018,0.031-0.04C241.593,164.254,241.579,164.27,241.588,164.27z"/>
	<path d="M247.197,147.241c0,0-5.081,16.163-5.577,16.989c0.735-0.673,14.5-10.281,14.5-10.281s14.531,10.321,14.786,10.837
		s-6.118-17.545-6.118-17.545s12.46-9.755,13.443-10.296c-1.128,0.197-17.013-0.283-17.013-0.283l-5.099-15.739
		c0,0-5.604,15.725-5.609,15.996l-16.57,0.258L247.197,147.241z M256.131,123.864l4.416,13.632c0,0,13.758,0.416,14.734,0.245
		c0.035-0.019,0.06-0.03,0.06-0.021c0,0.008-0.023,0.015-0.06,0.021c-0.852,0.468-11.643,8.917-11.643,8.917
		s5.52,15.643,5.299,15.196c-0.221-0.447-12.807-9.386-12.807-9.386s-11.921,8.322-12.558,8.904
		c-0.011,0.019-0.021,0.035-0.027,0.035c-0.008,0,0.004-0.014,0.027-0.035c0.429-0.716,4.83-14.714,4.83-14.714l-11.481-8.716
		l14.352-0.224v0.001C251.274,137.496,256.131,123.864,256.131,123.864z"/>
	<path d="M278.231,136.944c0.041-0.007,0.068-0.015,0.068-0.024C278.299,136.91,278.271,136.922,278.231,136.944z"/>
	
		<line fill="none" stroke="#108C00" stroke-width="0" stroke-linecap="round" stroke-linejoin="round" x1="175.512" y1="230.169" x2="174.922" y2="230.169"/>
	<path fill="#FFE700" d="M275.281,137.741c0.036-0.006,0.06-0.013,0.06-0.021C275.341,137.711,275.317,137.722,275.281,137.741z"/>
	<path fill="#FFE700" d="M243.546,161.407c0.006,0,0.016-0.016,0.027-0.035C243.551,161.394,243.538,161.407,243.546,161.407z"/>
	<path fill="#FFE700" d="M236.922,137.942l11.481,8.716c0,0-4.401,13.998-4.83,14.714c0.637-0.583,12.558-8.904,12.558-8.904
		s12.586,8.939,12.807,9.386c0.221,0.447-5.299-15.196-5.299-15.196s10.791-8.449,11.643-8.917
		c-0.977,0.171-14.734-0.245-14.734-0.245l-4.416-13.632c0,0-4.857,13.632-4.857,13.855v-0.001L236.922,137.942z M253.328,139.986
		L253.328,139.986c0-0.128,2.801-7.988,2.801-7.988l2.546,7.86c0,0,8.53,0.258,8.53,0.129s-6.748,5.154-6.748,5.154
		s3.183,9.02,3.056,8.762s-7.384-5.412-7.384-5.412s-7.384,5.154-7.257,5.154c0.128,0,2.801-8.504,2.801-8.504l-6.62-5.025
		L253.328,139.986z"/>
	<path fill="#108C00" d="M251.673,145.141c0,0-2.673,8.504-2.801,8.504c-0.127,0,7.257-5.154,7.257-5.154s7.257,5.154,7.384,5.412
		s-3.056-8.762-3.056-8.762s6.748-5.283,6.748-5.154s-8.53-0.129-8.53-0.129l-2.546-7.86c0,0-2.801,7.86-2.801,7.989v0l-8.275,0.129
		L251.673,145.141z"/>
	<path d="M367.582,211.542l-5.1-15.739c0,0-5.608,15.739-5.608,15.997v0l-16.57,0.258l13.256,10.063c0,0-5.081,16.163-5.577,16.989
		c0.735-0.673,14.5-10.281,14.5-10.281s14.532,10.321,14.787,10.837s-6.119-17.545-6.119-17.545s12.46-9.755,13.443-10.296
		C383.466,212.021,367.582,211.542,367.582,211.542z M370.002,221.539c0,0,5.521,15.643,5.3,15.196
		c-0.221-0.447-12.807-9.386-12.807-9.386s-11.922,8.321-12.559,8.904c-0.012,0.019-0.021,0.035-0.027,0.035
		c-0.008,0,0.004-0.014,0.027-0.035c0.43-0.716,4.83-14.714,4.83-14.714l-11.481-8.716l14.352-0.223
		c0.003-0.23,4.858-13.854,4.858-13.854l4.416,13.631c0,0,13.757,0.416,14.734,0.245c0.035-0.019,0.06-0.03,0.06-0.021
		c0,0.008-0.023,0.015-0.06,0.021C380.793,213.09,370.002,221.539,370.002,221.539z"/>
	<path d="M384.594,211.824c0.041-0.007,0.068-0.015,0.068-0.024C384.662,211.79,384.634,211.802,384.594,211.824z"/>
	<path d="M347.951,239.15c0.007,0,0.019-0.018,0.031-0.04C347.956,239.134,347.943,239.15,347.951,239.15z"/>
	<path fill="#FFE700" d="M366.911,212.376l-4.416-13.631c0,0-4.855,13.624-4.858,13.854l-14.352,0.223l11.481,8.716
		c0,0-4.4,13.998-4.83,14.714c0.637-0.583,12.559-8.904,12.559-8.904s12.586,8.938,12.807,9.386c0.221,0.447-5.3-15.196-5.3-15.196
		s10.791-8.449,11.644-8.918C380.668,212.792,366.911,212.376,366.911,212.376z M366.822,220.021c0,0,3.183,9.02,3.056,8.762
		c-0.128-0.257-7.385-5.412-7.385-5.412s-7.384,5.154-7.256,5.154c0.127,0,2.801-8.504,2.801-8.504l-6.62-5.025l8.274-0.129
		c0.002-0.133,2.801-7.988,2.801-7.988l2.547,7.86c0,0,8.529,0.258,8.529,0.129S366.822,220.021,366.822,220.021z"/>
	<path fill="#FFE700" d="M381.646,212.621c0.036-0.006,0.06-0.013,0.06-0.021C381.705,212.591,381.681,212.602,381.646,212.621z"/>
	<path fill="#FFE700" d="M349.909,236.287c0.006,0,0.016-0.016,0.027-0.035C349.913,236.273,349.902,236.287,349.909,236.287z"/>
	<path fill="#108C00" d="M365.039,214.738l-2.547-7.86c0,0-2.799,7.855-2.801,7.988l-8.274,0.129l6.62,5.025
		c0,0-2.674,8.504-2.801,8.504c-0.128,0,7.256-5.154,7.256-5.154s7.257,5.154,7.385,5.412c0.127,0.258-3.056-8.762-3.056-8.762
		s6.747-5.283,6.747-5.154S365.039,214.738,365.039,214.738z"/>
	<path d="M353.594,330.675c0.041-0.008,0.068-0.016,0.068-0.024C353.662,330.641,353.634,330.652,353.594,330.675z"/>
	<path d="M325.874,330.65L325.874,330.65l-16.57,0.257l13.256,10.063c0,0-5.081,16.162-5.577,16.989
		c0.735-0.673,14.5-10.28,14.5-10.28s14.532,10.32,14.787,10.836c0.255,0.517-6.119-17.545-6.119-17.545s12.459-9.755,13.443-10.296
		c-1.129,0.197-17.012-0.283-17.012-0.283l-5.1-15.739C331.483,314.652,325.874,330.392,325.874,330.65z M335.911,331.227
		c0,0,13.759,0.415,14.734,0.244c0.035-0.02,0.06-0.03,0.06-0.021c0,0.008-0.023,0.015-0.06,0.021
		c-0.851,0.469-11.644,8.918-11.644,8.918s5.521,15.643,5.3,15.195s-12.807-9.386-12.807-9.386s-11.922,8.321-12.559,8.904
		c-0.012,0.019-0.021,0.034-0.027,0.034c-0.008,0,0.004-0.014,0.027-0.034c0.43-0.717,4.83-14.714,4.83-14.714l-11.481-8.717
		l14.353-0.223h-0.001c0-0.223,4.858-13.854,4.858-13.854L335.911,331.227z"/>
	<path d="M316.951,358c0.007,0,0.019-0.019,0.031-0.04C316.956,357.984,316.943,358,316.951,358z"/>
	
		<line fill="none" stroke="#108C00" stroke-width="0" stroke-linecap="round" stroke-linejoin="round" x1="250.286" y1="423.898" x2="250.876" y2="423.898"/>
	<path fill="#FFE700" d="M350.646,331.471c0.036-0.007,0.06-0.014,0.06-0.021C350.705,331.44,350.681,331.451,350.646,331.471z"/>
	<path fill="#FFE700" d="M326.637,331.449L326.637,331.449l-14.352,0.223l11.481,8.717c0,0-4.4,13.997-4.83,14.714
		c0.637-0.583,12.559-8.904,12.559-8.904s12.586,8.938,12.807,9.386s-5.3-15.195-5.3-15.195s10.793-8.449,11.644-8.918
		c-0.976,0.171-14.734-0.244-14.734-0.244l-4.416-13.632C331.495,317.595,326.637,331.227,326.637,331.449z M334.039,333.588
		c0,0,8.529,0.258,8.529,0.129s-6.747,5.154-6.747,5.154s3.183,9.02,3.056,8.762c-0.128-0.258-7.384-5.412-7.384-5.412
		s-7.385,5.154-7.257,5.154c0.127,0,2.801-8.504,2.801-8.504l-6.62-5.025l8.275-0.129h-0.001c0-0.129,2.801-7.988,2.801-7.988
		L334.039,333.588z"/>
	<path fill="#FFE700" d="M318.909,355.137c0.006,0,0.016-0.016,0.027-0.034C318.913,355.123,318.902,355.137,318.909,355.137z"/>
	<path fill="#108C00" d="M328.692,333.717L328.692,333.717l-8.274,0.129l6.62,5.025c0,0-2.674,8.504-2.801,8.504
		c-0.128,0,7.257-5.154,7.257-5.154s7.256,5.154,7.384,5.412c0.127,0.258-3.056-8.762-3.056-8.762s6.747-5.283,6.747-5.154
		s-8.529-0.129-8.529-0.129l-2.547-7.859C331.492,325.729,328.692,333.588,328.692,333.717z"/>
	<path d="M168.244,358c0.007,0,0.019-0.019,0.032-0.04C168.249,357.984,168.236,358,168.244,358z"/>
	<path d="M204.887,330.675c0.042-0.008,0.068-0.016,0.068-0.024C204.955,330.641,204.927,330.652,204.887,330.675z"/>
	<path d="M187.874,330.392l-5.099-15.739c0,0-5.604,15.725-5.609,15.997l-16.57,0.258l13.257,10.063c0,0-5.079,16.155-5.577,16.989
		c0.737-0.675,14.5-10.28,14.5-10.28s14.531,10.32,14.786,10.836c0.255,0.517-6.118-17.545-6.118-17.545s12.459-9.755,13.443-10.296
		C203.758,330.872,187.874,330.392,187.874,330.392z M190.295,340.389c0,0,5.52,15.643,5.299,15.195s-12.807-9.386-12.807-9.386
		s-11.919,8.319-12.559,8.903c-0.011,0.02-0.021,0.035-0.027,0.035c-0.008,0,0.004-0.014,0.027-0.035
		c0.432-0.721,4.83-14.713,4.83-14.713l-11.481-8.717l14.353-0.223c0-0.223,4.857-13.854,4.857-13.854l4.416,13.632
		c0,0,13.758,0.415,14.735,0.244c0.035-0.02,0.059-0.03,0.059-0.021c0,0.008-0.023,0.015-0.059,0.021
		C201.087,331.939,190.295,340.389,190.295,340.389z"/>
	
		<line fill="none" stroke="#108C00" stroke-width="0" stroke-linecap="round" stroke-linejoin="round" x1="101.578" y1="423.898" x2="102.168" y2="423.898"/>
	<path fill="#FFE700" d="M170.201,355.137c0.006,0,0.016-0.016,0.027-0.035C170.206,355.123,170.194,355.137,170.201,355.137z"/>
	<path fill="#FFE700" d="M187.203,331.227l-4.416-13.632c0,0-4.857,13.632-4.857,13.854l-14.353,0.223l11.481,8.717
		c0,0-4.398,13.992-4.83,14.713c0.639-0.584,12.559-8.903,12.559-8.903s12.586,8.938,12.807,9.386s-5.299-15.195-5.299-15.195
		s10.792-8.449,11.643-8.918C200.962,331.642,187.203,331.227,187.203,331.227z M187.114,338.871c0,0,3.183,9.02,3.056,8.762
		s-7.384-5.412-7.384-5.412s-7.384,5.154-7.257,5.154s2.801-8.504,2.801-8.504l-6.62-5.025l8.275-0.129
		c0-0.129,2.801-7.988,2.801-7.988l2.546,7.859c0,0,8.53,0.258,8.53,0.129S187.114,338.871,187.114,338.871z"/>
	<path fill="#FFE700" d="M201.938,331.471c0.036-0.007,0.059-0.014,0.059-0.021C201.997,331.44,201.973,331.451,201.938,331.471z"/>
	<path fill="#108C00" d="M185.331,333.588l-2.546-7.859c0,0-2.801,7.859-2.801,7.988l-8.275,0.129l6.62,5.025
		c0,0-2.674,8.504-2.801,8.504s7.257-5.154,7.257-5.154s7.257,5.154,7.384,5.412s-3.056-8.762-3.056-8.762s6.748-5.283,6.748-5.154
		S185.331,333.588,185.331,333.588z"/>
	<path d="M177.73,208.764c0.042-0.007,0.068-0.015,0.068-0.024C177.798,208.729,177.77,208.742,177.73,208.764z"/>
	<path d="M155.618,225.769c0,0,14.531,10.321,14.786,10.837s-6.118-17.545-6.118-17.545s12.459-9.754,13.443-10.296
		c-1.128,0.198-17.013-0.282-17.013-0.282l-5.099-15.739c0,0-5.607,15.732-5.609,15.997l-16.57,0.258l13.257,10.063
		c0,0-5.081,16.162-5.577,16.989C141.853,235.377,155.618,225.769,155.618,225.769z M147.903,218.479l-11.481-8.716l14.352-0.224v0
		c0-0.224,4.857-13.855,4.857-13.855l4.416,13.631c0,0,13.757,0.416,14.734,0.245c0.035-0.019,0.06-0.03,0.06-0.021
		c0,0.008-0.023,0.015-0.06,0.021c-0.852,0.47-11.643,8.918-11.643,8.918s5.52,15.643,5.299,15.196s-12.807-9.386-12.807-9.386
		s-11.921,8.322-12.558,8.904c-0.011,0.019-0.021,0.035-0.027,0.035c-0.008,0,0.004-0.014,0.027-0.035
		C143.502,232.477,147.903,218.479,147.903,218.479z"/>
	<path d="M141.087,236.09c0.006,0,0.019-0.018,0.031-0.04C141.092,236.074,141.078,236.09,141.087,236.09z"/>
	
		<line fill="none" stroke="#108C00" stroke-width="0" stroke-linecap="round" stroke-linejoin="round" x1="74.421" y1="301.988" x2="75.011" y2="301.988"/>
	<path fill="#FFE700" d="M174.781,209.561c0.036-0.006,0.06-0.013,0.06-0.021C174.84,209.531,174.816,209.542,174.781,209.561z"/>
	<path fill="#FFE700" d="M143.045,233.228c0.006,0,0.016-0.016,0.027-0.035C143.05,233.214,143.037,233.228,143.045,233.228z"/>
	<path fill="#FFE700" d="M155.63,224.289c0,0,12.586,8.939,12.807,9.386s-5.299-15.196-5.299-15.196s10.791-8.448,11.643-8.918
		c-0.978,0.171-14.734-0.245-14.734-0.245l-4.416-13.631c0,0-4.857,13.631-4.857,13.855v0l-14.352,0.224l11.481,8.716
		c0,0-4.401,13.998-4.83,14.714C143.709,232.61,155.63,224.289,155.63,224.289z M144.552,211.935l8.275-0.128
		c0-0.129,2.801-7.988,2.801-7.988l2.546,7.859c0,0,8.53,0.258,8.53,0.129s-6.748,5.154-6.748,5.154s3.183,9.019,3.056,8.761
		c-0.127-0.257-7.384-5.412-7.384-5.412s-7.384,5.154-7.257,5.154c0.128,0,2.801-8.504,2.801-8.504L144.552,211.935z"/>
	<path fill="#108C00" d="M148.371,225.465c-0.127,0,7.257-5.154,7.257-5.154s7.257,5.154,7.384,5.412
		c0.127,0.258-3.056-8.761-3.056-8.761s6.748-5.283,6.748-5.154s-8.53-0.129-8.53-0.129l-2.546-7.859c0,0-2.801,7.859-2.801,7.988
		l-8.275,0.128l6.62,5.026C151.172,216.961,148.499,225.465,148.371,225.465z"/>
	<path d="M333.537,146.79c-0.007,0-0.019,0.018-0.032,0.04C333.532,146.806,333.546,146.79,333.537,146.79z"/>
	<path d="M296.896,174.116c-0.042,0.007-0.068,0.015-0.068,0.024C296.827,174.15,296.856,174.138,296.896,174.116z"/>
	<path d="M313.907,174.398l5.099,15.739c0,0,5.606-15.731,5.609-15.997l16.57-0.258l-13.257-10.063c0,0,5.079-16.155,5.576-16.989
		c-0.736,0.675-14.499,10.281-14.499,10.281s-14.531-10.321-14.786-10.837s6.118,17.545,6.118,17.545s-12.459,9.755-13.442,10.296
		C298.024,173.918,313.907,174.398,313.907,174.398z M311.488,164.401c0,0-5.521-15.643-5.3-15.196
		c0.221,0.447,12.807,9.386,12.807,9.386s11.919-8.319,12.559-8.904c0.011-0.019,0.021-0.035,0.027-0.035
		c0.008,0-0.004,0.014-0.027,0.035c-0.432,0.722-4.83,14.714-4.83,14.714l11.481,8.716l-14.353,0.223v0
		c0,0.224-4.857,13.855-4.857,13.855l-4.416-13.631c0,0-13.758-0.416-14.734-0.245c-0.035,0.019-0.06,0.03-0.06,0.021
		c0-0.008,0.023-0.015,0.06-0.021C300.696,172.851,311.488,164.401,311.488,164.401z"/>
	
		<line fill="none" stroke="#108C00" stroke-width="0" stroke-linecap="round" stroke-linejoin="round" x1="400.203" y1="80.891" x2="399.614" y2="80.891"/>
	<path fill="#FFE700" d="M331.58,149.653c-0.006,0-0.017,0.016-0.027,0.035C331.576,149.667,331.588,149.653,331.58,149.653z"/>
	<path fill="#FFE700" d="M299.844,173.319c-0.036,0.006-0.06,0.013-0.06,0.021C299.784,173.349,299.809,173.338,299.844,173.319z"/>
	<path fill="#FFE700" d="M314.578,173.564l4.416,13.631c0,0,4.857-13.631,4.857-13.855v0l14.353-0.223l-11.481-8.716
		c0,0,4.398-13.992,4.83-14.714c-0.64,0.584-12.559,8.904-12.559,8.904s-12.586-8.938-12.807-9.386
		c-0.221-0.447,5.3,15.196,5.3,15.196s-10.792,8.449-11.644,8.918C300.821,173.148,314.578,173.564,314.578,173.564z
		 M314.668,165.919c0,0-3.183-9.02-3.056-8.762s7.384,5.412,7.384,5.412s7.384-5.154,7.257-5.154s-2.801,8.504-2.801,8.504
		l6.62,5.025l-8.275,0.129v0c0,0.129-2.801,7.989-2.801,7.989l-2.546-7.86c0,0-8.53-0.258-8.53-0.129
		S314.668,165.919,314.668,165.919z"/>
	<path fill="#108C00" d="M316.45,171.202l2.546,7.86c0,0,2.801-7.86,2.801-7.989v0l8.275-0.129l-6.62-5.025
		c0,0,2.674-8.504,2.801-8.504s-7.257,5.154-7.257,5.154s-7.257-5.154-7.384-5.412s3.056,8.762,3.056,8.762
		s-6.748,5.283-6.748,5.154S316.45,171.202,316.45,171.202z"/>
	<path d="M376.238,262.93c-0.007,0-0.019,0.019-0.031,0.04C376.233,262.945,376.246,262.93,376.238,262.93z"/>
	<path d="M370.629,279.959c0,0,5.081-16.162,5.577-16.989c-0.735,0.673-14.5,10.281-14.5,10.281s-14.531-10.321-14.786-10.837
		s6.118,17.545,6.118,17.545s-12.458,9.754-13.443,10.297c1.129-0.198,17.013,0.282,17.013,0.282l5.099,15.739
		c0,0,5.604-15.725,5.609-15.996l16.57-0.258L370.629,279.959z M361.695,303.336l-4.416-13.632c0,0-13.757-0.416-14.734-0.245
		c-0.035,0.02-0.06,0.03-0.06,0.021c0-0.008,0.023-0.015,0.06-0.021c0.853-0.469,11.643-8.918,11.643-8.918
		s-5.52-15.643-5.299-15.195s12.807,9.386,12.807,9.386s11.921-8.321,12.558-8.904c0.012-0.019,0.021-0.034,0.027-0.034
		c0.008,0-0.004,0.014-0.027,0.034c-0.43,0.717-4.83,14.714-4.83,14.714l11.481,8.717l-14.352,0.223
		C366.552,289.704,361.695,303.336,361.695,303.336z"/>
	<path d="M339.595,290.256c-0.041,0.007-0.068,0.016-0.068,0.024C339.527,290.29,339.555,290.278,339.595,290.256z"/>
	
		<line fill="none" stroke="#108C00" stroke-width="0" stroke-linecap="round" stroke-linejoin="round" x1="442.904" y1="197.031" x2="442.314" y2="197.031"/>
	<path fill="#FFE700" d="M374.28,265.793c-0.006,0-0.016,0.016-0.027,0.034C374.276,265.807,374.287,265.793,374.28,265.793z"/>
	<path fill="#FFE700" d="M342.544,289.459c-0.036,0.007-0.06,0.014-0.06,0.021C342.485,289.489,342.509,289.479,342.544,289.459z"/>
	<path fill="#FFE700" d="M369.422,280.541c0,0,4.4-13.997,4.83-14.714c-0.637,0.583-12.558,8.904-12.558,8.904
		s-12.586-8.938-12.807-9.386s5.299,15.195,5.299,15.195s-10.79,8.449-11.643,8.918c0.978-0.171,14.734,0.245,14.734,0.245
		l4.416,13.632c0,0,4.857-13.632,4.857-13.855l14.352-0.223L369.422,280.541z M364.497,287.213c0,0.129-2.801,7.988-2.801,7.988
		l-2.546-7.859c0,0-8.53-0.258-8.53-0.129s6.748-5.154,6.748-5.154s-3.183-9.019-3.056-8.761c0.127,0.257,7.384,5.411,7.384,5.411
		s7.384-5.154,7.257-5.154c-0.128,0-2.801,8.504-2.801,8.504l6.62,5.026L364.497,287.213z"/>
	<path fill="#108C00" d="M366.153,282.059c0,0,2.673-8.504,2.801-8.504c0.127,0-7.257,5.154-7.257,5.154s-7.257-5.154-7.384-5.411
		c-0.127-0.258,3.056,8.761,3.056,8.761s-6.748,5.283-6.748,5.154s8.53,0.129,8.53,0.129l2.546,7.859c0,0,2.801-7.859,2.801-7.988
		l8.275-0.128L366.153,282.059z"/>
	<path d="M264.74,364.93c0,0,5.081-16.162,5.577-16.989c-0.735,0.673-14.5,10.28-14.5,10.28s-14.531-10.32-14.786-10.837
		s6.118,17.546,6.118,17.546s-12.459,9.754-13.443,10.296c1.128-0.197,17.013,0.282,17.013,0.282l5.099,15.739
		c0,0,5.608-15.739,5.608-15.997v0.001l16.571-0.259L264.74,364.93z M260.662,374.451c0,0.223-4.857,13.854-4.857,13.854
		l-4.416-13.632c0,0-13.757-0.416-14.735-0.244c-0.035,0.02-0.059,0.03-0.059,0.021c0-0.008,0.023-0.015,0.059-0.021
		c0.852-0.47,11.643-8.918,11.643-8.918s-5.52-15.643-5.299-15.196c0.221,0.447,12.807,9.386,12.807,9.386
		s11.921-8.321,12.558-8.904c0.012-0.019,0.021-0.034,0.027-0.034c0.008,0-0.004,0.014-0.027,0.034
		c-0.43,0.717-4.83,14.715-4.83,14.715l11.481,8.716L260.662,374.451z"/>
	<path d="M233.705,375.226c-0.042,0.007-0.068,0.016-0.068,0.024C233.637,375.26,233.665,375.248,233.705,375.226z"/>
	<path d="M270.348,347.9c-0.007,0-0.019,0.019-0.031,0.04C270.343,347.916,270.357,347.9,270.348,347.9z"/>
	
		<line fill="none" stroke="#108C00" stroke-width="0" stroke-linecap="round" stroke-linejoin="round" x1="336.424" y1="282.001" x2="337.014" y2="282.001"/>
	<path fill="#FFE700" d="M268.39,350.763c-0.006,0-0.016,0.016-0.027,0.034C268.386,350.776,268.398,350.763,268.39,350.763z"/>
	<path fill="#FFE700" d="M268.363,350.797c-0.637,0.583-12.558,8.904-12.558,8.904s-12.586-8.938-12.807-9.386
		c-0.221-0.446,5.299,15.196,5.299,15.196s-10.791,8.448-11.643,8.918c0.978-0.172,14.735,0.244,14.735,0.244l4.416,13.632
		c0,0,4.857-13.632,4.857-13.854l14.352-0.224l-11.481-8.716C263.532,365.512,267.933,351.514,268.363,350.797z M266.883,372.055
		l-8.275,0.129c0,0.129-2.801,7.988-2.801,7.988l-2.546-7.859c0,0-8.53-0.258-8.53-0.129s6.748-5.154,6.748-5.154
		s-3.184-9.02-3.056-8.762c0.127,0.258,7.384,5.412,7.384,5.412s7.384-5.154,7.257-5.154c-0.128,0-2.801,8.504-2.801,8.504
		L266.883,372.055z"/>
	<path fill="#FFE700" d="M236.654,374.43c-0.036,0.007-0.059,0.014-0.059,0.021C236.595,374.46,236.619,374.449,236.654,374.43z"/>
	<path fill="#108C00" d="M263.064,358.525c0.127,0-7.257,5.154-7.257,5.154s-7.257-5.154-7.384-5.412
		c-0.128-0.258,3.056,8.762,3.056,8.762s-6.748,5.283-6.748,5.154s8.53,0.129,8.53,0.129l2.546,7.859c0,0,2.801-7.859,2.801-7.988
		l8.275-0.129l-6.62-5.025C260.263,367.029,262.936,358.525,263.064,358.525z"/>
	<path d="M170.858,262.93c-0.007,0-0.019,0.019-0.032,0.04C170.853,262.945,170.866,262.93,170.858,262.93z"/>
	<path d="M151.228,290.538l5.099,15.739c0,0,5.604-15.725,5.609-15.996l16.57-0.258l-13.257-10.064c0,0,5.079-16.155,5.577-16.989
		c-0.737,0.675-14.5,10.281-14.5,10.281s-14.531-10.321-14.786-10.837s6.118,17.545,6.118,17.545s-12.458,9.754-13.443,10.297
		C135.344,290.058,151.228,290.538,151.228,290.538z M148.807,280.541c0,0-5.52-15.643-5.299-15.195s12.807,9.386,12.807,9.386
		s11.919-8.319,12.559-8.903c0.011-0.02,0.021-0.035,0.027-0.035c0.008,0-0.004,0.014-0.027,0.035
		c-0.432,0.721-4.831,14.713-4.831,14.713l11.482,8.717l-14.353,0.223c0,0.224-4.857,13.855-4.857,13.855l-4.416-13.632
		c0,0-13.757-0.416-14.734-0.245c-0.035,0.02-0.06,0.03-0.06,0.021c0-0.008,0.023-0.015,0.06-0.021
		C138.016,288.99,148.807,280.541,148.807,280.541z"/>
	<path d="M134.215,290.256c-0.042,0.007-0.068,0.016-0.068,0.024C134.147,290.29,134.175,290.278,134.215,290.256z"/>
	
		<line fill="none" stroke="#108C00" stroke-width="0" stroke-linecap="round" stroke-linejoin="round" x1="236.934" y1="197.031" x2="237.524" y2="197.031"/>
	<path fill="#FFE700" d="M168.901,265.793c-0.006,0-0.016,0.016-0.027,0.035C168.896,265.807,168.908,265.793,168.901,265.793z"/>
	<path fill="#FFE700" d="M151.899,289.704l4.416,13.632c0,0,4.857-13.632,4.857-13.855l14.353-0.223l-11.482-8.717
		c0,0,4.399-13.992,4.831-14.713c-0.639,0.584-12.559,8.903-12.559,8.903s-12.586-8.938-12.807-9.386s5.299,15.195,5.299,15.195
		s-10.791,8.449-11.643,8.918C138.142,289.288,151.899,289.704,151.899,289.704z M151.989,282.059c0,0-3.183-9.019-3.056-8.761
		c0.127,0.257,7.384,5.411,7.384,5.411s7.384-5.154,7.257-5.154s-2.801,8.504-2.801,8.504l6.62,5.026l-8.275,0.128
		c0,0.129-2.801,7.988-2.801,7.988l-2.546-7.859c0,0-8.53-0.258-8.53-0.129S151.989,282.059,151.989,282.059z"/>
	<path fill="#FFE700" d="M137.164,289.459c-0.036,0.007-0.06,0.014-0.06,0.021C137.105,289.489,137.129,289.479,137.164,289.459z"/>
	<path fill="#108C00" d="M153.771,287.342l2.546,7.859c0,0,2.801-7.859,2.801-7.988l8.275-0.128l-6.62-5.026
		c0,0,2.674-8.504,2.801-8.504s-7.257,5.154-7.257,5.154s-7.257-5.154-7.384-5.411c-0.127-0.258,3.056,8.761,3.056,8.761
		s-6.748,5.283-6.748,5.154S153.771,287.342,153.771,287.342z"/>
	<path d="M170.936,175.826c-0.042,0.007-0.068,0.015-0.068,0.024C170.867,175.86,170.895,175.848,170.936,175.826z"/>
	<path d="M170.936,175.826c1.127-0.197,17.012,0.283,17.012,0.283l5.1,15.739c0,0,5.608-15.739,5.608-15.997v0l16.57-0.258
		l-13.256-10.063c0,0,5.081-16.162,5.577-16.989c-0.735,0.673-14.5,10.281-14.5,10.281s-14.532-10.321-14.787-10.837
		s6.119,17.545,6.119,17.545S171.919,175.285,170.936,175.826z M180.228,150.916c0.221,0.447,12.807,9.386,12.807,9.386
		s11.922-8.321,12.559-8.904c0.011-0.019,0.021-0.035,0.027-0.035c0.008,0-0.004,0.014-0.027,0.035
		c-0.429,0.716-4.83,14.714-4.83,14.714l11.481,8.716l-14.352,0.223c-0.002,0.23-4.858,13.854-4.858,13.854l-4.416-13.631
		c0,0-13.758-0.416-14.735-0.245c-0.035,0.019-0.059,0.03-0.059,0.021c0-0.008,0.023-0.015,0.059-0.021
		c0.852-0.469,11.644-8.918,11.644-8.918S180.007,150.469,180.228,150.916z"/>
	<path d="M207.578,148.5c-0.006,0-0.019,0.018-0.031,0.04C207.573,148.516,207.587,148.5,207.578,148.5z"/>
	
		<line fill="none" stroke="#108C00" stroke-width="0" stroke-linecap="round" stroke-linejoin="round" x1="273.655" y1="82.601" x2="274.244" y2="82.601"/>
	<path fill="#FFE700" d="M173.884,175.029c-0.036,0.006-0.059,0.013-0.059,0.021C173.824,175.059,173.849,175.048,173.884,175.029z"
		/>
	<path fill="#FFE700" d="M173.884,175.029c0.977-0.171,14.735,0.245,14.735,0.245l4.416,13.631c0,0,4.856-13.624,4.858-13.854
		l14.352-0.223l-11.481-8.716c0,0,4.401-13.998,4.83-14.714c-0.637,0.583-12.559,8.904-12.559,8.904s-12.586-8.939-12.807-9.386
		c-0.221-0.447,5.3,15.196,5.3,15.196S174.735,174.561,173.884,175.029z M188.708,167.629c0,0-3.183-9.02-3.056-8.762
		c0.128,0.258,7.384,5.412,7.384,5.412s7.385-5.154,7.257-5.154c-0.127,0-2.801,8.504-2.801,8.504l6.62,5.025l-8.274,0.129
		c-0.001,0.133-2.802,7.988-2.802,7.988l-2.546-7.86c0,0-8.529-0.258-8.529-0.129S188.708,167.629,188.708,167.629z"/>
	<path fill="#FFE700" d="M205.62,151.363c-0.006,0-0.016,0.016-0.027,0.035C205.616,151.376,205.628,151.363,205.62,151.363z"/>
	<path fill="#108C00" d="M190.49,172.912l2.546,7.86c0,0,2.8-7.855,2.802-7.988l8.274-0.129l-6.62-5.025
		c0,0,2.674-8.504,2.801-8.504c0.128,0-7.257,5.154-7.257,5.154s-7.256-5.154-7.384-5.412c-0.127-0.258,3.056,8.762,3.056,8.762
		s-6.747,5.283-6.747,5.154S190.49,172.912,190.49,172.912z"/>
	<path fill="#009200" d="M277.805,323.837c-0.002-0.007-0.004-0.013-0.006-0.02c-0.001,0.001-0.003,0.003-0.004,0.005
		C277.798,323.827,277.801,323.832,277.805,323.837z"/>
	<path d="M277.805,323.837c-0.004-0.005-0.007-0.01-0.01-0.015c-0.589,0.501-1.372,0.824-2.296,0.938
		c1.055,1.784,2.233,2.907,3.538,3.106C278.598,326.655,278.188,325.298,277.805,323.837z"/>
	<path fill="#009200" d="M288.553,318.651c-0.123,1.886-0.293,3.697-0.518,5.371c0.607-1.12,1.216-2.955,1.734-5.479
		C289.387,318.581,288.981,318.617,288.553,318.651z"/>
	<path fill="#009200" d="M291.013,308.16c0.102-1.799,0.162-3.739,0.179-5.808c-0.738-1.377-1.573-2.806-2.577-4.354
		c0.116,2.808,0.218,6.294,0.229,9.976C289.738,308.027,290.447,308.091,291.013,308.16z"/>
	<path d="M291.192,302.353c-0.017,2.068-0.077,4.009-0.179,5.808c1.807,0.223,2.155,0.514,2.413,0.793
		c0.036-0.604,0.068-1.213,0.096-1.826C292.801,305.527,292.062,303.974,291.192,302.353z"/>
	<path d="M289.77,318.544c-0.519,2.523-1.127,4.358-1.734,5.479c-0.181,1.338-0.396,2.586-0.654,3.711
		c2.429-0.6,4.021-4.323,4.991-9.532C291.721,318.327,290.835,318.441,289.77,318.544z"/>
	<polygon fill="#009200" points="280.231,301.055 280.231,301.051 280.231,301.051 	"/>
	<path fill="#009200" d="M279.289,319.134c1.568,7.389,3.217,11.46,4.226,11.937c0.906-0.551,1.971-4.753,2.512-12.243
		C284.013,318.948,281.718,319.049,279.289,319.134z"/>
	<path fill="#009200" d="M286.381,307.866c-0.004-4.078-0.138-8.662-0.446-13.73c-0.163-0.223-0.315-0.437-0.485-0.665
		c-0.408,4.449-2.292,8.834-5.219,8.834h-0.07c-0.112-0.003-0.238-0.017-0.371-0.038c-0.188,1.18-0.489,2.322-0.895,3.344
		c0.089,0.313,0.153,0.641,0.165,0.996c0.013,0.432-0.036,0.821-0.123,1.179c0.279,0,0.568-0.002,0.843-0.002
		C282.502,307.783,284.66,307.813,286.381,307.866z"/>
	<path d="M288.035,324.022c0.225-1.674,0.395-3.485,0.518-5.371c-0.776,0.063-1.622,0.121-2.526,0.176
		c-0.541,7.49-1.605,11.692-2.512,12.243c-1.009-0.477-2.657-4.548-4.226-11.937c-0.252,0.009-0.505,0.018-0.759,0.025
		c0.281,0.553,0.458,1.202,0.477,1.974l0.002,0.072l-0.004,0.071c-0.054,1.057-0.487,1.927-1.206,2.541
		c0.002,0.007,0.004,0.013,0.006,0.02c0.383,1.461,0.793,2.818,1.232,4.03c1.251,3.454,2.734,5.719,4.476,5.719
		c0.078,0,0.156-0.005,0.235-0.013c1.696-0.18,2.854-2.446,3.633-5.84C287.639,326.608,287.855,325.36,288.035,324.022z"/>
	<path d="M288.843,307.974c-0.011-3.682-0.112-7.168-0.229-9.976c-0.776-1.2-1.666-2.482-2.68-3.862
		c0.309,5.068,0.442,9.652,0.446,13.73C287.33,307.896,288.142,307.932,288.843,307.974z"/>
	<path fill="#A95600" d="M241.655,311.179c-2.131-0.035-2.36-1.841-2.483-2.812c-0.093-0.736-0.19-1.497-0.648-2.253
		c-0.666-1.1-2.548-1.897-4.474-1.897c-1.067,0-2.066,0.245-2.888,0.709c-0.834,0.469-1.047,1.057-1.343,1.869
		c-0.592,1.628-1.349,3.028-4.192,3.528c0.922,1.881,2.69,5.058,3.92,6.048c1.11,0.318,7.382,0.679,21.625,0.685
		c-0.373-1-0.603-2.073-0.619-3.218l-0.001-0.073l0.005-0.074c0.062-0.996,0.282-1.93,0.602-2.811
		c-1.831,0.059-3.469,0.113-4.831,0.158C243.683,311.126,242.086,311.179,241.655,311.179z"/>
	<path fill="#A95600" d="M286.893,316.291c-0.032-0.032-0.07-0.055-0.103-0.088c-0.791-0.82-1.214-1.906-1.189-3.057
		c0.022-1.062,0.445-2.021,1.103-2.761c-1.697-0.059-3.938-0.098-6.924-0.098c-0.871,0-1.778,0.004-2.7,0.011
		c-0.764,0.523-1.621,0.883-2.333,1.178c-2.098,0.871-2.712,1.29-2.738,2.387c-0.023,0.997,0.376,1.357,2.514,2.269
		c0.404,0.172,0.855,0.366,1.312,0.599C280.23,316.607,284.043,316.457,286.893,316.291z"/>
	<path d="M291.013,308.16c-0.566-0.069-1.275-0.133-2.17-0.187c-0.701-0.042-1.513-0.078-2.462-0.107
		c-1.721-0.053-3.879-0.083-6.602-0.083c-0.274,0-0.563,0.002-0.843,0.002c-0.278,1.142-1.007,1.931-1.857,2.514
		c0.922-0.007,1.829-0.011,2.7-0.011c2.985,0,5.227,0.039,6.924,0.098c0.777-0.876,1.89-1.441,3.127-1.441l0.063,0.001
		c1.111,0.017,2.151,0.468,2.926,1.271c0.792,0.821,1.215,1.906,1.19,3.058c-0.049,2.316-1.946,4.201-4.229,4.201l-0.063-0.001
		c-1.065-0.016-2.06-0.44-2.824-1.184c-2.85,0.166-6.663,0.316-11.059,0.439c1.038,0.527,2.102,1.261,2.696,2.429
		c0.254-0.008,0.507-0.017,0.759-0.025c2.429-0.085,4.724-0.186,6.737-0.307c0.904-0.055,1.75-0.112,2.526-0.176
		c0.428-0.034,0.834-0.07,1.217-0.107c1.065-0.103,1.951-0.217,2.603-0.343c0.604-0.116,1.012-0.242,1.18-0.379
		c0.951-0.776,1.536-2.024,1.646-3.515c0.143-1.951-0.521-3.986-1.732-5.312c-0.013-0.014-0.025-0.028-0.039-0.042
		C293.168,308.674,292.82,308.383,291.013,308.16z"/>
	<path d="M251.173,317.056c-14.243-0.006-20.515-0.366-21.625-0.685c-1.23-0.99-2.999-4.167-3.92-6.048
		c2.843-0.5,3.601-1.9,4.192-3.528c0.295-0.812,0.509-1.4,1.343-1.869c0.822-0.464,1.82-0.709,2.888-0.709
		c1.926,0,3.808,0.798,4.474,1.897c0.458,0.756,0.555,1.517,0.648,2.253c0.123,0.971,0.352,2.776,2.483,2.812
		c0.431,0,2.028-0.053,4.673-0.141c1.362-0.045,3-0.1,4.831-0.158c0.333-0.916,0.777-1.771,1.323-2.548
		c-2.398,0.075-4.537,0.146-6.238,0.202c-2.194,0.072-3.84,0.127-4.497,0.134c-0.035-0.173-0.066-0.419-0.091-0.615
		c-0.108-0.855-0.257-2.026-0.991-3.237c-1.125-1.856-3.784-3.104-6.616-3.104c-1.497,0-2.921,0.356-4.118,1.03
		c-1.642,0.925-2.119,2.238-2.467,3.197c-0.439,1.207-0.704,1.936-3.704,2.06l-1.179,0.049l-0.022,1.18
		c-0.02,1.08,3.467,7.678,5.6,9.237c0.488,0.356,1.502,1.098,23.387,1.098c0.035,0,0.38,0,0.972-0.002
		C251.966,318.794,251.508,317.957,251.173,317.056z"/>
	<path fill="#FFFF00" d="M255.037,316.29c-0.209-0.761-0.33-1.561-0.342-2.396l-0.001-0.074l0.005-0.074
		c0.051-0.817,0.2-1.598,0.428-2.339c-0.388,0.745-0.653,1.562-0.719,2.45C254.432,314.729,254.668,315.542,255.037,316.29z"/>
	<path d="M255.037,316.29c-0.369-0.748-0.605-1.562-0.629-2.434c0.066-0.888,0.331-1.705,0.719-2.45
		c0.523-1.694,1.475-3.169,2.643-4.398c-0.561-0.567-1.066-1.315-1.496-2.21c-1.432,0.893-2.77,2.082-3.792,3.534
		c-0.546,0.776-0.99,1.632-1.323,2.548c-0.32,0.881-0.54,1.814-0.602,2.811l-0.005,0.074l0.001,0.073
		c0.017,1.145,0.246,2.218,0.619,3.218c0.335,0.901,0.793,1.738,1.346,2.505c2.391,3.318,6.479,5.312,9.507,5.312
		c0.664,0,1.265-0.107,1.799-0.295C260.243,323.602,256.218,320.586,255.037,316.29z"/>
	<path fill="#FFFF00" d="M258.549,313.911c0.041,1.469,0.667,2.779,1.567,3.869c-0.589-1.228-0.957-2.582-0.979-4.054l-0.001-0.074
		l0.004-0.074c0.067-1.069,0.313-2.068,0.675-3.004C259.127,311.536,258.643,312.654,258.549,313.911z"/>
	<path d="M260.116,317.78c-0.9-1.09-1.526-2.4-1.567-3.869c0.094-1.257,0.578-2.375,1.267-3.337
		c0.346-0.894,0.798-1.727,1.347-2.483c-0.136,0.041-0.272,0.082-0.417,0.104s-0.289,0.032-0.434,0.032
		c-0.909,0-1.774-0.443-2.542-1.219c-1.168,1.229-2.12,2.704-2.643,4.398c-0.228,0.741-0.376,1.521-0.428,2.339l-0.005,0.074
		l0.001,0.074c0.012,0.836,0.133,1.636,0.342,2.396c1.181,4.296,5.207,7.312,8.788,8.288c0.816,0.223,1.612,0.35,2.344,0.35
		c0.854,0,1.604-0.176,2.236-0.481C265.271,323.636,261.775,321.24,260.116,317.78z"/>
	<path fill="#FFFF00" d="M263.621,316.179c-0.209-0.761-0.33-1.562-0.342-2.397l-0.001-0.074l0.004-0.074
		c0.051-0.816,0.199-1.596,0.428-2.336c-0.388,0.744-0.652,1.561-0.719,2.447C263.016,314.616,263.252,315.43,263.621,316.179z"/>
	<path d="M263.621,316.179c-0.369-0.749-0.605-1.562-0.63-2.435c0.066-0.887,0.331-1.703,0.719-2.447
		c0.321-1.044,0.81-2.002,1.405-2.876c-0.743-0.335-1.434-0.962-2.033-1.823c-0.508,0.737-1.147,1.26-1.92,1.493
		c-0.549,0.757-1.001,1.59-1.347,2.483c-0.361,0.936-0.607,1.935-0.675,3.004l-0.004,0.074l0.001,0.074
		c0.021,1.472,0.39,2.826,0.979,4.054c1.658,3.46,5.154,5.855,8.288,6.666c0.768,0.198,1.516,0.313,2.205,0.313
		c0.665,0,1.266-0.107,1.799-0.295C268.827,323.488,264.802,320.474,263.621,316.179z"/>
	<path fill="#FFFF00" d="M271.639,307.675c-2.144,1.148-4.294,3.296-4.506,6.124c0.117,4.214,4.994,7.163,7.619,7.163
		c0.142,0,0.256-0.01,0.343-0.023c-0.162-0.367-0.695-0.671-2.084-1.263c-1.969-0.839-4.945-2.107-4.854-5.904
		c0.075-3.117,2.155-4.513,4.005-5.372C271.974,308.185,271.801,307.94,271.639,307.675z"/>
	<path d="M277.795,323.822c0.001-0.002,0.003-0.004,0.004-0.005c0.719-0.614,1.152-1.484,1.206-2.541l0.004-0.071l-0.002-0.072
		c-0.019-0.771-0.195-1.421-0.477-1.974c-0.595-1.168-1.658-1.901-2.696-2.429c-0.457-0.232-0.908-0.427-1.312-0.599
		c-2.138-0.911-2.537-1.271-2.514-2.269c0.026-1.097,0.641-1.516,2.738-2.387c0.712-0.295,1.569-0.654,2.333-1.178
		c0.851-0.583,1.579-1.372,1.857-2.514c0.087-0.357,0.136-0.747,0.123-1.179c-0.012-0.355-0.076-0.683-0.165-0.996
		c-0.923,2.324-2.383,4.012-4.276,4.012l-0.087-0.002c-0.858-0.025-1.662-0.426-2.323-1.158c-0.017-0.019-0.03-0.043-0.047-0.062
		c-1.85,0.859-3.93,2.255-4.005,5.372c-0.091,3.797,2.886,5.065,4.854,5.904c1.389,0.592,1.922,0.896,2.084,1.263
		c-0.087,0.014-0.201,0.023-0.343,0.023c-2.625,0-7.502-2.949-7.619-7.163c0.212-2.828,2.362-4.976,4.506-6.124
		c-0.139-0.229-0.27-0.469-0.389-0.73c-0.716,0.707-1.551,1.129-2.493,1.129l-0.087-0.002c-0.138-0.004-0.271-0.034-0.405-0.057
		c-0.432,0.344-0.921,0.575-1.476,0.659c-0.145,0.021-0.289,0.032-0.434,0.032c-0.425,0-0.84-0.104-1.24-0.285
		c-0.596,0.874-1.084,1.832-1.405,2.876c-0.229,0.74-0.377,1.52-0.428,2.336l-0.004,0.074l0.001,0.074
		c0.012,0.836,0.133,1.637,0.342,2.397c1.181,4.295,5.206,7.31,8.787,8.286c0.816,0.223,1.612,0.35,2.344,0.35
		c0.26,0,0.506-0.023,0.747-0.054C276.423,324.646,277.206,324.323,277.795,323.822z"/>
	<polygon points="274.618,308.372 274.618,308.367 274.618,308.367 	"/>
	<path fill="#A95600" d="M285.999,313.154c-0.021,1.044,0.361,2.028,1.078,2.771c0.701,0.727,1.641,1.135,2.646,1.15h0.058
		c2.067,0,3.786-1.709,3.831-3.81c0.021-1.044-0.361-2.029-1.079-2.772c-0.7-0.727-1.64-1.135-2.645-1.15h-0.058
		C287.763,309.344,286.044,311.054,285.999,313.154z"/>
	<path d="M285.601,313.146c-0.024,1.15,0.398,2.236,1.189,3.057c0.032,0.033,0.07,0.056,0.103,0.088
		c0.765,0.743,1.759,1.168,2.824,1.184l0.063,0.001c2.283,0,4.181-1.885,4.229-4.201c0.024-1.151-0.398-2.236-1.19-3.058
		c-0.774-0.804-1.814-1.255-2.926-1.271l-0.063-0.001c-1.237,0-2.35,0.565-3.127,1.441
		C286.046,311.126,285.623,312.085,285.601,313.146z M289.83,309.344h0.058c1.005,0.016,1.944,0.424,2.645,1.15
		c0.718,0.743,1.101,1.729,1.079,2.772c-0.045,2.101-1.764,3.81-3.831,3.81h-0.058c-1.005-0.016-1.944-0.424-2.646-1.15
		c-0.717-0.743-1.1-1.728-1.078-2.771C286.044,311.054,287.763,309.344,289.83,309.344z"/>
	<path fill="#009200" d="M265.551,305.71c-0.512-0.994-0.863-2.252-1.031-3.67c-0.053,0.516-0.129,1.018-0.231,1.501
		C264.68,304.55,265.134,305.276,265.551,305.71z"/>
	<polygon points="268.757,306.823 268.757,306.818 268.757,306.818 	"/>
	<path d="M266.347,306.913c-0.3-0.332-0.561-0.745-0.796-1.203c-0.417-0.434-0.871-1.16-1.263-2.169
		c-0.251,1.183-0.648,2.245-1.206,3.057c0.6,0.861,1.29,1.488,2.033,1.823c0.4,0.181,0.815,0.285,1.24,0.285
		c0.145,0,0.289-0.011,0.434-0.032c0.555-0.084,1.044-0.315,1.476-0.659C267.56,307.894,266.902,307.528,266.347,306.913z"/>
	<path fill="#009200" d="M258.923,298.599c-0.389,0.637-0.858,1.151-1.421,1.48c0.524,3.696,2.068,5.647,2.81,5.647l0.061-0.005
		c0.651-0.099,1.637-1.819,1.738-4.765C260.832,300.905,259.762,299.988,258.923,298.599z"/>
	<path d="M257.77,307.008c0.768,0.775,1.633,1.219,2.542,1.219c0.145,0,0.289-0.011,0.434-0.032s0.281-0.062,0.417-0.104
		c0.772-0.233,1.412-0.756,1.92-1.493c0.558-0.812,0.955-1.874,1.206-3.057c0.103-0.483,0.179-0.985,0.231-1.501
		c-0.081-0.683-0.124-1.396-0.116-2.136c-0.49,0.551-1.075,0.921-1.77,1.03c-0.138,0.022-0.275,0.033-0.413,0.033
		c-0.038,0-0.073-0.01-0.11-0.011c-0.102,2.945-1.087,4.666-1.738,4.765l-0.061,0.005c-0.741,0-2.285-1.951-2.81-5.647
		c-0.33,0.192-0.689,0.325-1.081,0.384c-0.144,0.021-0.289,0.032-0.434,0.032c-0.335,0-0.665-0.062-0.986-0.176
		c0.231,1.708,0.675,3.233,1.272,4.479C256.703,305.692,257.209,306.44,257.77,307.008z"/>
	<path fill="#009200" d="M256.868,291.729c-0.318-0.256-0.642-0.52-0.974-0.797c-0.251,0.12-0.515,0.217-0.801,0.261
		c-0.139,0.021-0.278,0.032-0.417,0.032c-0.601,0-1.152-0.188-1.659-0.512c0.015,0.349,0.037,0.705,0.077,1.08
		c0.435,4.072,2.115,6.202,2.894,6.202l0.061-0.005c0.481-0.072,1.143-1.036,1.498-2.721
		C257.225,294.129,256.995,292.918,256.868,291.729z"/>
	<path d="M256.422,300.463c0.391-0.059,0.75-0.191,1.081-0.384c0.562-0.329,1.032-0.844,1.421-1.48
		c-0.567-0.938-1.026-2.091-1.376-3.329c-0.355,1.685-1.017,2.648-1.498,2.721l-0.061,0.005c-0.779,0-2.458-2.13-2.894-6.202
		c-0.04-0.375-0.062-0.731-0.077-1.08c-0.943-0.604-1.72-1.698-2.315-3.04c-0.219,1.397-0.25,2.919-0.093,4.386
		c0.455,4.257,2.229,7.494,4.393,8.261c0.321,0.114,0.651,0.176,0.986,0.176C256.133,300.495,256.278,300.484,256.422,300.463z"/>
	<path fill="#009200" d="M262.221,298.468l0.022-0.002c0.183-0.029,0.417-0.284,0.649-0.733c-0.396-0.655-0.712-1.453-0.94-2.357
		c-0.578-0.363-1.311-0.846-2.167-1.449C260.502,296.911,261.712,298.468,262.221,298.468z"/>
	<path d="M263.471,298.535c-0.21-0.232-0.399-0.508-0.578-0.803c-0.232,0.449-0.467,0.704-0.649,0.733l-0.022,0.002
		c-0.509,0-1.719-1.557-2.436-4.542c-0.189-0.133-0.375-0.264-0.576-0.408c-0.74-0.24-1.397-0.76-1.963-1.485
		c-0.123-0.097-0.253-0.204-0.378-0.304c0.127,1.189,0.356,2.4,0.679,3.541c0.35,1.238,0.809,2.391,1.376,3.329
		c0.839,1.39,1.909,2.307,3.188,2.358c0.037,0.001,0.072,0.011,0.11,0.011c0.138,0,0.275-0.011,0.413-0.033
		c0.694-0.109,1.279-0.479,1.77-1.03c0.003-0.2,0.015-0.404,0.023-0.607C264.087,299.106,263.763,298.859,263.471,298.535z"/>
	<path d="M259.209,293.518c-0.608-0.441-1.267-0.936-1.963-1.485C257.812,292.758,258.469,293.277,259.209,293.518z"/>
	<path d="M253.017,290.713c0.506,0.323,1.058,0.512,1.659,0.512c0.139,0,0.278-0.011,0.417-0.032
		c0.286-0.044,0.549-0.141,0.801-0.261c-1.88-1.57-3.956-3.494-6.04-5.776c0.221,0.889,0.503,1.743,0.847,2.518
		C251.298,289.015,252.074,290.109,253.017,290.713z"/>
	<polygon fill="#804BFF" points="253.271,224.143 253.271,224.136 253.27,224.136 	"/>
	<polygon fill="#804BFF" points="247.436,224.36 247.436,224.354 247.435,224.354 	"/>
	<path fill="#804BFF" d="M261.571,290.388c0.109-1.501,0.408-3.005,0.871-4.342c-0.371-1.52-0.515-3.334-0.373-5.271
		c0.279-3.804,1.651-7.636,3.834-8.82c-0.785-1.583-1.549-3.228-2.278-4.929c-3.045-7.102-5.028-14.059-5.764-19.759
		c-1.711-7.164-2.133-13.418-1.125-17.84c-0.57-0.242-1.092-0.594-1.537-1.048c-0.882-0.901-1.355-2.088-1.333-3.341
		c0.001-0.075,0.021-0.145,0.026-0.219c-0.206,0.023-0.409,0.057-0.622,0.057l-0.105-0.001c-1.007-0.018-1.966-0.296-2.785-0.792
		c-0.814,0.648-1.831,1.053-2.945,1.053l-0.087-0.001c-1.521-0.027-2.849-0.774-3.697-1.894c-2.876,5.952-5.744,15.635-5.056,30.014
		c1.147,21.542,16.36,34.312,22.941,38.858C261.524,291.549,261.528,290.976,261.571,290.388z"/>
	<path d="M255.894,290.932c0.332,0.277,0.656,0.541,0.974,0.797c0.125,0.1,0.255,0.207,0.378,0.304
		c0.696,0.55,1.354,1.044,1.963,1.485c0.201,0.145,0.387,0.275,0.576,0.408c0.856,0.604,1.589,1.086,2.167,1.449
		c-0.249-0.984-0.39-2.089-0.416-3.264c-6.581-4.546-21.793-17.316-22.941-38.858c-0.688-14.379,2.18-24.062,5.056-30.014
		c-0.61-0.804-0.979-1.794-0.96-2.875c0.006-0.343,0.057-0.675,0.135-0.998c-3.457,5.877-7.558,16.642-6.727,34.012
		c0.753,14.145,7.278,24.685,13.756,31.776C251.939,287.438,254.014,289.361,255.894,290.932z"/>
	<path fill="#009200" d="M276.642,298.679c-0.158,0.027-0.318,0.047-0.483,0.047h-0.07c-0.221-0.006-0.483-0.042-0.768-0.134
		c-0.395,0.721-0.843,1.332-1.345,1.785c-0.188,1.339-0.52,2.64-0.985,3.783c0.241,1.231,0.64,2.146,1.074,2.627
		c0.134,0.149,0.338,0.328,0.541,0.335l0.013,1.245l0,0v-1.245c0.806,0,2.538-2.316,2.855-6.561
		C277.141,300.035,276.865,299.396,276.642,298.679z"/>
	<polygon fill="#009200" points="276.158,297.472 276.158,297.472 276.158,297.476 	"/>
	<path d="M279.789,302.267c-0.528-0.086-1.188-0.351-1.82-1.047c-0.176-0.194-0.341-0.415-0.495-0.658
		c-0.317,4.244-2.05,6.561-2.855,6.561v1.245v0.005v-0.005l-0.013-1.245c-0.203-0.007-0.407-0.186-0.541-0.335
		c-0.435-0.48-0.833-1.396-1.074-2.627c-0.457,1.124-1.04,2.093-1.74,2.784c0.119,0.262,0.25,0.502,0.389,0.73
		c0.162,0.266,0.335,0.51,0.522,0.725c0.017,0.02,0.03,0.044,0.047,0.062c0.661,0.732,1.465,1.133,2.323,1.158l0.087,0.002
		c1.894,0,3.354-1.688,4.276-4.012C279.3,304.589,279.602,303.446,279.789,302.267z"/>
	<path fill="#009200" d="M269.698,300.219c-0.435-0.479-0.796-1.135-1.094-1.902c-0.5,0.559-1.062,0.975-1.684,1.194
		c-0.109,2.833,0.539,4.904,1.282,5.728c0.135,0.149,0.338,0.328,0.542,0.335l0.013,1.245l0,0v-1.245
		c0.651,0,1.903-1.544,2.527-4.379C270.806,301.084,270.24,300.817,269.698,300.219z"/>
	<path d="M272.99,304.16c0.466-1.144,0.798-2.444,0.985-3.783c-0.622,0.562-1.322,0.889-2.095,0.889h-0.06
		c-0.158-0.004-0.341-0.025-0.537-0.071c-0.624,2.835-1.876,4.379-2.527,4.379v1.245v0.005v-0.005l-0.013-1.245
		c-0.204-0.007-0.407-0.186-0.542-0.335c-0.743-0.823-1.392-2.895-1.282-5.728c-0.331,0.116-0.677,0.184-1.04,0.184l-0.087-0.002
		c-0.479-0.014-0.937-0.156-1.366-0.396c-0.009,0.203-0.021,0.407-0.023,0.607c-0.008,0.74,0.035,1.453,0.116,2.136
		c0.168,1.418,0.52,2.676,1.031,3.67c0.235,0.458,0.496,0.871,0.796,1.203c0.555,0.615,1.213,0.98,1.918,1.102
		c0.135,0.022,0.268,0.053,0.405,0.057l0.087,0.002c0.942,0,1.777-0.422,2.493-1.129C271.95,306.253,272.533,305.284,272.99,304.16z
		"/>
	<polygon points="265.88,298.444 265.88,298.439 265.88,298.439 	"/>
	<polygon points="271.881,300.016 271.881,300.013 271.881,300.013 	"/>
	<polygon fill="#009200" points="266.21,289.085 266.21,289.08 266.21,289.08 	"/>
	<path fill="#009200" d="M267.789,291.176c0.008-0.102,0.02-0.202,0.028-0.304c-0.111-0.271-0.215-0.556-0.307-0.858
		c-0.407,0.201-0.84,0.321-1.301,0.321l-0.071-0.001c-0.507-0.013-1.232-0.18-1.946-0.842c-0.049,0.35-0.101,0.696-0.128,1.077
		c-0.229,3.128,0.469,5.413,1.262,6.291c0.134,0.148,0.337,0.327,0.54,0.334l0.014,1.245l0,0v-1.245
		c0.483,0,1.299-0.851,1.944-2.437C267.719,293.64,267.697,292.438,267.789,291.176z"/>
	<path d="M262.893,297.732c0.179,0.295,0.368,0.57,0.578,0.803c0.292,0.324,0.616,0.571,0.956,0.762
		c0.43,0.239,0.888,0.382,1.366,0.396l0.087,0.002c0.363,0,0.709-0.067,1.04-0.184c0.622-0.22,1.184-0.636,1.684-1.194
		c-0.388-0.998-0.651-2.207-0.779-3.559c-0.646,1.586-1.461,2.437-1.944,2.437v1.245v0.005v-0.005l-0.014-1.245
		c-0.203-0.007-0.406-0.186-0.54-0.334c-0.793-0.878-1.49-3.163-1.262-6.291c0.027-0.381,0.079-0.728,0.128-1.077
		c-0.082-0.076-0.164-0.153-0.245-0.243c-0.67-0.739-1.176-1.856-1.506-3.203c-0.463,1.337-0.762,2.841-0.871,4.342
		c-0.043,0.588-0.047,1.161-0.034,1.724c0.026,1.175,0.167,2.279,0.416,3.264C262.181,296.279,262.496,297.077,262.893,297.732z"/>
	<path fill="#009200" d="M272.201,293.499c-0.343,0.137-0.704,0.211-1.082,0.211l-0.071-0.001c-0.229-0.006-0.504-0.046-0.801-0.145
		c0.093,2.507,0.673,4.283,1.3,4.974c0.129,0.141,0.252,0.227,0.331,0.228l0.003,1.247l0,0v-1.247c0.334,0,0.933-0.616,1.498-1.824
		C272.828,296.058,272.434,294.867,272.201,293.499z"/>
	<polygon fill="#009200" points="271.119,292.455 271.119,292.455 271.119,292.46 	"/>
	<path d="M275.321,298.592c-0.444-0.142-0.943-0.422-1.424-0.952c-0.186-0.204-0.357-0.439-0.518-0.698
		c-0.565,1.208-1.164,1.824-1.498,1.824v1.247v0.003v-0.003l-0.003-1.247c-0.079-0.001-0.202-0.087-0.331-0.228
		c-0.627-0.69-1.207-2.467-1.3-4.974c-0.437-0.146-0.922-0.423-1.391-0.94c-0.409-0.452-0.753-1.054-1.039-1.752
		c-0.009,0.102-0.021,0.202-0.028,0.304c-0.093,1.263-0.07,2.464,0.035,3.582c0.128,1.352,0.392,2.561,0.779,3.559
		c0.298,0.768,0.659,1.424,1.094,1.902c0.543,0.599,1.108,0.865,1.587,0.976c0.196,0.046,0.379,0.067,0.537,0.071h0.06
		c0.772,0,1.473-0.326,2.095-0.889C274.478,299.924,274.926,299.312,275.321,298.592z"/>
	<path fill="#009200" d="M278.849,297.265c0.244,1.077,0.602,1.866,0.974,2.276c0.087,0.097,0.257,0.261,0.402,0.264l0.006,1.246
		l0,0v-1.246c0.796,0,2.447-2.612,2.759-6.882c0.015-0.204,0.016-0.395,0.023-0.592c-0.598-0.169-1.218-0.43-1.858-0.779
		C280.752,293.827,279.963,295.931,278.849,297.265z"/>
	<path d="M283.013,292.331c-0.008,0.197-0.009,0.388-0.023,0.592c-0.312,4.27-1.963,6.882-2.759,6.882v1.246v0.004v-0.004
		l-0.006-1.246c-0.146-0.003-0.315-0.167-0.402-0.264c-0.372-0.41-0.729-1.199-0.974-2.276c-0.635,0.76-1.372,1.271-2.207,1.414
		c0.223,0.718,0.499,1.356,0.832,1.883c0.154,0.243,0.319,0.464,0.495,0.658c0.632,0.696,1.292,0.961,1.82,1.047
		c0.133,0.021,0.259,0.035,0.371,0.038h0.07c2.927,0,4.811-4.385,5.219-8.834c-0.224-0.299-0.472-0.617-0.708-0.927
		c-0.069,0.004-0.136,0.019-0.207,0.019C284.048,292.562,283.539,292.479,283.013,292.331z"/>
	<path fill="#009200" d="M274.484,291.289c0.091,2.323,0.658,4.001,1.267,4.673c0.088,0.097,0.257,0.261,0.402,0.264l0.006,1.246
		l0,0v-1.246c0.755,0,2.277-2.353,2.698-6.238c-0.94-0.757-1.906-1.67-2.885-2.723C275.644,288.776,275.142,290.179,274.484,291.289
		z"/>
	<path d="M276.158,296.226v1.246v0.004v-0.004l-0.006-1.246c-0.146-0.003-0.314-0.167-0.402-0.264
		c-0.608-0.672-1.176-2.35-1.267-4.673c-0.626,1.058-1.392,1.853-2.282,2.21c0.232,1.368,0.627,2.559,1.178,3.442
		c0.16,0.259,0.332,0.494,0.518,0.698c0.48,0.53,0.979,0.811,1.424,0.952c0.284,0.092,0.547,0.128,0.768,0.134h0.07
		c0.165,0,0.325-0.02,0.483-0.047c0.835-0.143,1.572-0.654,2.207-1.414c1.114-1.334,1.903-3.438,2.306-5.713
		c-0.743-0.406-1.512-0.931-2.298-1.564C278.436,293.873,276.913,296.226,276.158,296.226z"/>
	<path fill="#009200" d="M269.592,287.884c0.229,1.482,0.661,2.558,1.118,3.062c0.087,0.097,0.257,0.261,0.402,0.264l0.007,1.246
		l0,0v-1.245c0.767,0,2.327-2.438,2.717-6.442c-0.803-1.012-1.607-2.104-2.407-3.277
		C271.213,283.858,270.579,286.202,269.592,287.884z"/>
	<path d="M271.119,291.21v1.245v0.005v-0.005l-0.007-1.246c-0.146-0.003-0.315-0.167-0.402-0.264
		c-0.457-0.504-0.89-1.579-1.118-3.062c-0.578,0.983-1.275,1.733-2.081,2.13c0.092,0.303,0.195,0.587,0.307,0.858
		c0.286,0.698,0.63,1.3,1.039,1.752c0.469,0.518,0.954,0.794,1.391,0.94c0.297,0.099,0.572,0.139,0.801,0.145l0.071,0.001
		c0.378,0,0.739-0.074,1.082-0.211c0.891-0.357,1.656-1.152,2.282-2.21c0.658-1.11,1.16-2.513,1.488-4.024
		c-0.707-0.762-1.421-1.596-2.136-2.497C273.447,288.772,271.886,291.21,271.119,291.21z"/>
	<path fill="#009200" d="M264.563,280.957c-0.244,3.336,0.471,5.767,1.238,6.613c0.087,0.097,0.257,0.261,0.402,0.264l0.007,1.246
		l0,0v-1.245c0.795,0,2.446-2.613,2.759-6.883c0.099-1.344,0.036-2.53-0.117-3.536c-0.612-1.041-1.217-2.126-1.812-3.245
		C266.185,274.663,264.842,277.147,264.563,280.957z"/>
	<path d="M266.139,290.334l0.071,0.001c0.461,0,0.894-0.12,1.301-0.321c0.806-0.396,1.503-1.146,2.081-2.13
		c0.987-1.682,1.621-4.025,1.837-6.394c-0.867-1.271-1.729-2.634-2.577-4.074c0.153,1.006,0.216,2.192,0.117,3.536
		c-0.312,4.27-1.964,6.883-2.759,6.883v1.245v0.005v-0.005l-0.007-1.246c-0.146-0.003-0.315-0.167-0.402-0.264
		c-0.768-0.847-1.482-3.277-1.238-6.613c0.279-3.81,1.622-6.294,2.478-6.786c-0.384-0.724-0.763-1.463-1.138-2.217
		c-2.183,1.185-3.555,5.017-3.834,8.82c-0.142,1.938,0.002,3.752,0.373,5.271c0.33,1.347,0.836,2.464,1.506,3.203
		c0.081,0.09,0.163,0.167,0.245,0.243C264.906,290.154,265.632,290.321,266.139,290.334z"/>
	<path fill="#C90000" d="M282.541,291.127c-6.484-4.768-13.793-15.117-19.34-28.022c-0.269-0.625-0.519-1.245-0.772-1.866
		c0.636,1.774,1.336,3.576,2.115,5.393C269.925,279.177,277.251,288.995,282.541,291.127z"/>
	<path d="M282.541,291.127c-5.29-2.132-12.616-11.95-17.997-24.496c-0.779-1.816-1.479-3.618-2.115-5.393
		c-1.981-4.851-3.519-9.579-4.568-13.972c0.735,5.7,2.719,12.657,5.764,19.759c0.729,1.701,1.493,3.346,2.278,4.929
		c0.375,0.754,0.754,1.493,1.138,2.217c0.595,1.119,1.199,2.204,1.812,3.245c0.848,1.44,1.71,2.803,2.577,4.074
		c0.8,1.173,1.604,2.266,2.407,3.277c0.715,0.901,1.429,1.735,2.136,2.497c0.979,1.053,1.944,1.966,2.885,2.723
		c0.786,0.634,1.555,1.158,2.298,1.564c0.641,0.35,1.261,0.61,1.858,0.779c0.526,0.148,1.035,0.231,1.521,0.231
		c0.071,0,0.138-0.015,0.207-0.019c-0.001-0.001-0.002-0.003-0.004-0.005C284.019,292.144,283.286,291.674,282.541,291.127z"/>
	<path fill="#009200" d="M263.9,222.398c0.159,0.023,0.318,0.048,0.484,0.051l0.024,0.263c0.016,0.002,0.032,0.005,0.048,0.007
		v-0.27c0.084,0,0.163-0.016,0.245-0.021c-0.025-0.631,0.048-1.227,0.238-1.766c-0.137-0.182-0.268-0.372-0.395-0.568
		c0,0.034,0.009,0.066,0.008,0.1C264.539,220.999,264.29,221.743,263.9,222.398z"/>
	<path d="M264.384,222.449c-0.166-0.003-0.325-0.028-0.484-0.051c-0.052,0.086-0.094,0.178-0.15,0.26
		c0.217,0.008,0.437,0.025,0.659,0.054L264.384,222.449z"/>
	<path d="M264.456,222.72c0.087,0.012,0.175,0.025,0.263,0.04c-0.004-0.048-0.017-0.096-0.021-0.144
		c-0.005-0.065,0.006-0.124,0.003-0.188c-0.082,0.005-0.161,0.021-0.245,0.021V222.72z"/>
	<path fill="#009200" d="M256.304,227.296c0.251,0.257,0.546,0.455,0.859,0.612c0.11-0.323,0.218-0.651,0.348-0.947
		c0.403-0.92,0.898-1.69,1.475-2.322c-0.824-0.14-1.582-0.492-2.226-1.02c-0.371,0.312-0.795,0.567-1.255,0.77
		c-0.054,0.218-0.089,0.443-0.093,0.675C255.397,225.901,255.714,226.694,256.304,227.296z"/>
	<path d="M257.163,227.909c-0.313-0.157-0.608-0.355-0.859-0.612c-0.59-0.603-0.907-1.395-0.892-2.231
		c0.004-0.232,0.04-0.457,0.093-0.675c-0.5,0.221-1.041,0.365-1.613,0.428c-0.005,0.074-0.025,0.144-0.026,0.219
		c-0.022,1.253,0.451,2.44,1.333,3.341c0.444,0.454,0.966,0.806,1.537,1.048C256.857,228.893,257,228.387,257.163,227.909z"/>
	<path fill="#009200" d="M259.749,223.16l0.057,0.72c0.002-0.001,0.003-0.002,0.005-0.004v-0.715c1.725,0,3.151-1.343,3.18-2.994
		c0.014-0.753-0.268-1.464-0.776-2.031c-0.26,0.039-0.522,0.072-0.794,0.072l-0.099-0.001c-0.768-0.014-1.482-0.199-2.126-0.494
		c-0.336,0.326-0.729,0.588-1.152,0.806c0.251,0.566,0.377,1.176,0.366,1.805c-0.014,0.766-0.258,1.478-0.642,2.111
		C258.325,222.884,259.011,223.147,259.749,223.16z"/>
	<path d="M259.806,223.88l-0.057-0.72c-0.738-0.013-1.424-0.276-1.981-0.725c-0.268,0.442-0.602,0.844-1.008,1.185
		c0.644,0.527,1.401,0.879,2.226,1.02C259.242,224.357,259.516,224.103,259.806,223.88z"/>
	<path d="M262.214,218.136c0.509,0.567,0.79,1.278,0.776,2.031c-0.028,1.651-1.455,2.994-3.18,2.994v0.715
		c0.493-0.378,1.031-0.679,1.618-0.886c0.648-0.229,1.344-0.345,2.069-0.345c0.082,0,0.168,0.01,0.251,0.013
		c0.057-0.083,0.099-0.174,0.15-0.26c0.391-0.655,0.64-1.4,0.653-2.204c0.001-0.034-0.008-0.066-0.008-0.1
		c-0.455-0.704-0.828-1.493-1.058-2.318C263.087,217.947,262.662,218.068,262.214,218.136z"/>
	<polygon points="261.42,217.421 261.419,217.421 261.42,217.428 	"/>
	<path fill="#009200" d="M253.27,224.136C253.27,224.136,253.271,224.136,253.27,224.136l0.001-0.725
		c1.997,0,3.646-1.396,3.676-3.113c0.008-0.456-0.105-0.896-0.31-1.305c-0.257,0.042-0.517,0.077-0.786,0.077l-0.089,0
		c-0.843-0.015-1.621-0.262-2.301-0.65c-0.188,0.923-0.654,1.753-1.321,2.392c-0.063,0.788-0.317,1.521-0.73,2.153
		c0.539,0.271,1.142,0.434,1.782,0.446L253.27,224.136z"/>
	<polygon fill="#009200" points="255.851,218.289 255.851,218.283 255.851,218.283 	"/>
	<path d="M253.271,224.875c0.212,0,0.416-0.034,0.622-0.057c0.572-0.063,1.113-0.207,1.613-0.428
		c0.459-0.203,0.884-0.458,1.255-0.77c0.406-0.341,0.74-0.743,1.008-1.185c0.384-0.634,0.628-1.345,0.642-2.111
		c0.011-0.628-0.115-1.239-0.366-1.805c-0.437,0.225-0.905,0.391-1.406,0.474c0.204,0.409,0.317,0.849,0.31,1.305
		c-0.03,1.717-1.679,3.113-3.676,3.113v0.725v0.007l-0.001-0.007l-0.078-0.725c-0.64-0.012-1.244-0.175-1.782-0.446
		c-0.279,0.427-0.629,0.798-1.029,1.116c0.818,0.497,1.777,0.775,2.785,0.792L253.271,224.875z"/>
	<path fill="#009200" d="M260.128,216.421c0.378,0.135,0.788,0.219,1.221,0.227l0.07,0.774c0.001,0,0.001,0,0.001,0v-0.773
		c0.677,0,1.309-0.176,1.838-0.477c-0.004-0.35,0.028-0.685,0.094-1.007c-0.342-0.412-0.662-0.875-0.943-1.375
		c-0.577,0.106-1.19,0.206-1.852,0.304c0.012,0.15,0.04,0.297,0.037,0.449C260.582,215.214,260.409,215.847,260.128,216.421z"/>
	<path d="M261.42,216.648v0.773v0.007l-0.001-0.007l-0.07-0.774c-0.433-0.008-0.843-0.092-1.221-0.227
		c-0.236,0.48-0.548,0.919-0.933,1.292c0.644,0.295,1.358,0.48,2.126,0.494l0.099,0.001c0.271,0,0.534-0.033,0.794-0.072
		c0.448-0.067,0.873-0.189,1.273-0.359c-0.114-0.411-0.205-0.827-0.236-1.247c-0.01-0.124,0.008-0.238,0.007-0.358
		C262.729,216.472,262.097,216.648,261.42,216.648z"/>
	<path fill="#009200" d="M255.791,217.507l0.06,0.775h0v-0.774c1.725,0,3.152-1.343,3.18-2.994c0.001-0.074-0.014-0.146-0.019-0.219
		c-1.279,0.161-2.551,0.258-3.778,0.258c-0.004,0-0.008,0-0.012,0c-0.052,0.948-0.402,1.817-0.962,2.531
		C254.714,217.337,255.231,217.498,255.791,217.507z"/>
	<path d="M255.762,219.07l0.089,0c0.269,0,0.528-0.035,0.786-0.077c0.501-0.083,0.97-0.249,1.406-0.474
		c0.423-0.218,0.816-0.48,1.152-0.806c0.385-0.373,0.696-0.812,0.933-1.292c0.281-0.574,0.454-1.207,0.466-1.878
		c0.003-0.152-0.025-0.299-0.037-0.449c-0.312,0.046-0.632,0.092-0.967,0.139c-0.193,0.028-0.384,0.039-0.577,0.063
		c0.005,0.074,0.02,0.145,0.019,0.219c-0.028,1.65-1.455,2.994-3.18,2.994v0.774v0.006l0-0.006l-0.06-0.775
		c-0.56-0.01-1.077-0.17-1.53-0.422c-0.213,0.272-0.458,0.515-0.727,0.735c-0.013,0.203-0.034,0.404-0.073,0.6
		C254.142,218.808,254.919,219.055,255.762,219.07z"/>
	<polygon fill="#009200" points="248.816,221.364 248.816,221.357 248.816,221.357 	"/>
	<path fill="#009200" d="M248.816,222.145l-0.089,0c-1.263-0.023-2.444-0.52-3.324-1.401c-0.411-0.411-0.723-0.887-0.949-1.397
		c-0.127,0.328-0.211,0.677-0.217,1.045c-0.03,1.73,1.378,3.164,3.139,3.195l0.059,0.767h0v-0.767c1.213,0,2.269-0.688,2.808-1.681
		C249.789,222.048,249.316,222.145,248.816,222.145z"/>
	<path d="M243.652,223.239c0.849,1.119,2.177,1.867,3.697,1.894l0.087,0.001c1.114,0,2.131-0.405,2.945-1.053
		c0.399-0.318,0.75-0.689,1.029-1.116c0.413-0.632,0.667-1.365,0.73-2.153c-0.526,0.503-1.18,0.871-1.896,1.094
		c-0.539,0.993-1.594,1.681-2.808,1.681v0.767v0.006l0-0.006l-0.059-0.767c-1.761-0.031-3.169-1.465-3.139-3.195
		c0.006-0.369,0.09-0.717,0.217-1.045c-0.263-0.593-0.405-1.234-0.394-1.899c0.002-0.109,0.029-0.21,0.039-0.317
		c-0.617,0.605-1.064,1.377-1.273,2.237c-0.078,0.322-0.128,0.654-0.135,0.998C242.672,221.445,243.042,222.435,243.652,223.239z"/>
	<path fill="#009200" d="M250.5,218.923l-0.089,0c-1.975-0.035-3.648-1.244-4.334-2.927c-0.273,0.438-0.444,0.939-0.454,1.479
		c-0.015,0.81,0.299,1.578,0.885,2.164c0.593,0.593,1.391,0.928,2.248,0.943l0.06,0.775h0v-0.774c1.297,0,2.425-0.761,2.917-1.84
		C251.337,218.849,250.928,218.923,250.5,218.923z"/>
	<polygon fill="#009200" points="250.5,218.142 250.5,218.136 250.499,218.136 	"/>
	<path d="M244.061,217.448c-0.012,0.665,0.131,1.306,0.394,1.899c0.226,0.51,0.538,0.986,0.949,1.397
		c0.88,0.881,2.061,1.378,3.324,1.401l0.089,0c0.5,0,0.973-0.097,1.427-0.239c0.717-0.224,1.371-0.591,1.896-1.094
		c0.667-0.639,1.133-1.469,1.321-2.392c0.04-0.196,0.06-0.397,0.073-0.6c-0.521,0.426-1.129,0.744-1.801,0.923
		c-0.492,1.08-1.62,1.84-2.917,1.84v0.774v0.006l0-0.006l-0.06-0.775c-0.857-0.015-1.655-0.35-2.248-0.943
		c-0.585-0.585-0.899-1.354-0.885-2.164c0.009-0.541,0.181-1.041,0.454-1.479c-0.224-0.548-0.344-1.146-0.333-1.77
		c0.001-0.069,0.021-0.134,0.025-0.203c-0.934,0.765-1.556,1.863-1.669,3.107C244.09,217.237,244.063,217.339,244.061,217.448z"/>
	<path fill="#009200" d="M247.519,213.249c-0.125,0.315-0.207,0.651-0.213,1.005c-0.03,1.682,1.376,3.075,3.133,3.106l0.06,0.775h0
		v-0.774c1.676,0,3.06-1.272,3.164-2.859C251.386,214.367,249.311,213.938,247.519,213.249z"/>
	<path d="M246.077,215.996c0.686,1.683,2.359,2.892,4.334,2.927l0.089,0c0.429,0,0.837-0.075,1.234-0.181
		c0.671-0.179,1.28-0.497,1.801-0.923c0.268-0.22,0.513-0.463,0.727-0.735c0.56-0.714,0.91-1.583,0.962-2.531
		c-0.531,0-1.048-0.021-1.56-0.052c-0.104,1.587-1.488,2.859-3.164,2.859v0.774v0.006l0-0.006l-0.06-0.775
		c-1.757-0.031-3.163-1.425-3.133-3.106c0.006-0.354,0.088-0.689,0.213-1.005c-0.387-0.148-0.759-0.311-1.119-0.483
		c-0.147,0.099-0.299,0.193-0.456,0.285c-0.093,0.313-0.154,0.637-0.176,0.973c-0.004,0.068-0.024,0.133-0.025,0.203
		C245.733,214.851,245.853,215.448,246.077,215.996z"/>
	<path fill="#009200" d="M279.061,241.512c2.149,2.313,4.273,5.798,5.807,9.267c1.031,2.332,1.783,4.58,2.24,6.594
		c1.336,1.367,2.555,3.435,3.397,5.32c0.124,0.278,0.25,0.583,0.375,0.897c-0.948-2.97-2.072-6.015-3.383-9.064
		c-3.521-8.192-7.562-14.908-11.456-19.841C277.08,236.659,278.299,239.196,279.061,241.512z"/>
	<path fill="#009200" d="M291.853,271.462c0.767,1.4,1.389,2.74,1.887,4.024c-0.374-2.486-0.933-5.146-1.682-7.928
		C292.329,269.059,292.342,270.481,291.853,271.462z"/>
	<path fill="#009200" d="M262.137,247.581c-0.62-1.078-1.173-2.241-1.614-3.404c-0.169-0.445-0.32-0.884-0.456-1.315
		c-0.219-0.283-0.434-0.567-0.641-0.85c0.326,1.97,0.78,4.052,1.335,6.2l0.804-0.329L262.137,247.581z"/>
	<path fill="#009200" d="M264.139,255.583c-1.114-1.926-2.177-4.113-3.071-6.192c0.813,2.974,1.84,6.071,3.049,9.199
		C263.989,257.448,264.001,256.438,264.139,255.583z"/>
	<path fill="#009200" d="M271.78,274.339c0.822,1.363,1.649,2.655,2.479,3.868c-0.475-1.033-0.852-2.037-1.146-3.01
		C272.671,274.993,272.226,274.703,271.78,274.339z"/>
	<path fill="#009200" d="M271.062,233.568l1.388-1.035c-0.019-0.031-0.035-0.06-0.054-0.091l0.184-0.11
		c-1.271-0.939-2.371-1.888-3.229-2.672C269.904,230.796,270.526,232.167,271.062,233.568z"/>
	<path fill="#009200" d="M263.498,225.19c-0.436,0-0.847,0.067-1.222,0.199c-1.02,0.36-1.839,1.232-2.435,2.593
		c-0.923,2.107-1.231,5.182-1.009,8.863l0.671-0.511c0.05-0.162,0.112-0.307,0.177-0.451c-0.324-0.515-0.573-0.93-0.714-1.169
		l1.241-0.73l2.182-1.661c-0.071-0.132-0.141-0.259-0.198-0.367l1.209-0.647l2.603-2.181c-0.046-0.087-0.085-0.168-0.132-0.256
		l1.664-0.89c-0.674-0.578-1.342-1.392-1.865-2.336C264.887,225.348,264.157,225.19,263.498,225.19z"/>
	<path d="M264.408,222.712c-0.223-0.029-0.442-0.046-0.659-0.054c-0.083-0.003-0.169-0.013-0.251-0.013
		c-0.726,0-1.421,0.116-2.069,0.345c-0.587,0.207-1.125,0.507-1.618,0.886c-0.002,0.001-0.003,0.002-0.005,0.004
		c-0.29,0.223-0.563,0.478-0.82,0.76c-0.576,0.631-1.071,1.401-1.475,2.322c-0.13,0.296-0.237,0.625-0.348,0.947
		c-0.163,0.479-0.307,0.984-0.428,1.518c-1.008,4.422-0.586,10.677,1.125,17.84c1.05,4.393,2.587,9.121,4.568,13.972
		c0.254,0.621,0.504,1.241,0.772,1.866c5.547,12.905,12.855,23.255,19.34,28.022c0.745,0.547,1.478,1.017,2.196,1.412
		c-1.549-2.028-3.363-4.271-5.568-6.846c-2.259-2.637-3.833-5.138-4.911-7.486c-0.829-1.213-1.656-2.505-2.479-3.868
		c-2.264-1.854-4.521-5.585-5.972-9.294c-0.909-2.326-1.478-4.553-1.691-6.454c-1.209-3.128-2.235-6.225-3.049-9.199
		c-0.162-0.375-0.319-0.748-0.469-1.114l0.162-0.066c-0.555-2.147-1.009-4.23-1.335-6.2c-1.229-1.684-2.205-3.301-2.551-3.89
		l1.241-0.73l0.717-0.546c-0.223-3.682,0.086-6.756,1.009-8.863c0.596-1.36,1.415-2.232,2.435-2.593
		c0.375-0.132,0.786-0.199,1.222-0.199c0.659,0,1.389,0.158,2.172,0.456c-0.493-0.889-0.851-1.882-0.951-2.887
		c-0.088-0.015-0.176-0.028-0.263-0.04C264.441,222.717,264.424,222.714,264.408,222.712z"/>
	<path d="M275.926,234.47c0.039,0.072,0.076,0.142,0.115,0.215c3.894,4.933,7.935,11.648,11.456,19.841
		c1.311,3.049,2.435,6.094,3.383,9.064c0.477,1.196,0.932,2.609,1.178,3.969c0.749,2.781,1.308,5.441,1.682,7.928
		c1.876,4.837,2.014,8.89,1.677,12.45c0.118,0.392,0.222,0.776,0.318,1.157c2.676-7.076,0.408-20.897-5.899-35.573
		c-2.837-6.601-6.136-12.53-9.549-17.39C278.765,235.794,277.295,235.199,275.926,234.47z"/>
	<path fill="#009200" d="M287.114,264.149c-0.031,0.065-0.072,0.117-0.107,0.178c0.943,1.174,1.789,2.311,2.545,3.412
		c-0.214-1.077-0.619-2.438-1.329-4.027c-0.216-0.483-0.435-0.921-0.654-1.335C287.495,263.068,287.348,263.668,287.114,264.149z"/>
	<path d="M287.108,257.372c0.439,1.938,0.602,3.653,0.46,5.005c0.22,0.414,0.438,0.852,0.654,1.335
		c0.71,1.589,1.115,2.95,1.329,4.027c0.883,1.287,1.646,2.527,2.302,3.723c0.489-0.98,0.477-2.403,0.205-3.903
		c-0.246-1.359-0.701-2.772-1.178-3.969c-0.125-0.314-0.251-0.619-0.375-0.897C289.662,260.807,288.444,258.739,287.108,257.372z"/>
	<path fill="#009200" d="M285.885,265.389c-0.113,0.051-0.227,0.103-0.35,0.134c-0.19,0.049-0.392,0.073-0.598,0.073
		c-0.872,0-1.823-0.441-2.8-1.187c0.139,0.919,0.19,1.759,0.16,2.513c1.365,2.189,3.063,4.582,5.221,7.209
		c3.06,3.725,5.132,7.077,6.51,10.128C293.892,279.2,292.159,273.229,285.885,265.389z"/>
	<path d="M289.551,267.739c-0.756-1.102-1.602-2.238-2.545-3.412c-0.282,0.496-0.662,0.856-1.121,1.062
		c6.274,7.841,8.007,13.812,8.144,18.87c0.577,1.277,1.034,2.502,1.388,3.678c0.337-3.561,0.199-7.613-1.677-12.45
		c-0.498-1.284-1.12-2.624-1.887-4.024C291.198,270.267,290.434,269.026,289.551,267.739z"/>
	<path fill="#009200" d="M281.763,269.326c-0.386,0.701-0.968,1.138-1.681,1.26c-0.117,0.021-0.238,0.027-0.361,0.03
		c1.666,3.312,4.153,7.223,8.106,11.839c3.405,3.978,5.639,7.542,7.072,10.772c-0.415-4.903-2.446-10.675-8.563-18.122
		c-1.773-2.159-3.236-4.16-4.475-6.031C281.825,269.154,281.803,269.253,281.763,269.326z"/>
	<path d="M294.029,284.259c-1.378-3.051-3.45-6.403-6.51-10.128c-2.157-2.627-3.855-5.02-5.221-7.209
		c-0.034,0.852-0.177,1.58-0.437,2.152c1.238,1.871,2.701,3.872,4.475,6.031c6.117,7.447,8.148,13.219,8.563,18.122
		c0.674,1.52,1.168,2.963,1.526,4.342c0.188-2.541,0.102-5.333-0.691-8.476c-0.097-0.381-0.2-0.766-0.318-1.157
		C295.063,286.761,294.606,285.536,294.029,284.259z"/>
	<path fill="#009200" d="M277.059,269.528c0.248,2.044,0.098,3.731-0.5,4.765c-0.4,0.692-0.991,1.115-1.707,1.223
		c-0.014,0.002-0.027,0.001-0.041,0.003c0.97,2.795,2.676,5.854,5.522,9.179c9.651,11.271,12.272,16.551,15.157,23.079
		c0.698-6.273,0.363-13.592-8.829-24.327c-4.592-5.361-7.263-9.804-8.957-13.476C277.49,269.843,277.275,269.694,277.059,269.528z"
		/>
	<path d="M294.9,293.228c-1.434-3.23-3.667-6.795-7.072-10.772c-3.953-4.616-6.44-8.526-8.106-11.839
		c-0.02,0.001-0.037,0.005-0.057,0.005c-0.628,0-1.289-0.239-1.96-0.647c1.694,3.672,4.365,8.114,8.957,13.476
		c9.192,10.735,9.527,18.054,8.829,24.327c-2.885-6.528-5.506-11.809-15.157-23.079c-2.847-3.324-4.553-6.384-5.522-9.179
		c-0.105,0.015-0.212,0.024-0.321,0.024c-0.447,0-0.91-0.13-1.378-0.346c0.295,0.973,0.672,1.977,1.146,3.01
		c1.078,2.349,2.652,4.85,4.911,7.486c2.205,2.575,4.02,4.817,5.568,6.846c0.002,0.002,0.003,0.004,0.004,0.005
		c0.236,0.31,0.484,0.628,0.708,0.927c0.17,0.229,0.322,0.442,0.485,0.665c1.014,1.38,1.903,2.662,2.68,3.862
		c1.004,1.549,1.839,2.978,2.577,4.354c0.87,1.621,1.609,3.175,2.33,4.774c0.388,0.859,0.771,1.732,1.168,2.638l1.604,3.561
		l0.37-2.677c0.516-3.725,1.096-7.946-0.238-13.079C296.068,296.19,295.573,294.747,294.9,293.228z"/>
	<path fill="#009200" d="M280.31,254.199c-0.298,0.582-0.767,0.981-1.332,1.176c0.51,0.952,0.979,1.938,1.387,2.922
		c0.546,1.314,0.969,2.591,1.29,3.805c1.304,1.357,2.471,2.104,3.283,2.104c0.091,0,0.177-0.011,0.256-0.03
		c0.278-0.071,0.498-0.278,0.671-0.635c0.789-1.622,0.417-6.133-2.267-12.202c-1.192-2.696-2.529-4.983-3.832-6.778
		c0.087,0.906,0.007,1.682-0.309,2.245C280.743,249.927,281.079,252.691,280.31,254.199z"/>
	<path d="M285.865,263.542c-0.173,0.356-0.393,0.563-0.671,0.635c-0.079,0.02-0.165,0.03-0.256,0.03
		c-0.812,0-1.979-0.747-3.283-2.104c0.213,0.806,0.374,1.577,0.483,2.307c0.977,0.745,1.928,1.187,2.8,1.187
		c0.206,0,0.407-0.024,0.598-0.073c0.123-0.031,0.236-0.083,0.35-0.134c0.459-0.205,0.839-0.565,1.121-1.062
		c0.035-0.061,0.076-0.112,0.107-0.178c0.234-0.481,0.382-1.081,0.454-1.772c0.142-1.352-0.021-3.067-0.46-5.005
		c-0.457-2.014-1.209-4.262-2.24-6.594c-1.533-3.469-3.657-6.954-5.807-9.267c0.359,1.094,0.617,2.139,0.705,3.05
		c1.303,1.794,2.64,4.082,3.832,6.778C286.281,257.409,286.654,261.92,285.865,263.542z"/>
	<path fill="#009200" d="M276.141,254.832c0.043,1.193-0.12,2.199-0.528,2.896c-0.394,0.673-1.009,1.094-1.73,1.186
		c-0.102,0.013-0.205,0.02-0.31,0.02c-0.084,0-0.17-0.017-0.255-0.024c0.785,1.368,1.495,2.849,2.073,4.328
		c0.474,1.212,0.854,2.396,1.142,3.523c1.223,1.412,2.356,2.222,3.132,2.222c0.048,0,0.094-0.003,0.14-0.011
		c0.134-0.023,0.335-0.094,0.522-0.436c0.69-1.253,0.522-4.794-1.476-9.608c-0.552-1.328-1.162-2.548-1.795-3.643
		C276.752,255.17,276.447,255.021,276.141,254.832z"/>
	<path d="M282.138,264.409c-0.109-0.729-0.271-1.501-0.483-2.307c-0.321-1.214-0.744-2.49-1.29-3.805
		c-0.408-0.984-0.877-1.971-1.387-2.922c-0.106,0.037-0.211,0.079-0.324,0.1c-0.146,0.026-0.296,0.04-0.45,0.04
		c-0.375,0-0.759-0.086-1.147-0.231c0.633,1.094,1.243,2.314,1.795,3.643c1.998,4.814,2.166,8.355,1.476,9.608
		c-0.188,0.342-0.389,0.412-0.522,0.436c-0.046,0.008-0.092,0.011-0.14,0.011c-0.775,0-1.909-0.81-3.132-2.222
		c0.25,0.977,0.421,1.902,0.526,2.769c0.216,0.166,0.431,0.314,0.646,0.445c0.671,0.408,1.332,0.647,1.96,0.647
		c0.02,0,0.037-0.004,0.057-0.005c0.123-0.003,0.244-0.01,0.361-0.03c0.713-0.122,1.295-0.559,1.681-1.26
		c0.04-0.073,0.062-0.172,0.099-0.252c0.26-0.572,0.402-1.301,0.437-2.152C282.328,266.168,282.277,265.328,282.138,264.409z"/>
	<path fill="#009200" d="M270.513,261.088c-0.199,0.104-0.478,0.202-0.825,0.202c-0.22,0-0.466-0.039-0.738-0.138
		c-1.004-0.365-2.123-1.521-3.246-3.103c0.146,1.681,0.637,3.853,1.632,6.397c2.212,5.656,5.484,9.455,7.154,9.455
		c0.04,0,0.08-0.002,0.118-0.008c0.135-0.021,0.337-0.086,0.532-0.423c0.716-1.238,0.622-4.782-1.276-9.638
		c-0.672-1.721-1.443-3.266-2.237-4.588C271.466,260.112,271.121,260.768,270.513,261.088z"/>
	<path d="M276.559,274.293c0.598-1.033,0.748-2.721,0.5-4.765c-0.105-0.866-0.276-1.792-0.526-2.769
		c-0.288-1.127-0.668-2.312-1.142-3.523c-0.578-1.479-1.288-2.96-2.073-4.328c-0.521-0.053-1.055-0.258-1.592-0.591
		c-0.013,0.331-0.047,0.641-0.1,0.929c0.794,1.322,1.565,2.867,2.237,4.588c1.898,4.855,1.992,8.399,1.276,9.638
		c-0.195,0.337-0.397,0.402-0.532,0.423c-0.038,0.006-0.078,0.008-0.118,0.008c-1.67,0-4.942-3.799-7.154-9.455
		c-0.995-2.545-1.485-4.717-1.632-6.397c-0.525-0.74-1.05-1.577-1.564-2.466c-0.138,0.855-0.15,1.865-0.022,3.007
		c0.214,1.901,0.782,4.128,1.691,6.454c1.45,3.709,3.708,7.44,5.972,9.294c0.446,0.364,0.892,0.654,1.332,0.858
		c0.468,0.216,0.931,0.346,1.378,0.346c0.109,0,0.216-0.01,0.321-0.024c0.014-0.002,0.027-0.001,0.041-0.003
		C275.568,275.408,276.158,274.985,276.559,274.293z"/>
	<path fill="#009200" d="M275.101,248.798c-0.087,0.148-0.188,0.279-0.295,0.402c0.332,0.834,0.605,1.648,0.815,2.427
		c1.081,1.169,2.041,1.792,2.582,1.792c0.024,0,0.049-0.001,0.072-0.006c0.035-0.006,0.09-0.017,0.166-0.166
		c0.333-0.654,0.315-2.617-0.886-5.557c-0.045-0.006-0.084-0.004-0.131-0.013c-0.547-0.108-1.157-0.428-1.807-0.901
		C275.566,247.583,275.405,248.28,275.101,248.798z"/>
	<path d="M278.442,253.247c-0.076,0.149-0.131,0.16-0.166,0.166c-0.023,0.004-0.048,0.006-0.072,0.006
		c-0.541,0-1.501-0.622-2.582-1.792c0.316,1.167,0.484,2.245,0.52,3.204c0.306,0.19,0.611,0.339,0.915,0.453
		c0.389,0.146,0.772,0.231,1.147,0.231c0.154,0,0.305-0.014,0.45-0.04c0.113-0.021,0.218-0.063,0.324-0.1
		c0.565-0.195,1.034-0.594,1.332-1.176c0.77-1.508,0.434-4.272-0.853-7.393c-0.125,0.223-0.286,0.413-0.489,0.564
		c-0.23,0.172-0.593,0.352-1.093,0.352c-0.099,0-0.21-0.017-0.319-0.032C278.757,250.63,278.775,252.593,278.442,253.247z"/>
	<path fill="#009200" d="M273.573,256.836l0.045-0.003c0.038-0.005,0.097-0.012,0.186-0.165c0.514-0.876,0.346-3.448-0.942-6.685
		c-0.829-0.066-1.694-0.53-2.545-1.268c-0.002,0.506-0.048,0.969-0.132,1.389c0.53,1.704,1.03,3.572,1.313,5.288
		C272.347,256.326,273.104,256.836,273.573,256.836z"/>
	<path d="M273.882,258.913c0.722-0.092,1.337-0.513,1.73-1.186c0.408-0.697,0.571-1.703,0.528-2.896
		c-0.035-0.959-0.203-2.038-0.52-3.204c-0.21-0.779-0.483-1.593-0.815-2.427c-0.379,0.435-0.872,0.711-1.436,0.783
		c-0.101,0.013-0.204,0.019-0.309,0.019c-0.066,0-0.134-0.014-0.201-0.02c1.288,3.237,1.456,5.809,0.942,6.685
		c-0.089,0.153-0.147,0.16-0.186,0.165l-0.045,0.003c-0.469,0-1.226-0.51-2.075-1.445c0.175,1.061,0.265,2.059,0.229,2.926
		c0.537,0.333,1.071,0.538,1.592,0.591c0.085,0.008,0.171,0.024,0.255,0.024C273.677,258.933,273.781,258.926,273.882,258.913z"/>
	<path fill="#009200" d="M261.565,247.882l0.604-0.247c-0.011-0.018-0.021-0.036-0.031-0.055L261.565,247.882z"/>
	<path fill="#009200" d="M267.963,252.557c-0.085,0.009-0.172,0.014-0.26,0.014c-1.424,0-2.95-1.25-4.303-3.057
		c2.766,6.197,5.276,9.275,6.182,9.654c0.282-0.621,0.107-3.076-0.911-6.823C268.448,252.449,268.215,252.53,267.963,252.557z"/>
	<path d="M265.703,258.05c1.123,1.582,2.242,2.737,3.246,3.103c0.272,0.099,0.519,0.138,0.738,0.138
		c0.348,0,0.626-0.098,0.825-0.202c0.608-0.32,0.953-0.976,1.113-1.842c0.053-0.288,0.087-0.598,0.1-0.929
		c0.036-0.867-0.054-1.866-0.229-2.926c-0.283-1.716-0.783-3.583-1.313-5.288c-0.101,0.5-0.247,0.948-0.465,1.302
		c-0.267,0.433-0.631,0.745-1.048,0.939c1.019,3.747,1.193,6.202,0.911,6.823c-0.905-0.379-3.416-3.457-6.182-9.654
		c-0.433-0.577-0.846-1.209-1.232-1.878l-0.604,0.247l-0.804,0.329l-0.162,0.066c0.149,0.366,0.307,0.739,0.469,1.114
		c0.895,2.079,1.957,4.266,3.071,6.192C264.654,256.473,265.178,257.31,265.703,258.05z"/>
	<path fill="#009200" d="M268.913,242.38c0.046,0.117,0.096,0.233,0.14,0.35c0.275,0.725,0.493,1.427,0.681,2.112
		c1.317,1.95,2.636,3.064,3.328,3.064l0.045-0.003c0.038-0.005,0.096-0.012,0.185-0.164c0.294-0.501,0.355-1.568,0.124-2.983
		c-0.894-0.958-1.807-2.081-2.698-3.282c-0.105,0.018-0.206,0.054-0.316,0.054c-0.135,0-0.272-0.013-0.411-0.04
		c-0.249-0.048-0.509-0.162-0.771-0.303C269.19,241.64,269.09,242.041,268.913,242.38z"/>
	<path d="M273.291,247.739c-0.089,0.152-0.146,0.159-0.185,0.164l-0.045,0.003c-0.692,0-2.011-1.114-3.328-3.064
		c0.389,1.427,0.588,2.746,0.582,3.873c0.851,0.738,1.716,1.202,2.545,1.268c0.067,0.005,0.135,0.02,0.201,0.02
		c0.104,0,0.208-0.006,0.309-0.019c0.563-0.072,1.057-0.348,1.436-0.783c0.106-0.123,0.208-0.253,0.295-0.402
		c0.304-0.519,0.465-1.216,0.518-2.022c-0.698-0.509-1.442-1.204-2.203-2.02C273.647,246.171,273.585,247.238,273.291,247.739z"/>
	<path fill="#009200" d="M267.703,250.474l0.037-0.002c0.036-0.004,0.098-0.01,0.191-0.163c0.54-0.88,0.426-3.51-0.838-6.834
		c-0.006-0.015-0.012-0.029-0.018-0.044c0.177,1.322,0.003,2.418-0.773,3.009c-0.346,0.263-0.766,0.399-1.213,0.399
		c-0.146,0-0.295-0.015-0.446-0.044c-0.225-0.044-0.459-0.138-0.697-0.252C265.373,249.03,266.924,250.474,267.703,250.474z"/>
	<path d="M259.681,235.884c-0.064,0.144-0.127,0.289-0.177,0.451l0.312-0.237C259.77,236.025,259.724,235.953,259.681,235.884z"/>
	<path d="M270.316,248.715c0.006-1.127-0.193-2.446-0.582-3.873c-0.188-0.685-0.405-1.387-0.681-2.112
		c-0.044-0.117-0.094-0.233-0.14-0.35c-0.132,0.251-0.291,0.479-0.518,0.652c-0.346,0.263-0.766,0.4-1.213,0.4
		c-0.035,0-0.072-0.009-0.107-0.011c0,0.003,0,0.006,0.001,0.009c0.006,0.015,0.012,0.029,0.018,0.044
		c1.264,3.324,1.378,5.954,0.838,6.834c-0.094,0.152-0.155,0.159-0.191,0.163l-0.037,0.002c-0.779,0-2.33-1.444-3.757-3.931
		c-1.251-0.604-2.648-2.095-3.88-3.682c0.136,0.432,0.287,0.87,0.456,1.315c0.441,1.163,0.994,2.326,1.614,3.404
		c0.01,0.019,0.021,0.037,0.031,0.055c0.387,0.669,0.8,1.301,1.232,1.878c1.353,1.807,2.879,3.057,4.303,3.057
		c0.088,0,0.175-0.005,0.26-0.014c0.252-0.027,0.485-0.107,0.708-0.211c0.417-0.195,0.781-0.506,1.048-0.939
		c0.218-0.354,0.364-0.802,0.465-1.302C270.268,249.684,270.314,249.221,270.316,248.715z"/>
	<path fill="#009200" d="M259.358,236.662c1.898,3.228,3.615,5.35,4.73,6.443c-0.157-0.596-0.407-1.353-0.763-2.246
		c-1.375-1.537-2.666-3.434-3.509-4.762l-0.312,0.237l-0.671,0.511l-0.717,0.546L259.358,236.662z"/>
	<path d="M263.947,246.543c0.238,0.115,0.473,0.208,0.697,0.252c0.151,0.029,0.3,0.044,0.446,0.044c0.447,0,0.867-0.137,1.213-0.399
		c0.776-0.591,0.95-1.687,0.773-3.009c-0.001-0.003-0.001-0.006-0.001-0.009c-0.112-0.005-0.225-0.011-0.34-0.034
		c-1.047-0.206-2.256-1.238-3.41-2.528c0.355,0.893,0.605,1.649,0.763,2.246c-1.115-1.093-2.832-3.216-4.73-6.443l-1.241,0.73
		l-1.241,0.73c0.346,0.588,1.322,2.206,2.551,3.89c0.207,0.283,0.422,0.567,0.641,0.85
		C261.298,244.448,262.696,245.939,263.947,246.543z"/>
	<path fill="#009200" d="M261.449,233.254c1.898,3.228,3.616,5.35,4.73,6.444c-0.188-0.71-0.515-1.659-0.987-2.783
		c-1.194-1.729-2.22-3.523-2.803-4.591l-2.182,1.661L261.449,233.254z"/>
	<path d="M263.325,240.859c1.154,1.29,2.363,2.322,3.41,2.528c0.115,0.022,0.228,0.028,0.34,0.034
		c0.035,0.002,0.072,0.011,0.107,0.011c0.447,0,0.867-0.137,1.213-0.4c0.227-0.173,0.386-0.401,0.518-0.652
		c0.177-0.339,0.276-0.74,0.305-1.194c-1.309-0.701-2.759-2.437-4.025-4.271c0.473,1.124,0.8,2.073,0.987,2.783
		c-1.114-1.094-2.832-3.216-4.73-6.444l-1.241,0.73l-1.241,0.73c0.141,0.239,0.39,0.654,0.714,1.169
		c0.043,0.069,0.089,0.141,0.136,0.214C260.659,237.425,261.95,239.323,263.325,240.859z"/>
	<path fill="#009200" d="M277.752,245.621c0.297-0.997-1.093-6.046-5.303-13.087l-1.388,1.035c0.927,2.419,1.591,4.925,1.18,6.468
		C274.929,243.685,276.99,245.439,277.752,245.621z"/>
	<path d="M272.449,232.533c4.21,7.042,5.6,12.091,5.303,13.087c-0.763-0.182-2.823-1.936-5.511-5.585
		c-0.116,0.437-0.317,0.798-0.625,1.056c-0.259,0.217-0.571,0.328-0.899,0.382c0.892,1.201,1.805,2.324,2.698,3.282
		c0.761,0.816,1.505,1.511,2.203,2.02c0.649,0.473,1.26,0.793,1.807,0.901c0.047,0.009,0.086,0.007,0.131,0.013
		c0.109,0.015,0.221,0.032,0.319,0.032c0.5,0,0.862-0.18,1.093-0.352c0.203-0.151,0.364-0.341,0.489-0.564
		c0.315-0.563,0.396-1.338,0.309-2.245c-0.088-0.912-0.346-1.956-0.705-3.05c-0.762-2.316-1.98-4.853-3.02-6.827
		c-0.039-0.073-0.076-0.144-0.115-0.215c-1.206-0.644-2.33-1.386-3.347-2.137l-0.184,0.11
		C272.414,232.473,272.431,232.502,272.449,232.533z"/>
	<path fill="#009200" d="M264.61,230.663c2.004,3.746,3.812,6.158,4.935,7.326c-0.342-1.691-1.405-4.817-3.541-8.86l-2.603,2.181
		L264.61,230.663z"/>
	<path d="M265.871,228.873c0.047,0.088,0.086,0.169,0.132,0.256c2.136,4.043,3.199,7.169,3.541,8.86
		c-1.122-1.168-2.931-3.581-4.935-7.326l-1.209,0.647l-1.209,0.647c0.058,0.108,0.127,0.235,0.198,0.367
		c0.583,1.068,1.608,2.863,2.803,4.591c1.267,1.833,2.717,3.57,4.025,4.271c0.263,0.141,0.522,0.255,0.771,0.303
		c0.139,0.027,0.276,0.04,0.411,0.04c0.11,0,0.211-0.036,0.316-0.054c0.328-0.055,0.641-0.166,0.899-0.382
		c0.308-0.258,0.509-0.619,0.625-1.056c0.411-1.542-0.253-4.049-1.18-6.468c-0.536-1.401-1.158-2.771-1.712-3.908
		c-0.425-0.389-0.796-0.74-1.097-1.024c-0.181-0.171-0.334-0.316-0.456-0.428c-0.087-0.066-0.175-0.15-0.262-0.225L265.871,228.873z
		"/>
	<path fill="#804BFF" d="M269.341,226.241l0.095,0.077c0.139,0.126,0.319,0.297,0.537,0.503c2.052,1.945,7.502,7.111,12.902,7.111
		h0.001c1.966,0,3.708-0.686,5.283-2.086c-1.196-0.426-2.463-1.117-3.776-1.951c-0.945,0.288-1.928,0.451-2.955,0.451
		c-0.001,0-0.001,0-0.001,0c-5.988,0-11.605-4.962-14.145-7.347C267.582,224.292,268.515,225.627,269.341,226.241z"/>
	<path d="M284.383,229.896c1.313,0.834,2.58,1.524,3.776,1.951c-1.575,1.4-3.317,2.086-5.283,2.086h-0.001
		c-5.4,0-10.851-5.167-12.902-7.111c-0.218-0.207-0.398-0.377-0.537-0.503l-0.095-0.077c-0.826-0.614-1.759-1.949-2.059-3.241
		c-0.174-0.163-0.334-0.315-0.479-0.452c-0.18-0.171-0.332-0.315-0.454-0.427c-0.479-0.365-0.965-0.872-1.41-1.458
		c-0.19,0.539-0.264,1.134-0.238,1.766c0.003,0.064-0.008,0.123-0.003,0.188c0.004,0.048,0.017,0.095,0.021,0.144
		c0.101,1.004,0.458,1.998,0.951,2.887c0.523,0.945,1.191,1.759,1.865,2.336c0.087,0.075,0.175,0.158,0.262,0.225
		c0.122,0.112,0.275,0.257,0.456,0.428c0.301,0.285,0.672,0.636,1.097,1.024c0.858,0.785,1.958,1.733,3.229,2.672
		c1.017,0.751,2.141,1.494,3.347,2.137c1.369,0.729,2.839,1.325,4.36,1.661c0.851,0.188,1.715,0.302,2.589,0.302c0,0,0,0,0.001,0
		c3.352,0,6.273-1.539,8.686-4.573l1.575-1.982l-2.531-0.046c-0.981-0.018-2.184-0.49-3.509-1.222
		C286.238,229.186,285.33,229.607,284.383,229.896z"/>
	<path fill="#804BFF" d="M267.894,220.155l0.095,0.078c0.139,0.125,0.318,0.296,0.536,0.502c2.051,1.945,7.501,7.112,12.902,7.112
		h0.001c1.966,0,3.708-0.686,5.283-2.086c-1.148-0.409-2.363-1.063-3.621-1.852c-1.107,0.41-2.275,0.621-3.501,0.621
		c-5.485,0-10.652-4.159-13.435-6.691C266.581,218.803,267.266,219.688,267.894,220.155z"/>
	<path d="M283.09,223.909c1.258,0.789,2.473,1.443,3.621,1.852c-1.575,1.4-3.317,2.086-5.283,2.086h-0.001
		c-5.401,0-10.852-5.167-12.902-7.112c-0.218-0.206-0.397-0.376-0.536-0.502l-0.095-0.078c-0.628-0.466-1.312-1.352-1.739-2.316
		c-0.463-0.421-0.867-0.803-1.188-1.107c-0.18-0.171-0.332-0.315-0.454-0.427c-0.391-0.298-0.785-0.69-1.16-1.14
		c-0.065,0.322-0.098,0.657-0.094,1.007c0.001,0.121-0.017,0.235-0.007,0.358c0.031,0.419,0.122,0.835,0.236,1.247
		c0.229,0.826,0.603,1.615,1.058,2.318c0.127,0.197,0.258,0.387,0.395,0.568c0.445,0.586,0.931,1.093,1.41,1.458
		c0.122,0.112,0.274,0.256,0.454,0.427c0.145,0.137,0.305,0.289,0.479,0.452c2.539,2.384,8.156,7.346,14.145,7.347c0,0,0,0,0.001,0
		c1.027,0,2.01-0.163,2.955-0.451c0.947-0.289,1.854-0.71,2.714-1.286c1.077-0.723,2.086-1.666,3.017-2.836l1.575-1.982
		l-2.531-0.046c-0.984-0.018-2.191-0.493-3.521-1.229C284.827,223.109,283.98,223.58,283.09,223.909z"/>
	<path fill="#804BFF" d="M266.151,214.415c0.139,0.125,0.318,0.296,0.536,0.502c2.052,1.945,7.501,7.112,12.902,7.112
		c1.966,0,3.709-0.686,5.284-2.086c-1.639-0.584-3.406-1.651-5.253-2.929c-1.266,0.556-2.611,0.852-4.039,0.852
		c-3.525,0-6.918-1.721-9.634-3.622c0.036,0.029,0.073,0.065,0.108,0.092L266.151,214.415z"/>
	<path d="M279.62,217.015c1.847,1.277,3.614,2.345,5.253,2.929c-1.575,1.4-3.318,2.086-5.284,2.086
		c-5.401,0-10.851-5.167-12.902-7.112c-0.218-0.206-0.397-0.376-0.536-0.502l-0.095-0.078c-0.035-0.026-0.072-0.063-0.108-0.092
		c-0.454-0.318-0.888-0.64-1.301-0.961c-0.701,0.193-1.434,0.357-2.238,0.505c0.281,0.5,0.602,0.963,0.943,1.375
		c0.375,0.45,0.77,0.842,1.16,1.14c0.122,0.112,0.274,0.256,0.454,0.427c0.321,0.304,0.726,0.686,1.188,1.107
		c2.782,2.532,7.949,6.691,13.435,6.691c1.226,0,2.394-0.211,3.501-0.621c0.89-0.329,1.737-0.8,2.546-1.392
		c0.936-0.685,1.819-1.529,2.64-2.561l1.575-1.982l-2.531-0.046c-1.419-0.026-3.298-0.994-5.346-2.34
		C281.226,216.18,280.441,216.655,279.62,217.015z"/>
	<path fill="#804BFF" d="M275.581,215.367c1.966,0,3.709-0.686,5.284-2.086c-1.854-0.66-3.872-1.939-5.983-3.442
		c-0.799-0.23-1.522-0.508-2.18-0.8c-2.103,1.498-3.711,2.497-5.244,3.211C269.837,213.908,272.713,215.367,275.581,215.367z"/>
	<path d="M274.882,209.839c2.111,1.503,4.13,2.782,5.983,3.442c-1.575,1.4-3.318,2.086-5.284,2.086
		c-2.868,0-5.744-1.458-8.123-3.116c-0.933,0.435-1.842,0.766-2.812,1.034c0.413,0.321,0.847,0.643,1.301,0.961
		c2.716,1.901,6.108,3.622,9.634,3.622c1.428,0,2.773-0.296,4.039-0.852c0.82-0.36,1.605-0.835,2.354-1.426
		c0.807-0.637,1.576-1.391,2.294-2.295l1.575-1.982l-2.531-0.046c-0.842-0.015-1.848-0.367-2.952-0.927
		c-0.478,0.037-0.95,0.07-1.403,0.07C277.389,210.408,276.052,210.176,274.882,209.839z"/>
	<path fill="#804BFF" d="M255.235,212.054c1.293,0,2.641-0.1,4.004-0.296c5.474-0.763,7.29-1.332,12.594-5.172l0.604-0.437
		l0.671,0.322c1.82,0.874,3.324,1.305,4.993,1.411c-2.599-1.768-5.302-4.183-7.945-6.544c-2.949-2.635-5.735-5.124-7.775-6.123
		c-2.247-1.143-4.864-1.743-7.585-1.743c-3.405,0-6.743,0.971-8.929,2.596c-0.736,0.577-1.35,1.333-1.834,2.192
		c2.736,0.353,4.672,2.218,5.248,5.163c0.253,1.226,0.079,2.6-0.5,3.891c0.031,0.069,0.072,0.132,0.098,0.204
		c0.405,1.09,0.164,2.288-0.558,3.375C250.239,211.644,252.591,212.054,255.235,212.054z M249.129,201.174
		c0.033-1.852,2.083-3.249,4.769-3.249l0.134,0.001c1.177,0.021,2.297,0.318,3.154,0.836c1.054,0.636,1.647,1.579,1.63,2.585
		c-0.033,1.852-2.083,3.249-4.768,3.249l-0.134-0.001c-1.177-0.021-2.297-0.318-3.155-0.836
		C249.705,203.123,249.112,202.181,249.129,201.174z"/>
	<path d="M243.074,198.186c0.332,0,0.646,0.034,0.958,0.074c0.484-0.859,1.098-1.616,1.834-2.192
		c2.186-1.625,5.523-2.596,8.929-2.596c2.721,0,5.338,0.6,7.585,1.743c2.04,1,4.826,3.488,7.775,6.123
		c2.644,2.361,5.347,4.776,7.945,6.544c-1.669-0.106-3.173-0.537-4.993-1.411l-0.671-0.322l-0.604,0.437
		c-5.304,3.84-7.12,4.409-12.594,5.172c-1.363,0.197-2.711,0.296-4.004,0.296c-2.644,0-4.996-0.41-6.915-1.162
		c-0.458,0.689-1.111,1.332-1.92,1.874c0.36,0.172,0.731,0.334,1.119,0.483c1.792,0.689,3.868,1.118,6.145,1.253
		c0.511,0.03,1.029,0.051,1.56,0.052c0.004,0,0.008,0,0.012,0c1.227,0,2.499-0.097,3.778-0.258c0.193-0.024,0.384-0.035,0.577-0.063
		c0.335-0.047,0.655-0.093,0.967-0.139c0.661-0.098,1.274-0.197,1.852-0.304c0.805-0.148,1.537-0.312,2.238-0.505
		c0.97-0.268,1.879-0.599,2.812-1.034c1.533-0.715,3.142-1.713,5.244-3.211c0.657,0.292,1.381,0.569,2.18,0.8
		c1.17,0.337,2.507,0.569,4.074,0.569c0.453,0,0.926-0.033,1.403-0.07c0.727-0.056,1.476-0.141,2.283-0.285l4.472-0.797l-4.25-1.603
		c-3.265-1.231-7.398-4.923-11.045-8.181c-3.081-2.752-5.991-5.353-8.323-6.495c-2.58-1.312-5.589-2.006-8.702-2.006
		c-3.982,0-7.781,1.126-10.445,3.109c-1.4,1.096-2.459,2.604-3.155,4.289C241.871,198.248,242.493,198.186,243.074,198.186z"/>
	<path fill="#FF0000" d="M253.01,201.983c-0.306-0.21-0.513-0.521-0.506-0.883c0.003-0.182,0.068-0.346,0.16-0.496
		c-0.665,0.195-1.012,0.495-1.035,0.617C251.652,201.367,252.118,201.782,253.01,201.983z"/>
	<path fill="#FF0000" d="M254.433,202.076c1.203-0.096,1.851-0.608,1.883-0.776c-0.024-0.149-0.52-0.583-1.461-0.776
		c0.139,0.182,0.237,0.388,0.233,0.622C255.08,201.552,254.811,201.887,254.433,202.076z"/>
	<path d="M250.759,203.759c0.857,0.518,1.978,0.815,3.155,0.836l0.134,0.001c2.685,0,4.735-1.396,4.768-3.249
		c0.018-1.006-0.576-1.949-1.63-2.585c-0.857-0.518-1.977-0.815-3.154-0.836l-0.134-0.001c-2.686,0-4.736,1.396-4.769,3.249
		C249.112,202.181,249.705,203.123,250.759,203.759z M252.664,200.605c0.219-0.36,0.648-0.608,1.152-0.599
		c0.443,0.008,0.812,0.22,1.039,0.519c0.942,0.193,1.438,0.626,1.461,0.776c-0.032,0.168-0.68,0.68-1.883,0.776
		c-0.197,0.099-0.414,0.169-0.658,0.165c-0.294-0.005-0.551-0.11-0.766-0.257c-0.892-0.201-1.358-0.616-1.381-0.762
		C251.652,201.1,251.999,200.8,252.664,200.605z"/>
	<path d="M248.32,210.892c0.722-1.087,0.963-2.285,0.558-3.375c-0.026-0.072-0.067-0.135-0.098-0.204
		c-0.833,1.86-2.512,3.545-5.016,4.351c-1.042,0.467-1.922,1.345-2.633,2.62c0.116,0.005,0.227,0.019,0.346,0.019
		c0.981,0,2.03-0.197,3.032-0.57c0.515-0.191,0.992-0.424,1.435-0.682c0.157-0.091,0.309-0.186,0.456-0.285
		C247.209,212.224,247.862,211.581,248.32,210.892z"/>
	<path d="M253.01,201.983c0.215,0.147,0.472,0.252,0.766,0.257c0.244,0.004,0.461-0.066,0.658-0.165
		c0.378-0.189,0.647-0.524,0.655-0.93c0.004-0.234-0.095-0.44-0.233-0.622c-0.228-0.299-0.596-0.511-1.039-0.519
		c-0.503-0.009-0.933,0.239-1.152,0.599c-0.092,0.15-0.157,0.314-0.16,0.496C252.497,201.463,252.704,201.773,253.01,201.983z"/>
	<path fill="#FFFF00" d="M238.488,206.559c-0.1,0.195-0.216,0.506-0.283,0.967c0.943-0.832,2-1.49,3.169-1.974l0.266-0.094
		c-0.124-0.106-0.211-0.246-0.268-0.406c-0.219,0.061-0.459,0.131-0.726,0.216l-0.284,0.077
		C238.946,205.661,238.613,206.313,238.488,206.559z"/>
	<path d="M243.764,211.664c2.504-0.805,4.183-2.49,5.016-4.351c0.578-1.291,0.753-2.665,0.5-3.891
		c-0.576-2.944-2.512-4.81-5.248-5.163c-0.312-0.041-0.626-0.074-0.958-0.074c-0.581,0-1.203,0.062-1.88,0.183
		c-0.727,0.13-1.519,0.329-2.409,0.608c-2.825,0.668-4.947,2.258-6.143,4.606c-1.724,3.386-1.315,8.057,1.214,13.884l3.65,8.406
		l2.513-8.813c0.306-1.072,0.677-1.998,1.111-2.776C241.842,213.009,242.722,212.131,243.764,211.664z M240.362,205.345l0.284-0.077
		c0.267-0.085,0.507-0.156,0.726-0.216c-0.029-0.083-0.061-0.167-0.066-0.26c-0.028-0.516,0.356-0.956,0.861-0.982
		c0.504-0.026,0.936,0.371,0.964,0.887s-0.356,0.956-0.861,0.982c-0.239,0.013-0.459-0.076-0.63-0.222l-0.266,0.094
		c-1.168,0.484-2.226,1.143-3.169,1.974c0.067-0.461,0.184-0.772,0.283-0.967C238.613,206.313,238.946,205.661,240.362,205.345z"/>
	<path d="M241.639,205.458c0.171,0.146,0.391,0.234,0.63,0.222c0.505-0.026,0.89-0.466,0.861-0.982s-0.46-0.914-0.964-0.887
		c-0.505,0.026-0.89,0.466-0.861,0.982c0.005,0.093,0.037,0.176,0.066,0.26C241.428,205.211,241.515,205.352,241.639,205.458z"/>
</g>
</svg>
