<?xml version="1.0" encoding="utf-8"?>
<!-- Generator: Adobe Illustrator 16.0.0, SVG Export Plug-In . SVG Version: 6.00 Build 0)  -->
<svg version="1.2" baseProfile="tiny"
	 id="svg378" xmlns:cc="http://creativecommons.org/ns#" xmlns:dc="http://purl.org/dc/elements/1.1/" xmlns:rdf="http://www.w3.org/1999/02/22-rdf-syntax-ns#"
	 xmlns="http://www.w3.org/2000/svg" xmlns:xlink="http://www.w3.org/1999/xlink" x="0px" y="0px" width="512px" height="512px"
	 viewBox="0 0 512 512" xml:space="preserve">
<g id="flag">
	<g id="g10429" transform="matrix(.48166 0 0 .72249 0 .0000024116)">
		<rect id="rect171" x="0.001" fill="#FFFFFF" width="1062.999" height="708.66"/>
		<rect id="rect186" x="0.001" fill="#00BF13" width="531.499" height="708.66"/>
	</g>
	<g id="g10433" transform="matrix(.67903 0 0 .67903 -106.73 24.003)">
		<path id="path184" fill="#F21930" d="M692.45,439.71c-50.151,90.201-160.76,122.25-248.65,73.84
			c-87.89-48.409-119.929-159.03-71.52-246.92c48.41-87.887,159.02-119.93,246.91-71.519c32.491,17.896,55.626,41.423,73.82,74.936
			c-6.64-9.132-14.054-16.67-23.784-24.32c-59.947-47.132-146.85-36.73-193.979,23.218c-47.13,59.947-36.73,146.85,23.218,193.98
			s146.849,36.729,193.979-23.218L692.45,439.71z"/>
		<polygon id="polygon185" fill="#F21930" points="534.331,295.135 606.211,319.595 650.771,258.125 649.712,334.045 
			721.941,357.425 649.421,379.875 649.502,455.804 649.502,455.804 605.731,393.764 533.552,417.304 579.021,356.504 		"/>
	</g>
</g>
</svg>
