<?xml version="1.0" encoding="utf-8"?>
<!-- Generator: Adobe Illustrator 16.0.0, SVG Export Plug-In . SVG Version: 6.00 Build 0)  -->
<svg version="1.2" baseProfile="tiny"
	 id="svg378" xmlns:cc="http://creativecommons.org/ns#" xmlns:dc="http://purl.org/dc/elements/1.1/" xmlns:rdf="http://www.w3.org/1999/02/22-rdf-syntax-ns#"
	 xmlns="http://www.w3.org/2000/svg" xmlns:xlink="http://www.w3.org/1999/xlink" x="0px" y="0px" width="512px" height="512px"
	 viewBox="0 0 512 512" xml:space="preserve">
<g id="flag">
	<g id="g1350" transform="matrix(.68808 0 0 1.0321 0 .000011843)">
		<rect id="rect171" x="0" fill="#FFE800" width="744.09" height="496.06"/>
		<rect id="rect403" x="0" y="248.03" fill="#00148E" width="744.09" height="248.03"/>
		<rect id="rect135" x="0" y="372.049" fill="#DA0010" width="744.09" height="124.021"/>
	</g>
	<g id="g1649" transform="matrix(.93764 0 0 1.1252 -97.293 -73.425)">
		<g id="g876" transform="matrix(-.47007 0 0 .41368 605.23 96.094)">
			<path id="path877" d="M582.462,449.993l124.017,124.02l2.187-2.662L584.647,447.329L582.462,449.993L582.462,449.993z"/>
			<path id="path878" d="M496.063,470.261l162.299,162.001l2.845-2.549L498.91,467.711L496.063,470.261L496.063,470.261z"/>
			<path id="path879" fill="#808080" stroke="#000000" stroke-width="4.1036" d="M655.512,631.069l13.469,12.949l15.549,10.998
				l-11.388-14.898l-13.469-12.951L655.512,631.069z"/>
			<path id="path880" fill="#808080" stroke="#000000" stroke-width="4.1036" d="M697.361,567.789l13.471,12.949l15.547,10.998
				l-11.388-14.898l-13.469-12.951L697.361,567.789z"/>
		</g>
		<g id="g1095" transform="matrix(.47007 0 0 .41368 122.21 80.334)">
			<path id="path571" fill="#FFDF00" stroke="#000000" d="M338.8,204.633c0,0-13.611,351.656,40.83,351.656
				s81.66-37.017,81.66-37.017l-0.66-193.3L338.8,204.63V204.633z"/>
			<path id="path572" fill="#0000C4" stroke="#000000" d="M372.048,237.395c-0.002,18.509-6.029,281.881,21.193,281.881
				c27.219,0,68.049-18.51,68.049-18.51l-0.66-174.789l-88.582-88.58V237.395z"/>
			<path id="path573" fill="#E10000" stroke="#000000" d="M389.762,255.113c0,18.509,3.476,227.139,30.696,227.139h40.832
				l-0.66-156.277l-70.868-70.865V255.113z"/>
			<path id="path574" d="M336.611,204.631l124.019,124.02l2.185-2.664l-124.017-124.02L336.611,204.631L336.611,204.631z"/>
			<path id="path551" fill="#FFDF00" stroke="#000000" d="M301.18,272.84c0,0-35.433,336.611,70.865,336.611
				c88.584,0,88.584-53.151,106.3-53.151l-17.721-124.02L301.176,272.84H301.18z"/>
			<g id="g1056" transform="matrix(.51617 -.27185 .21845 .40928 202.4 380.19)">
				<path id="path1046" fill="none" stroke="#000000" stroke-width="2.3046" d="M306.614,85.792
					c1.17,0.654,84.616-77.526,209.563-78.25"/>
				<path id="path1036" fill="#005B00" stroke="#000000" d="M341.994-20.203c10.351,16.914,15.153,31.604,18.54,47.272
					C346.55,12.647,339.162,5.72,328.812-11.196c-10.351-16.914-15.628-35.775-19.748-50.94
					C317.616-51.499,331.645-37.119,341.994-20.203z"/>
				<path id="path1049" fill="#FF0000" stroke="#000000" d="M359.073,68.599c-0.002,2.813-2.282,5.097-5.097,5.096
					c-2.816,0.001-5.099-2.282-5.098-5.096c-0.001-2.817,2.282-5.097,5.098-5.098C356.789,63.499,359.072,65.781,359.073,68.599z"/>
				<path id="path1032" fill="#005B00" stroke="#000000" d="M447.784-37.599c-13.856,14.666-25.613,22.586-38.038,29.043
					c12.151-18.436,18.028-28.063,31.884-42.729c13.853-14.668,28.889-23.817,40.971-31.034
					C473.756-70.742,461.635-52.266,447.784-37.599z"/>
				<path id="path1033" fill="#005B00" stroke="#000000" d="M436.143-45.452c-9.172,17.26-18.287,29.254-28.49,40.806
					c6.395-18.407,9.284-27.727,18.455-44.985c9.172-17.26,21.124-32.022,30.768-43.806
					C451.672-81.12,445.315-62.711,436.143-45.452L436.143-45.452z"/>
				<path id="path1034" fill="#005B00" stroke="#000000" d="M437.488-12.126c-12.687,5.444-21.431,5.462-29.817,3.532
					c13.62-10.448,20.523-16.22,33.211-21.666c12.688-5.446,23.431-4.469,32.005-3.55C463.798-28.083,450.176-17.572,437.488-12.126
					z"/>
				<path id="path1035" fill="#005B00" stroke="#000000" d="M360.339-23.12c3.207,19.036,2.055,34.295-0.8,50.048
					c-7.583-17.793-11.856-26.544-15.062-45.582c-3.204-19.034-0.894-38.357,1.079-53.861
					C349.494-59.923,357.131-42.156,360.339-23.12z"/>
				<path id="path1037" fill="#005B00" stroke="#000000" d="M296.863,35.41c6.986,19.206,8.312,35.058,7.769,51.626
					c-11.796-17.393-18.22-25.878-25.205-45.086c-6.986-19.206-7.688-39.384-8.111-55.587
					C278.023-1.155,289.877,16.205,296.863,35.41z"/>
				<path id="path1038" fill="#005B00" stroke="#000000" d="M353.94,65.24c-16.608,11.908-31.514,17.462-47.615,21.408
					c13.565-16.048,20.003-24.526,36.615-36.432c16.608-11.908,35.852-18.026,51.336-22.806
					C384.069,37.237,370.552,53.333,353.94,65.24z"/>
				<path id="path1039" fill="#005B00" stroke="#000000" d="M361.995,92.041c-20.291,2.436-36.029,0.126-52.038-4.169
					c19.616-7.534,29.341-11.86,49.629-14.298c20.292-2.438,40.101,1.469,55.974,4.736
					C401.882,82.006,382.284,89.601,361.995,92.041z"/>
				<path id="path1040" fill="#005B00" stroke="#000000" d="M528.851,1.33c-10.225,4.94-18.318,6.779-26.621,7.728
					c9.684-7.231,14.459-11.1,24.684-16.04c10.222-4.944,20.445-6.786,28.644-8.196C548.743-10.875,539.073-3.614,528.851,1.33z"/>
				<path id="path1041" fill="#005B00" stroke="#000000" d="M522.871-5.008c-7.742,7.196-14.771,11.665-22.4,15.694
					c6.222-8.332,9.16-12.618,16.902-19.814c7.739-7.201,16.832-12.559,24.151-16.819C536.805-20.55,530.61-12.209,522.871-5.008z"
					/>
				<path id="path1042" fill="#005B00" stroke="#000000" d="M519.382,12.577c-8.331,0.374-13.592-1.313-18.386-3.942
					c9.536-2.795,14.434-4.458,22.768-4.83c8.33-0.372,14.669,2.218,19.707,4.36C537.265,9.381,527.716,12.205,519.382,12.577z"/>
				<path id="path1043" fill="#005B00" stroke="#000000" d="M409.707,20.573c-15.392,0.739-27.029-0.855-38.72-3.474
					c15.252-3.379,22.858-5.357,38.25-6.096c15.392-0.739,29.961,1.777,41.628,3.865C440.343,16.424,425.099,19.834,409.707,20.573z
					"/>
				<path id="path1044" fill="#005B00" stroke="#000000" d="M448.929,42.905c-20.423,0.811-35.928-2.749-51.544-8.308
					c20.157-5.942,30.196-9.48,50.616-10.293c20.422-0.809,39.856,4.664,55.42,9.189C489.49,36.084,469.349,42.092,448.929,42.905z"
					/>
				<path id="path1045" fill="none" stroke="#000000" stroke-width="2.3703" d="M269.582,155.24
					c1.327,0,33.172-104.143,139.328-163.109"/>
				<path id="path1047" fill="#FF0000" stroke="#000000" d="M459.881,8.556c0.002,2.815-2.282,5.097-5.098,5.098
					c-2.815-0.001-5.095-2.282-5.097-5.098c0.002-2.815,2.282-5.097,5.098-5.098C457.6,3.458,459.884,5.741,459.881,8.556z"/>
				<path id="path1048" fill="#FF0000" stroke="#000000" d="M496.133,7.427c-0.002,2.813-2.282,5.097-5.097,5.096
					c-2.816,0-5.099-2.282-5.097-5.098c-0.002-2.815,2.282-5.097,5.097-5.096C493.848,2.327,496.132,4.61,496.133,7.427z"/>
				<path id="path1050" fill="#FF0000" stroke="#000000" d="M371.883,5.022c0.002,2.116-2.359,3.831-5.274,3.83
					c-2.91,0-5.271-1.715-5.273-3.83c0.002-2.114,2.362-3.826,5.273-3.828C369.524,1.194,371.885,2.909,371.883,5.022z"/>
				<path id="path1051" fill="#FF0000" stroke="#000000" d="M381.728,6.202c-0.002,2.113-2.363,3.828-5.274,3.83
					c-2.913-0.003-5.274-1.717-5.273-3.83c-0.002-2.116,2.359-3.829,5.273-3.828C379.366,2.372,381.727,4.086,381.728,6.202z"/>
				<path id="path1052" fill="#FF0000" stroke="#000000" d="M373.289,12.095c-0.002,2.113-2.359,3.829-5.273,3.828
					c-2.911,0.002-5.272-1.713-5.274-3.828c0.002-2.113,2.363-3.828,5.273-3.828C370.93,8.267,373.291,9.981,373.289,12.095z"/>
				<path id="path1053" fill="#FF0000" stroke="#000000" d="M405.516,26.116c-0.001,3.126-2.538,5.662-5.663,5.663
					c-3.129,0-5.666-2.536-5.664-5.664c-0.002-3.128,2.534-5.663,5.663-5.663S405.513,22.987,405.516,26.116z"/>
				<path id="path1054" fill="#FF0000" stroke="#000000" d="M414.574,22.716c-0.001,3.126-2.534,5.663-5.663,5.663
					c-3.129,0-5.662-2.536-5.664-5.664c0.001-3.126,2.538-5.662,5.663-5.663C412.039,17.052,414.576,19.587,414.574,22.716z"/>
				<path id="path1055" fill="#FF0000" stroke="#000000" d="M414.575,27.246c-0.001,3.126-2.538,5.662-5.663,5.663
					c-3.129,0-5.666-2.536-5.664-5.664c-0.002-3.128,2.534-5.663,5.663-5.663C412.041,21.581,414.574,24.115,414.575,27.246z"/>
			</g>
			<path id="path552" fill="#0000C4" stroke="#000000" d="M336.611,308.27c-0.002,17.718-35.435,212.601,53.149,265.752
				c35.433,17.716,88.582-17.72,88.582,0l-17.71-141.741L336.611,308.27L336.611,308.27z"/>
			<path id="path553" fill="#E10000" stroke="#000000" d="M372.05,343.7c-0.002,17.718-17.716,159.45,35.433,194.88
				c35.433,35.433,124.021,25.822,124.021,25.822l-70.872-132.121l-88.58-88.58L372.05,343.7z"/>
			<path id="path570" d="M298.333,272.832l162.299,162.001l2.845-2.55L301.178,270.281L298.333,272.832L298.333,272.832z"/>
			<path id="path575" fill="#CECECC" stroke="#000000" d="M271.116,255.018l10.431,2.204l3.162,3.133
				c-0.434-0.033,3.16,3.133-0.951,7.196c-4.11,4.064-10.431-2.203-10.431-2.203s2.211,10.331,8.535,16.597
				c6.321,6.267,13.593,5.337,13.593,5.337s-7.154-5.893-2.213-10.331c4.943-4.437,7.272-0.929,7.272-0.929l6.321,6.267l4.11-4.064
				l-25.287-25.068l-2.211-10.331l-15.778-3.176L271.116,255.018L271.116,255.018z"/>
			<path id="path576" fill="#CECECC" stroke="#000000" d="M301.187,184.251l12.224,17.464l15.86,3.381l-10.56,6.532l19.021-1.215
				l8.464,5.318l3.164-4.596l-8.462-5.317l-6.366-17.168l-2.098,11.85l-9.53-12.572L301.187,184.251z"/>
			<path id="path582" fill="#E10000" stroke="#000000" d="M348.456,198.575c0,1.041-1.345,1.885-3,1.885s-3-0.844-3-1.885
				c0-1.04,1.345-1.885,3-1.885S348.456,197.535,348.456,198.575z M344.171,202.554c0,18.009,14.357,94.474,15.501,96.36
				c0.095,2.233-3.239,3.211-4.859,0.42c-4.496-8.725-14.238-80.44-14.643-97.196c-0.166-6.909,2.581-7.445,5.714-7.329
				c2.581,0.106,5.716,1.875,5.716,3.979c0,2.513-4.001,4.397-7.429,3.769V202.554z"/>
			<path id="path583" fill="#0000C4" stroke="#000000" d="M351.992,205.597c-0.534,0.982-2.236,1.49-3.798,1.134
				c-1.562-0.356-2.397-1.44-1.863-2.421c0.534-0.982,2.236-1.49,3.798-1.135C351.691,203.53,352.526,204.616,351.992,205.597z
				 M345.908,208.43c4.538,33.781-11.495,86.314-11.384,88.338c-1.057,2.127-4.704,2.334-4.799-0.647
				c-0.749-1.939,17.654-49.404,12.623-88.942c3.386-6.553,6.255-6.47,9.151-5.688c2.38,0.652,4.429,2.994,3.35,4.979
				c-1.29,2.371-6.031,3.291-8.942,1.962L345.908,208.43z"/>
			<path id="path586" fill="#E10000" stroke="#000000" d="M311.977,263.264c0,1.693-1.717,3.066-3.835,3.066
				c-2.116,0-3.833-1.373-3.833-3.066c0-1.692,1.717-3.066,3.833-3.066C310.26,260.197,311.977,261.572,311.977,263.264z
				 M306.5,269.737c0,29.298,18.346,153.697,19.806,156.767c0.122,3.633-4.137,5.223-6.206,0.682
				c-5.747-14.193-18.195-130.866-18.711-158.126c-0.215-11.239,3.299-12.113,7.303-11.923c3.297,0.171,7.301,3.048,7.301,6.472
				c0,4.088-5.112,7.154-9.492,6.131V269.737z"/>
			<path id="path587" fill="#0000C4" stroke="#000000" d="M316.499,274.682c-0.682,1.597-2.856,2.423-4.852,1.845
				c-1.996-0.578-3.064-2.343-2.382-3.94c0.682-1.597,2.856-2.423,4.852-1.845S317.182,273.085,316.499,274.682z M308.725,279.291
				c5.798,54.958-14.688,140.422-14.546,143.717c-1.349,3.461-6.009,3.796-6.131-1.053c-0.957-3.153,22.558-80.375,16.126-144.698
				c4.327-10.662,7.994-10.526,11.694-9.253c3.042,1.062,5.661,4.871,4.281,8.1c-1.648,3.857-7.706,5.352-11.426,3.191
				L308.725,279.291z"/>
		</g>
		<g id="g841" transform="matrix(.47007 0 0 .41368 138.86 96.094)">
			<path id="path840" d="M582.461,449.994l124.017,124.02l2.187-2.662L584.648,447.329L582.461,449.994L582.461,449.994z"/>
			<path id="path839" d="M496.064,470.261L658.36,632.263l2.847-2.549L498.909,467.711L496.064,470.261L496.064,470.261z"/>
			<path id="path700" fill="#808080" stroke="#000000" stroke-width="4.1036" d="M655.511,631.069l13.469,12.949l15.549,10.998
				l-11.388-14.898l-13.469-12.951L655.511,631.069z"/>
			<path id="path701" fill="#808080" stroke="#000000" stroke-width="4.1036" d="M697.362,567.789l13.469,12.949l15.549,10.998
				l-11.391-14.898l-13.469-12.951L697.362,567.789z"/>
		</g>
		<g id="g1003" transform="matrix(.47007 0 0 .41368 122.21 80.334)">
			<path id="path862" fill="#FFDF00" stroke="#000000" d="M724.19,204.633c0,0,13.609,351.656-40.83,351.656
				c-54.441,0-81.66-37.017-81.66-37.017l0.66-193.3L724.19,204.63V204.633z"/>
			<path id="path863" fill="#0000C4" stroke="#000000" d="M690.942,237.395c0,18.509,6.027,281.881-21.193,281.881
				c-27.219,0-68.049-18.51-68.049-18.51l0.66-174.789l88.582-88.58V237.395z"/>
			<path id="path864" fill="#E10000" stroke="#000000" d="M673.226,255.113c0.002,18.509-3.474,227.139-30.696,227.139H601.7
				l0.66-156.277l70.865-70.865V255.113z"/>
			<path id="path865" d="M726.379,204.631L602.36,328.651l-2.187-2.664l124.019-124.02L726.379,204.631L726.379,204.631z"/>
			<g id="g940" transform="matrix(.52429 -.22358 .16895 .69382 362.76 423.13)">
				<path id="path922" fill="#005B00" stroke="#000000" d="M516.494-14.232c0,0,43.588,74.617,59.33,126.849
					c15.738,52.231,29.058,128.718,29.058,128.718s1.209-70.885-19.374-134.31c-27.842-80.217-70.225-117.527-69.01-121.257
					L516.494-14.232z"/>
				<path id="path923" fill="#005B00" stroke="#000000" d="M518.19-58.981c0,0,44.584,87.107,58.786,145.902
					c14.206,58.798,23.802,143.466,23.802,143.466s6.708-76.472-12.23-148.085C562.506-8.538,516.517-55.127,518.19-58.981
					L518.19-58.981z"/>
				<path id="path924" fill="#005B00" stroke="#000000" d="M603.758-103.609c0,0,15.733,116.167,10.48,183.116
					c-5.256,66.944-23.675,155.51-23.675,155.51s31.997-68.894,36.762-151.613c4.029-106.388-26.514-184.503-23.564-187.01
					L603.758-103.609z"/>
				<path id="path925" fill="#005B00" stroke="#000000" d="M556.376-125.757c0,0,34.851,110.255,39.707,179.207
					c4.849,68.95-0.923,164.497-0.923,164.497s23.283-81,15.447-165.544c-12.308-107.938-56.975-174.537-54.228-178.158
					L556.376-125.757z"/>
				<path id="path926" fill="#005B00" stroke="#000000" d="M632.533-72.12c0,0,2.475,107.884-7.418,168.838
					c-9.892,60.952-32.038,140.614-32.038,140.614s31.19-60.462,42.047-135.925c12.303-97.231-5.136-171.477-2.591-173.525
					L632.533-72.12z"/>
				<path id="path927" fill="#005B00" stroke="#000000" d="M538.584-95.502c0,0,38.858,98.096,47.572,160.715
					s9.289,150.327,9.289,150.327s16.431-75.736,4.014-152.372c-17.978-97.673-63.175-155.154-60.872-158.668L538.584-95.502z"/>
				<path id="path934" fill="#005B00" stroke="#000000" d="M512.401-47.207c0,0,45.741,82.743,60.249,139.605
					c14.508,56.862,24.214,139.432,24.214,139.432s7.075-75.554-12.284-144.705C557.953-0.465,510.669-43.313,512.405-47.206
					L512.401-47.207z"/>
				<path id="path935" fill="#005B00" stroke="#000000" d="M530.665-73.617c0,0,38.647,89.896,48.883,149.512
					c10.235,59.617,14.141,144.738,14.141,144.738s11.815-75.85-2.286-148.571c-19.899-92.382-62.669-141.945-60.735-145.678
					L530.665-73.617z"/>
				<path id="path936" fill="#005B00" stroke="#000000" d="M617.966-96.593c0,0,8.284,111.532-1.233,174.849
					c-9.517,63.316-33.545,146.312-33.545,146.312s36.321-63.378,46.356-141.729C640.357-18.068,614.865-94.405,617.97-96.592
					L617.966-96.593z"/>
				<path id="path937" fill="#005B00" stroke="#000000" d="M573.231-137.685c0,0,27.391,112.343,27.616,181.465
					c0.225,69.121-11.933,164.067-11.933,164.067s28.655-79.259,26.497-164.138c-5.05-108.52-45.159-177.962-42.177-181.392
					L573.231-137.685z"/>
				<path id="path938" fill="#005B00" stroke="#000000" d="M643.653-58.749c0,0-4.066,100.758-17.629,156.905
					c-13.566,56.144-40.489,128.886-40.489,128.886s34.784-54.215,50.191-123.821c18.167-89.805,5.267-160.234,7.93-161.967
					L643.653-58.749z"/>
				<path id="path939" fill="#005B00" stroke="#000000" d="M550.729-110.517c0,0,33.994,100.965,38.425,164.421
					c4.431,63.454-1.844,151.618-1.844,151.618s23.586-75.082,16.28-152.852c-11.617-99.249-55.606-159.796-52.857-163.186
					L550.729-110.517z"/>
			</g>
			<path id="path866" fill="#FFDF00" stroke="#000000" d="M761.819,272.84c0,0,35.433,336.611-70.865,336.611
				c-88.582,0-88.582-53.151-106.3-53.151l17.721-124.02l159.449-159.44H761.819z"/>
			<path id="path867" fill="#0000C4" stroke="#000000" d="M726.39,308.27c0,17.718,35.433,212.601-53.151,265.752
				c-35.433,17.716-88.582-17.72-88.582,0l17.71-141.741L726.388,308.27H726.39z"/>
			<path id="path868" fill="#E10000" stroke="#000000" d="M690.949,343.7c0.002,17.718,17.716,159.45-35.433,194.88
				c-35.433,35.433-124.019,25.822-124.019,25.822l70.87-132.121l88.579-88.58L690.949,343.7z"/>
			<path id="path869" d="M764.666,272.832L602.369,434.833l-2.847-2.55l162.299-162.001L764.666,272.832L764.666,272.832z"/>
			<path id="path870" fill="#CECECC" stroke="#000000" d="M791.874,255.018l-10.431,2.204l-3.162,3.133
				c0.434-0.033-3.162,3.133,0.948,7.196c4.11,4.064,10.434-2.203,10.434-2.203s-2.213,10.331-8.535,16.597
				c-6.321,6.267-13.593,5.337-13.593,5.337s7.154-5.893,2.211-10.331c-4.941-4.437-7.27-0.929-7.27-0.929l-6.323,6.267l-4.11-4.064
				l25.287-25.068l2.213-10.331l15.778-3.176L791.874,255.018L791.874,255.018z"/>
			<path id="path871" fill="#CECECC" stroke="#000000" d="M761.812,184.251l-12.224,17.464l-15.86,3.381l10.56,6.532l-19.021-1.215
				l-8.464,5.318l-3.164-4.596l8.462-5.317l6.366-17.168l2.098,11.85l9.53-12.572L761.812,184.251z"/>
			<path id="path872" fill="#E10000" stroke="#000000" d="M714.57,198.575c0,1.041,1.345,1.885,3,1.885
				c1.657,0,3.002-0.844,3.002-1.885c0-1.04-1.345-1.885-3.002-1.885C715.915,196.69,714.57,197.535,714.57,198.575z
				 M718.857,202.554c0,18.009-14.357,94.474-15.501,96.36c-0.095,2.233,3.237,3.211,4.857,0.42
				c4.498-8.725,14.24-80.44,14.643-97.196c0.168-6.909-2.581-7.445-5.714-7.329c-2.581,0.106-5.714,1.875-5.714,3.979
				c0,2.513,3.999,4.397,7.429,3.769V202.554z"/>
			<path id="path873" fill="#0000C4" stroke="#000000" d="M710.998,205.597c0.534,0.982,2.233,1.49,3.798,1.134
				c1.562-0.356,2.397-1.44,1.863-2.421c-0.534-0.982-2.236-1.49-3.798-1.135C711.299,203.53,710.464,204.616,710.998,205.597z
				 M717.082,208.43c-4.538,33.781,11.495,86.314,11.384,88.338c1.057,2.127,4.702,2.334,4.797-0.647
				c0.751-1.939-17.654-49.404-12.62-88.942c-3.388-6.553-6.255-6.47-9.153-5.688c-2.38,0.652-4.429,2.994-3.348,4.979
				c1.289,2.371,6.029,3.291,8.942,1.962L717.082,208.43z"/>
			<path id="path874" fill="#E10000" stroke="#000000" d="M750.991,263.264c0,1.693,1.717,3.066,3.833,3.066
				s3.833-1.373,3.833-3.066c0-1.692-1.717-3.066-3.833-3.066S750.991,261.572,750.991,263.264z M756.466,269.737
				c0,29.298-18.346,153.697-19.806,156.767c-0.122,3.633,4.137,5.223,6.206,0.682c5.747-14.193,18.195-130.866,18.713-158.126
				c0.213-11.239-3.299-12.113-7.303-11.923c-3.299,0.171-7.303,3.048-7.303,6.472c0,4.088,5.112,7.154,9.492,6.131V269.737z"/>
			<path id="path875" fill="#0000C4" stroke="#000000" d="M746.451,274.682c0.682,1.597,2.856,2.423,4.852,1.845
				c1.996-0.578,3.062-2.343,2.382-3.94c-0.682-1.597-2.858-2.423-4.854-1.845C746.834,271.32,745.768,273.085,746.451,274.682z
				 M754.226,279.291c-5.801,54.958,14.685,140.422,14.546,143.717c1.349,3.461,6.009,3.796,6.131-1.053
				c0.957-3.153-22.56-80.375-16.128-144.698c-4.327-10.662-7.992-10.526-11.694-9.253c-3.04,1.062-5.659,4.871-4.281,8.1
				c1.648,3.857,7.706,5.352,11.428,3.191L754.226,279.291z"/>
		</g>
		<g id="g618" transform="matrix(.47007 0 0 .41368 122.21 80.334)">
			<path id="path561" fill="#E10000" stroke="#000000" d="M478.35,698.03c17.716,10.652,37.088,8.268,53.149,0V556.3h-35.433
				C513.783,609.451,513.783,662.599,478.35,698.03z"/>
			<path id="path559" fill="#0000C4" stroke="#000000" d="M503.881,556.31c0,99.655-25.535,121.806-25.535,141.728
				c10.653,0,17.716-9.277,25.535-22.146c10.651-19.931,11.679-121.139,10.651-119.586h-10.651V556.31z"/>
			<path id="path560" fill="#0000C4" stroke="#000000" d="M482.578,556.31c-0.487,58.243-26.933,112.096-21.946,124.021
				c5.696,10.658,21.946-24.362,43.252-4.429c10.651-19.933,11.679-121.141,10.651-119.588h-31.956V556.31z"/>
			<path id="path558" fill="#FFDF00" stroke="#000000" d="M485.099,556.312c0,66.44-24.467,70.856-24.467,88.571
				c10.653,0,24.412-9.684,24.467-8.843c10.653-13.289,11.681-80.763,10.653-79.728H485.099L485.099,556.312z"/>
			<path id="path557" fill="#FFDF00" stroke="#000000" d="M463.798,556.312c-0.487,38.83-26.293,71.779-21.306,79.728
				c5.696,7.106,21.306-13.287,42.611,0c10.651-13.287,11.679-80.763,10.651-79.728H463.798z"/>
			<path id="path562" fill="#E10000" stroke="#000000" d="M584.651,698.047c-17.719,10.649-37.09,8.249-53.151-0.017V556.31h35.433
				c-17.716,53.151-17.716,106.302,17.719,141.73V698.047z"/>
			<path id="path563" fill="#0000C4" stroke="#000000" d="M559.109,556.323c0,99.653,25.533,121.802,25.533,141.726
				c-10.651,0-17.716-9.279-25.533-22.144c-10.651-19.933-11.679-121.143-10.651-119.59h10.651V556.323z"/>
			<path id="path564" fill="#0000C4" stroke="#000000" d="M580.412,556.323c0.487,58.24,26.933,112.092,21.944,124.017
				c-5.696,10.662-21.944-24.358-43.25-4.427c-10.651-19.931-11.681-121.141-10.651-119.588h31.956V556.323z"/>
			<path id="path565" fill="#FFDF00" stroke="#000000" d="M577.9,556.329c0,66.437,24.47,70.856,24.47,88.571
				c-10.653,0-24.414-9.684-24.47-8.845c-10.653-13.289-11.681-80.763-10.653-79.728H577.9V556.329z"/>
			<path id="path566" fill="#FFDF00" stroke="#000000" d="M599.203,556.312c0.485,38.83,26.293,71.779,21.304,79.728
				c-5.696,7.106-21.304-13.287-42.609,0c-10.653-13.287-11.681-80.763-10.653-79.728H599.203z"/>
		</g>
		<g id="g751" transform="matrix(.47007 0 0 .41368 122.21 80.334)">
			<path id="path702" fill="#908F8A" stroke="#000000" stroke-width="4.4666" d="M397.455,570.795l-18.505,12.886l18.505,12.886
				l9.253-6.445l4.626,6.445l4.626,12.882l4.626-12.882l4.626-6.445h248.024v-12.884H425.212l-4.626-6.443
				c0-6.441,0.97-12.884,4.626-12.884s11.193,0,18.505,0c0-6.443-9.253-19.329-27.758-19.329c-18.505,0-27.758,12.886-27.758,19.329
				c7.314,0,14.849,0,18.507,0c3.656,0,4.626,6.443,4.626,12.884l-4.631,6.443l-9.255-6.443H397.455z"/>
			
				<rect id="rect651" x="453.131" y="601.452" transform="matrix(-0.9991 -0.0415 0.0415 -0.9991 1036.3077 1232.5232)" fill="#B74D00" stroke="#000000" stroke-width="1.3784" width="155.626" height="8.11"/>
			
				<rect id="rect652" x="453.131" y="593.579" transform="matrix(-0.9991 -0.0415 0.0415 -0.9991 1036.6345 1216.7825)" fill="#B74D00" stroke="#000000" stroke-width="1.3784" width="155.626" height="8.11"/>
			
				<rect id="rect653" x="453.131" y="585.703" transform="matrix(-0.9991 -0.0415 0.0415 -0.9991 1036.9612 1201.0396)" fill="#B74D00" stroke="#000000" stroke-width="1.3784" width="155.626" height="8.112"/>
			
				<rect id="rect654" x="453.131" y="577.831" transform="matrix(-0.9991 -0.0415 0.0415 -0.9991 1037.2878 1185.3009)" fill="#B74D00" stroke="#000000" stroke-width="1.3784" width="155.626" height="8.11"/>
			
				<rect id="rect655" x="453.131" y="569.955" transform="matrix(-0.9991 -0.0415 0.0415 -0.9991 1037.6146 1169.5579)" fill="#B74D00" stroke="#000000" stroke-width="1.3784" width="155.626" height="8.112"/>
			
				<rect id="rect656" x="453.131" y="562.083" transform="matrix(-0.9991 -0.0415 0.0415 -0.9991 1037.9414 1153.8171)" fill="#B74D00" stroke="#000000" stroke-width="1.3784" width="155.626" height="8.108"/>
			
				<rect id="rect657" x="453.131" y="554.208" transform="matrix(-0.9991 -0.0415 0.0415 -0.9991 1038.2681 1138.0764)" fill="#B74D00" stroke="#000000" stroke-width="1.3784" width="155.626" height="8.112"/>
			<path id="path678" fill="#908F8A" stroke="#000000" stroke-width="3.2546" d="M459.238,554.332l59.056,55.119h8.437
				l-59.056-55.119H459.238z"/>
			<path id="path680" fill="#908F8A" stroke="#000000" stroke-width="3.2546" d="M459.238,609.448l59.056-55.119h8.437
				l-59.056,55.119H459.238z"/>
			<path id="path672" fill="#908F8A" stroke="#000000" stroke-width="3.0875" d="M459.234,554.332v55.119h8.437v-55.119H459.234z"/>
			<path id="path679" fill="#908F8A" stroke="#000000" stroke-width="3.2546" d="M535.169,554.332l59.056,55.119h8.437
				l-59.056-55.119H535.169z"/>
			<path id="path681" fill="#908F8A" stroke="#000000" stroke-width="3.2546" d="M535.169,609.448l59.056-55.119h8.437
				l-59.056,55.119H535.169z"/>
			<path id="path673" fill="#908F8A" stroke="#000000" stroke-width="3.0875" d="M594.22,554.332v55.119h8.437v-55.119H594.22z"/>
			<path id="path674" fill="#908F8A" stroke="#000000" stroke-width="3.0875" d="M535.16,554.332v55.119h8.437v-55.119H535.16z"/>
			<path id="path675" fill="#908F8A" stroke="#000000" stroke-width="3.0875" d="M518.294,554.332v55.119h8.437v-55.119H518.294z"/>
		</g>
		<g id="g967" transform="matrix(.47007 0 0 .41368 122.21 80.334)">
			<g id="g645">
				<path id="path635" fill="#FFDF00" stroke="#000000" d="M655.509,396.85c0,88.016-55.56,159.45-124.019,159.45
					c-68.457,0-124.021-71.433-124.021-159.45c0-88.014,55.56-159.449,124.021-159.449
					C599.948,237.4,655.509,308.833,655.509,396.85L655.509,396.85z M637.793,396.851c0,78.237-47.623,141.732-106.3,141.732
					s-106.3-63.497-106.3-141.732c0-78.237,47.623-141.729,106.3-141.729S637.793,318.617,637.793,396.851z"/>
				<path id="path643" fill="#FFDF00" stroke="#000000" d="M579.75,249.94c-14.836-8.072-31.143-12.537-48.257-12.537
					c-17.116,0-33.423,4.465-48.257,12.537l6.893,16.322c12.716-7.174,26.694-11.144,41.364-11.144
					c14.668,0,28.646,3.969,41.364,11.144L579.75,249.94z"/>
				<path id="path644" fill="#FFDF00" stroke="#000000" d="M579.953,543.76c-14.836,8.073-31.143,12.538-48.257,12.538
					s-33.423-4.465-48.257-12.538l6.893-16.322c12.716,7.175,26.694,11.145,41.364,11.145s28.648-3.969,41.364-11.145
					L579.953,543.76z"/>
			</g>
			<path id="path883" fill="#A7CFFF" d="M637.8,396.85c0,78.277-47.592,141.73-106.3,141.73c-58.706,0-106.3-63.456-106.3-141.73
				c0-78.276,47.592-141.729,106.3-141.729S637.8,318.576,637.8,396.85L637.8,396.85z"/>
			<path id="path889" fill="#AFFF7B" stroke="#000000" d="M637.8,396.85c1.132,26.658-4.633,39.635-11.889,67.356
				c-1.912,2.979-10.968-6.537-16.447-11.236c-5.482-4.698-7.812,4.239-14.539-3.046c-6.724-7.283-11.047,2.058-15.982-4.094
				c-4.934-6.153-51.301-7.057-51.365-7.585c4.591-2.276,28.267,0.152,24.474-11.193c-4.301-11.723-31.094-0.352-34.693-15.366
				c-2.439-14.906-53.566-15.542-57.219-19.225c1.445,5.665,39.729,8.05,38.814,22.57c-0.833,5.915-37.693,7.644-41.247,12.651
				c-3.047,6.295,28.928-1.707,30.113,6.033c-0.078,3.185-4.704,0.067-21.357,4.989c-8.326,2.46,15.454,10.33,6.41,14.638
				c-9.047,4.306-28.261,6.187-27.434,7.997c2.94,8.908,44.694,19.537,40.535,21.065c-14.754,6.559-22.551,10.872-29.628,14.652
				c-19.238-25.653-31.145-61.087-31.145-100.201c31.717-11.405,24.968-13.735,83.645-13.735s77.982,2.33,128.951,13.735
				L637.8,396.85z"/>
			<path id="path887" fill="#FFFFFF" stroke="#000000" d="M637.8,396.85c-8.069,0-16.453,3.4-25.07,3.4
				c-8.617,0-17.466-3.399-26.466-3.399c-9,0-19.287,4.532-28.511,4.532c-9.226,0-17.388-4.532-26.676-4.532
				c-9.288,0-18.567,3.399-27.755,3.399s-18.288-3.399-27.219-3.399c-8.929,0-17.69,3.399-26.2,3.399s-16.77-3.4-24.7-3.4
				c0-19.559,2.976-38.196,8.357-55.15c27.075,2.001,11.043-15.715,27.075-15.715c8.657,0,17.435,1.859,25.238,9.788
				c2.448,0,14.479-11.373,27.913-9.788c13.431,1.586,8.493,27.272,26.371,28.637c9.062,6.796,14.393,11.133,26.778,13.871
				c17.716,1.606,68.351-2.5,68.705-0.194C637.055,377.521,637.8,387.07,637.8,396.85z"/>
			<path id="path891" stroke="#000000" d="M548.531,482.844c0-4.42,4.744-7.384,4.744-14.456c0-7.071-4.183-7.296-4.345-13.937
				c-0.071-2.701,3.623-5.499,5.236-5.724c1.613-0.226,2.98,5.79,2.98,7.116c0,1.326-1.635-3.272-3.011-3.417
				c-1.374-0.145-4.323,0.493-4.323,1.818c0,2.653,5.213,5.93,4.817,14.769c-0.397,8.84-4.462,11.438-4.462,14.09
				s1.775,10.036,1.775,10.036S548.531,487.263,548.531,482.844z"/>
			<path id="path892" stroke="#000000" d="M553.909,482.213c0-4.419-4.744-7.384-4.744-14.455c0-7.072,4.194-7.295,4.345-13.938
				c0.335-3.091-4.145-5.107-5.758-5.332c-1.615-0.226-3.507,6.182-3.507,7.508c0,1.325,1.899-4.054,3.275-4.2
				c1.374-0.145,5.109,0.493,5.109,1.819c0,2.652-5.213,5.929-4.817,14.769c0.397,8.839,4.462,11.437,4.462,14.089
				c0,2.652-1.775,10.036-1.775,10.036S553.909,486.633,553.909,482.213z"/>
			<path id="path893" d="M553.682,445.951c0,2.161-1.115,3.913-2.49,3.913c-1.374,0-2.49-1.752-2.49-3.913s1.117-3.913,2.49-3.913
				C552.568,442.038,553.682,443.79,553.682,445.951z"/>
			
				<rect id="rect894" x="586.712" y="457.572" transform="matrix(-0.9989 -0.0471 0.0471 -0.9989 1151.2109 974.8859)" width="0.776" height="32.594"/>
			
				<rect id="rect895" x="593.922" y="455.172" transform="matrix(-0.9989 -0.0471 0.0471 -0.9989 1165.7354 970.4281)" width="0.776" height="32.594"/>
			<polygon id="rect896" points="587.303,472.518 587.309,471.718 594.118,472.828 594.114,473.628 			"/>
			<path id="path890" fill="#B74D00" stroke="#000000" d="M492.73,479.202c0,0,26.052,11.328,31.715,18.125
				c5.663,6.796,3.399,6.795,3.399,6.795l57.769,2.266c0-3.398,10.194-3.399,12.459-11.328c2.267-7.928,2.267-10.193,2.267-10.193
				l-18.124,5.664l1.132-10.194l-15.857-0.001l-2.264,10.195l-33.984-1.133l2.267-27.186l-6.795,1.133l-1.134,26.053
				C524.445,489.398,493.86,481.468,492.73,479.202L492.73,479.202z"/>
			<path id="path897" fill="#FEDE00" stroke="#FEDE00" d="M440.529,316.28c0,0,37.646-11.214,92.111-10.413
				c54.465,0.801,92.109,12.816,91.309,12.816c-0.802,0-10.414-18.423-10.414-18.423s-38.446-10.411-81.698-11.213
				c-43.252-0.8-80.896,8.01-80.096,8.812L440.529,316.28z"/>
			<polygon id="rect898" fill="#38A9F9" points="507.63,291.923 530.855,291.497 531.089,304.311 507.865,304.736 			"/>
			<path id="path905" fill="#38A9F9" d="M454.038,298.896l-8.191,12.622l27.682-3.228l-2.222-12.621L454.038,298.896z"/>
			<polygon id="rect900" fill="#38A9F9" points="477.633,294.04 500.779,292.114 501.843,304.885 478.694,306.812 			"/>
			<polygon id="rect901" fill="#38A9F9" points="561.26,292.732 538.078,291.258 537.265,304.048 560.447,305.522 			"/>
			<path id="path904" fill="#38A9F9" d="M611.232,300.763l8.424,15.711l-25.075-5.859l2.792-12.507L611.232,300.763L611.232,300.763
				z"/>
			<polygon id="rect903" fill="#38A9F9" points="591.136,296.197 568.098,293.226 566.46,305.936 589.496,308.907 			"/>
			<polygon id="polygon906" fill="#FFDF00" stroke="#000000" points="532.64,323.49 530.059,310.02 522.519,321.48 525.289,308.05 
				513.949,315.75 521.651,304.4 508.22,307.18 519.67,299.64 506.199,297.06 519.67,294.48 508.22,286.95 521.651,289.72 
				513.949,278.37 525.289,286.07 522.519,272.641 530.059,284.1 532.64,270.63 535.211,284.1 542.75,272.641 539.979,286.07 
				551.329,278.37 543.619,289.72 557.059,286.95 545.6,294.48 559.069,297.06 545.6,299.64 557.059,307.18 543.619,304.4 
				551.329,315.75 539.979,308.05 542.75,321.48 535.211,310.02 			"/>
			<path id="path907" fill="#FFDF00" stroke="#000000" d="M547.049,296.662c0,7.741-6.454,14.017-14.417,14.017
				c-7.963,0-14.417-6.276-14.417-14.017c0-7.742,6.454-14.017,14.417-14.017C540.595,282.645,547.049,288.92,547.049,296.662z"/>
			<path id="path908" d="M532.638,293.053c0,0.884-2.151,1.602-4.806,1.602c-2.654,0-4.806-0.718-4.806-1.602
				s2.151-1.602,4.806-1.602C530.487,291.451,532.638,292.169,532.638,293.053z"/>
			<path id="path909" d="M543.05,293.052c0,0.884-1.615,1.602-3.605,1.602c-1.992,0-3.605-0.717-3.605-1.602
				s1.613-1.602,3.605-1.602C541.434,291.45,543.05,292.168,543.05,293.052z"/>
			<path id="path911" fill="none" stroke="#000000" d="M529.988,298.666l0.995,0.541c-2.362-1.284-1.274-0.797,2.446,2.615
				c2.154-1.154,2.57-2.21,3.926-3.668"/>
			<path id="path912" fill="none" stroke="#000000" d="M526.228,304.27l0.8,0.801c-1.901-1.902-1.123-0.996,3.204,1.602
				c4.028,0.543,8.094-1.196,10.414-4.005"/>
			<path id="path914" fill="#B7E1FF" d="M468.559,330.7c0,0,1.602,12.816-8.809,28.835c-10.414,16.018-8.812,10.412-8.812,10.412
				s4.806,8.811,4.006,8.811c-0.802,0-8.01-8.009-8.01-8.009l-8.812,8.809c0,0,8.012-13.616,7.21-13.616
				c-0.8,0-2.404-4.805-2.404-4.805l6.408-2.403c0,0,9.611-16.82,9.611-16.019c0,0.801-28.834,18.423-28.834,18.423L468.559,330.7
				L468.559,330.7z"/>
			<path id="path915" fill="#B7E1FF" d="M474.969,335.51c-0.8,0,4.006,12.816,8.01,19.223c4.006,6.408,4.006,14.417,4.006,14.417
				l13.615,6.407l-17.621-24.829l11.213,4.004L474.969,335.51L474.969,335.51z"/>
			<path id="path916" fill="#B7E1FF" d="M474.969,369.15c0,0,9.611,9.611,10.414,12.816c0.8,3.204,0.8,10.411,0.8,10.411
				l-4.004-8.008l-5.608,7.208c0,0,4.006-11.213,3.204-12.014c-0.8-0.801-6.408,4.005-6.408,4.005s2.404-6.408,2.404-7.209
				C475.771,375.557,475.771,371.552,474.969,369.15L474.969,369.15z"/>
			<path id="path917" fill="#B7E1FF" d="M426.91,391.57c3.204-2.402,9.612-4.004,9.612-4.004s-4.006,6.407-4.806,6.407
				C430.913,393.973,428.512,393.973,426.91,391.57z"/>
			<path id="path918" fill="#B7E1FF" d="M537.44,356.33c0,0,20.825,12.015,20.825,12.817c0,0.8-13.617-5.607-13.617-5.607
				L537.44,356.33L537.44,356.33z"/>
			<path id="path919" fill="#B7E1FF" d="M499.8,331.5c1.602,0.801,30.436,23.227,29.634,23.227c-0.8,0-12.815-6.407-12.815-5.606
				v5.606l-6.408-12.815l-1.602,4.805L499.8,331.5z"/>
			<path id="path920" fill="#B7E1FF" d="M506.999,367.541l8.012,15.218l8.007-1.602
				C523.018,381.157,507.801,367.541,506.999,367.541L506.999,367.541z"/>
			<path id="path921" fill="#B7E1FF" d="M531.841,357.93c0,2.403,0.8,14.417,0.8,14.417s4.806,4.005,4.806,3.204
				C537.446,374.75,532.64,358.731,531.841,357.93L531.841,357.93z"/>
		</g>
		<g id="g1032" transform="matrix(.42172 0 0 .40723 143.48 81.974)">
			<path id="path1021" fill="#984000" d="M279.74,160.196c0,0,40.048-19.121,85.643-33.36
				c45.595-14.24,96.742-23.597,103.499-23.597c13.509,0,36.67,29.293,40.53,29.293s19.298-8.137,38.599-8.137
				c19.301,0,30.881,13.019,34.741,13.019h34.738c3.86,0-11.58-32.547,0-30.92c5.791,0.814,55.005,7.323,100.844,20.139
				c45.837,12.815,110.903,35.439,110.903,35.439s-106.342,12.257-134.543,8.631c-3.86,1.627-0.19,21.527-5.599,12.771
				c-8.886-1.751-41.503-6.139-47.294-6.139c-5.789,0-16.586,5.645-32.027,8.899c-15.438,3.255-34.738,8.137-34.738,8.137
				l25.089,34.174l-30.878,13.02c0,0-19.301-39.057-27.021-39.057c-7.72,0-11.58,27.666-21.229,26.037
				c-9.652-1.627-13.512-26.037-21.232-32.547c-7.72-6.509-48.42-8.878-63.863-12.132c-15.44-3.255-40.357-5.768-53.866-9.024
				c-13.512-3.254-27.021,8.137-32.812,8.137c-5.789,0,7.72-9.764,1.931-11.391c-5.791-1.627-9.651,4.883-13.512,4.883
				s-44.387-6.51-48.248-8.137c-3.86-1.628,9.649-8.137,5.789-8.137h-15.44L279.74,160.196z"/>
			<path id="path1022" fill="#808080" stroke="#772600" stroke-width="3.7057" d="M566.666,143.515
				c0,9.187-8.562,16.634-19.128,16.634s-19.128-7.448-19.128-16.634c0-9.187,8.562-16.634,19.128-16.634
				S566.666,134.328,566.666,143.515z"/>
			<path id="path1023" fill="#984000" stroke="#772600" stroke-width="5.25" d="M471.898,147.013
				c3.477-3.503,7.824-8.755,19.128-8.755c2.608-0.875,2.608-6.128,8.693-6.128c6.088,0,4.349,5.252,8.696,7.004
				c4.347,1.751,39.994-1.752,39.994-1.752s3.477,2.627,3.477,6.129c0,3.502-2.608,6.128-3.477,6.128s-35.647-2.627-38.255-1.752
				c-2.608,0.876-4.347,1.752-10.434,1.752c-6.085,0-7.824-6.128-12.171-6.128C483.199,143.512,478.852,142.636,471.898,147.013
				L471.898,147.013z"/>
			<path id="path1025" fill="none" stroke="#772600" stroke-width="3.5" d="M577.965,145.258h13.912
				c4.999,0.06,6.722,1.579,11.304,1.751h12.173c4.423-0.165,6.762-1.207,11.301-1.751c7.574-0.093,4.991-0.687,3.477-5.253
				c-1.371-3.452-1.539-5.052-3.477-7.003c-0.729-4.178-2.43-5.664-2.608-10.506c-0.798-3.694-2.267-6.18-0.869-10.506
				c2.005,2.969,2.813,4.19,7.826,4.378c5.243,0,7.276-0.109,10.432,1.751c2.435,2.571,5.685,1.751,10.434,1.751
				c4.008,0.738,4.678,2.793,7.824,4.378c3.709,2.069,6.108,2.627,11.304,2.627c4.159,0.747,7.77,1.355,10.432,2.626
				c2.22,2.671,5.72,3.332,10.434,3.502c2.635,0,4.673-0.275,6.955-0.875c4.008,0.194,8.081,0,13.042,0
				c3.218,3.79,3.961,5.184,9.563,5.252c3.833,2.71,7.063,3.173,10.434,4.378H744.9c4.663,0.361,6.154,2.287,10.432,3.502
				c4.238,1.981,8.209,3.34,11.304,4.378c3.077,0.673,7.088,0.876,11.304,0.876c3.228,1.669,7.105,1.819,9.563,3.502
				c3.598,0.777,8.513,1.69,11.304,2.627c4.603,0.614,6.364,2.073,10.432,2.627c3.502,1.006-1.161,1.871-3.477,2.626
				c-5.129-0.191-5.5-2.075-10.432-2.626c-2.623-1.545-6.601-1.341-10.434-2.627h-0.869c3.445,2.052,6.762,3.377,5.216,7.003
				c-4.433,0-8.024-0.577-12.171-0.875c-4.379-0.85-6.384-1.751-11.304-1.751c4.905-1.19,6.191,0.142,9.565,1.751
				c1.25,4.237-1.425,2.626-6.088,2.626c-3.971-1.435-6.354-3.146-11.304-3.502h-10.432c5.164,0.193,6.253,2.156,9.563,4.378
				c0.272,1.362-0.067,1.3-2.608,1.751c-2.694-2.354-6.206-3.162-10.432-4.378c-4.114-0.148-8.469-0.507-12.173-1.751
				c-2.541-0.16-2.149-3.248,3.477,1.751c3.411,2.021,4.613,3.652,4.349,5.253c-4.48-1.127-6.698-2.934-9.565-4.378
				c-4.04-1.501-7.377-1.751-12.173-1.751c-4.495-1.191,0.467-1.879,3.477,2.626c6.466,4.611-0.852,2.633-3.477,1.752
				c-3.919-1.128-7.98-2.727-11.301-3.503c-2.635-0.758-4.929-1.5-7.826-1.751c4.507,0.412,6.043,2.01,7.826,5.253
				c4.571,3.17-0.203,1.629-4.349,0.875c-2.647-2.313-5.996-3.501-7.824-6.128c-4.361-2.195-4.47-4.722-1.739,0.876
				c0.711,1.791,0.58,5.675,0.869,6.128c-3.203-3.485-2.519-4.378-6.085-4.378c-2.42-1.706-6.004-3.032-7.826-5.253
				c-3.359-0.316-3.571-1.524-6.955-2.626c2.788,3.298,6.468,6.561,8.693,9.63c3.966,2.23,5.065,4.238,7.826,6.128
				c1.116,1.913,4.127,3.499,0.869,0.875c-3.732-3.703-6.508-4.558-12.173-7.003c-3.211-2.608-4.369-3.704-7.824-6.128
				c-4.702-1.527-2.877-2.389,0,2.627c3.297,3.033,5.831,6.43,8.693,8.754c1.968,2.58,5.293,5.32,7.826,7.004
				c0.783,1.183,3.127,1.4,0,1.751c-2.66-2.418-6.473-3.96-9.565-6.128c-4.334-1.232-6.364-3.498-9.563-6.128
				c-2.037-3.076-5.421-5.458-7.826-7.879c-5.028-1.982,0.993,1.912,2.608,4.378c1.124,3.19,2.502,5.801,3.48,8.754
				c1.45,2.924-4.423-0.698-6.088-1.751c-3.823-2.186-6.616-3.648-11.301-4.378c-3.124-0.683-7.103-1.298-10.434-1.751
				c-3.976-1.078,2.109,2.524,4.347,6.128c4.396,4.158-4.349,0.749-6.955,0c-4.295-0.864-8.506-0.876-13.042-0.876
				c-5.572,0.33-1.593,1.024,0,3.503c1.716,1.329,2.944,4.129,2.608,5.252c-3.672-0.5-6.802-1.589-11.301-1.751
				c-3.635,1.22-8.014,0.876-12.173,0.876c-0.2,2.204,0.753,0.344,2.608,2.626c3.008,1.231,5.004,2.723,4.347,4.378h-12.171h-13.042
				c-2.764,0.761,0.595,0.371,2.61,3.504c-1.129,2.84-2.586,1.751-6.085,1.751c-2.373-0.956-7.1-1.385-9.565-2.627
				c-2.45,0-2.265-0.642-4.347-0.875c7.328,5.219,3.692,3.917,7.824,7.879c0.714,0.24,2.363,0.875,0.869,0.875"/>
			<path id="path1027" fill="none" stroke="#772600" stroke-width="3.5" d="M517.105,224.051c-0.521,0-1.672-2.826-3.477-5.253
				c-1.215-3.18-2.815-1.36-4.349-6.127c0.183-4.943,0.358-5.833,0-10.507c-3.583-2.514-5.07-3.296-7.824-7.879
				c-4.418-3.721,0.645-10.022,1.484-14.642c-3.85-0.862-5.742,6.034-11.664,8.513c-4.258,2.888-0.477-5.97-2.554-11.14
				c-1.45-7.293-5.653,3.657-7.263,6.762c-2.855,1.955-3.722,4.492-7.826,0.876c0-2.705,2.578-10.247,1.487-11.713
				c-4.08,2.004-9.444,8.143-13.657,9.087c-4.245-0.929,0.924-7.796,0.924-12.891c-1.534-0.515-7.673,13.542-10.192,13.672
				s-1.418-13.667-2.596-13.369c-1.85,2.607-5.562,8.111-8.133,9.961c-4.937-0.64,0.729-9.166,1.484-12.316
				c0.85-3.769-4.648,7.229-7.572,7.94c-2.141,1.868-6.389,3.193-7.824,3.502c1.692-3.223,9.96-9.839,9.365-11.713
				c-4.811,0.179-12.173,6.602-16.322,7.336c-2.709,0-6.468,0.925-6.955,0.876c0.235-4.168,10.138-7.702,11.719-10.234
				c-4.858,0.785-14.193,5.102-16.935,8.483c-3.211,0.702-7.281,1.588-10.434,0c0.469-3.931,7.757-11.566,9.365-14.069
				c-4.384,1.945-6.601,3.465-11.304,4.378c-0.862,0.87-3.406,2.75-2.608,0.876c1.388-3.652,3.487-5.315,5.216-7.879
				c-3.89,0.717-5.367,2.962-9.563,5.252c-2.66,0.117-10.259,7.81-12.842,7.94c-5.979,4.407-8.36,5.157-14.781,7.004
				c-3.961,0.713-5.878,1.542-7.824,3.502c1.981-3.517,5.011-6.884,7.824-8.754c1.919-2.927,3.719-5.36,7.824-7.004
				c0.99-1.218,3.754-1.527,0.869-1.751c-2.477,2.228-6.629,4.714-8.693,6.128c-2.665,1.686-5.749,3.408-6.955,2.627
				c1.366-3.784,3.882-4.68,6.085-7.879c4.599-2.947,0.022-1.007-3.477,0c-2.265,2.032-6.33,3.536-9.565,5.252
				c-3.714,0.976-6.11,3.225-10.432,4.378c0,1.249,1.235-2.234,1.739-3.502c3.566-3.896,4.52-4.982,8.693-6.128
				c0.998-1.508,2.307-0.876-0.869-0.876c-2.356,2.115-5.646,3.266-8.693,5.254c-3.077,0.673-7.088,0.875-11.304,0.875
				c-5.406,0.653-4.939,1.065,0-1.751c2.798-2.651,5.1-1.984,5.216-5.252c-3.265,2.383-7.241,4.132-11.301,6.128
				c-3.361,0.099-4.248,0.875-7.826,0.875c1.724-1.796,2.756-4.013,5.218-5.252c3.601-4.028-2.287-0.777-3.48,0h-13.04
				c-2.331,2.935-0.121,0.027,1.739-1.751c2.247-1.178,4.571-2.71,4.347-3.502c-2.596,2.269-5.601,3.311-7.824,5.252
				c-2.423,0.732-5.218,1.095-5.218,1.751c1.894-2.81,4.974-4.509,6.957-7.003c2.929-0.642,5.428-1.543,6.085-2.627h-12.173h8.696
				c4.384,0,8.16-0.394,12.171-0.876c6.927-1.162-0.605-1.751-4.347-1.751c-0.726-1.339,2.146-2.096,5.216-2.626
				c2.625-1.252,5.865-2.362,8.696-3.503c2.744-0.753,6.634-3.054,6.955-3.502c-2.618,0.139-2.598,0.736-5.216,0.876
				c3.887-0.302,6.683-0.876,11.304-0.876c4.191-1.357,7.782-2.845,11.301-4.378c1.534-1.886,2.215-1.751-1.739-1.751
				c3.507-1.135,8.478-1.678,11.304-2.627c4.11-0.887,7.779-2.236,10.434-3.502c2.544-1.743,4.013-3.772,6.955-5.252
				c3.408,2.334,3.448,2.626,9.565,2.626c4.912-0.059,7.92-1.247,10.432-3.502c3.764-1.034,4.428-2.855,8.696-3.502
				c3.885,0.699,7.846,0.875,12.171,0.875c4.228-1.115,8.187-3.16,11.304-5.252c2.66-1.316,5.816-3.218,8.693-4.378
				c3.171,1.647,5.663,2.971,9.565,3.502c4.035-0.604,6.135-2.56,9.565-3.502c1.867-2.276,4.581-3.487,7.824-4.378
				c5.051-2.496,4.653,0.828,6.955,3.502c2.556,2.699,5.94,1.41,9.565,2.627c2,3.099,3.47,5.213,6.085,7.004
				c2.033,2.475,4.443,3.172,8.696,3.502c1.548,2.08,0.314,3.58,3.477,4.378c1.247,1.33,3.403,1.896,5.216,2.626"/>
			<path id="path1028" fill="none" stroke="#782600" stroke-width="3.125" d="M567.973,201.725v0.438
				c0-1.223-0.054-0.573,0.869,1.751c0.311,1.915-0.422,1.692-1.304,3.065c-0.151,1.958-0.435,3.364-0.435,5.69
				c-0.282,1.899-1.344,3.701-2.173,5.252c-0.84,1.646-4.468,2.56-4.349,4.815c-2.082,0.599-2.131-0.76-2.173-3.065
				c-1.245-1.433-1.677-3.4-2.608-5.252c-0.578-1.828-1.81-3.171-2.608-5.253c-1.284-1.991-2.373-2.563-3.477-4.814
				c-0.432-1.087-0.356-2.427-1.304-3.065c-1.42-1.807-2.344-2.097-4.784-2.189c-1.874,0.445-2.596,1.27-4.347,1.752
				c-1.341,0.45-3.951,0.305-5.651,0.875c-0.422,0.69,0.835,1.021,1.304,2.627c-1.114,0.927-1.529,2.567-2.173,3.94
				c-1.027,1.306-1.714,1.948-2.173,3.94c0.711,1.217,0.104,2.832-0.869,3.94c-0.301,2.031-1.272,3.088-1.739,4.816
				c-1.403,0.96-1.909,1.861-3.045,3.502c-0.998,1.409-1.897,1.313-4.347,1.313c-1.914-0.525-2.183-1.571-3.912-2.189
				c-0.185-0.555-0.319-0.689-0.869-0.875"/>
			<path id="path1029" fill="#812E00" d="M518.406,219.514c0,0-0.869,8.162-6.955,13.603c-6.085,5.441-18.693,11.789-18.693,11.789
				s16.954-6.952,18.693-5.441c1.739,1.512-10.869,13.603-10.869,13.603s16.52-12.696,18.695-12.696
				c2.173,0,6.955,12.393,8.693,12.092c1.739-0.303-3.912-15.719-3.043-18.137c0.869-2.419,0-15.416,0-15.416L518.406,219.514z"/>
			<path id="path1030" fill="#812E00" d="M557.529,218.408c0,0-0.869,8.724-6.957,14.54c-6.085,5.816-18.693,12.602-18.693,12.602
				s16.954-7.432,18.693-5.816c1.739,1.615-10.869,14.54-10.869,14.54s16.52-13.571,18.695-13.571
				c2.173,0,6.955,13.248,8.693,12.924c1.739-0.323-3.912-16.802-3.043-19.387s0-16.479,0-16.479L557.529,218.408L557.529,218.408z"
				/>
			<path id="path1031" fill="#812E00" d="M502.759,139.27c0,1.625-1.845,2.943-4.119,2.943c-2.277,0-4.122-1.318-4.122-2.943
				c0-1.626,1.845-2.944,4.122-2.944C500.914,136.326,502.759,137.644,502.759,139.27z"/>
		</g>
	</g>
</g>
</svg>
