<?xml version="1.0" encoding="utf-8"?>
<!-- Generator: Adobe Illustrator 16.0.0, SVG Export Plug-In . SVG Version: 6.00 Build 0)  -->
<svg version="1.2" baseProfile="tiny"
	 id="svg1689" xmlns:cc="http://creativecommons.org/ns#" xmlns:dc="http://purl.org/dc/elements/1.1/" xmlns:rdf="http://www.w3.org/1999/02/22-rdf-syntax-ns#"
	 xmlns="http://www.w3.org/2000/svg" xmlns:xlink="http://www.w3.org/1999/xlink" x="0px" y="0px" width="512px" height="512px"
	 viewBox="0 0 512 512" xml:space="preserve">
<g>
	<path fill="#FFFFFF" d="M235.641,306.705c-0.139,0.751-0.296,1.489-0.47,2.215l2.392,0.446L235.641,306.705z"/>
	<path fill="#FFFFFF" d="M250.886,314.688c2.059-0.003,4.037-0.043,5.962-0.107l-0.455-1.11l-5.572,0.858
		C250.847,314.444,250.864,314.569,250.886,314.688z"/>
	<path fill="#FFFFFF" d="M239.694,309.765l2.041,0.381c0.553,0.104,1.072,0.249,1.554,0.423c0.427-0.322,0.957-0.613,1.578-0.854
		l-2.404-3.012L239.694,309.765z"/>
	<path fill="#FFFFFF" d="M270.435,312.398c0.036,0.385,0.052,0.779,0.054,1.175c0.387-0.045,0.775-0.09,1.158-0.137l-1.35-2.109
		l-0.012,0.002C270.348,311.682,270.402,312.039,270.435,312.398z"/>
	<polygon fill="#FFFFFF" points="247.388,309.08 251.849,308.392 249.8,306.146 	"/>
	<path fill="#FFFFFF" d="M227.068,313.203l-0.044,0.072c0.386,0.045,0.771,0.092,1.16,0.136L227.068,313.203z"/>
	<path fill="#FFFFFF" d="M277.462,310.223l-4.567,0.704l-0.534,2.416c2.233-0.287,4.406-0.613,6.536-0.972L277.462,310.223z"/>
	<path fill="#FFFFFF" d="M284.422,310.949c-0.08-0.584-0.116-1.189-0.109-1.783l-4.152,0.641l0.115,2.332
		c1.42-0.25,2.822-0.519,4.217-0.795C284.47,311.211,284.441,311.086,284.422,310.949z"/>
	<path fill="#FFFFFF" d="M218.045,311.518l-10.123-1.891c-0.003,0.205-0.009,0.41-0.021,0.617c3.352,0.652,6.759,1.262,10.241,1.81
		L218.045,311.518z"/>
	<path fill="#FFFFFF" d="M263.374,312.395l-2.735,0.422l-0.357,1.616c1.437-0.076,2.85-0.165,4.223-0.273L263.374,312.395z"/>
	<path fill="#FFFFFF" d="M0.001,340.107h511.983V168.222H0.001V340.107z M185.392,211.164c0.028-0.069,0.062-0.139,0.102-0.209
		c0.137-0.27,0.311-0.471,0.5-0.645l0.033-0.662h0.801c2.75-1.887,8.852-3.603,15.433-3.603c8.06,0,12.394,1.162,16.218,2.187
		c1.822,0.488,3.491,0.935,5.422,1.205c4.168-4.284,8.863-10.398,8.863-15.614v-10.403c-2.976-1.385-5.396-3.521-6.464-5.805
		c-0.864-0.128-1.777-0.206-2.778-0.206l-3.884,0.02l1.564-3.432c0.822-1.803,2.063-4.528,6.205-4.528
		c1.434,0,3.181,0.336,5.342,1.027l6.646,2.125c0.661,0.211,1.246,0.452,1.772,0.719c1.94-0.212,3.784-0.213,4.98-0.213
		c5.329,0,13.383,0,13.383,6.069v14.628c0,5.32,4.885,11.573,9.112,15.867c3.604-0.062,6.163-0.711,9.089-1.464
		c3.971-1.022,8.472-2.181,16.52-2.181c4.015,0,9.785,0.648,14.738,3.662h0.406l0.015,0.254l0.071,0.045l-0.063,0.104l5.265,93.664
		l-14.781-10.522v-0.005l-4.672-3.324l0.001,0.009l-14.821-10.551v-0.003l-4.938-3.516c0.683,2.943,1.22,6.164,1.561,9.393
		c0.562,2.629,1.006,5.446,1.303,8.265c0.716,3.343,1.241,6.99,1.514,10.555l5.659-0.872c0.646-0.1,1.296-0.15,1.934-0.15
		c2.514,0,4.415,0.76,4.844,1.935c0.161,0.442,0.105,0.915-0.161,1.366c-0.471,0.795-1.563,1.482-2.998,1.936
		c0.099,0.395,0.186,0.805,0.246,1.246c0.035,0.256,0.06,0.517,0.078,0.779c3.588-0.782,7.172-1.627,10.876-2.501
		c2.661-0.628,5.38-1.27,8.201-1.911l0.611-0.14v4.809l5.081,4.621l-5.081,4.623v4.504l-0.293,0.133
		c-19.454,8.85-39.188,8.85-58.271,8.85c-19.074,0-38.797,0-63.073-8.835l-0.329-0.119v-4.532l-5.082-4.623l5.082-4.621v-4.809
		l0.611,0.14c5.106,1.161,10.263,2.331,15.537,3.424c0.044-0.229,0.094-0.452,0.15-0.675c-1.24-0.459-2.199-1.127-2.636-1.885
		c-0.276-0.479-0.335-0.979-0.17-1.442c0.402-1.132,2.093-1.863,4.307-1.863c0.64,0,1.294,0.062,1.943,0.183l4.93,0.921
		c0.319-3.537,0.869-7.148,1.582-10.453c0.326-2.814,0.788-5.623,1.354-8.24c0.337-2.909,0.821-5.81,1.413-8.503l-8.577,6.86
		l0.084-1.275l-5.019,4.015l-7.669,6.135v0.004l-13.706,10.962l4.518-90.347l-1.037-1.001l0.004-0.011l-0.005-0.005L185.392,211.164
		z"/>
	<rect x="0.001" y="340.107" width="511.983" height="171.876"/>
	<rect x="0.001" fill="#FF0000" width="511.983" height="168.222"/>
	<path fill="#D7B900" d="M250.937,304.762l-0.495,0.603l2.595,2.845l1.582-0.244c-0.553-2.326-0.918-4.785-1.067-7.279
		c-0.694-2.608-1.135-5.422-1.305-8.271c-0.75-2.82-1.206-5.88-1.341-8.966c-0.588-1.928-1.036-3.982-1.331-6.104L250.937,304.762z"
		/>
	<polygon fill="#FFFFFF" points="249.8,306.146 251.849,308.392 253.036,308.209 250.442,305.364 	"/>
	<path fill="#D7B900" d="M241.83,305.911l-0.92-1.152l1.704-36.286c-0.204-0.149-0.409-0.301-0.61-0.446
		c-0.243,2.395-0.655,4.743-1.236,6.939c-0.245,3.303-0.833,6.541-1.713,9.47c-0.183,3.08-0.658,6.129-1.4,8.935
		c-0.21,2.842-0.667,5.643-1.353,8.234c-0.093,1.255-0.234,2.499-0.423,3.724l2.875,3.981L241.83,305.911z"/>
	<path fill="#FFFFFF" d="M239.694,309.765l2.769-3.062l-0.632-0.792l-3.074,3.398l-2.875-3.981c-0.071,0.464-0.154,0.92-0.239,1.377
		l1.922,2.661L239.694,309.765z"/>
	<polygon fill="#D7B900" points="309.302,294.022 304.835,214.532 299.928,214.531 304.577,290.658 	"/>
	<path fill="#FFFFFF" d="M308.222,214.524c-0.035-0.001-2.838-0.106-8.304-0.156l0.01,0.163l4.907,0l4.467,79.491l-4.725-3.364
		l0.378,6.187l-5.054-3.598v0.005l14.781,10.522l-5.265-93.664l-0.705,1.161L308.222,214.524z"/>
	<path fill="#FFFFFF" d="M309.41,209.961l-0.015-0.254h-0.406c0.125,0.076,0.253,0.147,0.377,0.227L309.41,209.961z"/>
	<path fill="#D7B900" d="M299.524,287.058l-4.43-72.531l-3.01,0c-0.646,0.102-1.271,0.232-1.867,0.412l4.6,68.77L299.524,287.058z"
		/>
	<path fill="#FFFFFF" d="M304.577,290.658l-4.649-76.127l-0.01-0.163c-1.65-0.015-3.532-0.024-5.667-0.024
		c-0.769,0-1.479,0.074-2.167,0.182l3.01,0l4.43,72.531l-4.707-3.35l-4.6-68.77c-0.001,0-0.002,0-0.004,0.001l5.017,74.983
		l4.672,3.324l5.054,3.598L304.577,290.658z"/>
	<path fill="#D7B900" d="M289.739,280.1l-4.216-63.011c-0.393,0.223-0.789,0.452-1.192,0.686c-1.1,0.637-2.257,1.296-3.495,1.9
		l4.221,57.092L289.739,280.1z"/>
	<path fill="#FFFFFF" d="M290.213,214.939c-1.648,0.5-3.142,1.272-4.69,2.149l4.216,63.011l-4.683-3.333l0.462,6.248l-5.108-3.637
		v0.003l14.821,10.551l-0.001-0.009L290.213,214.939z"/>
	<path fill="#D7B900" d="M275.293,269.813l4.656,3.314l-3.826-51.755c-0.253,0.058-0.51,0.11-0.771,0.158
		c-0.1,9.713-0.854,16.735-2.228,22.037L275.293,269.813z"/>
	<path fill="#FFFFFF" d="M285.056,276.767l-4.221-57.092c-1.43,0.696-2.981,1.304-4.712,1.698l3.826,51.755l-4.656-3.314
		l-2.169-26.246c-0.552,2.131-1.203,3.989-1.953,5.631c0.674,2.92,1.204,6.111,1.541,9.31c0.562,2.629,1.008,5.446,1.304,8.267
		c0.582,2.718,1.037,5.637,1.334,8.552c0.042,0.175,0.08,0.357,0.121,0.535l4.938,3.516l5.108,3.637L285.056,276.767z"/>
	<path fill="#D7B900" d="M186.659,293.608l3.652-2.921l4.143-76.215c-0.023,0-0.045,0-0.069-0.001h-3.769L186.659,293.608z"/>
	<path fill="#FFFFFF" d="M190.311,290.688l-3.652,2.921l3.957-79.137h3.769c-0.612-0.008-1.193-0.016-1.728-0.023
		c-1.443-0.02-2.597-0.036-3.433-0.036c-0.85,0-1.083,0.018-1.135,0.023c0.374-0.04,0.94-0.278,1.368-0.774
		c-0.057,0.036-0.102,0.068-0.135,0.093c0.005-0.003,0.374-0.298,0.579-0.876l-2.252-0.776l-1.691,1.749l-0.013-0.013l0,0
		l-0.121-0.117l-4.518,90.347l13.706-10.962v-0.004l-5.051,4.041L190.311,290.688z"/>
	<path fill="#FFFFFF" d="M186.828,209.648h-0.801l-0.033,0.662c0.077-0.071,0.149-0.15,0.234-0.207
		C186.403,209.95,186.609,209.799,186.828,209.648z"/>
	<path fill="#D7B900" d="M198.988,283.742l4.118-69.175c-0.28-0.016-0.551-0.041-0.845-0.041c-1.042,0-2.033-0.003-2.978-0.009
		l-3.92,72.125L198.988,283.742z"/>
	<path fill="#FFFFFF" d="M198.988,283.742l-3.625,2.9l3.92-72.125c-1.798-0.01-3.412-0.027-4.829-0.045l-4.143,76.215l-0.351,6.455
		l5.051-4.041l7.669-6.135l-4.079,3.263L198.988,283.742z"/>
	<path fill="#D7B900" d="M207.674,276.794l3.896-59.198c-1.243-0.721-2.439-1.386-3.696-1.915l-3.811,64.001L207.674,276.794z"/>
	<path fill="#FFFFFF" d="M211.984,217.836c-0.14-0.082-0.276-0.159-0.415-0.24l-3.896,59.198l-3.611,2.889l3.811-64.001
		c-1.434-0.603-2.969-1.013-4.767-1.115l-4.118,69.175l-0.386,6.487l4.079-3.263l5.019-4.015L211.984,217.836z"/>
	<path fill="#D7B900" d="M213.148,273.624l3.584-2.866l1.998-27.159c-1.329-5.114-2.081-11.827-2.223-21.021L213.148,273.624z"/>
	<path fill="#FFFFFF" d="M217.893,267.463c0.327-2.814,0.789-5.623,1.354-8.241c0.382-3.292,0.951-6.574,1.653-9.554
		c-0.84-1.75-1.566-3.742-2.17-6.069l-1.998,27.159l-3.584,2.866l3.358-51.046c-0.012-0.773-0.018-1.572-0.021-2.381
		c-1.63-0.705-3.094-1.542-4.467-2.341c-0.012-0.007-0.023-0.013-0.035-0.02l-4.284,65.116l-0.084,1.275l8.577-6.86
		c0.103-0.467,0.207-0.932,0.316-1.385C216.837,273.076,217.309,270.168,217.893,267.463z"/>
	<path fill="#FFFFFF" d="M250.09,214.526h-0.001c-0.031,0.042-0.06,0.086-0.091,0.128c0.174,0.052,0.348,0.095,0.522,0.145
		C250.376,214.708,250.232,214.619,250.09,214.526z"/>
	<path fill="#FFFFFF" d="M281.913,213.599c1.286-0.745,2.638-1.527,4.122-2.206c-2.778,0.392-4.96,0.954-7.102,1.504
		c-1.767,0.455-3.487,0.891-5.408,1.199l2.821,2.226C278.282,215.69,280.024,214.693,281.913,213.599z"/>
	<path fill="#FFFFFF" d="M219.528,213.489c-0.772-0.189-1.53-0.392-2.298-0.597c-2.146-0.576-4.335-1.163-7.238-1.555
		c1.629,0.705,3.081,1.55,4.454,2.349c0.972,0.565,1.903,1.099,2.848,1.575l1.762-1.39
		C219.203,213.754,219.363,213.625,219.528,213.489z"/>
	<path fill="#D7B900" d="M184.787,212.72l1.037,1.001l0.121,0.117l0,0l0.013,0.013l1.691-1.749l2.252,0.776
		c-0.205,0.579-0.574,0.873-0.579,0.876c0.033-0.025,0.078-0.057,0.135-0.093c-0.428,0.497-0.994,0.735-1.368,0.774
		c0.051-0.005,0.285-0.023,1.135-0.023c0.836,0,1.99,0.016,3.433,0.036c0.535,0.007,1.116,0.015,1.728,0.023
		c0.023,0,0.045,0,0.069,0.001c1.417,0.018,3.031,0.036,4.829,0.045c0.945,0.005,1.936,0.009,2.978,0.009
		c0.294,0,0.565,0.025,0.845,0.041c1.798,0.102,3.333,0.512,4.767,1.115c1.257,0.528,2.453,1.193,3.696,1.915
		c0.139,0.081,0.274,0.158,0.415,0.24c0.012,0.007,0.023,0.013,0.035,0.02c1.374,0.799,2.837,1.636,4.467,2.341
		c-0.001-0.305-0.006-0.596-0.006-0.906v-1.113h-2.883l3.696-2.917c-0.945-0.476-1.876-1.009-2.848-1.575
		c-1.373-0.799-2.824-1.644-4.454-2.349c2.903,0.392,5.092,0.979,7.238,1.555c0.768,0.206,1.525,0.408,2.298,0.597
		c1.161-0.953,2.725-2.358,4.374-4.053c-1.931-0.27-3.6-0.716-5.422-1.205c-3.824-1.025-8.158-2.187-16.218-2.187
		c-6.581,0-12.683,1.716-15.433,3.603c-0.22,0.151-0.425,0.302-0.601,0.455c-0.084,0.057-0.157,0.136-0.234,0.207
		c-0.189,0.174-0.363,0.375-0.5,0.645c-0.04,0.07-0.073,0.14-0.102,0.209l-0.606,1.539l0.005,0.005L184.787,212.72z"/>
	<path fill="#D7B900" d="M273.24,213.871l0.286,0.226c1.921-0.308,3.642-0.745,5.408-1.199c2.142-0.551,4.323-1.113,7.102-1.504
		c-1.484,0.678-2.836,1.461-4.122,2.206c-1.89,1.094-3.631,2.091-5.566,2.724l2.349,1.854l-3.329,0v1.113
		c0,0.767-0.007,1.504-0.015,2.24c0.262-0.048,0.519-0.101,0.771-0.158c1.73-0.395,3.282-1.002,4.712-1.698
		c1.238-0.604,2.396-1.263,3.495-1.9c0.403-0.233,0.8-0.463,1.192-0.686c1.549-0.877,3.042-1.649,4.69-2.149
		c0.002,0,0.003,0,0.004-0.001c0.596-0.18,1.222-0.311,1.867-0.412c0.688-0.108,1.398-0.182,2.167-0.182
		c2.135,0,4.017,0.01,5.667,0.024c5.466,0.049,8.269,0.155,8.304,0.156l0.491-3.252l0.705-1.161l0.063-0.104l-0.071-0.045
		l-0.044-0.028c-0.124-0.08-0.252-0.15-0.377-0.227c-4.953-3.013-10.724-3.662-14.738-3.662c-8.048,0-12.549,1.158-16.52,2.181
		c-2.926,0.753-5.484,1.401-9.089,1.464C270.433,211.507,272.106,212.977,273.24,213.871z"/>
	<polygon fill="#D7B900" points="250.089,214.526 250.088,214.526 250.09,214.526 	"/>
	<path fill="#FFFFFF" d="M249.434,320.92c-0.13,0.041-0.265,0.062-0.399,0.062c-1.242,0-2.36-1.812-2.721-4.405
		c-0.042-0.307-0.072-0.62-0.089-0.935c-0.826-0.019-1.636-0.053-2.452-0.081c-0.377,0.091-0.782,0.158-1.219,0.191
		c0.003,0.611-0.042,1.244-0.133,1.858c-0.319,2.172-1.244,4.363-2.591,4.363c-0.14,0-0.277-0.025-0.41-0.074
		c-1.345-0.499-1.685-3.231-1.325-5.674c0.046-0.312,0.107-0.621,0.177-0.927c-1.704-0.106-3.392-0.228-5.054-0.374l-2.604,6.567
		l-1.259-6.941c-0.977-0.104-1.941-0.22-2.906-0.336l-1.954,3.203l-0.104-0.574c-0.427,1.439-1.111,2.54-2.031,2.54
		c-0.155,0-0.307-0.032-0.454-0.096c-1.283-0.555-1.715-3.316-1.507-5.88c-0.142-0.021-0.283-0.043-0.425-0.064l-1.232,2.02
		l-0.411-2.269c-3.582-0.558-7.084-1.183-10.527-1.851c-0.007,0.049-0.009,0.099-0.016,0.147c-0.337,2.321-1.315,4.665-2.74,4.665
		c0,0,0,0,0,0c-0.146,0-0.29-0.026-0.429-0.078c-1.351-0.506-1.736-3.16-1.449-5.663c-5.089-1.054-10.068-2.18-14.998-3.301v3.996
		l-4.596,4.18l4.596,4.182v4.272c23.959,8.654,43.502,8.655,62.402,8.655c18.881,0,38.4,0,57.563-8.627v-4.301l4.595-4.182
		l-4.595-4.18v-3.996c-2.602,0.595-5.117,1.188-7.583,1.771c-3.772,0.891-7.421,1.75-11.075,2.545
		c-0.026,2.011-0.57,3.879-1.761,4.264c-0.136,0.044-0.277,0.066-0.418,0.066c-1.083,0-2.069-1.325-2.599-3.339
		c-1.447,0.287-2.902,0.564-4.377,0.824l0.073,1.474l-0.893-1.337c-2.923,0.5-5.923,0.939-9.053,1.301
		c-0.141,1.909-0.707,3.631-1.764,4.026c-0.145,0.054-0.295,0.081-0.445,0.081c-1.118,0-1.893-1.39-2.299-3.102l-0.135,0.611
		l-0.694-1.086c-1.639,0.135-3.331,0.241-5.059,0.33l-1,4.525l-1.804-4.401c-2.005,0.071-4.074,0.112-6.223,0.117
		C251.259,317.978,250.805,320.479,249.434,320.92z"/>
	<path fill="#D7B900" d="M243.773,315.562c0.816,0.028,1.625,0.062,2.452,0.081c-0.017-0.311-0.021-0.62-0.011-0.927
		c-0.193-0.015-0.374-0.042-0.558-0.067C245.226,315.059,244.573,315.369,243.773,315.562z"/>
	<path fill="#D7B900" d="M270.453,314.584c3.13-0.361,6.13-0.801,9.053-1.301l-0.609-0.912c-2.13,0.358-4.303,0.685-6.536,0.972
		l-0.198,0.898l-0.516-0.805c-0.383,0.047-0.771,0.092-1.158,0.137C270.49,313.912,270.479,314.25,270.453,314.584z"/>
	<path fill="#D7B900" d="M250.99,315.256c0.02,0.142,0.028,0.287,0.042,0.431c2.149-0.005,4.217-0.046,6.223-0.117l-0.405-0.988
		c-1.926,0.064-3.904,0.104-5.962,0.107C250.923,314.876,250.962,315.059,250.99,315.256z"/>
	<path fill="#D7B900" d="M220.423,313.065c0.021-0.197,0.052-0.393,0.081-0.589l-0.53,0.868c0.142,0.021,0.283,0.044,0.425,0.064
		C220.408,313.295,220.411,313.179,220.423,313.065z"/>
	<path fill="#D7B900" d="M229.182,313.598l-0.999-0.187c-0.388-0.044-0.773-0.091-1.16-0.136l-0.575,0.94
		c0.965,0.116,1.929,0.232,2.906,0.336L229.182,313.598z"/>
	<path fill="#D7B900" d="M238.274,315.296l-4.843-0.905l-0.212,0.535c1.663,0.146,3.35,0.268,5.054,0.374
		C238.273,315.299,238.274,315.297,238.274,315.296z"/>
	<path fill="#D7B900" d="M289.48,311.331c3.654-0.795,7.303-1.654,11.075-2.545c2.466-0.582,4.981-1.176,7.583-1.771v3.996
		l4.595,4.18l-4.595,4.182v4.301c-19.163,8.627-38.683,8.627-57.563,8.627c-18.9,0-38.443-0.001-62.402-8.655v-4.272l-4.596-4.182
		l4.596-4.18v-3.996c4.93,1.121,9.909,2.247,14.998,3.301c0.016-0.136,0.025-0.272,0.044-0.407c0.028-0.195,0.068-0.39,0.105-0.584
		c-5.274-1.093-10.431-2.263-15.537-3.424l-0.611-0.14v4.809l-5.082,4.621l5.082,4.623v4.532l0.329,0.119
		c24.276,8.835,44,8.835,63.073,8.835c19.083,0,38.816,0,58.271-8.85l0.293-0.133v-4.504l5.081-4.623l-5.081-4.621v-4.809
		l-0.611,0.14c-2.821,0.642-5.54,1.283-8.201,1.911c-3.704,0.874-7.288,1.719-10.876,2.501
		C289.474,310.652,289.485,310.993,289.48,311.331z"/>
	<path fill="#D7B900" d="M218.142,312.054c-3.482-0.548-6.89-1.157-10.241-1.81c-0.02,0.335-0.052,0.669-0.097,1.001
		c3.443,0.668,6.945,1.293,10.527,1.851L218.142,312.054z"/>
	<path fill="#D7B900" d="M284.492,311.344c-1.395,0.276-2.797,0.545-4.217,0.795l0.05,1.008c1.475-0.26,2.93-0.537,4.377-0.824
		C284.621,312.012,284.551,311.687,284.492,311.344z"/>
	<path fill="#D7B900" d="M264.504,314.159c-1.373,0.108-2.786,0.197-4.223,0.273l-0.224,1.013c1.728-0.089,3.42-0.195,5.059-0.33
		L264.504,314.159z"/>
	<polygon fill="#FFFFFF" points="228.643,310.622 227.416,312.633 229.063,312.94 	"/>
	<path fill="#FFFFFF" d="M217.107,306.342l-1.083,1.703l-4.34-1.418c0.031-0.476,0.072-0.957,0.112-1.438l-4.996-0.933
		c-0.612-0.114-1.227-0.173-1.829-0.173c-1.917,0-3.412,0.582-3.719,1.449c-0.104,0.291-0.062,0.602,0.123,0.922
		c0.356,0.619,1.189,1.187,2.263,1.592c0.489-1.563,1.284-2.803,2.317-2.803c0.146,0,0.29,0.026,0.429,0.078
		c0.989,0.37,1.455,1.898,1.526,3.669l10.016,1.87L217.107,306.342z"/>
	<path fill="#FFFFFF" d="M238.429,314.69c0.456-1.561,1.233-2.827,2.257-2.827c0.139,0,0.276,0.025,0.409,0.074
		c0.889,0.33,1.332,1.642,1.431,3.194c0.938-0.074,1.742-0.304,2.297-0.636c-1.321-0.314-2.255-0.902-2.538-1.679
		c-0.161-0.441-0.105-0.914,0.161-1.364c0.083-0.14,0.185-0.275,0.304-0.407c-0.359-0.114-0.735-0.214-1.13-0.287l-6.594-1.231
		c-0.384,1.5-0.835,2.939-1.362,4.272L238.429,314.69z"/>
	<path fill="#D7B900" d="M217.926,310.86l-10.016-1.87c0.008,0.211,0.015,0.421,0.012,0.637l10.123,1.891L217.926,310.86z"/>
	<polygon fill="#D7B900" points="229.182,313.598 229.063,312.94 227.416,312.633 227.068,313.203 228.184,313.411 	"/>
	<path fill="#D7B900" d="M238.274,315.296c0.047-0.205,0.098-0.408,0.156-0.605l-4.765-0.891c-0.004,0.011-0.008,0.021-0.012,0.032
		l-0.222,0.559L238.274,315.296z"/>
	<path fill="#D7B900" d="M203.638,308.046c-1.073-0.405-1.907-0.973-2.263-1.592c-0.185-0.32-0.227-0.631-0.123-0.922
		c0.308-0.867,1.802-1.449,3.719-1.449c0.602,0,1.217,0.059,1.829,0.173l4.996,0.933c0.017-0.209,0.03-0.415,0.049-0.625
		l-4.93-0.921c-0.649-0.121-1.303-0.183-1.943-0.183c-2.214,0-3.905,0.731-4.307,1.863c-0.165,0.464-0.105,0.963,0.17,1.442
		c0.437,0.758,1.396,1.426,2.636,1.885C203.522,308.445,203.576,308.243,203.638,308.046z"/>
	<path fill="#D7B900" d="M241.62,310.759c0.395,0.073,0.771,0.173,1.13,0.287c0.149-0.167,0.335-0.324,0.538-0.478
		c-0.482-0.174-1.001-0.319-1.554-0.423l-2.041-0.381l-2.13-0.398l-2.392-0.446c-0.049,0.202-0.094,0.407-0.146,0.607
		L241.62,310.759z"/>
	<path fill="#D7B900" d="M242.526,315.132c0.013,0.205,0.027,0.409,0.028,0.621c0.437-0.033,0.842-0.101,1.219-0.191
		c0.8-0.192,1.453-0.503,1.883-0.913c-0.292-0.039-0.57-0.09-0.833-0.152C244.268,314.828,243.465,315.058,242.526,315.132z"/>
	<path fill="#D7B900" d="M211.796,305.188c-0.04,0.481-0.081,0.963-0.112,1.438l4.34,1.418l1.083-1.703l0.819,4.519l0.119,0.657
		l0.097,0.536l0.189,1.042l0.411,2.269l1.232-2.02l0.53-0.868c0.319-2.154,1.137-4.158,2.384-4.158c0.155,0,0.308,0.032,0.454,0.096
		c1.341,0.578,1.761,3.569,1.483,6.224c-0.08,0.764-0.229,1.521-0.433,2.207l0.104,0.574l1.954-3.203l0.575-0.94l0.044-0.072
		l0.348-0.57l1.227-2.011l0.42,2.318l0.119,0.657l0.173,0.954l1.259,6.941l2.604-6.567l0.212-0.535l0.222-0.559
		c0.004-0.011,0.007-0.021,0.012-0.032c0.527-1.333,0.978-2.772,1.362-4.272c0.051-0.2,0.097-0.405,0.146-0.607
		c0.174-0.726,0.331-1.464,0.47-2.215c0.084-0.457,0.167-0.913,0.239-1.377c0.188-1.225,0.33-2.469,0.423-3.724
		c-0.37,1.399-0.802,2.739-1.298,3.989l-3.039,7.662l-1.97-10.872l-4.148,6.797l-1.604-8.853l-4.147,6.797l-1.636-9.022
		l-1.084,1.704l-4.34-1.418c0.092-1.41,0.225-2.845,0.391-4.278c-0.713,3.305-1.263,6.916-1.582,10.453
		C211.826,304.773,211.813,304.979,211.796,305.188z"/>
	<path fill="#D7B900" d="M217.376,299.807l1.084-1.704l1.636,9.022l4.147-6.797l1.604,8.853l4.148-6.797l1.97,10.872l3.039-7.662
		c0.496-1.25,0.928-2.59,1.298-3.989c0.685-2.592,1.142-5.393,1.353-8.234c-0.37,1.397-0.802,2.735-1.297,3.984l-3.038,7.665
		l-1.972-10.874l-4.147,6.797l-1.605-8.854l-4.147,6.798l-1.636-9.021l-1.083,1.703l-4.34-1.418c0.092-1.41,0.224-2.846,0.391-4.28
		c-0.565,2.617-1.027,5.426-1.354,8.24c-0.166,1.434-0.299,2.868-0.391,4.278L217.376,299.807z"/>
	<path fill="#D7B900" d="M218.73,291.568l1.083-1.703l1.636,9.021l4.147-6.798l1.605,8.854l4.147-6.797l1.972,10.874l3.038-7.665
		c0.495-1.249,0.927-2.587,1.297-3.984c0.742-2.806,1.217-5.854,1.4-8.935c-0.285,0.949-0.59,1.877-0.936,2.749l-3.038,7.667
		l-1.972-10.876l-4.147,6.798l-1.605-8.854l-4.147,6.799l-1.636-9.024l-1.084,1.704l-4.34-1.418
		c0.086-1.317,0.208-2.657,0.359-3.997c-0.109,0.453-0.213,0.918-0.316,1.385c-0.592,2.693-1.076,5.594-1.413,8.503
		c-0.167,1.435-0.299,2.87-0.391,4.28L218.73,291.568z"/>
	<path fill="#D7B900" d="M239.472,278.949l-3.038,7.665l-1.972-10.875l-4.147,6.797l-1.605-8.854l-4.147,6.798l-1.636-9.022
		l-1.084,1.704l-4.34-1.418c0.092-1.411,0.225-2.846,0.391-4.281c-0.584,2.705-1.057,5.613-1.384,8.52
		c-0.151,1.34-0.273,2.68-0.359,3.997l4.34,1.418l1.084-1.704l1.636,9.024l4.147-6.799l1.605,8.854l4.147-6.798l1.972,10.876
		l3.038-7.667c0.346-0.872,0.65-1.8,0.936-2.749c0.88-2.929,1.468-6.167,1.713-9.47
		C240.399,276.363,239.967,277.701,239.472,278.949z"/>
	<path fill="#D7B900" d="M221.842,273.162l1.084-1.704l1.636,9.022l4.147-6.798l1.605,8.854l4.147-6.797l1.972,10.875l3.038-7.665
		c0.495-1.248,0.927-2.586,1.296-3.983c0.581-2.196,0.993-4.545,1.236-6.939c-0.072-0.052-0.145-0.104-0.216-0.155
		c-0.292,0.981-0.606,1.939-0.963,2.84l-3.039,7.661l-1.971-10.871l-4.148,6.798l-1.604-8.854l-4.148,6.798l-1.635-9.021
		l-1.083,1.703l-4.34-1.418c0.092-1.412,0.225-2.849,0.392-4.284c-0.565,2.618-1.027,5.427-1.354,8.241
		c-0.167,1.436-0.299,2.87-0.391,4.281L221.842,273.162z"/>
	<path fill="#FFFFFF" d="M228.545,258.884c-0.103-0.079-0.205-0.159-0.306-0.239l0.104,0.571L228.545,258.884z"/>
	<path fill="#D7B900" d="M223.196,264.924l1.083-1.703l1.635,9.021l4.148-6.798l1.604,8.854l4.148-6.798l1.971,10.871l3.039-7.661
		c0.357-0.9,0.671-1.858,0.963-2.84c-2.418-1.733-4.667-3.188-6.713-4.509c-2.396-1.548-4.574-2.959-6.53-4.479l-0.203,0.332
		l-0.104-0.571c-3.002-2.379-5.46-5.064-7.338-8.977c-0.702,2.979-1.271,6.262-1.653,9.554c-0.167,1.436-0.299,2.872-0.392,4.284
		L223.196,264.924z"/>
	<path fill="#FFFFFF" d="M240.747,312.875c-0.002,0-0.004,0-0.006,0c-0.453,0-1.314,1.172-1.656,3.497
		c-0.37,2.511,0.158,4.396,0.684,4.591l0.062,0.012c0.39,0,1.258-1.172,1.602-3.508C241.801,314.956,241.273,313.07,240.747,312.875
		z"/>
	<path fill="#D7B900" d="M242.526,315.132c-0.1-1.553-0.542-2.864-1.431-3.194c-0.132-0.049-0.27-0.074-0.409-0.074
		c-1.023,0-1.801,1.267-2.257,2.827c-0.058,0.197-0.108,0.4-0.156,0.605c0,0.001,0,0.003-0.001,0.004
		c-0.07,0.306-0.131,0.615-0.177,0.927c-0.36,2.442-0.02,5.175,1.325,5.674c0.133,0.049,0.271,0.074,0.41,0.074
		c1.347,0,2.272-2.191,2.591-4.363c0.09-0.614,0.136-1.247,0.133-1.858C242.553,315.541,242.539,315.337,242.526,315.132z
		 M241.432,317.467c-0.343,2.336-1.212,3.508-1.602,3.508l-0.062-0.012c-0.526-0.195-1.054-2.08-0.684-4.591
		c0.342-2.325,1.203-3.497,1.656-3.497c0.002,0,0.004,0,0.006,0C241.273,313.07,241.801,314.956,241.432,317.467z"/>
	<path fill="#FFFFFF" d="M222.946,309.332c-0.002,0-0.004,0-0.006,0c-0.433,0-1.259,1.322-1.522,3.837
		c-0.293,2.815,0.328,4.962,0.885,5.202l0.058,0.014c0.373,0,1.206-1.322,1.47-3.851
		C224.125,311.719,223.503,309.572,222.946,309.332z"/>
	<path fill="#D7B900" d="M220.423,313.065c-0.012,0.113-0.015,0.229-0.024,0.344c-0.208,2.563,0.225,5.325,1.507,5.88
		c0.147,0.063,0.299,0.096,0.454,0.096c0.92,0,1.604-1.101,2.031-2.54c0.204-0.687,0.354-1.443,0.433-2.207
		c0.278-2.654-0.142-5.646-1.483-6.224c-0.146-0.063-0.299-0.096-0.454-0.096c-1.247,0-2.065,2.004-2.384,4.158
		C220.475,312.673,220.444,312.868,220.423,313.065z M223.83,314.534c-0.264,2.528-1.098,3.851-1.47,3.851l-0.058-0.014
		c-0.557-0.24-1.178-2.387-0.885-5.202c0.263-2.515,1.089-3.837,1.522-3.837c0.002,0,0.004,0,0.006,0
		C223.503,309.572,224.125,311.719,223.83,314.534z"/>
	<path fill="#FFFFFF" d="M204.204,310.054c-0.396,2.723,0.189,4.773,0.766,4.988l0.079,0.016c0.489,0,1.394-1.356,1.75-3.81
		c0.396-2.723-0.189-4.774-0.766-4.989c-0.003,0-0.006-0.001-0.009-0.001C205.456,306.258,204.559,307.613,204.204,310.054z"/>
	<path fill="#D7B900" d="M203.215,309.909c-0.02,0.135-0.029,0.271-0.044,0.407c-0.287,2.503,0.098,5.157,1.449,5.663
		c0.139,0.052,0.283,0.078,0.429,0.078c0,0,0,0,0,0c1.425,0,2.403-2.344,2.74-4.665c0.007-0.049,0.009-0.099,0.016-0.147
		c0.044-0.332,0.077-0.666,0.097-1.001c0.012-0.207,0.019-0.412,0.021-0.617c0.002-0.216-0.004-0.426-0.012-0.637
		c-0.071-1.771-0.538-3.299-1.526-3.669c-0.139-0.052-0.283-0.078-0.429-0.078c-1.033,0-1.828,1.239-2.317,2.803
		c-0.062,0.197-0.116,0.399-0.167,0.604c-0.056,0.223-0.106,0.446-0.15,0.675C203.282,309.52,203.243,309.714,203.215,309.909z
		 M206.033,306.259c0.577,0.215,1.162,2.267,0.766,4.989c-0.356,2.453-1.261,3.81-1.75,3.81l-0.079-0.016
		c-0.577-0.215-1.162-2.266-0.766-4.988c0.355-2.44,1.252-3.796,1.82-3.796C206.027,306.258,206.03,306.259,206.033,306.259z"/>
	<path fill="#FFFFFF" d="M240.003,210.107c-0.109-0.594-0.18-1.189-0.222-1.776c-1.999,2.276-4.202,4.416-6.769,6.118
		C235.373,213.324,237.808,211.859,240.003,210.107z"/>
	<path fill="#FFFFFF" d="M257.05,212.796c-1.725-1.418-3.282-3.021-4.733-4.689c-0.059,0.624-0.149,1.256-0.282,1.888
		C253.605,211.084,255.313,212.018,257.05,212.796z"/>
	<path fill="#D7B900" d="M250.519,214.799c4.369,1.233,8.745,1.736,13.2,1.938c-2.505-0.956-4.7-2.323-6.669-3.941
		c-1.737-0.778-3.445-1.711-5.015-2.802c-0.329,1.569-0.924,3.129-1.947,4.532c0,0,0,0,0.001,0
		C250.232,214.619,250.376,214.708,250.519,214.799z"/>
	<path fill="#D7B900" d="M241.879,214.645c-1.021-1.401-1.586-2.966-1.876-4.538c-2.195,1.752-4.63,3.216-6.991,4.342
		c-1.349,0.894-2.804,1.659-4.378,2.266C233.101,216.488,237.492,215.946,241.879,214.645z"/>
	<path fill="#FFFFFF" d="M248.97,180.38c-0.685,1.504-2.335,2.476-4.204,2.476c-0.564,0-1.124-0.088-1.664-0.259
		c-0.131,0.156-0.273,0.307-0.422,0.454l-0.256,0.561l-0.279-0.089c-0.962,0.76-2.233,1.303-3.962,1.303
		c-0.194,0-0.395-0.014-0.595-0.028v9.024c0,6.436-4.7,13.001-8.935,17.61c4.654-2.409,8.05-6.778,11.575-11.315l4.674-6.009v7.029
		c0,0.767-0.077,1.624-0.159,2.531c-0.312,3.469-0.407,6.369,1.189,8.334c1.775-2.098,1.764-5.235,1.548-8.767
		c-0.047-0.78-0.089-1.491-0.089-2.099v-7.029l4.673,6.007c3.526,4.538,6.922,8.907,11.577,11.317
		c-4.235-4.609-8.936-11.174-8.936-17.61v-14.628c0-0.078-0.011-0.108-0.011-0.108c-0.236-0.425-1.442-0.917-5.482-1.081
		C249.393,178.803,249.314,179.624,248.97,180.38z"/>
	<path fill="#D7B900" d="M219.528,213.489c-0.165,0.136-0.325,0.265-0.473,0.382l-1.762,1.39l-3.696,2.917h2.883v-1.299h2.412
		c3.305,0,6.543-0.001,9.742-0.164c1.574-0.606,3.029-1.372,4.378-2.266c2.567-1.702,4.77-3.842,6.769-6.118
		c0.042,0.587,0.112,1.182,0.222,1.776c0.29,1.572,0.855,3.136,1.876,4.538c1.059-0.314,2.117-0.671,3.177-1.08l0.868-0.335
		l0.868,0.335c1.069,0.412,2.137,0.773,3.206,1.089c0.032-0.042,0.061-0.085,0.091-0.128c0,0,0,0,0,0
		c1.022-1.403,1.618-2.963,1.947-4.532c0.132-0.631,0.223-1.264,0.282-1.888c1.451,1.669,3.008,3.271,4.733,4.689
		c1.969,1.618,4.164,2.986,6.669,3.941c3.034,0.138,6.104,0.141,9.235,0.141h2.412v1.299l3.329,0l-2.349-1.854l-2.821-2.226
		l-0.286-0.226c-1.134-0.895-2.807-2.364-4.597-4.181c-4.228-4.294-9.112-10.547-9.112-15.867v-14.628
		c0-6.069-8.054-6.069-13.383-6.069c-1.196,0-3.041,0.001-4.98,0.213c0.752,0.381,1.366,0.821,1.852,1.322
		c0.424-0.112,0.872-0.172,1.333-0.172c0.57,0,1.136,0.088,1.681,0.263c1.351,0.432,2.422,1.35,2.94,2.519
		c0.107,0.241,0.184,0.487,0.24,0.736c4.041,0.163,5.246,0.656,5.482,1.081c0,0,0.011,0.03,0.011,0.108v14.628
		c0,6.436,4.7,13,8.936,17.61c-4.655-2.41-8.051-6.779-11.577-11.317l-4.673-6.007v7.029c0,0.608,0.042,1.319,0.089,2.099
		c0.216,3.532,0.227,6.669-1.548,8.767c-1.596-1.965-1.501-4.865-1.189-8.334c0.082-0.907,0.159-1.765,0.159-2.531v-7.029
		l-4.674,6.009c-3.525,4.537-6.921,8.906-11.575,11.315c4.235-4.609,8.935-11.174,8.935-17.61v-9.024
		c-0.859-0.06-1.776-0.242-2.789-0.566c-0.703-0.225-1.378-0.507-2.036-0.813v10.403c0,5.215-4.694,11.33-8.863,15.614
		C222.252,211.131,220.688,212.537,219.528,213.489z"/>
	<path fill="#D7B900" d="M243.102,182.597c-0.005-0.001-0.011-0.002-0.017-0.004c-0.058-0.019-0.107-0.05-0.164-0.071l-0.241,0.529
		C242.829,182.904,242.971,182.753,243.102,182.597z"/>
	<path fill="#D7B900" d="M237.588,184.798c0.201,0.014,0.401,0.028,0.595,0.028c1.729,0,3-0.543,3.962-1.303l-1.761-0.563
		c-2.458-0.786-4.445-1.729-6.366-2.642c-2.534-1.204-4.81-2.273-7.718-2.703c1.068,2.283,3.488,4.419,6.464,5.805
		c0.658,0.306,1.333,0.588,2.036,0.813C235.812,184.556,236.729,184.738,237.588,184.798z"/>
	<path fill="#D7B900" d="M234.018,180.318c1.921,0.913,3.908,1.856,6.366,2.642l1.761,0.563l0.279,0.089l0.256-0.561l0.241-0.529
		c-1.269-0.453-2.28-1.329-2.776-2.448c-0.449-1.014-0.448-2.119,0.003-3.11c0.517-1.133,1.58-1.962,2.87-2.303
		c-0.486-0.501-1.1-0.941-1.852-1.322c-0.526-0.267-1.111-0.508-1.772-0.719l-6.646-2.125c-2.162-0.691-3.909-1.027-5.342-1.027
		c-4.142,0-5.383,2.725-6.205,4.528l-1.564,3.432l3.884-0.02c1.001,0,1.915,0.078,2.778,0.206
		C229.209,178.045,231.484,179.114,234.018,180.318z"/>
	<path fill="#FFFFFF" d="M244.538,178.965c0.106-0.233,0.114-0.469,0.078-0.657c-0.013,0.022-0.025,0.046-0.037,0.072
		c-0.106,0.232-0.113,0.467-0.077,0.655C244.515,179.014,244.527,178.99,244.538,178.965z"/>
	<path fill="#D7B900" d="M240.149,176.964c-0.452,0.991-0.453,2.096-0.003,3.11c0.496,1.119,1.507,1.996,2.776,2.448
		c0.057,0.021,0.106,0.052,0.164,0.071c0.006,0.002,0.012,0.002,0.017,0.004c0.541,0.171,1.1,0.259,1.664,0.259
		c1.869,0,3.519-0.972,4.204-2.476c0.344-0.756,0.423-1.577,0.243-2.374c-0.056-0.249-0.133-0.495-0.24-0.736
		c-0.518-1.169-1.589-2.087-2.94-2.519c-0.545-0.174-1.111-0.263-1.681-0.263c-0.462,0-0.91,0.06-1.333,0.172
		C241.728,175.002,240.665,175.832,240.149,176.964z M244.579,178.381c0.012-0.026,0.024-0.05,0.037-0.072
		c0.037,0.188,0.029,0.423-0.078,0.657c-0.011,0.025-0.023,0.048-0.036,0.071C244.466,178.848,244.473,178.613,244.579,178.381z"/>
	<path fill="#D7B900" d="M241.927,304.429l3.937,4.933l4.056-4.936l-1.748-35.164c-0.258,0.194-0.514,0.386-0.775,0.587
		l-1.473,1.136l-1.473-1.136c-0.292-0.226-0.58-0.44-0.869-0.657L241.927,304.429z"/>
	<path fill="#FFFFFF" d="M241.83,305.911l0.632,0.792l2.404,3.012c0.685-0.266,1.472-0.474,2.323-0.604l0.199-0.03l2.411-2.935
		l0.642-0.781l0.495-0.603l-1.363-27.417c-0.156-1.124-0.273-2.261-0.342-3.406c-0.406-1.527-0.719-3.127-0.95-4.761
		c-0.037,0.027-0.074,0.056-0.111,0.084l1.748,35.164l-4.056,4.936l-3.937-4.933l1.655-35.237c-0.325-0.245-0.647-0.484-0.967-0.719
		l-1.704,36.286L241.83,305.911z"/>
	<path fill="#FFFFFF" d="M286.073,304.89c0.136-0.044,0.277-0.066,0.419-0.066c0.996,0,1.915,1.115,2.469,2.861
		c1.267-0.403,2.237-0.994,2.625-1.649c0.171-0.29,0.209-0.57,0.112-0.836c-0.327-0.897-2.078-1.523-4.258-1.523
		c-0.605,0-1.225,0.048-1.838,0.142l-5.715,0.881c0.031,0.47,0.065,0.941,0.089,1.406l0.152,3.077l4.207-0.648
		C284.457,306.769,285.006,305.232,286.073,304.89z"/>
	<polygon fill="#FFFFFF" points="274.344,305.554 274.073,305.596 273.038,310.274 277.08,309.651 	"/>
	<path fill="#FFFFFF" d="M267.924,307.62l-0.162-0.253l-0.06,0.27c0.054-0.007,0.105-0.029,0.159-0.029
		C267.883,307.607,267.903,307.619,267.924,307.62z"/>
	<polygon fill="#FFFFFF" points="261.41,309.325 260.783,312.164 263.008,311.821 	"/>
	<path fill="#FFFFFF" d="M247.284,309.726c-2.067,0.319-3.755,1.122-4.301,2.044c-0.171,0.289-0.208,0.57-0.112,0.835
		c0.282,0.773,1.626,1.344,3.387,1.486c0.145-1.549,0.652-2.871,1.611-3.179c0.13-0.042,0.265-0.063,0.399-0.063
		c0.977,0,1.872,1.133,2.387,2.876l5.499-0.848c-0.545-1.347-1.006-2.795-1.392-4.305L247.284,309.726z"/>
	<path fill="#D7B900" d="M284.336,308.533l-4.207,0.648l0.031,0.625l4.152-0.641C284.316,308.953,284.323,308.741,284.336,308.533z"
		/>
	<path fill="#D7B900" d="M270.297,311.327l-0.018-0.028c0.001,0.011,0.004,0.02,0.006,0.03L270.297,311.327z"/>
	<polygon fill="#D7B900" points="263.008,311.821 260.783,312.164 260.639,312.816 263.374,312.395 	"/>
	<polygon fill="#D7B900" points="277.08,309.651 273.038,310.274 272.895,310.927 277.462,310.223 	"/>
	<path fill="#D7B900" d="M251.849,308.392l-4.46,0.688l-0.199,0.03c-0.851,0.131-1.638,0.339-2.323,0.604
		c-0.622,0.24-1.151,0.531-1.578,0.854c-0.203,0.153-0.389,0.311-0.538,0.478c-0.119,0.132-0.221,0.268-0.304,0.407
		c-0.267,0.45-0.322,0.923-0.161,1.364c0.283,0.776,1.217,1.364,2.538,1.679c0.263,0.062,0.541,0.113,0.833,0.152
		c0.184,0.025,0.364,0.053,0.558,0.067c0.006-0.212,0.026-0.419,0.045-0.625c-1.761-0.143-3.105-0.713-3.387-1.486
		c-0.097-0.265-0.059-0.546,0.112-0.835c0.545-0.922,2.233-1.725,4.301-2.044l7.48-1.153c-0.051-0.2-0.097-0.404-0.146-0.607
		l-1.582,0.244L251.849,308.392z"/>
	<path fill="#D7B900" d="M279.888,304.698l5.715-0.881c0.613-0.094,1.232-0.142,1.838-0.142c2.18,0,3.931,0.626,4.258,1.523
		c0.097,0.266,0.059,0.546-0.112,0.836c-0.388,0.655-1.358,1.246-2.625,1.649c0.061,0.191,0.112,0.397,0.164,0.604
		c1.435-0.453,2.527-1.141,2.998-1.936c0.267-0.451,0.322-0.924,0.161-1.366c-0.429-1.175-2.33-1.935-4.844-1.935
		c-0.638,0-1.288,0.051-1.934,0.15l-5.659,0.872C279.864,304.284,279.873,304.49,279.888,304.698z"/>
	<polygon fill="#D7B900" points="274.147,305.258 274.073,305.596 274.344,305.554 	"/>
	<path fill="#D7B900" d="M250.822,314.329l5.572-0.858l-0.192-0.469c-0.017-0.04-0.03-0.084-0.046-0.125l-5.499,0.848
		C250.715,313.922,250.774,314.117,250.822,314.329z"/>
	<path fill="#D7B900" d="M279.094,306.35l-6.252-9.36l-1.984,8.983l-4.399-6.875l-1.952,8.835l-4.4-6.876l-2.353,10.646l-2.856-6.97
		c-0.521-1.27-0.969-2.629-1.346-4.048c0.149,2.494,0.514,4.953,1.067,7.279c0.048,0.203,0.095,0.407,0.146,0.607
		c0.385,1.51,0.847,2.958,1.392,4.305c0.017,0.041,0.03,0.085,0.046,0.125l0.192,0.469l0.455,1.11l0.405,0.988l1.804,4.401l1-4.525
		l0.224-1.013l0.357-1.616l0.145-0.652l0.627-2.839l1.598,2.496l0.366,0.573l1.13,1.765l0.612,0.956l0.694,1.086l0.135-0.611
		c-0.128-0.542-0.222-1.115-0.274-1.688c-0.241-2.605,0.288-5.668,1.745-6.212c0.093-0.034,0.19-0.04,0.286-0.053l0.06-0.27
		l0.162,0.253c1.207,0.06,2.003,1.743,2.355,3.679l0.018,0.028l1.35,2.109l0.516,0.805l0.198-0.898l0.534-2.416l0.144-0.652
		l1.034-4.679l0.074-0.338l0.197,0.296l2.736,4.098l0.382,0.571l1.435,2.148l0.609,0.912l0.893,1.337l-0.073-1.474l-0.05-1.008
		l-0.115-2.332l-0.031-0.625l-0.152-3.077c-0.023-0.465-0.058-0.937-0.089-1.406c-0.015-0.208-0.024-0.414-0.04-0.624
		c-0.272-3.564-0.798-7.212-1.514-10.555c0.152,1.447,0.268,2.895,0.338,4.315L279.094,306.35z"/>
	<path fill="#D7B900" d="M277.791,298.081l-6.253-9.362l-1.985,8.986l-4.399-6.876l-1.952,8.835l-4.4-6.876l-2.353,10.645
		l-2.856-6.969c-0.521-1.271-0.969-2.631-1.347-4.05c0.17,2.85,0.611,5.663,1.305,8.271c0.377,1.419,0.826,2.778,1.346,4.048
		l2.856,6.97l2.353-10.646l4.4,6.876l1.952-8.835l4.399,6.875l1.984-8.983l6.252,9.36l-0.422-8.515
		c-0.07-1.421-0.186-2.868-0.338-4.315c-0.297-2.818-0.741-5.636-1.303-8.265c0.151,1.445,0.267,2.891,0.337,4.31L277.791,298.081z"
		/>
	<path fill="#D7B900" d="M275.658,279.355l0.424,8.519l-6.254-9.364l-1.984,8.983l-4.4-6.875l-1.952,8.834l-4.4-6.874l-2.351,10.646
		l-2.856-6.971c-0.365-0.892-0.684-1.838-0.979-2.806c0.135,3.086,0.591,6.146,1.341,8.966c0.377,1.419,0.826,2.779,1.347,4.05
		l2.856,6.969l2.353-10.645l4.4,6.876l1.952-8.835l4.399,6.876l1.985-8.986l6.253,9.362l-0.423-8.517
		c-0.07-1.419-0.186-2.864-0.337-4.31c-0.341-3.229-0.878-6.449-1.561-9.393c-0.041-0.178-0.079-0.36-0.121-0.535
		C275.488,276.678,275.592,278.028,275.658,279.355z"/>
	<path fill="#D7B900" d="M274.776,279.605l-6.252-9.361l-1.984,8.985l-4.4-6.876l-1.951,8.834l-4.401-6.876l-2.352,10.645
		l-2.856-6.969c-0.521-1.271-0.969-2.63-1.347-4.049c0.069,1.146,0.186,2.282,0.342,3.406c0.294,2.121,0.742,4.176,1.331,6.104
		c0.295,0.968,0.614,1.914,0.979,2.806l2.856,6.971l2.351-10.646l4.4,6.874l1.952-8.834l4.4,6.875l1.984-8.983l6.254,9.364
		l-0.424-8.519c-0.066-1.327-0.171-2.678-0.309-4.028c-0.297-2.915-0.752-5.834-1.334-8.552c0.152,1.447,0.268,2.894,0.338,4.314
		L274.776,279.605z"/>
	<path fill="#D7B900" d="M273.473,271.338l-6.253-9.363l-1.985,8.984l-4.399-6.875l-1.952,8.833l-4.401-6.875l-2.352,10.645
		l-2.856-6.969c-0.133-0.324-0.249-0.669-0.373-1.004c-0.205,0.152-0.412,0.308-0.619,0.464c0.23,1.634,0.543,3.233,0.95,4.761
		c0.378,1.419,0.826,2.778,1.347,4.049l2.856,6.969l2.352-10.645l4.401,6.876l1.951-8.834l4.4,6.876l1.984-8.985l6.252,9.361
		l-0.422-8.516c-0.07-1.421-0.186-2.867-0.338-4.314c-0.296-2.82-0.741-5.638-1.304-8.267c0.152,1.445,0.268,2.892,0.338,4.312
		L273.473,271.338z"/>
	<path fill="#D7B900" d="M256.773,263.36c-2.37,1.53-5.01,3.239-7.871,5.354c0.124,0.335,0.24,0.68,0.373,1.004l2.856,6.969
		l2.352-10.645l4.401,6.875l1.952-8.833l4.399,6.875l1.985-8.984l6.253,9.363l-0.423-8.518c-0.07-1.42-0.186-2.866-0.338-4.312
		c-0.337-3.199-0.867-6.39-1.541-9.31C268.026,256.089,263.165,259.231,256.773,263.36z"/>
	<path fill="#FFFFFF" d="M247.304,316.439c0.317,2.281,1.225,3.543,1.731,3.543c0.031,0,0.062-0.005,0.094-0.015
		c0.602-0.193,1.225-2.027,0.871-4.575c-0.317-2.282-1.224-3.544-1.73-3.544C247.573,312.058,246.95,313.892,247.304,316.439z"/>
	<path fill="#D7B900" d="M246.225,315.643c0.017,0.314,0.046,0.628,0.089,0.935c0.361,2.594,1.479,4.405,2.721,4.405
		c0.135,0,0.269-0.021,0.399-0.062c1.371-0.44,1.825-2.942,1.597-5.233c-0.014-0.144-0.022-0.289-0.042-0.431
		c-0.027-0.197-0.067-0.38-0.103-0.567c-0.022-0.119-0.039-0.244-0.065-0.359c-0.048-0.212-0.107-0.407-0.165-0.604
		c-0.515-1.743-1.41-2.876-2.387-2.876c-0.135,0-0.27,0.021-0.399,0.063c-0.959,0.308-1.466,1.63-1.611,3.179
		c-0.019,0.206-0.039,0.413-0.045,0.625C246.204,315.022,246.208,315.332,246.225,315.643z M248.269,311.849
		c0.506,0,1.413,1.262,1.73,3.544c0.354,2.548-0.269,4.382-0.871,4.575c-0.032,0.01-0.062,0.015-0.094,0.015
		c-0.506,0-1.414-1.262-1.731-3.543C246.95,313.892,247.573,312.058,248.269,311.849z"/>
	<path fill="#FFFFFF" d="M266.667,313.81c0.23,2.5,1.079,3.882,1.577,3.882c0.031,0,0.062-0.006,0.095-0.018
		c0.639-0.239,1.365-2.326,1.1-5.184c-0.231-2.5-1.079-3.883-1.577-3.883C267.128,308.864,266.402,310.951,266.667,313.81z"/>
	<path fill="#D7B900" d="M268.244,318.691c0.15,0,0.301-0.027,0.445-0.081c1.057-0.396,1.623-2.117,1.764-4.026
		c0.025-0.334,0.036-0.672,0.035-1.011c-0.002-0.396-0.018-0.79-0.054-1.175c-0.033-0.359-0.087-0.717-0.149-1.069
		c-0.002-0.011-0.005-0.02-0.006-0.03c-0.353-1.936-1.148-3.619-2.355-3.679c-0.021-0.001-0.041-0.013-0.062-0.013
		c-0.054,0-0.105,0.022-0.159,0.029c-0.096,0.013-0.193,0.019-0.286,0.053c-1.457,0.544-1.986,3.606-1.745,6.212
		c0.053,0.573,0.146,1.146,0.274,1.688C266.352,317.302,267.126,318.691,268.244,318.691z M267.862,308.607
		c0.498,0,1.346,1.383,1.577,3.883c0.266,2.857-0.461,4.944-1.1,5.184c-0.033,0.012-0.063,0.018-0.095,0.018
		c-0.498,0-1.347-1.382-1.577-3.882C266.402,310.951,267.128,308.864,267.862,308.607z"/>
	<path fill="#FFFFFF" d="M286.492,305.823c-0.037,0-0.074,0.006-0.111,0.018c-0.661,0.213-1.349,2.206-0.969,4.972
		c0.34,2.479,1.332,3.849,1.889,3.849c0.037,0,0.073-0.006,0.111-0.018c0.659-0.214,1.348-2.209,0.969-4.974
		C288.04,307.193,287.048,305.823,286.492,305.823z"/>
	<path fill="#D7B900" d="M288.961,307.685c-0.554-1.746-1.473-2.861-2.469-2.861c-0.142,0-0.283,0.022-0.419,0.066
		c-1.067,0.343-1.616,1.879-1.737,3.644c-0.014,0.208-0.021,0.42-0.023,0.633c-0.007,0.594,0.029,1.199,0.109,1.783
		c0.019,0.137,0.048,0.262,0.07,0.395c0.059,0.343,0.129,0.668,0.21,0.979c0.529,2.014,1.516,3.339,2.599,3.339
		c0.141,0,0.282-0.022,0.418-0.066c1.19-0.385,1.734-2.253,1.761-4.264c0.005-0.338-0.006-0.679-0.03-1.018
		c-0.019-0.263-0.043-0.523-0.078-0.779c-0.061-0.441-0.147-0.852-0.246-1.246C289.073,308.082,289.022,307.876,288.961,307.685z
		 M288.381,309.67c0.379,2.765-0.31,4.76-0.969,4.974c-0.038,0.012-0.074,0.018-0.111,0.018c-0.557,0-1.549-1.37-1.889-3.849
		c-0.38-2.766,0.308-4.759,0.969-4.972c0.037-0.012,0.074-0.018,0.111-0.018C287.048,305.823,288.04,307.193,288.381,309.67z"/>
	<path fill="#D7B900" d="M218.73,243.599c0.604,2.327,1.331,4.319,2.17,6.069c1.878,3.912,4.336,6.597,7.338,8.977
		c0.101,0.08,0.204,0.16,0.306,0.239c1.957,1.52,4.134,2.931,6.53,4.479c2.046,1.321,4.295,2.775,6.713,4.509
		c0.072,0.052,0.144,0.104,0.216,0.155c0.201,0.146,0.406,0.297,0.61,0.446c0.32,0.234,0.642,0.474,0.967,0.719
		c0.289,0.217,0.576,0.432,0.869,0.657l1.473,1.136l1.473-1.136c0.261-0.201,0.517-0.393,0.775-0.587
		c0.037-0.028,0.074-0.057,0.111-0.084c0.207-0.156,0.414-0.312,0.619-0.464c2.861-2.114,5.501-3.823,7.871-5.354
		c6.393-4.129,11.253-7.271,14.398-14.162c0.75-1.642,1.401-3.5,1.953-5.631c1.373-5.301,2.128-12.324,2.228-22.037
		c0.008-0.736,0.015-1.473,0.015-2.24v-1.113v-1.299h-2.412c-3.132,0-6.201-0.003-9.235-0.141c-4.455-0.202-8.831-0.706-13.2-1.938
		c-0.174-0.049-0.348-0.093-0.522-0.145c-1.068-0.316-2.137-0.677-3.206-1.089l-0.868-0.335l-0.868,0.335
		c-1.06,0.409-2.118,0.766-3.177,1.08c-4.387,1.301-8.777,1.843-13.245,2.07c-3.199,0.162-6.437,0.164-9.742,0.164h-2.412v1.299
		v1.113c0,0.311,0.005,0.601,0.006,0.906c0.003,0.809,0.009,1.608,0.021,2.381C216.649,231.772,217.401,238.485,218.73,243.599z
		 M245.923,265.277c-16.763-12.746-25.144-9.561-25.144-44.612c8.381,0,16.763,0,25.144-3.187
		c8.381,3.187,16.763,3.187,25.144,3.187C271.067,255.717,262.686,252.53,245.923,265.277z"/>
	<path fill="#D7B900" d="M271.067,220.665c-8.381,0-16.763,0-25.144-3.187c-8.381,3.187-16.763,3.187-25.144,3.187
		c0,35.052,8.381,31.867,25.144,44.612C262.686,252.53,271.067,255.717,271.067,220.665z M246.057,262.951l-9.011-5.307v-36.523
		c3.008-0.375,6.044-1.079,9.024-1.973c2.681,0.84,5.782,1.57,8.996,1.973v36.523L246.057,262.951z"/>
	<path fill="#FFFFFF" d="M255.067,257.645v-36.523c-3.214-0.403-6.315-1.133-8.996-1.973c-2.98,0.895-6.017,1.598-9.024,1.973
		v36.523l9.011,5.307L255.067,257.645z"/>
</g>
</svg>
