<?xml version="1.0" encoding="utf-8"?>
<!-- Generator: Adobe Illustrator 16.0.0, SVG Export Plug-In . SVG Version: 6.00 Build 0)  -->
<svg version="1.2" baseProfile="tiny"
	 id="svg678" xmlns:cc="http://creativecommons.org/ns#" xmlns:dc="http://purl.org/dc/elements/1.1/" xmlns:rdf="http://www.w3.org/1999/02/22-rdf-syntax-ns#"
	 xmlns="http://www.w3.org/2000/svg" xmlns:xlink="http://www.w3.org/1999/xlink" x="0px" y="0px" width="512px" height="512px"
	 viewBox="0 0 512 512" xml:space="preserve">
<g>
	<polygon fill="#BE0027" points="512,0 0,0 0,0.026 512,0.304 	"/>
	<polygon fill="#BE0027" points="0,511.974 0,512 512,512 512,511.696 	"/>
	<path fill="#BE0027" d="M512,242.4L0,20.778v470.444l512-221.622V242.4z M249.234,324.461
		c-6.622,10.082-43.066,25.797-85.018,26.663c8.575,2.494,14.208,8.826,13.823,15.673l-42.848,0.172
		c-0.127-6.37,4.862-13.123,13.565-15.528c-33.067-1.382-52.055-6.858-62.081-19.377c-6.91-4.53-15.486-7.399-26.238-9.882
		c6.605-7.857,22.169-0.358,30.311,3.432c-5.999-9.094-44.636-16.781-46.664-53.779c7.351,10.629,18.541,23.309,29.858,29.204
		c-15.033-19.265-33.012-43.652-21.678-64.324c1.572,9.324,6.473,16.476,9.069,24.137c-7.19-28.628-6.572-63.014,1.086-68.857
		c4.996,8.038,5.511,23.626,4.875,35.76c5.407-10.99-4.927-56.929,19.937-65.488c-3.225,10.755-3.634,20.231-7.499,33.291
		c2.816-4.481,5.718-10.902,12.971-14.998c7.638-14.592,29.805-39.149,38.57-34.947c-3.906,5.866-10.985,13.132-15.465,17.228
		c16.027-10.992,41.401-20.323,51.541-12.755c-8.896,7.529-26.242,8.147-37.316,13.885c6.963,2.176,18.022,1.537,25.113-1.535
		c-3.669,8.279-12.744,9.067-18.557,9.095c-7.411,0.033-15.364-0.688-19.141,4.856c5.188,1.039,11.02,0.796,15.951-1.108
		c-2.189,5.124-9.995,6.521-13.867,6.539c-17.497,0.075-32.111,5.828-37.735,27.815c7.885-9.255,10.392-14.672,15.974-18.681
		c4.874,7.667-2.608,18.854-8.544,21.982c-8.417,4.719-17.09,16.457-15.843,23.79c5.743-6.744,4.956-9.266,7.242-12.041
		c2.384,7.187-0.66,13.543-4.24,20.664c-3.099,6.764-2.512,13.699-4.344,23.749c3.687-5.827,5.197-15.747,7.604-25.158
		c0.731,9.143,5.702,20.955,5.907,26.404c0.276,7.464-4.723,11.38-4.844,16.687c0.128,6.912,1.895,8.719,3.793,14.606
		c0.49-9.088,0.341-14.029-1.068-18.892c5.533,5.013,9.659,15.785,12.889,24.127c1.371-3.436,0.182-6.362,1.681-9.159
		c5.225,16.994,21.003,40.095,40.894,40.87c7.166,0.664,6.507,3.182,14.883,4.643c-0.725-13.517-1.757-29.142-2.48-42.658
		c-5.553,4.224-35.178,8.992-35.3-18.463c6.275,6.034,10.562,9.714,20.275,10.137c-8.266-4.102-21.06-13.273-19.913-23.17
		c0,0,11.404,8.688,16.654,9.774c-3.439-4.345-9.595-12.128-7.966-18.101c5.251,1.99,14.662,9.957,22.086,20.636
		c-0.725-14.724-0.725-26.008-1.087-38.196c-12.731,4.95-22.204,0.665-23.894-21.54c4.465,6.938,7.482,10.076,10.137,7.24
		c-5.611-6.698-7.241-18.645-5.431-28.782c1.871,8.205,8.085,16.411,13.575,20.455c-9.05-12.611-4.343-18.525,1.449-12.853
		c6.758,6.878,7.362,13.215,6.881,21.722c10.419-13.689,10.262-20.83,6.696-30.23c-6.81,1.059-12.979-0.573-17.868-9.756
		c7.999,2.792,13.82,4.045,16.058-3.277c-9.475,4.674-15.622,0.901-19.594-3.385c5.862-5.248,14.667-3.2,20.914,0.511
		c-1.514-5.609-1.748-7.251-0.958-14.141c13.309,2.987,12.665,16.343,6.518,23.17c0.317,5.928,1.915,8.912,3.257,17.015
		c3.31-11.688,9.821-19.151,21.193-16.887c-6.375,2.772-6.732,9.768-8.884,14.716c8.213-1.36,9.132-5.153,11.97-9.586
		c6.755,11.707-5.562,19.317-12.632,23.6c5.873,0.465,11.62-1.247,14.42-5.646c2.157,11.119-9.133,15.651-17.333,15.186
		c-8.515-0.61-14.077-5.99-16.314,2.279c-1.477,5.661-3.467,13.244-3.28,23.767c2.483-10.646,5.606-20.011,9.883-24.512
		c-1.537,7.276-1.537,13.913,0.255,20.167c7.658-3.827,13.395-12.137,13.757-19.549c10.86,6.989,3.165,20.377-6.582,27.494
		c8.68,2.135,16.716,0.303,21.298-5.626c1.318,17.529-16.415,17.53-27.024,14.698c-4.334-0.803-13.541,1.834-9.585,11.818
		c3.788,9.233,3.577,20.604,6.773,29.241c1.953-10.621,3.81-18.983,6.883-23.155c8.138-10.816,14.195-6.889,7.342,6.245
		c6.393-3.462,10.608-9.614,13.289-14.741c4.821,12.061-5.079,19.514-10.627,26.711c5.135-0.23,9.884-5.453,11.308-10.804
		c7.209,16.978-12.942,25.104-19.59,23.921c-6.808-0.969-10.368,16.009-9.178,24.15c10.718-4.387,16.467-7.273,33.125-10.58
		c12.947-2.519,13.626-13.438,16.302-19.742c2.725-6.289,11.377-12.344,14.826-18.194c1.009,3.634-0.03,9.446-0.94,12.825
		c4.362-3.954,7.041-9.625,6.943-14.42c-0.036-8.014,0.252-7.596,3.003-11.33c2.823-4.007,1.189-12.973-1.259-17.657
		c-3.276-6.153-0.559-18.378,6.394-20.274c-1.997,10.83,3.431,24.473,8.985,28.518c1.374-11.946-2.271-17.365-5.091-22.659
		c-4.183-7.508-5.625-15.759-5.749-25.621c-9.278-6.465-22.908-22.019-16.569-35.139c11.282,6.433,8.229,19.009,18.358,17.89
		c-4.587-7.648-8.276-14.141-13.759-20.637c-2.244-2.853-6.826,1.753-15.567,1.811c-9.786,0.062-13.562-3.714-19.189-9.413
		c6.192,0.775,15.841,0.783,18.319-0.49c-9.706-5.523-19.882-6.488-29.373-4.663c-7.981,1.64-17.382-3.22-23.449-11.484
		c4.41,2.297,9.716,4.081,11.95,2.538c-1.027-2.547-5.895-4.073-7.05-7.517c10.433,3.506,15.443-2.587,21.828-2.279
		c8.026,0.395,15.535,14.633,23.046,15.1c-14.405-10.7-15.627-18.84-17.104-29.157c13.151,8.413,26.302,20.157,33.692,34.331
		c9.136,6.503,13.407,13.134,17.166,21.94c-0.116-12.855-2.408-25.582-7.646-30.245c16.492-0.468,19.165,32.47,20.169,48.13
		c3.262-0.873,4.219-20.308,1.85-27.197c18.041,19.061,10.096,47.976,1.77,71.005c3.237-0.843,10.568-12.051,9.709-22.235
		c17.006,17.572-2.595,40.264-16.948,62.059c6.266-3.289,20.977-15.543,25.833-30.353c6.247,26.663-32.18,51.534-45.004,57.462
		C235.103,326.194,242.68,321.617,249.234,324.461z"/>
	<polygon fill="#B4D7F4" points="512,269.601 0,491.223 0,511.974 512,511.696 	"/>
	<polygon fill="#239E46" points="512,0.304 0,0.026 0,20.778 512,242.4 	"/>
	<path fill="#F3E295" d="M274.705,267.679c-4.856,14.81-19.567,27.063-25.833,30.353c14.354-21.795,33.954-44.486,16.948-62.059
		c0.859,10.184-6.472,21.393-9.709,22.235c8.326-23.029,16.271-51.944-1.77-71.005c2.369,6.889,1.412,26.324-1.85,27.197
		c-1.004-15.66-3.677-48.598-20.169-48.13c5.238,4.663,7.53,17.39,7.646,30.245c-3.759-8.806-8.03-15.437-17.166-21.94
		c-7.391-14.174-20.541-25.918-33.692-34.331c1.477,10.317,2.698,18.457,17.104,29.157c-7.511-0.467-15.02-14.705-23.046-15.1
		c-6.385-0.308-11.396,5.785-21.828,2.279c1.155,3.444,6.022,4.969,7.05,7.517c-2.234,1.543-7.54-0.241-11.95-2.538
		c6.067,8.264,15.468,13.124,23.449,11.484c9.491-1.825,19.667-0.86,29.373,4.663c-2.479,1.273-12.127,1.265-18.319,0.49
		c5.628,5.698,9.403,9.475,19.189,9.413c8.741-0.058,13.323-4.663,15.567-1.811c5.482,6.497,9.172,12.989,13.759,20.637
		c-10.13,1.119-7.076-11.457-18.358-17.89c-6.339,13.12,7.291,28.674,16.569,35.139c0.124,9.861,1.566,18.113,5.749,25.621
		c2.819,5.294,6.465,10.713,5.091,22.659c-5.555-4.045-10.982-17.688-8.985-28.518c-6.952,1.896-9.67,14.121-6.394,20.274
		c2.448,4.685,4.082,13.65,1.259,17.657c-2.751,3.734-3.039,3.316-3.003,11.33c0.098,4.795-2.581,10.466-6.943,14.42
		c0.91-3.379,1.949-9.191,0.94-12.825c-3.449,5.851-12.102,11.905-14.826,18.194c-2.676,6.305-3.354,17.224-16.302,19.742
		c-16.658,3.307-22.407,6.193-33.125,10.58c-1.19-8.142,2.37-25.119,9.178-24.15c6.647,1.183,26.799-6.943,19.59-23.921
		c-1.424,5.351-6.173,10.573-11.308,10.804c5.548-7.197,15.448-14.65,10.627-26.711c-2.681,5.127-6.896,11.279-13.289,14.741
		c6.854-13.134,0.796-17.062-7.342-6.245c-3.073,4.172-4.93,12.534-6.883,23.155c-3.196-8.638-2.985-20.008-6.773-29.241
		c-3.956-9.984,5.251-12.621,9.585-11.818c10.609,2.832,28.343,2.831,27.024-14.698c-4.582,5.929-12.618,7.761-21.298,5.626
		c9.747-7.117,17.442-20.505,6.582-27.494c-0.362,7.412-6.099,15.722-13.757,19.549c-1.792-6.254-1.792-12.891-0.255-20.167
		c-4.276,4.501-7.399,13.866-9.883,24.512c-0.187-10.523,1.804-18.106,3.28-23.767c2.237-8.269,7.8-2.889,16.314-2.279
		c8.2,0.465,19.49-4.067,17.333-15.186c-2.8,4.399-8.547,6.111-14.42,5.646c7.069-4.283,19.387-11.893,12.632-23.6
		c-2.838,4.433-3.757,8.226-11.97,9.586c2.151-4.948,2.509-11.944,8.884-14.716c-11.372-2.264-17.884,5.199-21.193,16.887
		c-1.342-8.104-2.939-11.087-3.257-17.015c6.147-6.827,6.791-20.183-6.518-23.17c-0.79,6.889-0.556,8.531,0.958,14.141
		c-6.247-3.711-15.052-5.759-20.914-0.511c3.972,4.286,10.119,8.06,19.594,3.385c-2.237,7.322-8.059,6.068-16.058,3.277
		c4.889,9.183,11.059,10.815,17.868,9.756c3.565,9.4,3.723,16.541-6.696,30.23c0.481-8.506-0.123-14.844-6.881-21.722
		c-5.792-5.672-10.499,0.242-1.449,12.853c-5.49-4.044-11.704-12.25-13.575-20.455c-1.811,10.137-0.181,22.084,5.431,28.782
		c-2.654,2.836-5.672-0.301-10.137-7.24c1.689,22.205,11.162,26.49,23.894,21.54c0.362,12.188,0.362,23.472,1.087,38.196
		c-7.424-10.679-16.835-18.646-22.086-20.636c-1.629,5.973,4.526,13.756,7.966,18.101c-5.25-1.086-16.654-9.774-16.654-9.774
		c-1.146,9.896,11.647,19.068,19.913,23.17c-9.714-0.423-14-4.103-20.275-10.137c0.122,27.455,29.747,22.687,35.3,18.463
		c0.724,13.517,1.756,29.142,2.48,42.658c-8.376-1.461-7.717-3.979-14.883-4.643c-19.891-0.775-35.669-23.876-40.894-40.87
		c-1.499,2.797-0.31,5.724-1.681,9.159c-3.229-8.342-7.355-19.114-12.889-24.127c1.409,4.862,1.559,9.804,1.068,18.892
		c-1.898-5.888-3.665-7.694-3.793-14.606c0.121-5.307,5.12-9.223,4.844-16.687c-0.205-5.449-5.176-17.261-5.907-26.404
		c-2.406,9.411-3.917,19.331-7.604,25.158c1.832-10.05,1.245-16.985,4.344-23.749c3.58-7.121,6.624-13.477,4.24-20.664
		c-2.286,2.775-1.499,5.297-7.242,12.041c-1.247-7.333,7.426-19.071,15.843-23.79c5.936-3.127,13.418-14.315,8.544-21.982
		c-5.582,4.009-8.089,9.426-15.974,18.681c5.624-21.987,20.238-27.74,37.735-27.815c3.872-0.018,11.678-1.416,13.867-6.539
		c-4.932,1.904-10.763,2.146-15.951,1.108c3.776-5.544,11.729-4.824,19.141-4.856c5.812-0.028,14.888-0.816,18.557-9.095
		c-7.091,3.072-18.15,3.711-25.113,1.535c11.074-5.738,28.42-6.355,37.316-13.885c-10.14-7.568-35.514,1.763-51.541,12.755
		c4.479-4.096,11.559-11.362,15.465-17.228c-8.766-4.203-30.933,20.355-38.57,34.947c-7.253,4.096-10.154,10.517-12.971,14.998
		c3.865-13.06,4.274-22.536,7.499-33.291c-24.863,8.559-14.529,54.498-19.937,65.488c0.636-12.134,0.121-27.722-4.875-35.76
		c-7.658,5.843-8.276,40.229-1.086,68.857c-2.597-7.661-7.497-14.813-9.069-24.137c-11.334,20.672,6.645,45.06,21.678,64.324
		c-11.317-5.896-22.508-18.575-29.858-29.204c2.028,36.998,40.665,44.686,46.664,53.779c-8.142-3.79-23.705-11.289-30.311-3.432
		c10.752,2.482,19.328,5.352,26.238,9.882c10.026,12.519,29.014,17.995,62.081,19.377c-8.703,2.405-13.692,9.158-13.565,15.528
		l42.848-0.172c0.385-6.847-5.248-13.179-13.823-15.673c41.951-0.866,78.396-16.581,85.018-26.663
		c-6.554-2.844-14.131,1.733-19.532,0.68C242.526,319.213,280.952,294.342,274.705,267.679z"/>
</g>
</svg>
