<?xml version="1.0" encoding="utf-8"?>
<!-- Generator: Adobe Illustrator 16.0.0, SVG Export Plug-In . SVG Version: 6.00 Build 0)  -->
<svg version="1.2" baseProfile="tiny"
	 id="svg378" xmlns:cc="http://creativecommons.org/ns#" xmlns:dc="http://purl.org/dc/elements/1.1/" xmlns:rdf="http://www.w3.org/1999/02/22-rdf-syntax-ns#"
	 xmlns="http://www.w3.org/2000/svg" xmlns:xlink="http://www.w3.org/1999/xlink" x="0px" y="0px" width="512px" height="512px"
	 viewBox="0 0 512 512" xml:space="preserve">
<g>
	<path fill="#FFC621" d="M369.914,264.281c0,30.818-12.952,58.607-33.706,78.232h175.807V179.998H329.234
		C354.021,199.721,369.914,230.144,369.914,264.281z"/>
	<path fill="#FFC621" d="M154.605,264.281c0-34.138,15.893-64.56,40.68-84.283H0.004v162.516H188.31
		C167.557,322.889,154.605,295.1,154.605,264.281z"/>
	<path fill="#EF2118" d="M262.259,371.937c-28.639,0-54.662-11.186-73.949-29.423H0.004v169.497h512.011V342.514H336.208
		C316.921,360.751,290.898,371.937,262.259,371.937z"/>
	<path fill="#298C08" d="M0.004,179.998h195.281c18.383-14.627,41.656-23.372,66.974-23.372s48.592,8.745,66.975,23.372h182.781V0
		H0.004V179.998z"/>
	<path fill="#006BC6" d="M154.605,264.281c0,30.818,12.952,58.607,33.706,78.232c19.287,18.237,45.31,29.423,73.949,29.423
		s54.662-11.186,73.949-29.423c20.754-19.625,33.706-47.414,33.706-78.232c0-34.138-15.894-64.56-40.681-84.283
		c-18.383-14.627-41.656-23.372-66.975-23.372s-48.591,8.745-66.974,23.372C170.498,199.721,154.605,230.144,154.605,264.281z
		 M241.646,236.039l12.184-36.91l6.545,14.924l-16.699,52.099l-9.661-6.736l3.992-12.677l-48.124,0.672l-13.929-10.665
		L241.646,236.039z M207.831,192.73l6.433-4.522l23.329,33.548l-6.267,3.996L207.831,192.73z M311.023,320.279l5.017,16.811
		l-53.599-37.989l-31.529,22.729l3.462-15.924l44.103-32.376l3.867,11.126l-10.674,7.918L311.023,320.279z M258.417,282.497
		L258.417,282.497l-9.381,7.12l-10.835-7.695l-14.157,45.998l-14.432,9.975l19.526-62.727l-31.376-22.941l16.213-1.639
		L258.417,282.497L258.417,282.497L258.417,282.497z M177.53,294.027l-2.325-7.512l39.096-11.884l1.877,7.192L177.53,294.027z
		 M264.393,354.01l-7.861-0.114l0.806-40.854l7.42,0.443L264.393,354.01z M345.463,298.228l-38.467-13.787l2.785-6.891
		l38.296,13.263L345.463,298.228z M348.5,236.466l-53.094,38.694l11.494,37.129l-13.989-8.357l-16.63-52.122l11.777-0.119
		l4.104,12.641l38.804-28.47L348.5,236.466z M320.2,195.472l-24.93,32.375l-5.703-4.766l24.379-32.375L320.2,195.472z
		 M262.357,173.619l20.524,62.409l38.865,0.46l-12.248,10.749l-54.709-0.176l-0.001-0.001l3.503-11.245l13.29-0.024l-15.183-45.671
		L262.357,173.619z"/>
	<polygon fill="#FFC621" points="295.271,227.847 320.2,195.472 313.947,190.707 289.568,223.081 	"/>
	<polygon fill="#FFC621" points="288.059,251.691 276.281,251.81 292.911,303.932 306.901,312.289 295.406,275.16 348.5,236.466 
		330.967,235.862 292.163,264.332 	"/>
	<polygon fill="#FFC621" points="271.581,235.791 258.291,235.815 254.788,247.06 254.789,247.061 309.498,247.237 321.746,236.488 
		282.881,236.028 262.357,173.619 256.399,190.119 	"/>
	<polygon fill="#FFC621" points="306.996,284.44 345.463,298.228 348.077,290.812 309.781,277.55 	"/>
	<polygon fill="#FFC621" points="258.417,282.497 258.417,282.496 258.416,282.496 	"/>
	<polygon fill="#FFC621" points="278.476,273.53 234.373,305.906 230.911,321.83 262.441,299.101 316.039,337.09 311.023,320.279 
		271.669,292.574 282.343,284.656 	"/>
	<polygon fill="#FFC621" points="214.264,188.208 207.831,192.73 231.326,225.752 237.593,221.756 	"/>
	<polygon fill="#FFC621" points="257.337,313.041 256.531,353.896 264.393,354.01 264.757,313.484 	"/>
	<polygon fill="#FFC621" points="238.006,246.739 234.014,259.416 243.675,266.152 260.374,214.053 253.829,199.129 
		241.646,236.039 175.953,236.747 189.882,247.411 	"/>
	<polygon fill="#FFC621" points="197.763,252.227 229.139,275.168 209.613,337.895 224.044,327.92 238.201,281.922 249.036,289.617 
		258.416,282.496 213.976,250.588 	"/>
	<polygon fill="#FFC621" points="214.3,274.632 175.204,286.516 177.53,294.027 216.177,281.824 	"/>
</g>
</svg>
