<?xml version="1.0" encoding="utf-8"?>
<!-- Generator: Adobe Illustrator 16.0.0, SVG Export Plug-In . SVG Version: 6.00 Build 0)  -->
<svg version="1.2" baseProfile="tiny"
	 id="svg555" xmlns:cc="http://creativecommons.org/ns#" xmlns:dc="http://purl.org/dc/elements/1.1/" xmlns:rdf="http://www.w3.org/1999/02/22-rdf-syntax-ns#"
	 xmlns="http://www.w3.org/2000/svg" xmlns:xlink="http://www.w3.org/1999/xlink" x="0px" y="0px" width="512px" height="512px"
	 viewBox="0 0 512 512" xml:space="preserve">
<rect id="rect562" x="0.293" y="-3764.3" fill="#0062DA" width="49.872" height="8.545"/>
<rect id="rect571" y="-40703.5" fill="#0062DA" width="24831.5" height="0"/>
<g>
	<rect x="-0.002" y="186.335" fill="#0062DA" width="143.568" height="139.326"/>
	<rect x="293.51" y="186.334" fill="#0062DA" width="218.49" height="139.327"/>
	<rect x="-0.002" y="325.661" fill="#FFFFFF" width="143.568" height="186.333"/>
	<polygon fill="#0062DA" points="143.735,0.003 143.735,186.335 143.567,186.335 143.567,325.661 143.567,511.994 143.735,511.994 
		293.341,511.994 293.341,325.661 293.51,325.661 293.51,186.334 293.341,186.334 293.341,0.001 293.51,0.001 293.51,0 143.567,0 
		143.567,0.003 	"/>
	<polygon fill="#FFFFFF" points="143.735,186.335 143.735,0.003 143.567,0.003 -0.002,0.003 -0.002,186.335 143.567,186.335 	"/>
	<polygon fill="#FFFFFF" points="293.341,325.661 293.341,511.994 293.51,511.994 512,511.994 512,325.661 293.51,325.661 	"/>
	<polygon fill="#FFFFFF" points="293.341,186.334 293.51,186.334 512,186.334 512,0.001 293.51,0.001 293.341,0.001 	"/>
</g>
</svg>
