<?xml version="1.0" encoding="utf-8"?>
<!-- Generator: Adobe Illustrator 16.0.0, SVG Export Plug-In . SVG Version: 6.00 Build 0)  -->
<svg version="1.2" baseProfile="tiny"
	 id="svg556" xmlns:cc="http://creativecommons.org/ns#" xmlns:dc="http://purl.org/dc/elements/1.1/" xmlns:rdf="http://www.w3.org/1999/02/22-rdf-syntax-ns#"
	 xmlns="http://www.w3.org/2000/svg" xmlns:xlink="http://www.w3.org/1999/xlink" x="0px" y="0px" width="512px" height="512px"
	 viewBox="0 0 512 512" xml:space="preserve">
<g id="flag">
	<path id="path688" fill="#67B1FF" d="M0,0v512h512V0H0z"/>
	<g id="g3768" transform="matrix(1.2245 0 0 .81095 0 .0000012818)">
		<rect id="rect962" x="0" y="0" fill="#0000B4" width="256" height="256"/>
		<g id="g584" transform="matrix(4.2667 0 0 8.5333 0 .00018953)">
			<path id="path146" fill="#FFFFFF" d="M0,0v3.354L53.292,30H60v-3.354L6.708,0L0,0L0,0z M60,0v3.354L6.708,30H0v-3.354L53.292,0
				H60z"/>
			<path id="path136" fill="#FFFFFF" d="M25,0v30h10V0H25z M0,10v10h60V10H0z"/>
			<path id="path141" fill="#CC0000" d="M0,12v6h60v-6H0z M27,0v30h6V0H27z"/>
			<path id="path150" fill="#CC0000" d="M0,30l20-10h4.472l-20,10H0z M0,0l20,10h-4.472L0,2.236V0z M35.528,10l20-10H60L40,10
				H35.528z M60,30L40,20h4.472L60,27.764V30z"/>
		</g>
	</g>
	<g id="g3649" transform="matrix(1.719 0 0 1 -306.51 114.94)">
		<g id="g901" transform="matrix(.51606 0 0 1.0321 0 -.00014907)">
			<path id="path689" fill="#FFFFFF" d="M687.5,121.06v125c18.75,87.5,51.562,100,93.75,125c42.188-25,75-37.5,93.75-125v-125H687.5
				z"/>
			<path id="path694" fill="#DA0000" d="M768.75,121.06l0.196,242.911l12.5,7.053l12.5-7.25l-0.196-242.71h-25V121.06z"/>
			<path id="path693" fill="#DA0000" d="M687.5,247.38l9.377,34.047l169.24-0.095l8.885-33.952H687.502H687.5z"/>
			<rect id="rect566" x="687.5" y="121.06" fill="#DA0000" width="187.499" height="87.501"/>
			<g id="g910" transform="matrix(.25759 0 0 .30435 612.91 247.3)">
				<path id="rect909" fill="#F6EFEC" stroke="#000000" stroke-width="0.75" d="M329.314-281.679L329.314-281.679
					c12.825,0,23.227,12.529,23.227,27.986l0,0c0,15.46-10.402,27.992-23.227,27.992l0,0c-12.825,0-23.223-12.532-23.223-27.992l0,0
					C306.091-269.15,316.488-281.679,329.314-281.679z"/>
				<path id="path908" fill="#FFFF00" stroke="#000000" stroke-width="0.875" d="M861.925-296.571c0,0,41.911-2.493,56.583-15.79
					c14.671-13.297-9.953-37.397,5.765-39.89c6.286-0.417,15.193,1.244,22,7.893c-1.047-4.987-5.239-7.893-6.808-10.803
					c-5.765-4.157-11.526-3.74-19.911-3.74c-5.761,0.83-6.812-0.83-16.24-9.558c-4.714-4.155-4.714-14.543-1.047-21.607
					c-11.005,6.648-8.906,15.788-7.859,17.867c2.62,9.142,5.239,11.635,5.239,15.792c-3.145-1.247-8.906-12.052-38.77-13.713
					s-105.31,16.62-139.367,16.62c-34.052,0-83.301-11.218-83.301-11.218s12.573-7.895-2.62-11.22
					c-15.193-3.323-48.723,11.637-58.155,3.325c-6.808-7.895-4.192-6.233-5.239-9.973c-2.62,1.247-4.192,6.233-0.521,12.882
					c3.667,6.648,5.761,4.572,5.24,4.572c-0.526,0-12.052,0-13.099,3.327c-1.047,2.49-2.62,5.4,3.141,14.54
					c2.098-9.14-5.761-10.387,11.526-11.22c17.291-0.827,29.343,5.403,44.01,7.48c14.671,2.08,14.671-4.987,15.193-4.57
					c0.526,0.417,45.057,9.973,85.925,7.897c40.864-2.077,106.883-19.947,137.26-16.207c30.385,3.74,50.296,21.193,50.822,37.397
					c-0.526,9.973-13.624,14.96-24.103,16.62c-12.573,1.666-41.911,4.16-41.911,4.16l16.24,9.14H861.925z"/>
				<path id="path900" fill="#FFFF00" stroke="#000000" stroke-width="0.5" d="M815.018-287.033
					c-0.509,0-27.992,0.597-36.133,14.292c-8.146,13.698-11.705,26.799-11.197,26.799s18.321-11.313,18.321-11.313
					s-13.231,22.626-6.107,42.878c7.124,20.245-18.812,19.054-33.766,19.648c-6.616-5.954-27.753-16.079-35.287-17.864
					c-4.71-2.083-13.949-2.353-23.603,10.346c-5.688,7.831,8.449-7.368,22.471-6.177c1.517,1.788,2.496,3.572,2.765,7.741
					c-7.47-0.594-15.248-10.719-24.411,10.123c9.163-7.147,10.308-6.998,14.953-7.443c6.184-0.538,5.389,3.274,5.137,3.274
					c-1.017,0-3.543,0.597-7.363,4.766c-2.039,2.975-7.128,9.529-6.107,9.529c1.017,0,4.06-3.575,8.825-6.554
					c2.974-2.381,5.804-2.381,14.804,0.597c49.369,13.698,75.831,3.575,78.887-1.785c1.526-2.381-28.501-69.676,51.403-87.54
					C847.591-276.313,815.018-286.436,815.018-287.033L815.018-287.033z"/>
				<path id="path899" fill="#FFFF00" stroke="#000000" stroke-width="0.625" d="M472.839-212.6
					c32.753,27.396,253.69-29.18,281.682-48.834c16.077-11.313,44.065-19.648,44.065,19.057c7.146-26.202,7.15-32.752,7.15-32.158
					c0.594,0.597,11.312,10.126,20.842,42.284c2.38-28.586-4.171-45.262-0.598-42.878c2.385-2.385,2.385,14.292,21.441,37.515
					c-4.171-18.461-5.359-26.799-5.359-26.799s35.727,34.543,55.976,39.306c20.248,4.766,49.429-9.529,58.36-1.191
					c8.932,8.338,24.419,23.223,23.821,35.137c-0.594,11.91-33.347,1.785-36.924,11.313c-3.573,9.529,2.385,9.529,2.385,9.529
					s2.974,7.147,5.359,13.101c1.786-4.166-1.786-13.101,4.765-13.698c4.765,0.597,4.765,8.338,5.953,12.507
					c1.389-4.763-0.197-14.292,4.171-14.292c4.765-0.995,5.359,7.542,8.932,13.101V-172.7c13.697-4.169,25.603-4.763,27.394-13.698
					c1.778-8.932-20.847-29.18-26.206-42.281c-5.355-13.101,4.171-18.461-5.953-25.608c-10.124-7.147-48.83,11.316-66.698,4.169
					c-17.864-7.144-10.718-58.36-78.011-69.676c-67.292-11.313-249.519,59.554-281.682,62.532
					c-32.159,2.975-71.459-10.126-71.459-10.126L472.839-212.6L472.839-212.6z"/>
				<path id="path892" fill="#FFFF00" stroke="#000000" stroke-width="0.5" d="M430.675-232.285c0,0-34.843,40.279-58.331,39.464
					c-23.381-1.561-42.552-28.216-47.668-26.329c-5.116,1.887-6.338-2.229-8.308-9.585c-1.97-7.356,2.184-10.999,2.077-10.256
					c1.175,0.27,2.504,12.081,3.568,13.092c1.064,1.014-3.94-14.711,3.303-14.574c2.453-0.202,2.026,11.204,4.316,16.334
					c0.692-0.609-2.449-16.67,0.585-16.738c3.034-0.068,4.312,16.331,9.052,21.259c6.658,8.438,17.471,13.231,31.531,16.471
					c14.808-1.952,49.702-38.382,52.523-36.965L430.675-232.285L430.675-232.285z"/>
				<path id="path891" fill="#FFFF00" stroke="#000000" stroke-width="0.5" d="M431.743-254.908c0,0-28.586-42.352-51.809-46.388
					c-23.227-3.361-45.856,16.135-50.621,13.446c-4.761-2.689-6.547,0.675-9.526,6.725c-2.979,6.05,0.594,10.082,0.594,9.411
					c1.192,0,4.171-10.085,5.359-10.757c1.192-0.672-5.953,12.103,1.192,13.446c2.385,0.672,3.573-9.414,6.551-13.446
					c0.594,0.672-4.765,14.117-1.786,14.789c2.974,0.675,6.551-13.443,11.911-16.807c7.74-6.05,19.056-8.068,33.347-8.064
					c14.291,4.704,43.471,43.695,46.45,43.021L431.743-254.908z"/>
				<path id="path887" fill="#FFFF00" stroke="#000000" stroke-width="0.5" d="M417.457-267.981l-31.561,15.482l23.227,5.957
					l-16.676,19.057l23.821-7.741l-1.786,25.605l13.697-16.67l8.932,23.223l9.526-17.27l11.317,19.054l4.765-18.461l13.697,18.461
					l4.765-25.008l16.671,15.482l-2.38-26.205l20.248,6.55l-12.509-20.245c0,0,22.035-1.194,20.847-1.194
					c-1.192,0-16.676-13.101-30.372-16.673L417.457-267.981z"/>
				<path id="path888" fill="#FFFF00" stroke="#000000" stroke-width="0.8081" d="M434.141-274.787l-17.278,8.77l12.714,3.373
					l-9.128,10.791l13.043-4.384l-0.979,14.506l7.5-9.445l4.889,13.154l5.218-9.784l6.197,10.794l2.607-10.455l7.5,10.455
					l2.611-14.164l9.128,8.767l-1.303-14.839l11.086,3.709l-6.846-11.466c0,0,12.064-0.678,11.411-0.678
					c-0.65,0-9.128-7.418-16.629-9.442L434.141-274.787z"/>
				<path id="path901" fill="#FFFF00" stroke="#000000" stroke-width="0.5" d="M443.06-316.81c0,0-8.932-7.147-12.505,0
					c-3.573,7.144,7.74,4.169,7.74,5.36s-7.74,9.526-7.74,19.057c0,9.526,5.953,25.605,5.953,27.986
					c0,2.385,2.385,8.935,10.718,11.316c8.338,2.381,11.317-7.741,13.103-8.932c1.786-1.191,13.103,1.788,17.27-8.338
					c4.171-10.126,4.171-28.586,4.171-28.586s7.146,5.36,7.146-5.36c0-10.719-7.744,0-7.744,0s1.192-11.313-17.27-16.673
					C445.44-326.338,443.654-315.619,443.06-316.81z"/>
				<path id="path893" fill="#FFFF00" stroke="#000000" stroke-width="0.5401" d="M440.675-318.693
					c-2.402-6.796-9.381-32.88-9.381-32.88l15.488,9.575c-5.252-1.859-9.722-2.922-9.163-2.935
					c0.56-0.006,7.026,12.538,7.026,12.538c6.064-0.631,12.21,2.307,19.744,4.629c0,0,5.927-10.424,5.368-10.415
					c-0.56,0.009-3.406-1.629-3.406-1.629l13.795-9.911l-4.18,13.123l-2.808,0.047l-5.385,9.569
					c6.351,1.679,9.47,3.016,15.778,8.867c5.44-1.284,9.966-5.627,12.834-8.904c-4.953-1.952-7.235-3.501-6.675-3.51
					c0.564-0.009,20.646,1.24,20.646,1.24s-19.24,18.622-30.573,25.524C469.044-308.185,441.859-316.181,440.675-318.693
					L440.675-318.693z"/>
				<path id="rect903" d="M450.295-299.499L450.295-299.499c3.427,1.62,4.838,2.782,3.15,2.599l0,0
					c-1.692-0.18-5.838-1.641-9.269-3.261v-0.003c-3.427-1.617-4.838-2.779-3.15-2.599l0,0
					C442.718-302.577,446.864-301.116,450.295-299.499z"/>
				<path id="rect904" d="M468.061-292.377L468.061-292.377c3.427,1.62,4.838,2.782,3.15,2.602l0,0
					c-1.688-0.187-5.838-1.648-9.265-3.264l0,0c-3.432-1.62-4.842-2.782-3.15-2.599l0,0
					C460.484-295.458,464.633-293.996,468.061-292.377z"/>
				<path id="rect905" d="M456.676-272.589L456.676-272.589c6.671,2.273,9.415,3.905,6.124,3.65l0,0
					c-3.286-0.258-11.359-2.307-18.03-4.582l0,0c-6.671-2.27-9.415-3.905-6.128-3.65l0,0
					C441.932-276.91,450.005-274.861,456.676-272.589z"/>
				<path id="rect906" d="M455.569-282.027L455.569-282.027c2.987,1.132,4.214,1.94,2.744,1.816l0,0
					c-1.474-0.131-5.086-1.147-8.073-2.276l0,0c-2.987-1.129-4.214-1.94-2.744-1.812l0,0
					C448.966-284.172,452.582-283.153,455.569-282.027z"/>
				<path id="rect907" d="M451.214-279.696L451.214-279.696c0.893-2.571,1.748-3.749,1.902-2.63l0,0
					c0.154,1.119-0.449,4.113-1.346,6.684l0,0c-0.893,2.571-1.744,3.749-1.902,2.63l0,0
					C449.714-274.131,450.317-277.125,451.214-279.696z"/>
			</g>
			<g id="g695">
				<path id="path881" fill="#FF7300" stroke="#000000" stroke-width="0.375" d="M741.331,322.944c1.74,6.588,0.852,0-1.003,10.204
					c1.146-3.04,2.782-4.777,3.436-4.775c0.982,0,1.473-0.002,3.436,1.953c-1.799-3.473-4.908-2.605-4.745-7.816
					C742.292,321.316,741.409,322.622,741.331,322.944L741.331,322.944z"/>
				<path id="rect760" fill="#B2802E" stroke="#000000" stroke-width="0.1029" d="M722.143,295.813L722.143,295.813
					c0.309-0.218,0.604-0.171,0.659,0.102l3.358,16.693c0.055,0.273-0.151,0.672-0.46,0.889l0,0
					c-0.309,0.217-0.605,0.171-0.66-0.103l-3.358-16.692C721.627,296.428,721.834,296.03,722.143,295.813z"/>
				<path id="path785" fill="#FFFFFF" stroke="#000000" stroke-width="0.375" d="M736.275,309.244
					c0.621-0.459,5.216-10.852,27.074-9.324c-12.42,5.196-20.12,16.202-21.983,16.659C740,317.038,737.019,310.924,736.275,309.244z
					"/>
				<g id="g741" transform="matrix(.077554 -.15007 .49698 .37410 547.14 335.66)">
					<path id="path742" fill="#007500" stroke="#000000" stroke-width="0.333" d="M829.697,226.236l-14.136,8.111l9.092-9.834
						l9.103-1.801L829.697,226.236L829.697,226.236z"/>
					<path id="path743" fill="#007500" stroke="#000000" stroke-width="0.333" d="M829.284,224.538l-19.632,2.12l17.119-5.248
						l7.525,1.132l-5.016,1.997L829.284,224.538z"/>
					<path id="path744" fill="#007500" stroke="#000000" stroke-width="0.333" d="M839.637,224.601l5.441,9.07l-8.647-6.873
						l-2.411-4.989l5.612,2.79L839.637,224.601z"/>
					<path id="path745" fill="#007500" stroke="#000000" stroke-width="0.333" d="M841.27,221.71l16.737,12.471l-20.129-8.674
						l-5.597-3.12L841.27,221.71L841.27,221.71z"/>
					<path id="path746" fill="#007500" stroke="#000000" stroke-width="0.333" d="M828.52,223.326l-20.053-6.094l19.73,0.157
						l6.626,5.959L828.52,223.326L828.52,223.326z"/>
					<path id="path747" fill="#007500" stroke="#000000" stroke-width="0.333" d="M826.481,218.405l-9.521-10.256l14.209,7.62
						l3.374,7.795l-8.058-5.157L826.481,218.405z"/>
					<path id="path748" fill="#007500" stroke="#000000" stroke-width="0.333" d="M829.634,215.778l-5.579-11.647l10.299,9.541
						l-0.451,9.312l-4.27-7.204L829.634,215.778z"/>
					<path id="path749" fill="#007500" stroke="#000000" stroke-width="0.333" d="M835.628,215.193l12.561-9.203l-8.58,12.629
						l-5.746,4.423L835.628,215.193z"/>
					<path id="path750" fill="#007500" stroke="#000000" stroke-width="0.333" d="M839.755,216.15l16.158-2.71l-14.332,7.719
						l-7.555,1.651L839.755,216.15z"/>
					<path id="path751" fill="#007500" stroke="#000000" stroke-width="0.333" d="M839.575,219.093l19.74,2.362l-18.441,2.603
						l-6.05-1.501L839.575,219.093z"/>
					<path id="path752" fill="#007500" stroke="#000000" stroke-width="0.333" d="M831.631,227.075l-6.847,5.051l4.061-6.085
						l4.883-3.38L831.631,227.075z"/>
					<path id="path753" fill="#007500" stroke="#000000" stroke-width="0.333" d="M832.641,224.415l-10.51,5.605l8.758-7.132
						l3.908-1.409L832.641,224.415L832.641,224.415z"/>
					<path id="path754" fill="#007500" stroke="#000000" stroke-width="0.333" d="M837.694,223.174l7.861,9.226l-9.47-7.342
						l-2.119-3.526L837.694,223.174L837.694,223.174z"/>
					<path id="path755" fill="#007500" stroke="#000000" stroke-width="0.333" d="M831.017,221.202l-10.38-7.96l10.154,5.639
						l3.443,3.233L831.017,221.202L831.017,221.202z"/>
					<path id="path756" fill="#007500" stroke="#000000" stroke-width="0.333" d="M836.594,220.09l9.664,1.38l-9.417-0.037
						l-2.939,0.627l2.696-1.971L836.594,220.09z"/>
					<path id="path757" fill="#007500" stroke="#000000" stroke-width="0.333" d="M833.328,216.149l7.336-7.28l-3.854,5.789
						l-3.066,6.8l-0.411-5.31L833.328,216.149z"/>
					<path id="path758" fill="#007500" stroke="#000000" stroke-width="0.333" d="M829.539,218.451l-7.965-0.491l8.267-1.864
						l4.29,5.176L829.539,218.451L829.539,218.451z"/>
					<path id="path759" fill="#007500" stroke="#000000" stroke-width="0.333" d="M831.137,225.119l-13.735,4.744l11.44-6.036
						l5.108-1.194L831.137,225.119L831.137,225.119z"/>
				</g>
				<path id="path876" fill="#FFFFFF" stroke="#000000" stroke-width="0.375" d="M765.541,304.121
					c-3.392,1.481-5.054,2.186-6.769,2.476c0.874,0.496,2.816,0.194,5.033,0.988c-1.975,0.057-5.628,2.056-7.147,2.104
					c1.05,0.836,4.796,0.031,5.484,0.249c-2.002,0.166-5.226,2.224-7.233,2.224c-0.919,0.932,4.67-0.638,6.912,1.121
					c-2.319-0.158-6.824,1.611-9.267,1.186c1.863,1.448,5.187-0.156,7.959,1.413c-0.802,0.116-7.236,1.073-9.513,0.618
					c1.362,0.905,5.463,0.755,6.472,1.557c-1.699-0.294-6.207,0.958-7.775,0.461c1.412,1.35,5.668,0.589,6.451,1.401
					c-2.782,1.287-6.998,0.26-8.937,0.608c1.3,0.807,2.373,1.623,3.524,2.379c1.68,1.565,6.922,5.965,10.053,7.287
					c-3.467-0.602-4.675-0.681-6.915-0.924l5.097,7.168c-2.127-1.521-5.876-4.392-8.364-5.875
					c-5.513-3.581-9.485-2.962-13.302-5.994c-5.363-6.9-8.342-15.123-8.61-17.317c-0.269-2.192-0.503-6.123-5.395-4.075
					c4.723-0.807,6.706-8.047,7.076-7.757c0.168,0.124,0.604,4.84,1.715,6.743c0.739,1.366,7.027,6.041,8.069,6.29
					C749.523,301.069,757.119,300.161,765.541,304.121L765.541,304.121z"/>
			</g>
			<g id="g829" transform="translate(2.7708 -.000015259)">
				<path id="rect607" fill="#E4CC00" stroke="#000000" stroke-width="0.25" d="M819.415,314.53L819.415,314.53
					c0.546,0.54-0.763,2.749-2.924,4.933l0,0c-2.161,2.185-4.355,3.518-4.901,2.978l0,0c-0.546-0.54,0.763-2.75,2.923-4.933
					l0.001-0.001C816.674,315.323,818.869,313.99,819.415,314.53z"/>
				<path id="path574" fill="#006000" stroke="#000000" stroke-width="0.25" d="M795.019,334.335
					c-0.21-1.173-0.347-1.766,0.244-3.303c0.864-1.083,1.318-2.043,2.893-3.164c1.71-0.563,2.286-0.055,4.529-2.134
					c0.721-1.37,1.819-2.405,2.445-3.882c1.461-2.177,1.951-3.252,3.119-4.927c1.552-1.741,2.801-3.302,3.709-4.636
					c0.969-1.71,1.839-2.767,3.245-4.173c0.569-1.605,1.789-2.794,3.245-4.173c1.113-2.032,3.246-4.361,4.172-6.026
					c1.641-1.88,2.283-2.698,3.709-4.636c1.255-0.828,3.372-2.644,5.099-3.245c2.359-0.989,3.622-1.969,5.174-0.464
					c1.027,1.027,2.872,2.68,1.59,3.9c-0.675,0.747-1.78,0.841-3.054,0.273c-1.309-0.848-1.946-3.315-3.71-1.391
					c-1.274,1.455-1.926,2.616-3.709,4.173c-0.886,1.304-1.525,2.278-2.317,4.173c-1.048,1.209-1.914,2.568-2.782,4.636
					c-1.124,0.927-2.093,2.77-2.782,4.172c-1.112,1.166-1.914,2.364-2.782,4.173c-1.751,1.677-2.405,3.095-3.709,4.172
					c-0.861,1.82-2.217,3.559-3.245,4.636c-0.812,1.32-1.618,2.695-2.318,4.173c-1.474,1.505-1.539,1.83-3.709,4.173
					c-1.805,2.354-1.198,2.07-4.026,4.801C798.502,336.144,796.947,336.317,795.019,334.335z"/>
				<path id="rect600" fill="#E4CC00" stroke="#000000" stroke-width="0.25" d="M807.702,306.588L807.702,306.588
					c0.711,0.29,0.348,2.831-0.811,5.676v0.001c-1.159,2.845-2.676,4.917-3.387,4.627l0,0c-0.711-0.29-0.348-2.831,0.811-5.676
					v-0.001C805.474,308.37,806.991,306.297,807.702,306.588z"/>
				<path id="rect601" fill="#E4CC00" stroke="#000000" stroke-width="0.25" d="M809.606,307.929L809.606,307.929
					c0.702,0.313,0.257,2.841-0.995,5.648l0,0c-1.252,2.806-2.835,4.827-3.536,4.515l0,0c-0.701-0.313-0.257-2.841,0.995-5.648
					v-0.001C807.322,309.637,808.905,307.615,809.606,307.929z"/>
				<path id="rect603" fill="#E4CC00" stroke="#000000" stroke-width="0.25" d="M813.888,311.042L813.888,311.042
					c0.623,0.45-0.331,2.834-2.13,5.324l0,0c-1.8,2.491-3.763,4.145-4.386,3.695l0,0c-0.623-0.449,0.331-2.833,2.131-5.323v-0.001
					C811.303,312.246,813.266,310.592,813.888,311.042z"/>
				<path id="rect605" fill="#E4CC00" stroke="#000000" stroke-width="0.25" d="M822.791,316.699L822.791,316.699
					c0.499,0.585-0.992,2.675-3.329,4.669l0,0c-2.338,1.995-4.637,3.138-5.135,2.554l0,0c-0.499-0.585,0.992-2.675,3.33-4.669l0,0
					C819.994,317.258,822.292,316.115,822.791,316.699z"/>
				<path id="rect606" fill="#E4CC00" stroke="#000000" stroke-width="0.25" d="M821.231,315.744L821.231,315.744
					c0.539,0.547-0.799,2.738-2.99,4.893v0.001c-2.19,2.154-4.402,3.458-4.941,2.91l0,0c-0.538-0.548,0.8-2.738,2.99-4.894l0,0
					C818.48,316.499,820.693,315.196,821.231,315.744z"/>
				<path id="rect608" fill="#E4CC00" stroke="#000000" stroke-width="0.25" d="M816.702,313.432L816.702,313.432
					c0.622,0.45-0.331,2.834-2.131,5.324l0,0c-1.799,2.491-3.763,4.145-4.386,3.696l0,0c-0.622-0.45,0.331-2.834,2.131-5.324v-0.001
					C814.116,314.636,816.079,312.982,816.702,313.432z"/>
				<path id="rect609" fill="#E4CC00" stroke="#000000" stroke-width="0.25" d="M815.414,312.021L815.414,312.021
					c0.623,0.449-0.331,2.833-2.13,5.324l0,0c-1.8,2.49-3.763,4.145-4.386,3.695l0,0c-0.623-0.449,0.331-2.834,2.13-5.324h0.001
					C812.828,313.225,814.792,311.57,815.414,312.021z"/>
				<g id="g586" transform="translate(-6.3109 -1.1154)">
					<path id="rect575" fill="#E4CC00" stroke="#000000" stroke-width="0.25" d="M824.257,293.799L824.257,293.799
						c0.623,0.449-0.331,2.834-2.131,5.324l0,0c-1.799,2.49-3.763,4.145-4.385,3.695l0,0c-0.623-0.449,0.33-2.833,2.13-5.324l0,0
						C821.671,295.003,823.634,293.35,824.257,293.799z"/>
					<path id="rect576" fill="#E4CC00" stroke="#000000" stroke-width="0.25" d="M825.991,294.916L825.991,294.916
						c0.623,0.449-0.331,2.833-2.13,5.323v0.001c-1.8,2.49-3.764,4.144-4.386,3.695l0,0c-0.623-0.45,0.331-2.834,2.13-5.324h0.001
						C823.405,296.121,825.369,294.466,825.991,294.916z"/>
					<path id="rect577" fill="#E4CC00" stroke="#000000" stroke-width="0.25" d="M827.723,296.192L827.723,296.192
						c0.622,0.449-0.331,2.833-2.131,5.323v0.001c-1.8,2.49-3.763,4.144-4.386,3.695l0,0c-0.622-0.45,0.331-2.834,2.131-5.324l0,0
						C825.137,297.396,827.099,295.742,827.723,296.192z"/>
					<path id="rect578" fill="#E4CC00" stroke="#000000" stroke-width="0.25" d="M829.61,297.506L829.61,297.506
						c0.622,0.449-0.331,2.834-2.131,5.324l0,0c-1.8,2.49-3.763,4.144-4.386,3.695l0,0c-0.622-0.449,0.331-2.834,2.131-5.324l0,0
						C827.023,298.711,828.987,297.056,829.61,297.506z"/>
					<path id="rect579" fill="#E4CC00" stroke="#000000" stroke-width="0.25" d="M831.016,298.719L831.016,298.719
						c0.622,0.449-0.331,2.834-2.131,5.324l0,0c-1.8,2.49-3.763,4.145-4.386,3.695l0,0c-0.622-0.449,0.331-2.833,2.131-5.324l0,0
						C828.43,299.924,830.393,298.27,831.016,298.719z"/>
					<path id="rect580" fill="#E4CC00" stroke="#000000" stroke-width="0.25" d="M840.39,303.999L840.39,303.999
						c0.622,0.449-0.331,2.834-2.131,5.324l0,0c-1.8,2.49-3.763,4.145-4.386,3.695l0,0c-0.622-0.449,0.331-2.833,2.131-5.324l0,0
						C837.804,305.203,839.767,303.549,840.39,303.999z"/>
					<path id="rect581" fill="#E4CC00" stroke="#000000" stroke-width="0.25" d="M838.947,303.486L838.947,303.486
						c0.622,0.45-0.331,2.834-2.131,5.324v0.001c-1.8,2.49-3.763,4.144-4.386,3.695l0,0c-0.622-0.45,0.331-2.834,2.131-5.324l0,0
						C836.36,304.691,838.324,303.037,838.947,303.486z"/>
					<path id="rect582" fill="#E4CC00" stroke="#000000" stroke-width="0.25" d="M837.659,302.828L837.659,302.828
						c0.622,0.449-0.331,2.833-2.131,5.324l0,0c-1.8,2.49-3.763,4.144-4.386,3.695l0,0c-0.622-0.449,0.331-2.834,2.131-5.324l0,0
						C835.073,304.032,837.036,302.377,837.659,302.828z"/>
					<path id="rect583" fill="#E4CC00" stroke="#000000" stroke-width="0.25" d="M835.901,301.656L835.901,301.656
						c0.623,0.45-0.331,2.834-2.13,5.324l0,0c-1.8,2.491-3.764,4.145-4.386,3.696l0,0c-0.623-0.45,0.331-2.834,2.13-5.324
						l0.001-0.001C833.315,302.861,835.279,301.207,835.901,301.656z"/>
					<path id="rect584" fill="#E4CC00" stroke="#000000" stroke-width="0.25" d="M834.024,300.719L834.024,300.719
						c0.623,0.45-0.331,2.834-2.13,5.324v0.001c-1.8,2.49-3.764,4.144-4.386,3.695l0,0c-0.623-0.45,0.331-2.834,2.13-5.324h0.001
						C831.438,301.924,833.402,300.27,834.024,300.719z"/>
					<path id="rect585" fill="#E4CC00" stroke="#000000" stroke-width="0.25" d="M832.542,299.698L832.542,299.698
						c0.622,0.449-0.331,2.833-2.131,5.323v0.001c-1.8,2.49-3.763,4.144-4.386,3.695l0,0c-0.622-0.45,0.331-2.834,2.131-5.324l0,0
						C829.956,300.903,831.919,299.248,832.542,299.698z"/>
				</g>
				<path id="rect602" fill="#E4CC00" stroke="#000000" stroke-width="0.25" d="M811.489,309.453L811.489,309.453
					c0.676,0.366,0.035,2.852-1.43,5.553l0,0c-1.464,2.701-3.199,4.594-3.875,4.228l0,0c-0.675-0.366-0.035-2.853,1.43-5.553v-0.001
					C809.079,310.979,810.814,309.086,811.489,309.453z"/>
				<g id="g610" transform="translate(-11.95 5.7652)">
					<path id="rect611" fill="#E4CC00" stroke="#000000" stroke-width="0.25" d="M824.257,293.799L824.257,293.799
						c0.623,0.449-0.33,2.833-2.13,5.324l0,0c-1.8,2.49-3.763,4.144-4.386,3.695l0,0c-0.623-0.449,0.331-2.834,2.13-5.324h0.001
						C821.671,295.004,823.635,293.349,824.257,293.799z"/>
					<path id="rect612" fill="#E4CC00" stroke="#000000" stroke-width="0.25" d="M825.992,294.917L825.992,294.917
						c0.622,0.449-0.331,2.833-2.131,5.323v0.001c-1.8,2.49-3.763,4.144-4.386,3.695l0,0c-0.622-0.45,0.331-2.834,2.131-5.324l0,0
						C823.406,296.121,825.368,294.466,825.992,294.917z"/>
					<path id="rect613" fill="#E4CC00" stroke="#000000" stroke-width="0.25" d="M827.722,296.192L827.722,296.192
						c0.623,0.449-0.331,2.833-2.13,5.323l-0.001,0.001c-1.799,2.49-3.763,4.144-4.385,3.695l0,0
						c-0.623-0.45,0.331-2.834,2.13-5.324h0.001C825.136,297.396,827.1,295.742,827.722,296.192z"/>
					<path id="rect614" fill="#E4CC00" stroke="#000000" stroke-width="0.25" d="M829.61,297.506L829.61,297.506
						c0.623,0.449-0.331,2.833-2.13,5.324h-0.001c-1.799,2.49-3.763,4.144-4.385,3.695l0,0c-0.623-0.449,0.331-2.834,2.13-5.324l0,0
						C827.024,298.711,828.988,297.056,829.61,297.506z"/>
					<path id="rect615" fill="#E4CC00" stroke="#000000" stroke-width="0.25" d="M831.016,298.719L831.016,298.719
						c0.623,0.449-0.331,2.834-2.13,5.324h-0.001c-1.799,2.49-3.763,4.145-4.385,3.695l0,0c-0.623-0.449,0.331-2.834,2.13-5.324l0,0
						C828.43,299.924,830.394,298.27,831.016,298.719z"/>
					<path id="rect616" fill="#E4CC00" stroke="#000000" stroke-width="0.25" d="M840.389,303.999L840.389,303.999
						c0.623,0.449-0.331,2.833-2.13,5.324h-0.001c-1.799,2.49-3.763,4.144-4.385,3.695l0,0c-0.623-0.449,0.331-2.834,2.13-5.324
						h0.001C837.804,305.203,839.767,303.549,840.389,303.999z"/>
					<path id="rect617" fill="#E4CC00" stroke="#000000" stroke-width="0.25" d="M838.946,303.486L838.946,303.486
						c0.623,0.45-0.331,2.834-2.131,5.324l0,0c-1.799,2.491-3.763,4.145-4.385,3.696l0,0c-0.623-0.45,0.331-2.834,2.13-5.324v-0.001
						C836.36,304.691,838.323,303.037,838.946,303.486z"/>
					<path id="rect618" fill="#E4CC00" stroke="#000000" stroke-width="0.25" d="M837.658,302.828L837.658,302.828
						c0.623,0.449-0.331,2.833-2.131,5.323v0.001c-1.799,2.49-3.763,4.144-4.385,3.695l0,0c-0.623-0.45,0.331-2.834,2.13-5.324l0,0
						C835.072,304.032,837.035,302.377,837.658,302.828z"/>
					<path id="rect619" fill="#E4CC00" stroke="#000000" stroke-width="0.25" d="M835.901,301.656L835.901,301.656
						c0.622,0.45-0.331,2.834-2.131,5.324l0,0c-1.799,2.491-3.763,4.145-4.386,3.696l0,0c-0.622-0.45,0.331-2.834,2.131-5.324
						v-0.001C833.315,302.861,835.278,301.207,835.901,301.656z"/>
					<path id="rect620" fill="#E4CC00" stroke="#000000" stroke-width="0.25" d="M834.024,300.719L834.024,300.719
						c0.622,0.45-0.331,2.834-2.131,5.324l0,0c-1.8,2.491-3.763,4.145-4.386,3.696l0,0c-0.622-0.45,0.331-2.834,2.131-5.324v-0.001
						C831.438,301.924,833.401,300.27,834.024,300.719z"/>
					<path id="rect621" fill="#E4CC00" stroke="#000000" stroke-width="0.25" d="M832.542,299.699L832.542,299.699
						c0.623,0.449-0.331,2.833-2.13,5.323l-0.001,0.001c-1.799,2.49-3.763,4.144-4.385,3.695l0,0
						c-0.623-0.45,0.331-2.834,2.13-5.324l0,0C829.956,300.902,831.918,299.248,832.542,299.699z"/>
				</g>
			</g>
			<g id="g864" transform="matrix(.96634 0 0 .90397 23.343 23.148)">
				<path id="rect721" fill="#B2802E" stroke="#000000" stroke-width="0.1723" d="M743.898,223.785L743.898,223.785
					c0.748,0.255,1.257,0.749,1.136,1.104l-7.364,21.613c-0.121,0.355-0.826,0.435-1.574,0.18l0,0
					c-0.748-0.255-1.258-0.749-1.136-1.103l7.364-21.613C742.445,223.611,743.15,223.53,743.898,223.785z"/>
				<path id="rect720" fill="#B2802E" stroke="#000000" stroke-width="0.1723" d="M728.871,221.739L728.871,221.739
					c0.791,0,1.432,0.304,1.432,0.678v22.835c0,0.374-0.641,0.677-1.432,0.677l0,0c-0.791,0-1.432-0.304-1.432-0.677v-22.835
					C727.44,222.043,728.081,221.739,728.871,221.739z"/>
				<path id="rect719" fill="#B2802E" stroke="#000000" stroke-width="0.1723" d="M709.402,221.28L709.402,221.28
					c0.791,0,1.432,0.304,1.432,0.678v22.834c0,0.375-0.641,0.678-1.432,0.678l0,0c-0.791,0-1.432-0.304-1.432-0.678v-22.834
					C707.97,221.583,708.611,221.28,709.402,221.28z"/>
				<g id="g715" transform="matrix(.94101 -.33837 .33837 .94101 -41.713 263.18)">
					<path id="path716" fill="#004500" stroke="#000000" stroke-width="0.25" d="M735.08,207.162
						c3.617,0.295,5.46,3.036,5.093,7.417c-0.116,0.367,0.629,0.702,0.655,0.597c1.877-6.99,11.31-9.904,12.579,1.391
						c-0.077,1.69-1.98-1.571-3.079-3.938c-1.296-3.202-5.294-1.321-7.759,4.916c-0.713,1.357-2.104,4.391-2.104,4.391
						s-2.334-1.165-2.363-1.271c-0.03-0.106,0.794-8.548-2.501-10.635c-2.542-1.33-2.37,0.427-5.772-0.077
						c-3.052-0.812-2.826-1.176-0.299-1.277C731.473,209.272,733.656,207.127,735.08,207.162L735.08,207.162z"/>
					<path id="path717" fill="#004500" stroke="#000000" stroke-width="0.25" d="M734.338,211.32
						c3.591,0.517,5.263,3.368,4.627,7.717c-0.138,0.36,0.585,0.74,0.618,0.636c2.301-6.861,12.943-3.259,13.514,8.092
						c-0.181,1.681-0.871,1.295-1.823-1.136c-1.097-3.275-7.255-10.558-10.1-4.485c-0.796,1.312-2.371,4.254-2.371,4.254
						s-2.258-1.306-2.281-1.414c-0.022-0.108,1.318-8.484-1.843-10.769c-2.455-1.484-4.045,0.426-7.41-0.285
						c-2.996-0.998-2.747-1.348-0.219-1.292C727.498,212.728,732.918,211.199,734.338,211.32L734.338,211.32z"/>
					<path id="path718" fill="#004500" stroke="#000000" stroke-width="0.25" d="M733.509,216.336
						c3.537,0.805,4.976,3.78,3.991,8.064c-0.166,0.347,0.523,0.784,0.564,0.684c2.847-6.655,8.301-0.49,7.638,9.804
						c0.004,1.129-1.745-1.782-2.498-4.281c-0.83-3.354-0.427-8.756-3.751-2.933c-0.898,1.244-2.704,4.05-2.704,4.05
						s-2.146-1.483-2.16-1.593c-0.014-0.11,1.996-8.35-0.97-10.883c-2.328-1.676-6.107,4.009-9.404,3.029
						c-2.907-1.235-2.631-1.565-0.114-1.306C724.538,221.1,732.104,216.102,733.509,216.336L733.509,216.336z"/>
				</g>
				<g id="g707" transform="translate(-9.4432 -14.668)">
					<path id="path704" fill="#004500" stroke="#000000" stroke-width="0.25" d="M710.235,223.702
						c3.495-0.973,6.173,0.961,7.344,5.198c0.018,0.385,0.833,0.442,0.82,0.335c-0.657-7.208,6.919-9.927,12.016,0.232
						c0.513,1.612-2.383-0.739-4.233-2.581c-2.324-2.556-5.173-2.736-5.329,3.968c-0.199,1.521-0.456,4.849-0.456,4.849
						s-2.593-0.287-2.658-0.377c-0.064-0.089-2.211-8.294-6.025-9.114c-2.846-0.367-2.916-0.288-6.283,0.418
						c-3.145,0.293-3.059-0.127-0.722-1.095C705.156,225.439,708.887,224.163,710.235,223.702L710.235,223.702z"/>
					<path id="path705" fill="#004500" stroke="#000000" stroke-width="0.25" d="M710.97,227.868c3.549-0.757,6.103,1.338,7.01,5.64
						c-0.005,0.386,0.804,0.492,0.799,0.384c-0.213-7.234,7.516-9.482,11.98,0.97c0.412,1.641-2.333-0.883-4.067-2.834
						c-2.162-2.694-4.995-3.05-5.564,3.632c-0.293,1.505-0.753,4.812-0.753,4.812s-2.57-0.445-2.629-0.539
						c-0.058-0.092-1.697-8.416-5.453-9.466c-2.817-0.542-2.893-0.467-6.296,0.029c-3.157,0.1-3.045-0.314-0.653-1.137
						C705.794,229.29,709.596,228.245,710.97,227.868L710.97,227.868z"/>
					<path id="path706" fill="#004500" stroke="#000000" stroke-width="0.25" d="M711.933,232.86
						c3.598-0.469,5.976,1.824,6.534,6.185c-0.035,0.385,0.762,0.556,0.766,0.448c0.369-7.229,8.255-8.848,11.862,1.93
						c0.279,1.668-2.254-1.068-3.825-3.153c-1.939-2.86-4.734-3.442-5.837,3.173c-0.414,1.477-1.138,4.736-1.138,4.736
						s-2.526-0.651-2.577-0.749c-0.051-0.096-1.015-8.524-4.675-9.875c-2.765-0.767-2.847-0.697-6.279-0.476
						c-3.153-0.155-3.01-0.558-0.559-1.186C706.661,233.86,710.534,233.125,711.933,232.86L711.933,232.86z"/>
				</g>
				<g id="g711" transform="translate(6.0103 -.72439)">
					<path id="path701" fill="#004500" stroke="#000000" stroke-width="0.25" d="M735.08,207.161
						c3.616,0.296,5.46,3.038,5.092,7.419c-0.115,0.367,0.63,0.701,0.655,0.597c1.876-6.99,11.31-9.904,12.579,1.39
						c-0.076,1.69-1.98-1.57-3.079-3.938c-1.296-3.203-5.293-1.32-7.758,4.915c-0.713,1.359-2.105,4.392-2.105,4.392
						s-2.333-1.164-2.363-1.271c-0.03-0.107,0.794-8.549-2.502-10.637c-2.542-1.329-2.371,0.427-5.772-0.075
						c-3.052-0.812-2.826-1.178-0.298-1.277C731.472,209.272,733.656,207.127,735.08,207.161L735.08,207.161z"/>
					<path id="path702" fill="#004500" stroke="#000000" stroke-width="0.25" d="M734.337,211.321
						c3.592,0.517,5.264,3.366,4.627,7.716c-0.138,0.36,0.584,0.74,0.616,0.636c2.302-6.861,12.943-3.259,13.515,8.091
						c-0.18,1.683-0.871,1.296-1.823-1.135c-1.097-3.277-7.255-10.558-10.1-4.486c-0.795,1.313-2.371,4.255-2.371,4.255
						s-2.258-1.306-2.281-1.414c-0.023-0.108,1.318-8.484-1.842-10.771c-2.456-1.482-4.045,0.427-7.41-0.285
						c-2.996-0.998-2.749-1.348-0.22-1.292C727.498,212.727,732.918,211.198,734.337,211.321L734.337,211.321z"/>
					<path id="path703" fill="#004500" stroke="#000000" stroke-width="0.25" d="M733.508,216.336
						c3.538,0.806,4.976,3.781,3.992,8.065c-0.166,0.348,0.523,0.784,0.564,0.684c2.847-6.653,8.3-0.49,7.637,9.806
						c0.005,1.129-1.745-1.783-2.498-4.282c-0.829-3.354-0.427-8.756-3.75-2.932c-0.899,1.243-2.706,4.05-2.706,4.05
						s-2.145-1.484-2.16-1.594c-0.014-0.109,1.997-8.349-0.971-10.883c-2.327-1.676-6.106,4.01-9.403,3.03
						c-2.906-1.237-2.63-1.566-0.114-1.306C724.538,221.1,732.103,216.102,733.508,216.336L733.508,216.336z"/>
				</g>
			</g>
			<g id="g880">
				<path id="rect668" fill="#B2802E" stroke="#000000" stroke-width="0.1723" d="M827.482,222.49L827.482,222.49
					c0.79,0,1.431,0.303,1.431,0.677v22.833c0,0.375-0.641,0.678-1.431,0.678l0,0c-0.79,0-1.432-0.304-1.432-0.678v-22.833
					C826.049,222.793,826.691,222.49,827.482,222.49z"/>
				<g id="g722" transform="matrix(.89029 0 0 .81475 84.748 43.403)">
					<path id="path671" fill="#007500" stroke="#000000" stroke-width="0.333" d="M829.701,226.236l-14.131,8.113l9.086-9.834
						l9.101-1.802l-4.057,3.523H829.701z"/>
					<path id="path672" fill="#007500" stroke="#000000" stroke-width="0.333" d="M829.286,224.539l-19.631,2.119l17.119-5.248
						l7.528,1.132l-5.018,1.997L829.286,224.539z"/>
					<path id="path673" fill="#007500" stroke="#000000" stroke-width="0.333" d="M839.634,224.601l5.444,9.07l-8.647-6.873
						l-2.409-4.989l5.61,2.791L839.634,224.601z"/>
					<path id="path674" fill="#007500" stroke="#000000" stroke-width="0.333" d="M841.272,221.711l16.737,12.47l-20.134-8.675
						l-5.595-3.119l8.991-0.676H841.272z"/>
					<path id="path675" fill="#007500" stroke="#000000" stroke-width="0.333" d="M828.522,223.327l-20.056-6.096l19.728,0.158
						l6.631,5.96l-6.305-0.023L828.522,223.327z"/>
					<path id="path676" fill="#007500" stroke="#000000" stroke-width="0.333" d="M826.484,218.406l-9.521-10.257l14.205,7.618
						l3.378,7.797l-8.061-5.157L826.484,218.406z"/>
					<path id="path677" fill="#007500" stroke="#000000" stroke-width="0.333" d="M829.632,215.779l-5.573-11.646l10.291,9.541
						l-0.449,9.309l-4.27-7.203V215.779z"/>
					<path id="path678" fill="#007500" stroke="#000000" stroke-width="0.333" d="M835.63,215.193l12.56-9.202l-8.581,12.628
						l-5.745,4.422L835.63,215.193z"/>
					<path id="path679" fill="#007500" stroke="#000000" stroke-width="0.333" d="M839.753,216.151l16.159-2.711l-14.336,7.718
						l-7.553,1.654L839.753,216.151z"/>
					<path id="path680" fill="#007500" stroke="#000000" stroke-width="0.333" d="M839.575,219.094l19.742,2.361l-18.441,2.605
						l-6.051-1.503l4.748-3.463H839.575z"/>
					<path id="path681" fill="#007500" stroke="#000000" stroke-width="0.333" d="M831.633,227.074l-6.844,5.052l4.056-6.085
						l4.885-3.381L831.633,227.074z"/>
					<path id="path682" fill="#007500" stroke="#000000" stroke-width="0.333" d="M832.645,224.415l-10.51,5.606l8.754-7.132
						l3.91-1.41l-2.155,2.936H832.645z"/>
					<path id="path683" fill="#007500" stroke="#000000" stroke-width="0.333" d="M837.695,223.176l7.857,9.226l-9.464-7.342
						l-2.122-3.527L837.695,223.176L837.695,223.176z"/>
					<path id="path684" fill="#007500" stroke="#000000" stroke-width="0.333" d="M831.016,221.203l-10.374-7.96l10.149,5.637
						l3.445,3.234L831.016,221.203L831.016,221.203z"/>
					<path id="path685" fill="#007500" stroke="#000000" stroke-width="0.333" d="M836.597,220.09l9.663,1.381l-9.417-0.036
						l-2.94,0.627l2.696-1.972H836.597z"/>
					<path id="path686" fill="#007500" stroke="#000000" stroke-width="0.333" d="M833.333,216.151l7.336-7.282l-3.858,5.788
						l-3.066,6.801l-0.412-5.31V216.151z"/>
					<path id="path687" fill="#007500" stroke="#000000" stroke-width="0.333" d="M829.542,218.453l-7.963-0.492l8.263-1.863
						l4.289,5.175l-4.591-2.821L829.542,218.453z"/>
					<path id="path698" fill="#007500" stroke="#000000" stroke-width="0.333" d="M831.138,225.119l-13.736,4.745l11.441-6.037
						l5.11-1.194L831.138,225.119L831.138,225.119z"/>
				</g>
			</g>
		</g>
	</g>
</g>
</svg>
