<?xml version="1.0" encoding="utf-8"?>
<!-- Generator: Adobe Illustrator 16.0.0, SVG Export Plug-In . SVG Version: 6.00 Build 0)  -->
<svg version="1.2" baseProfile="tiny"
	 id="svg676" xmlns:cc="http://creativecommons.org/ns#" xmlns:dc="http://purl.org/dc/elements/1.1/" xmlns:rdf="http://www.w3.org/1999/02/22-rdf-syntax-ns#"
	 xmlns="http://www.w3.org/2000/svg" xmlns:xlink="http://www.w3.org/1999/xlink" x="0px" y="0px" width="512px" height="512px"
	 viewBox="0 0 512 512" xml:space="preserve">
<g id="flag">
	<rect id="rect124" x="0" fill="#000066" width="511.999" height="512"/>
	<rect id="rect5476" x="0" fill="#000066" width="512" height="256"/>
	<g id="g584" transform="matrix(8.5333 0 0 8.5333 -.000209 .0010152)">
		<path id="path146" fill="#FFFFFF" d="M0,0v3.354L53.292,30H60v-3.354L6.708,0L0,0L0,0z M60,0v3.354L6.708,30H0v-3.354L53.292,0H60
			z"/>
		<path id="path136" fill="#FFFFFF" d="M25,0v30h10V0H25z M0,10v10h60V10H0z"/>
		<path id="path141" fill="#CC0000" d="M0,12v6h60v-6H0z M27,0v30h6V0H27z"/>
		<path id="path150" fill="#CC0000" d="M0,30l20-10h4.472l-20,10H0z M0,0l20,10h-4.472L0,2.236V0z M35.528,10l20-10H60L40,10H35.528
			z M60,30L40,20h4.472L60,27.764V30z"/>
	</g>
	<g id="g8971" transform="matrix(1.1682 0 0 1.1682 -509.21 19.211)">
		<g id="path10718">
			<image width="8622" height="3145" xlink:href="E0B743E4C87D9FEA.png"  transform="matrix(0.0257 0 0 0.0257 639.2975 320.5519)">
			</image>
			<path fill="#FFFFFF" d="M750.016,405.584c-25.287,0-46.9-6.277-61.239-11.933c-8.845,6.821-20.323,11.779-27.591,11.779
				c0,0,0.001,0,0,0c-1.209,0-2.316-0.138-3.289-0.409c-6.247-1.744-13.537-16.818-17.454-24.916l-0.127-0.265l-3.977-7.451
				c-0.424-0.743-1.324-2.69-1.324-5.804c0-6.245,2.766-10.916,7.699-13.209c0.413-1.226,1.047-2.232,1.518-2.979
				c0.103-0.163,0.203-0.322,0.296-0.477l0.57-0.959c1.824-3.074,4.304-7.254,8.471-12.406c7.273-15.812,10.993-19.399,14.616-20.03
				c0.855-0.15,1.786-0.236,2.691-0.25v-0.001l0.384-0.003c3.681,0,7.646,0.793,9.181,1.134c2.749,0.611,6.352,1.412,7.432,4.037
				l20.911,19.761v1.844c0,1.016-0.959,12.661-4.022,24.283c14.036,4.625,29.233,6.968,45.242,6.968
				c15.96,0,31.138-2.342,45.181-6.969c-3.04-11.571-3.993-23.258-3.993-24.282v-1.845l20.922-19.761
				c1.081-2.626,4.685-3.421,7.435-4.028c1.531-0.338,5.489-1.124,9.168-1.124c1.141,0,2.171,0.079,3.061,0.234
				c3.634,0.634,7.351,4.202,14.583,19.905c4.164,5.144,6.64,9.328,8.462,12.406l0.645,1.085c0.087,0.145,0.18,0.293,0.273,0.445
				c0.471,0.754,1.105,1.771,1.516,3.013c4.947,2.295,7.723,6.965,7.723,13.207c0,3.114-0.899,5.061-1.323,5.804l-4.11,7.698
				c-11.216,23.196-15.269,24.325-17.448,24.933c-0.973,0.271-2.08,0.409-3.289,0.409c-7.269,0-18.745-4.96-27.592-11.779
				C796.884,399.306,775.276,405.584,750.016,405.584z M687.272,383.793l2.406,0.991c13.553,5.583,35.024,12.239,60.338,12.239
				c25.287,0,46.752-6.656,60.307-12.239l2.406-0.991l1.988,1.68c8.326,7.04,18.991,11.397,24.097,11.397
				c0.375,0,0.632-0.027,0.796-0.054c0.72-0.529,4.148-3.719,12.271-20.531l0.078-0.153l4.23-7.923
				c0.053-0.135,0.235-0.664,0.235-1.623c0-4.314-2.081-5.406-4.116-5.906l-4.015-0.986l0.787-3.765
				c-0.123-0.271-0.403-0.72-0.599-1.034c-0.124-0.198-0.244-0.392-0.358-0.583l-0.663-1.116c-1.829-3.09-4.104-6.935-8.068-11.773
				l-0.351-0.428l-0.23-0.503c-5.527-12.072-8.183-14.964-8.909-15.589c-0.287-0.028-0.674-0.052-1.182-0.052
				c-3.035,0-7.091,0.79-9.163,1.375l-0.603,0.533l-19.055,17.997c0.42,4.373,1.762,14.872,4.601,24.023l1.209,3.895l-3.833,1.395
				c-16.021,5.832-33.473,8.789-51.87,8.789c-18.452,0-35.925-2.958-51.935-8.789l-3.83-1.396l1.208-3.894
				c2.846-9.175,4.202-19.658,4.63-24.027l-19.597-18.518c-2.056-0.591-6.162-1.403-9.221-1.403l-0.245,0.003
				c-0.314,0.005-0.639,0.027-0.947,0.064c-0.773,0.649-3.37,3.529-8.943,15.717l-0.23,0.503l-0.351,0.429
				c-3.972,4.85-6.252,8.694-8.084,11.782l-0.586,0.984c-0.126,0.211-0.262,0.428-0.401,0.649c-0.188,0.298-0.455,0.721-0.581,0.986
				l0.795,3.742l-4.027,0.989c-2.902,0.713-4.085,2.424-4.085,5.906c0,0.813,0.13,1.316,0.202,1.533l0.188,0.228l-0.112-0.059
				l4.418,8.343c7.988,16.477,11.47,19.688,12.123,20.186c0.164,0.027,0.42,0.053,0.791,0.053c5.106,0,15.77-4.357,24.098-11.397
				L687.272,383.793z M820.36,323.148c0,0.027-0.013,0.317-0.048,0.636C820.343,323.581,820.36,323.369,820.36,323.148z
				 M679.636,323.148c0,0.221,0.017,0.432,0.048,0.635C679.649,323.464,679.636,323.174,679.636,323.148z M837.87,385.201
				c-1.194,0-2.354-0.129-3.449-0.384c-1.739-0.404-3.4-1.117-5.075-2.181l-5.914-3.756l6.041-3.548
				c3.936-2.311,7.448-4.63,10.158-6.706l7.018-5.376l-0.135,8.839c-0.014,0.932-0.068,1.889-0.124,2.902l-0.007,0.113
				c-0.149,2.651-0.637,4.968-1.493,7.085l-0.856,2.117l-2.234,0.468C840.449,385.057,839.128,385.201,837.87,385.201z
				 M662.111,385.201c-1.246,0-2.561-0.144-3.911-0.426l-2.235-0.468l-0.856-2.118c-0.88-2.179-1.378-4.496-1.523-7.081
				c-0.065-1.153-0.088-2.219-0.1-3.019l-0.135-8.842l7.018,5.38c2.707,2.075,6.219,4.394,10.157,6.706l6.046,3.549l-5.919,3.755
				c-1.642,1.042-3.36,1.775-5.108,2.181C664.451,385.073,663.295,385.201,662.111,385.201z M817.39,367.399l-1.787-4.74
				c-1.887-5.005-2.918-9.201-3.365-11.258c-0.103-0.468-0.191-0.989-0.278-1.505l-0.349-2.105l1.458-1.623
				c3.712-3.902,7.192-5.799,10.636-5.799h0.113c0.232,0.003,0.644,0.006,1.12,0.074c3.925,0.548,8.013,3.049,12.132,7.43
				l2.983,3.173l-3.224,2.927c-4.197,3.81-9.406,7.57-15.063,10.872L817.39,367.399z M820.828,350.577
				c0.251,1.061,0.611,2.457,1.102,4.09c1.947-1.288,3.797-2.621,5.52-3.976c-1.352-0.985-2.602-1.597-3.642-1.761l-0.063-0.002
				l-0.035,0.001l-0.005-4.28v4.28C823.658,348.929,822.728,348.952,820.828,350.577z M682.579,367.37l-4.378-2.557
				c-5.674-3.315-10.872-7.063-15.03-10.84l-3.224-2.928l2.984-3.172c4.124-4.385,8.202-6.886,12.121-7.432
				c0.406-0.055,0.758-0.066,0.997-0.07l0.212-0.003c3.44,0,6.919,1.896,10.636,5.797l1.475,1.547l-0.352,2.109
				c-0.096,0.579-0.186,1.105-0.289,1.581c-0.758,3.49-1.953,7.477-3.365,11.224L682.579,367.37z M672.541,350.681
				c1.712,1.344,3.556,2.671,5.5,3.957c0.492-1.629,0.849-3.01,1.098-4.056c-1.498-1.274-2.497-1.654-2.877-1.654v-4.28l-0.004,4.28
				l-0.102,0.003C675.453,349.04,674.244,349.433,672.541,350.681z"/>
		</g>
		<g id="path8617">
			<image width="1309" height="1359" xlink:href="E0B743E4C87D9FEE.png"  transform="matrix(0.0257 0 0 0.0257 655.0516 320.5427)">
			</image>
			<path d="M688.234,355.683c-0.068-0.109-6.987-11.28-12.55-10.512c-2.358,0.329-6.232,2.019-11.291,8.202
				c-0.14,0.171-0.234,0.283-0.275,0.327l-0.146,0.153l-0.246,0.013c-0.001,0-0.001,0-0.001,0c-1.246,0-8.787-9.344-9.092-10.057
				c-0.155-0.362-0.046-0.587,0.073-0.712c0.045-0.085,0.421-0.921,0.856-1.889c4.238-9.433,9.574-20.343,13.251-20.984
				c0.676-0.118,1.486-0.177,2.409-0.177c3.582,0,13.154,1.495,13.154,3.074c0.033,0.861,3.456,23.556,4.772,32.229L688.234,355.683
				z M676.232,344.141c4.523,0,9.369,6.005,11.601,9.156c-1.096-7.235-4.207-27.823-4.437-30.007
				c-0.888-0.632-7.424-2.25-12.174-2.25c-0.865,0-1.619,0.054-2.239,0.162c-3.629,0.633-10.317,15.52-12.516,20.413
				c-0.514,1.144-0.746,1.654-0.875,1.906c0.681,1.296,6.575,8.039,8.036,9.219c5.261-6.428,9.385-8.199,11.919-8.552
				C675.774,344.156,676.002,344.141,676.232,344.141z"/>
		</g>
		<g id="path8619">
			<image width="2524" height="3019" xlink:href="E0B743E4C87D9FE9.png"  transform="matrix(0.0257 0 0 0.0257 639.6528 323.6115)">
			</image>
			<path d="M661.16,401.633c-0.867,0-1.633-0.091-2.277-0.271c-6.085-1.697-19.133-31.65-19.686-32.925l0.814-0.541
				c0.12,0.125,12.096,12.523,22.021,12.523c0.837,0,1.645-0.089,2.405-0.267c10.078-2.341,16.431-19.826,18.596-29.788
				c1.939-8.913,0.402-26.533,0.386-26.71l-0.115-1.305l21.656,20.468v0.214c0,0.291-2.163,31.385-12.783,42.491
				C684.89,393.144,670.36,401.633,661.16,401.633z M641.143,370.386c4.368,9.732,13.711,28.822,18.007,30.02
				c0.557,0.155,1.233,0.234,2.01,0.234c7.183,0,21.393-6.49,30.299-15.802c9.862-10.311,12.303-38.911,12.495-41.603
				l-19.441-18.373c0.323,4.282,1.173,17.976-0.511,25.715c-2.214,10.19-8.779,28.091-19.341,30.545
				c-0.833,0.193-1.717,0.291-2.629,0.291C653.961,381.412,644.956,373.929,641.143,370.386z"/>
		</g>
		<g id="path1097">
			<image width="1309" height="1359" xlink:href="E0B743E4C87D9FEB.png"  transform="matrix(0.0257 0 0 0.0257 811.3028 320.5427)">
			</image>
			<path d="M811.371,356.262l-0.443-0.516c-0.149-0.173-0.149-0.173-0.038-0.907c2.917-19.255,4.672-31.115,4.695-31.726
				c0-1.572,9.572-3.067,13.155-3.067c0.923,0,1.733,0.059,2.409,0.177c3.678,0.641,9.014,11.554,13.253,20.99
				c0.433,0.965,0.808,1.799,0.892,1.933c0.079,0.075,0.189,0.3,0.034,0.662c-0.305,0.712-7.845,10.057-9.093,10.057h-0.212
				l-0.181-0.166c-0.04-0.043-0.134-0.155-0.272-0.323c-5.059-6.185-8.933-7.876-11.293-8.205
				c-5.56-0.762-12.482,10.403-12.55,10.512L811.371,356.262z M816.564,323.29c-0.231,2.184-3.341,22.776-4.437,30.009
				c2.344-3.312,7.584-9.766,12.287-9.111c2.535,0.354,6.659,2.124,11.918,8.551c1.462-1.18,7.355-7.923,8.036-9.218
				c-0.13-0.251-0.36-0.759-0.873-1.901c-2.198-4.894-8.887-19.785-12.518-20.418c-0.619-0.108-1.373-0.162-2.239-0.162
				C823.989,321.039,817.452,322.658,816.564,323.29z"/>
		</g>
		<g id="path1098">
			<image width="2524" height="3019" xlink:href="E0B743E4C87D9FE8.png"  transform="matrix(0.0257 0 0 0.0257 795.4957 323.6115)">
			</image>
			<path d="M838.8,401.633C838.8,401.633,838.8,401.633,838.8,401.633c-9.201-0.001-23.731-8.49-31.016-16.109
				c-10.622-11.106-12.784-42.2-12.784-42.491v-0.214l21.657-20.468l-0.115,1.304c-0.016,0.176-1.552,17.798,0.385,26.71
				c2.165,9.962,8.518,27.446,18.597,29.788c0.759,0.177,1.568,0.267,2.403,0.267c0.001,0,0.001,0,0.002,0
				c9.924-0.002,21.9-12.398,22.02-12.523l0.814,0.541c-0.553,1.275-13.6,31.228-19.685,32.925
				C840.433,401.542,839.667,401.633,838.8,401.633z M796.005,343.235c0.193,2.692,2.634,31.291,12.496,41.604
				c8.905,9.311,23.115,15.8,30.298,15.801c0.001,0,0.001,0,0.001,0c0.777,0,1.453-0.079,2.01-0.234
				c4.294-1.198,13.638-20.288,18.006-30.02c-3.813,3.544-12.818,11.025-20.888,11.026c0,0-0.001,0-0.002,0
				c-0.911,0-1.795-0.098-2.627-0.292c-10.563-2.454-17.129-20.354-19.342-30.544c-1.683-7.739-0.833-21.433-0.51-25.715
				L796.005,343.235z"/>
		</g>
		<g id="path1092">
			<image width="8001" height="2444" xlink:href="E0B743E4C87D9FF6.png"  transform="matrix(0.0257 0 0 0.0257 647.2667 338.56)">
			</image>
			<path d="M750.003,401.952c-51.101,0-92.919-26.844-98.589-34.994c-4.71-6.774-5.909-11.593-3.774-15.166l0.536-0.9
				c1.863-3.134,4.414-7.427,8.768-12.739l1.139-1.389v1.796c0,8.433,33.464,39.389,91.92,39.389s91.92-30.956,91.92-39.389v-1.796
				l1.139,1.389c4.292,5.236,6.814,9.491,8.655,12.6l0.618,1.04c2.146,3.59,0.956,8.408-3.742,15.165
				C842.923,375.108,801.105,401.952,750.003,401.952z M657.039,340.08c-3.74,4.706-5.955,8.432-7.759,11.468l-0.538,0.903
				c-1.845,3.088-0.661,7.464,3.726,13.774c2.41,3.465,13.884,12.151,30.855,19.793c14.844,6.683,38.462,14.65,66.68,14.65
				c28.219,0,51.837-7.967,66.681-14.65c16.971-7.641,28.444-16.328,30.855-19.794c4.375-6.292,5.549-10.669,3.694-13.773
				l-0.621-1.044c-1.781-3.006-3.967-6.694-7.646-11.327c-1.535,5.299-10.35,14.454-24.222,22.308
				c-13.572,7.685-36.515,16.845-68.741,16.845c-32.227,0-55.17-9.16-68.741-16.845C667.39,354.533,658.575,345.379,657.039,340.08z
				"/>
		</g>
		<g id="path1102">
			<image width="466" height="750" xlink:href="E0B743E4C87D9FF9.png"  transform="matrix(0.0257 0 0 0.0257 837.342 377.2037)">
			</image>
			<path d="M840.295,396.951c-0.258-0.001-0.414-0.183-0.538-0.329c-0.931-1.093-3.447-5.113-2.81-9.114
				c0.463-2.905,2.291-4.607,4.059-6.253c1.378-1.283,2.681-2.495,3.267-4.212l0.219-0.641l5.452,4.021l-0.221,0.385
				c-0.323,0.564-7.61,13.26-8.951,15.479c0.038,0.122,0.043,0.259-0.037,0.405l-0.142,0.257L840.295,396.951z M844.967,377.985
				c-0.738,1.628-2.03,2.83-3.283,3.997c-1.721,1.602-3.346,3.115-3.755,5.681c-0.511,3.203,1.278,6.454,2.188,7.786
				c1.558-2.622,7.322-12.656,8.525-14.752L844.967,377.985z"/>
		</g>
		<g id="path1103">
			<image width="898" height="1389" xlink:href="E0B743E4C87D9FFA.png"  transform="matrix(0.0257 0 0 0.0257 837.6538 356.1335)">
			</image>
			<path d="M848.883,392.02l-0.923-0.343c0.008-0.036,0.786-3.615-0.658-5.745c-0.566-0.835-1.382-1.328-2.492-1.507
				c-0.376-0.06-0.754-0.09-1.124-0.09c-2.602,0-4.375,1.461-5.228,2.163c-0.375,0.308-0.53,0.436-0.771,0.437h-0.263l-0.173-0.23
				c-0.183-0.27-0.064-0.571,0.063-0.889c0.246-0.615,0.657-1.202,1.134-1.882c1.223-1.746,2.899-4.139,3.179-9.118
				c0.386-6.862-0.377-10.577-0.385-10.613l-0.022-0.104l0.023-0.104c0.018-0.084,1.902-8.36,9.246-8.36
				c0.512,0,1.047,0.041,1.587,0.122c5.965,0.891,9.117,4.634,9.117,10.821c0,2.595-0.833,3.93-0.868,3.985L848.883,392.02z
				 M843.686,383.342c0.423,0,0.854,0.034,1.281,0.104c1.378,0.221,2.441,0.872,3.158,1.933c0.812,1.2,1.037,2.718,1.047,3.988
				l10.296-19.302c0.025-0.042,0.731-1.206,0.731-3.484c0-5.709-2.783-9.019-8.271-9.84c-0.492-0.074-0.976-0.11-1.44-0.11
				c-6.149,0-8.03,6.605-8.253,7.482c0.13,0.685,0.743,4.338,0.382,10.761c-0.296,5.262-2.066,7.788-3.358,9.633
				c-0.074,0.105-0.145,0.208-0.216,0.309C840.124,384.1,841.696,383.342,843.686,383.342z"/>
		</g>
		<path id="path1122" d="M819.644,365.629l1.69,2.955l1.141-0.712l-0.757-1.952l0.14-0.382l1.985-1.238l5.193,9.081l-0.128,0.441
			l-1.028,0.754l0.468,0.818l4.945-3.087l-0.467-0.818l-1.122,0.588l-0.434-0.091l-5.194-9.081l1.986-1.24l0.371,0.063l1.302,1.612
			l1.142-0.713l-1.69-2.955L819.644,365.629z"/>
		<path id="path1123" d="M807.445,372.622l0.411,0.849l1.04-0.439l0.41,0.132l4.458,9.215l-0.141,0.423l-0.955,0.612l0.411,0.85
			l4.868-2.569l-0.411-0.85l-1.075,0.459l-0.41-0.132l-2.115-4.373l4.971-2.623l2.115,4.373l-0.123,0.413l-0.991,0.632l0.411,0.849
			l4.85-2.56l-0.411-0.849l-1.039,0.44l-0.41-0.132l-4.459-9.215l0.141-0.422l0.956-0.614l-0.411-0.85l-4.85,2.56l0.411,0.85
			l1.075-0.458l0.392,0.141l1.839,3.8l-4.971,2.624l-1.839-3.801l0.141-0.422l0.991-0.633l-0.411-0.85L807.445,372.622z"/>
		<path id="path1124" d="M804.588,380.455l0.262,0.912l1.394-0.333l0.37,0.168l1.091,3.799c-0.47,0.187-0.815,0.316-1,0.374
			c-2.842,0.888-5.139-0.525-6.102-3.877c-0.935-3.259,0.207-5.725,2.958-6.586c0.536-0.167,1.06-0.23,1.618-0.181l0.373,0.248
			l0.918,1.864l1.347-0.421l-0.909-3.165c-1.484,0.017-2.852,0.222-4.072,0.603c-4.097,1.281-6.005,4.655-4.908,8.473
			c1.112,3.873,4.502,5.736,8.379,4.525c1.348-0.42,2.639-1.108,3.916-2.056l-1.246-4.339l0.22-0.354l1.044-0.428l-0.262-0.912
			L804.588,380.455L804.588,380.455z"/>
		<path id="path1125" d="M793.17,391.165l5.502-1.732l-0.274-0.911l-1.261,0.296l-0.384-0.205l-2.982-9.91l0.216-0.354l1.205-0.482
			l-0.273-0.911l-5.502,1.733l0.274,0.91l1.242-0.288l0.373,0.168l2.982,9.91l-0.205,0.39l-1.186,0.475L793.17,391.165z"/>
		<path id="path1128" d="M763.381,396.039l9.687-0.887l-0.295-3.464l-1.227,0.112l-0.132,2.081l-0.209,0.331l-4.184,0.383
			l-0.429-5.034l2.344-0.215l0.277,0.248l0.299,1.377l1.063-0.098l-0.383-4.492l-1.063,0.098l-0.062,1.411l-0.23,0.293l-2.345,0.215
			l-0.392-4.608l3.59-0.329l0.256,0.231l0.415,1.679l1.263-0.115l-0.259-3.04l-9.091,0.833l0.08,0.948l1.109-0.003l0.312,0.245
			l0.879,10.32l-0.263,0.336l-1.093,0.197L763.381,396.039L763.381,396.039z"/>
		<path id="path1129" d="M748.961,383.27l0.017,0.951l1.052,0.079l0.295,0.306l0.181,10.319l-0.285,0.315l-1.048,0.115l0.017,0.951
			l5.124-0.089l-0.017-0.952l-1.088-0.078l-0.295-0.306l-0.085-4.897l5.231-0.091l0.086,4.897l-0.266,0.315l-1.084,0.116
			l0.016,0.951l5.107-0.089l-0.017-0.952l-1.052-0.079l-0.295-0.305l-0.181-10.319l0.284-0.316l1.049-0.116l-0.017-0.951
			l-5.107,0.089l0.017,0.952l1.088,0.079l0.277,0.306l0.074,4.256l-5.232,0.092l-0.074-4.257l0.284-0.315l1.085-0.117l-0.017-0.952
			L748.961,383.27z"/>
		<path id="path1130" d="M737.964,382.901l-0.033,3.441l1.249,0.015l0.309-2.076l0.293-0.249l2.173,0.026l-0.099,10.572
			l-0.312,0.307l-1.178,0.083l-0.009,0.952l5.415,0.064l0.009-0.952l-1.177-0.11l-0.305-0.314l0.099-10.572l2.174,0.026l0.269,0.256
			l0.288,2.084l1.249,0.014l0.033-3.44L737.964,382.901z"/>
		<path id="path1131" d="M721.286,393.892l9.469,0.469l0.152-3.474l-1.2-0.059l-0.39,2.043l-0.243,0.299l-4.089-0.202l0.221-5.048
			l2.292,0.113l0.235,0.285l0.115,1.406l1.04,0.051l0.197-4.504l-1.04-0.051l-0.237,1.39l-0.259,0.258l-2.292-0.114l0.202-4.62
			l3.509,0.173l0.218,0.264l0.189,1.722l1.235,0.061l0.133-3.049l-8.886-0.44l-0.042,0.951l1.072,0.15l0.27,0.286l-0.453,10.347
			l-0.296,0.297l-1.079,0.043L721.286,393.892L721.286,393.892z"/>
		<path id="path1134" d="M699.588,388.277l5.025,1.694l0.278-0.906l-1.098-0.471l-0.179-0.386l3.028-9.858l0.349-0.169l1.154,0.287
			l0.278-0.906l-5.025-1.694l-0.278,0.905l1.08,0.467l0.19,0.349l-3.028,9.858l-0.359,0.206l-1.137-0.283L699.588,388.277z"/>
		<path id="path1135" d="M690.654,384.806c0.918,0.758,1.981,1.342,3.057,1.704c2.757,0.93,4.942-0.089,5.618-2.29
			c0.335-1.091,0.104-2.271-0.66-3.285c-0.775-1.036-1.582-1.614-1.995-2.141c-0.708-0.892-1.01-1.606-0.748-2.457
			c0.313-1.018,1.296-1.501,2.522-1.088c0.538,0.181,0.897,0.403,1.148,0.671l0.156,0.339l-0.305,2.021l1.21,0.408l0.92-2.996
			c-0.934-0.765-1.924-1.343-2.967-1.694c-2.403-0.81-4.455,0.253-5.084,2.306c-0.279,0.908-0.155,1.949,0.398,2.931
			c0.529,0.934,1.223,1.516,1.781,2.112c0.989,1.068,1.39,1.938,1.083,2.936c-0.313,1.018-1.347,1.486-2.708,1.027
			c-0.521-0.176-0.979-0.433-1.399-0.757l-0.134-0.35l0.413-2.311l-1.278-0.431L690.654,384.806L690.654,384.806z"/>
		<path id="path1136" d="M679.298,380.053l8.557,4.278l1.431-3.137l-1.083-0.541l-1.119,1.722l-0.335,0.177l-3.696-1.848
			l2.079-4.558l2.071,1.035l0.112,0.358l-0.417,1.341l0.94,0.471l1.855-4.068l-0.94-0.47l-0.735,1.184l-0.335,0.133l-2.071-1.036
			l1.903-4.172l3.17,1.585l0.104,0.331l-0.464,1.664l1.115,0.558l1.256-2.753l-8.032-4.015l-0.392,0.859l0.932,0.574l0.143,0.373
			l-4.262,9.345l-0.383,0.152l-1.012-0.399L679.298,380.053L679.298,380.053z"/>
		<path id="path1141" d="M677.857,364.48l-4.307-2.967l-0.5,0.795l0.848,0.701l0.073,0.422l-5.421,8.616l-0.4,0.097l-0.951-0.54
			l-0.5,0.795l4.307,2.967c1.475,1.017,2.734,1.535,4.138,1.387c1.829-0.183,3.388-1.249,4.592-3.162
			C681.881,370.183,681.279,366.839,677.857,364.48L677.857,364.48z M676.06,364.546l0.856,0.589
			c2.345,1.615,2.551,3.875,0.633,6.925c-1.919,3.05-3.994,3.76-6.34,2.145l-0.855-0.59L676.06,364.546z"/>
		<path id="path1144" d="M710.368,377.977l-0.192,0.931l0.999,0.32l0.222,0.328l-2.087,10.134l-0.339,0.242l-1.038-0.13
			l-0.191,0.931l4.867,1.076l0.191-0.931l-1.033-0.327l-0.213-0.365l0.881-4.278l0.293,0.064c1.742,0.385,2.023,1.302,2.186,3.226
			c0.088,0.973,0.067,1.864,0.808,2.823c0.34,0.453,0.931,0.822,1.674,0.986c0.534,0.119,1.133,0.191,1.755,0.23l0.188-0.913
			l-0.224-0.05c-1.156-0.255-1.614-0.655-1.762-1.781c-0.132-1.022-0.059-2.079-0.421-3.035c-0.271-0.695-0.784-1.186-1.569-1.579
			c2.032,0.032,3.279-0.845,3.639-2.594c0.435-2.112-0.711-3.558-3.386-4.149L710.368,377.977z M713.682,379.843l0.794,0.176
			c1.673,0.37,2.373,1.439,2.052,2.998c-0.36,1.75-1.405,2.354-3.251,1.945c-0.191-0.042-0.397-0.088-0.618-0.156L713.682,379.843
			L713.682,379.843z"/>
		<path id="path1147" d="M777.108,380.947l0.149,0.94l1.138-0.095l0.347,0.216l1.612,10.224l-0.256,0.359l-1.108,0.287l0.148,0.94
			l5.363-0.916l-0.148-0.94l-1.175,0.103l-0.353-0.254l-0.68-4.316l0.324-0.055c1.92-0.328,2.545,0.412,3.422,2.133
			c0.449,0.868,0.757,1.703,1.867,2.301c0.515,0.286,1.254,0.395,2.072,0.256c0.589-0.101,1.226-0.268,1.877-0.477l-0.145-0.922
			l-0.247,0.043c-1.275,0.217-1.889,0.028-2.456-0.96c-0.512-0.896-0.828-1.906-1.55-2.65c-0.534-0.538-1.24-0.793-2.184-0.848
			c2.085-0.771,3.032-2.074,2.755-3.839c-0.336-2.129-2.04-3.02-4.988-2.517L777.108,380.947L777.108,380.947z M781.18,381.374
			l0.875-0.15c1.844-0.314,2.953,0.402,3.201,1.974c0.278,1.766-0.564,2.736-2.598,3.084c-0.21,0.036-0.438,0.074-0.689,0.098
			L781.18,381.374L781.18,381.374z"/>
		<g id="path8623">
			<image width="466" height="750" xlink:href="E0B743E4C87D9FF8.png"  transform="matrix(0.0257 0 0 0.0257 650.7059 377.2037)">
			</image>
			<path d="M659.705,396.951h-0.294l-0.146-0.261c-0.079-0.145-0.074-0.283-0.037-0.404c-1.343-2.22-8.629-14.915-8.952-15.479
				l-0.22-0.385l5.452-4.021l0.219,0.641c0.586,1.716,1.888,2.928,3.267,4.212c1.768,1.646,3.596,3.348,4.059,6.253
				c0.639,4.004-1.878,8.023-2.81,9.116C660.117,396.769,659.962,396.951,659.705,396.951z M651.357,380.697
				c1.203,2.096,6.967,12.131,8.526,14.752c0.91-1.333,2.698-4.585,2.188-7.785c-0.409-2.567-2.034-4.08-3.755-5.683
				c-1.253-1.166-2.544-2.368-3.283-3.996L651.357,380.697z"/>
		</g>
		<g id="path8778">
			<image width="898" height="1389" xlink:href="7A7CD010FA281D2D.png"  transform="matrix(0.0257 0 0 0.0257 639.2633 356.1335)">
			</image>
			<path d="M651.077,392.02l-11.461-21.487c-0.016-0.023-0.849-1.358-0.849-3.952c0-6.188,3.153-9.93,9.117-10.821
				c0.541-0.081,1.075-0.122,1.587-0.122c7.345,0,9.229,8.276,9.247,8.36l0.023,0.104l-0.022,0.104
				c-0.008,0.037-0.772,3.752-0.385,10.613c0.28,4.979,1.955,7.371,3.179,9.118c0.476,0.68,0.887,1.266,1.133,1.882
				c0.126,0.318,0.247,0.618,0.063,0.889l-0.147,0.217l-0.288,0.013c-0.241,0-0.396-0.128-0.772-0.437
				c-0.853-0.702-2.627-2.163-5.228-2.163c-0.37,0-0.747,0.03-1.123,0.09c-1.111,0.179-1.926,0.672-2.492,1.507
				c-1.444,2.13-0.667,5.709-0.659,5.745L651.077,392.02z M649.471,356.63c-0.464,0-0.948,0.037-1.44,0.11
				c-5.488,0.821-8.271,4.131-8.271,9.84c0,2.278,0.707,3.442,0.714,3.453l10.313,19.333c0.01-1.27,0.235-2.789,1.047-3.988
				c0.718-1.061,1.781-1.711,3.158-1.933c0.428-0.069,0.859-0.104,1.281-0.104c1.99,0,3.562,0.758,4.642,1.472
				c-0.069-0.1-0.142-0.203-0.216-0.308c-1.292-1.845-3.061-4.37-3.357-9.633c-0.363-6.429,0.253-10.082,0.382-10.763
				C657.5,363.186,655.682,356.63,649.471,356.63z"/>
		</g>
		<path id="path703" fill="#0072C4" fill-opacity="0.9961" stroke="#FFFFFF" stroke-width="3.8666" d="M749.996,372.615
			c0,0-95.388-28.112-94.832-135.06l0.735-141.367h188.198l0.737,140.56c0.557,106.95-94.837,135.879-94.837,135.879
			L749.996,372.615z"/>
		<g id="g8591">
			<path id="path1019" fill="#BCBCBC" d="M668.992,128.191c0.156,0,1.312-1.097,2.371-2.065c1.478-0.741,2.846-1.781,4.348-2.479
				c1.119-0.648,3.331-1.15,4.346-1.653c1.332-0.697,2.418-1.5,3.558-2.893c0.136-1.849,0.395-3.176,0.395-5.371
				c1.572-0.756,2.967-1.49,4.346-2.066c1.978-0.557,2.407-1.348,4.348-1.653c1.25-0.436,3.315-0.414,5.137-0.414
				c1.966,0,3.207,1.398,4.974,1.728c2.094,0.845,3.071,1.429,4.742,2.893c0.943,1.194,1.53,2.165,3.138,3.064
				c1.274,0.653,2.466,1.642,3.952,2.065c1.631,0.945,3.079,1.493,4.346,2.893c1.161,0.825,1.64,2.051,2.767,2.892
				c1.305,1.083,2.543,2.057,3.952,2.893c1.694,1.134,3.371,1.997,6.114,1.749c1.452-0.086,3.015-0.252,4.742,0.07
				c1.934,0,3.82-0.034,5.533,0.414c2.015,0,3.646,0.273,5.532,0.413c1.766,0.331,3.567,0.414,5.532,0.414
				c1.714,0.447,3.6,0.413,5.533,0.413h5.532h5.532c2.014,0,4.052,0.082,5.533,0.414c1.994,0,3.709-0.186,5.532-0.414
				c2.146,0,3.783-0.392,5.929-0.413h6.719c1.725,0.472,3.929,0.796,5.137,1.653c1.582,0.451,2.37,1.2,3.952,1.653
				c1.211,0.622,3.052,1.605,3.952,2.892c1.115,1.166,2.26,2.836,3.162,4.546c1.1,1.587,1.518,3.401,2.371,5.371
				c0.451,1.888,0.767,3.684,0.79,5.785c0.429,1.792,0.396,3.763,0.396,5.785c-0.451,1.884-0.55,3.981-1.186,5.785
				c-0.069,2.016-0.471,3.841-0.791,5.372c-0.351,1.691-0.765,2.78-0.79,4.958v5.785c-0.139,1.898-0.554,3.291-0.79,5.371
				c-0.956,1.805-1.872,3.915-2.766,6.199c-1.315,0.916-2.456,2.22-3.162,3.306c-0.843,0.521-1.332,1.312-1.186,1.653
				c1.58,0.55,1.186,1.649,1.186,3.718c0.205,1.593,0.359,3.569,0.791,5.373c0.144,1.973,0.566,3.178,1.185,4.544
				c0.624,0.814,0.745,0.414-0.79,0.414c-1.142,0.895-2.298,0.427-2.766-1.24c-0.922-1.113-1.226-2.459-1.581-4.545
				c-0.218-1.914-0.525-3.778-1.186-4.959c-0.202-2.328-0.822-2.305-3.162-2.479c-1.113-0.986-2.582-1.24-4.742-1.24
				c-2.152,0-2.332-0.22-2.372,2.066v5.785c-0.372,1.677-1.187,3.036-1.581,4.545c-1.179,0.864-1.792,2.313-3.162,3.306
				c-0.652,1.876-1.601,2.202-3.557,2.479c-0.684-0.854-1.8-1.969-2.372-2.892c1.107-1.857,2.073-2.137,2.767-4.132
				c0.84-1.645,1.333-2.713,1.975-4.132c-0.843-1.299-1.601-1.885-2.371-3.72c-0.65-0.999-1.551-3.151-1.975-4.545
				c-1.297-0.452-3.341-0.525-4.348-1.24c-1.917-0.446-2.454,1.653-4.741,1.653h-5.533c-2.447,0-3.057,1.366-5.138,1.241
				c-0.611,0.198-2.093-0.087-4.348,0c-1.651,0.575-3.641,0.413-5.532,0.413c-2.005-0.025-3.645-0.487-5.137-0.826
				c-1.816-0.497-3.621-1.001-5.532-1.239c-2.321,0-3.184,0.185-4.742,1.239c-1.233,0.731-3.02,2.403-4.348,3.305
				c-0.562,1.371-0.854,3.692-1.581,5.373c-0.42,1.612-1.103,2.634-1.581,4.132c-0.535,1.398-1.041,2.836-1.185,4.959
				c-0.135,2.785-0.742,2.443-2.372,1.653c-0.679-1.153-1.761-2.422-2.371-3.719c0.359-2.103,0.764-3.149,0.79-5.372
				c-0.385-1.603-1.282-1.552-2.371-0.414c0,2.163,0.099,3.832-0.791,4.959c-0.445,1.707-1.16,2.445-2.371,3.305
				c-0.592,1.534-1.906,2.236-3.162,2.893c-0.201-0.07,0-0.553,0-1.653c-0.947-1.89-0.069-3.458-0.069-5.786
				c0.024-2.087-0.094-3.469,0.512-5.372c0-2.003-0.93-3.909-1.233-5.371c-0.735-1.535-1.159-2.294-3.162-2.893
				c-1.408-0.56-3.437-1.316-4.348-2.479c-1.147-1.488-1.879-2.1-3.556-2.892c-1.818-0.658-2.701-1.261-3.952-2.067
				c-1.222-1.347-2.214-1.932-2.767-3.718c-0.824-1.271-0.966-3.631-1.581-5.372c-0.134-1.814-0.654-3.5-1.185-4.958
				c-0.235-1.814-0.521-3.142-1.186-4.959c-0.22-1.699-0.711-3.476-1.185-5.371c0-2.022,0.033-3.995-0.395-5.785v-5.785
				c-0.285-1.67-0.39-4.115-0.791-5.372c0-2.248-0.239-3.517-0.79-4.958c-0.905-1.46-0.978-2.115-2.372-2.479
				c-1.006,1.284-2.666,1.807-4.742,2.066c-1.45-0.33-3.498-0.546-5.138-1.24c-1.585-0.39-2.668-1.017-3.952-1.653
				c-0.702-1.08-1.541-2.303-2.372-3.306c-0.245-2.158-0.716-3.269-0.79-5.371C667.412,129.507,667.449,130.344,668.992,128.191
				L668.992,128.191z"/>
			<path id="path1022" fill="#FEFEFE" d="M692.4,143.08c0.094-0.097,0.186-0.194,0.279-0.292c-0.634,0.664-0.402,0.344,1.118-0.292
				c0.85-0.535,2.466-1.478,3.075-2.046c0.73-0.335,1.892-0.771,2.514-1.46c0.779-0.831,1.557-1.519,2.515-2.338
				c1.107-0.939,2.138-1.247,3.354-2.046c1.581-0.118,2.153-0.795,3.632-0.292c1.387,0.315,1.962,0.324,3.074-0.877
				c1.122-0.718,2.356-1.416,2.795-2.63v-1.752c-0.021,1.909-0.365,2.528-1.677,3.213c-0.914,1.047-2.053,2.232-2.515,3.214
				c-0.888,1.285-1.076,2.005-1.956,2.63c-0.722,0.92-1.961,1.407-2.234,2.921c0.399,0.696,0.034,1.076,0.838,1.169
				c0.809,0.696,1.651,0.399,2.795,0c1.137-1.316,1.648-2.166,2.235-3.506c0.939-1.281,1.464-1.891,1.957-2.922
				c0.971-0.705,1.588-1.254,1.956-2.338c1.124-0.657,2.048-1.35,2.794-2.046c0.835-0.537,1.278-0.973,2.515-1.169
				c-0.018,1.57-0.25,2.311-0.838,3.214c-0.278,1.628-0.222,2.399,0.28,3.507c0.803,0.496,0.66,0.928,1.118,2.046
				c0.456-0.966,0.687-2.922,0.838-4.091v-0.292c0,1.277,0.116,2.972-0.279,3.799c0.018,1.703,0.397,2.464,0.838,3.798
				c0.47,0.644,0.803,1.062,1.397,1.461c0.056-1.686,0.477-2.797,0.559-4.382c0.39,1.223,0.259,2.841,0.559,4.09
				c0.101,1.375,0.599,2.441,1.118,3.507c0.636,0.393,0.852,1.552,1.117,0.584c0.661-2.056,0.677-4.305,1.118-6.429
				c0.079-1.078,0.166-2.682,0.558-3.506l-0.558,3.506c0.079-1.078,0.166-2.682,0.558-3.506v-0.292
				c0.261,1.539,0.507,3.025,0.559,4.674c0,1.316-0.084,2.655,0.279,3.799c0.93-0.43,1.469-1.439,1.957-2.63
				c0.745-1.412,1.254-2.039,2.235-3.213l-2.235,3.213c0.745-1.412,1.254-2.039,2.235-3.213v-0.292
				c-0.154,1.348-0.279,2.617-0.279,4.09c0,1.348-0.015,2.875,0.279,3.799c0.329,1.55,0.779,1.837,0.838,3.506
				c0,0.813-0.106,1.643,0.28,2.046c1.204,0.315,1.207-0.386,1.397-2.046c0.015-1.884,0.497-3.17,0.558-4.967
				c0-2.217,0.313,0.27,0.559,1.169c0.564,1.301,0.74,2.458,0.838,3.798c0,0.813-0.105,1.643,0.279,2.046
				c1.08-0.447,1.507-1.709,2.236-2.338c0.556-1.385,1.132-1.995,1.677-2.921c1.448-0.303,1.377-0.898,1.397-2.63
				c0-1.398-0.109-2.869,0.28-4.091c0.447-1.269,0.869-2.683,1.118-3.798c0.522-0.312,1.086,0.46,1.396,1.169
				c0.612,0.941,0.559,2.315,0.559,3.797c0.269,1.293,0.807,2.303,1.397,3.507c0.701,1.35,1.27,2.168,1.956,2.922
				c0.295,0.925,0.28,2.452,0.28,3.798c1.088-1.236,1.297-3.08,1.397-4.966c-0.146-1.284-0.173-2.883-0.558-4.091
				c-0.044-1.287-0.275-2.616-0.559-3.506c-0.943-0.454-1.093-0.856-0.279-2.046c0.899-0.777,1.87-0.477,3.354-0.292
				c0.75,0.784,1.058,1.203,1.118,2.921c0,1.557,0.066,2.753,0.559,3.799c0.546,0.841,1.088,1.419,1.396,2.923
				c0.428,0.366,0.76,0.958,1.397,0.292c0.35-0.856,0.557-2.621,0.839-3.507c0.273-1.109,0.765-1.654,1.398-2.046
				c0,1.626-0.019,2.624,0.558,3.799c0.548,1.305,0.927,1.796,1.398,3.215c0.596,0.415,0.671,1.31,1.398,1.752
				c0.171-1.372,0.279-2.943,0.279-4.674v-4.091c0.103-1.392,0.44-2.175,0.838-3.213c0.9,1.121,0.839,1.585,0.839,3.213
				c0.92-0.342,1.073-1.002,1.396-2.044c0.656-0.578,0.836-0.848,1.118,0.583c0.196,1.529,0.569,2.905,0.839,4.384
				c0.576,0.674,1.24,2.307,1.957,2.922c0.492,0.836,1.044,1.644,1.676,2.338c0.436,0.961,0.547,1.464,1.677,1.752
				c0-1.977,0.066-3.96-0.279-5.843c0-1.679-0.367-2.278-0.559-3.799c-0.465-1.007-0.74-2.492-0.558-2.921
				c1.308,1.299,1.9,2.052,2.515,3.506c0.655,1.404,1.207,2.348,1.675,3.799c0.646,0.554,1.791,2.218,2.236,2.923
				c0.997,0.891,1.483,1.819,2.515,2.629c0.533,0.502,1.661,0.783,1.956,0.584c-0.052-1.714-0.313-3.184-0.838-4.674
				c-0.019-1.636-0.394-2.524-0.838-3.507c-1.099-0.948-1.933-1.595-2.515-2.922c-0.432-0.37-0.517-0.647-0.559-1.46
				c1.607,1.329,2.728,2.514,3.913,4.09c0.8,1.038,1.208,1.509,2.235,2.046c0.557,0.624,2.179,1.402,3.353,1.753
				c0.704,0.934,1.645,1.47,2.795,1.753l-2.795-1.753c0.704,0.934,1.645,1.47,2.795,1.753v0.292
				c-0.141-1.827-0.812-3.163-1.677-4.675c-0.728-1.599-1.395-2.191-2.515-3.215c-0.731-1.157-1.549-1.84-2.794-2.629
				c-0.771-0.907-1.926-2.413-2.515-2.923c1.191-0.748,2.591,0.507,3.912,1.169c1.09,1.182,2.109,2.723,2.794,3.506
				c0.745,1.502,1.315,2.43,2.515,3.799c1.204,0.714,2.04,1.42,3.074,2.338c1.601,0.443,0.962-0.143,0.559-1.461
				c-0.553-1.649-0.061-1.675,1.118-0.584c0.777,0.554,1.644,1.477,2.794,2.046c0.497,0.644,1.246,1.001,1.956,0.584
				c0.296-0.413,0.279-0.366,0.279-0.877c-0.588-1.813-1.134-3.225-2.515-3.799c-0.632-0.807-1.661-1.767-2.514-2.63
				c-0.557-0.856-1.205-1.349-1.677-2.337l1.677,2.337c-0.557-0.856-1.205-1.349-1.677-2.337h-0.279
				c1.687,0.062,2.287,0.491,3.631,1.169c0.958,0.349,1.992,1.263,2.515,2.044c0.545,0.723,1.418,1.501,1.957,2.338
				c0.859,0.661,1.806,1.414,2.795,2.046c0.93,1.219,1.096,2.013,1.118,3.799c0.536,0.826,0.632,2.516,0.837,3.506
				c-0.205,1.606-0.755,0.345-0.837-0.585c-0.237-1.29-0.728-1.223-1.677-0.877c0,1.765,0.195,2.248,0.839,3.507
				c-0.175,1.206-0.575,2.088-1.118,2.922c-0.653,0.389-0.793-0.859-1.398-1.461c-0.064-1.807-0.573-2.006-1.677-2.922v1.169
				c0.624,1.247,1.281,2.384,1.398,4.091c0.431,1.302,0.559,2.125,0.559,3.798c0,1.431,0.023,2.825-0.28,4.091
				c0,1.586-0.262,2.265-0.279,3.799v4.09v4.091c-0.215,1.034-0.279,2.382-0.279,3.798l0.279-3.798
				c-0.215,1.034-0.279,2.382-0.279,3.798v0.292c-0.532-1.468-1.109-2.797-1.398-4.382c-0.905-0.897-1.48-1.821-1.956-2.922
				c-0.214-1.254-0.348-2.785-0.559-3.799c-0.393-1.029-0.811-2.128-1.677-1.46c-0.343,2.178,0.09,3.475,0.839,5.551
				c0.439,1.376,0.391,2.458,0.838,3.799c0.648,1.544,1.169,1.766,0,3.505c-0.577,0.927-0.885,1.22-1.118,2.338
				c-1.033,0.54-1.292,0.781-1.396,2.046c-0.348-1.137-1.193-2.469-1.677-3.799c-0.501-1.399-1.119-2.836-1.398-4.09
				c-0.678-0.978-1.473-2.561-2.235-3.215c-0.702-0.944-1.71-2.517-2.236-3.507c-1.07-1.247-1.307-1.969-2.234-2.629
				c-0.239-0.583-0.523-1.312-1.118-0.877c0,1.398-0.11,2.868,0.279,4.09c0.282,1.723,0.777,2.679,0.839,4.383v3.215
				c-0.671-1.646-1.389-3.116-1.956-4.676c-0.611-0.873-1.208-2.572-1.956-3.215c-0.476-1.133-0.847-2.073-1.398-2.921
				c-0.143-0.849-0.518-0.84-0.838-1.461c0.019,1.657,0.522,2.237,0.838,3.506c0.545,1.113,0.72,2.979,0.559,3.507
				c-0.705-2.049-1.343-4.287-2.236-6.135c-0.848-1.201-1.674-2.744-2.236-3.799c-0.831-1.004-1.685-1.037-2.514-1.753
				c-0.755-0.374-1.477-0.792-1.956-1.461c0.22,1.541,0.794,2.503,1.118,3.799c0.183,1.469,0.829,2.646,1.118,3.799
				c-0.311,1.999-0.762-0.554-1.118-1.461c-0.294-1.645-0.839-2.558-1.398-3.507c-0.748-0.533-1.43-1.478-2.235-2.046
				c-0.784-0.315-0.559,0.057-0.559,1.169c0,1.808,0.066,3.001,0.559,4.091c0.558,0.857,0.558,1.974,0.558,3.506
				c-0.049,1.439-0.279,2.593-0.279,4.091v2.338c-0.641-1.243-1.251-1.948-1.677-3.507c-0.97-1.326-1.256-2.301-1.956-3.798
				c-0.619-0.26-1.628-0.476-2.234,0c0.109,1.478,0.762,2.129,0.838,3.798c-1.114,1.141-0.913,1.467-1.677-0.292
				c-0.637-1.332-1.379-1.269-2.236-2.046c-1.402-0.183-0.957-1.08-1.397-2.337c0-1.125,0.111-2.261-0.28-3.215
				c-1.531,0-2.41-0.056-3.352,0.877c-0.444,0.925-0.287,2.597,0,3.797v4.091c-0.318,1.024-0.95,1.079-1.118,2.338
				c-0.54,1.247-0.718,2.623-1.118,3.507c-0.996,0.898-0.563,1.012-1.118-0.585v-5.26v-4.092c0-1.588,0.229-2.362,0.28-3.797
				c-0.579-1.211-0.737-1.439-2.515-1.461c-0.433,0.755-0.268,2.157,0,2.922c0,1.417,0.064,2.765,0.279,3.798
				c0,1.552,0.183,2.493,0.279,3.799c-0.053,1.549-0.341,2.783-1.118,3.507c-1.008,0.263-0.11,0.904-1.118,1.169
				c-1.011-0.507-2.198-1.195-3.073-2.046c-1.087-0.346-2.111-0.585-3.633-0.585c-1.853-0.024-1.884-0.249-2.515-1.753
				c-0.567-1.609-0.833-3.009-1.118-4.675c-0.614-1.367-0.758-2.3-1.118-3.798c-0.469-0.892-0.97-1.567-1.675-2.046
				c-0.405,1.477-0.786,2.714-0.838,4.383c-0.328,0.684-0.396,2.425-0.559,3.213c-0.561-0.865-0.782-2.565-1.118-3.798
				c-0.53-1.772-0.982-2.922-2.795-2.338c-1.881,0.024-1.934,0.078-1.956,2.046c0.809,1.268,1.674,2.499,2.235,3.505v4.091
				c0,1.689,0.099,2.178-1.118,2.63c-0.463-1.753-1.445-3.427-2.515-4.968c-0.147-1.191-0.513-0.877-1.676-0.877
				c-0.777,0-1.572-0.11-1.956,0.292c0,1.018,0.084,2.432,0,2.63c-0.674,0.124-0.945-0.007-1.397-0.585
				c-0.488,0.851-0.12,2.048,0,3.215c-0.355,1.3-0.779,2.487-1.398,3.213c-0.124-0.389-0.404-0.292,0-0.292
				c-1.919-0.736-3.418-1.191-5.029-1.752c-0.971,0.126-1.674,1.018-2.236,1.752c-1.42,0.477-2.048,0.857-3.633,0.877
				c-1.52,0-2.26,0.239-3.633,0.292c-0.988,0.225-2.278,0.292-3.632,0.292c-0.751-0.224-2.064-0.23-2.515-0.584
				c0.577-0.861,1.22-1.296,1.677-2.629c0.765-0.545,1.482-1.243,2.236-2.046c0.737-0.525,1.601-1.612,2.234-2.338
				c0.436-1.407,1.036-1.65,1.956-2.338c1.662,0.065,1.985,0.592,3.633,0.877c1.608,0.609,2.499,0.789,3.354-0.293
				c1.334-0.564,2.467-1.447,3.911-1.753c1.119-0.56,1.837-1.103,2.795-1.753c1.189-0.716,1.755-1.451,2.795-2.337
				c0.298-1.192,1.139-2.112,0.838-3.507c-1.512-0.395-2.472-0.237-3.353,0.584c-1.223,1.008-1.455,1.427-2.795,2.338
				c-1.157,0.329-1.651,0.838-3.074,1.169c-1.167,0.407-2.575,0.292-3.911,0.292c-1.221,0-2.843-0.122-3.633,0.292
				c1.243-0.837,2.736-1.707,3.912-2.046c1.129-0.758,1.554-1.141,3.075-1.169c0.706-0.923,1.433-0.945,1.675-2.338
				c0.473-1.728-1.031-1.181-2.235-0.584c-1.135,0.209-2.389,1.013-3.354,1.461c-0.932,0.325-2.294,0.567-3.633,0.584
				c-0.353-0.526,0.276-0.947,0.559-1.753c1.305-0.463,1.515-0.633,1.677-2.046c-1.48,0.205-2.046,0.692-3.354,0.877
				c-1.427,0.373-2.907,0.538-4.471,0.584h-3.912c-1.374-0.053-2.113-0.292-3.632-0.292c-1.113-0.582-1.118-0.858-1.118-2.63
				c0.876-1.007,1.729-0.875,3.352-0.875c1.251-0.615,2.223-0.941,3.075-1.461c1.012-0.218,1.702-0.65,1.397-1.169h-3.912
				c-1.506-0.637-0.069-0.93,0.839-1.461c1.359,0,2.762,0.081,3.633,0.584c1.68-0.065,2.266-0.596,3.631-1.753
				c1.072-0.882,1.597-1.445,2.795-2.046c0.861-0.95,1.674-1.474,2.235-2.338c1.149-1.093,1.911-1.7,2.515-2.629
				c0.74-0.408,1.191-0.933,0.838-1.461c-1.751,0.213-2.459,0.85-3.633,1.753c-0.681,0.678-1.343,1.287-2.236,1.753
				c-1.258,0.747-2.042,1.05-3.631,1.167c-1.435,0-2.537-0.241-3.913-0.292c-1.517-0.158-0.12-0.512,0.28-1.167
				c0.586-0.41,1.044-1.32,0.558-2.046c-1.169-0.408-2.575-0.293-3.912-0.293h-3.911c-1.477-0.057-2.102-0.395-3.075-0.877
				c-0.301-0.82,0.055-0.584,1.119-0.584c1.347-0.053,2.301-0.237,3.633-0.584c1.313-0.374,1.478-0.812,1.675-2.338
				c-1.288,0-2.748,0.016-3.631-0.292L692.4,143.08L692.4,143.08z"/>
			<path id="path1023" fill="#FEFEFE" d="M668.196,136.455c-0.246-2.158-0.716-3.269-0.791-5.371c0-1.577,0.038-0.74,1.581-2.893
				c0.157,0,1.312-1.097,2.371-2.065c1.479-0.741,2.846-1.781,4.348-2.479c1.119-0.648,3.331-1.15,4.347-1.653
				c1.332-0.697,2.418-1.5,3.557-2.893c0.136-1.849,0.396-3.176,0.396-5.371c1.572-0.756,2.967-1.49,4.346-2.066
				c1.978-0.557,2.407-1.348,4.348-1.653c1.249-0.436,3.315-0.414,5.137-0.414c1.966,0,3.207,1.398,4.973,1.728
				c2.094,0.845,3.072,1.429,4.742,2.893c0.943,1.194,1.53,2.165,3.139,3.064c1.273,0.653,2.466,1.642,3.952,2.065
				c0.013,1.492,0.33,1.234-0.735,1.234c-0.113,1.529-0.478,1.433-1.956,1.461c-1.134-0.616-1.941-1.445-2.515-2.338
				c0.559-1.518,0.188,1.228,0,1.753c-0.718,0.591-1.146,1.22-1.956,0.585c-0.454-1.426-0.838-2.411-0.838-4.09
				c-0.212-1.826-0.723-0.501-1.118,0.292c-0.378,1.473-0.206,2.006,0.279,3.213c-1.425,0-2.518-0.135-3.633-0.292
				c-1.037-0.258-2.202,0.06-3.354,0.584c-1.463,0.919-1.007,0.926-0.279,2.046c1.292,0.381,2.219,1.096,3.354,1.753
				c1.29-0.256,2.637-0.543,3.912-0.876c1.332-0.464,2.551-0.169,3.911,0c0.675,0.353,1.563,0.424,1.957,0.876
				c0,0.903,0.072,1.847-0.28,2.338c-0.582,0.386-1.133,1.456-1.956,1.752c-1.231,0.706-2.525,1.151-3.911,1.461
				c-1.712,0.065-2.338,0.441-3.633,1.169c-0.212,1.477-0.644,1.893-1.956,2.338c-1.307,0.57-2.345,0.877-3.911,0.877
				c-0.777,0-1.572,0.11-1.956-0.292c1.244-1.42,1.618-2.089,2.235-3.507c0.242-0.591,0.747-0.971,0.28-1.461
				c-1.656,0.065-2.088,0.054-2.236,1.753c-0.187,1.539-0.779,1.797-1.956,2.338c0.317-1.426,0.37-2.52,0.839-3.799
				c-0.989,0.225-2.278,0.292-3.633,0.292c-0.846,0.537-1.2,0.746-0.839,1.753c-1.124,0.391-2.49,0.15-3.911,0
				c-1.188-0.065-0.532-0.603-1.398-1.169c-0.567-1.112-1.218-1.383-2.515-1.461c-0.644,0.805-1.836,1.139-2.515,1.753
				c-1.224,0.427-2.003,0.073-3.073-0.584c-1.396,0.043-1.209,0.493-0.838,1.461c0.532,0.372-0.033,0.776,0.838,0.876
				c0.803,0.729,1.49,0.877,3.073,0.877c1.212-0.316,2.545-0.293,3.913-0.293c1.379,0.043,1.118,0.369,1.118,1.753
				c-0.902,0.639-2.215,0.584-3.633,0.584c-1.348-0.168-2.383-0.517-3.352-0.876c-1.309-0.098-2.357-0.348-3.354,0
				c-0.451,0.499-1.806,0.717-0.28,0.876c0.601,0.566,3.835,0.293,4.064,1.255c0.763,0.848,0.594,1.959-0.711,1.959
				c-0.792-0.414-1.403-0.312-1.956,0c-0.93,0.243-2.036,0.066-3.66,0.188C672.687,139.935,669.026,137.457,668.196,136.455
				L668.196,136.455z"/>
			<path id="path1025" fill="#BCBCBC" d="M677.023,126.723c-0.093,0-0.927,0.58-1.677,1.169c-1.228,0.657-2.54,1.776-3.354,2.338
				c-0.641,0.513-0.638,0.736-1.396,0.877c1.332-0.189,1.924-0.527,3.073-1.169c1.451-0.174,2.858-0.482,3.633-1.169
				C678.029,128.515,677.247,127.35,677.023,126.723L677.023,126.723z"/>
			<path id="path1026" fill="#BCBCBC" d="M689.883,112.984c0.161,0,0.488,0.914,1.117,1.461c0.402,1.121,0.772,1.913,0.839,3.215
				c0.343-1.428,0.928-2.576,1.118-4.091c-0.435-0.77-0.464-1.131-1.677-1.169C691.279,113.189,691.372,112.674,689.883,112.984z"/>
			<path id="path1024" fill="#C4C4C2" stroke="#000000" stroke-width="0.875" d="M681.221,124.964c-0.624,0,1.102-0.65,1.677-0.876
				c0.461-1.014,0.826-1.733,1.677-2.336c1.399,0.112,2.087,0.534,2.795,1.46c1.176,0.336,1.6,0.922,3.074,1.169
				c0.548,0.484,1.289,0.54,0,0.877c-0.876,0.484-1.977,0.585-3.353,0.585c-1.442,0.108-2.471,0.44-3.354,0.877
				C681.865,126.718,682.165,126.783,681.221,124.964L681.221,124.964z"/>
			<path id="path1027" fill="#BCBCBC" d="M694.904,113.275v0.293c0-0.788-0.018-0.386,0.279,1.169
				c0.462,0.98,0.559,2.031,0.559,3.507c0.733-0.548,1.346-1.64,1.677-2.63C697.419,113.306,697.106,113.442,694.904,113.275
				L694.904,113.275z"/>
			<path id="path1028" fill="#BCBCBC" d="M705.248,146.875h0.28c-0.823,0-0.359,0.051,1.118-0.876
				c0.956-0.666,1.739-1.651,3.074-2.046c1.294-1.062,2.289-1.559,3.632-2.044c0.655-0.315,1.233-0.861,1.956-0.292
				c-0.207,1.441-0.446,1.986-1.677,2.629c-0.636,0.833-1.638,1.32-2.514,1.753c-0.909,0.418-1.909,0.439-2.236,1.461
				C707.361,148.159,707.174,148.041,705.248,146.875L705.248,146.875z"/>
			<path id="path1029" fill="#BCBCBC" d="M710.559,155.351c0.498-0.394,2.249-2.219,3.073-2.921c0.933-1.287,1.877-2.27,2.795-2.922
				c0.814-1.254,1.857-2.093,2.515-3.215c0.777-0.982,1.348-1.814,2.235-2.921c0,1.277-0.116,2.971,0.278,3.798
				c0,1.765-0.195,2.248-0.837,3.507c-0.635,1.034-1.108,1.719-2.515,2.338c-1.27,0.703-2.031,0.951-3.075,1.752
				c-0.795,0.512-1.623,1.021-2.515,1.461C711.715,156.586,712.082,156.43,710.559,155.351L710.559,155.351z"/>
			<path id="path1030" fill="#BCBCBC" d="M701.896,162.068h0.28c-0.823,0-0.36,0.05,1.118-0.877c1.193-1.247,2.143-1.68,3.633-2.338
				c1.134-0.091,2.506-0.386,3.354-0.876c0.675-0.125,1.146-0.554,1.675,0c0.878,1.24,1.119,1.591-0.279,2.338
				c-0.669,0.594-1.849,1.192-2.794,1.461c-0.698,0.601-2.079,0.639-3.353,0.877c-1.143,0-1.777,0.135-2.236-0.584l2.236,0.584
				C704.388,162.653,703.753,162.788,701.896,162.068z"/>
			<path id="path1031" fill="#BCBCBC" d="M713.911,162.068v-0.292c0,0.816-0.034,0.383,0.558-1.169
				c1.047-1.634,1.442-2.536,2.795-2.922c0.634-0.801,1.731-1.009,3.075-1.461c0.503,0.878,0.116,1.901,0,2.922
				c-0.365,1.091-1.362,1.861-1.956,2.63c-0.872,0.619-1.227,1.214-2.515,1.461C714.801,163.237,715.366,163.209,713.911,162.068z"
				/>
			<path id="path1078" d="M686.525,124.078c0,0.807-0.625,1.461-1.397,1.461c-0.772,0-1.398-0.654-1.398-1.461
				c0-0.807,0.626-1.461,1.398-1.461C685.9,122.617,686.525,123.271,686.525,124.078z"/>
		</g>
		<g id="g4116" transform="matrix(1.0079 0 0 1.0079 -15.156 2.1989)">
			<path id="path993" fill="#005120" fill-opacity="0.9961" stroke="#002B0D" stroke-opacity="0.9961" d="M699.475,201.807h1.11
				c-3.477,0-1.399-0.243,4.435,4.637c2.444-2.129,2.415-2.416,4.436,1.16c1.167,2.037,1.51-0.207,3.326-2.317
				c0.876,4.212,1.437,8.629,4.437,4.637c3.426,0,7.013-0.298,8.871,1.16c2.246,4.361,1.511-0.741,3.328,1.16
				c4.883,0.612,4.79-4.379,10.108-5.67c3.306,4.32,4.754,0.995,8.873-1.16c3.059,0.896,5.942,5.748,6.524,1.03
				c2.504-4.271,2.722-3.908,4.436,0c2.435,2.293,3.462-1.146,5.545-2.317c3.712,2.271,7.853,2.585,13.308,1.16
				c0.923,3.862,3.251,2.186,5.544,1.158c4.905,2.156,6.617,2.816,12.199,0c2.764-3.415,1.199,0.096,3.326,2.32
				c4.135-1.342,2.993-1.626,7.763-1.16c4.794,0,5.181-0.12,6.653-3.477c2.409,2.518,3.28,4.334,6.653,1.16
				c5.169,0.158,3.571,0.682,6.654-1.16c2.281,5.282,2.817,1.465,5.545,3.477c-1.796,4.764-4.557,6.999-7.762,9.277
				c-2.133,3.695-3.467,7.684-7.762,9.278c-3.134,3.343-6.474,5.281-9.98,8.117c-4.808,1.257-10.1,1.16-15.526,1.16h-15.525h-15.526
				h-15.525c-3.312,1.73-8.729,2.555-13.307,3.478c-5.112,0-10.907,0.063-14.416-1.16c-2.377-2.484-6.547-5.262-8.871-8.117
				c-2.351-1.982-2.419-5.851-4.436-8.117c-1.855-3.318-2.429-8.509-4.435-11.596L699.475,201.807L699.475,201.807z"/>
			<path id="path994" fill="#005120" fill-opacity="0.9961" stroke="#002B0D" stroke-opacity="0.9961" d="M807.032,212.25v1.16
				c0-3.242,0.137-1.519-2.218,4.637c-0.477,1.495-1.521,1.847-3.328,2.32"/>
			<path id="path995" fill="#005120" fill-opacity="0.9961" stroke="#002B0D" stroke-opacity="0.9961" d="M797.059,216.881h1.109
				c-4.106,4.055-6.871,5.923-7.764,10.436l7.764-10.436c-4.106,4.055-6.871,5.923-7.764,10.436"/>
			<path id="path996" fill="#005120" fill-opacity="0.9961" stroke="#002B0D" stroke-opacity="0.9961" d="M781.527,211.096
				c0,0.103-0.156,4.136-1.109,5.797"/>
			<path id="path997" fill="#005120" fill-opacity="0.9961" stroke="#002B0D" stroke-opacity="0.9961" d="M777.098,219.202v1.16
				V219.202L777.098,219.202z"/>
			<path id="path998" fill="#005120" fill-opacity="0.9961" stroke="#002B0D" stroke-opacity="0.9961" d="M768.228,212.25h1.109
				H768.228C768.596,212.25,768.967,212.25,768.228,212.25z"/>
			<path id="path999" fill="#005120" fill-opacity="0.9961" stroke="#002B0D" stroke-opacity="0.9961" d="M706.126,212.25
				c0.529,0,2.711,3.681,5.544,5.797c-0.705,3.393-1.789,7.318,0,10.436"/>
			<path id="path1000" fill="#005120" fill-opacity="0.9961" stroke="#002B0D" stroke-opacity="0.9961" d="M714.995,219.202
				c0.529,0,2.711,3.683,5.545,5.799L714.995,219.202c0.529,0,2.711,3.683,5.545,5.799v1.16c0-3.583-0.285-7.334,1.107-9.278
				c1.233,2.181,2.791,5.69,3.328,2.32c6.245-0.234,9.26-2.068,13.308-3.478c0,1.705-0.262,0.885,1.109,2.317"/>
			<path id="path1001" fill="#005120" fill-opacity="0.9961" stroke="#002B0D" stroke-opacity="0.9961" d="M814.798,213.405h1.11
				c-2.092,1.821-3.697,5.539-5.545,8.117"/>
			<path id="path1002" fill="#005120" fill-opacity="0.9961" stroke="#002B0D" stroke-opacity="0.9961" d="M769.332,209.928h8.871"
				/>
		</g>
		<path id="path4267" fill="#FFFFFF" d="M687.23,222.677c-13.442,0-17.898,14.049-31.34,14.049c-0.258,0-0.504-0.022-0.756-0.032
			v0.85c-0.051,9.738,0.715,18.807,2.11,27.276c12.401-0.906,17.007-14.049,29.986-14.049c13.442,0,17.928,14.08,31.37,14.08
			c13.443,0,17.929-14.08,31.371-14.08c13.443,0,17.929,14.08,31.371,14.08c13.443,0,17.929-14.08,31.371-14.08
			c12.945,0,17.564,13.049,29.89,14.016c1.477-8.696,2.257-18.037,2.205-28.064v-0.032c-0.252,0.01-0.497,0.032-0.757,0.032
			c-13.442,0-17.897-14.048-31.339-14.048s-17.929,14.048-31.371,14.048c-13.442,0-17.929-14.048-31.371-14.048
			s-17.929,14.048-31.371,14.048C705.157,236.724,700.671,222.676,687.23,222.677L687.23,222.677z"/>
		<path id="path4280" fill="#FFFFFF" d="M687.23,277.517c-10.457,0-15.488,8.477-23.529,12.252
			c2.81,7.746,6.204,14.795,9.985,21.261c3.819-2.887,7.878-5.386,13.544-5.386c13.435-0.01,17.92,14.041,31.366,14.041
			c13.442,0,17.929-14.049,31.371-14.049s17.929,14.049,31.371,14.049s17.929-14.049,31.371-14.049
			c5.541,0,9.546,2.391,13.292,5.197c3.779-6.436,7.188-13.473,10.016-21.166c-7.914-3.825-12.946-12.157-23.308-12.157
			c-13.442,0-17.928,14.048-31.371,14.048c-13.442,0-17.928-14.048-31.371-14.048c-13.442,0-17.928,14.048-31.371,14.048
			c-13.442,0-17.928-14.048-31.37-14.048L687.23,277.517z"/>
		<path id="path4288" fill="#FFFFFF" d="M749.961,332.346c-13.443,0-17.929,14.08-31.372,14.08
			c-12.712,0-17.417-12.586-29.26-13.954c15.828,17.632,33.777,28.307,46.017,34.174c4.14-3.213,8.426,3.906,14.615,3.906
			c6.143,0,10.407-7.155,14.52-3.968c12.105-5.893,29.834-16.585,45.576-34.048c-11.456,1.675-16.205,13.89-28.725,13.89
			C767.889,346.425,763.403,332.346,749.961,332.346L749.961,332.346z"/>
		<g id="g4128" transform="matrix(1.0079 0 0 1.0079 -15.156 2.1989)">
			<path id="path728" fill="none" stroke="#512007" stroke-width="0.475" stroke-opacity="0.9961" d="M676.555,280.197
				c2.188-0.761,12.763-4.193,13.128-3.814c0.365,0.382,20.422,20.593,20.422,20.593l-16.775,3.432L676.555,280.197L676.555,280.197
				z"/>
			<path id="path858" fill="none" stroke="#512007" stroke-width="0.594" stroke-opacity="0.9961" d="M716.417,306.709
				c0.309-4.786,9.267-32.005,9.267-32.005"/>
			<path id="path859" fill="none" stroke="#512007" stroke-width="0.594" stroke-opacity="0.9961" d="M719.499,307.028
				c0-0.299,7.105-32.029,7.105-32.029"/>
			<path id="path860" fill="none" stroke="#512007" stroke-width="0.594" stroke-opacity="0.9961" d="M721.932,307.079
				c0.309-1.794,5.907-32.079,5.907-32.079"/>
			<path id="path861" fill="none" stroke="#512007" stroke-width="0.594" stroke-opacity="0.9961" d="M716.724,302.819
				c1.544-0.897,6.178-2.093,6.178-2.093"/>
			<path id="path862" fill="none" stroke="#512007" stroke-width="0.594" stroke-opacity="0.9961" d="M718.882,298.035
				c1.544,0,4.634-1.197,4.634-1.197"/>
			<path id="path863" fill="none" stroke="#512007" stroke-width="0.594" stroke-opacity="0.9961" d="M719.807,294.444
				c0-0.3,4.634-1.198,4.634-1.198"/>
			<path id="path864" fill="none" stroke="#512007" stroke-width="0.594" stroke-opacity="0.9961" d="M720.424,289.957l4.942-0.897"
				/>
			<path id="path865" fill="none" stroke="#512007" stroke-width="0.594" stroke-opacity="0.9961" d="M722.592,286.067
				c0,0.3,3.397,0.3,3.397,0.3"/>
			<path id="path866" fill="none" stroke="#512007" stroke-width="0.594" stroke-opacity="0.9961" d="M723.516,282.476
				c0.618,0,3.398,0.599,3.398,0.599"/>
			<path id="path809" fill="none" stroke="#512007" stroke-width="0.4099" stroke-opacity="0.9961" d="M771.447,327.86
				c-0.365-8.195-10.94-54.804-10.94-54.804"/>
			<path id="path810" fill="none" stroke="#512007" stroke-width="0.4099" stroke-opacity="0.9961" d="M767.809,326.309
				c0-0.513-8.389-52.754-8.389-52.754"/>
			<path id="path811" fill="none" stroke="#512007" stroke-width="0.4099" stroke-opacity="0.9961" d="M764.158,322.221
				c-0.364-3.072-6.199-48.656-6.199-48.656"/>
			<path id="path812" fill="none" stroke="#512007" stroke-width="0.4099" stroke-opacity="0.9961" d="M771.083,321.199
				c-1.823-1.536-7.293-3.586-7.293-3.586"/>
			<path id="path813" fill="none" stroke="#512007" stroke-width="0.4099" stroke-opacity="0.9961" d="M768.536,313.006
				c-1.823,0-5.47-2.049-5.47-2.049"/>
			<path id="path814" fill="none" stroke="#512007" stroke-width="0.4099" stroke-opacity="0.9961" d="M767.445,306.857
				c0-0.513-5.47-2.049-5.47-2.049"/>
			<path id="path815" fill="none" stroke="#512007" stroke-width="0.4099" stroke-opacity="0.9961" d="M766.718,299.174
				l-5.836-1.537"/>
			<path id="path816" fill="none" stroke="#512007" stroke-width="0.4099" stroke-opacity="0.9961" d="M764.158,292.514
				c0,0.513-4.011,0.513-4.011,0.513"/>
			<path id="path817" fill="none" stroke="#512007" stroke-width="0.4099" stroke-opacity="0.9961" d="M763.067,286.364
				c-0.729,0-4.011,1.024-4.011,1.024"/>
			<path id="path799" fill="none" stroke="#512007" stroke-width="0.475" stroke-opacity="0.9961" d="M802.347,315.998
				c-0.365-6.102-10.94-40.804-10.94-40.804"/>
			<path id="path800" fill="none" stroke="#512007" stroke-width="0.475" stroke-opacity="0.9961" d="M798.708,314.843
				c0-0.382-8.388-39.278-8.388-39.278"/>
			<path id="path801" fill="none" stroke="#512007" stroke-width="0.475" stroke-opacity="0.9961" d="M795.058,311.8
				c-0.364-2.288-6.199-36.227-6.199-36.227"/>
			<path id="path802" fill="none" stroke="#512007" stroke-width="0.475" stroke-opacity="0.9961" d="M801.984,311.039
				c-1.823-1.144-7.294-2.669-7.294-2.669"/>
			<path id="path803" fill="none" stroke="#512007" stroke-width="0.475" stroke-opacity="0.9961" d="M799.437,304.939
				c-1.823,0-5.47-1.525-5.47-1.525"/>
			<path id="path804" fill="none" stroke="#512007" stroke-width="0.475" stroke-opacity="0.9961" d="M798.345,300.36
				c0-0.382-5.47-1.526-5.47-1.526"/>
			<path id="path805" fill="none" stroke="#512007" stroke-width="0.475" stroke-opacity="0.9961" d="M797.617,294.64l-5.835-1.144"
				/>
			<path id="path806" fill="none" stroke="#512007" stroke-width="0.475" stroke-opacity="0.9961" d="M795.058,289.682
				c0,0.382-4.011,0.382-4.011,0.382"/>
			<path id="path807" fill="none" stroke="#512007" stroke-width="0.475" stroke-opacity="0.9961" d="M793.967,285.103
				c-0.729,0-4.011,0.762-4.011,0.762"/>
			<path id="path723" fill="#DD8B59" stroke="#512007" stroke-width="0.475" stroke-opacity="0.9961" d="M755.318,320.617
				c0-0.382,1.094-95.716,1.094-95.716s3.282-0.382,3.282,0c0,0.382-0.363,95.335-0.729,95.716
				C758.6,320.998,754.953,321.379,755.318,320.617z"/>
			<path id="path724" fill="#DD8B59" stroke="#512007" stroke-width="0.475" stroke-opacity="0.9961" d="M791.062,229.099
				c0,0.763-0.731,80.462-0.731,80.462l-2.553,3.052l0.73-83.514H791.062z"/>
			<path id="path719" fill="#DD8B59" stroke="#512007" stroke-width="0.475" stroke-opacity="0.9961" d="M714.845,304.979
				c0,0,3.647,39.278,45.586,38.134c41.939-1.145,53.608-39.659,53.608-39.659s-17.869-0.764-18.234-0.764
				c-0.363,0-14.587,18.305-32.821,17.923c-18.234-0.382-24.068-4.957-28.08-8.77c-4.011-3.814-7.659-9.534-7.659-9.534
				l-21.151-8.771l1.094,8.389L714.845,304.979L714.845,304.979z"/>
			<path id="path712" fill="#DD8B59" stroke="#512007" stroke-width="0.475" stroke-opacity="0.9961" d="M828.06,300.899
				c-0.365-1.144-1.263-5.071-1.263-5.071v-4.577l2.018-4.633c0,0-31.727,4.752-31.727,5.134c0-0.44-0.196,9.033-0.196,9.033
				L828.06,300.899z"/>
			<path id="path714" fill="none" stroke="#512007" stroke-width="0.475" stroke-opacity="0.9961" d="M822.063,291.256l-0.728,8.009
				h5.105l-0.364-8.009H822.063z"/>
			<path id="path715" fill="none" stroke="#512007" stroke-width="0.475" stroke-opacity="0.9961" d="M816.593,291.637l-0.365,8.389
				l3.282-0.381l0.365-8.008H816.593z"/>
			<path id="path716" fill="none" stroke="#512007" stroke-width="0.475" stroke-opacity="0.9961" d="M811.123,300.019v-6.482
				l3.282-1.144l0.365,6.483L811.123,300.019z"/>
			<path id="path717" fill="none" stroke="#512007" stroke-width="0.475" stroke-opacity="0.9961" d="M804.912,299.653l0.731-5.72
				l3.646,0.38l0.365,6.101L804.912,299.653z"/>
			<path id="path718" fill="none" stroke="#512007" stroke-width="0.475" stroke-opacity="0.9961" d="M797.987,299.653l0.366-4.958
				l3.647-0.382v5.72L797.987,299.653z"/>
			<path id="path720" fill="none" stroke="#512007" stroke-width="0.475" stroke-opacity="0.9961" d="M713.377,304.599
				c1.094,0,9.483,1.906,9.483,1.906l8.752,12.203"/>
			<path id="path721" fill="none" stroke="#512007" stroke-width="0.475" stroke-opacity="0.9961" d="M719.588,306.134
				c0.363,0.382,7.658,25.93,42.668,25.93c35.009,0,43.398-28.981,43.398-28.981"/>
			<path id="path722" fill="none" stroke="#512007" stroke-width="0.475" stroke-opacity="0.9961" d="M811.123,303.838
				c0,0-16.776,38.134-48.868,35.464c-32.093-2.669-37.198-15.254-39.751-21.736c-2.554-6.483-4.011-11.821-4.011-11.821"/>
			<path id="path725" fill="#DD8B59" stroke="#512007" stroke-width="0.475" stroke-opacity="0.9961" d="M727.605,302.315
				c0.363-2.289,0.363-71.31,0.363-71.31l-2.188-0.382l-0.363,70.549L727.605,302.315z"/>
			<path id="path726" fill="#DD8B59" stroke="#512007" stroke-width="0.475" stroke-opacity="0.9961" d="M675.451,279.817
				l27.715,14.11l-0.729,1.906c0,0-26.623-12.965-26.623-13.348C675.814,282.104,676.18,280.579,675.451,279.817z"/>
			<path id="path727" fill="#DD8B59" stroke="#512007" stroke-width="0.475" stroke-opacity="0.9961" d="M688.223,275.618
				c0,1.145,4.012,24.406,4.012,24.406s2.553,0.382,2.553,0S690.411,276,690.411,276L688.223,275.618z"/>
			<path id="path730" fill="#DD8B59" stroke="#512007" stroke-width="0.475" stroke-opacity="0.9961" d="M713.741,276.38
				c1.459,0,26.257-4.194,26.257-4.194l-0.365,4.194l-24.433,2.669L713.741,276.38L713.741,276.38z"/>
			<path id="path746" fill="#FECF3E" stroke="#512007" stroke-width="0.475" stroke-opacity="0.9961" d="M717.392,244.736
				c0.728,0,8.752,4.195,12.034,3.051s1.094-3.814,1.823-3.814c0.73,0,3.282,1.907,4.741,0.381c1.459-1.524,2.553-6.101,1.825-5.72
				C737.084,239.017,717.755,246.262,717.392,244.736L717.392,244.736z"/>
			<path id="path731" fill="#DD8B59" stroke="#512007" stroke-width="0.475" stroke-opacity="0.9961" d="M714.118,254.261
				c1.459,0.382,29.904-8.009,29.904-8.009s0,2.671-0.365,2.671c-0.364,0-29.539,8.007-29.539,8.007V254.261z"/>
			<path id="path748" fill="#FECF3E" stroke="#512007" stroke-width="0.475" stroke-opacity="0.9961" d="M780.122,242.441
				c0,0,1.825,4.576,3.648,3.814c1.823-0.762,3.647-2.287,3.647-2.287s1.459,3.814,4.011,3.05c2.553-0.762,4.012-4.957,4.012-4.957
				s2.552,0.763,3.646,0.382c1.096-0.382,2.553-6.483,2.553-6.483L780.122,242.441L780.122,242.441z"/>
			<path id="path745" fill="#FECF3E" stroke="#512007" stroke-width="0.475" stroke-opacity="0.9961" d="M777.926,279.436
				c-0.365,0.762,1.825,2.67,3.647,2.67c1.823,0,2.554-2.67,2.917-1.908c0.366,0.763,0.366,4.195,5.107,3.051
				c4.741-1.144,4.741-4.576,4.741-4.576s-1.459,1.145,1.823,1.524c3.282,0.382,6.564-4.958,6.201-4.958
				C801.995,275.24,778.657,279.818,777.926,279.436z"/>
			<path id="path732" fill="#DD8B59" stroke="#512007" stroke-width="0.475" stroke-opacity="0.9961" d="M715.209,243.202
				c-0.366,1.525,0.363,3.433,0.363,3.433l23.704-8.389c0,0,1.094-1.908,0-1.908C738.183,236.338,714.843,243.965,715.209,243.202
				L715.209,243.202z"/>
			<path id="path733" fill="#DD8B59" stroke="#512007" stroke-width="0.475" stroke-opacity="0.9961" d="M746.574,237.862
				c0.729,0,24.433-8.009,24.433-8.009s0.365,3.432,0,3.432c-0.364,0-22.245,6.864-22.245,6.864L746.574,237.862L746.574,237.862z"
				/>
			<path id="path741" fill="#FECF3E" stroke="#512007" stroke-width="0.475" stroke-opacity="0.9961" d="M777.926,254.654
				c0,0-3.647,4.194-2.553,9.914c1.094,5.721,2.553,10.678,2.918,10.678c0.365,0,4.376-7.626,8.753-8.008
				c4.376-0.382,12.399,4.195,12.399,4.195s-1.094-9.153-0.729-13.347c0.364-4.195,6.565-11.44,6.565-11.44L777.926,254.654z"/>
			<path id="path734" fill="#DD8B59" stroke="#512007" stroke-width="0.475" stroke-opacity="0.9961" d="M744.742,247.78
				c0,0-0.728,3.432-0.363,3.432c0.363,0,30.997-8.39,30.997-8.39v-2.287L744.742,247.78z"/>
			<path id="path749" fill="#B6B6B4" fill-opacity="0.9961" stroke="#512007" stroke-width="0.475" stroke-opacity="0.9961" d="
				M705.36,293.933c0,0-7.293-1.145-6.929,0.761c0.365,1.906,3.647,3.814,4.012,4.958c0.364,1.144-1.094,5.338,1.095,4.957
				c2.188-0.382,4.375-1.908,4.375-3.051c0-1.145-0.364-6.483-0.364-6.483L705.36,293.933z"/>
			<path id="path735" fill="#DD8B59" stroke="#512007" stroke-width="0.475" stroke-opacity="0.9961" d="M745.833,274.858v2.668
				l26.258-3.812l-0.729-1.908L745.833,274.858L745.833,274.858z"/>
			<path id="path743" fill="#FECF3E" stroke="#512007" stroke-width="0.475" stroke-opacity="0.9961" d="M714.845,279.436
				c0.365,0,0,3.432,2.917,2.67c2.918-0.763,3.647-2.67,3.647-2.67s0.729,4.194,4.741,3.814c4.011-0.382,6.199-4.957,6.199-4.957
				s0.366,3.432,2.919,2.287c2.553-1.144,3.282-3.814,3.282-3.814l-22.975,3.432L714.845,279.436L714.845,279.436z"/>
			<path id="path739" fill="#FECF3E" stroke="#512007" stroke-width="0.475" stroke-opacity="0.9961" d="M714.845,256.937
				c0,0-3.282,1.145-2.188,8.008c1.094,6.864,3.647,10.678,4.011,10.678c0.365,0,3.282-6.482,7.658-7.626
				c4.378-1.145,12.035,3.432,12.035,3.432s-0.73-6.101,0.365-11.821c1.094-5.721,4.74-9.916,4.74-9.916
				S715.939,256.937,714.845,256.937L714.845,256.937z"/>
			<path id="path736" fill="#DD8B59" stroke="#512007" stroke-width="0.475" stroke-opacity="0.9961" d="M776.107,276.76
				l0.364,2.288c0,0,26.257-3.432,26.257-3.814c0-0.381,0-2.668-0.364-2.668C802,272.566,776.471,277.141,776.107,276.76
				L776.107,276.76z"/>
			<path id="path737" fill="#DD8B59" stroke="#512007" stroke-width="0.475" stroke-opacity="0.9961" d="M775.743,252.359
				l0.365,2.668l30.997-8.77c0,0,0.731-2.288,0.366-2.288C807.105,243.968,776.472,253.502,775.743,252.359L775.743,252.359z"/>
			<path id="path738" fill="none" stroke="#512007" stroke-width="0.475" stroke-opacity="0.9961" d="M779.03,240.158
				c0,0-0.363,2.287,0,2.287c0.365,0,22.976-5.72,22.976-6.101c0-0.381,2.188-2.67,0.365-2.288
				C800.546,234.439,779.761,241.302,779.03,240.158z"/>
			<path id="path750" fill="none" stroke="#512007" stroke-width="0.475" stroke-opacity="0.9961" d="M827.534,284.395
				l-22.621-37.376"/>
			<path id="path751" fill="none" stroke="#512007" stroke-width="0.475" stroke-opacity="0.9961" d="M802.002,272.956
				c0.365-1.145,1.459-24.024,1.459-24.024"/>
			<path id="path747" fill="#FECF3E" stroke="#512007" stroke-width="0.475" stroke-opacity="0.9961" d="M747.301,239.017
				c1.459,0.382,4.013,4.193,5.47,3.432c1.46-0.763,3.648-3.051,3.648-3.051s-0.365,4.576,2.553,3.812
				c2.917-0.761,3.282-3.812,3.282-3.812s2.188,1.144,4.011,0c1.824-1.145,3.647-6.866,2.918-6.866
				C768.454,232.533,748.032,239.398,747.301,239.017L747.301,239.017z"/>
			<path id="path740" fill="#FECF3E" stroke="#512007" stroke-width="0.475" stroke-opacity="0.9961" d="M746.574,250.076
				c0,0.761-3.647,6.864-2.553,12.584c1.094,5.72,3.282,11.059,3.647,11.059s5.835-6.102,10.577-7.246
				c4.739-1.145,11.669,3.814,11.305,3.814c-0.365,0-1.824-5.721-1.824-9.915c0-4.195,5.47-17.161,5.47-17.161L746.574,250.076
				L746.574,250.076z"/>
			<path id="path744" fill="#FECF3E" stroke="#512007" stroke-width="0.475" stroke-opacity="0.9961" d="M746.574,277.534
				c0,0.382,1.094,3.051,3.647,3.051c2.552,0,2.917-2.669,2.917-2.669s-0.365,4.576,3.647,4.195
				c4.011-0.382,5.471-4.577,5.471-4.577s0.365,2.289,3.647,1.145c3.282-1.145,7.658-4.957,7.293-4.957
				C772.831,273.721,746.939,278.679,746.574,277.534L746.574,277.534z"/>
			<g id="use4342" transform="translate(-6.5645 7.2747)">
				<path id="path774" fill="#BE0F17" fill-opacity="0.9961" stroke="#512007" stroke-width="0.5813" stroke-opacity="0.9961" d="
					M749.92,257.181c1.068,0.045,1.9,0.987,1.858,2.105c-0.042,1.119-0.943,1.989-2.011,1.945c-1.068-0.044-1.9-0.987-1.857-2.105
					C747.951,258.007,748.851,257.137,749.92,257.181z"/>
			</g>
			<g id="use4344" transform="translate(6.5645 3.7582)">
				
					<path id="path774_1_" fill="#BE0F17" fill-opacity="0.9961" stroke="#512007" stroke-width="0.5813" stroke-opacity="0.9961" d="
					M763.049,253.664c1.068,0.045,1.899,0.987,1.857,2.106s-0.943,1.989-2.01,1.945c-1.068-0.045-1.9-0.987-1.858-2.106
					C761.08,254.491,761.981,253.62,763.049,253.664z"/>
			</g>
			<g id="use4346" transform="translate(0 11.033)">
				
					<path id="path774_2_" fill="#BE0F17" fill-opacity="0.9961" stroke="#512007" stroke-width="0.5813" stroke-opacity="0.9961" d="
					M756.484,260.94c1.068,0.045,1.9,0.987,1.857,2.105c-0.042,1.118-0.942,1.989-2.01,1.944c-1.068-0.044-1.9-0.987-1.858-2.105
					C754.515,261.766,755.416,260.895,756.484,260.94z"/>
			</g>
			<path id="path774_3_" fill="#BE0F17" fill-opacity="0.9961" stroke="#512007" stroke-width="0.5813" stroke-opacity="0.9961" d="
				M756.484,249.907c1.068,0.044,1.9,0.987,1.857,2.105c-0.042,1.118-0.942,1.989-2.01,1.944c-1.068-0.045-1.9-0.987-1.858-2.105
				C754.515,250.733,755.416,249.862,756.484,249.907z"/>
			<path id="path753" fill="none" stroke="#512007" stroke-width="0.475" stroke-opacity="0.9961" d="M758.969,226.042
				c0-0.382,11.305,4.958,11.305,5.338c0,0.382,40.115,56.058,40.48,56.058"/>
			<path id="path754" fill="none" stroke="#512007" stroke-width="0.475" stroke-opacity="0.9961" d="M790.698,231.381l10.211,4.577
				l3.283,8.389"/>
			<path id="path755" fill="none" stroke="#512007" stroke-width="0.475" stroke-opacity="0.9961" d="M727.24,230.62
				c-0.365,0,11.305,9.152,11.305,9.152l1.46,7.627"/>
			<path id="path756" fill="none" stroke="#512007" stroke-width="0.475" stroke-opacity="0.9961" d="M687.495,286.298
				c5.105-2.288,40.48-34.702,40.48-34.702"/>
			<path id="path757" fill="none" stroke="#512007" stroke-width="0.475" stroke-opacity="0.9961" d="M678.01,280.197
				c4.377-3.814,39.75-35.082,39.75-35.082"/>
			<path id="path758" fill="none" stroke="#512007" stroke-width="0.475" stroke-opacity="0.9961" d="M744.378,250.456
				l37.563,65.209"/>
			<path id="path759" fill="none" stroke="#512007" stroke-width="0.475" stroke-opacity="0.9961" d="M777.512,277.416
				c0,0,4.432,15.364,8.807,17.652c4.376,2.288,9.481,6.101,9.481,6.101"/>
			<path id="path760" fill="none" stroke="#512007" stroke-width="0.475" stroke-opacity="0.9961" d="M777.01,277.743
				c0,0,3.113,18.096,7.489,21.528c4.376,3.431,8.753,7.246,8.753,7.246"/>
			<path id="path761" fill="none" stroke="#512007" stroke-width="0.475" stroke-opacity="0.9961" d="M746.758,276.473
				c0,0,4.377,25.168,13.129,30.889c8.753,5.72,16.046,10.678,16.046,10.678"/>
			<path id="path762" fill="none" stroke="#512007" stroke-width="0.475" stroke-opacity="0.9961" d="M746.395,276.093
				c0,0,9.481,19.831,17.504,25.932c8.024,6.101,18.963,11.822,18.963,11.822"/>
			<path id="path763" fill="none" stroke="#512007" stroke-width="0.475" stroke-opacity="0.9961" d="M715.77,277.615
				c2.552,4.576,2.188,13.348,5.105,16.397c2.917,3.051,7.294,9.915,7.294,9.915"/>
			<path id="path764" fill="none" stroke="#512007" stroke-width="0.475" stroke-opacity="0.9961" d="M716.497,277.995
				c1.459,2.287,5.528,13.68,8.024,17.16c1.824,3.051,20.422,22.499,20.422,22.499"/>
			<path id="path766" stroke="#512007" stroke-width="0.475" stroke-opacity="0.9961" d="M738.742,318.611
				c0,1.58-1.225,2.861-2.735,2.861c-1.511,0-2.735-1.281-2.735-2.861c0-1.579,1.224-2.86,2.735-2.86
				C737.517,315.751,738.742,317.032,738.742,318.611z"/>
			<path id="path767" stroke="#512007" stroke-width="0.475" stroke-opacity="0.9961" d="M752.229,324.712
				c0,1.369-1.062,2.478-2.37,2.478c-1.31,0-2.37-1.11-2.37-2.478c0-1.369,1.061-2.479,2.37-2.479
				C751.167,322.233,752.229,323.343,752.229,324.712z"/>
			<path id="path768" stroke="#512007" stroke-width="0.475" stroke-opacity="0.9961" d="M769.366,326.233
				c0,1.369-1.061,2.479-2.37,2.479c-1.309,0-2.37-1.11-2.37-2.479c0-1.368,1.062-2.478,2.37-2.478
				C768.305,323.755,769.366,324.865,769.366,326.233z"/>
			<path id="path769" stroke="#512007" stroke-width="0.475" stroke-opacity="0.9961" d="M784.321,320.331
				c0,1.263-0.897,2.287-2.005,2.287s-2.005-1.024-2.005-2.287c0-1.264,0.897-2.288,2.005-2.288S784.321,319.067,784.321,320.331z"
				/>
			<path id="path770" stroke="#512007" stroke-width="0.475" stroke-opacity="0.9961" d="M796.353,312.892
				c0,1.159-1.062,2.098-2.37,2.098c-1.31,0-2.37-0.939-2.37-2.098c0-1.158,1.061-2.098,2.37-2.098
				C795.291,310.794,796.353,311.734,796.353,312.892z"/>
			<path id="path776" fill="#FF0000" fill-opacity="0.9961" stroke="#512007" stroke-width="0.475" stroke-opacity="0.9961" d="
				M725.606,231.094c-1.094,0.764-19.328,5.34-16.775,4.958c2.552-0.381,17.14,3.814,16.775,2.67
				C725.241,237.579,725.606,231.858,725.606,231.094z"/>
			<path id="path777" fill="#FF0000" fill-opacity="0.9961" stroke="#512007" stroke-width="0.475" stroke-opacity="0.9961" d="
				M756.607,225.375c-0.731,0-11.306,4.195-10.942,4.195s12.035,3.432,11.671,2.669C756.97,231.477,756.97,226.519,756.607,225.375z
				"/>
			<path id="path778" fill="#FF0000" fill-opacity="0.9961" stroke="#512007" stroke-width="0.475" stroke-opacity="0.9961" d="
				M788.336,229.193c-0.731,0.382-13.129,3.432-10.941,3.814c2.188,0.382,10.577,3.432,10.577,2.67
				C787.971,234.913,787.971,229.575,788.336,229.193L788.336,229.193z"/>
			<path id="path779" fill="none" stroke="#512007" stroke-width="0.475" stroke-opacity="0.9961" d="M775.212,318.428
				c0.366-6.102,10.941-40.804,10.941-40.804"/>
			<path id="path780" fill="none" stroke="#512007" stroke-width="0.475" stroke-opacity="0.9961" d="M778.851,317.273
				c0-0.382,8.389-39.278,8.389-39.278"/>
			<path id="path781" fill="none" stroke="#512007" stroke-width="0.475" stroke-opacity="0.9961" d="M782.502,314.23
				c0.364-2.288,6.199-36.227,6.199-36.227"/>
			<path id="path782" fill="none" stroke="#512007" stroke-width="0.475" stroke-opacity="0.9961" d="M775.576,313.469
				c1.823-1.144,7.293-2.67,7.293-2.67"/>
			<path id="path783" fill="none" stroke="#512007" stroke-width="0.475" stroke-opacity="0.9961" d="M778.124,307.369
				c1.823,0,5.47-1.525,5.47-1.525"/>
			<path id="path784" fill="none" stroke="#512007" stroke-width="0.475" stroke-opacity="0.9961" d="M779.215,302.79
				c0-0.382,5.47-1.525,5.47-1.525"/>
			<path id="path785" fill="none" stroke="#512007" stroke-width="0.475" stroke-opacity="0.9961" d="M779.942,297.07l5.835-1.144"
				/>
			<path id="path786" fill="none" stroke="#512007" stroke-width="0.475" stroke-opacity="0.9961" d="M782.502,292.112
				c0,0.382,4.011,0.382,4.011,0.382"/>
			<path id="path787" fill="none" stroke="#512007" stroke-width="0.475" stroke-opacity="0.9961" d="M783.593,287.533
				c0.729,0,4.011,0.762,4.011,0.762"/>
			<path id="path819" fill="none" stroke="#512007" stroke-width="0.475" stroke-opacity="0.9961" d="M744.262,318.721
				c0.366-6.34,10.941-42.399,10.941-42.399"/>
			<path id="path820" fill="none" stroke="#512007" stroke-width="0.475" stroke-opacity="0.9961" d="M747.901,319.144
				c0-0.397,8.389-42.432,8.389-42.432"/>
			<path id="path821" fill="none" stroke="#512007" stroke-width="0.475" stroke-opacity="0.9961" d="M750.774,319.212
				c0.364-2.377,6.973-42.498,6.973-42.498"/>
			<path id="path822" fill="none" stroke="#512007" stroke-width="0.475" stroke-opacity="0.9961" d="M744.626,313.568
				c1.823-1.189,7.293-2.775,7.293-2.775"/>
			<path id="path823" fill="none" stroke="#512007" stroke-width="0.475" stroke-opacity="0.9961" d="M747.174,307.229
				c1.823,0,5.47-1.585,5.47-1.585"/>
			<path id="path824" fill="none" stroke="#512007" stroke-width="0.475" stroke-opacity="0.9961" d="M748.265,302.471
				c0-0.396,5.47-1.585,5.47-1.585"/>
			<path id="path825" fill="none" stroke="#512007" stroke-width="0.475" stroke-opacity="0.9961" d="M748.992,296.528l5.835-1.189"
				/>
			<path id="path826" fill="none" stroke="#512007" stroke-width="0.475" stroke-opacity="0.9961" d="M751.552,291.375
				c0,0.396,4.011,0.396,4.011,0.396"/>
			<path id="path827" fill="none" stroke="#512007" stroke-width="0.475" stroke-opacity="0.9961" d="M752.643,286.618
				c0.729,0,4.011,0.791,4.011,0.791"/>
			<path id="path848" fill="none" stroke="#512007" stroke-width="0.4736" stroke-opacity="0.9961" d="M740.247,314.359
				c-0.365-6.138-10.941-41.05-10.941-41.05"/>
			<path id="path849" fill="none" stroke="#512007" stroke-width="0.4736" stroke-opacity="0.9961" d="M736.609,313.198
				c0-0.384-8.389-39.515-8.389-39.515"/>
			<path id="path850" fill="none" stroke="#512007" stroke-width="0.4736" stroke-opacity="0.9961" d="M732.958,310.136
				c-0.363-2.302-6.199-36.445-6.199-36.445"/>
			<path id="path851" fill="none" stroke="#512007" stroke-width="0.4736" stroke-opacity="0.9961" d="M739.883,309.37
				c-1.823-1.151-7.293-2.686-7.293-2.686"/>
			<path id="path852" fill="none" stroke="#512007" stroke-width="0.4736" stroke-opacity="0.9961" d="M737.336,303.232
				c-1.822,0-5.47-1.534-5.47-1.534"/>
			<path id="path853" fill="none" stroke="#512007" stroke-width="0.4736" stroke-opacity="0.9961" d="M736.245,298.627
				c0-0.384-5.47-1.535-5.47-1.535"/>
			<path id="path854" fill="none" stroke="#512007" stroke-width="0.4736" stroke-opacity="0.9961" d="M735.517,292.873
				l-5.835-1.151"/>
			<path id="path855" fill="none" stroke="#512007" stroke-width="0.4736" stroke-opacity="0.9961" d="M732.958,287.884
				c0,0.385-4.011,0.385-4.011,0.385"/>
			<path id="path856" fill="none" stroke="#512007" stroke-width="0.4736" stroke-opacity="0.9961" d="M731.866,283.278
				c-0.729,0-4.011,0.766-4.011,0.766"/>
			<path id="path711" fill="#DD8B59" stroke="#512007" stroke-width="0.475" stroke-opacity="0.9961" d="M794.337,302.697
				l34.644,0.763l0.365-2.67l-35.74-0.382L794.337,302.697z"/>
			<path id="path713" fill="#DD8B59" stroke="#512007" stroke-width="0.475" stroke-opacity="0.9961" d="M795.804,293.159
				c4.013,0,34.281-6.101,34.281-6.101s1.094-3.813,0-3.813s-34.281,7.246-34.281,7.246V293.159z"/>
			<g id="use4351" transform="translate(0 5.5164)">
				
					<path id="path774_4_" fill="#BE0F17" fill-opacity="0.9961" stroke="#512007" stroke-width="0.5813" stroke-opacity="0.9961" d="
					M756.484,255.422c1.068,0.045,1.9,0.987,1.857,2.106c-0.042,1.118-0.942,1.989-2.01,1.944c-1.068-0.044-1.9-0.986-1.858-2.105
					S755.416,255.378,756.484,255.422z"/>
			</g>
		</g>
	</g>
</g>
</svg>
