<?xml version="1.0" encoding="utf-8"?>
<!-- Generator: Adobe Illustrator 16.0.0, SVG Export Plug-In . SVG Version: 6.00 Build 0)  -->
<svg version="1.2" baseProfile="tiny"
	 id="islenskifaninn" xmlns:cc="http://creativecommons.org/ns#" xmlns:dc="http://purl.org/dc/elements/1.1/" xmlns:rdf="http://www.w3.org/1999/02/22-rdf-syntax-ns#"
	 xmlns="http://www.w3.org/2000/svg" xmlns:xlink="http://www.w3.org/1999/xlink" x="0px" y="0px" width="512px" height="512px"
	 viewBox="0 0 512 512" xml:space="preserve">
<g>
	<rect x="0" y="312.891" fill="#FFFFFF" width="122.389" height="199.109"/>
	<rect x="235.699" fill="#FFFFFF" width="276.301" height="199.11"/>
	<rect x="235.699" y="312.891" fill="#FFFFFF" width="276.301" height="199.109"/>
	<rect x="0" fill="#FFFFFF" width="122.389" height="199.11"/>
	<polygon fill="#003897" points="512,227.56 512,199.11 235.699,199.11 235.699,0 207.373,0 207.373,227.56 	"/>
	<polygon fill="#003897" points="150.719,0 122.389,0 122.389,199.11 0,199.11 0,227.56 150.719,227.56 	"/>
	<polygon fill="#003897" points="512,312.891 512,284.449 207.373,284.449 207.373,512 235.699,512 235.699,312.891 	"/>
	<polygon fill="#003897" points="0,284.449 0,312.891 122.389,312.891 122.389,512 150.719,512 150.719,284.449 	"/>
	<polygon fill="#D72828" points="512,284.449 512,227.56 207.373,227.56 207.373,0 150.719,0 150.719,227.56 0,227.56 0,284.449 
		150.719,284.449 150.719,512 207.373,512 207.373,284.449 	"/>
</g>
</svg>
