<?xml version="1.0" encoding="utf-8"?>
<!-- Generator: Adobe Illustrator 16.0.0, SVG Export Plug-In . SVG Version: 6.00 Build 0)  -->
<svg version="1.2" baseProfile="tiny"
	 id="svg1" xmlns:cc="http://creativecommons.org/ns#" xmlns:dc="http://purl.org/dc/elements/1.1/" xmlns:rdf="http://www.w3.org/1999/02/22-rdf-syntax-ns#"
	 xmlns="http://www.w3.org/2000/svg" xmlns:xlink="http://www.w3.org/1999/xlink" x="0px" y="0px" width="512px" height="512px"
	 viewBox="0 0 512 512" xml:space="preserve">
<g>
	<polygon fill="#000066" points="512,70.767 512,0 341.345,0 341.345,156.095 	"/>
	<polygon fill="#000066" points="0,441.252 0,512 170.675,512 170.675,355.915 	"/>
	<polygon fill="#000066" points="170.675,156.097 170.675,0 0,0 0,70.759 	"/>
	<polygon fill="#000066" points="341.345,512 512,512 512,441.244 341.345,355.917 	"/>
	<polygon fill="#FFFFFF" points="341.345,341.34 341.345,355.917 512,441.244 512,384 426.68,341.34 	"/>
	<polygon fill="#FFFFFF" points="512,170.67 512,128.01 426.68,170.67 	"/>
	<polygon fill="#FFFFFF" points="341.345,170.67 350.357,170.67 512,89.848 512,70.767 341.345,156.095 	"/>
	<polygon fill="#FFFFFF" points="512,345.838 512,341.34 503.004,341.34 	"/>
	<polygon fill="#FFFFFF" points="170.675,170.67 170.675,156.097 0,70.759 0,128 85.34,170.67 	"/>
	<polygon fill="#FFFFFF" points="0,341.34 0,384.01 85.34,341.34 	"/>
	<polygon fill="#FFFFFF" points="0,166.162 0,170.67 9.017,170.67 	"/>
	<polygon fill="#FFFFFF" points="170.675,341.34 161.664,341.34 0,422.172 0,441.252 170.675,355.915 	"/>
	<polygon fill="#FFFFFF" points="307.211,204.804 512,204.804 512,170.67 426.68,170.67 350.357,170.67 341.345,170.67 
		341.345,156.095 341.345,0 307.211,0 	"/>
	<polygon fill="#FFFFFF" points="204.809,307.206 0,307.206 0,341.34 85.34,341.34 161.664,341.34 170.675,341.34 170.675,355.915 
		170.675,512 204.809,512 	"/>
	<polygon fill="#FFFFFF" points="307.211,307.206 307.211,512 341.345,512 341.345,355.917 341.345,341.34 426.68,341.34 
		503.004,341.34 512,341.34 512,307.206 	"/>
	<polygon fill="#FFFFFF" points="170.675,170.67 85.34,170.67 9.017,170.67 0,170.67 0,204.804 204.809,204.804 204.809,0 
		170.675,0 170.675,156.097 	"/>
	<polygon fill="#CC0000" points="204.809,204.804 0,204.804 0,307.206 204.809,307.206 204.809,512 307.211,512 307.211,307.206 
		512,307.206 512,204.804 307.211,204.804 307.211,0 204.809,0 	"/>
	<polygon fill="#CC0000" points="426.68,170.67 512,128.01 512,89.848 350.357,170.67 	"/>
	<polygon fill="#CC0000" points="85.34,170.67 0,128 0,166.162 9.017,170.67 	"/>
	<polygon fill="#CC0000" points="85.34,341.34 0,384.01 0,422.172 161.664,341.34 	"/>
	<polygon fill="#CC0000" points="426.68,341.34 512,384 512,345.838 503.004,341.34 	"/>
</g>
</svg>
