<?xml version="1.0" encoding="utf-8"?>
<!-- Generator: Adobe Illustrator 16.0.0, SVG Export Plug-In . SVG Version: 6.00 Build 0)  -->
<svg version="1.2" baseProfile="tiny"
	 id="svg559" xmlns:cc="http://creativecommons.org/ns#" xmlns:dc="http://purl.org/dc/elements/1.1/" xmlns:rdf="http://www.w3.org/1999/02/22-rdf-syntax-ns#"
	 xmlns="http://www.w3.org/2000/svg" xmlns:xlink="http://www.w3.org/1999/xlink" x="0px" y="0px" width="512px" height="512px"
	 viewBox="0 0 512 512" xml:space="preserve">
<g id="flag">
	<rect id="rect575" x="0" fill="#FF0000" width="512" height="512"/>
	<rect id="rect567" x="63.653" y="88.407" fill="#009A00" width="384.72" height="335.149"/>
	<path id="path571" fill="#FFCA00" d="M63.653,423.56h384.72L256.013,256L63.653,423.56z"/>
	<path id="path570" fill="#FFCA00" d="M63.653,88.485l192.36,167.56l192.359-167.56H63.653L63.653,88.485z"/>
	<polygon id="polygon578" fill="#FFCE00" points="97.471,64.864 79.939,52.363 62.386,64.834 68.86,44.301 51.582,31.462 
		73.108,31.273 79.98,10.869 86.811,31.286 108.335,31.512 91.028,44.32 	"/>
	<polygon id="polygon579" fill="#FFCE00" points="273.233,65.386 255.7,52.885 238.148,65.355 244.621,44.822 227.345,31.984 
		248.869,31.795 255.741,11.39 262.573,31.807 284.097,32.034 266.789,44.842 	"/>
	<polygon id="polygon581" fill="#FFCE00" points="449.111,65.104 431.578,52.602 414.026,65.073 420.499,44.54 403.223,31.701 
		424.747,31.512 431.619,11.107 438.45,31.524 459.975,31.751 442.667,44.559 	"/>
	<polygon id="polygon583" fill="#FFCE00" points="97.471,499.165 79.939,486.664 62.386,499.135 68.86,478.602 51.582,465.764 
		73.108,465.574 79.98,445.17 86.811,465.587 108.335,465.813 91.028,478.621 	"/>
	<polygon id="polygon584" fill="#FFCE00" points="273.233,499.686 255.7,487.185 238.148,499.655 244.621,479.121 227.345,466.283 
		248.869,466.095 255.741,445.689 262.573,466.106 284.097,466.333 266.789,479.141 	"/>
	<polygon id="polygon585" fill="#FFCE00" points="449.111,499.405 431.578,486.904 414.026,499.375 420.499,478.842 
		403.223,466.003 424.747,465.814 431.619,445.409 438.45,465.826 459.975,466.054 442.667,478.861 	"/>
	<path id="path577" fill="#FF0000" d="M302.157,258.59c0,25.766-20.888,46.653-46.653,46.653c-25.767,0-46.653-20.888-46.653-46.653
		c0-25.766,20.887-46.654,46.653-46.654C281.27,211.936,302.157,232.824,302.157,258.59z"/>
	<polygon id="polygon586" fill="#FFCE00" points="276.576,287.296 255.752,272.447 234.905,287.26 242.594,262.871 222.073,247.623 
		247.639,247.398 255.801,223.163 263.915,247.413 289.481,247.683 268.924,262.895 	"/>
	<g id="g3182" transform="translate(92,-8)">
		<path id="path588" fill="#FF0000" d="M-2.789,298.95c0,0,2.367-19.607,1.015-32.791c-1.353-13.184-35.158-16.903-35.158-16.903
			l-0.338,30.764C-37.27,280.02-10.225,301.993-2.789,298.95L-2.789,298.95z"/>
		<path id="path587" fill="#FFCE00" d="M-52.145,221.2c0,0,3.259,17.276-1.352,51.723c-2.463,18.703,17.917,31.438,42.933,37.187
			c-5.07-8.789-18.592-22.988-15.212-49.019c18.255,2.366,35.495,37.862,35.495,37.862s13.658-50.331-13.86-58.145
			C-30.885,233.294-52.145,221.539-52.145,221.2L-52.145,221.2z"/>
	</g>
</g>
</svg>
