<?xml version="1.0" encoding="utf-8"?>
<!-- Generator: Adobe Illustrator 16.0.0, SVG Export Plug-In . SVG Version: 6.00 Build 0)  -->
<svg version="1.2" baseProfile="tiny"
	 id="svg2" xmlns:cc="http://creativecommons.org/ns#" xmlns:dc="http://purl.org/dc/elements/1.1/" xmlns:rdf="http://www.w3.org/1999/02/22-rdf-syntax-ns#"
	 xmlns="http://www.w3.org/2000/svg" xmlns:xlink="http://www.w3.org/1999/xlink" x="0px" y="0px" width="512px" height="512px"
	 viewBox="0 0 512 512" xml:space="preserve">
<g>
	<rect id="rect2993" x="0" fill="#FFFFFF" width="512.01" height="512.01"/>
	<g>
		<rect id="rect13" x="19.101" y="89.908" fill="#FFFFFF" width="899.999" height="600"/>
		<path id="path15" fill="#FF0000" d="M409.099,89.908v240H19.101v120h389.999v240h120v-240h390v-120h-390v-240H409.099z"/>
		<g>
			<g id="smallcross">
				<path fill="#FF0000" d="M212.45,151.259c-6.927,0-13.752-0.433-20.454-1.262c3.566,18.877,5.454,38.348,5.454,58.262
					c0,19.914-1.888,39.385-5.454,58.262c6.702-0.829,13.527-1.262,20.454-1.262c6.927,0,13.752,0.433,20.454,1.262
					c-3.566-18.877-5.454-38.347-5.454-58.262c0-19.914,1.888-39.385,5.454-58.262C226.202,150.826,219.377,151.259,212.45,151.259z
					"/>
				<g id="use17" transform="translate(64.45 10.117)">
					<path fill="#FF0000" d="M155.449,208.258c0,6.927-0.433,13.752-1.262,20.454c18.878-3.566,38.348-5.454,58.263-5.454
						c19.913,0,39.384,1.888,58.261,5.454c-0.829-6.702-1.262-13.527-1.262-20.454s0.433-13.752,1.262-20.454
						c-18.877,3.566-38.347,5.454-58.261,5.454c-19.914,0-39.385-1.888-58.263-5.454
						C155.017,194.507,155.449,201.332,155.449,208.258z"/>
				</g>
			</g>
			<g>
				<g id="smallcross_1_">
					<path fill="#FF0000" d="M725.75,514.567c-6.927,0-13.751-0.433-20.454-1.262c3.566,18.878,5.454,38.347,5.454,58.263
						c0,19.913-1.888,39.385-5.454,58.261c6.703-0.829,13.526-1.262,20.454-1.262c6.926,0,13.751,0.433,20.454,1.262
						c-3.566-18.876-5.454-38.347-5.454-58.261c0-19.915,1.888-39.385,5.454-58.263C739.501,514.134,732.677,514.567,725.75,514.567
						z"/>
					<g id="use19" transform="translate(235.55 131.22)">
						<path fill="#FF0000" d="M668.749,571.568c0,6.927-0.433,13.751-1.262,20.454c18.878-3.566,38.348-5.454,58.263-5.454
							c19.913,0,39.385,1.888,58.261,5.454c-0.829-6.703-1.262-13.528-1.262-20.454c0-6.927,0.433-13.753,1.262-20.456
							c-18.876,3.566-38.348,5.454-58.261,5.454c-19.915,0-39.385-1.888-58.263-5.454
							C668.316,557.815,668.749,564.641,668.749,571.568z"/>
					</g>
				</g>
				<g id="flag">
					<g id="smallcross_2_">
						<path fill="#FF0000" d="M725.75,151.259c-6.927,0-13.751-0.433-20.454-1.262c3.566,18.877,5.454,38.348,5.454,58.262
							c0,19.914-1.888,39.385-5.454,58.262c6.703-0.829,13.526-1.262,20.454-1.262s13.751,0.433,20.454,1.262
							c-3.566-18.877-5.454-38.347-5.454-58.262c0-19.914,1.888-39.385,5.454-58.262
							C739.501,150.826,732.677,151.259,725.75,151.259z"/>
						<g id="use21" transform="translate(235.55 10.117)">
							<path fill="#FF0000" d="M668.749,208.258c0,6.927-0.433,13.752-1.262,20.454c18.878-3.566,38.348-5.454,58.263-5.454
								c19.913,0,39.385,1.888,58.261,5.454c-0.829-6.702-1.262-13.527-1.262-20.454s0.433-13.752,1.262-20.454
								c-18.876,3.566-38.348,5.454-58.261,5.454c-19.915,0-39.385-1.888-58.263-5.454
								C668.316,194.507,668.749,201.332,668.749,208.258z"/>
						</g>
					</g>
					<g id="sdsds" transform="matrix(.53484 0 0 .53484 5.1077 47.576)">
						<g id="smallcross_3_">
							<path fill="#FF0000" d="M212.45,514.567c-6.927,0-13.752-0.433-20.454-1.262c3.566,18.878,5.454,38.347,5.454,58.263
								c0,19.913-1.888,39.385-5.454,58.261c6.702-0.829,13.527-1.262,20.454-1.262c6.927,0,13.752,0.433,20.454,1.262
								c-3.566-18.876-5.454-38.347-5.454-58.261c0-19.915,1.888-39.385,5.454-58.263
								C226.202,514.134,219.377,514.567,212.45,514.567z"/>
							<g id="use23" transform="translate(64.45 131.22)">
								<path fill="#FF0000" d="M155.449,571.568c0,6.927-0.433,13.751-1.262,20.454c18.878-3.566,38.348-5.454,58.263-5.454
									c19.913,0,39.384,1.888,58.261,5.454c-0.829-6.703-1.262-13.528-1.262-20.454c0-6.927,0.433-13.753,1.262-20.456
									c-18.877,3.566-38.347,5.454-58.261,5.454c-19.914,0-39.385-1.888-58.263-5.454
									C155.017,557.815,155.449,564.641,155.449,571.568z"/>
							</g>
						</g>
					</g>
				</g>
			</g>
		</g>
	</g>
</g>
</svg>
