<?xml version="1.0" encoding="utf-8"?>
<!-- Generator: Adobe Illustrator 16.0.0, SVG Export Plug-In . SVG Version: 6.00 Build 0)  -->
<svg version="1.2" baseProfile="tiny"
	 id="svg2" xmlns:cc="http://creativecommons.org/ns#" xmlns:dc="http://purl.org/dc/elements/1.1/" xmlns:rdf="http://www.w3.org/1999/02/22-rdf-syntax-ns#"
	 xmlns="http://www.w3.org/2000/svg" xmlns:xlink="http://www.w3.org/1999/xlink" x="0px" y="0px" width="512px" height="512px"
	 viewBox="0 0 512 512" xml:space="preserve">
<g id="flag">
	<rect id="rect3003" x="-18" y="-12" fill="#FFFFFF" width="512" height="512"/>
	<g>
		<polygon fill="#FFFFFF" points="110,215.556 124.222,229.778 223.778,229.778 223.778,130.222 209.556,116 235,116 235,73.333 
			-18,73.333 -18,241 110,241 		"/>
		<polygon fill="#FFFFFF" points="241,116 266.445,116 252.222,130.222 252.222,229.778 351.778,229.778 366,215.556 366,241 
			494,241 494,73.333 241,73.333 		"/>
		<polygon fill="#FFFFFF" points="209.556,372 223.778,357.777 223.778,258.223 124.222,258.223 110,272.444 110,247 -18,247 
			-18,414.667 235,414.667 235,372 		"/>
		<polygon fill="#FFFFFF" points="366,272.444 351.778,258.223 252.222,258.223 252.222,357.777 266.445,372 241,372 241,414.667 
			494,414.667 494,247 366,247 		"/>
		<polygon fill="#E8112D" points="241,116 241,73.333 241,-12 235,-12 235,73.333 235,116 		"/>
		<rect x="-18" y="241" fill="#E8112D" width="128" height="6"/>
		<rect x="366" y="241" fill="#E8112D" width="128" height="6"/>
		<polygon fill="#E8112D" points="235,372 235,414.667 235,500 241,500 241,414.667 241,372 		"/>
		<polygon fill="#F9DD16" points="223.778,229.778 124.222,229.778 110,215.556 110,241 110,247 110,272.444 124.222,258.223 
			223.778,258.223 		"/>
		<polygon fill="#F9DD16" points="209.556,116 223.778,130.222 223.778,229.778 252.222,229.778 252.222,130.222 266.445,116 
			241,116 235,116 		"/>
		<polygon fill="#F9DD16" points="223.778,258.223 223.778,357.777 209.556,372 235,372 241,372 266.445,372 252.222,357.777 
			252.222,258.223 		"/>
		<polygon fill="#F9DD16" points="223.778,229.778 223.778,258.223 252.222,258.223 351.778,258.223 366,272.444 366,247 366,241 
			366,215.556 351.778,229.778 252.222,229.778 		"/>
	</g>
</g>
</svg>
