<?xml version="1.0" encoding="utf-8"?>
<!-- Generator: Adobe Illustrator 16.0.0, SVG Export Plug-In . SVG Version: 6.00 Build 0)  -->
<svg version="1.2" baseProfile="tiny"
	 id="svg378" xmlns:cc="http://creativecommons.org/ns#" xmlns:dc="http://purl.org/dc/elements/1.1/" xmlns:rdf="http://www.w3.org/1999/02/22-rdf-syntax-ns#"
	 xmlns="http://www.w3.org/2000/svg" xmlns:xlink="http://www.w3.org/1999/xlink" x="0px" y="0px" width="512px" height="512px"
	 viewBox="0 0 512 512" xml:space="preserve">
<g>
	<polygon fill="#FFF41E" points="276.974,235.553 345.653,235.639 290.425,276.46 311.413,341.334 512.003,341.334 512.003,170.667 
		255.3,170.667 	"/>
	<polygon fill="#FFF41E" points="220.747,276.707 165.235,236.268 233.913,235.704 255.133,170.667 0.003,170.667 0.003,341.334 
		200.335,341.334 	"/>
	<polygon fill="#FFF41E" points="201.253,341.334 310.906,341.334 255.677,301.896 	"/>
	<polygon fill="#1F7848" points="311.413,341.334 311.566,341.805 310.906,341.334 201.253,341.334 200.063,342.196 
		200.335,341.334 0.003,341.334 0.003,512 512.003,512 512.003,341.334 	"/>
	<polygon fill="#E80006" points="255.215,170.413 255.3,170.667 512.003,170.667 512.003,0 0.003,0 0.003,170.667 255.133,170.667 	
		"/>
	<polygon points="345.653,235.639 276.974,235.553 255.3,170.667 255.215,170.413 255.133,170.667 233.913,235.704 165.235,236.268 
		220.747,276.707 200.335,341.334 200.063,342.196 201.253,341.334 255.677,301.896 310.906,341.334 311.566,341.805 
		311.413,341.334 290.425,276.46 	"/>
</g>
</svg>
