<?xml version="1.0" encoding="utf-8"?>
<!-- Generator: Adobe Illustrator 16.0.0, SVG Export Plug-In . SVG Version: 6.00 Build 0)  -->
<svg version="1.2" baseProfile="tiny"
	 id="svg1387" xmlns:cc="http://creativecommons.org/ns#" xmlns:dc="http://purl.org/dc/elements/1.1/" xmlns:rdf="http://www.w3.org/1999/02/22-rdf-syntax-ns#"
	 xmlns="http://www.w3.org/2000/svg" xmlns:xlink="http://www.w3.org/1999/xlink" x="0px" y="0px" width="512px" height="512px"
	 viewBox="0 0 512 512" xml:space="preserve">
<g>
	<path fill="#FFFFFF" d="M254.14,351.893H50.729v-21.157l37.821-0.456l2.351-42.031v-5.568h0.312l0.848-15.159v-8.671l0.484,0.008
		l1.334-23.852v-0.727v0l0.041,0.005l1.462-26.148h-0.038v-2.28h-2.731v-4.298h-9.938V175.2h20.976l8.43-50.144v-0.093h0.016
		l0.833-4.958l-3.015-4.247h-1.468v-1.215h-0.463v-1.504l-0.082-0.116h-0.816v-1.149l-1.655-2.332h-0.41v-0.578l-0.212-0.298
		l0.212,0.001V95.79h29.13v-7.283h26.398v7.283h31.859v13.233h0.017l-0.017,0.015v0.405h-0.444l-2.717,2.479v1.002h-1.099
		l-1.189,1.085v0.535h-0.586l-4.444,4.055l-0.829,0.017l1.003,6.56l0.31,0.002v2.02l7.346,48.002h8.345v-1.46l5.238,0.232v1.228
		h6.595v-0.097l0.597,0.005l10.724-67.804l-0.383-0.005l-0.15-0.097h-3.037v-1.366h-0.463v-0.904l-7.733-5.016h0.445v-0.039H209.9
		v-5.325h0.036V91.89H209.9v-5.325h0.036v-3.064H209.7v-6.372h26.397v6.139l7.282,0.028v-5.712h26.397v5.813l6.372,0.024v-5.837
		h27.31v5.942h0.013v16.391h-0.449l-4.536,3.593v0.506h-0.639l-1.65,1.307v0.514h-0.648l-2.995,2.372l-0.288-0.004l10.298,55.822
		l0.461,0.005v2.496l1.6,8.672h5.905v-0.544v0l4.783,0.203v0.342h5.642l10.854-55.36l-2.977-4.192h-1.458v-0.685v-0.309h-0.462
		v-0.221v-0.17v-0.021h-0.898v-0.392h0.898v-0.906l-0.093-0.13h-0.806v-1.135l-1.666-2.346h-0.408v-0.575l-0.213-0.3l0.213,0.001
		v-12.78v-6.827h20.938v6.827h8.192v-7.282h26.398v7.282h8.191v-6.827h23.667v6.827v13.234h0.018l-0.018,0.016v0.404h-0.442
		l-2.71,2.472v1.009h-1.106l-1.145,1.044l2.251,0v0.383h-2.288v0.029v0.162v0.221h-0.836l-4.168,3.803l8.464,56.743h21.208v26.356
		h-7.004v3.838h-2.721v2.275h-1.322l6.889,123.521l37.822-0.455v21.157H259.289v32.647H512V0H0v384.54h254.14V351.893z
		 M168.74,88.962h23.667v6.827H168.74V88.962z M105.02,88.962h20.938v6.827H105.02V88.962z"/>
	<path fill="#A11011" d="M320.99,175.103l2.734,0.026v-11.781l17.073,0.298V175.2h2.871v-12.036l10.778,0.302V175.2h1.02v-13.076
		h0.101c0.023-0.614,0.12-1.209,0.284-1.784h-29.395v-11.287v0l36,0.241v4.99c0.853-0.219,1.752-0.343,2.686-0.343
		c0.217,0,0.429,0.016,0.642,0.029v-4.917v0l38.731,0.241v11.046h-30.082c0.164,0.574,0.261,1.17,0.284,1.784h0.078V175.2h0.851
		v-11.391v0l8.39,0.278V175.2h2.687v-10.935l20.524,0.269V175.2h2.099l-8.464-56.743l-0.035,0.032l-5.252,0.11l3.918,0.047v3.919
		h-7.06v-3.901l-1.134,0.024v3.877h-49.843v-2.835l-1.588,0.033v2.802h-7.97v-2.635l-0.046,0.001l-0.064-0.091l-10.854,55.36h0.036
		V175.103z M386.847,147.141h-39.342v-11.287v0l39.342,0.241V147.141z M402.696,147.591H389.72v-11.287v0l12.976,0.241V147.591z
		 M368.062,125.494l33.269,0.172v7.896h-33.269V125.494z M331.007,125.494l34.179,0.172v7.896h-34.179V125.494z M329.191,135.854
		L329.191,135.854l14.797,0.241v11.046h-14.797V135.854z"/>
	<polygon fill="#A11011" points="276.91,79.033 302.298,79.033 302.298,83.521 303.459,83.526 303.459,77.584 276.15,77.584 
		276.15,83.421 276.91,83.424 	"/>
	<polygon fill="#A11011" points="244.6,78.578 268.623,78.578 268.623,83.393 269.778,83.397 269.778,77.584 243.38,77.584 
		243.38,83.296 244.6,83.301 	"/>
	<polygon fill="#A11011" points="210.92,83.172 210.92,78.578 234.943,78.578 234.943,83.264 236.098,83.268 236.098,77.129 
		209.7,77.129 209.7,83.501 209.936,83.501 209.936,83.168 	"/>
	<path fill="#A11011" d="M303.023,99.917h0.449V83.526h-0.013l-1.161-0.004v0.836H276.91v-0.934l-0.761-0.003l-6.372-0.024
		l-1.154-0.004v0.51H244.6v-0.602l-1.22-0.005l-7.282-0.028l-1.155-0.004v0.639H210.92v-0.731l-0.984-0.004v0.333v3.064h45.796
		v5.325h-45.796v2.663h21.318v5.325h-21.318v0.039L303.023,99.917L303.023,99.917z M276.63,99.878h-42.707v-5.325h42.707V99.878z
		 M300.654,99.878H279.3v-5.325h21.354V99.878z M301.564,91.89h-43.136v-5.325h43.136V91.89z"/>
	<polygon fill="#A11011" points="304.624,175.2 303.025,166.528 303.025,175.2 	"/>
	<path fill="#A11011" d="M212.67,163.732L212.67,163.732L212.67,163.732l30.727,0.3V175.2h0.585v-13.355h0.113
		c0-0.008,0.001-0.016,0.001-0.024h-29.145v-12.197l40.739,0.261v3.569c0.861,0.049,1.696,0.17,2.49,0.371v-3.751l1.938,0.012
		v-0.012l38.809,0.261v11.936h-0.006h-33.088V175.2h0.094v-11.468v0v0l7.515,0.3V175.2h3.519v-11.468v0v0l25.604,0.294
		l-10.298-55.822l-7.257-0.092h-63.678v-0.808l-0.075-0.001l-10.724,67.804l2.138,0.02V163.732z M277.314,147.8h-43.21v-10.65h43.21
		V147.8z M296.218,147.8h-16.204v-10.65h16.204V147.8z M294.006,134.49h-35.334v-10.65h35.334V134.49z M280.456,110.53h10.887v10.65
		h-10.887V110.53z M234.187,110.53h43.548v10.65h-43.548V110.53z M223.3,110.53h8.165v10.65h-10.887L223.3,110.53z M220.62,123.84
		h35.334v10.65h-38.053L220.62,123.84z M217.9,137.15h13.503v10.65H217.9V137.15z"/>
	<polygon fill="#D61517" points="255.25,425.797 256.656,427.178 274.223,407.942 259.289,393.804 259.289,398.376 254.14,398.376 
		254.14,393.859 238.493,409.04 	"/>
	<polygon fill="#D61517" points="512,384.54 259.289,384.54 259.289,384.921 283.113,407.476 282.722,407.846 282.95,408.096 
		261.381,431.712 261.381,502.993 251.726,502.993 251.726,491.565 232.07,491.565 232.07,483.22 231.443,483.22 231.443,481.283 
		231.443,476.134 231.443,474.208 232.07,474.208 232.07,462.6 251.726,462.6 251.726,431.047 231.702,411.369 229.099,408.844 
		254.14,384.549 254.14,384.54 0,384.54 0,512 512,512 	"/>
	<path fill="#A11011" d="M95.755,201.44l0.124-2.21H84.444v-14.61h344.33v14.61H398.2l20.838,0.041l0.096,1.709h4.416v0.576h7.004
		V175.2h-21.208h-2.099v1.639h-20.524V175.2h-2.687v1.638h-2.505v6.028H358.63v-0.237h-0.149v-0.001h-2.327v0h-0.687V175.2h-1.02
		v2.092h-10.778V175.2h-2.871v2.088h-1.824v5.915H320.99v-0.333h-3.967v-5.78h3.967v-1.89h-0.036h-5.642v8.922h-4.783V175.2h-5.905
		h-1.6v0.493l1.357,0.009v1.387h4.771v5.78H285.54v-0.576h-1.872v-4.544h-6.708v-2.55h-3.519v2.55h-3.697v1.457l13.709,0.075v3.474
		h-13.709v0.39H244.32v-0.196h-0.338v-7.75h-0.585v2.55h-16.389v4.544h-1.093v0.576h-21.354v-5.78h5.375v-1.89h-6.595v9.372h-5.238
		V175.2h-8.345l0.004,0.027l3.571,0.025v1.837h3.221v5.78h-5.623l0.122,0.794l-88.979,0.909l0.363-2.158H84.444v-5.325h18.889
		l0.317-1.89H82.674v26.356h9.938v-0.116H95.755z M428.774,182.415H407.42v-5.325h21.354V182.415z M381.982,178.291l22.99,0.085
		v3.919h-22.99V178.291z M339.203,178.751l15.252,0.085v3.919h-15.252V178.751z M227.24,179.206l16.162,0.076v3.474H227.24V179.206z
		"/>
	<rect x="374.796" y="175.2" fill="#A11011" width="0.851" height="0.66"/>
	<rect x="265.833" y="175.2" fill="#A11011" width="0.094" height="0.94"/>
	<path fill="#A11011" d="M51.55,350.247v-18.569l410.319,0.397v18.172h-202.58v1.646h204.929v-21.157l-37.822,0.455l-6.889-123.521
		H317.909v-2.275h-1.564c8.017,23.591-1.898,120.885-1.898,120.885c-0.016-25.6-8.58-99.876-4.435-120.425h-0.702v1.82h-106.1v-1.82
		h-3.4c8.064,23.886-1.873,123.155-1.873,123.155c-0.016-26.302-8.733-103.05-4.317-123.155h-1.274v2.28H95.381l-1.462,26.148
		l3.833,0.48v22.18h-3.873v-21.938l-1.334,23.852l27.057,0.457v21.291H92.06v-13.085l-0.848,15.159h7.905v21.301h-8.217v-15.732
		l-2.351,42.031l-37.821,0.456v21.157H254.14v-1.646H51.55z M392.374,330.48h-0.786v0.016h-42.912v-0.016h-1.627v-46.773h0.217
		c0.126-3.254,1.188-6.303,2.964-8.957v-15.438v-0.001v0.001l40.629,0.445v17.944c0.805,1.882,1.271,3.902,1.353,6.006h0.163V330.48
		z M328.653,256.484v-22.21v0l38.997,0.475v21.736H328.653z M371.438,256.485V234.73l37.71,0.465v21.29H371.438z M423.439,329.738
		h-29.361v-23.549h29.361V329.738z M394.07,303.529V282.23h19.135v21.299H394.07z M421.406,303.529h-5.467V282.23h5.467V303.529z
		 M421.359,279.695h-27.996v-20.389l27.996,0.436V279.695z M419.99,256.485h-7.514V234.73l7.514,0.465V256.485z M392.448,210.154
		L392.448,210.154l25.721,0.474v21.736h-25.721V210.154z M347.316,210.61l42.639,0.465v21.29h-42.639V210.61z M319.628,210.154
		L319.628,210.154l23.899,0.474v21.736h-23.899V210.154z M325.322,234.745v21.29h-5.239V234.28L325.322,234.745z M319.17,258.855
		L319.17,258.855l27.541,0.455v20.844H319.17V258.855z M346.022,282.23v21.299h-18.685V282.23H346.022z M324.668,282.23v21.299
		h-5.339V282.23H324.668z M316.67,306.189h29.36v23.549h-29.36V306.189z M231.24,303.365h-14.93v-21.756l14.93,0.145V303.365z
		 M278.153,329.436h-0.821v0.016h-44.132v-0.016h-1.661v-46.773h0.222c0.099-2.466,0.746-4.815,1.851-6.964v-17.759h0.001
		l43.766,0.305l0.158,21.178c0.258,1.051,0.406,2.135,0.45,3.24h0.167V329.436z M212.568,256.055V234.3h42.707v21.755H212.568z
		 M280.03,280.154V258.4h0.001l28.61-0.02l-0.16,21.773H280.03z M298.928,282.051v21.774H279.58V282.07L298.928,282.051z
		 M297.983,256.055h-40.038V234.3h40.038V256.055z M312.127,329.738H279.58v-23.549h-0.001h0.001l0,0l32.387,0.029L312.127,329.738z
		 M311.21,282.535v21.29h-9.789V282.07L311.21,282.535z M308.658,256.055h-8.007V234.3h8.007V256.055z M281.399,209.694
		L281.399,209.694l25.72,0.474v21.736h-25.72V209.694z M234.971,209.694L234.971,209.694l43.549,0.474v21.736h-43.549V209.694z
		 M204.018,209.7l28.906,0.465v21.29h-28.906V209.7z M209.899,234.3v21.755h-5.339V234.3H209.899z M203.57,257.939L203.57,257.939
		l28.157,0.145l-0.161,21.611H203.57V257.939z M201.75,281.15l12.065,0.144v21.61H201.75V281.15z M201.75,305.73L201.75,305.73
		l29.2,0.028l0.16,23.519h-29.36V305.73z M166.169,329.596h-0.86v0.016h-43.52v-0.016h-1.592v-46.772h0.22
		c0.116-2.945,1.009-5.722,2.513-8.19v-15.322l42.344,0.144l-0.139,18.684c0.507,1.495,0.806,3.064,0.87,4.686h0.165V329.596z
		 M184.229,234.769v22.625h-41.194v-23.12v-0.001v0.001L184.229,234.769z M167.19,282.23h18.685v22.209H167.19V282.23z
		 M195.611,329.416h-28.45v-23.227l28.45,0.023V329.416z M193.882,304.439h-5.338V282.23h5.338V304.439z M192.881,259.314v21.291
		h-25.265V258.85L192.881,259.314z M186.27,257.395v-22.666v0l4.784,0.484v22.182H186.27z M168.065,210.154L168.065,210.154
		l23.444,0.474v21.736h-23.444V210.154z M120.652,210.154L120.652,210.154l45.369,0.474v21.736h-45.369V210.154z M95.696,232.364
		v-22.665v0l22.079,0.484v22.181H95.696z M101.272,256.945v-23.121v0v0l38.888,0.494v22.626H101.272z M101.56,282.68h18.041v21.301
		H101.56V282.68z M90.693,305.73l29.201,0.029l0.16,24.002H90.693V305.73z"/>
	<path fill="#A11011" d="M198.2,202.469v-1.029H311.64c0.423-0.549,0.898-0.87,1.439-0.91c0.565,0.26,1.082,0.735,1.561,1.373
		v-0.922h104.494l-0.096-1.709L398.2,199.23H95.879l-0.124,2.21h99.777v0.025c0.318-0.282,0.661-0.457,1.037-0.485
		C197.162,201.258,197.703,201.77,198.2,202.469z"/>
	<rect x="204.56" y="234.3" fill="#D61517" width="5.339" height="21.755"/>
	<rect x="212.568" y="234.3" fill="#D61517" width="42.707" height="21.755"/>
	<rect x="300.652" y="234.3" fill="#D61517" width="8.007" height="21.755"/>
	<rect x="257.945" y="234.3" fill="#D61517" width="40.038" height="21.755"/>
	<polygon fill="#D61517" points="367.65,234.748 328.653,234.273 328.653,234.274 328.653,256.484 367.65,256.484 	"/>
	<rect x="394.077" y="306.189" fill="#D61517" width="29.361" height="23.549"/>
	<rect x="316.67" y="306.189" fill="#D61517" width="29.36" height="23.549"/>
	<rect x="327.337" y="282.23" fill="#D61517" width="18.685" height="21.299"/>
	<rect x="319.329" y="282.23" fill="#D61517" width="5.339" height="21.299"/>
	<rect x="394.07" y="282.23" fill="#D61517" width="19.135" height="21.299"/>
	<rect x="415.939" y="282.23" fill="#D61517" width="5.467" height="21.299"/>
	<polygon fill="#D61517" points="317.909,205.395 317.909,207.67 419.507,207.67 420.829,207.67 420.829,205.395 	"/>
	<rect x="101.56" y="282.68" fill="#D61517" width="18.041" height="21.301"/>
	<rect x="188.544" y="282.23" fill="#D61517" width="5.338" height="22.209"/>
	<rect x="167.19" y="282.23" fill="#D61517" width="18.685" height="22.209"/>
	<rect x="203.21" y="205.854" fill="#D61517" width="106.1" height="1.82"/>
	<polygon fill="#D61517" points="192.345,205.854 95.343,205.854 95.343,208.135 95.381,208.135 192.345,208.135 	"/>
	<path fill="#FFFFFF" d="M314.64,201.902c-0.479-0.638-0.995-1.112-1.561-1.373c-0.541,0.04-1.017,0.361-1.439,0.91h0.399v4.415
		h-2.027c-4.146,20.548,4.419,94.825,4.435,120.425c0,0,9.915-97.294,1.898-120.885h-1.705V201.902z"/>
	<polygon fill="#D61517" points="428.774,199.23 428.774,184.62 84.444,184.62 84.444,199.23 95.879,199.23 398.2,199.23 	"/>
	<path fill="#FFFFFF" d="M198.2,202.469c-0.498-0.7-1.038-1.211-1.631-1.489c-0.376,0.028-0.719,0.203-1.037,0.485v4.389h-1.913
		c-4.416,20.105,4.301,96.854,4.317,123.155c0,0,9.938-99.27,1.873-123.155H198.2V202.469z"/>
	<polygon fill="#D61517" points="99.117,303.98 99.117,282.68 91.212,282.68 90.901,282.68 90.901,288.248 90.901,303.98 	"/>
	<polygon fill="#D61517" points="119.894,305.76 90.693,305.73 90.693,329.762 120.054,329.762 	"/>
	<polygon fill="#D61517" points="461.869,332.075 51.55,331.678 51.55,350.247 254.14,350.247 254.14,336.221 259.289,336.221 
		259.289,350.247 461.869,350.247 	"/>
	<polygon fill="#D61517" points="167.16,329.416 195.611,329.416 195.611,306.213 167.16,306.189 	"/>
	<polygon fill="#D61517" points="230.95,305.759 201.75,305.729 201.75,305.73 201.75,329.277 231.111,329.277 	"/>
	<polygon fill="#D61517" points="279.58,329.738 312.127,329.738 311.967,306.219 279.58,306.189 	"/>
	<polygon fill="#D61517" points="279.579,306.189 279.58,306.189 279.58,306.189 	"/>
	
		<line fill="none" stroke="#D61517" stroke-width="0" stroke-linecap="round" stroke-linejoin="round" x1="101.272" y1="233.825" x2="101.272" y2="233.824"/>
	<polygon fill="#D61517" points="140.159,234.319 101.272,233.825 101.272,256.945 140.159,256.945 	"/>
	<polygon fill="#D61517" points="97.751,256.943 97.751,234.763 93.919,234.283 93.878,234.278 93.878,234.279 93.878,235.006 
		93.878,256.943 	"/>
	
		<line fill="none" stroke="#D61517" stroke-width="0" stroke-linecap="round" stroke-linejoin="round" x1="143.034" y1="234.275" x2="143.034" y2="234.274"/>
	<polygon fill="#D61517" points="184.229,257.395 184.229,234.769 143.034,234.275 143.034,257.395 	"/>
	<polygon fill="#D61517" points="186.27,234.729 186.27,234.729 186.27,257.395 191.054,257.395 191.054,235.213 	"/>
	<polygon fill="#D61517" points="346.711,259.311 319.17,258.854 319.17,258.855 319.17,280.154 346.711,280.154 	"/>
	<polygon fill="#D61517" points="393.363,279.695 421.359,279.695 421.359,259.742 393.363,259.307 	"/>
	
		<line fill="none" stroke="#D61517" stroke-width="0" stroke-linecap="round" stroke-linejoin="round" x1="350.23" y1="259.312" x2="350.23" y2="259.311"/>
	<path fill="#D61517" d="M369.739,265.041c9.697,0,17.962,5.271,21.12,12.66v-17.944l-40.629-0.445v15.438
		C354.111,268.95,361.391,265.041,369.739,265.041z"/>
	<polygon fill="#FFFFFF" points="315.313,184.122 315.313,175.2 315.313,174.858 310.53,174.656 310.53,174.656 310.53,175.2 
		310.53,184.122 	"/>
	<polygon fill="#D61517" points="325.322,256.035 325.322,234.745 320.082,234.28 320.082,256.035 	"/>
	<polygon fill="#D61517" points="409.148,235.195 371.438,234.73 371.438,256.485 409.148,256.485 	"/>
	<polygon fill="#D61517" points="412.477,256.485 419.99,256.485 419.99,235.195 412.477,234.73 	"/>
	<polygon fill="#D61517" points="343.528,210.628 319.628,210.153 319.628,210.154 319.628,232.364 343.528,232.364 	"/>
	<polygon fill="#D61517" points="389.954,211.075 347.316,210.61 347.316,232.365 389.954,232.365 	"/>
	<polygon fill="#D61517" points="418.169,210.628 392.448,210.153 392.448,210.154 392.448,232.364 418.169,232.364 	"/>
	<polygon fill="#D61517" points="213.816,281.294 201.75,281.15 201.75,302.904 213.816,302.904 	"/>
	<polygon fill="#D61517" points="216.31,303.365 231.24,303.365 231.24,281.754 216.31,281.609 	"/>
	<polygon fill="#D61517" points="279.58,303.825 298.928,303.825 298.928,282.051 279.58,282.07 	"/>
	<polygon fill="#D61517" points="301.421,303.825 311.21,303.825 311.21,282.535 301.421,282.07 	"/>
	<polygon fill="#D61517" points="192.345,205.854 193.619,205.854 195.532,205.854 195.532,201.465 195.532,201.44 95.755,201.44 
		92.612,201.44 92.612,201.556 92.612,205.854 95.343,205.854 	"/>
	<polygon fill="#D61517" points="312.039,201.44 311.64,201.44 198.2,201.44 198.2,202.469 198.2,205.854 199.81,205.854 
		203.21,205.854 309.31,205.854 310.012,205.854 312.039,205.854 	"/>
	<polygon fill="#D61517" points="419.134,200.98 314.64,200.98 314.64,201.902 314.64,205.395 316.345,205.395 317.909,205.395 
		420.829,205.395 423.55,205.395 423.55,201.556 423.55,200.98 	"/>
	<polygon fill="#D61517" points="119.601,280.605 119.601,259.314 92.544,258.857 92.06,258.85 92.06,267.521 92.06,280.605 	"/>
	<polygon fill="#D61517" points="167.616,280.605 192.881,280.605 192.881,259.314 167.616,258.85 	"/>
	<path fill="#D61517" d="M143.21,264.156c10.412,0,19.188,5.909,21.924,13.981l0.139-18.684l-42.344-0.144v15.322
		C126.719,268.412,134.376,264.156,143.21,264.156z"/>
	<polygon fill="#D61517" points="231.727,258.084 203.571,257.939 203.57,257.939 203.57,279.695 231.566,279.695 	"/>
	<path fill="#D61517" d="M254.873,263.996c11.179,0,20.506,6.623,22.662,15.426l-0.158-21.178l-43.766-0.305h-0.001v17.759
		C237.15,268.816,245.336,263.996,254.873,263.996z"/>
	<polygon fill="#D61517" points="308.641,258.381 280.031,258.4 280.03,258.4 280.03,280.154 308.481,280.154 	"/>
	<polygon fill="#D61517" points="232.924,210.165 204.018,209.7 204.018,231.455 232.924,231.455 	"/>
	<polygon fill="#D61517" points="278.52,210.168 234.971,209.693 234.971,209.694 234.971,231.904 278.52,231.904 	"/>
	<polygon fill="#D61517" points="307.118,210.168 281.399,209.693 281.399,209.694 281.399,231.904 307.118,231.904 	"/>
	<path fill="#A11011" d="M105.798,177.09v5.325h-3.361l-0.363,2.158l88.979-0.909l-0.122-0.794H175.2v-1.026h-1.896v1.368h-17.983
		v-3.816l17.755,0.081v-1.731h-1.825V162.55v0v0l16.162,0.325v12.335l2.35,0.017l-0.004-0.027l-7.346-48.002v7.766h-33.913v-10
		l33.604,0.212l-1.003-6.56l-4.428,0.093l3.912,0.047v3.919h-7.06v-3.901l-1.124,0.023v3.877h-49.843v-2.835l-1.598,0.033v2.802
		h-7.97v-2.636l-0.035,0.001l-0.025-0.035l-0.833,4.958l33.521,0.214v9.786H112.08v-9.907l-8.43,50.144l-0.317,1.89H105.798z
		 M127.792,182.755h-20.714v-4.459v0v0l20.714,0.095V182.755z M168.38,176.464h-12.6v-13.263v0v0l12.6,0.283V176.464z
		 M170.8,136.424l12.976,0.241v11.046H170.8V136.424z M127.932,137.254l39.986,0.214v9.786h-39.986V137.254z M110.261,135.964
		l14.797,0.241v11.046h-14.797V135.964z M108.445,149.804L108.445,149.804l34.446,0.227v3.401c0.08-0.001,0.159-0.01,0.239-0.01
		c0.674,0,1.332,0.056,1.972,0.151v-3.77v0l40.495,0.228v10.416h-31.83c0.111,0.454,0.17,0.922,0.189,1.398h0.087v21.104h-3.032
		v0.008h-15.413v-0.008h-3.406v-0.196h-2.359v-0.447h-1.513v-5.931h-2.582v-12.919l6.454,0.191v-1.803h0.113
		c0.02-0.476,0.078-0.944,0.189-1.398h-24.05V149.804z M124.604,163.288v13.088h-17.982v-13.374L124.604,163.288z"/>
	<rect x="258.672" y="123.84" fill="#D61517" width="35.334" height="10.65"/>
	<polygon fill="#D61517" points="255.954,123.84 220.62,123.84 217.902,134.49 255.954,134.49 	"/>
	<rect x="217.9" y="137.15" fill="#D61517" width="13.503" height="10.65"/>
	<rect x="280.014" y="137.15" fill="#D61517" width="16.204" height="10.65"/>
	<rect x="234.104" y="137.15" fill="#D61517" width="43.21" height="10.65"/>
	<polygon fill="#D61517" points="231.465,110.53 223.3,110.53 220.578,121.18 231.465,121.18 	"/>
	<rect x="280.456" y="110.53" fill="#D61517" width="10.887" height="10.65"/>
	<rect x="234.187" y="110.53" fill="#D61517" width="43.548" height="10.65"/>
	<polygon fill="#D61517" points="255.732,86.565 209.936,86.565 209.9,86.565 209.9,91.89 209.936,91.89 255.732,91.89 	"/>
	<rect x="258.428" y="86.565" fill="#D61517" width="43.136" height="5.325"/>
	<rect x="279.3" y="94.553" fill="#D61517" width="21.354" height="5.325"/>
	<rect x="233.923" y="94.553" fill="#D61517" width="42.707" height="5.325"/>
	<polygon fill="#D61517" points="231.254,94.553 209.936,94.553 209.9,94.553 209.9,99.878 209.936,99.878 231.254,99.878 	"/>
	<polygon fill="#D61517" points="244.6,78.578 244.6,83.301 244.6,83.903 268.623,83.903 268.623,83.393 268.623,78.578 	"/>
	<polygon fill="#D61517" points="105.798,177.09 103.333,177.09 84.444,177.09 84.444,182.415 102.437,182.415 105.798,182.415 	"/>
	<rect x="407.42" y="177.09" fill="#D61517" width="21.354" height="5.325"/>
	
		<line fill="none" stroke="#D61517" stroke-width="0" stroke-linecap="round" stroke-linejoin="round" x1="107.078" y1="178.296" x2="107.078" y2="178.295"/>
	<polygon fill="#D61517" points="107.078,182.755 127.792,182.755 127.792,178.391 107.078,178.296 	"/>
	<polygon fill="#D61517" points="173.075,179.476 155.321,179.396 155.321,183.211 173.304,183.211 173.304,181.844 
		173.075,181.844 	"/>
	<polygon fill="#FFFFFF" points="203.341,184.572 203.341,175.2 203.341,173.972 198.103,173.74 198.103,175.2 198.103,184.572 	"/>
	<polygon fill="#D61517" points="106.621,176.376 124.604,176.376 124.604,163.288 106.621,163.002 	"/>
	<polygon fill="#D61517" points="128.32,173.9 132.192,173.9 132.192,163.648 125.738,163.457 125.738,176.376 128.32,176.376 	"/>
	
		<line fill="none" stroke="#D61517" stroke-width="0" stroke-linecap="round" stroke-linejoin="round" x1="171.25" y1="162.55" x2="171.25" y2="162.55"/>
	<polygon fill="#D61517" points="173.075,175.108 187.412,175.21 187.412,162.875 171.25,162.55 171.25,177.745 173.075,177.745 	
		"/>
	
		<line fill="none" stroke="#D61517" stroke-width="0" stroke-linecap="round" stroke-linejoin="round" x1="155.781" y1="163.201" x2="155.781" y2="163.2"/>
	<polygon fill="#D61517" points="155.781,163.201 155.781,176.464 168.38,176.464 168.38,163.484 	"/>
	<polygon fill="#A11011" points="173.075,175.108 173.075,177.745 173.075,179.476 173.075,181.844 173.304,181.844 175.2,181.844 
		175.2,177.09 193.333,177.09 193.333,175.252 189.762,175.227 187.412,175.21 	"/>
	<polygon fill="#A11011" points="217.224,104.108 217.224,104.108 296.198,104.145 296.198,105.323 297.848,104.016 
		216.325,104.016 216.325,102.288 216.325,102.287 216.325,102.288 298.487,102.324 298.487,103.51 303.023,99.917 303.024,99.917 
		209.936,99.917 209.49,99.917 217.224,104.933 217.224,104.108 	"/>
	<polygon fill="#A11011" points="293.02,107.203 289.382,107.203 289.382,108.113 285.009,108.113 292.266,108.205 292.554,108.209 
		295.549,105.837 293.02,105.837 	"/>
	<polygon fill="#A11011" points="221.331,107.203 220.723,107.203 220.873,107.3 221.257,107.305 221.331,107.306 	"/>
	<polygon fill="#D61517" points="210.92,78.578 210.92,83.172 210.92,83.903 234.943,83.903 234.943,83.264 234.943,78.578 	"/>
	<polygon fill="#D61517" points="276.91,79.033 276.91,83.424 276.91,84.358 302.298,84.358 302.298,83.521 302.298,79.033 	"/>
	<polygon fill="#D61517" points="289.382,107.203 221.331,107.203 221.331,107.306 221.331,108.113 285.009,108.113 
		289.382,108.113 	"/>
	<polygon fill="#D61517" points="221.331,107.203 289.382,107.203 293.02,107.203 293.02,105.837 217.687,105.837 217.687,107.203 
		220.723,107.203 	"/>
	
		<line fill="none" stroke="#D61517" stroke-width="0" stroke-linecap="round" stroke-linejoin="round" x1="217.224" y1="104.108" x2="217.224" y2="104.108"/>
	<polygon fill="#D61517" points="293.02,105.837 295.549,105.837 296.198,105.837 296.198,105.323 296.198,104.145 217.224,104.108 
		217.224,104.933 217.224,105.837 217.687,105.837 	"/>
	
		<line fill="none" stroke="#D61517" stroke-width="0" stroke-linecap="round" stroke-linejoin="round" x1="216.325" y1="102.288" x2="216.325" y2="102.287"/>
	<polygon fill="#D61517" points="216.325,102.288 216.325,104.016 297.848,104.016 298.487,104.016 298.487,103.51 298.487,102.324 
			"/>
	<polygon fill="#D61517" points="243.402,179.282 227.24,179.206 227.24,182.756 243.402,182.756 	"/>
	<polygon fill="#D61517" points="283.453,182.756 283.453,179.282 269.744,179.207 269.744,182.756 	"/>
	<polygon fill="#D61517" points="117.775,210.183 95.696,209.699 95.696,209.699 95.696,232.364 117.775,232.364 	"/>
	
		<line fill="none" stroke="#D61517" stroke-width="0" stroke-linecap="round" stroke-linejoin="round" x1="212.67" y1="163.732" x2="212.67" y2="163.732"/>
	<polygon fill="#D61517" points="212.67,163.732 212.67,175.128 227.008,175.257 227.008,177.75 243.397,177.75 243.397,175.2 
		243.397,164.032 	"/>
	
		<line fill="none" stroke="#D61517" stroke-width="0" stroke-linecap="round" stroke-linejoin="round" x1="276.96" y1="163.732" x2="276.96" y2="163.732"/>
	<polygon fill="#D61517" points="276.96,175.2 276.96,177.75 283.668,177.75 283.668,175.559 303.025,175.693 303.025,175.2 
		303.025,166.528 303.025,164.032 302.564,164.027 276.96,163.732 	"/>
	
		<line fill="none" stroke="#D61517" stroke-width="0" stroke-linecap="round" stroke-linejoin="round" x1="265.927" y1="163.732" x2="265.927" y2="163.732"/>
	<polygon fill="#D61517" points="265.927,163.732 265.927,175.2 265.927,176.14 269.744,176.14 269.744,177.75 273.442,177.75 
		273.442,175.2 273.442,164.032 	"/>
	<polygon fill="#A11011" points="225.915,177.09 225.915,182.294 227.008,182.294 227.008,177.75 227.008,175.257 212.67,175.128 
		210.532,175.108 209.936,175.103 209.936,175.2 209.936,177.09 	"/>
	<polygon fill="#D61517" points="175.2,177.09 175.2,181.844 175.2,182.87 190.931,182.87 196.554,182.87 196.554,177.09 
		193.333,177.09 	"/>
	<polygon fill="#D61517" points="225.915,177.09 209.936,177.09 204.561,177.09 204.561,182.87 225.915,182.87 225.915,182.294 	"/>
	<polygon fill="#A11011" points="283.668,177.75 283.668,182.294 285.54,182.294 285.54,177.09 304.382,177.09 304.382,175.703 
		303.025,175.693 283.668,175.559 	"/>
	<polygon fill="#D61517" points="166.021,210.628 120.652,210.153 120.652,210.154 120.652,232.364 166.021,232.364 	"/>
	<polygon fill="#D61517" points="191.509,210.628 168.065,210.153 168.065,210.154 168.065,232.364 191.509,232.364 	"/>
	<path fill="#D61517" d="M254.92,153.423c0.26,0,0.515,0.017,0.771,0.031v-3.569l-40.739-0.261v12.197h29.145
		C244.307,157.155,249.066,153.423,254.92,153.423z"/>
	<path fill="#D61517" d="M260.118,150.086l-1.938-0.012v3.751c0.677,0.171,1.325,0.395,1.938,0.664V150.086z"/>
	<path fill="#A11011" d="M192.407,88.962H168.74v6.827h23.667V88.962z M191.214,94.631H169.86v-4.038h21.354V94.631z"/>
	<path fill="#A11011" d="M160.548,88.507H134.15v7.283h26.398V88.507z M135.161,94.819v-4.681h24.022v4.681H135.161z"/>
	<path fill="#A11011" d="M125.957,88.962H105.02v6.827h20.938V88.962z M124.484,94.819H105.8v-4.681h18.684V94.819z"/>
	<polygon fill="#A11011" points="189.246,111.42 189.246,111.922 191.963,109.444 126.883,109.444 126.883,109.932 106.625,109.932 
		106.625,109.444 105.43,109.444 107.085,111.775 107.085,111.387 	"/>
	<polygon fill="#A11011" points="104.808,108.568 105.02,108.866 105.02,108.569 	"/>
	<polygon fill="#A11011" points="192.424,109.023 192.407,109.023 192.407,109.039 	"/>
	<polygon fill="#A11011" points="186.958,113.04 186.958,114.01 188.148,112.925 107.902,112.925 107.984,113.041 107.984,113.007 	
		"/>
	<polygon fill="#A11011" points="112.99,120.04 112.99,118.671 120.959,118.756 120.959,119.874 122.557,119.84 122.557,118.671 
		172.4,118.756 172.4,118.798 173.524,118.775 173.524,118.671 176.672,118.709 181.099,118.616 181.928,118.599 186.372,114.544 
		183.78,114.544 183.78,115.759 180.142,115.759 180.142,116.569 112.091,116.569 112.091,115.759 109.914,115.759 112.929,120.006 
		112.954,120.041 	"/>
	<rect x="135.161" y="90.138" fill="#D61517" width="24.022" height="4.681"/>
	<rect x="105.8" y="90.138" fill="#D61517" width="18.684" height="4.681"/>
	<rect x="169.86" y="90.593" fill="#D61517" width="21.354" height="4.038"/>
	<path fill="#A11011" d="M106.625,104.217l20.258,0.123v5.104h65.08h0.444v-0.405v-0.015V95.79h-31.859H134.15h-29.13v12.779v0.297
		v0.578h0.41h1.195V104.217z M131.497,109.282v-5.259l35.89,0.112v5.147H131.497z M191.052,109.289h-20.148v-5.071l20.148,0.108
		V109.289z M191.51,101.286h-41.273v-4.004l41.273,0.085V101.286z M106.164,97.281l41.194,0.085v3.919h-41.194V97.281z"/>
	<path fill="#D61517" d="M142.891,153.433v-3.401l-34.446-0.228v0v10.643h24.05C133.46,156.505,137.731,153.523,142.891,153.433z"/>
	<path fill="#D61517" d="M153.767,160.447h31.83v-10.416l-40.495-0.228v0v3.77C149.464,154.219,152.911,156.956,153.767,160.447z"/>
	<polygon fill="#D61517" points="147.359,97.367 106.164,97.281 106.164,101.286 147.359,101.286 	"/>
	<polygon fill="#D61517" points="125.058,136.205 110.261,135.964 110.261,147.251 125.058,147.251 	"/>
	<polygon fill="#D61517" points="167.918,137.468 127.932,137.254 127.932,147.254 167.918,147.254 	"/>
	<polygon fill="#D61517" points="183.776,136.665 170.8,136.424 170.8,147.711 183.776,147.711 	"/>
	<polygon fill="#D61517" points="145.616,134.964 145.616,125.178 112.096,124.964 112.08,124.964 112.08,125.057 112.08,134.964 	
		"/>
	<polygon fill="#D61517" points="148.499,134.964 182.412,134.964 182.412,127.198 182.412,125.178 182.103,125.176 
		148.499,124.964 	"/>
	<polygon fill="#D61517" points="122.557,118.671 122.557,119.84 122.557,122.676 172.4,122.676 172.4,118.798 172.4,118.756 	"/>
	<polygon fill="#D61517" points="173.524,118.775 173.524,122.676 180.583,122.676 180.583,118.756 176.672,118.709 
		173.524,118.671 	"/>
	<polygon fill="#D61517" points="120.959,118.756 112.99,118.671 112.99,120.04 112.99,122.676 120.959,122.676 120.959,119.874 	
		"/>
	<polygon fill="#D61517" points="150.237,101.286 191.51,101.286 191.51,97.367 150.237,97.281 	"/>
	<polygon fill="#D61517" points="126.883,104.34 106.625,104.217 106.625,109.444 106.625,109.932 126.883,109.932 126.883,109.444 
			"/>
	<polygon fill="#D61517" points="167.387,104.135 131.497,104.023 131.497,109.282 167.387,109.282 	"/>
	<polygon fill="#D61517" points="191.052,104.326 170.904,104.217 170.904,109.289 191.052,109.289 	"/>
	<rect x="112.091" y="115.759" fill="#D61517" width="68.051" height="0.81"/>
	<polygon fill="#D61517" points="180.142,115.759 183.78,115.759 183.78,114.544 108.447,114.544 108.447,115.759 109.914,115.759 
		112.091,115.759 	"/>
	<polygon fill="#D61517" points="183.78,114.544 186.372,114.544 186.958,114.544 186.958,114.01 186.958,113.04 107.984,113.007 
		107.984,113.041 107.984,114.544 108.447,114.544 	"/>
	<polygon fill="#D61517" points="189.246,112.925 189.246,111.922 189.246,111.42 107.085,111.387 107.085,111.775 107.085,112.925 
		107.902,112.925 188.148,112.925 	"/>
	<polygon fill="#D61517" points="354.455,178.836 339.203,178.751 339.203,182.755 354.455,182.755 	"/>
	<polygon fill="#D61517" points="404.972,178.376 381.982,178.291 381.982,182.295 404.972,182.295 	"/>
	<polygon fill="#D61517" points="386.723,164.265 386.723,175.2 386.723,176.839 407.247,176.839 407.247,175.2 407.247,164.534 	
		"/>
	<polygon fill="#D61517" points="375.647,163.809 375.647,163.809 375.647,175.2 375.647,175.86 381.531,175.86 381.531,176.838 
		384.036,176.838 384.036,175.2 384.036,164.087 	"/>
	<polygon fill="#D61517" points="323.725,163.348 323.725,175.129 338.974,175.275 338.974,177.288 340.798,177.288 340.798,175.2 
		340.798,163.646 	"/>
	<polygon fill="#D61517" points="343.669,163.164 343.669,175.2 343.669,177.292 354.448,177.292 354.448,175.2 354.448,163.466 	
		"/>
	<polygon fill="#A11011" points="338.974,175.275 323.725,175.129 320.99,175.103 320.99,175.2 320.99,177.09 338.014,177.09 
		338.014,182.87 320.99,182.87 320.99,183.203 338.974,183.203 338.974,177.288 	"/>
	<polygon fill="#D61517" points="285.54,177.09 285.54,182.294 285.54,182.87 309.153,182.87 309.153,177.09 304.382,177.09 	"/>
	<polygon fill="#D61517" points="338.014,177.09 320.99,177.09 317.024,177.09 317.024,182.87 320.99,182.87 338.014,182.87 	"/>
	<path fill="#D61517" d="M265.746,161.845h0.087v0.426h33.088h0.006v-11.936l-38.809-0.261v0.012v4.403
		C263.381,155.924,265.615,158.67,265.746,161.845z"/>
	<path fill="#A11011" d="M411.326,88.852h-23.667v6.827h23.667V88.852z M410.134,93.877H388.78v-3.394h21.354V93.877z"/>
	<path fill="#A11011" d="M379.468,88.397H353.07v7.282h26.398V88.397z M354.08,94.064v-4.038h24.023v4.038H354.08z"/>
	<path fill="#A11011" d="M344.877,88.852H323.94v6.827h20.938V88.852z M343.404,94.064H324.72v-4.038h18.684V94.064z"/>
	<polygon fill="#A11011" points="326.912,112.896 326.912,112.896 405.886,112.929 405.886,113.858 405.923,113.858 
		407.068,112.814 326.82,112.814 326.912,112.944 326.912,112.896 	"/>
	<polygon fill="#A11011" points="411.344,108.913 411.326,108.913 411.326,108.929 	"/>
	<polygon fill="#A11011" points="408.174,111.309 408.174,111.805 410.884,109.333 324.348,109.333 326.014,111.679 
		326.014,111.276 	"/>
	<polygon fill="#A11011" points="323.727,108.458 323.94,108.758 323.94,108.459 	"/>
	<polygon fill="#A11011" points="331.919,119.93 331.919,118.561 339.889,118.646 339.889,119.764 341.477,119.73 341.477,118.561 
		391.32,118.646 391.32,118.688 392.453,118.665 392.453,118.561 395.595,118.599 400.847,118.489 400.882,118.458 405.05,114.655 
		402.707,114.655 402.707,114.964 402.707,115.648 399.07,115.648 399.07,116.458 331.02,116.458 331.02,115.648 328.832,115.648 
		331.809,119.84 331.873,119.931 	"/>
	<rect x="354.08" y="90.027" fill="#D61517" width="24.023" height="4.038"/>
	<rect x="324.72" y="90.027" fill="#D61517" width="18.684" height="4.038"/>
	<rect x="388.78" y="90.483" fill="#D61517" width="21.354" height="3.394"/>
	<path fill="#A11011" d="M411.326,109.333v-0.404v-0.016V95.679h-23.667h-8.191H353.07h-8.192H323.94v12.78v0.299v0.575h0.408
		h86.536H411.326z M409.975,102.939v5.593h-22.079v-5.715L409.975,102.939z M347.852,102.633l37.177,0.126v5.777h-37.177V102.633z
		 M410.432,97.257v3.919h-42.561v-4.005L410.432,97.257z M325.094,97.171l38.62,0.086v3.919h-38.62V97.171z M325.55,102.177
		l18.971,0.136v6.223H325.55V102.177z"/>
	<path fill="#D61517" d="M362.457,154.285v-4.99l-36-0.241v0v11.287h29.395C356.681,157.431,359.208,155.121,362.457,154.285z"/>
	<path fill="#D61517" d="M374.434,160.341h30.082v-11.046l-38.731-0.241v0v4.917C369.985,154.216,373.438,156.844,374.434,160.341z"
		/>
	<polygon fill="#D61517" points="363.714,97.257 325.094,97.171 325.094,101.176 363.714,101.176 	"/>
	<polygon fill="#D61517" points="343.988,136.095 329.191,135.854 329.191,135.854 329.191,147.141 343.988,147.141 	"/>
	<polygon fill="#D61517" points="347.505,135.854 347.505,147.141 386.847,147.141 386.847,136.095 347.505,135.854 	"/>
	<polygon fill="#D61517" points="389.72,136.304 389.72,147.591 402.696,147.591 402.696,136.545 389.72,136.304 	"/>
	<polygon fill="#D61517" points="365.186,125.667 331.007,125.494 331.007,133.562 365.186,133.562 	"/>
	<polygon fill="#D61517" points="401.33,125.667 368.062,125.494 368.062,133.562 401.33,133.562 	"/>
	<polygon fill="#D61517" points="341.477,118.561 341.477,119.73 341.477,122.565 391.32,122.565 391.32,118.688 391.32,118.646 	
		"/>
	<polygon fill="#D61517" points="392.453,118.665 392.453,122.565 399.513,122.565 399.513,118.646 395.595,118.599 
		392.453,118.561 	"/>
	<polygon fill="#D61517" points="331.919,118.561 331.919,119.93 331.919,122.565 339.889,122.565 339.889,119.764 339.889,118.646 
			"/>
	<polygon fill="#D61517" points="367.871,101.176 410.432,101.176 410.432,97.257 367.871,97.171 	"/>
	<polygon fill="#D61517" points="344.521,108.536 344.521,102.313 325.55,102.177 325.55,108.536 	"/>
	<polygon fill="#D61517" points="385.029,102.759 347.852,102.633 347.852,108.536 385.029,108.536 	"/>
	<polygon fill="#D61517" points="387.896,102.817 387.896,108.532 409.975,108.532 409.975,102.939 	"/>
	<rect x="331.02" y="115.648" fill="#D61517" width="68.05" height="0.81"/>
	<polygon fill="#D61517" points="399.07,115.648 402.707,115.648 402.707,114.964 399.07,114.964 399.07,115.17 331.02,115.17 
		331.02,114.964 327.374,114.964 327.374,115.648 328.832,115.648 331.02,115.648 	"/>
	
		<line fill="none" stroke="#D61517" stroke-width="0" stroke-linecap="round" stroke-linejoin="round" x1="326.912" y1="112.896" x2="326.912" y2="112.896"/>
	<polygon fill="#D61517" points="405.886,113.858 405.886,112.929 326.912,112.896 326.912,112.944 326.912,113.851 	"/>
	<polygon fill="#D61517" points="405.886,114.271 405.886,114.242 326.912,114.242 326.912,114.263 	"/>
	<polygon fill="#D61517" points="407.068,112.814 408.174,112.814 408.174,111.805 408.174,111.309 326.014,111.276 
		326.014,111.679 326.014,112.814 326.82,112.814 	"/>
	<rect x="331.02" y="114.964" fill="#D61517" width="68.05" height="0.207"/>
	<polygon fill="#D61517" points="331.02,114.964 399.07,114.964 402.707,114.964 402.707,114.655 327.374,114.655 327.374,114.964 	
		"/>
	<polygon fill="#D61517" points="402.707,114.655 405.05,114.655 405.886,114.655 405.886,114.434 405.886,114.271 326.912,114.263 
		326.912,114.434 326.912,114.655 327.374,114.655 	"/>
	<polygon fill="#D61517" points="405.886,114.242 408.174,114.242 408.174,113.859 405.923,113.858 405.886,113.858 
		326.912,113.851 326.014,113.851 326.014,114.242 326.912,114.242 	"/>
	<polygon fill="#808080" points="234.64,489.643 234.64,483.22 232.07,483.22 232.07,491.565 251.726,491.565 251.726,489.643 	"/>
	<polygon fill="#808080" points="234.64,464.54 251.726,464.54 251.726,462.6 232.07,462.6 232.07,474.208 234.64,474.208 	"/>
	<polygon fill="#FFC500" points="234.64,474.208 237.86,474.208 237.86,469.68 249.446,469.68 249.446,487.059 237.86,487.059 
		237.86,483.22 234.64,483.22 234.64,489.643 251.726,489.643 251.726,464.54 234.64,464.54 	"/>
	<path fill="#808080" d="M249.446,487.059V469.68H237.86v4.528h1.307v1.926h0.645v5.149h-0.645v1.937h-1.307v3.839H249.446z
		 M240.44,471.62h7.081v13.517h-7.081V471.62z"/>
	<rect x="240.44" y="471.62" fill="#D61517" width="7.081" height="13.517"/>
	<polygon fill="#808080" points="239.166,476.134 239.166,474.208 237.86,474.208 234.64,474.208 232.07,474.208 231.443,474.208 
		231.443,476.134 	"/>
	<polygon fill="#808080" points="237.86,483.22 239.166,483.22 239.166,481.283 231.443,481.283 231.443,483.22 232.07,483.22 
		234.64,483.22 	"/>
	<polygon fill="#D61517" points="239.166,481.283 239.811,481.283 239.811,476.134 239.166,476.134 231.443,476.134 
		231.443,481.283 	"/>
	<polygon fill="#808080" points="260.396,431.436 259.698,432.207 259.446,431.927 259.446,501.067 253.652,501.067 
		253.652,432.183 253.193,431.724 252.804,432.106 251.726,431.047 251.726,462.6 251.726,464.54 251.726,489.643 251.726,491.565 
		251.726,502.993 261.381,502.993 261.381,431.712 261.015,432.113 	"/>
	<polygon fill="#FFC500" points="255.269,433.8 253.652,432.183 253.652,501.067 259.446,501.067 259.446,431.927 258.352,430.717 	
		"/>
	<polygon fill="#808080" points="274.453,407.689 259.289,393.149 259.289,393.804 274.223,407.942 	"/>
	<polygon fill="#808080" points="278.033,403.771 278.517,403.241 282.722,407.846 283.113,407.476 259.289,384.921 
		259.289,385.797 	"/>
	<polygon fill="#808080" points="274.615,407.845 274.453,407.689 274.223,407.942 256.656,427.178 256.913,427.432 	"/>
	<polygon fill="#808080" points="278.033,403.771 278.175,403.905 278.24,403.834 279.145,404.835 282.017,407.59 281.483,408.102 
		260.396,431.436 261.015,432.113 261.381,431.712 282.95,408.096 282.722,407.846 278.517,403.241 	"/>
	<polygon fill="#FFC500" points="281.483,408.102 282.017,407.59 279.145,404.835 281.789,407.763 	"/>
	<polygon fill="#FFC500" points="274.615,407.845 278.175,403.905 278.033,403.771 259.289,385.797 259.289,388.126 
		259.669,388.494 259.289,388.862 259.289,393.149 274.453,407.689 	"/>
	<polygon fill="#FFC500" points="256.913,427.432 257.238,427.75 257.22,427.767 259.261,429.808 258.352,430.717 259.446,431.927 
		259.698,432.207 260.396,431.436 281.483,408.102 281.789,407.763 279.145,404.835 278.24,403.834 278.175,403.905 
		274.615,407.845 	"/>
	<polygon fill="#808080" points="253.193,431.724 234.441,412.972 233.898,413.499 231.702,411.369 251.726,431.047 
		252.804,432.106 	"/>
	<polygon fill="#808080" points="257.22,427.767 257.238,427.75 256.913,427.432 256.656,427.178 255.25,425.797 	"/>
	<polygon fill="#808080" points="238.493,409.04 254.14,393.859 254.14,392.665 238.129,408.676 	"/>
	<polygon fill="#808080" points="259.289,388.126 259.289,388.862 259.669,388.494 	"/>
	<polygon fill="#808080" points="234.441,412.972 230.432,408.962 231.606,407.788 231.572,407.754 254.14,385.186 254.14,384.549 
		229.099,408.844 231.702,411.369 233.898,413.499 	"/>
	<polygon fill="#FFC500" points="231.606,407.788 234.423,404.971 238.129,408.676 254.14,392.665 254.14,385.186 231.572,407.754 	
		"/>
	<path fill="#808080" d="M259.289,350.247v-14.026h-5.149v14.026v1.646v32.647v0.009v0.637v7.479v1.194v4.517h5.149v-4.572v-0.654
		v-4.287v-0.736v-2.329v-0.876v-0.381v-32.647V350.247z M258.55,397.164h-3.54V337.05h3.54V397.164z"/>
	<rect x="255.01" y="337.05" fill="#FFC500" width="3.54" height="60.114"/>
	<polygon fill="#FFC500" points="258.352,430.717 259.261,429.808 257.22,427.767 255.25,425.797 238.493,409.04 238.129,408.676 
		234.423,404.971 231.606,407.788 230.432,408.962 234.441,412.972 253.193,431.724 253.652,432.183 255.269,433.8 	"/>
	<path fill="#A11011" d="M348.24,325.222v-2.312h0.437v-16.998h-0.437V303.6h0.437v-12.456c-0.922-2.111-1.43-4.396-1.43-6.784
		c0-0.219,0.011-0.436,0.02-0.652h-0.217v46.773h1.627v-5.259H348.24z"/>
	<path fill="#A11011" d="M392.231,284.359c0,1.166-0.127,2.306-0.357,3.415v0.438h-0.091c-0.059,0.246-0.126,0.489-0.194,0.731
		v14.816h0.126v2.312h-0.126v16.998h0.285v2.312h-0.285v5.099h0.786v-46.773h-0.163C392.22,283.924,392.231,284.141,392.231,284.359
		z"/>
	<path fill="#A11011" d="M348.676,291.144v-3.571H348.4v-2.312h0.503c0.185-4.338,2.045-8.296,5.052-11.385l-0.135-0.135
		l1.635-1.635l0.213,0.213c3.514-2.865,8.126-4.693,13.23-4.956v-2.122h2.312v2.113c5.22,0.224,9.938,2.084,13.507,5.021
		l0.108-0.108l1.635,1.635l-0.035,0.035c2.986,3.098,4.825,7.059,4.991,11.396h0.172v0.569h0.285v1.874
		c0.23-1.109,0.357-2.249,0.357-3.415c0-0.219-0.011-0.436-0.02-0.652c-0.081-2.104-0.548-4.124-1.353-6.006
		c-3.158-7.389-11.423-12.66-21.12-12.66c-8.348,0-15.628,3.909-19.509,9.709c-1.776,2.654-2.838,5.703-2.964,8.957
		c-0.009,0.217-0.02,0.434-0.02,0.652C347.246,286.747,347.754,289.032,348.676,291.144z"/>
	<path fill="#A11011" d="M391.588,288.943c0.068-0.242,0.136-0.485,0.194-0.731h-0.194V288.943z"/>
	<rect x="348.676" y="305.912" fill="#D61517" width="5.471" height="16.998"/>
	<rect x="386.116" y="306.072" fill="#D61517" width="5.472" height="16.998"/>
	<polygon fill="#D61517" points="386.116,325.382 386.116,330.489 354.147,330.489 354.147,325.222 348.676,325.222 348.676,330.48 
		348.676,330.496 391.588,330.496 391.588,330.48 391.588,325.382 	"/>
	<path fill="#D61517" d="M354.147,298.233c-2.901-2.902-4.793-6.591-5.191-10.661h-0.279v3.571V303.6h5.471V298.233z"/>
	<path fill="#D61517" d="M391.588,285.9v-0.569h-0.172c0.007,0.19,0.032,0.377,0.032,0.569H391.588z"/>
	<path fill="#D61517" d="M391.282,288.212c-0.528,3.841-2.39,7.313-5.166,10.071v5.477h5.472v-14.816v-0.731H391.282z"/>
	<path fill="#D61517" d="M368.898,271.232v-3.87c-5.104,0.263-9.717,2.091-13.23,4.956l3.619,3.619
		C361.841,273.281,365.187,271.554,368.898,271.232z"/>
	<path fill="#D61517" d="M381.084,276.007l3.633-3.633c-3.569-2.937-8.287-4.797-13.507-5.021v3.868
		C375.031,271.502,378.477,273.265,381.084,276.007z"/>
	<path fill="#D61517" d="M385.797,285.9h5.651c0-0.192-0.025-0.379-0.032-0.569c-0.166-4.337-2.005-8.298-4.991-11.396l-3.858,3.857
		C384.225,280.095,385.359,282.867,385.797,285.9z"/>
	<path fill="#D61517" d="M357.79,277.71l-3.836-3.835c-3.007,3.089-4.867,7.047-5.052,11.385h5.689
		C355.098,282.439,356.218,279.867,357.79,277.71z"/>
	<path fill="#D61517" d="M386.116,298.283c2.776-2.758,4.638-6.23,5.166-10.071h-5.166V298.283z"/>
	<path fill="#D61517" d="M348.955,287.572c0.398,4.07,2.29,7.759,5.191,10.661v-10.147h0.166c0.005-0.172,0.014-0.343,0.023-0.514
		H348.955z"/>
	<path fill="#A11011" d="M385.579,323.07h0.537v-16.998h-0.696v-2.312h0.696v-5.477v-10.071h-0.122
		c0.004,0.156,0.021,0.309,0.021,0.466c0,3.085-0.729,5.979-1.997,8.497v32.505H355.98v-33.16c-1.075-2.361-1.694-5.019-1.694-7.842
		c0-0.2,0.021-0.394,0.027-0.592h-0.166v10.147v5.366h0.387v2.312h-0.387v16.998h0.387v2.312h-0.387v5.268h31.97v-5.107h-0.537
		V323.07z"/>
	<path fill="#A11011" d="M382.567,277.793l-0.558,0.558l-1.635-1.635l0.71-0.709c-2.607-2.742-6.053-4.505-9.874-4.785v0.312h-2.312
		v-0.301c-3.711,0.321-7.057,2.049-9.611,4.705l0.618,0.617l-1.635,1.635l-0.479-0.479c-1.572,2.157-2.692,4.729-3.198,7.55h0.102
		v2.312h-0.357c-0.01,0.171-0.019,0.342-0.023,0.514c-0.006,0.198-0.027,0.392-0.027,0.592c0,2.823,0.619,5.48,1.694,7.842v-7.289
		h0.153c0.251-8.962,6.365-16.141,13.892-16.141c7.525,0,13.64,7.179,13.891,16.141h0.104v7.944
		c1.269-2.518,1.997-5.412,1.997-8.497c0-0.157-0.018-0.31-0.021-0.466h-0.415V285.9h0.218
		C385.359,282.867,384.225,280.095,382.567,277.793z"/>
	<path fill="#D61517" d="M383.915,289.23c0.005,0.189,0.023,0.375,0.023,0.566c0,9.227-6.229,16.707-13.914,16.707
		c-7.686,0-13.915-7.48-13.915-16.707c0-0.191,0.019-0.377,0.023-0.566h-0.153v7.289v33.16h28.039v-32.505v-7.944H383.915z"/>
	<path fill="#D61517" d="M370.025,306.504c7.685,0,13.914-7.48,13.914-16.707c0-0.191-0.019-0.377-0.023-0.566
		c-0.251-8.962-6.365-16.141-13.891-16.141c-7.526,0-13.641,7.179-13.892,16.141c-0.005,0.189-0.023,0.375-0.023,0.566
		C356.11,299.023,362.339,306.504,370.025,306.504z"/>
	<path fill="#A11011" d="M278.005,283.314c0,0.988-0.09,1.958-0.261,2.906h0.039v2.311h-0.452v15.389h0.123v2.312h-0.123v15.877
		h0.123v2.312h-0.123v5.014h0.821v-46.773h-0.167C277.994,282.879,278.005,283.096,278.005,283.314z"/>
	<path fill="#A11011" d="M233.03,324.582v-2.312h0.17v-16.357h-0.01V303.6h0.01v-13.525c-0.108-0.241-0.208-0.486-0.305-0.732
		h-0.185v-0.489c-0.628-1.755-0.97-3.612-0.97-5.538c0-0.219,0.011-0.436,0.02-0.652h-0.222v46.773h1.661v-4.854H233.03z"/>
	<path fill="#A11011" d="M232.71,288.853v-1.823h0.489v-2.743h0.21c0.155-3.96,1.752-7.607,4.367-10.569l-0.137-0.137l1.635-1.635
		l0.134,0.134c3.75-3.365,8.955-5.543,14.759-5.793v-1.526h2.312v1.53c6.015,0.274,11.383,2.616,15.146,6.205l0.069-0.069
		l1.635,1.635l-0.128,0.128c2.378,2.874,3.824,6.345,3.971,10.098h0.158v1.935h0.413c0.171-0.948,0.261-1.918,0.261-2.906
		c0-0.219-0.011-0.436-0.02-0.652c-0.044-1.105-0.192-2.189-0.45-3.24c-2.156-8.803-11.483-15.426-22.662-15.426
		c-9.537,0-17.724,4.82-21.263,11.702c-1.105,2.148-1.752,4.498-1.851,6.964c-0.008,0.217-0.02,0.434-0.02,0.652
		C231.74,285.24,232.082,287.098,232.71,288.853z"/>
	<path fill="#A11011" d="M232.895,289.342c0.097,0.246,0.196,0.491,0.305,0.732v-0.732H232.895z"/>
	<rect x="233.199" y="305.912" fill="#D61517" width="5.608" height="16.357"/>
	<path fill="#D61517" d="M238.808,297.191c-2.277-2.217-3.947-4.895-4.792-7.85h-0.817v0.732V303.6h5.608V297.191z"/>
	<polygon fill="#D61517" points="271.686,324.422 271.686,329.444 238.808,329.444 238.808,324.582 233.199,324.582 
		233.199,329.436 233.199,329.451 277.331,329.451 277.331,329.436 277.331,324.422 	"/>
	<rect x="271.686" y="306.232" fill="#D61517" width="5.646" height="15.877"/>
	<path fill="#D61517" d="M277.132,286.221h0.199v-1.935h-0.158c0.008,0.21,0.019,0.419,0.019,0.63
		C277.192,285.355,277.167,285.789,277.132,286.221z"/>
	<path fill="#D61517" d="M276.777,288.531c-0.765,3.315-2.56,6.314-5.091,8.747v6.642h5.646v-15.389H276.777z"/>
	<path fill="#D61517" d="M233.391,284.916c0-0.211,0.011-0.42,0.019-0.63h-0.21v2.743h0.335
		C233.443,286.335,233.391,285.631,233.391,284.916z"/>
	<path fill="#D61517" d="M254.168,270.178v-3.892c-5.805,0.25-11.009,2.428-14.759,5.793l3.792,3.793
		C245.954,272.618,249.824,270.489,254.168,270.178z"/>
	<path fill="#D61517" d="M267.752,276.368l3.874-3.873c-3.764-3.589-9.132-5.931-15.146-6.205v3.894
		C260.998,270.542,265.003,272.861,267.752,276.368z"/>
	<path fill="#D61517" d="M271.516,286.221h5.616c0.035-0.432,0.06-0.865,0.06-1.305c0-0.211-0.011-0.42-0.019-0.63
		c-0.146-3.753-1.593-7.224-3.971-10.098l-4.135,4.133C270.432,280.645,271.3,283.331,271.516,286.221z"/>
	<path fill="#D61517" d="M271.686,297.278c2.531-2.433,4.326-5.432,5.091-8.747h-5.091V297.278z"/>
	<path fill="#D61517" d="M233.534,287.029h5.444c0.109-3.438,1.127-6.627,2.825-9.286l-4.027-4.026
		c-2.615,2.962-4.212,6.609-4.367,10.569c-0.008,0.21-0.019,0.419-0.019,0.63C233.391,285.631,233.443,286.335,233.534,287.029z"/>
	<path fill="#D61517" d="M238.808,297.191v-7.85h-4.792C234.861,292.297,236.531,294.975,238.808,297.191z"/>
	<path fill="#A11011" d="M271.16,322.109h0.525v-15.877h-0.525v-2.312h0.525v-6.642v-8.747h-0.146
		c-0.13,2.743-0.833,5.322-2.007,7.59v32.521h-28.836v-33.157c-0.957-2.042-1.549-4.309-1.693-6.711v0.567h-0.196v7.85v6.408h0.676
		v2.312h-0.676v16.357h0.516v2.312h-0.516v4.862h32.878v-5.022h-0.525V322.109z"/>
	<path fill="#A11011" d="M269.068,278.321l-0.188,0.188l-1.635-1.635l0.508-0.507c-2.749-3.507-6.754-5.826-11.272-6.185v0.87
		h-2.312v-0.876c-4.344,0.312-8.214,2.44-10.967,5.694l0.524,0.523l-1.635,1.634l-0.286-0.286c-1.698,2.659-2.716,5.848-2.825,9.286
		h0.025v1.745c0.145,2.402,0.736,4.669,1.693,6.711v-7.292h0.149c0.257-8.963,6.546-16.143,14.285-16.143
		c7.74,0,14.029,7.18,14.286,16.143h0.115v7.928c1.174-2.268,1.877-4.847,2.007-7.59h-0.051v-2.311h0.026
		C271.3,283.331,270.432,280.645,269.068,278.321z"/>
	<path fill="#D61517" d="M269.418,288.193c0.006,0.189,0.024,0.374,0.024,0.564c0,9.227-6.407,16.707-14.311,16.707
		c-7.902,0-14.31-7.48-14.31-16.707c0-0.19,0.019-0.375,0.024-0.564h-0.149v7.292v33.157h28.836v-32.521v-7.928H269.418z"/>
	<path fill="#D61517" d="M255.132,305.465c7.903,0,14.311-7.48,14.311-16.707c0-0.19-0.019-0.375-0.024-0.564
		c-0.257-8.963-6.546-16.143-14.286-16.143c-7.739,0-14.028,7.18-14.285,16.143c-0.005,0.189-0.024,0.374-0.024,0.564
		C240.823,297.984,247.23,305.465,255.132,305.465z"/>
	<path fill="#A11011" d="M121.19,322.972v-2.312h0.6v-14.908h-0.6v-2.312h0.6v-13.306c-0.09-0.208-0.172-0.42-0.253-0.632h-0.186
		v-0.5c-0.616-1.752-0.952-3.605-0.952-5.526c0-0.219,0.011-0.436,0.02-0.652h-0.22v46.772h1.592v-6.624H121.19z"/>
	<path fill="#A11011" d="M166.024,283.476c0,1.663-0.249,3.276-0.715,4.815v15.629h0.475v2.312h-0.475V321.3h0.635v2.312h-0.635
		v5.984h0.86v-46.772h-0.165C166.013,283.04,166.024,283.257,166.024,283.476z"/>
	<path fill="#A11011" d="M121.35,289.002v-1.812h0.439v-2.742h0.225c0.181-4.67,2.34-8.896,5.788-12.086l-0.066-0.066l1.635-1.635
		l0.217,0.217c3.473-2.555,7.893-4.161,12.743-4.4v-0.75h2.312v0.742c5.609,0.237,10.656,2.304,14.342,5.547l0.236-0.236
		l1.635,1.635l-0.235,0.234c2.703,3.004,4.358,6.733,4.516,10.799h0.173v3.844c0.466-1.539,0.715-3.152,0.715-4.815
		c0-0.219-0.011-0.436-0.02-0.652c-0.063-1.621-0.363-3.19-0.87-4.686c-2.736-8.072-11.513-13.981-21.924-13.981
		c-8.834,0-16.491,4.256-20.28,10.477c-1.504,2.469-2.397,5.245-2.513,8.19c-0.009,0.217-0.02,0.434-0.02,0.652
		C120.398,285.396,120.734,287.25,121.35,289.002z"/>
	<path fill="#A11011" d="M121.536,289.502c0.082,0.212,0.163,0.424,0.253,0.632v-0.632H121.536z"/>
	<path fill="#D61517" d="M127.352,297.363c-2.254-2.219-3.901-4.899-4.737-7.861h-0.825v0.632v13.306h5.562V297.363z"/>
	<rect x="159.776" y="306.232" fill="#D61517" width="5.533" height="15.067"/>
	<polygon fill="#D61517" points="159.776,323.611 159.776,329.605 127.352,329.605 127.352,322.972 121.789,322.972 
		121.789,329.596 121.789,329.611 165.309,329.611 165.309,329.596 165.309,323.611 	"/>
	<rect x="121.789" y="305.752" fill="#D61517" width="5.562" height="14.908"/>
	<path fill="#D61517" d="M165.135,284.447c0.008,0.211,0.037,0.417,0.037,0.629c0,0.827-0.084,1.635-0.205,2.434h0.336v2.312h-0.864
		c-0.865,2.845-2.48,5.419-4.664,7.562v6.535h5.533v-15.629v-3.844H165.135z"/>
	<path fill="#D61517" d="M121.978,285.076c0-0.212,0.029-0.418,0.037-0.629h-0.225v2.742h0.336
		C122.035,286.495,121.978,285.792,121.978,285.076z"/>
	<path fill="#D61517" d="M155.247,275.753l3.736-3.737c-3.686-3.243-8.733-5.31-14.342-5.547v3.869
		C148.812,270.634,152.544,272.65,155.247,275.753z"/>
	<path fill="#D61517" d="M142.33,270.349v-3.872c-4.85,0.239-9.27,1.846-12.743,4.4l3.58,3.58
		C135.677,272.134,138.847,270.642,142.33,270.349z"/>
	<path fill="#D61517" d="M159.646,287.201h0.13v0.309h5.192c0.121-0.799,0.205-1.606,0.205-2.434c0-0.212-0.028-0.418-0.037-0.629
		c-0.157-4.065-1.813-7.795-4.516-10.799l-3.962,3.963C158.449,280.332,159.535,283.629,159.646,287.201z"/>
	<path fill="#D61517" d="M122.126,287.189h5.395c0.133-4.238,1.645-8.086,4.068-11.042l-3.787-3.786
		c-3.447,3.189-5.607,7.416-5.788,12.086c-0.008,0.211-0.037,0.417-0.037,0.629C121.978,285.792,122.035,286.495,122.126,287.189z"
		/>
	<path fill="#D61517" d="M127.352,297.363v-7.861h-4.737C123.45,292.464,125.097,295.145,127.352,297.363z"/>
	<path fill="#D61517" d="M159.776,297.385c2.184-2.144,3.799-4.718,4.664-7.562h-4.664V297.385z"/>
	<path fill="#A11011" d="M159.65,321.3h0.126v-15.067h-0.285v-2.312h0.285v-6.535v-7.562h-0.219
		c-0.246,2.318-0.904,4.498-1.898,6.45v32.53h-28.438v-33.144c-0.873-1.885-1.454-3.958-1.649-6.157h-0.22v7.861v6.076h0.132v2.312
		h-0.132v14.908h0.132v2.312h-0.132v6.634h32.424v-5.994h-0.126V321.3z"/>
	<path fill="#A11011" d="M159.776,287.51v-0.309h-0.13c0.003,0.104,0.013,0.205,0.014,0.309H159.776z"/>
	<path fill="#A11011" d="M159.01,287.51h0.65c-0.001-0.104-0.011-0.205-0.014-0.309c-0.11-3.572-1.197-6.869-2.988-9.59
		l-0.253,0.254l-1.635-1.635l0.478-0.478c-2.704-3.103-6.435-5.119-10.605-5.415v1.682h-2.312v-1.671
		c-3.483,0.293-6.654,1.785-9.163,4.108l0.653,0.653l-1.635,1.635l-0.597-0.598c-2.424,2.956-3.935,6.804-4.068,11.042h0.124v2.312
		h-0.072c0.196,2.199,0.776,4.272,1.649,6.157v-7.304h0.148c0.253-8.964,6.454-16.143,14.088-16.143
		c7.633,0,13.835,7.179,14.088,16.143h0.113v7.917c0.994-1.952,1.652-4.132,1.898-6.45h-0.546V287.51z"/>
	<path fill="#D61517" d="M157.546,288.355c0.005,0.188,0.024,0.373,0.024,0.563c0,9.228-6.318,16.707-14.112,16.707
		c-7.795,0-14.112-7.479-14.112-16.707c0-0.19,0.019-0.375,0.024-0.563h-0.148v7.304v33.144h28.438v-32.53v-7.917H157.546z"/>
	<path fill="#D61517" d="M143.457,305.626c7.794,0,14.112-7.479,14.112-16.707c0-0.19-0.019-0.375-0.024-0.563
		c-0.253-8.964-6.455-16.143-14.088-16.143c-7.634,0-13.835,7.179-14.088,16.143c-0.005,0.188-0.024,0.373-0.024,0.563
		C129.345,298.146,135.662,305.626,143.457,305.626z"/>
	<polygon fill="#A11011" points="239.323,322.27 238.808,322.27 233.199,322.27 233.03,322.27 233.03,324.582 233.199,324.582 
		238.808,324.582 239.323,324.582 	"/>
	<polygon fill="#A11011" points="127.484,320.66 127.352,320.66 121.789,320.66 121.19,320.66 121.19,322.972 121.789,322.972 
		127.352,322.972 127.484,322.972 	"/>
	<polygon fill="#A11011" points="127.484,305.752 127.484,303.439 127.352,303.439 121.789,303.439 121.19,303.439 121.19,305.752 
		121.789,305.752 127.352,305.752 	"/>
	<polygon fill="#A11011" points="122.615,289.502 127.352,289.502 127.572,289.502 127.644,289.502 127.644,287.189 127.52,287.189 
		122.126,287.189 121.789,287.189 121.35,287.189 121.35,289.002 121.35,289.502 121.536,289.502 121.789,289.502 	"/>
	<polygon fill="#A11011" points="159.65,321.3 159.65,323.611 159.776,323.611 165.309,323.611 165.944,323.611 165.944,321.3 
		165.309,321.3 159.776,321.3 	"/>
	<polygon fill="#A11011" points="159.49,303.92 159.49,306.232 159.776,306.232 165.309,306.232 165.783,306.232 165.783,303.92 
		165.309,303.92 159.776,303.92 	"/>
	<polygon fill="#A11011" points="159.66,287.51 159.01,287.51 159.01,289.822 159.556,289.822 159.776,289.822 164.44,289.822 
		165.304,289.822 165.304,287.51 164.968,287.51 159.776,287.51 	"/>
	<polygon fill="#A11011" points="242.09,278.029 243.725,276.396 243.201,275.872 239.409,272.079 239.275,271.945 237.64,273.58 
		237.777,273.717 241.804,277.743 	"/>
	<polygon fill="#A11011" points="271.16,322.109 271.16,324.422 271.686,324.422 277.331,324.422 277.454,324.422 277.454,322.109 
		277.331,322.109 271.686,322.109 	"/>
	<polygon fill="#A11011" points="239.484,305.912 239.484,303.6 238.808,303.6 233.199,303.6 233.19,303.6 233.19,305.912 
		233.199,305.912 238.808,305.912 	"/>
	<polygon fill="#A11011" points="234.016,289.342 238.808,289.342 239.004,289.342 239.004,288.774 239.004,287.029 
		238.979,287.029 233.534,287.029 233.199,287.029 232.71,287.029 232.71,288.853 232.71,289.342 232.895,289.342 233.199,289.342 	
		"/>
	<polygon fill="#A11011" points="271.16,303.92 271.16,306.232 271.686,306.232 277.331,306.232 277.454,306.232 277.454,303.92 
		277.331,303.92 271.686,303.92 	"/>
	<polygon fill="#A11011" points="277.132,286.221 271.516,286.221 271.49,286.221 271.49,288.531 271.54,288.531 271.686,288.531 
		276.777,288.531 277.331,288.531 277.783,288.531 277.783,286.221 277.744,286.221 277.331,286.221 	"/>
	<polygon fill="#A11011" points="354.533,322.91 354.147,322.91 348.676,322.91 348.24,322.91 348.24,325.222 348.676,325.222 
		354.147,325.222 354.533,325.222 	"/>
	<polygon fill="#A11011" points="354.533,305.912 354.533,303.6 354.147,303.6 348.676,303.6 348.24,303.6 348.24,305.912 
		348.676,305.912 354.147,305.912 	"/>
	<polygon fill="#A11011" points="354.336,287.572 354.694,287.572 354.694,285.26 354.592,285.26 348.903,285.26 348.4,285.26 
		348.4,287.572 348.676,287.572 348.955,287.572 	"/>
	<polygon fill="#A11011" points="385.579,323.07 385.579,325.382 386.116,325.382 391.588,325.382 391.873,325.382 391.873,323.07 
		391.588,323.07 386.116,323.07 	"/>
	<polygon fill="#A11011" points="385.42,303.76 385.42,306.072 386.116,306.072 391.588,306.072 391.714,306.072 391.714,303.76 
		391.588,303.76 386.116,303.76 	"/>
	<polygon fill="#A11011" points="391.588,285.9 391.448,285.9 385.797,285.9 385.579,285.9 385.579,288.212 385.994,288.212 
		386.116,288.212 391.282,288.212 391.588,288.212 391.782,288.212 391.873,288.212 391.873,287.774 391.873,285.9 	"/>
	<path fill="#A11011" d="M374.453,164.414v11.446h0.343v-0.66v-13.076h-0.078c0.004,0.096,0.017,0.189,0.017,0.286
		C374.735,163.102,374.63,163.77,374.453,164.414z"/>
	<path fill="#A11011" d="M356.154,165.342c-0.383-0.915-0.603-1.899-0.603-2.932c0-0.097,0.013-0.19,0.017-0.286h-0.101V175.2v7.427
		h0.687V165.342z"/>
	<path fill="#A11011" d="M356.154,165.342v-2.511h0.095c0.163-4.387,4.153-7.901,9.065-7.901s8.903,3.514,9.066,7.901h0.073v1.583
		c0.177-0.644,0.281-1.312,0.281-2.003c0-0.097-0.013-0.19-0.017-0.286c-0.023-0.614-0.12-1.209-0.284-1.784
		c-0.996-3.497-4.449-6.125-8.649-6.37c-0.213-0.013-0.425-0.029-0.642-0.029c-0.934,0-1.833,0.124-2.686,0.343
		c-3.249,0.836-5.776,3.146-6.605,6.056c-0.164,0.574-0.261,1.17-0.284,1.784c-0.004,0.096-0.017,0.189-0.017,0.286
		C355.551,163.442,355.771,164.427,356.154,165.342z"/>
	<path fill="#D61517" d="M374.453,164.414v-1.583h-0.073c0.004,0.092,0.016,0.183,0.016,0.276c0,2.076-0.866,3.965-2.281,5.407
		v7.346h2.339V164.414z"/>
	<path fill="#D61517" d="M358.481,168.481c-1.396-1.438-2.248-3.314-2.248-5.375c0-0.093,0.012-0.184,0.016-0.276h-0.095v2.511
		v17.286v0h2.327V168.481z"/>
	<path fill="#D61517" d="M365.306,156.624c3.659,0,6.633,3.299,6.754,7.418h0.055v4.472c1.415-1.442,2.281-3.331,2.281-5.407
		c0-0.093-0.012-0.184-0.016-0.276c-0.163-4.387-4.154-7.901-9.066-7.901s-8.902,3.514-9.065,7.901
		c-0.004,0.092-0.016,0.183-0.016,0.276c0,2.06,0.853,3.937,2.248,5.375v-4.439h0.071
		C358.673,159.923,361.646,156.624,365.306,156.624z"/>
	<path fill="#A11011" d="M358.63,175.86h0.638v-8.109c-0.462-1.038-0.728-2.208-0.728-3.45c0-0.087,0.009-0.172,0.012-0.259h-0.071
		v4.439v14.146v0.001h0.149V175.86z"/>
	<path fill="#A11011" d="M372.115,168.514v-4.472h-0.055c0.003,0.087,0.012,0.172,0.012,0.259c0,1.348-0.308,2.613-0.846,3.714
		v7.845h0.889V168.514z"/>
	<path fill="#A11011" d="M359.33,164.546c0.106-3.929,2.714-7.076,5.924-7.076s5.817,3.147,5.924,7.076h0.048v3.469
		c0.538-1.101,0.846-2.366,0.846-3.714c0-0.087-0.009-0.172-0.012-0.259c-0.121-4.119-3.095-7.418-6.754-7.418
		c-3.66,0-6.633,3.299-6.754,7.418c-0.003,0.087-0.012,0.172-0.012,0.259c0,1.242,0.266,2.412,0.728,3.45v-3.205H359.33z"/>
	<path fill="#D61517" d="M371.226,168.015v-3.469h-0.048c0.002,0.083,0.01,0.164,0.01,0.247c0,4.044-2.656,7.323-5.934,7.323
		s-5.934-3.279-5.934-7.323c0-0.083,0.008-0.164,0.01-0.247h-0.062v3.205v8.109h11.958V168.015z"/>
	<path fill="#D61517" d="M365.254,157.47c-3.21,0-5.817,3.147-5.924,7.076c-0.002,0.083-0.01,0.164-0.01,0.247
		c0,4.044,2.656,7.323,5.934,7.323s5.934-3.279,5.934-7.323c0-0.083-0.008-0.164-0.01-0.247
		C371.072,160.617,368.464,157.47,365.254,157.47z"/>
	<polygon fill="#A11011" points="368.898,271.533 371.21,271.533 371.21,271.222 371.21,267.354 371.21,265.24 368.898,265.24 
		368.898,267.362 368.898,271.232 	"/>
	<polygon fill="#A11011" points="267.244,276.875 268.879,278.51 269.068,278.321 273.202,274.188 273.33,274.061 271.696,272.426 
		271.626,272.495 267.752,276.368 	"/>
	<polygon fill="#A11011" points="380.374,276.716 382.009,278.351 382.567,277.793 386.425,273.936 386.46,273.9 384.825,272.266 
		384.717,272.374 381.084,276.007 	"/>
	<polygon fill="#A11011" points="358.27,278.189 359.905,276.555 359.286,275.938 355.667,272.318 355.454,272.105 353.82,273.74 
		353.954,273.875 357.79,277.71 	"/>
	<polygon fill="#A11011" points="132.186,276.745 133.821,275.11 133.168,274.457 129.588,270.877 129.37,270.66 127.736,272.295 
		127.802,272.361 131.589,276.147 	"/>
	<polygon fill="#A11011" points="254.168,271.054 256.48,271.054 256.48,270.184 256.48,266.29 256.48,264.76 254.168,264.76 
		254.168,266.286 254.168,270.178 	"/>
	<polygon fill="#A11011" points="142.33,272.02 144.642,272.02 144.642,270.338 144.642,266.469 144.642,265.727 142.33,265.727 
		142.33,266.477 142.33,270.349 	"/>
	<polygon fill="#A11011" points="154.77,276.23 156.405,277.865 156.658,277.611 160.62,273.648 160.855,273.414 159.22,271.779 
		158.984,272.016 155.247,275.753 	"/>
	<path fill="#A11011" d="M381.531,175.86h-5.885h-0.851h-0.343h-2.339h-0.889h-11.958h-0.638v6.77v0.237h22.901v-6.028V175.86z
		 M380.724,182.415h-21.354v-5.325h21.354V182.415z"/>
	<rect x="359.369" y="177.09" fill="#D61517" width="21.354" height="5.325"/>
	<path fill="#A11011" d="M244.754,176.14v-10.991c-0.431-0.939-0.678-1.95-0.678-3.01c0-0.1,0.015-0.196,0.019-0.294h-0.113V175.2
		v7.75h0.338v-6.81H244.754z"/>
	<path fill="#A11011" d="M265.746,161.845c0.004,0.099,0.019,0.195,0.019,0.294c0,0.718-0.12,1.411-0.323,2.079v11.922h0.392v-0.94
		v-12.929v-0.426H265.746z"/>
	<path fill="#A11011" d="M244.754,165.149v-2.58h0.107c0.184-4.516,4.695-8.132,10.249-8.132c5.553,0,10.063,3.617,10.248,8.132
		h0.083v1.648c0.203-0.667,0.323-1.361,0.323-2.079c0-0.1-0.015-0.196-0.019-0.294c-0.132-3.175-2.365-5.921-5.628-7.356
		c-0.612-0.27-1.261-0.493-1.938-0.664c-0.794-0.201-1.629-0.322-2.49-0.371c-0.255-0.015-0.51-0.031-0.771-0.031
		c-5.854,0-10.613,3.732-10.824,8.398c0,0.008-0.001,0.016-0.001,0.024c-0.004,0.099-0.019,0.195-0.019,0.294
		C244.076,163.199,244.323,164.21,244.754,165.149z"/>
	<path fill="#D61517" d="M265.442,164.218v-1.648h-0.083c0.004,0.095,0.018,0.188,0.018,0.284c0,2.135-0.978,4.079-2.575,5.562
		v7.724h2.641V164.218z"/>
	<path fill="#D61517" d="M247.388,168.388c-1.58-1.48-2.544-3.413-2.544-5.534c0-0.096,0.014-0.189,0.018-0.284h-0.107v2.58v10.991
		h2.634V168.388z"/>
	<path fill="#D61517" d="M247.388,168.388v-4.563h0.081c0.137-4.24,3.498-7.635,7.635-7.635c4.137,0,7.498,3.396,7.636,7.635h0.062
		v4.592c1.598-1.484,2.575-3.427,2.575-5.562c0-0.096-0.014-0.189-0.018-0.284c-0.185-4.516-4.695-8.132-10.248-8.132
		c-5.554,0-10.065,3.617-10.249,8.132c-0.004,0.095-0.018,0.188-0.018,0.284C244.844,164.976,245.808,166.908,247.388,168.388z"/>
	<path fill="#A11011" d="M262.801,168.417v-4.592h-0.062c0.003,0.089,0.013,0.177,0.013,0.267c0,1.389-0.35,2.693-0.959,3.828v8.221
		h1.008V168.417z"/>
	<path fill="#A11011" d="M248.276,167.638c-0.521-1.067-0.82-2.27-0.82-3.546c0-0.09,0.01-0.178,0.013-0.267h-0.081v4.563v7.752
		h0.888V167.638z"/>
	<path fill="#A11011" d="M255.104,156.189c-4.137,0-7.498,3.396-7.635,7.635c-0.003,0.089-0.013,0.177-0.013,0.267
		c0,1.277,0.3,2.479,0.82,3.546v-3.296h0.07c0.12-4.044,3.069-7.283,6.696-7.283c3.629,0,6.577,3.239,6.697,7.283h0.054v3.577
		c0.609-1.134,0.959-2.438,0.959-3.828c0-0.09-0.01-0.178-0.013-0.267C262.602,159.585,259.24,156.189,255.104,156.189z"/>
	<path fill="#D61517" d="M261.793,167.919v-3.577h-0.054c0.003,0.085,0.012,0.169,0.012,0.255c0,4.163-3.004,7.538-6.709,7.538
		c-3.704,0-6.708-3.375-6.708-7.538c0-0.086,0.009-0.169,0.012-0.255h-0.07v3.296v8.502h13.518V167.919z"/>
	<path fill="#D61517" d="M255.042,157.059c-3.627,0-6.576,3.239-6.696,7.283c-0.003,0.085-0.012,0.169-0.012,0.255
		c0,4.163,3.004,7.538,6.708,7.538c3.705,0,6.709-3.375,6.709-7.538c0-0.086-0.009-0.169-0.012-0.255
		C261.619,160.298,258.671,157.059,255.042,157.059z"/>
	<path fill="#A11011" d="M269.744,176.14h-3.817h-0.094h-0.392h-2.641h-1.008h-13.518h-0.888h-2.634h-0.435v6.81v0.196h25.425v-0.39
		v-3.549v-1.457V176.14z M268.623,182.875H244.6v-5.325h24.023V182.875z"/>
	<rect x="244.6" y="177.55" fill="#D61517" width="24.023" height="5.325"/>
	<path fill="#A11011" d="M153.652,164.218v18.729h-2.641v0.002h3.032v-21.104h-0.087c0.004,0.099,0.019,0.195,0.019,0.294
		C153.975,162.857,153.855,163.551,153.652,164.218z"/>
	<polygon fill="#A11011" points="132.964,182.948 132.964,182.753 132.192,182.753 132.192,182.95 135.598,182.95 135.598,182.948 	
		"/>
	<path fill="#A11011" d="M132.964,173.9v-8.75c-0.431-0.939-0.678-1.95-0.678-3.01c0-0.1,0.015-0.196,0.019-0.294h-0.113v1.803
		V173.9H132.964z"/>
	<path fill="#A11011" d="M132.494,160.447c-0.111,0.454-0.17,0.922-0.189,1.398c-0.004,0.099-0.019,0.195-0.019,0.294
		c0,1.06,0.247,2.07,0.678,3.01v-2.58h0.107c0.184-4.516,4.696-8.132,10.249-8.132s10.064,3.617,10.248,8.132h0.083v1.648
		c0.204-0.667,0.323-1.361,0.323-2.079c0-0.1-0.015-0.196-0.019-0.294c-0.02-0.476-0.078-0.944-0.189-1.398
		c-0.855-3.491-4.303-6.229-8.665-6.874c-0.64-0.095-1.297-0.151-1.972-0.151c-0.081,0-0.159,0.008-0.239,0.01
		C137.731,153.523,133.46,156.505,132.494,160.447z"/>
	<rect x="132.964" y="182.753" fill="#D61517" width="2.634" height="0.194"/>
	<path fill="#D61517" d="M135.598,173.9v-5.512c-1.58-1.48-2.544-3.413-2.544-5.534c0-0.096,0.014-0.189,0.018-0.284h-0.107v2.58
		v8.75H135.598z"/>
	<path fill="#D61517" d="M151.011,168.417v14.531h2.641v-18.729v-1.648h-0.083c0.004,0.095,0.018,0.188,0.018,0.284
		C153.586,164.989,152.609,166.933,151.011,168.417z"/>
	<path fill="#D61517" d="M135.598,168.388v-4.563h0.081c0.137-4.24,3.498-7.635,7.635-7.635c4.136,0,7.498,3.396,7.635,7.635h0.062
		v4.592c1.598-1.484,2.575-3.427,2.575-5.562c0-0.096-0.014-0.189-0.018-0.284c-0.184-4.516-4.695-8.132-10.248-8.132
		s-10.065,3.617-10.249,8.132c-0.004,0.095-0.018,0.188-0.018,0.284C133.054,164.975,134.018,166.908,135.598,168.388z"/>
	<path fill="#A11011" d="M151.011,168.417v-4.592h-0.062c0.003,0.089,0.013,0.177,0.013,0.267c0,1.389-0.35,2.693-0.959,3.828v5.98
		h0.659v8.407h-0.659v0.286h-0.368v0.161h-14.037v0.194v0.002v0.008h15.413v-0.008v-0.002V168.417z"/>
	<path fill="#A11011" d="M136.486,167.638c-0.521-1.067-0.82-2.27-0.82-3.546c0-0.09,0.01-0.178,0.013-0.267h-0.081v4.563v5.512
		h0.888V167.638z"/>
	<path fill="#A11011" d="M143.314,156.189c-4.137,0-7.498,3.396-7.635,7.635c-0.003,0.089-0.013,0.177-0.013,0.267
		c0,1.277,0.3,2.479,0.82,3.546v-3.296h0.07c0.12-4.044,3.069-7.283,6.696-7.283c3.628,0,6.577,3.239,6.697,7.283h0.054v3.577
		c0.609-1.134,0.959-2.438,0.959-3.828c0-0.09-0.01-0.178-0.013-0.267C150.812,159.585,147.45,156.189,143.314,156.189z"/>
	<rect x="149.635" y="182.307" fill="#D61517" width="0.368" height="0.286"/>
	<path fill="#D61517" d="M149.949,164.342c0.003,0.085,0.012,0.169,0.012,0.255c0,4.163-3.004,7.538-6.709,7.538
		c-3.704,0-6.708-3.375-6.708-7.538c0-0.086,0.009-0.169,0.012-0.255h-0.07v3.296v6.262h13.518v-5.98v-3.577H149.949z"/>
	<path fill="#D61517" d="M143.252,172.135c3.705,0,6.709-3.375,6.709-7.538c0-0.086-0.009-0.169-0.012-0.255
		c-0.12-4.044-3.069-7.283-6.697-7.283c-3.627,0-6.576,3.239-6.696,7.283c-0.003,0.085-0.012,0.169-0.012,0.255
		C136.544,168.76,139.548,172.135,143.252,172.135z"/>
	<polygon fill="#A11011" points="129.832,175.108 129.832,175.107 149.635,175.271 149.635,182.307 150.003,182.307 
		150.662,182.307 150.662,173.9 150.003,173.9 136.486,173.9 135.598,173.9 132.964,173.9 132.192,173.9 128.32,173.9 
		128.32,176.376 128.32,182.307 129.832,182.307 	"/>
	<polygon fill="#D61517" points="135.598,182.753 149.635,182.753 149.635,182.593 149.635,182.307 149.635,175.271 
		129.832,175.107 129.832,175.108 129.832,182.307 129.832,182.753 132.192,182.753 132.964,182.753 	"/>
</g>
</svg>
