<?xml version="1.0" encoding="utf-8"?>
<!-- Generator: Adobe Illustrator 16.0.0, SVG Export Plug-In . SVG Version: 6.00 Build 0)  -->
<svg version="1.2" baseProfile="tiny"
	 id="svg378" xmlns:cc="http://creativecommons.org/ns#" xmlns:dc="http://purl.org/dc/elements/1.1/" xmlns:rdf="http://www.w3.org/1999/02/22-rdf-syntax-ns#"
	 xmlns="http://www.w3.org/2000/svg" xmlns:xlink="http://www.w3.org/1999/xlink" x="0px" y="0px" width="512px" height="512px"
	 viewBox="0 0 512 512" xml:space="preserve">
<g>
	<path fill="#FFFFFF" d="M34.043,255.849L34.043,255.849c0-0.016,0-0.031,0-0.047c0-0.001,0-0.002,0-0.003c0-0.016,0-0.031,0-0.047
		h0c0.039-86.557,70.226-156.707,156.789-156.692c86.547,0.014,156.699,70.159,156.738,156.692h0.001
		c0,0.016-0.001,0.032-0.001,0.048c0,0.017,0.001,0.033,0.001,0.049h-0.001c0,0.201-0.007,0.4-0.008,0.602H512V0H0v256.45h34.05
		C34.05,256.249,34.043,256.05,34.043,255.849z"/>
	<path fill="#DF0000" d="M347.562,256.45c-0.363,86.257-70.385,156.077-156.73,156.091C104.47,412.555,34.414,342.73,34.051,256.45
		H0V512h512V256.45H347.562z"/>
	<path fill="#DF0000" d="M34.042,255.849L34.042,255.849c0-0.016,0-0.031,0-0.047C34.042,255.817,34.042,255.833,34.042,255.849z"/>
	<path fill="#DF0000" d="M190.831,99.059c-86.562-0.014-156.75,70.135-156.789,156.692H347.57
		C347.531,169.218,277.378,99.073,190.831,99.059z"/>
	<path fill="#DF0000" d="M347.571,255.849c0-0.016-0.001-0.032-0.001-0.049C347.57,255.816,347.57,255.833,347.571,255.849
		L347.571,255.849z"/>
	<path fill="#FFFFFF" d="M347.57,255.8c0-0.016,0.001-0.032,0.001-0.048h-0.001H34.043h0c0,0.016,0,0.031,0,0.047
		c0,0.001,0,0.002,0,0.003c0,0.016,0,0.031,0,0.047c0,0.201,0.007,0.4,0.008,0.602c0.364,86.28,70.419,156.104,156.781,156.091
		c86.346-0.014,156.367-69.834,156.73-156.091c0.001-0.201,0.008-0.4,0.008-0.602C347.57,255.833,347.57,255.816,347.57,255.8z"/>
</g>
</svg>
