<?xml version="1.0" encoding="utf-8"?>
<!-- Generator: Adobe Illustrator 16.0.0, SVG Export Plug-In . SVG Version: 6.00 Build 0)  -->
<svg version="1.2" baseProfile="tiny"
	 id="svg548" xmlns:cc="http://creativecommons.org/ns#" xmlns:dc="http://purl.org/dc/elements/1.1/" xmlns:rdf="http://www.w3.org/1999/02/22-rdf-syntax-ns#"
	 xmlns="http://www.w3.org/2000/svg" xmlns:xlink="http://www.w3.org/1999/xlink" x="0px" y="0px" width="512px" height="512px"
	 viewBox="0 0 512 512" xml:space="preserve">
<g>
	<polygon fill="#3E9A00" points="511.984,171.886 511.984,0 0,0 171.887,171.886 	"/>
	<path fill="#FFFFFF" d="M255.994,255.992l-84.117,84.116h340.106V171.886H171.887L255.994,255.992z M426.025,191.432l1.425,5.776
		l6.313,2.244l-4.983,4.19l0.999,5.945l-6.293-1.79l-5.063,3.701l-1.425-5.776l-6.313-2.244l4.983-4.19l-0.998-5.945l6.291,1.789
		L426.025,191.432z M401.876,187.659l4.104-4.551l2.685,5.36l6.646,1.006l-3.91,5.007l2.342,5.689l-6.629-0.577l-4.104,4.551
		l-2.684-5.36l-6.645-1.006l3.908-5.007l-2.341-5.689L401.876,187.659z M322.978,196.228l1.426-5.775l5.063,3.7l6.292-1.789
		l-0.998,5.945l2.55,2.144l2.256-5.482l-3.91-5.006l6.646-1.007l2.685-5.36l4.103,4.551l6.629-0.577l-2.341,5.689l1.655,2.121
		l2.739-4.694l-3.149-5.397l6.696-0.212l3.42-4.993l3.42,4.993l6.518,0.207l6.52-0.207l3.42-4.993l3.42,4.993l6.696,0.212
		l-3.149,5.397l3.149,5.398l-6.696,0.211l-3.42,4.995l-3.42-4.995l-6.52-0.206l-6.518,0.206l-3.42,4.995l-3.42-4.995l-5.713-0.18
		l1.68,2.152l-6.645,1.006l-2.685,5.36l-4.104-4.551l-6.327,0.551l2.218,1.865l-6.313,2.244l-1.423,5.776l-5.065-3.701l-6.292,1.79
		l0.999-5.945l-4.984-4.19L322.978,196.228z M310.35,272.092l0.806,0.624c0.724,0.56,2.023,1.436,3.53,2.45
		c7.178,4.833,14.194,9.82,14.301,13.027c0.023,0.694-0.271,1.299-0.851,1.748l-0.001,0.001l0.076,0.099
		c-0.198,0.153-0.388,0.282-0.573,0.398l-2.659,12.354c3.647,3.232,8.891,5.85,15.584,5.85c9.294,0,16.119-2.019,20.196-3.224
		c1.271-0.376,2.261-0.665,3.06-0.831h-14.074c-9.562,0-14.564-7.567-14.564-15.043v-84.069h79.806v84.069
		c0,7.476-5.003,15.043-14.564,15.043h-15.199c0.799,0.166,1.788,0.455,3.06,0.831c4.077,1.205,10.902,3.224,20.197,3.224
		c4.258,0,10.744-1.677,15.605-5.762l-2.678-12.439c-0.187-0.117-0.377-0.246-0.576-0.4l0.358-0.463
		c-0.327-0.393-0.489-0.863-0.473-1.385c0.106-3.208,7.124-8.194,14.302-13.028c1.506-1.014,2.806-1.89,3.529-2.449l0.806-0.624
		v17.454c0,2.782-2.73,5.517-6.099,6.591c1.188,4.065,1.194,7.628,1.194,9.838c0,6.572-8.127,13.646-25.969,13.646h-16.48v9.358
		c0,0.695-1.261,2.965-17.479,2.965s-17.479-2.27-17.479-2.965v-9.358h-16.478c-17.842,0-25.969-7.074-25.969-13.646
		c0-2.248,0.007-5.895,1.257-10.046c-3.089-1.192-5.503-3.767-5.503-6.383V272.092z"/>
	<polygon fill="#FFFFFF" points="374.676,185.594 371.704,190.688 374.676,195.782 377.649,190.688 	"/>
	<path fill="#FFFFFF" d="M376.698,310.259l-1.579,2.57l-1.63-2.536c-1.424-2.206-4.543-5.705-6.853-5.705h-0.811
		c0.101,0.044,0.199,0.09,0.286,0.155c0.361,0.27,0.544,0.687,0.544,1.238c0,0.626-0.242,1.224-0.624,1.808v9.599
		c2.321,0.18,5.148,0.295,8.488,0.295s6.167-0.115,8.489-0.297v-9.596c-0.382-0.584-0.625-1.182-0.625-1.809
		c0-0.552,0.183-0.969,0.544-1.238c0.067-0.051,0.146-0.083,0.222-0.12C380.507,304.977,377.561,308.854,376.698,310.259z"/>
	<polygon fill="#E32118" points="511.984,340.107 171.878,340.107 0,511.983 511.984,511.983 	"/>
	<polygon fill="#5567E4" points="255.994,255.992 171.887,171.886 0,0 0,171.886 0,340.107 0,511.983 171.878,340.107 	"/>
	<path fill="#CCCCCC" d="M349.744,300.797h16.893c3.448,0,6.591,3.042,8.422,5.256c1.793-2.222,4.896-5.256,8.471-5.256h16.892
		c7.402,0,10.773-5.833,10.773-11.252v-80.278h-72.224v80.278C338.971,294.964,342.342,300.797,349.744,300.797z M341.547,243.302
		c-0.354-0.771-0.892-1.937-0.54-3.149l0.218-0.749l0.364-0.258c0.25-0.452,0.699-1.255,1.629-1.666
		c0.14-0.072,0.28-0.133,0.421-0.185c0.306-0.457,0.809-0.86,1.523-0.994l0.649-0.811h1.675c0.277-0.417,0.621-0.799,1.016-1.13
		l0.394-0.33l0.498-0.125c0.492-0.124,0.972-0.14,1.377-0.14l0.327,0.002v-0.068l0.673-0.036c0.277-0.072,0.58-0.096,0.862-0.076
		c0.067-0.096,0.143-0.193,0.23-0.29l0.584-0.643l0.667-0.062c0.293-0.188,0.878-0.551,1.697-0.551c0.218,0,0.434,0.025,0.645,0.076
		c0.021-0.004,0.042-0.007,0.062-0.011c-0.005-0.214-0.001-0.417,0.003-0.604l0.005-1.192l0.655-0.654
		c0.487-0.486,1.131-0.765,1.822-0.791c0.035-0.233,0.093-0.484,0.182-0.751l0.1-0.249c0.341-0.721,0.82-1.147,1.261-1.417
		c0.027-0.221,0.075-0.466,0.16-0.73l0.488-1.511l0.767-0.017c0.394-0.573,0.829-1.041,1.323-1.425
		c0.29-0.246,0.571-0.404,0.783-0.51c0.375-0.703,0.934-1.37,2.219-1.688c0.19-0.062,0.369-0.112,0.54-0.158
		c0.266-0.335,0.571-0.692,1.015-1.151l0.262-0.271l0.337-0.17c0.563-0.285,1.16-0.318,1.561-0.318c0.677,0,1.53,0.112,2.284,0.21
		c0.086,0.011,0.184,0.024,0.283,0.037c0.448-0.396,0.86-0.716,1.27-0.932l0.209-0.096c1.014-0.406,1.57-0.542,2.864-0.542h0.244
		l0.239,0.053c0.243,0.054,0.454,0.11,0.647,0.162c0.112,0.03,0.196,0.053,0.261,0.068c0.646-0.396,1.679-0.678,3.038-0.348
		l0.232,0.056l0.215,0.104c0.131,0.063,0.246,0.108,0.349,0.148c0.481,0.19,1.351,0.535,1.93,1.56
		c1.033,0.081,1.581,0.372,2.206,0.764l0.047,0.028c0.069,0.021,0.131,0.038,0.185,0.053c0.688,0.193,1.202,0.491,1.555,0.909
		c0.387,0.175,0.703,0.438,0.939,0.778c0.18,0.09,0.348,0.183,0.5,0.271l0.493-0.152l0.126-0.3l0.295-0.303
		c1.066-1.094,2.123-1.183,3.295-1.183h0.338l0.323,0.1c0.591,0.184,1.664,0.652,2.116,1.713c0.421,0.333,0.671,0.755,0.816,1.173
		c0.237,0.454,0.354,0.956,0.337,1.457c0.156,0.277,0.289,0.582,0.396,0.912l0.144,0.44l0.331,0.086l0.296,0.188
		c0.1,0.052,0.486,0.186,0.921,0.271c0.257-0.022,0.475-0.034,0.674-0.034c0.822,0,1.449,0.19,2.137,0.475l0.449,0.187l0.331,0.356
		c0.334,0.36,0.546,0.729,0.687,1.011c0.396,0.151,0.905,0.35,1.374,0.73c0.167,0.104,0.312,0.208,0.452,0.311
		c0.024,0.019,0.049,0.037,0.073,0.055l0.773,0.106l0.581,0.628c0.083,0.094,0.202,0.208,0.327,0.331
		c0.378,0.374,0.769,0.759,1.053,1.192l0.154,0.278c0.185,0.394,0.286,0.8,0.376,1.159c0.044,0.175,0.11,0.438,0.15,0.53
		l0.193,0.434l-0.002,2.365c-0.019,0.365-0.06,0.667-0.103,0.969c-0.038,0.263-0.065,0.453-0.065,0.702v0.445l-0.171,0.411
		c-0.055,0.133-0.112,0.25-0.169,0.359v0.419l-0.316,0.529c-0.271,0.452-0.57,0.951-0.992,1.443
		c-0.151,0.357-0.322,0.642-0.481,0.887c0.045,0.275,0.094,0.634,0.094,1.102v0.855l-0.571,0.637
		c-0.546,0.606-1.152,1.047-1.983,1.434c-0.019,0.015-0.036,0.03-0.053,0.044l-0.064,0.363l-0.337,0.446
		c-0.703,0.912-1.391,1.251-2.536,1.251l-0.249,0c-0.786,0-1.479,0.056-2.177,0.118l-0.658,0.012c-0.536,0-1.161-0.059-1.836-0.441
		c-0.314-0.077-0.58-0.066-1.025,0.018l-0.752,0.141l-0.8-0.412c-0.059-0.031-0.109-0.06-0.163-0.083
		c0,0.007-0.041,0.009-0.105,0.01c-0.672,0.068-1.302,0.128-2.153,0.128h-0.812l-0.603-0.505c-0.518,0.112-1.071,0.131-1.604,0.131
		l-1.332-0.053c-1.193-0.245-1.808-0.75-2.238-1.309c-0.031-0.016-0.062-0.033-0.098-0.046l-0.6,0.007
		c-2.08,1.132-3.992,3.774-3.992,4.949l-0.002,0.417c-0.082,17.17,2.835,32.045,8.004,40.811c0.904,1.563,0.952,3.257,0.14,4.665
		c-1.021,1.771-3.044,2.562-4.596,2.562c-0.67,0-1.273-0.182-1.812-0.483c-0.677,0.665-1.529,1.028-2.515,1.028
		c-1.276,0-2.303-0.585-3.089-1.447c-0.462,0.296-0.965,0.537-1.501,0.672c-0.272,0.068-0.55,0.104-0.825,0.104
		c-0.686,0-1.477-0.188-2.193-0.823c-0.61,0.171-1.334,0.195-2.026,0.021c-1.986-0.5-3.338-1.415-4.017-2.719
		c-0.539-1.033-0.592-2.244-0.148-3.41c6.966-18.687,6.014-31.888,5.556-38.232c-0.094-1.292-0.167-2.312-0.169-3.161
		c-0.002-1.193-0.732-1.977-2.251-3.497l-0.639-0.712c-0.186-0.28-0.812-0.335-2.145-0.351c-0.624-0.007-1.311-0.017-2.015-0.107
		c-0.064,0.103-0.113,0.203-0.188,0.308l-0.179,0.218c-0.52,0.557-1.124,0.847-1.61,1.081c-0.14,0.067-0.284,0.134-0.424,0.215
		l-0.43,0.251l-0.495,0.044c-0.312,0.028-0.55,0.041-0.744,0.041c-0.767,0-1.267-0.191-1.723-0.401
		c-0.445-0.103-0.976-0.198-1.613-0.29l-0.252-0.04c-1.067-0.18-1.666-0.464-2.299-0.902c-0.19-0.103-0.355-0.197-0.504-0.282
		c-0.154-0.088-0.256-0.147-0.338-0.187c-0.246,0.335-0.619,0.663-1.181,0.925c-0.69,0.412-1.486,0.652-1.989,0.775
		c-0.342,0.138-0.654,0.174-0.89,0.174c-0.536,0-1.024-0.171-1.456-0.508c-0.217-0.089-0.4-0.171-0.569-0.248
		c-0.309-0.139-0.424-0.191-0.661-0.24l-0.825-0.168l-0.508-0.672c-0.169-0.223-0.391-0.444-0.673-0.725l-0.459-0.476
		c-0.048-0.058-0.105-0.103-0.309-0.256c-0.132-0.099-0.271-0.205-0.423-0.329c-0.299-0.085-0.735-0.215-1.166-0.506l-0.531-0.358
		L341.547,243.302z"/>
	<path d="M365.826,304.588h0.811c2.31,0,5.429,3.499,6.853,5.705l1.63,2.536l1.579-2.57c0.862-1.404,3.809-5.282,6.452-5.636
		c0.482-0.242,1.142-0.229,2.071-0.035h15.199c9.562,0,14.564-7.567,14.564-15.043v-84.069H335.18v84.069
		c0,7.476,5.003,15.043,14.564,15.043h14.074C364.706,304.403,365.35,304.38,365.826,304.588z M338.971,209.267h72.224v80.278
		c0,5.419-3.371,11.252-10.773,11.252H383.53c-3.574,0-6.678,3.034-8.471,5.256c-1.831-2.214-4.974-5.256-8.422-5.256h-16.893
		c-7.402,0-10.773-5.833-10.773-11.252V209.267z"/>
	<path fill="#CCCCCC" d="M318.956,289.053c2.507-1.942,3.954-0.818,5.01,0c1.049,0.812,1.74,1.347,3.479,0l0.076,0.099
		c0.001,0,0.001-0.001,0.002-0.001c0.329-0.255,0.477-0.549,0.464-0.924c-0.099-2.965-9.051-8.993-13.86-12.231
		c-1.108-0.746-2.053-1.382-2.777-1.896v15.446c0,2.174,2.125,4.375,4.81,5.431c0.401-1.172,0.906-2.375,1.541-3.595
		C317.852,290.389,318.267,289.587,318.956,289.053z"/>
	<path d="M315.853,295.929c0.095-0.314,0.197-0.632,0.307-0.952c-2.685-1.056-4.81-3.257-4.81-5.431V274.1
		c0.725,0.514,1.669,1.149,2.777,1.896c4.81,3.238,13.762,9.267,13.86,12.231c0.013,0.375-0.135,0.669-0.464,0.924
		c-0.001,0-0.001,0.001-0.002,0.001l0.308,0.396l0.001-0.001v0.002l0.305,0.394l0.001-0.001c0.579-0.449,0.874-1.054,0.851-1.748
		c-0.106-3.207-7.123-8.194-14.301-13.027c-1.507-1.015-2.807-1.891-3.53-2.45l-0.806-0.624v17.454
		C310.35,292.162,312.764,294.736,315.853,295.929z"/>
	<polygon fill="#CCCCCC" points="327.83,289.547 327.829,289.548 327.83,289.549 	"/>
	<path fill="#CCCCCC" d="M323.2,290.041c-1.047-0.812-1.737-1.349-3.479,0c-0.095,0.073-0.173,0.164-0.252,0.256
		c-0.122,0.199-0.242,0.399-0.359,0.603c-0.375,0.945-0.292,2.358,0.277,4.022c0.803,2.348,2.695,5.304,5.591,7.871l2.659-12.354
		C325.481,291.801,324.175,290.795,323.2,290.041z"/>
	<path fill="#CCCCCC" d="M438.353,289.546V274.1c-0.725,0.513-1.669,1.149-2.776,1.896c-4.81,3.238-13.762,9.267-13.86,12.231
		c-0.013,0.375,0.135,0.669,0.464,0.924c0.372,0.288,0.759,0.514,1.153,0.71c0.642,0.028,1.134-0.337,1.741-0.808
		c1.058-0.818,2.505-1.941,5.011,0l0.609-0.007l0.26,0.61l-0.119,0.124c-0.001,0.031-0.003,0.095-0.004,0.139
		c0.252,0.417,0.423,0.903,0.508,1.453c0.675,1.296,1.205,2.574,1.618,3.813C435.912,294.237,438.353,291.875,438.353,289.546z"/>
	<path d="M421.596,289.053c0.731,0.566,1.272,0.787,1.737,0.808c-0.395-0.196-0.781-0.422-1.153-0.71
		c-0.329-0.255-0.477-0.549-0.464-0.924c0.099-2.965,9.051-8.993,13.86-12.231c1.107-0.746,2.052-1.383,2.776-1.896v15.446
		c0,2.329-2.44,4.691-5.396,5.64c0.106,0.32,0.205,0.637,0.297,0.951c3.368-1.074,6.099-3.809,6.099-6.591v-17.454l-0.806,0.624
		c-0.724,0.56-2.023,1.436-3.529,2.449c-7.178,4.834-14.195,9.82-14.302,13.028c-0.017,0.521,0.146,0.992,0.473,1.385
		L421.596,289.053z"/>
	<path d="M430.954,289.656l-0.26-0.61l-0.609,0.007l0,0c0.305,0.236,0.546,0.534,0.746,0.866c0.001-0.044,0.003-0.107,0.004-0.139
		L430.954,289.656z"/>
	<path fill="#CCCCCC" d="M429.653,294.923c0.571-1.67,0.653-3.087,0.274-4.032c-0.114-0.198-0.23-0.394-0.351-0.589
		c-0.08-0.094-0.16-0.187-0.257-0.261c-1.739-1.347-2.432-0.812-3.479,0c-0.974,0.753-2.279,1.757-4.434,0.4l2.678,12.439
		C426.498,300.852,428.519,298.239,429.653,294.923z"/>
	<path fill="#CCCCCC" d="M408.48,318.621c13.05,0,20.681-3.795,23.592-8.292l-1.991-1.411l-1.987,1.2l1.329,2.354l-0.667,0.404
		l-4.288-7.839l0.677-0.409l7.312,5.046c0.654-1.215,0.993-2.466,0.993-3.7c0-2.652-0.01-7.309-2.169-12.386
		c-0.096,0.552-0.235,1.129-0.443,1.738c-1.165,3.405-3.922,6.997-7.374,9.606c-2.992,2.263-8.021,4.959-14.983,4.959
		c-9.477,0-16.409-2.051-20.552-3.275c-1.909-0.564-3.881-1.146-4.25-0.873c-0.009,0.007-0.042,0.066-0.042,0.237
		c0,1.337,2.126,2.982,4.002,4.436c2.308,1.787,4.487,3.475,4.487,5.425c0,0.162-0.046,0.315-0.125,0.461v2.318H408.48z
		 M423.224,305.999l4.368,7.284l-0.762,0.309l-4.368-7.285L423.224,305.999z M418.743,308.48c0.289-0.45,0.695-0.764,1.221-0.938
		c0.596-0.197,1.19-0.172,1.785,0.076c0.595,0.249,1.144,0.693,1.645,1.336l-0.662,0.488c-0.407-0.502-0.804-0.834-1.189-0.996
		c-0.386-0.164-0.777-0.178-1.175-0.046c-0.458,0.151-0.773,0.417-0.945,0.798c-0.169,0.379-0.201,0.822-0.096,1.333
		c0.105,0.508,0.28,1.01,0.524,1.506c0.314,0.64,0.663,1.176,1.045,1.606c0.383,0.427,0.788,0.706,1.216,0.84
		c0.428,0.132,0.822,0.139,1.186,0.018c0.441-0.146,0.735-0.432,0.884-0.855c0.146-0.423,0.119-0.97-0.084-1.639h-0.001l0.913-0.01
		c0.236,0.873,0.246,1.597,0.028,2.171c-0.217,0.57-0.636,0.958-1.256,1.164c-0.642,0.214-1.246,0.222-1.811,0.027
		c-0.564-0.199-1.105-0.577-1.625-1.133c-0.517-0.558-0.952-1.196-1.306-1.915c-0.386-0.784-0.604-1.506-0.654-2.166
		C418.337,309.481,418.455,308.926,418.743,308.48z M416.731,309.051l2.846,7.776l-0.812,0.2l-2.847-7.776L416.731,309.051z
		 M415.498,309.586l0.101,0.955l-2.117,0.149l0.749,7.136l-0.847,0.061l-0.748-7.137l-2.107,0.149l-0.101-0.954L415.498,309.586z
		 M409.357,315.465c-0.117-0.191-0.31-0.353-0.578-0.482c-0.173-0.084-0.553-0.215-1.143-0.393c-0.591-0.181-1.004-0.351-1.24-0.51
		c-0.307-0.203-0.535-0.453-0.688-0.754c-0.148-0.302-0.223-0.64-0.223-1.014c0-0.41,0.092-0.791,0.276-1.146
		c0.184-0.357,0.452-0.629,0.806-0.813c0.353-0.185,0.746-0.276,1.178-0.276c0.477,0,0.896,0.097,1.258,0.293
		c0.364,0.192,0.645,0.477,0.841,0.854c0.195,0.376,0.301,0.803,0.315,1.279l-0.814,0.077c-0.044-0.514-0.193-0.901-0.447-1.163
		c-0.251-0.263-0.623-0.393-1.117-0.393c-0.514,0-0.89,0.119-1.126,0.359c-0.232,0.236-0.351,0.521-0.351,0.858
		c0,0.292,0.084,0.532,0.25,0.721c0.164,0.188,0.59,0.382,1.279,0.581c0.692,0.195,1.167,0.367,1.423,0.516
		c0.374,0.217,0.65,0.494,0.828,0.831c0.179,0.331,0.268,0.716,0.268,1.151c0,0.432-0.099,0.84-0.293,1.225
		c-0.196,0.381-0.479,0.678-0.846,0.893c-0.365,0.209-0.776,0.315-1.235,0.315c-0.581,0-1.068-0.108-1.463-0.321
		c-0.392-0.215-0.699-0.536-0.925-0.965c-0.222-0.432-0.338-0.918-0.35-1.463l0.802-0.088c0.037,0.406,0.125,0.74,0.262,1.003
		c0.141,0.259,0.357,0.469,0.648,0.632c0.293,0.158,0.621,0.238,0.986,0.238c0.323,0,0.609-0.061,0.858-0.184
		c0.248-0.121,0.432-0.287,0.552-0.498c0.123-0.215,0.185-0.447,0.185-0.698C409.532,315.875,409.474,315.653,409.357,315.465z
		 M398.47,314.656l0.26-4.688l0.849,0.032l-0.26,4.681c-0.039,0.705-0.016,1.228,0.067,1.567c0.086,0.335,0.25,0.599,0.491,0.789
		c0.243,0.19,0.548,0.292,0.913,0.306c0.623,0.023,1.078-0.139,1.364-0.486c0.285-0.348,0.456-1.031,0.512-2.05l0.26-4.682
		l0.85,0.032l-0.26,4.688c-0.046,0.815-0.154,1.459-0.327,1.934s-0.458,0.855-0.857,1.144c-0.396,0.284-0.902,0.415-1.521,0.393
		c-0.601-0.022-1.085-0.173-1.452-0.448c-0.367-0.277-0.619-0.664-0.755-1.166C398.466,316.197,398.423,315.516,398.47,314.656z
		 M393.206,315.433c0.021,0.62,0.112,1.046,0.276,1.274c0.163,0.229,0.39,0.344,0.679,0.344c0.213,0,0.396-0.061,0.552-0.184
		c0.154-0.125,0.262-0.293,0.319-0.504c0.059-0.214,0.088-0.555,0.088-1.02v-5.595h0.85v5.534c0,0.68-0.065,1.205-0.197,1.579
		c-0.128,0.372-0.334,0.657-0.617,0.853c-0.28,0.195-0.61,0.294-0.989,0.294c-0.564,0-0.996-0.205-1.298-0.615
		c-0.297-0.409-0.44-1.02-0.429-1.827L393.206,315.433z"/>
	<path fill="#CCCCCC" d="M429.227,308.309l-2.188-1.565c-0.666-0.476-1.201-0.872-1.604-1.192c0.33,0.467,0.635,0.947,0.911,1.439
		l1.271,2.292L429.227,308.309z"/>
	<path d="M432.957,295.186c-0.413-1.239-0.943-2.518-1.618-3.813c0.102,0.658,0.081,1.402-0.06,2.217
		c2.159,5.077,2.169,9.733,2.169,12.386c0,1.234-0.339,2.485-0.993,3.7l0.746,0.515l-0.717,0.433l-0.413-0.293
		c-2.911,4.497-10.542,8.292-23.592,8.292h-16.48v1h16.48c17.842,0,25.969-7.074,25.969-13.646c0-2.21-0.007-5.772-1.194-9.838
		C433.162,295.822,433.064,295.506,432.957,295.186z"/>
	<path d="M429.927,290.891c-0.09-0.226-0.208-0.421-0.351-0.589C429.697,290.497,429.813,290.692,429.927,290.891z"/>
	<polygon fill="#CCCCCC" points="343.282,315.85 342.579,318.621 346.716,318.621 345.968,315.85 	"/>
	<path fill="#CCCCCC" d="M345.035,312.322c-0.204-0.771-0.356-1.404-0.456-1.9c-0.082,0.587-0.197,1.17-0.346,1.75l-0.705,2.689
		h2.177L345.035,312.322z"/>
	<path fill="#CCCCCC" d="M331.058,308.049c-1.052-0.431-2.015-0.905-2.879-1.4l-1.163,7.583L331.058,308.049z"/>
	<path fill="#CCCCCC" d="M348.364,318.621v-9.162h2.212c0.499,0,0.88,0.043,1.144,0.131c0.367,0.121,0.682,0.34,0.94,0.656
		c0.339,0.408,0.592,0.933,0.759,1.569c0.169,0.634,0.254,1.359,0.254,2.176c0,0.696-0.057,1.313-0.171,1.852
		s-0.26,0.983-0.438,1.339c-0.178,0.35-0.374,0.627-0.587,0.83c-0.21,0.2-0.466,0.353-0.766,0.457
		c-0.284,0.099-0.61,0.147-0.975,0.152h6.307v-2.245c-0.092-0.181-0.125-0.359-0.125-0.534c0-1.95,2.18-3.638,4.487-5.425
		c1.876-1.453,4.002-3.099,4.002-4.436c0-0.171-0.033-0.23-0.042-0.237c-0.37-0.271-2.341,0.31-4.251,0.873
		c-3.443,1.018-8.821,2.604-15.979,3.11l2.55,8.894H348.364z"/>
	<path fill="#CCCCCC" d="M331.669,317.934c1.275,0.213,2.647,0.368,4.084,0.483l0.301-8.922c-0.685-0.122-1.344-0.269-1.979-0.437
		l-2.007,8.936L331.669,317.934z"/>
	<path fill="#CCCCCC" d="M341.031,311.873c0.148,0.637,0.208,1.364,0.181,2.18c-0.023,0.697-0.102,1.312-0.233,1.848
		s-0.292,0.978-0.483,1.328c-0.189,0.346-0.395,0.618-0.614,0.816c-0.217,0.195-0.478,0.342-0.781,0.439
		c-0.13,0.042-0.271,0.069-0.416,0.091c0.623,0.019,1.232,0.046,1.882,0.046h1.112l2.373-8.822c-1.121,0.06-2.283,0.094-3.487,0.094
		c-0.222,0-0.436-0.011-0.652-0.016c0.152,0.113,0.291,0.249,0.415,0.41C340.651,310.703,340.885,311.232,341.031,311.873z"/>
	<path fill="#CCCCCC" d="M339.311,310.746c-0.223-0.131-0.587-0.201-1.092-0.213l-1.349-0.031l-0.236,7.001l1.37,0.031
		c0.424,0.01,0.757-0.039,1-0.147c0.246-0.105,0.444-0.261,0.595-0.461c0.21-0.283,0.38-0.665,0.507-1.146
		c0.13-0.485,0.207-1.073,0.23-1.765c0.032-0.959-0.054-1.697-0.259-2.215C339.876,311.279,339.62,310.928,339.311,310.746z"/>
	<path fill="#CCCCCC" d="M352.156,316.899c0.201-0.288,0.357-0.673,0.468-1.157c0.115-0.487,0.172-1.077,0.172-1.77
		c0-0.959-0.11-1.693-0.333-2.207c-0.219-0.517-0.486-0.862-0.802-1.037c-0.228-0.125-0.595-0.188-1.1-0.188h-1.349v7.003h1.371
		c0.423,0,0.755-0.057,0.994-0.17C351.821,317.262,352.013,317.104,352.156,316.899z"/>
	<path fill="#CCCCCC" d="M315.596,305.974c0,1.476,0.469,2.976,1.406,4.405c-0.107-0.192-0.167-0.396-0.175-0.608
		c-0.016-0.433,0.158-0.894,0.522-1.384c0.368-0.493,0.97-1.084,1.805-1.771l4.281-3.525c-2.429-2.332-4.32-5.102-5.23-7.765
		c-0.208-0.607-0.347-1.183-0.442-1.732C315.607,298.668,315.596,303.322,315.596,305.974z"/>
	<path fill="#CCCCCC" d="M322.729,309.548c-0.792,0.652-1.473,1.128-2.042,1.427s-1.136,0.457-1.7,0.478
		c-0.559,0.019-1.059-0.151-1.496-0.511c-0.21-0.172-0.368-0.354-0.479-0.546c2.149,3.264,6.812,6.137,14.226,7.455l2.021-8.997
		l0.154,0.023c-0.561-0.165-1.1-0.346-1.618-0.539l-5.195,7.945l-0.768-0.339l1.177-7.657l-4.148,6.346l-0.717-0.316l5.278-8.075
		l0.276,0.122c-0.216-0.13-0.424-0.26-0.627-0.391L322.729,309.548z"/>
	<path fill="#CCCCCC" d="M318.354,308.442c-0.248,0.325-0.371,0.635-0.368,0.925c0.003,0.293,0.135,0.544,0.394,0.756
		c0.442,0.363,0.931,0.479,1.467,0.347c0.535-0.132,1.298-0.605,2.287-1.42l4.274-3.52c-0.29-0.201-0.569-0.4-0.829-0.597
		c-0.547-0.414-1.069-0.859-1.578-1.318l-4.238,3.49C319.077,307.668,318.608,308.113,318.354,308.442z"/>
	<path d="M319.47,290.297c-0.146,0.171-0.268,0.371-0.359,0.603C319.228,290.696,319.348,290.496,319.47,290.297z"/>
	<path d="M357.042,318.621h-6.307c-0.02,0-0.035,0.004-0.055,0.004h-2.317v-0.004h-0.68l0.001,0.004h-0.968l-0.001-0.004h-4.137
		l-0.001,0.004h-0.902l0.001-0.004h-1.112c-0.649,0-1.259-0.027-1.882-0.046c-0.193,0.03-0.396,0.047-0.618,0.042l-2.316-0.053
		l0.005-0.147c-1.437-0.115-2.809-0.271-4.084-0.483l-0.436-0.066l0.004-0.017c-7.413-1.318-12.076-4.191-14.226-7.455
		c-0.003-0.006-0.007-0.011-0.01-0.017c-0.938-1.43-1.406-2.93-1.406-4.405c0-2.651,0.011-7.306,2.167-12.38
		c-0.141-0.812-0.163-1.556-0.062-2.212c-0.635,1.22-1.14,2.423-1.541,3.595c-0.109,0.32-0.212,0.638-0.307,0.952
		c-1.25,4.151-1.257,7.798-1.257,10.046c0,6.572,8.127,13.646,25.969,13.646h16.478V318.621z"/>
	<path fill="#CCCCCC" d="M362.17,311.405c-1.876,1.453-4.003,3.1-4.003,4.437c0.27,0.484,2.904,1.162,7.865,1.546v-9.599
		C365.226,309.023,363.736,310.192,362.17,311.405z"/>
	<path fill="#CCCCCC" d="M390.884,315.789c-0.01-1.284-2.137-2.931-4.013-4.384c-1.565-1.213-3.055-2.381-3.861-3.615v9.596
		C387.971,316.999,390.608,316.31,390.884,315.789z"/>
	<path fill="#CCCCCC" d="M370.223,323.883c0.231-0.291,0.347-0.701,0.347-1.23c0-0.385-0.069-0.711-0.206-0.982
		c-0.135-0.275-0.312-0.457-0.534-0.545c-0.144-0.054-0.407-0.08-0.793-0.08h-1.643v3.275h1.66
		C369.603,324.32,369.992,324.176,370.223,323.883z"/>
	<path fill="#CCCCCC" d="M375.182,322.826c-0.204-0.771-0.356-1.404-0.456-1.9c-0.082,0.588-0.197,1.171-0.346,1.75l-0.705,2.689
		h2.177L375.182,322.826z"/>
	<path fill="#CCCCCC" d="M358.042,328.979c0.214,0.821,6.06,1.965,16.479,1.965s16.265-1.144,16.479-1.97l-0.001-11.837
		c-3.155,1.593-12.156,1.795-16.479,1.795c-4.474,0-8.647-0.222-11.753-0.622c-2.451-0.316-3.887-0.698-4.726-1.104V328.979z
		 M377.997,328.004l3.289-5.871c0.233-0.417,0.455-0.779,0.666-1.088h-3.583v-1.082h4.599v1.082l-3.604,6.359l-0.391,0.645h4.101
		v1.08h-5.076V328.004z M374.288,319.963h0.915l2.628,9.166h-0.968l-0.749-2.775h-2.685l-0.705,2.775h-0.902L374.288,319.963z
		 M366.543,319.963h2.423c0.427,0,0.752,0.029,0.977,0.087c0.315,0.076,0.58,0.22,0.793,0.433c0.213,0.208,0.384,0.502,0.513,0.881
		c0.131,0.379,0.197,0.797,0.197,1.251c0,0.779-0.175,1.439-0.521,1.981c-0.348,0.538-0.976,0.807-1.884,0.807h-1.646v3.727h-0.851
		V319.963z"/>
	<path d="M391.999,318.621v-2.318c-0.171,0.313-0.517,0.591-1,0.835L391,328.975c-0.215,0.826-6.061,1.97-16.479,1.97
		s-16.265-1.144-16.479-1.965v-11.772c-0.562-0.271-0.857-0.552-1-0.831v2.245v1v9.358c0,0.695,1.261,2.965,17.479,2.965
		s17.479-2.27,17.479-2.965v-9.358V318.621z"/>
	<path d="M327.829,289.548l-0.308-0.396l-0.076-0.099c-1.739,1.347-2.431,0.812-3.479,0c-1.056-0.818-2.503-1.942-5.01,0
		c-0.689,0.534-1.104,1.336-1.256,2.329c-0.101,0.656-0.078,1.399,0.062,2.212c0.096,0.55,0.234,1.125,0.442,1.732
		c0.91,2.663,2.802,5.433,5.23,7.765l0.271-0.224l0.602,0.494L324,303.615c0.509,0.459,1.031,0.904,1.578,1.318
		c0.26,0.196,0.539,0.396,0.829,0.597l0.272-0.225l0.602,0.493l-0.211,0.174c0.203,0.131,0.411,0.261,0.627,0.391l0.492,0.217
		l-0.011,0.068c0.864,0.495,1.827,0.97,2.879,1.4l0.103-0.157l0.718,0.317l-0.084,0.129c0.519,0.193,1.058,0.374,1.618,0.539
		l0.681,0.104l-0.018,0.078c0.635,0.168,1.294,0.314,1.979,0.437l0.003-0.094l2.211,0.05c0.499,0.012,0.879,0.064,1.139,0.158
		c0.182,0.064,0.35,0.154,0.504,0.268c0.217,0.005,0.431,0.016,0.652,0.016c1.204,0,2.366-0.034,3.487-0.094l0.092-0.34h0.915
		l0.077,0.269c7.158-0.507,12.536-2.093,15.979-3.11c1.91-0.563,3.881-1.145,4.251-0.873c0.009,0.007,0.042,0.066,0.042,0.237
		c0,1.337-2.126,2.982-4.002,4.436c-2.308,1.787-4.487,3.475-4.487,5.425c0,0.175,0.033,0.354,0.125,0.534
		c0.143,0.279,0.438,0.56,1,0.831c0.839,0.405,2.274,0.787,4.726,1.104c3.105,0.4,7.279,0.622,11.753,0.622
		c4.322,0,13.323-0.202,16.479-1.795c0.483-0.244,0.829-0.521,1-0.835c0.079-0.146,0.125-0.299,0.125-0.461
		c0-1.95-2.18-3.638-4.487-5.425c-1.876-1.453-4.002-3.099-4.002-4.436c0-0.171,0.033-0.23,0.042-0.237
		c0.369-0.273,2.341,0.309,4.25,0.873c4.143,1.225,11.075,3.275,20.552,3.275c6.963,0,11.991-2.696,14.983-4.959
		c3.452-2.609,6.209-6.201,7.374-9.606c0.208-0.609,0.348-1.187,0.443-1.738c0.141-0.814,0.161-1.559,0.06-2.217
		c-0.085-0.55-0.256-1.036-0.508-1.453c-0.2-0.332-0.441-0.63-0.746-0.866l0,0c-2.506-1.941-3.953-0.818-5.011,0
		c-0.607,0.471-1.1,0.836-1.741,0.808c-0.465-0.021-1.006-0.241-1.737-0.808l-0.407,0.525l-0.358,0.463
		c0.199,0.154,0.39,0.283,0.576,0.4c2.154,1.356,3.46,0.353,4.434-0.4c1.048-0.812,1.74-1.347,3.479,0
		c0.097,0.074,0.177,0.167,0.257,0.261c0.143,0.168,0.261,0.363,0.351,0.589c0.379,0.945,0.297,2.362-0.274,4.032
		c-1.134,3.316-3.154,5.929-5.568,7.958c-4.861,4.085-11.348,5.762-15.605,5.762c-9.295,0-16.12-2.019-20.197-3.224
		c-1.271-0.376-2.261-0.665-3.06-0.831c-0.93-0.193-1.589-0.207-2.071,0.035c-0.075,0.037-0.154,0.069-0.222,0.12
		c-0.361,0.27-0.544,0.687-0.544,1.238c0,0.627,0.243,1.225,0.625,1.809c0.807,1.234,2.296,2.402,3.861,3.615
		c1.876,1.453,4.003,3.1,4.013,4.384c-0.276,0.521-2.913,1.21-7.874,1.597c-2.322,0.182-5.149,0.297-8.489,0.297
		s-6.167-0.115-8.488-0.295c-4.961-0.384-7.596-1.062-7.865-1.546c0-1.337,2.127-2.983,4.003-4.437
		c1.565-1.213,3.056-2.382,3.862-3.616c0.382-0.584,0.624-1.182,0.624-1.808c0-0.552-0.183-0.969-0.544-1.238
		c-0.087-0.065-0.186-0.111-0.286-0.155c-0.477-0.208-1.12-0.185-2.008,0c-0.799,0.166-1.788,0.455-3.06,0.831
		c-4.077,1.205-10.902,3.224-20.196,3.224c-6.693,0-11.937-2.617-15.584-5.85c-2.896-2.567-4.788-5.523-5.591-7.871
		c-0.569-1.664-0.652-3.077-0.277-4.022c0.092-0.231,0.213-0.432,0.359-0.603c0.079-0.092,0.157-0.183,0.252-0.256
		c1.741-1.349,2.432-0.812,3.479,0c0.975,0.754,2.28,1.76,4.438,0.398c0.186-0.116,0.375-0.245,0.573-0.398l-0.076-0.099
		L327.829,289.548L327.829,289.548z"/>
	<polygon points="427.592,313.283 423.224,305.999 422.462,306.307 426.83,313.592 	"/>
	<path d="M419.04,312.312c0.354,0.719,0.789,1.357,1.306,1.915c0.52,0.556,1.061,0.934,1.625,1.133
		c0.564,0.194,1.169,0.187,1.811-0.027c0.62-0.206,1.039-0.594,1.256-1.164c0.218-0.574,0.208-1.298-0.028-2.171l-0.913,0.01h0.001
		c0.203,0.669,0.23,1.216,0.084,1.639c-0.148,0.424-0.442,0.709-0.884,0.855c-0.363,0.121-0.758,0.114-1.186-0.018
		c-0.428-0.134-0.833-0.413-1.216-0.84c-0.382-0.431-0.73-0.967-1.045-1.606c-0.244-0.496-0.419-0.998-0.524-1.506
		c-0.105-0.511-0.073-0.954,0.096-1.333c0.172-0.381,0.487-0.646,0.945-0.798c0.397-0.132,0.789-0.118,1.175,0.046
		c0.386,0.162,0.782,0.494,1.189,0.996l0.662-0.488c-0.501-0.643-1.05-1.087-1.645-1.336c-0.595-0.248-1.189-0.273-1.785-0.076
		c-0.525,0.174-0.932,0.487-1.221,0.938c-0.288,0.445-0.406,1.001-0.357,1.666C418.437,310.807,418.655,311.528,419.04,312.312z"/>
	<polygon points="419.576,316.827 416.731,309.051 415.917,309.251 418.764,317.027 	"/>
	<polygon points="412.636,310.75 413.384,317.887 414.231,317.826 413.482,310.69 415.599,310.541 415.498,309.586 410.428,309.945 
		410.529,310.899 	"/>
	<path d="M408.796,317.326c-0.249,0.123-0.535,0.184-0.858,0.184c-0.365,0-0.693-0.08-0.986-0.238
		c-0.291-0.163-0.508-0.373-0.648-0.632c-0.137-0.263-0.225-0.597-0.262-1.003l-0.802,0.088c0.012,0.545,0.128,1.031,0.35,1.463
		c0.226,0.429,0.533,0.75,0.925,0.965c0.395,0.213,0.882,0.321,1.463,0.321c0.459,0,0.87-0.106,1.235-0.315
		c0.367-0.215,0.649-0.512,0.846-0.893c0.194-0.385,0.293-0.793,0.293-1.225c0-0.436-0.089-0.82-0.268-1.151
		c-0.178-0.337-0.454-0.614-0.828-0.831c-0.256-0.148-0.73-0.32-1.423-0.516c-0.689-0.199-1.115-0.393-1.279-0.581
		c-0.166-0.188-0.25-0.429-0.25-0.721c0-0.337,0.118-0.622,0.351-0.858c0.236-0.24,0.612-0.359,1.126-0.359
		c0.494,0,0.866,0.13,1.117,0.393c0.254,0.262,0.403,0.649,0.447,1.163l0.814-0.077c-0.015-0.477-0.12-0.903-0.315-1.279
		c-0.196-0.377-0.477-0.661-0.841-0.854c-0.362-0.196-0.781-0.293-1.258-0.293c-0.432,0-0.825,0.092-1.178,0.276
		c-0.354,0.185-0.622,0.456-0.806,0.813c-0.185,0.355-0.276,0.736-0.276,1.146c0,0.374,0.074,0.712,0.223,1.014
		c0.153,0.301,0.382,0.551,0.688,0.754c0.236,0.159,0.649,0.329,1.24,0.51c0.59,0.178,0.97,0.309,1.143,0.393
		c0.269,0.13,0.461,0.291,0.578,0.482c0.117,0.188,0.176,0.41,0.176,0.665c0,0.251-0.062,0.483-0.185,0.698
		C409.228,317.039,409.044,317.205,408.796,317.326z"/>
	<path d="M399.358,317.867c0.367,0.275,0.852,0.426,1.452,0.448c0.619,0.022,1.126-0.108,1.521-0.393
		c0.399-0.288,0.685-0.669,0.857-1.144s0.281-1.118,0.327-1.934l0.26-4.688l-0.85-0.032l-0.26,4.682
		c-0.056,1.019-0.227,1.702-0.512,2.05c-0.286,0.348-0.741,0.51-1.364,0.486c-0.365-0.014-0.67-0.115-0.913-0.306
		c-0.241-0.19-0.405-0.454-0.491-0.789c-0.083-0.34-0.106-0.862-0.067-1.567l0.26-4.681l-0.849-0.032l-0.26,4.688
		c-0.047,0.859-0.004,1.541,0.133,2.045C398.739,317.203,398.99,317.59,399.358,317.867z"/>
	<path d="M394.166,318.009c0.379,0,0.709-0.099,0.989-0.294c0.283-0.195,0.489-0.48,0.617-0.853
		c0.132-0.374,0.197-0.899,0.197-1.579v-5.534h-0.85v5.595c0,0.465-0.029,0.806-0.088,1.02c-0.058,0.211-0.165,0.379-0.319,0.504
		c-0.155,0.123-0.339,0.184-0.552,0.184c-0.289,0-0.516-0.115-0.679-0.344c-0.164-0.229-0.256-0.654-0.276-1.274l-0.767,0.134
		c-0.012,0.808,0.132,1.418,0.429,1.827C393.17,317.804,393.602,318.009,394.166,318.009z"/>
	<path d="M383.073,328.049h-4.101l0.391-0.645l3.604-6.359v-1.082h-4.599v1.082h3.583c-0.211,0.309-0.433,0.671-0.666,1.088
		l-3.289,5.871v1.125h5.076V328.049z"/>
	<polygon points="331.238,317.851 331.234,317.867 331.669,317.934 332.069,317.994 334.075,309.059 334.093,308.98 
		333.412,308.877 333.258,308.854 	"/>
	<polygon points="322.143,314.316 322.86,314.633 327.008,308.287 325.831,315.944 326.599,316.283 331.794,308.338 
		331.878,308.209 331.16,307.892 331.058,308.049 327.016,314.231 328.179,306.648 328.19,306.58 327.698,306.363 327.421,306.241 	
		"/>
	<path d="M317.35,308.387c-0.364,0.49-0.538,0.951-0.522,1.384c0.008,0.213,0.067,0.416,0.175,0.608
		c0.003,0.006,0.007,0.011,0.01,0.017c0.11,0.191,0.269,0.374,0.479,0.546c0.438,0.359,0.938,0.529,1.496,0.511
		c0.564-0.021,1.131-0.179,1.7-0.478s1.25-0.774,2.042-1.427l4.342-3.575l0.211-0.174l-0.602-0.493l-0.272,0.225l-4.274,3.52
		c-0.989,0.814-1.752,1.288-2.287,1.42c-0.536,0.132-1.024,0.017-1.467-0.347c-0.259-0.212-0.391-0.463-0.394-0.756
		c-0.003-0.29,0.12-0.6,0.368-0.925c0.254-0.329,0.724-0.774,1.408-1.337l4.238-3.49l0.309-0.254l-0.602-0.494l-0.271,0.224
		l-4.281,3.525C318.32,307.303,317.718,307.894,317.35,308.387z"/>
	<path d="M335.748,318.564l2.316,0.053c0.222,0.005,0.425-0.012,0.618-0.042c0.146-0.021,0.286-0.049,0.416-0.091
		c0.304-0.098,0.564-0.244,0.781-0.439c0.22-0.198,0.425-0.471,0.614-0.816c0.191-0.351,0.352-0.793,0.483-1.328
		s0.21-1.15,0.233-1.848c0.027-0.815-0.032-1.543-0.181-2.18c-0.146-0.641-0.38-1.17-0.705-1.586
		c-0.124-0.161-0.263-0.297-0.415-0.41c-0.154-0.113-0.322-0.203-0.504-0.268c-0.26-0.094-0.64-0.146-1.139-0.158l-2.211-0.05
		l-0.003,0.094l-0.301,8.922L335.748,318.564z M340.336,314.016c-0.023,0.691-0.101,1.279-0.23,1.765
		c-0.127,0.48-0.297,0.862-0.507,1.146c-0.15,0.2-0.349,0.355-0.595,0.461c-0.243,0.108-0.576,0.157-1,0.147l-1.37-0.031
		l0.236-7.001l1.349,0.031c0.505,0.012,0.869,0.082,1.092,0.213c0.31,0.182,0.565,0.533,0.767,1.055
		C340.282,312.318,340.368,313.057,340.336,314.016z"/>
	<path d="M341.676,318.625h0.902l0.001-0.004l0.703-2.771h2.686l0.748,2.771l0.001,0.004h0.968l-0.001-0.004l-2.55-8.894
		l-0.077-0.269h-0.915l-0.092,0.34l-2.373,8.822L341.676,318.625z M344.234,312.172c0.148-0.58,0.264-1.163,0.346-1.75
		c0.1,0.496,0.252,1.129,0.456,1.9l0.67,2.539h-2.177L344.234,312.172z"/>
	<path d="M352.476,318.012c0.213-0.203,0.409-0.48,0.587-0.83c0.179-0.355,0.324-0.801,0.438-1.339s0.171-1.155,0.171-1.852
		c0-0.816-0.085-1.542-0.254-2.176c-0.167-0.637-0.42-1.161-0.759-1.569c-0.259-0.316-0.573-0.535-0.94-0.656
		c-0.264-0.088-0.645-0.131-1.144-0.131h-2.212v9.162v0.004h2.317c0.02,0,0.035-0.004,0.055-0.004
		c0.364-0.005,0.69-0.054,0.975-0.152C352.01,318.364,352.266,318.212,352.476,318.012z M350.584,317.544h-1.371v-7.003h1.349
		c0.505,0,0.872,0.062,1.1,0.188c0.315,0.175,0.583,0.521,0.802,1.037c0.223,0.514,0.333,1.248,0.333,2.207
		c0,0.692-0.057,1.282-0.172,1.77c-0.11,0.484-0.267,0.869-0.468,1.157c-0.144,0.204-0.336,0.362-0.578,0.475
		C351.339,317.487,351.007,317.544,350.584,317.544z"/>
	<path d="M367.394,325.402h1.646c0.908,0,1.536-0.269,1.884-0.807c0.347-0.542,0.521-1.202,0.521-1.981
		c0-0.454-0.066-0.872-0.197-1.251c-0.129-0.379-0.3-0.673-0.513-0.881c-0.213-0.213-0.478-0.356-0.793-0.433
		c-0.225-0.058-0.55-0.087-0.977-0.087h-2.423v9.166h0.851V325.402z M367.394,321.045h1.643c0.386,0,0.649,0.026,0.793,0.08
		c0.222,0.088,0.399,0.27,0.534,0.545c0.137,0.271,0.206,0.598,0.206,0.982c0,0.529-0.115,0.939-0.347,1.23
		c-0.23,0.293-0.62,0.438-1.169,0.438h-1.66V321.045z"/>
	<path d="M373.43,326.354h2.685l0.749,2.775h0.968l-2.628-9.166h-0.915l-2.466,9.166h0.902L373.43,326.354z M374.38,322.676
		c0.148-0.579,0.264-1.162,0.346-1.75c0.1,0.496,0.252,1.129,0.456,1.9l0.67,2.539h-2.177L374.38,322.676z"/>
	<path d="M425.144,304.629l-0.677,0.409l4.288,7.839l0.667-0.404l-1.329-2.354l1.987-1.2l1.991,1.411l0.413,0.293l0.717-0.433
		l-0.746-0.515L425.144,304.629z M427.615,309.282l-1.271-2.292c-0.276-0.492-0.581-0.973-0.911-1.439
		c0.403,0.32,0.938,0.717,1.604,1.192l2.188,1.565L427.615,309.282z"/>
	<path fill="#682900" d="M378.838,288.554c0.302,0.253,0.593,0.598,0.876,0.934c0.283,0.337,0.577,0.685,0.827,0.872l0.144,0.167
		c0.177,0.336,0.349,0.549,0.515,0.755c0.289,0.359,0.563,0.699,0.71,1.439c0.36,0.475,0.129,0.916,0.006,1.113
		c0.017,0.022,0.029,0.047,0.046,0.069l1.622,0.002c-1.396-2.559-2.548-5.353-3.512-8.26c-0.149,0.319-0.34,0.61-0.637,0.854
		C379.117,287.103,378.905,287.683,378.838,288.554z"/>
	<path fill="#682900" d="M377.604,284.163c-0.065,0.481-0.146,0.954-0.227,1.428c-0.086,0.503-0.172,1.007-0.238,1.519l-0.026,0.107
		c-0.242,0.662-0.229,1.462-0.215,2.309l0.005,0.514c0.049,0.19,0.104,0.345,0.16,0.486l0.914-1.36l-0.164-0.105l0.011-0.287
		c0.051-1.253,0.349-2.041,0.78-2.839l0.139-0.161c0.474-0.356,0.614-0.84,0.766-1.857c-0.001-0.037-0.006-0.075-0.008-0.112
		c-0.381-1.275-0.73-2.564-1.044-3.867c0.038,0.393,0.077,0.783,0.122,1.151C378.565,282.498,378.299,283.072,377.604,284.163z"/>
	<path fill="#682900" d="M381.109,293.231l-0.16-0.207c-0.096-0.58-0.259-0.781-0.528-1.115c-0.163-0.203-0.364-0.452-0.568-0.82
		c-0.311-0.254-0.61-0.61-0.902-0.957c-0.006-0.007-0.013-0.015-0.019-0.021l0.841,3.79l1.079,0.001
		c0-0.168,0.062-0.358,0.195-0.564C381.069,293.303,381.102,293.251,381.109,293.231z"/>
	<path fill="#682900" d="M376.179,272.76c-0.011,0.658-0.065,1.325-0.267,1.914c-0.122,0.802-0.256,1.617-0.407,2.455
		c-0.023,0.31-0.04,0.624-0.04,0.962l-0.03,0.172c-0.199,0.543-0.261,1.259-0.319,1.951c-0.036,0.426-0.073,0.847-0.138,1.235
		c-0.039,0.268-0.079,0.56-0.118,0.854c-0.108,0.796-0.22,1.619-0.368,2.239l-0.043,0.115l-0.136,0.261
		c-0.313,0.606-0.72,1.38-1.112,1.913c-0.07,0.24-0.142,0.481-0.214,0.724c-0.004,0.029-0.008,0.065-0.012,0.094
		c-0.07,0.476-0.112,0.763,0.055,1.179c0.312,0.85,0.297,1.781,0.282,2.683l-0.005,0.479c0.015,0.044,0.021,0.091,0.034,0.136
		c0.516,0.107,1.295,0.417,1.746,1.328c0.062-0.081,0.12-0.163,0.173-0.242l1.155-1.72c-0.172-0.317-0.355-0.687-0.497-1.27
		l-0.015-0.118l-0.006-0.562c-0.015-0.881-0.029-1.792,0.256-2.614c0.068-0.507,0.153-1.005,0.237-1.504
		c0.085-0.497,0.17-0.994,0.236-1.501l0.075-0.204c0.656-1.024,0.865-1.404,0.88-2.577c-0.119-0.945-0.239-2.037-0.239-3.27v-3.296
		c-0.271-1.533-0.508-3.06-0.706-4.569c-0.048,0.725-0.166,1.352-0.35,1.943C376.255,272.213,376.213,272.491,376.179,272.76z"/>
	<path fill="#682900" d="M372.257,289.898c-0.234,0.723-0.463,1.44-0.72,2.18l0.769-0.009l0.006-0.576
		C372.321,290.931,372.323,290.394,372.257,289.898z"/>
	<path d="M382.582,246.152c-0.908-0.103-1.633-0.316-2.207-0.648l-0.302-0.174l-0.234-0.258c-0.048-0.053-0.104-0.105-0.165-0.155
		c-0.505-0.003-1.394-0.044-2.204-0.674c-0.274-0.177-0.504-0.359-0.711-0.523c-0.217-0.172-0.404-0.321-0.545-0.38l-0.274-0.138
		c-0.541-0.321-1.124-0.667-1.628-1.271c-0.34,0.044-0.708,0.058-1.133,0.058c-0.965,0-1.758-0.015-2.455-0.206l-0.441-0.166
		c-0.249-0.106-0.39-0.167-0.503-0.203c-0.49,0.2-1.092,0.399-1.773,0.512c-0.037,0.015-0.074,0.03-0.111,0.044l-0.11,0.233
		l-0.566,0.347c-0.637,0.39-1.148,0.703-2.062,1.017c-0.06,0.037-0.12,0.071-0.179,0.105c-0.05,0.14-0.07,0.204-0.079,0.271
		c0.142,1.021-0.043,1.812-0.578,2.66c0.704,0.09,1.391,0.1,2.015,0.107c1.333,0.016,1.959,0.071,2.145,0.351l0.639,0.712
		c1.519,1.52,2.249,2.303,2.251,3.497c0.002,0.849,0.075,1.869,0.169,3.161c0.458,6.345,1.41,19.546-5.556,38.232
		c-0.443,1.166-0.391,2.377,0.148,3.41c0.679,1.304,2.03,2.219,4.017,2.719c0.692,0.175,1.416,0.15,2.026-0.021
		c0.717,0.635,1.508,0.823,2.193,0.823c0.275,0,0.553-0.035,0.825-0.104c0.536-0.135,1.039-0.376,1.501-0.672
		c0.786,0.862,1.812,1.447,3.089,1.447c0.985,0,1.838-0.363,2.515-1.028c0.538,0.302,1.142,0.483,1.812,0.483
		c1.552,0,3.575-0.792,4.596-2.562c0.812-1.408,0.765-3.102-0.14-4.665c-5.169-8.766-8.086-23.641-8.004-40.811l0.002-0.417
		c0-1.175,1.912-3.817,3.992-4.949l-0.213,0.002C383.754,246.319,383.143,246.297,382.582,246.152z M374.608,275.999
		c0.035-0.328,0.071-0.659,0.099-1.006l0.01-0.13l0.072-0.108c0.396-0.594,0.396-1.64,0.396-2.562l0.032-0.178
		c0.31-0.814,0.447-1.703,0.447-2.88v-3.496h1v3.496c0,0.307-0.01,0.595-0.027,0.871c0.198,1.51,0.436,3.036,0.706,4.569v-1.511
		c-0.035-0.744-0.254-1.848-0.384-2.507c-0.041-0.204-0.072-0.367-0.09-0.47l0.986-0.164c0.016,0.096,0.047,0.249,0.084,0.439
		c0.136,0.687,0.363,1.836,0.402,2.678l0.001,4.83c0,0.735,0.051,1.412,0.113,2.064c0.313,1.303,0.663,2.592,1.044,3.867
		c-0.017-0.395-0.062-0.803-0.114-1.234c-0.058-0.484-0.117-0.985-0.123-1.556c-0.223-0.715-0.244-2.065-0.24-3.036v-0.105h1v0.109
		c-0.008,1.802,0.11,2.505,0.21,2.777l0.03,0.172c0,0.546,0.057,1.02,0.116,1.521c0.057,0.478,0.116,0.971,0.123,1.532
		c-0.093,0.646-0.208,1.191-0.431,1.663c0.964,2.907,2.115,5.701,3.512,8.26l-1.622-0.002c0.189,0.267,0.309,0.571-0.009,0.897
		l-0.98-0.282c0.024-0.064,0.051-0.121,0.078-0.17c-0.132-0.119-0.199-0.271-0.199-0.447l-1.079-0.001l-0.841-3.79
		c-0.306-0.361-0.619-0.731-0.876-0.896l-0.078-0.05l-0.914,1.36c0.091,0.226,0.188,0.412,0.291,0.6
		c0.188,0.344,0.382,0.699,0.499,1.283c0.01,0.685,0.072,0.919,0.202,1.196l-0.904,0.426c-0.213-0.451-0.288-0.85-0.288-1.523
		c-0.077-0.336-0.214-0.586-0.387-0.902c-0.02-0.036-0.041-0.076-0.061-0.113l-1.155,1.72c-0.053,0.079-0.111,0.161-0.173,0.242
		c-0.451-0.911-1.23-1.221-1.746-1.328c0.22,0.744,0.218,1.545,0.209,2.324l-0.004,0.462h-1l0.004-0.474
		c0.009-0.803,0.018-1.561-0.214-2.194l-0.03-0.172v-0.002l-0.769,0.009c0.257-0.739,0.485-1.457,0.72-2.18
		c-0.034-0.249-0.079-0.491-0.161-0.713c-0.263-0.653-0.188-1.153-0.11-1.684c0.03-0.207,0.064-0.436,0.081-0.705l0.012-0.186
		l0.13-0.133c0.364-0.372,0.897-1.403,1.217-2.02l0.107-0.208c0.131-0.567,0.234-1.337,0.336-2.082
		c0.04-0.298,0.08-0.594,0.121-0.875c0.062-0.372,0.096-0.767,0.13-1.165c0.062-0.726,0.125-1.475,0.346-2.124
		C374.471,277.274,374.54,276.627,374.608,275.999z"/>
	<path d="M375.693,275.193c-0.026,0.312-0.059,0.614-0.091,0.913c-0.037,0.344-0.071,0.68-0.097,1.022
		c0.151-0.838,0.285-1.653,0.407-2.455C375.851,274.854,375.787,275.033,375.693,275.193z"/>
	<path d="M373.051,287.035c-0.017,0.192-0.041,0.358-0.064,0.52c0.072-0.242,0.144-0.483,0.214-0.724
		C373.151,286.898,373.1,286.977,373.051,287.035z"/>
	<path d="M376.185,272.282c0,0.156-0.004,0.317-0.006,0.478c0.034-0.269,0.076-0.547,0.108-0.811
		C376.253,272.06,376.225,272.174,376.185,272.282z"/>
	<path fill="#009200" d="M367.995,225.929c0.028,0,0.06,0,0.093,0l0.362,0.033c1.145,0.208,1.667,0.63,2.144,1.082
		c0.076,0.073,0.163,0.157,0.285,0.255l-1.292,1.618c0.052-0.003,0.106-0.007,0.146-0.012c-0.068,0.009-0.123,0.025-0.164,0.037
		l1.111,3.895c-0.324,0.092-0.653,0.115-1.207,0.146c-0.196,0.011-0.403,0.019-0.563,0.037l-0.16,0.054
		c-0.182,0.061-0.345,0.119-0.503,0.177l-0.008,1.268c0.194-0.12,0.453-0.277,0.809-0.417l1.113,2.852
		c0.722,0.095,1.208,0.275,1.826,0.539c0.127,0.016,0.324,0.023,0.528,0.028l-0.005-0.255c-0.005-0.236-0.037-0.44-0.065-0.645
		c-0.047-0.334-0.105-0.75-0.105-1.25h2.063c-0.546-0.41-0.937-0.867-1.355-1.461l-0.184-0.32c-0.321-0.698-0.566-1.405-0.767-2.211
		c-0.129-0.305-0.208-0.526-0.256-0.663c0.06,0.161,0.152,0.321,0.274,0.47l1.729-0.408l-0.114-0.66h-2.07c0-0.007,0-0.014,0-0.021
		l0.004-0.133c0.075-1.726,1.514-2.025,1.682-2.055c0.172-0.032,1.709-0.245,2.312,1.451c0.038,0.108,0.104,0.296,0.221,0.561
		l0.117,0.349c0.129,0.544,0.28,1.013,0.474,1.461c0.279,0.381,0.387,0.447,0.69,0.604l0.25,0.153
		c0.17,0.122,0.329,0.244,0.484,0.364c0.27,0.208,0.503,0.388,0.646,0.433l0.366,0.116l0.299,0.243
		c0.137,0.111,0.39,0.278,0.847,0.482c0.404,0.015,0.767,0.049,1.096,0.08c0.296,0.028,0.593,0.057,0.918,0.067l0.442-0.001v4.05
		h-0.509c-0.478-0.015-0.854-0.048-1.229-0.083c-0.365-0.034-0.729-0.071-1.146-0.071h-0.39l-0.361-0.145
		c-0.777-0.31-1.413-0.644-1.933-1.015c-0.13-0.055-0.229-0.126-0.349-0.188c0.124,0.247,0.256,0.502,0.38,0.742
		c0.113,0.084,0.225,0.179,0.33,0.292c0.417,0.446,0.576,0.94,0.634,1.343c0.055,0.033,0.114,0.068,0.171,0.102
		c0.623,0.288,1.084,0.654,1.428,0.927c0.1,0.079,0.194,0.16,0.296,0.229l1.011-0.003l0.478,0.244
		c0.527,0.27,1.002,0.594,1.417,0.97c0.1,0.02,0.258,0.046,0.481,0.067l0.302,0.027l0.2,0.075c0.072,0.009,0.245,0.023,0.622,0.023
		l0.946-0.007l0.062,0.004c0.204,0.011,0.381,0.039,0.553,0.068v-0.082c0.448,0,1.233-0.03,1.705-0.078
		c0.295-0.157,0.592-0.289,0.895-0.415c0.123-0.24,0.123-0.262,0.126-0.442l4.049,0.051c-0.015,1.166-0.359,1.832-0.637,2.367
		c-0.011,0.02-0.023,0.048-0.034,0.069c0.166,0.062,0.33,0.132,0.494,0.223c0.235-0.012,0.459-0.032,0.687-0.054
		c-0.011-0.034-0.021-0.064-0.032-0.099l-0.102-0.441c-0.013-0.107-0.033-0.215-0.052-0.321c-0.111-0.641-0.298-1.713,0.372-2.729
		l3.381,2.229c0.191-0.29,0.186-0.542,0.185-0.545c0.004,0.111,0.032,0.229,0.053,0.35c0.019,0.108,0.037,0.216,0.054,0.325
		c0.149,0.455,0.195,0.561,0.381,0.775l0.212,0.145c0.437,0.294,0.853,0.584,1.257,1.019l0.132-0.001
		c0.574-0.051,1.184-0.099,1.859-0.119c0.034-0.053,0.072-0.098,0.107-0.147c-0.079-0.02-0.166-0.029-0.242-0.052l-0.597-0.268
		c-0.545-0.273-1.213-0.607-1.827-1.202c-0.03-0.022-0.058-0.043-0.083-0.062c0.011,0.008,0.029,0.02,0.053,0.033
		c-0.043-0.043-0.087-0.087-0.129-0.133l0.631-0.593l0.926-3.039c0.458,0.139,0.734,0.331,0.958,0.499l0.437,0.361
		c0.162,0.172,0.464,0.323,0.847,0.515l0.079,0.04c0.208,0.031,0.562,0.034,0.947-0.04c0.246-0.087,0.426-0.143,0.574-0.188
		c0.02-0.039,0.033-0.072,0.045-0.111l0.166-0.562l0.421-0.408c0.138-0.133,0.262-0.306,0.41-0.539
		c0.072-0.361,0.188-0.639,0.289-0.847c0.022-0.298,0.059-0.548,0.09-0.764c0.022-0.159,0.048-0.317,0.06-0.505v-1.316
		c-0.089-0.271-0.154-0.532-0.211-0.757c-0.017-0.067-0.032-0.134-0.048-0.197c-0.101-0.103-0.243-0.243-0.342-0.34
		c-0.007-0.007-0.014-0.014-0.021-0.021c-0.589-0.202-0.974-0.483-1.234-0.674c-0.062-0.045-0.123-0.097-0.207-0.143l-0.396-0.263
		c-0.065-0.027-0.135-0.051-0.203-0.077c-0.033-0.013-0.075-0.031-0.111-0.045l-0.315,0.27c-0.436,0.376-0.847,0.731-1.336,1.068
		l-0.309,0.212l-0.363,0.087c-0.785,0.189-1.211,0.252-1.705,0.252c-0.255,0-0.527-0.017-0.878-0.041h-1.455v-4.05l1.349,0.004
		c-0.173-0.069-0.345-0.139-0.503-0.22c-0.535-0.157-0.902-0.317-1.206-0.45c-0.131-0.058-0.264-0.117-0.423-0.176l-1.049-0.394
		l-0.312-1.075c-0.084-0.288-0.226-0.771-0.238-1.334l-1.099-0.605c-0.504,0.438-1.086,0.614-1.43,0.719l-0.205,0.064
		c-0.06,0.179-0.117,0.58-0.149,0.805l-0.006,0.042c0,0.181,0.002,0.412,0.012,0.616l0.934,0.756l-2.022,3.455
		c-0.001,0-0.001,0-0.002,0c-1.113-0.444-1.585-0.936-2.087-1.534l-0.459-0.526l-0.131-0.358c-0.295-0.801-0.295-1.772-0.295-2.553
		l0.047-0.468c0.059-0.409,0.139-0.9,0.289-1.396c-0.104-0.05-0.162-0.069-0.179-0.074l-1.581-0.449h-0.986v-1.248
		c-0.025-0.016-0.046-0.028-0.07-0.043c-0.206,0.346-0.413,0.671-0.602,0.951l-0.387,0.572l-0.655,0.217c0-0.001,0-0.002,0-0.002
		c-0.002,0-0.047,0.073-0.139,0.283l-0.176,0.319c-0.172,0.255-0.396,0.557-0.621,0.855c-0.148,0.197-0.296,0.394-0.42,0.569
		l-0.141,0.178c-0.747,0.842-1.275,1.261-2.617,1.673l-1.189-3.872c0.386-0.118,0.473-0.171,0.481-0.176
		c0.038-0.028,0.146-0.146,0.226-0.233c0.129-0.18,0.274-0.375,0.422-0.57c0.142-0.189,0.285-0.379,0.408-0.552
		c0.242-0.531,0.718-1.413,1.76-1.995c0.017-0.026,0.032-0.054,0.048-0.08c-0.042-0.073-0.086-0.144-0.125-0.221l-0.137,0.144
		l-0.738,0.146c-1.112,0.198-2.011,0.008-2.628-0.158c-0.072-0.02-0.147-0.04-0.229-0.061c-0.355,0.004-0.461,0.028-0.783,0.155
		c-0.217,0.159-0.709,0.624-0.929,0.831l-0.645,0.609l-0.947,0.056c-0.408,0-0.891-0.061-1.644-0.159
		c-0.392-0.051-0.849-0.111-1.224-0.145c-0.155,0.186-0.289,0.361-0.44,0.562l-0.175,0.23l-0.227,0.178
		c-0.61,0.48-1.237,0.648-1.652,0.759c-0.064,0.017-0.132,0.035-0.202,0.055c-0.121,0.201-0.253,0.366-0.386,0.517
		C367.637,225.488,367.843,225.699,367.995,225.929z M386.378,234.775c0.025-0.175,0.298-1.688,2.069-1.739v-0.001h0.064
		c0.013,0,0.023,0,0.036,0h0.069v1.353l0.426-1.229c0.231,0.068,0.528,0.156,0.945,0.308c0.371,0.129,0.77,0.201,1.23,0.285
		l0.507,0.095c0.275,0.061,0.465,0.115,0.645,0.168c0.266,0.078,0.347,0.102,0.657,0.102h0.387l0.359,0.143
		c0.907,0.359,1.271,0.547,1.939,1.024c0.084,0.028,0.172,0.046,0.308,0.057c0.345-0.14,0.768-0.288,1.263-0.443
		c0.014-0.008,0.027-0.015,0.04-0.022c-0.013,0.007-0.024,0.014-0.037,0.021c0.08-0.025,0.161-0.05,0.244-0.075l0.439,1.452
		l2.39,0.868c-0.214,0.589-0.564,1-1.103,1.292L399,238.609l-0.296,0.088c-0.7,0.212-1.193,0.398-1.371,0.488l-0.431,0.217h-0.481
		c-1.033,0-1.688-0.124-2.499-0.475l-0.21-0.091l-0.185-0.135c-0.419-0.307-0.517-0.378-0.921-0.546
		c-0.581-0.034-0.975-0.136-1.379-0.255c-0.101-0.029-0.205-0.061-0.335-0.09l-0.397-0.073c-0.549-0.1-1.17-0.212-1.866-0.455
		c-0.33-0.12-0.546-0.184-0.671-0.22C386.176,236.535,386.353,234.954,386.378,234.775z"/>
	<path fill="#009200" d="M396.996,235.115c-0.216,0.202-0.372,0.446-0.443,0.644l1.173,0.426L396.996,235.115z"/>
	<path fill="#009200" d="M374.041,231.897l-0.189-1.087l-1.468,0.645C372.795,231.798,373.381,232.01,374.041,231.897z"/>
	<path fill="#009200" d="M366.393,235.162c0.158-0.031,0.321-0.066,0.467-0.083c0.226-0.103,0.468-0.187,0.707-0.275l-1.174-0.088
		V235.162z"/>
	<path fill="#009200" d="M365.04,236.451c-0.458-0.057-0.891-0.111-1.271-0.226l-0.383-0.161c-0.011-0.006-0.021-0.012-0.031-0.017
		c-0.315,0.203-0.638,0.403-1.11,0.651l-0.442,0.232h-0.499c-0.99,0-2.379-0.114-2.815-0.173l0.009-0.067
		c-0.498,0.043-0.971-0.004-1.289-0.095c-0.516,0.167-0.901,0.132-1.223,0.071c-0.254,0.363-0.639,0.776-1.22,1.056
		c-0.711,0.64-1.813,0.677-2.43,0.451c-0.364,0.053-0.706,0.061-1.002,0.061l-0.223-0.001c-0.003,0.008-0.005,0.016-0.007,0.023
		c-0.192,0.69-0.587,1.134-1.03,1.401l0.866,2.829c0.471-0.215,0.967-0.312,1.41-0.35c0.082-0.239,0.125-0.491,0.105-0.745
		c0.007,0.083,0.015,0.181,0.015,0.312v0.425c0.248-0.017,0.48-0.022,0.67-0.024l0.074,0l0.073,0.004
		c0.129,0.007,0.246,0.019,0.362,0.031c0.776-0.281,1.498-0.376,2.091-0.423c0.249-0.086,0.479-0.136,0.668-0.176
		c0.037-0.008,0.075-0.016,0.111-0.023c0.126-0.125,0.167-0.229,0.225-0.342c0.026-0.051,0.053-0.103,0.081-0.156
		c0.022-0.093,0.047-0.181,0.072-0.269l0.068,0.007c0.01-0.016,0.019-0.033,0.027-0.049l0.111,0.062l0.178,0.018l-2.243-2.036h5.244
		c0.105,0,0.183,0.004,0.239,0.008l-0.111,1.862h0.013l1.221-1.345c0.146,0.132,0.285,0.275,0.424,0.421
		c0.026,0.027,0.056,0.058,0.085,0.088c0.147,0.014,0.336,0.025,0.569,0.034c0.053-0.029,0.109-0.056,0.165-0.096l0.29-0.207
		l0.34-0.106c0.426-0.134,0.646-0.234,0.958-0.416c0.492-0.601,1.085-0.886,1.539-1.074l-0.401-1.389
		C365.478,236.5,365.261,236.478,365.04,236.451z"/>
	<path fill="#009200" d="M403.193,240.456c0.054-0.083,0.111-0.176,0.163-0.253c0.104-0.153,0.159-0.238,0.195-0.301
		c-0.146,0.069-0.291,0.155-0.423,0.272L403.193,240.456z"/>
	<path fill="#009200" d="M401.055,231.646c-0.399-0.321-0.66-0.706-0.827-1.02c-0.026,0.002-0.063,0.006-0.092,0.008
		C400.292,231.027,400.6,231.401,401.055,231.646z"/>
	<path fill="#009200" d="M365.423,232.418l-0.048-0.139l-0.918-1.805c0.479-0.249,0.924-0.433,1.328-0.551
		c0.152-0.084,0.301-0.141,0.451-0.21c-0.207-0.076-0.419-0.167-0.646-0.291l-0.729-0.398l-0.104-0.347
		c-0.021,0.054-0.033,0.106-0.058,0.161l-0.331,0.745l-0.733,0.356c-0.04,0.02-0.079,0.038-0.117,0.056
		c0.185,0.623,0.146,1.324-0.239,1.971c0.648,0.026,1.177,0.12,1.776,0.405C365.158,232.387,365.289,232.402,365.423,232.418z"/>
	<path fill="#009200" d="M402.455,242l0.218-0.032c0-0.006-0.001-0.011-0.001-0.018l-0.01-0.634l0.325-0.544
		c0.024-0.04,0.046-0.069,0.069-0.107l-0.112-0.308C402.589,240.767,402.361,241.35,402.455,242z"/>
	<path fill="#009200" d="M349.084,239.973c-0.055,0.004-0.109,0.012-0.162,0.012h-0.508c-0.021,0.073-0.044,0.147-0.071,0.221
		c-0.077,0.21-0.208,0.419-0.364,0.619c0.263-0.189,0.54-0.375,0.821-0.542C348.879,240.173,348.977,240.071,349.084,239.973z"/>
	<path fill="#009200" d="M360.163,243.365c-0.121,0.217-0.275,0.448-0.472,0.687c0.037,0.009,0.081,0.017,0.117,0.025l0.411,0.146
		c0.02,0.009,0.038,0.018,0.056,0.027c0.045-0.022,0.09-0.043,0.135-0.065c0.006-0.003,0.012-0.006,0.019-0.009v-0.096
		c0-0.192,0.014-0.361,0.028-0.526l-0.183-0.108C360.232,243.421,360.204,243.391,360.163,243.365z"/>
	<path d="M343.578,244.912c0.151,0.124,0.291,0.229,0.423,0.329c0.203,0.153,0.261,0.198,0.309,0.256l0.459,0.476
		c0.282,0.281,0.504,0.502,0.673,0.725l0.508,0.672l0.825,0.168c0.237,0.048,0.353,0.101,0.661,0.24
		c0.169,0.077,0.353,0.159,0.569,0.248c0.432,0.337,0.92,0.508,1.456,0.508c0.235,0,0.548-0.037,0.89-0.174
		c0.503-0.123,1.299-0.364,1.989-0.775c0.562-0.262,0.935-0.59,1.181-0.925c0.082,0.04,0.184,0.098,0.338,0.187
		c0.148,0.085,0.313,0.179,0.504,0.282c0.633,0.438,1.231,0.722,2.299,0.902l0.252,0.04c0.638,0.092,1.168,0.187,1.613,0.29
		c0.456,0.209,0.956,0.401,1.723,0.401c0.194,0,0.432-0.013,0.744-0.041l0.495-0.044l0.43-0.251c0.14-0.081,0.284-0.148,0.424-0.215
		c0.486-0.233,1.091-0.523,1.61-1.081l0.179-0.218c0.075-0.105,0.124-0.205,0.188-0.308c0.535-0.848,0.72-1.639,0.578-2.66
		c0.009-0.067,0.029-0.131,0.079-0.271c0.059-0.034,0.119-0.068,0.179-0.105c0.914-0.314,1.426-0.627,2.062-1.017l0.566-0.347
		l0.11-0.233c0.037-0.015,0.074-0.029,0.111-0.044c0.682-0.113,1.283-0.312,1.773-0.512c0.113,0.036,0.254,0.096,0.503,0.203
		l0.441,0.166c0.697,0.191,1.49,0.206,2.455,0.206c0.425,0,0.793-0.014,1.133-0.058c0.504,0.604,1.087,0.95,1.628,1.271l0.274,0.138
		c0.141,0.06,0.328,0.208,0.545,0.38c0.207,0.164,0.437,0.346,0.711,0.523c0.811,0.63,1.699,0.671,2.204,0.674
		c0.062,0.05,0.117,0.102,0.165,0.155l0.234,0.258l0.302,0.174c0.574,0.333,1.299,0.545,2.207,0.648
		c0.561,0.145,1.172,0.167,1.759,0.167l0.213-0.002l0.6-0.007c0.035,0.014,0.066,0.03,0.098,0.046
		c0.431,0.559,1.045,1.064,2.238,1.309l1.332,0.053c0.533,0,1.087-0.019,1.604-0.131l0.603,0.505h0.812
		c0.852,0,1.481-0.06,2.153-0.128c0.064-0.001,0.105-0.003,0.105-0.01c0.054,0.023,0.104,0.052,0.163,0.083l0.8,0.412l0.752-0.141
		c0.445-0.084,0.711-0.095,1.025-0.018c0.675,0.382,1.3,0.441,1.836,0.441l0.658-0.012c0.698-0.062,1.391-0.118,2.177-0.118l0.249,0
		c1.146,0,1.833-0.339,2.536-1.251l0.337-0.446l0.064-0.363c0.017-0.014,0.034-0.029,0.053-0.044
		c0.831-0.387,1.438-0.827,1.983-1.434l0.571-0.637v-0.855c0-0.467-0.049-0.826-0.094-1.102c0.159-0.245,0.33-0.529,0.481-0.887
		c0.422-0.492,0.721-0.991,0.992-1.443l0.316-0.529v-0.419c0.057-0.109,0.114-0.226,0.169-0.359l0.171-0.411v-0.445
		c0-0.249,0.027-0.439,0.065-0.702c0.043-0.301,0.084-0.604,0.103-0.969l0.002-2.365l-0.193-0.434
		c-0.04-0.091-0.106-0.355-0.15-0.53c-0.09-0.359-0.191-0.766-0.376-1.159l-0.154-0.278c-0.284-0.433-0.675-0.819-1.053-1.192
		c-0.125-0.123-0.244-0.237-0.327-0.331l-0.581-0.628l-0.773-0.106c-0.024-0.018-0.049-0.037-0.073-0.055
		c-0.14-0.102-0.285-0.206-0.452-0.311c-0.469-0.38-0.978-0.579-1.374-0.73c-0.141-0.282-0.353-0.651-0.687-1.011l-0.331-0.356
		l-0.449-0.187c-0.688-0.285-1.314-0.475-2.137-0.475c-0.199,0-0.417,0.012-0.674,0.034c-0.435-0.085-0.821-0.219-0.921-0.271
		l-0.296-0.188l-0.331-0.086l-0.144-0.44c-0.107-0.33-0.24-0.634-0.396-0.912c0.017-0.501-0.1-1.003-0.337-1.457
		c-0.146-0.418-0.396-0.84-0.816-1.173c-0.452-1.062-1.525-1.53-2.116-1.713l-0.323-0.1h-0.338c-1.172,0-2.229,0.089-3.295,1.183
		l-0.295,0.303l-0.126,0.3l-0.493,0.152c-0.152-0.089-0.32-0.182-0.5-0.271c-0.236-0.34-0.553-0.603-0.939-0.778
		c-0.353-0.417-0.867-0.715-1.555-0.909c-0.054-0.015-0.115-0.032-0.185-0.053l-0.047-0.028c-0.625-0.392-1.173-0.683-2.206-0.764
		c-0.579-1.025-1.448-1.37-1.93-1.56c-0.103-0.041-0.218-0.085-0.349-0.148l-0.215-0.104l-0.232-0.056
		c-1.359-0.33-2.393-0.048-3.038,0.348c-0.064-0.016-0.148-0.038-0.261-0.068c-0.193-0.052-0.404-0.108-0.647-0.162l-0.239-0.053
		h-0.244c-1.294,0-1.851,0.135-2.864,0.542l-0.209,0.096c-0.409,0.215-0.821,0.536-1.27,0.932c-0.1-0.013-0.197-0.026-0.283-0.037
		c-0.754-0.099-1.607-0.21-2.284-0.21c-0.4,0-0.997,0.033-1.561,0.318l-0.337,0.17l-0.262,0.271
		c-0.443,0.459-0.749,0.816-1.015,1.151c-0.171,0.045-0.35,0.095-0.54,0.158c-1.285,0.318-1.844,0.985-2.219,1.688
		c-0.212,0.106-0.493,0.264-0.783,0.51c-0.494,0.384-0.93,0.852-1.323,1.425l-0.767,0.017l-0.488,1.511
		c-0.085,0.264-0.133,0.509-0.16,0.73c-0.44,0.27-0.92,0.697-1.261,1.417l-0.1,0.249c-0.089,0.267-0.146,0.518-0.182,0.751
		c-0.691,0.025-1.335,0.304-1.822,0.791l-0.655,0.654l-0.005,1.192c-0.004,0.187-0.008,0.39-0.003,0.604
		c-0.021,0.003-0.041,0.007-0.062,0.011c-0.211-0.05-0.427-0.076-0.645-0.076c-0.819,0-1.404,0.363-1.697,0.551l-0.667,0.062
		l-0.584,0.643c-0.088,0.097-0.163,0.194-0.23,0.29c-0.282-0.02-0.585,0.004-0.862,0.076l-0.673,0.036v0.068l-0.327-0.002
		c-0.405,0-0.885,0.017-1.377,0.14l-0.498,0.125l-0.394,0.33c-0.395,0.331-0.738,0.713-1.016,1.13h-1.675l-0.649,0.811
		c-0.715,0.134-1.218,0.537-1.523,0.994c-0.141,0.052-0.281,0.113-0.421,0.185c-0.93,0.411-1.379,1.214-1.629,1.666l-0.364,0.258
		l-0.218,0.749c-0.352,1.212,0.186,2.378,0.54,3.149l0.334,0.746l0.531,0.358C342.843,244.696,343.28,244.826,343.578,244.912z
		 M364.878,224.47c-0.032-0.024-0.079-0.06-0.145-0.093c0.108,0.055,0.434,0.163,0.641,0.163l0.333,0.027
		c0.755,0.125,1.286,0.395,1.691,0.727c0.133-0.151,0.265-0.316,0.386-0.517c0.07-0.021,0.138-0.038,0.202-0.055
		c0.415-0.111,1.042-0.279,1.652-0.759l0.227-0.178l0.175-0.23c0.151-0.201,0.285-0.376,0.44-0.562
		c0.375,0.034,0.832,0.094,1.224,0.145c0.753,0.099,1.235,0.159,1.644,0.159l0.947-0.056l0.645-0.609
		c0.22-0.207,0.712-0.672,0.929-0.831c0.322-0.127,0.428-0.151,0.783-0.155c0.081,0.021,0.156,0.041,0.229,0.061
		c0.617,0.166,1.516,0.356,2.628,0.158l0.738-0.146l0.137-0.144c0.039,0.077,0.083,0.147,0.125,0.221
		c0.085-0.135,0.17-0.272,0.249-0.414c0.031-0.153,0.052-0.269,0.066-0.346c0.28-1.549,1.575-1.845,2.203-1.791
		c0.628,0.057,1.805,0.563,1.846,2.07h0.001v0.057c0,0.01,0,0.02,0,0.03v0.067h-1.075l1.022,0.223
		c-0.038,0.21-0.085,0.467-0.165,0.832l-0.058,0.26l-0.123,0.236c-0.118,0.227-0.242,0.434-0.365,0.64
		c0.024,0.015,0.045,0.028,0.07,0.043v1.248h0.986l1.581,0.449c0.017,0.004,0.074,0.024,0.179,0.074
		c0.1-0.328,0.225-0.657,0.416-0.965c0.177-0.382,0.374-0.693,0.487-0.873l1.637,0.921h2.192c0,0.604-0.256,1.006-0.408,1.247
		c-0.077,0.121-0.192,0.304-0.254,0.453l-0.198,0.371c-0.001,0.002-0.001,0.005-0.002,0.007l0.205-0.064
		c0.344-0.104,0.926-0.281,1.43-0.719l1.099,0.605c0.013,0.563,0.154,1.046,0.238,1.334l0.312,1.075l1.049,0.394
		c0.159,0.06,0.292,0.119,0.423,0.176c0.304,0.132,0.671,0.293,1.206,0.45c0.158,0.081,0.33,0.151,0.503,0.22l0.319,0.001
		c0.578,0.041,0.722,0.051,1.032-0.013c0.214-0.167,0.438-0.36,0.698-0.585c0.175-0.15,0.358-0.309,0.559-0.478l0.109-0.085
		c0.242-0.176,0.367-0.3,0.458-0.391c0.972-0.968,1.965-0.701,2.345-0.542c0.373,0.156,1.228,0.654,1.263,1.953l0.001,0.048
		c0,0.017,0,0.034,0,0.051v0.055H400c0.015,0.166,0.064,0.342,0.136,0.519c0.028-0.002,0.065-0.006,0.092-0.008
		c0.167,0.314,0.428,0.699,0.827,1.02c0.059,0.031,0.103,0.074,0.166,0.1c0.31,0.129,0.624,0.172,0.908,0.15l-0.959-1.317
		l1.094,1.304c0.438-0.06,0.817-0.256,1.062-0.495c-0.164,0.164-0.441,0.44-0.897,0.779l-0.156,0.133
		c0.036,0.014,0.078,0.032,0.111,0.045c0.068,0.026,0.138,0.05,0.203,0.077l0.396,0.263c0.084,0.046,0.146,0.098,0.207,0.143
		c0.261,0.191,0.646,0.472,1.234,0.674c0.008,0.007,0.015,0.014,0.021,0.021c0.099,0.097,0.241,0.237,0.342,0.34
		c0.016,0.063,0.031,0.129,0.048,0.197c0.057,0.226,0.122,0.486,0.211,0.757v1.316c-0.012,0.188-0.037,0.346-0.06,0.505
		c-0.031,0.216-0.067,0.466-0.09,0.764c-0.102,0.208-0.217,0.486-0.289,0.847c-0.148,0.233-0.272,0.406-0.41,0.539l-0.421,0.408
		l-0.166,0.562c-0.012,0.039-0.025,0.072-0.045,0.111c0.06-0.018,0.129-0.04,0.172-0.052c-0.063,0.02-0.125,0.054-0.188,0.084
		c-0.036,0.063-0.091,0.148-0.195,0.301c-0.052,0.077-0.109,0.17-0.163,0.253l0.316,1.391l0.716-0.104v-2.066
		c0.006,0,0.012,0,0.018,0l0.152,0.003c1.777,0.084,2.043,1.563,2.068,1.737c0.095,0.648-0.132,1.859-1.58,2.285
		c-0.124,0.037-0.341,0.101-0.645,0.211l-0.243,0.072c-0.541,0.123-1.093,0.185-1.622,0.185c-0.491,0-0.953-0.065-1.38-0.17
		c-0.035,0.049-0.073,0.094-0.107,0.147c-0.676,0.02-1.285,0.068-1.859,0.119l-0.132,0.001c0.045,0.048,0.09,0.089,0.135,0.142
		c0.36,0.282,0.587,0.508,0.706,0.627c-0.137-0.133-0.325-0.255-0.549-0.343l-1.578,1.18l0.961-1.319
		c-0.289-0.021-0.601,0.022-0.911,0.152c-0.782,0.326-1.17,1.049-1.221,1.63h4.044c0,0.011,0,0.021,0,0.032l-0.003,0.123
		c-0.056,1.312-0.893,1.799-1.261,1.953c-0.166,0.069-0.446,0.158-0.79,0.158c-0.449,0-1.006-0.152-1.556-0.701
		c-0.091-0.091-0.215-0.215-0.456-0.392l-0.247-0.18l-0.183-0.244c-0.087-0.116-0.161-0.174-0.614-0.48l-0.637-0.437l-0.153-0.169
		c-0.865-0.952-1.092-1.513-1.396-2.44c-0.228,0.022-0.451,0.042-0.687,0.054c-0.164-0.091-0.328-0.161-0.494-0.223
		c-0.058,0.111-0.118,0.226-0.182,0.369l-0.335,0.753l-0.957,0.382c-0.501,0.199-0.896,0.356-1.189,0.537l-0.312,0.193l-0.36,0.071
		c-0.963,0.191-2.751,0.193-2.769,0.193v-3.968c-0.172-0.029-0.349-0.057-0.553-0.068l-0.062-0.004l-0.946,0.007
		c-0.377,0-0.55-0.014-0.622-0.023l-0.2-0.075l-0.302-0.027c-0.224-0.021-0.382-0.047-0.481-0.067c-0.415-0.375-0.89-0.7-1.417-0.97
		l-0.478-0.244l-1.011,0.003c-0.102-0.07-0.196-0.15-0.296-0.229c-0.344-0.273-0.805-0.639-1.428-0.927
		c-0.057-0.034-0.116-0.069-0.171-0.102c-0.058-0.403-0.217-0.897-0.634-1.343c-0.105-0.113-0.217-0.208-0.33-0.292
		c0.029,0.056,0.061,0.118,0.088,0.17c0.146,0.282,0.265,0.512,0.317,0.622l-3.648,1.76c-0.044-0.092-0.144-0.284-0.266-0.519
		c-0.243-0.47-0.563-1.089-0.76-1.506l-0.184-0.391l-0.004-0.176c-0.204-0.004-0.401-0.012-0.528-0.028
		c-0.618-0.264-1.104-0.444-1.826-0.539l0.359,0.922c-0.071,0.027-0.122,0.069-0.178,0.103c-0.163,0.101-0.328,0.2-0.516,0.292
		l-0.486,0.188c-0.285,0.102-0.762,0.272-0.903,0.355l-0.474,0.278l-0.555,0.003c-0.01,0-0.249,0.004-0.869,0.2l-0.117,0.036
		l-0.408-1.411c-0.454,0.188-1.047,0.473-1.539,1.074c-0.312,0.182-0.532,0.282-0.958,0.416l-0.34,0.106l-0.29,0.207
		c-0.056,0.04-0.112,0.067-0.165,0.096c0.265,0.01,0.589,0.016,0.995,0.014l0.129,0v4.05l-0.11,0c-0.067,0-0.136,0-0.204,0
		c-0.91,0-1.911-0.031-2.681-0.206l-0.307-0.07l-0.088-0.052c-0.015,0.165-0.028,0.334-0.028,0.526v0.096
		c-0.007,0.003-0.013,0.006-0.019,0.009c-0.045,0.021-0.09,0.043-0.135,0.065c-0.018-0.009-0.036-0.018-0.056-0.027l-0.411-0.146
		c-0.036-0.009-0.08-0.017-0.117-0.025c-0.238,0.29-0.537,0.585-0.966,0.86c-0.523,0.382-1.082,0.503-1.463,0.585
		c-0.055,0.012-0.11,0.021-0.162,0.035l-0.306,0.167l-0.441,0.031c-0.654,0.046-1.081,0.087-1.491,0.279l-0.256,0.119l-0.279,0.045
		c-0.299,0.048-0.629,0.064-0.934,0.064c-0.475,0-0.887-0.039-1.02-0.057l0.275-2.006l0.262-2.008
		c0.131,0.015,0.397,0.023,0.594,0.021c0.049-0.019,0.096-0.031,0.145-0.048c-0.116-0.012-0.233-0.023-0.362-0.031l-0.073-0.004
		l-0.074,0c-0.189,0.001-0.422,0.007-0.67,0.024v0.877l-1.186,0.541c-0.321,0.146-0.868,0.479-1.228,0.784l-0.329,0.279
		l-0.415,0.121c-0.171,0.049-0.337,0.105-0.505,0.161c-0.611,0.203-1.365,0.453-2.358,0.525c-0.325,0.058-0.559,0.093-0.701,0.114
		l-0.224-1.095v1.147c-0.001,0-0.003,0-0.005,0c-0.001,0-0.003,0-0.004,0l-0.161-0.004c-1.546-0.078-2.03-1.245-2.078-1.873
		c-0.049-0.65,0.279-1.942,1.871-2.181c0.135-0.02,0.366-0.055,0.692-0.114l0.25-0.03c0.522-0.029,0.929-0.164,1.443-0.334
		c0.084-0.028,0.168-0.056,0.252-0.083c0.062-0.046,0.129-0.091,0.193-0.137c0.156-0.199,0.287-0.408,0.364-0.619
		c0.027-0.074,0.051-0.148,0.071-0.221h0.508c0.053,0,0.107-0.007,0.162-0.012c0.236-0.215,0.538-0.396,0.929-0.514l0.061,0.196
		c0.443-0.267,0.838-0.71,1.03-1.401c0.002-0.007,0.004-0.015,0.007-0.023l0.223,0.001c0.296,0,0.638-0.008,1.002-0.061
		c0.616,0.226,1.719,0.189,2.43-0.451c0.581-0.28,0.966-0.693,1.22-1.056c0.321,0.061,0.707,0.097,1.223-0.071
		c0.318,0.091,0.791,0.138,1.289,0.095l0.532-3.946c0.24,0.032,1.057,0.1,1.768,0.126c0.182-0.108,0.336-0.208,0.494-0.311
		c0.149-0.097,0.303-0.196,0.476-0.303l0.489-0.302h0.575c0.16,0,0.304,0.006,0.448,0.012c0.385-0.647,0.424-1.348,0.239-1.971
		c0.038-0.018,0.077-0.036,0.117-0.056l0.733-0.356l0.331-0.745c0.024-0.055,0.037-0.107,0.058-0.161l-0.04-0.134
		c-0.911-0.124-1.785-0.476-2.241-0.812L364.878,224.47z"/>
	<path d="M402.662,241.317l0.01,0.634c0,0.006,0.001,0.011,0.001,0.018l0.814-0.119l-0.431-1.184
		c-0.023,0.038-0.045,0.067-0.069,0.107L402.662,241.317z"/>
	<path d="M352.35,242.134c-0.443,0.038-0.939,0.134-1.41,0.35l0.26,0.848C351.725,243.167,352.157,242.693,352.35,242.134z"/>
	<path fill="#006800" d="M364.717,228.543l0.04,0.134l0.104,0.347l0.729,0.398c0.227,0.124,0.438,0.215,0.646,0.291
		c0.426-0.194,0.842-0.352,1.224-0.48l0.577-0.177c0.356-0.07,0.79-0.095,1.209-0.118c0.125-0.007,0.238-0.013,0.341-0.021
		l1.292-1.618c-0.122-0.098-0.209-0.182-0.285-0.255c-0.477-0.452-0.999-0.874-2.144-1.082l-0.362-0.033c-0.033,0-0.064,0-0.093,0
		c-0.152-0.23-0.358-0.441-0.597-0.636c-0.405-0.332-0.937-0.601-1.691-0.727l-0.333-0.027c-0.207,0-0.532-0.107-0.641-0.163
		c0.065,0.033,0.112,0.069,0.145,0.093l-2.402,3.261C362.932,228.067,363.806,228.419,364.717,228.543z"/>
	<path fill="#006800" d="M361.303,236.93h0.499l0.442-0.232c0.473-0.249,0.795-0.449,1.11-0.651c0.01,0.005,0.021,0.011,0.031,0.017
		l0.383,0.161c0.381,0.115,0.813,0.169,1.271,0.226c0.221,0.027,0.438,0.049,0.573,0.079l-0.315-1.091
		c0.404-0.128,0.76-0.212,1.095-0.277v-0.447l1.174,0.088c0.138-0.051,0.271-0.109,0.408-0.159l0.14-0.05
		c0.034-0.021,0.066-0.042,0.1-0.062c0.007-0.004,0.019-0.011,0.025-0.015l0.008-1.268c-0.229,0.085-0.437,0.172-0.599,0.275
		l-0.322,0.205l-0.376,0.073c-0.001,0-0.205,0.046-0.619,0.262l-0.294,0.128l-0.614-1.774c-0.134-0.016-0.265-0.031-0.368-0.048
		c-0.6-0.285-1.128-0.379-1.776-0.405c-0.145-0.006-0.288-0.012-0.448-0.012h-0.575l-0.489,0.302
		c-0.173,0.107-0.326,0.206-0.476,0.303c-0.158,0.103-0.312,0.203-0.494,0.311c-0.711-0.026-1.527-0.094-1.768-0.126l-0.532,3.946
		l-0.009,0.067C358.924,236.815,360.313,236.93,361.303,236.93z"/>
	<path fill="#006800" d="M364.457,230.474l0.918,1.805l0.048,0.139l0.614,1.774l0.294-0.128c0.414-0.215,0.618-0.261,0.619-0.262
		l0.376-0.073l0.322-0.205c0.162-0.103,0.37-0.19,0.599-0.275c0.158-0.059,0.321-0.116,0.503-0.177l0.16-0.054
		c0.16-0.018,0.367-0.025,0.563-0.037c0.554-0.031,0.883-0.053,1.207-0.146l-1.111-3.895c0.041-0.012,0.096-0.028,0.164-0.037
		c-0.04,0.005-0.095,0.009-0.146,0.012c-0.103,0.008-0.216,0.014-0.341,0.021c-0.419,0.023-0.853,0.048-1.209,0.118l-0.577,0.177
		c-0.382,0.128-0.798,0.286-1.224,0.48c-0.15,0.069-0.299,0.125-0.451,0.21C365.381,230.041,364.937,230.225,364.457,230.474z"/>
	<path fill="#006800" d="M376.456,236.06c0.029,0.21,0.058,0.42,0.077,0.641c0.019,0.037,0.04,0.079,0.059,0.117
		c0.119,0.062,0.219,0.134,0.349,0.188c0.52,0.371,1.155,0.705,1.933,1.015l0.361,0.145h0.39c0.418,0,0.781,0.037,1.146,0.071
		c0.375,0.035,0.751,0.069,1.229,0.083h0.509v-4.05l-0.442,0.001c-0.325-0.011-0.622-0.04-0.918-0.067
		c-0.329-0.031-0.691-0.064-1.096-0.08c-0.457-0.204-0.71-0.371-0.847-0.482l-0.299-0.243l-0.366-0.116
		c-0.143-0.045-0.376-0.225-0.646-0.433c-0.155-0.12-0.314-0.242-0.484-0.364l-0.25-0.153c-0.304-0.157-0.411-0.223-0.69-0.604
		c-0.193-0.448-0.345-0.917-0.474-1.461l-0.117-0.349c-0.116-0.265-0.183-0.453-0.221-0.561c-0.603-1.696-2.14-1.483-2.312-1.451
		c-0.168,0.029-1.606,0.329-1.682,2.055l-0.004,0.133c0,0.007,0,0.014,0,0.021h2.07l0.114,0.66l-1.729,0.408
		c-0.122-0.149-0.215-0.31-0.274-0.47c0.048,0.136,0.127,0.358,0.256,0.663c0.2,0.806,0.445,1.513,0.767,2.211l0.184,0.32
		c0.419,0.595,0.81,1.051,1.355,1.461h1.987C376.391,235.587,376.419,235.796,376.456,236.06z M373.852,230.81l0.189,1.087
		c-0.66,0.113-1.246-0.099-1.657-0.442L373.852,230.81z"/>
	<path fill="#006800" d="M378.7,223.868c-0.123,0.173-0.267,0.363-0.408,0.552c-0.147,0.195-0.293,0.39-0.422,0.57
		c-0.079,0.088-0.188,0.206-0.226,0.233c-0.009,0.005-0.096,0.058-0.481,0.176l1.189,3.872c1.342-0.412,1.87-0.831,2.617-1.673
		l0.141-0.178c0.124-0.176,0.271-0.372,0.42-0.569c0.225-0.298,0.449-0.6,0.621-0.855l0.176-0.319
		c0.092-0.21,0.137-0.283,0.139-0.283c0,0,0,0,0,0.002l0.655-0.217l0.387-0.572c0.188-0.279,0.396-0.605,0.602-0.951
		c0.123-0.207,0.247-0.413,0.365-0.64l0.123-0.236l0.058-0.26c0.08-0.365,0.127-0.622,0.165-0.832l-1.022-0.223h1.075v-0.067
		c0-0.01,0-0.02,0-0.03v-0.057h-0.001c-0.041-1.506-1.218-2.013-1.846-2.07c-0.628-0.055-1.923,0.242-2.203,1.791
		c-0.015,0.078-0.035,0.193-0.066,0.346c-0.079,0.142-0.164,0.279-0.249,0.414c-0.016,0.026-0.031,0.054-0.048,0.08
		C379.418,222.456,378.943,223.337,378.7,223.868z"/>
	<path fill="#006800" d="M386.59,227.335c0,0.781,0,1.752,0.295,2.553l0.131,0.358l0.459,0.526c0.502,0.598,0.974,1.09,2.087,1.534
		c0.001,0,0.001,0,0.002,0l2.022-3.455l-0.934-0.756c-0.01-0.204-0.012-0.435-0.012-0.616l0.006-0.042
		c0.032-0.225,0.09-0.626,0.149-0.805c0.001-0.002,0.001-0.005,0.002-0.007l0.198-0.371c0.062-0.149,0.177-0.332,0.254-0.453
		c0.152-0.241,0.408-0.643,0.408-1.247h-2.192l-1.637-0.921c-0.113,0.179-0.311,0.49-0.487,0.873
		c-0.191,0.309-0.316,0.638-0.416,0.965c-0.15,0.495-0.23,0.986-0.289,1.396L386.59,227.335z"/>
	<path fill="#006800" d="M395.911,234.149h1.455c0.351,0.024,0.623,0.041,0.878,0.041c0.494,0,0.92-0.062,1.705-0.252l0.363-0.087
		l0.309-0.212c0.489-0.337,0.9-0.692,1.336-1.068l0.315-0.27l0.156-0.133c0.456-0.339,0.733-0.616,0.897-0.779
		c-0.245,0.239-0.625,0.436-1.062,0.495l-1.094-1.304l0.959,1.317c-0.284,0.022-0.599-0.021-0.908-0.15
		c-0.063-0.026-0.107-0.069-0.166-0.1c-0.455-0.246-0.763-0.62-0.919-1.012c-0.071-0.176-0.121-0.353-0.136-0.519h4.044v-0.055
		c0-0.017,0-0.034,0-0.051l-0.001-0.048c-0.035-1.299-0.89-1.797-1.263-1.953c-0.38-0.158-1.373-0.426-2.345,0.542
		c-0.091,0.091-0.216,0.215-0.458,0.391l-0.109,0.085c-0.2,0.168-0.384,0.327-0.559,0.478c-0.261,0.226-0.484,0.418-0.698,0.585
		c-0.311,0.064-0.454,0.054-1.032,0.013l-0.319-0.001l-1.349-0.004V234.149z"/>
	<path fill="#006800" d="M402.045,240.098l-0.079-0.04c-0.383-0.191-0.685-0.343-0.847-0.515l-0.437-0.361
		c-0.224-0.168-0.5-0.359-0.958-0.499l-0.926,3.039l-0.631,0.593c0.042,0.046,0.086,0.09,0.129,0.133
		c-0.023-0.013-0.042-0.025-0.053-0.033c0.025,0.02,0.053,0.04,0.083,0.062c0.614,0.595,1.282,0.929,1.827,1.202l0.597,0.268
		c0.076,0.023,0.163,0.033,0.242,0.052c0.427,0.105,0.889,0.17,1.38,0.17c0.529,0,1.081-0.062,1.622-0.185l0.243-0.072
		c0.304-0.11,0.521-0.174,0.645-0.211c1.448-0.426,1.675-1.637,1.58-2.285c-0.025-0.173-0.291-1.652-2.068-1.737l-0.152-0.003
		c-0.006,0-0.012,0-0.018,0v2.066l-0.716,0.104l-0.316-1.391l-0.064-0.282c0.132-0.117,0.276-0.203,0.423-0.272
		c0.062-0.03,0.124-0.064,0.188-0.084c-0.043,0.013-0.112,0.034-0.172,0.052c-0.148,0.045-0.328,0.101-0.574,0.188
		C402.608,240.132,402.253,240.129,402.045,240.098z M403.488,241.85l-0.814,0.119L402.455,242c-0.095-0.65,0.134-1.234,0.489-1.642
		l0.112,0.308L403.488,241.85z"/>
	<path fill="#006800" d="M397.638,243.248l-0.212-0.145c-0.186-0.214-0.231-0.32-0.381-0.775c-0.017-0.108-0.035-0.217-0.054-0.325
		c-0.021-0.121-0.049-0.238-0.053-0.35c0.001,0.002,0.007,0.255-0.185,0.545l-3.381-2.229c-0.67,1.016-0.483,2.088-0.372,2.729
		c0.019,0.106,0.039,0.214,0.052,0.321l0.102,0.441c0.012,0.035,0.021,0.065,0.032,0.099c0.304,0.927,0.53,1.488,1.396,2.44
		l0.153,0.169l0.637,0.437c0.453,0.306,0.527,0.365,0.614,0.48l0.183,0.244l0.247,0.18c0.241,0.176,0.365,0.301,0.456,0.392
		c0.55,0.549,1.106,0.701,1.556,0.701c0.344,0,0.624-0.089,0.79-0.158c0.368-0.153,1.205-0.641,1.261-1.953l0.003-0.123
		c0-0.011,0-0.021,0-0.032h-4.044c0.051-0.582,0.438-1.304,1.221-1.63c0.311-0.13,0.622-0.172,0.911-0.152l-0.961,1.319l1.578-1.18
		c0.224,0.088,0.412,0.21,0.549,0.343c-0.119-0.119-0.346-0.345-0.706-0.627c-0.045-0.052-0.09-0.094-0.135-0.142
		C398.49,243.832,398.074,243.542,397.638,243.248z"/>
	<path fill="#006800" d="M392.677,240.954l-4.049-0.051c-0.003,0.181-0.003,0.202-0.126,0.442c-0.303,0.125-0.6,0.258-0.895,0.415
		c-0.472,0.048-1.257,0.078-1.705,0.078v0.082v3.968c0.018,0,1.806-0.002,2.769-0.193l0.36-0.071l0.312-0.193
		c0.293-0.181,0.688-0.338,1.189-0.537l0.957-0.382l0.335-0.753c0.063-0.143,0.124-0.258,0.182-0.369
		c0.011-0.021,0.023-0.049,0.034-0.069C392.318,242.786,392.662,242.12,392.677,240.954z"/>
	<path fill="#006800" d="M376.533,236.701c-0.02-0.221-0.048-0.431-0.077-0.641c-0.037-0.264-0.065-0.472-0.065-0.69h-1.987h-2.063
		c0,0.5,0.059,0.916,0.105,1.25c0.028,0.205,0.061,0.409,0.065,0.645l0.005,0.255l0.004,0.176l0.184,0.391
		c0.196,0.417,0.517,1.036,0.76,1.506c0.122,0.235,0.222,0.427,0.266,0.519l3.648-1.76c-0.053-0.109-0.172-0.34-0.317-0.622
		c-0.027-0.052-0.059-0.114-0.088-0.17c-0.124-0.24-0.256-0.495-0.38-0.742C376.573,236.779,376.552,236.738,376.533,236.701z"/>
	<path fill="#006800" d="M359.143,242.497c-0.072-0.076-0.144-0.153-0.221-0.223l-1.64-1.488l-0.178-0.018l-0.111-0.062
		c-0.009,0.016-0.018,0.033-0.027,0.049l-0.068-0.007c-0.025,0.088-0.05,0.176-0.072,0.269c-0.028,0.053-0.055,0.105-0.081,0.156
		c-0.058,0.113-0.099,0.217-0.225,0.342c-0.036,0.008-0.074,0.015-0.111,0.023c-0.188,0.041-0.419,0.09-0.668,0.176
		c-0.593,0.047-1.314,0.142-2.091,0.423c-0.049,0.018-0.096,0.029-0.145,0.048c-0.196,0.003-0.463-0.005-0.594-0.021l-0.262,2.008
		l-0.275,2.006c0.133,0.018,0.545,0.057,1.02,0.057c0.305,0,0.635-0.016,0.934-0.064l0.279-0.045l0.256-0.119
		c0.41-0.191,0.837-0.233,1.491-0.279l0.441-0.031l0.306-0.167c0.052-0.014,0.107-0.023,0.162-0.035
		c0.381-0.083,0.939-0.203,1.463-0.585c0.429-0.275,0.728-0.57,0.966-0.86c0.196-0.239,0.351-0.469,0.472-0.687
		C359.72,243.08,359.383,242.749,359.143,242.497z"/>
	<path fill="#006800" d="M362.069,239.696c-0.139-0.146-0.278-0.289-0.424-0.421l-1.221,1.345h-0.013l0.111-1.862
		c-0.057-0.004-0.134-0.008-0.239-0.008h-5.244l2.243,2.036l1.64,1.488c0.077,0.069,0.148,0.146,0.221,0.223
		c0.24,0.251,0.577,0.583,1.021,0.868c0.041,0.026,0.068,0.056,0.111,0.082l0.183,0.108l0.088,0.052l0.307,0.07
		c0.77,0.175,1.771,0.206,2.681,0.206c0.068,0,0.137,0,0.204,0l0.11,0v-4.05l-0.129,0c-0.406,0.002-0.73-0.004-0.995-0.014
		c-0.233-0.008-0.422-0.02-0.569-0.034C362.124,239.754,362.095,239.724,362.069,239.696z"/>
	<path fill="#006800" d="M368.24,234.517c-0.007,0.004-0.019,0.011-0.025,0.015c-0.033,0.02-0.065,0.042-0.1,0.062l-0.14,0.05
		c-0.138,0.049-0.271,0.108-0.408,0.159c-0.239,0.088-0.481,0.172-0.707,0.275c-0.146,0.018-0.309,0.053-0.467,0.083
		c-0.335,0.065-0.69,0.149-1.095,0.277l0.315,1.091l0.401,1.389l0.408,1.411l0.117-0.036c0.62-0.196,0.859-0.2,0.869-0.2
		l0.555-0.003l0.474-0.278c0.142-0.083,0.618-0.253,0.903-0.355l0.486-0.188c0.188-0.092,0.353-0.191,0.516-0.292
		c0.056-0.034,0.106-0.076,0.178-0.103l-0.359-0.922l-1.113-2.852C368.693,234.24,368.434,234.397,368.24,234.517z"/>
	<path fill="#006800" d="M352.455,241.39c0.02,0.253-0.023,0.506-0.105,0.745c-0.192,0.559-0.625,1.033-1.15,1.197l-0.26-0.848
		l-0.866-2.829l-0.061-0.196c-0.391,0.118-0.692,0.299-0.929,0.514c-0.107,0.098-0.205,0.2-0.284,0.31
		c-0.281,0.166-0.559,0.352-0.821,0.542c-0.064,0.046-0.132,0.091-0.193,0.137c-0.084,0.027-0.168,0.055-0.252,0.083
		c-0.515,0.171-0.921,0.305-1.443,0.334l-0.25,0.03c-0.326,0.06-0.558,0.094-0.692,0.114c-1.592,0.239-1.92,1.531-1.871,2.181
		c0.048,0.627,0.532,1.795,2.078,1.873l0.161,0.004c0.001,0,0.003,0,0.004,0c0.002,0,0.004,0,0.005,0v-1.147l0.224,1.095
		c0.143-0.021,0.376-0.057,0.701-0.114c0.993-0.073,1.747-0.323,2.358-0.525c0.168-0.056,0.334-0.111,0.505-0.161l0.415-0.121
		l0.329-0.279c0.359-0.304,0.906-0.638,1.228-0.784l1.186-0.541v-0.877v-0.425C352.47,241.571,352.462,241.473,352.455,241.39z"/>
	<path fill="#006800" d="M387.958,237.061c0.125,0.037,0.341,0.1,0.671,0.22c0.696,0.243,1.317,0.355,1.866,0.455l0.397,0.073
		c0.13,0.029,0.234,0.061,0.335,0.09c0.404,0.119,0.798,0.222,1.379,0.255c0.404,0.167,0.502,0.239,0.921,0.546l0.185,0.135
		l0.21,0.091c0.812,0.351,1.466,0.475,2.499,0.475h0.481l0.431-0.217c0.178-0.09,0.671-0.275,1.371-0.488l0.296-0.088l0.257-0.175
		c0.538-0.292,0.889-0.703,1.103-1.292l-2.39-0.868l-0.439-1.452c-0.083,0.025-0.164,0.05-0.244,0.075
		c0.013-0.007,0.024-0.014,0.037-0.021c-0.013,0.007-0.026,0.014-0.04,0.022c-0.495,0.155-0.918,0.303-1.263,0.443
		c-0.136-0.011-0.224-0.029-0.308-0.057c-0.668-0.478-1.032-0.665-1.939-1.024l-0.359-0.143h-0.387
		c-0.311,0-0.392-0.024-0.657-0.102c-0.18-0.053-0.369-0.107-0.645-0.168l-0.507-0.095c-0.461-0.084-0.859-0.156-1.23-0.285
		c-0.417-0.152-0.714-0.24-0.945-0.308l-0.426,1.229v-1.353h-0.069c-0.013,0-0.023,0-0.036,0h-0.064v0.001
		c-1.771,0.051-2.044,1.563-2.069,1.739C386.353,234.954,386.176,236.535,387.958,237.061z M396.996,235.115l0.729,1.07
		l-1.173-0.426C396.624,235.562,396.781,235.317,396.996,235.115z"/>
	<path d="M373.99,281.294c-0.041,0.281-0.081,0.577-0.121,0.875c-0.102,0.745-0.205,1.515-0.336,2.082l-0.107,0.208
		c-0.319,0.616-0.853,1.647-1.217,2.02l-0.13,0.133l-0.012,0.186c-0.017,0.27-0.051,0.498-0.081,0.705
		c-0.078,0.53-0.152,1.03,0.11,1.684c0.082,0.222,0.127,0.464,0.161,0.713c0.066,0.495,0.063,1.032,0.055,1.595l-0.006,0.576v0.002
		l0.03,0.172c0.231,0.634,0.223,1.392,0.214,2.194l-0.004,0.474h1l0.004-0.462c0.009-0.779,0.011-1.58-0.209-2.324
		c-0.014-0.045-0.02-0.092-0.034-0.136l0.005-0.479c0.015-0.901,0.03-1.833-0.282-2.683c-0.167-0.416-0.125-0.703-0.055-1.179
		c0.004-0.028,0.008-0.064,0.012-0.094c0.023-0.161,0.048-0.327,0.064-0.52c0.049-0.059,0.1-0.137,0.149-0.204
		c0.393-0.533,0.799-1.307,1.112-1.913l0.136-0.261l0.043-0.115c0.148-0.62,0.26-1.443,0.368-2.239
		c0.039-0.294,0.079-0.586,0.118-0.854c0.064-0.389,0.102-0.81,0.138-1.235c0.059-0.692,0.12-1.408,0.319-1.951l0.03-0.172
		c0-0.338,0.017-0.652,0.04-0.962c0.025-0.343,0.06-0.679,0.097-1.022c0.032-0.299,0.064-0.601,0.091-0.913
		c0.095-0.16,0.158-0.34,0.22-0.52c0.201-0.589,0.256-1.256,0.267-1.914c0.002-0.16,0.006-0.321,0.006-0.478
		c0.04-0.108,0.068-0.223,0.103-0.333c0.184-0.592,0.302-1.219,0.35-1.943c0.018-0.276,0.027-0.564,0.027-0.871v-3.496h-1v3.496
		c0,1.177-0.138,2.065-0.447,2.88l-0.032,0.178c0,0.923,0,1.969-0.396,2.562l-0.072,0.108l-0.01,0.13
		c-0.027,0.347-0.063,0.678-0.099,1.006c-0.067,0.628-0.137,1.275-0.143,2.006c-0.221,0.649-0.284,1.398-0.346,2.124
		C374.085,280.527,374.052,280.922,373.99,281.294z"/>
	<path d="M377.582,281.141c-0.015,1.173-0.224,1.553-0.88,2.577l-0.075,0.204c-0.066,0.507-0.151,1.004-0.236,1.501
		c-0.084,0.499-0.169,0.997-0.237,1.504c-0.285,0.822-0.271,1.733-0.256,2.614l0.006,0.562l0.015,0.118
		c0.142,0.583,0.325,0.952,0.497,1.27c0.02,0.037,0.041,0.077,0.061,0.113c0.173,0.316,0.31,0.566,0.387,0.902
		c0,0.674,0.075,1.072,0.288,1.523l0.904-0.426c-0.13-0.277-0.192-0.512-0.202-1.196c-0.117-0.584-0.312-0.939-0.499-1.283
		c-0.103-0.188-0.2-0.374-0.291-0.6c-0.057-0.142-0.111-0.296-0.16-0.486l-0.005-0.514c-0.014-0.847-0.027-1.646,0.215-2.309
		l0.026-0.107c0.066-0.512,0.152-1.016,0.238-1.519c0.081-0.474,0.161-0.946,0.227-1.428c0.695-1.091,0.961-1.665,0.975-3.076
		c-0.045-0.368-0.084-0.759-0.122-1.151c-0.062-0.652-0.113-1.329-0.113-2.064l-0.001-4.83c-0.039-0.842-0.267-1.991-0.402-2.678
		c-0.037-0.19-0.068-0.344-0.084-0.439l-0.986,0.164c0.018,0.103,0.049,0.266,0.09,0.47c0.13,0.659,0.349,1.763,0.384,2.507v1.511
		v3.296C377.343,279.104,377.463,280.195,377.582,281.141z"/>
	<path d="M378.742,285.772l-0.139,0.161c-0.432,0.798-0.729,1.586-0.78,2.839l-0.011,0.287l0.164,0.105l0.078,0.05
		c0.257,0.164,0.57,0.534,0.876,0.896c0.006,0.007,0.013,0.015,0.019,0.021c0.292,0.347,0.592,0.703,0.902,0.957
		c0.204,0.368,0.405,0.617,0.568,0.82c0.27,0.334,0.433,0.535,0.528,1.115l0.16,0.207c-0.007,0.02-0.04,0.071-0.062,0.105
		c-0.134,0.206-0.195,0.396-0.195,0.564c0,0.176,0.067,0.328,0.199,0.447c-0.027,0.049-0.054,0.105-0.078,0.17l0.98,0.282
		c0.317-0.326,0.198-0.631,0.009-0.897c-0.017-0.022-0.029-0.047-0.046-0.069c0.123-0.197,0.354-0.639-0.006-1.113
		c-0.146-0.74-0.421-1.08-0.71-1.439c-0.166-0.206-0.338-0.419-0.515-0.755l-0.144-0.167c-0.25-0.188-0.544-0.535-0.827-0.872
		c-0.283-0.336-0.574-0.681-0.876-0.934c0.066-0.871,0.279-1.451,0.597-2.054c0.297-0.244,0.487-0.535,0.637-0.854
		c0.223-0.472,0.338-1.017,0.431-1.663c-0.007-0.562-0.066-1.055-0.123-1.532c-0.06-0.501-0.116-0.975-0.116-1.521l-0.03-0.172
		c-0.1-0.272-0.218-0.976-0.21-2.777v-0.109h-1v0.105c-0.004,0.971,0.018,2.321,0.24,3.036c0.006,0.57,0.065,1.071,0.123,1.556
		c0.052,0.432,0.098,0.84,0.114,1.234c0.002,0.037,0.007,0.075,0.008,0.112C379.357,284.933,379.216,285.416,378.742,285.772z"/>
	<polygon fill="#FFD100" points="381.268,190.688 379.843,193.127 382.878,193.223 384.615,195.76 386.352,193.223 389.388,193.127 
		387.965,190.688 389.388,188.247 386.352,188.151 384.615,185.615 382.877,188.151 379.843,188.247 	"/>
	<path d="M374.676,185.594l2.973,5.094l-2.973,5.094l0.178,0.304l-0.178,0.005l6.52,0.206l3.42,4.995l3.42-4.995l6.696-0.211
		l-3.149-5.398l3.149-5.397l-6.696-0.212l-3.42-4.993l-3.42,4.993l-6.52,0.207l0.178,0.006L374.676,185.594z M384.615,185.615
		l1.736,2.536l3.036,0.096l-1.423,2.44l1.423,2.44l-3.036,0.096l-1.736,2.537l-1.737-2.537l-3.035-0.096l1.425-2.44l-1.425-2.44
		l3.034-0.096L384.615,185.615z"/>
	<polygon fill="#FFD100" points="361.389,190.688 359.966,193.127 363.001,193.223 364.739,195.76 366.475,193.223 369.51,193.127 
		368.087,190.688 369.51,188.247 366.475,188.151 364.739,185.615 363,188.151 359.966,188.247 	"/>
	<path d="M361.319,196.296l3.42,4.995l3.42-4.995l6.518-0.206l0.178-0.005l-0.178-0.304l-2.972-5.094l2.972-5.094l0.178-0.304
		l-0.178-0.006l-6.518-0.207l-3.42-4.993l-3.42,4.993l-6.696,0.212l3.149,5.397l-2.739,4.694l0.573,0.734L361.319,196.296z
		 M364.739,185.615l1.736,2.536l3.035,0.096l-1.423,2.44l1.423,2.44l-3.035,0.096l-1.736,2.537l-1.737-2.537l-3.035-0.096
		l1.423-2.44l-1.423-2.44l3.034-0.096L364.739,185.615z"/>
	<polygon fill="#FFD100" points="341.41,192.254 343.149,194.479 342.069,197.102 345.132,196.835 347.212,199.142 348.573,196.426 
		351.533,195.978 349.795,193.752 350.874,191.13 347.81,191.397 345.731,189.09 344.37,191.806 	"/>
	<path d="M343.853,200.083l4.104,4.551l2.685-5.36l6.645-1.006l-1.68-2.152l-0.573-0.734l-1.655-2.121l2.341-5.689l-6.629,0.577
		l-4.103-4.551l-2.685,5.36l-6.646,1.007l3.91,5.006l-2.256,5.482l0.215,0.181L343.853,200.083z M347.81,191.397l3.064-0.267
		l-1.079,2.622l1.738,2.226l-2.961,0.448l-1.36,2.716l-2.08-2.307l-3.063,0.267l1.08-2.622l-1.738-2.226l2.96-0.448l1.36-2.715
		L347.81,191.397z"/>
	<polygon fill="#FFD100" points="401.171,193.263 399.433,195.488 402.394,195.937 403.753,198.652 405.833,196.345 
		408.898,196.612 407.818,193.99 409.556,191.764 406.596,191.316 405.236,188.601 403.156,190.907 400.092,190.641 	"/>
	<path d="M393.681,197.778l6.645,1.006l2.684,5.36l4.104-4.551l6.629,0.577l-2.342-5.689l3.91-5.007l-6.646-1.006l-2.685-5.36
		l-4.104,4.551l-6.628-0.577l2.341,5.689L393.681,197.778z M405.236,188.601l1.36,2.715l2.96,0.448l-1.738,2.226l1.08,2.622
		l-3.064-0.267l-2.08,2.307l-1.359-2.715l-2.961-0.448l1.738-2.226l-1.079-2.622l3.063,0.267L405.236,188.601z"/>
	<polygon fill="#FFD100" points="419.044,200.532 416.869,202.36 419.628,203.34 420.34,206.226 422.874,204.375 425.878,205.229 
		425.403,202.398 427.577,200.57 424.819,199.59 424.107,196.704 421.573,198.555 418.57,197.701 	"/>
	<path d="M415.667,199.289l-4.983,4.19l6.313,2.244l1.425,5.776l5.063-3.701l6.293,1.79l-0.999-5.945l4.983-4.19l-6.313-2.244
		l-1.425-5.776l-5.064,3.701l-6.291-1.789L415.667,199.289z M424.107,196.704l0.712,2.886l2.759,0.98l-2.175,1.829l0.476,2.83
		l-3.004-0.854l-2.534,1.851l-0.712-2.885l-2.759-0.98l2.175-1.829l-0.475-2.831l3.004,0.854L424.107,196.704z"/>
	<polygon fill="#FFD100" points="325.026,201.419 324.55,204.249 327.553,203.395 330.087,205.246 330.799,202.361 333.558,201.38 
		331.384,199.552 331.859,196.721 328.854,197.576 326.322,195.724 325.609,198.61 322.85,199.59 	"/>
	<path d="M320.65,208.607l6.292-1.79l5.065,3.701l1.423-5.776l6.313-2.244l-2.218-1.865l-0.215-0.181l-2.55-2.144l0.998-5.945
		l-6.292,1.789l-5.063-3.7l-1.426,5.775l-6.313,2.244l4.984,4.19L320.65,208.607z M326.322,195.724l2.532,1.852l3.005-0.854
		l-0.475,2.831l2.174,1.829l-2.759,0.981l-0.712,2.885l-2.534-1.851l-3.003,0.854l0.476-2.83l-2.176-1.829l2.759-0.98
		L326.322,195.724z"/>
</g>
</svg>
