<?xml version="1.0" encoding="utf-8"?>
<!-- Generator: Adobe Illustrator 16.0.0, SVG Export Plug-In . SVG Version: 6.00 Build 0)  -->
<svg version="1.2" baseProfile="tiny"
	 id="svg611" xmlns:cc="http://creativecommons.org/ns#" xmlns:dc="http://purl.org/dc/elements/1.1/" xmlns:rdf="http://www.w3.org/1999/02/22-rdf-syntax-ns#"
	 xmlns="http://www.w3.org/2000/svg" xmlns:xlink="http://www.w3.org/1999/xlink" x="0px" y="0px" width="512px" height="512px"
	 viewBox="0 0 512 512" xml:space="preserve">
<g>
	<rect x="284.445" fill="#0061F3" width="227.556" height="56.889"/>
	<rect x="284.445" y="56.889" fill="#FFFFFF" width="227.556" height="56.889"/>
	<rect x="284.445" y="113.778" fill="#0061F3" width="227.556" height="56.889"/>
	<rect x="284.445" y="170.667" fill="#FFFFFF" width="227.556" height="56.889"/>
	<rect x="284.445" y="227.556" fill="#0061F3" width="227.556" height="56.889"/>
	<polygon fill="#FFFFFF" points="512,284.445 284.445,284.445 170.667,284.445 113.778,284.445 0,284.445 0,341.334 512,341.334 	
		"/>
	<rect x="0" y="341.334" fill="#0061F3" width="512" height="56.889"/>
	<rect x="0" y="398.223" fill="#FFFFFF" width="512" height="56.89"/>
	<rect x="0" y="455.112" fill="#0061F3" width="512" height="56.889"/>
	<polygon fill="#0061F3" points="170.667,113.778 284.445,113.778 284.445,56.889 284.445,0 170.667,0 	"/>
	<polygon fill="#0061F3" points="113.778,0 0,0 0,56.889 0,113.778 113.778,113.778 	"/>
	<polygon fill="#0061F3" points="284.445,170.667 170.667,170.667 170.667,284.445 284.445,284.445 284.445,227.556 	"/>
	<polygon fill="#0061F3" points="113.778,170.667 0,170.667 0,227.556 0,284.445 113.778,284.445 	"/>
	<rect x="113.778" fill="#FFFFFF" width="56.89" height="113.778"/>
	<rect x="113.778" y="170.667" fill="#FFFFFF" width="56.89" height="113.778"/>
	<polygon fill="#FFFFFF" points="170.667,170.667 284.445,170.667 284.445,113.778 170.667,113.778 113.778,113.778 0,113.778 
		0,170.667 113.778,170.667 	"/>
</g>
</svg>
