<?xml version="1.0" encoding="utf-8"?>
<!-- Generator: Adobe Illustrator 16.0.0, SVG Export Plug-In . SVG Version: 6.00 Build 0)  -->
<svg version="1.2" baseProfile="tiny"
	 id="svg603" xmlns:cc="http://creativecommons.org/ns#" xmlns:dc="http://purl.org/dc/elements/1.1/" xmlns:rdf="http://www.w3.org/1999/02/22-rdf-syntax-ns#"
	 xmlns="http://www.w3.org/2000/svg" xmlns:xlink="http://www.w3.org/1999/xlink" x="0px" y="0px" width="512px" height="512px"
	 viewBox="0 0 512 512" xml:space="preserve">
<g id="flag">
	<g id="g1399" transform="matrix(.64506 0 0 1.0321 0 -.0000092033)">
		<rect id="rect606" x="0" y="0" fill="#0066FF" width="793.729" height="496.07"/>
		<rect id="rect607" x="264.58" y="0" fill="#FFFFFF" width="264.58" height="496.08"/>
	</g>
	<g id="g1400" transform="matrix(1.0321 0 0 1.032 -124.87 .75881)">
		<path id="path998" fill="none" stroke="#000000" stroke-width="0.5" d="M366.43,306.237c1.76-1.831,11.128-4.691,17.787-5.264
			c5.756-0.454,9.468-4.237,12.878-4.612c9.856-9.909,22.741-13.696,31.167-32.989c1.602-5.791,2.741-12.841,2.912-19.586
			c-3.18-22.53-5.238-21.922-9.985-36.818"/>
		<path id="path999" fill="#0C5C1D" d="M384.07,303.154c0.172,1.663,5.25,7.793,14.02,6.716c-0.783-1.692-2.689-2.907-5.422-5.453
			C391.417,303.127,384.007,302.368,384.07,303.154z"/>
		<path id="path1000" fill="#0C5C1D" d="M394.51,301.412c-1.02,0.089-1.927,0.695-0.185,2.227
			c2.941,2.471,13.486,4.744,15.076,1.607c-4.668-0.629-7.781-1.619-8.26-1.6C398.973,302.935,396.178,301.255,394.51,301.412
			L394.51,301.412z"/>
		<path id="path1001" fill="#0C5C1D" d="M389.25,300.657c2.127-1.463,3.774-1.342,5.151-1.631c3.524-0.244,5.934,0.24,7.409,0.85
			c2.183,0.941,5.363,3.293,5.766,5.002c-3.242-0.061-5.389-2.506-9.562-3.433C395.885,301.261,391.95,300.987,389.25,300.657
			L389.25,300.657z"/>
		<path id="path1002" fill="#0C5C1D" d="M383.62,300.018c6.147-3.783,11.975-10.718,12.573-17.966
			C388.516,288.059,383.311,296.734,383.62,300.018z"/>
		<path id="path1003" fill="#0C5C1D" d="M387.09,299.948c5.197-2.256,12.24-7.306,13.094-17.811
			C393.053,286.626,390.772,293.263,387.09,299.948z"/>
		<path id="path1004" fill="#0C5C1D" d="M398.06,294.884c-0.401-2.965,6.719-18.458,10.873-22.446
			C409.387,278.403,403.587,295.152,398.06,294.884z"/>
		<path id="path1005" fill="#0C5C1D" d="M397.84,295.479c1.082,4.594,12.833,5.787,16.627,0.4
			C409.743,295.091,403.903,294.633,397.84,295.479z"/>
		<path id="path1006" fill="#0C5C1D" d="M403.006,292.324c4.807,3.028,16.523,0.907,23.352-4.506
			C416.159,284.745,403.532,290.605,403.006,292.324z"/>
		<path id="path1008" fill="#0C5C1D" d="M412.27,285.7c0.763-3.339,10.649-9.934,17.027-9.569c-4.051,5.498-5.44,4.557-7.55,6.997
			C420.305,284.937,415.273,286.266,412.27,285.7L412.27,285.7z"/>
		<path id="path1010" fill="#0C5C1D" d="M415.523,278.113c-3.501-1.327-2.719-11.425-0.378-15.546
			C417.515,268.13,418.148,276.798,415.523,278.113z"/>
		<path id="path1011" fill="#0C5C1D" d="M420.35,274.383c-4.658-2.591-2.979-15.262-0.497-18.815
			C421.799,259.352,422.82,272.541,420.35,274.383z"/>
		<path id="path1012" fill="#0C5C1D" d="M422.134,274.27c2.697-4.246,12.09-4.43,16.214-2.789
			C433.866,275.868,426.964,276.088,422.134,274.27z"/>
		<path id="path1015" fill="#0C5C1D" d="M424.909,271.542c-3.88-6.069-1.47-9.285,0.898-16.797
			C426.954,261.124,426.03,267.857,424.909,271.542z"/>
		<path id="path1016" fill="#0C5C1D" d="M429.829,258.084c0.668-5.625,5.764-8.282,11.557-10.216
			C440.183,252.011,437.683,256.492,429.829,258.084z"/>
		<path id="path1017" fill="#0C5C1D" d="M428.444,261.154c-6.063-1.039-6.347-6.823-6.218-12.481
			C423.955,251.789,428.102,255.802,428.444,261.154z"/>
		<path id="path1018" fill="#0C5C1D" d="M426.904,251.348c1.435-3.514-1.085-13.02-7.277-16.522
			C419.725,240.646,423.688,247.879,426.904,251.348z"/>
		<path id="path1020" fill="#0C5C1D" d="M430.34,249.301c0.888-2.097,1.463-3.162,2.802-5.833c2.324-4.878,0.823-3.244,3.962-9.146
			C438.798,240.91,435.405,248.773,430.34,249.301z"/>
		<path id="path1022" fill="#0C5C1D" d="M430.75,231.654c-4.196,2.302-8.452,0.81-14.278-3.857
			C421.279,227.363,425.592,229.674,430.75,231.654z"/>
		<path id="path1023" fill="#0C5C1D" d="M429.593,229.314c2.51-8.336,3.986-9.756,6.046-18.804
			C430.488,214.68,427.839,223.717,429.593,229.314z"/>
		<path id="path1024" fill="#0C5C1D" d="M428.648,228.76c-5.653-4.104-6.982-8.764-13.487-10.464
			C415.298,220.626,424.652,230.354,428.648,228.76z"/>
		<path id="path1025" fill="#0C5C1D" d="M427.188,223.049c-3.609-4.491-5.601-8.157-10.946-11.403
			C417.097,217.126,423.08,225.086,427.188,223.049z"/>
		<path id="path1026" fill="#0C5C1D" d="M420.345,213.033c1.146-6.267-6.614-10.425-9.306-13.639
			C410.735,204.93,415.581,211.446,420.345,213.033z"/>
		<path id="path1027" fill="#0C5C1D" d="M420.298,205.82c1.8-5.646-3.259-9.472-5.777-12.352
			C414.922,198.977,415.757,204.662,420.298,205.82z"/>
		<path id="path1028" fill="#0C5C1D" d="M427.626,217.033c2.227-3.638,0.959-11.986-0.482-15.501
			C425.345,203.458,424.485,216.375,427.626,217.033z"/>
		<path id="path1029" fill="#0C5C1D" d="M424.176,209.633c2.525-4.462,1.109-9.229-0.373-12.739
			C422.169,202.105,420.986,207.119,424.176,209.633z"/>
		<path id="path1063" fill="#0C5C1D" d="M429.322,244.983c3.745-0.48,6.396-8.291,3.818-15.276
			C430.741,235.923,430.745,238.882,429.322,244.983z"/>
		<path id="path1062" fill="#0C5C1D" d="M428.364,231.153c4.662,0.238,7.599-3.791,10.068-10.834
			C434.596,222.783,432.707,229.296,428.364,231.153z"/>
		<path id="path1019" fill="#0C5C1D" d="M431.513,246.896c-4.263,1.021-9.068-10.145-5.77-16.437
			C429.361,237.671,430.179,240.695,431.513,246.896z"/>
		<path id="path1013" fill="#0C5C1D" d="M426.973,263.268c0.586-4.263,9.732-5.347,14.324-4.412
			C437.623,261.809,430.149,263.635,426.973,263.268z"/>
		<path id="path1014" fill="#0C5C1D" d="M424.805,270.034c2.597-2.267,6.707,0.179,13.297-12.675
			C429.237,262.416,425.831,268.305,424.805,270.034z"/>
		<path id="path609" fill="none" stroke="#000000" stroke-width="0.5" d="M372.78,306.24c-1.412-2.005-8.867-4.168-15.527-4.743
			c-5.755,0.242-11.032-1.107-15.833-3.567c-9.857-9.909-20.828-16.48-29.254-35.773c-1.602-5.789-2.568-11.102-2.739-17.846
			c3.18-22.53,3.499-24.704,12.246-39.6"/>
		<path id="path612" fill="#0C5C1D" d="M351.62,303.29c-0.172,1.662-5.988,6.809-14.021,6.715c0.784-1.692,8.683-3.503,10.833-6.56
			C349.069,302.525,351.683,302.504,351.62,303.29L351.62,303.29z"/>
		<path id="path619" fill="#0C5C1D" d="M345.722,300.933c1.011-0.17,1.558,0.326-0.185,1.858c-2.941,2.472-7.953,3.638-15.322,4.927
			c2.455-2.475,8.396-4.57,8.875-4.553C341.259,302.455,343.808,301.268,345.722,300.933z"/>
		<path id="path627" fill="#0C5C1D" d="M350,300.67c-0.774-1.709-1.56-2.572-2.937-2.862c-3.524-0.244-6.303,0.363-7.409,0.85
			c-1.199,0.695-4.994,3.17-5.397,4.879c2.872-0.799,4.774-2.999,8.947-3.556C345.21,299.305,348.038,299.401,350,300.67L350,300.67
			z"/>
		<path id="path576" fill="#0C5C1D" d="M357.848,298.801c-6.147-3.783-10.008-8.628-10.606-15.876
			C354.919,288.933,358.157,295.517,357.848,298.801z"/>
		<path id="path575" fill="#0C5C1D" d="M354.01,299.84c-5.813-2.5-7.937-7.182-11.988-14.859
			C349.277,288.607,352.296,292.418,354.01,299.84z"/>
		<path id="path580" fill="#0C5C1D" d="M340.95,297.23c1.261-5.179-0.941-12.801-4.725-16.543
			C335.894,286.527,337.021,296.268,340.95,297.23z"/>
		<path id="path581" fill="#0C5C1D" d="M338.95,295.86c-1.081,4.595-13.079,4.681-16.627,0.401
			C325.94,297.072,333.871,297.228,338.95,295.86z"/>
		<path id="path583" fill="#0C5C1D" d="M335.758,292.213c-3.7,2.782-18.613-1.798-18.802-4.383
			C318.917,287.584,335.232,290.494,335.758,292.213z"/>
		<path id="path584" fill="#0C5C1D" d="M334.68,291.249c2.162-4.27-3.784-17.783-6.162-17.676
			C329.923,283.682,332.464,288.277,334.68,291.249z"/>
		<path id="path585" fill="#0C5C1D" d="M330.79,287.68c-1.378-3.215-11.757-8.703-17.027-9.568c4.297,4.514,7.061,3.88,8.534,6.75
			C323.37,286.794,328.033,287.139,330.79,287.68z"/>
		<path id="path586" fill="#0C5C1D" d="M328.84,285.25c1.081-4.054,0.54-5.676-2.109-8.595
			C326.461,280.925,327.002,282.6,328.84,285.25z"/>
		<path id="path587" fill="#0C5C1D" d="M324.95,280.723c2.918-1.913,1.134-11.698-1.46-14.433
			C322.95,273.343,322.247,279.574,324.95,280.723z"/>
		<path id="path588" fill="#0C5C1D" d="M319.76,273.41c5.027-1.73,1.134-11.081-0.487-14.756
			C317.327,262.437,320.733,264.437,319.76,273.41z"/>
		<path id="path589" fill="#0C5C1D" d="M318.841,274.03c-4.173-4-11.598-4.307-15.722-2.666
			C308.092,273.045,315.731,274.126,318.841,274.03z"/>
		<path id="path590" fill="#0C5C1D" d="M314.463,265.11c-1.091-4.163-10.302-4.145-14.749-2.666
			C303.714,264.936,311.353,265.855,314.463,265.11z"/>
		<path id="path591" fill="#0C5C1D" d="M317.364,271.644c-2.597-2.268-6.707,0.178-13.297-12.676
			C312.933,264.025,316.339,269.914,317.364,271.644z"/>
		<path id="path593" fill="#0C5C1D" d="M316.31,271.799c3.88-6.068,1.47-9.283-0.899-16.796
			C314.266,261.383,315.19,268.115,316.31,271.799z"/>
		<path id="path594" fill="#0C5C1D" d="M310.401,257.974c-1.16-5.502-6.378-8.282-11.678-8.986
			C300.17,251.777,304.145,252.816,310.401,257.974z"/>
		<path id="path595" fill="#0C5C1D" d="M311.308,260.772c6.127-0.557,6.866-6.301,7.184-11.952
			C316.522,251.791,312.072,255.465,311.308,260.772z"/>
		<path id="path597" fill="#0C5C1D" d="M311.251,253.544c3.574,0.36,8.036-7.41,6.443-13.656
			C314.779,246.806,314.518,249.234,311.251,253.544z"/>
		<path id="path598" fill="#0C5C1D" d="M309.731,246.937c3.769-0.226,6.941-7.84,4.84-14.984
			C312.828,238.559,313.622,241.456,309.731,246.937z"/>
		<path id="path599" fill="#0C5C1D" d="M309.069,250.349c-0.907-2.205-2.632-2.912-3.439-5.788
			c-1.463-5.145-4.247-5.956-3.822-9.978C308.285,242.124,309.996,246.631,309.069,250.349z"/>
		<path id="path600" fill="#0C5C1D" d="M309.392,244.706c-1.626-14.578,1.263-8.375-5.052-22.118
			C313.745,231.012,311.147,244.137,309.392,244.706z"/>
		<path id="path601" fill="#0C5C1D" d="M309.823,238.539c-0.314-4.657,3.666-7.659,10.669-10.243
			C318.091,232.173,311.61,234.167,309.823,238.539z"/>
		<path id="path602" fill="#0C5C1D" d="M311.496,227.854c-2.509-8.336-3.985-9.756-6.046-18.804
			C310.602,213.22,313.251,222.257,311.496,227.854z"/>
		<path id="path603" fill="#0C5C1D" d="M313.802,227.539c5.653-4.104,6.982-8.764,13.487-10.464
			C327.152,219.406,317.798,229.134,313.802,227.539z"/>
		<path id="path604" fill="#0C5C1D" d="M313.418,223.68c3.609-4.491,5.6-8.157,10.946-11.403
			C323.509,217.755,317.525,225.716,313.418,223.68z"/>
		<path id="path605" fill="#0C5C1D" d="M321.648,209.589c0.184-6.368,8.64-8.82,11.941-11.403
			C332.733,203.666,326.639,209.03,321.648,209.589z"/>
		<path id="path606" fill="#0C5C1D" d="M320.961,205.213c-1.124-5.819,4.349-9.024,7.188-11.588
			C327.103,199.049,325.607,204.596,320.961,205.213z"/>
		<path id="path607" fill="#0C5C1D" d="M313.475,214.585c-2.228-3.638-0.96-11.986,0.481-15.501
			C315.755,201.01,316.615,213.927,313.475,214.585z"/>
		<path id="path608" fill="#0C5C1D" d="M317.362,209.438c-1.858-4.778,0.228-9.292,2.198-12.554
			C320.429,202.275,320.88,207.407,317.362,209.438z"/>
		<path id="path1073" fill="#6F8593" d="M347.32,288.35c16.942-16.571,31.673-30.935,55.244-45.741
			c-38.155,29.72-36.976,32.041-53.034,46.957C348.867,289.012,347.983,288.903,347.32,288.35z"/>
		<path id="path1066" fill="#6A0D06" d="M317.17,292.26l6.312,6.936l19.13-29.043l8.051-8.554l-1.949-2.835l-12.363,12.086
			l-1.422,2.833L317.17,292.26L317.17,292.26z"/>
		<path id="path1069" fill="#6A0D06" d="M421.59,292.702l-8.08,7.157l-18.025-29.264l-10.482-11.426l2.833-1.953l13.91,14.075
			l1.422,2.833L421.59,292.702L421.59,292.702z"/>
		<path id="path1071" fill="#BBCDCD" d="M395.47,274.99c0.167-1.049,1.545-3.092-1.548-5.856c0.075-1.472,1.583-3.002,2.763-3.756
			c0.994,0,3.866,2.005,5.138,4.253c0.718,1.566,1.086,3.996,0.166,5.857c-0.682,1.031-1.473,2.228-2.32,2.706
			c-0.405,0.294-1.308,0.203-2.044-0.111C396.464,277.494,395.58,275.8,395.47,274.99L395.47,274.99z"/>
		<path id="path1068" d="M356.81,223.295l-14.106-14.237l-0.845,0.034l-0.293,0.94l-0.453,1.307l-1.671,1.571l-22.033-20.663
			l20.72,22.601l0.978,0.011l3.023-3.146l1.273,0.296l10.389,12.167L356.81,223.295L356.81,223.295z"/>
		<path id="path1110" d="M375.22,308.148c25.814-41.923,48.3-70.815,7.108-107.86c-1.541-1.551-6.862-6.463-10.195-7.521
			c-0.464-3.001,1.81-7.74-4-8.132c-2.471,0.131-3.691,1.014-3.641,3.245c0.005,1.734,0.921,2.493,0.448,4.044
			c-0.174,0.775-2.099,2.543-1.981,4.798c0.748,4.804,2.604,5.98,3.167,6.664c1.008,1.002,1.61,1.708,4.57,2.93
			c0.328,0.394,1.203,1.129,1.651,1.623c5.44,1.164,10.398,0.57,13.912,2.322c1.532,0.472,3.988,3.072,4.788,4.374
			c9.925,10.882,14.219,28.345-0.957,46.782c3.04,0.249,10.316-12.207,11.979-22.785c-2.326,15.777-7.471,21.287-10.021,26.002
			c5.098-3.396,9.201-15.355,10.155-17.812c-4.042,21.768-24.973,48.646-38.142,54.29c11.92-2.765,19.917-14.644,24.158-18.899
			c-4.13,8.517-12.625,20.572-12.999,25.94V308.148z"/>
		<path id="path1075" fill="#6F8593" d="M392.96,289.455c-16.501-16.683-42.832-41.873-55.908-44.636
			c20.367,13.148,38.302,30.826,53.697,45.851C391.413,290.118,392.297,290.008,392.96,289.455L392.96,289.455z"/>
		<path id="path1265" d="M382.628,224.405l15.518-15.345l0.845,0.034l0.292,0.94l0.453,1.307l1.671,1.571l22.033-20.663
			l-20.72,22.601l-0.978,0.011l-3.023-3.146l-1.273,0.296l-13.211,14.636L382.628,224.405L382.628,224.405z"/>
		<path id="path1076" fill="#E3CF6E" d="M341.58,218.74c0.811-4.42,2.172-7.624,6.74-8.397c11.969-0.516,23.055-0.59,35.576-0.332
			c3.572,2.836-0.147,8.655-3.867,8.95c5.709,9.869,13.517,17.419,14.586,29.057c0.368,6.115-1.785,10.078-3.948,12.279
			c-16.454,0.4-24.426,2.449-38.18,3.514c-3.842,0.462-6.731-4.007-6.694-7.727c0.022-3.845,1.603-6.851,5.875-7.384
			c1.327-0.144,3.173-0.056,4.829-0.019C353.292,239.106,340.918,227.763,341.58,218.74L341.58,218.74z"/>
		<path id="path1114" fill="#336446" d="M363.185,195.188c-1.419,4.56,2.149,8.476,2.712,9.16c1.008,1.002,1.665,1.819,4.626,3.041
			c0.327,0.394,4.563,2.809,5.17,3.381c4.505,1.181,6.898-0.843,12.028,0.416C386.4,207.927,372.695,194.557,363.185,195.188
			L363.185,195.188z"/>
		<path id="path1113" fill="#402E08" d="M363.3,197.26c-1.38,2.255,2.265,7.655,2.828,8.339c1.008,1.002,1.665,1.819,4.626,3.041
			c0.327,0.394,1.795,1.136,2.01,1.395l3.88,0.71C375.324,207.485,367.827,196.207,363.3,197.26L363.3,197.26z"/>
		<path id="path1141" d="M364.763,189.551l-0.922,0.671l1.342,0.671L364.763,189.551z"/>
		<path id="path1112" fill="#8C361D" d="M362.95,198.84c0.747,4.804,2.537,6.111,3.14,6.758c0.968,1.039,1.704,1.702,4.665,3.041
			c1.187,0.98,1.639,1.254,2.558,1.747l3.135,0.466C375.127,207.592,367.311,200.165,362.95,198.84L362.95,198.84z"/>
		<path id="path1070" fill="#BBCDCD" d="M342.68,274.6c-0.166-1.05-1.545-3.093,1.548-5.857c-0.074-1.473-1.583-3.001-2.763-3.756
			c-0.993,0-3.866,2.006-5.137,4.253c-0.719,1.566-1.087,3.996-0.166,5.856c0.681,1.031,1.472,2.228,2.319,2.708
			c0.405,0.293,1.309,0.202,2.045-0.112C341.686,277.104,342.57,275.41,342.68,274.6L342.68,274.6z"/>
		<path id="path1072" fill="#D4BE72" d="M344.89,289.9c-1.4,1.621-6.886,4.788-7.956,5.857c-0.884,1.177,1.216,2.799,2.541,2.983
			c2.357-1.768,4.714-4.2,6.849-5.634c2.98-2.752,2.783-2.978,7.625-1.548c-0.7-2.578-5.598-4.603-8.396-5.191
			c-4.716,0.515-6.888,2.466-7.846,5.191C340.838,289.202,342.975,288.058,344.89,289.9z"/>
		<path id="path1132" fill="#FFFFFF" d="M396.28,274.922c0.088-0.504,0.372-0.776,0.379-1.766c1.033,1.486,1.526,2.241,2.869,4.128
			c-0.484,0.647-1.182,0.342-1.839,0.028C397.075,276.92,396.195,275.654,396.28,274.922L396.28,274.922z"/>
		<path id="path1130" fill="#FFFFFF" d="M342.01,274.59c-0.088-0.504-0.371-0.776-0.378-1.767c-1.033,1.487-1.526,2.243-2.87,4.13
			c0.484,0.645,1.183,0.341,1.84,0.028C341.215,276.588,342.095,275.322,342.01,274.59L342.01,274.59z"/>
		<path id="path1074" fill="#D4BE72" d="M394.4,291.005c1.399,1.62,6.885,4.788,7.955,5.857c0.884,1.178-1.215,2.799-2.541,2.984
			c-2.357-1.769-4.714-4.2-6.849-5.634c-2.441-2.933-3.5-2.799-7.625-1.548c0.7-2.578,5.599-4.603,8.397-5.192
			c4.715,0.516,6.888,2.467,7.845,5.192C398.452,290.306,396.315,289.164,394.4,291.005z"/>
		<path id="path1140" d="M356.42,248.72c1.171,1.681,2.148,5.39,2.305,7.773c0.208,4.609-4.467,6.953-6.057,6.758
			c-3.019-0.365-5.495-2.643-5.741-6.172c0.481-4.114,2.213-6.394,5.078-6.563c1.875,0.326,3.984,2.566,3.984,5.275
			c-0.052,2.24-0.69,4.479-2.071,4.531c-3.359-0.26-3.164-2.2-3.711-3.242c-0.143-0.768-0.263-2.847,0.118-3.359
			c0.501-0.622,2.812-1.445,3.944,0.156c1.224,1.249-1.809-0.663-3.007,0.194c-0.612,0.872-0.208,2.292-0.039,2.852
			c0.209,0.56,0.184,2.409,2.5,2.305c0.847-0.129,1.146-1.863,1.211-3.555c0.132-1.158-1.497-3.489-3.125-3.984
			c-1.133-0.183-3.906,2.135-3.789,5.391c0.222,3.698,3.255,4.974,4.883,4.726c1.653-0.442,5.104-1.744,4.961-5.429
			c-0.365-4.062-1.121-5.743-2.423-7.696C355.95,248.68,355.912,248.68,356.42,248.72L356.42,248.72z"/>
		<path id="path1139" d="M380.64,220.01l-0.704-1.133H364.78c-4.297,0.391-10.841,1.042-13.093,2.018
			c-5.768,2.839-7.339-2.174-7.652-3.424c-0.335-1.146,0.381-3.216,1.502-3.945c0.443-0.847,2.919-1.774,4.416-1.214
			c1.693,0.716,2.429,2.853,2.159,4.299c-0.508,2.149-4.575,3.476-3.128,1.289c0.182-0.961,0.914-3.633-0.376-5.547l-1.18,0.234
			c1.64,3.415,0.135,5.109,0.057,6.085c-0.077,1.641,1.326,1.498,2.412,1.456c0.742-0.039,1.994-0.978,2.502-1.486
			c0.611-0.533,0.705-1.567,0.78-2.772c0.192-3.18-2.721-5.443-4.686-5.157c-5.976,1.485-6.12,6.471-4.766,9.062
			c0.755,1.302,1.627,2.097,3.086,2.852c1.224,0.365,3.075,0.156,4.531-0.391c2.883-1.035,7.554-1.953,13.376-2.096L380.64,220.01
			L380.64,220.01z"/>
	</g>
	<g id="g738" transform="matrix(.48956 0 .24749 .44057 -70.058 -5.2697)">
		<path id="path668" fill="#8C361D" d="M391.661,546.98l0.238,2.137l-0.209,0.023c-0.179-0.479-0.357-0.817-0.533-1.013
			c-0.173-0.202-0.401-0.351-0.681-0.449c-0.153-0.053-0.417-0.06-0.784-0.019l-0.588,0.066l0.681,6.091
			c0.044,0.402,0.093,0.653,0.148,0.749c0.058,0.095,0.155,0.175,0.292,0.238c0.14,0.059,0.32,0.076,0.547,0.05l0.262-0.029
			l0.024,0.216l-4.135,0.462l-0.022-0.216l0.26-0.029c0.231-0.027,0.409-0.088,0.54-0.184c0.095-0.066,0.165-0.168,0.208-0.306
			c0.032-0.099,0.027-0.346-0.018-0.741l-0.679-6.091l-0.571,0.064c-0.532,0.059-0.907,0.215-1.124,0.467
			c-0.302,0.352-0.465,0.825-0.489,1.416l-0.222,0.025l-0.238-2.138L391.661,546.98L391.661,546.98z"/>
		<path id="path671" fill="#8C361D" d="M370.872,549.77l0.358,3.214l0.158-0.017c0.499-0.057,0.846-0.254,1.034-0.594
			c0.191-0.339,0.282-0.819,0.277-1.44l0.222-0.024l0.459,4.134l-0.22,0.024c-0.096-0.444-0.237-0.802-0.421-1.073
			c-0.18-0.27-0.374-0.444-0.582-0.519c-0.21-0.079-0.503-0.098-0.88-0.055l0.249,2.225c0.048,0.434,0.096,0.698,0.141,0.791
			c0.051,0.093,0.128,0.165,0.236,0.216c0.108,0.05,0.276,0.062,0.5,0.038l0.472-0.053c0.74-0.082,1.31-0.318,1.714-0.71
			c0.409-0.39,0.67-0.946,0.787-1.667l0.215-0.023l-0.076,2.549l-6.824,0.761l-0.024-0.216l0.264-0.029
			c0.228-0.024,0.409-0.086,0.538-0.184c0.095-0.065,0.162-0.167,0.202-0.305c0.031-0.098,0.027-0.345-0.018-0.741l-0.58-5.193
			c-0.039-0.357-0.074-0.576-0.102-0.655c-0.055-0.132-0.138-0.228-0.252-0.292c-0.159-0.092-0.368-0.124-0.623-0.094l-0.262,0.029
			l-0.025-0.215l6.609-0.738l0.26,2.334l-0.22,0.024c-0.177-0.557-0.382-0.949-0.615-1.175c-0.229-0.226-0.538-0.377-0.923-0.451
			c-0.225-0.044-0.637-0.034-1.235,0.032L370.872,549.77L370.872,549.77z"/>
		<path id="path675" fill="#8C361D" d="M360.201,558.27l0.024,0.216l-4.128,0.46l-0.025-0.215l0.262-0.03
			c0.23-0.026,0.409-0.086,0.54-0.184c0.095-0.065,0.162-0.166,0.202-0.305c0.032-0.099,0.025-0.345-0.019-0.74l-0.579-5.196
			c-0.046-0.402-0.095-0.653-0.15-0.749c-0.054-0.095-0.151-0.174-0.291-0.233c-0.137-0.064-0.315-0.083-0.537-0.059l-0.262,0.03
			l-0.023-0.215l4.127-0.461l0.025,0.215l-0.262,0.029c-0.23,0.026-0.409,0.088-0.54,0.184c-0.095,0.066-0.163,0.168-0.207,0.307
			c-0.033,0.098-0.027,0.346,0.017,0.74l0.582,5.195c0.045,0.405,0.094,0.654,0.148,0.749c0.059,0.096,0.156,0.176,0.292,0.239
			c0.14,0.059,0.321,0.075,0.543,0.051L360.201,558.27L360.201,558.27z"/>
		<path id="path676" fill="#8C361D" d="M355.121,556.25l0.014,2.805l-7.012,0.782l-0.023-0.215l0.262-0.03
			c0.228-0.024,0.408-0.085,0.54-0.184c0.093-0.065,0.162-0.166,0.2-0.305c0.031-0.098,0.027-0.345-0.017-0.74l-0.582-5.195
			c-0.045-0.403-0.094-0.654-0.147-0.75c-0.056-0.095-0.151-0.174-0.292-0.232c-0.137-0.065-0.316-0.084-0.537-0.059l-0.262,0.029
			l-0.025-0.215l4.211-0.47l0.023,0.215l-0.344,0.038c-0.227,0.027-0.407,0.088-0.538,0.184c-0.095,0.066-0.165,0.168-0.209,0.307
			c-0.031,0.098-0.025,0.345,0.02,0.741l0.561,5.029c0.044,0.406,0.095,0.661,0.156,0.768c0.058,0.103,0.159,0.174,0.301,0.214
			c0.101,0.024,0.337,0.016,0.711-0.026l0.658-0.074c0.419-0.047,0.759-0.16,1.023-0.338c0.264-0.178,0.479-0.439,0.644-0.78
			c0.17-0.34,0.311-0.831,0.426-1.474L355.121,556.25z"/>
		<path id="path724" fill="#8C361D" d="M401.739,553.849l-0.023-0.215l0.26-0.03c0.23-0.024,0.401-0.08,0.513-0.163
			c0.116-0.088,0.197-0.196,0.239-0.327c0.027-0.085,0.018-0.331-0.029-0.74l-0.58-5.193c-0.045-0.403-0.094-0.654-0.147-0.75
			c-0.056-0.095-0.151-0.174-0.292-0.232c-0.137-0.065-0.316-0.084-0.539-0.059l-0.26,0.029l-0.025-0.215l3.535-0.395
			c0.943-0.105,1.717-0.062,2.32,0.13c0.738,0.237,1.322,0.652,1.754,1.249c0.435,0.595,0.7,1.294,0.79,2.099
			c0.061,0.554,0.03,1.077-0.096,1.567c-0.128,0.485-0.316,0.898-0.565,1.237c-0.248,0.334-0.55,0.615-0.901,0.842
			c-0.351,0.224-0.785,0.417-1.311,0.577c-0.23,0.072-0.601,0.139-1.11,0.195l-3.532,0.393H401.739z M403.919,546.066l0.687,6.161
			c0.037,0.326,0.074,0.524,0.114,0.595c0.039,0.07,0.097,0.12,0.175,0.151c0.112,0.047,0.266,0.058,0.464,0.037
			c0.649-0.072,1.117-0.348,1.411-0.829c0.401-0.651,0.53-1.605,0.387-2.862c-0.112-1.014-0.363-1.804-0.748-2.376
			c-0.306-0.444-0.664-0.73-1.081-0.857C405.035,545.996,404.565,545.99,403.919,546.066z"/>
		<path id="path727" fill="#8C361D" d="M397.68,552.03l-2.791,0.311l-0.246,0.807c-0.079,0.267-0.11,0.485-0.092,0.652
			c0.024,0.222,0.132,0.375,0.323,0.459c0.111,0.052,0.376,0.07,0.791,0.053l0.024,0.216l-2.628,0.294l-0.023-0.215
			c0.277-0.075,0.499-0.217,0.659-0.428c0.163-0.215,0.342-0.637,0.542-1.27l2.121-6.614l0.11-0.013l3.57,6.157
			c0.342,0.583,0.606,0.944,0.801,1.084c0.144,0.105,0.338,0.155,0.582,0.147l0.024,0.216l-3.82,0.427l-0.024-0.216l0.157-0.018
			c0.309-0.034,0.518-0.101,0.633-0.199c0.078-0.071,0.109-0.165,0.097-0.283c-0.007-0.07-0.027-0.141-0.059-0.211
			c-0.011-0.034-0.086-0.174-0.222-0.418L397.68,552.03L397.68,552.03z M397.434,551.622l-1.48-2.589l-0.909,2.855L397.434,551.622
			L397.434,551.622z"/>
		<path id="path730" fill="#8C361D" d="M379.17,552.73l0.248,2.212c0.048,0.427,0.102,0.695,0.165,0.801
			c0.066,0.102,0.171,0.18,0.308,0.232c0.14,0.051,0.391,0.055,0.753,0.014l0.022,0.216l-4.041,0.452l-0.024-0.216
			c0.366-0.041,0.608-0.101,0.728-0.181c0.125-0.085,0.205-0.185,0.245-0.299c0.042-0.114,0.039-0.386-0.008-0.812l-0.573-5.125
			c-0.047-0.428-0.105-0.692-0.171-0.794c-0.063-0.109-0.165-0.187-0.302-0.238c-0.14-0.051-0.39-0.057-0.752-0.017l-0.026-0.214
			l3.67-0.41c0.956-0.108,1.66-0.12,2.119-0.037c0.455,0.082,0.847,0.286,1.165,0.612c0.317,0.324,0.504,0.723,0.559,1.199
			c0.064,0.583-0.091,1.087-0.469,1.515c-0.24,0.27-0.596,0.493-1.063,0.667l2.197,2.462c0.289,0.317,0.489,0.512,0.603,0.586
			c0.172,0.102,0.364,0.147,0.575,0.136l0.022,0.216l-2.486,0.277l-2.944-3.315L379.17,552.73L379.17,552.73z M378.736,548.857
			l0.388,3.459l0.332-0.037c0.539-0.06,0.938-0.154,1.196-0.282c0.255-0.13,0.445-0.332,0.569-0.605
			c0.126-0.277,0.165-0.623,0.119-1.04c-0.067-0.602-0.259-1.03-0.575-1.286c-0.309-0.256-0.778-0.35-1.404-0.28L378.736,548.857
			L378.736,548.857z"/>
		<path id="path734" fill="#8C361D" d="M365.331,553.68c0.768,0.091,1.317,0.244,1.648,0.458c0.474,0.306,0.743,0.739,0.806,1.302
			c0.067,0.593-0.117,1.112-0.552,1.553c-0.534,0.536-1.359,0.866-2.478,0.991l-4.012,0.448l-0.023-0.215
			c0.364-0.041,0.606-0.102,0.728-0.182c0.123-0.085,0.205-0.184,0.242-0.298c0.042-0.115,0.04-0.387-0.008-0.813l-0.573-5.125
			c-0.048-0.427-0.105-0.692-0.169-0.794c-0.065-0.108-0.165-0.186-0.305-0.237c-0.14-0.051-0.39-0.058-0.749-0.018l-0.025-0.215
			l3.784-0.421c0.905-0.102,1.555-0.093,1.95,0.029c0.394,0.116,0.718,0.325,0.97,0.622c0.254,0.295,0.4,0.622,0.44,0.984
			c0.042,0.379-0.056,0.735-0.299,1.065C366.464,553.138,366.005,553.427,365.331,553.68L365.331,553.68z M363.192,553.758
			c0.551-0.061,0.949-0.168,1.196-0.321c0.249-0.154,0.432-0.35,0.549-0.592c0.114-0.242,0.151-0.536,0.113-0.885
			c-0.038-0.35-0.142-0.627-0.305-0.833c-0.162-0.208-0.378-0.358-0.646-0.446c-0.269-0.088-0.687-0.098-1.253-0.031
			L363.192,553.758L363.192,553.758z M363.243,554.214l0.284,2.532l0.026,0.293c0.024,0.208,0.094,0.362,0.211,0.459
			c0.12,0.093,0.285,0.127,0.496,0.104c0.309-0.035,0.586-0.134,0.831-0.299c0.249-0.168,0.43-0.392,0.539-0.667
			c0.109-0.279,0.148-0.581,0.112-0.903c-0.041-0.368-0.163-0.688-0.367-0.962c-0.202-0.276-0.46-0.454-0.773-0.538
			C364.289,554.15,363.836,554.143,363.243,554.214L363.243,554.214z"/>
	</g>
	<g id="g747" transform="matrix(.48956 0 .23063 .44057 -54.48 -6.0761)">
		<path id="path677" fill="#8C361D" d="M375.172,561.36l0.359,3.214l0.157-0.017c0.501-0.057,0.846-0.254,1.036-0.594
			c0.19-0.339,0.28-0.819,0.275-1.44l0.221-0.024l0.462,4.134l-0.221,0.024c-0.098-0.444-0.238-0.802-0.42-1.073
			c-0.18-0.27-0.374-0.443-0.583-0.519c-0.21-0.079-0.503-0.098-0.878-0.055l0.246,2.225c0.049,0.434,0.098,0.698,0.142,0.791
			c0.05,0.093,0.13,0.165,0.237,0.216c0.108,0.05,0.274,0.062,0.499,0.038l0.472-0.053c0.737-0.082,1.309-0.318,1.715-0.709
			c0.408-0.391,0.67-0.948,0.786-1.668l0.214-0.023l-0.074,2.549l-6.826,0.761l-0.024-0.215l0.263-0.03
			c0.229-0.024,0.408-0.086,0.537-0.184c0.097-0.065,0.165-0.167,0.203-0.305c0.032-0.098,0.025-0.345-0.018-0.741l-0.581-5.193
			c-0.039-0.357-0.072-0.576-0.102-0.655c-0.054-0.132-0.136-0.228-0.25-0.291c-0.16-0.092-0.366-0.124-0.624-0.094l-0.263,0.029
			l-0.024-0.215l6.611-0.738l0.26,2.335l-0.222,0.023c-0.176-0.557-0.381-0.949-0.613-1.175c-0.231-0.226-0.537-0.376-0.925-0.451
			c-0.224-0.044-0.636-0.034-1.234,0.032L375.172,561.36L375.172,561.36z"/>
		<path id="path680" fill="#8C361D" d="M356.131,563.03l3.698-0.413l-0.419,1.567l-3.11,0.348l-0.21,0.819
			c1.345-0.099,2.413,0.12,3.206,0.656c0.649,0.443,1.019,1.043,1.102,1.799c0.054,0.487-0.032,0.977-0.253,1.473
			c-0.224,0.493-0.572,0.893-1.045,1.203c-0.474,0.304-1.009,0.49-1.607,0.556c-0.644,0.072-1.155,0.008-1.524-0.194
			c-0.261-0.144-0.403-0.326-0.427-0.542c-0.019-0.167,0.026-0.323,0.137-0.464c0.113-0.142,0.253-0.223,0.422-0.243
			c0.151-0.017,0.308-0.002,0.471,0.042c0.16,0.045,0.445,0.178,0.851,0.4c0.254,0.137,0.472,0.226,0.649,0.27
			c0.126,0.033,0.264,0.041,0.415,0.024c0.318-0.037,0.577-0.183,0.772-0.44c0.197-0.258,0.281-0.551,0.245-0.877
			c-0.079-0.684-0.482-1.2-1.212-1.551c-0.73-0.351-1.616-0.469-2.657-0.351c-0.105,0.011-0.262,0.031-0.471,0.057L356.131,563.03
			L356.131,563.03z"/>
		<path id="path681" fill="#8C361D" d="M352.221,563.3l0.72,6.458c0.055,0.484,0.111,0.792,0.169,0.923
			c0.058,0.127,0.157,0.226,0.303,0.296c0.146,0.071,0.369,0.09,0.666,0.057l0.181-0.021l0.024,0.216l-4.158,0.464l-0.024-0.215
			l0.211-0.024c0.338-0.037,0.573-0.103,0.709-0.197c0.136-0.093,0.219-0.211,0.255-0.351c0.035-0.143,0.026-0.461-0.031-0.959
			l-0.457-4.094c-0.04-0.365-0.083-0.59-0.129-0.675c-0.043-0.09-0.118-0.16-0.222-0.211c-0.101-0.057-0.213-0.076-0.337-0.063
			c-0.198,0.023-0.431,0.111-0.702,0.267l-0.128-0.198l2.758-1.65L352.221,563.3L352.221,563.3z"/>
		<path id="path737" fill="#8C361D" d="M364.299,570.11l-0.022-0.215l0.261-0.03c0.229-0.026,0.399-0.08,0.512-0.163
			c0.115-0.088,0.197-0.197,0.242-0.327c0.025-0.086,0.015-0.332-0.03-0.74l-0.581-5.193c-0.045-0.405-0.093-0.654-0.147-0.75
			c-0.054-0.096-0.151-0.174-0.292-0.232c-0.137-0.065-0.315-0.084-0.536-0.06l-0.263,0.03l-0.024-0.215l3.535-0.395
			c0.944-0.106,1.719-0.062,2.321,0.13c0.739,0.235,1.323,0.652,1.754,1.248c0.436,0.595,0.7,1.296,0.79,2.099
			c0.062,0.555,0.029,1.078-0.096,1.568c-0.127,0.485-0.315,0.897-0.564,1.236c-0.249,0.335-0.551,0.615-0.902,0.843
			c-0.348,0.223-0.784,0.416-1.309,0.577c-0.231,0.072-0.601,0.137-1.111,0.194L364.299,570.11z M366.478,562.326l0.688,6.161
			c0.036,0.326,0.074,0.524,0.113,0.595c0.041,0.07,0.099,0.12,0.176,0.151c0.112,0.045,0.266,0.058,0.466,0.035
			c0.648-0.072,1.117-0.348,1.41-0.83c0.399-0.648,0.528-1.603,0.388-2.859c-0.113-1.014-0.362-1.805-0.75-2.376
			c-0.305-0.444-0.665-0.731-1.081-0.857C367.598,562.256,367.127,562.25,366.478,562.326z"/>
	</g>
	<g id="g752" transform="matrix(.48956 0 .25230 .44057 -76.383 -4.9472)">
		<path id="path682" fill="#8C361D" d="M423.231,568.07l0.359,3.213l0.158-0.017c0.501-0.055,0.845-0.254,1.036-0.594
			c0.191-0.339,0.282-0.819,0.275-1.44l0.222-0.024l0.461,4.134l-0.221,0.026c-0.097-0.446-0.238-0.803-0.421-1.073
			c-0.181-0.272-0.373-0.444-0.584-0.52c-0.209-0.079-0.502-0.098-0.879-0.055l0.249,2.225c0.047,0.434,0.097,0.698,0.143,0.791
			c0.048,0.093,0.126,0.165,0.236,0.216c0.106,0.05,0.273,0.063,0.499,0.038l0.472-0.053c0.736-0.082,1.307-0.318,1.712-0.709
			c0.409-0.391,0.67-0.948,0.787-1.667l0.214-0.024l-0.075,2.549l-6.824,0.762l-0.024-0.216l0.263-0.03
			c0.228-0.024,0.408-0.086,0.54-0.184c0.096-0.065,0.161-0.166,0.201-0.305c0.032-0.098,0.026-0.345-0.017-0.74l-0.58-5.195
			c-0.04-0.357-0.075-0.575-0.103-0.655c-0.054-0.132-0.138-0.228-0.251-0.29c-0.158-0.092-0.367-0.124-0.623-0.095l-0.26,0.029
			l-0.025-0.215l6.61-0.738l0.259,2.334l-0.221,0.026c-0.177-0.559-0.38-0.95-0.615-1.175c-0.229-0.226-0.537-0.378-0.922-0.451
			c-0.226-0.045-0.636-0.035-1.235,0.031L423.231,568.07L423.231,568.07z"/>
		<path id="path688" fill="#8C361D" d="M398.371,575.65l1.561-5.445l3.215-0.359l0.023,0.215l-0.256,0.029
			c-0.233,0.027-0.414,0.088-0.544,0.184c-0.092,0.067-0.159,0.166-0.203,0.301c-0.032,0.098-0.027,0.342,0.017,0.734l0.582,5.207
			c0.045,0.403,0.094,0.653,0.148,0.749c0.053,0.098,0.151,0.176,0.292,0.239c0.141,0.059,0.32,0.075,0.542,0.051l0.256-0.029
			l0.025,0.215l-4.123,0.461l-0.024-0.216l0.256-0.028c0.235-0.027,0.416-0.088,0.546-0.185c0.092-0.065,0.157-0.166,0.203-0.305
			c0.031-0.099,0.025-0.346-0.019-0.741l-0.652-5.853l-2.225,7.542l-0.14,0.016l-3.875-6.807l0.621,5.561
			c0.045,0.388,0.08,0.626,0.112,0.713c0.07,0.188,0.199,0.335,0.379,0.441c0.185,0.102,0.457,0.132,0.817,0.091l0.024,0.216
			l-2.701,0.301l-0.025-0.215l0.081-0.01c0.175-0.014,0.337-0.061,0.481-0.135c0.145-0.08,0.249-0.173,0.316-0.284
			c0.067-0.11,0.111-0.257,0.133-0.444c0.003-0.044-0.015-0.242-0.054-0.595l-0.558-4.997c-0.045-0.4-0.094-0.646-0.146-0.738
			c-0.055-0.095-0.152-0.174-0.292-0.232c-0.14-0.064-0.322-0.083-0.543-0.058l-0.252,0.028l-0.023-0.215l3.226-0.36L398.371,575.65
			L398.371,575.65z"/>
		<path id="path689" fill="#8C361D" d="M387.451,572.06l0.358,3.214l0.159-0.018c0.499-0.055,0.845-0.254,1.036-0.594
			c0.191-0.339,0.28-0.819,0.277-1.439l0.221-0.026l0.461,4.134l-0.221,0.026c-0.098-0.446-0.236-0.804-0.421-1.073
			c-0.181-0.272-0.375-0.444-0.584-0.52c-0.209-0.079-0.501-0.096-0.878-0.054l0.248,2.224c0.049,0.434,0.097,0.698,0.143,0.791
			c0.05,0.093,0.126,0.165,0.236,0.216c0.108,0.05,0.273,0.063,0.499,0.038l0.472-0.052c0.736-0.082,1.309-0.318,1.714-0.709
			c0.408-0.392,0.67-0.949,0.786-1.668l0.214-0.024l-0.073,2.549l-6.826,0.762l-0.023-0.215l0.261-0.03
			c0.231-0.025,0.408-0.088,0.54-0.184c0.096-0.066,0.164-0.167,0.202-0.306c0.032-0.098,0.026-0.345-0.017-0.74l-0.58-5.195
			c-0.039-0.357-0.075-0.575-0.101-0.655c-0.054-0.132-0.138-0.227-0.251-0.29c-0.16-0.092-0.369-0.124-0.625-0.095l-0.26,0.029
			l-0.025-0.215l6.61-0.738l0.261,2.335l-0.222,0.024c-0.177-0.559-0.382-0.95-0.615-1.175c-0.229-0.226-0.536-0.377-0.923-0.451
			c-0.224-0.045-0.636-0.035-1.235,0.032L387.451,572.06z"/>
		<path id="path690" fill="#8C361D" d="M384.731,579.68l0.024,0.216l-4.127,0.461l-0.024-0.216l0.262-0.029
			c0.229-0.027,0.408-0.088,0.538-0.184c0.096-0.066,0.164-0.167,0.204-0.306c0.033-0.099,0.027-0.346-0.019-0.74l-0.578-5.195
			c-0.045-0.403-0.094-0.654-0.148-0.75c-0.054-0.096-0.152-0.173-0.294-0.232c-0.136-0.064-0.316-0.084-0.536-0.06l-0.263,0.03
			l-0.023-0.215l4.127-0.46l0.023,0.214l-0.261,0.03c-0.23,0.024-0.41,0.086-0.54,0.184c-0.096,0.065-0.164,0.167-0.208,0.306
			c-0.032,0.098-0.027,0.346,0.017,0.74l0.58,5.196c0.046,0.402,0.096,0.653,0.148,0.749c0.059,0.095,0.157,0.175,0.294,0.238
			c0.139,0.059,0.32,0.077,0.54,0.051L384.731,579.68L384.731,579.68z"/>
		<path id="path691" fill="#8C361D" d="M379.081,572.54l0.24,2.136l-0.21,0.024c-0.18-0.48-0.358-0.818-0.533-1.014
			c-0.174-0.201-0.402-0.35-0.68-0.449c-0.156-0.053-0.418-0.06-0.786-0.019l-0.589,0.066l0.681,6.091
			c0.045,0.403,0.096,0.654,0.148,0.749c0.058,0.096,0.155,0.175,0.292,0.238c0.141,0.059,0.324,0.076,0.548,0.051l0.262-0.029
			l0.023,0.215l-4.134,0.462l-0.022-0.216l0.26-0.029c0.231-0.026,0.41-0.088,0.54-0.184c0.096-0.067,0.166-0.167,0.208-0.306
			c0.033-0.099,0.027-0.346-0.017-0.74l-0.68-6.092l-0.57,0.064c-0.534,0.06-0.907,0.215-1.122,0.467
			c-0.301,0.352-0.465,0.825-0.489,1.418l-0.222,0.024l-0.239-2.137L379.081,572.54L379.081,572.54z"/>
		<path id="path694" fill="#8C361D" d="M359.611,575.17l0.36,3.214l0.157-0.018c0.501-0.055,0.847-0.254,1.036-0.594
			c0.19-0.338,0.282-0.819,0.277-1.439l0.221-0.026l0.46,4.135l-0.22,0.024c-0.098-0.444-0.237-0.802-0.421-1.073
			c-0.179-0.272-0.373-0.444-0.582-0.519c-0.21-0.08-0.502-0.098-0.879-0.055l0.247,2.225c0.05,0.433,0.098,0.697,0.143,0.79
			c0.05,0.093,0.126,0.165,0.236,0.216c0.108,0.05,0.275,0.063,0.499,0.039l0.472-0.053c0.736-0.082,1.309-0.318,1.714-0.709
			c0.408-0.392,0.67-0.948,0.786-1.668l0.216-0.024l-0.075,2.549l-6.826,0.762l-0.023-0.215l0.261-0.03
			c0.231-0.026,0.41-0.088,0.54-0.184c0.096-0.066,0.164-0.167,0.204-0.306c0.032-0.098,0.026-0.345-0.019-0.74l-0.58-5.195
			c-0.039-0.357-0.075-0.575-0.101-0.655c-0.054-0.132-0.138-0.227-0.251-0.29c-0.16-0.092-0.369-0.124-0.623-0.095l-0.262,0.029
			l-0.025-0.215l6.61-0.738l0.261,2.335l-0.222,0.024c-0.177-0.559-0.381-0.949-0.615-1.175c-0.229-0.226-0.536-0.377-0.922-0.451
			c-0.224-0.045-0.636-0.035-1.233,0.032L359.611,575.17L359.611,575.17z"/>
		<path id="path695" fill="#8C361D" d="M355.261,575.009l0.356,2.626l-0.237,0.025c-0.188-0.646-0.525-1.146-1.011-1.495
			c-0.483-0.355-0.983-0.504-1.495-0.448c-0.396,0.045-0.699,0.187-0.908,0.427c-0.205,0.236-0.293,0.491-0.262,0.767
			c0.018,0.175,0.076,0.325,0.174,0.451c0.132,0.17,0.332,0.33,0.602,0.481c0.195,0.109,0.643,0.288,1.339,0.541
			c0.974,0.35,1.647,0.71,2.014,1.077c0.363,0.368,0.573,0.812,0.631,1.333c0.073,0.661-0.121,1.257-0.583,1.793
			c-0.461,0.53-1.087,0.84-1.878,0.928c-0.248,0.029-0.486,0.029-0.714,0.003c-0.226-0.027-0.515-0.089-0.863-0.192
			c-0.196-0.058-0.352-0.079-0.475-0.065c-0.099,0.011-0.202,0.062-0.306,0.152s-0.183,0.219-0.233,0.387l-0.216,0.024l-0.334-2.982
			l0.215-0.023c0.264,0.819,0.665,1.423,1.199,1.811c0.538,0.385,1.089,0.545,1.653,0.482c0.434-0.049,0.766-0.205,0.997-0.471
			c0.234-0.265,0.333-0.556,0.297-0.87c-0.021-0.187-0.091-0.361-0.212-0.525c-0.117-0.164-0.284-0.311-0.503-0.444
			c-0.219-0.136-0.6-0.303-1.14-0.498c-0.759-0.274-1.308-0.515-1.651-0.729c-0.341-0.214-0.616-0.464-0.82-0.751
			c-0.203-0.288-0.322-0.617-0.365-0.986c-0.069-0.628,0.103-1.19,0.515-1.683c0.412-0.494,0.969-0.781,1.673-0.859
			c0.257-0.03,0.508-0.027,0.755,0.01c0.188,0.025,0.42,0.088,0.694,0.186c0.278,0.095,0.468,0.137,0.574,0.125
			c0.099-0.011,0.176-0.051,0.227-0.12c0.051-0.068,0.089-0.224,0.115-0.467L355.261,575.009L355.261,575.009z"/>
		<path id="path714" fill="#8C361D" d="M367.97,578.16l0.244,2.189c0.049,0.428,0.103,0.695,0.166,0.801
			c0.067,0.102,0.169,0.18,0.31,0.232c0.142,0.05,0.392,0.055,0.75,0.016l0.024,0.216l-4.013,0.448l-0.024-0.216
			c0.366-0.041,0.611-0.101,0.729-0.181c0.124-0.085,0.205-0.185,0.244-0.299c0.043-0.114,0.039-0.386-0.008-0.812l-0.573-5.125
			c-0.047-0.428-0.104-0.692-0.172-0.794c-0.062-0.107-0.165-0.187-0.304-0.238c-0.137-0.051-0.388-0.057-0.751-0.017l-0.023-0.214
			l3.442-0.386c1.134-0.125,1.968-0.014,2.507,0.334c0.538,0.349,0.841,0.826,0.908,1.431c0.059,0.513-0.052,0.969-0.329,1.37
			c-0.278,0.4-0.689,0.698-1.234,0.892C369.499,577.942,368.866,578.059,367.97,578.16L367.97,578.16z M367.539,574.293l0.38,3.412
			c0.129-0.007,0.226-0.013,0.294-0.021c0.472-0.053,0.823-0.234,1.047-0.541c0.225-0.313,0.304-0.765,0.237-1.353
			c-0.064-0.587-0.24-1.002-0.528-1.245c-0.285-0.244-0.683-0.336-1.193-0.279L367.539,574.293L367.539,574.293z"/>
		<path id="path718" fill="#8C361D" d="M409.079,572.94c0.769,0.091,1.319,0.244,1.649,0.459c0.476,0.304,0.745,0.738,0.808,1.301
			c0.065,0.593-0.118,1.111-0.553,1.553c-0.534,0.536-1.359,0.865-2.477,0.99l-4.011,0.448l-0.025-0.215
			c0.364-0.041,0.607-0.102,0.727-0.181c0.124-0.086,0.205-0.185,0.244-0.299c0.043-0.115,0.039-0.386-0.008-0.812l-0.572-5.126
			c-0.047-0.427-0.105-0.69-0.172-0.792c-0.064-0.107-0.163-0.187-0.304-0.238c-0.137-0.051-0.39-0.057-0.749-0.017l-0.023-0.215
			l3.782-0.422c0.906-0.101,1.555-0.092,1.95,0.029c0.394,0.117,0.718,0.325,0.97,0.622c0.254,0.296,0.401,0.623,0.44,0.984
			c0.044,0.379-0.056,0.735-0.298,1.065C410.215,572.398,409.757,572.686,409.079,572.94L409.079,572.94z M406.942,573.019
			c0.552-0.061,0.951-0.17,1.198-0.323c0.249-0.154,0.432-0.35,0.546-0.592c0.114-0.24,0.152-0.535,0.113-0.884
			c-0.037-0.35-0.141-0.627-0.305-0.833c-0.161-0.209-0.375-0.359-0.646-0.445c-0.268-0.089-0.685-0.099-1.253-0.031
			L406.942,573.019z M406.993,573.473l0.284,2.534l0.025,0.292c0.024,0.209,0.094,0.364,0.212,0.46
			c0.12,0.093,0.284,0.126,0.495,0.103c0.309-0.034,0.587-0.133,0.832-0.298c0.249-0.17,0.428-0.392,0.537-0.667
			c0.113-0.28,0.148-0.581,0.112-0.903c-0.041-0.369-0.163-0.689-0.366-0.962c-0.205-0.276-0.463-0.456-0.774-0.538
			C408.039,573.41,407.587,573.402,406.993,573.473z"/>
		<path id="path721" fill="#8C361D" d="M414.96,572.879l0.248,2.213c0.047,0.428,0.103,0.694,0.166,0.801
			c0.067,0.102,0.171,0.18,0.31,0.231c0.139,0.052,0.388,0.057,0.749,0.017l0.024,0.216l-4.042,0.451l-0.022-0.216
			c0.364-0.04,0.607-0.101,0.728-0.182c0.123-0.084,0.205-0.184,0.243-0.298c0.041-0.114,0.039-0.386-0.008-0.813l-0.573-5.124
			c-0.047-0.427-0.104-0.692-0.171-0.795c-0.063-0.106-0.165-0.186-0.303-0.236c-0.139-0.051-0.389-0.058-0.751-0.018l-0.025-0.215
			l3.67-0.41c0.956-0.105,1.661-0.119,2.119-0.035c0.456,0.083,0.845,0.287,1.165,0.612c0.319,0.323,0.505,0.723,0.558,1.2
			c0.063,0.582-0.091,1.086-0.467,1.514c-0.243,0.27-0.597,0.493-1.064,0.667l2.196,2.462c0.287,0.317,0.488,0.513,0.601,0.586
			c0.172,0.103,0.365,0.147,0.577,0.135l0.022,0.216l-2.485,0.278l-2.945-3.315L414.96,572.879L414.96,572.879z M414.528,569.007
			l0.387,3.46l0.332-0.037c0.538-0.061,0.937-0.154,1.195-0.283c0.256-0.13,0.446-0.331,0.568-0.606
			c0.126-0.276,0.167-0.623,0.12-1.037c-0.067-0.602-0.258-1.032-0.574-1.287c-0.311-0.256-0.78-0.349-1.406-0.279L414.528,569.007
			L414.528,569.007z"/>
	</g>
	<g id="g763" transform="matrix(.48956 0 .15290 .44057 -12.894 -5.5923)">
		<path id="path696" fill="#8C361D" d="M392.321,582.969l0.722,6.458c0.054,0.485,0.109,0.794,0.166,0.924
			c0.058,0.129,0.161,0.226,0.305,0.296c0.145,0.071,0.369,0.09,0.667,0.057l0.182-0.021l0.024,0.216l-4.159,0.464l-0.024-0.216
			l0.209-0.023c0.339-0.038,0.575-0.103,0.71-0.196c0.135-0.094,0.22-0.212,0.256-0.354c0.036-0.142,0.024-0.461-0.03-0.958
			l-0.459-4.094c-0.04-0.365-0.083-0.589-0.128-0.675c-0.046-0.09-0.12-0.16-0.224-0.209c-0.1-0.058-0.213-0.078-0.337-0.063
			c-0.196,0.022-0.431,0.11-0.701,0.266l-0.128-0.198l2.758-1.651l0.192-0.021L392.321,582.969z"/>
		<path id="path697" fill="#8C361D" d="M388.311,591.57l-4.647,0.52l-0.014-0.129c1.234-1.855,1.971-3.093,2.209-3.713
			c0.242-0.621,0.33-1.21,0.267-1.769c-0.046-0.409-0.21-0.733-0.49-0.972c-0.283-0.244-0.606-0.346-0.972-0.305
			c-0.598,0.068-1.028,0.418-1.292,1.053l-0.223-0.052c0.126-0.768,0.383-1.354,0.769-1.76c0.388-0.405,0.861-0.637,1.42-0.7
			c0.401-0.044,0.776,0.007,1.126,0.157c0.351,0.148,0.638,0.377,0.86,0.682c0.223,0.301,0.351,0.594,0.383,0.877
			c0.058,0.518-0.029,1.057-0.257,1.62c-0.312,0.763-1.056,1.86-2.231,3.293l1.705-0.191c0.42-0.048,0.688-0.095,0.809-0.144
			c0.125-0.049,0.225-0.119,0.295-0.211c0.073-0.093,0.16-0.281,0.262-0.564l0.209-0.024L388.311,591.57z"/>
		<path id="path701" fill="#8C361D" d="M374.432,584.97l0.72,6.458c0.056,0.485,0.111,0.794,0.168,0.924
			c0.058,0.128,0.159,0.226,0.305,0.296c0.145,0.071,0.367,0.089,0.667,0.055l0.182-0.02l0.023,0.215l-4.157,0.466l-0.024-0.216
			l0.209-0.023c0.339-0.038,0.573-0.104,0.71-0.197c0.135-0.093,0.22-0.212,0.256-0.352c0.034-0.142,0.024-0.461-0.03-0.958
			l-0.457-4.094c-0.041-0.366-0.085-0.59-0.13-0.675c-0.044-0.09-0.119-0.161-0.223-0.211c-0.102-0.057-0.213-0.076-0.337-0.063
			c-0.198,0.022-0.432,0.111-0.701,0.266l-0.128-0.197l2.758-1.651L374.432,584.97L374.432,584.97z"/>
		<path id="path702" fill="#8C361D" d="M362.922,586.879l0.359,3.214l0.157-0.018c0.502-0.055,0.847-0.253,1.035-0.593
			c0.192-0.339,0.282-0.82,0.276-1.44l0.223-0.025l0.462,4.135l-0.223,0.026c-0.096-0.446-0.236-0.804-0.421-1.073
			c-0.179-0.271-0.374-0.445-0.582-0.52c-0.211-0.079-0.502-0.098-0.878-0.055l0.247,2.224c0.049,0.436,0.097,0.699,0.143,0.792
			c0.049,0.093,0.128,0.164,0.236,0.216c0.108,0.05,0.273,0.063,0.499,0.038l0.473-0.053c0.736-0.083,1.308-0.318,1.712-0.709
			c0.407-0.391,0.671-0.948,0.786-1.667l0.217-0.024l-0.076,2.549l-6.825,0.761l-0.025-0.215l0.263-0.03
			c0.229-0.026,0.408-0.086,0.538-0.184c0.096-0.065,0.164-0.166,0.203-0.305c0.033-0.099,0.026-0.345-0.018-0.74l-0.579-5.196
			c-0.041-0.356-0.074-0.575-0.103-0.654c-0.053-0.132-0.138-0.228-0.25-0.29c-0.159-0.092-0.368-0.124-0.624-0.096l-0.263,0.03
			l-0.023-0.215l6.61-0.738l0.26,2.334l-0.221,0.026c-0.177-0.559-0.382-0.95-0.616-1.176c-0.229-0.225-0.537-0.377-0.922-0.451
			c-0.225-0.045-0.638-0.034-1.233,0.032l-0.817,0.092L362.922,586.879z"/>
		<path id="path707" fill="#8C361D" d="M352.051,595.629l-0.025-0.215l0.262-0.029c0.23-0.027,0.4-0.08,0.512-0.164
			c0.115-0.089,0.197-0.197,0.24-0.328c0.026-0.084,0.017-0.33-0.029-0.738l-0.58-5.195c-0.046-0.403-0.095-0.654-0.148-0.751
			c-0.054-0.094-0.151-0.173-0.293-0.232c-0.138-0.064-0.315-0.083-0.536-0.059l-0.263,0.03l-0.025-0.215l3.536-0.395
			c0.943-0.105,1.717-0.062,2.319,0.13c0.738,0.236,1.322,0.652,1.754,1.249c0.436,0.595,0.699,1.294,0.789,2.099
			c0.062,0.554,0.031,1.077-0.096,1.567c-0.125,0.484-0.314,0.898-0.564,1.237c-0.247,0.332-0.549,0.614-0.901,0.842
			c-0.347,0.224-0.784,0.417-1.309,0.576c-0.232,0.073-0.601,0.137-1.11,0.195L352.051,595.629L352.051,595.629z M354.228,587.846
			l0.687,6.161c0.038,0.326,0.076,0.524,0.115,0.595c0.04,0.07,0.098,0.12,0.175,0.15c0.113,0.048,0.267,0.06,0.465,0.038
			c0.649-0.073,1.118-0.348,1.412-0.83c0.398-0.649,0.527-1.604,0.387-2.862c-0.113-1.013-0.362-1.803-0.75-2.375
			c-0.304-0.444-0.663-0.731-1.079-0.858C355.347,587.775,354.876,587.769,354.228,587.846L354.228,587.846z"/>
		<path id="path711" fill="#8C361D" d="M380.969,587.88c0.6,0.345,1.028,0.683,1.28,1.012c0.258,0.325,0.411,0.715,0.463,1.169
			c0.071,0.636-0.111,1.204-0.543,1.7c-0.429,0.491-1.054,0.782-1.877,0.874c-0.781,0.088-1.405-0.037-1.876-0.373
			c-0.469-0.337-0.735-0.782-0.797-1.338c-0.047-0.423,0.035-0.808,0.242-1.153c0.212-0.347,0.592-0.683,1.136-1.012
			c-0.677-0.408-1.121-0.754-1.336-1.036c-0.209-0.284-0.333-0.625-0.378-1.024c-0.06-0.529,0.112-1.017,0.514-1.467
			c0.405-0.453,0.998-0.725,1.777-0.811c0.754-0.084,1.353,0.03,1.796,0.341c0.447,0.307,0.698,0.71,0.754,1.207
			c0.041,0.373-0.032,0.715-0.221,1.027C381.718,587.304,381.406,587.599,380.969,587.88L380.969,587.88z M380.492,587.632
			c0.124-0.211,0.205-0.439,0.249-0.688c0.042-0.249,0.049-0.515,0.015-0.802c-0.056-0.505-0.206-0.88-0.455-1.124
			c-0.185-0.186-0.422-0.265-0.709-0.233c-0.26,0.029-0.472,0.15-0.633,0.359c-0.16,0.207-0.226,0.45-0.196,0.729
			c0.033,0.284,0.166,0.566,0.402,0.852C379.406,587.005,379.848,587.307,380.492,587.632L380.492,587.632z M379.466,588.991
			c-0.108,0.122-0.182,0.231-0.221,0.325c-0.063,0.145-0.112,0.351-0.145,0.618c-0.031,0.266-0.034,0.542,0,0.825
			c0.039,0.366,0.121,0.667,0.242,0.905c0.12,0.234,0.271,0.396,0.454,0.487c0.188,0.088,0.372,0.123,0.554,0.103
			c0.283-0.032,0.51-0.163,0.682-0.39c0.17-0.232,0.235-0.528,0.196-0.889C381.144,590.222,380.556,589.561,379.466,588.991
			L379.466,588.991z"/>
	</g>
</g>
</svg>
