<?xml version="1.0" encoding="utf-8"?>
<!-- Generator: Adobe Illustrator 16.0.0, SVG Export Plug-In . SVG Version: 6.00 Build 0)  -->
<svg version="1.2" baseProfile="tiny"
	 id="svg780" xmlns:cc="http://creativecommons.org/ns#" xmlns:dc="http://purl.org/dc/elements/1.1/" xmlns:rdf="http://www.w3.org/1999/02/22-rdf-syntax-ns#"
	 xmlns="http://www.w3.org/2000/svg" xmlns:xlink="http://www.w3.org/1999/xlink" x="0px" y="0px" width="512px" height="512px"
	 viewBox="0 0 512 512" xml:space="preserve">
<g id="flag">
	<rect id="rect784" x="0" fill="#BE0027" width="512" height="512"/>
	<rect id="rect785" x="20.48" y="20.48" fill="#3B5AA3" width="470" height="471.04"/>
	<g id="g10353" transform="translate(-256.29 5.0895)">
		<path id="path794" fill="#CBE0E5" d="M508.15,391.039c1.818,0.997,4.694,0.944,6.313,0.079
			c103.359-54.985,103.419-205.78,0.15-259.99c-1.918-1.011-4.707-0.956-6.613,0.079c-100.72,55.105-100.99,204.189,0.15,259.84
			V391.039z"/>
		<path id="path798" fill="#ADD2D9" d="M508.15,393.76c1.607,1.31,4.848,1.185,6.313,0.078
			c76.167-57.025,76.614-92.572,73.238-92.571l-150.75,0.079C434.646,301.348,438.28,337.432,508.15,393.76L508.15,393.76z"/>
		<path id="path799" fill="#FDF9A1" d="M448.89,329.52c6.536-1.701,14.431-2.149,20.863,1.286c5.715,2.987,9.025,2.958,15.183,3.04
			c6.444,0.086,11.511,4.821,18.479,5.006c12.829,0.336,18.234,6.698,8.261,6.711c-4.716,0.008-14.823-3.143-19.7-2.465
			c-10.192,1.051-16.659,3.308-26.25,13.976l11.085,7.596c9.588-3.907,11.195-8.304,16.504-8.479
			c5.998-0.193,8.036-3.908,14.972-3.917c7.881,1.433,18.556-0.978,24.808-2.379c11.09-2.579,5.814-10.327-0.908-13.138
			c-5.435-2.313-15.608-0.086-21.927-2.381c-4.782-1.856-0.847-4.842,1.721-5.479c2.595-0.479,5.379,0.37,8.606,0.89
			c5.762,0.498,12.999-0.056,18.058-0.849c10.46-1.621,10.02-4.688,15.07-4.77c3.683-0.178,6.486-1.278,8.994-3.08
			c2.949-1.975,6.017-6.021,9.59-5.869l9.568,0.406l-13.478,30.309l-38.072,38.754l-19.718,7.479l-43.343-28.215L445.4,330.428
			L448.89,329.52L448.89,329.52z"/>
		<path id="path803" fill="#179A3B" d="M498.7,300.05l87.026-0.405l1.53-7.711c0,0-3.104-0.463-5.61-0.609
			c-3.124-0.192-8.48,3.268-12.067,3.246c-2.538-0.018-5.446-4.559-7.987-4.465c-4.435-0.041-4.83,3.951-9.01,4.061
			c-3.373-0.115-4.81-2.691-9.178-2.436c-4.581,0.258-4.24,2.779-10.027,2.637c-7.643-0.191-10.713-6.824-16.828-6.898
			C506.342,287.348,506.009,297.209,498.7,300.05L498.7,300.05z"/>
		<path id="path802" fill="#FDF9A1" d="M498.7,301.91l89.575-0.457v-2.433l-91.613,0.456L498.7,301.91L498.7,301.91z"/>
		<path id="path804" fill="#A79270" d="M535.51,328.83c1.38,5.29,2.834,7.089,8.398,8.438c5.495,1.352,13.879-4.006,8.669-9.178
			c-4.961-4.812-10.174-6.035-14.618-10.369c-9.354-9.24-23.446-31.881-23.459-47.849c-0.012-13.712-1.334-41.855-1.344-68.511
			c0.007-1.727-5.208,4.843-5.2,6.598c0.239,23.516,0.203,41.289,1.158,65.002c1.481,17.334,9.754,29.006,17.017,39.541
			C529.385,317.55,534.088,322.994,535.51,328.83L535.51,328.83z"/>
		<g>
			<path fill="#BD0728" d="M479.295,251.639c1.799,0.959,2.901,2.64,3.303,5.041h-2.464c-0.294-1.343-0.902-2.32-1.825-2.934
				c-0.923-0.612-2.086-0.919-3.491-0.919c-1.666,0-3.068,0.638-4.207,1.914c-1.139,1.275-1.708,3.177-1.708,5.703
				c0,2.185,0.47,3.962,1.41,5.334c0.939,1.371,2.472,2.057,4.596,2.057c1.626,0,2.972-0.481,4.039-1.444
				c1.066-0.963,1.612-2.52,1.637-4.671h-5.753v-2.063h8.067v9.83h-1.601l-0.601-2.364c-0.829,0.926-1.562,1.568-2.202,1.927
				c-1.075,0.617-2.44,0.925-4.097,0.925c-2.141,0-3.982-0.704-5.524-2.113c-1.681-1.768-2.522-4.193-2.522-7.279
				c0-3.076,0.822-5.523,2.465-7.341c1.561-1.734,3.583-2.602,6.064-2.602C476.583,250.639,478.053,250.972,479.295,251.639z"/>
		</g>
		<g>
			<path fill="none" stroke="#FFFFFF" stroke-width="1.6384" d="M479.295,251.639c1.799,0.959,2.901,2.64,3.303,5.041h-2.464
				c-0.294-1.343-0.902-2.32-1.825-2.934c-0.923-0.612-2.086-0.919-3.491-0.919c-1.666,0-3.068,0.638-4.207,1.914
				c-1.139,1.275-1.708,3.177-1.708,5.703c0,2.185,0.47,3.962,1.41,5.334c0.939,1.371,2.472,2.057,4.596,2.057
				c1.626,0,2.972-0.481,4.039-1.444c1.066-0.963,1.612-2.52,1.637-4.671h-5.753v-2.063h8.067v9.83h-1.601l-0.601-2.364
				c-0.829,0.926-1.562,1.568-2.202,1.927c-1.075,0.617-2.44,0.925-4.097,0.925c-2.141,0-3.982-0.704-5.524-2.113
				c-1.681-1.768-2.522-4.193-2.522-7.279c0-3.076,0.822-5.523,2.465-7.341c1.561-1.734,3.583-2.602,6.064-2.602
				C476.583,250.639,478.053,250.972,479.295,251.639z"/>
		</g>
		<g>
			<path fill="#BD0728" d="M492.705,251.235v11.355c0,1.334,0.252,2.443,0.756,3.327c0.748,1.334,2.008,2.001,3.782,2.001
				c2.126,0,3.572-0.721,4.337-2.164c0.412-0.783,0.618-1.838,0.618-3.164v-11.355h2.514v10.317c0,2.26-0.305,3.998-0.916,5.216
				c-1.121,2.218-3.238,3.326-6.351,3.326s-5.225-1.108-6.337-3.326c-0.611-1.218-0.917-2.956-0.917-5.216v-10.317H492.705z"/>
		</g>
		<g>
			<path fill="none" stroke="#FFFFFF" stroke-width="1.6384" d="M492.705,251.235v11.355c0,1.334,0.252,2.443,0.756,3.327
				c0.748,1.334,2.008,2.001,3.782,2.001c2.126,0,3.572-0.721,4.337-2.164c0.412-0.783,0.618-1.838,0.618-3.164v-11.355h2.514
				v10.317c0,2.26-0.305,3.998-0.916,5.216c-1.121,2.218-3.238,3.326-6.351,3.326s-5.225-1.108-6.337-3.326
				c-0.611-1.218-0.917-2.956-0.917-5.216v-10.317H492.705z"/>
		</g>
		<g>
			<path fill="#BD0728" d="M523.365,251.218h2.81l6.668,18.372h-2.727l-1.918-5.503h-7.207l-1.993,5.503h-2.552L523.365,251.218z
				 M527.492,262.061l-2.829-8.117l-2.938,8.117H527.492z"/>
		</g>
		<g>
			<path fill="none" stroke="#FFFFFF" stroke-width="1.6384" d="M523.365,251.218h2.81l6.668,18.372h-2.727l-1.918-5.503h-7.207
				l-1.993,5.503h-2.552L523.365,251.218z M527.492,262.061l-2.829-8.117l-2.938,8.117H527.492z"/>
		</g>
		<g>
			<path fill="#BD0728" d="M541.421,251.169h3.564l5.283,15.533l5.246-15.533h3.54v18.372h-2.376v-10.844
				c0-0.375,0.008-0.996,0.025-1.863c0.016-0.867,0.024-1.797,0.024-2.789l-5.245,15.496h-2.467l-5.295-15.496v0.562
				c0,0.45,0.012,1.137,0.037,2.058c0.025,0.922,0.037,1.599,0.037,2.032v10.844h-2.375V251.169z"/>
		</g>
		<g>
			<path fill="none" stroke="#FFFFFF" stroke-width="1.6384" d="M541.421,251.169h3.564l5.283,15.533l5.246-15.533h3.54v18.372
				h-2.376v-10.844c0-0.375,0.008-0.996,0.025-1.863c0.016-0.867,0.024-1.797,0.024-2.789l-5.245,15.496h-2.467l-5.295-15.496v0.562
				c0,0.45,0.012,1.137,0.037,2.058c0.025,0.922,0.037,1.599,0.037,2.032v10.844h-2.375V251.169z"/>
		</g>
		<path id="path805" fill="#239E46" d="M468.19,202.22c-1.158,2.235,2.712-0.652,3.589-0.963c5.015-1.784,6.979-8.12,15.618-4.306
			c6.802,2.938,15.931,1.23,11.158,4.206c-5.896,3.529-17.641,7.44-17.872,24.945c0.981,1.712,1.052,1.441,1.873-0.394
			c1.784-4.08,10.296-15.16,14.508-14.238c1.695,0.439,6.675-5.007,6.791-3.452c0.451,4.371-6.762,13.214-6.685,25.051
			c0.019,2.741,3.39,3.629,5.016,1.701c1.615-1.701,2.524-3.458,5.354-5.693c5.002-4.104,3.621-21.511,4.239-20.693
			c3.54,4.584,4.084,17.513,9.358,22.816c4.383,4.407,7.927,2.297,6.97-3.824c-1.904-12.27-7.704-8.762-10.464-21.453
			c-0.561-2.472-0.698-4.706,2.573-3.671c4.001,1.16,6.35,3.018,9.334,7.531c2.984,4.304,8.579,8.43,11.813,10.963
			c5.641,4.335,7.622,0.55,4.93-5.014c-2.98-6.242-9.697-11.418-15.807-13.682c-4.629-1.599-6.278-1.751-10.356-2.535
			c-1.134-0.241-2.305-2.562-0.29-3.845c4.319-2.64,9.486-5.621,14.727-5.772c5.044-0.128,9.04,3.916,12.578,4.928
			c7.055,1.85,7.019-2.628,3.909-5.949c-2.555-2.805-7.958-7.507-13.002-6.883c-10.179,1.249-9.536,0.963-15.779,5.105
			c-2.291,1.35-4.833,2.839-3.885,1.203c2.284-4.109,0.155-3.403,3.685-7.584c2.745-3.063,4.76-5.269,7.479-6.034
			c2.584-0.623,5.997-3.367,7.054-4.759c2.534-3.506,0.349-5.508-3.568-4.334c-3.4,0.936-5.229,3.198-7.564,3.824
			c-5.482,1.727-9.906,14.269-10.581,16.046c-0.874,2.122-1.84,1.07-1.662-0.728c0.792-8.855,1.541-23.682-1.587-29.786
			c-4.707-9-4.271-4.803-6.079-0.533c-2.721,6.785-1.775,13.109-0.062,19.759c0.748,3.319,3.528,7.096,4.026,9.701
			c0.359,2.046-1.188-0.637-2.087-1.864c-2.956-4.524-5.116-7.583-9.931-10.045c-3.288-2.082-12.146-2.362-15.23-1.414
			c-1.335,0.411,1.481,2.317,2.674,3.264c3.228,2.566,9.344,3.365,13.459,5.895c3.534,2.172,6.225,3.57,7.396,6.573
			c0.488,2.23,1.213,5.54-0.257,5.459c-3.855-0.221-9.847-3.557-22.148-2.186C477.122,190.388,471.668,195.762,468.19,202.22
			L468.19,202.22z"/>
		<rect id="rect806" x="495" y="314.75" width="3.569" height="5.949"/>
		<path id="path800" fill="#FDF9FF" d="M477.28,275.119c14.154,19.6,36.842,31.025,37.296,39.927
			c-14.334-0.058-29.871,0.007-44.206-0.05C480.525,302.785,486.715,294.541,477.28,275.119L477.28,275.119z"/>
		<path id="path801" fill="#A68861" d="M464.41,315.491c19.229,4.287,42.187,6.65,56.851-0.6c0.12,4.285-4.768,10.455-8.775,10.455
			h-36.897c4.285-0.614,6.73-1.922,13.703-2.283l-19.59,0.24C467.537,323.383,463.691,317.573,464.41,315.491L464.41,315.491z"/>
		<path id="path797" fill="#BE0027" d="M508.02,400.84c1.955,1.071,5.045,1.014,6.785,0.085
			c111.1-59.135,111.159-221.3,0.162-279.61c-2.062-1.087-5.06-1.028-7.109,0.084C399.598,180.661,399.308,340.99,508.02,400.84
			L508.02,400.84z M508.572,387.491c1.707,0.945,4.403,0.896,5.923,0.073c92.996-54.731,94.136-199.32,0.141-251.15
			c-1.799-1.322-4.416-0.908-6.205,0.074c-89.066,52.672-94.033,191.3,0.142,251V387.491z"/>
		<g>
			<path fill="#BD0728" d="M479.295,251.639c1.799,0.959,2.901,2.64,3.303,5.041h-2.464c-0.294-1.343-0.902-2.32-1.825-2.934
				c-0.923-0.612-2.086-0.919-3.491-0.919c-1.666,0-3.068,0.638-4.207,1.914c-1.139,1.275-1.708,3.177-1.708,5.703
				c0,2.185,0.47,3.962,1.41,5.334c0.939,1.371,2.472,2.057,4.596,2.057c1.626,0,2.972-0.481,4.039-1.444
				c1.066-0.963,1.612-2.52,1.637-4.671h-5.753v-2.063h8.067v9.83h-1.601l-0.601-2.364c-0.829,0.926-1.562,1.568-2.202,1.927
				c-1.075,0.617-2.44,0.925-4.097,0.925c-2.141,0-3.982-0.704-5.524-2.113c-1.681-1.768-2.522-4.193-2.522-7.279
				c0-3.076,0.822-5.523,2.465-7.341c1.561-1.734,3.583-2.602,6.064-2.602C476.583,250.639,478.053,250.972,479.295,251.639z"/>
		</g>
		<g>
			<path fill="#BD0728" d="M492.705,251.235v11.355c0,1.334,0.252,2.443,0.756,3.327c0.748,1.334,2.008,2.001,3.782,2.001
				c2.126,0,3.572-0.721,4.337-2.164c0.412-0.783,0.618-1.838,0.618-3.164v-11.355h2.514v10.317c0,2.26-0.305,3.998-0.916,5.216
				c-1.121,2.218-3.238,3.326-6.351,3.326s-5.225-1.108-6.337-3.326c-0.611-1.218-0.917-2.956-0.917-5.216v-10.317H492.705z"/>
		</g>
		<g>
			<path fill="#BD0728" d="M523.365,251.218h2.81l6.668,18.372h-2.727l-1.918-5.503h-7.207l-1.993,5.503h-2.552L523.365,251.218z
				 M527.492,262.061l-2.829-8.117l-2.938,8.117H527.492z"/>
		</g>
		<g>
			<path fill="#BD0728" d="M541.421,251.169h3.564l5.283,15.533l5.246-15.533h3.54v18.372h-2.376v-10.844
				c0-0.375,0.008-0.996,0.025-1.863c0.016-0.867,0.024-1.797,0.024-2.789l-5.245,15.496h-2.467l-5.295-15.496v0.562
				c0,0.45,0.012,1.137,0.037,2.058c0.025,0.922,0.037,1.599,0.037,2.032v10.844h-2.375V251.169z"/>
		</g>
	</g>
</g>
</svg>
