<?xml version="1.0" encoding="utf-8"?>
<!-- Generator: Adobe Illustrator 16.0.0, SVG Export Plug-In . SVG Version: 6.00 Build 0)  -->
<svg version="1.2" baseProfile="tiny"
	 id="svg378" xmlns:cc="http://creativecommons.org/ns#" xmlns:dc="http://purl.org/dc/elements/1.1/" xmlns:rdf="http://www.w3.org/1999/02/22-rdf-syntax-ns#"
	 xmlns="http://www.w3.org/2000/svg" xmlns:xlink="http://www.w3.org/1999/xlink" x="0px" y="0px" width="512px" height="512px"
	 viewBox="0 0 512 512" xml:space="preserve">
<g>
	<rect x="207.32" fill="#FFF41E" width="304.681" height="258.67"/>
	<rect x="207.32" y="258.67" fill="#1F7848" width="304.681" height="253.07"/>
	<path fill="#E80006" d="M207.32,258.67V0H0v512H207.32v-0.26V258.67z M104.75,285.691l-55.587,40.281l20.674-65.457l-55.485-40.419
		l68.646-0.564l21.291-65.258l21.747,65.108l68.645,0.086l-55.2,40.8l21.13,65.312L104.75,285.691z"/>
	<polygon points="194.68,219.468 126.035,219.382 104.288,154.274 82.997,219.532 14.352,220.096 69.837,260.516 49.163,325.973 
		104.75,285.691 160.61,325.58 139.48,260.269 	"/>
</g>
</svg>
