<?xml version="1.0" encoding="utf-8"?>
<!-- Generator: Adobe Illustrator 16.0.0, SVG Export Plug-In . SVG Version: 6.00 Build 0)  -->
<svg version="1.2" baseProfile="tiny"
	 id="svg548" xmlns:cc="http://creativecommons.org/ns#" xmlns:dc="http://purl.org/dc/elements/1.1/" xmlns:rdf="http://www.w3.org/1999/02/22-rdf-syntax-ns#"
	 xmlns="http://www.w3.org/2000/svg" xmlns:xlink="http://www.w3.org/1999/xlink" x="0px" y="0px" width="512px" height="512px"
	 viewBox="0 0 512 512" xml:space="preserve">
<g id="flag" transform="scale(.99620 1)">
	<rect id="rect672" x="1.953" fill="#399408" width="511.999" height="512"/>
	<path id="path555" fill="#FFFFFF" d="M0.139,0c-0.674,0.078,497.579,257.58,497.579,257.58L-0.001,511.75L0.139,0L0.139,0z"/>
	<path id="path671" fill="#FFDE08" d="M0.23,21.532c2.779,0,448.96,232.41,446.42,234.7L1.5,494.152L0.23,21.532L0.23,21.532z"/>
	<path id="path556" d="M1.501,0.835c1.483,0,233.65,256.98,233.65,256.98L1.501,508.775V0.826V0.835z"/>
	<path id="path670" fill="#DE2110" d="M0.23,36.162c1.331-15.985,209.53,222.29,209.53,222.29L0.23,481.812V36.162L0.23,36.162z"/>
</g>
</svg>
