<?xml version="1.0" encoding="utf-8"?>
<!-- Generator: Adobe Illustrator 16.0.0, SVG Export Plug-In . SVG Version: 6.00 Build 0)  -->
<svg version="1.2" baseProfile="tiny"
	 id="svg378" xmlns:cc="http://creativecommons.org/ns#" xmlns:dc="http://purl.org/dc/elements/1.1/" xmlns:rdf="http://www.w3.org/1999/02/22-rdf-syntax-ns#"
	 xmlns="http://www.w3.org/2000/svg" xmlns:xlink="http://www.w3.org/1999/xlink" x="0px" y="0px" width="512px" height="512px"
	 viewBox="0 0 512 512" xml:space="preserve">
<g>
	<path fill="#BA0000" d="M0,0.003v511.99h511.993V0.003H0z M197.662,167.985c7.171-27.723,19.836-46.602,42.778-56.877
		c10.754-3.346,21.748-4.78,32.979-5.736c-2.947,2.788-5.416,5.576-6.69,9.082c-2.471,6.293-0.639,12.348,2.627,18.401
		c4.143,7.01,6.61,14.259,7.408,23.659c1.513,13.224-4.143,25.97-14.577,33.697c-6.613,5.098-14.418,6.851-20.792,12.666
		c-4.938,4.86-7.965,9.72-9.081,18.163c-0.159,16.089,4.221,18.323,9.558,26.763l0.002,0.001v0.003
		c-0.001-0.001-0.002-0.003-0.002-0.004C241.76,247.753,190.263,225.514,197.662,167.985z M112.876,210.09
		c0.283-11.259,2.455-22.131,5.156-33.075c1.694,3.687,3.542,6.92,6.452,9.252c5.167,4.36,11.489,4.568,18.271,3.419
		c7.969-1.672,15.627-1.682,24.785,0.581c13.009,2.812,23.265,12.261,27.232,24.625c2.705,7.899,1.858,15.854,5.319,23.757
		c3.017,6.237,6.647,10.664,14.285,14.431c15.186,5.316,18.708,1.885,28.415-0.459l0.001-0.001l0.003,0
		c-0.001,0-0.003,0.001-0.004,0.001c-0.062,0.068-37.663,41.729-89.785,16.243C129.054,253.173,115.241,235.117,112.876,210.09z
		 M234.371,343.773c-22.759,17.378-44.379,24.406-68.77,18.322c-10.524-4.008-20.058-9.669-29.482-15.854
		c4.04-0.372,7.704-1.041,10.87-3.011c5.829-3.425,8.127-9.318,9.296-16.097c1.071-8.072,3.605-15.298,8.783-23.184
		c6.976-11.336,19.295-17.869,32.274-17.504c8.349,0.073,15.57,3.515,24.175,2.877c6.886-0.773,12.268-2.727,18.358-8.68
		c10.06-12.556,7.993-17.018,9.007-26.951c0,0-0.001-0.003-0.001-0.003l0.002-0.002c0,0.002,0,0.003,0,0.005
		C248.947,253.81,275.712,303.095,234.371,343.773z M330.774,358.399c-6.803,8.976-14.913,16.536-23.495,23.845
		c0.777-3.982,1.164-7.688,0.163-11.279c-1.65-6.557-6.661-10.416-12.838-13.442c-7.446-3.294-13.67-7.757-19.784-14.939
		c-8.921-9.878-11.732-23.536-7.736-35.892c2.415-7.992,7.746-13.957,9.551-22.395c1.191-6.824,0.827-12.539-3.175-20.056
		c-9.227-13.182-14.088-12.452-23.337-16.215c0,0-0.003,0.001-0.003,0.001l-0.001-0.002c0.001,0,0.003,0.001,0.004,0.001
		c0.144-0.031,54.952-11.867,82.379,39.226C342.788,313.975,343.462,336.699,330.774,358.399z M381.041,228.682
		c-6.741-0.518-11.993,3.008-16.824,7.904c-5.488,6.015-11.696,10.499-20.449,14.015c-12.2,5.322-26.045,3.649-36.49-4.064
		c-6.812-4.828-10.774-11.777-18.202-16.167c-6.094-3.298-11.627-4.768-20.025-3.36c-15.43,4.562-16.282,9.405-22.788,16.98l0,0.003
		l-0.003,0.001c0.001-0.001,0.002-0.002,0.003-0.004c0.013-0.124,6.188-55.875,63.358-65.657
		c28.607-1.268,50.369,5.31,66.916,24.234c6.351,9.301,10.943,19.393,15.147,29.852
		C388.155,230.417,384.766,228.873,381.041,228.682z"/>
	<polygon fill="#FFFFFF" points="241.875,247.803 241.873,247.802 241.875,247.806 	"/>
	<path fill="#FFFFFF" d="M241.873,247.802c-5.337-8.44-9.717-10.673-9.558-26.763c1.116-8.442,4.143-13.302,9.081-18.163
		c6.374-5.815,14.179-7.567,20.792-12.666c10.435-7.727,16.09-20.474,14.577-33.697c-0.798-9.4-3.266-16.648-7.408-23.659
		c-3.266-6.054-5.098-12.108-2.627-18.401c1.274-3.505,3.743-6.293,6.69-9.082c-11.231,0.956-22.226,2.39-32.979,5.736
		c-22.942,10.276-35.607,29.155-42.778,56.877C190.263,225.514,241.76,247.753,241.873,247.802z M238.53,151.997l0.786-6.446
		l3.289,5.524l6.611-1.5l-4.581,4.904l3.299,5.519l-6.12-2.493l-4.572,4.91l0.799-6.445l-6.125-2.485L238.53,151.997z
		 M230.905,164.262v-0.024h0.023c0.189-0.198,0.372-0.413,0.565-0.601l0.585,0.601h1.172v0.239h-0.939l0.818,0.84
		c-7.292,7.101-11.758,21.936-11.379,37.792c0.39,16.312,5.625,30.104,14.365,37.837l-1.554,1.756
		c-9.227-8.164-14.75-22.575-15.156-39.537C219.022,187.115,223.522,172,230.905,164.262z"/>
	<path d="M230.905,164.237v0.024c0.008-0.008,0.015-0.017,0.023-0.024H230.905z"/>
	<polygon points="233.25,164.477 233.25,164.237 232.078,164.237 232.311,164.477 	"/>
	<path fill="#BA0000" d="M234.561,242.701l1.554-1.756c-8.74-7.733-13.976-21.524-14.365-37.837
		c-0.379-15.856,4.087-30.691,11.379-37.792l-0.818-0.84l-0.233-0.239l-0.585-0.601c-0.193,0.188-0.375,0.403-0.565,0.601
		c-0.008,0.008-0.015,0.017-0.023,0.024c-7.383,7.738-11.883,22.853-11.5,38.903C219.811,220.126,225.335,234.537,234.561,242.701z"
		/>
	<polygon fill="#BA0000" points="237.241,162.415 241.814,157.505 247.934,159.998 244.635,154.479 249.216,149.575 
		242.605,151.075 239.316,145.55 238.53,151.997 231.915,153.485 238.04,155.97 	"/>
	<path fill="#FFFFFF" d="M309.62,178.332c-57.17,9.783-63.345,65.534-63.358,65.657c6.505-7.575,7.357-12.418,22.788-16.98
		c8.398-1.407,13.932,0.062,20.025,3.36c7.428,4.39,11.391,11.339,18.202,16.167c10.445,7.713,24.29,9.386,36.49,4.064
		c8.753-3.517,14.961-8,20.449-14.015c4.831-4.896,10.083-8.422,16.824-7.904c3.725,0.191,7.113,1.735,10.643,3.736
		c-4.204-10.458-8.797-20.55-15.147-29.852C359.99,183.642,338.228,177.064,309.62,178.332z M323.631,211.259l-0.229,0.07
		l-0.274-0.897l-0.563,1.028c-8.926-4.89-24.417-4.814-39.468,0.194c-15.482,5.153-27.133,14.2-31.966,24.822l-2.135-0.971
		c5.102-11.214,17.262-20.718,33.36-26.076c15.232-5.069,31.001-5.195,40.564-0.405l0.024-0.007l0.007,0.023
		c0.244,0.123,0.503,0.234,0.739,0.364l-0.403,0.735L323.631,211.259z M342.329,222.228l-6.03-2.943l-4.311,4.771l0.59-6.582
		l-6.034-2.933l6.396-1.125l0.581-6.583l3.362,5.887l6.394-1.137l-4.318,4.764L342.329,222.228z"/>
	<polygon fill="#FFFFFF" points="246.262,243.992 246.262,243.989 246.259,243.993 	"/>
	<path d="M322.946,209.017l-0.024,0.007c0.011,0.005,0.021,0.01,0.031,0.016L322.946,209.017z"/>
	<polygon points="323.403,211.329 323.631,211.259 323.288,210.139 323.128,210.432 	"/>
	<path fill="#BA0000" d="M322.952,209.04c-0.011-0.005-0.021-0.01-0.031-0.016c-9.563-4.791-25.332-4.665-40.564,0.405
		c-16.099,5.358-28.258,14.862-33.36,26.076l2.135,0.971c4.833-10.622,16.483-19.669,31.966-24.822
		c15.051-5.008,30.542-5.084,39.468-0.194l0.563-1.028l0.16-0.293l0.403-0.735C323.455,209.274,323.197,209.163,322.952,209.04z"/>
	<polygon fill="#BA0000" points="336.883,212.72 333.521,206.833 332.94,213.417 326.544,214.542 332.578,217.474 331.989,224.056 
		336.299,219.285 342.329,222.228 338.958,216.347 343.277,211.583 	"/>
	<polygon fill="#FFFFFF" points="250.118,248.027 250.122,248.026 250.117,248.025 	"/>
	<path fill="#FFFFFF" d="M250.122,248.026c9.25,3.763,14.111,3.033,23.337,16.215c4.002,7.517,4.366,13.231,3.175,20.056
		c-1.805,8.438-7.136,14.402-9.551,22.395c-3.996,12.355-1.185,26.014,7.736,35.892c6.114,7.183,12.338,11.646,19.784,14.939
		c6.177,3.026,11.188,6.886,12.838,13.442c1.001,3.592,0.614,7.297-0.163,11.279c8.582-7.309,16.692-14.869,23.495-23.845
		c12.688-21.7,12.015-44.425,1.728-71.147C305.073,236.159,250.266,247.996,250.122,248.026z M292.481,272.685
		c-9.803-13.044-22.082-21.219-33.688-22.428l0.242-2.332c12.254,1.276,25.128,9.788,35.321,23.352
		c9.645,12.833,14.772,27.746,13.268,38.335l0.013,0.018l-0.017,0.012c-0.039,0.273-0.063,0.556-0.111,0.822l-0.827-0.149
		l-0.951,0.683l-0.139-0.193l0.764-0.548l-1.155-0.208C307.002,300.03,302.01,285.364,292.481,272.685z M311.66,329.725
		l-5.888-2.581l-4.506,5.065l0.875-6.654l-5.894-2.571l6.429-1.53l0.865-6.654l3.098,5.707l6.427-1.539l-4.515,5.057L311.66,329.725
		z"/>
	<path d="M307.636,309.629l-0.013-0.018c-0.002,0.01-0.003,0.02-0.004,0.029L307.636,309.629z"/>
	<polygon points="305.591,310.803 305.73,310.996 306.681,310.313 306.355,310.255 	"/>
	<path fill="#BA0000" d="M305.199,310.047l1.155,0.208l0.326,0.059l0.827,0.149c0.048-0.267,0.072-0.549,0.111-0.822
		c0.001-0.01,0.002-0.02,0.004-0.029c1.505-10.589-3.623-25.502-13.268-38.335c-10.193-13.564-23.067-22.076-35.321-23.352
		l-0.242,2.332c11.606,1.209,23.886,9.384,33.688,22.428C302.01,285.364,307.002,300.03,305.199,310.047z"/>
	<polygon fill="#BA0000" points="306.64,320.506 303.542,314.799 302.677,321.453 296.248,322.983 302.142,325.555 301.267,332.209 
		305.773,327.144 311.66,329.725 308.552,324.023 313.067,318.967 	"/>
	<polygon fill="#FFFFFF" points="248.882,253.69 248.884,253.693 248.884,253.688 	"/>
	<path fill="#FFFFFF" d="M239.876,280.645c-6.091,5.953-11.473,7.906-18.358,8.68c-8.604,0.638-15.826-2.804-24.175-2.877
		c-12.979-0.365-25.299,6.168-32.274,17.504c-5.178,7.886-7.712,15.111-8.783,23.184c-1.169,6.778-3.467,12.672-9.296,16.097
		c-3.166,1.97-6.83,2.639-10.87,3.011c9.425,6.185,18.958,11.846,29.482,15.854c24.391,6.084,46.011-0.944,68.77-18.322
		c41.341-40.679,14.576-89.964,14.512-90.08C247.869,263.627,249.936,268.089,239.876,280.645z M198.476,334.027l-6.122-2.912
		l-4.599,4.584l0.824-6.376l-6.127-2.902l6.632-1.028l0.813-6.379l3.274,5.74l6.629-1.039l-4.608,4.576L198.476,334.027z
		 M238.993,302.676c-9.609,12.862-22.483,21.973-33.069,23.5l-0.015,0.02l-0.018-0.014c-0.271,0.038-0.547,0.095-0.814,0.123
		l-0.089-0.834l-0.921-0.725l0.147-0.188l0.738,0.58l-0.125-1.166c10.121-1.083,22.795-9.993,32.288-22.7
		c9.766-13.071,14.164-27.152,12.064-38.632l2.307-0.422C253.701,274.338,249.148,289.084,238.993,302.676z"/>
	<polygon points="204.214,324.559 204.066,324.746 204.987,325.471 204.951,325.139 	"/>
	<path d="M205.909,326.195l0.015-0.02c-0.011,0.002-0.022,0.004-0.033,0.006L205.909,326.195z"/>
	<path fill="#BA0000" d="M237.115,301.272c-9.493,12.707-22.167,21.617-32.288,22.7l0.125,1.166l0.036,0.332l0.089,0.834
		c0.268-0.028,0.544-0.085,0.814-0.123c0.011-0.002,0.022-0.004,0.033-0.006c10.586-1.527,23.459-10.638,33.069-23.5
		c10.155-13.592,14.708-28.338,12.493-40.457l-2.307,0.422C251.278,274.12,246.881,288.201,237.115,301.272z"/>
	<polygon fill="#BA0000" points="193.172,324.754 189.898,319.014 189.084,325.393 182.452,326.421 188.579,329.323 
		187.755,335.699 192.354,331.115 198.476,334.027 195.193,328.291 199.801,323.715 	"/>
	<polygon fill="#FFFFFF" points="242.793,252.621 242.792,252.622 242.796,252.621 	"/>
	<path fill="#FFFFFF" d="M242.792,252.622c-9.707,2.344-13.229,5.775-28.415,0.459c-7.638-3.767-11.269-8.194-14.285-14.431
		c-3.461-7.903-2.614-15.858-5.319-23.757c-3.968-12.364-14.224-21.812-27.232-24.625c-9.158-2.263-16.816-2.253-24.785-0.581
		c-6.781,1.149-13.104,0.94-18.271-3.419c-2.91-2.333-4.758-5.566-6.452-9.252c-2.701,10.943-4.873,21.816-5.156,33.075
		c2.365,25.027,16.178,43.083,40.131,58.775C205.129,294.351,242.73,252.69,242.792,252.622z M194.005,257.33
		c15.574,4.868,30.315,4.336,40.445-1.457l1.164,2.035c-5.888,3.368-13.21,5.065-21.304,5.065c-6.606,0-13.727-1.13-21.004-3.405
		c-15.324-4.789-28.194-13.904-33.152-23.381l-0.023-0.008l0.007-0.022c-0.126-0.243-0.271-0.484-0.387-0.728l0.758-0.361
		l0.377-1.109l0.226,0.077l-0.302,0.889l1.058-0.505C166.25,243.605,178.865,252.599,194.005,257.33z M145.133,222.214l6.288-1.341
		l0.702-6.743l3.174,5.913l6.285-1.352l-4.325,4.996l3.182,5.907l-5.847-2.826l-4.319,5.002l0.713-6.741L145.133,222.214z"/>
	<path d="M160.13,236.179l0.023,0.008c-0.005-0.01-0.011-0.02-0.016-0.03L160.13,236.179z"/>
	<polygon points="161.11,234.036 160.885,233.959 160.508,235.068 160.808,234.925 	"/>
	<path fill="#BA0000" d="M160.508,235.068l-0.758,0.361c0.116,0.243,0.261,0.485,0.387,0.728c0.005,0.01,0.011,0.02,0.016,0.03
		c4.958,9.477,17.829,18.592,33.152,23.381c7.277,2.275,14.397,3.405,21.004,3.405c8.094,0,15.417-1.697,21.304-5.065l-1.164-2.035
		c-10.13,5.793-24.871,6.325-40.445,1.457c-15.139-4.731-27.754-13.725-32.139-22.91l-1.058,0.505L160.508,235.068z"/>
	<polygon fill="#BA0000" points="154.592,226.768 160.439,229.594 157.257,223.687 161.582,218.691 155.297,220.043 152.123,214.13 
		151.421,220.873 145.133,222.214 150.986,225.029 150.273,231.77 	"/>
</g>
</svg>
