<?xml version="1.0" encoding="utf-8"?>
<!-- Generator: Adobe Illustrator 16.0.0, SVG Export Plug-In . SVG Version: 6.00 Build 0)  -->
<svg version="1.2" baseProfile="tiny"
	 id="svg378" xmlns:cc="http://creativecommons.org/ns#" xmlns:dc="http://purl.org/dc/elements/1.1/" xmlns:rdf="http://www.w3.org/1999/02/22-rdf-syntax-ns#"
	 xmlns="http://www.w3.org/2000/svg" xmlns:xlink="http://www.w3.org/1999/xlink" x="0px" y="0px" width="512px" height="512px"
	 viewBox="0 0 512 512" xml:space="preserve">
<g>
	<path fill="#FFFFFF" d="M0.006,339.119h512.02V168.09H0.006V339.119z M118.342,319.403l-19.607-13.541l-19.92,13.729l7.828-22.069
		l-19.629-13.515l24.443-0.096l7.787-22.082l7.28,22.009l24.444-0.136l-19.945,13.701L118.342,319.403z M407.079,207.483
		l7.787-22.083l7.28,22.009l24.443-0.135l-19.944,13.701l7.318,21.999l-19.607-13.541l-19.921,13.73l7.828-22.07l-19.628-13.515
		L407.079,207.483z M407.079,283.912l7.787-22.082l7.28,22.009l24.443-0.136l-19.944,13.701l7.318,21.999l-19.607-13.541
		l-19.921,13.729l7.828-22.069l-19.628-13.515L407.079,283.912z M264.129,247.111l7.786-22.083l7.28,22.009l24.444-0.135
		l-19.944,13.701l7.318,21.999l-19.607-13.541l-19.921,13.73l7.828-22.07l-19.629-13.514L264.129,247.111z M91.457,207.483
		l7.787-22.083l7.28,22.009l24.444-0.135l-19.945,13.701l7.318,21.999l-19.607-13.541l-19.92,13.73l7.828-22.07l-19.629-13.515
		L91.457,207.483z"/>
	<rect x="0.006" y="339.119" fill="#087BCE" width="512.02" height="172.871"/>
	<rect x="0.006" fill="#087BCE" width="512.02" height="168.09"/>
	<polygon fill="#087BCE" points="251.486,282.791 271.406,269.061 291.014,282.602 283.696,260.603 303.64,246.902 279.196,247.037 
		271.915,225.028 264.129,247.111 239.685,247.207 259.314,260.721 	"/>
	<polygon fill="#087BCE" points="394.436,319.592 414.357,305.862 433.964,319.403 426.646,297.404 446.59,283.703 422.147,283.839 
		414.866,261.83 407.079,283.912 382.636,284.008 402.264,297.522 	"/>
	<polygon fill="#087BCE" points="394.436,243.164 414.357,229.434 433.964,242.974 426.646,220.975 446.59,207.274 422.147,207.41 
		414.866,185.401 407.079,207.483 382.636,207.579 402.264,221.094 	"/>
	<polygon fill="#087BCE" points="106.525,283.839 99.244,261.83 91.457,283.912 67.014,284.008 86.643,297.522 78.815,319.592 
		98.735,305.862 118.342,319.403 111.024,297.404 130.969,283.703 	"/>
	<polygon fill="#087BCE" points="78.815,243.164 98.735,229.434 118.342,242.974 111.024,220.975 130.969,207.274 106.525,207.41 
		99.244,185.401 91.457,207.483 67.014,207.579 86.643,221.094 	"/>
</g>
</svg>
