<?xml version="1.0" encoding="utf-8"?>
<!-- Generator: Adobe Illustrator 16.0.0, SVG Export Plug-In . SVG Version: 6.00 Build 0)  -->
<svg version="1.2" baseProfile="tiny"
	 id="svg378" xmlns:cc="http://creativecommons.org/ns#" xmlns:dc="http://purl.org/dc/elements/1.1/" xmlns:rdf="http://www.w3.org/1999/02/22-rdf-syntax-ns#"
	 xmlns="http://www.w3.org/2000/svg" xmlns:xlink="http://www.w3.org/1999/xlink" x="0px" y="0px" width="512px" height="512px"
	 viewBox="0 0 512 512" xml:space="preserve">
<g>
	<path fill="#BA0000" d="M0.001,0v511.993h511.993V0H0.001z M458.158,127.918c-4.52,1.169-9.039,2.338-13.559,3.507l-0.051,0.383
		c-0.117-0.015-0.371-0.088-0.683-0.193c-8.806,2.278-17.612,4.555-26.418,6.833c-3.673,1.397-10.951,4.592-15.94,12.271
		c-1.239,3.225-2.337,11.221-2.054,21.672c-2.252,17.913-4.198,42.122-13.608,62.906c0.542,3.629-0.999,5.193,1.57,11.607
		c1.441,3.02,1.382,6.657,0.051,10.083c-3.483,6.482-6.298,13.745-14.035,18.002c-5.696,4.349-14.205,4.509-22.542,0.876
		c-8.722-2.891-20.331-3.931-28.604-3.147c-6.533-0.945-50.16-10.087-57.34-14.823c-0.6-0.252-1.188-0.483-1.776-0.715
		c-2.072,0.026-4.597,0.041-4.597-0.042c-0.21-0.21-0.416-0.45-0.617-0.711c-18.71,12.05-34.316,23.89-53.916,34.56
		c-1.912,1.509-4.053,4.811-1.046,6.017c3.611,1.442,5.515,2.359,11.411,5.18c3.835,2.343,5.758,4.137,9.798,8.347
		c5.837,4.427,30.966,36.222,36.086,51.114c0.489,0,11.263,10.773,11.263,10.773c3.102,1.143,6.202,2.286,9.304,3.429
		c0.061,0.023,0.123,0.05,0.185,0.074c0.204-0.924,0.575-6.753,0.381-6.753c-0.202,0-9.459-10.867-9.258-10.867
		c0.202,0,11.875,2.616,11.875,2.213c0-0.401,4.628-11.471,4.628-11.672s5.636,13.484,5.636,13.484l11.471,5.031l-8.05,6.641
		c0,0,1.812,12.881,1.812,13.083c0,0.2-8.051-7.649-8.051-7.649l-5.444,0.619c1.492,2.664,1.43,6.467-2.733,11.465
		c0,0.49-4.898,2.449-4.898,2.449c-3.283,4.421-6.568,8.843-9.854,13.264l0.087,0.37c-0.145,0.034-0.294,0.071-0.44,0.106
		c-0.842,1.133-1.684,2.267-2.525,3.399c-0.661,2.327-1.306,4.448-1.938,6.42l0.088,0.336c-0.07,0.019-0.145,0.039-0.216,0.059
		c-8.164,25.217-14,22.26-18.011,27.466c-0.518,2.213-10.137,4.703-8.325-6.366c1.196-4.513,2.392-9.025,3.588-13.538l-0.308-0.231
		c0.071-0.095,0.258-0.279,0.501-0.499c2.331-8.793,4.662-17.585,6.992-26.378c0.582-3.887,1.364-11.797-2.885-19.909
		c-2.203-2.661-8.636-7.536-17.885-12.411c-14.511-10.742-34.659-24.302-48.165-42.691c-3.429-1.306-4.037-3.415-10.888-4.319
		c-3.339-0.224-6.479-2.059-8.814-4.896c-3.944-6.215-8.895-12.227-8.813-21.058c-0.999-7.097,3.031-14.593,10.283-20.079
		c6.795-6.186,13.391-15.795,16.763-23.392c4.025-5.232,33.375-38.78,41.022-42.718c0.232-0.181,0.454-0.361,0.679-0.542
		c-0.016-0.007-0.031-0.014-0.047-0.021c1.471-0.95,2.656-3.889,1.992-6.689c-0.146-0.132-0.008-0.142,0.361-0.052
		c-2.077-20.624-5.056-39-5.469-60.056c-0.458-2.393-2.401-5.814-4.858-3.701c-7.98,7.292-5.605,5.017-9.925,7.876
		c-5.167,4.209-5.547,1.379-11.512,4.72c-6.618,3.14-46.754,10.787-62.331,8.469c-0.225,0.434-14.75,5.031-14.75,5.031
		c-2.443,2.226-4.888,4.451-7.33,6.677c-0.048,0.043-0.101,0.086-0.15,0.129c0.726,0.609,5.728,3.624,5.817,3.45
		c0.093-0.179,14.003-3.388,13.91-3.208c-0.093,0.179-7.794,9.333-7.436,9.519c0.356,0.185,8.048,9.393,8.227,9.486
		c0.178,0.092-14.564-1.212-14.564-1.212l-9.751,7.862l-2.184-10.205c0,0-12.268-4.328-12.446-4.42
		c-0.178-0.092,10.498-3.621,10.498-3.621l1.959-5.117c-3.052,0.097-6.397-1.711-8.916-7.709c-0.434-0.226,0.085-5.475,0.085-5.475
		c-3.115-6.398-6.229-12.799-9.345-19.197c-24.669-23.238-18.172-27.165-21.173-33.614c-1.727-1.479,0.497-11.164,9.485-4.455
		c10.37,9.43,20.74,18.861,31.11,28.29c3.181,2.307,9.841,6.646,18.997,6.613c3.378-0.729,10.668-4.192,19.257-10.154
		c16.219-7.929,37.538-19.562,60.081-23.075c2.739-2.441,4.892-2.009,8.851-7.672c1.736-2.861,4.812-4.803,8.406-5.566
		c7.333-0.637,14.95-2.261,22.75,1.88c6.759,2.384,11.554,9.414,13.081,18.378c2.359,8.88,7.849,19.162,13.036,25.655
		c2.623,5.627,17.148,42.666,18.846,54.211c0.633-0.531,0.993-0.835,0.993-0.835c0.237,1.992,1.09,7.162,3.413,8.254
		c-0.578,0.469-1.145,0.935-1.717,1.401c0.453,0.23,0.905,0.46,1.357,0.69c20.031,10.648,38.26,18.5,57.458,30.539
		c2.253,0.928,6.18,1.176,5.758-2.037c-1.729-10.672-1.127-7.438-1.152-12.618c-0.69-6.628,1.885-5.397,2.357-12.217
		c0.998-7.258,16.588-45.025,27.061-56.787c-0.239-0.426,3.872-15.097,3.872-15.097c-0.524-3.263-1.047-6.527-1.571-9.79
		c-0.01-0.064-0.017-0.131-0.025-0.197c-0.906,0.273-6.169,2.807-6.073,2.977c0.099,0.176-4.837,13.571-4.937,13.395
		c-0.099-0.176-3.538-11.633-3.89-11.435c-0.35,0.197-12.267,1.587-12.443,1.686c-0.174,0.098,8.993-11.521,8.993-11.521
		l-1.235-12.465l9.733,3.763c0,0,10.34-7.892,10.516-7.991c0.175-0.098-2.722,10.766-2.722,10.766l3.208,4.442
		c1.591-2.606,4.936-4.416,11.333-3.236c0.427-0.24,4.535,3.07,4.535,3.07c5.463,0.696,10.926,1.392,16.39,2.088l0.28-0.257
		c0.101,0.109,0.207,0.222,0.31,0.333c1.4,0.178,2.8,0.357,4.2,0.535c2.352-0.564,4.517-1.042,6.544-1.456l0.251-0.242
		c0.051,0.053,0.105,0.107,0.157,0.16c25.982-5.242,26.265,1.294,32.769,2.239C461.811,116.908,468.696,124.073,458.158,127.918z"/>
	<path fill="#FFEF00" fill-opacity="0.9882" stroke="#000000" d="M286.038,380.051l5.444-0.619c0,0,8.051,7.85,8.051,7.649
		c0-0.202-1.812-13.083-1.812-13.083l8.05-6.641l-11.471-5.031c0,0-5.636-13.686-5.636-13.484s-4.628,11.271-4.628,11.672
		c0,0.403-11.673-2.213-11.875-2.213c-0.201,0,9.056,10.867,9.258,10.867c0.194,0-0.177,5.829-0.381,6.753
		C282.859,376.651,284.901,378.019,286.038,380.051z"/>
	<path fill="#FFFFFF" d="M259.444,419.29c-1.022,0.208-1.805,0.414-2.633,0.632c-0.625,0.164-1.261,0.331-2.019,0.504
		c-1.323,0.482-2.863,0.953-4.644,1.42c-0.976,0.172-3.063,0.975-4.588,1.561c-0.777,0.299-1.449,0.557-1.848,0.688
		c-0.911,0.555-2.126,1.635-2.277,1.82l-0.575-0.434c-1.196,4.513-2.393,9.025-3.588,13.538c-1.812,11.069,7.808,8.579,8.325,6.366
		c4.011-5.206,9.847-2.249,18.011-27.466c-1.285,0.339-2.657,0.739-4.057,1.338L259.444,419.29z"/>
	<path fill="#FFFFFF" d="M250.878,231.397l0.346,1.005c-0.406,0.165-3.594,1.817-5.306,2.705l-1.724,0.892
		c-11.275,6.015-27.792,17.21-42.351,36.335c-0.429,0.563-0.649,0.852-0.803,1.028c-0.41,0.751-1.005,1.62-1.634,2.537l-0.562,0.823
		c-0.317,0.492-0.705,0.999-1.08,1.489c-0.421,0.551-0.819,1.07-1.122,1.57c-0.788,1.097-2.15,2.879-3.184,4.09
		c-0.001,0.101-0.02,0.212-0.05,0.327c1.727,0.569,3.315,2.545,3.415,2.545c7.969,7.543,1.564,16.792,1.138,17.076
		c-3.984,3.653-4.839,3.89-7.257,1.565c-2.421-2.847-3.132-4.126-5.123-5.123c-3.842-1.85-11.812-0.427-11.956-0.427
		c-0.142,0-4.126,1.566-4.126,1.566c-1.945,0.711-3.179,2.42-6.546,2.986c-3.415,0.238-4.555-0.094-6.262-2.845
		c-2.276-3.558-1.14-7.827,2.277-8.254c4.269-0.284,11.384,0.997,11.525,0.997c0.002,0,9.394-0.143,9.394-0.143
		c4.935-0.477,6.023-2.372,6.83-3.701c1.75-2.69,2.99-3.738,4.324-5.647c-0.208-0.238-0.392-0.63-0.279-1.247l0.064-0.351
		l0.245-0.258c0.913-0.965,2.659-3.224,3.569-4.483c0.316-0.53,0.773-1.127,1.214-1.705c0.362-0.474,0.705-0.922,0.984-1.354
		l0.584-0.857c0.628-0.916,1.222-1.781,1.565-2.438l0.098-0.188l0.156-0.143c0.082-0.091,0.319-0.41,0.688-0.895
		c14.822-19.471,31.646-30.873,43.15-37.01l1.731-0.895c2.772-1.438,4.35-2.255,5.296-2.64c0.375-0.153,0.644-0.23,0.856-0.259
		c-0.748-5.82-1.073-10.22-1.073-10.22c-8.874-3.963-17.75-7.83-26.624-11.765c-0.258-0.082-0.516-0.163-0.774-0.245
		c-0.004-0.034-0.008-0.068-0.011-0.103c-1.046-0.464-2.092-0.919-3.138-1.386c-0.225,0.18-0.446,0.361-0.679,0.542
		c-7.647,3.938-36.997,37.486-41.022,42.718c-3.372,7.597-9.968,17.206-16.763,23.392c-7.252,5.486-11.282,12.982-10.283,20.079
		c-0.081,8.831,4.869,14.843,8.813,21.058c2.335,2.838,5.476,4.673,8.814,4.896c6.851,0.904,7.459,3.014,10.888,4.319
		c13.506,18.39,33.654,31.949,48.165,42.691c9.249,4.875,15.682,9.75,17.885,12.411c4.249,8.112,3.467,16.022,2.885,19.909
		c-2.33,8.793-4.661,17.585-6.992,26.378c0.564-0.509,1.462-1.232,2.146-1.639l0.116-0.052c0.375-0.118,1.055-0.381,1.849-0.686
		c1.654-0.636,3.712-1.428,4.749-1.608c1.703-0.448,3.212-0.908,4.568-1.398c0.81-0.189,1.435-0.354,2.048-0.515
		c0.828-0.219,1.612-0.425,2.639-0.635c1.524-0.647,3.004-1.068,4.376-1.428l0.191,0.734c0.633-1.972,1.277-4.093,1.938-6.42
		c0.842-1.133,1.684-2.267,2.525-3.399c-1.388,0.332-2.859,0.723-4.361,1.295l-0.098,0.027c-1.151,0.21-2.03,0.416-2.961,0.635
		c-0.695,0.164-1.404,0.33-2.249,0.503c-0.603,0.195-1.254,0.388-1.935,0.579c4.496-0.857,8.622-1.612,8.622-1.612
		s-2.314,7.347-2.415,7.347l-19.722,5.937l2.076-8.682l-0.423,0.121l-0.3-1.064l0.746-0.213c2.101-0.6,6.472-1.85,7.935-2.077
		c1.921-0.451,3.615-0.913,5.136-1.403c0.892-0.186,1.591-0.35,2.276-0.511c0.932-0.219,1.812-0.426,2.965-0.638
		c1.705-0.646,3.36-1.067,4.896-1.426l0.165,0.706c3.285-4.421,6.57-8.843,9.854-13.264c0,0,4.898-1.959,4.898-2.449
		c4.163-4.998,4.226-8.801,2.733-11.465c-1.138-2.032-3.18-3.399-4.999-4.13c-0.062-0.024-0.124-0.051-0.185-0.074
		c-3.102-1.143-6.202-2.286-9.304-3.429c0,0-10.773-10.773-11.263-10.773c-5.12-14.893-30.249-46.688-36.086-51.114
		c-4.04-4.21-5.963-6.004-9.798-8.347c-5.896-2.82-7.8-3.737-11.411-5.18c-3.007-1.206-0.866-4.508,1.046-6.017
		c19.6-10.67,35.206-22.51,53.916-34.56c-3.39-4.394-5.538-15.698-6.757-24.588L250.878,231.397z"/>
	<path fill="#FFFFFF" d="M192.075,284.1l0.091-0.124l-0.028-0.026l-1.021-0.441c-0.097,0.237-0.095,0.648,0.128,0.997
		c0.009-0.013,0.018-0.024,0.027-0.038C191.531,284.273,191.801,284.161,192.075,284.1z"/>
	<path fill="#FFEC00" d="M245.484,413.641l-0.327,0.093l-2.076,8.682l19.722-5.937c0.101,0,2.415-7.347,2.415-7.347
		s-4.126,0.755-8.622,1.612c-1.003,0.283-2.083,0.562-3.271,0.84C251.89,411.81,247.401,413.093,245.484,413.641z"/>
	<path d="M259.168,418.218c-1.026,0.21-1.811,0.416-2.639,0.635c-0.614,0.161-1.239,0.325-2.048,0.515
		c-1.356,0.49-2.865,0.95-4.568,1.398c-1.037,0.181-3.095,0.973-4.749,1.608c-0.793,0.305-1.473,0.567-1.849,0.686l-0.116,0.052
		c-0.684,0.406-1.582,1.13-2.146,1.639c-0.243,0.22-0.431,0.404-0.501,0.499l0.308,0.231l0.575,0.434
		c0.151-0.186,1.366-1.266,2.277-1.82c0.399-0.131,1.071-0.389,1.848-0.688c1.524-0.586,3.612-1.389,4.588-1.561
		c1.781-0.467,3.321-0.938,4.644-1.42c0.758-0.173,1.394-0.34,2.019-0.504c0.828-0.218,1.61-0.424,2.633-0.632l0.107-0.033
		c1.399-0.599,2.771-0.999,4.057-1.338c0.071-0.02,0.146-0.04,0.216-0.059l-0.088-0.336l-0.191-0.734
		C262.172,417.149,260.693,417.57,259.168,418.218z"/>
	<path d="M263.491,407.948c-1.153,0.212-2.033,0.419-2.965,0.638c-0.686,0.161-1.385,0.325-2.276,0.511
		c-1.521,0.49-3.214,0.952-5.136,1.403c-1.463,0.228-5.834,1.478-7.935,2.077l-0.746,0.213l0.3,1.064l0.423-0.121l0.327-0.093
		c1.917-0.548,6.406-1.831,7.841-2.057c1.187-0.277,2.267-0.557,3.271-0.84c0.681-0.191,1.332-0.384,1.935-0.579
		c0.845-0.173,1.554-0.339,2.249-0.503c0.931-0.219,1.81-0.425,2.961-0.635l0.098-0.027c1.502-0.572,2.974-0.963,4.361-1.295
		c0.146-0.035,0.296-0.072,0.44-0.106l-0.087-0.37l-0.165-0.706C266.852,406.881,265.197,407.303,263.491,407.948z"/>
	<path fill="#FFE606" d="M191.273,284.467c-0.009,0.014-0.018,0.025-0.027,0.038c0.074,0.116,0.172,0.225,0.299,0.318l0.531-0.724
		C191.801,284.161,191.531,284.273,191.273,284.467z"/>
	<path fill="#FFE606" d="M193.047,284.342c-0.08,0.089-0.157,0.173-0.229,0.249l-0.083-0.079l0.222,0.306
		c-0.368,0.312-0.704,0.412-0.983,0.412c-0.262,0-0.474-0.088-0.614-0.17c-0.083-0.048-0.204-0.134-0.317-0.264
		c-1.333,1.909-2.574,2.957-4.324,5.647c-0.807,1.329-1.896,3.225-6.83,3.701c0,0-9.392,0.143-9.394,0.143
		c-0.142,0-7.257-1.281-11.525-0.997c-3.417,0.427-4.554,4.696-2.277,8.254c1.707,2.751,2.847,3.083,6.262,2.845
		c3.367-0.566,4.601-2.275,6.546-2.986c0,0,3.984-1.566,4.126-1.566c0.145,0,8.114-1.423,11.956,0.427
		c1.991,0.997,2.702,2.276,5.123,5.123c2.418,2.324,3.272,2.088,7.257-1.565c0.427-0.284,6.831-9.533-1.138-17.076
		c-0.1,0-1.688-1.976-3.415-2.545c-0.021,0.084-0.046,0.17-0.086,0.262L193.047,284.342z"/>
	<path fill="#FFEF00" fill-opacity="0.9882" stroke="#000000" d="M382.86,114.309l-3.208-4.442c0,0,2.896-10.864,2.722-10.766
		c-0.176,0.099-10.516,7.991-10.516,7.991l-9.733-3.763l1.235,12.465c0,0-9.167,11.619-8.993,11.521
		c0.177-0.099,12.094-1.489,12.443-1.686c0.352-0.198,3.791,11.259,3.89,11.435c0.1,0.176,5.035-13.219,4.937-13.395
		c-0.096-0.17,5.167-2.704,6.073-2.977C381.453,118.747,381.645,116.297,382.86,114.309z"/>
	<path fill="#FFFFFF" d="M441.286,130.472c-0.288-0.27-0.85-0.734-1.504-1.276c-1.365-1.13-3.063-2.537-3.729-3.351
		c-1.223-1.262-2.363-2.352-3.459-3.298c-0.561-0.613-1.011-1.076-1.451-1.532c-0.597-0.616-1.16-1.198-1.848-1.989
		c-1.309-1.011-2.402-2.094-3.389-3.115l0.544-0.526c-2.027,0.415-4.192,0.892-6.544,1.456c-1.4-0.178-2.8-0.357-4.2-0.535
		c0.97,1.047,2.031,2.139,3.267,3.166l0.072,0.073c0.747,0.901,1.358,1.567,2.005,2.271c0.483,0.525,0.976,1.062,1.538,1.712
		c0.466,0.429,0.953,0.902,1.454,1.402c-2.951-3.498-5.631-6.725-5.631-6.725s7.537-1.583,7.587-1.495l14.84,14.282l-8.583,2.445
		l0.312,0.309l-0.781,0.783l-0.538-0.534c-1.556-1.54-4.794-4.744-5.713-5.91c-1.337-1.456-2.568-2.706-3.74-3.79
		c-0.597-0.685-1.082-1.213-1.559-1.731c-0.647-0.705-1.26-1.372-2.01-2.275c-1.398-1.168-2.578-2.405-3.644-3.569l0.534-0.49
		c-5.464-0.696-10.927-1.393-16.39-2.088c0,0-4.108-3.31-4.535-3.07c-6.397-1.18-9.742,0.63-11.333,3.236
		c-1.215,1.988-1.406,4.438-1.15,6.382c0.009,0.065,0.016,0.132,0.025,0.197c0.524,3.263,1.047,6.527,1.571,9.79
		c0,0-4.111,14.67-3.872,15.097c-10.473,11.762-26.062,49.529-27.061,56.787c-0.473,6.82-3.048,5.588-2.357,12.217
		c0.025,5.18-0.577,1.946,1.152,12.618c0.422,3.212-3.505,2.964-5.758,2.037c-19.198-12.04-37.427-19.891-57.458-30.539
		c-0.452-0.23-0.904-0.46-1.357-0.69c-5.7,4.655-11.127,9.218-16.661,13.816l0.675,0.337l-0.487,0.962l0.735-0.767
		c0.33,0.284,3.245,2.354,4.812,3.467l1.602,1.141c10.504,7.273,28.013,16.84,51.681,21.041c0.698,0.124,1.057,0.188,1.285,0.244
		c0.854,0.021,1.898,0.153,3,0.292l0.991,0.123c0.583,0.058,1.21,0.17,1.816,0.28c0.684,0.123,1.329,0.238,1.913,0.279
		c1.333,0.198,3.541,0.593,5.092,0.96c0.155-0.077,0.348-0.133,0.584-0.149l0.021,0.299c0.117,0.031,0.228,0.062,0.329,0.091
		l-0.031,0.107l0.169-0.335c0.22,0.091,0.39,0.199,0.521,0.314c0.104-1.447,0.645-2.838,0.607-2.904
		c2.67-10.643,13.871-9.593,14.328-9.36c5.137,1.682,5.762,2.312,4.921,5.559c-1.295,3.505-2.062,4.751-1.955,6.976
		c0.271,4.256,5.417,10.505,5.487,10.63c0.069,0.124,3.387,2.83,3.387,2.83c1.573,1.348,3.668,1.585,5.812,4.242
		c1.881,2.86,2.149,4.017,0.589,6.853c-1.985,3.729-6.266,4.829-8.312,2.06c-2.34-3.581-4.71-10.411-4.779-10.535
		c-0.001-0.001-4.728-8.118-4.728-8.118c-2.833-4.068-5.02-4.088-6.573-4.14c-3.387-0.218-4.884-0.847-7.441-1.042
		c-0.634-0.279-0.995-0.77-1.186-1.351c-0.157,0.202-0.403,0.396-0.802,0.517l-0.342,0.104l-0.343-0.1
		c-1.279-0.372-4.085-0.891-5.619-1.123c-0.617-0.039-1.357-0.172-2.074-0.301c-0.587-0.105-1.141-0.205-1.652-0.256l-1.032-0.128
		c-1.101-0.139-2.14-0.271-2.88-0.275l-0.212-0.001l-0.198-0.074c-0.119-0.031-0.513-0.097-1.113-0.203
		c-24.095-4.276-41.928-14.021-52.645-21.443l-1.608-1.145c-2.534-1.799-3.977-2.824-4.749-3.487
		c-1.022-0.877-0.874-1.124-0.528-1.695c-2.533,2.102-5.094,4.212-7.725,6.347c0.664,11.954-1.518,24.619,4.554,37.996
		c0,0-1.222,0.023-2.66,0.042c0.589,0.231,1.177,0.463,1.776,0.715c7.18,4.736,50.807,13.878,57.34,14.823
		c8.273-0.783,19.883,0.257,28.604,3.147c8.337,3.633,16.846,3.473,22.542-0.876c7.737-4.257,10.552-11.52,14.035-18.002
		c1.331-3.426,1.391-7.063-0.051-10.083c-2.569-6.415-1.028-7.979-1.57-11.607c9.41-20.785,11.356-44.993,13.608-62.906
		c-0.283-10.451,0.814-18.447,2.054-21.672c4.989-7.679,12.268-10.874,15.94-12.271c8.806-2.278,17.612-4.555,26.418-6.833
		c-0.72-0.242-1.788-0.67-2.478-1.067L441.286,130.472z"/>
	<path fill="#FFFFFF" d="M459.628,117.542c-6.504-0.944-6.786-7.48-32.769-2.239c0.929,0.956,1.95,1.956,3.155,2.881l0.081,0.077
		c0.684,0.79,1.246,1.371,1.842,1.986c0.449,0.463,0.906,0.936,1.428,1.511c1.073,0.921,2.238,2.033,3.514,3.354
		c0.628,0.766,2.351,2.192,3.608,3.233c0.642,0.531,1.196,0.991,1.506,1.275c0.93,0.522,2.467,1.052,2.702,1.093l-0.096,0.713
		c4.52-1.169,9.039-2.338,13.559-3.507C468.696,124.073,461.811,116.908,459.628,117.542z"/>
	<path fill="#FFFFFF" d="M344.676,241.908c-0.015-0.093-0.021-0.189-0.029-0.284l-0.914-0.145l-0.012,0.038l0.077,1.109
		C344.083,242.599,344.49,242.353,344.676,241.908z"/>
	<path fill="#FFEC00" d="M426.377,127.37c0.903,1.144,4.229,4.435,5.649,5.84l0.229,0.228l8.583-2.445l-14.84-14.282
		c-0.05-0.088-7.587,1.495-7.587,1.495s2.68,3.227,5.631,6.725C424.781,125.666,425.553,126.471,426.377,127.37z"/>
	<path d="M441.993,129.62c-0.31-0.284-0.864-0.744-1.506-1.275c-1.258-1.042-2.98-2.468-3.608-3.233
		c-1.275-1.32-2.44-2.433-3.514-3.354c-0.521-0.575-0.979-1.048-1.428-1.511c-0.596-0.615-1.158-1.196-1.842-1.986l-0.081-0.077
		c-1.205-0.925-2.227-1.925-3.155-2.881c-0.052-0.053-0.106-0.107-0.157-0.16l-0.251,0.242l-0.544,0.526
		c0.986,1.021,2.08,2.104,3.389,3.115c0.688,0.792,1.251,1.374,1.848,1.989c0.44,0.456,0.891,0.919,1.451,1.532
		c1.096,0.946,2.236,2.036,3.459,3.298c0.665,0.814,2.363,2.221,3.729,3.351c0.654,0.542,1.216,1.006,1.504,1.276l0.103,0.076
		c0.689,0.396,1.758,0.825,2.478,1.067c0.312,0.105,0.565,0.178,0.683,0.193l0.051-0.383l0.096-0.713
		C444.46,130.672,442.923,130.142,441.993,129.62z"/>
	<path d="M418.227,120.29c0.75,0.903,1.362,1.57,2.01,2.275c0.477,0.518,0.962,1.046,1.559,1.731c1.172,1.084,2.403,2.334,3.74,3.79
		c0.919,1.167,4.157,4.371,5.713,5.91l0.538,0.534l0.781-0.783l-0.312-0.309l-0.229-0.228c-1.421-1.405-4.746-4.696-5.649-5.84
		c-0.824-0.899-1.597-1.704-2.334-2.439c-0.501-0.5-0.988-0.973-1.454-1.402c-0.562-0.65-1.055-1.187-1.538-1.712
		c-0.646-0.705-1.258-1.37-2.005-2.271l-0.072-0.073c-1.235-1.027-2.297-2.119-3.267-3.166c-0.103-0.111-0.209-0.223-0.31-0.333
		l-0.28,0.257l-0.534,0.49C415.649,117.884,416.828,119.121,418.227,120.29z"/>
	<path fill="#FFE606" d="M344.77,241.644l-0.123-0.02c0.009,0.095,0.015,0.191,0.029,0.284
		C344.712,241.823,344.754,241.744,344.77,241.644z"/>
	<path fill="#FFE606" d="M344.798,242.405c0.19,0.582,0.552,1.072,1.186,1.351c2.558,0.195,4.055,0.823,7.441,1.042
		c1.554,0.052,3.74,0.072,6.573,4.14c0,0,4.727,8.117,4.728,8.118c0.069,0.124,2.439,6.954,4.779,10.535
		c2.046,2.77,6.326,1.669,8.312-2.06c1.561-2.836,1.292-3.992-0.589-6.853c-2.145-2.657-4.239-2.895-5.812-4.242
		c0,0-3.317-2.706-3.387-2.83c-0.07-0.125-5.217-6.375-5.487-10.63c-0.107-2.225,0.66-3.471,1.955-6.976
		c0.841-3.247,0.216-3.876-4.921-5.559c-0.457-0.232-11.658-1.282-14.328,9.36c0.037,0.066-0.504,1.457-0.607,2.904
		c0.386,0.338,0.438,0.744,0.426,0.994C345.058,241.856,345.006,242.139,344.798,242.405z"/>
	<path fill="#FFEF00" fill-opacity="0.9882" stroke="#000000" d="M97.395,176.391c0,0-10.676,3.528-10.498,3.621
		c0.179,0.093,12.446,4.42,12.446,4.42l2.184,10.205l9.751-7.862c0,0,14.742,1.304,14.564,1.212
		c-0.179-0.093-7.87-9.301-8.227-9.486c-0.358-0.186,7.343-9.34,7.436-9.519c0.093-0.179-13.817,3.029-13.91,3.208
		c-0.09,0.173-5.092-2.841-5.817-3.45c-1.486,1.279-3.641,2.461-5.97,2.534L97.395,176.391z"/>
	<path fill="#FFFFFF" d="M283.906,189.383c-1.697-11.545-16.223-48.583-18.846-54.211c-5.188-6.493-10.677-16.774-13.036-25.655
		c-1.527-8.964-6.322-15.995-13.081-18.378c-7.8-4.141-15.417-2.517-22.75-1.88c-3.594,0.764-6.67,2.706-8.406,5.566
		c-3.959,5.663-6.111,5.231-8.851,7.672c-22.543,3.513-43.862,15.146-60.081,23.075c-8.589,5.962-15.879,9.424-19.257,10.154
		c-9.156,0.033-15.816-4.306-18.997-6.613c-10.37-9.429-20.74-18.86-31.11-28.29c-8.988-6.708-11.212,2.976-9.485,4.455
		c3.001,6.449-3.496,10.375,21.173,33.614c3.115,6.398,6.229,12.799,9.345,19.197c0,0-0.519,5.25-0.085,5.475
		c2.519,5.998,5.864,7.806,8.916,7.709c2.329-0.073,4.483-1.255,5.97-2.534c0.05-0.043,0.102-0.085,0.15-0.129
		c2.442-2.226,4.887-4.451,7.33-6.677c0,0,14.525-4.597,14.75-5.031c15.577,2.318,55.713-5.329,62.331-8.469
		c5.965-3.341,6.345-0.511,11.512-4.72c4.319-2.859,1.944-0.583,9.925-7.876c2.457-2.113,4.4,1.308,4.858,3.701
		c0.413,21.055,3.392,39.432,5.469,60.056c3.606,0.875,29.493,11.307,33.364,11.437
		C260.141,209.156,279.322,193.225,283.906,189.383z M83.138,139.396c0,0-5.453-5.439-5.406-5.528l3.818-20.238l7.196,6.23
		C89.056,120.134,83.138,139.396,83.138,139.396z M234.904,98.478c-1.715,3.919-6.13,9.643-6.195,9.769
		c-0.001,0.002-4.202,8.402-4.202,8.402c-1.851,4.599-0.67,6.439,0.138,7.768c1.673,2.953,1.967,4.549,3.205,6.795
		c0.467,2.807-4.513,3.752-4.578,3.878c-10.366,3.596-15.623-6.35-15.68-6.859c-1.406-5.219-1.223-6.086,1.955-7.162
		c3.642-0.836,5.104-0.877,6.907-2.186c3.412-2.557,5.82-10.286,5.887-10.414c0.065-0.126,0.512-4.383,0.512-4.383
		c0.266-2.055-0.683-3.937,0.365-7.187c1.362-3.141,2.183-3.999,5.41-4.247C232.833,92.272,236.099,95.249,234.904,98.478z"/>
	<path fill="#FFFFFF" d="M223.266,208.091c-0.262-0.116-0.524-0.231-0.786-0.348c0.003,0.035,0.007,0.069,0.011,0.103
		C222.75,207.928,223.008,208.009,223.266,208.091z"/>
	<path fill="#FFEC00" d="M81.55,113.63l-3.818,20.238c-0.047,0.089,5.406,5.528,5.406,5.528s5.918-19.262,5.608-19.537L81.55,113.63
		z"/>
	<path fill="#FFE606" d="M228.627,92.653c-3.228,0.248-4.048,1.106-5.41,4.247c-1.048,3.25-0.1,5.132-0.365,7.187
		c0,0-0.446,4.257-0.512,4.383c-0.066,0.127-2.475,7.856-5.887,10.414c-1.803,1.309-3.266,1.35-6.907,2.186
		c-3.178,1.076-3.361,1.943-1.955,7.162c0.057,0.509,5.313,10.455,15.68,6.859c0.065-0.126,5.045-1.071,4.578-3.878
		c-1.238-2.246-1.532-3.843-3.205-6.795c-0.808-1.328-1.988-3.169-0.138-7.768c0,0,4.201-8.4,4.202-8.402
		c0.065-0.126,4.48-5.85,6.195-9.769C236.099,95.249,232.833,92.272,228.627,92.653z"/>
	<path fill="#FFEF00" fill-opacity="0.9874" stroke="#000000" stroke-width="2.4024" d="M261.276,219.143
		c2.631-2.135,5.191-4.245,7.725-6.347v0l0.576-0.955l0.357,0.179c5.534-4.599,10.961-9.161,16.661-13.816
		c0.572-0.467,1.139-0.932,1.717-1.401c-2.323-1.092-3.176-6.262-3.413-8.254c0,0-0.36,0.305-0.993,0.835
		c-4.584,3.842-23.765,19.773-28.893,21.648c-3.871-0.13-29.758-10.562-33.364-11.437c-0.369-0.089-0.507-0.08-0.361,0.052
		c0.664,2.8-0.521,5.74-1.992,6.689c0.016,0.007,0.031,0.014,0.047,0.021c1.046,0.467,2.092,0.922,3.138,1.386
		c0.262,0.116,0.524,0.231,0.786,0.348c8.875,3.935,17.75,7.801,26.624,11.765c0,0,0.325,4.4,1.073,10.22
		c0.494-0.066,0.648,0.167,0.894,0.564l0.585,0.948l-0.931,0.682l-0.313-0.431c1.22,8.891,3.367,20.194,6.757,24.588
		c0.201,0.261,0.407,0.501,0.617,0.711c0,0.083,2.524,0.068,4.597,0.042c1.438-0.019,2.66-0.042,2.66-0.042
		C259.758,243.762,261.94,231.097,261.276,219.143z"/>
	<path d="M244.811,232.974l-1.731,0.895c-11.504,6.137-28.328,17.539-43.15,37.01c-0.369,0.484-0.606,0.804-0.688,0.895
		l-0.156,0.143l-0.098,0.188c-0.343,0.656-0.937,1.521-1.565,2.438l-0.584,0.857c-0.279,0.432-0.622,0.88-0.984,1.354
		c-0.441,0.578-0.898,1.175-1.214,1.705c-0.91,1.26-2.656,3.519-3.569,4.483l-0.245,0.258l-0.064,0.351
		c-0.113,0.617,0.071,1.009,0.279,1.247c0.113,0.13,0.233,0.216,0.317,0.264c0.141,0.082,0.352,0.17,0.614,0.17
		c0.279,0,0.615-0.1,0.983-0.412l-0.222-0.306l0.083,0.079c0.073-0.076,0.149-0.16,0.229-0.249l0.276,0.119
		c0.04-0.092,0.064-0.178,0.086-0.262c0.03-0.115,0.049-0.227,0.05-0.327c1.034-1.211,2.396-2.993,3.184-4.09
		c0.303-0.5,0.701-1.02,1.122-1.57c0.375-0.49,0.763-0.997,1.08-1.489l0.562-0.823c0.629-0.917,1.225-1.786,1.634-2.537
		c0.153-0.177,0.374-0.465,0.803-1.028c14.559-19.125,31.076-30.321,42.351-36.335l1.724-0.892c1.712-0.888,4.9-2.541,5.306-2.705
		l-0.346-1.005l0.32,0.442l0.313,0.431l0.931-0.682l-0.585-0.948c-0.245-0.397-0.4-0.63-0.894-0.564
		c-0.212,0.028-0.48,0.106-0.856,0.259C249.161,230.719,247.584,231.537,244.811,232.974z M191.545,284.823
		c-0.127-0.094-0.225-0.202-0.299-0.318c-0.223-0.349-0.225-0.76-0.128-0.997l1.021,0.441l0.028,0.026l-0.091,0.124L191.545,284.823
		z"/>
	<path d="M269,212.795L269,212.795c-0.346,0.572-0.494,0.819,0.528,1.696c0.772,0.664,2.215,1.688,4.749,3.487l1.608,1.145
		c10.717,7.422,28.55,17.167,52.645,21.443c0.601,0.106,0.994,0.172,1.113,0.203l0.198,0.074l0.212,0.001
		c0.74,0.005,1.779,0.136,2.88,0.275l1.032,0.128c0.512,0.051,1.065,0.15,1.652,0.256c0.717,0.129,1.457,0.262,2.074,0.301
		c1.534,0.232,4.34,0.751,5.619,1.123l0.343,0.1l0.342-0.104c0.398-0.121,0.645-0.315,0.802-0.517
		c0.208-0.267,0.26-0.549,0.268-0.705c0.013-0.25-0.04-0.656-0.426-0.994c-0.131-0.116-0.301-0.223-0.521-0.314l-0.169,0.335
		l0.031-0.107c-0.102-0.03-0.212-0.06-0.329-0.091l-0.021-0.299c-0.236,0.016-0.429,0.072-0.584,0.149
		c-1.551-0.367-3.759-0.762-5.092-0.96c-0.584-0.041-1.229-0.157-1.913-0.279c-0.606-0.109-1.233-0.222-1.816-0.28l-0.991-0.123
		c-1.102-0.139-2.146-0.271-3-0.292c-0.229-0.055-0.587-0.12-1.285-0.244c-23.668-4.201-41.177-13.767-51.681-21.041l-1.602-1.141
		c-1.566-1.112-4.481-3.183-4.812-3.467l-0.735,0.767l0.487-0.962l-0.675-0.337l-0.357-0.179L269,212.795z M343.733,241.479
		l0.914,0.145l0.123,0.02c-0.016,0.1-0.058,0.18-0.094,0.265c-0.186,0.444-0.593,0.691-0.878,0.717l-0.077-1.109L343.733,241.479z"
		/>
</g>
</svg>
