<?xml version="1.0" encoding="utf-8"?>
<!-- Generator: Adobe Illustrator 16.0.0, SVG Export Plug-In . SVG Version: 6.00 Build 0)  -->
<svg version="1.2" baseProfile="tiny"
	 id="svg378" xmlns:cc="http://creativecommons.org/ns#" xmlns:dc="http://purl.org/dc/elements/1.1/" xmlns:rdf="http://www.w3.org/1999/02/22-rdf-syntax-ns#"
	 xmlns="http://www.w3.org/2000/svg" xmlns:xlink="http://www.w3.org/1999/xlink" x="0px" y="0px" width="512px" height="512px"
	 viewBox="0 0 512 512" xml:space="preserve">
<g>
	<path fill="#FFFFFF" d="M512.003,170.667h-512v170.667h512V170.667z M255.999,336.792c-44.621,0-80.793-36.173-80.793-80.792
		c0-44.621,36.172-80.793,80.793-80.793c44.62,0,80.792,36.172,80.792,80.793C336.791,300.619,300.619,336.792,255.999,336.792z"/>
	<rect x="0.003" y="341.334" fill="#329203" width="512" height="170.666"/>
	<rect x="0.003" fill="#E77300" width="512" height="170.667"/>
	<path fill="#08399C" d="M255.999,175.207c-44.621,0-80.793,36.172-80.793,80.793c0,44.62,36.172,80.792,80.793,80.792
		c44.62,0,80.792-36.173,80.792-80.792C336.791,211.379,300.619,175.207,255.999,175.207z M327.023,269.591
		c-0.304,1.548-0.489,2.433-0.913,4.052c-11.585-3.029-23.61-6.92-34.731-10.938c-8.209-2.945-10.823-1.142-15.289-1.925
		c-5.159-0.921-9.065-2.271-19.561-4.608c10.215,3.342,14.481,4.265,19.124,6.01c4.469,1.711,5.199,4.102,14.538,5.503
		c11.843,1.687,24.105,4.148,35.702,7.138c-0.418,1.621-0.765,2.414-1.253,3.914c-3.236-0.723-5.716,0.291-6.434,2.314
		c-0.671,1.809-0.794,4.857,2.934,6.327c-0.692,1.417-1.102,2.224-1.929,3.679c-10.407-5.922-21.019-12.791-30.723-19.547
		c-7.167-4.969-10.159-3.902-14.271-5.813c-4.746-2.224-8.171-4.538-17.704-9.51c9.002,5.872,12.884,7.866,16.916,10.753
		c3.874,2.81,3.961,5.309,12.619,9.078c11.002,4.693,22.21,10.246,32.638,16.135c-0.822,1.457-1.363,2.134-2.223,3.456
		c-2.939-1.535-5.597-1.198-6.813,0.571c-1.116,1.572-2.023,4.486,1.196,6.87c-1.036,1.188-1.64,1.863-2.815,3.054
		c-8.52-8.414-16.992-17.795-24.616-26.832c-5.638-6.654-8.805-6.398-12.28-9.309c-4.006-3.372-6.714-6.493-14.621-13.75
		c7.163,7.987,10.394,10.92,13.538,14.748c3.014,3.719,2.45,6.154,9.837,12.037c9.411,7.383,18.799,15.648,27.346,24.037
		c-1.172,1.194-1.869,1.708-3.042,2.763c-2.441-2.244-5.095-2.606-6.729-1.214c-1.485,1.23-3.117,3.811-0.624,6.947
		c-1.309,0.879-2.066,1.375-3.511,2.221c-6.05-10.334-11.804-21.589-16.827-32.293c-3.723-7.887-6.847-8.459-9.451-12.171
		c-2.997-4.298-4.805-8.015-10.572-17.087c4.837,9.596,7.193,13.271,9.23,17.791c1.939,4.375,0.761,6.58,6.355,14.187
		c7.159,9.583,14.065,20.011,20.127,30.339l0,0v0.001v-0.001c-1.442,0.848-2.25,1.162-3.657,1.873
		c-1.771-2.803-4.238-3.846-6.179-2.926c-1.755,0.8-4.003,2.863-2.415,6.542c-1.493,0.509-2.354,0.788-3.968,1.228
		c-3.145-11.554-5.763-23.92-7.819-35.563c-1.535-8.585-4.402-9.954-5.948-14.216c-1.771-4.932-2.547-8.991-5.747-19.25
		c2.181,10.521,3.502,14.679,4.297,19.574c0.737,4.729-0.973,6.552,2.456,15.351c4.428,11.111,8.391,22.975,11.564,34.522
		c-1.613,0.443-2.475,0.537-4.019,0.86c-0.982-3.168-3.095-4.814-5.207-4.431c-1.903,0.317-4.609,1.728-4.03,5.692
		c-1.573,0.103-2.478,0.15-4.15,0.155c-0.039-11.975,0.643-24.597,1.678-36.375c0.745-8.688-1.669-10.755-2.055-15.271
		c-0.432-5.22-0.127-9.341-0.555-20.067c-0.635,10.712-0.445,15.072-0.952,20.001c-0.521,4.757-2.647,6.07-1.63,15.459
		c1.378,11.883,2.112,24.369,2.167,36.344c-1.673,0.008-2.529-0.126-4.104-0.217c-0.123-3.314-1.732-5.455-3.872-5.635
		c-1.92-0.189-4.9,0.467-5.375,4.445c-1.546-0.311-2.431-0.5-4.048-0.932c3.084-11.57,7.031-23.578,11.101-34.68
		c2.983-8.195,1.192-10.818,1.996-15.279c0.945-5.159,2.315-9.061,4.705-19.559c-3.391,10.213-4.332,14.478-6.098,19.116
		c-1.731,4.461-4.125,5.182-5.566,14.514c-1.737,11.836-4.252,24.088-7.292,35.672v-0.001c-1.618-0.425-2.41-0.774-3.908-1.27
		c0.736-3.233-0.266-5.717-2.286-6.443c-1.806-0.679-4.854-0.814-6.34,2.906c-1.414-0.698-2.22-1.11-3.671-1.944
		c5.968-10.383,12.882-20.964,19.68-30.639c4.999-7.146,3.945-10.143,5.875-14.245c2.243-4.734,4.571-8.148,9.579-17.649
		c-5.908,8.965-7.921,12.836-10.825,16.853c-2.828,3.861-5.327,3.936-9.139,12.576c-4.745,10.98-10.351,22.162-16.288,32.562v-0.001
		c-1.453-0.829-2.128-1.374-3.445-2.239c1.549-2.932,1.225-5.59-0.539-6.815c-1.567-1.124-4.478-2.046-6.876,1.163
		c-1.184-1.041-1.855-1.648-3.041-2.83c8.454-8.479,17.875-16.907,26.948-24.489c6.681-5.605,6.439-8.773,9.366-12.235
		c3.395-3.993,6.528-6.687,13.831-14.568c-8.036,7.127-10.985,10.343-14.833,13.469c-3.733,2.993-6.166,2.417-12.09,9.771
		c-7.434,9.371-15.749,18.715-24.184,27.217c-1.188-1.18-1.698-1.879-2.746-3.058c2.257-2.429,2.634-5.081,1.249-6.722
		c-1.223-1.492-3.793-3.138-6.942-0.662c-0.873-1.312-1.364-2.073-2.201-3.521c10.365-5.995,21.651-11.688,32.382-16.654
		c7.906-3.679,8.497-6.801,12.222-9.385c4.315-2.975,8.042-4.762,17.148-10.483c-9.629,4.782-13.318,7.115-17.851,9.125
		c-4.387,1.913-6.584,0.721-14.226,6.27c-9.626,7.102-20.096,13.943-30.46,19.943c-0.839-1.448-1.147-2.258-1.852-3.669
		c2.814-1.754,3.872-4.215,2.965-6.161c-0.79-1.76-2.841-4.02-6.528-2.454c-0.499-1.496-0.774-2.358-1.204-3.976
		c11.573-3.074,23.955-5.617,35.611-7.604c8.594-1.483,9.979-4.342,14.251-5.861c4.939-1.741,9.002-2.493,19.269-5.626
		c-10.521,2.105-14.688,3.397-19.584,4.157c-4.733,0.705-6.545-1.018-15.367,2.35c-11.143,4.351-23.033,8.231-34.603,11.325
		c-0.432-1.616-0.52-2.478-0.832-4.024c3.174-0.961,4.836-3.061,4.467-5.176c-0.305-1.905-1.696-4.621-5.664-4.07
		c-0.093-1.574-0.134-2.479-0.127-4.151c11.975,0.044,24.591,0.813,36.362,1.93c8.684,0.806,10.766-1.594,15.286-1.948
		c5.222-0.396,9.342-0.062,20.075-0.416c-10.712-0.708-15.073-0.547-20-1.088c-4.753-0.553-6.053-2.688-15.447-1.734
		c-11.892,1.297-24.383,1.947-36.358,1.92v0v0l0,0c0.004-1.673,0.144-2.528,0.245-4.102c3.314-0.101,5.466-1.696,5.66-3.835
		c0.203-1.918-0.433-4.903-4.408-5.404c0.321-1.543,0.518-2.427,0.959-4.042c11.55,3.163,23.53,7.191,34.604,11.335
		c8.174,3.04,10.81,1.266,15.266,2.101c5.149,0.979,9.04,2.375,19.509,4.833c-10.188-3.436-14.446-4.397-19.072-6.185
		c-4.453-1.753-5.162-4.15-14.487-5.637c-11.827-1.794-24.066-4.368-35.636-7.464v0v0l0,0c0.433-1.616,0.787-2.407,1.288-3.902
		c3.23,0.752,5.719-0.238,6.455-2.255c0.688-1.803,0.838-4.851-2.876-6.354c0.706-1.41,1.122-2.214,1.963-3.661
		c10.353,6.017,20.9,12.982,30.542,19.827c7.122,5.034,10.124,3.995,14.218,5.944c4.724,2.266,8.127,4.611,17.608,9.667
		c-8.941-5.954-12.804-7.986-16.806-10.91c-3.847-2.847-3.91-5.346-12.531-9.199c-10.958-4.798-22.112-10.458-32.483-16.446l0.001,0
		c0.836-1.449,1.384-2.121,2.255-3.435c2.925,1.563,5.585,1.252,6.818-0.505c1.132-1.562,2.067-4.467-1.13-6.882
		c1.047-1.179,1.657-1.848,2.845-3.027c8.439,8.495,16.821,17.956,24.359,27.066c5.573,6.708,8.742,6.482,12.19,9.425
		c3.977,3.414,6.655,6.562,14.506,13.906c-7.053-8.107-10.242-11.086-13.332-14.965c-2.958-3.762-2.359-6.189-9.657-12.182
		c-9.301-7.522-18.564-15.926-26.986-24.44c0,0,0,0,0,0v0l0,0c1.189-1.176,1.895-1.68,3.083-2.717
		c2.407,2.28,5.056,2.682,6.71,1.313c1.503-1.208,3.173-3.763,0.727-6.936c1.321-0.86,2.087-1.344,3.543-2.168
		c5.896,10.422,11.482,21.761,16.347,32.539c3.604,7.941,6.721,8.561,9.27,12.31c2.932,4.34,4.684,8.083,10.31,17.229
		c-4.733-9.636-7.048-13.334-9.038-17.874c-1.894-4.395-0.691-6.587-6.206-14.252c-7.059-9.657-13.854-20.158-19.809-30.548l0,0v0v0
		c1.452-0.832,2.263-1.138,3.677-1.835c1.742,2.822,4.198,3.89,6.148,2.992c1.764-0.782,4.032-2.822,2.483-6.517
		c1.497-0.492,2.361-0.764,3.98-1.186c3.023,11.586,5.511,23.979,7.446,35.644c1.445,8.6,4.297,9.999,5.798,14.277
		c1.72,4.948,2.453,9.016,5.544,19.304c-2.103-10.531-3.395-14.7-4.153-19.599c-0.703-4.734,1.021-6.544-2.345-15.367
		c-4.347-11.145-8.223-23.036-11.313-34.606l0,0v0v0c1.617-0.432,2.479-0.519,4.024-0.831c0.96,3.174,3.061,4.836,5.176,4.468
		c1.905-0.304,4.621-1.694,4.071-5.663c1.574-0.092,2.479-0.132,4.151-0.125c-0.048,11.974-0.821,24.59-1.941,36.362
		c-0.809,8.683,1.59,10.767,1.943,15.286c0.394,5.225,0.06,9.345,0.408,20.085c0.659-10.723,0.477-15.083,0.995-20.013
		c0.53-4.756,2.66-6.066,1.662-15.456c-1.353-11.885-2.061-24.373-2.09-36.349l0,0v0v0c1.674-0.004,2.529,0.132,4.104,0.226
		c0.116,3.314,1.722,5.458,3.86,5.643c1.92,0.193,4.901-0.457,5.384-4.434c1.546,0.313,2.431,0.505,4.046,0.94
		c-3.108,11.564-7.08,23.563-11.173,34.657c-3.002,8.188-1.216,10.815-2.029,15.275c-0.955,5.151-2.332,9.048-4.738,19.518
		c3.405-10.186,4.354-14.445,6.13-19.074c1.741-4.458,4.137-5.173,5.598-14.502c1.764-11.831,4.306-24.078,7.37-35.655
		c1.618,0.428,2.409,0.78,3.905,1.278c-0.743,3.231,0.254,5.717,2.273,6.448c1.804,0.683,4.853,0.825,6.346-2.893
		c1.412,0.702,2.217,1.116,3.666,1.953c-5.99,10.369-12.927,20.935-19.746,30.595c-5.016,7.135-3.968,10.134-5.906,14.233
		c-2.253,4.729-4.589,8.138-9.617,17.626c5.918-8.956,7.937-12.825,10.845-16.837c2.834-3.857,5.333-3.929,9.154-12.564
		c4.76-10.974,10.379-22.148,16.33-32.541v0c1.452,0.831,2.126,1.376,3.442,2.243c-1.553,2.93-1.231,5.589,0.53,6.817
		c1.566,1.125,4.475,2.051,6.878-1.155c1.183,1.043,1.854,1.651,3.037,2.834c-8.465,8.469-17.896,16.885-26.979,24.455
		c-6.688,5.598-6.451,8.766-9.382,12.224c-3.4,3.99-6.54,6.68-13.861,14.563c8.035-7.149,10.979-10.373,14.825-13.506
		c3.729-3,6.162-2.428,12.074-9.792c7.418-9.384,15.718-18.741,24.139-27.256c-0.001,0-0.001,0-0.001,0h0.001v0
		c1.189,1.176,1.7,1.875,2.751,3.052c-2.254,2.433-2.626,5.085-1.239,6.724c1.226,1.49,3.799,3.131,6.944,0.65
		c0.875,1.312,1.367,2.071,2.207,3.519c-10.355,6.012-21.632,11.724-32.354,16.708c-7.901,3.692-8.486,6.815-12.207,9.405
		c-4.309,2.981-8.032,4.775-17.12,10.505c9.618-4.78,13.307-7.115,17.837-9.126c4.386-1.915,6.584-0.723,14.223-6.275
		c9.623-7.104,20.091-13.951,30.453-19.955c0.838,1.448,1.147,2.257,1.852,3.668c-2.813,1.755-3.87,4.216-2.962,6.163
		c0.791,1.759,2.842,4.019,6.529,2.452c0.499,1.496,0.774,2.358,1.205,3.975c-11.572,3.079-23.952,5.626-35.607,7.617
		c-8.594,1.486-9.979,4.346-14.249,5.867c-4.941,1.743-9.004,2.496-19.278,5.636c10.516-2.172,14.677-3.49,19.57-4.28
		c4.729-0.734,6.55,0.978,15.352-2.444c11.116-4.418,22.982-8.373,34.532-11.538c0.441,1.614,0.535,2.475,0.856,4.019
		c-3.168,0.98-4.816,3.091-4.435,5.204c0.316,1.903,1.725,4.61,5.689,4.034c0.102,1.574,0.148,2.478,0.152,4.151
		c-11.975,0.029-24.596-0.662-36.373-1.706c-8.688-0.752-10.757,1.66-15.274,2.042c-5.22,0.427-9.34,0.12-20.069,0.539
		c10.718,0.585,15.076,0.373,20.008,0.858c4.76,0.498,6.084,2.619,15.468,1.557c11.875-1.434,24.357-2.226,36.333-2.337
		c0.016,1.673-0.114,2.53-0.198,4.104c-3.312,0.139-5.446,1.759-5.616,3.899C322.372,266.158,323.042,269.135,327.023,269.591z"/>
	<path fill="#08399C" d="M256.487,256.146c0.003-0.005,0.006-0.009,0.009-0.014c0.001-0.001,0.001-0.002,0.001-0.004
		c0-0.001,0-0.003,0-0.005c-0.001-0.003-0.001-0.006-0.002-0.009c-0.001-0.002-0.002-0.005-0.004-0.007
		c-0.001-0.001-0.002-0.003-0.003-0.004c-0.002-0.001-0.004-0.003-0.007-0.004c0,0,0,0-0.001,0c-0.005,0-0.01,0-0.015-0.001
		c-0.003,0-0.006,0.001-0.009,0.002c-0.002,0.002-0.005,0.004-0.008,0.007c-0.001,0.001-0.002,0.003-0.003,0.005
		c0,0.007,0,0.014-0.001,0.021c0,0,0,0,0,0c0.001,0.001,0.001,0.003,0.002,0.005c0.003,0.004,0.006,0.007,0.01,0.011
		c0.002,0.001,0.004,0.001,0.006,0.002c0.004,0,0.008,0,0.013,0c0.001,0,0.003,0,0.005-0.001
		C256.482,256.148,256.484,256.147,256.487,256.146z"/>
	<path fill="#FFFFFF" d="M256.514,256.152c-0.001-0.002-0.002-0.003-0.003-0.005c-0.002,0.001-0.004,0.001-0.006,0.002
		c0,0.001,0,0.002,0,0.003c0.018,0.001,0.034,0.002,0.053,0.003c10.729-0.419,14.85-0.112,20.069-0.539
		c4.518-0.383,6.586-2.795,15.274-2.042c11.777,1.044,24.398,1.735,36.373,1.706c-0.004-1.673-0.051-2.578-0.152-4.151
		c-3.965,0.576-5.373-2.131-5.689-4.034c-0.382-2.113,1.267-4.224,4.435-5.204c-0.321-1.544-0.415-2.405-0.856-4.019
		c-11.55,3.165-23.416,7.119-34.532,11.538c-8.802,3.422-10.623,1.71-15.352,2.444c-4.894,0.791-9.055,2.108-19.57,4.28
		c-0.016,0.005-0.029,0.009-0.045,0.014C256.513,256.149,256.513,256.15,256.514,256.152z"/>
	<polygon fill="#FFFFFF" points="256.474,256.15 256.477,256.151 256.48,256.149 	"/>
	<rect x="256.501" y="256.149" fill="#FFFFFF" width="0.001" height="0.004"/>
	<polygon fill="#FFFFFF" points="256.495,256.115 256.497,256.124 256.497,256.119 	"/>
	<polygon fill="#FFFFFF" points="238.668,186.466 238.668,186.466 238.668,186.465 	"/>
	<rect x="256.497" y="256.09" fill="#FFFFFF" width="0.003" height="0.005"/>
	<rect x="256.499" y="256.1" fill="#FFFFFF" width="0" height="0.001"/>
	<path fill="#FFFFFF" d="M256.497,256.078c-0.001,0.001-0.003,0.001-0.005,0.002c0.001,0.003,0.002,0.005,0.002,0.008
		c0.001,0,0.003,0,0.004,0c0.001-0.014,0.001-0.027,0.002-0.041c-0.349-10.74-0.014-14.86-0.408-20.085
		c-0.354-4.52-2.752-6.603-1.943-15.286c1.12-11.771,1.894-24.388,1.941-36.362c-1.673-0.007-2.577,0.034-4.151,0.125
		c0.55,3.969-2.166,5.359-4.071,5.663c-2.115,0.369-4.216-1.294-5.176-4.468c-1.546,0.312-2.407,0.399-4.024,0.831
		c3.091,11.571,6.967,23.462,11.313,34.606c3.365,8.823,1.642,10.633,2.345,15.367c0.759,4.898,2.05,9.067,4.153,19.599
		c0.004,0.014,0.008,0.027,0.013,0.042C256.494,256.079,256.495,256.079,256.497,256.078z"/>
	<rect x="256.502" y="256.15" fill="#FFFFFF" width="0.003" height="0.002"/>
	<rect x="256.502" y="256.098" fill="#FFFFFF" width="0" height="0.007"/>
	<polygon fill="#FFFFFF" points="257.069,184.23 257.069,184.23 257.069,184.229 	"/>
	<rect x="256.501" y="256.104" fill="#FFFFFF" width="0" height="0.005"/>
	<polygon fill="#FFFFFF" points="256.496,256.152 256.499,256.152 256.499,256.151 	"/>
	<path fill="#FFFFFF" d="M256.509,256.088c-0.003,0-0.007,0.001-0.01,0.002c0,0.002,0,0.004,0,0.006
		c0.002,0.001,0.005,0.001,0.008,0.002c0.005-0.015,0.009-0.028,0.015-0.043c2.406-10.47,3.783-14.366,4.738-19.518
		c0.813-4.46-0.973-7.087,2.029-15.275c4.093-11.093,8.064-23.093,11.173-34.657c-1.615-0.435-2.5-0.626-4.046-0.94
		c-0.482,3.977-3.464,4.627-5.384,4.434c-2.139-0.185-3.744-2.329-3.86-5.643c-1.574-0.094-2.43-0.23-4.104-0.226
		c0.029,11.976,0.737,24.463,2.09,36.349c0.998,9.39-1.132,10.7-1.662,15.456c-0.519,4.93-0.336,9.291-0.995,20.013
		c-0.001,0.014-0.001,0.027-0.002,0.041C256.502,256.088,256.506,256.088,256.509,256.088z"/>
	<circle fill="#FFFFFF" cx="256.498" cy="256.123" r="0.001"/>
	<path fill="#FFFFFF" d="M256.517,256.101c0.008-0.013,0.016-0.023,0.023-0.036c5.028-9.489,7.364-12.898,9.617-17.626
		c1.938-4.099,0.891-7.098,5.906-14.233c6.819-9.66,13.756-20.226,19.746-30.595c-1.449-0.837-2.254-1.251-3.666-1.953
		c-1.493,3.718-4.542,3.575-6.346,2.893c-2.02-0.731-3.017-3.217-2.273-6.448c-1.496-0.498-2.287-0.85-3.905-1.278
		c-3.064,11.577-5.606,23.824-7.37,35.655c-1.461,9.33-3.856,10.044-5.598,14.502c-1.775,4.629-2.725,8.888-6.13,19.074
		c-0.006,0.015-0.01,0.028-0.015,0.043C256.51,256.099,256.513,256.1,256.517,256.101z"/>
	<rect x="256.505" y="256.106" fill="#FFFFFF" width="0.002" height="0.007"/>
	<polygon fill="#FFFFFF" points="256.504,256.114 256.506,256.117 256.507,256.116 	"/>
	<polygon fill="#FFFFFF" points="256.5,256.125 256.499,256.122 256.497,256.128 256.495,256.132 	"/>
	<rect x="256.507" y="256.1" fill="#FFFFFF" width="0.004" height="0.008"/>
	<rect x="256.508" y="256.116" fill="#FFFFFF" width="0.001" height="0.009"/>
	<path fill="#FFFFFF" d="M256.517,256.101L256.517,256.101c-0.002,0.002-0.003,0.004-0.005,0.007
		c0.003,0.001,0.006,0.003,0.009,0.004c-0.003-0.001-0.006-0.002-0.01-0.003c-0.001,0.002-0.002,0.003-0.003,0.004
		c0.003,0.002,0.005,0.005,0.008,0.007c0.007-0.006,0.012-0.011,0.019-0.017c7.321-7.883,10.461-10.573,13.861-14.563
		c2.931-3.458,2.694-6.626,9.382-12.224c9.083-7.57,18.515-15.986,26.979-24.455c-1.184-1.183-1.854-1.791-3.037-2.834
		c-2.403,3.206-5.312,2.281-6.878,1.155c-1.762-1.228-2.083-3.887-0.53-6.817c-1.316-0.867-1.99-1.412-3.442-2.243v0
		c-5.951,10.393-11.57,21.567-16.33,32.541c-3.821,8.635-6.32,8.707-9.154,12.564c-2.908,4.012-4.927,7.881-10.845,16.837
		C256.532,256.077,256.525,256.088,256.517,256.101L256.517,256.101z"/>
	<path fill="#FFFFFF" d="M256.503,256.131c-0.001-0.002-0.002-0.004-0.003-0.006c-0.001,0.002-0.003,0.005-0.005,0.007
		c-0.003,0.005-0.006,0.009-0.009,0.014c0,0,0,0,0.001,0C256.493,256.141,256.498,256.136,256.503,256.131z"/>
	<polygon fill="#FFFFFF" points="256.507,256.128 256.509,256.127 256.505,256.123 	"/>
	<polygon fill="#FFFFFF" points="307.572,205.549 307.573,205.549 307.573,205.549 	"/>
	<path fill="#FFFFFF" d="M256.522,256.125c-0.002-0.001-0.005-0.003-0.007-0.004c-0.001,0.001-0.003,0.002-0.004,0.003
		c0.001,0.002,0.003,0.005,0.004,0.007c0.014-0.007,0.026-0.013,0.04-0.02c9.088-5.73,12.812-7.524,17.12-10.505
		c3.721-2.59,4.306-5.713,12.207-9.405c10.722-4.984,21.998-10.696,32.354-16.708c-0.84-1.447-1.332-2.207-2.207-3.519
		c-3.146,2.481-5.719,0.84-6.944-0.65c-1.387-1.639-1.015-4.291,1.239-6.724c-1.051-1.176-1.562-1.876-2.751-3.052
		c-8.421,8.516-16.721,17.872-24.139,27.256c-5.912,7.364-8.346,6.792-12.074,9.792c-3.846,3.133-6.79,6.357-14.825,13.506
		c-0.007,0.006-0.012,0.011-0.019,0.017C256.518,256.122,256.52,256.124,256.522,256.125z"/>
	<path fill="#FFFFFF" d="M256.503,256.131c-0.005,0.005-0.01,0.009-0.016,0.014c0.006-0.003,0.012-0.006,0.019-0.009
		C256.505,256.135,256.504,256.133,256.503,256.131z"/>
	<rect x="256.506" y="256.127" fill="#FFFFFF" width="0.005" height="0.007"/>
	<path fill="#FFFFFF" d="M256.502,256.15c0.001,0,0.002,0,0.003,0c0.002-0.001,0.004-0.001,0.006-0.002
		c-0.002-0.003-0.003-0.007-0.005-0.011c-0.006,0.003-0.012,0.006-0.019,0.009c0,0,0,0-0.001,0
		c-0.002,0.001-0.004,0.002-0.007,0.003c-0.001,0-0.002,0.001-0.003,0.001c0.007,0,0.013,0,0.02,0.001c0.001,0,0.001,0,0.003-0.001
		C256.5,256.15,256.501,256.15,256.502,256.15z"/>
	<path fill="#FFFFFF" d="M256.521,256.141c-0.003-0.003-0.005-0.005-0.007-0.008c-0.002,0.001-0.004,0.002-0.005,0.002
		c0.001,0.004,0.002,0.008,0.003,0.012c0.016-0.005,0.029-0.009,0.045-0.014c10.274-3.14,14.337-3.893,19.278-5.636
		c4.271-1.521,5.655-4.38,14.249-5.867c11.655-1.991,24.035-4.538,35.607-7.617c-0.431-1.617-0.706-2.479-1.205-3.975
		c-3.688,1.567-5.738-0.692-6.529-2.452c-0.908-1.946,0.148-4.407,2.962-6.163c-0.704-1.411-1.014-2.22-1.852-3.668
		c-10.362,6.003-20.83,12.85-30.453,19.955c-7.639,5.552-9.837,4.36-14.223,6.275c-4.53,2.011-8.219,4.346-17.837,9.126
		c-0.014,0.007-0.026,0.013-0.04,0.02C256.517,256.135,256.519,256.138,256.521,256.141z"/>
	<polygon fill="#FFFFFF" points="256.436,256.097 256.44,256.096 256.436,256.095 	"/>
	<polygon fill="#FFFFFF" points="256.46,256.097 256.457,256.098 256.456,256.099 256.465,256.097 	"/>
	<path fill="#FFFFFF" d="M256.425,256.096c0,0.001,0.001,0.002,0.002,0.004c0.002-0.001,0.005-0.001,0.007-0.002
		c0,0,0-0.001,0-0.002c-0.017-0.001-0.032-0.002-0.049-0.003c-10.733,0.353-14.853,0.02-20.075,0.416
		c-4.521,0.354-6.603,2.754-15.286,1.948c-11.771-1.116-24.388-1.886-36.362-1.93c-0.007,1.673,0.034,2.577,0.127,4.151
		c3.968-0.551,5.359,2.165,5.664,4.07c0.369,2.115-1.293,4.215-4.467,5.176c0.312,1.547,0.4,2.408,0.832,4.024
		c11.569-3.094,23.46-6.975,34.603-11.325c8.822-3.367,10.634-1.645,15.367-2.35c4.896-0.76,9.063-2.052,19.584-4.157
		c0.019-0.006,0.036-0.011,0.055-0.017C256.426,256.098,256.426,256.097,256.425,256.096z"/>
	<polygon fill="#FFFFFF" points="256.509,256.088 256.499,256.089 256.495,256.089 256.496,256.091 256.499,256.09 	"/>
	<path fill="#FFFFFF" d="M328.168,260.338c0.084-1.574,0.214-2.432,0.198-4.104c-11.976,0.111-24.458,0.903-36.333,2.337
		c-9.384,1.062-10.708-1.059-15.468-1.557c-4.932-0.485-9.29-0.273-20.008-0.858c-0.019-0.001-0.035-0.002-0.053-0.003
		c-0.001,0-0.002,0-0.002,0c-0.002,0-0.003,0-0.004,0c-0.001,0-0.002,0-0.002,0c-0.007,0-0.013,0-0.02-0.001
		c-0.001,0-0.001,0-0.002,0c-0.004,0-0.008,0-0.013,0c0.023,0.008,0.043,0.014,0.067,0.022c10.495,2.337,14.401,3.688,19.561,4.608
		c4.466,0.783,7.08-1.021,15.289,1.925c11.121,4.018,23.146,7.908,34.731,10.938c0.424-1.619,0.609-2.504,0.913-4.052
		c-3.98-0.456-4.65-3.433-4.471-5.354C322.722,262.097,324.856,260.477,328.168,260.338z"/>
	<path fill="#FFFFFF" d="M256.462,256.15c-0.002,0-0.004-0.001-0.006-0.002c0,0,0,0,0,0c0.02,0.013,0.038,0.024,0.058,0.038
		c9.533,4.972,12.958,7.287,17.704,9.51c4.111,1.911,7.104,0.845,14.271,5.813c9.704,6.756,20.315,13.625,30.723,19.547
		c0.827-1.455,1.236-2.262,1.929-3.679c-3.728-1.47-3.604-4.519-2.934-6.327c0.718-2.023,3.197-3.037,6.434-2.314
		c0.488-1.5,0.835-2.293,1.253-3.914c-11.597-2.989-23.859-5.451-35.702-7.138c-9.339-1.401-10.069-3.792-14.538-5.503
		c-4.643-1.745-8.909-2.668-19.124-6.01C256.505,256.164,256.485,256.158,256.462,256.15z"/>
	<path fill="#FFFFFF" d="M256.456,256.148c0.02,0.022,0.038,0.042,0.058,0.064c7.907,7.257,10.615,10.378,14.621,13.75
		c3.476,2.91,6.643,2.654,12.28,9.309c7.624,9.037,16.097,18.418,24.616,26.832c1.176-1.19,1.779-1.865,2.815-3.054
		c-3.22-2.384-2.312-5.298-1.196-6.87c1.217-1.77,3.874-2.106,6.813-0.571c0.859-1.322,1.4-1.999,2.223-3.456
		c-10.428-5.889-21.636-11.441-32.638-16.135c-8.658-3.77-8.745-6.269-12.619-9.078c-4.032-2.888-7.914-4.882-16.916-10.753
		C256.494,256.173,256.476,256.162,256.456,256.148z"/>
	<path fill="#FFFFFF" d="M256.456,256.148C256.456,256.148,256.456,256.148,256.456,256.148c-0.004-0.004-0.007-0.007-0.01-0.011
		c0.011,0.022,0.021,0.042,0.033,0.064c5.768,9.072,7.575,12.789,10.572,17.087c2.604,3.712,5.729,4.284,9.451,12.171
		c5.023,10.704,10.777,21.959,16.827,32.293c1.444-0.846,2.202-1.342,3.511-2.221c-2.493-3.137-0.861-5.717,0.624-6.947
		c1.634-1.393,4.287-1.03,6.729,1.214c1.173-1.055,1.87-1.568,3.042-2.763c-8.547-8.389-17.935-16.654-27.346-24.037
		c-7.387-5.883-6.823-8.318-9.837-12.037c-3.145-3.828-6.375-6.761-13.538-14.748C256.494,256.19,256.476,256.171,256.456,256.148z"
		/>
	<polygon fill="#FFFFFF" points="292.192,318.518 292.192,318.518 292.192,318.519 	"/>
	<polygon fill="#FFFFFF" points="256.426,256.1 256.427,256.1 256.425,256.096 	"/>
	<path fill="#FFFFFF" d="M256.446,256.137c-0.001-0.001-0.001-0.003-0.002-0.005c0.005,0.025,0.01,0.047,0.015,0.072
		c3.2,10.259,3.975,14.319,5.747,19.25c1.546,4.262,4.413,5.631,5.948,14.216c2.057,11.644,4.675,24.01,7.819,35.563
		c1.614-0.439,2.475-0.719,3.968-1.228c-1.588-3.679,0.66-5.742,2.415-6.542c1.94-0.92,4.407,0.123,6.179,2.926
		c1.407-0.711,2.215-1.025,3.657-1.873c-6.062-10.328-12.968-20.756-20.127-30.339c-5.595-7.606-4.416-9.812-6.355-14.187
		c-2.037-4.52-4.394-8.195-9.23-17.791C256.468,256.179,256.457,256.16,256.446,256.137z"/>
	<rect x="256.434" y="256.095" fill="#FFFFFF" width="0.002" height="0.002"/>
	<path fill="#FFFFFF" d="M256.444,256.132C256.444,256.132,256.444,256.132,256.444,256.132c-0.002,0.028-0.003,0.054-0.005,0.083
		c0.428,10.726,0.123,14.847,0.555,20.067c0.386,4.517,2.8,6.583,2.055,15.271c-1.035,11.778-1.717,24.4-1.678,36.375
		c1.673-0.005,2.577-0.053,4.15-0.155c-0.579-3.965,2.127-5.375,4.03-5.692c2.112-0.384,4.225,1.263,5.207,4.431
		c1.544-0.323,2.405-0.417,4.019-0.86c-3.174-11.548-7.137-23.411-11.564-34.522c-3.429-8.799-1.719-10.622-2.456-15.351
		c-0.795-4.895-2.116-9.053-4.297-19.574C256.453,256.18,256.448,256.157,256.444,256.132z"/>
	<path fill="#FFFFFF" d="M256.444,256.132c0-0.007,0-0.013,0.001-0.021c0,0.001,0,0.001-0.001,0.002
		c-0.006,0.018-0.011,0.033-0.017,0.05c-2.39,10.499-3.76,14.4-4.705,19.559c-0.804,4.461,0.987,7.084-1.996,15.279
		c-4.069,11.102-8.017,23.109-11.101,34.68c1.617,0.432,2.502,0.621,4.048,0.932c0.475-3.979,3.455-4.635,5.375-4.445
		c2.14,0.18,3.749,2.32,3.872,5.635c1.574,0.091,2.431,0.225,4.104,0.217c-0.055-11.975-0.789-24.461-2.167-36.344
		c-1.018-9.389,1.109-10.702,1.63-15.459c0.507-4.93,0.317-9.289,0.952-20.001C256.441,256.187,256.442,256.161,256.444,256.132z"/>
	<path fill="#FFFFFF" d="M256.444,256.113c-0.015,0.023-0.029,0.044-0.044,0.067c-5.008,9.5-7.336,12.915-9.579,17.649
		c-1.93,4.103-0.876,7.1-5.875,14.245c-6.798,9.675-13.712,20.256-19.68,30.639c1.451,0.834,2.257,1.246,3.671,1.944
		c1.485-3.721,4.534-3.585,6.34-2.906c2.021,0.727,3.022,3.21,2.286,6.443c1.498,0.495,2.29,0.845,3.908,1.27v0.001
		c3.04-11.584,5.555-23.836,7.292-35.672c1.441-9.332,3.835-10.053,5.566-14.514c1.766-4.638,2.707-8.902,6.098-19.116
		C256.432,256.146,256.438,256.131,256.444,256.113z"/>
	<path fill="#FFFFFF" d="M256.444,256.113c0,0,0-0.001,0.001-0.002c0.001-0.002,0.002-0.003,0.003-0.005
		c-0.02,0.017-0.037,0.033-0.056,0.05c-7.303,7.882-10.437,10.575-13.831,14.568c-2.927,3.462-2.686,6.63-9.366,12.235
		c-9.073,7.582-18.494,16.01-26.948,24.489c1.186,1.182,1.857,1.789,3.041,2.83c2.398-3.209,5.309-2.287,6.876-1.163
		c1.764,1.226,2.088,3.884,0.539,6.815c1.317,0.865,1.992,1.41,3.445,2.239v0.001c5.938-10.4,11.543-21.582,16.288-32.562
		c3.812-8.641,6.311-8.715,9.139-12.576c2.904-4.017,4.917-7.888,10.825-16.853C256.415,256.157,256.428,256.136,256.444,256.113z"
		/>
	<path fill="#FFFFFF" d="M256.448,256.106c0.003-0.003,0.005-0.005,0.008-0.007c0,0,0.001,0,0.001-0.001
		c-0.021,0.01-0.04,0.02-0.061,0.03c-9.105,5.721-12.833,7.508-17.148,10.483c-3.725,2.584-4.315,5.706-12.222,9.385
		c-10.73,4.967-22.017,10.659-32.382,16.654c0.837,1.448,1.328,2.209,2.201,3.521c3.149-2.476,5.72-0.83,6.942,0.662
		c1.385,1.641,1.008,4.293-1.249,6.722c1.048,1.179,1.559,1.878,2.746,3.058c8.435-8.502,16.75-17.846,24.184-27.217
		c5.924-7.354,8.356-6.778,12.09-9.771c3.848-3.126,6.797-6.342,14.833-13.469C256.411,256.139,256.428,256.124,256.448,256.106z"/>
	<polygon fill="#FFFFFF" points="256.492,256.08 256.492,256.081 256.497,256.078 	"/>
	<path fill="#FFFFFF" d="M256.457,256.098c0.001,0,0.002,0,0.003-0.001c-0.007,0-0.013,0-0.02-0.001c-0.001,0-0.002,0-0.003,0.001
		c-0.001,0-0.001,0-0.002,0c-0.002,0.001-0.005,0.001-0.007,0.002c0,0,0,0-0.001,0c-0.019,0.006-0.036,0.011-0.055,0.017
		c-10.266,3.133-14.33,3.885-19.269,5.626c-4.271,1.52-5.657,4.378-14.251,5.861c-11.656,1.986-24.038,4.529-35.611,7.604
		c0.43,1.617,0.705,2.479,1.204,3.976c3.688-1.565,5.738,0.694,6.528,2.454c0.907,1.946-0.15,4.407-2.965,6.161
		c0.704,1.411,1.013,2.221,1.852,3.669c10.364-6,20.834-12.842,30.46-19.943c7.642-5.549,9.839-4.356,14.226-6.27
		c4.533-2.011,8.222-4.344,17.851-9.125C256.417,256.118,256.436,256.108,256.457,256.098z"/>
	<polygon fill="#FFFFFF" points="221.403,193.359 221.403,193.359 221.403,193.359 	"/>
	<polygon fill="#FFFFFF" points="256.497,256.1 256.498,256.1 256.498,256.1 	"/>
	<path fill="#FFFFFF" d="M256.497,256.119c0,0.001,0.001,0.002,0.002,0.003c0,0.001,0,0.002,0.001,0.003
		c0.001,0.002,0.002,0.004,0.003,0.006c0.001,0.001,0.002,0.003,0.003,0.005c0.002,0.004,0.003,0.007,0.005,0.011
		c0.001,0.002,0.002,0.003,0.003,0.005c-0.001-0.002-0.001-0.003-0.002-0.005c-0.001-0.004-0.002-0.008-0.003-0.012
		c-0.001-0.002-0.002-0.004-0.002-0.006c-0.001-0.002-0.001-0.004-0.002-0.006c-0.005-0.005-0.009-0.01-0.014-0.015
		c0.001,0.002,0.002,0.005,0.004,0.007C256.496,256.116,256.497,256.118,256.497,256.119z"/>
	<polygon fill="#FFFFFF" points="256.5,256.104 256.5,256.105 256.5,256.105 	"/>
	<path fill="#FFFFFF" d="M256.493,256.095c0.001,0,0.002,0.001,0.004,0.001c0-0.001-0.001-0.003-0.001-0.005
		c0,0,0-0.001-0.001-0.002c0-0.003-0.001-0.005-0.002-0.008c0,0,0,0,0-0.001c-0.004-0.014-0.008-0.027-0.013-0.042
		c-3.091-10.289-3.824-14.356-5.544-19.304c-1.501-4.278-4.353-5.677-5.798-14.277c-1.936-11.665-4.423-24.058-7.446-35.644
		c-1.619,0.422-2.483,0.694-3.98,1.186c1.549,3.695-0.72,5.735-2.483,6.517c-1.95,0.898-4.406-0.17-6.148-2.992
		c-1.414,0.697-2.225,1.003-3.677,1.835c5.954,10.391,12.75,20.891,19.809,30.548c5.515,7.666,4.312,9.857,6.206,14.252
		c1.99,4.539,4.305,8.237,9.038,17.874C256.468,256.055,256.48,256.074,256.493,256.095z"/>
	<polygon fill="#FFFFFF" points="184.579,255.19 184.579,255.189 184.579,255.189 	"/>
	<path fill="#FFFFFF" d="M256.436,256.095c0.001,0,0.002,0,0.004,0c0.007,0,0.013,0.001,0.02,0.001c0.002,0,0.003,0,0.005,0
		c0.005,0,0.01,0.001,0.015,0.001c-0.022-0.007-0.043-0.014-0.065-0.022c-10.469-2.458-14.36-3.854-19.509-4.833
		c-4.456-0.834-7.092,0.939-15.266-2.101c-11.074-4.145-23.055-8.173-34.604-11.335c-0.441,1.614-0.638,2.498-0.959,4.042
		c3.976,0.501,4.611,3.486,4.408,5.404c-0.194,2.139-2.346,3.734-5.66,3.835c-0.102,1.574-0.241,2.429-0.245,4.102
		c11.976,0.027,24.467-0.623,36.358-1.92c9.395-0.954,10.694,1.182,15.447,1.734c4.927,0.542,9.288,0.38,20,1.088
		c0.017,0.001,0.032,0.002,0.049,0.003C256.435,256.095,256.435,256.095,256.436,256.095z"/>
	<polygon fill="#FFFFFF" points="256.498,256.1 256.499,256.1 256.506,256.1 256.517,256.101 256.517,256.101 256.517,256.101 
		256.507,256.098 256.499,256.096 256.497,256.096 256.493,256.095 256.494,256.098 256.497,256.1 	"/>
	<polygon fill="#FFFFFF" points="187.22,236.792 187.22,236.791 187.22,236.791 	"/>
	<polygon fill="#FFFFFF" points="256.5,256.104 256.5,256.105 256.504,256.106 256.511,256.108 256.521,256.112 256.512,256.107 
		256.505,256.104 256.499,256.1 256.498,256.1 256.497,256.1 256.494,256.098 256.498,256.103 	"/>
	<path fill="#FFFFFF" d="M256.48,256.098C256.481,256.098,256.481,256.099,256.48,256.098c-0.021-0.014-0.041-0.027-0.062-0.042
		c-9.481-5.056-12.884-7.401-17.608-9.667c-4.094-1.949-7.096-0.91-14.218-5.944c-9.642-6.845-20.189-13.81-30.542-19.827
		c-0.841,1.447-1.257,2.251-1.963,3.661c3.714,1.503,3.563,4.551,2.876,6.354c-0.736,2.017-3.225,3.007-6.455,2.255
		c-0.501,1.495-0.855,2.286-1.288,3.902c11.569,3.096,23.809,5.67,35.636,7.464c9.325,1.486,10.034,3.884,14.487,5.637
		c4.626,1.788,8.884,2.749,19.072,6.185C256.437,256.084,256.458,256.091,256.48,256.098z"/>
	<polygon fill="#FFFFFF" points="256.515,256.121 256.522,256.125 256.516,256.12 256.508,256.113 256.503,256.108 256.5,256.105 
		256.5,256.104 256.498,256.103 256.504,256.114 256.507,256.116 	"/>
	<path fill="#FFFFFF" d="M256.481,256.099c0.002,0.001,0.004,0.003,0.007,0.004c-0.016-0.018-0.03-0.034-0.046-0.052
		c-7.851-7.345-10.53-10.492-14.506-13.906c-3.448-2.943-6.617-2.718-12.19-9.425c-7.538-9.11-15.92-18.571-24.359-27.066
		c-1.188,1.179-1.798,1.848-2.845,3.027c3.197,2.415,2.262,5.319,1.13,6.882c-1.233,1.757-3.894,2.069-6.818,0.505
		c-0.871,1.314-1.419,1.986-2.255,3.435l-0.001,0c10.371,5.988,21.525,11.647,32.483,16.446c8.621,3.853,8.685,6.352,12.531,9.199
		c4.002,2.924,7.865,4.956,16.806,10.91C256.44,256.071,256.459,256.084,256.481,256.099z"/>
	<polygon fill="#FFFFFF" points="206.467,204.464 206.467,204.464 206.467,204.464 	"/>
	<path fill="#FFFFFF" d="M256.488,256.103c0.001,0.001,0.002,0.003,0.003,0.004c0.005,0.005,0.009,0.01,0.014,0.015
		c0.001,0.001,0.002,0.003,0.004,0.004c0.001,0.002,0.003,0.003,0.005,0.005c0.002,0.003,0.004,0.005,0.007,0.008
		c-0.002-0.003-0.004-0.006-0.006-0.009c-0.001-0.002-0.003-0.005-0.004-0.007c-0.002-0.002-0.003-0.005-0.005-0.008
		c-0.001-0.001-0.001-0.002-0.002-0.002c-0.002-0.004-0.004-0.007-0.006-0.011c-0.001-0.002-0.002-0.003-0.003-0.005
		c0-0.001-0.001-0.002-0.001-0.003c-0.013-0.021-0.025-0.04-0.038-0.061c-5.626-9.147-7.378-12.889-10.31-17.229
		c-2.549-3.75-5.665-4.369-9.27-12.31c-4.864-10.777-10.45-22.116-16.347-32.539c-1.456,0.824-2.222,1.308-3.543,2.168
		c2.446,3.173,0.776,5.728-0.727,6.936c-1.654,1.369-4.303,0.967-6.71-1.313c-1.188,1.037-1.894,1.541-3.083,2.717
		c8.422,8.515,17.686,16.918,26.986,24.44c7.298,5.993,6.699,8.42,9.657,12.182c3.09,3.878,6.279,6.858,13.332,14.965
		C256.458,256.069,256.472,256.085,256.488,256.103z"/>
</g>
</svg>
