<?xml version="1.0" encoding="utf-8"?>
<!-- Generator: Adobe Illustrator 16.0.0, SVG Export Plug-In . SVG Version: 6.00 Build 0)  -->
<svg version="1.2" baseProfile="tiny"
	 id="svg378" xmlns:cc="http://creativecommons.org/ns#" xmlns:dc="http://purl.org/dc/elements/1.1/" xmlns:rdf="http://www.w3.org/1999/02/22-rdf-syntax-ns#"
	 xmlns="http://www.w3.org/2000/svg" xmlns:xlink="http://www.w3.org/1999/xlink" x="0px" y="0px" width="512px" height="512px"
	 viewBox="0 0 512 512" xml:space="preserve">
<g id="flag" transform="matrix(.66667 0 0 1 86.916 1.9545)">
	<rect id="rect171" x="-130.37" y="-1.954" fill="#FFFFFF" width="767.999" height="512"/>
	<rect id="rect140" x="-130.37" y="339.379" width="767.999" height="170.671"/>
	<rect id="rect403" x="-130.37" y="-1.954" fill="#F30000" width="767.999" height="170.67"/>
</g>
<g id="g7389" transform="matrix(.82742 0 0 .82742 43.799 43.035)">
	<polygon id="polygon141" fill="#005623" points="536.364,291.26 510.845,272.801 485.45,291.514 495.116,261.529 469.475,243.165 
		500.976,243.092 510.528,213.036 520.324,242.969 551.861,242.76 526.422,261.329 	"/>
	<path id="path155" fill="#005623" d="M180.61,229.79c0.262,29.417,0,48.328,0,54.369c-3.152,3.675-6.304,7.616-8.668,10.767
		c-1.05-0.787-1.314-0.787-1.314-2.364c0-1.576-0.262-40.186,0-54.369C175.357,235.83,178.509,229.263,180.61,229.79L180.61,229.79z
		 M169.84,229.265c2.364-3.94,4.991-7.881,6.83-9.718c1.838,1.05,1.576,3.94,1.838,4.727c-1.838,2.627-6.304,6.829-7.616,8.143
		C170.366,231.628,170.892,231.891,169.84,229.265L169.84,229.265z M182.974,195.645c-16.022,10.506-34.146,23.114-40.713,28.629
		c-6.566,5.517-8.93,8.931-8.93,18.386c0,9.456,0.262,20.225-0.525,25.215c-0.788,4.99-3.152,10.243-8.931,5.517
		c-5.779-4.728-9.98-9.456-12.606-11.557c-2.626-2.101-7.354-4.991-13.658,0.526c-6.304,5.514-35.721,36.508-41.238,39.922
		c-5.515,3.414-6.566,4.203-10.505,6.304c8.141,0.525,17.334,1.05,24.688-0.525c9.718-7.092,21.013-23.114,24.691-27.054
		s7.354-12.344,15.497-3.152c8.143,9.194,7.879,9.456,11.819,12.345c3.941,2.889,8.931,2.363,12.345-3.416
		c3.414-5.779,3.676-8.403,4.99-17.861c1.314-9.455,2.101-21.275,4.202-26.528c2.102-5.253,6.304-10.506,13.396-14.709
		c7.092-4.202,8.405-4.465,9.981-5.253c3.151-6.041,10.769-20.225,13.92-23.639c1.314-1.576,1.576-2.364,1.576-3.152
		L182.974,195.645z M111.795,291.25c-3.94-2.626-5.253-4.728-7.355-4.465c-2.101,0.263-6.566,6.304-9.193,7.879
		c3.414,2.889,6.567,5.517,9.193,4.991C107.066,299.13,108.905,293.353,111.795,291.25L111.795,291.25z"/>
	<path id="path161" fill="#005623" d="M444.58,217.45c-5.517,1.314-8.406,8.668-13.134,13.658
		c-0.525,14.709-0.525,60.412-0.525,66.452c4.728-5.517,7.617-8.668,11.032-10.769C442.741,262.364,445.631,228.22,444.58,217.45
		L444.58,217.45z M418.577,217.187c-6.566,4.202-8.141,8.405-13.658,13.133c-0.263,17.598,0.525,42.55-0.788,45.964
		c-1.312,3.414-4.202,10.507-11.294,9.718c-7.092-0.788-9.193-2.101-9.193-9.456c0-7.353,1.576-54.368,1.576-61.986
		c-5.515,2.627-10.242,10.769-14.183,14.184c0,18.385,0.788,41.762,0.263,46.752c-0.525,4.99-2.626,13.134-11.557,12.869
		c-8.931-0.262-13.658-4.728-13.658-9.98s-0.263-39.661,0.262-45.702c-7.879,5.516-26.264,16.547-29.942,30.73
		c-3.678,14.183,2.101,18.386,7.353,15.759c5.253-2.626,7.617-4.99,10.507-7.091c0.788,8.93,1.05,18.648,9.98,24.428
		c8.931,5.779,20.225,3.678,24.428,0.524c4.202-3.151,5.779-5.252,6.829-6.829c7.879,6.04,19.435,9.194,27.054,2.627
		c7.616-6.567,11.819-13.134,12.607-20.487C415.95,264.99,419.627,227.168,418.577,217.187L418.577,217.187z M336.103,252.909
		c-7.879,3.677-11.294,9.193-9.193,12.607c2.101,3.413,6.304-0.526,9.193-1.839C335.578,258.425,336.103,255.536,336.103,252.909
		L336.103,252.909z M386.795,197.226c-1.838,6.041-3.151,4.991-5.515,5.253c-2.364,0.263-3.94-2.101-5.779-4.202
		c-1.839,0.262-2.101,0.788-3.414,1.313c4.203,6.041,7.354,8.667,12.344,7.355c4.99-1.314,5.253-5.779,5.253-8.143
		C388.896,198.277,388.634,198.014,386.795,197.226L386.795,197.226z M382.33,189.61c-2.364,0.788-2.889,1.314-3.676,3.414
		c1.312,2.889,3.151,4.465,4.99,3.678c1.839-0.788,2.101-3.94,1.05-4.728C383.644,191.185,384.169,190.66,382.33,189.61z"/>
	<polygon id="polygon163" fill="#005623" points="22.614,291.26 -2.905,272.801 -28.3,291.514 -18.633,261.529 -44.275,243.165 
		-12.774,243.092 -3.222,213.036 6.574,242.969 38.112,242.76 12.672,261.329 	"/>
	<polygon id="polygon164" fill="#005623" points="278.964,291.261 253.446,272.801 228.05,291.514 237.717,261.531 212.076,243.165 
		243.577,243.093 253.127,213.037 262.924,242.969 294.462,242.76 269.023,261.329 	"/>
</g>
</svg>
