<?xml version="1.0" encoding="utf-8"?>
<!-- Generator: Adobe Illustrator 16.0.0, SVG Export Plug-In . SVG Version: 6.00 Build 0)  -->
<svg version="1.2" baseProfile="tiny"
	 id="svg734" xmlns:cc="http://creativecommons.org/ns#" xmlns:dc="http://purl.org/dc/elements/1.1/" xmlns:rdf="http://www.w3.org/1999/02/22-rdf-syntax-ns#"
	 xmlns="http://www.w3.org/2000/svg" xmlns:xlink="http://www.w3.org/1999/xlink" x="0px" y="0px" width="512px" height="512px"
	 viewBox="0 0 512 512" xml:space="preserve">
<g>
	<path fill="#FFFFFF" d="M10.392,339.499h6.048v4.324h34.812v-4.324H57.3v4.324h34.402v-4.324h6.048v4.324h33.977v-4.324h6.049
		v4.324h34.811v-4.324h6.048v4.324h33.987v-4.324h6.048v4.324h34.39v-4.324h6.048v4.324h34.4v-4.324h6.048v4.324h35.228v-4.324
		h6.048v4.324h33.149v-4.324h6.048v4.324h34.812v-4.324h6.048v4.324h35.236v-4.324h6.048v4.324h32.729v-4.324h6.048v4.324h11.024
		V168.16h-11.024v4.952h-6.048v-4.952h-32.729v4.952h-6.048v-4.952h-35.236v4.952h-6.048v-4.952h-34.812v4.952h-6.048v-4.952H340.83
		v4.952h-6.048v-4.952h-35.228v4.952h-6.048v-4.952h-34.4v4.952h-6.048v-4.952h-34.39v4.952h-6.048v-4.952h-33.987v4.952h-6.048
		v-4.952h-34.811v4.952h-6.049v-4.952H97.75v4.952h-6.048v-4.952H57.3v4.952h-6.048v-4.952H16.44v4.952h-6.048v-4.952H-0.01v175.663
		h10.402V339.499z M300.452,307.184c43.918-54.465,3.114-102.744-15.635-112.344C362.433,220.767,327.74,301.127,300.452,307.184z
		 M236.474,180.411c3.011,8.002,10.909,9.165,19.364,4.454c6.162,3.697,15.69,3.931,18.977-4.066
		c2.498,19.784-18.306,15.104-19.081,11.231C247.99,199.517,233.57,195.192,236.474,180.411z M247.921,302.684
		c0.123,0.093,0.229,0.178,0.351,0.27l-1.551-100.851l9.301-7.813l9.302,8.186l-0.929,99.951
		c49.769-37.523,23.845-94.555,15.403-104.915c-0.002-0.001-0.005-0.003-0.007-0.005v-0.004c0.002,0.003,0.005,0.006,0.007,0.009
		c12.785,8.774,25.757,30.397,26.045,54.869c0.246,20.94-8.811,43.96-35.202,62.804c11.111,3.056,23.258,4.104,33.549,3.94
		c-9.233,5.036-26.82,3.729-39.975,2.527l-0.009,1.001l-7.812,8.93v-0.002l-7.813-8.558l-0.02-1.313
		c-13.081,1.185-30.258,2.371-39.344-2.585c9.972,0.158,21.683-0.827,32.51-3.668c-26.688-18.894-35.835-42.036-35.587-63.077
		c0.288-24.472,13.26-46.095,26.045-54.869c0.002-0.002,0.004-0.006,0.007-0.009v0.004c-0.002,0.001-0.005,0.003-0.007,0.005
		C223.723,207.895,197.693,265.164,247.921,302.684z M227.237,194.84c-18.749,9.6-59.553,57.879-15.635,112.344
		C184.314,301.127,149.62,220.767,227.237,194.84z"/>
	<path fill="#DA0000" d="M504.905,362.35v5.377h6.431v3.377h-6.431v0.006h-3.376v-0.006v-3.377v-5.377v-2.51v-0.866h10.444v-15.15
		h-11.024v6.181h-6.048v-6.181h-32.729v6.181h-6.048v-6.181h-35.236v6.181h-6.048v-6.181h-34.812v6.181h-6.048v-6.181H340.83v6.181
		h-6.048v-6.181h-35.228v6.181h-6.048v-6.181h-34.4v6.181h-6.048v-6.181h-34.39v6.181h-6.048v-6.181h-33.987v6.181h-6.048v-6.181
		h-34.811v6.181h-6.049v-6.181H97.75v6.181h-6.048v-6.181H57.3v6.181h-6.048v-6.181H16.44v6.181h-6.048v-6.181H-0.01v7.126h27.441
		v3.377H-0.01v13.4h7.27v-5.377H1.037v-3.376h9.599v3.376h-0.001v8.76H7.259v-0.006h-7.27v140.88h511.983V362.35H504.905z
		 M52.98,371.109h-3.377v-0.006h-5.065v0.006h-3.376v-0.006H36.21v0.006h-3.377v-8.76H21.128v5.377h6.431v3.377h-6.431v0.006h-3.376
		v-0.006v-3.377v-5.377v-2.51v-0.866h15.081v-8.024h3.377v16.777h4.951v-16.777h3.376v16.777h5.065v-16.777h3.377V371.109z
		 M58.288,350.949h49.068v3.377H58.288V350.949z M68.981,371.111h-3.377v-3.278h3.377V371.111z M90.562,362.35L90.562,362.35
		l-0.001,8.76h-3.376v-0.006H76.29v0.006h-3.377v-8.76H61.756v8.76h-3.377v-11.27h0.001v-0.866h17.909v0.866h0.001v7.887h10.895
		v-5.377h-6.222v-3.376h9.599V362.35z M132.906,371.109h-3.377v-0.006h-5.065v0.006h-3.376v-0.006h-4.951v0.006h-3.377v-8.76
		h-11.704v5.377h6.43v3.377h-6.43v0.006h-3.377v-0.006v-3.377v-5.377v-2.51v-0.866h15.081v-8.024h3.377v16.777h4.951v-16.777h3.376
		v16.777h5.065v-16.777h3.377V371.109z M138.731,350.949h49.068v3.377h-49.068V350.949z M149.422,371.111h-3.376v-3.278h3.376
		V371.111z M171.003,359.84v2.51v8.76h-3.376v-0.006h-10.896v0.006h-3.376v-8.76h-11.158v8.76h-3.376v-8.76v-2.51v-0.866h17.909
		v0.866h0.001v7.887h10.896v-5.377h-6.222v-3.376h9.598V359.84z M213.347,371.109h-3.376v-0.006h-5.065v0.006h-3.377v-0.006h-4.951
		v0.006h-3.376v-8.76h-11.705v5.377h6.43v3.377h-6.43v0.006h-3.376v-0.006v-3.377v-5.377v-2.51v-0.866h15.081v-8.024h3.376v16.777
		h4.951v-16.777h3.377v16.777h5.065v-16.777h3.376V371.109z M219.461,350.949h49.068v3.377h-49.068V350.949z M230.154,371.111
		h-3.377v-3.278h3.377V371.111z M251.735,362.35L251.735,362.35l-0.001,8.76h-3.376v-0.006h-10.895v0.006h-3.377v-8.76h-11.157v8.76
		h-3.377v-11.27h0.001v-0.866h17.909v0.866h0.001v7.887h10.895v-5.377h-6.222v-3.376h9.599V362.35z M294.077,371.109h-3.376v-0.006
		h-5.065v0.006h-3.376v-0.006h-4.951v0.006h-3.377v-8.76h-11.705v5.377h6.431v3.377h-6.431v0.006h-3.376v-0.006v-3.377v-5.377v-2.51
		v-0.866h15.081v-8.024h3.377v16.777h4.951v-16.777h3.376v16.777h5.065v-16.777h3.376V371.109z M300.667,350.949h49.067v3.377
		h-49.067V350.949z M311.359,371.111h-3.376v-3.278h3.376V371.111z M332.94,359.84v2.51v8.76h-3.377v-0.006h-10.895v0.006h-3.376
		v-8.76h-11.158v8.76h-3.376v-8.76v-2.51v-0.866h17.909v0.866h0.001v7.887h10.895v-5.377h-6.222v-3.376h9.599V359.84z
		 M375.283,371.109h-3.376v-0.006h-5.066v0.006h-3.376v-0.006h-4.951v0.006h-3.376v-8.76h-11.705v5.377h6.43v3.377h-6.43v0.006
		h-3.377v-0.006v-3.377v-5.377v-2.51v-0.866h15.082v-8.024h3.376v16.777h4.951v-16.777h3.376v16.777h5.066v-16.777h3.376V371.109z
		 M381.407,350.949h49.069v3.377h-49.069V350.949z M392.1,371.111h-3.376v-3.278h3.376V371.111z M413.681,359.84v2.51v8.76h-3.377
		v-0.006h-10.895v0.006h-3.376v-8.76h-11.158v8.76h-3.376v-8.76v-2.51v-0.866h17.909v0.866h0.001v7.887h10.895v-5.377h-6.222v-3.376
		h9.599V359.84z M456.025,371.109h-3.376v-0.006h-5.066v0.006h-3.376v-0.006h-4.951v0.006h-3.376v-8.76h-11.705v5.377h6.43v3.377
		h-6.43v0.006h-3.377v-0.006v-3.377v-5.377v-2.51v-0.866h15.082v-8.024h3.376v16.777h4.951v-16.777h3.376v16.777h5.066v-16.777
		h3.376V371.109z M462.139,350.949h49.068v3.377h-49.068V350.949z M472.83,371.111h-3.376v-3.278h3.376V371.111z M494.411,359.84
		v2.51v8.76h-3.376v-0.006H480.14v0.006h-3.376v-8.76h-11.158v8.76h-3.376v-8.76v-2.51v-0.866h17.909v0.866h0.001v7.887h10.896
		v-5.377h-6.222v-3.376h9.598V359.84z"/>
	<rect x="-0.01" y="350.949" fill="#FFFFFF" width="27.441" height="3.377"/>
	<rect x="21.128" y="367.727" fill="#FFFFFF" width="6.431" height="3.377"/>
	<polygon fill="#FFFFFF" points="33.783,367.727 36.21,367.727 36.21,350.949 32.833,350.949 32.833,358.974 35.661,358.974 
		35.661,362.35 32.833,362.35 32.833,371.109 36.21,371.109 36.21,371.104 33.783,371.104 	"/>
	<polygon fill="#FFFFFF" points="36.21,367.727 33.783,367.727 33.783,371.104 36.21,371.104 41.161,371.104 41.161,367.727 	"/>
	<rect x="44.537" y="367.727" fill="#FFFFFF" width="5.065" height="3.377"/>
	<polygon fill="#FFFFFF" points="49.603,367.727 49.603,371.104 49.603,371.109 52.98,371.109 52.98,350.949 49.603,350.949 	"/>
	<polygon fill="#FFFFFF" points="44.537,350.949 41.161,350.949 41.161,367.727 41.161,371.104 41.161,371.109 44.537,371.109 
		44.537,371.104 44.537,367.727 	"/>
	<polygon fill="#FFFFFF" points="35.661,358.974 32.833,358.974 17.752,358.974 17.752,359.84 21.128,359.84 21.128,362.35 
		32.833,362.35 35.661,362.35 	"/>
	<polygon fill="#FFFFFF" points="17.752,359.84 17.752,362.35 17.752,367.727 17.752,371.104 17.752,371.109 21.128,371.109 
		21.128,371.104 21.128,367.727 21.128,362.35 21.128,359.84 	"/>
	<polygon fill="#FFFFFF" points="9.628,371.104 7.259,371.104 7.259,371.109 10.635,371.109 10.635,362.35 7.259,362.35 
		7.259,367.727 9.628,367.727 	"/>
	<polygon fill="#FFFFFF" points="9.628,371.104 9.628,367.727 7.259,367.727 -0.01,367.727 -0.01,371.104 7.259,371.104 	"/>
	<polygon fill="#FFFFFF" points="10.636,362.35 10.636,358.974 1.037,358.974 1.037,362.35 7.259,362.35 10.635,362.35 	"/>
	<rect x="58.288" y="350.949" fill="#FFFFFF" width="49.068" height="3.377"/>
	<rect x="65.604" y="367.833" fill="#FFFFFF" width="3.377" height="3.278"/>
	<rect x="101.055" y="367.727" fill="#FFFFFF" width="6.43" height="3.377"/>
	<polygon fill="#FFFFFF" points="113.709,367.727 116.136,367.727 116.136,350.949 112.759,350.949 112.759,358.974 
		115.587,358.974 115.587,362.35 112.759,362.35 112.759,371.109 116.136,371.109 116.136,371.104 113.709,371.104 	"/>
	<polygon fill="#FFFFFF" points="116.136,367.727 113.709,367.727 113.709,371.104 116.136,371.104 121.087,371.104 
		121.087,367.727 	"/>
	<rect x="124.463" y="367.727" fill="#FFFFFF" width="5.065" height="3.377"/>
	<polygon fill="#FFFFFF" points="129.529,367.727 129.529,371.104 129.529,371.109 132.906,371.109 132.906,350.949 
		129.529,350.949 	"/>
	<polygon fill="#FFFFFF" points="124.463,350.949 121.087,350.949 121.087,367.727 121.087,371.104 121.087,371.109 
		124.463,371.109 124.463,371.104 124.463,367.727 	"/>
	<polygon fill="#FFFFFF" points="76.289,359.84 76.289,358.974 58.38,358.974 58.38,359.84 61.756,359.84 61.756,362.35 
		72.913,362.35 72.913,359.84 	"/>
	<polygon fill="#FFFFFF" points="115.587,358.974 112.759,358.974 97.678,358.974 97.678,359.84 101.055,359.84 101.055,362.35 
		112.759,362.35 115.587,362.35 	"/>
	<polygon fill="#FFFFFF" points="97.678,359.84 97.678,362.35 97.678,367.727 97.678,371.104 97.678,371.109 101.055,371.109 
		101.055,371.104 101.055,367.727 101.055,362.35 101.055,359.84 	"/>
	<polygon fill="#FFFFFF" points="58.38,359.84 58.379,359.84 58.379,371.109 61.756,371.109 61.756,362.35 61.756,359.84 	"/>
	<polygon fill="#FFFFFF" points="87.185,367.727 89.554,367.727 89.554,371.104 87.185,371.104 87.185,371.109 90.561,371.109 
		90.561,362.35 87.185,362.35 	"/>
	<polygon fill="#FFFFFF" points="74.415,367.727 76.29,367.727 76.29,359.84 76.289,359.84 72.913,359.84 72.913,362.35 
		72.913,371.109 76.29,371.109 76.29,371.104 74.415,371.104 	"/>
	<polygon fill="#FFFFFF" points="89.554,367.727 87.185,367.727 76.29,367.727 74.415,367.727 74.415,371.104 76.29,371.104 
		87.185,371.104 89.554,371.104 	"/>
	<polygon fill="#FFFFFF" points="80.963,362.35 87.185,362.35 90.561,362.35 90.562,362.35 90.562,358.974 80.963,358.974 	"/>
	<rect x="138.731" y="350.949" fill="#FFFFFF" width="49.068" height="3.377"/>
	<rect x="146.046" y="367.833" fill="#FFFFFF" width="3.376" height="3.278"/>
	<rect x="181.496" y="367.727" fill="#FFFFFF" width="6.43" height="3.377"/>
	<polygon fill="#FFFFFF" points="194.151,367.727 196.577,367.727 196.577,350.949 193.201,350.949 193.201,358.974 196.03,358.974 
		196.03,362.35 193.201,362.35 193.201,371.109 196.577,371.109 196.577,371.104 194.151,371.104 	"/>
	<rect x="204.906" y="367.727" fill="#FFFFFF" width="5.065" height="3.377"/>
	<polygon fill="#FFFFFF" points="196.577,367.727 194.151,367.727 194.151,371.104 196.577,371.104 201.529,371.104 
		201.529,367.727 	"/>
	<polygon fill="#FFFFFF" points="209.971,367.727 209.971,371.104 209.971,371.109 213.347,371.109 213.347,350.949 
		209.971,350.949 	"/>
	<polygon fill="#FFFFFF" points="204.906,350.949 201.529,350.949 201.529,367.727 201.529,371.104 201.529,371.109 
		204.906,371.109 204.906,371.104 204.906,367.727 	"/>
	<polygon fill="#FFFFFF" points="156.731,359.84 156.731,358.974 138.822,358.974 138.822,359.84 142.198,359.84 142.198,362.35 
		153.356,362.35 153.356,359.84 	"/>
	<polygon fill="#FFFFFF" points="196.03,358.974 193.201,358.974 178.12,358.974 178.12,359.84 181.496,359.84 181.496,362.35 
		193.201,362.35 196.03,362.35 	"/>
	<polygon fill="#FFFFFF" points="178.12,359.84 178.12,362.35 178.12,367.727 178.12,371.104 178.12,371.109 181.496,371.109 
		181.496,371.104 181.496,367.727 181.496,362.35 181.496,359.84 	"/>
	<polygon fill="#FFFFFF" points="138.822,359.84 138.822,362.35 138.822,371.109 142.198,371.109 142.198,362.35 142.198,359.84 	
		"/>
	<polygon fill="#FFFFFF" points="167.627,367.727 169.996,367.727 169.996,371.104 167.627,371.104 167.627,371.109 
		171.003,371.109 171.003,362.35 167.627,362.35 	"/>
	<polygon fill="#FFFFFF" points="154.857,367.727 156.732,367.727 156.732,359.84 156.731,359.84 153.356,359.84 153.356,362.35 
		153.356,371.109 156.732,371.109 156.732,371.104 154.857,371.104 	"/>
	<polygon fill="#FFFFFF" points="169.996,367.727 167.627,367.727 156.732,367.727 154.857,367.727 154.857,371.104 
		156.732,371.104 167.627,371.104 169.996,371.104 	"/>
	<polygon fill="#FFFFFF" points="161.406,362.35 167.627,362.35 171.003,362.35 171.003,359.84 171.003,358.974 161.406,358.974 	
		"/>
	<rect x="219.461" y="350.949" fill="#FFFFFF" width="49.068" height="3.377"/>
	<rect x="226.777" y="367.833" fill="#FFFFFF" width="3.377" height="3.278"/>
	<rect x="262.227" y="367.727" fill="#FFFFFF" width="6.431" height="3.377"/>
	<polygon fill="#FFFFFF" points="274.882,367.727 277.309,367.727 277.309,350.949 273.932,350.949 273.932,358.974 276.76,358.974 
		276.76,362.35 273.932,362.35 273.932,371.109 277.309,371.109 277.309,371.104 274.882,371.104 	"/>
	<polygon fill="#FFFFFF" points="277.309,367.727 274.882,367.727 274.882,371.104 277.309,371.104 282.26,371.104 282.26,367.727 	
		"/>
	<rect x="285.636" y="367.727" fill="#FFFFFF" width="5.065" height="3.377"/>
	<polygon fill="#FFFFFF" points="290.701,367.727 290.701,371.104 290.701,371.109 294.077,371.109 294.077,350.949 
		290.701,350.949 	"/>
	<polygon fill="#FFFFFF" points="285.636,350.949 282.26,350.949 282.26,367.727 282.26,371.104 282.26,371.109 285.636,371.109 
		285.636,371.104 285.636,367.727 	"/>
	<polygon fill="#FFFFFF" points="237.462,359.84 237.462,358.974 219.553,358.974 219.553,359.84 222.929,359.84 222.929,362.35 
		234.086,362.35 234.086,359.84 	"/>
	<polygon fill="#FFFFFF" points="276.76,358.974 273.932,358.974 258.851,358.974 258.851,359.84 262.227,359.84 262.227,362.35 
		273.932,362.35 276.76,362.35 	"/>
	<polygon fill="#FFFFFF" points="258.851,359.84 258.851,362.35 258.851,367.727 258.851,371.104 258.851,371.109 262.227,371.109 
		262.227,371.104 262.227,367.727 262.227,362.35 262.227,359.84 	"/>
	<polygon fill="#FFFFFF" points="219.553,359.84 219.552,359.84 219.552,371.109 222.929,371.109 222.929,362.35 222.929,359.84 	
		"/>
	<polygon fill="#FFFFFF" points="248.358,367.727 250.727,367.727 250.727,371.104 248.358,371.104 248.358,371.109 
		251.734,371.109 251.734,362.35 248.358,362.35 	"/>
	<polygon fill="#FFFFFF" points="235.588,367.727 237.463,367.727 237.463,359.84 237.462,359.84 234.086,359.84 234.086,362.35 
		234.086,371.109 237.463,371.109 237.463,371.104 235.588,371.104 	"/>
	<polygon fill="#FFFFFF" points="250.727,367.727 248.358,367.727 237.463,367.727 235.588,367.727 235.588,371.104 
		237.463,371.104 248.358,371.104 250.727,371.104 	"/>
	<polygon fill="#FFFFFF" points="242.136,362.35 248.358,362.35 251.734,362.35 251.735,362.35 251.735,358.974 242.136,358.974 	
		"/>
	<polygon fill="#239F40" points="129.529,163.596 129.529,163.589 124.463,163.589 124.463,163.596 121.087,163.596 
		121.087,163.589 116.136,163.589 116.136,163.596 112.759,163.596 112.759,154.836 101.055,154.836 101.055,160.213 
		107.485,160.213 107.485,163.589 101.055,163.589 101.055,163.595 97.75,163.595 97.75,168.16 131.727,168.16 131.727,163.596 	"/>
	<polygon fill="#239F40" points="10.392,163.595 7.259,163.595 7.259,163.589 -0.01,163.589 -0.01,168.16 10.392,168.16 	"/>
	<polygon fill="#239F40" points="209.971,163.596 209.971,163.589 204.906,163.589 204.906,163.596 201.529,163.596 
		201.529,163.589 196.577,163.589 196.577,163.596 193.201,163.596 193.201,154.836 181.496,154.836 181.496,160.213 
		187.926,160.213 187.926,163.589 181.496,163.589 181.496,163.595 178.634,163.595 178.634,168.16 212.621,168.16 212.621,163.596 
			"/>
	<polygon fill="#239F40" points="290.701,163.596 290.701,163.589 285.636,163.589 285.636,163.596 282.26,163.596 282.26,163.589 
		277.309,163.589 277.309,163.596 273.932,163.596 273.932,154.836 262.227,154.836 262.227,160.213 268.657,160.213 
		268.657,163.589 262.227,163.589 262.227,163.595 259.107,163.595 259.107,168.16 293.507,168.16 293.507,163.596 	"/>
	<path fill="#239F40" d="M7.259,154.836H1.037v-3.376h9.599v3.376h-0.001v7.771h5.805v5.553h34.812v-4.564h-1.649v-0.007h-5.065
		v0.007h-3.376v-0.007H36.21v0.007h-3.377v-8.76H21.128v5.377h6.431v3.376h-6.431v0.006h-3.376v-0.006v-3.376v-5.377v-2.51v-0.866
		h15.081v-8.024h3.377v16.777h4.951v-16.777h3.376v16.777h5.065v-16.777h3.377v19.172h4.32v5.553h34.402v-5.553h5.976v-2.395v-5.377
		v-2.51v-0.866h15.081v-8.024h3.377v16.777h4.951v-16.777h3.376v16.777h5.065v-16.777h3.377v19.172h4.87v5.553h34.811v-5.553h5.534
		v-2.395v-5.377v-2.51v-0.866h15.081v-8.024h3.376v16.777h4.951v-16.777h3.377v16.777h5.065v-16.777h3.376v19.172h5.322v5.553h34.39
		v-5.553h5.792v-2.395v-5.377v-2.51v-0.866h15.081v-8.024h3.377v16.777h4.951v-16.777h3.376v16.777h5.065v-16.777h3.376v19.172
		h5.478v5.553h35.228v-5.553h5.273v-2.395v-5.377v-2.51v-0.866h15.082v-8.024h3.376v16.777h4.951v-16.777h3.376v16.777h5.066
		v-16.777h3.376v19.172h4.744v5.553h34.812v-5.553h5.957v-2.395v-5.377v-2.51v-0.866h15.082v-8.024h3.376v16.777h4.951v-16.777
		h3.376v16.777h5.066v-16.777h3.376v20.16h-3.376v-0.007h-5.066v0.007h-3.376v-0.007h-4.951v0.007h-3.376v-8.76h-11.705v5.377h6.43
		v3.376h-6.43v0.006h-3.286v4.565h35.236v-5.553h6.048v5.553h32.729v-5.553h6.048v5.553h11.024v-13.324h-7.068v5.377h6.431v3.376
		h-6.431v0.006h-3.376v-0.006v-3.376v-5.377v-2.51v-0.866h10.444V0H-0.01v143.436h27.441v3.376H-0.01v13.401h7.27V154.836z
		 M472.83,163.598h-3.376v-3.279h3.376V163.598z M494.411,152.326v2.51v8.759h-3.376v-0.006H480.14v0.006h-3.376v-8.759h-11.158
		v8.759h-3.376v-8.759v-2.51v-0.866h17.909v0.866h0.001v7.887h10.896v-5.377h-6.222v-3.376h9.598V152.326z M462.139,143.436h49.068
		v3.376h-49.068V143.436z M392.1,163.598h-3.376v-3.279h3.376V163.598z M413.681,152.326v2.51v8.759h-3.377v-0.006h-10.895v0.006
		h-3.376v-8.759h-11.158v8.759h-3.376v-8.759v-2.51v-0.866h17.909v0.866h0.001v7.887h10.895v-5.377h-6.222v-3.376h9.599V152.326z
		 M381.407,143.436h49.069v3.376h-49.069V143.436z M311.359,163.598h-3.376v-3.279h3.376V163.598z M332.94,152.326v2.51v8.759
		h-3.377v-0.006h-10.895v0.006h-3.376v-8.759h-11.158v8.759h-3.376v-8.759v-2.51v-0.866h17.909v0.866h0.001v7.887h10.895v-5.377
		h-6.222v-3.376h9.599V152.326z M300.667,143.436h49.067v3.376h-49.067V143.436z M230.154,163.598h-3.377v-3.279h3.377V163.598z
		 M251.735,154.836L251.735,154.836l-0.001,8.759h-3.376v-0.006h-10.895v0.006h-3.377v-8.759h-11.157v8.759h-3.377v-11.27h0.001
		v-0.866h17.909v0.866h0.001v7.887h10.895v-5.377h-6.222v-3.376h9.599V154.836z M219.461,143.436h49.068v3.376h-49.068V143.436z
		 M149.422,163.598h-3.376v-3.279h3.376V163.598z M171.003,152.326v2.51v8.759h-3.376v-0.006h-10.896v0.006h-3.376v-8.759h-11.158
		v8.759h-3.376v-8.759v-2.51v-0.866h17.909v0.866h0.001v7.887h10.896v-5.377h-6.222v-3.376h9.598V152.326z M138.731,143.436h49.068
		v3.376h-49.068V143.436z M68.981,163.598h-3.377v-3.279h3.377V163.598z M90.562,154.836L90.562,154.836l-0.001,8.759h-3.376v-0.006
		H76.29v0.006h-3.377v-8.759H61.756v8.759h-3.377v-11.27h0.001v-0.866h17.909v0.866h0.001v7.887h10.895v-5.377h-6.222v-3.376h9.599
		V154.836z M58.288,143.436h49.068v3.376H58.288V143.436z"/>
	<polygon fill="#239F40" points="371.907,163.596 371.907,163.589 366.841,163.589 366.841,163.596 363.465,163.596 
		363.465,163.589 358.514,163.589 358.514,163.596 355.138,163.596 355.138,154.836 343.433,154.836 343.433,160.213 
		349.863,160.213 349.863,163.589 343.433,163.589 343.433,163.595 340.83,163.595 340.83,168.16 373.98,168.16 373.98,163.596 	"/>
	<rect x="300.667" y="350.949" fill="#FFFFFF" width="49.067" height="3.377"/>
	<rect x="307.983" y="367.833" fill="#FFFFFF" width="3.376" height="3.278"/>
	<rect x="343.433" y="367.727" fill="#FFFFFF" width="6.43" height="3.377"/>
	<polygon fill="#FFFFFF" points="356.087,367.727 358.514,367.727 358.514,350.949 355.138,350.949 355.138,358.974 
		357.966,358.974 357.966,362.35 355.138,362.35 355.138,371.109 358.514,371.109 358.514,371.104 356.087,371.104 	"/>
	<polygon fill="#FFFFFF" points="358.514,367.727 356.087,367.727 356.087,371.104 358.514,371.104 363.465,371.104 
		363.465,367.727 	"/>
	<rect x="366.841" y="367.727" fill="#FFFFFF" width="5.066" height="3.377"/>
	<polygon fill="#FFFFFF" points="371.907,367.727 371.907,371.104 371.907,371.109 375.283,371.109 375.283,350.949 
		371.907,350.949 	"/>
	<polygon fill="#FFFFFF" points="366.841,350.949 363.465,350.949 363.465,367.727 363.465,371.104 363.465,371.109 
		366.841,371.109 366.841,371.104 366.841,367.727 	"/>
	<polygon fill="#FFFFFF" points="318.667,359.84 318.667,358.974 300.758,358.974 300.758,359.84 304.134,359.84 304.134,362.35 
		315.292,362.35 315.292,359.84 	"/>
	<polygon fill="#FFFFFF" points="357.966,358.974 355.138,358.974 340.056,358.974 340.056,359.84 343.433,359.84 343.433,362.35 
		355.138,362.35 357.966,362.35 	"/>
	<polygon fill="#FFFFFF" points="340.056,359.84 340.056,362.35 340.056,367.727 340.056,371.104 340.056,371.109 343.433,371.109 
		343.433,371.104 343.433,367.727 343.433,362.35 343.433,359.84 	"/>
	<polygon fill="#FFFFFF" points="300.758,359.84 300.758,362.35 300.758,371.109 304.134,371.109 304.134,362.35 304.134,359.84 	
		"/>
	<polygon fill="#FFFFFF" points="329.563,367.727 331.932,367.727 331.932,371.104 329.563,371.104 329.563,371.109 332.94,371.109 
		332.94,362.35 329.563,362.35 	"/>
	<polygon fill="#FFFFFF" points="316.793,367.727 318.668,367.727 318.668,359.84 318.667,359.84 315.292,359.84 315.292,362.35 
		315.292,371.109 318.668,371.109 318.668,371.104 316.793,371.104 	"/>
	<polygon fill="#FFFFFF" points="331.932,367.727 329.563,367.727 318.668,367.727 316.793,367.727 316.793,371.104 
		318.668,371.104 329.563,371.104 331.932,371.104 	"/>
	<polygon fill="#FFFFFF" points="323.341,362.35 329.563,362.35 332.94,362.35 332.94,359.84 332.94,358.974 323.341,358.974 	"/>
	<rect x="381.407" y="350.949" fill="#FFFFFF" width="49.069" height="3.377"/>
	<rect x="388.724" y="367.833" fill="#FFFFFF" width="3.376" height="3.278"/>
	<rect x="424.174" y="367.727" fill="#FFFFFF" width="6.43" height="3.377"/>
	<polygon fill="#FFFFFF" points="436.828,367.727 439.255,367.727 439.255,350.949 435.879,350.949 435.879,358.974 
		438.707,358.974 438.707,362.35 435.879,362.35 435.879,371.109 439.255,371.109 439.255,371.104 436.828,371.104 	"/>
	<polygon fill="#FFFFFF" points="439.255,367.727 436.828,367.727 436.828,371.104 439.255,371.104 444.206,371.104 
		444.206,367.727 	"/>
	<rect x="447.582" y="367.727" fill="#FFFFFF" width="5.066" height="3.377"/>
	<polygon fill="#FFFFFF" points="452.649,367.727 452.649,371.104 452.649,371.109 456.025,371.109 456.025,350.949 
		452.649,350.949 	"/>
	<polygon fill="#FFFFFF" points="447.582,350.949 444.206,350.949 444.206,367.727 444.206,371.104 444.206,371.109 
		447.582,371.109 447.582,371.104 447.582,367.727 	"/>
	<polygon fill="#FFFFFF" points="399.408,359.84 399.408,358.974 381.499,358.974 381.499,359.84 384.875,359.84 384.875,362.35 
		396.033,362.35 396.033,359.84 	"/>
	<polygon fill="#FFFFFF" points="438.707,358.974 435.879,358.974 420.797,358.974 420.797,359.84 424.174,359.84 424.174,362.35 
		435.879,362.35 438.707,362.35 	"/>
	<polygon fill="#FFFFFF" points="420.797,359.84 420.797,362.35 420.797,367.727 420.797,371.104 420.797,371.109 424.174,371.109 
		424.174,371.104 424.174,367.727 424.174,362.35 424.174,359.84 	"/>
	<polygon fill="#FFFFFF" points="381.499,359.84 381.499,362.35 381.499,371.109 384.875,371.109 384.875,362.35 384.875,359.84 	
		"/>
	<polygon fill="#FFFFFF" points="410.304,367.727 412.673,367.727 412.673,371.104 410.304,371.104 410.304,371.109 
		413.681,371.109 413.681,362.35 410.304,362.35 	"/>
	<polygon fill="#FFFFFF" points="397.534,367.727 399.409,367.727 399.409,359.84 399.408,359.84 396.033,359.84 396.033,362.35 
		396.033,371.109 399.409,371.109 399.409,371.104 397.534,371.104 	"/>
	<polygon fill="#FFFFFF" points="412.673,367.727 410.304,367.727 399.409,367.727 397.534,367.727 397.534,371.104 
		399.409,371.104 410.304,371.104 412.673,371.104 	"/>
	<polygon fill="#FFFFFF" points="404.082,362.35 410.304,362.35 413.681,362.35 413.681,359.84 413.681,358.974 404.082,358.974 	
		"/>
	<rect x="462.139" y="350.949" fill="#FFFFFF" width="49.068" height="3.377"/>
	<rect x="469.454" y="367.833" fill="#FFFFFF" width="3.376" height="3.278"/>
	<rect x="504.905" y="367.727" fill="#FFFFFF" width="6.431" height="3.377"/>
	<polygon fill="#FFFFFF" points="480.139,359.84 480.139,358.974 462.23,358.974 462.23,359.84 465.606,359.84 465.606,362.35 
		476.764,362.35 476.764,359.84 	"/>
	<polygon fill="#FFFFFF" points="501.529,359.84 504.905,359.84 504.905,362.35 511.973,362.35 511.973,358.974 501.529,358.974 	
		"/>
	<polygon fill="#FFFFFF" points="501.529,359.84 501.529,362.35 501.529,367.727 501.529,371.104 501.529,371.109 504.905,371.109 
		504.905,371.104 504.905,367.727 504.905,362.35 504.905,359.84 	"/>
	<polygon fill="#FFFFFF" points="462.23,359.84 462.23,362.35 462.23,371.109 465.606,371.109 465.606,362.35 465.606,359.84 	"/>
	<polygon fill="#FFFFFF" points="491.035,367.727 493.405,367.727 493.405,371.104 491.035,371.104 491.035,371.109 
		494.411,371.109 494.411,362.35 491.035,362.35 	"/>
	<polygon fill="#FFFFFF" points="478.265,367.727 480.14,367.727 480.14,359.84 480.139,359.84 476.764,359.84 476.764,362.35 
		476.764,371.109 480.14,371.109 480.14,371.104 478.265,371.104 	"/>
	<polygon fill="#FFFFFF" points="493.405,367.727 491.035,367.727 480.14,367.727 478.265,367.727 478.265,371.104 480.14,371.104 
		491.035,371.104 493.405,371.104 	"/>
	<polygon fill="#FFFFFF" points="484.814,362.35 491.035,362.35 494.411,362.35 494.411,359.84 494.411,358.974 484.814,358.974 	
		"/>
	<rect x="-0.01" y="143.436" fill="#FFFFFF" width="27.441" height="3.376"/>
	<rect x="21.128" y="160.213" fill="#FFFFFF" width="6.431" height="3.376"/>
	<polygon fill="#FFFFFF" points="33.783,160.213 36.21,160.213 36.21,143.436 32.833,143.436 32.833,151.459 35.661,151.459 
		35.661,154.836 32.833,154.836 32.833,163.596 36.21,163.596 36.21,163.589 33.783,163.589 	"/>
	<rect x="44.537" y="160.213" fill="#FFFFFF" width="5.065" height="3.376"/>
	<polygon fill="#FFFFFF" points="36.21,160.213 33.783,160.213 33.783,163.589 36.21,163.589 41.161,163.589 41.161,160.213 	"/>
	<polygon fill="#FFFFFF" points="51.252,162.607 52.98,162.607 52.98,143.436 49.603,143.436 49.603,160.213 49.603,163.589 
		49.603,163.596 51.252,163.596 	"/>
	<polygon fill="#FFFFFF" points="44.537,143.436 41.161,143.436 41.161,160.213 41.161,163.589 41.161,163.596 44.537,163.596 
		44.537,163.589 44.537,160.213 	"/>
	<polygon fill="#FFFFFF" points="35.661,151.459 32.833,151.459 17.752,151.459 17.752,152.326 21.128,152.326 21.128,154.836 
		32.833,154.836 35.661,154.836 	"/>
	<polygon fill="#FFFFFF" points="17.752,152.326 17.752,154.836 17.752,160.213 17.752,163.589 17.752,163.595 21.128,163.595 
		21.128,163.589 21.128,160.213 21.128,154.836 21.128,152.326 	"/>
	<polygon fill="#FFFFFF" points="10.635,162.607 10.635,154.836 7.259,154.836 7.259,160.213 9.628,160.213 9.628,163.589 
		7.259,163.589 7.259,163.595 10.392,163.595 10.392,162.607 	"/>
	<polygon fill="#FFFFFF" points="9.628,163.589 9.628,160.213 7.259,160.213 -0.01,160.213 -0.01,163.589 7.259,163.589 	"/>
	<polygon fill="#FFFFFF" points="10.636,154.836 10.636,151.459 1.037,151.459 1.037,154.836 7.259,154.836 10.635,154.836 	"/>
	<rect x="58.288" y="143.436" fill="#FFFFFF" width="49.068" height="3.376"/>
	<rect x="65.604" y="160.319" fill="#FFFFFF" width="3.377" height="3.279"/>
	<rect x="101.055" y="160.213" fill="#FFFFFF" width="6.43" height="3.376"/>
	<polygon fill="#FFFFFF" points="115.587,154.836 112.759,154.836 112.759,163.596 116.136,163.596 116.136,163.589 
		113.709,163.589 113.709,160.213 116.136,160.213 116.136,143.436 112.759,143.436 112.759,151.459 115.587,151.459 	"/>
	<rect x="124.463" y="160.213" fill="#FFFFFF" width="5.065" height="3.376"/>
	<polygon fill="#FFFFFF" points="113.709,163.589 116.136,163.589 121.087,163.589 121.087,160.213 116.136,160.213 
		113.709,160.213 	"/>
	<polygon fill="#FFFFFF" points="129.529,163.596 131.727,163.596 131.727,162.607 132.906,162.607 132.906,143.436 
		129.529,143.436 129.529,160.213 129.529,163.589 	"/>
	<polygon fill="#FFFFFF" points="121.087,163.596 124.463,163.596 124.463,163.589 124.463,160.213 124.463,143.436 
		121.087,143.436 121.087,160.213 121.087,163.589 	"/>
	<polygon fill="#FFFFFF" points="76.289,152.326 76.289,151.459 58.38,151.459 58.38,152.326 61.756,152.326 61.756,154.836 
		72.913,154.836 72.913,152.326 	"/>
	<polygon fill="#FFFFFF" points="101.055,154.836 112.759,154.836 115.587,154.836 115.587,151.459 112.759,151.459 97.678,151.459 
		97.678,152.326 101.055,152.326 	"/>
	<polygon fill="#FFFFFF" points="97.75,163.595 101.055,163.595 101.055,163.589 101.055,160.213 101.055,154.836 101.055,152.326 
		97.678,152.326 97.678,154.836 97.678,160.213 97.678,162.607 97.75,162.607 	"/>
	<polygon fill="#FFFFFF" points="58.38,152.326 58.379,152.326 58.379,163.595 61.756,163.595 61.756,154.836 61.756,152.326 	"/>
	<polygon fill="#FFFFFF" points="87.185,160.213 89.554,160.213 89.554,163.589 87.185,163.589 87.185,163.595 90.561,163.595 
		90.561,154.836 87.185,154.836 	"/>
	<polygon fill="#FFFFFF" points="74.415,160.213 76.29,160.213 76.29,152.326 76.289,152.326 72.913,152.326 72.913,154.836 
		72.913,163.595 76.29,163.595 76.29,163.589 74.415,163.589 	"/>
	<polygon fill="#FFFFFF" points="89.554,160.213 87.185,160.213 76.29,160.213 74.415,160.213 74.415,163.589 76.29,163.589 
		87.185,163.589 89.554,163.589 	"/>
	<polygon fill="#FFFFFF" points="80.963,154.836 87.185,154.836 90.561,154.836 90.562,154.836 90.562,151.459 80.963,151.459 	"/>
	<rect x="138.731" y="143.436" fill="#FFFFFF" width="49.068" height="3.376"/>
	<rect x="146.046" y="160.319" fill="#FFFFFF" width="3.376" height="3.279"/>
	<rect x="181.496" y="160.213" fill="#FFFFFF" width="6.43" height="3.376"/>
	<polygon fill="#FFFFFF" points="196.03,154.836 193.201,154.836 193.201,163.596 196.577,163.596 196.577,163.589 194.151,163.589 
		194.151,160.213 196.577,160.213 196.577,143.436 193.201,143.436 193.201,151.459 196.03,151.459 	"/>
	<rect x="204.906" y="160.213" fill="#FFFFFF" width="5.065" height="3.376"/>
	<polygon fill="#FFFFFF" points="194.151,163.589 196.577,163.589 201.529,163.589 201.529,160.213 196.577,160.213 
		194.151,160.213 	"/>
	<polygon fill="#FFFFFF" points="209.971,163.596 212.621,163.596 212.621,162.607 213.347,162.607 213.347,143.436 
		209.971,143.436 209.971,160.213 209.971,163.589 	"/>
	<polygon fill="#FFFFFF" points="201.529,163.596 204.906,163.596 204.906,163.589 204.906,160.213 204.906,143.436 
		201.529,143.436 201.529,160.213 201.529,163.589 	"/>
	<polygon fill="#FFFFFF" points="156.731,152.326 156.731,151.459 138.822,151.459 138.822,152.326 142.198,152.326 
		142.198,154.836 153.356,154.836 153.356,152.326 	"/>
	<polygon fill="#FFFFFF" points="181.496,154.836 193.201,154.836 196.03,154.836 196.03,151.459 193.201,151.459 178.12,151.459 
		178.12,152.326 181.496,152.326 	"/>
	<polygon fill="#FFFFFF" points="178.634,163.595 181.496,163.595 181.496,163.589 181.496,160.213 181.496,154.836 
		181.496,152.326 178.12,152.326 178.12,154.836 178.12,160.213 178.12,162.607 178.634,162.607 	"/>
	<polygon fill="#FFFFFF" points="138.822,152.326 138.822,154.836 138.822,163.595 142.198,163.595 142.198,154.836 
		142.198,152.326 	"/>
	<polygon fill="#FFFFFF" points="167.627,160.213 169.996,160.213 169.996,163.589 167.627,163.589 167.627,163.595 
		171.003,163.595 171.003,154.836 167.627,154.836 	"/>
	<polygon fill="#FFFFFF" points="154.857,160.213 156.732,160.213 156.732,152.326 156.731,152.326 153.356,152.326 
		153.356,154.836 153.356,163.595 156.732,163.595 156.732,163.589 154.857,163.589 	"/>
	<polygon fill="#FFFFFF" points="169.996,160.213 167.627,160.213 156.732,160.213 154.857,160.213 154.857,163.589 
		156.732,163.589 167.627,163.589 169.996,163.589 	"/>
	<polygon fill="#FFFFFF" points="161.406,154.836 167.627,154.836 171.003,154.836 171.003,152.326 171.003,151.459 
		161.406,151.459 	"/>
	<rect x="219.461" y="143.436" fill="#FFFFFF" width="49.068" height="3.376"/>
	<rect x="226.777" y="160.319" fill="#FFFFFF" width="3.377" height="3.279"/>
	<rect x="262.227" y="160.213" fill="#FFFFFF" width="6.431" height="3.376"/>
	<polygon fill="#FFFFFF" points="276.76,154.836 273.932,154.836 273.932,163.596 277.309,163.596 277.309,163.589 274.882,163.589 
		274.882,160.213 277.309,160.213 277.309,143.436 273.932,143.436 273.932,151.459 276.76,151.459 	"/>
	<rect x="285.636" y="160.213" fill="#FFFFFF" width="5.065" height="3.376"/>
	<polygon fill="#FFFFFF" points="274.882,163.589 277.309,163.589 282.26,163.589 282.26,160.213 277.309,160.213 274.882,160.213 	
		"/>
	<polygon fill="#FFFFFF" points="290.701,163.596 293.507,163.596 293.507,162.607 294.077,162.607 294.077,143.436 
		290.701,143.436 290.701,160.213 290.701,163.589 	"/>
	<polygon fill="#FFFFFF" points="282.26,163.596 285.636,163.596 285.636,163.589 285.636,160.213 285.636,143.436 282.26,143.436 
		282.26,160.213 282.26,163.589 	"/>
	<polygon fill="#FFFFFF" points="237.462,152.326 237.462,151.459 219.553,151.459 219.553,152.326 222.929,152.326 
		222.929,154.836 234.086,154.836 234.086,152.326 	"/>
	<polygon fill="#FFFFFF" points="262.227,154.836 273.932,154.836 276.76,154.836 276.76,151.459 273.932,151.459 258.851,151.459 
		258.851,152.326 262.227,152.326 	"/>
	<polygon fill="#FFFFFF" points="259.107,163.595 262.227,163.595 262.227,163.589 262.227,160.213 262.227,154.836 
		262.227,152.326 258.851,152.326 258.851,154.836 258.851,160.213 258.851,162.607 259.107,162.607 	"/>
	<polygon fill="#FFFFFF" points="219.553,152.326 219.552,152.326 219.552,163.595 222.929,163.595 222.929,154.836 
		222.929,152.326 	"/>
	<polygon fill="#FFFFFF" points="248.358,160.213 250.727,160.213 250.727,163.589 248.358,163.589 248.358,163.595 
		251.734,163.595 251.734,154.836 248.358,154.836 	"/>
	<polygon fill="#FFFFFF" points="235.588,160.213 237.463,160.213 237.463,152.326 237.462,152.326 234.086,152.326 
		234.086,154.836 234.086,163.595 237.463,163.595 237.463,163.589 235.588,163.589 	"/>
	<polygon fill="#FFFFFF" points="250.727,160.213 248.358,160.213 237.463,160.213 235.588,160.213 235.588,163.589 
		237.463,163.589 248.358,163.589 250.727,163.589 	"/>
	<polygon fill="#FFFFFF" points="242.136,154.836 248.358,154.836 251.734,154.836 251.735,154.836 251.735,151.459 
		242.136,151.459 	"/>
	<rect x="300.667" y="143.436" fill="#FFFFFF" width="49.067" height="3.376"/>
	<rect x="307.983" y="160.319" fill="#FFFFFF" width="3.376" height="3.279"/>
	<rect x="343.433" y="160.213" fill="#FFFFFF" width="6.43" height="3.376"/>
	<polygon fill="#FFFFFF" points="357.966,154.836 355.138,154.836 355.138,163.596 358.514,163.596 358.514,163.589 
		356.087,163.589 356.087,160.213 358.514,160.213 358.514,143.436 355.138,143.436 355.138,151.459 357.966,151.459 	"/>
	<rect x="366.841" y="160.213" fill="#FFFFFF" width="5.066" height="3.376"/>
	<polygon fill="#FFFFFF" points="356.087,163.589 358.514,163.589 363.465,163.589 363.465,160.213 358.514,160.213 
		356.087,160.213 	"/>
	<polygon fill="#FFFFFF" points="371.907,163.596 373.98,163.596 373.98,162.607 375.283,162.607 375.283,143.436 371.907,143.436 
		371.907,160.213 371.907,163.589 	"/>
	<polygon fill="#FFFFFF" points="363.465,163.596 366.841,163.596 366.841,163.589 366.841,160.213 366.841,143.436 
		363.465,143.436 363.465,160.213 363.465,163.589 	"/>
	<polygon fill="#FFFFFF" points="318.667,152.326 318.667,151.459 300.758,151.459 300.758,152.326 304.134,152.326 
		304.134,154.836 315.292,154.836 315.292,152.326 	"/>
	<polygon fill="#FFFFFF" points="343.433,154.836 355.138,154.836 357.966,154.836 357.966,151.459 355.138,151.459 
		340.056,151.459 340.056,152.326 343.433,152.326 	"/>
	<polygon fill="#FFFFFF" points="340.83,163.595 343.433,163.595 343.433,163.589 343.433,160.213 343.433,154.836 343.433,152.326 
		340.056,152.326 340.056,154.836 340.056,160.213 340.056,162.607 340.83,162.607 	"/>
	<polygon fill="#FFFFFF" points="300.758,152.326 300.758,154.836 300.758,163.595 304.134,163.595 304.134,154.836 
		304.134,152.326 	"/>
	<polygon fill="#FFFFFF" points="329.563,160.213 331.932,160.213 331.932,163.589 329.563,163.589 329.563,163.595 332.94,163.595 
		332.94,154.836 329.563,154.836 	"/>
	<polygon fill="#FFFFFF" points="316.793,160.213 318.668,160.213 318.668,152.326 318.667,152.326 315.292,152.326 
		315.292,154.836 315.292,163.595 318.668,163.595 318.668,163.589 316.793,163.589 	"/>
	<polygon fill="#FFFFFF" points="331.932,160.213 329.563,160.213 318.668,160.213 316.793,160.213 316.793,163.589 
		318.668,163.589 329.563,163.589 331.932,163.589 	"/>
	<polygon fill="#FFFFFF" points="323.341,154.836 329.563,154.836 332.94,154.836 332.94,152.326 332.94,151.459 323.341,151.459 	
		"/>
	<rect x="381.407" y="143.436" fill="#FFFFFF" width="49.069" height="3.376"/>
	<rect x="388.724" y="160.319" fill="#FFFFFF" width="3.376" height="3.279"/>
	<rect x="424.174" y="160.213" fill="#FFFFFF" width="6.43" height="3.376"/>
	<polygon fill="#FFFFFF" points="438.707,154.836 435.879,154.836 435.879,163.596 439.255,163.596 439.255,163.589 
		436.828,163.589 436.828,160.213 439.255,160.213 439.255,143.436 435.879,143.436 435.879,151.459 438.707,151.459 	"/>
	<rect x="447.582" y="160.213" fill="#FFFFFF" width="5.066" height="3.376"/>
	<polygon fill="#FFFFFF" points="436.828,163.589 439.255,163.589 444.206,163.589 444.206,160.213 439.255,160.213 
		436.828,160.213 	"/>
	<polygon fill="#FFFFFF" points="452.649,163.596 456.025,163.596 456.025,143.436 452.649,143.436 452.649,160.213 
		452.649,163.589 	"/>
	<polygon fill="#FFFFFF" points="444.206,163.596 447.582,163.596 447.582,163.589 447.582,160.213 447.582,143.436 
		444.206,143.436 444.206,160.213 444.206,163.589 	"/>
	<polygon fill="#FFFFFF" points="399.408,152.326 399.408,151.459 381.499,151.459 381.499,152.326 384.875,152.326 
		384.875,154.836 396.033,154.836 396.033,152.326 	"/>
	<polygon fill="#FFFFFF" points="424.174,154.836 435.879,154.836 438.707,154.836 438.707,151.459 435.879,151.459 
		420.797,151.459 420.797,152.326 424.174,152.326 	"/>
	<polygon fill="#FFFFFF" points="420.888,163.595 424.174,163.595 424.174,163.589 424.174,160.213 424.174,154.836 
		424.174,152.326 420.797,152.326 420.797,154.836 420.797,160.213 420.797,162.607 420.888,162.607 	"/>
	<polygon fill="#FFFFFF" points="381.499,152.326 381.499,154.836 381.499,163.595 384.875,163.595 384.875,154.836 
		384.875,152.326 	"/>
	<polygon fill="#FFFFFF" points="410.304,160.213 412.673,160.213 412.673,163.589 410.304,163.589 410.304,163.595 
		413.681,163.595 413.681,154.836 410.304,154.836 	"/>
	<polygon fill="#FFFFFF" points="397.534,160.213 399.409,160.213 399.409,152.326 399.408,152.326 396.033,152.326 
		396.033,154.836 396.033,163.595 399.409,163.595 399.409,163.589 397.534,163.589 	"/>
	<polygon fill="#FFFFFF" points="412.673,160.213 410.304,160.213 399.409,160.213 397.534,160.213 397.534,163.589 
		399.409,163.589 410.304,163.589 412.673,163.589 	"/>
	<polygon fill="#FFFFFF" points="404.082,154.836 410.304,154.836 413.681,154.836 413.681,152.326 413.681,151.459 
		404.082,151.459 	"/>
	<rect x="462.139" y="143.436" fill="#FFFFFF" width="49.068" height="3.376"/>
	<rect x="469.454" y="160.319" fill="#FFFFFF" width="3.376" height="3.279"/>
	<rect x="504.905" y="160.213" fill="#FFFFFF" width="6.431" height="3.376"/>
	<polygon fill="#FFFFFF" points="480.139,152.326 480.139,151.459 462.23,151.459 462.23,152.326 465.606,152.326 465.606,154.836 
		476.764,154.836 476.764,152.326 	"/>
	<polygon fill="#FFFFFF" points="501.529,152.326 504.905,152.326 504.905,154.836 511.973,154.836 511.973,151.459 
		501.529,151.459 	"/>
	<polygon fill="#FFFFFF" points="501.529,152.326 501.529,154.836 501.529,160.213 501.529,163.589 501.529,163.595 
		504.905,163.595 504.905,163.589 504.905,160.213 504.905,154.836 504.905,152.326 	"/>
	<polygon fill="#FFFFFF" points="462.23,152.326 462.23,154.836 462.23,163.595 465.606,163.595 465.606,154.836 465.606,152.326 	
		"/>
	<polygon fill="#FFFFFF" points="491.035,160.213 493.405,160.213 493.405,163.589 491.035,163.589 491.035,163.595 
		494.411,163.595 494.411,154.836 491.035,154.836 	"/>
	<polygon fill="#FFFFFF" points="478.265,160.213 480.14,160.213 480.14,152.326 480.139,152.326 476.764,152.326 476.764,154.836 
		476.764,163.595 480.14,163.595 480.14,163.589 478.265,163.589 	"/>
	<polygon fill="#FFFFFF" points="493.405,160.213 491.035,160.213 480.14,160.213 478.265,160.213 478.265,163.589 480.14,163.589 
		491.035,163.589 493.405,163.589 	"/>
	<polygon fill="#FFFFFF" points="484.814,154.836 491.035,154.836 494.411,154.836 494.411,152.326 494.411,151.459 
		484.814,151.459 	"/>
	<polygon fill="#D90000" points="91.702,339.499 91.702,343.823 91.702,350.004 97.75,350.004 97.75,343.823 97.75,339.499 	"/>
	<polygon fill="#D90000" points="10.392,339.499 10.392,343.823 10.392,350.004 16.44,350.004 16.44,343.823 16.44,339.499 	"/>
	<polygon fill="#D90000" points="51.252,339.499 51.252,343.823 51.252,350.004 57.3,350.004 57.3,343.823 57.3,339.499 	"/>
	<polygon fill="#D90000" points="131.727,339.499 131.727,343.823 131.727,350.004 137.776,350.004 137.776,343.823 
		137.776,339.499 	"/>
	<polygon fill="#D90000" points="334.782,339.499 334.782,343.823 334.782,350.004 340.83,350.004 340.83,343.823 340.83,339.499 	
		"/>
	<polygon fill="#D90000" points="172.586,339.499 172.586,343.823 172.586,350.004 178.634,350.004 178.634,343.823 
		178.634,339.499 	"/>
	<polygon fill="#D90000" points="212.621,339.499 212.621,343.823 212.621,350.004 218.669,350.004 218.669,343.823 
		218.669,339.499 	"/>
	<polygon fill="#D90000" points="253.059,339.499 253.059,343.823 253.059,350.004 259.107,350.004 259.107,343.823 
		259.107,339.499 	"/>
	<polygon fill="#D90000" points="293.507,339.499 293.507,343.823 293.507,350.004 299.555,350.004 299.555,343.823 
		299.555,339.499 	"/>
	<polygon fill="#D90000" points="373.98,339.499 373.98,343.823 373.98,350.004 380.028,350.004 380.028,343.823 380.028,339.499 	
		"/>
	<polygon fill="#D90000" points="414.84,339.499 414.84,343.823 414.84,350.004 420.888,350.004 420.888,343.823 420.888,339.499 	
		"/>
	<polygon fill="#D90000" points="456.124,339.499 456.124,343.823 456.124,350.004 462.172,350.004 462.172,343.823 
		462.172,339.499 	"/>
	<polygon fill="#D90000" points="494.901,339.499 494.901,343.823 494.901,350.004 500.948,350.004 500.948,343.823 
		500.948,339.499 	"/>
	<polygon fill="#239E3F" points="97.75,162.607 97.678,162.607 91.702,162.607 91.702,168.16 91.702,173.112 97.75,173.112 
		97.75,168.16 97.75,163.595 	"/>
	<polygon fill="#239E3F" points="10.635,162.607 10.392,162.607 10.392,163.595 10.392,168.16 10.392,173.112 16.44,173.112 
		16.44,168.16 16.44,162.607 	"/>
	<polygon fill="#239E3F" points="52.98,162.607 51.252,162.607 51.252,163.596 51.252,168.16 51.252,173.112 57.3,173.112 
		57.3,168.16 57.3,162.607 	"/>
	<polygon fill="#239E3F" points="132.906,162.607 131.727,162.607 131.727,163.596 131.727,168.16 131.727,173.112 137.776,173.112 
		137.776,168.16 137.776,162.607 	"/>
	<polygon fill="#239E3F" points="340.83,162.607 340.056,162.607 334.782,162.607 334.782,168.16 334.782,173.112 340.83,173.112 
		340.83,168.16 340.83,163.595 	"/>
	<polygon fill="#239E3F" points="178.634,162.607 178.12,162.607 172.586,162.607 172.586,168.16 172.586,173.112 178.634,173.112 
		178.634,168.16 178.634,163.595 	"/>
	<polygon fill="#239E3F" points="213.347,162.607 212.621,162.607 212.621,163.596 212.621,168.16 212.621,173.112 218.669,173.112 
		218.669,168.16 218.669,162.607 	"/>
	<polygon fill="#239E3F" points="259.107,162.607 258.851,162.607 253.059,162.607 253.059,168.16 253.059,173.112 259.107,173.112 
		259.107,168.16 259.107,163.595 	"/>
	<polygon fill="#239E3F" points="294.077,162.607 293.507,162.607 293.507,163.596 293.507,168.16 293.507,173.112 299.555,173.112 
		299.555,168.16 299.555,162.607 	"/>
	<polygon fill="#239E3F" points="375.283,162.607 373.98,162.607 373.98,163.596 373.98,168.16 373.98,173.112 380.028,173.112 
		380.028,168.16 380.028,162.607 	"/>
	<polygon fill="#239E3F" points="420.888,162.607 420.797,162.607 414.84,162.607 414.84,168.16 414.84,173.112 420.888,173.112 
		420.888,168.16 420.888,163.595 	"/>
	<polygon fill="#239E3F" points="456.124,162.607 456.124,168.16 456.124,173.112 462.172,173.112 462.172,168.16 462.172,162.607 	
		"/>
	<polygon fill="#239E3F" points="494.901,162.607 494.901,168.16 494.901,173.112 500.948,173.112 500.948,168.16 500.948,162.607 	
		"/>
	<path fill="#DA0000" d="M270.641,315.185c26.392-18.844,35.448-41.864,35.202-62.804c-0.288-24.472-13.26-46.095-26.045-54.869
		c8.441,10.36,34.365,67.392-15.403,104.915l-0.101,10.732C266.358,313.913,268.477,314.59,270.641,315.185z"/>
	<polygon fill="#DA0000" points="279.791,197.507 279.798,197.512 279.791,197.503 	"/>
	<path fill="#DA0000" d="M300.452,307.184c27.288-6.057,61.98-86.417-15.635-112.344
		C303.567,204.439,344.37,252.719,300.452,307.184z"/>
	<path fill="#DA0000" d="M211.602,307.184c-43.918-54.465-3.114-102.744,15.635-112.344
		C149.62,220.767,184.314,301.127,211.602,307.184z"/>
	<polygon fill="#DA0000" points="232.191,197.503 232.184,197.512 232.191,197.507 	"/>
	<path fill="#DA0000" d="M206.139,252.38c-0.248,21.041,8.899,44.183,35.587,63.077c2.282-0.598,4.528-1.271,6.706-2.041
		l-0.161-10.463c-0.121-0.092-0.228-0.177-0.351-0.27c-50.229-37.52-24.198-94.789-15.737-105.172
		C219.399,206.286,206.427,227.909,206.139,252.38z"/>
	<path fill="#DA0000" d="M264.215,321.652c13.154,1.202,30.741,2.509,39.975-2.527c-10.291,0.164-22.438-0.885-33.549-3.94
		c-2.164-0.595-4.283-1.271-6.347-2.025L264.215,321.652z"/>
	<path fill="#DA0000" d="M248.432,313.416c-2.178,0.771-4.424,1.443-6.706,2.041c-10.827,2.841-22.539,3.826-32.51,3.668
		c9.086,4.956,26.264,3.77,39.344,2.585L248.432,313.416z"/>
	<path fill="#DA0000" d="M255.734,192.029c0.775,3.873,21.579,8.553,19.081-11.231c-3.286,7.998-12.814,7.763-18.977,4.066
		c-8.455,4.711-16.354,3.548-19.364-4.454C233.57,195.192,247.99,199.517,255.734,192.029z"/>
	<polygon fill="#DA0000" points="248.56,321.71 248.58,323.023 256.394,331.581 256.394,331.583 264.206,322.653 264.215,321.652 
		264.294,313.159 264.395,302.427 265.323,202.476 256.022,194.29 246.721,202.103 248.272,302.953 248.432,313.416 	"/>
</g>
</svg>
