<?xml version="1.0" encoding="utf-8"?>
<!-- Generator: Adobe Illustrator 16.0.0, SVG Export Plug-In . SVG Version: 6.00 Build 0)  -->
<svg version="1.2" baseProfile="tiny"
	 id="islenskifaninn" xmlns:cc="http://creativecommons.org/ns#" xmlns:dc="http://purl.org/dc/elements/1.1/" xmlns:rdf="http://www.w3.org/1999/02/22-rdf-syntax-ns#"
	 xmlns="http://www.w3.org/2000/svg" xmlns:xlink="http://www.w3.org/1999/xlink" x="0px" y="0px" width="512px" height="512px"
	 viewBox="0 0 512 512" xml:space="preserve">
<g>
	<rect x="222.89" fill="#003897" width="289.111" height="199.111"/>
	<rect x="0" y="312.89" fill="#003897" width="109.111" height="199.111"/>
	<rect x="0" fill="#003897" width="109.111" height="199.111"/>
	<rect x="222.89" y="312.89" fill="#003897" width="289.111" height="199.111"/>
	<polygon fill="#FFFFFF" points="512.001,227.556 512.001,199.111 222.89,199.111 222.89,0 194.445,0 194.445,227.556 	"/>
	<polygon fill="#FFFFFF" points="137.556,0 109.112,0 109.112,199.111 0,199.111 0,227.556 137.556,227.556 	"/>
	<polygon fill="#FFFFFF" points="512.001,312.89 512.001,284.445 194.445,284.445 194.445,512.001 222.89,512.001 222.89,312.89 	
		"/>
	<polygon fill="#FFFFFF" points="0,284.445 0,312.89 109.112,312.89 109.112,512.001 137.556,512.001 137.556,284.445 	"/>
	<polygon fill="#D72828" points="512.001,284.445 512.001,227.556 194.445,227.556 194.445,0 137.556,0 137.556,227.556 0,227.556 
		0,284.445 137.556,284.445 137.556,512.001 194.445,512.001 194.445,284.445 	"/>
</g>
</svg>
