<?xml version="1.0" encoding="utf-8"?>
<!-- Generator: Adobe Illustrator 16.0.0, SVG Export Plug-In . SVG Version: 6.00 Build 0)  -->
<svg version="1.2" baseProfile="tiny"
	 id="svg548" xmlns:cc="http://creativecommons.org/ns#" xmlns:dc="http://purl.org/dc/elements/1.1/" xmlns:rdf="http://www.w3.org/1999/02/22-rdf-syntax-ns#"
	 xmlns="http://www.w3.org/2000/svg" xmlns:xlink="http://www.w3.org/1999/xlink" x="0px" y="0px" width="512px" height="512px"
	 viewBox="0 0 512 512" xml:space="preserve">
<g id="flag" transform="matrix(.512 0 0 1.024 0 .0000020480)">
	<g id="g571" transform="scale(8.3333)">
		<g id="g561">
			<path id="path551" d="M0,0l60,30L0,60V0z"/>
			<path id="path552" d="M120,0L60,30l60,30V0z"/>
			<path id="path556" fill="#009900" d="M0,0l60,30l60-30H0z"/>
			<path id="path557" fill="#009900" d="M0,60l60-30l60,30H0z"/>
		</g>
		<path id="path558" fill="#FFCC00" d="M120,0h-11.18L0,54.41V60h11.18L120,5.59V0z"/>
		<path id="path566" fill="#FFCC00" d="M0,0v5.59L108.82,60H120v-5.59L11.18,0L0,0z"/>
	</g>
</g>
</svg>
