<?xml version="1.0" encoding="utf-8"?>
<!-- Generator: Adobe Illustrator 16.0.0, SVG Export Plug-In . SVG Version: 6.00 Build 0)  -->
<svg version="1.2" baseProfile="tiny"
	 id="svg548" xmlns:cc="http://creativecommons.org/ns#" xmlns:dc="http://purl.org/dc/elements/1.1/" xmlns:rdf="http://www.w3.org/1999/02/22-rdf-syntax-ns#"
	 xmlns="http://www.w3.org/2000/svg" xmlns:xlink="http://www.w3.org/1999/xlink" x="0px" y="0px" width="512px" height="512px"
	 viewBox="0 0 512 512" xml:space="preserve">
<g>
	<polygon points="512.004,170.669 512.004,0 -0.002,0 -0.002,58.909 223.518,170.669 	"/>
	<polygon fill="#FFFFFF" points="394.186,256.003 223.516,341.338 512.004,341.338 512.004,170.669 223.518,170.669 	"/>
	<polygon fill="#009900" points="223.516,341.338 -0.002,453.097 -0.002,512.006 512.004,512.006 512.004,341.338 	"/>
	<path fill="#FF0000" d="M394.186,256.003l-170.668-85.334L-0.002,58.909v394.188l223.518-111.759L394.186,256.003z M11.805,233.202
		l22.931,11.05l5.664-24.82l5.661,24.82l22.931-11.05l-15.867,19.9l22.931,11.045H50.603l5.664,24.82L40.4,269.047l-15.87,19.92
		l5.664-24.82H4.744l22.929-11.045L11.805,233.202z"/>
	<polygon fill="#FFFFFF" points="30.194,264.146 24.53,288.967 40.4,269.047 56.267,288.967 50.603,264.146 76.055,264.146 
		53.124,253.102 68.991,233.202 46.061,244.251 40.4,219.431 34.736,244.251 11.805,233.202 27.673,253.102 4.744,264.146 	"/>
</g>
</svg>
