<?xml version="1.0" encoding="utf-8"?>
<!-- Generator: Adobe Illustrator 16.0.0, SVG Export Plug-In . SVG Version: 6.00 Build 0)  -->
<svg version="1.2" baseProfile="tiny"
	 id="svg548" xmlns:cc="http://creativecommons.org/ns#" xmlns:dc="http://purl.org/dc/elements/1.1/" xmlns:rdf="http://www.w3.org/1999/02/22-rdf-syntax-ns#"
	 xmlns="http://www.w3.org/2000/svg" xmlns:xlink="http://www.w3.org/1999/xlink" x="0px" y="0px" width="512px" height="512px"
	 viewBox="0 0 512 512" xml:space="preserve">
<g>
	<path fill="#FFFFFF" d="M186.189,364.614c-4.792-10.338-8.841-21.101-12.135-32.154H0v32.5h186.355
		C186.302,364.844,186.243,364.73,186.189,364.614z"/>
	<path fill="#FFFFFF" d="M332.026,338.372c-2.784,9.205-6.116,18.089-9.981,26.588H512v-32.5H334.398
		C333.647,334.552,332.857,336.526,332.026,338.372z"/>
	<path fill="#FFFFFF" d="M316.538,159.717c1.825,3.605,3.579,7.263,5.22,10.998c2.023,4.608,3.885,9.302,5.612,14.058
		c0.255-0.472,0.512-0.939,0.772-1.391l0.142-0.245l0.134,0.249c0.354,0.658,0.7,1.34,1.043,2.035H512v-27.45H317.469
		C317.159,158.551,316.853,159.126,316.538,159.717z"/>
	<path fill="#FFFFFF" d="M187.213,157.97H0v27.45h175.69C178.918,175.901,182.758,166.728,187.213,157.97z"/>
	<path fill="#008900" d="M512,364.96H322.044c-1.86,4.091-3.838,8.097-5.938,12.004c13.773,25.466,25.447,47.069,33.379,61.83
		l0.214,0.397l-0.475,0.355c-2.681,1.195-3.844,1.843-5.315,2.663c-0.549,0.306-1.144,0.638-1.877,1.031l-0.476,0.256l-0.256-0.475
		c-6.456-11.975-17.306-32.169-30.516-56.793c-14.81,24.267-34.438,44.347-57.964,58.463l-0.311,0.187l-0.3-0.204
		c-22.04-14.955-41.028-35.644-55.734-60.512c-13.039,24.305-23.742,44.226-30.138,56.09l-0.256,0.475l-0.475-0.256
		c-0.736-0.396-1.333-0.729-1.884-1.035c-1.47-0.819-2.63-1.467-5.307-2.66l-0.441-0.265l0.18-0.487
		c7.875-14.657,19.431-36.045,33.075-61.272c-1.689-3.208-3.324-6.464-4.874-9.792H0V512h512V364.96z"/>
	<path fill="#C23743" d="M172.117,325.582c-2.017-6.894-3.704-14.724-5.004-23.199c-2.391-14.315-3.577-28.906-3.464-43.534
		c0.201-26.024,4.346-50.73,12.042-73.429H0v147.04h174.054C173.375,330.18,172.732,327.887,172.117,325.582z"/>
	<path fill="#C23743" d="M343.613,266.606c-0.034,26.22-3.386,49.6-9.215,65.854H512V185.42H329.461
		C338.388,203.495,343.656,233.563,343.613,266.606z"/>
	<path d="M187.951,156.569c-3.68-6.917-6.963-13.096-9.743-18.342c-2.252,1.338-4.254,1.991-6.105,1.991
		c-8.485,0-11.906-13.391-17.085-33.66c-3.467-13.573-7.783-30.465-14.912-47.585l0.956-0.495
		c10.7,17.032,22.862,30.23,32.634,40.834c10.945,11.877,18.853,20.458,17.836,27.287c-0.42,2.826-2.334,5.246-5.846,7.387
		c0.535,1.332,3.04,6.244,7.05,13.887c14.761-25.282,34.82-46.727,59.481-62.911l0.323-0.212l0.316,0.222
		c23.874,16.829,43.979,39.373,58.984,65.936c5.795-10.966,9.45-18.049,10.111-19.693c-3.517-2.147-5.426-4.563-5.846-7.386
		c-1.016-6.828,6.892-15.409,17.836-27.286c9.772-10.605,21.935-23.803,32.635-40.835l0.956,0.495
		c-7.129,17.12-11.444,34.012-14.912,47.584c-5.178,20.27-8.599,33.66-17.084,33.662c-1.852,0-3.853-0.652-6.106-1.991
		c-3.327,6.278-7.37,13.887-11.962,22.514H512V0H0v157.97h187.213C187.453,157.499,187.708,157.038,187.951,156.569z"/>
	<path fill="#FFFFFF" d="M164.248,438.492c0.423,0.236,0.874,0.487,1.396,0.771c6.473-12.009,17.18-31.938,30.183-56.176
		c-1.374-2.354-2.7-4.753-3.995-7.18c-13.336,24.658-24.653,45.604-32.453,60.119C161.72,437.083,162.846,437.711,164.248,438.492z"
		/>
	<path fill="#FFFFFF" d="M328.745,134.443l0.272-0.514l0.492,0.31c2.279,1.433,4.251,2.128,6.026,2.128
		c7.646-0.001,11.167-13.779,16.038-32.849c3.128-12.243,6.943-27.179,12.893-42.575c-9.969,14.887-20.836,26.68-29.729,36.331
		c-10.741,11.656-18.502,20.078-17.562,26.395c0.383,2.576,2.24,4.809,5.677,6.826c0.649,0.353,0.77,0.418-10.137,21.065
		c-0.08,0.151-0.165,0.312-0.246,0.465c1.193,2.142,2.351,4.312,3.478,6.505C320.903,149.221,325.233,141.074,328.745,134.443z"/>
	<path d="M195.827,383.088c-13.003,24.238-23.71,44.167-30.183,56.176c-0.521-0.284-0.972-0.535-1.396-0.771
		c-1.402-0.781-2.528-1.409-4.869-2.465c7.8-14.515,19.117-35.461,32.453-60.119c-0.205-0.383-0.4-0.772-0.603-1.156
		c-13.644,25.228-25.2,46.615-33.075,61.272l-0.18,0.487l0.441,0.265c2.677,1.193,3.837,1.841,5.307,2.66
		c0.551,0.307,1.148,0.64,1.884,1.035l0.475,0.256l0.256-0.475c6.396-11.864,17.1-31.785,30.138-56.09
		C196.262,383.802,196.039,383.451,195.827,383.088z"/>
	<path d="M312.47,152.024c0.081-0.153,0.166-0.314,0.246-0.465c10.906-20.646,10.786-20.712,10.137-21.065
		c-3.437-2.017-5.294-4.25-5.677-6.826c-0.94-6.317,6.82-14.738,17.562-26.395c8.894-9.651,19.761-21.444,29.729-36.331
		c-5.949,15.396-9.765,30.332-12.893,42.575c-4.871,19.069-8.392,32.847-16.038,32.849c-1.775,0-3.747-0.696-6.026-2.128
		l-0.492-0.31l-0.272,0.514c-3.513,6.631-7.843,14.778-12.798,24.086c0.201,0.393,0.392,0.793,0.591,1.188
		c0.314-0.59,0.621-1.166,0.931-1.747c4.592-8.627,8.635-16.236,11.962-22.514c2.254,1.339,4.255,1.991,6.106,1.991
		c8.485-0.001,11.906-13.392,17.084-33.662c3.468-13.572,7.783-30.464,14.912-47.584l-0.956-0.495
		c-10.7,17.033-22.862,30.23-32.635,40.835c-10.944,11.876-18.852,20.458-17.836,27.286c0.42,2.823,2.329,5.239,5.846,7.386
		c-0.661,1.644-4.316,8.727-10.111,19.693C312.051,151.279,312.262,151.651,312.47,152.024z"/>
	<path fill="#FFFFFF" d="M343.384,441.266c1.396-0.777,2.517-1.402,4.876-2.47c-7.861-14.627-19.303-35.8-32.775-60.711
		c-1.307,2.392-2.659,4.745-4.054,7.062c13.175,24.558,24.028,44.761,30.564,56.886
		C342.514,441.751,342.962,441.501,343.384,441.266z"/>
	<path fill="#FFFFFF" d="M184.803,133.254c3.42-2.007,5.277-4.24,5.661-6.816c0.94-6.317-6.821-14.739-17.562-26.395
		c-8.894-9.651-19.76-21.444-29.73-36.331c5.95,15.396,9.766,30.333,12.894,42.577c4.872,19.069,8.392,32.847,16.038,32.847
		c1.776,0,3.748-0.696,6.026-2.128l0.493-0.31l0.272,0.514c2.751,5.192,6.009,11.326,9.667,18.202
		c1.143-2.169,2.322-4.312,3.54-6.429C184.044,133.671,184.198,133.581,184.803,133.254z"/>
	<path d="M315.485,378.085c13.473,24.911,24.914,46.084,32.775,60.711c-2.359,1.067-3.48,1.692-4.876,2.47
		c-0.422,0.235-0.87,0.485-1.389,0.768c-6.536-12.125-17.39-32.328-30.564-56.886c-0.216,0.36-0.427,0.725-0.646,1.082
		c13.21,24.624,24.06,44.818,30.516,56.793l0.256,0.475l0.476-0.256c0.733-0.394,1.328-0.726,1.877-1.031
		c1.472-0.82,2.635-1.468,5.315-2.663l0.475-0.355l-0.214-0.397c-7.932-14.761-19.605-36.364-33.379-61.83
		C315.904,377.342,315.689,377.709,315.485,378.085z"/>
	<path d="M188.562,155.415c-3.658-6.876-6.916-13.01-9.667-18.202l-0.272-0.514l-0.493,0.31c-2.279,1.432-4.25,2.128-6.026,2.128
		c-7.646,0-11.166-13.778-16.038-32.847c-3.128-12.244-6.944-27.181-12.894-42.577c9.97,14.887,20.836,26.68,29.73,36.331
		c10.742,11.656,18.502,20.078,17.562,26.395c-0.384,2.576-2.241,4.809-5.661,6.816c-0.604,0.327-0.759,0.417,7.298,15.731
		c0.213-0.371,0.42-0.746,0.635-1.115c-4.01-7.643-6.515-12.555-7.05-13.887c3.512-2.141,5.425-4.561,5.846-7.387
		c1.017-6.828-6.891-15.41-17.836-27.287c-9.772-10.604-21.935-23.802-32.634-40.834l-0.956,0.495
		c7.129,17.121,11.445,34.013,14.912,47.585c5.179,20.269,8.6,33.66,17.085,33.66c1.851,0,3.853-0.652,6.105-1.991
		c2.78,5.246,6.063,11.426,9.743,18.342C188.152,156.182,188.359,155.8,188.562,155.415z"/>
	<path fill="#C23743" d="M328.272,345.429l-0.13-0.231c-8.945-16.034-14.72-46.525-15.069-79.577
		c-0.347-32.71,4.703-62.034,13.581-79.474c-1.816-5.07-3.781-10.072-5.935-14.975c-15.33-34.907-38.909-64.309-68.201-85.049
		c-35.935,23.689-62.015,58.639-76.005,100.401c0.839-1.814,1.716-3.519,2.63-5.102l0.141-0.245l0.134,0.249
		c9.56,17.799,15.24,48.909,15.194,83.22c-0.045,34.2-5.727,63.583-15.2,78.599l-0.142,0.225l-0.129-0.231
		c-0.383-0.688-0.759-1.41-1.13-2.149c2.682,7.869,5.743,15.574,9.208,23.049c15.458,33.345,38.043,60.791,65.329,79.395
		c35.507-21.415,62.048-56.527,76.372-99.166c-0.169,0.281-0.337,0.567-0.508,0.839L328.272,345.429z M238.82,260.978
		c0-0.022,0-0.046,0-0.069c-0.012-12.452,6.561-22.562,14.682-22.581s14.714,10.059,14.727,22.511c0,0.022,0,0.046,0,0.069
		c0.013,12.451-6.561,22.562-14.682,22.58C245.426,283.508,238.832,273.43,238.82,260.978z M251.655,93.139l0.129-0.117l0.125,0.122
		c0.045,0.044,0.089,0.091,0.135,0.135h6.369v7.305c12.576,16.813,19.528,42.187,18.462,68.85
		c-0.913,22.818-7.67,42.964-18.462,55.92v9.085H244.69v-10.442c-11.42-15.485-18.135-39.002-17.926-64.146
		c0.198-23.824,6.634-44.792,17.926-59.212v-7.36h6.814C251.555,93.233,251.604,93.185,251.655,93.139z M276.875,373.324
		c-0.855,21.402-6.856,40.451-16.502,53.424v9.622H246.65v-5.969c-12.606-15.382-20.106-40.11-19.886-66.659
		c0.209-25.168,7.383-47.144,19.886-61.584v-6.948h13.724v12.011C271.708,323.983,277.884,348.078,276.875,373.324z"/>
	<path d="M328.92,344.365c-14.324,42.639-40.865,77.751-76.372,99.166c-27.285-18.604-49.871-46.05-65.329-79.395
		c-3.465-7.475-6.526-15.18-9.208-23.049c-2.184-4.348-4.161-9.578-5.894-15.506c0.614,2.305,1.257,4.598,1.937,6.878
		c3.293,11.054,7.342,21.816,12.135,32.154c0.054,0.116,0.113,0.229,0.167,0.346c1.55,3.328,3.185,6.584,4.874,9.792
		c0.202,0.384,0.398,0.773,0.603,1.156c1.295,2.427,2.622,4.826,3.995,7.18c0.212,0.363,0.436,0.714,0.649,1.075
		c14.706,24.868,33.695,45.557,55.734,60.512l0.3,0.204l0.311-0.187c23.526-14.116,43.154-34.196,57.964-58.463
		c0.219-0.357,0.43-0.722,0.646-1.082c1.395-2.317,2.747-4.671,4.054-7.062c0.204-0.376,0.419-0.743,0.622-1.121
		c2.1-3.907,4.077-7.913,5.938-12.004c3.865-8.499,7.197-17.383,9.981-26.588C331.044,340.554,330.008,342.555,328.92,344.365z"/>
	<path d="M176.513,186.523c13.99-41.762,40.07-76.712,76.005-100.401c29.292,20.74,52.871,50.143,68.201,85.049
		c2.153,4.903,4.118,9.905,5.935,14.975c0.236-0.465,0.475-0.925,0.717-1.374c-1.728-4.755-3.589-9.45-5.612-14.058
		c-1.641-3.735-3.395-7.393-5.22-10.998c-0.199-0.395-0.39-0.795-0.591-1.188c-1.127-2.193-2.284-4.363-3.478-6.505
		c-0.208-0.374-0.419-0.745-0.629-1.118c-15.005-26.563-35.11-49.107-58.984-65.936l-0.316-0.222l-0.323,0.212
		c-24.661,16.184-44.72,37.629-59.481,62.911c-0.215,0.369-0.422,0.744-0.635,1.115c-1.217,2.117-2.396,4.26-3.54,6.429
		c-0.203,0.385-0.41,0.767-0.61,1.154c-0.244,0.469-0.499,0.93-0.738,1.401c-4.456,8.757-8.295,17.931-11.522,27.45
		c-7.696,22.698-11.841,47.405-12.042,73.429c-0.113,14.628,1.073,29.219,3.464,43.534c-1.829-11.918-2.896-25.102-3.041-38.723
		C163.741,232.375,168.343,204.179,176.513,186.523z"/>
	<path fill="#FFFFFB" d="M268.228,260.908c0-0.023,0-0.047,0-0.069c-0.013-12.452-6.605-22.53-14.727-22.511
		s-14.693,10.129-14.682,22.581c0,0.023,0,0.047,0,0.069c0.013,12.452,6.606,22.53,14.727,22.511
		C261.667,283.47,268.24,273.359,268.228,260.908z"/>
	<path fill="#FFFFFF" d="M227.138,159.854c-0.207,24.846,6.362,48.084,17.552,63.505V101.253
		C233.633,115.595,227.334,136.321,227.138,159.854z"/>
	<path fill="#FFFFFF" d="M276.501,169.418c1.054-26.37-5.751-51.465-18.088-68.209v123.553
		C268.985,211.859,275.6,191.952,276.501,169.418z"/>
	<path d="M244.69,223.359c-11.189-15.421-17.758-38.66-17.552-63.505c0.196-23.532,6.495-44.259,17.552-58.6v-0.615
		c-11.292,14.42-17.728,35.388-17.926,59.212c-0.209,25.145,6.505,48.661,17.926,64.146V223.359z"/>
	<path d="M252.044,93.279c-0.045-0.044-0.089-0.091-0.135-0.135l-0.125-0.122l-0.129,0.117c-0.051,0.046-0.1,0.094-0.15,0.14
		H252.044z"/>
	<path d="M258.413,101.209c12.337,16.745,19.142,41.839,18.088,68.209c-0.901,22.534-7.517,42.44-18.088,55.344v0.592
		c10.792-12.957,17.549-33.103,18.462-55.92c1.066-26.664-5.886-52.037-18.462-68.85V101.209z"/>
	<path fill="#FFFFFF" d="M260.373,426.125c9.427-12.901,15.283-31.707,16.128-52.815c0.997-24.94-5.033-48.746-16.128-65.42V426.125
		z"/>
	<path fill="#FFFFFF" d="M227.138,363.746c-0.218,26.263,7.134,50.729,19.512,66.065V302.729
		C234.379,317.105,227.345,338.855,227.138,363.746z"/>
	<path d="M260.373,307.221v0.669c11.095,16.674,17.125,40.479,16.128,65.42c-0.845,21.108-6.701,39.914-16.128,52.815v0.623
		c9.646-12.973,15.646-32.021,16.502-53.424C277.884,348.078,271.708,323.983,260.373,307.221z"/>
	<path d="M246.65,429.812c-12.378-15.337-19.73-39.803-19.512-66.065c0.207-24.891,7.241-46.641,19.512-61.018v-0.57
		c-12.503,14.44-19.676,36.416-19.886,61.584c-0.221,26.549,7.28,51.277,19.886,66.659V429.812z"/>
	<polygon fill="#C23743" points="244.69,100.639 244.69,101.253 244.69,223.359 244.69,223.997 244.69,234.439 258.413,234.439 
		258.413,225.354 258.413,224.762 258.413,101.209 258.413,100.583 258.413,93.279 252.044,93.279 251.504,93.279 244.69,93.279 	
		"/>
	<polygon fill="#C23743" points="260.373,426.125 260.373,307.89 260.373,307.221 260.373,295.21 246.65,295.21 246.65,302.158 
		246.65,302.729 246.65,429.812 246.65,430.401 246.65,436.37 260.373,436.37 260.373,426.748 	"/>
	<path d="M179.288,342.851c9.357-15.036,14.965-44.233,15.01-78.205c0.045-34.101-5.568-65.025-15.023-82.82
		c-9.688,16.998-15.25,47.551-14.888,81.831C164.735,296.5,170.44,326.799,179.288,342.851z"/>
	<path d="M178.011,341.088c0.372,0.739,0.747,1.462,1.13,2.149l0.129,0.231l0.142-0.225c9.473-15.016,15.155-44.398,15.2-78.599
		c0.045-34.311-5.635-65.421-15.194-83.22l-0.134-0.249l-0.141,0.245c-0.914,1.583-1.791,3.288-2.63,5.102
		c-8.17,17.656-12.772,45.852-12.441,77.137c0.144,13.621,1.211,26.805,3.041,38.723c1.301,8.476,2.988,16.306,5.004,23.199
		C173.851,331.51,175.827,336.74,178.011,341.088z M164.387,263.656c-0.363-34.28,5.199-64.833,14.888-81.831
		c9.455,17.795,15.068,48.72,15.023,82.82c-0.045,33.972-5.653,63.169-15.01,78.205C170.44,326.799,164.735,296.5,164.387,263.656z"
		/>
	<path d="M328.287,344.811c9.358-15.035,14.966-44.232,15.011-78.205c0.045-34.101-5.568-65.025-15.023-82.82
		c-9.688,16.998-15.251,47.551-14.888,81.831C313.735,298.46,319.44,328.759,328.287,344.811z"/>
	<path d="M326.654,186.146c-8.878,17.44-13.928,46.764-13.581,79.474c0.35,33.052,6.124,63.543,15.069,79.577l0.13,0.231
		l0.141-0.225c0.171-0.271,0.339-0.558,0.508-0.839c1.088-1.811,2.124-3.812,3.105-5.993c0.831-1.846,1.621-3.82,2.372-5.912
		c5.829-16.254,9.181-39.634,9.215-65.854c0.043-33.043-5.225-63.111-14.151-81.187c-0.343-0.694-0.689-1.376-1.043-2.035
		l-0.134-0.249l-0.142,0.245c-0.261,0.452-0.518,0.919-0.772,1.391C327.128,185.221,326.89,185.681,326.654,186.146z
		 M328.275,183.785c9.455,17.795,15.068,48.72,15.023,82.82c-0.045,33.973-5.652,63.17-15.011,78.205
		c-8.848-16.052-14.553-46.351-14.9-79.194C313.024,231.336,318.586,200.783,328.275,183.785z"/>
</g>
</svg>
