<?xml version="1.0" encoding="utf-8"?>
<!-- Generator: Adobe Illustrator 16.0.0, SVG Export Plug-In . SVG Version: 6.00 Build 0)  -->
<svg version="1.2" baseProfile="tiny"
	 id="svg719" xmlns:cc="http://creativecommons.org/ns#" xmlns:dc="http://purl.org/dc/elements/1.1/" xmlns:rdf="http://www.w3.org/1999/02/22-rdf-syntax-ns#"
	 xmlns="http://www.w3.org/2000/svg" xmlns:xlink="http://www.w3.org/1999/xlink" x="0px" y="0px" width="512px" height="512px"
	 viewBox="0 0 512 512" xml:space="preserve">
<g>
	<path fill="#BE0027" d="M-0.007,0v511.987h511.987V0H-0.007z M355.777,261.356c-0.074,1.429-0.184,2.848-0.317,4.259
		c17.891,3.67,31.907,13.974,50.493,13.127c-9.906,11.028-33.33,1.076-52.269-1.655c-0.258,1.195-0.531,2.384-0.832,3.562
		c18.042,7.488,32.95,20.934,47.765,21.714c-11.929,9.16-32.228-5.896-51.413-10.329c-0.521,1.342-1.074,2.669-1.651,3.982
		c17.922,9.753,33.042,27.703,43.975,28.179c-11.331,7.744-31.442-10.936-48.929-18.416c-0.701,1.21-1.427,2.404-2.177,3.581
		c16.454,12.459,26.087,31.661,38.943,34.812c-15.025,4.821-29.848-16.026-45.481-25.734c-0.904,1.118-1.832,2.217-2.783,3.294
		c14.546,14.231,18.018,31.604,33.292,40.121c-15.163,3.707-26.886-20.225-41.093-32.211c-1.028,0.933-2.078,1.842-3.146,2.73
		c11.834,15.567,15.722,37.611,26.331,45.557c-15.44,0.816-23.116-24.897-35.494-38.777c-1.117,0.732-2.25,1.443-3.398,2.131
		c8.375,15.795,7.8,38.127,18.585,48.832c-16.472-3.379-17.954-27.668-29.094-43.364c-1.255,0.56-2.522,1.097-3.805,1.605
		c6.876,17.747,3.091,38.592,11.294,51.316c-16.238-6.568-13.45-29.488-22.237-47.704c-1.352,0.36-2.714,0.693-4.087,0.997
		c2.874,17.439-3.079,36.155,3.502,52.203c-14.345-6.997-9.738-32.518-14.036-50.461c-1.305,0.145-2.616,0.265-3.935,0.358
		c0.771,18.41-6.424,34.771-2.531,52.23c-14.855-17.23-4.127-34.548-7.508-52.024c-1.793-0.052-3.575-0.154-5.343-0.301
		c-1.798,18.736-13.271,33.655-10.997,50.971c-11.702-13.669,0.191-33.909-0.189-52.54c-1.401-0.279-2.792-0.59-4.171-0.928
		c-4.093,19.328-19.163,36.227-17.882,49.019c-9.525-15.878,4.497-34.064,7.239-52.264c-1.231-0.453-2.45-0.935-3.657-1.435
		c-6.648,16.252-22.256,27.941-25.742,45.27c-6.111-18.771,9.734-33.421,15.411-50.275c-1.373-0.766-2.725-1.563-4.056-2.393
		c-9.909,14.574-25.62,23.703-31.938,41.062c-5.108-18.869,14.467-30.676,22.991-47.328c-1.063-0.836-2.104-1.697-3.132-2.575
		c-12.167,14.477-31.209,20.563-38.37,35.148c-2.56-18.396,19.604-28.829,30.014-43.176c-0.976-1.053-1.929-2.127-2.859-3.221
		c-13.875,12.353-34.766,15.476-42.958,29.376c-1.206-18.587,23.18-24.249,36.361-38.052c-0.816-1.206-1.604-2.434-2.368-3.678
		c-14.669,8.937-36.777,9.919-47.259,21.672c1.614-16.781,27.223-21.401,41.898-31.642c-0.624-1.337-1.218-2.689-1.783-4.058
		c-16.043,6.463-37.286,4.421-50.413,14.013c6.97-16.226,31.576-17.501,46.912-23.978c-0.448-1.533-0.859-3.083-1.234-4.646
		c-17.419,2.65-39.659-1.502-51.867,5.802c11.036-16.017,32.722-11.762,49.947-16.236c-0.208-1.615-0.375-3.244-0.504-4.883
		c-21.124,0.012-35.819-7.261-52.344-2.863c11.182-13.6,32.172-5.206,52.09-8.277c0.049-1.518,0.127-3.028,0.243-4.528
		c-19.792-2.466-33.157-12.341-51.172-10.631c18.129-11.136,34.078-1.297,52.779-1.037c0.254-1.279,0.534-2.548,0.837-3.81
		c-20.557-4.976-23.4-15.926-48.999-17.713c21.596-9.21,34.396,4.061,52.295,6.791c0.521-1.421,1.076-2.826,1.66-4.216
		c-20.271-8.408-26.195-22.032-45.718-25.306c28.178-4.253,31.2,9.021,50.856,14.853c0.647-1.142,1.317-2.27,2.008-3.383
		c-20.232-11.954-16.981-22.533-41.146-31.972c26.119-0.617,29.008,14.383,47.676,22.671c0.97-1.226,1.968-2.428,2.994-3.606
		c-16.444-14.242-16.856-27.188-35.89-37.656c21.678,0.392,27.374,18.593,43.507,29.825c1.036-0.955,2.093-1.888,3.17-2.798
		c-13.297-15.358-11.642-29.047-29.157-43.409c21.934,5.145,22.992,22.199,38.511,36.391c1.197-0.792,2.41-1.562,3.643-2.303
		c-10.638-17.426-7.547-31.323-22.449-46.853c21.44,6.905,17.885,23.868,32.15,41.729c1.386-0.637,2.789-1.241,4.208-1.814
		c-6.952-18.568-2.532-32.502-14.923-49.996c19.67,10.158,14.977,27.664,25.619,46.372c1.559-0.431,3.133-0.824,4.722-1.179
		c-3.678-18.779,1.889-32.866-6.825-51.575c16.472,12.307,11.478,30.769,17.981,49.743c1.643-0.174,3.298-0.308,4.964-0.401
		c-0.606-20.968,8.653-28.383,5.034-51.994c12.728,15.625,3.054,31.256,6.188,51.993c1.426,0.08,2.844,0.187,4.252,0.326
		c2.755-21.203,14.357-29.735,11.902-51.125c12.192,18.202-0.709,34.506-1.1,52.799c1.631,0.345,3.246,0.731,4.846,1.155
		c5.932-20.044,19.881-28.621,20.138-48.186c9.905,17.708-6.343,31.292-9.737,51.572c1.393,0.541,2.77,1.114,4.131,1.715
		c9.824-20.939,25.547-26.338,27.665-44.357c5.86,19.989-11.72,31.316-17.729,49.433c1.211,0.708,2.408,1.436,3.587,2.193
		c11.072-17.387,30.043-22.484,34.506-39.6c2.74,21.705-14.554,28.58-24.622,46.852c0.92,0.766,1.825,1.55,2.717,2.348
		c13.507-14.298,31.237-18.279,40.053-33.705c-0.68,21.02-20.038,27.169-32.014,41.778c0.815,0.918,1.619,1.848,2.4,2.796
		c14.807-11.121,31.485-11.338,45.279-26.337c-1.473,19.44-22.269,21.753-38.248,35.995c0.621,0.97,1.22,1.956,1.808,2.948
		c16.974-8.387,37.37-7.154,48.762-18.964c-0.555,16.959-25.186,18.921-43.416,29.347c0.499,1.13,0.981,2.271,1.439,3.422
		c18.438-4.937,38.565-2.016,51.205-10.778c-2.306,14.741-28.188,14.647-47.569,21.77c0.35,1.308,0.673,2.625,0.97,3.954
		c19.303-1.544,35.499,4.664,52.345-1.773c-7.966,14.094-31.823,9.752-50.468,13.353c0.136,1.342,0.238,2.694,0.32,4.051
		c17.904,1.283,36.108,9.206,52.185,5.782C402.569,268.178,376.393,259.805,355.777,261.356z"/>
	<path fill="#FFFF00" d="M163.482,136.93c17.515,14.362,15.86,28.051,29.157,43.409c2.973-2.517,6.096-4.861,9.354-7.019
		C186.473,159.128,185.416,142.074,163.482,136.93z"/>
	<path fill="#FFFF00" d="M324.4,120.942c-2.118,18.019-17.841,23.418-27.665,44.357c3.418,1.509,6.734,3.205,9.937,5.075
		C312.68,152.258,330.26,140.931,324.4,120.942z"/>
	<path fill="#FFFF00" d="M344.764,132.968c-4.463,17.116-23.434,22.212-34.506,39.6c3.447,2.215,6.746,4.64,9.884,7.252
		C330.21,161.547,347.504,154.673,344.764,132.968z"/>
	<path fill="#FFFF00" d="M390.899,186.679c-11.392,11.81-31.788,10.577-48.762,18.964c1.978,3.34,3.764,6.806,5.346,10.383
		C365.713,205.6,390.344,203.638,390.899,186.679z"/>
	<path fill="#FFFF00" d="M400.127,208.67c-12.64,8.763-32.767,5.841-51.205,10.778c1.419,3.566,2.633,7.236,3.636,10.992
		C371.94,223.317,397.822,223.411,400.127,208.67z"/>
	<path fill="#FFFF00" d="M378.577,166.7c-13.794,15-30.473,15.216-45.279,26.337c2.53,3.07,4.88,6.294,7.031,9.657
		C356.309,188.453,377.105,186.141,378.577,166.7z"/>
	<path fill="#FFFF00" d="M278.457,106.244c2.455,21.39-9.147,29.922-11.902,51.125c3.664,0.361,7.268,0.925,10.803,1.674
		C277.748,140.75,290.65,124.445,278.457,106.244z"/>
	<path fill="#FFFF00" d="M204.621,114.083c12.391,17.493,7.971,31.428,14.923,49.996c3.472-1.403,7.042-2.616,10.696-3.624
		C219.598,141.748,224.292,124.241,204.621,114.083z"/>
	<path fill="#FFFF00" d="M183.186,124.165c14.902,15.53,11.812,29.427,22.449,46.853c3.126-1.88,6.364-3.591,9.701-5.124
		C201.071,148.032,204.626,131.069,183.186,124.165z"/>
	<path fill="#FFFF00" d="M228.137,107.701c8.714,18.708,3.147,32.796,6.825,51.575c3.647-0.815,7.369-1.431,11.156-1.832
		C239.615,138.47,244.609,120.008,228.137,107.701z"/>
	<path fill="#FFFF00" d="M302.341,112.012c-0.257,19.565-14.206,28.142-20.138,48.186c3.549,0.941,7.02,2.073,10.4,3.386
		C295.998,143.305,312.246,129.72,302.341,112.012z"/>
	<path fill="#FFFF00" d="M253.74,355.271c3.381,17.477-7.347,34.794,7.508,52.024c-3.893-17.459,3.303-33.82,2.531-52.23
		c-2.34,0.165-4.701,0.254-7.083,0.254C255.707,355.318,254.722,355.3,253.74,355.271z"/>
	<path fill="#FFFF00" d="M183.918,323.526c-10.41,14.347-32.573,24.78-30.014,43.176c7.161-14.585,26.203-20.672,38.37-35.148
		C189.335,329.042,186.545,326.36,183.918,323.526z"/>
	<path fill="#FFFF00" d="M323.299,329.641c14.207,11.986,25.93,35.918,41.093,32.211c-15.274-8.517-18.746-25.89-33.292-40.121
		C328.648,324.51,326.045,327.152,323.299,329.641z"/>
	<path fill="#FFFF00" d="M355.725,250.025c0.121,2.01,0.19,4.035,0.19,6.075c0,1.763-0.048,3.516-0.139,5.256
		c20.616-1.552,46.792,6.821,52.133-5.55C391.833,259.23,373.629,251.308,355.725,250.025z"/>
	<path fill="#FFFF00" d="M405.872,232.621c-16.846,6.437-33.042,0.229-52.345,1.773c0.844,3.783,1.479,7.646,1.877,11.579
		C374.049,242.373,397.906,246.715,405.872,232.621z"/>
	<path fill="#FFFF00" d="M262.303,157.042c-3.134-20.737,6.54-36.368-6.188-51.993c3.619,23.61-5.64,31.026-5.034,51.994
		c1.859-0.104,3.73-0.161,5.615-0.161C258.578,156.882,260.447,156.939,262.303,157.042z"/>
	<path fill="#FFFF00" d="M330.898,190.242c11.976-14.609,31.334-20.759,32.014-41.778c-8.815,15.426-26.546,19.407-40.053,33.705
		C325.69,184.704,328.373,187.4,330.898,190.242z"/>
	<path fill="#FFFF00" d="M157.537,252.856c-19.917,3.071-40.908-5.323-52.09,8.277c16.524-4.397,31.22,2.875,52.344,2.863
		c-0.205-2.605-0.312-5.238-0.312-7.896C157.479,255.014,157.503,253.934,157.537,252.856z"/>
	<path fill="#FFFF00" d="M189.469,183.137c-16.133-11.232-21.829-29.433-43.507-29.825c19.034,10.468,19.446,23.414,35.89,37.656
		C184.245,188.22,186.789,185.607,189.469,183.137z"/>
	<path fill="#FFFF00" d="M281.75,405.167c-6.581-16.048-0.628-34.764-3.502-52.203c-3.448,0.764-6.963,1.348-10.534,1.742
		C272.012,372.649,267.406,398.17,281.75,405.167z"/>
	<path fill="#FFFF00" d="M391.527,324.194c-10.933-0.476-26.053-18.426-43.975-28.179c-1.477,3.355-3.13,6.614-4.954,9.763
		C360.084,313.259,380.196,331.938,391.527,324.194z"/>
	<path fill="#FFFF00" d="M106.609,237.696c18.015-1.71,31.38,8.165,51.172,10.631c0.307-3.959,0.85-7.853,1.607-11.668
		C140.686,236.399,124.738,226.56,106.609,237.696z"/>
	<path fill="#FFFF00" d="M400.616,302.362c-14.814-0.78-29.723-14.226-47.765-21.714c-0.99,3.893-2.213,7.691-3.648,11.385
		C368.389,296.467,388.688,311.522,400.616,302.362z"/>
	<path fill="#FFFF00" d="M111.226,215.137c25.599,1.787,28.442,12.737,48.999,17.713c0.895-3.726,1.994-7.373,3.296-10.922
		C145.622,219.197,132.822,205.926,111.226,215.137z"/>
	<path fill="#FFFF00" d="M192.998,393.062c3.486-17.328,19.094-29.018,25.742-45.27c-3.553-1.473-7.001-3.146-10.332-5.006
		C202.732,359.642,186.887,374.292,192.998,393.062z"/>
	<path fill="#FFFF00" d="M405.952,278.742c-18.586,0.847-32.603-9.457-50.493-13.127c-0.371,3.895-0.968,7.723-1.775,11.472
		C372.622,279.818,396.046,289.771,405.952,278.742z"/>
	<path fill="#FFFF00" d="M114.538,307.938c13.127-9.592,34.369-7.55,50.413-14.013c-1.337-3.239-2.507-6.563-3.5-9.965
		C146.115,290.437,121.508,291.712,114.538,307.938z"/>
	<path fill="#FFFF00" d="M124.836,329.624c10.481-11.753,32.589-12.735,47.259-21.672c-1.97-3.207-3.759-6.535-5.361-9.97
		C152.059,308.223,126.45,312.843,124.836,329.624z"/>
	<path fill="#FFFF00" d="M379.365,344.171c-12.856-3.15-22.489-22.353-38.943-34.812c-2.01,3.152-4.195,6.181-6.538,9.077
		C349.517,328.145,364.339,348.992,379.365,344.171z"/>
	<path fill="#FFFF00" d="M119.463,192.405c19.523,3.274,25.447,16.898,45.718,25.306c1.511-3.598,3.23-7.086,5.138-10.453
		C150.663,201.426,147.641,188.152,119.463,192.405z"/>
	<path fill="#FFFF00" d="M108.349,285.115c12.208-7.304,34.448-3.151,51.867-5.802c-0.818-3.413-1.465-6.894-1.92-10.435
		C141.071,273.354,119.385,269.099,108.349,285.115z"/>
	<path fill="#FFFF00" d="M172.415,381.457c6.318-17.359,22.028-26.488,31.938-41.062c-3.099-1.928-6.088-4.018-8.947-6.266
		C186.883,350.781,167.307,362.588,172.415,381.457z"/>
	<path fill="#FFFF00" d="M138.102,349.682c8.192-13.9,29.082-17.023,42.958-29.376c-2.351-2.767-4.557-5.66-6.597-8.676
		C161.282,325.433,136.896,331.095,138.102,349.682z"/>
	<path fill="#FFFF00" d="M215.158,401.491c-1.28-12.792,13.789-29.69,17.882-49.019c-3.629-0.888-7.183-1.97-10.643-3.245
		C219.655,367.427,205.633,385.613,215.158,401.491z"/>
	<path fill="#FFFF00" d="M237.401,405.94c-2.275-17.315,9.199-32.234,10.997-50.971c-3.793-0.313-7.526-0.841-11.186-1.569
		C237.592,372.031,225.698,392.271,237.401,405.94z"/>
	<path fill="#FFFF00" d="M304.573,399.671c-8.203-12.725-4.418-33.569-11.294-51.316c-3.552,1.409-7.205,2.615-10.943,3.612
		C291.122,370.183,288.334,393.103,304.573,399.671z"/>
	<path fill="#FFFF00" d="M346.485,377.928c-10.609-7.945-14.497-29.989-26.331-45.557c-2.917,2.43-5.977,4.692-9.163,6.779
		C323.368,353.03,331.044,378.744,346.485,377.928z"/>
	<path fill="#FFFF00" d="M131.182,171.903c24.164,9.438,20.914,20.018,41.146,31.972c2.002-3.228,4.182-6.334,6.53-9.301
		C160.19,186.286,157.301,171.286,131.182,171.903z"/>
	<path fill="#FFFF00" d="M326.177,390.113c-10.785-10.705-10.21-33.037-18.585-48.832c-3.378,2.022-6.886,3.851-10.509,5.468
		C308.223,362.445,309.705,386.734,326.177,390.113z"/>
	<path fill="#FFFF00" d="M355.725,250.025c-0.082-1.357-0.185-2.709-0.32-4.051c-0.398-3.933-1.033-7.796-1.877-11.579
		c-0.297-1.329-0.62-2.646-0.97-3.954c-1.003-3.756-2.217-7.425-3.636-10.992c-0.458-1.152-0.94-2.292-1.439-3.422
		c-1.582-3.577-3.368-7.043-5.346-10.383c-0.588-0.993-1.187-1.978-1.808-2.948c-2.151-3.363-4.501-6.587-7.031-9.657
		c-0.781-0.948-1.585-1.877-2.4-2.796c-2.524-2.842-5.208-5.538-8.039-8.074c-0.892-0.798-1.797-1.582-2.717-2.348
		c-3.138-2.612-6.437-5.038-9.884-7.252c-1.179-0.757-2.376-1.485-3.587-2.193c-3.202-1.871-6.519-3.566-9.937-5.075
		c-1.361-0.602-2.738-1.174-4.131-1.715c-3.381-1.313-6.852-2.445-10.4-3.386c-1.6-0.424-3.215-0.81-4.846-1.155
		c-3.535-0.749-7.139-1.312-10.803-1.674c-1.408-0.139-2.826-0.247-4.252-0.326c-1.856-0.103-3.725-0.161-5.606-0.161
		c-1.885,0-3.756,0.058-5.615,0.161c-1.666,0.093-3.321,0.227-4.964,0.401c-3.787,0.401-7.509,1.017-11.156,1.832
		c-1.589,0.355-3.163,0.749-4.722,1.179c-3.654,1.008-7.224,2.221-10.696,3.624c-1.419,0.574-2.822,1.178-4.208,1.814
		c-3.337,1.532-6.575,3.244-9.701,5.124c-1.232,0.741-2.446,1.511-3.643,2.303c-3.258,2.157-6.381,4.502-9.354,7.019
		c-1.077,0.911-2.134,1.843-3.17,2.798c-2.679,2.47-5.223,5.083-7.617,7.831c-1.026,1.178-2.023,2.38-2.994,3.606
		c-2.349,2.967-4.528,6.073-6.53,9.301c-0.69,1.113-1.36,2.241-2.008,3.383c-1.908,3.367-3.627,6.855-5.138,10.453
		c-0.584,1.39-1.139,2.795-1.66,4.216c-1.302,3.549-2.401,7.196-3.296,10.922c-0.303,1.261-0.583,2.531-0.837,3.81
		c-0.758,3.816-1.301,7.709-1.607,11.668c-0.116,1.5-0.194,3.01-0.243,4.528c-0.035,1.078-0.059,2.158-0.059,3.244
		c0,2.658,0.107,5.291,0.312,7.896c0.129,1.639,0.297,3.268,0.504,4.883c0.456,3.541,1.102,7.021,1.92,10.435
		c0.375,1.563,0.786,3.113,1.234,4.646c0.993,3.401,2.164,6.726,3.5,9.965c0.565,1.368,1.16,2.721,1.783,4.058
		c1.602,3.435,3.391,6.763,5.361,9.97c0.764,1.244,1.551,2.472,2.368,3.678c2.04,3.016,4.246,5.909,6.597,8.676
		c0.93,1.094,1.883,2.168,2.859,3.221c2.627,2.834,5.417,5.516,8.356,8.027c1.027,0.878,2.069,1.739,3.132,2.575
		c2.859,2.248,5.848,4.338,8.947,6.266c1.332,0.829,2.684,1.627,4.056,2.393c3.331,1.859,6.778,3.533,10.332,5.006
		c1.208,0.5,2.426,0.981,3.657,1.435c3.46,1.275,7.014,2.357,10.643,3.245c1.379,0.338,2.77,0.648,4.171,0.928
		c3.66,0.729,7.392,1.256,11.186,1.569c1.768,0.146,3.549,0.249,5.343,0.301c0.982,0.029,1.967,0.048,2.957,0.048
		c2.382,0,4.743-0.089,7.083-0.254c1.318-0.094,2.63-0.214,3.935-0.358c3.571-0.395,7.086-0.979,10.534-1.742
		c1.373-0.304,2.735-0.637,4.087-0.997c3.738-0.997,7.392-2.203,10.943-3.612c1.282-0.509,2.55-1.046,3.805-1.605
		c3.623-1.617,7.131-3.445,10.509-5.468c1.148-0.688,2.281-1.398,3.398-2.131c3.187-2.087,6.246-4.35,9.163-6.779
		c1.067-0.889,2.117-1.798,3.146-2.73c2.746-2.488,5.349-5.131,7.801-7.91c0.951-1.077,1.879-2.176,2.783-3.294
		c2.343-2.896,4.528-5.925,6.538-9.077c0.75-1.177,1.476-2.371,2.177-3.581c1.824-3.148,3.478-6.407,4.954-9.763
		c0.577-1.313,1.13-2.641,1.651-3.982c1.436-3.693,2.658-7.492,3.648-11.385c0.301-1.178,0.574-2.366,0.832-3.562
		c0.808-3.749,1.404-7.577,1.775-11.472c0.134-1.411,0.243-2.83,0.317-4.259c0.091-1.74,0.139-3.493,0.139-5.256
		C355.915,254.06,355.846,252.035,355.725,250.025z M256.89,342.555c-47.642,0-86.261-38.621-86.261-86.26
		c0-47.641,38.621-86.26,86.261-86.26c47.641,0,86.26,38.62,86.26,86.26C343.15,303.936,304.53,342.555,256.89,342.555z"/>
	<path fill="#BE0027" d="M343.15,256.294c0-47.64-38.619-86.26-86.26-86.26c-47.64,0-86.261,38.619-86.261,86.26
		c0,47.639,38.619,86.26,86.261,86.26C304.53,342.555,343.15,303.936,343.15,256.294z M312.999,305.044
		c0.016,1.278,0.015,2.564-0.02,3.864c-2.708,3.352-6.963,7.091-9.671,10.442c0.247-1.791,0.419-3.595,0.52-5.407
		c-2.473,2.014-5.079,3.869-7.802,5.556c-0.071,1.102-0.155,2.211-0.26,3.334c-3.158,1.87-6.899,4.513-10.058,6.382
		c0.256-1.544,0.471-3.105,0.658-4.676c-2.006,0.864-4.06,1.634-6.152,2.321c-0.211,1.106-0.438,2.213-0.695,3.321
		c-3.224,0.967-8.187,3.676-11.411,4.643c0.555-1.749,1.044-3.53,1.48-5.332c-4.067,0.692-8.241,1.072-12.506,1.072
		c-3.865,0-7.66-0.298-11.366-0.868c0.341,1.456,0.708,2.909,1.115,4.354c-3.868-0.967-6.769-2.128-10.637-3.095
		c-0.224-1.184-0.418-2.374-0.601-3.568c-2.442-0.739-4.834-1.595-7.164-2.573c0.067,0.822,0.135,1.644,0.22,2.467
		c-3.352-1.547-5.931-2.708-9.282-4.255c-0.171-1-0.311-2.015-0.435-3.035c-2.674-1.61-5.229-3.395-7.668-5.319
		c0.048,0.85,0.101,1.7,0.174,2.553c-2.966-2.644-5.738-3.933-8.704-6.576c-0.17-1.404-0.278-2.81-0.352-4.214
		c-12.034-13.171-19.376-30.7-19.376-49.946c0-9.867,1.945-19.276,5.447-27.885c-1.212,0.005-2.447,0.019-3.706,0.039
		c3.158-6.512,6.125-14.183,9.284-20.695c2.329-0.051,4.725-0.07,7.163-0.048c13.581-15.607,33.574-25.487,55.888-25.487
		c22.472,0,42.591,10.02,56.176,25.82c1.388,0.07,2.777,0.166,4.169,0.295c3.676,6.705,7.35,13.41,11.024,20.114
		c-0.941-0.095-1.882-0.174-2.821-0.242c3.554,8.664,5.527,18.144,5.527,28.088C331.158,275.07,324.301,292.04,312.999,305.044z"/>
	<path fill="#FFFF00" d="M243.932,242.567c-18.958,11.927-34.423,40.723-32.666,72.105c2.44,1.925,4.994,3.709,7.668,5.319
		C215.775,294.074,227.433,261.611,243.932,242.567z"/>
	<path fill="#FFFF00" d="M313.259,208.232c-13.585-15.8-33.704-25.82-56.176-25.82c-22.313,0-42.307,9.879-55.888,25.487
		c19.027,0.173,40.779,2.997,55.694,14.941C273.594,212.407,293.175,207.224,313.259,208.232z"/>
	<path fill="#FFFF00" d="M252.056,249.338c-13.602,7.871-26.456,41.019-23.625,75.477c2.329,0.979,4.721,1.834,7.164,2.573
		C231.159,298.266,238.927,266.306,252.056,249.338z"/>
	<path fill="#FFFF00" d="M234.841,236.959c-15.166-6.768-28.293-8.438-46.387-8.356c-3.502,8.609-5.447,18.018-5.447,27.885
		c0,19.246,7.343,36.775,19.376,49.946C200.962,279.61,216.586,253.133,234.841,236.959z"/>
	<path fill="#FFFF00" d="M270.429,242.375c17.104,24.691,27.543,47.044,25.598,77.124c2.723-1.687,5.329-3.542,7.802-5.556
		C305.325,286.92,290.851,258.023,270.429,242.375z"/>
	<path fill="#FFFF00" d="M257.278,256.107c-13.082,18.768-17.809,46.923-11.56,73.589c3.706,0.57,7.5,0.868,11.366,0.868
		c4.265,0,8.438-0.38,12.506-1.072C275.686,304.267,270.274,274.459,257.278,256.107z"/>
	<path fill="#FFFF00" d="M278.359,236.766c22.551,17.868,34.317,40.686,34.641,68.278c11.302-13.004,18.159-29.974,18.159-48.556
		c0-9.944-1.974-19.424-5.527-28.088C310.616,227.316,295.773,229.728,278.359,236.766z"/>
	<path fill="#FFFF00" d="M263.081,249.144c11.514,16.93,23.022,46.84,17.134,77.717c2.093-0.688,4.146-1.457,6.152-2.321
		C289.577,297.591,282.637,267.236,263.081,249.144z"/>
	<path fill="#BE0027" d="M278.359,236.766c17.414-7.038,32.258-9.45,47.272-8.366c0.939,0.068,1.88,0.146,2.821,0.242
		c-3.675-6.705-7.349-13.41-11.024-20.114c-1.392-0.129-2.781-0.226-4.169-0.295c-20.084-1.009-39.665,4.175-56.369,14.608
		c-14.915-11.944-36.667-14.768-55.694-14.941c-2.438-0.022-4.834-0.003-7.163,0.048c-3.159,6.512-6.126,14.183-9.284,20.695
		c1.259-0.02,2.494-0.034,3.706-0.039c18.094-0.082,31.221,1.588,46.387,8.356c-18.255,16.174-33.879,42.651-32.458,69.475
		c0.074,1.404,0.182,2.81,0.352,4.214c2.966,2.644,5.738,3.933,8.704,6.576c-0.073-0.853-0.126-1.703-0.174-2.553
		c-1.757-31.382,13.708-60.178,32.666-72.105c-16.499,19.044-28.157,51.507-24.998,77.424c0.125,1.021,0.264,2.035,0.435,3.035
		c3.352,1.547,5.931,2.708,9.282,4.255c-0.085-0.823-0.153-1.645-0.22-2.467c-2.832-34.458,10.023-67.605,23.625-75.477
		c-13.129,16.968-20.897,48.928-16.461,78.05c0.182,1.194,0.377,2.385,0.601,3.568c3.868,0.967,6.769,2.128,10.637,3.095
		c-0.407-1.445-0.773-2.898-1.115-4.354c-6.249-26.666-1.521-54.821,11.56-73.589c12.996,18.352,18.408,48.16,12.312,73.385
		c-0.437,1.802-0.926,3.583-1.48,5.332c3.225-0.967,8.188-3.676,11.411-4.643c0.257-1.108,0.484-2.215,0.695-3.321
		c5.889-30.877-5.62-60.787-17.134-77.717c19.556,18.093,26.496,48.447,23.286,75.396c-0.188,1.57-0.402,3.132-0.658,4.676
		c3.158-1.869,6.899-4.512,10.058-6.382c0.104-1.123,0.188-2.232,0.26-3.334c1.945-30.08-8.494-52.433-25.598-77.124
		c20.422,15.648,34.896,44.545,33.399,71.568c-0.101,1.812-0.272,3.616-0.52,5.407c2.708-3.352,6.963-7.091,9.671-10.442
		c0.034-1.3,0.035-2.586,0.02-3.864C312.676,277.452,300.909,254.634,278.359,236.766z"/>
</g>
</svg>
