<?xml version="1.0" encoding="utf-8"?>
<!-- Generator: Adobe Illustrator 16.0.0, SVG Export Plug-In . SVG Version: 6.00 Build 0)  -->
<svg version="1.2" baseProfile="tiny"
	 id="svg548" xmlns:cc="http://creativecommons.org/ns#" xmlns:dc="http://purl.org/dc/elements/1.1/" xmlns:rdf="http://www.w3.org/1999/02/22-rdf-syntax-ns#"
	 xmlns="http://www.w3.org/2000/svg" xmlns:xlink="http://www.w3.org/1999/xlink" x="0px" y="0px" width="512px" height="512px"
	 viewBox="0 0 512 512" xml:space="preserve">
<g>
	<rect x="0.001" fill="#1B0073" width="511.983" height="128.001"/>
	<rect x="0.001" y="383.992" fill="#1B0073" width="511.983" height="127.991"/>
	<path fill="#E60006" d="M157.884,216.165l-4.651,4.023C156.15,218.971,157.336,217.562,157.884,216.165z"/>
	<path fill="#E60006" d="M511.985,128.001H0.001v160.728h50.541v1.195H0.001v94.068h511.983V128.001z M393.642,366.227h-19.314
		v-0.022H264.53v0.101h-15.897v-0.101H137.651v0.022h-19.314v-0.022H36.06v-16.921h13.518v-15.906h13.519v-11.356h9.464v-9.086
		h5.408v-3.405h10.626l4.015-9.457h0.057v-39.943h-1.717v-11.586h-3.658v-13.342h12.667l0.098-17.672l-1.842-1.594l1.419-0.955
		c0.93-0.625,2.068-0.942,3.385-0.942c2.408,0,4.975,1.078,6.481,1.836c0.263-0.527,0.629-1.183,1.101-1.915l-1.362-1.992
		l0.937-1.065c0.771-0.876,1.788-1.34,2.941-1.34c0.009,0,0.018,0.002,0.026,0.002l-9.401-7.55l2.106-1.316
		c0.831-0.519,1.833-0.782,2.978-0.782c1.702,0,3.453,0.583,4.689,1.109c0.313-0.516,0.729-1.121,1.252-1.774l-0.326-3.96
		l0.23-0.564c0.121-0.296,0.743-1.662,2.32-3.28h-0.146l-12.112-6.641l5.643-2.407c0.792-0.338,1.714-0.509,2.74-0.509
		c1.13,0,2.285,0.209,3.228,0.445c0.976-0.914,2.453-1.999,4.621-2.973c-0.763-4.766,2.093-11.624,4.874-17.376
		c0.191-0.396,0.344-0.707,0.439-0.915v-1.387h1.691c0.812,0,1.58,0,4.36,6.426c1.274,2.945,2.804,7.221,2.852,10.865
		c0.011,0.849-0.065,1.632-0.217,2.353c2.209,0.982,3.709,2.082,4.696,3.006c0.943-0.236,2.098-0.445,3.229-0.445
		c1.026,0,1.948,0.171,2.74,0.509l5.645,2.407l-12.114,6.642h-0.148c1.577,1.618,2.199,2.984,2.32,3.28l0.23,0.564l-0.292,3.561
		c0.685,0.807,1.204,1.554,1.581,2.173c1.236-0.527,2.987-1.109,4.689-1.109c1.145,0,2.146,0.263,2.978,0.782l2.106,1.316
		l-9.436,7.579c1.028,0.074,1.941,0.51,2.644,1.309l0.937,1.065l-1.178,1.722c0.562,0.844,0.979,1.592,1.275,2.185
		c1.506-0.758,4.073-1.836,6.481-1.836c1.316,0,2.455,0.317,3.385,0.942l1.271,0.856c0.005-0.015,0.011-0.029,0.015-0.043
		l0.977,0.167l-0.586,19.241h51.561l-0.485-37.708l1.569-0.133c0.444,2.809,2.385,10.098,5.993,10.098h9.688l-0.002-0.213
		c-2.083-0.477-6.68-1.774-8.068-4.186c-0.495-0.859-0.581-1.803-0.248-2.729c0.235-0.654,0.905-1.752,2.75-1.752
		c2.627,0,6.907,2.46,9.638,4.224l-0.093-8.072c-2.01-0.465-5.659-1.566-6.828-3.61c-0.468-0.818-0.542-1.715-0.213-2.595
		c0.193-0.517,0.845-1.719,2.725-1.719c2.274,0,5.806,1.91,8.193,3.382l-0.053-5.541c-1.689-0.492-4.45-1.548-5.542-3.41
		c-0.516-0.879-0.63-1.852-0.331-2.812c0.369-1.185,1.36-1.892,2.653-1.892c2.039,0,5.036,1.918,7.118,3.46l-0.027-2.419
		c-1.545-0.467-3.419-1.304-4.244-2.733c-0.496-0.859-0.586-1.846-0.255-2.776c0.434-1.218,1.559-1.975,2.936-1.975
		c0.755,0,1.635,0.251,2.53,0.62l0.556-0.349c-0.982-0.488-1.973-1.186-2.548-2.164c-0.536-0.909-0.667-1.962-0.37-2.965
		c0.402-1.357,1.589-2.234,3.022-2.234c0.202,0,0.413,0.03,0.626,0.066c-0.477-0.371-0.904-0.814-1.217-1.347
		c-0.567-0.966-0.699-2.084-0.371-3.148c0.371-1.204,1.311-2.053,2.493-2.335c-0.557-0.995-0.716-2.138-0.434-3.237
		c0.158-0.615,0.454-1.153,0.848-1.59c-1.685-1.704-1.386-3.644-1.22-4.292c0.233-0.907,0.921-3.587,9.934-9.277
		c-0.032-0.118-0.064-0.232-0.092-0.333c-0.459-1.657-1.154-4.162,0.417-6.297c1.056-1.436,2.813-2.202,5.222-2.278l0.131-0.004
		l0.131,0.007c0.969,0.051,3.915,0.205,5.371,2.47c1.364,2.123,0.453,4.434-0.092,5.814c-0.033,0.084-0.071,0.18-0.109,0.278
		c3.729,2.823,8.029,6.625,8.8,9.62c0.154,0.601,0.422,2.31-0.88,3.914c0.597,0.485,1.044,1.161,1.252,1.97
		c0.132,0.517,0.344,1.853-0.424,3.236c1.184,0.282,2.125,1.131,2.497,2.336c0.328,1.065,0.195,2.183-0.372,3.149
		c-0.312,0.532-0.739,0.976-1.217,1.347c0.214-0.037,0.425-0.066,0.627-0.066c1.434,0,2.619,0.877,3.021,2.234
		c0.298,1.002,0.167,2.055-0.369,2.965c-0.575,0.977-1.564,1.675-2.547,2.164l0.558,0.35c0.896-0.369,1.775-0.621,2.53-0.621
		c1.378,0,2.503,0.757,2.937,1.975c0.331,0.931,0.24,1.917-0.256,2.776c-0.824,1.43-2.699,2.267-4.244,2.733l-0.026,2.397
		c2.081-1.539,5.059-3.438,7.088-3.438c1.292,0,2.283,0.707,2.652,1.892c0.299,0.961,0.185,1.934-0.331,2.812
		c-1.093,1.862-3.853,2.918-5.542,3.41l-0.054,5.559c2.387-1.475,5.939-3.401,8.223-3.401c1.881,0,2.532,1.202,2.726,1.719
		c0.328,0.879,0.255,1.776-0.213,2.595c-1.17,2.044-4.819,3.145-6.829,3.61l-0.093,8.066c2.731-1.764,7.004-4.218,9.628-4.218
		c1.347,0,2.349,0.639,2.749,1.752c0.333,0.926,0.247,1.87-0.248,2.729c-1.388,2.411-5.984,3.709-8.067,4.186l-0.002,0.213h9.687
		c3.613,0,5.55-7.289,5.991-10.097l1.569,0.133l-0.484,37.708h51.385l0.104-18.855l0.944-0.227c0.008,0.014,0.258,0.426,1.038,1.05
		c0.889-0.535,1.945-0.818,3.162-0.818c2.408,0,4.975,1.078,6.48,1.835c0.423-0.847,1.101-2.014,2.093-3.327l-1.979-2.892
		l0.937-1.065c0.198-0.225,0.413-0.421,0.642-0.591l-7.449-5.984l2.106-1.316c0.831-0.519,1.832-0.782,2.977-0.782
		c1.701,0,3.453,0.583,4.689,1.109c0.335-0.55,0.786-1.203,1.361-1.907l-0.06-0.724l0.229-0.564
		c0.024-0.059,0.076-0.174,0.144-0.312l-0.373-4.542l0.229-0.564c0.121-0.295,0.743-1.661,2.32-3.279h-0.146l-12.114-6.642
		l5.646-2.407c0.792-0.337,1.714-0.509,2.74-0.509c1.13,0,2.284,0.209,3.228,0.445c0.976-0.914,2.453-1.999,4.62-2.973
		c-0.762-4.766,2.094-11.624,4.874-17.376c0.191-0.396,0.345-0.707,0.439-0.915v-1.387h1.691c0.812,0,1.58,0,4.361,6.426
		c1.274,2.945,2.804,7.22,2.852,10.864c0.012,0.849-0.065,1.632-0.217,2.354c2.208,0.982,3.709,2.082,4.695,3.006
		c0.943-0.236,2.098-0.445,3.229-0.445c1.026,0,1.948,0.171,2.74,0.509l5.644,2.407l-12.113,6.641h-0.147
		c1.577,1.618,2.199,2.984,2.32,3.279l0.229,0.564l-0.373,4.542c0.067,0.139,0.119,0.253,0.144,0.312l0.229,0.564l-0.096,1.167
		c0.408,0.534,0.746,1.031,1.009,1.463c1.236-0.527,2.988-1.109,4.689-1.109c1.145,0,2.146,0.263,2.977,0.782l2.106,1.316
		l-7.283,5.851c0.311,0.199,0.606,0.429,0.866,0.724l0.937,1.065l-2.163,3.162c0.884,1.204,1.493,2.269,1.887,3.057
		c1.506-0.757,4.072-1.835,6.48-1.835c0.77,0,1.47,0.121,2.111,0.336c0.154-0.298,0.275-0.597,0.37-0.895l0.977,0.167l-0.041,1.355
		l1.388,0.933l-1.455,1.258l-0.478,15.694h12.854v13.342h-3.658v11.586h-1.727v39.943h0.062l4.015,9.457h9.245v3.405h5.408v9.086
		h10.813v11.356h13.519v15.906h13.519v16.921h-82.247V366.227z"/>
	<rect x="414.598" y="260.129" fill="#FFFFFF" width="3.541" height="39.943"/>
	<rect x="93.836" y="260.129" fill="#FFFFFF" width="2.623" height="39.943"/>
	<polygon fill="#FFFFFF" points="161.349,300.072 165.979,300.072 165.979,272.224 173.469,272.224 173.469,300.072 
		177.591,300.072 177.591,272.221 185.081,272.221 185.081,300.072 187.912,300.072 187.912,272.221 195.402,272.221 
		195.402,300.072 198.232,300.072 198.232,272.221 205.723,272.221 205.723,300.072 209.844,300.072 209.844,272.223 
		217.334,272.223 217.334,300.072 221.216,300.072 221.216,260.129 161.349,260.129 	"/>
	<polygon fill="#FFFFFF" points="294.786,272.223 302.276,272.223 302.276,300.072 306.397,300.072 306.397,272.219 
		313.886,272.219 313.886,300.072 316.718,300.072 316.718,272.219 324.207,272.219 324.207,300.072 327.039,300.072 
		327.039,272.219 334.529,272.219 334.529,300.072 338.65,300.072 338.65,272.221 346.14,272.221 346.14,300.072 349.199,300.072 
		349.199,260.129 290.103,260.129 290.103,300.072 294.786,300.072 	"/>
	<rect x="418.139" y="260.129" fill="#E60000" width="1.17" height="39.943"/>
	<rect x="92.666" y="260.129" fill="#E60000" width="1.17" height="39.943"/>
	<polygon fill="#FFFFFF" points="290.472,301.322 294.915,309.529 344.956,309.529 349.183,301.322 	"/>
	<polygon fill="#FFFFFF" points="422.027,309.529 418.542,301.322 414.867,301.322 419.094,309.529 	"/>
	<polygon fill="#FFFFFF" points="162.119,301.322 166.346,309.529 217.057,309.529 221.501,301.322 	"/>
	<polygon fill="#FFFFFF" points="93.436,301.322 89.952,309.529 92.201,309.529 96.428,301.322 	"/>
	<polygon fill="#E60000" points="217.334,301.113 209.844,301.113 209.844,300.072 205.723,300.072 205.723,301.111 
		198.232,301.111 198.232,300.072 195.402,300.072 195.402,301.113 187.912,301.113 187.912,300.072 185.081,300.072 
		185.081,301.111 177.591,301.111 177.591,300.072 173.469,300.072 173.469,301.115 165.979,301.115 165.979,300.072 
		161.349,300.072 161.349,300.136 161.508,300.136 162.119,301.322 221.501,301.322 221.593,301.153 221.216,301.153 
		221.216,300.072 217.334,300.072 	"/>
	<polygon fill="#E60000" points="290.472,301.322 349.183,301.322 349.324,301.048 349.199,301.048 349.199,300.072 346.14,300.072 
		346.14,301.111 338.65,301.111 338.65,300.072 334.529,300.072 334.529,301.109 327.039,301.109 327.039,300.072 324.207,300.072 
		324.207,301.11 316.718,301.11 316.718,300.072 313.886,300.072 313.886,301.109 306.397,301.109 306.397,300.072 302.276,300.072 
		302.276,301.113 294.786,301.113 294.786,300.072 290.103,300.072 290.103,300.641 	"/>
	<polygon fill="#E60000" points="418.139,300.072 414.598,300.072 414.598,300.8 414.867,301.322 418.542,301.322 422.027,309.529 
		423.385,309.529 419.37,300.072 419.309,300.072 	"/>
	<polygon fill="#E60000" points="89.952,309.529 93.436,301.322 96.428,301.322 96.522,301.141 96.459,301.141 96.459,300.072 
		93.836,300.072 92.666,300.072 92.609,300.072 88.594,309.529 	"/>
	<polygon fill="#FFFFFF" points="367.654,301.259 350.478,301.259 346.218,309.529 365.508,309.529 	"/>
	<polygon fill="#FFFFFF" points="413.573,301.259 401.637,301.259 403.782,309.529 417.832,309.529 	"/>
	<polygon fill="#E60000" points="401.582,301.048 401.637,301.259 413.573,301.259 417.832,309.529 419.094,309.529 
		414.867,301.322 414.598,300.8 414.598,301.048 	"/>
	<polygon fill="#E60000" points="350.478,301.259 367.654,301.259 367.708,301.048 349.324,301.048 349.183,301.322 
		344.956,309.529 346.218,309.529 	"/>
	<polygon fill="#FFFFFF" points="396.197,301.457 397.549,309.529 402.212,309.529 400.118,301.457 	"/>
	<polygon fill="#FFFFFF" points="369.172,301.457 367.078,309.529 371.776,309.529 373.129,301.457 	"/>
	<polygon fill="#E60000" points="401.637,301.259 401.582,301.048 396.128,301.048 396.197,301.457 400.118,301.457 
		402.212,309.529 403.782,309.529 	"/>
	<polygon fill="#E60000" points="373.129,301.457 373.198,301.048 367.708,301.048 367.654,301.259 365.508,309.529 
		367.078,309.529 369.172,301.457 	"/>
	<polygon fill="#FFFFFF" points="373.828,309.529 374.327,309.529 374.327,309.471 374.653,309.471 374.653,304.611 	"/>
	<polygon fill="#FFFFFF" points="394.116,301.709 394.116,309.529 395.497,309.529 394.187,301.709 	"/>
	<polygon fill="#E60000" points="396.128,301.048 394.116,301.048 394.116,301.709 394.187,301.709 395.497,309.529 
		397.549,309.529 396.197,301.457 	"/>
	<polygon fill="#E60000" points="373.198,301.048 373.129,301.457 371.776,309.529 373.828,309.529 374.653,304.611 
		374.653,301.048 	"/>
	<polygon fill="#FFFFFF" points="289.182,301.246 273.564,301.246 275.817,309.529 293.667,309.529 	"/>
	<polygon fill="#FFFFFF" points="237.977,301.246 222.791,301.246 218.306,309.529 235.724,309.529 	"/>
	<polygon fill="#E60000" points="290.103,300.641 290.103,301.153 273.539,301.153 273.564,301.246 289.182,301.246 
		293.667,309.529 294.915,309.529 290.472,301.322 	"/>
	<polygon fill="#E60000" points="221.501,301.322 217.057,309.529 218.306,309.529 222.791,301.246 237.977,301.246 
		238.002,301.153 221.593,301.153 	"/>
	<rect x="290.103" y="248.543" fill="#FFFFFF" width="59.097" height="10.637"/>
	<rect x="414.598" y="248.543" fill="#FFFFFF" width="5.488" height="10.637"/>
	<rect x="91.899" y="248.543" fill="#FFFFFF" width="4.56" height="10.637"/>
	<rect x="161.349" y="248.543" fill="#FFFFFF" width="59.866" height="10.637"/>
	<rect x="290.103" y="259.18" fill="#E60000" width="59.097" height="0.949"/>
	<polygon fill="#E60000" points="93.836,260.129 96.459,260.129 96.459,259.18 91.899,259.18 91.899,248.543 90.949,248.543 
		90.949,260.129 92.666,260.129 	"/>
	<polygon fill="#E60000" points="420.086,248.543 420.086,259.18 414.598,259.18 414.598,260.129 418.139,260.129 419.309,260.129 
		421.035,260.129 421.035,248.543 	"/>
	<rect x="161.349" y="259.18" fill="#E60000" width="59.866" height="0.949"/>
	<polygon fill="#FFFFFF" points="395.779,249.668 395.323,250.168 394.116,250.168 394.116,300.155 395.388,300.155 
		395.388,272.343 402.644,272.343 402.644,300.155 413.705,300.155 413.705,248.626 411.431,248.626 411.412,249.223 
		396.247,249.191 396.232,249.668 	"/>
	<polygon fill="#FFFFFF" points="350.092,300.155 367.005,300.155 367.005,272.343 374.261,272.343 374.261,300.155 
		374.653,300.155 374.653,250.168 372.674,250.168 372.218,249.668 371.763,249.668 371.746,249.151 371.736,249.14 
		353.313,249.101 353.316,248.626 350.092,248.626 	"/>
	<polygon fill="#E60000" points="349.199,248.543 349.199,259.18 349.199,260.129 349.199,300.072 349.199,301.048 349.324,301.048 
		367.708,301.048 373.198,301.048 374.653,301.048 374.653,300.155 374.261,300.155 374.261,301 367.005,301 367.005,300.155 
		350.092,300.155 350.092,248.626 353.316,248.626 353.316,248.543 	"/>
	<polygon fill="#E60000" points="413.705,300.155 402.644,300.155 402.644,301 395.388,301 395.388,300.155 394.116,300.155 
		394.116,301.048 396.128,301.048 401.582,301.048 414.598,301.048 414.598,300.8 414.598,300.072 414.598,260.129 414.598,259.18 
		414.598,248.543 411.433,248.543 411.431,248.626 413.705,248.626 	"/>
	<rect x="396.193" y="273.147" fill="#FFFFFF" width="5.646" height="27.048"/>
	<path fill="#E60000" d="M395.388,301h7.256v-0.845v-27.812h-7.256v27.812V301z M401.839,300.195h-5.646v-27.048h5.646V300.195z"/>
	<rect x="367.81" y="273.147" fill="#FFFFFF" width="5.646" height="27.048"/>
	<path fill="#E60000" d="M374.261,272.343h-7.256v27.812V301h7.256v-0.845V272.343z M373.456,300.195h-5.646v-27.048h5.646V300.195z
		"/>
	<polygon fill="#FFFFFF" points="237.335,309.529 242.927,309.529 244.301,301.475 239.526,301.475 	"/>
	<polygon fill="#FFFFFF" points="267.672,301.475 269.046,309.529 274.207,309.529 272.016,301.475 	"/>
	<polygon fill="#E60000" points="273.564,301.246 273.539,301.153 267.616,301.153 267.672,301.475 272.016,301.475 
		274.207,309.529 275.817,309.529 	"/>
	<polygon fill="#E60000" points="235.724,309.529 237.335,309.529 239.526,301.475 244.301,301.475 244.355,301.153 
		238.002,301.153 237.977,301.246 	"/>
	<polygon fill="#FFFFFF" points="244.91,309.529 248.632,309.529 248.632,301.675 246.25,301.675 	"/>
	<polygon fill="#FFFFFF" points="265.722,301.675 264.53,301.675 264.53,309.529 267.062,309.529 	"/>
	<polygon fill="#E60000" points="244.355,301.153 244.301,301.475 242.927,309.529 244.91,309.529 246.25,301.675 248.632,301.675 
		248.632,301.153 	"/>
	<polygon fill="#E60000" points="267.062,309.529 269.046,309.529 267.672,301.475 267.616,301.153 264.53,301.153 264.53,301.675 
		265.722,301.675 	"/>
	<polygon fill="#FFFFFF" points="272.801,300.235 275.31,300.235 275.31,272.221 282.8,272.221 282.8,300.235 289.185,300.235 
		289.185,248.543 272.801,248.543 	"/>
	<polygon fill="#FFFFFF" points="239.174,248.543 222.135,248.543 222.135,300.235 230.424,300.235 230.424,272.218 
		237.919,272.218 237.919,300.235 239.174,300.235 	"/>
	<polygon fill="#E60000" points="267.616,301.153 273.539,301.153 290.103,301.153 290.103,300.641 290.103,300.072 
		290.103,260.129 290.103,259.18 290.103,248.543 289.185,248.543 289.185,300.235 282.8,300.235 282.8,301.113 275.31,301.113 
		275.31,300.235 272.801,300.235 272.801,301.038 271.189,301.038 271.189,301.11 264.53,301.11 264.53,301.153 	"/>
	<polygon fill="#E60000" points="242.035,301.112 242.035,301.038 239.174,301.038 239.174,300.235 237.919,300.235 237.919,301.11 
		230.424,301.11 230.424,300.235 222.135,300.235 222.135,248.543 221.216,248.543 221.216,259.18 221.216,260.129 221.216,300.072 
		221.216,301.153 221.593,301.153 238.002,301.153 244.355,301.153 248.632,301.153 248.632,301.112 	"/>
	<rect x="276.349" y="273.26" fill="#FFFFFF" width="5.412" height="26.814"/>
	<path fill="#E60000" d="M282.8,272.221h-7.49v28.015v0.878h7.49v-0.878V272.221z M276.349,273.26h5.412v26.814h-5.412V273.26z"/>
	<rect x="231.464" y="273.259" fill="#FFFFFF" width="5.415" height="26.811"/>
	<path fill="#E60000" d="M237.919,272.218h-7.495v28.018v0.875h7.495v-0.875V272.218z M231.464,273.259h5.415v26.811h-5.415V273.259
		z"/>
	<polygon fill="#FFFFFF" points="271.189,300.325 272.088,300.325 272.088,248.824 271.55,249.369 268.329,249.369 264.53,254.551 
		264.53,272.219 271.189,272.219 	"/>
	<polygon fill="#FFFFFF" points="239.887,249.369 239.887,300.325 242.035,300.325 242.035,272.22 248.632,272.22 248.632,256.753 
		243.519,249.369 	"/>
	<polygon fill="#E60000" points="239.174,248.543 239.174,300.235 239.174,301.038 242.035,301.038 242.035,300.325 
		239.887,300.325 239.887,249.369 239.67,249.369 239.67,248.596 239.618,248.543 	"/>
	<polygon fill="#E60000" points="272.801,248.543 272.365,248.543 272.088,248.824 272.088,300.325 271.189,300.325 
		271.189,301.038 272.801,301.038 272.801,300.235 	"/>
	<rect x="264.739" y="273.258" fill="#FFFFFF" width="5.411" height="26.813"/>
	<path fill="#E60000" d="M271.189,301.11v-0.072v-0.713v-28.106h-6.659v28.892H271.189z M264.739,273.258h5.411v26.813h-5.411
		V273.258z"/>
	<rect x="243.075" y="273.261" fill="#FFFFFF" width="5.415" height="26.811"/>
	<path fill="#E60000" d="M242.035,300.325v0.713v0.074h6.597V272.22h-6.597V300.325z M248.49,300.071h-5.415v-26.811h5.415V300.071z
		"/>
	<polygon fill="#FFFFFF" points="264.53,249.369 264.53,252.861 267.09,249.369 	"/>
	<polygon fill="#FFFFFF" points="248.632,254.996 248.632,249.369 244.735,249.369 	"/>
	<polygon fill="#E60000" points="267.09,249.369 264.53,252.861 264.53,254.551 268.329,249.369 	"/>
	<polygon fill="#E60000" points="243.519,249.369 248.632,256.753 248.632,254.996 244.735,249.369 	"/>
	<rect x="375.83" y="250.168" fill="#FFFFFF" width="1.867" height="59.302"/>
	<rect x="391.053" y="250.168" fill="#FFFFFF" width="1.886" height="59.302"/>
	<polygon fill="#E60000" points="394.116,301.709 394.116,301.048 394.116,300.155 394.116,250.168 392.939,250.168 
		392.939,309.471 393.642,309.471 393.642,309.529 394.116,309.529 	"/>
	<polygon fill="#E60000" points="375.83,250.168 374.653,250.168 374.653,300.155 374.653,301.048 374.653,304.611 374.653,309.471 
		375.83,309.471 	"/>
	<rect x="378.875" y="250.168" fill="#FFFFFF" width="11" height="59.302"/>
	<rect x="389.875" y="250.168" fill="#E60000" width="1.178" height="59.302"/>
	<rect x="377.698" y="250.168" fill="#E60000" width="1.178" height="59.302"/>
	<polygon fill="#FFFFFF" points="111.734,301.259 97.724,301.259 93.464,309.529 109.731,309.529 	"/>
	<polygon fill="#FFFFFF" points="160.823,301.259 143.677,301.259 145.68,309.529 165.083,309.529 	"/>
	<polygon fill="#E60000" points="161.508,300.136 161.349,300.136 161.349,301.141 143.649,301.141 143.677,301.259 
		160.823,301.259 165.083,309.529 166.346,309.529 162.119,301.322 	"/>
	<polygon fill="#E60000" points="97.724,301.259 111.734,301.259 111.762,301.141 96.522,301.141 96.428,301.322 92.201,309.529 
		93.464,309.529 	"/>
	<polygon fill="#FFFFFF" points="113.356,301.516 111.415,309.529 115.65,309.529 116.888,301.516 	"/>
	<polygon fill="#FFFFFF" points="138.348,301.516 139.586,309.529 143.996,309.529 142.055,301.516 	"/>
	<polygon fill="#E60000" points="143.677,301.259 143.649,301.141 138.29,301.141 138.348,301.516 142.055,301.516 143.996,309.529 
		145.68,309.529 	"/>
	<polygon fill="#E60000" points="116.888,301.516 116.946,301.141 111.762,301.141 111.734,301.259 109.731,309.529 
		111.415,309.529 113.356,301.516 	"/>
	<polygon fill="#FFFFFF" points="117.723,309.529 118.258,309.529 118.258,306.072 	"/>
	<polygon fill="#E60000" points="138.29,301.141 137.722,301.141 137.722,309.529 139.586,309.529 138.348,301.516 	"/>
	<polygon fill="#E60000" points="118.258,301.141 116.946,301.141 116.888,301.516 115.65,309.529 117.723,309.529 118.258,306.072 
			"/>
	<polygon fill="#FFFFFF" points="139.783,249.668 139.327,250.168 137.722,250.168 137.722,300.248 138.654,300.248 
		138.654,272.346 145.908,272.346 145.908,300.248 160.458,300.248 160.458,248.543 158.002,248.543 157.981,249.223 
		140.251,249.186 140.235,249.668 	"/>
	<polygon fill="#FFFFFF" points="97.35,300.248 108.981,300.248 108.981,272.345 116.236,272.345 116.236,300.248 118.258,300.248 
		118.258,250.168 116.678,250.168 116.222,249.668 115.768,249.668 115.751,249.152 115.735,249.134 99.881,249.101 99.884,248.543 
		97.35,248.543 	"/>
	<polygon fill="#E60000" points="111.762,301.141 116.946,301.141 118.258,301.141 118.258,300.248 116.236,300.248 
		116.236,301.002 108.981,301.002 108.981,300.248 97.35,300.248 97.35,248.543 96.459,248.543 96.459,259.18 96.459,260.129 
		96.459,300.072 96.459,301.141 96.522,301.141 	"/>
	<polygon fill="#E60000" points="143.649,301.141 161.349,301.141 161.349,300.136 161.349,300.072 161.349,260.129 161.349,259.18 
		161.349,248.543 160.458,248.543 160.458,300.248 145.908,300.248 145.908,301.003 138.654,301.003 138.654,300.248 
		137.722,300.248 137.722,301.141 138.29,301.141 	"/>
	<rect x="109.785" y="273.149" fill="#FFFFFF" width="5.646" height="27.048"/>
	<path fill="#E60000" d="M116.236,272.345h-7.255v27.903v0.754h7.255v-0.754V272.345z M109.785,300.197v-27.048h5.646v27.048
		H109.785z"/>
	<rect x="139.458" y="273.15" fill="#FFFFFF" width="5.646" height="27.048"/>
	<path fill="#E60000" d="M138.654,301.003h7.255v-0.755v-27.902h-7.255v27.902V301.003z M139.458,273.15h5.646v27.048h-5.646V273.15
		z"/>
	<rect x="134.649" y="250.168" fill="#FFFFFF" width="1.895" height="59.302"/>
	<rect x="119.436" y="250.168" fill="#FFFFFF" width="1.857" height="59.302"/>
	<polygon fill="#E60000" points="137.722,301.141 137.722,300.248 137.722,250.168 136.544,250.168 136.544,309.471 
		137.651,309.471 137.651,309.529 137.722,309.529 	"/>
	<polygon fill="#E60000" points="119.436,250.168 118.258,250.168 118.258,300.248 118.258,301.141 118.258,306.072 
		118.258,309.529 118.336,309.529 118.336,309.471 119.436,309.471 	"/>
	<rect x="122.471" y="250.168" fill="#FFFFFF" width="11" height="59.302"/>
	<rect x="133.471" y="250.168" fill="#E60000" width="1.178" height="59.302"/>
	<rect x="121.293" y="250.168" fill="#E60000" width="1.178" height="59.302"/>
	<path fill="#FFFFFF" d="M293.221,247.469h-19.794l-0.114,0.115h80.009l0.063-11.424h-51.392l-0.077,5.997h-1.702
		C299.357,245.216,296.55,247.469,293.221,247.469z"/>
	<polygon fill="#FFFFFF" points="423.735,247.584 423.735,236.16 411.81,236.16 411.462,247.584 	"/>
	<polygon fill="#FFFFFF" points="99.953,236.16 88.25,236.16 88.25,247.584 99.889,247.584 	"/>
	<path fill="#FFFFFF" d="M238.557,247.469h-19.793c-3.33,0-6.137-2.253-6.994-5.312h-1.711l-0.077-5.997h-51.603l-0.348,11.424
		h80.64L238.557,247.469z"/>
	<polygon fill="#E60000" points="91.899,248.543 96.459,248.543 97.35,248.543 99.884,248.543 99.889,247.584 88.25,247.584 
		88.25,236.16 99.953,236.16 99.959,235.201 87.291,235.201 87.291,248.543 90.949,248.543 	"/>
	<polygon fill="#E60000" points="161.349,248.543 221.216,248.543 222.135,248.543 239.174,248.543 239.618,248.543 
		238.671,247.584 158.031,247.584 158.002,248.543 160.458,248.543 	"/>
	<polygon fill="#E60000" points="158.379,236.16 209.982,236.16 209.969,235.201 158.408,235.201 	"/>
	<polygon fill="#E60000" points="301.993,236.16 353.385,236.16 353.39,235.201 302.005,235.201 	"/>
	<polygon fill="#E60000" points="411.81,236.16 423.735,236.16 423.735,247.584 411.462,247.584 411.433,248.543 414.598,248.543 
		420.086,248.543 421.035,248.543 424.694,248.543 424.694,235.201 411.839,235.201 	"/>
	<polygon fill="#E60000" points="272.365,248.543 272.801,248.543 289.185,248.543 290.103,248.543 349.199,248.543 
		353.316,248.543 353.322,247.584 273.313,247.584 	"/>
	<rect x="264.53" y="310.428" fill="#FFFFFF" width="109.798" height="2.507"/>
	<rect x="393.642" y="310.428" fill="#FFFFFF" width="38.09" height="2.507"/>
	<rect x="137.651" y="310.428" fill="#FFFFFF" width="110.981" height="2.507"/>
	<rect x="78.866" y="310.428" fill="#FFFFFF" width="39.47" height="2.507"/>
	<polygon fill="#E60000" points="422.027,309.529 419.094,309.529 417.832,309.529 403.782,309.529 402.212,309.529 
		397.549,309.529 395.497,309.529 394.116,309.529 393.642,309.529 393.642,310.428 431.732,310.428 431.732,312.935 
		432.63,312.935 432.63,309.529 423.385,309.529 	"/>
	<polygon fill="#E60000" points="371.776,309.529 367.078,309.529 365.508,309.529 346.218,309.529 344.956,309.529 
		294.915,309.529 293.667,309.529 275.817,309.529 274.207,309.529 269.046,309.529 267.062,309.529 264.53,309.529 264.53,310.428 
		374.327,310.428 374.327,309.529 373.828,309.529 	"/>
	<polygon fill="#E60000" points="242.927,309.529 237.335,309.529 235.724,309.529 218.306,309.529 217.057,309.529 
		166.346,309.529 165.083,309.529 145.68,309.529 143.996,309.529 139.586,309.529 137.722,309.529 137.651,309.529 
		137.651,310.428 248.632,310.428 248.632,309.529 244.91,309.529 	"/>
	<polygon fill="#E60000" points="78.866,312.935 78.866,310.428 118.336,310.428 118.336,309.529 118.258,309.529 117.723,309.529 
		115.65,309.529 111.415,309.529 109.731,309.529 93.464,309.529 92.201,309.529 89.952,309.529 88.594,309.529 77.969,309.529 
		77.969,312.935 	"/>
	<rect x="264.53" y="313.847" fill="#FFFFFF" width="109.798" height="8.174"/>
	<rect x="137.651" y="313.847" fill="#FFFFFF" width="110.981" height="8.174"/>
	<rect x="73.471" y="313.847" fill="#FFFFFF" width="44.865" height="8.174"/>
	<rect x="393.642" y="313.847" fill="#FFFFFF" width="43.484" height="8.174"/>
	<rect x="264.53" y="312.935" fill="#E60000" width="109.798" height="0.912"/>
	<rect x="137.651" y="312.935" fill="#E60000" width="110.981" height="0.912"/>
	<polygon fill="#E60000" points="431.732,312.935 393.642,312.935 393.642,313.847 437.126,313.847 437.126,322.021 
		438.038,322.021 438.038,312.935 432.63,312.935 	"/>
	<polygon fill="#E60000" points="73.471,322.021 73.471,313.847 118.336,313.847 118.336,312.935 78.866,312.935 77.969,312.935 
		72.56,312.935 72.56,322.021 	"/>
	<rect x="393.642" y="350.283" fill="#FFFFFF" width="81.247" height="14.921"/>
	<path fill="#FFFFFF" d="M137.651,365.204h110.981v-14.921H137.651V365.204z M171.567,356.615h61.956v1.195h-61.956V356.615z"/>
	<rect x="264.53" y="350.283" fill="#FFFFFF" width="109.798" height="14.921"/>
	<rect x="37.06" y="350.283" fill="#FFFFFF" width="81.276" height="14.921"/>
	<polygon fill="#E60000" points="475.889,349.283 462.37,349.283 462.37,350.268 393.642,350.268 393.642,350.283 474.889,350.283 
		474.889,365.204 393.642,365.204 393.642,366.204 475.889,366.204 	"/>
	<rect x="137.651" y="350.268" fill="#E60000" width="110.981" height="0.016"/>
	<polygon fill="#E60000" points="118.336,365.204 37.06,365.204 37.06,350.283 118.336,350.283 118.336,350.268 49.577,350.268 
		49.577,349.283 36.06,349.283 36.06,366.204 118.336,366.204 	"/>
	<rect x="264.53" y="350.268" fill="#E60000" width="109.798" height="0.016"/>
	<rect x="264.53" y="365.204" fill="#E60000" width="109.798" height="1"/>
	<rect x="137.651" y="365.204" fill="#E60000" width="110.981" height="1"/>
	<rect x="393.642" y="322.956" fill="#FFFFFF" width="54.274" height="10.421"/>
	<rect x="137.651" y="322.956" fill="#FFFFFF" width="110.981" height="10.421"/>
	<rect x="264.53" y="322.956" fill="#FFFFFF" width="109.798" height="10.421"/>
	<rect x="64.033" y="322.956" fill="#FFFFFF" width="54.303" height="10.421"/>
	<rect x="264.53" y="322.021" fill="#E60000" width="109.798" height="0.936"/>
	<rect x="137.651" y="322.021" fill="#E60000" width="110.981" height="0.936"/>
	<polygon fill="#E60000" points="437.126,322.021 393.642,322.021 393.642,322.956 447.916,322.956 447.916,333.377 
		448.852,333.377 448.852,322.021 438.038,322.021 	"/>
	<polygon fill="#E60000" points="64.033,333.377 64.033,322.956 118.336,322.956 118.336,322.021 73.471,322.021 72.56,322.021 
		63.096,322.021 63.096,333.377 	"/>
	<rect x="393.642" y="334.346" fill="#FFFFFF" width="67.76" height="14.953"/>
	<rect x="264.53" y="334.346" fill="#FFFFFF" width="109.798" height="14.953"/>
	<rect x="137.651" y="334.346" fill="#FFFFFF" width="110.981" height="14.953"/>
	<rect x="50.546" y="334.346" fill="#FFFFFF" width="67.79" height="14.953"/>
	<polygon fill="#E60000" points="49.577,350.268 118.336,350.268 118.336,349.299 50.546,349.299 50.546,334.346 118.336,334.346 
		118.336,333.377 64.033,333.377 63.096,333.377 49.577,333.377 49.577,349.283 	"/>
	<rect x="137.651" y="333.377" fill="#E60000" width="110.981" height="0.969"/>
	<rect x="264.53" y="333.377" fill="#E60000" width="109.798" height="0.969"/>
	<polygon fill="#E60000" points="447.916,333.377 393.642,333.377 393.642,334.346 461.402,334.346 461.402,349.299 
		393.642,349.299 393.642,350.268 462.37,350.268 462.37,349.283 462.37,333.377 448.852,333.377 	"/>
	<rect x="264.53" y="349.299" fill="#E60000" width="109.798" height="0.969"/>
	<rect x="137.651" y="349.299" fill="#E60000" width="110.981" height="0.969"/>
	<rect x="134.504" y="310.5" fill="#FFFFFF" width="2.118" height="54.697"/>
	<rect x="119.365" y="310.5" fill="#FFFFFF" width="2.107" height="54.697"/>
	<path fill="#E60000" d="M137.651,365.204v-14.921v-0.016v-0.969v-14.953v-0.969v-10.421v-0.936v-8.174v-0.912v-2.507v-0.898v-0.059
		h-1.107h-1.895h-1.178h-11h-1.178h-1.857h-1.1v0.059v0.898v2.507v0.912v8.174v0.936v10.421v0.969v14.953v0.969v0.016v14.921v1
		v0.022h19.314v-0.022V365.204z M121.472,365.197h-2.107V310.5h2.107v-0.935h13.031v0.935h2.118v54.697h-2.118v0.935h-13.031
		V365.197z"/>
	<rect x="122.313" y="310.405" fill="#FFFFFF" width="11.35" height="54.887"/>
	<path fill="#E60000" d="M134.504,365.197V310.5v-0.935h-13.031v0.935v54.697v0.935h13.031V365.197z M122.313,310.405h11.35v54.887
		h-11.35V310.405z"/>
	<rect x="390.494" y="310.5" fill="#FFFFFF" width="2.118" height="54.697"/>
	<rect x="375.357" y="310.5" fill="#FFFFFF" width="2.108" height="54.697"/>
	<path fill="#E60000" d="M393.642,365.204v-14.921v-0.016v-0.969v-14.953v-0.969v-10.421v-0.936v-8.174v-0.912v-2.507v-0.898v-0.059
		h-0.703h-1.886h-1.178h-11h-1.178h-1.867h-1.178h-0.325v0.059v0.898v2.507v0.912v8.174v0.936v10.421v0.969v14.953v0.969v0.016
		v14.921v1v0.022h19.314v-0.022V365.204z M377.465,365.197h-2.108V310.5h2.108v-0.935h13.029v0.935h2.118v54.697h-2.118v0.935
		h-13.029V365.197z"/>
	<rect x="378.305" y="310.405" fill="#FFFFFF" width="11.35" height="54.887"/>
	<path fill="#E60000" d="M390.494,365.197V310.5v-0.935h-13.029v0.935v54.697v0.935h13.029V365.197z M378.305,310.405h11.35v54.887
		h-11.35V310.405z"/>
	<rect x="171.567" y="356.615" fill="#E60000" width="61.956" height="1.195"/>
	<rect x="0.001" y="288.729" fill="#E60000" width="50.541" height="1.195"/>
	<rect x="249.833" y="249.369" fill="#FFFFFF" width="13.495" height="115.735"/>
	<polygon fill="#E60000" points="264.53,365.204 264.53,350.283 264.53,350.268 264.53,349.299 264.53,334.346 264.53,333.377 
		264.53,322.956 264.53,322.021 264.53,313.847 264.53,312.935 264.53,310.428 264.53,309.529 264.53,301.675 264.53,301.153 
		264.53,301.11 264.53,272.219 264.53,254.551 264.53,252.861 264.53,249.369 263.328,249.369 263.328,365.104 249.833,365.104 
		249.833,249.369 248.632,249.369 248.632,254.996 248.632,256.753 248.632,272.22 248.632,301.112 248.632,301.153 
		248.632,301.675 248.632,309.529 248.632,310.428 248.632,312.935 248.632,313.847 248.632,322.021 248.632,322.956 
		248.632,333.377 248.632,334.346 248.632,349.299 248.632,350.268 248.632,350.283 248.632,365.204 248.632,366.204 
		248.632,366.305 264.53,366.305 264.53,366.204 	"/>
	<path fill="#FFFFFF" d="M354.488,217.657l-0.001,0.153l0.1-0.067C354.554,217.714,354.519,217.685,354.488,217.657z"/>
	<path fill="#FFFFFF" d="M395.183,233.634c0.981,2.818,1.342,4.921,1.376,5.135l0.025,0.155l-0.01,0.285
		c0.726-0.26,1.513-0.445,2.311-0.445c1.121,0,2.138,0.361,2.938,1.044l1.658,1.415l-6.357,6.971l13.317,0.028l0.848-27.826
		l-9.43,8.157h-3.029l-3.476,5.082H395.183z"/>
	<path fill="#FFFFFF" d="M364.515,241.221l1.658-1.414c0.801-0.683,1.817-1.044,2.939-1.044c0.792,0,1.58,0.188,2.308,0.451
		l-0.01-0.29l0.025-0.155c0.034-0.214,0.395-2.317,1.376-5.135h-0.441l-0.387-0.962l-2.817-4.12h-4.241v-0.712l-10.444-9.031
		l-0.162,29.295l16.504,0.035L364.515,241.221z"/>
	<path fill="#E60000" d="M353.385,236.16l-0.063,11.424l-0.006,0.959v0.083l-0.003,0.475l18.423,0.039l-0.913-1.002l-16.504-0.035
		l0.162-29.295l-0.646-0.56l0.652-0.439l0.001-0.153c0.031,0.028,0.066,0.057,0.099,0.086l0.668-0.449
		c0.07-0.047,0.15-0.081,0.223-0.125c-0.78-0.625-1.03-1.036-1.038-1.05l-0.944,0.227l-0.104,18.855L353.385,236.16z"/>
	<polygon fill="#E60000" points="411.289,220.395 410.442,248.221 397.124,248.193 396.248,249.153 396.247,249.191 
		411.412,249.223 411.431,248.626 411.433,248.543 411.462,247.584 411.81,236.16 411.839,235.201 412.317,219.506 	"/>
	<path fill="#E60000" d="M412.352,217.293l0.032,0.021l0.041-1.355l-0.977-0.167c-0.095,0.297-0.216,0.596-0.37,0.895
		C411.534,216.84,411.965,217.033,412.352,217.293z"/>
	<path fill="#FFFFFF" d="M370.831,208.232l-1.802-1.023c-0.237-0.136-0.646-0.346-1.147-0.564l3.026,2.431h2.031
		c0.244-0.573,0.529-1.18,0.854-1.808h-2.597L370.831,208.232z"/>
	<path fill="#FFFFFF" d="M399.728,206.643c-0.505,0.219-0.916,0.43-1.155,0.567l-1.822,1.043l-0.357-0.986h-2.189
		c0.324,0.628,0.61,1.236,0.854,1.81h1.64L399.728,206.643z"/>
	<path fill="#E60000" d="M369.113,209.562c0.905,0,1.79,0.298,2.582,0.704c0.354-0.285,0.718-0.57,1.104-0.853
		c0.046-0.112,0.091-0.223,0.141-0.338h-2.031l-3.026-2.431c0.501,0.218,0.91,0.428,1.147,0.564l1.802,1.023l0.365-0.965h-0.221
		l-0.479-5.834c-0.575,0.704-1.026,1.357-1.361,1.907c-1.236-0.527-2.988-1.109-4.689-1.109c-1.145,0-2.146,0.263-2.977,0.782
		l-2.106,1.316l7.449,5.984C367.474,209.82,368.254,209.562,369.113,209.562z"/>
	<path fill="#E60000" d="M397.019,207.267h-0.626l0.357,0.986l1.822-1.043c0.239-0.137,0.65-0.348,1.155-0.567l-3.03,2.434h-1.64
		c0.113,0.267,0.22,0.525,0.317,0.775c0.235,0.18,0.478,0.359,0.699,0.541c0.85-0.468,1.815-0.831,2.811-0.831
		c0.766,0,1.462,0.222,2.075,0.616l7.283-5.851l-2.106-1.316c-0.831-0.519-1.832-0.782-2.977-0.782
		c-1.701,0-3.453,0.583-4.689,1.109c-0.263-0.433-0.601-0.93-1.009-1.463L397.019,207.267z"/>
	<path fill="#FFFFFF" d="M371.381,220.955l-2.596-3.795c-1.314,1.889-1.79,3.241-1.802,3.277l-0.266,0.791
		c0.683-0.54,1.494-0.83,2.395-0.83C369.901,220.397,370.671,220.63,371.381,220.955z"/>
	<path fill="#FFFFFF" d="M400.781,220.906l-0.158-0.469c-0.046-0.134-0.478-1.334-1.594-3.01l-2.413,3.529
		c0.71-0.326,1.48-0.558,2.27-0.558C399.576,220.397,400.21,220.583,400.781,220.906z"/>
	<path fill="#FFFFFF" d="M366.122,221.792l-1.066-0.66c-0.035-0.021-3.517-2.154-6.394-2.166l8.061,6.97h0.654l-2.144-3.134
		L366.122,221.792z"/>
	<path fill="#FFFFFF" d="M401.826,221.737l0.937,1.065l-2.144,3.134h0.266l8.06-6.97c-2.878,0.011-6.359,2.144-6.395,2.166
		l-0.825,0.511C401.757,221.677,401.795,221.702,401.826,221.737z"/>
	<path fill="#E60000" d="M354.586,217.743l-0.1,0.067l-0.652,0.439l0.646,0.56l10.444,9.031v0.712h4.241l-1.789-2.615h-0.654
		l-8.061-6.97c2.877,0.011,6.358,2.144,6.394,2.166l1.066,0.66l0.048-0.054c0.17-0.193,0.355-0.357,0.548-0.51l0.266-0.791
		c0.012-0.036,0.487-1.388,1.802-3.277l-1.573-2.3c-0.992,1.313-1.67,2.48-2.093,3.327c-1.506-0.757-4.072-1.835-6.48-1.835
		c-1.217,0-2.273,0.283-3.162,0.818c-0.072,0.044-0.152,0.077-0.223,0.125L354.586,217.743z"/>
	<path fill="#E60000" d="M372.332,210.621c0.134-0.375,0.292-0.783,0.467-1.208c-0.387,0.282-0.75,0.567-1.104,0.853
		C371.913,210.378,372.129,210.495,372.332,210.621z"/>
	<path fill="#E60000" d="M395.664,210.621c0.131-0.081,0.272-0.152,0.41-0.228c-0.222-0.182-0.464-0.361-0.699-0.541
		C395.48,210.118,395.577,210.376,395.664,210.621z"/>
	<path fill="#E60000" d="M399.029,217.427c1.116,1.675,1.548,2.876,1.594,3.01l0.158,0.469c0.341,0.193,0.66,0.434,0.944,0.737
		l0.825-0.511c0.035-0.021,3.517-2.154,6.395-2.166l-8.06,6.97h-0.266l-1.789,2.615h3.029l9.43-8.157l1.027-0.889l1.455-1.258
		l-1.388-0.933l-0.032-0.021c-0.387-0.26-0.817-0.454-1.273-0.606c-0.642-0.215-1.342-0.336-2.111-0.336
		c-2.408,0-4.975,1.078-6.48,1.835c-0.394-0.789-1.003-1.854-1.887-3.057L399.029,217.427z"/>
	<path fill="#FFFFFF" d="M384.128,165.048c-2.794,6.025-4.104,10.417-3.932,13.133c0.989-0.29,2.07-0.553,3.26-0.772l0.542-0.1
		l0.542,0.1c1.164,0.215,2.226,0.471,3.197,0.753C388.19,174.515,385.848,168.547,384.128,165.048z"/>
	<path fill="#E60000" d="M380.197,178.181c-0.173-2.715,1.138-7.107,3.932-13.133c1.72,3.5,4.062,9.467,3.609,13.114
		c1.213,0.353,2.282,0.75,3.224,1.168c0.151-0.722,0.229-1.505,0.217-2.354c-0.048-3.644-1.577-7.919-2.852-10.864
		c-2.781-6.426-3.549-6.426-4.361-6.426h-1.691v1.387c-0.095,0.208-0.248,0.519-0.439,0.915c-2.78,5.752-5.636,12.61-4.874,17.376
		C377.903,178.94,378.978,178.539,380.197,178.181z"/>
	<path fill="#E60000" d="M374.437,190.138l-0.116-2.117l0.177-0.648c0.164-0.605,1.787-5.973,8.092-8.242l1.408-0.507l1.408,0.507
		c6.305,2.269,7.928,7.637,8.092,8.242l0.177,0.648l-0.116,2.117c0.556,0.445,1.036,0.884,1.45,1.309h0.147l12.113-6.641
		l-5.644-2.407c-0.792-0.338-1.714-0.509-2.74-0.509c-1.131,0-2.285,0.209-3.229,0.445c-0.986-0.924-2.487-2.024-4.695-3.006
		c-0.941-0.418-2.011-0.815-3.224-1.168c-0.972-0.283-2.033-0.539-3.197-0.753l-0.542-0.1l-0.542,0.1
		c-1.189,0.22-2.271,0.482-3.26,0.772c-1.219,0.358-2.294,0.759-3.236,1.182c-2.167,0.974-3.645,2.059-4.62,2.973
		c-0.943-0.236-2.098-0.445-3.228-0.445c-1.026,0-1.948,0.171-2.74,0.509l-5.646,2.407l12.114,6.642h0.146
		C373.401,191.022,373.881,190.583,374.437,190.138z"/>
	<path fill="#E60000" d="M393.674,188.021l-0.177-0.648c-0.164-0.605-1.787-5.973-8.092-8.242l-1.408-0.507l-1.408,0.507
		c-6.305,2.269-7.928,7.637-8.092,8.242l-0.177,0.648l0.116,2.117c1.946-1.558,4.804-3.152,8.966-4.15l0.595-0.143l0.595,0.143
		c4.162,0.999,7.02,2.592,8.966,4.15L393.674,188.021z"/>
	<path fill="#FFFFFF" d="M383.997,191.093c-0.986,0.263-1.864,0.566-2.649,0.892c0.65-0.208,1.327-0.405,2.055-0.58l0.595-0.143
		l0.595,0.143c0.773,0.186,1.487,0.397,2.174,0.62C385.952,191.686,385.033,191.369,383.997,191.093z"/>
	<path fill="#E60000" d="M381.348,191.985c0.785-0.326,1.663-0.629,2.649-0.892c1.036,0.275,1.955,0.593,2.769,0.933
		c7.277,2.36,9.81,6.555,10.419,7.806l0.373-4.542l-0.229-0.564c-0.121-0.295-0.743-1.661-2.32-3.279
		c-0.414-0.425-0.895-0.864-1.45-1.309c-1.946-1.558-4.804-3.152-8.966-4.15l-0.595-0.143l-0.595,0.143
		c-4.162,0.999-7.02,2.592-8.966,4.15c-0.556,0.445-1.036,0.884-1.45,1.309c-1.577,1.618-2.199,2.984-2.32,3.279l-0.229,0.564
		l0.373,4.542C371.422,198.574,373.977,194.337,381.348,191.985z"/>
	<path fill="#FFFFFF" d="M392.368,201.649c-0.666-1.026-2.852-3.67-8.371-5.138c-5.459,1.456-7.692,4.128-8.37,5.148l0.042,0.512
		h1.614c1.551-1.719,3.49-3.314,5.908-4.506l0.807-0.397l0.807,0.397c2.418,1.191,4.357,2.787,5.908,4.506h1.612L392.368,201.649z"
		/>
	<path fill="#E60000" d="M370.976,207.267h0.221h2.597c0.85-1.645,1.984-3.427,3.49-5.096h-1.614l-0.042-0.512
		c0.678-1.02,2.911-3.692,8.37-5.148c5.52,1.467,7.705,4.112,8.371,5.138l-0.043,0.522h-1.612c1.507,1.669,2.642,3.451,3.49,5.096
		h2.189h0.626l0.443-5.391l0.096-1.167l-0.229-0.564c-0.024-0.059-0.076-0.174-0.144-0.312c-0.609-1.251-3.142-5.446-10.419-7.806
		c-0.687-0.223-1.4-0.435-2.174-0.62l-0.595-0.143l-0.595,0.143c-0.728,0.174-1.404,0.372-2.055,0.58
		c-7.371,2.352-9.926,6.589-10.538,7.847c-0.067,0.139-0.119,0.253-0.144,0.312l-0.229,0.564l0.06,0.724L370.976,207.267z"/>
	<path fill="#FFFFFF" d="M396.688,214.382c-0.261,0.214-0.497,0.432-0.688,0.629l-2.218,2.306c0.139,0.248,0.27,0.492,0.396,0.734
		L396.688,214.382z"/>
	<path fill="#FFFFFF" d="M371.993,215.009c-0.189-0.197-0.426-0.414-0.685-0.627l2.511,3.67c0.124-0.239,0.252-0.479,0.388-0.722
		L371.993,215.009z"/>
	<path fill="#FFFFFF" d="M383.192,208.5l0.807-0.397l0.807,0.397c4.088,2.015,6.812,5.182,8.593,8.149l-0.508-2.544
		c-0.018-0.086-1.84-8.708-8.892-12.736c-7.052,4.027-8.874,12.65-8.893,12.74l-0.52,2.562
		C376.366,213.697,379.094,210.52,383.192,208.5z"/>
	<path fill="#E60000" d="M368.785,217.16l2.596,3.795c0.331,0.152,0.653,0.317,0.951,0.501c0.35-0.98,0.838-2.154,1.487-3.404
		l-2.511-3.67c0.259,0.213,0.495,0.431,0.685,0.627l2.214,2.321c0.122-0.218,0.246-0.437,0.379-0.658l0.52-2.562
		c0.019-0.09,1.841-8.712,8.893-12.74c7.052,4.027,8.874,12.649,8.892,12.736l0.508,2.544c0.135,0.225,0.261,0.447,0.385,0.669
		l2.218-2.306c0.19-0.198,0.427-0.416,0.688-0.629l-2.51,3.67c0.648,1.25,1.137,2.424,1.486,3.404c0.298-0.184,0.62-0.349,0.951-0.5
		l2.413-3.529l1.571-2.297l2.163-3.162l-0.937-1.065c-0.26-0.295-0.556-0.525-0.866-0.724c-0.613-0.394-1.31-0.616-2.075-0.616
		c-0.995,0-1.961,0.363-2.811,0.831c-0.138,0.076-0.279,0.147-0.41,0.228c-0.087-0.245-0.185-0.502-0.289-0.769
		c-0.098-0.25-0.204-0.509-0.317-0.775c-0.244-0.573-0.53-1.182-0.854-1.81c-0.849-1.645-1.983-3.427-3.49-5.096
		c-1.551-1.719-3.49-3.314-5.908-4.506l-0.807-0.397l-0.807,0.397c-2.418,1.191-4.357,2.787-5.908,4.506
		c-1.506,1.669-2.641,3.451-3.49,5.096c-0.324,0.628-0.609,1.235-0.854,1.808c-0.05,0.115-0.095,0.226-0.141,0.338
		c-0.175,0.425-0.333,0.833-0.467,1.208c-0.203-0.125-0.419-0.243-0.638-0.355c-0.792-0.405-1.677-0.704-2.582-0.704
		c-0.858,0-1.639,0.258-2.301,0.749c-0.229,0.17-0.443,0.366-0.642,0.591l-0.937,1.065l1.979,2.892L368.785,217.16z"/>
	<path fill="#FFFFFF" d="M383.168,219.588l0.829-0.497l0.829,0.497c4.201,2.52,6.967,6.493,8.754,10.173l3.108-4.545
		c-0.263,0.215-0.5,0.434-0.686,0.629l-2.428,2.548l-0.686-3.452c-0.018-0.086-1.84-8.709-8.892-12.736
		c-7.052,4.027-8.874,12.65-8.893,12.74l-0.696,3.432l-2.416-2.532c-0.189-0.197-0.425-0.414-0.685-0.627l3.106,4.541
		C376.202,226.079,378.968,222.107,383.168,219.588z"/>
	<path fill="#E60000" d="M372.37,233.634h0.441c0.415-1.193,0.941-2.513,1.604-3.875l-3.106-4.541
		c0.26,0.213,0.495,0.43,0.685,0.627l2.416,2.532l0.696-3.432c0.019-0.09,1.841-8.713,8.893-12.74
		c7.052,4.027,8.874,12.65,8.892,12.736l0.686,3.452l2.428-2.548c0.186-0.195,0.423-0.414,0.686-0.629l-3.108,4.545
		c0.661,1.361,1.188,2.68,1.603,3.873h0.172l3.476-5.082l1.789-2.615l2.144-3.134l-0.937-1.065c-0.031-0.036-0.069-0.06-0.102-0.095
		c-0.284-0.303-0.604-0.543-0.944-0.737c-0.57-0.322-1.204-0.508-1.896-0.508c-0.789,0-1.56,0.232-2.27,0.558
		c-0.331,0.152-0.653,0.317-0.951,0.5c-0.35-0.979-0.838-2.153-1.486-3.404c-0.126-0.242-0.257-0.486-0.396-0.734
		c-0.124-0.222-0.25-0.444-0.385-0.669c-1.78-2.967-4.505-6.134-8.593-8.149l-0.807-0.397l-0.807,0.397
		c-4.098,2.02-6.825,5.197-8.605,8.171c-0.133,0.221-0.257,0.44-0.379,0.658c-0.136,0.244-0.264,0.483-0.388,0.722
		c-0.649,1.25-1.138,2.424-1.487,3.404c-0.298-0.184-0.62-0.349-0.951-0.501c-0.71-0.325-1.48-0.558-2.269-0.558
		c-0.9,0-1.712,0.29-2.395,0.83c-0.192,0.152-0.378,0.317-0.548,0.51l-0.048,0.054l-0.889,1.011l2.144,3.134l1.789,2.615l2.817,4.12
		L372.37,233.634z"/>
	<path fill="#FFFFFF" d="M383.997,222.887c-4.3,2.979-6.747,7.92-8.058,11.604c1.765-1.773,4.145-3.484,7.328-4.66l0.73-0.27
		l0.73,0.27c3.176,1.174,5.552,2.879,7.314,4.647C390.729,230.792,388.281,225.855,383.997,222.887z"/>
	<polygon fill="#E60000" points="395.779,249.668 396.232,249.668 396.247,249.191 396.248,249.153 	"/>
	<polygon fill="#E60000" points="371.763,249.668 372.218,249.668 371.746,249.151 	"/>
	<path fill="#E60000" d="M396.559,238.769c-0.034-0.214-0.395-2.317-1.376-5.135c-0.415-1.193-0.941-2.512-1.603-3.873
		c-1.787-3.68-4.553-7.653-8.754-10.173l-0.829-0.497l-0.829,0.497c-4.2,2.519-6.966,6.491-8.753,10.17
		c-0.662,1.362-1.188,2.682-1.604,3.875c-0.981,2.818-1.342,4.921-1.376,5.135l-0.025,0.155l0.01,0.29
		c0.302,0.109,0.596,0.227,0.87,0.355c0.713-1.432,1.867-3.287,3.649-5.079c1.311-3.684,3.758-8.625,8.058-11.604
		c4.283,2.969,6.731,7.906,8.046,11.591c1.788,1.793,2.945,3.65,3.66,5.085c0.275-0.128,0.569-0.246,0.871-0.354l0.01-0.285
		L396.559,238.769z"/>
	<path fill="#FFFFFF" d="M393.381,245.952l-0.738-2.77c-0.069-0.251-1.79-6.218-8.645-9.108c-6.935,2.926-8.628,9.044-8.645,9.108
		l-0.732,2.769L393.381,245.952z"/>
	<path fill="#E60000" d="M372.218,249.668l0.456,0.5h1.979h1.178h1.867h1.178h11h1.178h1.886h1.178h1.206l0.456-0.5l0.47-0.516
		l0.876-0.96l6.357-6.971l-1.658-1.415c-0.801-0.683-1.817-1.044-2.938-1.044c-0.798,0-1.585,0.186-2.311,0.445
		c-0.302,0.108-0.596,0.226-0.871,0.354c-0.715-1.435-1.872-3.292-3.66-5.085c-1.763-1.769-4.139-3.474-7.314-4.647l-0.73-0.27
		l-0.73,0.27c-3.184,1.176-5.563,2.887-7.328,4.66c-1.782,1.792-2.937,3.647-3.649,5.079c-0.274-0.128-0.568-0.246-0.87-0.355
		c-0.728-0.262-1.516-0.451-2.308-0.451c-1.122,0-2.139,0.361-2.939,1.044l-1.658,1.414l6.308,6.917l0.913,1.002l0.011,0.011
		L372.218,249.668z M375.354,243.182c0.017-0.063,1.71-6.182,8.645-9.108c6.854,2.89,8.575,8.857,8.645,9.108l0.738,2.77
		l-18.76-0.001L375.354,243.182z"/>
	<path fill="#FFFFFF" d="M141.077,206.763l3.038-2.439c-0.508,0.221-0.921,0.434-1.16,0.572l-1.823,1.052l-0.067,0.816H141.077z"/>
	<path fill="#FFFFFF" d="M113.41,204.895c-0.238-0.136-0.648-0.347-1.152-0.566l2.656,2.133l-0.061-0.734L113.41,204.895z"/>
	<path fill="#E60000" d="M116.961,207.267h-1.981l-0.066-0.804l-2.656-2.133c0.503,0.219,0.914,0.43,1.152,0.566l1.444,0.833
		l-0.413-5.019l0.23-0.564c0.024-0.059,0.076-0.174,0.144-0.312l-0.048-0.582c-0.524,0.653-0.939,1.259-1.252,1.774
		c-1.236-0.527-2.987-1.109-4.689-1.109c-1.145,0-2.146,0.263-2.978,0.782l-2.106,1.316l9.401,7.55
		c0.331,0.002,0.658,0.051,0.98,0.122C114.948,208.881,115.885,208.067,116.961,207.267z"/>
	<path fill="#E60000" d="M141.332,200.145l0.23,0.564l-0.431,5.238l1.823-1.052c0.239-0.138,0.652-0.351,1.16-0.572l-3.038,2.439
		h-0.012l-0.042,0.504h-1.619c1.051,0.782,1.97,1.577,2.78,2.364c0.233-0.037,0.468-0.069,0.705-0.069
		c0.103,0,0.198,0.023,0.298,0.031l9.436-7.579l-2.106-1.316c-0.831-0.519-1.833-0.782-2.978-0.782
		c-1.702,0-3.453,0.583-4.689,1.109c-0.376-0.619-0.896-1.366-1.581-2.173l-0.081,0.981
		C141.256,199.971,141.308,200.086,141.332,200.145z"/>
	<path fill="#FFFFFF" d="M115.385,220.955l-3.169-4.633c-0.573,1.023-0.819,1.706-0.854,1.806l-0.532,1.548l-1.395-0.857
		c-0.035-0.021-3.516-2.154-6.394-2.166l3.331,2.881c1.249,0.502,2.774,1.013,4.633,1.5c0.621-0.408,1.331-0.637,2.111-0.637
		C113.905,220.397,114.675,220.63,115.385,220.955z"/>
	<path fill="#FFFFFF" d="M145.831,221.737l0.304,0.346c0.398-0.069,0.784-0.14,1.155-0.212l6.032-5.218
		c-2.877,0.011-6.359,2.145-6.394,2.166l-1.403,0.868l-0.526-1.563c-0.037-0.108-0.323-0.907-1.015-2.088l-3.365,4.92
		c0.71-0.325,1.48-0.558,2.269-0.558C144.043,220.397,145.06,220.86,145.831,221.737z"/>
	<path fill="#E60000" d="M101.008,216.119c0.016,0.028,1.003,1.661,5.365,3.415l-3.331-2.881c2.877,0.012,6.359,2.145,6.394,2.166
		l1.395,0.857l0.532-1.548c0.034-0.1,0.28-0.783,0.854-1.806l-1.616-2.363c-0.472,0.731-0.838,1.388-1.101,1.915
		c-1.506-0.758-4.073-1.836-6.481-1.836c-1.316,0-2.455,0.317-3.385,0.942l-1.419,0.955l1.842,1.594l0.007-1.183L101.008,216.119z"
		/>
	<path fill="#E60000" d="M139.404,207.267h-1.196c0.636,1.231,1.115,2.387,1.461,3.354c0.745-0.459,1.611-0.846,2.515-0.99
		C141.374,208.844,140.455,208.048,139.404,207.267z"/>
	<path fill="#E60000" d="M114.123,209.687c0.794,0.176,1.552,0.526,2.213,0.934c0.346-0.967,0.825-2.123,1.461-3.354h-0.836
		C115.885,208.067,114.948,208.881,114.123,209.687z"/>
	<path fill="#E60000" d="M143.986,216.035c0.692,1.182,0.978,1.98,1.015,2.088l0.526,1.563l1.403-0.868
		c0.035-0.021,3.517-2.155,6.394-2.166l-6.032,5.218c2.529-0.493,4.458-1.063,5.942-1.683l4.651-4.023
		c0.043-0.11,0.083-0.22,0.119-0.329l-1.271-0.856c-0.93-0.625-2.068-0.942-3.385-0.942c-2.408,0-4.975,1.078-6.481,1.836
		c-0.295-0.592-0.713-1.34-1.275-2.185L143.986,216.035z"/>
	<path fill="#FFFFFF" d="M108.52,241.221l1.658-1.414c0.801-0.683,1.817-1.044,2.938-1.044c0.797,0,1.584,0.185,2.308,0.444
		l-0.009-0.283l0.025-0.155c0.035-0.214,0.396-2.317,1.376-5.135h-1.033v-1.263l-6.544-9.568l0.853-0.97
		c-5.288-1.456-7.852-3.116-9.035-4.176l-0.169,30.446l13.935,0.029L108.52,241.221z"/>
	<path fill="#FFFFFF" d="M139.36,233.634h-0.172c0.98,2.818,1.34,4.921,1.375,5.135l0.025,0.155l-0.01,0.291
		c0.728-0.263,1.518-0.452,2.311-0.452c1.122,0,2.138,0.361,2.938,1.044l1.659,1.414l-6.353,6.966l15.877,0.033l0.916-30.093
		c-1.467,1.92-4.517,3.667-11.3,4.88L139.36,233.634z"/>
	<path fill="#E60000" d="M153.233,220.188c-1.485,0.62-3.413,1.19-5.942,1.683c-0.372,0.072-0.757,0.143-1.155,0.212l0.633,0.719
		l-0.141,0.206c6.783-1.213,9.833-2.96,11.3-4.88l-0.916,30.093l-15.877-0.033l-0.882,0.967l-0.001,0.031l17.73,0.037l0.021-0.68
		l0.029-0.959l0.348-11.424l0.029-0.959l0.586-19.241l-0.977-0.167c-0.004,0.014-0.01,0.029-0.015,0.043
		c-0.036,0.109-0.075,0.219-0.119,0.329C157.336,217.562,156.15,218.971,153.233,220.188z"/>
	<path fill="#E60000" d="M99.953,236.16l-0.064,11.424l-0.005,0.959l-0.003,0.558l15.854,0.033l-0.914-1.002l-13.935-0.029
		l0.169-30.446c1.184,1.06,3.747,2.72,9.035,4.176l0.083-0.095c0.25-0.284,0.533-0.508,0.831-0.703
		c-1.859-0.487-3.384-0.998-4.633-1.5c-4.362-1.754-5.349-3.387-5.365-3.415l-0.944,0.227l-0.007,1.183l-0.098,17.672L99.953,236.16
		z"/>
	<path fill="#FFFFFF" d="M128.133,165.048c-2.794,6.025-4.105,10.417-3.931,13.132c0.989-0.29,2.07-0.553,3.26-0.772l0.542-0.1
		l0.542,0.1c1.164,0.215,2.225,0.47,3.196,0.753C132.193,174.515,129.852,168.549,128.133,165.048z"/>
	<path fill="#E60000" d="M124.201,178.181c-0.174-2.715,1.137-7.107,3.931-13.132c1.719,3.5,4.06,9.467,3.608,13.113
		c1.213,0.354,2.283,0.75,3.224,1.168c0.152-0.721,0.229-1.504,0.217-2.353c-0.048-3.644-1.577-7.919-2.852-10.865
		c-2.781-6.426-3.548-6.426-4.36-6.426h-1.691v1.387c-0.095,0.208-0.248,0.519-0.439,0.915c-2.781,5.752-5.637,12.61-4.874,17.376
		C121.907,178.94,122.983,178.539,124.201,178.181z"/>
	<path fill="#E60000" d="M118.441,190.139l-0.116-2.118l0.176-0.648c0.165-0.604,1.789-5.972,8.092-8.241l1.409-0.507l1.409,0.507
		c6.303,2.268,7.927,7.636,8.091,8.24l0.176,0.648l-0.116,2.118c0.556,0.445,1.036,0.884,1.45,1.309h0.148l12.114-6.642
		l-5.645-2.407c-0.792-0.337-1.714-0.509-2.74-0.509c-1.13,0-2.285,0.209-3.229,0.445c-0.987-0.924-2.487-2.024-4.696-3.006
		c-0.94-0.418-2.01-0.814-3.224-1.168c-0.971-0.283-2.032-0.538-3.196-0.753l-0.542-0.1l-0.542,0.1
		c-1.19,0.22-2.271,0.482-3.26,0.772c-1.219,0.358-2.294,0.759-3.236,1.182c-2.168,0.974-3.646,2.059-4.621,2.973
		c-0.943-0.236-2.098-0.445-3.228-0.445c-1.026,0-1.948,0.171-2.74,0.509l-5.643,2.407l12.112,6.641h0.146
		C117.405,191.023,117.885,190.583,118.441,190.139z"/>
	<path fill="#E60000" d="M137.678,188.021l-0.176-0.648c-0.165-0.604-1.788-5.972-8.091-8.24l-1.409-0.507l-1.409,0.507
		c-6.304,2.269-7.928,7.636-8.092,8.241l-0.176,0.648l0.116,2.118c1.946-1.559,4.804-3.152,8.967-4.151l0.594-0.143l0.594,0.143
		c4.163,0.999,7.02,2.592,8.966,4.151L137.678,188.021z"/>
	<path fill="#FFFFFF" d="M127.408,191.406l0.594-0.143l0.594,0.143c0.775,0.186,1.489,0.398,2.177,0.621
		c-0.814-0.34-1.733-0.658-2.771-0.934c-1.035,0.275-1.952,0.592-2.765,0.932C125.923,191.803,126.635,191.591,127.408,191.406z"/>
	<path fill="#E60000" d="M125.238,192.025c0.812-0.34,1.729-0.657,2.765-0.932c1.038,0.276,1.957,0.593,2.771,0.934
		c7.276,2.361,9.808,6.556,10.416,7.806l0.081-0.981l0.292-3.561l-0.23-0.564c-0.121-0.296-0.743-1.662-2.32-3.28
		c-0.414-0.424-0.894-0.864-1.45-1.309c-1.946-1.559-4.804-3.152-8.966-4.151l-0.594-0.143l-0.594,0.143
		c-4.163,0.999-7.021,2.592-8.967,4.151c-0.556,0.445-1.036,0.884-1.449,1.309c-1.578,1.618-2.2,2.984-2.32,3.28l-0.23,0.564
		l0.326,3.96l0.048,0.582C115.423,198.582,117.955,194.385,125.238,192.025z"/>
	<path fill="#FFFFFF" d="M136.372,201.649c-0.666-1.026-2.851-3.671-8.37-5.138c-5.491,1.459-7.682,4.085-8.37,5.145l0.042,0.515
		h1.613c1.551-1.719,3.49-3.314,5.908-4.506l0.807-0.398l0.807,0.398c2.417,1.191,4.356,2.788,5.907,4.506h1.611L136.372,201.649z"
		/>
	<path fill="#E60000" d="M141.023,207.267l0.042-0.504l0.067-0.816l0.431-5.238l-0.23-0.564c-0.024-0.059-0.076-0.174-0.144-0.312
		c-0.608-1.25-3.139-5.445-10.416-7.806c-0.688-0.223-1.402-0.435-2.177-0.621l-0.594-0.143l-0.594,0.143
		c-0.772,0.185-1.485,0.397-2.17,0.619c-7.282,2.36-9.815,6.557-10.423,7.808c-0.067,0.138-0.119,0.253-0.144,0.312l-0.23,0.564
		l0.413,5.019l0.061,0.734l0.066,0.804h1.981h0.836c0.85-1.645,1.984-3.427,3.491-5.096h-1.613l-0.042-0.515
		c0.688-1.06,2.879-3.686,8.37-5.145c5.519,1.467,7.704,4.112,8.37,5.138l-0.043,0.522h-1.611c1.506,1.669,2.641,3.451,3.491,5.096
		h1.196H141.023z"/>
	<path fill="#FFFFFF" d="M140.693,214.382c-0.26,0.214-0.498,0.432-0.688,0.63l-2.218,2.307c0.139,0.248,0.27,0.491,0.395,0.733
		L140.693,214.382z"/>
	<path fill="#FFFFFF" d="M115.997,215.009c-0.188-0.196-0.424-0.413-0.683-0.625l2.509,3.668c0.124-0.237,0.251-0.477,0.386-0.719
		L115.997,215.009z"/>
	<path fill="#FFFFFF" d="M127.196,208.5l0.807-0.398l0.807,0.398c4.088,2.015,6.812,5.184,8.593,8.151l-0.508-2.546
		c-0.018-0.086-1.842-8.708-8.893-12.736c-7.091,4.044-8.875,12.646-8.892,12.736l-0.504,2.539
		C120.387,213.678,123.111,210.513,127.196,208.5z"/>
	<path fill="#E60000" d="M112.216,216.322l3.169,4.633c0.331,0.152,0.653,0.317,0.951,0.501c0.35-0.98,0.839-2.154,1.488-3.405
		l-2.509-3.668c0.258,0.212,0.494,0.429,0.683,0.625l2.213,2.324c0.128-0.229,0.257-0.457,0.396-0.688l0.504-2.539
		c0.018-0.089,1.801-8.692,8.892-12.736c7.051,4.027,8.875,12.65,8.893,12.736l0.508,2.546c0.134,0.224,0.26,0.446,0.383,0.667
		l2.218-2.307c0.19-0.198,0.427-0.416,0.688-0.63l-2.511,3.67c0.649,1.25,1.137,2.424,1.487,3.404
		c0.298-0.184,0.62-0.349,0.952-0.501l3.365-4.92l1.605-2.346l1.178-1.722l-0.937-1.065c-0.703-0.799-1.616-1.235-2.644-1.309
		c-0.1-0.007-0.195-0.031-0.298-0.031c-0.237,0-0.472,0.032-0.705,0.069c-0.904,0.144-1.771,0.531-2.515,0.99
		c-0.346-0.967-0.825-2.123-1.461-3.354c-0.85-1.645-1.984-3.427-3.491-5.096c-1.551-1.718-3.49-3.314-5.907-4.506l-0.807-0.398
		l-0.807,0.398c-2.418,1.191-4.357,2.787-5.908,4.506c-1.506,1.669-2.641,3.451-3.491,5.096c-0.636,1.231-1.115,2.387-1.461,3.354
		c-0.661-0.408-1.419-0.758-2.213-0.934c-0.322-0.071-0.649-0.12-0.98-0.122c-0.009,0-0.018-0.002-0.026-0.002
		c-1.154,0-2.171,0.463-2.941,1.34l-0.937,1.065l1.362,1.992L112.216,216.322z"/>
	<path fill="#FFFFFF" d="M127.174,219.588l0.829-0.497l0.829,0.497c4.202,2.52,6.967,6.493,8.754,10.173l3.109-4.546
		c-0.263,0.216-0.5,0.434-0.686,0.629l-2.427,2.548l-0.686-3.452c-0.017-0.086-1.842-8.708-8.892-12.736
		c-7.052,4.027-8.875,12.65-8.894,12.74l-0.696,3.432l-2.416-2.532c-0.188-0.196-0.424-0.413-0.682-0.625l3.105,4.539
		C120.207,226.079,122.973,222.107,127.174,219.588z"/>
	<path fill="#E60000" d="M109.239,222.803l6.544,9.568v1.263h1.033c0.415-1.193,0.942-2.513,1.604-3.876l-3.105-4.539
		c0.258,0.212,0.494,0.429,0.682,0.625l2.416,2.532l0.696-3.432c0.018-0.09,1.842-8.713,8.894-12.74
		c7.05,4.028,8.875,12.65,8.892,12.736l0.686,3.452l2.427-2.548c0.186-0.195,0.423-0.414,0.686-0.629l-3.109,4.546
		c0.661,1.361,1.188,2.68,1.603,3.873h0.172l7.268-10.626l0.141-0.206l-0.633-0.719l-0.304-0.346
		c-0.771-0.877-1.789-1.34-2.942-1.34c-0.789,0-1.559,0.232-2.269,0.558c-0.332,0.152-0.654,0.317-0.952,0.501
		c-0.35-0.979-0.838-2.153-1.487-3.404c-0.125-0.242-0.256-0.486-0.395-0.733c-0.124-0.221-0.249-0.443-0.383-0.667
		c-1.781-2.968-4.505-6.136-8.593-8.151l-0.807-0.398l-0.807,0.398c-4.085,2.013-6.809,5.178-8.59,8.144
		c-0.139,0.231-0.268,0.46-0.396,0.688c-0.135,0.242-0.263,0.481-0.386,0.719c-0.649,1.25-1.138,2.425-1.488,3.405
		c-0.298-0.184-0.62-0.349-0.951-0.501c-0.71-0.325-1.48-0.558-2.269-0.558c-0.78,0-1.49,0.229-2.111,0.637
		c-0.297,0.195-0.581,0.419-0.831,0.703l-0.083,0.095L109.239,222.803z"/>
	<path fill="#FFFFFF" d="M128.002,222.887c-4.301,2.979-6.747,7.919-8.057,11.603c1.764-1.772,4.144-3.483,7.327-4.659l0.731-0.27
		l0.731,0.27c3.175,1.173,5.551,2.879,7.313,4.647C134.733,230.792,132.285,225.855,128.002,222.887z"/>
	<polygon fill="#E60000" points="139.783,249.668 140.235,249.668 140.251,249.186 140.252,249.154 	"/>
	<polygon fill="#E60000" points="115.768,249.668 116.222,249.668 115.751,249.152 	"/>
	<path fill="#E60000" d="M140.563,238.769c-0.035-0.214-0.395-2.317-1.375-5.135c-0.415-1.193-0.941-2.512-1.603-3.873
		c-1.787-3.68-4.553-7.653-8.754-10.173l-0.829-0.497l-0.829,0.497c-4.201,2.519-6.967,6.491-8.753,10.17
		c-0.662,1.363-1.189,2.683-1.604,3.876c-0.98,2.818-1.341,4.921-1.376,5.135l-0.025,0.155l0.009,0.283
		c0.303,0.109,0.598,0.226,0.873,0.355c0.714-1.431,1.867-3.284,3.648-5.073c1.31-3.683,3.756-8.624,8.057-11.603
		c4.283,2.969,6.73,7.906,8.045,11.591c1.79,1.796,2.949,3.657,3.664,5.092c0.274-0.128,0.567-0.246,0.867-0.354l0.01-0.291
		L140.563,238.769z"/>
	<path fill="#FFFFFF" d="M137.387,245.952l-0.739-2.77c-0.069-0.25-1.791-6.218-8.645-9.108c-6.935,2.926-8.629,9.044-8.646,9.108
		l-0.733,2.769L137.387,245.952z"/>
	<path fill="#E60000" d="M116.222,249.668l0.456,0.5h1.58h1.179h1.857h1.178h11h1.178h1.895h1.179h1.605l0.456-0.5l0.469-0.514
		l0.882-0.967l6.353-6.966l-1.659-1.414c-0.801-0.683-1.817-1.044-2.938-1.044c-0.793,0-1.583,0.189-2.311,0.452
		c-0.3,0.109-0.593,0.227-0.867,0.354c-0.715-1.435-1.874-3.296-3.664-5.092c-1.763-1.769-4.138-3.474-7.313-4.647l-0.731-0.27
		l-0.731,0.27c-3.183,1.176-5.563,2.887-7.327,4.659c-1.781,1.79-2.934,3.642-3.648,5.073c-0.275-0.129-0.57-0.246-0.873-0.355
		c-0.724-0.259-1.51-0.444-2.308-0.444c-1.122,0-2.138,0.361-2.938,1.044l-1.658,1.414l6.301,6.911l0.914,1.002l0.016,0.018
		L116.222,249.668z M119.358,243.182c0.017-0.063,1.71-6.182,8.646-9.108c6.854,2.89,8.575,8.857,8.645,9.108l0.739,2.77
		l-18.763-0.001L119.358,243.182z"/>
	<path fill="#FFFFFF" d="M293.221,246.243c2.646,0,4.896-1.713,5.711-4.086h-20.257l-4.037,4.086H293.221z"/>
	<path fill="#FFFFFF" d="M218.764,246.243h18.582l-4.038-4.086h-20.256C213.867,244.53,216.117,246.243,218.764,246.243z"/>
	<path fill="#E60000" d="M218.764,247.469h19.793l-1.211-1.226h-18.582c-2.647,0-4.896-1.713-5.712-4.086h-1.282
		C212.627,245.216,215.434,247.469,218.764,247.469z"/>
	<path fill="#E60000" d="M293.221,246.243h-18.583l-1.211,1.226h19.794c3.329,0,6.136-2.253,6.993-5.312h-1.282
		C298.116,244.53,295.867,246.243,293.221,246.243z"/>
	<path fill="#FFFFFF" d="M290.755,219.581l-0.205,15.346h-20.729c1.094,1.55,1.812,2.949,2.255,3.956
		c1.34-0.757,3.431-1.715,5.416-1.715c1.2,0,2.235,0.336,3.078,1l1.15,0.905l-1.486,1.504h20.123l0.328-25.574
		c-0.028,0.06-0.043,0.122-0.076,0.181C299.16,217.799,293.292,219.122,290.755,219.581z"/>
	<path fill="#FFFFFF" d="M300.716,212.661l0.118-9.223c-1.166,2.82-3.041,5.599-5.905,5.599h-9.704l-0.078,6.928
		c2.959-1.66,9.171-4.898,12.632-4.898C299.617,211.066,300.39,211.927,300.716,212.661z"/>
	<path fill="#FFFFFF" d="M214.204,211.066c3.458,0,9.662,3.232,12.624,4.894l-0.076-6.924h-9.706c-2.864,0-4.74-2.78-5.906-5.6
		l0.119,9.241C211.579,211.941,212.35,211.066,214.204,211.066z"/>
	<path fill="#FFFFFF" d="M231.411,238.168c0.843-0.664,1.878-1,3.078-1c1.986,0,4.076,0.958,5.417,1.715
		c0.442-1.007,1.161-2.406,2.254-3.956h-20.728l-0.205-15.346c-2.537-0.459-8.406-1.782-9.854-4.396
		c-0.037-0.066-0.054-0.135-0.085-0.202l0.329,25.595h20.13l-1.486-1.504L231.411,238.168z"/>
	<path fill="#E60000" d="M209.982,236.16l0.077,5.997h1.711h1.282h20.256l-1.561-1.579h-20.13l-0.329-25.595
		c-0.343-0.738-0.366-1.526-0.034-2.297c0.001-0.002,0.003-0.005,0.004-0.008l-0.119-9.241c1.166,2.82,3.042,5.6,5.906,5.6h9.706
		l-0.018-1.579h-9.688c-3.607,0-5.549-7.289-5.993-10.098l-1.569,0.133l0.485,37.708L209.982,236.16z"/>
	<path fill="#E60000" d="M285.225,209.036h9.704c2.864,0,4.739-2.779,5.905-5.599l-0.118,9.223c0.004,0.008,0.009,0.017,0.013,0.025
		c0.335,0.778,0.31,1.574-0.043,2.318l-0.328,25.574h-20.123l-1.56,1.579h20.257h1.282h1.702l0.077-5.997l0.012-0.959l0.484-37.708
		l-1.569-0.133c-0.441,2.809-2.378,10.097-5.991,10.097h-9.687L285.225,209.036z"/>
	<path fill="#FFFFFF" d="M244.739,214.019l-0.249-0.31h-2.934l-7.213-6.297h-3.486l-0.02-1.709
		c-3.035-2.073-7.604-4.727-9.672-4.727c-0.433,0-0.469,0.103-0.492,0.165c-0.094,0.263-0.074,0.471,0.069,0.72
		c0.832,1.445,4.824,2.756,7.394,3.226l0.973,0.178l0.127,11.495h13.174C243.059,215.873,243.828,214.948,244.739,214.019z"/>
	<path fill="#FFFFFF" d="M270.418,213.709h-3.06l-0.195,0.23c0.945,0.956,1.741,1.908,2.407,2.82h13.168l0.129-11.494l0.973-0.179
		c2.57-0.472,6.564-1.785,7.393-3.226c0.144-0.249,0.163-0.457,0.069-0.72c-0.022-0.062-0.06-0.165-0.491-0.165
		c-2.065,0-6.627,2.647-9.662,4.72l-0.02,1.716h-3.497L270.418,213.709z"/>
	<path fill="#E60000" d="M226.752,209.036l0.076,6.924c0.622,0.349,1.11,0.633,1.39,0.798h1.019l-0.127-11.495l-0.973-0.178
		c-2.569-0.47-6.562-1.781-7.394-3.226c-0.144-0.249-0.164-0.458-0.069-0.72c0.022-0.062,0.059-0.165,0.492-0.165
		c2.068,0,6.637,2.653,9.672,4.727l-0.034-2.902c-2.731-1.764-7.011-4.224-9.638-4.224c-1.844,0-2.514,1.098-2.75,1.752
		c-0.333,0.926-0.248,1.87,0.248,2.729c1.389,2.412,5.985,3.709,8.068,4.186l0.002,0.213L226.752,209.036z"/>
	<path fill="#E60000" d="M281.149,205.696c3.035-2.072,7.597-4.72,9.662-4.72c0.432,0,0.469,0.103,0.491,0.165
		c0.094,0.263,0.074,0.471-0.069,0.72c-0.828,1.441-4.822,2.754-7.393,3.226l-0.973,0.179l-0.129,11.494h1.026
		c0.278-0.165,0.765-0.448,1.382-0.794l0.078-6.928l0.018-1.579l0.002-0.213c2.083-0.477,6.68-1.774,8.067-4.186
		c0.495-0.86,0.581-1.804,0.248-2.729c-0.4-1.114-1.402-1.752-2.749-1.752c-2.624,0-6.896,2.454-9.628,4.218L281.149,205.696z"/>
	<path fill="#FFFFFF" d="M239.67,231.541v-0.773l-9.409-9.522l1.15-0.905c0.843-0.664,1.878-1,3.078-1
		c1.986,0,4.076,0.958,5.417,1.715c0.257-0.585,0.608-1.304,1.071-2.106h-13.366l-0.262-0.158
		c-2.546-1.539-9.872-5.534-13.145-5.534c-0.37,0-0.833,0.052-0.938,0.297c-0.093,0.216-0.087,0.371,0.023,0.569
		c0.855,1.542,5.887,2.943,9.187,3.446l0.917,0.14l0.2,15.028h20.314c0.055-0.062,0.112-0.124,0.168-0.186l-0.699-1.01H239.67z"/>
	<path fill="#FFFFFF" d="M288.589,217.709l0.918-0.14c3.301-0.504,8.334-1.907,9.187-3.446c0.11-0.199,0.117-0.354,0.023-0.569
		c-0.105-0.245-0.569-0.297-0.938-0.297c-3.276,0-10.6,3.995-13.146,5.534l-0.261,0.158h-13.366c0.462,0.802,0.813,1.521,1.07,2.106
		c1.34-0.757,3.431-1.715,5.416-1.715c1.2,0,2.235,0.336,3.078,1l1.15,0.905l-10.171,10.295h-3.076l-0.663,0.904
		c0.09,0.098,0.178,0.195,0.264,0.292h20.313L288.589,217.709z"/>
	<path fill="#E60000" d="M221.228,219.581l0.205,15.346h20.728c0.498-0.706,1.083-1.444,1.747-2.19h-20.314l-0.2-15.028l-0.917-0.14
		c-3.3-0.503-8.332-1.904-9.187-3.446c-0.11-0.199-0.116-0.353-0.023-0.569c0.105-0.245,0.569-0.297,0.938-0.297
		c3.273,0,10.599,3.995,13.145,5.534l0.262,0.158h13.366c0.391-0.678,0.871-1.419,1.435-2.19h-13.174h-1.019
		c-0.279-0.166-0.768-0.45-1.39-0.798c-2.962-1.662-9.167-4.894-12.624-4.894c-1.854,0-2.625,0.875-2.946,1.611
		c-0.001,0.003-0.003,0.006-0.004,0.008c-0.333,0.771-0.309,1.559,0.034,2.297c0.031,0.067,0.048,0.136,0.085,0.202
		C212.822,217.799,218.691,219.122,221.228,219.581z"/>
	<path fill="#E60000" d="M271.006,218.949h13.366l0.261-0.158c2.546-1.539,9.869-5.534,13.146-5.534
		c0.369,0,0.833,0.052,0.938,0.297c0.094,0.216,0.087,0.37-0.023,0.569c-0.853,1.54-5.886,2.942-9.187,3.446l-0.918,0.14
		l-0.201,15.027h-20.313c0.664,0.747,1.249,1.484,1.747,2.19h20.729l0.205-15.346c2.537-0.459,8.405-1.782,9.854-4.396
		c0.033-0.059,0.048-0.121,0.076-0.181c0.353-0.744,0.378-1.54,0.043-2.318c-0.004-0.008-0.009-0.017-0.013-0.025
		c-0.326-0.733-1.099-1.594-2.938-1.594c-3.461,0-9.673,3.238-12.632,4.898c-0.617,0.347-1.104,0.63-1.382,0.794h-1.026h-13.168
		C270.135,217.53,270.615,218.271,271.006,218.949z"/>
	<path fill="#FFFFFF" d="M263.54,147.483c-0.973-1.109-2.836-2.92-6.05-5.318c-0.447-0.249-0.828-0.537-1.143-0.863
		c-0.268,0.377-0.62,0.729-1.076,1.04l-0.129,0.084c-3.524,2.154-5.874,3.939-7.186,5.126l1.65,0.423l0.039,4.823
		c0.001,0.001,0.002,0.002,0.003,0.003h11.934l0.038-4.826L263.54,147.483z"/>
	<path fill="#E60000" d="M244.681,150.213c0.551,0,2.12,0,4.964,2.584l-0.039-4.823l-1.65-0.423
		c1.312-1.187,3.662-2.973,7.186-5.126l0.129-0.084c0.457-0.311,0.809-0.663,1.076-1.04c0.315,0.327,0.696,0.614,1.143,0.863
		c3.214,2.398,5.077,4.209,6.05,5.318l-1.92,0.492l-0.038,4.826h0.739c2.848-2.587,4.416-2.587,4.968-2.587
		c0.872,0,1.67,0.299,2.3,0.812c1.302-1.604,1.034-3.313,0.88-3.914c-0.771-2.995-5.071-6.797-8.8-9.62
		c0.038-0.098,0.076-0.193,0.109-0.278c0.545-1.381,1.456-3.692,0.092-5.814c-1.456-2.265-4.402-2.419-5.371-2.47l-0.131-0.007
		l-0.131,0.004c-2.409,0.076-4.166,0.843-5.222,2.278c-1.571,2.135-0.876,4.64-0.417,6.297c0.028,0.101,0.06,0.216,0.092,0.333
		c-9.013,5.69-9.701,8.37-9.934,9.277c-0.166,0.648-0.465,2.587,1.22,4.292C242.65,150.66,243.611,150.213,244.681,150.213z"/>
	<path fill="#FFFFFF" d="M235.094,181.517c-1.297-0.856-2.514-1.525-3.298-1.751C232.303,180.421,233.748,181.084,235.094,181.517z"
		/>
	<path fill="#FFFFFF" d="M268.11,186.468l-1.949,1.832c1.039,1.146,1.784,2.247,2.309,3.162h1.1
		c0.901-0.341,1.937-0.611,2.959-0.611c0.607,0,1.165,0.102,1.681,0.284l0.074-7.748c-0.247,0.196-0.487,0.392-0.721,0.586
		l-0.05,0.042l-0.027,2.453H268.11z"/>
	<path fill="#FFFFFF" d="M280.156,179.774c-0.795,0.232-2.003,0.896-3.288,1.742C278.191,181.092,279.635,180.444,280.156,179.774z"
		/>
	<path fill="#FFFFFF" d="M242.407,191.461h1.099c0.524-0.914,1.269-2.015,2.308-3.161l-1.95-1.833h-5.361l-0.027-2.427l-0.081-0.068
		c-0.232-0.195-0.474-0.391-0.721-0.586l0,0.017l0.074,7.739c0.52-0.187,1.084-0.292,1.698-0.292
		C240.47,190.85,241.505,191.12,242.407,191.461z"/>
	<path fill="#E60000" d="M274.06,180.875l-0.52,0.488l-0.028,2.652l0.05-0.042c0.233-0.195,0.474-0.391,0.721-0.586l-0.074,7.748
		c0.247,0.088,0.482,0.198,0.708,0.327h0.516c0.446-0.304,1.125-0.754,1.938-1.256l0.054-5.559c1.689-0.492,4.449-1.548,5.542-3.41
		c0.516-0.879,0.63-1.852,0.331-2.812c-0.369-1.185-1.36-1.892-2.652-1.892c-2.029,0-5.007,1.899-7.088,3.438l-0.006,0.532
		L274.06,180.875z M276.867,181.516c1.285-0.846,2.493-1.51,3.288-1.742C279.635,180.444,278.191,181.092,276.867,181.516z"/>
	<path fill="#E60000" d="M236.555,191.461h0.504c0.219-0.126,0.449-0.233,0.69-0.32l-0.074-7.739l0-0.017
		c0.247,0.196,0.488,0.392,0.721,0.586l0.081,0.068l-0.029-2.665l-0.534-0.502l0.524-0.383l-0.005-0.499
		c-2.082-1.542-5.079-3.46-7.118-3.46c-1.292,0-2.284,0.707-2.653,1.892c-0.299,0.961-0.185,1.934,0.331,2.812
		c1.092,1.862,3.853,2.918,5.542,3.41l0.053,5.541C235.413,190.696,236.104,191.154,236.555,191.461z M231.797,179.766
		c0.784,0.226,2,0.895,3.298,1.751C233.748,181.084,232.303,180.421,231.797,179.766z"/>
	<path fill="#FFFFFF" d="M226.376,189.682c0.001,0.002,0.003,0.005,0.004,0.008c0.558,0.975,3.641,1.998,5.785,2.406
		c-2.174-1.269-4.542-2.414-5.771-2.414C226.388,189.682,226.382,189.682,226.376,189.682z"/>
	<path fill="#FFFFFF" d="M241.036,204.322c0.486-0.904,1.252-2.106,2.378-3.404l-7-6.58h-0.76l-0.371-0.259
		c-0.497-0.347-1.083-0.735-1.716-1.134l0.123,10.636c0.712-0.361,1.53-0.553,2.449-0.553
		C237.932,203.029,239.781,203.725,241.036,204.322z"/>
	<path fill="#FFFFFF" d="M285.607,189.689c0.002-0.003,0.003-0.005,0.005-0.008c-0.007,0-0.013,0-0.02,0
		c-1.228,0-3.595,1.145-5.77,2.414C282.253,191.633,285.097,190.583,285.607,189.689z"/>
	<path fill="#FFFFFF" d="M268.561,200.918c1.125,1.298,1.892,2.5,2.377,3.404c1.256-0.597,3.104-1.293,4.897-1.293
		c0.924,0,1.745,0.194,2.461,0.559l0.123-10.642c-0.634,0.398-1.219,0.787-1.716,1.133l-0.371,0.259h-0.771L268.561,200.918z"/>
	<path fill="#E60000" d="M230.838,205.703l0.02,1.709h3.486l-2.791-2.437l1.636-1.111c0.159-0.108,0.33-0.196,0.502-0.283
		l-0.123-10.636c0.634,0.398,1.219,0.787,1.716,1.134l0.371,0.259h0.76l-1.468-1.38l1.715-1.254
		c0.126-0.092,0.263-0.165,0.398-0.243h-0.504c-0.452-0.308-1.142-0.766-1.968-1.275c-2.387-1.473-5.919-3.382-8.193-3.382
		c-1.88,0-2.532,1.202-2.725,1.719c-0.329,0.879-0.255,1.776,0.213,2.595c1.169,2.044,4.818,3.145,6.828,3.61l0.093,8.072
		L230.838,205.703z M226.38,189.689c-0.001-0.002-0.003-0.005-0.004-0.008c0.006,0,0.012,0,0.019,0c1.229,0,3.597,1.146,5.771,2.414
		C230.021,191.687,226.938,190.664,226.38,189.689z"/>
	<path fill="#E60000" d="M268.679,191.835c0.275-0.128,0.575-0.255,0.89-0.374h-1.1
		C268.541,191.588,268.615,191.716,268.679,191.835z"/>
	<path fill="#E60000" d="M243.296,191.834c0.064-0.119,0.137-0.247,0.21-0.373h-1.099
		C242.721,191.58,243.02,191.707,243.296,191.834z"/>
	<path fill="#E60000" d="M275.432,191.461h-0.516c0.135,0.077,0.271,0.15,0.397,0.242l1.716,1.254l-1.469,1.38h0.771l0.371-0.259
		c0.497-0.347,1.082-0.735,1.716-1.133l-0.123,10.642c0.168,0.085,0.335,0.171,0.49,0.277l1.637,1.111l-2.791,2.437h3.497
		l0.02-1.716l0.034-2.901l0.093-8.066c2.01-0.465,5.659-1.566,6.829-3.61c0.468-0.818,0.541-1.715,0.213-2.595
		c-0.193-0.517-0.845-1.719-2.726-1.719c-2.283,0-5.836,1.926-8.223,3.401C276.557,190.707,275.878,191.158,275.432,191.461z
		 M285.612,189.682c-0.002,0.002-0.003,0.005-0.005,0.008c-0.51,0.893-3.354,1.944-5.784,2.406c2.175-1.269,4.542-2.414,5.77-2.414
		C285.599,189.682,285.605,189.682,285.612,189.682z"/>
	<path fill="#E60000" d="M269.711,168.94c0.181,0.083,0.358,0.172,0.527,0.278l1.819,1.14c0.982-0.489,1.972-1.187,2.547-2.164
		c0.536-0.91,0.667-1.963,0.369-2.965c-0.402-1.357-1.588-2.234-3.021-2.234c-0.202,0-0.413,0.03-0.627,0.066
		c-0.49,0.381-1.034,0.686-1.567,0.925L269.711,168.94z"/>
	<path fill="#E60000" d="M242.273,168.942l-0.047-4.954c-0.533-0.239-1.077-0.543-1.568-0.925c-0.213-0.037-0.425-0.066-0.626-0.066
		c-1.434,0-2.62,0.877-3.022,2.234c-0.297,1.003-0.166,2.056,0.37,2.965c0.576,0.978,1.566,1.675,2.548,2.164l1.82-1.141
		C241.916,169.113,242.093,169.024,242.273,168.942z"/>
	<path fill="#FFFFFF" d="M269.219,178.471c0.004,0,0.009,0.001,0.013,0.001l0.01-0.881h-3.639l-0.087,0.07
		c0.377,0.488,0.692,0.956,0.954,1.385C267.288,178.728,268.249,178.471,269.219,178.471z"/>
	<path fill="#FFFFFF" d="M246.463,177.654l-0.078-0.063h-3.638l0.01,0.88c0.969,0,1.929,0.257,2.747,0.575
		C245.766,178.614,246.084,178.145,246.463,177.654z"/>
	<path fill="#E60000" d="M265.603,177.59h3.639l-0.01,0.881c1.024,0.002,1.928,0.283,2.685,0.835l1.634,1.195l0.006-0.532
		l0.026-2.397c1.545-0.467,3.42-1.304,4.244-2.733c0.496-0.859,0.587-1.846,0.256-2.776c-0.434-1.218-1.559-1.975-2.937-1.975
		c-0.755,0-1.635,0.251-2.53,0.621l0.86,0.539L265.603,177.59z"/>
	<polygon fill="#E60000" points="243.864,186.468 238.447,181.376 238.476,184.041 238.503,186.468 	"/>
	<path fill="#E60000" d="M240.058,179.307c0.759-0.555,1.667-0.836,2.697-0.836c0,0,0.001,0,0.001,0l-0.01-0.88h3.638l-7.874-6.343
		l0.861-0.54c-0.896-0.369-1.775-0.62-2.53-0.62c-1.377,0-2.502,0.757-2.936,1.975c-0.331,0.931-0.24,1.917,0.255,2.776
		c0.825,1.43,2.699,2.267,4.244,2.733l0.027,2.419l0.005,0.499L240.058,179.307z"/>
	<polygon fill="#E60000" points="268.11,186.468 273.485,186.468 273.512,184.015 273.54,181.362 	"/>
	<path fill="#E60000" d="M247.89,158.708h4.45c0.777-0.531,1.657-1.018,2.68-1.406l0.967-0.368l0.967,0.368
		c1.022,0.389,1.902,0.875,2.68,1.406h4.461c1.665-1.301,3.746-2.587,5.464-2.587c0.299,0,0.584,0.044,0.859,0.11
		c0.768-1.383,0.556-2.719,0.424-3.236c-0.208-0.809-0.655-1.484-1.252-1.97c-0.63-0.513-1.428-0.812-2.3-0.812
		c-0.552,0-2.12,0-4.968,2.587h-0.739h-11.934c-0.001-0.001-0.002-0.002-0.003-0.003c-2.844-2.583-4.413-2.584-4.964-2.584
		c-1.07,0-2.031,0.446-2.704,1.192c-0.394,0.437-0.69,0.975-0.848,1.59c-0.282,1.1-0.123,2.242,0.434,3.237
		c0.277-0.066,0.563-0.111,0.863-0.111C244.144,156.121,246.225,157.407,247.89,158.708z"/>
	<path fill="#E60000" d="M242.273,168.942c0.643-0.294,1.359-0.447,2.143-0.447c0.628,0,1.242,0.11,1.82,0.256l-3.244-3.659
		l2.058-1.804c0.734-0.644,1.656-0.984,2.667-0.984c0.359,0,0.71,0.044,1.047,0.119c0.756-1.204,1.908-2.573,3.577-3.714h-4.45
		c-1.666-1.301-3.747-2.587-5.464-2.587c-0.3,0-0.586,0.045-0.863,0.111c-1.183,0.282-2.123,1.131-2.493,2.335
		c-0.328,1.064-0.196,2.182,0.371,3.148c0.312,0.533,0.74,0.976,1.217,1.347c0.491,0.381,1.035,0.686,1.568,0.925L242.273,168.942z"
		/>
	<path fill="#E60000" d="M264.094,158.708h-4.461c1.669,1.141,2.82,2.51,3.577,3.714c0.336-0.074,0.688-0.119,1.047-0.119
		c1.011,0,1.934,0.341,2.668,0.985l2.055,1.804l-3.245,3.662c0.582-0.147,1.202-0.259,1.837-0.259c0.782,0,1.497,0.153,2.14,0.446
		l0.047-4.953c0.533-0.239,1.077-0.543,1.567-0.925c0.478-0.371,0.904-0.814,1.217-1.347c0.567-0.966,0.7-2.083,0.372-3.149
		c-0.372-1.205-1.313-2.054-2.497-2.336c-0.275-0.066-0.561-0.11-0.859-0.11C267.84,156.121,265.759,157.407,264.094,158.708z"/>
	<path fill="#FFFFFF" d="M255.987,162.836c-0.367,0.202-0.684,0.428-0.979,0.66c0.094-0.027,0.176-0.06,0.272-0.086l0.713-0.194
		l0.713,0.194c0.088,0.024,0.164,0.054,0.251,0.079C256.664,163.259,256.35,163.036,255.987,162.836z"/>
	<path fill="#E60000" d="M268.98,165.092l-2.055-1.804c-0.734-0.644-1.657-0.985-2.668-0.985c-0.359,0-0.711,0.044-1.047,0.119
		c-0.757-1.204-1.908-2.573-3.577-3.714c-0.777-0.531-1.657-1.018-2.68-1.406l-0.967-0.368l-0.967,0.368
		c-1.023,0.389-1.902,0.875-2.68,1.406c-1.669,1.141-2.82,2.51-3.577,3.714c-0.337-0.074-0.688-0.119-1.047-0.119
		c-1.011,0-1.933,0.34-2.667,0.984l-2.058,1.804l3.244,3.659c0.11,0.028,0.229,0.045,0.335,0.076
		c1.381-1.776,3.945-4.046,8.437-5.331c0.294-0.232,0.611-0.458,0.979-0.66c0.364,0.2,0.678,0.423,0.971,0.653
		c4.507,1.283,7.075,3.559,8.459,5.337c0.101-0.029,0.214-0.046,0.318-0.072L268.98,165.092z"/>
	<path fill="#FFFFFF" d="M255.321,171.668l0.666-0.211l0.666,0.211c0.867,0.275,1.662,0.592,2.404,0.935h2.376
		c-0.584-0.889-2.102-2.651-5.439-3.728c-3.314,1.071-4.845,2.836-5.436,3.727h2.36C253.659,172.26,254.453,171.942,255.321,171.668
		z"/>
	<path fill="#E60000" d="M246.385,177.591l0.078,0.063c1.305-1.689,3.352-3.62,6.455-5.052h-2.36
		c0.591-0.89,2.122-2.655,5.436-3.727c3.337,1.077,4.855,2.838,5.439,3.728h-2.376c3.105,1.434,5.154,3.368,6.459,5.058l0.087-0.07
		l7.873-6.343l-0.86-0.539l-0.558-0.35l-1.819-1.14c-0.169-0.106-0.347-0.195-0.527-0.278c-0.643-0.293-1.357-0.446-2.14-0.446
		c-0.635,0-1.255,0.112-1.837,0.259c-0.104,0.026-0.218,0.043-0.318,0.072c-1.384-1.778-3.952-4.054-8.459-5.337
		c-0.087-0.025-0.163-0.055-0.251-0.079l-0.713-0.194l-0.713,0.194c-0.096,0.026-0.178,0.059-0.272,0.086
		c-4.492,1.284-7.056,3.555-8.437,5.331c-0.107-0.031-0.225-0.048-0.335-0.076c-0.578-0.146-1.192-0.256-1.82-0.256
		c-0.784,0-1.5,0.153-2.143,0.447c-0.18,0.083-0.357,0.171-0.525,0.277l-1.82,1.141l-0.556,0.349l-0.861,0.54L246.385,177.591z"/>
	<path fill="#FFFFFF" d="M263.375,182.676c-0.057-0.168-1.532-4.451-7.388-6.578c-5.867,2.137-7.375,6.532-7.389,6.578l-0.393,1.271
		h3.289c1.174-0.617,2.484-1.18,3.96-1.647l0.533-0.168l0.533,0.168c1.476,0.468,2.786,1.03,3.96,1.648h3.287L263.375,182.676z"/>
	<path fill="#E60000" d="M243.864,186.468l1.95,1.833c1.351-1.491,3.199-3.049,5.681-4.353h-3.289l0.393-1.271
		c0.014-0.045,1.521-4.441,7.389-6.578c5.856,2.126,7.332,6.409,7.388,6.578l0.393,1.272h-3.287c2.48,1.304,4.329,2.862,5.68,4.352
		l1.949-1.832l5.431-5.105l0.52-0.488l-0.51-0.373l-1.634-1.195c-0.757-0.552-1.66-0.833-2.685-0.835
		c-0.004,0-0.009-0.001-0.013-0.001c-0.97,0-1.931,0.257-2.749,0.575c-0.262-0.429-0.577-0.897-0.954-1.385
		c-1.305-1.69-3.354-3.624-6.459-5.058c-0.742-0.343-1.537-0.66-2.404-0.935l-0.666-0.211l-0.666,0.211
		c-0.867,0.274-1.662,0.592-2.403,0.934c-3.103,1.433-5.15,3.363-6.455,5.052c-0.379,0.491-0.697,0.96-0.959,1.392
		c-0.818-0.318-1.778-0.574-2.747-0.575c0,0-0.001,0-0.001,0c-1.03,0-1.938,0.281-2.697,0.836l-1.621,1.184l-0.524,0.383
		l0.534,0.502L243.864,186.468z"/>
	<path fill="#FFFFFF" d="M269,195.663c-0.062,0.038-0.115,0.073-0.159,0.103l-1.968,1.316l-0.702-2.26
		c-0.079-0.247-2.08-6.191-10.184-8.983c-8.105,2.792-10.105,8.736-10.188,8.993l-0.72,2.235l-1.949-1.303
		c-0.043-0.029-0.095-0.062-0.153-0.098l2.16,2.03h1.768c2.169-1.618,4.988-3.147,8.652-4.225l0.431-0.126l0.431,0.126
		c3.665,1.079,6.483,2.607,8.653,4.226h1.765L269,195.663z"/>
	<path fill="#E60000" d="M243.414,200.918c0.907-1.046,2.056-2.152,3.491-3.223h-1.768l-2.16-2.03
		c0.059,0.036,0.11,0.069,0.153,0.098l1.949,1.303l0.72-2.235c0.083-0.257,2.083-6.201,10.188-8.993
		c8.104,2.792,10.104,8.736,10.184,8.983l0.702,2.26l1.968-1.316c0.044-0.03,0.098-0.064,0.159-0.103l-2.164,2.034h-1.765
		c1.434,1.07,2.582,2.176,3.489,3.222l7-6.58l1.469-1.38l-1.716-1.254c-0.126-0.092-0.263-0.165-0.397-0.242
		c-0.226-0.129-0.461-0.239-0.708-0.327c-0.516-0.182-1.073-0.284-1.681-0.284c-1.022,0-2.058,0.27-2.959,0.611
		c-0.314,0.119-0.614,0.246-0.89,0.374c-0.064-0.119-0.138-0.247-0.21-0.374c-0.524-0.915-1.27-2.015-2.309-3.162
		c-1.351-1.49-3.199-3.048-5.68-4.352c-1.174-0.618-2.484-1.18-3.96-1.648l-0.533-0.168l-0.533,0.168
		c-1.476,0.468-2.786,1.03-3.96,1.647c-2.481,1.304-4.33,2.862-5.681,4.353c-1.039,1.146-1.784,2.247-2.308,3.161
		c-0.073,0.126-0.146,0.254-0.21,0.373c-0.275-0.128-0.575-0.254-0.889-0.373c-0.902-0.341-1.937-0.611-2.96-0.611
		c-0.614,0-1.178,0.105-1.698,0.292c-0.241,0.086-0.471,0.194-0.69,0.32c-0.135,0.078-0.272,0.15-0.398,0.243l-1.715,1.254
		l1.468,1.38L243.414,200.918z"/>
	<path fill="#E60000" d="M267.359,213.709h-0.427c0.078,0.077,0.155,0.153,0.231,0.23L267.359,213.709z"/>
	<path fill="#E60000" d="M244.49,213.709l0.249,0.31c0.101-0.104,0.206-0.207,0.311-0.31H244.49z"/>
	<path fill="#FFFFFF" d="M255.569,207.325l0.422-0.144l0.422,0.144c2.654,0.905,4.887,2.064,6.777,3.333l6.083,0l4.965-4.333
		c-1.358,0.374-2.675,1.074-3.197,1.402l-1.646,1.031l-0.612-1.842c-0.1-0.29-2.59-7.215-12.796-10.388
		c-10.298,3.204-12.773,10.316-12.797,10.388l-0.613,1.842l-1.645-1.031c-0.523-0.326-1.84-1.024-3.192-1.398l4.96,4.329l6.092,0
		C250.682,209.388,252.916,208.23,255.569,207.325z"/>
	<path fill="#E60000" d="M241.557,213.709h2.934h0.559c1.06-1.044,2.296-2.08,3.743-3.052l-6.092,0l-4.96-4.329
		c1.352,0.374,2.669,1.072,3.192,1.398l1.645,1.031l0.613-1.842c0.024-0.072,2.499-7.185,12.797-10.388
		c10.206,3.173,12.696,10.098,12.796,10.388l0.612,1.842l1.646-1.031c0.522-0.328,1.839-1.028,3.197-1.402l-4.965,4.333l-6.083,0
		c1.446,0.972,2.683,2.007,3.741,3.051h0.427h3.06l7.214-6.297l2.791-2.437l-1.637-1.111c-0.155-0.105-0.322-0.191-0.49-0.277
		c-0.716-0.365-1.537-0.559-2.461-0.559c-1.793,0-3.642,0.696-4.897,1.293c-0.485-0.904-1.252-2.106-2.377-3.404
		c-0.907-1.046-2.056-2.152-3.489-3.222c-2.17-1.619-4.988-3.147-8.653-4.226l-0.431-0.126l-0.431,0.126
		c-3.664,1.078-6.482,2.607-8.652,4.225c-1.435,1.07-2.584,2.177-3.491,3.223c-1.126,1.298-1.892,2.5-2.378,3.404
		c-1.255-0.597-3.104-1.293-4.896-1.293c-0.919,0-1.737,0.191-2.449,0.553c-0.172,0.087-0.343,0.175-0.502,0.283l-1.636,1.111
		l2.791,2.437L241.557,213.709z"/>
	<path fill="#FFFFFF" d="M244.958,231.629c0.029-0.029,0.059-0.059,0.088-0.088h-0.15L244.958,231.629z"/>
	<path fill="#E60000" d="M266.936,231.541c0.306,0.302,0.599,0.603,0.875,0.904l0.663-0.904H266.936z"/>
	<path fill="#E60000" d="M243.376,231.541l0.699,1.01c0.279-0.307,0.573-0.614,0.882-0.922l-0.062-0.088H243.376z"/>
	<path fill="#FFFFFF" d="M270.458,228.925l6.883-6.967c-1.933,0.075-4.36,1.537-5.152,2.11l-1.51,1.092l-0.515-1.79
		c-0.111-0.381-2.861-9.367-14.173-13.422c-11.376,4.082-14.147,13.328-14.174,13.422l-0.514,1.791l-1.511-1.093
		c-0.792-0.573-3.219-2.035-5.151-2.11l6.885,6.967h6.636c2.017-1.441,4.45-2.764,7.406-3.772l0.422-0.144l0.422,0.144
		c2.957,1.009,5.389,2.332,7.406,3.772H270.458z"/>
	<path fill="#E60000" d="M268.474,231.541h3.076l10.171-10.295l-1.15-0.905c-0.843-0.664-1.878-1-3.078-1
		c-1.985,0-4.076,0.958-5.416,1.715c-0.257-0.585-0.608-1.304-1.07-2.106c-0.391-0.678-0.871-1.419-1.436-2.19
		c-0.666-0.912-1.462-1.864-2.407-2.82c-0.076-0.077-0.153-0.153-0.231-0.23c-1.059-1.044-2.295-2.08-3.741-3.051
		c-1.89-1.269-4.123-2.428-6.777-3.333l-0.422-0.144l-0.422,0.144c-2.653,0.905-4.887,2.063-6.776,3.333
		c-1.447,0.972-2.684,2.007-3.743,3.052c-0.104,0.103-0.209,0.206-0.311,0.31c-0.911,0.929-1.68,1.854-2.328,2.74
		c-0.564,0.771-1.044,1.513-1.435,2.19c-0.462,0.802-0.814,1.521-1.071,2.106c-1.341-0.757-3.431-1.715-5.417-1.715
		c-1.199,0-2.235,0.336-3.078,1l-1.15,0.905l9.409,9.522v0.773h3.706h1.52h0.15c0.902-0.89,1.936-1.771,3.117-2.615h-6.636
		l-6.885-6.967c1.932,0.075,4.36,1.537,5.151,2.11l1.511,1.093l0.514-1.791c0.027-0.094,2.797-9.34,14.174-13.422
		c11.312,4.056,14.062,13.041,14.173,13.422l0.515,1.79l1.51-1.092c0.792-0.573,3.22-2.035,5.152-2.11l-6.883,6.967h-6.639
		c1.181,0.844,2.214,1.726,3.116,2.615H268.474z"/>
	<path fill="#FFFFFF" d="M241.527,246.753h28.932l6.883-6.967c-1.933,0.075-4.36,1.537-5.152,2.11l-1.51,1.092l-0.515-1.79
		c-0.111-0.381-2.861-9.367-14.173-13.422c-11.376,4.082-14.147,13.328-14.174,13.422l-0.514,1.791l-1.511-1.093
		c-0.792-0.573-3.219-2.035-5.151-2.11L241.527,246.753z"/>
	<path fill="#E60000" d="M268.329,249.369h3.221l0.538-0.544l0.277-0.281l0.947-0.959l0.114-0.115l1.211-1.226l4.037-4.086
		l1.56-1.579l1.486-1.504l-1.15-0.905c-0.843-0.664-1.878-1-3.078-1c-1.985,0-4.076,0.958-5.416,1.715
		c-0.442-1.007-1.161-2.406-2.255-3.956c-0.498-0.706-1.083-1.444-1.747-2.19c-0.086-0.097-0.174-0.194-0.264-0.292
		c-0.276-0.301-0.569-0.603-0.875-0.904c-0.902-0.89-1.936-1.771-3.116-2.615c-2.017-1.441-4.449-2.764-7.406-3.772l-0.422-0.144
		l-0.422,0.144c-2.957,1.009-5.39,2.332-7.406,3.772c-1.181,0.844-2.214,1.726-3.117,2.615c-0.03,0.029-0.059,0.059-0.088,0.088
		c-0.309,0.308-0.604,0.615-0.882,0.922c-0.056,0.062-0.113,0.124-0.168,0.186c-0.664,0.747-1.249,1.484-1.747,2.19
		c-1.093,1.55-1.812,2.949-2.254,3.956c-1.341-0.757-3.431-1.715-5.417-1.715c-1.199,0-2.235,0.336-3.078,1l-1.15,0.905l1.486,1.504
		l1.561,1.579l4.038,4.086l1.211,1.226l0.114,0.115l0.947,0.959l0.052,0.053v0.773h0.217h3.632h1.216h3.897h1.201h13.495h1.201
		h2.561H268.329z M234.642,239.786c1.932,0.075,4.36,1.537,5.151,2.11l1.511,1.093l0.514-1.791
		c0.027-0.094,2.797-9.34,14.174-13.422c11.312,4.056,14.062,13.041,14.173,13.422l0.515,1.79l1.51-1.092
		c0.792-0.573,3.22-2.035,5.152-2.11l-6.883,6.967h-28.932L234.642,239.786z"/>
	<rect x="167.019" y="273.263" fill="#FFFFFF" width="5.41" height="26.813"/>
	<path fill="#E60000" d="M165.979,301.115h7.49v-1.043v-27.849h-7.49v27.849V301.115z M167.019,273.263h5.41v26.813h-5.41V273.263z"
		/>
	<rect x="188.952" y="273.26" fill="#FFFFFF" width="5.41" height="26.814"/>
	<path fill="#E60000" d="M187.912,301.113h7.49v-1.041v-27.852h-7.49v27.852V301.113z M188.952,273.26h5.41v26.814h-5.41V273.26z"/>
	<rect x="178.631" y="273.26" fill="#FFFFFF" width="5.41" height="26.812"/>
	<path fill="#E60000" d="M177.591,301.111h7.49v-1.039v-27.852h-7.49v27.852V301.111z M178.631,273.26h5.41v26.812h-5.41V273.26z"/>
	<rect x="295.825" y="273.262" fill="#FFFFFF" width="5.411" height="26.812"/>
	<path fill="#E60000" d="M294.786,272.223v27.85v1.041h7.489v-1.041v-27.85H294.786z M295.825,300.074v-26.812h5.411v26.812H295.825
		z"/>
	<rect x="339.689" y="273.26" fill="#FFFFFF" width="5.412" height="26.812"/>
	<path fill="#E60000" d="M338.65,272.221v27.852v1.039h7.49v-1.039v-27.852H338.65z M339.689,300.072V273.26h5.412v26.812H339.689z"
		/>
	<rect x="317.757" y="273.258" fill="#FFFFFF" width="5.411" height="26.813"/>
	<path fill="#E60000" d="M316.718,272.219v27.854v1.038h7.489v-1.038v-27.854H316.718z M317.757,273.258h5.411v26.813h-5.411
		V273.258z"/>
	<rect x="307.436" y="273.258" fill="#FFFFFF" width="5.411" height="26.812"/>
	<path fill="#E60000" d="M306.397,272.219v27.854v1.037h7.489v-1.037v-27.854H306.397z M307.436,273.258h5.411v26.812h-5.411
		V273.258z"/>
	<rect x="328.078" y="273.258" fill="#FFFFFF" width="5.411" height="26.812"/>
	<path fill="#E60000" d="M327.039,272.219v27.854v1.037h7.489v-1.037v-27.854H327.039z M328.078,273.258h5.411v26.812h-5.411
		V273.258z"/>
	<rect x="210.884" y="273.262" fill="#FFFFFF" width="5.41" height="26.812"/>
	<path fill="#E60000" d="M209.844,301.113h7.49v-1.041v-27.85h-7.49v27.85V301.113z M210.884,273.262h5.41v26.812h-5.41V273.262z"/>
	<rect x="199.272" y="273.26" fill="#FFFFFF" width="5.411" height="26.812"/>
	<path fill="#E60000" d="M198.232,301.111h7.491v-1.039v-27.852h-7.491v27.852V301.111z M199.272,273.26h5.411v26.812h-5.411V273.26
		z"/>
</g>
</svg>
