<?xml version="1.0" encoding="utf-8"?>
<!-- Generator: Adobe Illustrator 16.0.0, SVG Export Plug-In . SVG Version: 6.00 Build 0)  -->
<svg version="1.2" baseProfile="tiny"
	 id="svg570" xmlns:cc="http://creativecommons.org/ns#" xmlns:dc="http://purl.org/dc/elements/1.1/" xmlns:rdf="http://www.w3.org/1999/02/22-rdf-syntax-ns#"
	 xmlns="http://www.w3.org/2000/svg" xmlns:xlink="http://www.w3.org/1999/xlink" x="0px" y="0px" width="512px" height="512px"
	 viewBox="0 0 512 512" xml:space="preserve">
<g>
	<path fill="#E73E2D" d="M63.951,299.95c34.281,1.466,66.331-28.375,97.326-29.343l-31.705-10.584l0.207-1.218l26.35,0.37
		c-6.848-5.965-12.076-14.59-14.057-28.292l-0.221-1.53l1.223,0.947c10.774,8.345,16.589,10.022,22.48,10.022
		c1.331,0,2.657-0.078,4.062-0.161c0.34-0.02,0.685-0.04,1.031-0.059l-25.107-20.73l0.6-1.073l24.396,8.326
		c-4.628-7.751-6.915-17.524-4.618-31.083l0.258-1.524l0.874,1.276c9.793,14.303,15.016,15.652,22.244,17.518
		c0.287,0.074,0.578,0.15,0.872,0.226l-16.244-27.606l0.942-0.794l18.879,15.941c-1.146-8.768,0.571-18.481,7.706-29.858l0.821-1.31
		l0.319,1.513c3.581,16.961,7.892,20.204,13.857,24.692c0.11,0.083,0.222,0.167,0.333,0.251l-6.019-33.523l1.161-0.42l12.545,22.088
		c1.567-8.762,6.178-17.546,16.54-26.25l1.184-0.995l-0.161,1.538c-1.799,17.242,1.308,21.651,5.607,27.754
		c0.21,0.298,0.423,0.602,0.638,0.908l6.068-33.613l1.232,0.01l3.867,23.637c4.999-7.627,12.863-13.997,26.243-17.799l1.487-0.423
		l-0.775,1.337c-8.701,14.994-7.673,20.289-6.248,27.618c0.192,0.99,0.391,2.014,0.571,3.098l15.468-27.964l1.168,0.401
		l-3.801,24.097c6.609-5.206,15.195-8.626,27.405-8.626c1.013,0,2.058,0.024,3.105,0.072l1.545,0.071l-1.16,1.022
		c-13.004,11.463-13.706,16.812-14.678,24.213c-0.046,0.352-0.094,0.71-0.143,1.071l24.224-22.546l0.974,0.759l-13.61,24.71
		c4.242-1.649,8.889-2.636,14.111-2.636c5.567,0,11.342,1.098,17.655,3.356l1.456,0.521l-1.409,0.637
		c-15.796,7.141-18.036,12.047-21.138,18.838c-0.153,0.334-0.309,0.675-0.467,1.018l31.345-12.032l0.628,1.061l-20.755,17.58
		c0.988-0.075,1.983-0.127,2.992-0.127c9.057,0,17.854,3.197,26.894,9.773l1.251,0.91l-1.531,0.215
		c-17.167,2.407-20.698,6.484-25.586,12.127c-0.103,0.118-0.207,0.238-0.311,0.358l33.106-0.727l0.195,1.223l-31.601,9.611
		c25.25,4.345,37.913,30.661,81.094,30.661c44.748,0,59.76-23.394,82.834-29.72V0H-0.009v277.415
		C16.186,285.661,31.471,298.576,63.951,299.95z M136.768,75.434c39.99-2.738,48.785-5.86,57.29-8.879
		c4.455-1.582,8.663-3.075,17.156-4.431l0.073-0.012l0.073,0.01c20.779,2.857,29.443,12.324,37.8,21.495
		c29.823-23.598,58.632-24.923,90.921-26.401c6.686-0.306,13.6-0.623,20.719-1.139l0.41-0.03l0.108,0.396
		c2.831,10.337-4.668,18.173-23.602,24.663c-17.042,2.516-40.812,12.749-61.695,23.174c8.836-1.234,18.597-1.875,28.815-1.875
		c4.528,0,9.106,0.125,13.607,0.371c8.156,0.366,11.027,4.252,14.475,10.138c0.113,0.193,0.114,0.433,0.003,0.627
		s-0.318,0.314-0.542,0.314h-9.453c-6.396,6.138-13.138,9.332-32.734,9.356c-0.423,0.281-0.846,0.564-1.271,0.848
		c-9.399,6.284-20.054,13.407-37.236,13.854c-0.005,0-0.011,0-0.016,0c-5.775,0-25.69-1.574-40.183-21.762
		c-9.691-1.01-14.285-1.884-18.899-10.044c-1.573,0.045-2.99-0.007-4.343-0.057c-0.909-0.034-1.789-0.067-2.668-0.067
		c-3.203,0-6.207,0.446-10.461,2.622c-0.243,0.124-0.539,0.076-0.731-0.12c-0.191-0.196-0.233-0.493-0.103-0.734
		c3.482-6.453,7.899-7.552,12.576-8.716c1.723-0.429,3.504-0.872,5.256-1.611c0.942-0.733,1.616-1.453,2.268-2.15
		c1.6-1.71,3.111-3.326,7.977-4.635c0.047-0.013,0.095-0.02,0.144-0.021c7.418-0.252,17.212,7.129,25.423,13.601
		c1.248-1.441,2.492-2.838,3.733-4.189c-3.424-4.196-10.328-9.812-23.965-18.132c-2.538-0.147-5.476-0.22-8.975-0.22
		c-4.548,0-9.365,0.118-14.466,0.243c-5.177,0.126-10.53,0.257-15.659,0.257c-12.835,0-26.69-0.698-32.136-5.882l-0.823-0.784
		L136.768,75.434z"/>
	<path fill="#FEC74A" d="M169.687,241.41c-1.423,0.083-2.768,0.163-4.135,0.163c-5.921,0-11.73-1.592-22.005-9.336
		c2.206,13.161,7.633,21.333,14.613,26.969l36.237,0.509l-22.322-18.431C171.256,241.318,170.465,241.364,169.687,241.41z"/>
	<path fill="#D8AA3F" d="M158.16,259.205c-6.98-5.635-12.407-13.808-14.613-26.969c10.275,7.744,16.084,9.336,22.005,9.336
		c1.367,0,2.711-0.079,4.135-0.163c0.777-0.045,1.568-0.092,2.387-0.127l-1.43-1.18c-0.346,0.02-0.69,0.039-1.031,0.059
		c-1.404,0.083-2.731,0.161-4.062,0.161c-5.891,0-11.706-1.677-22.48-10.022l-1.223-0.947l0.221,1.53
		c1.981,13.702,7.209,22.327,14.057,28.292L158.16,259.205z"/>
	<path fill="#FEC74A" d="M188.979,214.021c-6.995-1.806-12.564-3.245-22.073-16.74c-1.919,13.119,0.698,22.523,5.555,30.002
		l32.639,11.139l-14.035-23.852C190.35,214.376,189.656,214.196,188.979,214.021z"/>
	<path fill="#D8AA3F" d="M172.461,227.283c-4.857-7.479-7.475-16.883-5.555-30.002c9.509,13.495,15.078,14.934,22.073,16.74
		c0.678,0.175,1.372,0.354,2.086,0.549l-0.902-1.534c-0.293-0.076-0.584-0.152-0.872-0.226c-7.229-1.866-12.451-3.215-22.244-17.518
		l-0.874-1.276l-0.258,1.524c-2.297,13.559-0.01,23.332,4.618,31.083L172.461,227.283z"/>
	<path fill="#FEC74A" d="M215.692,196.614c-5.772-4.343-10.369-7.802-13.996-23.909c-6.606,11.081-7.897,20.554-6.462,29.134
		l26.657,22.508l-4.788-26.664C216.623,197.315,216.153,196.96,215.692,196.614z"/>
	<path fill="#D8AA3F" d="M195.233,201.839c-1.435-8.58-0.144-18.053,6.462-29.134c3.627,16.106,8.224,19.565,13.996,23.909
		c0.461,0.347,0.932,0.702,1.411,1.069l-0.326-1.817c-0.111-0.084-0.223-0.168-0.333-0.251c-5.965-4.488-10.276-7.731-13.857-24.692
		l-0.319-1.513l-0.821,1.31c-7.135,11.377-8.852,21.09-7.706,29.858L195.233,201.839z"/>
	<path fill="#FEC74A" d="M246.612,186.779c-4.161-5.906-7.473-10.609-5.98-27.051c-9.819,8.632-13.935,17.368-15.143,26.09
		l17.446,30.717l5.022-27.823C247.5,188.042,247.05,187.401,246.612,186.779z"/>
	<path fill="#D8AA3F" d="M225.488,185.817c1.208-8.722,5.324-17.458,15.143-26.09c-1.493,16.442,1.82,21.146,5.98,27.051
		c0.438,0.623,0.889,1.263,1.345,1.933l0.315-1.745c-0.214-0.307-0.428-0.61-0.638-0.908c-4.3-6.103-7.407-10.513-5.607-27.754
		l0.161-1.538l-1.184,0.995c-10.362,8.704-14.973,17.488-16.54,26.25L225.488,185.817z"/>
	<path fill="#FEC74A" d="M278.917,187.973c-1.378-7.091-2.475-12.738,5.619-27.128c-12.75,3.935-20.129,10.399-24.786,18.064
		l6.29,38.455l13.684-24.738C279.492,190.943,279.198,189.42,278.917,187.973z"/>
	<path fill="#D8AA3F" d="M259.75,178.909c4.657-7.666,12.036-14.129,24.786-18.064c-8.094,14.39-6.997,20.037-5.619,27.128
		c0.281,1.448,0.575,2.97,0.807,4.653l0.992-1.794c-0.181-1.083-0.379-2.108-0.571-3.098c-1.425-7.329-2.453-12.624,6.248-27.618
		l0.775-1.337l-1.487,0.423c-13.38,3.802-21.244,10.171-26.243,17.799L259.75,178.909z"/>
	<path fill="#FEC74A" d="M308.53,203.955c0.94-7.163,1.69-12.866,13.927-23.949c-13.327-0.292-22.365,3.488-29.205,9.261
		l-5.761,36.524l20.681-19.249C308.306,205.649,308.42,204.79,308.53,203.955z"/>
	<path fill="#D8AA3F" d="M293.251,189.268c6.84-5.773,15.878-9.554,29.205-9.261c-12.236,11.083-12.986,16.786-13.927,23.949
		c-0.109,0.834-0.224,1.694-0.358,2.588l1.455-1.354c0.049-0.361,0.097-0.719,0.143-1.071c0.972-7.402,1.674-12.75,14.678-24.213
		l1.16-1.022l-1.545-0.071c-1.048-0.048-2.093-0.072-3.105-0.072c-12.21,0-20.796,3.42-27.405,8.626L293.251,189.268z"/>
	<path fill="#FEC74A" d="M330.751,228.309c3.002-6.571,5.39-11.802,20.343-18.805c-5.607-1.868-10.78-2.777-15.77-2.777
		c-5.627,0-10.58,1.196-15.083,3.15l-16.946,30.766l26.442-10.15C330.095,229.744,330.428,229.016,330.751,228.309z"/>
	<path fill="#D8AA3F" d="M320.241,209.876c4.503-1.954,9.456-3.15,15.083-3.15c4.989,0,10.162,0.91,15.77,2.777
		c-14.953,7.003-17.341,12.234-20.343,18.805c-0.323,0.708-0.656,1.435-1.014,2.184l1.685-0.646
		c0.158-0.343,0.313-0.683,0.467-1.018c3.102-6.791,5.342-11.697,21.138-18.838l1.409-0.637l-1.456-0.521
		c-6.313-2.259-12.088-3.356-17.655-3.356c-5.223,0-9.869,0.987-14.111,2.636L320.241,209.876z"/>
	<path fill="#FEC74A" d="M345.714,258.533c4.729-5.46,8.496-9.808,24.813-12.32c-8.375-5.809-16.532-8.636-24.896-8.636
		c-1.58,0-3.133,0.111-4.668,0.297l-26.607,22.538l30.3-0.665C345.018,259.336,345.37,258.931,345.714,258.533z"/>
	<path fill="#D8AA3F" d="M340.964,237.875c1.535-0.187,3.088-0.297,4.668-0.297c8.363,0,16.521,2.827,24.896,8.636
		c-16.317,2.512-20.084,6.859-24.813,12.32c-0.344,0.397-0.696,0.803-1.058,1.214l1.692-0.037c0.104-0.12,0.208-0.24,0.311-0.358
		c4.888-5.643,8.419-9.72,25.586-12.127l1.531-0.215l-1.251-0.91c-9.04-6.576-17.837-9.773-26.894-9.773
		c-1.009,0-2.004,0.052-2.992,0.127L340.964,237.875z"/>
	<path fill="#FEC74A" d="M313.177,261.688c1.55,5.23,2.423,10.746,2.525,16.448c7.668-5.037,15.289-8.864,25.21-8.94
		c1.431,0,2.805,0.09,4.154,0.223l29.872-9.086L313.177,261.688z"/>
	<path fill="#D8AA3F" d="M344.656,259.747l-30.3,0.665l-1.243,1.053c0.022,0.074,0.042,0.149,0.063,0.224l61.762-1.355
		l-29.872,9.086c1.014,0.099,2.009,0.231,2.983,0.398l31.601-9.611l-0.195-1.223l-33.106,0.727L344.656,259.747z"/>
	<path fill="#FEC74A" d="M312.708,260.17l47.068-39.87l-56.535,21.701C307.342,247.434,310.563,253.562,312.708,260.17z"/>
	<path fill="#D8AA3F" d="M329.738,230.492l-26.442,10.15l-0.462,0.84c0.134,0.174,0.275,0.343,0.408,0.519l56.535-21.701
		l-47.068,39.87c0.14,0.431,0.275,0.861,0.405,1.295l1.243-1.053l26.607-22.538l1.676-1.42l20.755-17.58l-0.628-1.061
		l-31.345,12.032L329.738,230.492z"/>
	<path fill="#FEC74A" d="M301.993,240.415l29.854-54.2l-44.239,41.177C293.058,230.96,297.913,235.359,301.993,240.415z"/>
	<path fill="#D8AA3F" d="M308.171,206.543l-20.681,19.249l-0.219,1.384c0.112,0.072,0.225,0.143,0.336,0.215l44.239-41.177
		l-29.854,54.2c0.284,0.353,0.562,0.709,0.84,1.068l0.462-0.84l16.946-30.766l0.972-1.765l13.61-24.71l-0.974-0.759l-24.224,22.546
		L308.171,206.543z"/>
	<path fill="#FEC74A" d="M286.119,226.437l9.439-59.848l-28.809,52.084C273.708,220.163,280.238,222.82,286.119,226.437z"/>
	<path fill="#D8AA3F" d="M279.724,192.626l-13.684,24.738l0.195,1.189c0.173,0.035,0.342,0.082,0.515,0.119l28.809-52.084
		l-9.439,59.848c0.39,0.239,0.77,0.492,1.152,0.739l0.219-1.384l5.761-36.524l0.3-1.902l3.801-24.097l-1.168-0.401l-15.468,27.964
		L279.724,192.626z"/>
	<path fill="#FEC74A" d="M253.761,217.292c3.814,0,7.543,0.365,11.169,1.028l-10.006-61.169l-10.999,60.93
		C247.13,217.567,250.413,217.292,253.761,217.292z"/>
	<path fill="#D8AA3F" d="M247.956,188.711l-5.022,27.823l0.889,1.565c0.034-0.006,0.068-0.013,0.103-0.019l10.999-60.93
		l10.006,61.169c0.435,0.08,0.874,0.145,1.306,0.234l-0.195-1.189l-6.29-38.455l-0.312-1.908l-3.867-23.637l-1.232-0.01
		l-6.068,33.613L247.956,188.711z"/>
	<path fill="#FEC74A" d="M242.515,218.333l-29.878-52.609l10.698,59.583C229.204,221.985,235.662,219.596,242.515,218.333z"/>
	<path fill="#D8AA3F" d="M217.102,197.683l4.788,26.664l1.263,1.066c0.061-0.035,0.121-0.071,0.183-0.105l-10.698-59.583
		l29.878,52.609c0.435-0.08,0.869-0.163,1.307-0.234l-0.889-1.565l-17.446-30.717l-1.025-1.807l-12.545-22.088l-1.161,0.42
		l6.019,33.523L217.102,197.683z"/>
	<path fill="#FEC74A" d="M222,226.076l-45.145-38.119l29.962,50.92C211.153,233.844,216.274,229.509,222,226.076z"/>
	<path fill="#D8AA3F" d="M191.065,214.571l14.035,23.852l1.63,0.556c0.029-0.034,0.059-0.067,0.088-0.101l-29.962-50.92L222,226.076
		c0.38-0.228,0.767-0.443,1.152-0.663l-1.263-1.066l-26.657-22.508l-1.494-1.261l-18.879-15.941l-0.942,0.794l16.244,27.606
		L191.065,214.571z"/>
	<path fill="#FEC74A" d="M205.855,240.001l-56.882-19.414l46.302,38.23C197.696,251.909,201.298,245.551,205.855,240.001z"/>
	<path fill="#D8AA3F" d="M172.074,241.283l22.322,18.431l0.57,0.009c0.101-0.303,0.202-0.605,0.307-0.905l-46.302-38.23
		l56.882,19.414c0.285-0.347,0.583-0.682,0.875-1.022l-1.63-0.556l-32.639-11.139l-1.928-0.658l-24.396-8.326l-0.6,1.073
		l25.107,20.73L172.074,241.283z"/>
	<path fill="#FEC74A" d="M191.793,279.262c0-6.366,0.967-12.51,2.759-18.295l-60.767-0.854l31.492,10.513
		c8.92,0.468,16.68,3.799,24.413,8.149l2.109,0.704C191.798,279.406,191.793,279.334,191.793,279.262z"/>
	<path fill="#D8AA3F" d="M165.277,270.625l-31.492-10.513l60.767,0.854c0.129-0.419,0.277-0.829,0.416-1.244l-0.57-0.009
		l-36.237-0.509l-2.032-0.029l-26.35-0.37l-0.207,1.218l31.705,10.584c0.51-0.016,1.021-0.046,1.531-0.046
		C163.642,270.555,164.462,270.582,165.277,270.625z"/>
	<path fill="#D8AA3F" d="M189.689,278.774c0.707,0.397,1.415,0.804,2.122,1.218c-0.002-0.172-0.012-0.342-0.013-0.514
		L189.689,278.774z"/>
	<path fill="#FEC74A" d="M253.761,218.479c-33.515,0-60.782,27.267-60.782,60.783c0,0.482,0.025,0.958,0.037,1.438
		c15.595,9.267,31.747,21.582,57.73,21.895c33.343,0.407,48.88-13.677,63.788-23.682
		C314.345,245.558,287.159,218.479,253.761,218.479z"/>
	<path fill="#D8AA3F" d="M313.177,261.688c-0.021-0.074-0.041-0.149-0.063-0.224c-0.13-0.434-0.266-0.864-0.405-1.295
		c-2.146-6.608-5.366-12.736-9.467-18.168c-0.133-0.176-0.274-0.345-0.408-0.519c-0.277-0.359-0.556-0.715-0.84-1.068
		c-4.08-5.055-8.936-9.455-14.386-13.023c-0.111-0.073-0.224-0.143-0.336-0.215c-0.383-0.248-0.763-0.5-1.152-0.739
		c-5.882-3.617-12.411-6.273-19.369-7.764c-0.173-0.037-0.342-0.084-0.515-0.119c-0.432-0.089-0.871-0.154-1.306-0.234
		c-3.626-0.663-7.354-1.028-11.169-1.028c-3.348,0-6.631,0.275-9.836,0.789c-0.035,0.005-0.068,0.013-0.103,0.019
		c-0.438,0.071-0.872,0.154-1.307,0.234c-6.853,1.262-13.312,3.651-19.18,6.974c-0.062,0.035-0.122,0.07-0.183,0.105
		c-0.385,0.22-0.772,0.436-1.152,0.663c-5.727,3.433-10.847,7.768-15.183,12.801c-0.029,0.034-0.059,0.067-0.088,0.101
		c-0.292,0.341-0.59,0.676-0.875,1.022c-4.557,5.55-8.159,11.908-10.581,18.816c-0.105,0.3-0.206,0.603-0.307,0.905
		c-0.138,0.415-0.286,0.825-0.416,1.244c-1.792,5.785-2.759,11.929-2.759,18.295c0,0.072,0.005,0.145,0.005,0.217
		c0.001,0.172,0.011,0.342,0.013,0.514c0.401,0.234,0.803,0.468,1.205,0.707c-0.011-0.479-0.037-0.955-0.037-1.438
		c0-33.516,27.267-60.783,60.782-60.783c33.398,0,60.584,27.079,60.773,60.433c0.39-0.261,0.778-0.52,1.168-0.775
		C315.6,272.435,314.727,266.919,313.177,261.688z"/>
	<path fill="#005989" d="M342.758,378.201c-28.964-3.168-45.917,35.098-92.088,34.11c-44.516-0.434-56.369-34.637-85.331-33.146
		c-39.107-4.139-53.764,30.406-99.132,30.524c-42.111,0.109-47.603-16.684-66.216-24.985v37.705
		c16.267,8.241,31.561,21.235,64.176,22.613c34.878,1.491,67.449-29.388,98.948-29.388c29.712-0.229,46.061,31.527,88.021,32.032
		c51.437,0.626,60.539-33.17,90.25-33.398c30.397,0,41.206,31.283,88.313,31.283c44.381,0,59.537-22.97,82.278-29.545v-35.539
		c-24.174,5.844-38.277,29.01-84.97,28.774C383.72,409.021,373.613,378.201,342.758,378.201z"/>
	<path fill="#005989" d="M342.282,306.061c-28.937-3.168-45.874,35.098-92.001,34.109c-44.475-0.434-56.317-34.637-85.252-33.146
		c-39.071-4.139-53.714,30.406-99.039,30.524c-41.955,0.109-47.527-16.59-65.999-24.916v36.845
		c16.267,8.241,31.561,21.235,64.176,22.614c34.878,1.49,67.449-29.389,98.948-29.389c29.712-0.229,46.061,31.527,88.021,32.032
		c51.437,0.626,60.539-33.171,90.25-33.397c30.397,0,41.206,31.282,88.313,31.282c44.381,0,59.537-22.97,82.278-29.544V308.18
		c-24.542,5.588-38.469,29.159-85.523,28.922C383.207,336.879,373.109,306.061,342.282,306.061z"/>
	<path fill="#005989" d="M342.758,451.134c-28.964-3.168-45.917,35.098-92.088,34.11c-44.516-0.434-56.369-34.637-85.331-33.146
		c-39.107-4.139-53.764,30.406-99.132,30.524c-42.111,0.109-47.603-16.684-66.216-24.985v54.349h511.986v-58.585
		c-24.174,5.844-38.277,29.01-84.97,28.774C383.72,481.953,373.613,451.134,342.758,451.134z"/>
	<path fill="#FFFFFF" d="M341.386,414.27c-29.711,0.229-38.813,34.024-90.25,33.398c-41.96-0.505-58.309-32.261-88.021-32.032
		c-31.499,0-64.07,30.879-98.948,29.388c-32.615-1.378-47.909-14.372-64.176-22.613v35.228
		c18.613,8.302,24.104,25.095,66.216,24.985c45.368-0.118,60.024-34.663,99.132-30.524c28.962-1.491,40.815,32.712,85.331,33.146
		c46.171,0.987,63.124-37.278,92.088-34.11c30.854,0,40.962,30.819,84.25,31.042c46.692,0.235,60.796-22.931,84.97-28.774v-37.394
		c-22.741,6.575-37.897,29.545-82.278,29.545C382.592,445.553,371.783,414.27,341.386,414.27z"/>
	<path fill="#FFFFFF" d="M341.386,341.338c-29.711,0.227-38.813,34.023-90.25,33.397c-41.96-0.505-58.309-32.261-88.021-32.032
		c-31.499,0-64.07,30.879-98.948,29.389c-32.615-1.379-47.909-14.373-64.176-22.614v35.228
		c18.613,8.302,24.104,25.095,66.216,24.985c45.368-0.118,60.024-34.663,99.132-30.524c28.962-1.491,40.815,32.712,85.331,33.146
		c46.171,0.987,63.124-37.278,92.088-34.11c30.854,0,40.962,30.819,84.25,31.042c46.692,0.235,60.796-22.931,84.97-28.774v-37.393
		c-22.741,6.574-37.897,29.544-82.278,29.544C382.592,372.62,371.783,341.338,341.386,341.338z"/>
	<path fill="#FFFFFF" d="M348.05,269.817c-0.975-0.167-1.97-0.3-2.983-0.398c-1.35-0.133-2.724-0.223-4.154-0.223
		c-9.921,0.076-17.542,3.903-25.21,8.94c-0.39,0.256-0.778,0.515-1.168,0.775c-14.908,10.005-30.445,24.089-63.788,23.682
		c-25.983-0.312-42.136-12.628-57.73-21.895c-0.402-0.239-0.804-0.473-1.205-0.707c-0.708-0.414-1.415-0.82-2.122-1.218
		c-7.732-4.351-15.493-7.682-24.413-8.149c-0.814-0.043-1.635-0.07-2.469-0.063c-0.51,0-1.021,0.03-1.531,0.046
		c-30.995,0.968-63.044,30.809-97.326,29.343c-32.48-1.374-47.766-14.289-63.96-22.535v35.218
		c18.472,8.326,24.044,25.025,65.999,24.916c45.325-0.118,59.968-34.663,99.039-30.524c28.935-1.491,40.777,32.712,85.252,33.146
		c46.127,0.988,63.064-37.277,92.001-34.109c30.826,0,40.925,30.818,84.172,31.041c47.055,0.237,60.981-23.334,85.523-28.922
		v-37.421c-23.074,6.326-38.086,29.72-82.834,29.72C385.963,300.479,373.3,274.162,348.05,269.817z"/>
	<path fill="#FFC84B" d="M248.374,84.239c-8.213-9.011-16.75-18.301-37.077-21.116c-8.353,1.338-12.508,2.813-16.906,4.374
		c-8.479,3.01-17.246,6.122-56.312,8.848c5.844,4.262,19.264,4.832,30.513,4.832c5.116,0,10.463-0.13,15.634-0.257
		c5.107-0.125,9.93-0.243,14.49-0.243c3.577,0,6.572,0.075,9.159,0.229l0.124,0.007l0.106,0.065
		c13.581,8.279,20.639,13.988,24.229,18.31C237.732,93.478,243.07,88.503,248.374,84.239z"/>
	<path fill="#D8AA3F" d="M168.594,82.177c5.128,0,10.481-0.131,15.659-0.257c5.101-0.125,9.918-0.243,14.466-0.243
		c3.5,0,6.437,0.072,8.975,0.22c13.637,8.32,20.541,13.936,23.965,18.132c0.226-0.246,0.453-0.497,0.678-0.741
		c-3.59-4.321-10.648-10.03-24.229-18.31l-0.106-0.065l-0.124-0.007c-2.586-0.154-5.582-0.229-9.159-0.229
		c-4.56,0-9.383,0.118-14.49,0.243c-5.171,0.126-10.518,0.257-15.634,0.257c-11.249,0-24.669-0.57-30.513-4.832
		c39.065-2.727,47.833-5.838,56.312-8.848c4.398-1.561,8.553-3.036,16.906-4.374c20.327,2.815,28.864,12.105,37.077,21.116
		c0.262-0.211,0.524-0.415,0.786-0.622c-8.357-9.17-17.021-18.638-37.8-21.495l-0.073-0.01l-0.073,0.012
		c-8.493,1.355-12.701,2.849-17.156,4.431c-8.505,3.019-17.299,6.141-57.29,8.879l-1.134,0.078l0.823,0.784
		C141.904,81.479,155.759,82.177,168.594,82.177z"/>
	<path fill="#FFC84B" d="M311.167,113.854c-7.337,0.854-13.353,4.342-19.451,8.348c17.384-0.168,23.834-2.896,29.761-8.348H311.167z
		"/>
	<path fill="#D8AA3F" d="M321.477,113.854c-5.927,5.452-12.377,8.18-29.761,8.348c-0.507,0.333-1.015,0.669-1.523,1.008
		c19.597-0.024,26.339-3.218,32.734-9.356H321.477z"/>
	<path fill="#FFC84B" d="M202.609,91.865c-4.462,1.212-5.784,2.626-7.315,4.262c-0.7,0.749-1.424,1.522-2.481,2.335
		c-0.042,0.032-0.087,0.059-0.136,0.079c-1.867,0.797-3.723,1.259-5.518,1.706c-4.103,1.021-7.706,1.918-10.724,6.354
		c3.773-1.62,6.619-1.869,9.142-1.869c0.895,0,1.79,0.033,2.715,0.068c1.434,0.053,2.939,0.108,4.632,0.044c0.008,0,0.017,0,0.024,0
		c0.227,0,0.437,0.123,0.547,0.323c4.429,8.022,8.588,8.754,18.401,9.77c0.179,0.019,0.341,0.113,0.445,0.259
		c14.153,19.91,33.665,21.465,39.321,21.467c16.815-0.439,27.308-7.454,36.565-13.643c7.222-4.828,14.042-9.389,22.867-10.411
		l20.188-0.004c-3.086-5.139-5.776-8.261-12.901-8.581c-4.483-0.245-9.039-0.369-13.545-0.369c-11.647,0-22.688,0.839-32.419,2.439
		c-10.017,5.088-19.213,10.119-26.464,14.215c-1.629,0.92-1.629,0.92-1.785,0.92l-0.023,0
		c-10.373-0.482-17.265-10.118-18.017-11.215c-1.247-1.819-1.116-2.21-1.06-2.377l0.089-0.161c0.65-0.784,1.299-1.552,1.947-2.311
		c-7.925-6.243-17.321-13.303-24.271-13.303L202.609,91.865z M205.895,98.906c0,2.2-1.789,3.989-3.988,3.989
		c-2.2,0-3.989-1.789-3.989-3.989s1.789-3.989,3.989-3.989C204.107,94.917,205.895,96.707,205.895,98.906z"/>
	<path fill="#D8AA3F" d="M272.418,106.094c9.73-1.6,20.771-2.439,32.419-2.439c4.506,0,9.062,0.124,13.545,0.369
		c7.125,0.32,9.815,3.441,12.901,8.581l-20.188,0.004c-8.825,1.022-15.646,5.583-22.867,10.411
		c-9.258,6.189-19.75,13.204-36.565,13.643c-5.656-0.001-25.167-1.557-39.321-21.467c-0.104-0.146-0.266-0.241-0.445-0.259
		c-9.813-1.016-13.972-1.748-18.401-9.77c-0.11-0.2-0.32-0.323-0.547-0.323c-0.008,0-0.016,0-0.024,0
		c-1.693,0.064-3.198,0.009-4.632-0.044c-0.925-0.035-1.82-0.068-2.715-0.068c-2.523,0-5.369,0.249-9.142,1.869
		c3.018-4.436,6.621-5.333,10.724-6.354c1.795-0.447,3.651-0.909,5.518-1.706c0.049-0.021,0.094-0.047,0.136-0.079
		c1.057-0.813,1.781-1.587,2.481-2.335c1.531-1.636,2.853-3.05,7.315-4.262l0.227-0.003c6.95,0,16.345,7.061,24.271,13.303
		c0.273-0.32,0.546-0.632,0.819-0.947c-8.21-6.471-18.005-13.853-25.423-13.601c-0.048,0.001-0.097,0.008-0.144,0.021
		c-4.866,1.31-6.377,2.925-7.977,4.635c-0.652,0.697-1.325,1.417-2.268,2.15c-1.752,0.739-3.533,1.183-5.256,1.611
		c-4.676,1.164-9.093,2.264-12.576,8.716c-0.13,0.241-0.088,0.538,0.103,0.734c0.192,0.196,0.488,0.244,0.731,0.12
		c4.254-2.176,7.258-2.622,10.461-2.622c0.879,0,1.759,0.033,2.668,0.067c1.353,0.05,2.771,0.102,4.343,0.057
		c4.614,8.16,9.208,9.034,18.899,10.044c14.493,20.188,34.407,21.762,40.183,21.762c0.005,0,0.011,0,0.016,0
		c17.182-0.446,27.836-7.569,37.236-13.854c0.425-0.284,0.848-0.567,1.271-0.848c0.509-0.339,1.017-0.675,1.523-1.008
		c6.099-4.006,12.114-7.494,19.451-8.348h10.31h1.45h9.453c0.224,0,0.431-0.12,0.542-0.314s0.11-0.434-0.003-0.627
		c-3.447-5.886-6.318-9.772-14.475-10.138c-4.501-0.246-9.079-0.371-13.607-0.371c-10.219,0-19.979,0.642-28.815,1.875
		C274.811,104.885,273.608,105.49,272.418,106.094z"/>
	<path fill="#FFC84B" d="M201.907,96.547c-1.301,0-2.359,1.058-2.359,2.359s1.058,2.359,2.359,2.359c1.3,0,2.358-1.058,2.358-2.359
		S203.207,96.547,201.907,96.547z"/>
	<path fill="#D8AA3F" d="M197.919,98.906c0,2.2,1.789,3.989,3.989,3.989c2.199,0,3.988-1.789,3.988-3.989s-1.789-3.989-3.988-3.989
		C199.708,94.917,197.919,96.707,197.919,98.906z M201.907,101.265c-1.301,0-2.359-1.058-2.359-2.359s1.058-2.359,2.359-2.359
		c1.3,0,2.358,1.058,2.358,2.359S203.207,101.265,201.907,101.265z"/>
	<path fill="#FFC84B" d="M313.743,77.877c0.022-0.276,0.252-0.479,0.539-0.458l24.151,1.97c0.177,0.015,0.317,0.125,0.395,0.272
		c4.817-1.724,8.635-3.48,11.642-5.237l-32.653-1.415c-0.276-0.012-0.49-0.245-0.479-0.521s0.249-0.507,0.521-0.478l33.133,1.436
		c0.23,0.01,0.409,0.176,0.458,0.39c9.862-6.124,10.149-12.192,9.008-16.732c-6.986,0.5-13.769,0.81-20.331,1.111
		c-40.558,1.857-75.59,3.458-114.057,49.727c0.59,1.613,7.877,11.729,17.994,12.281c0.201-0.108,0.676-0.377,1.398-0.785
		c22.822-12.891,64.837-35.001,91.306-39.181L314.2,78.416C313.926,78.394,313.721,78.152,313.743,77.877z"/>
	<path fill="#D8AA3F" d="M248.374,84.239c-5.305,4.264-10.642,9.239-16.038,15.049c-0.226,0.244-0.452,0.495-0.678,0.741
		c-1.241,1.352-2.486,2.748-3.733,4.189c-0.273,0.315-0.546,0.627-0.819,0.947c-0.648,0.758-1.297,1.527-1.947,2.311l-0.089,0.161
		c-0.056,0.167-0.187,0.558,1.06,2.377c0.752,1.097,7.644,10.732,18.017,11.215l0.023,0c0.155,0,0.155,0,1.785-0.92
		c7.251-4.096,16.448-9.126,26.464-14.215c1.189-0.604,2.393-1.209,3.604-1.813c20.883-10.425,44.653-20.658,61.695-23.174
		c18.934-6.49,26.433-14.326,23.602-24.663l-0.108-0.396l-0.41,0.03c-7.119,0.516-14.033,0.833-20.719,1.139
		c-32.289,1.479-61.098,2.804-90.921,26.401C248.898,83.824,248.636,84.028,248.374,84.239z M338.394,80.388
		c-0.014,0-0.027,0-0.042-0.001l-1.584-0.129c-26.469,4.18-68.483,26.29-91.306,39.181c-0.722,0.408-1.197,0.677-1.398,0.785
		c-10.117-0.553-17.404-10.668-17.994-12.281c38.467-46.269,73.5-47.87,114.057-49.727c6.562-0.301,13.345-0.611,20.331-1.111
		c1.142,4.54,0.854,10.608-9.008,16.732c0.01,0.043,0.022,0.085,0.021,0.131c-0.012,0.269-0.233,0.479-0.5,0.479
		c-0.007,0-0.015,0-0.021,0l-0.479-0.021c-3.007,1.757-6.824,3.514-11.642,5.237c0.042,0.081,0.07,0.169,0.062,0.267
		C338.869,80.19,338.651,80.388,338.394,80.388z"/>
	<path fill="#D9A43E" d="M350.992,73.446L317.86,72.01c-0.272-0.029-0.51,0.202-0.521,0.478s0.202,0.509,0.479,0.521l32.653,1.415
		l0.479,0.021c0.007,0,0.015,0,0.021,0c0.267,0,0.488-0.21,0.5-0.479c0.002-0.046-0.011-0.088-0.021-0.131
		C351.402,73.622,351.223,73.456,350.992,73.446z"/>
	<path fill="#D9A43E" d="M338.891,79.928c0.008-0.098-0.021-0.186-0.062-0.267c-0.077-0.147-0.218-0.257-0.395-0.272l-24.151-1.97
		c-0.287-0.021-0.517,0.182-0.539,0.458c-0.022,0.275,0.183,0.517,0.457,0.539l22.567,1.841l1.584,0.129
		c0.015,0.001,0.028,0.001,0.042,0.001C338.651,80.388,338.869,80.19,338.891,79.928z"/>
</g>
</svg>
