<?xml version="1.0" encoding="utf-8"?>
<!-- Generator: Adobe Illustrator 16.0.0, SVG Export Plug-In . SVG Version: 6.00 Build 0)  -->
<svg version="1.2" baseProfile="tiny"
	 id="svg660" xmlns:cc="http://creativecommons.org/ns#" xmlns:dc="http://purl.org/dc/elements/1.1/" xmlns:rdf="http://www.w3.org/1999/02/22-rdf-syntax-ns#"
	 xmlns="http://www.w3.org/2000/svg" xmlns:xlink="http://www.w3.org/1999/xlink" x="0px" y="0px" width="512px" height="512px"
	 viewBox="0 0 512 512" xml:space="preserve">
<g>
	<polygon fill="#FFFF00" points="511.988,127.994 511.988,0 0,0 190.392,127.994 	"/>
	<polygon fill="#FFFFFF" points="380.783,255.988 511.988,255.988 511.988,127.994 190.392,127.994 	"/>
	<polygon fill="#BE0027" points="381.854,256.707 191.463,383.981 511.988,383.981 511.988,255.988 380.783,255.988 	"/>
	<polygon fill="#3B5AA3" points="191.444,383.994 0,511.973 0,511.987 511.988,511.987 511.988,383.994 	"/>
	<path fill="#239E46" d="M191.463,383.981l190.391-127.274l-1.07-0.719L190.392,127.994L0,0v127.994v127.994v127.994v0.013v127.979
		l191.444-127.979L191.463,383.981z M125.525,323.244l15.228,0.529l9.064-12.238l4.194,14.648l14.453,4.846l-12.645,8.524
		l-0.147,15.228l-11.993-9.385l-14.538,4.576l5.215-14.318L125.525,323.244z M125.78,270.156l15.228,0.529l9.065-12.239
		l4.194,14.649l14.452,4.846l-12.645,8.524l-0.147,15.228l-11.992-9.385l-14.539,4.575l5.216-14.317L125.78,270.156z
		 M125.78,165.521l15.228,0.529l9.065-12.238l4.194,14.649l14.452,4.846l-12.645,8.524l-0.147,15.227l-11.992-9.385l-14.539,4.576
		l5.216-14.317L125.78,165.521z M140.752,218.112l9.064-12.239l4.194,14.649l14.453,4.846l-12.645,8.524l-0.147,15.228
		l-11.993-9.385l-14.538,4.575l5.215-14.317l-8.831-12.411L140.752,218.112z M157.206,141.425L157.206,141.425
		c-46.813,18.057-76.605,63.428-76.306,115.608c0.328,57.588,36.067,96.407,65.334,110.258
		c-54.277,3.074-112.999-48.032-112.804-110C33.345,204.894,72.112,137.108,157.206,141.425z"/>
	<path fill="#FFFFFF" d="M146.235,367.291c-29.267-13.851-65.006-52.67-65.334-110.258c-0.3-52.18,29.492-97.551,76.307-115.608
		h-0.001c-85.095-4.317-123.861,63.468-123.775,115.866C33.236,319.259,91.957,370.365,146.235,367.291z"/>
	<polygon fill="#FFFFFF" points="143.935,187.673 155.927,197.058 156.074,181.831 168.719,173.307 154.267,168.461 
		150.073,153.812 141.007,166.05 125.78,165.521 134.612,177.932 129.396,192.249 	"/>
	<polygon fill="#FFFFFF" points="134.356,229.994 129.141,244.311 143.679,239.736 155.672,249.121 155.82,233.893 168.464,225.369 
		154.011,220.523 149.817,205.874 140.752,218.112 125.525,217.583 	"/>
	<polygon fill="#FFFFFF" points="143.935,292.309 155.927,301.693 156.074,286.466 168.719,277.941 154.267,273.096 
		150.073,258.446 141.007,270.686 125.78,270.156 134.612,282.566 129.396,296.884 	"/>
	<polygon fill="#FFFFFF" points="143.679,345.396 155.672,354.781 155.82,339.554 168.464,331.029 154.011,326.184 149.817,311.535 
		140.752,323.773 125.525,323.244 134.356,335.654 129.141,349.973 	"/>
</g>
</svg>
