<?xml version="1.0" encoding="utf-8"?>
<!-- Generator: Adobe Illustrator 16.0.0, SVG Export Plug-In . SVG Version: 6.00 Build 0)  -->
<svg version="1.2" baseProfile="tiny"
	 id="svg378" xmlns:cc="http://creativecommons.org/ns#" xmlns:dc="http://purl.org/dc/elements/1.1/" xmlns:rdf="http://www.w3.org/1999/02/22-rdf-syntax-ns#"
	 xmlns="http://www.w3.org/2000/svg" xmlns:xlink="http://www.w3.org/1999/xlink" x="0px" y="0px" width="512px" height="512px"
	 viewBox="0 0 512 512" xml:space="preserve">
<g>
	<polygon fill="#FFE900" points="512.004,0.301 512.004,0.238 466.229,0.238 0.002,299.822 0.002,326.854 505.158,0.239 	"/>
	<polygon fill="#FFE900" points="512.004,180.553 18.318,511.532 50.799,511.532 512.004,206.02 	"/>
	<polygon fill="#35A100" points="466.6,0 461.929,0 0.002,0.193 0.002,299.822 466.229,0.238 	"/>
	<polygon fill="#C70000" points="512.004,511.592 512.004,206.02 50.799,511.532 50.363,511.821 	"/>
	<path d="M512.004,0.301l-6.846-0.062L0.002,326.854v185.005l17.864-0.023l0.452-0.303l493.686-330.979V0.301z M138.497,362.517
		l-17.371,41.334l-9.835-42.267l-44.139-1.479l38.054-24.574l-9.912-42.245l33.354,27.075l38.015-24.637l-17.438,41.312
		l33.403,27.021L138.497,362.517z M413.751,183.599l-17.371,41.333l-9.834-42.266l-44.139-1.479l38.053-24.575l-9.911-42.245
		l33.354,27.075l38.016-24.636l-17.438,41.312l33.403,27.021L413.751,183.599z"/>
	<polygon fill="#FFFFFF" points="441.918,116.807 403.903,141.443 370.549,114.369 380.46,156.613 342.407,181.188 386.546,182.667 
		396.38,224.933 413.751,183.599 457.883,185.14 424.48,158.119 	"/>
	<polygon fill="#FFFFFF" points="166.663,295.725 128.649,320.361 95.294,293.286 105.206,335.531 67.153,360.105 111.291,361.584 
		121.126,403.851 138.497,362.517 182.629,364.058 149.226,337.036 	"/>
</g>
</svg>
