<?xml version="1.0" encoding="utf-8"?>
<!-- Generator: Adobe Illustrator 16.0.0, SVG Export Plug-In . SVG Version: 6.00 Build 0)  -->
<svg version="1.2" baseProfile="tiny"
	 id="svg378" xmlns:cc="http://creativecommons.org/ns#" xmlns:dc="http://purl.org/dc/elements/1.1/" xmlns:rdf="http://www.w3.org/1999/02/22-rdf-syntax-ns#"
	 xmlns="http://www.w3.org/2000/svg" xmlns:xlink="http://www.w3.org/1999/xlink" x="0px" y="0px" width="512px" height="512px"
	 viewBox="0 0 512 512" xml:space="preserve">
<g>
	<rect x="0" y="93.035" fill="#FFFFFF" width="512.004" height="21.413"/>
	<rect x="0" y="397.66" fill="#FFFFFF" width="512.004" height="21.419"/>
	<rect x="0" y="0.184" width="512.004" height="0.392"/>
	<rect x="0" y="511.538" width="512.004" height="0.396"/>
	<rect x="0" y="419.079" fill="#3E5698" width="512.004" height="92.459"/>
	<path fill="#C60000" d="M0,397.66h512.004V114.447H0V397.66z M209.902,141.189c65.512,0,118.618,51.438,118.618,114.888
		c0,63.452-53.107,114.888-118.618,114.888c-65.513,0-118.619-51.438-118.619-114.888
		C91.282,192.626,144.39,141.189,209.902,141.189z"/>
	<rect x="0" y="0.576" fill="#3E5698" width="512.004" height="92.459"/>
	<path fill="#FFFFFF" d="M209.902,370.966c65.511,0,118.618-51.437,118.618-114.888c0-63.45-53.106-114.888-118.618-114.888
		S91.282,192.626,91.282,256.078C91.282,319.528,144.389,370.966,209.902,370.966z M189.792,229.666l22.635-66.369l21.162,66.149
		l71.053-0.407l-57.974,41.178l21.272,66.118l-56.994-40.697l-57.904,41.266l22.754-66.33l-57.055-40.619L189.792,229.666z"/>
	<polygon fill="#C40000" points="175.796,270.573 153.042,336.903 210.947,295.638 267.941,336.335 246.668,270.217 
		304.642,229.039 233.589,229.446 212.427,163.297 189.792,229.666 118.741,229.955 	"/>
</g>
</svg>
