<?xml version="1.0" encoding="utf-8"?>
<!-- Generator: Adobe Illustrator 16.0.0, SVG Export Plug-In . SVG Version: 6.00 Build 0)  -->
<svg version="1.2" baseProfile="tiny"
	 id="svg378" xmlns:cc="http://creativecommons.org/ns#" xmlns:dc="http://purl.org/dc/elements/1.1/" xmlns:rdf="http://www.w3.org/1999/02/22-rdf-syntax-ns#"
	 xmlns="http://www.w3.org/2000/svg" xmlns:xlink="http://www.w3.org/1999/xlink" x="0px" y="0px" width="512px" height="512px"
	 viewBox="0 0 512 512" xml:space="preserve">
<g>
	<polygon fill="#FFFFFF" points="11.542,413.325 0,399.791 0,416.418 3.373,420.373 	"/>
	<polygon fill="#FFFFFF" points="512,435.979 512,429.799 508.988,433.39 	"/>
	<polygon fill="#FFFFFF" points="489.537,416.675 512,389.906 512,374.667 482.107,410.29 	"/>
	<path fill="#FFFFFF" d="M512,441.33l-11.947,13.918l-5.562-4.585l-33.434,39.842l-19.715-16.398l33.361-39.756l-7.559-6.231
		l-33.334,39.723l-19.716-16.398l33.262-39.637l-8.152-6.722l-33.232,39.602l-19.716-16.399l33.16-39.516l-6.521-5.375
		l20.696-11.518l33.081-39.421l19.716,16.399l-31.747,37.831l8.014,6.887l31.856-37.962L512,370.16V152.908l-17.082,14.567
		l-34.209-40.116l-8.025,7.215l34.025,39.901l-19.937,17.001l-33.58-39.378l-6.396,5.75l-8.869-23.65l-34.157-40.056l19.937-17.001
		l33.404,39.172l8.169-7.048l-33.364-39.125l19.937-17.001l33.266,39.01l7.586-6.545l-33.229-38.966l19.937-17.001l33.131,38.851
		l3.608-3.113l14.642,16.953l-3.65,3.282L512,91.307V0H0v69.279L34.243,29.67l19.82,17.136L0,109.342v15.315l61.642-71.301
		l19.821,17.136L0,164.721v194.69l31.38,36.799l7.586-6.545L5.736,350.696l19.937-17.001l33.133,38.854l3.609-3.114l14.641,16.953
		l-3.65,3.282l35.27,41.359l-19.936,17.001l-34.824-40.837l-7.453,6.7l34.653,40.637l-19.937,17.001l-34.207-40.114l-8.026,7.217
		l34.024,39.898l-19.937,17.001L0,456.798v54.762h512V441.33z M5.967,174.321l83.66-96.771l19.82,17.135l-83.66,96.771
		L5.967,174.321z M247.776,409.379c-24.546,0.005-47.666-6.153-67.942-17.012c-8.631-4.369-17.171-9.623-25.534-15.828
		c-2.669-2.505-5.452-5.236-8.28-8.201c-2.2,0.128-4.414,0.201-6.646,0.201c-62.137,0.005-112.513-50.361-112.518-112.498
		c0-0.006,0-0.013,0-0.02c-0.006-62.136,50.361-112.512,112.497-112.518c7.102,0,14.048,0.664,20.786,1.922
		c24.349-18.635,54.686-29.699,87.584-29.705c80.226-0.015,145.272,65.7,145.287,146.777c0,0.018,0,0.035,0,0.052
		c0.005,27.35-7.399,52.948-20.284,74.873c-0.012,0.021-0.024,0.042-0.036,0.063c-0.317,0.538-0.633,1.077-0.956,1.61
		c-12.364,20.97-29.377,38.046-48.653,49.024c-5.286,3.246-10.798,6.153-16.498,8.708c-11.418,5.199-23.672,8.866-36.438,10.812
		c-0.134,0.021-0.269,0.043-0.402,0.063c-0.379,0.057-0.759,0.107-1.138,0.161C261.802,408.855,254.85,409.378,247.776,409.379z"/>
	<polygon fill="#FFFFFF" points="480.199,109.835 512,147.127 512,131.686 487.653,103.134 	"/>
	<path fill="#FFFFFF" d="M102.488,262.602c0-0.018,0-0.034,0-0.052c-0.001-7.067,0.502-14.014,1.457-20.814
		c0.197-1.671,0.41-3.353,0.656-5.056v0.001c0.019,0.153,0.039,0.307,0.058,0.46c6.434-37.302,26.8-69.763,55.482-91.715
		c-6.737-1.258-13.684-1.922-20.786-1.922c-62.136,0.005-112.503,50.381-112.497,112.518c0,0.006,0,0.013,0,0.02
		c0.005,62.137,50.381,112.503,112.518,112.498c2.232,0,4.446-0.073,6.646-0.201c-15.91-16.681-33.273-40.826-40.214-74.472
		C103.641,283.791,102.49,273.333,102.488,262.602z"/>
	<path fill="#C70000" d="M270.146,407.642c-0.134,0.021-0.268,0.044-0.402,0.063C269.877,407.685,270.012,407.663,270.146,407.642z"
		/>
	<path fill="#C70000" d="M306.583,396.829c5.7-2.555,11.212-5.462,16.498-8.708c-1.153,0.656-2.312,1.296-3.481,1.908
		C315.403,392.524,311.056,394.793,306.583,396.829z"/>
	<path fill="#C70000" d="M179.834,392.367c20.276,10.858,43.396,17.017,67.942,17.012c7.074-0.001,14.026-0.523,20.83-1.513
		C240.279,411.864,209.518,407.393,179.834,392.367z"/>
	<path fill="#C70000" d="M372.691,337.486c-0.312,0.543-0.639,1.072-0.956,1.61C372.058,338.563,372.373,338.024,372.691,337.486z"
		/>
	<path fill="#C70000" d="M102.488,262.602c0.002,10.731,1.154,21.189,3.318,31.265c-3.164-15.337-4.155-32.653-1.862-52.131
		c-0.954,6.8-1.458,13.748-1.457,20.814C102.488,262.567,102.488,262.584,102.488,262.602z"/>
	<path fill="#C70000" d="M104.657,237.141c4.591,36.855,11.475,77.732,68.142,81.994c21.328,1.277,62.817-5.073,77.061-63.19
		c18.688-55.829,74.976-71.88,113.28-41.613c21.718,14.166,27.727,36.666,29.283,53.557c-0.815,25.421-8.087,49.242-19.696,69.534
		c12.885-21.925,20.289-47.523,20.284-74.873c0-0.017,0-0.034,0-0.052c-0.015-81.077-65.062-146.792-145.287-146.777
		c-32.898,0.006-63.235,11.07-87.584,29.705C131.457,167.377,111.092,199.839,104.657,237.141z"/>
	<polygon points="61.642,53.356 0,124.658 0,164.721 81.463,70.492 	"/>
	<rect x="-6.253" y="121.403" transform="matrix(0.654 -0.7565 0.7565 0.654 -81.784 90.1927)" width="127.92" height="26.2"/>
	<polygon points="34.243,29.67 0,69.279 0,109.342 54.064,46.806 	"/>
	<polygon points="459.412,29.638 439.476,46.639 472.704,85.605 492.543,68.489 	"/>
	<polygon points="487.653,103.134 512,131.686 512,91.307 507.143,85.611 	"/>
	<polygon points="417.55,133.19 417.55,133.189 417.55,133.189 437.112,116.313 403.707,77.141 383.771,94.142 417.928,134.198 
		417.55,133.189 	"/>
	<polygon points="466.773,191.477 486.709,174.476 452.684,134.574 433.193,152.098 	"/>
	<polygon fill="#FFFFFF" points="487.653,103.134 507.143,85.611 510.793,82.329 496.152,65.376 492.543,68.489 472.704,85.605 
		465.118,92.15 480.199,109.835 	"/>
	<polygon fill="#FFFFFF" points="437.112,116.313 417.55,133.189 417.928,134.198 426.797,157.848 433.193,152.098 452.684,134.574 
		460.709,127.359 445.281,109.266 	"/>
	<polygon fill="#FFFFFF" points="417.55,133.19 417.55,133.189 417.55,133.189 	"/>
	<polygon points="414.096,451.443 433.812,467.842 467.146,428.119 447.358,411.807 	"/>
	<polygon points="462.656,393.575 482.107,410.29 512,374.667 512,370.16 494.513,355.613 	"/>
	<polygon points="465.118,92.15 431.853,53.14 411.916,70.141 445.281,109.266 460.709,127.359 494.918,167.475 512,152.908 
		512,147.127 480.199,109.835 	"/>
	<polygon points="441.343,474.106 461.058,490.505 494.491,450.663 474.704,434.351 	"/>
	<polygon points="508.988,433.39 512,429.799 512,389.906 489.537,416.675 	"/>
	<polygon points="454.643,386.688 486.39,348.857 466.674,332.458 433.593,371.879 435.909,370.59 	"/>
	<polygon points="386.257,428.287 405.973,444.687 439.205,405.085 419.417,388.771 	"/>
	<path fill="#3D5897" d="M270.146,407.642c12.766-1.946,25.02-5.613,36.438-10.812c4.473-2.036,8.819-4.305,13.017-6.8
		c1.169-0.612,2.328-1.252,3.481-1.908c19.276-10.979,36.289-28.055,48.653-49.024c0.317-0.538,0.645-1.067,0.956-1.61
		c0.012-0.021,0.024-0.042,0.036-0.063c11.609-20.292,18.881-44.113,19.696-69.534c-1.557-16.891-7.565-39.391-29.283-53.557
		c-38.305-30.267-94.592-14.216-113.28,41.613c-14.243,58.117-55.732,64.467-77.061,63.19
		c-56.667-4.262-63.551-45.139-68.142-81.994c-0.019-0.153-0.039-0.307-0.058-0.46v-0.001c-0.246,1.703-0.459,3.385-0.656,5.056
		c-2.293,19.478-1.302,36.794,1.862,52.131c6.941,33.646,24.304,57.791,40.214,74.472c2.828,2.965,5.61,5.696,8.28,8.201
		c8.362,6.205,16.903,11.459,25.534,15.828c29.685,15.025,60.445,19.497,88.772,15.499c0.379-0.054,0.759-0.104,1.138-0.161
		C269.878,407.686,270.012,407.662,270.146,407.642z"/>
	<polygon fill="#FFFFFF" points="489.537,416.675 482.107,410.29 462.656,393.575 454.643,386.688 435.909,370.59 433.593,371.879 
		412.897,383.396 419.417,388.771 439.205,405.085 447.358,411.807 467.146,428.119 474.704,434.351 494.491,450.663 
		500.053,455.248 512,441.33 512,435.979 508.988,433.39 	"/>
	<polygon points="31.381,396.21 0,359.411 0,399.791 11.542,413.325 	"/>
	<polygon points="61.178,471.532 81.115,454.531 46.462,413.895 26.971,431.418 	"/>
	<polygon fill="#FFFFFF" points="77.055,386.389 62.414,369.436 58.805,372.55 73.405,389.671 	"/>
	<polygon fill="#FFFFFF" points="3.373,420.373 18.945,438.635 26.971,431.418 46.462,413.895 53.914,407.194 38.967,389.665 
		31.381,396.21 11.542,413.325 	"/>
	<polygon points="88.739,448.031 108.674,431.03 73.405,389.671 58.805,372.55 25.672,333.695 5.736,350.696 38.967,389.665 
		53.914,407.194 	"/>
	<polygon points="52.969,478.533 18.945,438.635 3.373,420.373 0,416.418 0,456.798 33.032,495.534 	"/>
</g>
</svg>
