<?xml version="1.0" encoding="utf-8"?>
<!-- Generator: Adobe Illustrator 16.0.0, SVG Export Plug-In . SVG Version: 6.00 Build 0)  -->
<svg version="1.2" baseProfile="tiny"
	 id="svg1" xmlns:cc="http://creativecommons.org/ns#" xmlns:dc="http://purl.org/dc/elements/1.1/" xmlns:rdf="http://www.w3.org/1999/02/22-rdf-syntax-ns#"
	 xmlns="http://www.w3.org/2000/svg" xmlns:xlink="http://www.w3.org/1999/xlink" x="0px" y="0px" width="512px" height="512px"
	 viewBox="0 0 512 512" xml:space="preserve">
<g>
	<path fill="#000066" d="M402.531,424.237c0,0.685-11.607,10.438-20.107,15.915c-8.499,5.476-29.47,16.958-30.886,17.3
		s23.514-4.11,31.163-6.505c7.649-2.399,26.63-15.069,27.764-15.069C411.597,435.878,403.948,426.29,402.531,424.237
		L402.531,424.237z"/>
	<path fill="#000066" d="M511.997,256h-57.241h-22.652c-0.11,25.622-1.004,89.826-0.1,98.023
		c1.134,10.271-3.409,20.221-3.976,20.221s3.966,2.054,7.933,2.054c3.968,0,9.259,7.459,15.865,11.986
		c6.956,5.106,13.031,6.505,16.998,9.929c3.966,3.424,2.267,9.588,1.699,13.012c-0.514,3.107-3.586,11.823-5.423,14.445
		c1.464-1.399,4.508-4.196,5.989-5.541c4.25-6.847,5.1-10.616,7.933-11.986s5.666-1.712,10.766-0.342
		c5.1,1.371,5.666,6.164,5.1,10.275c-0.566,4.106-6.8,28.762-9.066,33.556c-2.266,4.794-13.031,9.588-20.397,11.645
		c-7.365,2.054-28.33-4.11-28.33-4.793c0-0.688-38.238,32.298-88.956,32.186c-65.152-0.146-96.888-32.873-97.454-33.556
		c-0.567-0.688-7.366,6.16-22.381,5.818c-7.933,0.683-25.78-6.506-27.479-11.3c-1.7-4.794-7.933-26.709-8.499-28.079
		c-0.566-1.371-1.133-8.218,0-12.329c1.133-4.106,11.093-4.927,16.147-1.024c5.144,3.975,7.975,14.782,15.581,16.094
		c2.309,0.398-5.666-8.905-7.933-12.328c-2.266-3.425-0.283-7.535,0.283-12.329c0.567-4.794,22.381-15.405,28.613-21.569
		s13.599-3.77,13.599-3.77s-2.833-18.492-3.966-26.023c-0.903-6.001,0.351-68.912,0.899-94.273H0v256h512V256H511.997z"/>
	<path fill="#000066" d="M398.573,85.333h113.425v17.066v51.2v17.066H409.662c-0.688,0.631-2.354,1.81-4.541,3.275l106.876,53.438
		v9.539v19.081V256H512V0h-0.003v28.621L398.573,85.333z"/>
	<path fill="#000066" d="M403.664,246.176c0,1.37,27.765-0.685,28.331-0.685c0.114,0,0.137,4.018,0.108,10.509h22.652
		l-50.621-25.311C405.554,236.786,403.664,244.922,403.664,246.176z"/>
	<polygon fill="#000066" points="0,28.622 0,85.333 113.423,85.333 	"/>
	<polygon fill="#000066" points="57.241,0.001 213.332,78.046 213.332,0 0,0 0.002,0.001 	"/>
	<path fill="#000066" d="M302.243,187.961c2.268,0.685,4.533-1.37,5.666-2.055c0.668-0.416-4.768-4.607-9.244-7.91v6.751
		C300.171,186.321,301.403,187.707,302.243,187.961z"/>
	<polygon fill="#000066" points="255.549,255.999 230.399,255.999 213.332,255.999 213.332,177.954 57.241,255.999 38.161,255.999 
		0,255.999 0,256 255.549,256 	"/>
	<polygon fill="#000066" points="0,170.666 0,227.378 113.425,170.666 	"/>
	<polygon fill="#000066" points="454.756,0 298.665,0 298.665,78.045 	"/>
	<path fill="#FFFFFF" d="M511.997,236.918v-9.539l-106.876-53.438c-2.354,1.577-5.304,3.481-8.291,5.394L511.997,236.918z"/>
	<polygon fill="#FFFFFF" points="208.827,170.666 38.161,255.999 57.241,255.999 213.332,177.954 213.332,170.666 	"/>
	<polygon fill="#FFFFFF" points="132.505,85.333 0,19.082 0,28.622 113.423,85.333 	"/>
	<polygon fill="#FFFFFF" points="398.573,85.333 511.997,28.621 511.997,0 341.332,85.333 	"/>
	<polygon fill="#FFFFFF" points="0.002,0.001 170.666,85.333 213.332,85.333 213.332,78.046 57.241,0.001 	"/>
	<path fill="#FFFFFF" d="M391.821,195.91c2.259,1.905,4.381,3.638,5.611,4.381c3.399,2.055,11.332,1.37,11.898,6.849
		c0.567,5.479-11.898,8.903-14.731,10.273c-2.833,1.369,6.8,5.479,9.065,11.643c0.191,0.521,0.34,1.072,0.471,1.634L454.756,256
		h57.241v-0.001L391.821,195.91z"/>
	<polygon fill="#FFFFFF" points="298.665,85.333 303.171,85.333 473.837,0 454.756,0 298.665,78.045 	"/>
	<polygon fill="#FFFFFF" points="113.425,170.666 0,227.378 0,255.999 170.666,170.666 	"/>
	<path fill="#FFFFFF" d="M298.665,184.748v-6.751c-3.007-2.218-5.581-4.035-5.581-4.035l1.804-5.569c0,0-4.809-9.443-5.009-9.443
		s10.417-0.484,10.817-0.484c0.182,0-0.863-2.321-2.063-4.866h-17.034v28.615c1.958-0.717,4.415-1.698,7.613-2.471
		C292.776,178.882,296.114,182.083,298.665,184.748z"/>
	<path fill="#FFFFFF" d="M391.766,168.788c3.967-2.055,15.865,1.37,18.132,1.37c0.223,0,0.117,0.185-0.235,0.508h102.335V153.6
		H405.086c0.101,0.041,0.195,0.081,0.278,0.121C408.198,155.091,391.766,165.364,391.766,168.788z"/>
	<path fill="#FFFFFF" d="M287.513,237.271c0-3.424,7.365-8.903,7.365-8.903s-5.1-6.848-6.232-10.958s3.399-8.903,2.833-10.958
		c-0.441-1.602-5.701-2.369-9.88-2.63v40.591l7.047-0.293C288.646,244.12,287.513,240.695,287.513,237.271z"/>
	<polygon fill="#FFFFFF" points="281.599,102.399 511.997,102.399 511.997,85.333 398.573,85.333 341.332,85.333 303.171,85.333 
		298.665,85.333 298.665,78.045 298.665,0 281.599,0 	"/>
	<polygon fill="#FFFFFF" points="230.399,102.399 230.399,0 213.332,0 213.332,78.046 213.332,85.333 170.666,85.333 
		132.505,85.333 113.423,85.333 0,85.333 0,102.399 	"/>
	<polygon fill="#FFFFFF" points="170.666,170.666 208.827,170.666 213.332,170.666 213.332,177.954 213.332,255.999 
		230.399,255.999 230.399,153.6 0,153.6 0,170.666 113.425,170.666 	"/>
	<path fill="#CC0000" d="M230.399,153.6v102.399h25.15c0.14-6.48,0.234-10.51,0.234-10.51l25.816-1.076v-40.591
		c-1.18-0.074-2.278-0.109-3.152-0.109c-3.966,0-4.533-6.849-4.533-6.849s-1.699,3.424-2.833,3.424
		c-1.133,0-1.699-4.109-1.699-9.588c0-5.479,6.232-7.533,8.499-7.533c0.987,0,2.208-0.4,3.719-0.953V153.6h17.034
		c-1.458-3.091-3.145-6.514-3.145-6.514l14.825,5.085c0,0-0.801-5.327-0.801-5.569s4.808-2.906,4.808-2.906
		s-5.609-12.348-5.81-12.591c-0.201-0.242,22.035,12.833,22.235,12.591s4.407-0.727,4.607-0.727s4.607-16.222,4.607-16.465
		c0-0.242,6.21,8.475,6.41,8.717c0.201,0.242,5.81-4.116,6.611-4.116c0.801,0,1.603,3.39,1.388,3.439c0,1.37,5.1,0,5.1,0
		l2.833,3.424l6.232-4.109l2.833,7.534c0,0,5.1-2.739,6.232-2.739c1.134,0,4.533,4.794,4.533,4.794s14.165-2.055,14.731-2.055
		s-0.566,8.218-3.967,8.903c-3.299,0.665,8.877,1.975,12.188,3.303h106.911v-51.2H281.599V0h-51.2v102.399H0v51.2H230.399z"/>
	<polygon fill="#CC0000" points="170.666,85.333 0.002,0.001 0,0 0,0.001 0,19.082 132.505,85.333 	"/>
	<path fill="#CC0000" d="M382.7,188.649c0.723,0,5.136,3.902,9.12,7.261l120.177,60.089v-19.081L396.83,179.335
		C389.572,183.98,382.131,188.649,382.7,188.649z"/>
	<polygon fill="#CC0000" points="208.827,170.666 170.666,170.666 0,255.999 38.161,255.999 	"/>
	<polygon fill="#CC0000" points="341.332,85.333 511.997,0 473.837,0 303.171,85.333 	"/>
	<path fill="#FFFFFF" d="M257.785,410.945c-1.421-1.965-3.088-3.534-4.701-3.142c-2.247,0.547-3.081,5.534-3.512,9.444
		c0.497,0.586,1.009,1.178,1.538,1.776C253.699,416.563,255.922,413.729,257.785,410.945z"/>
	<path fill="#FFFFFF" d="M401.94,416.358c-5.966,6.92-12.568,13.186-19.403,18.628c-0.124,0.102-0.299,0.24-0.512,0.406
		c-4.499,3.55-9.092,6.74-13.666,9.523c-8.647,5.512-19.152,11.214-25.463,11.222c-0.005,0.001-0.009,0.003-0.014,0.004
		c-0.005-0.001-0.009-0.003-0.013-0.004c-6.557-0.007-17.688-6.162-26.511-11.864c-12.186-7.576-24.449-18.015-34.612-30.387
		c-1.792,4.287-5.904,13.191-12.338,21.932c17.222,12.888,41.684,24.307,73.729,25.106c32.086,0.801,55.458-11.21,71.544-25.302
		C410.407,431.418,405.297,422.709,401.94,416.358z M410.464,435.878c-1.134,0-20.114,12.67-27.764,15.069
		c-7.649,2.395-32.579,6.847-31.163,6.505s22.387-11.824,30.886-17.3c8.5-5.478,20.107-15.23,20.107-15.915h0.001
		C403.948,426.29,411.597,435.878,410.464,435.878z"/>
	<path fill="#FFFFFF" d="M433.771,413.896c-1.005-2.104-2.812-4.998-5.691-5.466c-1.52-0.247-2.588,0.77-3.33,2.091
		c1.806,2.588,3.838,5.16,6.081,7.537C431.879,416.644,432.858,415.253,433.771,413.896z"/>
	<path fill="#FFFFFF" d="M431.995,245.491c-0.566,0-28.331,2.055-28.331,0.685c0-1.254,1.89-9.391,0.471-15.487
		c-0.131-0.562-0.279-1.114-0.471-1.634c-2.266-6.164-11.898-10.273-9.065-11.643c2.833-1.37,15.299-4.794,14.731-10.273
		c-0.566-5.479-8.499-4.794-11.898-6.849c-1.23-0.743-3.353-2.476-5.611-4.381c-3.984-3.359-8.397-7.261-9.12-7.261
		c-0.569,0,6.871-4.668,14.13-9.314c2.987-1.913,5.937-3.816,8.291-5.394c2.188-1.466,3.853-2.645,4.541-3.275
		c0.353-0.323,0.458-0.508,0.235-0.508c-2.267,0-14.165-3.424-18.132-1.37c0-3.424,16.432-13.697,13.599-15.067
		c-0.083-0.041-0.178-0.081-0.278-0.121c-3.311-1.329-15.486-2.638-12.188-3.303c3.4-0.685,4.533-8.903,3.967-8.903
		s-14.731,2.055-14.731,2.055s-3.399-4.794-4.533-4.794c-1.133,0-6.232,2.739-6.232,2.739l-2.833-7.534l-6.232,4.109l-2.833-3.424
		c0,0-5.1,1.37-5.1,0c0.215-0.049-0.587-3.439-1.388-3.439c-0.802,0-6.41,4.358-6.611,4.116c-0.2-0.242-6.41-8.958-6.41-8.717
		c0,0.243-4.407,16.465-4.607,16.465s-4.407,0.484-4.607,0.727s-22.437-12.833-22.235-12.591c0.2,0.243,5.81,12.591,5.81,12.591
		s-4.808,2.664-4.808,2.906s0.801,5.569,0.801,5.569l-14.825-5.085c0,0,1.687,3.422,3.145,6.514c1.2,2.545,2.245,4.866,2.063,4.866
		c-0.4,0-11.018,0.484-10.817,0.484s5.009,9.443,5.009,9.443l-1.804,5.569c0,0,2.574,1.817,5.581,4.035
		c4.477,3.303,9.912,7.494,9.244,7.91c-1.133,0.685-3.398,2.739-5.666,2.055c-0.841-0.254-2.072-1.641-3.578-3.213
		c-2.552-2.666-5.89-5.866-9.453-5.005c-3.198,0.773-5.655,1.754-7.613,2.471c-1.511,0.553-2.731,0.953-3.719,0.953
		c-2.267,0-8.499,2.054-8.499,7.533c0,5.479,0.566,9.588,1.699,9.588c1.134,0,2.833-3.424,2.833-3.424s0.567,6.849,4.533,6.849
		c0.874,0,1.973,0.036,3.152,0.109c4.179,0.261,9.438,1.028,9.88,2.63c0.566,2.054-3.966,6.848-2.833,10.958
		s6.232,10.958,6.232,10.958s-7.365,5.479-7.365,8.903s1.133,6.849,1.133,6.849l-7.047,0.293l-25.816,1.076
		c0,0-0.094,4.029-0.234,10.51c0,0,0,0,0,0.001c-0.548,25.361-1.802,88.272-0.899,94.273c1.133,7.531,3.966,26.023,3.966,26.023
		s-7.366-2.395-13.599,3.77s-28.046,16.775-28.613,21.569c-0.566,4.794-2.549,8.904-0.283,12.329
		c2.267,3.423,10.241,12.727,7.933,12.328c-7.606-1.312-10.438-12.119-15.581-16.094c-5.055-3.902-15.015-3.082-16.147,1.024
		c-1.133,4.111-0.566,10.958,0,12.329c0.566,1.37,6.799,23.285,8.499,28.079c1.699,4.794,19.547,11.982,27.479,11.3
		c15.015,0.342,21.813-6.506,22.381-5.818c0.566,0.683,32.302,33.41,97.454,33.556c50.718,0.112,88.956-32.873,88.956-32.186
		c0,0.683,20.965,6.847,28.33,4.793c7.366-2.057,18.132-6.851,20.397-11.645c2.267-4.794,8.5-29.449,9.066-33.556
		c0.566-4.111,0-8.904-5.1-10.275c-5.1-1.37-7.933-1.028-10.766,0.342s-3.683,5.14-7.933,11.986
		c-1.481,1.345-4.525,4.142-5.989,5.541c1.837-2.622,4.909-11.338,5.423-14.445c0.567-3.424,2.267-9.588-1.699-13.012
		c-3.967-3.424-10.042-4.822-16.998-9.929c-6.606-4.527-11.897-11.986-15.865-11.986c-3.967,0-8.499-2.054-7.933-2.054
		s5.109-9.949,3.976-20.221c-0.904-8.197-0.011-72.401,0.1-98.023C432.132,249.509,432.11,245.491,431.995,245.491z
		 M428.344,356.402h-0.078c-0.315,7.188-1.655,14.232-3.821,21.048l0.217-0.009l-0.341,0.84c1.077-0.251,2.13-0.393,3.113-0.342
		c5.604,0.286,9.051,2.673,12.066,5.24c-0.799-0.889-1.395-1.389-1.395-1.389s25.568,13.338,29.22,24.896
		c1.117,3.532-2.806,12.464-11.126,23.135c11.33-0.014,15.701-7.308,17.586-10.467c3.348-6.114,6.822-10.974,9.495-10.602
		c6.78,0.943,4.521,10.687,3.875,13.203c-0.646,2.514-7.427,25.147-7.427,25.147s0.028-0.498-0.057-1.221
		c-0.189,0.386-0.385,0.693-0.584,0.907c-3.229,3.458-5.812,11.003-23.891,11.316c-7.334,0.128-14.402-2.643-20.58-6.314
		c-22.365,18.504-55.27,35.356-96.048,34.915c-38.84-0.42-67.885-17.522-87.82-36.008c-8.858,4.346-18.524,6.867-25.429,7.397
		c-12.269,0.944-20.662-8.173-20.985-8.173c-0.022-0.02-0.042-0.043-0.064-0.062c0.041,0.148,0.064,0.281,0.064,0.396
		c0,0.29-0.145-0.012-0.396-0.738c-1.363-1.561-1.882-4.212-2.037-6.674c-1.779-6.032-4.14-14.125-5.675-18.111
		c-2.739-7.113-2.851-11.818,1.716-13.598c4.565-1.777,6.392-3.556,11.871,7.113c1.176,2.291,2.31,4.704,3.366,7.083
		c4.072,2.278,9.611,5.047,12.463,5.417c2.554,0.331,3.762-0.038,6.085-1.151c-9.508-12.627-14.29-22.846-14.605-24.688
		c-0.914-5.332,21.891-17.769,22.827-17.781c0-0.001,0-0.001,0-0.001h0.003c0,0-0.002,0.001-0.002,0.001
		c0.206,0.2,0.334,0.427,0.414,0.675c2.912-2.937,7.364-9.556,13.366-9.861c2.992-0.154,6.056,1.114,8.415,2.454l-1.047-2.624h0.321
		c-2.227-6.915-3.602-14.068-3.921-21.369h-0.083v-21.373h0.003v-84.184l-0.003-1.31l0.001-0.001h131.976
		c-2.106-1.955-4.723-4.61-5.521-6.403c-0.749-1.682-0.698-6.056-0.487-9.768c-0.252-0.613-0.605-1.359-1.117-1.854
		c-0.83-0.803-2.757-6.749-3.394-8.766c-4.044,1.117-9.909,2.301-15.792,3.041c0.518,1.916,1.22,4.495,2.16,7.904
		c2.604,9.443,5.81,11.138,5.81,11.138s-3.806-0.242-7.012,0c-3.205,0.242-10.617-1.695-13.822-4.116
		c-2.135-1.612-6.044-9.771-8.419-15.044c-2.739-0.363-5.333-0.844-7.828-1.529c-2.135,1.002-5.012,2.219-8.232,3.307
		c0.419,1.351,1.008,3.089,1.843,5.276c2.404,6.295,6.61,9.201,7.012,9.443c0.4,0.242-3.606,3.147-13.422,3.632
		c-8.188,0.404-14.002-11.653-15.823-16.228c-8.32-2.33-11.222-9.676-11.222-12.344c0-3.148,3.406-7.022,3.807-8.475
		c0.254-0.922,0.186-2.036,0.102-2.729l-0.701,0.307v0h-0.002l0.002,0c-0.003-0.009-1.205-4.116-4.407-4.358
		c-3.205-0.242-9.015,0.484-11.018-1.453s-2.604-6.538-3.605-6.295c-1.002,0.242-3.606,0-3.807,0s-1.202-3.874,1.603-5.811
		s5.209-0.242,6.811-1.695c1.603-1.453,4.007-2.421,7.212-2.663s8.414,4.843,10.817,6.053c2.404,1.21,7.612,2.663,9.615,1.453
		c0.53-0.321,1.718-0.934,3.236-1.661c0.49-0.867,1.36-1.804,3.07-2.802c0.113-0.066,0.237-0.122,0.355-0.183
		c-2.461-2.126-6.823-6.466-8.478-7.716c-1.969-1.488-9.713-7.111-11.708-8.559c-0.296-0.132-0.474-0.249-0.474-0.344
		c0,0,0.174,0.125,0.474,0.344c1.836,0.818,8.734,2.291,13.125,3.765c2.762,0.927,6.431,3.66,9.221,5.973
		c-0.848-1.201-1.835-2.427-2.988-3.575c-4.815-4.794-20.397-14.382-21.247-14.382c0.247,0,14.336,3.137,22.614,6.442
		c-4.81-6.416-17.93-17.252-19.604-18.624c-0.099-0.057-0.162-0.106-0.179-0.146c0,0,0.063,0.051,0.179,0.146
		c1.585,0.91,13.301,3.962,20.502,9.442c0.53,0.404,1.104,0.879,1.705,1.403c-2.648-5.936-7.087-14.189-7.087-14.189
		c0.283,0.685,7.933,5.136,14.165,12.67c1.848,2.233,3.645,5.16,5.26,8.171c-0.636-2.458-1.364-5.069-2.146-7.487
		c-2.55-7.875-13.032-19.86-13.315-20.888c0.566,0.685,7.649,4.452,13.315,9.93c1.392,1.346,2.988,3.582,4.605,6.187
		c2.481-1.19,5.305-2.503,5.305-2.503s-7.091-2.856-9.175-3.32c-0.274,0.014-0.44-0.004-0.44-0.07c0.098,0,0.256,0.029,0.44,0.07
		c1.745-0.088,8.299-1.588,10.377-2.007c2.404-0.484,2.003-11.138,2.003-11.138s1.603,9.686,2.004,9.686
		c0.4,0,6.811-9.686,7.612-10.17c0.801-0.484-0.802,7.264-0.802,7.264l9.215-5.327c0,0-8.569,11.708-9.896,12.975
		c1.191-0.847,8.439-5.711,9.496-5.711c1.202,0-4.407,6.295-4.407,6.295s0.104,0.06,0.267,0.152
		c4.523-5.407,9.86-11.668,11.114-13.498c0.121-0.334,0.208-0.528,0.246-0.528c0.08,0-0.013,0.188-0.246,0.528
		c-0.741,2.051-2.822,9.571-3.632,12.506c1.379-1.416,2.703-2.685,3.879-3.674c5.43-4.566,9.864-4.615,11.031-5.099
		c0.169-0.215,0.275-0.35,0.301-0.38c0.047,0.171-0.067,0.284-0.301,0.38c-1.707,2.173-10.077,12.94-11.882,16.056
		c-0.73,1.261-1.999,4.104-3.311,7.19c3.414-3.271,7.15-6.631,10.394-9.244c7.396-5.959,19.291-10.88,21.696-12.509
		c0.17-0.202,0.311-0.376,0.4-0.503c0.11,0.089-0.042,0.26-0.4,0.503c-3.043,3.613-18.254,18.639-22.547,24.152
		c-2.147,2.758-4.931,6.515-7.266,9.706c4.915-4.413,10.771-9.354,15.48-12.444c9.916-6.506,18.131-9.246,18.981-9.931
		c-0.498,0.301-13.667,13.277-20.513,20.144c9.229-1.799,21.363-3.364,21.363-3.364c0.566,0.342-10.765,6.849-17.281,9.588
		c-5.121,2.153-9.88,7.044-11.963,9.377c3.218,0.439,6.619,1.116,8.541,2.202c4.391,2.483,10.907,7.961,10.694,8.989
		c-0.034,0.163-0.202,0.399-0.45,0.672c3.063,1.8,7.412,3.836,7.412,3.836s-0.229,0.271-0.627,0.732
		c0.074,0,0.152-0.011,0.225-0.005c3.205,0.242,7.612-1.453,7.612-1.453s-5.208,5.811-8.413,7.99
		c-1.706,1.16-3.634,0.534-5.13-0.303c-0.717,0.737-1.461,1.483-2.215,2.213c2.774,3.58,7.836,10.24,9.548,13.344
		c2.37,4.297,0.848,9.761,0.805,9.913c0.155,1.408,0.236,2.88,0.198,4.373c-0.078,3.033-1.419,5.054-3.017,6.403h30.463v0.005h0.002
		v-0.004v0.004v103.298c0,0.055-0.002,0.109-0.002,0.164V356.402z"/>
	<path fill="#FFFFFF" d="M341.639,184.104c0.112,0.02,0.19,0.046,0.224,0.08c0.063,0.065,0.113,0.163,0.152,0.284
		c0.312,0.009,0.596,0.021,0.861,0.036c-0.201-0.333-0.358-0.699-0.488-1.08C342.16,183.676,341.913,183.908,341.639,184.104z"/>
	<path fill="#FFFFFF" d="M357.532,185.79c0.009-0.009,0.02-0.02,0.029-0.029c-0.08-0.168-0.156-0.339-0.223-0.516
		c-0.19,0.109-0.389,0.201-0.592,0.285C357.022,185.616,357.283,185.703,357.532,185.79z"/>
	<path fill="#FFFFFF" d="M351.031,184.168c0.031,0.005,0.059,0.007,0.09,0.013c-0.021-0.023-0.04-0.048-0.061-0.072
		C351.05,184.128,351.04,184.148,351.031,184.168z"/>
	<path fill="#FFFFFF" d="M364.737,189.748L364.737,189.748c0.012,0.007,0.033,0.02,0.046,0.027c0.067,0.022,0.216,0.045,0.429,0.07
		c-0.52-0.215-1.021-0.426-1.486-0.624c-0.021,0.003-0.041,0.008-0.062,0.01c0.36,0.188,0.789,0.402,1.28,0.64
		c-0.058-0.035-0.115-0.07-0.161-0.097C364.754,189.766,364.737,189.757,364.737,189.748z"/>
	<path fill="#FFFFFF" d="M321.795,185.562c0.204-0.029,0.407-0.058,0.609-0.081c-0.054-0.105-0.113-0.219-0.17-0.329
		C322.093,185.284,321.947,185.42,321.795,185.562z"/>
	<path fill="#FFFFFF" d="M349.99,177.52c0.089,0.084,0.188,0.156,0.271,0.248c0.146-0.298,0.315-0.579,0.507-0.842
		C350.53,177.141,350.27,177.339,349.99,177.52z"/>
	<path fill="#FFFFFF" d="M352.878,155.392c-0.087,0,0.122,0.334,0.495,0.844c0.194-0.24,0.396-0.487,0.604-0.74
		C353.353,155.432,352.945,155.392,352.878,155.392z"/>
	<path fill="#FFFFFF" d="M343.663,157.813c-0.043,0-0.146,0.078-0.28,0.197c0.221,0.061,0.433,0.134,0.637,0.223
		C343.841,157.97,343.715,157.813,343.663,157.813z"/>
	<path fill="#FFFFFF" d="M342.307,155.453c-0.796,0.164-3.838,0.634-6.506,1.081c0.699,1.164,1.396,2.383,2.08,3.617
		C339.553,158.046,341.64,155.825,342.307,155.453z"/>
	<path fill="#FFFFFF" d="M355.212,161.089c-0.021,0.132-0.062,0.255-0.094,0.383c0.105-0.129,0.21-0.258,0.318-0.39
		C355.362,161.085,355.287,161.086,355.212,161.089z"/>
	<path fill="#FFFFFF" d="M344.231,168.159c0.005,0.016,0.01,0.032,0.014,0.048c0.016-0.003,0.03-0.006,0.046-0.01
		C344.27,168.186,344.251,168.172,344.231,168.159z"/>
	<path fill="#FEC500" d="M322.235,185.151c-0.689-1.327-1.621-3.021-2.86-4.777c-2.79-2.313-6.459-5.045-9.221-5.973
		c-4.391-1.474-11.289-2.947-13.125-3.765c1.995,1.448,9.739,7.071,11.708,8.559c1.654,1.25,6.017,5.59,8.478,7.716
		c1.359-0.71,2.99-1.122,4.581-1.35C321.947,185.42,322.093,185.284,322.235,185.151z"/>
	<path fill="#FEC500" d="M297.029,170.636c-0.3-0.218-0.474-0.344-0.474-0.344C296.555,170.388,296.733,170.504,297.029,170.636z"/>
	<path fill="#FEC500" d="M322.405,185.48c1.001-0.117,1.958-0.167,2.801-0.182c0.586-0.167,1.132-0.302,1.617-0.392
		c-1.926-3.971-5.472-11.22-9.021-15.985c-0.016-0.021-0.033-0.042-0.049-0.063c-8.278-3.305-22.367-6.442-22.614-6.442
		c0.85,0,16.432,9.588,21.247,14.382c1.153,1.148,2.141,2.374,2.988,3.575c1.239,1.756,2.171,3.451,2.86,4.777
		C322.291,185.262,322.351,185.375,322.405,185.48z"/>
	<path fill="#FEC500" d="M355.437,161.083c0.089-0.108,0.181-0.219,0.271-0.329c-0.146-0.087-0.296-0.176-0.446-0.265
		c-0.01,0.203-0.018,0.406-0.05,0.6C355.287,161.086,355.362,161.085,355.437,161.083z"/>
	<path fill="#FEC500" d="M361.419,154.118c1.077-1.195,2.161-2.359,3.215-3.439c0.81-2.936,2.891-10.456,3.632-12.506
		c-1.254,1.83-6.591,8.091-11.114,13.498C357.811,152.048,359.642,153.098,361.419,154.118z"/>
	<path fill="#FEC500" d="M353.978,155.496c-0.208,0.253-0.41,0.5-0.604,0.74c0.078,0.107,0.158,0.217,0.251,0.338
		c0.475,0.37,0.865,0.874,1.151,1.464c0.507,0.626,1.058,1.289,1.594,1.918c1.033-1.241,2.155-2.56,3.315-3.885
		C357.525,155.866,355.277,155.628,353.978,155.496z"/>
	<path fill="#FEC500" d="M368.512,137.645c-0.038,0-0.125,0.194-0.246,0.528C368.499,137.833,368.592,137.645,368.512,137.645z"/>
	<path fill="#FEC500" d="M335.58,183.238c-0.212,0.467-0.487,0.874-0.814,1.209c0.647-0.056,1.332-0.115,2.013-0.169
		C336.323,184.003,335.921,183.653,335.58,183.238z"/>
	<path fill="#FEC500" d="M298.15,150.235c-0.115-0.095-0.179-0.146-0.179-0.146C297.988,150.129,298.051,150.178,298.15,150.235z"/>
	<path fill="#FEC500" d="M326.823,184.907c0.349-0.064,0.675-0.113,0.958-0.13c0.817-0.049,1.823-0.099,2.926-0.144
		c-0.58-0.518-1.018-1.263-1.258-2.131h-1.73c0,0-4.249-12.328-5.666-17.122c-0.316-1.072-0.933-2.591-1.695-4.302
		c-0.602-0.524-1.175-0.999-1.705-1.403c-7.201-5.48-18.917-8.532-20.502-9.442c1.674,1.372,14.794,12.208,19.604,18.624
		c0.016,0.021,0.033,0.042,0.049,0.063C321.351,173.688,324.897,180.936,326.823,184.907z"/>
	<path fill="#FEC500" d="M327.718,182.503h1.73c-0.125-0.454-0.206-0.936-0.206-1.444c0-1.503,0.595-2.829,1.5-3.612
		c-0.438-0.828-0.699-1.832-0.699-2.922c0-2.489,1.34-4.552,3.107-4.991c-0.146-0.588-0.298-1.19-0.456-1.802
		c-1.615-3.011-3.412-5.938-5.26-8.171c-6.232-7.534-13.882-11.985-14.165-12.67c0,0,4.438,8.253,7.087,14.189
		c0.763,1.71,1.379,3.229,1.695,4.302C323.469,170.175,327.718,182.503,327.718,182.503z"/>
	<path fill="#FEC500" d="M337.596,175.313c-0.008,0.07-0.006,0.145-0.016,0.214c0.097-0.035,0.194-0.068,0.294-0.096
		C337.781,175.395,337.688,175.356,337.596,175.313z"/>
	<path fill="#FEC500" d="M333.849,169.439c0.212,0,0.417,0.039,0.62,0.083c0.16-2.733,1.946-4.942,4.246-5.341
		c-0.312-0.324-0.571-0.687-0.75-1.09c-0.707,0.522-1.373,0.909-1.914,1.018c-1.162,0.234,0.113-1.798,1.83-3.958
		c-0.684-1.234-1.381-2.454-2.08-3.617c-1.881,0.315-3.575,0.62-4.157,0.795c-0.769,0.232,1.226-0.76,3.51-1.855
		c-1.617-2.605-3.214-4.841-4.605-6.187c-5.666-5.479-12.749-9.245-13.315-9.93c0.283,1.027,10.766,13.012,13.315,20.888
		c0.782,2.418,1.511,5.029,2.146,7.487c0.158,0.612,0.31,1.214,0.456,1.802C333.377,169.477,333.61,169.439,333.849,169.439z"/>
	<path fill="#FEC500" d="M367.095,189.125c-0.155,0.094-1.06,0.007-2.275-0.182c-0.352,0.129-0.717,0.222-1.095,0.279
		c0.466,0.198,0.967,0.409,1.486,0.624c1.145,0.136,4.218,0.336,7.486,0.782c2.083-2.333,6.842-7.224,11.963-9.377
		c6.517-2.739,17.848-9.246,17.281-9.588c0,0-12.134,1.565-21.363,3.364c-0.949,0.952-1.779,1.789-2.435,2.456
		C372.761,182.961,367.661,188.783,367.095,189.125z"/>
	<path fill="#FEC500" d="M357.582,185.807c-0.007-0.015-0.014-0.032-0.021-0.047c-0.01,0.009-0.021,0.02-0.029,0.029
		C357.549,185.795,357.566,185.801,357.582,185.807z"/>
	<path fill="#FEC500" d="M368.905,182.754c0,2.877-1.711,5.315-4.085,6.189c1.216,0.189,2.12,0.276,2.275,0.182
		c0.566-0.342,5.666-6.164,11.049-11.643c0.655-0.667,1.485-1.504,2.435-2.456c6.846-6.867,20.015-19.843,20.513-20.144
		c-0.851,0.685-9.065,3.424-18.981,9.931c-4.709,3.089-10.565,8.031-15.48,12.444c-0.059,0.08-0.116,0.159-0.175,0.238
		C367.938,178.686,368.905,180.595,368.905,182.754z"/>
	<path fill="#FEC500" d="M365.7,174.037c0,0.949-0.216,1.844-0.59,2.644c0.482,0.208,0.933,0.484,1.344,0.814
		c0.059-0.079,0.116-0.158,0.175-0.238c2.335-3.191,5.118-6.948,7.266-9.706c4.293-5.513,19.504-20.539,22.547-24.152
		c-2.405,1.629-14.301,6.55-21.696,12.509c-3.243,2.613-6.979,5.973-10.394,9.244c-0.515,1.211-1.034,2.458-1.532,3.663
		C364.541,169.866,365.7,171.808,365.7,174.037z"/>
	<path fill="#FEC500" d="M396.842,142.896c-0.09,0.127-0.23,0.301-0.4,0.503C396.8,143.156,396.952,142.985,396.842,142.896z"/>
	<path fill="#FEC500" d="M355.118,161.472c-0.099,0.397-0.231,0.774-0.413,1.115c0.494,0.254,0.951,0.62,1.361,1.078
		c0.526-0.718,1.273-1.238,2.143-1.417c-0.594-0.357-1.497-0.898-2.501-1.495c-0.091,0.109-0.183,0.221-0.271,0.329
		C355.328,161.214,355.224,161.343,355.118,161.472z"/>
	<path fill="#FEC500" d="M379.845,141.526c-0.025,0.031-0.132,0.165-0.301,0.38C379.778,141.81,379.892,141.697,379.845,141.526z"/>
	<path fill="#FEC500" d="M361.419,154.118c1.795,1.031,3.521,2.025,3.879,2.242c0.395,0.238-2.513,0.007-5.613-0.289
		c-1.16,1.326-2.282,2.645-3.315,3.885c0.794,0.932,1.545,1.776,2.037,2.27c0.159-0.023,0.317-0.052,0.483-0.052
		c1.991,0,3.605,1.734,3.605,3.874c0,0.853-0.265,1.635-0.699,2.275c0.358,0.13,0.7,0.295,1.023,0.492
		c0.498-1.206,1.018-2.452,1.532-3.663c1.312-3.086,2.58-5.929,3.311-7.19c1.805-3.116,10.175-13.883,11.882-16.056
		c-1.167,0.483-5.602,0.532-11.031,5.099c-1.176,0.989-2.5,2.258-3.879,3.674C363.58,151.759,362.496,152.923,361.419,154.118z"/>
	<path fill="#FEC500" d="M353.08,162.175c0.569,0,1.115,0.149,1.625,0.412c0.182-0.341,0.314-0.718,0.413-1.115
		c0.031-0.128,0.072-0.251,0.094-0.383c0.032-0.194,0.04-0.397,0.05-0.6c-2.492-1.479-5.373-3.16-5.589-3.16
		c-0.215,0-0.199,2.505-0.2,4.904c0.468,0.227,0.873,0.517,1.211,0.856C351.396,162.507,352.212,162.175,353.08,162.175z"/>
	<path fill="#FEC500" d="M353.624,156.575c0.32,0.423,0.717,0.926,1.151,1.464C354.49,157.449,354.099,156.945,353.624,156.575z"/>
	<path fill="#FEC500" d="M356.067,163.665c0.993,1.11,1.702,2.754,1.935,4.652c0.594-0.212,1.228-0.333,1.89-0.333
		c0.668,0,1.308,0.124,1.905,0.34c0.435-0.64,0.699-1.422,0.699-2.275c0-2.14-1.614-3.874-3.605-3.874
		c-0.166,0-0.324,0.029-0.483,0.052c0.216,0.218,0.385,0.371,0.481,0.429c0.167,0.101-0.121-0.073-0.679-0.408
		C357.34,162.427,356.593,162.947,356.067,163.665z"/>
	<path fill="#FEC500" d="M342.469,165.285c0.021-1.735,1.581-3.178,3.658-3.52c-0.848-1.462-1.652-2.858-2.107-3.532
		c-0.204-0.089-0.416-0.162-0.637-0.223c-0.846,0.745-3.32,3.532-5.418,5.081c0.179,0.403,0.438,0.766,0.75,1.09
		c0.244-0.042,0.491-0.071,0.744-0.071C340.59,164.111,341.63,164.551,342.469,165.285z"/>
	<path fill="#FEC500" d="M352.479,173.312c0,0.997-0.335,1.925-0.908,2.723c0.719-0.633,1.601-1.058,2.566-1.207
		c-0.033-0.26-0.056-0.522-0.056-0.792c0-2.653,1.641-4.902,3.92-5.72c-0.232-1.898-0.941-3.542-1.935-4.652
		c-0.41-0.458-0.867-0.824-1.361-1.078c-0.51-0.263-1.056-0.412-1.625-0.412c-0.868,0-1.685,0.332-2.396,0.915
		c0.613,0.617,0.995,1.385,0.995,2.23c0,1.45-1.085,2.691-2.643,3.273C351.081,169.483,352.479,171.261,352.479,173.312z"/>
	<path fill="#FEC500" d="M337.656,174.524c0,0.27-0.029,0.53-0.06,0.789c0.092,0.043,0.185,0.082,0.278,0.119
		c0.38-0.106,0.771-0.182,1.183-0.182c0.388,0,0.759,0.065,1.119,0.161c-0.333-0.644-0.519-1.354-0.519-2.099
		c0-2.415,1.936-4.452,4.587-5.105c-0.004-0.016-0.009-0.032-0.014-0.048c-1.068-0.665-1.767-1.683-1.767-2.839
		c0-0.012,0.004-0.023,0.005-0.035c-0.839-0.734-1.879-1.174-3.01-1.174c-0.253,0-0.5,0.029-0.744,0.071
		c-2.3,0.399-4.086,2.608-4.246,5.341C336.275,169.92,337.656,172,337.656,174.524z"/>
	<path fill="#FEC500" d="M332.648,176.7c0.903,0,1.718,0.458,2.328,1.192c0.541-1.107,1.469-1.958,2.604-2.365
		c0.01-0.069,0.008-0.144,0.016-0.214c0.03-0.259,0.06-0.519,0.06-0.789c0-2.525-1.381-4.604-3.187-5.001
		c-0.203-0.045-0.408-0.083-0.62-0.083c-0.239,0-0.472,0.038-0.698,0.094c-1.768,0.439-3.107,2.502-3.107,4.991
		c0,1.09,0.262,2.094,0.699,2.922C331.286,176.976,331.942,176.7,332.648,176.7z"/>
	<path fill="#FEC500" d="M359.891,167.984c-0.662,0-1.296,0.121-1.89,0.333c-2.279,0.818-3.92,3.066-3.92,5.72
		c0,0.269,0.022,0.532,0.056,0.792c0.244-0.038,0.491-0.063,0.745-0.063c1.9,0,3.559,1.092,4.468,2.718
		c0.994-0.793,2.218-1.267,3.545-1.267c0.783,0,1.529,0.168,2.216,0.465c0.374-0.8,0.59-1.695,0.59-2.644
		c0-2.229-1.159-4.171-2.881-5.222c-0.323-0.197-0.665-0.362-1.023-0.492C361.198,168.107,360.559,167.984,359.891,167.984z"/>
	<path fill="#FEC500" d="M342.469,165.285c-0.001,0.012-0.005,0.022-0.005,0.035c0,1.156,0.698,2.174,1.767,2.839
		c0.021,0.013,0.039,0.026,0.06,0.038c0.565-0.135,1.16-0.212,1.778-0.212c1.071,0,2.08,0.221,2.968,0.608
		c1.558-0.583,2.643-1.824,2.643-3.273c0-0.845-0.382-1.613-0.995-2.23c-0.338-0.339-0.743-0.63-1.211-0.856
		c-0.001,2.076-0.015,4.072-0.2,4.297c-0.218,0.264-1.738-2.337-3.146-4.765C344.05,162.107,342.49,163.55,342.469,165.285z"/>
	<path fill="#FEC500" d="M351.571,176.035c0.573-0.798,0.908-1.727,0.908-2.723c0-2.051-1.397-3.829-3.442-4.719
		c-0.888-0.387-1.896-0.608-2.968-0.608c-0.618,0-1.213,0.077-1.778,0.212c-0.016,0.004-0.03,0.006-0.046,0.01
		c-2.651,0.653-4.587,2.69-4.587,5.105c0,0.745,0.186,1.455,0.519,2.099c1.367,0.36,2.488,1.354,3.063,2.676
		c0.882-1.137,2.173-1.872,3.632-1.872c1.197,0,2.277,0.502,3.119,1.304c0.279-0.18,0.539-0.378,0.778-0.594
		C351.006,176.599,351.273,176.298,351.571,176.035z"/>
	<path fill="#FEC500" d="M364.82,188.943c2.374-0.874,4.085-3.312,4.085-6.189c0-2.159-0.967-4.068-2.45-5.259
		c-0.411-0.33-0.861-0.605-1.344-0.814c-0.687-0.297-1.433-0.465-2.216-0.465c-1.327,0-2.551,0.474-3.545,1.267
		c0.467,0.834,0.74,1.807,0.74,2.851c0,2.125-1.114,3.972-2.751,4.91c0.066,0.177,0.143,0.348,0.223,0.516
		c0.007,0.015,0.014,0.032,0.021,0.047c2.704,0.947,3.928,1.858,4.485,2.618c0.36,0.155,0.694,0.311,0.97,0.469
		c0.173,0.099,0.39,0.214,0.626,0.338c0.021-0.002,0.041-0.007,0.062-0.01C364.103,189.165,364.468,189.072,364.82,188.943z"/>
	<path fill="#FEC500" d="M335.58,183.238c-0.694-0.848-1.13-1.938-1.13-3.145c0-0.797,0.2-1.538,0.525-2.201
		c-0.61-0.734-1.425-1.192-2.328-1.192c-0.706,0-1.361,0.275-1.905,0.746c-0.905,0.784-1.5,2.109-1.5,3.612
		c0,0.509,0.081,0.99,0.206,1.444c0.24,0.868,0.678,1.613,1.258,2.131c0.998-0.041,2.076-0.079,3.181-0.11
		c0.282-0.024,0.575-0.05,0.879-0.077C335.093,184.111,335.368,183.705,335.58,183.238z"/>
	<path fill="#FEC500" d="M354.882,174.765c-0.254,0-0.501,0.026-0.745,0.063c-0.966,0.148-1.848,0.573-2.566,1.207
		c-0.298,0.263-0.564,0.564-0.802,0.891c-0.191,0.263-0.361,0.544-0.507,0.842c0.875,0.964,1.417,2.299,1.417,3.774
		c0,0.936-0.237,1.802-0.619,2.566c0.021,0.024,0.04,0.049,0.061,0.072c1.08,0.173,2.283,0.421,3.633,0.773
		c0.734,0.192,1.393,0.384,1.994,0.575c0.203-0.083,0.401-0.176,0.592-0.285c1.637-0.938,2.751-2.785,2.751-4.91
		c0-1.043-0.273-2.016-0.74-2.851C358.441,175.857,356.782,174.765,354.882,174.765z"/>
	<path fill="#FEC500" d="M340.176,175.411c-0.36-0.095-0.731-0.161-1.119-0.161c-0.411,0-0.803,0.075-1.183,0.182
		c-0.1,0.028-0.197,0.061-0.294,0.096c-1.136,0.407-2.063,1.257-2.604,2.365c-0.325,0.663-0.525,1.404-0.525,2.201
		c0,1.207,0.436,2.297,1.13,3.145c0.341,0.416,0.743,0.765,1.198,1.04c2.114-0.169,4.173-0.296,4.86-0.174
		c0.274-0.196,0.521-0.428,0.749-0.68c-0.201-0.587-0.324-1.217-0.324-1.882c0-1.326,0.453-2.523,1.176-3.455
		C342.664,176.765,341.543,175.771,340.176,175.411z"/>
	<path fill="#FEC500" d="M351.031,184.168c0.01-0.02,0.02-0.04,0.029-0.06c0.382-0.764,0.619-1.63,0.619-2.566
		c0-1.476-0.542-2.81-1.417-3.774c-0.083-0.092-0.183-0.164-0.271-0.248c-0.842-0.802-1.922-1.304-3.119-1.304
		c-1.459,0-2.75,0.735-3.632,1.872c-0.723,0.932-1.176,2.129-1.176,3.455c0,0.665,0.123,1.295,0.324,1.882
		c0.13,0.381,0.287,0.746,0.488,1.08c0.186,0.01,0.368,0.02,0.529,0.032c0.27,0.021,0.625,0.057,1.017,0.1
		c0.071-0.266,0.16-0.486,0.273-0.623C345.946,183.823,347.969,183.687,351.031,184.168z"/>
	<path fill="#FEC500" d="M331.283,149.651c-0.185-0.041-0.343-0.07-0.44-0.07C330.843,149.647,331.009,149.665,331.283,149.651z"/>
	<path fill="#FEC500" d="M331.644,157.329c0.582-0.176,2.276-0.48,4.157-0.795c2.668-0.447,5.71-0.917,6.506-1.081
		c-0.667,0.373-2.754,2.593-4.426,4.698c-1.717,2.16-2.992,4.192-1.83,3.958c0.541-0.109,1.207-0.496,1.914-1.018
		c2.098-1.548,4.572-4.335,5.418-5.081c0.135-0.119,0.237-0.197,0.28-0.197c0.052,0,0.178,0.156,0.356,0.42
		c0.455,0.673,1.26,2.069,2.107,3.532c1.407,2.428,2.928,5.028,3.146,4.765c0.186-0.225,0.199-2.221,0.2-4.297
		c0.001-2.399-0.015-4.904,0.2-4.904c0.216,0,3.097,1.681,5.589,3.16c0.15,0.089,0.3,0.178,0.446,0.265
		c1.004,0.597,1.907,1.138,2.501,1.495c0.558,0.334,0.846,0.508,0.679,0.408c-0.097-0.058-0.266-0.211-0.481-0.429
		c-0.492-0.494-1.243-1.338-2.037-2.27c-0.536-0.629-1.087-1.292-1.594-1.918c-0.435-0.538-0.831-1.042-1.151-1.464
		c-0.093-0.122-0.173-0.231-0.251-0.338c-0.373-0.51-0.582-0.844-0.495-0.844c0.066,0,0.475,0.04,1.1,0.104
		c1.299,0.132,3.547,0.37,5.707,0.576c3.101,0.296,6.008,0.527,5.613,0.289c-0.358-0.217-2.084-1.211-3.879-2.242
		c-1.777-1.021-3.608-2.07-4.268-2.448c-0.162-0.093-0.267-0.152-0.267-0.152s5.609-6.295,4.407-6.295
		c-1.057,0-8.305,4.864-9.496,5.711c1.327-1.266,9.896-12.975,9.896-12.975l-9.215,5.327c0,0,1.603-7.748,0.802-7.264
		c-0.802,0.484-7.212,10.17-7.612,10.17c-0.401,0-2.004-9.686-2.004-9.686s0.401,10.654-2.003,11.138
		c-2.078,0.418-8.632,1.919-10.377,2.007c2.084,0.464,9.175,3.32,9.175,3.32s-2.823,1.312-5.305,2.503
		C332.869,156.569,330.875,157.562,331.644,157.329z"/>
	<path fill="#00389B" d="M305.346,229.567c1.821,4.575,7.636,16.632,15.823,16.228c9.815-0.484,13.822-3.39,13.422-3.632
		c-0.401-0.243-4.607-3.148-7.012-9.443c-0.835-2.187-1.424-3.925-1.843-5.276c-4.799,1.621-10.362,2.955-15.386,2.855
		C308.49,230.262,306.841,229.986,305.346,229.567z"/>
	<path fill="#00389B" d="M349.615,226.424c-2.755-0.196-5.345-0.431-7.818-0.758c2.375,5.273,6.284,13.432,8.419,15.044
		c3.205,2.421,10.617,4.358,13.822,4.116c3.206-0.242,7.012,0,7.012,0s-3.205-1.695-5.81-11.138c-0.94-3.409-1.643-5.988-2.16-7.904
		C358.268,226.39,353.448,226.696,349.615,226.424z"/>
	<path fill="#00389B" d="M400.898,243.131c0.038-1.492-0.043-2.965-0.198-4.373c-0.001,0.002-0.004,0.014-0.004,0.014
		s-16.627-4.358-16.827-4.358c-0.098,0-0.245-0.465-0.485-1.052c-0.211,3.712-0.262,8.086,0.487,9.768
		c0.799,1.793,3.415,4.448,5.521,6.403h8.489C399.479,248.185,400.82,246.164,400.898,243.131z"/>
	<path fill="#005120" d="M306.945,207.78c-0.4-2.421-0.2-5.569-0.2-5.569l-8.712,3.809c0.084,0.693,0.152,1.807-0.102,2.729
		c-0.4,1.453-3.807,5.327-3.807,8.475c0,2.668,2.901,10.014,11.222,12.344c1.495,0.418,3.144,0.694,5.005,0.731
		c5.023,0.1,10.587-1.234,15.386-2.855c3.221-1.088,6.098-2.305,8.232-3.307c-3.61-0.99-7.021-2.402-10.396-4.493
		C315.758,214.802,307.344,210.202,306.945,207.78z"/>
	<path fill="#005120" d="M383.868,234.415c0.2,0,16.827,4.358,16.827,4.358s0.003-0.012,0.004-0.014
		c0.043-0.152,1.565-5.616-0.805-9.913c-1.712-3.104-6.773-9.764-9.548-13.344c-2.822,2.734-5.774,5.231-7.879,6.079
		c-0.899,0.362-2.13,0.758-3.596,1.163c0.637,2.017,2.563,7.962,3.394,8.766c0.512,0.495,0.865,1.241,1.117,1.854
		C383.623,233.95,383.771,234.415,383.868,234.415z"/>
	<path fill="#005120" d="M397.692,213.591c3.205-2.179,8.413-7.99,8.413-7.99s-4.407,1.695-7.612,1.453
		c-0.072-0.005-0.15,0.005-0.225,0.005c-1.021,1.18-3.188,3.64-5.706,6.229C394.058,214.125,395.986,214.751,397.692,213.591z"/>
	<polygon fill="#005120" points="297.331,206.328 297.331,206.327 297.329,206.328 	"/>
	<path fill="#005120" d="M390.347,215.502c0.754-0.73,1.498-1.476,2.215-2.213c2.518-2.589,4.685-5.049,5.706-6.229
		c0.397-0.46,0.627-0.732,0.627-0.732s-4.349-2.037-7.412-3.836c-1.314,1.45-5.135,4.067-6.207,3.779
		c-1.275-0.342-3.046-4.366-7.437-7.875c-4.208-3.363-11.195-7.503-12.896-8.522c-0.491-0.238-0.92-0.452-1.28-0.64
		c-0.236-0.124-0.453-0.239-0.626-0.338c-0.275-0.158-0.609-0.314-0.97-0.469c0.073,0.101,0.14,0.2,0.192,0.295
		c0.566,1.027-1.345,5.393-1.982,6.42s-8.499,1.969-9.562,1.626s-5.949-6.249-6.232-6.763c-0.242-0.439-0.481-3.808-0.062-5.37
		c-0.392-0.043-0.747-0.08-1.017-0.1c-0.161-0.012-0.344-0.022-0.529-0.032c-0.266-0.014-0.55-0.026-0.861-0.036
		c0.27,0.832,0.016,2.855-0.294,4.424c-0.354,1.798-6.516,5.393-7.861,5.65s-5.524-2.825-5.879-4.109
		c-0.354-1.284,2.763-5.479,3.188-5.735c0.023,0.058,1.178-0.039,2.719-0.173c-1.104,0.031-2.183,0.069-3.181,0.11
		c-1.103,0.045-2.108,0.094-2.926,0.144c-0.283,0.017-0.609,0.065-0.958,0.13c-0.485,0.089-1.031,0.225-1.617,0.392
		c1.702-0.03,2.914,0.083,2.914,0.083s-2.054,1.883-2.124,3.853c-0.071,1.969,0.142,2.825,0.142,2.825s-3.896-1.541-6.87-0.599
		c-2.975,0.941-6.445,1.883-6.517,1.626c0.414-0.899,0.351-1.975,1.038-3.19c-1.519,0.727-2.706,1.34-3.236,1.661
		c-2.003,1.21-7.211-0.242-9.615-1.453c-2.403-1.21-7.612-6.295-10.817-6.053s-5.609,1.21-7.212,2.663
		c-1.602,1.453-4.006-0.242-6.811,1.695s-1.803,5.811-1.603,5.811s2.805,0.242,3.807,0c1.001-0.242,1.603,4.358,3.605,6.295
		s7.812,1.211,11.018,1.453c3.202,0.242,4.404,4.349,4.407,4.358l0.701-0.307l8.712-3.809c0,0-0.2,3.148,0.2,5.569
		c0.399,2.421,8.813,7.022,16.629,11.864c3.374,2.091,6.785,3.502,10.396,4.493c2.495,0.685,5.089,1.166,7.828,1.529
		c2.474,0.328,5.063,0.562,7.818,0.758c3.833,0.272,8.652-0.034,13.465-0.639c5.883-0.74,11.748-1.924,15.792-3.041
		c1.466-0.404,2.696-0.8,3.596-1.163C384.573,220.733,387.525,218.236,390.347,215.502z M287.518,193.8
		c-0.001,0.061-0.004,0.127-0.004,0.179c0,0.492-1.288,0.206-2.118-0.03c-1.543-0.226-2.159-1.267-2.489-1.665
		c-0.4-0.484,1.603-1.453,2.003-1.695c3.606-0.242,6.61,1.453,6.61,1.453S289.589,193.296,287.518,193.8z M384.001,207.896
		c0.142,1.37-9.632,5.479-11.262,4.88c-1.629-0.6-10.198-18.662-9.561-19.347v0c1.206-0.343,6.092,2.311,12.111,6.335
		C381.31,203.787,383.86,206.527,384.001,207.896z M342.074,193.515c2.124,0.256,4.887,3.338,5.878,4.623
		c0.991,1.284-0.425,18.234-1.487,19.347s-10.907-1.969-11.686-2.911c-0.779-0.941-1.134-16.008,0.637-17.977
		C336.407,195.997,339.949,193.258,342.074,193.515z M313.178,196.339c1.771-0.771,6.94-1.198,10.481-1.37s7.295,0.514,8.57,1.37
		c1.274,0.856,0.142,15.923-1.062,16.008c-1.204,0.086-3.541-2.482-7.649-4.623c-4.107-2.14-8.499-4.452-10.27-5.136
		C311.478,201.904,311.549,197.88,313.178,196.339z M368.988,214.146c-0.638,1.798-17.211,4.537-18.557,3.767
		s0.779-16.95,2.125-17.892c1.274-1.284,5.241-1.969,7.437-1.969S369.624,212.348,368.988,214.146z"/>
	<path fill="#005120" d="M284.909,190.589c-0.4,0.242-2.403,1.211-2.003,1.695c0.33,0.398,0.946,1.439,2.489,1.665
		c-0.395-0.112-0.687-0.212-0.687-0.212v-2.664c0.2,0.242,1.803,0.484,2.404,0.484c0.558,0,0.427,1.452,0.404,2.243
		c2.071-0.504,4.002-1.758,4.002-1.758S288.516,190.347,284.909,190.589z"/>
	<path d="M287.114,191.558c-0.602,0-2.204-0.242-2.404-0.484v2.664c0,0,0.292,0.101,0.687,0.212c0.83,0.235,2.118,0.522,2.118,0.03
		c0-0.052,0.003-0.118,0.004-0.179C287.54,193.01,287.671,191.558,287.114,191.558z"/>
	<path fill="#001707" d="M319.267,191.46c2.975-0.942,6.87,0.599,6.87,0.599s-0.213-0.856-0.142-2.825
		c0.07-1.969,2.124-3.853,2.124-3.853s-1.212-0.113-2.914-0.083c-0.843,0.015-1.8,0.065-2.801,0.182
		c-0.202,0.023-0.405,0.052-0.609,0.081c-1.591,0.228-3.222,0.639-4.581,1.35c-0.118,0.062-0.242,0.117-0.355,0.183
		c-1.71,0.998-2.58,1.935-3.07,2.802c-0.688,1.215-0.624,2.291-1.038,3.19C312.822,193.343,316.292,192.401,319.267,191.46z"/>
	<path fill="#001707" d="M341.639,184.104c-0.688-0.122-2.746,0.005-4.86,0.174c-0.681,0.054-1.365,0.113-2.013,0.169
		c-0.304,0.026-0.597,0.052-0.879,0.077c-1.541,0.134-2.695,0.231-2.719,0.173c-0.425,0.257-3.541,4.451-3.188,5.735
		c0.354,1.284,4.533,4.366,5.879,4.109s7.507-3.852,7.861-5.65c0.31-1.569,0.563-3.593,0.294-4.424
		c-0.039-0.122-0.089-0.219-0.152-0.284C341.829,184.149,341.751,184.123,341.639,184.104z"/>
	<path fill="#001707" d="M357.582,185.807c-0.017-0.006-0.033-0.012-0.05-0.018c-0.249-0.087-0.511-0.173-0.785-0.261
		c-0.602-0.191-1.26-0.383-1.994-0.575c-1.35-0.353-2.553-0.601-3.633-0.773c-0.031-0.005-0.059-0.008-0.09-0.013
		c-3.062-0.481-5.085-0.345-6.335-0.156c-0.113,0.137-0.202,0.357-0.273,0.623c-0.42,1.562-0.181,4.931,0.062,5.37
		c0.283,0.514,5.17,6.42,6.232,6.763s8.924-0.599,9.562-1.626s2.549-5.393,1.982-6.42c-0.053-0.095-0.119-0.194-0.192-0.295
		C361.51,187.665,360.286,186.754,357.582,185.807z"/>
	<path fill="#001707" d="M364.737,189.748c0,0.009,0.018,0.018,0.046,0.027C364.77,189.768,364.748,189.755,364.737,189.748
		L364.737,189.748z"/>
	<path fill="#001707" d="M364.782,189.775c0.046,0.027,0.104,0.062,0.161,0.097c1.7,1.019,8.688,5.159,12.896,8.522
		c4.391,3.51,6.161,7.533,7.437,7.875c1.072,0.288,4.893-2.329,6.207-3.779c0.248-0.273,0.416-0.51,0.45-0.672
		c0.213-1.027-6.304-6.506-10.694-8.989c-1.922-1.086-5.323-1.763-8.541-2.202c-3.269-0.446-6.342-0.646-7.486-0.782
		C364.998,189.82,364.85,189.797,364.782,189.775z"/>
	<path fill="#001707" d="M363.179,193.429L363.179,193.429c-0.638,0.685,7.932,18.747,9.561,19.347
		c1.63,0.599,11.403-3.51,11.262-4.88c-0.142-1.369-2.691-4.109-8.711-8.132C369.271,195.74,364.385,193.086,363.179,193.429z"/>
	<path fill="#001707" d="M359.992,198.052c-2.195,0-6.162,0.685-7.437,1.969c-1.346,0.941-3.471,17.121-2.125,17.892
		s17.919-1.969,18.557-3.767C369.624,212.348,362.188,198.052,359.992,198.052z"/>
	<path fill="#001707" d="M334.78,214.573c0.778,0.942,10.623,4.023,11.686,2.911s2.479-18.063,1.487-19.347
		c-0.991-1.284-3.754-4.366-5.878-4.623c-2.125-0.257-5.667,2.482-6.658,3.082C333.646,198.565,334,213.632,334.78,214.573z"/>
	<path fill="#001707" d="M323.518,207.725c4.108,2.14,6.445,4.708,7.649,4.623c1.204-0.085,2.337-15.152,1.062-16.008
		c-1.275-0.856-5.029-1.541-8.57-1.37s-8.711,0.599-10.481,1.37c-1.629,1.541-1.7,5.564,0.07,6.25
		C315.019,203.273,319.41,205.585,323.518,207.725z"/>
	<path fill="#D40F0F" fill-opacity="0.9961" d="M238.123,398.686c0,2.079,3.775,9.516,11.449,18.562
		c0.431-3.91,1.265-8.897,3.512-9.444c1.613-0.393,3.28,1.177,4.701,3.142c3.028-4.524,5.113-8.91,6.276-11.317
		c1.13-2.339,2.014-5.219,2.676-7.719l-4.593-11.514c-2.359-1.34-5.423-2.608-8.415-2.454c-6.002,0.306-10.455,6.925-13.366,9.861
		C240.99,389.747,238.123,393.166,238.123,398.686z"/>
	<path fill="#D40F0F" fill-opacity="0.9961" d="M420.414,387.904l-3.543,8.729c1.669,3.712,4.337,8.814,7.878,13.889
		c0.742-1.321,1.811-2.338,3.33-2.091c2.879,0.468,4.687,3.362,5.691,5.466c6.415-9.543,9.521-17.38,9.813-19.657
		c0.635-4.948-2.261-9.029-4.084-11.06c-3.016-2.567-6.463-4.954-12.066-5.24c-0.983-0.051-2.036,0.091-3.113,0.342l-0.897,2.211
		C422.528,382.999,421.518,385.47,420.414,387.904z"/>
	<path fill="#FDDC59" fill-opacity="0.9961" d="M414.681,435.623c6.566-5.752,11.916-11.848,16.149-17.564
		c-2.243-2.377-4.275-4.949-6.081-7.537c-3.541-5.074-6.209-10.177-7.878-13.889l-1.02,2.512c-0.512,0.033-0.995,0.095-1.468,0.168
		c-3.646,6.016-7.856,11.723-12.444,17.046C405.297,422.709,410.407,431.418,414.681,435.623z"/>
	<path fill="#FDDC59" fill-opacity="0.9961" d="M434.617,451.792c6.178,3.672,13.246,6.442,20.58,6.314
		c18.078-0.313,20.662-7.858,23.891-11.316c0.199-0.214,0.395-0.521,0.584-0.907c-0.196-1.655-0.994-4.505-4.141-5.38
		c-4.519-1.257-11.945,2.201-12.914,1.572v-0.001c1.174-0.952,6.021-13.322,11.168-22.72c-1.885,3.159-6.256,10.453-17.586,10.467
		C450.802,436.745,443.553,444.398,434.617,451.792z"/>
	<path fill="#FDDC59" fill-opacity="0.9961" d="M202.155,443.7c-0.083-0.281-0.167-0.564-0.252-0.855
		c0.155,2.462,0.674,5.113,2.037,6.674c-0.144-0.416-0.322-0.972-0.531-1.644C202.797,446.594,202.117,445.067,202.155,443.7z"/>
	<path fill="#FDDC59" fill-opacity="0.9961" d="M271.432,399.402c-0.573-0.121-1.172-0.212-1.808-0.258l-2.887-7.235
		c-0.662,2.5-1.546,5.38-2.676,7.719c-1.163,2.407-3.248,6.793-6.276,11.317c-1.864,2.784-4.086,5.618-6.675,8.079
		c4.764,5.381,10.854,11.224,18.298,16.794c6.434-8.74,10.546-17.645,12.338-21.932
		C277.984,409.307,274.507,404.465,271.432,399.402z"/>
	<path fill="#FDDC59" fill-opacity="0.9961" d="M231.729,429.598c-2.323,1.113-3.531,1.482-6.085,1.151
		c-2.852-0.37-8.391-3.139-12.463-5.417c3.862,8.698,6.679,16.924,6.679,16.924s-8.219-3.556-14.611-1.779
		c-2.294,0.639-3.055,1.851-3.093,3.224c0.479,1.62,0.907,3.055,1.254,4.175c0.375,0.786,0.724,1.479,0.862,1.986
		c0.022,0.02,0.042,0.043,0.064,0.062c0.323,0,8.717,9.117,20.985,8.173c6.905-0.53,16.571-3.052,25.429-7.397
		C243.071,443.578,236.741,436.254,231.729,429.598z"/>
	<path fill="#FDDC59" fill-opacity="0.9961" d="M379.317,462.17c-0.356-0.247-0.939-0.261-1.75-0.041l-1.084,0.293l0.978,4.459
		l1.049-0.284c0.781-0.211,1.292-0.527,1.533-0.949c0.239-0.429,0.27-1.055,0.089-1.877
		C379.949,462.941,379.678,462.408,379.317,462.17z"/>
	<path fill="#FDDC59" fill-opacity="0.9961" d="M388.642,459.396c-0.43-0.534-0.984-0.681-1.665-0.441
		c-0.681,0.24-1.058,0.716-1.132,1.427c-0.073,0.712,0.237,2.287,0.935,4.728h-0.001c0.689,2.414,1.25,3.892,1.681,4.432
		c0.436,0.532,0.996,0.678,1.683,0.436c0.675-0.237,1.048-0.705,1.119-1.401c0.076-0.705-0.234-2.277-0.931-4.718
		C389.634,461.417,389.071,459.93,388.642,459.396z"/>
	<polygon fill="#FDDC59" fill-opacity="0.9961" points="450.104,417.988 444.664,415.4 448.877,420.012 	"/>
	<path fill="#FDDC59" fill-opacity="0.9961" d="M318.927,464.936c-0.222-0.113-0.581-0.213-1.078-0.299l-1.094-0.19l-1.515,10.747
		l1.129,0.196c0.575,0.101,0.984,0.124,1.229,0.072s0.45-0.178,0.618-0.378c0.292-0.354,0.537-0.864,0.734-1.532
		c0.198-0.674,0.404-1.768,0.618-3.282c0.208-1.476,0.3-2.56,0.276-3.252c-0.024-0.692-0.154-1.234-0.391-1.626
		C319.33,465.194,319.155,465.042,318.927,464.936z"/>
	<path fill="#FDDC59" fill-opacity="0.9961" d="M289.204,455.894c-0.668-0.281-1.229-0.169-1.685,0.338
		c-0.455,0.507-1.092,1.956-1.909,4.35c-0.809,2.368-1.195,3.913-1.159,4.634c0.044,0.717,0.402,1.218,1.075,1.502
		c0.662,0.278,1.216,0.17,1.661-0.326c0.453-0.501,1.089-1.947,1.906-4.341c0.817-2.393,1.207-3.947,1.169-4.662
		S289.871,456.175,289.204,455.894z"/>
	<polygon fill="#FDDC59" fill-opacity="0.9961" points="239.949,387.127 239.95,387.128 239.952,387.127 	"/>
	<path fill="#FDDC59" fill-opacity="0.9961" d="M337.986,467.232c-0.145-0.179-0.335-0.307-0.573-0.383
		c-0.231-0.083-0.599-0.134-1.103-0.154l-1.106-0.044l-0.352,10.871l1.142,0.046c0.582,0.023,0.991-0.007,1.228-0.091
		c0.237-0.084,0.428-0.236,0.573-0.457c0.253-0.391,0.441-0.93,0.565-1.618c0.125-0.696,0.212-1.81,0.262-3.342
		c0.049-1.492,0.023-2.58-0.074-3.265S338.262,467.591,337.986,467.232z"/>
	<path fill="#FDDC59" fill-opacity="0.9961" d="M443.584,394.239c-0.293,2.277-3.398,10.114-9.813,19.657
		c-0.913,1.356-1.892,2.747-2.94,4.162c-4.233,5.717-9.583,11.812-16.149,17.564c-16.086,14.092-39.458,26.103-71.544,25.302
		c-32.045-0.8-56.507-12.219-73.729-25.106c-7.444-5.57-13.535-11.413-18.298-16.794c-0.529-0.599-1.042-1.19-1.538-1.776
		c-7.674-9.047-11.449-16.483-11.449-18.562c0-5.52,2.866-8.938,2.24-10.883c-0.08-0.248-0.208-0.475-0.414-0.675
		c-0.936,0.013-23.74,12.449-22.827,17.781c0.315,1.843,5.098,12.062,14.605,24.688c5.013,6.656,11.342,13.98,19.021,21.102
		c19.935,18.485,48.98,35.588,87.82,36.008c40.778,0.441,73.683-16.411,96.048-34.915c8.936-7.394,16.185-15.047,21.582-21.971
		c8.32-10.671,12.243-19.603,11.126-23.135c-3.651-11.558-29.22-24.896-29.22-24.896s0.596,0.5,1.395,1.389
		C441.323,385.21,444.219,389.291,443.584,394.239z M226.271,415.028l5.599-3.164l-1.603-3.502l-5.6,3.163l-1.162-2.54l12.354-6.979
		l1.162,2.54l-4.845,2.737l1.603,3.503l4.846-2.737l1.162,2.54l-12.354,6.979L226.271,415.028z M240.209,411.256l3.947,6.582
		l-1.918,1.419l-2.524-4.21l-2.666,1.973l2.35,3.92l-1.827,1.353l-2.35-3.919l-3.176,2.35l2.585,4.311l-1.947,1.441l-4.007-6.682
		L240.209,411.256z M240.856,437.167l4.611-4.739l-2.401-2.885l-4.611,4.739l-1.741-2.092l10.173-10.455l1.742,2.092l-3.99,4.101
		l2.401,2.885l3.99-4.101l1.741,2.092l-10.174,10.455L240.856,437.167z M248.323,439.822l-2.797,2.421l-1.982-1.932l11.485-9.29
		l2.604,2.538l-6.77,13.886l-2.091-2.037l1.782-3.411L248.323,439.822z M253.566,449.622l6.844-10.369l-2.395-1.951l1.352-2.048
		l6.872,5.6l-1.352,2.048l-2.396-1.951l-6.844,10.368L253.566,449.622z M264.394,457.646l3.271-5.957l-3.019-2.048l-3.271,5.958
		l-2.189-1.485l7.22-13.143l2.188,1.484l-2.831,5.154l3.019,2.048l2.831-5.155l2.189,1.484l-7.22,13.144L264.394,457.646z
		 M277.664,457.758l-2.564,6.151l-2.343-1.206v-0.001l5.824-13.971l6.573,3.383l-0.953,2.286l-4.229-2.177l-1.377,3.303l3.993,2.055
		l-0.931,2.231L277.664,457.758z M290.119,466.653c-0.439,0.855-0.875,1.464-1.306,1.823c-0.605,0.494-1.217,0.771-1.834,0.831
		s-1.353-0.089-2.205-0.448s-1.491-0.79-1.917-1.29s-0.715-1.157-0.867-1.97c-0.117-0.577-0.085-1.348,0.097-2.312
		c0.184-0.971,0.536-2.219,1.059-3.746c0.521-1.526,1.002-2.718,1.442-3.573c0.441-0.861,0.879-1.465,1.311-1.811
		c0.6-0.495,1.208-0.773,1.825-0.834s1.353,0.089,2.205,0.448s1.492,0.79,1.918,1.29s0.718,1.158,0.875,1.974
		c0.113,0.59,0.076,1.365-0.111,2.327c-0.182,0.964-0.532,2.207-1.052,3.728C291.041,464.604,290.562,465.792,290.119,466.653z
		 M299.903,471.329c-0.22,0.422-0.493,0.766-0.821,1.032c-0.495,0.399-1.071,0.634-1.728,0.701c-0.655,0.062-1.386-0.041-2.19-0.307
		c-1.518-0.503-2.492-1.222-2.924-2.157c-0.424-0.94-0.393-2.32,0.096-4.142l2.729-10.187l2.476,0.819l-2.666,9.947
		c-0.305,1.137-0.388,1.95-0.25,2.441c0.145,0.486,0.536,0.835,1.175,1.046c0.633,0.209,1.124,0.149,1.476-0.18
		c0.356-0.327,0.689-1.068,1-2.225l2.655-9.909l2.44,0.808l-2.729,10.187C300.375,470.195,300.129,470.903,299.903,471.329z
		 M307.542,475.882l-1.428-11.41l-2.05,10.546l-2.371-0.59l3.026-15.025l2.59,0.644l1.405,11.385l2.046-10.526l2.38,0.592
		l-3.026,15.025L307.542,475.882z M322.261,469.969c-0.304,2.16-0.588,3.676-0.851,4.548c-0.262,0.865-0.6,1.582-1.014,2.151
		c-0.402,0.57-0.902,0.933-1.5,1.084c-0.592,0.147-1.578,0.101-2.959-0.14l-3.512-0.611l2.144-15.213l4.099,0.714
		c0.836,0.146,1.488,0.34,1.958,0.583c0.476,0.245,0.849,0.573,1.118,0.984c0.407,0.604,0.652,1.321,0.735,2.152
		C322.57,467.047,322.497,468.296,322.261,469.969z M331.341,466.745l-4.532-0.486l-0.309,3.543l4.219,0.452l-0.211,2.429
		l-4.219-0.453l-0.367,4.221l4.641,0.497l-0.226,2.588l-7.192-0.771l1.332-15.327l7.085,0.761L331.341,466.745z M341.263,471.406
		c-0.071,2.186-0.19,3.728-0.357,4.628c-0.167,0.894-0.426,1.65-0.775,2.271c-0.339,0.62-0.797,1.045-1.374,1.275
		c-0.572,0.225-1.557,0.309-2.953,0.252l-3.552-0.142v-0.001l0.498-15.388l4.146,0.166c0.845,0.034,1.514,0.141,2.006,0.32
		c0.499,0.181,0.904,0.457,1.216,0.829c0.469,0.546,0.789,1.226,0.961,2.04C341.256,468.465,341.318,469.715,341.263,471.406z
		 M347.688,479.892l-0.55-15.387l2.58-0.113l0.551,15.386L347.688,479.892z M357.155,479.251l-2.574,0.235l-0.947-12.815
		l-2.959,0.27l-0.188-2.531l8.493-0.774l0.187,2.531l-2.959,0.27L357.155,479.251z M374.038,474.065
		c-0.027,0.486-0.135,0.93-0.321,1.331c-0.283,0.603-0.705,1.097-1.267,1.482c-0.562,0.38-1.256,0.649-2.083,0.809
		c-1.561,0.302-2.722,0.141-3.483-0.484c-0.756-0.632-1.28-1.884-1.573-3.755l-1.639-10.472l2.545-0.492l1.6,10.226
		c0.183,1.169,0.434,1.939,0.754,2.311c0.324,0.363,0.814,0.481,1.471,0.355c0.65-0.126,1.066-0.423,1.25-0.891
		c0.188-0.47,0.189-1.299,0.003-2.487l-1.593-10.187l2.509-0.484l1.638,10.472C374.007,472.816,374.071,473.572,374.038,474.065z
		 M382.416,466.589c-0.461,0.887-1.329,1.502-2.605,1.848l-1.827,0.494l1.391,6.344l-2.492,0.675l-3.279-14.961l4.354-1.178
		c1.329-0.36,2.357-0.288,3.085,0.215c0.728,0.502,1.256,1.505,1.585,3.008C382.951,464.51,382.881,465.695,382.416,466.589z
		 M393.702,469.088c-0.198,0.805-0.522,1.443-0.973,1.916c-0.45,0.474-1.11,0.863-1.979,1.17s-1.61,0.41-2.224,0.312
		s-1.207-0.414-1.78-0.946c-0.415-0.371-0.82-0.997-1.217-1.879c-0.397-0.888-0.819-2.109-1.264-3.667v0.001
		c-0.444-1.557-0.733-2.822-0.866-3.796c-0.135-0.98-0.13-1.755,0.017-2.324c0.192-0.803,0.514-1.44,0.964-1.913
		c0.45-0.474,1.11-0.863,1.979-1.17s1.61-0.41,2.224-0.312s1.21,0.413,1.789,0.942c0.418,0.385,0.822,1.019,1.213,1.901
		c0.396,0.882,0.816,2.098,1.259,3.647c0.44,1.544,0.729,2.807,0.863,3.787C393.841,467.731,393.839,468.509,393.702,469.088z
		 M402.496,467.035l-6.987-8.511l3.68,9.984l-2.255,1.005h-0.001l-5.156-14.293l2.464-1.098l6.956,8.503l-3.673-9.965l2.264-1.009
		l5.156,14.293L402.496,467.035z M412.984,461.63L412.984,461.63l-5.407-11.369l-2.625,1.541l-1.068-2.245l7.535-4.424l1.067,2.246
		l-2.625,1.541l5.406,11.369L412.984,461.63z M424.242,454.372l-3.354-5.9l-2.99,2.099l3.354,5.9l-2.168,1.521l-7.4-13.019
		l2.168-1.521l2.902,5.105l2.99-2.098l-2.902-5.106l2.168-1.521l7.4,13.019L424.242,454.372z M428.327,451.335l-8.352-12.288
		l5.681-4.767l1.388,2.043l-3.634,3.049l1.931,2.841l3.383-2.838l1.323,1.946l-3.383,2.839l2.3,3.383l3.72-3.122l1.41,2.075
		L428.327,451.335z M442.023,439.056c-0.993,1.084-1.985,1.607-2.979,1.569c-0.987-0.043-1.999-0.648-3.033-1.818
		c-0.109-0.124-0.281-0.338-0.517-0.642l-0.038-0.043l1.843-2.012l0.624,0.706c0.597,0.676,1.08,1.055,1.448,1.139
		c0.368,0.074,0.739-0.092,1.111-0.498c0.39-0.426,0.588-0.857,0.596-1.295c0.012-0.443-0.172-0.879-0.55-1.307
		c-0.29-0.328-0.609-0.531-0.956-0.61c-0.352-0.084-0.927-0.054-1.726,0.089l-1.6,0.289c-1.368,0.26-2.344,0.307-2.928,0.141
		c-0.58-0.17-1.144-0.564-1.689-1.183c-0.816-0.923-1.209-1.914-1.18-2.974c0.029-1.061,0.477-2.062,1.341-3.007
		c0.916-0.999,1.863-1.487,2.844-1.464c0.979,0.023,1.93,0.557,2.851,1.598c0.093,0.104,0.162,0.188,0.208,0.249
		c0.051,0.058,0.093,0.109,0.126,0.157l-1.746,1.906l-0.259-0.293c-0.525-0.594-0.989-0.924-1.392-0.989
		c-0.402-0.064-0.805,0.122-1.207,0.562c-0.296,0.322-0.442,0.674-0.441,1.056c0.001,0.373,0.153,0.73,0.456,1.072
		c0.408,0.462,1.239,0.56,2.492,0.293c0.013-0.004,0.023-0.007,0.032-0.007l1.688-0.344c1.194-0.257,2.13-0.288,2.808-0.093
		c0.673,0.19,1.333,0.651,1.98,1.384c0.883,0.998,1.308,2.049,1.273,3.151S442.977,438.014,442.023,439.056z M435.558,423.908
		l4.572-6.062l1.766,1.645l-2.925,3.878l2.456,2.286l2.722-3.61l1.684,1.567l-2.723,3.609l2.925,2.724l2.993-3.971l1.794,1.67
		l-4.642,6.154L435.558,423.908z M455.305,420.471l-3.271-1.531l-1.659,2.736l2.517,2.775l-1.474,2.43l-9.749-11.48l1.936-3.192
		l13.254,5.7L455.305,420.471z M448.892,403.27c0.938-0.32,1.99-0.146,3.159,0.521c0.117,0.067,0.206,0.122,0.268,0.164
		c0.064,0.036,0.118,0.071,0.164,0.104l-1.118,2.42l-0.328-0.188c-0.667-0.381-1.201-0.531-1.602-0.453
		c-0.4,0.079-0.729,0.397-0.987,0.954c-0.188,0.409-0.229,0.795-0.119,1.157c0.106,0.353,0.352,0.639,0.736,0.858
		c0.518,0.295,1.334,0.098,2.448-0.593c0.011-0.009,0.021-0.015,0.028-0.018l1.506-0.916c1.062-0.661,1.94-1.018,2.639-1.069
		c0.692-0.054,1.45,0.153,2.271,0.622c1.121,0.64,1.821,1.488,2.101,2.547c0.28,1.059,0.114,2.249-0.497,3.571
		c-0.636,1.376-1.43,2.22-2.383,2.53c-0.95,0.305-2.081,0.082-3.395-0.667c-0.139-0.079-0.362-0.222-0.672-0.429l-0.048-0.027v0.001
		v-0.001l0,0l1.18-2.552l0.792,0.452c0.758,0.432,1.324,0.623,1.697,0.574c0.371-0.059,0.676-0.346,0.914-0.861
		c0.249-0.539,0.315-1.019,0.198-1.438c-0.113-0.425-0.411-0.773-0.891-1.048c-0.368-0.21-0.729-0.292-1.081-0.245
		c-0.356,0.043-0.895,0.272-1.612,0.688l-1.437,0.832c-1.225,0.725-2.139,1.11-2.739,1.157c-0.599,0.04-1.245-0.138-1.939-0.533
		c-1.035-0.591-1.688-1.395-1.961-2.411c-0.271-1.017-0.131-2.124,0.423-3.322C447.194,404.384,447.955,403.589,448.892,403.27z"/>
	<polygon fill="#FDDC59" fill-opacity="0.9961" points="254.65,434.323 249.998,438.382 251.65,439.99 	"/>
	<path fill="#D40F0F" fill-opacity="0.9961" d="M462.617,442.075c0.969,0.629,8.396-2.829,12.914-1.572
		c3.146,0.875,3.944,3.725,4.141,5.38c0.085,0.723,0.057,1.221,0.057,1.221s6.781-22.634,7.427-25.147
		c0.646-2.517,2.905-12.26-3.875-13.203c-2.673-0.372-6.147,4.487-9.495,10.602C468.639,428.752,463.791,441.122,462.617,442.075
		L462.617,442.075z"/>
	<path fill="#D40F0F" fill-opacity="0.9961" d="M203.94,449.519c0.251,0.727,0.396,1.028,0.396,0.738
		c0-0.114-0.023-0.247-0.064-0.396c-0.139-0.507-0.487-1.2-0.862-1.986C203.617,448.547,203.796,449.103,203.94,449.519z"/>
	<path fill="#D40F0F" fill-opacity="0.9961" d="M205.248,440.477c6.393-1.776,14.611,1.779,14.611,1.779s-2.816-8.226-6.679-16.924
		c-1.056-2.379-2.19-4.792-3.366-7.083c-5.479-10.669-7.306-8.891-11.871-7.113c-4.566,1.779-4.455,6.484-1.716,13.598
		c1.535,3.986,3.896,12.079,5.675,18.111c0.086,0.291,0.169,0.574,0.252,0.855C202.193,442.327,202.954,441.115,205.248,440.477z"/>
	<path fill="#D40F0F" fill-opacity="0.9961" d="M203.409,447.875c-0.347-1.12-0.775-2.555-1.254-4.175
		C202.117,445.067,202.797,446.594,203.409,447.875z"/>
	
		<line fill="none" stroke="#FFFFFF" stroke-width="0" stroke-linecap="round" stroke-linejoin="round" x1="428.346" y1="249.536" x2="428.346" y2="249.54"/>
	<path fill="#FFFFFF" d="M318.461,399.145c-0.956,0-1.83,0.097-2.648,0.258l4.728-0.106
		C319.887,399.199,319.198,399.145,318.461,399.145z"/>
	<path fill="#FFFFFF" d="M360.035,422.754c1.91-1.342,4.203-2.237,7.264-2.237c12.21,0,15.765,14.249,15.481,14.249
		c0.017,0-0.072,0.08-0.244,0.221c6.835-5.442,13.438-11.708,19.403-18.628c4.588-5.323,8.799-11.03,12.444-17.046
		c-10.851,1.677-11.629,13.3-22.667,14.081c-9.566-0.604-11.662-8.146-17.084-12.004l-17.209,12.923L360.035,422.754z"/>
	<path fill="#FFFFFF" d="M283.523,386.821l5.441-17.098c-7.7-3.05-9.895-12.645-19.34-13.321h-12.126
		c0.319,7.301,1.694,14.454,3.921,21.369h8.205C276.842,377.771,279.793,382.75,283.523,386.821z"/>
	<path fill="#FFFFFF" d="M377.293,382.409c3.989,4.159,6.871,9.61,14.424,9.611c4.833,0,7.751-2.235,10.272-4.934l-16.021-10.324
		L377.293,382.409z"/>
	<path fill="#FFFFFF" d="M359.825,358.795c-5.559,4.057-7.911,11.855-16.946,11.855c-8.399,0-11.021-6.743-15.813-10.951
		l-11.183,8.027l3.259,10.07c9.94,0.453,11.491,10.698,19.412,13.51l5.486-15.682l5.229,14.718
		c6.375-3.764,8.429-12.571,18.029-12.571c0.729,0,1.413,0.054,2.061,0.149l3.269-10.14L359.825,358.795z"/>
	<path fill="#FFFFFF" d="M285.093,388.406c2.243,2.068,4.935,3.613,8.95,3.613c8.273,0,10.943-6.541,15.603-10.759l-6.891-4.498
		L285.093,388.406z"/>
	<polygon fill="#FFFFFF" points="342.88,456.139 342.869,456.138 342.882,456.142 342.896,456.138 342.882,456.139 	"/>
	<path fill="#FFFFFF" d="M382.025,435.393c-1.91,1.49-7.275,5.45-13.666,9.523C372.933,442.133,377.526,438.942,382.025,435.393z"/>
	<path fill="#FFFFFF" d="M367.298,399.145c-0.236,0-0.459,0.015-0.687,0.025l2.003,0.036
		C368.192,399.169,367.756,399.145,367.298,399.145z"/>
	<path fill="#FFFFFF" d="M316.359,444.273c-7.615-4.923-13.512-9.508-13.249-9.508c0.027,0,3.144-14.249,15.353-14.249
		c4.228,0,6.99,1.709,9.305,3.943l3.069-10.088l-18.452-13.725c-6.62,3.657-8.587,12.746-18.341,12.746
		c-11.52,0-13.035-11.962-22.611-13.991c3.075,5.062,6.552,9.904,10.314,14.484C291.909,426.259,304.173,436.697,316.359,444.273z"
		/>
	<path fill="#FFFFFF" d="M353.049,429.943l-8.897-6.075l-10.367,7.149c2.271,2.137,4.994,3.748,9.097,3.748
		C347.648,434.766,350.551,432.592,353.049,429.943z"/>
	<path fill="#FFFFFF" d="M415.102,356.504l-15.578,11.041c-0.084,0.066-0.167,0.134-0.251,0.198l5.354,16.339
		c2.836-3.271,5.869-6.311,11.508-6.311l8.31-0.321c2.166-6.815,3.506-13.86,3.821-21.048h-12.131
		C415.781,356.426,415.438,356.461,415.102,356.504z"/>
	<path fill="#FFFFFF" d="M428.346,249.54h-0.002v64.114l-12.141-0.806c-12.278,0.806-12.278,15.055-23.797,15.869
		c-12.899-0.814-12.899-15.063-25.108-15.063c-12.21,0-12.21,14.249-24.419,14.249s-12.209-14.249-24.418-14.249
		s-12.209,14.249-24.418,14.249c-12.21,0-13.177-13.443-24.419-14.249s-12.064,0.517-12.064,0.517l-0.142-63.324v84.184h12.206
		c12.209,0,12.209,14.248,24.418,14.248c0.714,0,1.383-0.053,2.018-0.145l6.584-17.992l3.946,10.619
		c2.943-3.426,5.991-6.73,11.87-6.73c12.21,0,12.21,14.248,24.419,14.248s12.209-14.248,24.419-14.248
		c7.155,0,10.118,4.894,13.803,8.944l4.756-12.833l6.813,18.102c11.26-0.725,11.583-14.213,23.465-14.213h12.209v17.973
		c0-0.055,0.002-0.109,0.002-0.164V249.54z"/>
	<path fill="#FFFFFF" d="M420.414,387.904c1.104-2.435,2.113-4.905,3.009-7.412L420.414,387.904z"/>
	<path fill="#D40F0F" fill-opacity="0.9961" stroke="#000000" d="M302.865,283.784c-0.205,0.688-0.755,2.476-1.276,3.679
		c0.182-0.048,0.371-0.095,0.57-0.141C302.323,285.818,302.696,284.382,302.865,283.784z"/>
	<path fill="#D40F0F" fill-opacity="0.9961" stroke="#000000" d="M315.203,290.572c0.064-0.138,0.128-0.275,0.192-0.417
		c-0.303-0.293-0.504-0.486-0.504-0.486S315.02,290.035,315.203,290.572z"/>
	<path fill="#D40F0F" fill-opacity="0.9961" stroke="#000000" d="M257.56,314.17c0,0,0.822-1.322,12.064-0.517
		s12.209,14.249,24.419,14.249c12.209,0,12.209-14.249,24.418-14.249s12.209,14.249,24.418,14.249s12.209-14.249,24.419-14.249
		c12.209,0,12.209,14.249,25.108,15.063c11.519-0.814,11.519-15.063,23.797-15.869l12.141,0.806V249.54v-0.005h-30.463h-8.489
		H257.416l-0.001,0.001l0.003,1.31L257.56,314.17z M291.876,264.367c-0.347,0.15-4.154-0.752-4.5-1.355
		c0-0.15,0.519-3.914,0.519-3.914S292.222,264.217,291.876,264.367z M412.672,301.867c0,0.603,4.152,2.409,4.152,2.409
		s-0.449,0.585-1.028,1.243c0.304,1.029,0.667,2.734,1.03,3.26c0.325,0.473-1.116-0.711-2.451-1.846
		c-0.433,0.344-0.811,0.53-1.012,0.355c-0.691-0.603-3.462-3.615-3.462-3.615s-0.692,2.41-2.076,2.41
		c-0.214,0-0.462-0.016-0.726-0.04c-0.666,0.819-2.666,3.241-3.24,3.491c-0.532,0.231-0.041-2.47,0.371-3.938
		c-0.34-0.066-0.559-0.114-0.559-0.114s2.076-3.615,1.385-3.615c-0.516,0-2.57,1.337-3.583,1.77c0.152,0.105,0.273,0.181,0.31,0.181
		c0.173,0-5.713,0.452-5.713,0.452s2.024-1.291,3.094-2.112l-0.337-0.294c0,0,5.537-1.957,5.537-4.818
		c0-2.86-2.25-5.723-12.287-6.174c-6.524-0.294-8.882,0.684-11.776,1.322c-0.094,1.412-0.153,2.975,0.005,3.939
		c0.347,2.107,2.423,3.613,2.423,3.764c0,0.151-3.289,0.603-3.808,0.603s-1.037,4.217-1.558,4.517
		c-0.519,0.303-4.326-3.914-4.326-3.914s-4.847,3.614-5.365,3.614s-0.519-2.861-0.519-2.861s-3.289,3.612-3.463,3.612
		c-0.172,0-1.211-3.161-1.211-3.161s-4.673,3.464-5.711,3.464c-1.039,0,1.211-3.312,1.211-3.312s-2.941,0-4.326,0.451
		c-1.384,0.452-3.115,3.162-3.634,3.463c-0.14,0.081-0.445,0.008-0.812-0.141c-1.126,0.778-3.382,2.295-4.024,2.407
		c-0.752,0.13,0.85-3.036,1.735-4.263l0.852-2.221l-4.488,0.302c-2.045,0.357-5.363,0.907-5.363,0.907s2.938-1.943,4.261-2.709
		l-0.641-1.059l5.885-0.301l-2.881-1.393l-0.062,0.192c-0.519-0.151-4.154-1.657-3.981-1.657c0.174,0,4.848-1.053,4.848-1.053
		l-0.041,0.128c0.209-0.232,0.451-0.399,0.732-0.435c1.211-0.149,5.019,2.41,5.019,2.41s13.326-0.302,13.154-1.506
		c-0.133-0.921-4.402-4.123-6.411-5.718c-7.355,1.39-20.356,5.55-26.991,5.425c-1.175-0.022-2.395-0.051-3.62-0.085
		c0.524,2.466,1.345,7.03,0.339,7.468c-1.385,0.602-4.847,3.012-5.539,3.012s0-4.217-1.385-3.012
		c-1.384,1.204-2.076,3.012-2.076,3.012s-1.384-1.808-2.076-1.808s-2.076,1.808-2.076,1.808s0-1.808-0.694-1.808
		c-0.692,0-4.153,3.013-4.153,3.013l-3.46-2.41c0,0-2.078,3.012-2.771,3.012s-4.845-2.408-4.845-2.408l-6.924,3.612
		c0,0,0-5.421-1.385-4.818c-1.384,0.603-8.999,0.603-8.999,0.603s-2.077,3.613-2.77,3.613c-0.242,0-0.737-0.37-1.25-0.848
		c-1.881,0.041-6.777-0.057-7.058-0.057c-0.346,0,4.846-3.463,5.538-3.765c0.064,0.057,0.392,0.569,0.777,1.2
		c0.582-0.576,1.08-1.54,0.607-1.951c-0.692-0.603-4.153,0-4.153-0.603c0-0.058-0.016-0.15-0.038-0.258
		c-1.923,0.056-8.296-0.05-8.442-0.05c-0.173,0,6.404-3.613,7.097-3.613c0.124,0.108,0.383,0.588,0.671,1.162
		c-0.191-0.8-0.274-1.458,0.021-1.458c0.692,0,3.461,0.604,3.461,0.604v-2.952l-4.845-3.373l6.576,1.807l-0.692,0.904h2.423
		l0.692,3.614h0.001c1.384,0,13.846,1.807,22.844,1.204c7.712-0.516,11.349-2.798,12.234-3.82c-0.874,0.081-2.107-0.133-3.755-0.85
		c-0.457-0.199-0.832-0.443-1.157-0.711c0.06,1.673-0.106,2.969-0.399,2.969c-0.691,0-8.999,1.807-8.999,0.602s0-2.408-0.692-2.408
		s-8.308,0.602-8.308,0.602l0.692-2.408l-6.923-1.205l2.77-2.41c0,0-11.077-4.215-10.385-4.215s4.847-2.408,4.847-2.408
		l-8.308-4.819h4.846c0,0-6.923-4.819-6.23-4.819s4.153,0.604,4.153,0.604l-2.076-4.818h2.076l-2.076-3.613l0.084-0.029
		l-0.084,0.024c0,0-1.904-4.216-1.731-4.216c0.153,0,3.859,2.614,4.68,3.194l0.513-0.179l2.077,3.012l-0.692-7.228l0.358,0.045
		c0.078-0.495,0.507-2.609,0.507-2.609s4.673,3.161,4.5,3.161c-0.036,0-0.267,0-0.602-0.004l0.082,0.01v6.022
		c0,0,2.077-3.614,2.077-4.216c0-0.463,3.675,1.205,5.062,1.455c0.215-0.16,0.384-0.25,0.476-0.25c0.16,0.278-0.06,0.325-0.476,0.25
		c-1.409,1.045-4.971,5.288-4.37,9.988c0.683,5.341,12.111,13.016,12.445,13.239c-0.219-0.718-0.318-2.094-0.159-4.657
		c0.347-5.57,6.404-6.323,7.097-6.625v0.009c0.691-0.301,1.384-7.077,1.384-7.228s-4.152,1.055-4.326-3.914
		c-0.173-4.969,7.095-1.957,7.095-1.957s1.213-2.561,3.289-2.711s4.847-2.711,5.365-3.012c0.52-0.301,2.942,4.668,2.942,4.668
		s2.769-1.807,3.115-1.957c0.346-0.15,0.174,3.012,1.039,3.162c0.864,0.15,5.192,0.902,5.537,4.064
		c0.348,3.162-3.979,2.259-3.979,2.259s-0.174,3.463-1.213,5.27c-1.002,1.743-0.233,2.092,0.755,4.813h59.987
		c6.923,0,13.152-2.409,13.152-6.023c0-3.613-11.076-4.215-15.229-3.011c-4.154,1.204-22.154,8.432-29.77,7.829
		c-7.615-0.602-14.537-4.818-15.229-9.033c-0.694-4.217,3.46-7.83,11.075-7.83c7.616,0,17.308,2.409,19.384,1.807
		c2.077-0.602,6.924-5.42,9-6.023c2.076-0.602,8.308-1.203,8.308-1.203l-2.769,1.807l8.999-1.807c0,0-6.923,6.625-13.846,8.432
		c-6.924,1.807-21.46,1.204-26.999,1.204s-8.308-0.603-7.615,3.011c0.691,3.614,4.847,6.023,8.307,5.42
		c3.463-0.602,13.847-3.612,13.847-3.612l-2.771-1.808l12.463-0.602c0,0-0.692-1.807,0-1.807c0.691,0,6.923,0.602,6.923,0.602
		s-4.154-1.807-3.463-1.807c0.692,0,3.463,0,9,0.603c5.539,0.603,17.308,2.409,16.615,7.227c-0.692,4.819-4.845,9.034-9.692,9.034
		c-4.847,0-8.999-1.205-8.999,0.604c0,1.807,5.539,3.011,8.999,3.011c3.461,0,7.616-2.409,8.308-2.409
		c0.692,0,2.077,3.613,2.769,3.613c0.692,0,4.847-1.204,4.847-1.204l-2.769,6.626l4.846,1.204c0,0-2.769,2.408-2.077,2.408
		c0.692,0,4.846,0,4.846,0.603C418.209,297.65,412.672,301.266,412.672,301.867z"/>
	<path fill="#0062BB" fill-opacity="0.9961" d="M399.273,367.743c0.084-0.064,0.167-0.132,0.251-0.198l-0.257,0.182L399.273,367.743
		z"/>
	<path fill="#0062BB" fill-opacity="0.9961" d="M288.964,369.724l0.618-1.942l-19.762-14.052l24.751-0.528l1.488-4.068
		c-0.635,0.092-1.304,0.145-2.018,0.145c-12.209,0-12.209-14.248-24.418-14.248h-12.206h-0.003v21.373h0.083h12.126
		C279.07,357.079,281.264,366.674,288.964,369.724z"/>
	<path fill="#0062BB" fill-opacity="0.9961" d="M416.135,335.029c-11.882,0-12.205,13.488-23.465,14.213l1.476,3.921l25.07,0.425
		l-4.114,2.916c0.336-0.043,0.679-0.078,1.033-0.102h12.131h0.078v-3.4v-17.973H416.135z"/>
	<path fill="#0062BB" fill-opacity="0.9961" d="M335.578,353.588l-8.513,6.111c4.793,4.208,7.414,10.951,15.813,10.951
		c9.035,0,11.388-7.799,16.946-11.855l-7.215-5.065l25.07-0.528l3.42-9.228c-3.685-4.051-6.647-8.944-13.803-8.944
		c-12.21,0-12.21,14.248-24.419,14.248s-12.209-14.248-24.419-14.248c-5.879,0-8.927,3.305-11.87,6.73l4.237,11.403L335.578,353.588
		z"/>
	<path fill="#0062BB" fill-opacity="0.9961" d="M269.624,399.145c0.636,0.046,1.234,0.137,1.808,0.258
		c9.576,2.029,11.092,13.991,22.611,13.991c9.754,0,11.721-9.089,18.341-12.746l-1.525-1.135l4.954-0.11
		c0.818-0.161,1.692-0.258,2.648-0.258c0.736,0,1.426,0.055,2.079,0.151l15.339-0.343l2.675-7.646
		c-7.921-2.812-9.472-13.057-19.412-13.51l3.964,12.25l-13.46-8.786c-4.659,4.218-7.329,10.759-15.603,10.759
		c-4.016,0-6.707-1.545-8.95-3.613l-2.626,1.73l1.056-3.315c-3.729-4.071-6.681-9.05-13.898-9.05h-8.205h-0.321l1.047,2.624
		l4.593,11.514L269.624,399.145z"/>
	<path fill="#0062BB" fill-opacity="0.9961" d="M404.627,384.082l1.955,5.965l-4.593-2.96c-2.521,2.698-5.439,4.934-10.272,4.934
		c-7.553-0.001-10.435-5.452-14.424-9.611l-11.873,7.728l3.938-12.216c-0.647-0.096-1.331-0.149-2.061-0.149
		c-9.601,0-11.654,8.808-18.029,12.571l3.044,8.57l14.299,0.257c0.228-0.011,0.45-0.025,0.687-0.025
		c0.458,0,0.894,0.024,1.316,0.062l8.719,0.156l-2.7,2.027c5.422,3.858,7.518,11.399,17.084,12.004
		c11.038-0.781,11.816-12.404,22.667-14.081c0.473-0.073,0.956-0.135,1.468-0.168l1.02-2.512l3.543-8.729l3.009-7.412l0.897-2.211
		l0.341-0.84l-0.217,0.009l-8.31,0.321C410.496,377.771,407.463,380.811,404.627,384.082z"/>
	<path fill="#0062BB" fill-opacity="0.9961" d="M303.11,434.766c-0.263,0,5.634,4.585,13.249,9.508
		c8.822,5.702,19.954,11.857,26.511,11.864c0.003,0,0.007,0.001,0.011,0.001h0.002c0.005,0,0.009-0.001,0.014-0.001
		c6.311-0.008,16.815-5.71,25.463-11.222c6.391-4.073,11.756-8.033,13.666-9.523c0.213-0.166,0.388-0.305,0.512-0.406
		c0.172-0.141,0.261-0.221,0.244-0.221c0.283,0-3.271-14.249-15.481-14.249c-3.061,0-5.354,0.896-7.264,2.237l4.689,15.162
		l-11.676-7.973c-2.498,2.648-5.401,4.822-10.168,4.822c-4.103,0-6.825-1.611-9.097-3.748l-10.142,6.993l4.124-13.551
		c-2.314-2.234-5.077-3.943-9.305-3.943C306.253,420.517,303.137,434.766,303.11,434.766z"/>
	<path fill="#FDC400" fill-opacity="0.9961" stroke="#000000" stroke-width="0.625" d="M314.839,296.24
		c-0.886,1.022-4.522,3.305-12.234,3.82c-8.998,0.603-21.46-1.204-22.844-1.204h-0.001l-0.692-3.614h-2.423l-0.691,0.904
		l-0.348-0.242v2.952c0,0-2.769-0.604-3.461-0.604c-0.295,0-0.212,0.658-0.021,1.458c0.514,1.024,1.122,2.355,1.232,2.451
		c0.027,0.023-0.194,0.039-0.558,0.05c0.022,0.107,0.038,0.2,0.038,0.258c0,0.603,3.461,0,4.153,0.603
		c0.473,0.411-0.025,1.375-0.607,1.951c0.652,1.066,1.473,2.47,1.473,2.564c0,0.029-0.281,0.047-0.73,0.057
		c0.513,0.478,1.008,0.848,1.25,0.848c0.692,0,2.77-3.613,2.77-3.613s7.615,0,8.999-0.603c1.385-0.603,1.385,4.818,1.385,4.818
		l6.924-3.612c0,0,4.152,2.408,4.845,2.408s2.771-3.012,2.771-3.012l3.46,2.41c0,0,3.461-3.013,4.153-3.013
		c0.694,0,0.694,1.808,0.694,1.808s1.384-1.808,2.076-1.808s2.076,1.808,2.076,1.808s0.692-1.808,2.076-3.012
		c1.385-1.205,0.692,3.012,1.385,3.012s4.154-2.41,5.539-3.012c1.006-0.438,0.186-5.002-0.339-7.468
		c-3.982-0.11-8.019-0.274-10.736-0.442C316.313,295.709,315.793,296.152,314.839,296.24z"/>
	<path fill="#FDC400" fill-opacity="0.9961" stroke="#000000" stroke-width="0.625" d="M308.31,290.604l-0.513,3.129
		c0,0-2.424-0.602-4.674-2.105c-1.059-0.709-1.155-2.552-0.965-4.305c-0.199,0.046-0.389,0.093-0.57,0.141
		c-0.262,0.605-0.517,1.064-0.714,1.15c-0.374,0.163-0.797,0.23-1.054-0.612c-0.334-0.224-11.763-7.898-12.445-13.239
		c-0.601-4.7,2.961-8.943,4.37-9.988c-1.388-0.25-5.062-1.918-5.062-1.455c0,0.602-2.077,4.216-2.077,4.216v-6.022l-0.082-0.01
		c-1.273-0.016-4.144-0.09-4.418-0.447c0-0.014,0.006-0.052,0.013-0.101l-0.358-0.045l0.692,7.228l-2.077-3.012l-0.513,0.179
		c0.102,0.072,0.167,0.118,0.167,0.118l-3.031,0.879l-0.084,0.029l2.076,3.613h-2.076l2.076,4.818c0,0-3.461-0.604-4.153-0.604
		s6.23,4.819,6.23,4.819h-4.846l8.308,4.819c0,0-4.154,2.408-4.847,2.408s10.385,4.215,10.385,4.215l-2.77,2.41l6.923,1.205
		l-0.692,2.408c0,0,7.615-0.602,8.308-0.602s0.692,1.203,0.692,2.408s8.308-0.602,8.999-0.602c0.293,0,0.459-1.296,0.399-2.969
		C308.559,293.551,308.267,291.917,308.31,290.604z"/>
	<path fill="#FDC400" fill-opacity="0.9961" stroke="#000000" stroke-width="0.625" d="M292.221,264.523
		c-0.092,0-0.261,0.09-0.476,0.25C292.161,264.849,292.381,264.802,292.221,264.523z"/>
	<path fill-opacity="0.9961" d="M400.902,303.674l-1.737-1.517c-1.069,0.821-3.094,2.112-3.094,2.112s5.886-0.452,5.713-0.452
		c-0.036,0-0.157-0.075-0.31-0.181C401.127,303.784,400.902,303.827,400.902,303.674z"/>
	<path fill-opacity="0.9961" d="M403.86,309.535c0.574-0.25,2.574-2.672,3.24-3.491c-0.973-0.089-2.177-0.31-2.869-0.447
		C403.819,307.065,403.327,309.767,403.86,309.535z"/>
	<path fill-opacity="0.9961" d="M414.375,306.934c1.335,1.135,2.776,2.318,2.451,1.846c-0.363-0.525-0.727-2.23-1.03-3.26
		C415.352,306.025,414.833,306.568,414.375,306.934z"/>
	<path fill-opacity="0.9961" d="M342.179,300.654c-1.323,0.766-4.261,2.709-4.261,2.709s3.318-0.55,5.363-0.907l-0.012,0.001
		L342.179,300.654z"/>
	<path fill-opacity="0.9961" d="M346.918,304.375c-0.886,1.227-2.487,4.393-1.735,4.263c0.643-0.112,2.898-1.629,4.024-2.407
		c-1-0.401-2.477-1.365-2.477-1.365L346.918,304.375z"/>
	<path fill-opacity="0.9961" d="M345.306,295.513l0.041-0.128c0,0-4.674,1.053-4.848,1.053c-0.173,0,3.463,1.506,3.981,1.657
		l0.062-0.192l-0.235-0.113C344.307,297.789,344.615,296.281,345.306,295.513z"/>
	<polygon fill-opacity="0.9961" points="276.645,295.242 277.337,294.338 270.761,292.531 275.606,295.904 275.953,296.146 	"/>
	<path fill-opacity="0.9961" d="M272.124,299.711c-0.288-0.574-0.547-1.054-0.671-1.162c-0.692,0-7.27,3.613-7.097,3.613
		c0.146,0,6.52,0.105,8.442,0.05c0.363-0.011,0.585-0.026,0.558-0.05C273.246,302.066,272.638,300.735,272.124,299.711z"/>
	<path fill-opacity="0.9961" d="M276.383,305.023c-0.386-0.631-0.713-1.144-0.777-1.2c-0.692,0.302-5.884,3.765-5.538,3.765
		c0.28,0,5.177,0.098,7.058,0.057c0.449-0.01,0.73-0.027,0.73-0.057C277.856,307.493,277.035,306.09,276.383,305.023z"/>
	<path fill-opacity="0.9961" d="M277.863,265.304c-0.82-0.58-4.526-3.194-4.68-3.194c-0.173,0,1.731,4.216,1.731,4.216l0.084-0.024
		l3.031-0.879C278.03,265.422,277.964,265.376,277.863,265.304z"/>
	<path fill-opacity="0.9961" d="M284.524,261.502c0.335,0.004,0.565,0.004,0.602,0.004c0.173,0-4.5-3.161-4.5-3.161
		s-0.429,2.114-0.507,2.609c-0.007,0.049-0.013,0.087-0.013,0.101C280.38,261.412,283.25,261.486,284.524,261.502z"/>
	<path fill-opacity="0.9961" d="M291.876,264.367c0.346-0.15-3.981-5.27-3.981-5.27s-0.519,3.764-0.519,3.914
		C287.722,263.615,291.53,264.518,291.876,264.367z"/>
	<path fill="#FDC400" fill-opacity="0.9961" stroke="#000000" stroke-width="0.625" d="M374.423,292.678
		c-7.441-0.301-7.441-2.861-12.98-2.861c-0.923,0-2.172,0.17-3.643,0.448c2.009,1.595,6.278,4.797,6.411,5.718
		c0.172,1.204-13.154,1.506-13.154,1.506s-3.808-2.56-5.019-2.41c-0.281,0.035-0.523,0.202-0.732,0.435
		c-0.691,0.769-0.999,2.276-0.999,2.276l0.235,0.113l2.881,1.393l-5.885,0.301l0.641,1.059l1.091,1.803l0.012-0.001l4.488-0.302
		l-0.852,2.221l-0.188,0.49c0,0,1.477,0.964,2.477,1.365c0.367,0.148,0.673,0.222,0.812,0.141c0.519-0.301,2.25-3.011,3.634-3.463
		c1.385-0.451,4.326-0.451,4.326-0.451s-2.25,3.312-1.211,3.312c1.038,0,5.711-3.464,5.711-3.464s1.039,3.161,1.211,3.161
		c0.174,0,3.463-3.612,3.463-3.612s0,2.861,0.519,2.861s5.365-3.614,5.365-3.614s3.808,4.217,4.326,3.914
		c0.521-0.3,1.039-4.517,1.558-4.517s3.808-0.451,3.808-0.603c0-0.15-2.076-1.656-2.423-3.764c-0.158-0.965-0.099-2.527-0.005-3.939
		C378.742,292.537,377.029,292.783,374.423,292.678z"/>
	<path fill="#FDC400" fill-opacity="0.9961" stroke="#000000" stroke-width="0.625" d="M413.364,296.446
		c-0.691,0,2.077-2.408,2.077-2.408l-4.846-1.204l2.769-6.626c0,0-4.154,1.204-4.847,1.204c-0.691,0-2.076-3.613-2.769-3.613
		c-0.691,0-4.847,2.409-8.308,2.409c-3.46,0-8.999-1.204-8.999-3.011c0-1.809,4.152-0.604,8.999-0.604c4.848,0,9-4.215,9.692-9.034
		c0.692-4.817-11.076-6.624-16.615-7.227c-5.537-0.603-8.308-0.603-9-0.603c-0.691,0,3.463,1.807,3.463,1.807
		s-6.231-0.602-6.923-0.602c-0.692,0,0,1.807,0,1.807l-12.463,0.602l2.771,1.808c0,0-10.384,3.011-13.847,3.612
		c-3.46,0.604-7.615-1.806-8.307-5.42c-0.692-3.613,2.076-3.011,7.615-3.011s20.075,0.603,26.999-1.204
		c6.923-1.807,13.846-8.432,13.846-8.432l-8.999,1.807l2.769-1.807c0,0-6.231,0.602-8.308,1.203c-2.076,0.604-6.923,5.422-9,6.023
		c-2.076,0.603-11.768-1.807-19.384-1.807c-7.615,0-11.77,3.613-11.075,7.83c0.691,4.215,7.613,8.432,15.229,9.033
		c7.615,0.603,25.615-6.625,29.77-7.829c4.152-1.204,15.229-0.603,15.229,3.011c0,3.614-6.229,6.023-13.152,6.023h-59.987
		c0.037,0.102,0.073,0.198,0.11,0.307c1.039,3.012,4.153,3.916,2.942,7.077c-0.658,1.72-1.879,1.031-2.885,0.023
		c0.656,1.072,1.034,2.335-0.058,3.138c-1.026,0.756-2.663,0.192-4.141-0.64l1.718,1.233c0,0,2.941,2.408-1.211,3.464
		c-4.154,1.054-5.713-1.355-5.885-1.657c-0.13-0.227-2.029-2.077-2.958-2.976c-0.064,0.142-0.128,0.279-0.192,0.417
		c0.384,1.121,1.013,2.998,1.246,3.914c0.059,0.23,0.059,0.461,0.003,0.676c2.718,0.168,6.754,0.332,10.736,0.442
		c1.226,0.034,2.445,0.062,3.62,0.085c6.635,0.125,19.636-4.035,26.991-5.425c1.471-0.278,2.72-0.448,3.643-0.448
		c5.539,0,5.539,2.561,12.98,2.861c2.605,0.105,4.319-0.141,5.878-0.484c2.895-0.639,5.252-1.616,11.776-1.322
		c10.037,0.451,12.287,3.313,12.287,6.174c0,2.861-5.537,4.818-5.537,4.818l0.337,0.294l1.737,1.517c0,0.153,0.226,0.11,0.572-0.037
		c1.013-0.433,3.067-1.77,3.583-1.77c0.691,0-1.385,3.615-1.385,3.615s0.219,0.048,0.559,0.114c0.692,0.138,1.896,0.358,2.869,0.447
		c0.264,0.024,0.512,0.04,0.726,0.04c1.384,0,2.076-2.41,2.076-2.41s2.771,3.013,3.462,3.615c0.201,0.175,0.579-0.012,1.012-0.355
		c0.458-0.365,0.977-0.908,1.421-1.414c0.579-0.658,1.028-1.243,1.028-1.243s-4.152-1.807-4.152-2.409
		c0-0.602,5.537-4.217,5.537-4.818C418.209,296.446,414.056,296.446,413.364,296.446z"/>
	<path fill="#FDC400" fill-opacity="0.9961" stroke="#000000" stroke-width="0.625" d="M316.452,295.162
		c0.056-0.215,0.056-0.445-0.003-0.676c-0.233-0.916-0.862-2.793-1.246-3.914c-0.184-0.537-0.312-0.903-0.312-0.903
		s0.201,0.193,0.504,0.486c0.929,0.898,2.828,2.749,2.958,2.976c0.172,0.302,1.73,2.711,5.885,1.657
		c4.152-1.056,1.211-3.464,1.211-3.464l-1.718-1.233c1.478,0.832,3.114,1.396,4.141,0.64c1.092-0.803,0.714-2.065,0.058-3.138
		c1.006,1.008,2.227,1.696,2.885-0.023c1.211-3.161-1.903-4.065-2.942-7.077c-0.037-0.108-0.073-0.205-0.11-0.307
		c-0.988-2.722-1.757-3.07-0.755-4.813c1.039-1.807,1.213-5.27,1.213-5.27s4.326,0.903,3.979-2.259
		c-0.345-3.162-4.673-3.914-5.537-4.064c-0.865-0.15-0.693-3.312-1.039-3.162c-0.347,0.15-3.115,1.957-3.115,1.957
		s-2.423-4.969-2.942-4.668c-0.519,0.301-3.289,2.861-5.365,3.012s-3.289,2.711-3.289,2.711s-7.268-3.012-7.095,1.957
		c0.174,4.969,4.326,3.764,4.326,3.914s-0.692,6.927-1.384,7.228v-0.009c-0.692,0.302-6.75,1.055-7.097,6.625
		c-0.159,2.563-0.06,3.939,0.159,4.657c0.257,0.843,0.68,0.775,1.054,0.612c0.197-0.086,0.452-0.545,0.714-1.15
		c0.521-1.203,1.071-2.99,1.276-3.679c-0.169,0.598-0.542,2.034-0.706,3.538c-0.19,1.753-0.094,3.596,0.965,4.305
		c2.25,1.504,4.674,2.105,4.674,2.105l0.513-3.129c-0.043,1.313,0.249,2.947,1.617,4.076c0.325,0.268,0.7,0.512,1.157,0.711
		c1.647,0.717,2.881,0.931,3.755,0.85C315.793,296.152,316.313,295.709,316.452,295.162z M321.405,267.752
		c1.419-0.129,2.645,0.934,3.477,1.189c-0.562,0.234-1.54,0.874-2.812,1.174c-1.273,0.299-2.104,0.044-3.231-0.551
		C317.711,268.969,319.986,267.881,321.405,267.752z M314.95,284.456c-0.345,0.452-0.863-5.872-1.037-6.626
		c0.174,0.303,3.634,0.151,3.808,0.151S315.298,284.005,314.95,284.456z M310.764,269.092c0.833-0.255,2.058-1.318,3.478-1.189
		c1.419,0.129,3.693,1.218,2.567,1.812c-1.128,0.596-1.959,0.85-3.232,0.551C312.305,269.967,311.326,269.326,310.764,269.092z"/>
	<path fill-opacity="0.9961" d="M316.809,269.715c1.126-0.595-1.148-1.684-2.567-1.812c-1.42-0.129-2.645,0.935-3.478,1.189
		c0.562,0.234,1.541,0.875,2.812,1.174C314.85,270.564,315.681,270.311,316.809,269.715z"/>
	<path fill-opacity="0.9961" d="M318.837,269.564c1.127,0.595,1.958,0.85,3.231,0.551c1.272-0.3,2.251-0.939,2.812-1.174
		c-0.832-0.256-2.058-1.318-3.477-1.189S317.711,268.969,318.837,269.564z"/>
	<path fill="#000039" fill-opacity="0.9961" stroke="#000000" stroke-width="0.375" d="M313.913,277.83
		c0.174,0.754,0.692,7.078,1.037,6.626c0.348-0.451,2.944-6.475,2.771-6.475S314.087,278.133,313.913,277.83z"/>
	<path fill="#FDC400" d="M338.554,391.307l-2.675,7.646l-15.339,0.343l-4.728,0.106l-4.954,0.11l1.525,1.135l18.452,13.725
		l-3.069,10.088l-4.124,13.551l10.142-6.993l10.367-7.149l8.897,6.075l11.676,7.973l-4.689-15.162l-2.611-8.441l17.209-12.923
		l2.7-2.027l-8.719-0.156l-2.003-0.036l-14.299-0.257l-3.044-8.57l-5.229-14.718L338.554,391.307z M350.94,400.617l20.851,0.356
		l-16.592,11.877l6.085,18.75l-17.145-11.159l-17.09,11.234l5.994-18.778l-16.647-11.805l20.85-0.444l6.801-18.531L350.94,400.617z"
		/>
	<polygon fill="#003017" fill-opacity="0.9961" points="337.245,400.648 316.396,401.093 333.043,412.897 327.049,431.676 
		344.139,420.441 361.283,431.601 355.198,412.851 371.79,400.974 350.94,400.617 344.046,382.117 	"/>
	<path fill="#FDC400" d="M269.821,353.729l19.762,14.052l-0.618,1.942l-5.441,17.098l-1.056,3.315l2.626-1.73l17.662-11.644
		l6.891,4.498l13.46,8.786l-3.964-12.25l-3.259-10.07l11.183-8.027l8.513-6.111l-24.751-0.425l-4.237-11.403l-3.946-10.619
		l-6.584,17.992l-1.488,4.068L269.821,353.729z M302.661,337.277l6.818,17.494l20.626,0.338l-16.412,11.23l6.019,17.73
		l-16.959-10.553l-16.906,10.624l5.93-17.758l-16.469-11.163l20.626-0.42L302.661,337.277z"/>
	<polygon fill="#003017" fill-opacity="0.9961" points="275.308,355.221 291.777,366.384 285.847,384.142 302.753,373.518 
		319.712,384.07 313.694,366.34 330.106,355.109 309.48,354.771 302.661,337.277 295.934,354.801 	"/>
	<path fill="#FDC400" d="M352.611,353.729l7.215,5.065l12.802,8.986l-3.269,10.14l-3.938,12.216l11.873-7.728l8.676-5.646
		l16.021,10.324l4.593,2.96l-1.955-5.965l-5.354-16.339l-0.006-0.017l0.257-0.182l15.578-11.041l4.114-2.916l-25.07-0.425
		l-1.476-3.921l-6.813-18.102l-4.756,12.833l-3.42,9.228L352.611,353.729z M385.871,337.277l6.906,17.494l20.892,0.338
		l-16.623,11.23l6.096,17.73l-17.178-10.553l-17.124,10.624l6.006-17.758l-16.68-11.163l20.891-0.42L385.871,337.277z"/>
	<polygon fill="#003017" fill-opacity="0.9961" points="374.846,366.384 368.84,384.142 385.964,373.518 403.142,384.07 
		397.046,366.34 413.669,355.109 392.778,354.771 385.871,337.277 379.057,354.801 358.166,355.221 	"/>
	<polygon points="450.822,427.644 449.028,425.974 446.034,429.944 443.11,427.221 445.832,423.611 444.149,422.044 
		441.427,425.654 438.971,423.368 441.896,419.49 440.13,417.846 435.558,423.908 446.18,433.798 	"/>
	<path d="M441.669,415.4l9.749,11.48l1.474-2.43l-2.517-2.775l1.659-2.736l3.271,1.531l1.554-2.562l-13.254-5.7L441.669,415.4z
		 M450.104,417.988l-1.227,2.023l-4.213-4.611L450.104,417.988z"/>
	<polygon points="453.064,414.36 453.064,414.359 453.064,414.359 	"/>
	<polygon points="397.524,452.661 401.197,462.626 394.24,454.123 391.777,455.221 396.933,469.514 396.934,469.514 
		399.189,468.509 395.509,458.524 402.496,467.035 404.944,465.945 399.787,451.652 	"/>
	<path d="M392.844,462.971c-0.442-1.55-0.862-2.766-1.259-3.647c-0.391-0.883-0.795-1.517-1.213-1.901
		c-0.579-0.529-1.176-0.844-1.789-0.942s-1.354,0.005-2.224,0.312s-1.529,0.696-1.979,1.17c-0.45,0.473-0.771,1.11-0.964,1.913
		c-0.146,0.569-0.151,1.344-0.017,2.324c0.133,0.974,0.422,2.239,0.866,3.796v-0.001c0.444,1.558,0.866,2.779,1.264,3.667
		c0.396,0.882,0.802,1.508,1.217,1.879c0.573,0.532,1.167,0.848,1.78,0.946s1.354-0.005,2.224-0.312s1.529-0.696,1.979-1.17
		c0.45-0.473,0.774-1.111,0.973-1.916c0.137-0.579,0.139-1.356,0.005-2.33C393.573,465.777,393.284,464.515,392.844,462.971z
		 M391.261,468.574c-0.071,0.696-0.444,1.164-1.119,1.401c-0.687,0.242-1.247,0.097-1.683-0.436
		c-0.431-0.54-0.991-2.018-1.681-4.432h0.001c-0.697-2.44-1.008-4.016-0.935-4.728c0.074-0.711,0.451-1.187,1.132-1.427
		c0.681-0.239,1.235-0.093,1.665,0.441c0.429,0.534,0.992,2.021,1.688,4.461C391.027,466.297,391.337,467.869,391.261,468.574z"/>
	<polygon points="416.842,441.354 419.744,446.46 416.754,448.558 413.852,443.452 411.684,444.974 419.084,457.992 
		421.252,456.471 417.898,450.57 420.888,448.472 424.242,454.372 426.41,452.851 419.01,439.832 	"/>
	<polygon points="412.486,447.379 411.418,445.133 403.883,449.557 404.951,451.802 407.576,450.261 412.984,461.629 
		412.984,461.63 415.267,460.289 409.861,448.92 	"/>
	<path d="M446.185,408.975c0.272,1.017,0.926,1.82,1.961,2.411c0.694,0.396,1.341,0.573,1.939,0.533
		c0.601-0.047,1.515-0.433,2.739-1.157l1.437-0.832c0.718-0.415,1.256-0.645,1.612-0.688c0.353-0.047,0.713,0.035,1.081,0.245
		c0.479,0.274,0.777,0.623,0.891,1.048c0.117,0.419,0.051,0.898-0.198,1.438c-0.238,0.516-0.543,0.803-0.914,0.861
		c-0.373,0.049-0.939-0.143-1.697-0.574l-0.792-0.452l-1.18,2.552l0.048,0.027c0.31,0.207,0.533,0.35,0.672,0.429
		c1.313,0.749,2.444,0.972,3.395,0.667c0.953-0.311,1.747-1.154,2.383-2.53c0.611-1.322,0.777-2.513,0.497-3.571
		c-0.279-1.059-0.979-1.907-2.101-2.547c-0.821-0.469-1.579-0.676-2.271-0.622c-0.698,0.052-1.577,0.408-2.639,1.069l-1.506,0.916
		c-0.008,0.003-0.018,0.009-0.028,0.018c-1.114,0.69-1.931,0.888-2.448,0.593c-0.385-0.22-0.63-0.506-0.736-0.858
		c-0.109-0.362-0.069-0.748,0.119-1.157c0.258-0.557,0.587-0.875,0.987-0.954c0.4-0.078,0.935,0.072,1.602,0.453l0.328,0.188
		l1.118-2.42c-0.046-0.033-0.1-0.068-0.164-0.104c-0.062-0.042-0.15-0.097-0.268-0.164c-1.169-0.667-2.222-0.841-3.159-0.521
		c-0.937,0.319-1.698,1.114-2.284,2.383C446.054,406.851,445.913,407.958,446.185,408.975z"/>
	<polygon points="323.145,478.764 330.337,479.535 330.563,476.947 325.922,476.45 326.289,472.229 330.508,472.683 
		330.719,470.254 326.5,469.802 326.809,466.259 331.341,466.745 331.562,464.197 324.477,463.437 	"/>
	<path d="M300.93,458.211l-2.655,9.909c-0.311,1.156-0.644,1.897-1,2.225c-0.352,0.329-0.843,0.389-1.476,0.18
		c-0.639-0.211-1.03-0.56-1.175-1.046c-0.138-0.491-0.055-1.305,0.25-2.441l2.666-9.947l-2.476-0.819l-2.729,10.187
		c-0.488,1.821-0.52,3.201-0.096,4.142c0.432,0.936,1.406,1.654,2.924,2.157c0.805,0.266,1.535,0.368,2.19,0.307
		c0.656-0.067,1.232-0.302,1.728-0.701c0.328-0.267,0.602-0.61,0.821-1.032c0.227-0.426,0.473-1.134,0.738-2.124l2.729-10.187
		L300.93,458.211z"/>
	<path d="M292.722,457.035c-0.157-0.815-0.449-1.474-0.875-1.974s-1.065-0.931-1.918-1.29s-1.588-0.509-2.205-0.448
		s-1.226,0.339-1.825,0.834c-0.432,0.346-0.869,0.949-1.311,1.811c-0.44,0.855-0.921,2.047-1.442,3.573
		c-0.522,1.527-0.875,2.775-1.059,3.746c-0.182,0.965-0.214,1.735-0.097,2.312c0.152,0.812,0.441,1.47,0.867,1.97
		s1.064,0.931,1.917,1.29s1.588,0.509,2.205,0.448s1.229-0.337,1.834-0.831c0.431-0.359,0.866-0.968,1.306-1.823
		c0.442-0.861,0.922-2.05,1.439-3.563c0.52-1.521,0.87-2.764,1.052-3.728C292.798,458.4,292.835,457.625,292.722,457.035z
		 M289.094,462.05c-0.817,2.394-1.453,3.84-1.906,4.341c-0.445,0.496-0.999,0.604-1.661,0.326c-0.673-0.284-1.031-0.785-1.075-1.502
		c-0.036-0.721,0.351-2.266,1.159-4.634c0.817-2.394,1.454-3.843,1.909-4.35c0.456-0.507,1.017-0.619,1.685-0.338
		c0.667,0.281,1.021,0.779,1.059,1.494S289.911,459.657,289.094,462.05z"/>
	<polygon points="310.761,460.904 308.715,471.431 307.31,460.046 304.72,459.402 301.694,474.428 304.065,475.018 306.115,464.472 
		307.542,475.882 310.115,476.521 313.141,461.496 	"/>
	<path d="M321.744,464.069c-0.27-0.411-0.643-0.739-1.118-0.984c-0.47-0.243-1.122-0.438-1.958-0.583l-4.099-0.714l-2.144,15.213
		l3.512,0.611c1.381,0.24,2.367,0.287,2.959,0.14c0.598-0.151,1.098-0.514,1.5-1.084c0.414-0.569,0.752-1.286,1.014-2.151
		c0.263-0.872,0.547-2.388,0.851-4.548c0.236-1.673,0.309-2.922,0.219-3.747C322.397,465.391,322.152,464.673,321.744,464.069z
		 M319.569,470.27c-0.214,1.515-0.42,2.608-0.618,3.282c-0.197,0.668-0.442,1.179-0.734,1.532c-0.168,0.2-0.374,0.326-0.618,0.378
		s-0.653,0.028-1.229-0.072l-1.129-0.196l1.515-10.747l1.094,0.19c0.497,0.086,0.856,0.186,1.078,0.299
		c0.228,0.106,0.403,0.259,0.527,0.456c0.236,0.392,0.366,0.934,0.391,1.626C319.868,467.71,319.777,468.794,319.569,470.27z"/>
	<path d="M381.042,460.025c-0.728-0.503-1.756-0.575-3.085-0.215l-4.354,1.178l3.279,14.961l2.492-0.675l-1.391-6.344l1.827-0.494
		c1.276-0.346,2.145-0.961,2.605-1.848c0.465-0.894,0.535-2.079,0.211-3.556C382.298,461.53,381.77,460.527,381.042,460.025z
		 M380.042,465.647c-0.241,0.422-0.752,0.738-1.533,0.949l-1.049,0.284l-0.978-4.459l1.084-0.293c0.811-0.22,1.394-0.206,1.75,0.041
		c0.361,0.238,0.633,0.771,0.814,1.601C380.312,464.593,380.281,465.219,380.042,465.647z"/>
	<polygon points="271.613,444.503 268.781,449.658 265.763,447.61 268.594,442.456 266.406,440.972 259.186,454.114 261.375,455.6 
		264.647,449.642 267.665,451.689 264.394,457.646 266.582,459.131 273.802,445.987 	"/>
	<polygon points="278.595,455.526 279.972,452.224 284.201,454.4 285.155,452.114 278.581,448.731 272.757,462.702 272.757,462.703 
		275.1,463.909 277.664,457.758 281.657,459.812 282.588,457.581 	"/>
	<polygon points="234.63,425.033 232.045,420.723 235.221,418.373 237.571,422.292 239.398,420.939 237.048,417.02 239.714,415.047 
		242.239,419.257 244.156,417.838 240.209,411.256 228.676,419.793 232.683,426.475 	"/>
	<polygon points="358.98,463.635 350.487,464.409 350.674,466.94 353.633,466.671 354.58,479.486 357.155,479.251 356.207,466.436 
		359.166,466.166 	"/>
	<path d="M372.21,461.327l-2.509,0.484l1.593,10.187c0.187,1.188,0.185,2.018-0.003,2.487c-0.184,0.468-0.6,0.765-1.25,0.891
		c-0.656,0.126-1.146,0.008-1.471-0.355c-0.32-0.371-0.571-1.142-0.754-2.311l-1.6-10.226l-2.545,0.492l1.639,10.472
		c0.293,1.871,0.817,3.123,1.573,3.755c0.762,0.625,1.923,0.786,3.483,0.484c0.827-0.159,1.521-0.429,2.083-0.809
		c0.562-0.386,0.983-0.88,1.267-1.482c0.187-0.401,0.294-0.845,0.321-1.331c0.032-0.493-0.031-1.249-0.19-2.267L372.21,461.327z"/>
	<polygon points="347.138,464.505 347.688,479.892 350.269,479.777 349.718,464.392 	"/>
	<path d="M340.117,465.617c-0.312-0.372-0.717-0.648-1.216-0.829c-0.492-0.18-1.161-0.286-2.006-0.32l-4.146-0.166l-0.498,15.388
		v0.001l3.552,0.142c1.396,0.057,2.381-0.027,2.953-0.252c0.577-0.23,1.035-0.655,1.374-1.275c0.35-0.62,0.608-1.377,0.775-2.271
		c0.167-0.9,0.286-2.442,0.357-4.628c0.055-1.691-0.007-2.941-0.185-3.749C340.906,466.843,340.586,466.163,340.117,465.617z
		 M338.621,472.061c-0.05,1.532-0.137,2.646-0.262,3.342c-0.124,0.688-0.312,1.228-0.565,1.618
		c-0.146,0.221-0.336,0.373-0.573,0.457c-0.236,0.084-0.646,0.114-1.228,0.091l-1.142-0.046l0.352-10.871l1.106,0.044
		c0.504,0.021,0.871,0.071,1.103,0.154c0.238,0.076,0.429,0.204,0.573,0.383c0.276,0.358,0.464,0.879,0.562,1.563
		S338.67,470.568,338.621,472.061z"/>
	<polygon points="239.786,410.589 238.624,408.049 233.779,410.786 232.176,407.283 237.021,404.546 235.859,402.006 
		223.505,408.985 224.667,411.525 230.267,408.362 231.869,411.864 226.271,415.028 227.433,417.568 	"/>
	<path d="M440.251,431.304c-0.678-0.195-1.613-0.164-2.808,0.093l-1.688,0.344c-0.009,0-0.02,0.003-0.032,0.007
		c-1.253,0.267-2.084,0.169-2.492-0.293c-0.303-0.342-0.455-0.699-0.456-1.072c-0.001-0.382,0.146-0.733,0.441-1.056
		c0.402-0.439,0.805-0.626,1.207-0.562c0.402,0.065,0.866,0.396,1.392,0.989l0.259,0.293l1.746-1.906
		c-0.033-0.048-0.075-0.1-0.126-0.157c-0.046-0.062-0.115-0.145-0.208-0.249c-0.921-1.041-1.871-1.574-2.851-1.598
		c-0.98-0.023-1.928,0.465-2.844,1.464c-0.864,0.944-1.312,1.946-1.341,3.007c-0.029,1.06,0.363,2.051,1.18,2.974
		c0.546,0.618,1.109,1.013,1.689,1.183c0.584,0.166,1.56,0.119,2.928-0.141l1.6-0.289c0.799-0.143,1.374-0.173,1.726-0.089
		c0.347,0.079,0.666,0.282,0.956,0.61c0.378,0.428,0.562,0.863,0.55,1.307c-0.008,0.438-0.206,0.869-0.596,1.295
		c-0.372,0.406-0.743,0.572-1.111,0.498c-0.368-0.084-0.852-0.463-1.448-1.139l-0.624-0.706l-1.843,2.012l0.038,0.043
		c0.235,0.304,0.407,0.518,0.517,0.642c1.034,1.17,2.046,1.775,3.033,1.818c0.993,0.038,1.985-0.485,2.979-1.569
		c0.954-1.042,1.448-2.114,1.482-3.217s-0.391-2.153-1.273-3.151C441.584,431.955,440.924,431.494,440.251,431.304z"/>
	<polygon points="432.684,444.421 428.964,447.543 426.664,444.16 430.047,441.321 428.724,439.375 425.341,442.213 423.41,439.372 
		427.044,436.323 425.656,434.28 419.976,439.047 428.327,451.335 434.094,446.496 	"/>
	<polygon points="251.03,426.712 247.039,430.812 244.638,427.928 248.628,423.827 246.886,421.735 236.713,432.19 238.454,434.282 
		243.066,429.543 245.467,432.428 240.856,437.167 242.597,439.259 252.771,428.804 	"/>
	<path d="M250.865,447.445l6.77-13.886l-2.604-2.538l-11.485,9.29l1.982,1.932l2.797-2.421l2.232,2.175l-1.782,3.411
		L250.865,447.445z M249.998,438.382l4.651-4.059l-3,5.667L249.998,438.382z"/>
	<polygon points="262.491,440.95 264.887,442.901 266.239,440.854 259.366,435.254 258.015,437.302 260.409,439.253 
		253.566,449.622 255.648,451.318 	"/>
</g>
</svg>
