<?xml version="1.0" encoding="utf-8"?>
<!-- Generator: Adobe Illustrator 16.0.0, SVG Export Plug-In . SVG Version: 6.00 Build 0)  -->
<svg version="1.2" baseProfile="tiny"
	 id="svg732" xmlns:cc="http://creativecommons.org/ns#" xmlns:dc="http://purl.org/dc/elements/1.1/" xmlns:rdf="http://www.w3.org/1999/02/22-rdf-syntax-ns#"
	 xmlns="http://www.w3.org/2000/svg" xmlns:xlink="http://www.w3.org/1999/xlink" x="0px" y="0px" width="512px" height="512px"
	 viewBox="0 0 512 512" xml:space="preserve">
<g id="flag">
	<rect id="rect851" x="0" fill="#6FDCFF" width="512" height="512"/>
	<g id="g766" transform="matrix(14.638 0 0 11.134 -5630.7 -2748.3)">
		<path id="path760" fill="#FFE400" d="M387.6,291.56c0.237,0.305,0.159,0.818,0.818,0.752c1.006,0,1.035-0.809,1.035-1.374
			c0-0.564-1.499-1.353-1.568-2.183c-0.07-0.831,0.346-1.063,0.694-1.063c0.346,0,0.589,0.266,0.589,0.498
			c0,0.232-0.173,0.299-0.416,0.299s0.104-0.166-0.104-0.299s-0.347,0.199-0.347,0.399c0,0.199,0.52,0.265,0.867,0.116
			c0.07,0.448,0.104,0.482-0.382,1.245c0.348-0.299,0.381-0.365,0.764-0.199c-0.382-0.432-0.096-1.312-0.083-1.536
			c0.013-0.224-0.073-0.49-0.229-0.623c-0.278-0.332-0.885-0.347-1.249-0.133c-0.53,0.311-0.556,1.228-0.417,1.528l1.469,1.98
			c0.104,0.233,0.14,0.88-0.484,0.913c-0.659,0.066-0.885-1.115-1.002-1.508c-0.157,0.429-0.332,1.613-0.991,1.547
			c-0.625-0.033-0.745-0.68-0.641-0.913l1.509-2.019c0.138-0.3,0.112-1.217-0.418-1.528c-0.364-0.214-0.97-0.199-1.248,0.133
			c-0.156,0.133-0.243,0.399-0.23,0.623c0.013,0.224,0.299,1.104-0.083,1.536c0.383-0.166,0.417-0.1,0.764,0.199
			c-0.486-0.763-0.451-0.797-0.382-1.245c0.347,0.149,0.868,0.083,0.868-0.116c0-0.2-0.14-0.532-0.348-0.399
			c-0.207,0.133,0.139,0.299-0.103,0.299c-0.244,0-0.417-0.067-0.417-0.299c0-0.232,0.243-0.498,0.59-0.498s0.763,0.232,0.693,1.063
			c-0.069,0.83-1.607,1.736-1.607,2.3c0,0.565,0.107,1.257,1.113,1.257C387.283,292.378,387.361,291.865,387.6,291.56L387.6,291.56z
			"/>
		<path id="path761" fill="#FFE400" d="M387.52,279.71c0.237-0.305,0.432-1.209,1.091-1.143c1.006,0,1.387,0.731,1.387,1.296
			c0,0.564-2.046,5.181-2.115,6.011c-0.07,0.831,0.346,1.063,0.694,1.063c0.346,0,0.589-0.266,0.589-0.498s-0.173-0.299-0.416-0.299
			c-0.243,0,0.104,0.166-0.104,0.299c-0.208,0.133-0.347-0.199-0.347-0.399c0-0.199,0.52-0.265,0.867-0.116
			c0.07-0.448,0.104-0.482-0.382-1.245c0.348,0.299,0.381,0.365,0.764,0.199c-0.382,0.432-0.096,1.312-0.083,1.536
			c0.013,0.224-0.073,0.49-0.229,0.623c-0.278,0.332-0.885,0.347-1.249,0.133c-0.53-0.311-0.556-1.228-0.417-1.528l1.977-5.613
			c0.104-0.233-0.173-0.997-0.797-1.03c-0.659-0.066-0.885,0.842-1.002,1.235l0.898-0.086c0,0,0.035,0.182,0,0.3
			c-0.464,0.04-0.898,0.151-0.898,0.151l-0.034,0.598h0.443l-0.035,0.265c0,0-0.374-0.033-0.408,0
			c-0.035,0.033-0.07,0.599-0.07,0.599s-0.069,0.033-0.144,0.033c-0.076,0-0.145-0.033-0.145-0.033s-0.035-0.566-0.069-0.599
			c-0.035-0.033-0.409,0-0.409,0l-0.034-0.265h0.443l-0.035-0.598c0,0-0.434-0.111-0.898-0.151c-0.034-0.118,0-0.3,0-0.3
			l0.898,0.086c-0.117-0.393-0.343-1.301-1.001-1.235c-0.625,0.033-0.902,0.797-0.798,1.03l1.978,5.613
			c0.138,0.3,0.112,1.217-0.418,1.528c-0.364,0.214-0.97,0.199-1.248-0.133c-0.156-0.133-0.243-0.399-0.23-0.623
			c0.013-0.224,0.299-1.104-0.083-1.536c0.383,0.166,0.417,0.1,0.764-0.199c-0.486,0.763-0.451,0.797-0.382,1.245
			c0.347-0.149,0.868-0.083,0.868,0.116c0,0.2-0.14,0.532-0.348,0.399c-0.207-0.133,0.139-0.299-0.103-0.299
			c-0.244,0-0.417,0.067-0.417,0.299s0.243,0.498,0.59,0.498c0.347,0,0.763-0.232,0.693-1.063c-0.069-0.83-2.115-5.447-2.115-6.011
			c0-0.565,0.381-1.296,1.387-1.296C387.047,278.501,387.281,279.405,387.52,279.71L387.52,279.71z"/>
		<path id="path762" fill="#FFE400" d="M387.52,277.422c0.237,0.305,0.432,1.209,1.091,1.143c1.006,0,1.387-0.731,1.387-1.296
			c0-0.564-2.046-5.181-2.115-6.011c-0.07-0.831,0.346-1.063,0.694-1.063c0.346,0,0.589,0.266,0.589,0.498
			c0,0.232-0.173,0.299-0.416,0.299c-0.243,0,0.104-0.166-0.104-0.299c-0.208-0.133-0.347,0.199-0.347,0.399
			c0,0.199,0.52,0.265,0.867,0.116c0.07,0.448,0.104,0.482-0.382,1.245c0.348-0.299,0.381-0.365,0.764-0.199
			c-0.382-0.432-0.096-1.312-0.083-1.536c0.013-0.224-0.073-0.49-0.229-0.623c-0.278-0.332-0.885-0.347-1.249-0.133
			c-0.53,0.311-0.556,1.228-0.417,1.528l1.977,5.613c0.104,0.233-0.173,0.997-0.797,1.03c-0.659,0.066-0.885-0.842-1.002-1.235
			l0.898,0.086c0,0,0.035-0.182,0-0.3c-0.464-0.04-0.898-0.151-0.898-0.151l-0.034-0.598h0.443l-0.035-0.265
			c0,0-0.374,0.033-0.408,0c-0.035-0.033-0.07-0.599-0.07-0.599s-0.069-0.033-0.144-0.033c-0.076,0-0.145,0.033-0.145,0.033
			s-0.035,0.566-0.069,0.599c-0.035,0.033-0.409,0-0.409,0l-0.034,0.265h0.443l-0.035,0.598c0,0-0.434,0.111-0.898,0.151
			c-0.034,0.118,0,0.3,0,0.3l0.898-0.086c-0.117,0.393-0.343,1.301-1.001,1.235c-0.625-0.033-0.902-0.797-0.798-1.03l1.978-5.613
			c0.138-0.3,0.112-1.217-0.418-1.528c-0.364-0.214-0.97-0.199-1.248,0.133c-0.156,0.133-0.243,0.399-0.23,0.623
			c0.013,0.224,0.299,1.104-0.083,1.536c0.383-0.166,0.417-0.1,0.764,0.199c-0.486-0.763-0.451-0.797-0.382-1.245
			c0.347,0.149,0.868,0.083,0.868-0.116c0-0.2-0.14-0.532-0.348-0.399c-0.207,0.133,0.139,0.299-0.103,0.299
			c-0.244,0-0.417-0.067-0.417-0.299c0-0.232,0.243-0.498,0.59-0.498c0.347,0,0.763,0.232,0.693,1.063
			c-0.069,0.83-2.115,5.447-2.115,6.011c0,0.565,0.381,1.296,1.387,1.296C387.047,278.631,387.281,277.727,387.52,277.422
			L387.52,277.422z"/>
		<path id="path763" fill="#FFE400" d="M387.52,262.21c0.237-0.305,0.432-1.209,1.091-1.143c1.006,0,1.387,0.731,1.387,1.296
			c0,0.564-2.046,5.181-2.115,6.011c-0.07,0.831,0.346,1.063,0.694,1.063c0.346,0,0.589-0.266,0.589-0.498s-0.173-0.299-0.416-0.299
			c-0.243,0,0.104,0.166-0.104,0.299c-0.208,0.133-0.347-0.199-0.347-0.399c0-0.199,0.52-0.265,0.867-0.116
			c0.07-0.448,0.104-0.482-0.382-1.245c0.348,0.299,0.381,0.365,0.764,0.199c-0.382,0.432-0.096,1.312-0.083,1.536
			c0.013,0.224-0.073,0.49-0.229,0.623c-0.278,0.332-0.885,0.347-1.249,0.133c-0.53-0.311-0.556-1.228-0.417-1.528l1.977-5.613
			c0.104-0.233-0.173-0.997-0.797-1.03c-0.659-0.066-0.885,0.842-1.002,1.235l0.898-0.086c0,0,0.035,0.182,0,0.3
			c-0.464,0.04-0.898,0.151-0.898,0.151l-0.034,0.598h0.443l-0.035,0.265c0,0-0.374-0.033-0.408,0
			c-0.035,0.033-0.07,0.599-0.07,0.599s-0.069,0.033-0.144,0.033c-0.076,0-0.145-0.033-0.145-0.033s-0.035-0.566-0.069-0.599
			c-0.035-0.033-0.409,0-0.409,0l-0.034-0.265h0.443l-0.035-0.598c0,0-0.434-0.111-0.898-0.151c-0.034-0.118,0-0.3,0-0.3
			l0.898,0.086c-0.117-0.393-0.343-1.301-1.001-1.235c-0.625,0.033-0.902,0.797-0.798,1.03l1.978,5.613
			c0.138,0.3,0.112,1.217-0.418,1.528c-0.364,0.214-0.97,0.199-1.248-0.133c-0.156-0.133-0.243-0.399-0.23-0.623
			c0.013-0.224,0.299-1.104-0.083-1.536c0.383,0.166,0.417,0.1,0.764-0.199c-0.486,0.763-0.451,0.797-0.382,1.245
			c0.347-0.149,0.868-0.083,0.868,0.116c0,0.2-0.14,0.532-0.348,0.399c-0.207-0.133,0.139-0.299-0.103-0.299
			c-0.244,0-0.417,0.067-0.417,0.299s0.243,0.498,0.59,0.498c0.347,0,0.763-0.232,0.693-1.063c-0.069-0.83-2.115-5.447-2.115-6.011
			c0-0.565,0.381-1.296,1.387-1.296C387.047,261.001,387.281,261.905,387.52,262.21L387.52,262.21z"/>
		<path id="path764" fill="#FFE400" d="M387.52,259.922c0.237,0.305,0.432,1.209,1.091,1.143c1.006,0,1.387-0.731,1.387-1.296
			c0-0.564-2.046-5.181-2.115-6.011c-0.07-0.831,0.346-1.063,0.694-1.063c0.346,0,0.589,0.266,0.589,0.498
			c0,0.232-0.173,0.299-0.416,0.299c-0.243,0,0.104-0.166-0.104-0.299c-0.208-0.133-0.347,0.199-0.347,0.399
			c0,0.199,0.52,0.265,0.867,0.116c0.07,0.448,0.104,0.482-0.382,1.245c0.348-0.299,0.381-0.365,0.764-0.199
			c-0.382-0.432-0.096-1.312-0.083-1.536c0.013-0.224-0.073-0.49-0.229-0.623c-0.278-0.332-0.885-0.347-1.249-0.133
			c-0.53,0.311-0.556,1.228-0.417,1.528l1.977,5.613c0.104,0.233-0.173,0.997-0.797,1.03c-0.659,0.066-0.885-0.842-1.002-1.235
			l0.898,0.086c0,0,0.035-0.182,0-0.3c-0.464-0.04-0.898-0.151-0.898-0.151l-0.034-0.598h0.443l-0.035-0.265
			c0,0-0.374,0.033-0.408,0c-0.035-0.033-0.07-0.599-0.07-0.599s-0.069-0.033-0.144-0.033c-0.076,0-0.145,0.033-0.145,0.033
			s-0.035,0.566-0.069,0.599c-0.035,0.033-0.409,0-0.409,0l-0.034,0.265h0.443l-0.035,0.598c0,0-0.434,0.111-0.898,0.151
			c-0.034,0.118,0,0.3,0,0.3l0.898-0.086c-0.117,0.393-0.343,1.301-1.001,1.235c-0.625-0.033-0.902-0.797-0.798-1.03l1.978-5.613
			c0.138-0.3,0.112-1.217-0.418-1.528c-0.364-0.214-0.97-0.199-1.248,0.133c-0.156,0.133-0.243,0.399-0.23,0.623
			c0.013,0.224,0.299,1.104-0.083,1.536c0.383-0.166,0.417-0.1,0.764,0.199c-0.486-0.763-0.451-0.797-0.382-1.245
			c0.347,0.149,0.868,0.083,0.868-0.116c0-0.2-0.14-0.532-0.348-0.399c-0.207,0.133,0.139,0.299-0.103,0.299
			c-0.244,0-0.417-0.067-0.417-0.299c0-0.232,0.243-0.498,0.59-0.498c0.347,0,0.763,0.232,0.693,1.063
			c-0.069,0.83-2.115,5.447-2.115,6.011c0,0.565,0.381,1.296,1.387,1.296C387.047,261.131,387.281,260.227,387.52,259.922
			L387.52,259.922z"/>
		<path id="path765" fill="#FFE400" d="M387.6,248.07c0.237-0.305,0.159-0.818,0.818-0.752c1.006,0,1.035,0.809,1.035,1.374
			c0,0.564-1.499,1.353-1.568,2.183c-0.07,0.831,0.346,1.063,0.694,1.063c0.346,0,0.589-0.266,0.589-0.498s-0.173-0.299-0.416-0.299
			s0.104,0.166-0.104,0.299c-0.208,0.133-0.347-0.199-0.347-0.399c0-0.199,0.52-0.265,0.867-0.116
			c0.07-0.448,0.104-0.482-0.382-1.245c0.348,0.299,0.381,0.365,0.764,0.199c-0.382,0.432-0.096,1.312-0.083,1.536
			c0.013,0.224-0.073,0.49-0.229,0.623c-0.278,0.332-0.885,0.347-1.249,0.133c-0.53-0.311-0.556-1.228-0.417-1.528l1.469-1.98
			c0.104-0.233,0.14-0.88-0.484-0.913c-0.659-0.066-0.885,1.115-1.002,1.508c-0.157-0.429-0.332-1.613-0.991-1.547
			c-0.625,0.033-0.745,0.68-0.641,0.913l1.509,2.019c0.138,0.3,0.112,1.217-0.418,1.528c-0.364,0.214-0.97,0.199-1.248-0.133
			c-0.156-0.133-0.243-0.399-0.23-0.623c0.013-0.224,0.299-1.104-0.083-1.536c0.383,0.166,0.417,0.1,0.764-0.199
			c-0.486,0.763-0.451,0.797-0.382,1.245c0.347-0.149,0.868-0.083,0.868,0.116c0,0.2-0.14,0.532-0.348,0.399
			c-0.207-0.133,0.139-0.299-0.103-0.299c-0.244,0-0.417,0.067-0.417,0.299c0,0.232,0.243,0.498,0.59,0.498s0.763-0.232,0.693-1.063
			c-0.069-0.83-1.607-1.736-1.607-2.3c0-0.565,0.107-1.257,1.113-1.257C387.283,247.252,387.361,247.765,387.6,248.07L387.6,248.07z
			"/>
	</g>
	<g id="g9043" transform="translate(-220,40)">
		<path id="rect773" fill="#FFE400" d="M511.02,104.45L511.02,104.45c47.011,0,85.12,36.107,85.12,80.648v0.004
			c0,44.541-38.109,80.648-85.12,80.648l0,0c-47.011,0-85.12-36.107-85.12-80.648v-0.004
			C425.9,140.557,464.009,104.45,511.02,104.45z"/>
		<path id="path778" fill="#FFE400" d="M506.94,56.355c-0.708-0.006-4.533,26.842-6.013,32.876
			c-1.325,13.43,18.069,12.94,14.896-0.532l-8.88-32.344L506.94,56.355z"/>
		<path id="path779" fill="#FFE400" d="M513.77,316.21c0.706,0.054,6.49-26.479,8.408-32.401
			c2.307-13.31-17.078-14.098-14.899-0.449L513.77,316.21L513.77,316.21z"/>
		<path id="path780" fill="#FFE400" d="M378.17,184.61c-0.06,0.669,27.915,6.277,34.156,8.123
			c14.036,2.249,14.962-16.113,0.546-14.115L378.17,184.61L378.17,184.61z"/>
		<path id="path781" fill="#FFE400" d="M649.89,187.8c0.03-0.67-28.166-5.274-34.483-6.896
			c-14.123-1.746-14.233,16.638,0.079,14.125L649.89,187.8L649.89,187.8z"/>
		<path id="path782" fill="#FFE400" d="M406.791,99.641c-0.482,0.492,17.893,21.249,21.604,26.348
			c9.588,9.971,22.266-3.945,9.616-10.793l-31.221-15.559V99.641z"/>
		<path id="path783" fill="#FFE400" d="M617.95,270.641c0.436-0.529-19.771-19.699-23.937-24.473
			c-10.465-9.145-21.819,5.762-8.591,11.543L617.95,270.641L617.95,270.641z"/>
		<path id="path784" fill="#FFE400" d="M448.97,70.619c-0.644,0.28,7.966,26.114,9.34,32.171c4.84,12.685,22.167,4.415,13.239-6.493
			L448.97,70.619L448.97,70.619z"/>
		<path id="path785" fill="#FFE400" d="M571.98,302.96c0.663-0.237-6.032-26.575-6.96-32.708
			c-3.897-12.973-21.79-5.862-13.682,5.606L571.98,302.96L571.98,302.96z"/>
		<path id="path786" fill="#FFE400" d="M602.16,88.602c-0.511-0.464-22.711,16.61-28.151,20.045
			c-10.677,8.923,3.807,21.156,11.235,9.282L602.16,88.602L602.16,88.602z"/>
		<path id="path787" fill="#FFE400" d="M419.24,282.33c0.477,0.497,23.874-15.076,29.554-18.145
			c11.304-8.199-2.247-21.355-10.528-10L419.24,282.33L419.24,282.33z"/>
		<path id="path788" fill="#FFE400" d="M384.15,138.16c-0.29,0.612,24.124,14.715,29.362,18.422
			c12.449,6.543,19.765-10.482,5.469-13.139L384.15,138.16L384.15,138.16z"/>
		<path id="path789" fill="#FFE400" d="M638.07,236.6c0.335-0.591-22.987-16.266-27.94-20.309
			c-11.939-7.347-20.486,9.156-6.419,12.748L638.07,236.6L638.07,236.6z"/>
		<path id="path790" fill="#FFE400" d="M557.37,63.719c-0.656-0.251-14.57,23.416-18.274,28.521
			c-6.412,12.042,11.831,18.301,14.071,4.662L557.37,63.719L557.37,63.719z"/>
		<path id="path791" fill="#FFE400" d="M463.52,307.971c0.637,0.293,16.252-22.402,20.322-27.25
			c7.279-11.592-10.461-19.035-13.696-5.577l-6.626,32.825V307.971z"/>
		<path id="path792" fill="#FFE400" d="M386.041,238.68c0.257,0.625,27.985-5.985,34.448-6.926
			c13.652-3.825,5.966-20.703-6.056-12.906L386.041,238.68L386.041,238.68z"/>
		<path id="path793" fill="#FFE400" d="M638.13,136.11c-0.211-0.641-28.357,4.13-34.873,4.644
			c-13.899,2.917-7.469,20.261,5.096,13.273L638.13,136.11L638.13,136.11z"/>
		<path id="path794" fill="#FFE400" d="M534.62,58.119c-0.691-0.142-10.14,25.429-12.869,31.058
			c-4.149,12.903,14.953,16.119,14.704,2.318L534.62,58.119L534.62,58.119z"/>
		<path id="path795" fill="#FFE400" d="M486.15,313.971c0.681,0.186,11.979-24.701,15.115-30.137
			c5.085-12.6-13.736-17.064-14.5-3.28L486.15,313.971L486.15,313.971z"/>
		<path id="path796" fill="#FFE400" d="M476.38,60.639c-0.692,0.144,1.918,27.122,1.9,33.317c1.879,13.37,20.667,8.783,14.394-3.675
			l-16.29-29.642L476.38,60.639z"/>
		<path id="path797" fill="#FFE400" d="M544.39,312.46c0.7-0.098,0.074-27.183,0.546-33.362
			c-0.895-13.462-19.974-10.121-14.628,2.72L544.39,312.46L544.39,312.46z"/>
		<path id="path798" fill="#FFE400" d="M428.161,83.092c-0.581,0.385,12.765,24.345,15.26,30.07
			c7.154,11.661,22.642,0.589,11.8-8.631L428.161,83.092L428.161,83.092z"/>
		<path id="path799" fill="#FFE400" d="M593.02,290.859c0.607-0.345-10.95-25.125-13.019-31.002
			c-6.283-12.104-22.546-2.076-12.404,7.834L593.02,290.859L593.02,290.859z"/>
		<path id="path800" fill="#FFE400" d="M393,116.64c-0.396,0.556,21.128,18.39,25.624,22.888
			c11.091,8.456,21.359-7.142,7.749-12.065L393,116.64L393,116.64z"/>
		<path id="path801" fill="#FFE400" d="M627.19,256.26c0.437-0.528-19.729-19.736-23.885-24.519
			c-10.445-9.165-21.832,5.719-8.615,11.526L627.19,256.26L627.19,256.26z"/>
		<path id="path802" fill="#FFE400" d="M377.57,158.53c-0.181,0.649,26.336,10.784,32.144,13.63
			c13.409,4.529,17.692-13.4,3.131-13.809L377.57,158.53L377.57,158.53z"/>
		<path id="path803" fill="#FFE400" d="M645.04,216.35c0.229-0.635-25.481-12.49-31.066-15.712
			c-13.045-5.401-18.632,12.204-4.136,13.57L645.04,216.35L645.04,216.35z"/>
		<path id="path804" fill="#FFE400" d="M376.701,209.96c0.098,0.665,28.688,0.262,35.207,0.752
			c14.214-0.753,10.822-18.853-2.768-13.879L376.701,209.96L376.701,209.96z"/>
		<path id="path805" fill="#FFE400" d="M646.91,164.97c-0.049-0.669-28.601-2.149-35.066-3.067
			c-14.235-0.184-12.179,18.095,1.743,14.027L646.91,164.97L646.91,164.97z"/>
		<path id="path806" fill="#FFE400" d="M401.18,263.43c0.395,0.557,25.926-11.641,32.015-13.898
			c12.438-6.562,1.041-21.438-8.889-11.338L401.18,263.43L401.18,263.43z"/>
		<path id="path807" fill="#FFE400" d="M623.48,111.1c-0.353-0.582-26.717,9.907-32.956,11.759
			c-12.889,5.728-2.609,21.318,8.037,11.896L623.48,111.1L623.48,111.1z"/>
		<path id="path808" fill="#FFE400" d="M442.831,298.77c0.597,0.361,18.872-20.474,23.505-24.846
			c8.643-10.718-8.072-20.052-12.925-7.037L442.831,298.77L442.831,298.77z"/>
		<path id="path809" fill="#FFE400" d="M582.54,75.063c-0.568-0.4-20.326,19.183-25.269,23.239
			c-9.407,10.124,6.583,20.535,12.378,7.871L582.54,75.063L582.54,75.063z"/>
		<g id="g852" transform="matrix(2.1824 0 0 2.0629 -405.01 -272.56)">
			<path id="path844" fill="#FFE400" d="M360.137,247.889c0.625,2.5,0.781,16.562,14.844,30
				c14.062,13.437,37.969,16.406,37.969,16.406s0.156,1.875-1.563,2.031c-1.719,0.157-9.844-1.562-13.906-2.812
				c-4.063-1.25-7.656-3.438-8.125-3.281c-0.469,0.156-1.25,1.562-2.5,1.406c-1.25-0.156-7.031-6.25-9.531-7.813
				c-2.5-1.562-10.938-10.781-13.75-15.312c-2.813-4.531-3.438-7.5-4.375-7.5c-0.938,0-4.219,2.187-4.219,2.187
				s-2.969-4.531-5.625-11.719c-2.656-7.187-2.344-11.406-1.719-11.718c0.625-0.313,0.625,5.312,2.656,10.468
				c2.032,5.157,4.844,6.719,4.844,6.719s-1.875-2.656-3.281-9.375c-1.406-6.719-1.875-13.125-0.938-15.156
				c0.938-2.031,1.875-2.656,2.032-2.5c0.156,0.156-1.719,3.125-0.469,10.781c1.25,7.656,4.844,14.219,5.625,13.906
				c0.781-0.312-0.469-1.875-1.094-6.406c-0.625-4.531,0.625-7.344,1.719-7.656C359.2,240.076,359.981,245.545,360.137,247.889
				L360.137,247.889z"/>
			<path id="path845" fill="#FFE400" d="M350.292,260.699c-2.656-2.5-6.875-11.25-7.812-10.781
				c-0.938,0.469,6.875,12.969,7.031,14.063c0.156,1.094,1.875,4.531,0.625,4.062c-1.25-0.469-10.625-10.312-9.531-8.437
				c1.094,1.875,8.125,10.468,7.656,10.937c-0.469,0.469-5.781-4.688-5.937-4.062c-0.157,0.625,5.312,5.781,5.156,6.406
				s-3.438-3.281-3.438-2.5c0,0.781,3.438,4.688,3.438,5.312s-2.969-2.812-2.031-0.937c0.937,1.875,3.593,3.594,3.437,4.219
				c-0.156,0.625-2.187-0.782-2.187-0.469c0,0.312,3.906,1.719,4.843,2.812c0.938,1.094,7.344,8.438,12.188,12.188
				c4.844,3.75,18.594,10.156,19.531,10.156c0.938,0,2.344-2.031,2.031-2.812c-0.312-0.782-13.75-5.313-17.5-8.75
				c-3.75-3.438-12.968-11.563-13.75-12.032c-0.781-0.468-2.812-0.312-2.812-0.781c0-0.469,2.656,0.313,2.5,0
				c-0.156-0.312-3.75-1.875-3.594-2.187c0.156-0.313,2.5,0.625,2.5,0.312c0-0.312-4.219-2.656-4.062-3.125
				c0.156-0.469,3.125,1.406,3.125,1.094s-4.063-3.124-3.907-3.594c0.157-0.469,3.125,2.188,2.969,1.563
				c-0.156-0.625-2.344-3.907-2.344-4.375c0-0.469,3.594,3.437,3.907,2.656c0.312-0.781-1.25-7.188-1.094-7.344
				c0.156-0.156,2.645,1.422,3.114,0.484C354.812,263.84,352.507,262.536,350.292,260.699L350.292,260.699z"/>
			<path id="path846" fill="#FFE400" d="M396.4,309.901c-1.893,0.248-2.747-0.394-1.672-1.935c1.488-0.111,5.449-1.379,6.849-1.961
				c1.399-0.582,2.894-1.416,4.138-2.533c1.239-1.221,1.902,0.782,1.282,1.819c-0.515,0.73-2.838,2.044-4.545,2.739
				C399.972,308.855,397.842,309.997,396.4,309.901L396.4,309.901z"/>
			<path id="path847" fill="#FFE400" d="M408.887,304.769c-1.25-1.407-0.156-2.344,1.719-3.438c2.812-1.562,2.032-3.593,5.625-5.312
				c1.563-0.938,23.906-10,31.25-14.844c7.344-4.844,27.813-20.313,33.281-30.938c5.469-10.625,2.813-11.406,3.594-11.875
				c0.781-0.468,1.563,1.563,1.406,3.907c-0.156,2.343-1.875,9.375-1.406,10c0.469,0.625,8.281-5.469,11.406-12.969
				c3.125-7.5,5.625-15.313,7.188-15.313c1.562,0-2.656,12.813-5.313,17.813c-2.656,5-5.781,7.5-5,8.594
				c0.782,1.093,8.594-5.47,11.25-10.313c2.657-4.844,5.157-9.219,5.625-8.281c0.469,0.937-2.5,11.25-6.718,16.094
				c-4.219,4.843-9.219,8.281-8.438,9.062c0.781,0.782,6.406,1.563,12.344-2.5c5.937-4.062,6.562-10,7.344-9.687
				c0.781,0.312-0.782,8.437-6.407,13.437c-5.625,5-13.281,5.469-12.968,6.563c0.312,1.094,16.25-4.531,15.937-3.281
				c-0.312,1.25-20.625,9.218-20.782,10c0.001,0.625,3.439,0.781,8.907-0.469c5.469-1.25,10.626-5.468,11.407-4.531
				c0.155,1.406-3.907,4.844-10.157,6.406c-6.25,1.563-9.375,3.75-9.531,4.219c-0.156,0.469,11.094-1.407,11.094-0.782
				c0,0.625-14.688,3.438-14.844,4.22c-0.156,0.781,14.062-2.813,13.75-2.032c-0.313,0.781-19.219,6.406-19.063,6.719
				c0.157,0.312,15.782-3.438,15.469-2.813c-0.312,0.625-26.406,7.969-26.562,8.438c-0.157,0.468,22.968-5.157,22.812-4.688
				c-0.156,0.469-12.031,3.437-12.031,3.75c0,0.312,9.531-1.562,9.375-1.094c-0.156,0.469-24.063,6.563-24.532,7.5
				c-0.468,0.938,12.344-2.5,12.188-0.781c-0.156,1.719-27.656,11.094-27.813,9.375c-0.156-1.719,16.719-6.094,16.563-6.562
				c-0.156-0.47-9.687,1.093-9.844,0.156c-0.156-0.938,6.25-2.969,5.782-3.438c-0.469-0.468-5.313,1.406-4.844,0.313
				c0.469-1.095,9.531-5.313,9.375-5.625c-0.156-0.313-3.281,1.093-2.969,0c0.313-1.094,19.687-6.719,19.375-7.344
				c-0.313-0.625-8.906,1.406-9.687,1.562c-0.313-0.624,12.031-5.156,11.718-5.937c-0.312-0.781-6.562,2.656-6.874,1.719
				c-0.313-0.938,10.781-5.313,10.156-5.938c-0.625-0.625-5.781,1.719-6.406,1.094c-0.625-0.625,10.468-8.437,8.749-8.594
				c-1.718-0.156-3.75,2.345-4.062,0.782c0.313-2.032,8.75-5.312,6.875-6.875c-2.969-0.938-13.125,0.625-17.344,3.125
				c-4.219,2.5-18.125,16.406-21.563,18.593c-3.437,2.188-15,7.032-17.187,7.969c-3.438,1.25-4.063,3.125-7.5,4.844
				c-6.251,1.718-6.25,3.594-9.219,4.687C420.294,299.769,409.044,305.237,408.887,304.769L408.887,304.769z"/>
			<path id="path848" fill="#FFE400" d="M393.107,311.797c-1.875,0.938-3.593,3.438-2.501,4.375c0.626,1.25,2.501-2.656,4.063-2.5
				c1.563,0.156,3.75,0.157,7.969,0.47c4.219,0.312,6.406-0.938,8.75-0.782c2.344,0.156,7.657-1.25,10.157-1.25
				c2.5,0,2.968,0.312,3.281-0.782c0.312-1.093-7.813-0.312-11.407-0.468c-3.593-0.156-8.125,0.781-10.781,0.781
				C400.138,311.485,395.763,310.703,393.107,311.797L393.107,311.797z"/>
			<path id="rect849" fill="#FFE400" d="M403.419,309.14L403.419,309.14c0.949,0,1.719,0.665,1.719,1.485l0,0
				c0,0.819-0.77,1.484-1.719,1.484l0,0c-0.95,0-1.719-0.665-1.719-1.484l0,0C401.7,309.805,402.469,309.14,403.419,309.14z"/>
			<path id="path850" fill="#FFE400" d="M445.02,307.731c1.718-0.313,6.308,1.25,9.478,2.031c5.829,2.188,16.603,1.094,16.603,2.188
				c0,1.094-0.67,2.5-3.242,2.656c-2.572,0.156-8.758-0.937-8.587-0.937c0.171,0,4.972,2.187,3.601,2.812
				c-1.371,0.625-5.486-1.25-6.172-0.781c-0.686,0.469,3.772,1.406,3.086,1.719c-0.686,0.312-3.782-0.469-4.811-0.312
				c-1.028,0.155,0.868,1.249-0.332,1.718c-1.199,0.469-3.216-0.624-4.073-0.313c-0.857,0.314,1.845,2.032,0.645,2.188
				c-1.199,0.156-4.089-0.781-5.632-0.937c-1.542-0.156,1.518,1.562,0.49,1.718c-1.029,0.156-3.827-1.249-4.512-1.249
				c-0.686,0,0.055,1.874-0.973,1.874c-1.029,0-2.239-1.562-2.754-1.562c-0.515,0,0.011,1.875-1.018,1.875
				c-1.028,0-1.397-2.031-2.253-1.875c-1.014,0.157,0.025,2.656-1.346,2.5c-1.372-0.157-1.554-2.656-2.581-2.5
				c-1.029,0.156,0.182,2.5-0.847,2.5c-1.028,0-1.195-2.344-2.224-2.5c-1.028-0.156-0.519,2.187-1.205,2.187
				c-0.686,0-1.195-2.187-1.538-2.187c-0.342,0-0.004,2.187-1.205,2.031c-1.2-0.156-1.195-2.5-1.538-2.344
				c-0.342,0.157-0.348,1.719-1.205,1.719c-0.856,0-0.852-1.562-1.195-1.406c-0.343,0.156-1.548,2.187-2.405,1.875
				c-0.857-0.313,0.206-1.875-0.136-1.875c-0.343,0-1.406,1.093-2.092,0.937c-0.686-0.156,0.035-1.406-0.137-1.406
				c-0.171,0-1.749,0.781-2.434,0.781c-0.686,0-2.572,1.094-3.086,0.156c-0.514-0.937,1.342-0.937,1.684-1.875
				c0.344-0.937-0.998-3.593,0.373-4.531c1.371-0.937,5.658,1.25,12-0.312C435.101,311.169,444.097,307.576,445.02,307.731
				L445.02,307.731z"/>
		</g>
	</g>
</g>
</svg>
