<?xml version="1.0" encoding="utf-8"?>
<!-- Generator: Adobe Illustrator 16.0.0, SVG Export Plug-In . SVG Version: 6.00 Build 0)  -->
<svg version="1.2" baseProfile="tiny"
	 id="svg583" xmlns:cc="http://creativecommons.org/ns#" xmlns:dc="http://purl.org/dc/elements/1.1/" xmlns:rdf="http://www.w3.org/1999/02/22-rdf-syntax-ns#"
	 xmlns="http://www.w3.org/2000/svg" xmlns:xlink="http://www.w3.org/1999/xlink" x="0px" y="0px" width="512px" height="512px"
	 viewBox="0 0 512 512" xml:space="preserve">
<g>
	<path fill="#FF0000" d="M171.377,384.635c0.099-0.223,0.212-0.425,0.315-0.643H0.001v127.991h511.983V383.992H173.094
		L171.377,384.635z"/>
	<rect x="0.001" fill="#FF0000" width="511.983" height="128.001"/>
	<path fill="#FFFFFF" d="M0.001,383.992h171.691c10.704-22.633,41.413-17.822,49.149-46.137c2.603-7.797-5.207-15.594-13.018-15.594
		l-33.844,10.396c-13.017,2.599-23.43,2.599-39.049,2.599v-10.396c20.826-2.598,33.843-7.796,52.066-20.79
		c-15.621,0-18.224,5.197-31.24,10.396c-10.412,5.198-26.033,2.599-36.446,0c0,0-0.209-4.257,0-5.198
		c0.508-0.608,31.239-18.192,31.239-18.192l26.034-12.994v-5.198l-2.604-2.6c-13.017,5.198-28.635,15.594-33.843-2.598
		l20.826-12.995c13.017-7.797,31.241-10.396,26.034-28.587l-26.034,2.598c7.81-15.594,15.621-12.994,28.637-23.389
		c0,0,9.201-5.719,11.105-6.931c1.904-1.211,16.659-9.185,14.929-11.262c-0.52-2.251-10.414,2.599-10.414,2.599l-2.604-2.599
		c5.207-10.396,10.414-12.995,20.827-18.192c-10.413-5.199-2.604-7.797,2.603-12.995c13.017-10.396,18.225-10.396,26.034-25.989
		c15.619,7.796,15.619,12.995,26.033,20.792c15.619,10.396,41.652,7.797,52.065,31.187l-15.62,2.599
		c10.413,2.599,20.827,7.796,26.034,18.192c-18.687-5.418-36.115-13.49-37-6.524c0.223,2.433,44.81,29.915,44.81,29.915
		c10.413,5.197,22.29,10.477,23.023,16.872c-1.424,0.101-26.491,0.727-34.78-4.64c-2.897,1.131-3.965,3.178-4.27,4.497
		c1.016,0.407,44.663,11.858,44.663,11.858v5.197l-44.258,5.199c28.637,0,36.448,12.994,57.273,28.588v5.197
		c-28.637,7.797-23.43-10.396-44.255,2.6c18.223,5.197,46.859,18.192,54.669,36.385c-18.223,5.197-23.43-2.6-39.051-7.797
		c-26.032-10.396-26.032-5.199-44.255-7.797l-18.224-5.198c-15.62,2.6-10.413,25.989,0,41.583
		c10.413,10.396,13.017,7.795,26.032,23.39c-15.619,2.599-18.222-2.598-31.239-7.796c-5.206-2.6-10.413-2.6-15.619-5.198
		l5.206,12.994c-20.826-5.196-20.826-15.595-36.446-20.79c-13.017-2.6-23.43,2.598-33.843,7.796l-39.938,14.95h338.891V128.001
		H0.001V383.992z"/>
	<path fill="#007900" d="M173.094,383.992l39.938-14.95c10.413-5.198,20.826-10.396,33.843-7.796
		c15.62,5.195,15.62,15.594,36.446,20.79l-5.206-12.994c5.206,2.599,10.413,2.599,15.619,5.198
		c13.018,5.198,15.62,10.395,31.239,7.796c-13.016-15.595-15.619-12.994-26.032-23.39c-10.413-15.594-15.62-38.983,0-41.583
		l18.224,5.198c18.223,2.598,18.223-2.599,44.255,7.797c15.621,5.197,20.828,12.994,39.051,7.797
		c-7.81-18.192-36.446-31.188-54.669-36.385c20.825-12.996,15.618,5.197,44.255-2.6v-5.197
		c-20.825-15.594-28.637-28.588-57.273-28.588l44.258-5.199v-5.197c0,0-43.647-11.451-44.663-11.858
		c0.305-1.319,1.372-3.366,4.27-4.497c8.289,5.366,33.356,4.741,34.78,4.64c-0.733-6.395-12.61-11.675-23.023-16.872
		c0,0-44.587-27.482-44.81-29.915c0.885-6.966,18.313,1.106,37,6.524c-5.207-10.396-15.621-15.593-26.034-18.192l15.62-2.599
		c-10.413-23.39-36.446-20.792-52.065-31.187c-10.414-7.796-10.414-12.995-26.033-20.792c-7.81,15.593-13.018,15.593-26.034,25.989
		c-5.206,5.198-13.016,7.796-2.603,12.995c-10.413,5.197-15.62,7.796-20.827,18.192l2.604,2.599c0,0,9.895-4.85,10.414-2.599
		c1.73,2.078-13.024,10.051-14.929,11.262c-1.904,1.212-11.105,6.931-11.105,6.931c-13.016,10.396-20.827,7.795-28.637,23.389
		l26.034-2.598c5.207,18.192-13.018,20.791-26.034,28.587l-20.826,12.995c5.208,18.191,20.826,7.796,33.843,2.598l2.604,2.6v5.198
		l-26.034,12.994c0,0-30.731,17.584-31.239,18.192c-0.209,0.941,0,5.198,0,5.198c10.413,2.599,26.034,5.198,36.446,0
		c13.017-5.198,15.619-10.396,31.24-10.396c-18.224,12.994-31.24,18.192-52.066,20.79v10.396c15.619,0,26.032,0,39.049-2.599
		l33.844-10.396c7.811,0,15.62,7.797,13.018,15.594c-7.736,28.314-38.446,23.504-49.149,46.137c-0.103,0.218-0.216,0.42-0.315,0.643
		L173.094,383.992z M226.355,249.694c-0.287-0.718-0.512-2.167,1.206-3.803c0.15-0.143,0.326-0.254,0.52-0.328
		c0.499-0.19,1.029-0.287,1.577-0.287c3.85,0,7.582,4.893,8.142,5.658c0.261,0.333,0.386,0.769,0.314,1.211
		c-0.122,0.755-0.832,1.315-1.597,1.315C236.43,253.462,227.749,253.181,226.355,249.694z M239.283,303.438c0,0-0.001,0-0.001,0
		c-0.225,0-0.467-0.018-0.722-0.058c-0.159-0.025-0.312-0.074-0.456-0.146c-3.511-1.752-4.485-6.089-3.894-9.609
		c0.438-2.608,1.661-4.291,3.271-4.501c0.093-0.013,0.186-0.015,0.28-0.012c2.857,0.145,5.152,6.915,5.069,10.179
		C242.753,302.349,240.948,303.438,239.283,303.438z M243.19,245.289c-0.131-0.892-0.063-3.079,3.403-4.123
		c3.804-1.146,6.723,0.463,7.298,3.74c0.362,2.06-0.333,4.575-2.104,5.41c-0.35,0.232-0.868,0.445-1.593,0.445
		C247.859,250.761,243.619,248.204,243.19,245.289z M257.592,301.834c-0.798,0.199-1.571,0.301-2.297,0.301c0,0,0,0,0,0
		c-3.685-0.001-6.351-2.632-6.956-6.866c-0.429-3.002,0.271-6.371,2.438-7.004c0.057-0.017,0.114-0.029,0.173-0.04
		c0.38-0.065,0.776-0.099,1.179-0.099c4.466,0,9.706,4.192,10.193,8.156C262.478,297.558,262.33,300.652,257.592,301.834z
		 M268.298,259.818c-0.188,0.304-0.476,0.532-0.812,0.649c-0.318,0.111-0.673,0.165-1.085,0.165c0,0,0,0-0.001,0
		c-2.86-0.001-9.252-2.868-10.478-6.79c-0.401-1.283-0.579-3.777,2.739-6.078c3.604-2.5,7.092-1.752,9.011,1.697
		C269.385,252.545,269.691,257.579,268.298,259.818z M334.446,282.452c4.817,0,9.906,2.552,11.838,5.936
		c1.1,1.927,1.117,3.983,0.05,5.79c-1.194,2.067-3.634,3.262-6.685,3.262h-0.001c-5.497-0.001-12.146-3.794-13.76-10.142
		c-0.128-0.503,0.003-1.036,0.349-1.423C328.239,283.636,331.076,282.452,334.446,282.452z M314.182,231.431
		c0.124-0.429,0.427-0.783,0.831-0.974c0.96-0.454,2.055-0.685,3.254-0.685c4.473,0,9.789,3.333,11.054,5.494
		c0.461,0.787,0.425,1.431,0.288,1.863c-0.313,1.4-2.145,1.407-2.79,1.407c-0.004,0-0.007,0-0.011,0
		c-1.795,0-9.578-0.705-12.021-3.96C314.07,233.622,313.861,232.534,314.182,231.431z M314.309,276.568
		c3.907,0,6.862,0.934,8.784,2.773c0.066,0.063,0.128,0.133,0.182,0.207c1.676,2.298,1.424,3.967,0.917,4.963
		c-1.079,2.123-4.165,3.155-9.436,3.155c-5.506,0-14.768-1.448-16.745-3.717c-0.441-0.506-0.639-1.116-0.556-1.719
		c0.011-0.077,0.027-0.153,0.049-0.228C298.262,279.432,308.167,276.568,314.309,276.568z M301.295,218.659
		c1.015,1.921,1.132,3.783,0.313,4.979c-0.032,0.047-0.066,0.093-0.104,0.136c-1.012,1.177-2.97,1.774-5.82,1.774
		c-4.197,0-12.42-1.619-13.339-5.52c-0.307-1.301,0.061-3.217,3.553-4.96c2.229-1.113,4.404-1.677,6.462-1.677
		C296.899,213.392,299.951,216.113,301.295,218.659z M279.797,187.955c0.136-0.138,0.296-0.25,0.474-0.329
		c0.131-0.059,3.235-1.434,6.037-1.434c2.504,0,3.744,1.088,4.344,2.001c0.753,1.196,0.886,2.228,0.409,3.089
		c-0.473,0.855-1.396,1.289-2.747,1.289c-1.223,0-2.936-0.34-5.091-1.01c-3.398-1.057-3.518-1.341-3.754-1.907
		C279.226,189.075,279.356,188.403,279.797,187.955z M277.782,209.542c2.54,1.939,2.623,3.679,2.245,4.796
		c-1.401,4.146-11.419,4.637-11.519,4.637c-0.302,0-0.93,0-1.423-0.496c-0.406-0.409-0.554-1.009-0.384-1.56
		c0.101-0.323,2.516-7.91,8.574-7.91c0.641,0,1.301,0.089,1.961,0.265C277.435,209.327,277.62,209.418,277.782,209.542z
		 M265.511,186.885c0.022-1.001,0.387-1.898,1.065-2.61c0.981-1.03,2.551-1.598,4.417-1.598c2.036,0,4.783,0.74,5.828,2.826
		c0.039,0.078,0.071,0.159,0.097,0.243c0.286,0.937,0.123,1.886-0.459,2.673c-1.21,1.634-3.942,2.217-6.096,2.217
		c-0.001,0-0.001,0-0.001,0c-1.269,0-3.542-0.217-4.52-1.667C265.425,188.349,265.312,187.62,265.511,186.885z M263.648,210.619
		c0.437,1.029,0.315,2.176-0.357,3.19c-2.214,3.342-10.691,5.09-14.616,5.09c0,0-0.001,0-0.001,0c-0.943,0-3.447,0-3.983-1.804
		c-0.509-1.714,1.321-2.907,2.011-3.356c5.007-3.263,9.914-5.212,13.124-5.212C262.437,208.528,263.341,209.838,263.648,210.619z
		 M242.793,191.712c2.568-5.188,9.619-7.605,13.575-7.605c1.674,0,2.76,0.46,3.23,1.369c0.662,1.177,0.628,2.514-0.096,3.771
		c-1.818,3.159-7.787,5.36-12.006,5.36c0,0,0,0,0,0c-1.553,0-2.895-0.27-3.987-0.801c-0.374-0.182-0.659-0.505-0.793-0.898
		C242.581,192.515,242.609,192.085,242.793,191.712z M235.9,190.99c1.584-0.375,2.896,0.019,3.725,1.076
		c1.439,1.836,0.741,5.059,0.587,5.687c-0.075,0.305-0.24,0.58-0.473,0.789c-2.87,2.573-12.553,10.966-16.649,10.966c0,0,0,0,0,0
		c-1.533,0-2.602-1.007-2.724-2.564c-0.009-0.111-0.005-0.223,0.01-0.333c0.904-6.598,13.623-14.548,15.07-15.433
		C235.586,191.091,235.74,191.028,235.9,190.99z M219.793,184.652c0.547-2.439,7.127-6.513,8.66-6.513
		c0.258,0,0.592,0.08,0.819,0.202c0.364,0.196,0.636,0.528,0.755,0.924c0.27,0.897-0.013,1.917-0.841,3.031
		c-1.336,1.797-4.661,4.397-7.178,4.397c-0.501,0-0.961-0.099-1.369-0.295C219.985,186.084,219.635,185.36,219.793,184.652z
		 M213.131,217.112c1.214-2.576,5.079-3.494,8.291-3.494c1.454,0,4.058,0.188,5.172,1.451c0.267,0.303,0.442,0.653,0.517,1.022
		c0.308,0.741,0.202,1.747-0.317,3.003c-1.049,2.538-3.917,6.314-7.516,6.314c-1.758,0-3.36-0.867-4.761-2.576
		C212.37,220.232,212.578,218.286,213.131,217.112z M192.435,224.044c0.019-0.062,0.042-0.124,0.069-0.183
		c1.313-2.908,12.594-4.516,13.699-4.516c0.085,0,0.164,0.002,0.234,0.006c0.064,0.004,0.127,0.011,0.19,0.022
		c2.58,0.465,3.895,3.633,4.854,5.946c0.214,0.517,0.403,0.978,0.577,1.313c0.203,0.392,0.23,0.852,0.075,1.265
		c-0.577,1.539-9.458,7.854-12.292,7.854c-0.251,0-0.488-0.034-0.708-0.1c-0.75-0.166-1.776-0.819-3.553-3.592
		C195.191,231.456,191.806,226.087,192.435,224.044z M209.048,264.906c-5.122,5.755-18.889,8.341-21.849,8.341
		c-0.142,0-0.264-0.005-0.365-0.015c-0.139-0.013-0.276-0.044-0.407-0.093c-1.2-0.451-5.23-5.233-5.23-6.823
		c0-1.48,0.387-1.565,10.283-3.748c4.562-1.006,10.748-2.205,14.305-2.205c1.529,0,3.367,0.184,4.009,1.613
		C210.078,262.611,210.18,263.635,209.048,264.906z M215.97,297.82c-1.092-1.654-4.655-7.317-4.655-10.758
		c0-1.957,1.191-3.222,3.035-3.222c0.861,0,1.56,0.698,1.56,1.56c0,0.107-0.012,0.212-0.032,0.313
		c0.296,0.103,0.615,0.229,0.963,0.388c11.042,5.028,9.258,10.24,7.394,16.077c0.446,0.274,0.747,0.762,0.747,1.324
		c0,0.861-0.698,1.559-1.56,1.559C221.215,305.062,218.152,301.124,215.97,297.82z"/>
	<path fill="#FFFFFF" d="M214.437,286.958c-0.001,0.03-0.003,0.065-0.003,0.105c0,3.694,7.08,14.033,9.127,14.886
		c0.247,0.022,0.473,0.106,0.673,0.229c1.864-5.837,3.648-11.049-7.394-16.077c-0.348-0.158-0.667-0.285-0.963-0.388
		C215.738,286.397,215.152,286.918,214.437,286.958z"/>
	<path fill="#FFFFFF" d="M224.981,303.503c0-0.562-0.301-1.05-0.747-1.324c-0.2-0.123-0.426-0.207-0.673-0.229
		c-2.047-0.853-9.128-11.191-9.127-14.886c0-0.04,0.001-0.075,0.003-0.105c0.715-0.04,1.301-0.561,1.44-1.244
		c0.021-0.102,0.032-0.206,0.032-0.313c0-0.861-0.698-1.56-1.56-1.56c-1.843,0-3.034,1.265-3.035,3.222
		c0,3.44,3.563,9.104,4.655,10.758c2.182,3.304,5.245,7.241,7.451,7.241C224.282,305.062,224.981,304.364,224.981,303.503z"/>
	<path fill="#FFFFFF" d="M237.198,296.248c0.092,1.135,0.485,3.124,2.07,4.071c0.008,0,0.017,0,0.022,0
		c0.188,0,0.218-0.004,0.308-0.289c0.558-1.775-0.87-5.805-1.891-7.353C237.384,293.385,237.073,294.702,237.198,296.248z"/>
	<path fill="#FFFFFF" d="M237.761,289.112c-0.095-0.003-0.187-0.001-0.28,0.012c-1.61,0.21-2.833,1.893-3.271,4.501
		c-0.592,3.521,0.382,7.857,3.894,9.609c0.144,0.071,0.297,0.12,0.456,0.146c0.255,0.04,0.497,0.058,0.722,0.058
		c0,0,0.001,0,0.001,0c1.664,0,3.47-1.089,3.547-4.146C242.913,296.027,240.619,289.257,237.761,289.112z M239.599,300.03
		c-0.089,0.285-0.12,0.289-0.308,0.289c-0.006,0-0.015,0-0.022,0c-1.585-0.947-1.979-2.937-2.07-4.071
		c-0.125-1.546,0.185-2.863,0.51-3.57C238.729,294.226,240.157,298.255,239.599,300.03z"/>
	<path fill="#FFFFFF" d="M252.129,291.245c-0.119,0-0.236,0.005-0.351,0.015c-0.424,0.687-0.786,3.187,0.131,5.359
		c0.681,1.612,1.788,2.396,3.385,2.396h0c0.472,0,0.991-0.069,1.542-0.207c2.573-0.642,2.435-1.774,2.389-2.146
		C258.951,294.425,255.234,291.245,252.129,291.245z"/>
	<path fill="#FFFFFF" d="M252.129,288.126c-0.402,0-0.799,0.033-1.179,0.099c-0.059,0.011-0.116,0.023-0.173,0.04
		c-2.167,0.633-2.867,4.002-2.438,7.004c0.605,4.234,3.271,6.865,6.956,6.866c0,0,0,0,0,0c0.726,0,1.499-0.102,2.297-0.301
		c4.738-1.182,4.886-4.276,4.729-5.552C261.834,292.318,256.595,288.126,252.129,288.126z M256.837,298.809
		c-0.551,0.138-1.07,0.207-1.542,0.207h0c-1.597,0-2.705-0.784-3.385-2.396c-0.917-2.173-0.555-4.673-0.131-5.359
		c0.114-0.01,0.231-0.015,0.351-0.015c3.105,0,6.823,3.18,7.097,5.417C259.272,297.034,259.41,298.167,256.837,298.809z"/>
	<path fill="#FFFFFF" d="M262.826,249.375c-0.664,0-1.49,0.33-2.39,0.953c-1.929,1.338-1.635,2.276-1.539,2.584
		c0.646,2.066,4.894,4.23,7.01,4.559c0.347-1.533,0.131-4.527-0.962-6.494C264.355,249.914,263.642,249.375,262.826,249.375z"/>
	<path fill="#FFFFFF" d="M258.66,247.765c-3.317,2.301-3.14,4.795-2.739,6.078c1.226,3.922,7.618,6.789,10.478,6.79
		c0.001,0,0.001,0,0.001,0c0.412,0,0.767-0.054,1.085-0.165c0.337-0.117,0.624-0.346,0.812-0.649
		c1.393-2.239,1.087-7.273-0.627-10.357C265.752,246.013,262.265,245.265,258.66,247.765z M265.907,257.471
		c-2.116-0.328-6.363-2.493-7.01-4.559c-0.096-0.309-0.39-1.247,1.539-2.584c0.899-0.623,1.726-0.953,2.39-0.953
		c0.815,0,1.528,0.539,2.119,1.602C266.038,252.943,266.254,255.938,265.907,257.471z"/>
	<path fill="#FFFFFF" d="M250.476,247.487c0.214-0.17,0.61-1.325,0.25-2.417c-0.263-0.798-0.815-1.17-1.737-1.17
		c-0.436,0-0.939,0.085-1.497,0.253c-1.048,0.316-1.22,0.641-1.221,0.644c-0.007,0.05,0.051,0.357,0.483,0.861
		c0.977,1.135,2.692,1.961,3.409,1.984C250.261,247.579,250.366,247.526,250.476,247.487z"/>
	<path fill="#FFFFFF" d="M251.787,250.316c1.772-0.835,2.467-3.35,2.104-5.41c-0.576-3.277-3.495-4.886-7.298-3.74
		c-3.466,1.044-3.535,3.231-3.403,4.123c0.429,2.915,4.669,5.472,7.004,5.472C250.92,250.761,251.438,250.548,251.787,250.316z
		 M246.755,245.657c-0.433-0.503-0.49-0.811-0.483-0.861c0.001-0.003,0.173-0.328,1.221-0.644c0.558-0.168,1.061-0.253,1.497-0.253
		c0.922,0,1.474,0.372,1.737,1.17c0.359,1.093-0.037,2.247-0.25,2.417c-0.11,0.04-0.215,0.092-0.312,0.155
		C249.447,247.618,247.732,246.792,246.755,245.657z"/>
	<path fill="#FFFFFF" d="M229.465,248.408c-0.073,0.087-0.12,0.155-0.15,0.205c0.405,0.44,1.712,0.865,3.156,1.184
		C231.432,248.937,230.307,248.295,229.465,248.408z"/>
	<path fill="#FFFFFF" d="M238.114,252.146c0.071-0.442-0.053-0.878-0.314-1.211c-0.56-0.765-4.292-5.658-8.142-5.658
		c-0.548,0-1.079,0.097-1.577,0.287c-0.193,0.074-0.37,0.185-0.52,0.328c-1.718,1.636-1.493,3.084-1.206,3.803
		c1.394,3.487,10.075,3.768,10.162,3.768C237.281,253.462,237.991,252.902,238.114,252.146z M229.465,248.408
		c0.842-0.113,1.967,0.529,3.006,1.388c-1.444-0.319-2.75-0.744-3.156-1.184C229.345,248.563,229.392,248.495,229.465,248.408z"/>
	<path fill="#FFFFFF" d="M185.164,267.271c0.743,1.112,1.694,2.405,2.242,2.854c3-0.113,14.11-2.506,18.663-6.64
		c-0.088-0.002-0.183-0.003-0.284-0.003C200.91,263.482,189.688,266.112,185.164,267.271z"/>
	<path fill="#FFFFFF" d="M205.785,260.363c-3.557,0-9.742,1.199-14.305,2.205c-9.896,2.183-10.283,2.268-10.283,3.748
		c0,1.59,4.03,6.372,5.23,6.823c0.131,0.049,0.268,0.08,0.407,0.093c0.101,0.01,0.223,0.015,0.365,0.015
		c2.959,0,16.727-2.586,21.849-8.341c1.132-1.271,1.031-2.295,0.746-2.93C209.152,260.547,207.314,260.363,205.785,260.363z
		 M187.406,270.125c-0.547-0.448-1.499-1.741-2.242-2.854c4.524-1.159,15.746-3.789,20.621-3.789c0.101,0,0.195,0.001,0.284,0.003
		C201.515,267.619,190.405,270.012,187.406,270.125z"/>
	<path fill="#FFFFFF" d="M317.496,232.943c1.203,1.142,4.653,2.041,7.415,2.355c-1.673-1.146-4.274-2.407-6.645-2.407
		C317.997,232.891,317.74,232.908,317.496,232.943z"/>
	<path fill="#FFFFFF" d="M326.808,238.537c0.004,0,0.007,0,0.011,0c0.646,0,2.477-0.007,2.79-1.407
		c0.137-0.433,0.173-1.076-0.288-1.863c-1.265-2.161-6.581-5.494-11.054-5.494c-1.199,0-2.294,0.23-3.254,0.685
		c-0.404,0.191-0.707,0.545-0.831,0.974c-0.321,1.104-0.112,2.191,0.604,3.146C317.23,237.832,325.013,238.537,326.808,238.537z
		 M317.496,232.943c0.244-0.035,0.501-0.052,0.771-0.052c2.37,0,4.972,1.262,6.645,2.407
		C322.15,234.984,318.699,234.085,317.496,232.943z"/>
	<path fill="#FFFFFF" d="M285.381,219.322c0.158,0.99,5.136,3.108,10.304,3.108c2.018,0,3.019-0.356,3.358-0.603
		c0.023-0.263-0.099-1.212-0.912-2.375c-0.618-0.884-2.419-2.941-5.771-2.941c-1.57,0-3.276,0.454-5.069,1.349
		C285.541,218.733,285.381,219.316,285.381,219.322z"/>
	<path fill="#FFFFFF" d="M282.346,220.029c0.919,3.9,9.142,5.52,13.339,5.52c2.851,0,4.809-0.597,5.82-1.774
		c0.037-0.043,0.071-0.088,0.104-0.136c0.818-1.196,0.701-3.058-0.313-4.979c-1.344-2.546-4.396-5.267-8.935-5.267
		c-2.058,0-4.232,0.564-6.462,1.677C282.406,216.812,282.039,218.728,282.346,220.029z M292.361,216.511
		c3.352,0,5.152,2.057,5.771,2.941c0.813,1.164,0.936,2.112,0.912,2.375c-0.34,0.246-1.341,0.603-3.358,0.603
		c-5.168,0-10.146-2.118-10.304-3.108c0-0.006,0.16-0.588,1.91-1.462C289.084,216.964,290.79,216.511,292.361,216.511z"/>
	<path fill="#FFFFFF" d="M276.14,212.219c-0.296-0.06-0.585-0.09-0.863-0.09c-2.202,0-3.738,1.943-4.637,3.563
		c3.106-0.445,6.276-1.681,6.435-2.356C277.073,213.336,277.03,212.954,276.14,212.219z"/>
	<path fill="#FFFFFF" d="M266.702,216.92c-0.17,0.551-0.022,1.15,0.384,1.56c0.493,0.496,1.121,0.496,1.423,0.496
		c0.1,0,10.117-0.492,11.519-4.637c0.378-1.117,0.295-2.856-2.245-4.796c-0.162-0.124-0.348-0.215-0.545-0.268
		c-0.66-0.176-1.32-0.265-1.961-0.265C269.218,209.01,266.803,216.597,266.702,216.92z M270.64,215.692
		c0.898-1.621,2.435-3.563,4.637-3.563c0.278,0,0.567,0.03,0.863,0.09c0.89,0.735,0.934,1.117,0.935,1.117
		C276.916,214.012,273.746,215.248,270.64,215.692z"/>
	<path fill="#FFFFFF" d="M249.326,215.766c4.048-0.18,10.214-1.942,11.364-3.679c0.117-0.176,0.098-0.222,0.069-0.29
		c-0.018-0.009-0.256-0.15-0.936-0.15C258,211.647,254.211,212.739,249.326,215.766z"/>
	<path fill="#FFFFFF" d="M246.701,213.74c-0.689,0.449-2.52,1.642-2.011,3.356c0.536,1.804,3.04,1.804,3.983,1.804c0,0,0,0,0.001,0
		c3.925,0,12.402-1.748,14.616-5.09c0.673-1.015,0.794-2.161,0.357-3.19c-0.307-0.781-1.211-2.091-3.823-2.091
		C256.615,208.528,251.708,210.477,246.701,213.74z M260.691,212.087c-1.15,1.737-7.316,3.499-11.364,3.679
		c4.885-3.027,8.674-4.119,10.498-4.119c0.68,0,0.918,0.141,0.936,0.15C260.788,211.865,260.808,211.911,260.691,212.087z"/>
	<path fill="#FFFFFF" d="M283.223,191.562c2.155,0.67,3.868,1.01,5.091,1.01c1.351,0,2.274-0.434,2.747-1.289
		c0.477-0.862,0.344-1.893-0.409-3.089c-0.6-0.913-1.84-2.001-4.344-2.001c-2.802,0-5.906,1.375-6.037,1.434
		c-0.178,0.079-0.338,0.19-0.474,0.329c-0.441,0.448-0.571,1.12-0.328,1.7C279.705,190.221,279.824,190.505,283.223,191.562z"/>
	<path fill="#FFFFFF" d="M270.364,187.516c1.755,0,3.092-0.507,3.492-0.848c-0.465-0.454-1.59-0.872-2.862-0.872
		c-0.961,0-1.788,0.241-2.158,0.63c-0.111,0.116-0.222,0.281-0.205,0.625c0.004,0.077,0.002,0.153-0.006,0.229
		C268.941,187.393,269.524,187.516,270.364,187.516L270.364,187.516z"/>
	<path fill="#FFFFFF" d="M270.363,190.635C270.363,190.635,270.363,190.635,270.363,190.635c2.154,0,4.887-0.583,6.097-2.217
		c0.582-0.787,0.745-1.736,0.459-2.673c-0.025-0.083-0.058-0.165-0.097-0.243c-1.045-2.086-3.792-2.826-5.828-2.826
		c-1.866,0-3.436,0.567-4.417,1.598c-0.679,0.712-1.043,1.609-1.065,2.61c-0.199,0.735-0.086,1.463,0.332,2.083
		C266.821,190.418,269.094,190.635,270.363,190.635z M268.63,187.051c-0.017-0.344,0.094-0.509,0.205-0.625
		c0.37-0.389,1.197-0.63,2.158-0.63c1.272,0,2.397,0.418,2.862,0.872c-0.4,0.341-1.737,0.848-3.492,0.848h-0.001
		c-0.839,0-1.422-0.123-1.738-0.236C268.632,187.204,268.634,187.127,268.63,187.051z"/>
	<path fill="#FFFFFF" d="M256.799,187.691c0.109-0.189,0.148-0.327,0.152-0.431c-0.133-0.018-0.323-0.034-0.583-0.034
		c-2.273,0-7.053,1.295-9.661,4.229c0.251,0.022,0.515,0.033,0.789,0.033C251.329,191.489,255.815,189.401,256.799,187.691z"/>
	<path fill="#FFFFFF" d="M243.509,193.807c1.093,0.531,2.434,0.801,3.987,0.801c0,0,0,0,0,0c4.219,0,10.188-2.201,12.006-5.36
		c0.724-1.258,0.758-2.595,0.096-3.771c-0.47-0.908-1.556-1.369-3.23-1.369c-3.956,0-11.006,2.417-13.575,7.605
		c-0.185,0.373-0.212,0.803-0.078,1.196C242.849,193.302,243.135,193.625,243.509,193.807z M256.368,187.226
		c0.26,0,0.451,0.016,0.583,0.034c-0.004,0.104-0.043,0.242-0.152,0.431c-0.984,1.709-5.47,3.797-9.303,3.797
		c-0.273,0-0.537-0.011-0.789-0.033C249.315,188.521,254.095,187.226,256.368,187.226z"/>
	<path fill="#FFFFFF" d="M223.646,206.295c2.471-0.709,8.659-5.327,13.63-9.737c0.205-1.172,0.126-2.357-0.115-2.579
		c0.002,0.008-0.048-0.011-0.136-0.01c-0.056,0-0.12,0.005-0.189,0.015C232.153,196.888,224.955,202.468,223.646,206.295z"/>
	<path fill="#FFFFFF" d="M220.375,206.609c-0.015,0.111-0.019,0.222-0.01,0.333c0.122,1.558,1.191,2.564,2.724,2.564c0,0,0,0,0,0
		c4.096,0,13.779-8.394,16.649-10.966c0.233-0.209,0.398-0.484,0.473-0.789c0.154-0.627,0.852-3.85-0.587-5.687
		c-0.829-1.057-2.141-1.452-3.725-1.076c-0.16,0.038-0.313,0.101-0.454,0.187C233.998,192.062,221.28,200.012,220.375,206.609z
		 M237.161,193.979c0.241,0.221,0.32,1.406,0.115,2.579c-4.971,4.41-11.16,9.028-13.63,9.737c1.31-3.827,8.507-9.407,13.19-12.312
		c0.069-0.01,0.133-0.015,0.189-0.015C237.113,193.968,237.163,193.987,237.161,193.979z"/>
	<path fill="#FFFFFF" d="M220.638,186.399c0.407,0.196,0.868,0.295,1.369,0.295c2.517,0,5.842-2.6,7.178-4.397
		c0.828-1.114,1.111-2.134,0.841-3.031c-0.119-0.396-0.391-0.729-0.755-0.924c-0.227-0.122-0.561-0.202-0.819-0.202
		c-1.533,0-8.112,4.074-8.66,6.513C219.635,185.36,219.985,186.084,220.638,186.399z"/>
	<path fill="#FFFFFF" d="M215.952,218.441c-0.234,0.498,0.12,1.376,0.974,2.41c0.784,0.956,1.574,1.438,2.353,1.438
		c2.283,0,4.678-3.819,4.876-5.108c-0.012-0.028-0.023-0.057-0.034-0.086c-0.403-0.156-1.312-0.359-2.699-0.359
		C218.501,216.736,216.347,217.603,215.952,218.441z"/>
	<path fill="#FFFFFF" d="M219.278,225.408c3.599,0,6.467-3.776,7.516-6.314c0.519-1.256,0.625-2.262,0.317-3.003
		c-0.074-0.37-0.25-0.72-0.517-1.022c-1.114-1.262-3.719-1.451-5.172-1.451c-3.212,0-7.077,0.918-8.291,3.494
		c-0.553,1.174-0.761,3.12,1.386,5.721C215.918,224.542,217.52,225.408,219.278,225.408z M224.155,217.181
		c-0.198,1.289-2.594,5.108-4.876,5.108c-0.779,0-1.569-0.482-2.353-1.438c-0.854-1.034-1.208-1.912-0.974-2.41
		c0.395-0.838,2.549-1.705,5.47-1.705c1.387,0,2.295,0.203,2.699,0.359C224.131,217.125,224.142,217.153,224.155,217.181z"/>
	<path fill="#FFFFFF" d="M199.935,232.625c1.571-0.23,7.005-3.959,8.885-5.583c-0.071-0.167-0.144-0.343-0.22-0.526
		c-0.47-1.132-1.55-3.735-2.439-4.049c-2.154,0.048-8.866,1.586-10.625,2.637C196.044,226.945,198.849,231.794,199.935,232.625z"/>
	<path fill="#FFFFFF" d="M199.133,235.654c0.22,0.066,0.458,0.099,0.708,0.1c2.833,0,11.715-6.316,12.292-7.854
		c0.155-0.414,0.128-0.873-0.075-1.265c-0.174-0.336-0.363-0.797-0.577-1.313c-0.959-2.313-2.274-5.481-4.854-5.946
		c-0.063-0.011-0.126-0.019-0.19-0.022c-0.07-0.004-0.149-0.006-0.234-0.006c-1.105,0-12.386,1.608-13.699,4.516
		c-0.027,0.06-0.05,0.121-0.069,0.183c-0.629,2.042,2.756,7.412,3.145,8.017C197.357,234.835,198.383,235.488,199.133,235.654z
		 M206.161,222.467c0.89,0.314,1.97,2.917,2.439,4.049c0.076,0.183,0.149,0.359,0.22,0.526c-1.879,1.624-7.313,5.353-8.885,5.583
		c-1.086-0.83-3.891-5.68-4.399-7.521C197.295,224.053,204.007,222.515,206.161,222.467z"/>
	<path fill="#FFFFFF" d="M314.756,284.548c4.682,0,6.4-0.948,6.655-1.449c0.143-0.28-0.077-0.885-0.574-1.597
		c-1.317-1.188-3.57-1.814-6.528-1.814c-4.961,0-10.311,1.683-12.748,2.822C303.988,283.417,309.435,284.548,314.756,284.548z"/>
	<path fill="#FFFFFF" d="M297.504,282.004c-0.021,0.074-0.038,0.15-0.049,0.228c-0.083,0.603,0.114,1.213,0.556,1.719
		c1.978,2.269,11.239,3.717,16.745,3.717c5.271,0,8.356-1.032,9.436-3.155c0.507-0.996,0.759-2.665-0.917-4.963
		c-0.054-0.074-0.115-0.144-0.182-0.207c-1.922-1.84-4.877-2.773-8.784-2.773C308.167,276.568,298.262,279.432,297.504,282.004z
		 M320.837,281.502c0.497,0.712,0.717,1.316,0.574,1.597c-0.255,0.501-1.974,1.449-6.655,1.449c-5.321,0-10.769-1.131-13.195-2.038
		c2.438-1.14,7.787-2.822,12.748-2.822C317.267,279.688,319.52,280.314,320.837,281.502z"/>
	<path fill="#FFFFFF" d="M339.648,294.32L339.648,294.32c1.908,0,3.362-0.625,3.992-1.716c0.502-0.85,0.479-1.719-0.065-2.672
		c-1.373-2.405-5.468-4.362-9.129-4.362c-1.523,0-3.6,0.327-5.278,1.786C330.751,291.68,335.683,294.319,339.648,294.32z"/>
	<path fill="#FFFFFF" d="M326.237,285.875c-0.346,0.387-0.477,0.92-0.349,1.423c1.613,6.348,8.263,10.141,13.76,10.142h0.001
		c3.051,0,5.49-1.194,6.685-3.262c1.067-1.807,1.05-3.863-0.05-5.79c-1.932-3.384-7.021-5.936-11.838-5.936
		C331.076,282.452,328.239,283.636,326.237,285.875z M343.574,289.933c0.544,0.953,0.567,1.822,0.065,2.672
		c-0.63,1.091-2.084,1.716-3.991,1.716h-0.001c-3.965-0.001-8.896-2.641-10.48-6.964c1.679-1.459,3.755-1.786,5.278-1.786
		C338.107,285.57,342.201,287.527,343.574,289.933z"/>
</g>
</svg>
