<?xml version="1.0" encoding="utf-8"?>
<!-- Generator: Adobe Illustrator 16.0.0, SVG Export Plug-In . SVG Version: 6.00 Build 0)  -->
<svg version="1.2" baseProfile="tiny"
	 id="svg1641" xmlns:cc="http://creativecommons.org/ns#" xmlns:dc="http://purl.org/dc/elements/1.1/" xmlns:rdf="http://www.w3.org/1999/02/22-rdf-syntax-ns#"
	 xmlns="http://www.w3.org/2000/svg" xmlns:xlink="http://www.w3.org/1999/xlink" x="0px" y="0px" width="512px" height="512px"
	 viewBox="0 0 512 512" xml:space="preserve">
<g>
	<rect x="0" y="255.829" fill="#E4104D" width="512.019" height="256.186"/>
	<path fill="#8A85FF" d="M198.136,156.25c0,0,0.192-0.53,0.617-1.339l-0.781,0.003C198.101,155.746,198.136,156.25,198.136,156.25z"
		/>
	<path fill="#8A85FF" d="M102.522,156.249c0,0,0.035-0.504,0.164-1.337l-0.779-0.003
		C102.33,155.719,102.522,156.249,102.522,156.249z"/>
	<path fill="#8A85FF" d="M512.019,0H0v255.824v0.004h512.019V0z M215.945,127.112c0,1.18-0.9,2.137-2.011,2.137
		c-1.109,0-2.01-0.957-2.01-2.137c0-1.181,0.9-2.138,2.01-2.138C215.044,124.974,215.945,125.931,215.945,127.112z M212.716,138.536
		c-1.11,0-2.01-0.957-2.01-2.138s0.899-2.138,2.01-2.138s2.01,0.957,2.01,2.138S213.826,138.536,212.716,138.536z M213.102,140.932
		c0,1.181-0.9,2.138-2.01,2.138c-1.11,0-2.011-0.957-2.011-2.138s0.9-2.138,2.011-2.138
		C212.201,138.794,213.102,139.751,213.102,140.932z M213.732,134.003c-1.11,0-2.01-0.957-2.01-2.138s0.899-2.138,2.01-2.138
		c1.109,0,2.01,0.957,2.01,2.138S214.841,134.003,213.732,134.003z M215.335,122.578c0,1.181-0.9,2.138-2.01,2.138
		c-1.11,0-2.011-0.957-2.011-2.138s0.9-2.138,2.011-2.138C214.435,120.44,215.335,121.397,215.335,122.578z M213.711,118.478
		c0,1.181-0.9,2.138-2.01,2.138c-1.11,0-2.011-0.957-2.011-2.138s0.9-2.138,2.011-2.138
		C212.811,116.34,213.711,117.297,213.711,118.478z M209.062,112.452c1.109,0,2.01,0.957,2.01,2.138s-0.9,2.138-2.01,2.138
		c-1.11,0-2.011-0.957-2.011-2.138S207.951,112.452,209.062,112.452z M203.194,111.782
		C203.194,111.782,203.194,111.782,203.194,111.782c0-1.18,0.9-2.137,2.01-2.137c1.11,0,2.011,0.957,2.011,2.138c0,0,0,0,0,0v0l0,0
		c0,1.18-0.9,2.137-2.011,2.137C204.094,113.919,203.194,112.962,203.194,111.782L203.194,111.782L203.194,111.782z
		 M201.143,108.133c1.11,0,2.01,0.957,2.01,2.138s-0.899,2.138-2.01,2.138s-2.01-0.957-2.01-2.138S200.032,108.133,201.143,108.133z
		 M196.676,107.485c1.11,0,2.01,0.957,2.01,2.137c0,1.181-0.899,2.138-2.01,2.138s-2.01-0.957-2.01-2.138
		C194.666,108.442,195.566,107.485,196.676,107.485z M192.413,106.837c1.11,0,2.011,0.957,2.011,2.138s-0.9,2.138-2.011,2.138
		c-1.109,0-2.01-0.957-2.01-2.138S191.304,106.837,192.413,106.837z M187.944,107.053c1.11,0,2.011,0.957,2.011,2.138
		s-0.9,2.138-2.011,2.138c-1.109,0-2.01-0.957-2.01-2.138S186.834,107.053,187.944,107.053z M183.681,107.485
		c1.11,0,2.011,0.957,2.011,2.137c0,1.181-0.9,2.138-2.011,2.138c-1.109,0-2.01-0.957-2.01-2.138
		C181.671,108.442,182.572,107.485,183.681,107.485z M179.215,108.133c1.11,0,2.01,0.957,2.01,2.138s-0.899,2.138-2.01,2.138
		s-2.01-0.957-2.01-2.138S178.105,108.133,179.215,108.133z M174.748,108.997c1.11,0,2.011,0.957,2.011,2.138
		s-0.9,2.138-2.011,2.138c-1.109,0-2.01-0.957-2.01-2.138S173.639,108.997,174.748,108.997z M170.483,110.076
		c1.11,0,2.01,0.958,2.01,2.138c0,1.181-0.899,2.138-2.01,2.138s-2.01-0.957-2.01-2.138
		C168.473,111.034,169.372,110.076,170.483,110.076z M166.22,111.37c1.109,0,2.01,0.957,2.01,2.138s-0.9,2.138-2.01,2.138
		c-1.11,0-2.011-0.957-2.011-2.138S165.11,111.37,166.22,111.37z M164.17,114.373c0,1.181-0.899,2.138-2.01,2.138
		s-2.01-0.957-2.01-2.138c0-1.18,0.899-2.137,2.01-2.137S164.17,113.193,164.17,114.373z M139.215,112.236
		c1.11,0,2.01,0.957,2.01,2.137c0,1.181-0.899,2.138-2.01,2.138s-2.01-0.957-2.01-2.138
		C137.205,113.193,138.105,112.236,139.215,112.236z M135.156,111.37c1.11,0,2.01,0.957,2.01,2.138s-0.899,2.138-2.01,2.138
		s-2.01-0.957-2.01-2.138S134.045,111.37,135.156,111.37z M130.893,110.076c1.11,0,2.01,0.958,2.01,2.138
		c0,1.181-0.899,2.138-2.01,2.138s-2.01-0.957-2.01-2.138C128.883,111.034,129.782,110.076,130.893,110.076z M126.626,108.997
		c1.11,0,2.011,0.957,2.011,2.138s-0.9,2.138-2.011,2.138c-1.109,0-2.01-0.957-2.01-2.138S125.517,108.997,126.626,108.997z
		 M122.16,108.133c1.11,0,2.01,0.957,2.01,2.138s-0.899,2.138-2.01,2.138s-2.01-0.957-2.01-2.138S121.05,108.133,122.16,108.133z
		 M117.695,107.485c1.109,0,2.01,0.957,2.01,2.137c0,1.181-0.9,2.138-2.01,2.138c-1.11,0-2.011-0.957-2.011-2.138
		C115.684,108.442,116.584,107.485,117.695,107.485z M113.431,107.053c1.11,0,2.011,0.957,2.011,2.138s-0.9,2.138-2.011,2.138
		c-1.109,0-2.01-0.957-2.01-2.138S112.322,107.053,113.431,107.053z M108.961,106.837c1.11,0,2.011,0.957,2.011,2.138
		s-0.9,2.138-2.011,2.138c-1.109,0-2.01-0.957-2.01-2.138S107.852,106.837,108.961,106.837z M100.233,108.133
		c1.11,0,2.01,0.957,2.01,2.138s-0.899,2.138-2.01,2.138s-2.01-0.957-2.01-2.138S99.122,108.133,100.233,108.133z M94.161,111.782
		C94.161,111.782,94.161,111.782,94.161,111.782c0-1.18,0.9-2.137,2.01-2.137c1.11,0,2.011,0.957,2.011,2.138c0,0,0,0,0,0v0l0,0
		c0,1.18-0.9,2.137-2.011,2.137C95.062,113.919,94.161,112.962,94.161,111.782L94.161,111.782L94.161,111.782z M92.314,112.452
		c1.11,0,2.011,0.957,2.011,2.138s-0.9,2.138-2.011,2.138c-1.109,0-2.01-0.957-2.01-2.138S91.204,112.452,92.314,112.452z
		 M89.674,116.34c1.11,0,2.01,0.957,2.01,2.138s-0.899,2.138-2.01,2.138c-1.109,0-2.01-0.957-2.01-2.138
		S88.565,116.34,89.674,116.34z M88.05,120.44c1.11,0,2.01,0.957,2.01,2.138s-0.899,2.138-2.01,2.138s-2.01-0.957-2.01-2.138
		S86.94,120.44,88.05,120.44z M88.659,138.536c-1.11,0-2.01-0.957-2.01-2.138s0.899-2.138,2.01-2.138s2.01,0.957,2.01,2.138
		S89.77,138.536,88.659,138.536z M92.294,140.932c0,1.181-0.9,2.138-2.011,2.138c-1.109,0-2.01-0.957-2.01-2.138
		s0.9-2.138,2.01-2.138C91.394,138.794,92.294,139.751,92.294,140.932z M87.644,134.003c-1.11,0-2.01-0.957-2.01-2.138
		s0.899-2.138,2.01-2.138s2.01,0.957,2.01,2.138S88.754,134.003,87.644,134.003z M87.442,124.974c1.109,0,2.01,0.957,2.01,2.138
		c0,1.18-0.9,2.137-2.01,2.137c-1.11,0-2.011-0.957-2.011-2.137C85.431,125.931,86.331,124.974,87.442,124.974z M90.661,146.294
		c-0.345-0.384-0.56-0.901-0.56-1.475c0-1.181,0.9-2.138,2.01-2.138c1.11,0,2.011,0.957,2.011,2.138c0,0.95-0.586,1.745-1.392,2.024
		c1.665,0.565,3.08,1.358,4.271,2.25c-4.804-7.595-11.282-21.098-4.596-31.041c2.548-3.789,7.035-5.63,12.275-6.295
		c-1.101-0.011-1.99-0.962-1.99-2.136c0-1.18,0.899-2.137,2.01-2.137c1.109,0,2.01,0.957,2.01,2.137
		c0,1.019-0.671,1.867-1.568,2.082c14.905-1.684,35.575,5.887,35.689,5.887c0.138,0,0.293-6.167,6.982-7.655
		c-0.62-0.655-1.003-1.553-1.003-2.546c0-1.838,1.315-3.341,3.014-3.577c-0.541-0.23-1.181-1.023-1.231-3.707
		c0.133-3.66,1.059-4.696,1.059-4.765v-0.897h-0.992c0,0-1.059,0.897-4.696,0.967c-3.638,0.069-3.836-1.036-3.902-1.657
		c-0.066-0.622,0.661-1.727,3.836-1.795c3.175-0.069,4.696,1.104,4.696,1.104l1.19,0l-0.065-1.036c0-0.207-1.455-1.381-1.455-4.351
		s1.256-4.143,1.918-4.143c0.661,0,2.116,0.967,2.183,4.074s-1.455,4.281-1.455,4.281l-0.133,1.243c0,0,1.059,0.069,1.125,0.069
		s1.455-1.243,5.026-1.105c3.572,0.138,3.771,1.658,3.837,2.141s-0.529,1.933-4.101,1.933c-3.572,0-4.631-1.726-4.696-1.726
		c-0.066,0-1.125-0.069-1.125-0.069v0.898c0,0,1.389,1.105,1.323,4.765c-0.049,2.712-0.824,3.526-1.384,3.768v0.013
		c1.552,0.235,2.758,1.531,2.935,3.167l0.169-0.001l0.005,0.76l-0.169,0.001c-0.075,0.797-0.389,1.516-0.877,2.076
		c7.299,1.233,7.465,7.771,7.607,7.771c0.155,0,38.616-14.126,48.426,0.461c6.524,9.7,0.517,22.788-4.241,30.474
		c1.139-0.702,2.452-1.296,3.957-1.702c-0.777-0.296-1.336-1.078-1.336-2.005c0-1.181,0.9-2.138,2.011-2.138
		c1.109,0,2.01,0.957,2.01,2.138c0,0.644-0.273,1.214-0.696,1.606c2.03-0.278,4.351-0.223,7.007,0.339v0.001l-11.469,33.882
		c0,0-0.11-0.045-0.306-0.122c-3.848,4.04-25.896,7.137-52.524,7.137h-0.002c-28.815,0-52.255-3.628-53.082-8.151
		c-0.235,0.091-0.361,0.145-0.361,0.145L83.16,146.363C86.035,145.828,88.518,145.876,90.661,146.294z"/>
	<path fill="#F3EF7D" d="M101.906,154.908l0.779,0.003c0.021-0.139,0.045-0.287,0.072-0.443c-2.412-3.093-16.664-22.359-8.023-35.36
		c9.416-14.17,46.339-0.448,46.488-0.448c0.145,0,0.314-7.089,8.562-7.697c-0.766-0.116-1.454-0.479-1.972-1.027
		c-6.689,1.488-6.844,7.655-6.982,7.655c-0.114,0-20.784-7.571-35.689-5.887c-0.143,0.034-0.29,0.056-0.442,0.056
		c-0.007,0-0.013-0.002-0.02-0.002c-5.24,0.665-9.728,2.506-12.275,6.295c-6.686,9.942-0.208,23.446,4.596,31.041
		C99.601,151.042,101.14,153.441,101.906,154.908z"/>
	<path fill="#F3EF7D" d="M151.018,110.93c8.726,0.36,8.893,7.73,9.039,7.73c0.149,0,37.071-13.723,46.489,0.448
		c9.417,14.17-8.371,35.799-8.371,35.799l-0.204,0.001c0,0.002,0,0.003,0.001,0.005l0.781-0.003
		c0.858-1.632,2.683-4.413,5.881-6.383c4.758-7.686,10.765-20.773,4.241-30.474c-9.81-14.587-48.271-0.461-48.426-0.461
		c-0.142,0-0.308-6.539-7.607-7.771C152.365,110.368,151.737,110.768,151.018,110.93z"/>
	<path d="M206.546,119.108c-9.418-14.17-46.34-0.448-46.489-0.448c-0.146,0-0.313-7.37-9.039-7.73
		c-0.077,0.018-0.158,0.021-0.237,0.033v0.053h-0.729v-0.024c-0.09-0.006-0.179-0.015-0.268-0.028
		c-8.247,0.608-8.417,7.697-8.562,7.697c-0.149,0-37.072-13.723-46.488,0.448c-8.641,13.001,5.611,32.267,8.023,35.36
		c0.533-3.094,2.202-9.484,7.147-13.185v-26.098h0.726v25.589c0.556-0.362,1.15-0.69,1.784-0.979v-24.61h0.727v24.297
		c0.643-0.249,1.323-0.459,2.045-0.621c0.124-0.021,0.246-0.031,0.369-0.047v-23.566h0.67v23.49
		c0.768-0.056,1.526-0.026,2.273,0.072v-23.271h0.825v23.408c0.818,0.165,1.619,0.408,2.397,0.716v-23.381h0.825v23.733
		c0.804,0.369,1.581,0.798,2.325,1.271v-23.848h0.775V141.8c0.896,0.619,1.741,1.288,2.52,1.97v-25.008h0.726v25.665
		c2.975,2.768,4.838,5.5,4.838,5.5s0.482-3.342,2.606-6.847v-19.472h0.521v18.661c0.506-0.745,1.088-1.485,1.762-2.193v-14.288h0.62
		v13.673c0.494-0.465,1.029-0.909,1.611-1.325v-9.007h0.558v8.632c2.267-1.469,5.177-2.5,8.92-2.601
		c3.927,0.106,6.937,1.236,9.248,2.822v-8.168h0.559v8.57c0.584,0.441,1.12,0.91,1.61,1.399v-13.309h0.62v13.962
		c0.679,0.756,1.264,1.543,1.762,2.329v-18.471h0.521v19.349c1.847,3.292,2.278,6.285,2.278,6.285s2.001-2.933,5.166-5.8v-24.681
		h0.726v24.043c0.783-0.667,1.625-1.319,2.52-1.916v-23.451h0.775v22.957c0.747-0.455,1.523-0.868,2.325-1.216v-22.897h0.825v22.566
		c0.779-0.288,1.581-0.506,2.397-0.648v-22.661h0.825v22.548c0.748-0.077,1.506-0.082,2.273-0.001v-22.838h0.67v22.924
		c0.014,0.002,0.027,0.003,0.041,0.005c0.848,0.19,1.634,0.452,2.373,0.761v-23.753h0.727v24.076
		c0.636,0.311,1.229,0.664,1.784,1.049v-25.125h0.726v25.663c4.932,3.924,6.454,10.549,6.89,13.374l0.204-0.001
		C198.175,154.907,215.963,133.278,206.546,119.108z M205.436,124.832h0.571v6.848h-0.571V124.832z M203.36,121.116h0.571v14.083
		h-0.571V121.116z M201.278,119.189h0.67v18.525h-0.67V119.189z M198.681,117.835h0.726v22.157h-0.726V117.835z M95.551,130.996
		h-0.57v-6.849h0.57V130.996z M97.627,134.513h-0.57v-14.083h0.57V134.513z M99.709,137.029h-0.67v-18.525h0.67V137.029z
		 M102.307,139.307h-0.727V117.15h0.727V139.307z M105.188,141.189h-0.726v-24.832h0.726V141.189z M108.125,142.453h-0.719v-27.058
		h0.719V142.453z M131.62,145.151h-0.727v-25.498h0.727V145.151z M134.417,144.372h-0.62v-22.995h0.62V144.372z M150.488,111.156
		c0.605,0,1.097,0.474,1.097,1.058c0,0.584-0.491,1.058-1.097,1.058s-1.096-0.474-1.096-1.058
		C149.392,111.63,149.882,111.156,150.488,111.156z M150.484,113.532L150.484,113.532c0.718,0,1.3,0.667,1.3,1.49
		c0,0.823-0.582,1.49-1.299,1.49h-0.001c-0.717,0-1.299-0.667-1.299-1.49C149.185,114.199,149.767,113.532,150.484,113.532z
		 M150.485,116.775c0.717,0,1.299,0.57,1.299,1.274c0,0.703-0.582,1.274-1.299,1.274c-0.718,0-1.3-0.571-1.3-1.274
		C149.185,117.346,149.767,116.775,150.485,116.775z M150.481,119.574c0.83,0,1.502,0.715,1.502,1.598
		c0,0.882-0.672,1.598-1.502,1.598s-1.503-0.715-1.503-1.598C148.978,120.29,149.651,119.574,150.481,119.574z M150.481,123.035
		c0.83,0,1.502,0.764,1.502,1.706c0,0.942-0.672,1.706-1.502,1.706s-1.503-0.764-1.503-1.706
		C148.978,123.798,149.651,123.035,150.481,123.035z M150.582,126.701c0.886,0,1.604,0.812,1.604,1.814
		c0,1.001-0.718,1.814-1.604,1.814s-1.604-0.812-1.604-1.814C148.978,127.513,149.697,126.701,150.582,126.701z M150.585,134.654
		c-1.11,0-2.01-0.957-2.01-2.138s0.899-2.138,2.01-2.138s2.01,0.957,2.01,2.138S151.696,134.654,150.585,134.654z M167.191,145.057
		h-0.621v-22.996h0.621V145.057z M170.093,145.836h-0.727v-25.498h0.727V145.836z M193.581,143.138h-0.72V116.08h0.72V143.138z
		 M196.525,141.874h-0.726v-24.832h0.726V141.874z"/>
	<rect x="205.436" y="124.832" fill="#F3EF7D" width="0.571" height="6.848"/>
	<rect x="203.36" y="121.116" fill="#F3EF7D" width="0.571" height="14.083"/>
	<rect x="201.278" y="119.189" fill="#F3EF7D" width="0.67" height="18.525"/>
	<rect x="198.681" y="117.835" fill="#F3EF7D" width="0.726" height="22.157"/>
	<rect x="195.799" y="117.042" fill="#F3EF7D" width="0.726" height="24.832"/>
	<rect x="192.862" y="116.08" fill="#F3EF7D" width="0.72" height="27.058"/>
	<path fill="#F3EF7D" d="M190.356,115.871v25.125c0.25,0.173,0.492,0.352,0.726,0.538v-25.663H190.356z"/>
	<path fill="#F3EF7D" d="M187.845,115.871v23.753c0.247,0.103,0.491,0.208,0.727,0.323v-24.076H187.845z"/>
	<path fill="#F3EF7D" d="M184.761,115.933v22.838c0.223,0.023,0.446,0.048,0.67,0.086v-22.924H184.761z"/>
	<path fill="#F3EF7D" d="M181.662,116.224v22.661c0.273-0.047,0.548-0.084,0.825-0.112v-22.548H181.662z"/>
	<path fill="#F3EF7D" d="M178.44,116.966v22.897c0.272-0.118,0.547-0.229,0.825-0.332v-22.566H178.44z"/>
	<path fill="#F3EF7D" d="M175.339,118.123v23.451c0.254-0.169,0.513-0.334,0.775-0.494v-22.957H175.339z"/>
	<path fill="#F3EF7D" d="M172.094,119.446v24.681c0.235-0.213,0.478-0.426,0.726-0.637v-24.043H172.094z"/>
	<rect x="169.366" y="120.338" fill="#F3EF7D" width="0.727" height="25.498"/>
	<rect x="166.57" y="122.062" fill="#F3EF7D" width="0.621" height="22.996"/>
	<path fill="#F3EF7D" d="M164.128,124.292v18.471c0.187,0.294,0.358,0.587,0.521,0.878v-19.349H164.128z"/>
	<path fill="#F3EF7D" d="M161.746,126.473v13.309c0.215,0.215,0.422,0.432,0.62,0.653v-13.962H161.746z"/>
	<path fill="#F3EF7D" d="M159.577,129.813v8.168c0.191,0.131,0.377,0.264,0.559,0.401v-8.57H159.577z"/>
	<rect x="94.981" y="124.147" fill="#F3EF7D" width="0.57" height="6.849"/>
	<rect x="97.057" y="120.431" fill="#F3EF7D" width="0.57" height="14.083"/>
	<rect x="99.039" y="118.504" fill="#F3EF7D" width="0.67" height="18.525"/>
	<rect x="101.58" y="117.15" fill="#F3EF7D" width="0.727" height="22.157"/>
	<rect x="104.462" y="116.357" fill="#F3EF7D" width="0.726" height="24.832"/>
	<rect x="107.406" y="115.396" fill="#F3EF7D" width="0.719" height="27.058"/>
	<path fill="#F3EF7D" d="M109.906,115.186v26.098c0.235-0.176,0.476-0.346,0.726-0.509v-25.589H109.906z"/>
	<path fill="#F3EF7D" d="M112.415,115.186v24.61c0.238-0.108,0.477-0.216,0.727-0.313v-24.297H112.415z"/>
	<path fill="#F3EF7D" d="M115.556,115.248v23.566c0.224-0.031,0.447-0.06,0.67-0.076v-23.49H115.556z"/>
	<path fill="#F3EF7D" d="M118.499,115.539v23.271c0.277,0.036,0.552,0.082,0.825,0.137v-23.408H118.499z"/>
	<path fill="#F3EF7D" d="M121.722,116.282v23.381c0.278,0.11,0.553,0.227,0.825,0.352v-23.733H121.722z"/>
	<path fill="#F3EF7D" d="M124.872,117.438v23.848c0.263,0.167,0.521,0.337,0.775,0.514v-24.361H124.872z"/>
	<path fill="#F3EF7D" d="M128.167,118.762v25.008c0.249,0.218,0.49,0.438,0.726,0.657v-25.665H128.167z"/>
	<rect x="130.894" y="119.653" fill="#F3EF7D" width="0.727" height="25.498"/>
	<rect x="133.797" y="121.377" fill="#F3EF7D" width="0.62" height="22.995"/>
	<path fill="#F3EF7D" d="M136.337,123.608v19.472c0.164-0.27,0.337-0.541,0.521-0.812v-18.661H136.337z"/>
	<path fill="#F3EF7D" d="M138.62,125.788v14.288c0.199-0.208,0.406-0.413,0.62-0.615v-13.673H138.62z"/>
	<path fill="#F3EF7D" d="M140.852,129.129v9.007c0.18-0.129,0.368-0.252,0.558-0.375v-8.632H140.852z"/>
	<path fill="#F3EF7D" d="M150.052,103.765h0.729v0.04c0.56-0.241,1.334-1.056,1.384-3.768c0.065-3.66-1.323-4.765-1.323-4.765
		v-0.898c0,0,1.059,0.069,1.125,0.069c0.065,0,1.124,1.726,4.696,1.726c3.571,0,4.167-1.45,4.101-1.933s-0.265-2.003-3.837-2.141
		c-3.571-0.138-4.96,1.105-5.026,1.105s-1.125-0.069-1.125-0.069l0.133-1.243c0,0,1.521-1.174,1.455-4.281s-1.521-4.074-2.183-4.074
		c-0.662,0-1.918,1.174-1.918,4.143s1.455,4.144,1.455,4.351l0.065,1.036l-1.19,0c0,0-1.521-1.174-4.696-1.104
		c-3.175,0.069-3.902,1.174-3.836,1.795c0.066,0.621,0.265,1.726,3.902,1.657c3.638-0.069,4.696-0.967,4.696-0.967h0.992v0.897
		c0,0.069-0.926,1.105-1.059,4.765c0.05,2.684,0.69,3.477,1.231,3.707c0.076-0.011,0.152-0.019,0.229-0.024V103.765z"/>
	<ellipse fill="#F3EF7D" cx="139.215" cy="114.373" rx="2.01" ry="2.137"/>
	<ellipse fill="#F3EF7D" cx="135.156" cy="113.508" rx="2.01" ry="2.138"/>
	<ellipse fill="#F3EF7D" cx="130.893" cy="112.214" rx="2.01" ry="2.138"/>
	<ellipse fill="#F3EF7D" cx="126.626" cy="111.134" rx="2.011" ry="2.138"/>
	<ellipse fill="#F3EF7D" cx="122.16" cy="110.271" rx="2.01" ry="2.138"/>
	<ellipse fill="#F3EF7D" cx="117.695" cy="109.623" rx="2.01" ry="2.137"/>
	<ellipse fill="#F3EF7D" cx="113.431" cy="109.191" rx="2.011" ry="2.138"/>
	<ellipse fill="#F3EF7D" cx="108.961" cy="108.975" rx="2.011" ry="2.138"/>
	<path fill="#F3EF7D" d="M105.141,111.705c0.896-0.215,1.568-1.063,1.568-2.082c0-1.18-0.9-2.137-2.01-2.137
		c-1.11,0-2.01,0.957-2.01,2.137c0,1.173,0.889,2.125,1.99,2.136c0.007,0,0.013,0.002,0.02,0.002
		C104.852,111.76,104.999,111.739,105.141,111.705z"/>
	<ellipse fill="#F3EF7D" cx="100.233" cy="110.271" rx="2.01" ry="2.138"/>
	<polygon fill="#F3EF7D" points="94.161,111.782 94.161,111.782 94.161,111.782 	"/>
	<polygon fill="#F3EF7D" points="98.182,111.782 98.182,111.782 98.182,111.782 	"/>
	<ellipse fill="#F3EF7D" cx="96.171" cy="111.782" rx="2.011" ry="2.137"/>
	<ellipse fill="#F3EF7D" cx="92.314" cy="114.59" rx="2.011" ry="2.138"/>
	<ellipse fill="#F3EF7D" cx="89.674" cy="118.478" rx="2.01" ry="2.138"/>
	<ellipse fill="#F3EF7D" cx="88.05" cy="122.578" rx="2.01" ry="2.138"/>
	<ellipse fill="#F3EF7D" cx="87.442" cy="127.112" rx="2.01" ry="2.137"/>
	<ellipse fill="#F3EF7D" cx="87.644" cy="131.865" rx="2.01" ry="2.138"/>
	<ellipse fill="#F3EF7D" cx="88.659" cy="136.398" rx="2.01" ry="2.138"/>
	<ellipse fill="#F3EF7D" cx="90.284" cy="140.932" rx="2.01" ry="2.138"/>
	<path fill="#F3EF7D" d="M94.121,144.82c0-1.181-0.9-2.138-2.011-2.138c-1.109,0-2.01,0.957-2.01,2.138
		c0,0.573,0.215,1.091,0.56,1.475c0.729,0.142,1.417,0.328,2.068,0.549C93.535,146.565,94.121,145.77,94.121,144.82z"/>
	<ellipse fill="#F3EF7D" cx="162.16" cy="114.373" rx="2.01" ry="2.138"/>
	<ellipse fill="#F3EF7D" cx="166.22" cy="113.508" rx="2.01" ry="2.138"/>
	<ellipse fill="#F3EF7D" cx="170.483" cy="112.214" rx="2.01" ry="2.138"/>
	<ellipse fill="#F3EF7D" cx="174.748" cy="111.134" rx="2.011" ry="2.138"/>
	<ellipse fill="#F3EF7D" cx="179.215" cy="110.271" rx="2.01" ry="2.138"/>
	<ellipse fill="#F3EF7D" cx="183.681" cy="109.623" rx="2.011" ry="2.137"/>
	<ellipse fill="#F3EF7D" cx="187.944" cy="109.191" rx="2.011" ry="2.138"/>
	<ellipse fill="#F3EF7D" cx="192.413" cy="108.975" rx="2.011" ry="2.138"/>
	<ellipse fill="#F3EF7D" cx="196.676" cy="109.623" rx="2.01" ry="2.137"/>
	<ellipse fill="#F3EF7D" cx="201.143" cy="110.271" rx="2.01" ry="2.138"/>
	<polygon fill="#F3EF7D" points="207.214,111.782 207.214,111.782 207.214,111.782 	"/>
	<polygon fill="#F3EF7D" points="203.194,111.782 203.194,111.782 203.194,111.782 	"/>
	<ellipse fill="#F3EF7D" cx="205.203" cy="111.782" rx="2.011" ry="2.137"/>
	<ellipse fill="#F3EF7D" cx="209.062" cy="114.59" rx="2.01" ry="2.138"/>
	<ellipse fill="#F3EF7D" cx="211.701" cy="118.478" rx="2.01" ry="2.138"/>
	<ellipse fill="#F3EF7D" cx="213.325" cy="122.578" rx="2.01" ry="2.138"/>
	<ellipse fill="#F3EF7D" cx="213.934" cy="127.112" rx="2.01" ry="2.137"/>
	<ellipse fill="#F3EF7D" cx="213.732" cy="131.865" rx="2.01" ry="2.138"/>
	<ellipse fill="#F3EF7D" cx="212.716" cy="136.398" rx="2.01" ry="2.138"/>
	<ellipse fill="#F3EF7D" cx="211.092" cy="140.932" rx="2.011" ry="2.138"/>
	<path fill="#F3EF7D" d="M211.275,144.82c0-1.181-0.9-2.138-2.01-2.138c-1.11,0-2.011,0.957-2.011,2.138
		c0,0.928,0.56,1.709,1.336,2.005c0.628-0.169,1.291-0.304,1.988-0.399C211.002,146.034,211.275,145.463,211.275,144.82z"/>
	<path fill="#F3EF7D" d="M100.203,179.513c-0.015-0.082-0.04-0.164-0.04-0.246v0c0-4.638,23.783-8.398,53.121-8.398h0.002
		c29.338,0,53.121,3.76,53.121,8.398v0c0,0.429-0.206,0.849-0.597,1.261c0.196,0.076,0.306,0.122,0.306,0.122l11.469-33.882v-0.001
		c-2.656-0.562-4.977-0.618-7.007-0.339c-0.697,0.095-1.359,0.23-1.988,0.399c-1.505,0.405-2.818,1-3.957,1.702
		c-3.198,1.971-5.023,4.751-5.881,6.383c-0.425,0.809-0.617,1.339-0.617,1.339s-0.035-0.503-0.164-1.336
		c0-0.002,0-0.003-0.001-0.005c-0.437-2.825-1.958-9.45-6.89-13.374c-0.234-0.186-0.476-0.365-0.726-0.538
		c-0.555-0.386-1.148-0.739-1.784-1.049c-0.235-0.115-0.479-0.22-0.727-0.323c-0.739-0.309-1.525-0.571-2.373-0.761
		c-0.014-0.002-0.027-0.003-0.041-0.005c-0.224-0.038-0.447-0.063-0.67-0.086c-0.768-0.081-1.526-0.076-2.273,0.001
		c-0.277,0.028-0.552,0.065-0.825,0.112c-0.816,0.142-1.618,0.36-2.397,0.648c-0.278,0.103-0.553,0.214-0.825,0.332
		c-0.802,0.348-1.579,0.761-2.325,1.216c-0.262,0.16-0.521,0.325-0.775,0.494c-0.895,0.597-1.736,1.248-2.52,1.916
		c-0.248,0.211-0.49,0.424-0.726,0.637c-3.165,2.867-5.166,5.8-5.166,5.8s-0.432-2.994-2.278-6.285
		c-0.164-0.291-0.335-0.584-0.521-0.878c-0.498-0.785-1.083-1.572-1.762-2.329c-0.198-0.221-0.405-0.438-0.62-0.653
		c-0.491-0.489-1.026-0.958-1.61-1.399c-0.182-0.137-0.368-0.271-0.559-0.401c-2.312-1.586-5.321-2.715-9.248-2.822
		c-3.743,0.102-6.653,1.132-8.92,2.601c-0.189,0.123-0.377,0.246-0.558,0.375c-0.583,0.416-1.118,0.86-1.611,1.325
		c-0.214,0.202-0.421,0.406-0.62,0.615c-0.674,0.708-1.255,1.448-1.762,2.193c-0.184,0.271-0.357,0.542-0.521,0.812
		c-2.125,3.505-2.606,6.847-2.606,6.847s-1.863-2.732-4.838-5.5c-0.236-0.22-0.477-0.439-0.726-0.657
		c-0.778-0.682-1.624-1.351-2.52-1.97c-0.254-0.176-0.513-0.347-0.775-0.514c-0.745-0.473-1.521-0.902-2.325-1.271
		c-0.272-0.125-0.547-0.242-0.825-0.352c-0.779-0.308-1.58-0.551-2.397-0.716c-0.273-0.055-0.548-0.101-0.825-0.137
		c-0.747-0.098-1.505-0.128-2.273-0.072c-0.223,0.017-0.446,0.045-0.67,0.076c-0.123,0.017-0.246,0.026-0.369,0.047
		c-0.722,0.162-1.402,0.372-2.045,0.621c-0.25,0.097-0.488,0.205-0.727,0.313c-0.634,0.289-1.229,0.617-1.784,0.979
		c-0.25,0.163-0.491,0.333-0.726,0.509c-4.945,3.701-6.615,10.091-7.147,13.185c-0.027,0.156-0.051,0.304-0.072,0.443
		c-0.129,0.833-0.164,1.337-0.164,1.337s-0.191-0.529-0.615-1.341c-0.767-1.467-2.306-3.866-4.906-5.814
		c-1.191-0.892-2.606-1.685-4.271-2.25c-0.651-0.221-1.339-0.407-2.068-0.549c-2.143-0.418-4.625-0.466-7.5,0.068l16.682,33.294
		C99.842,179.657,99.968,179.604,100.203,179.513z M213.657,149.489c0.335-0.872,1.097-1.366,1.702-1.103
		c0.605,0.263,0.825,1.184,0.49,2.056s-1.098,1.366-1.703,1.103S213.323,150.361,213.657,149.489z M212.311,147.992
		c0.605,0.263,0.825,1.184,0.49,2.056s-1.098,1.366-1.703,1.103s-0.825-1.183-0.49-2.055
		C210.943,148.223,211.705,147.729,212.311,147.992z M207.503,149.612c0.335-0.872,1.098-1.366,1.703-1.103
		c0.605,0.263,0.825,1.183,0.49,2.055s-1.098,1.366-1.703,1.103C207.388,151.405,207.168,150.484,207.503,149.612z M206.288,150.043
		c0.605,0.263,0.825,1.183,0.49,2.055s-1.098,1.366-1.703,1.103c-0.605-0.263-0.824-1.183-0.489-2.055
		S205.683,149.78,206.288,150.043z M201.695,156.222c1.603,3.489,1.849,3.671,3.229,3.982c1.435-1.068,2.7-2.437,2.7-2.437
		l-1.713,3.343c1.315,1.149,1.076,1.328,4.324,2.132c-6.22,0.249-11.14,7.288-12.648,9.701c-0.293,0.51-0.482,0.807-0.482,0.807
		s0.169-0.306,0.482-0.807C198.971,170.534,202.827,163.058,201.695,156.222z M192.323,155.665
		c-8.163,2.31-10.776,11.584-11.438,14.733c-0.106,0.672-0.193,1.058-0.193,1.058s0.055-0.397,0.193-1.058
		c0.494-3.117,1.409-12.525-3.948-19.599c4.113,3.286,4.545,3.404,6.566,3.29c1.314-1.637,2.236-3.548,2.236-3.548l-0.404,4.215
		C187.744,155.58,187.525,155.853,192.323,155.665z M193.824,149.024c0.646,0.108,1.058,0.95,0.92,1.881s-0.772,1.597-1.419,1.489
		c-0.646-0.108-1.059-0.95-0.921-1.881S193.178,148.917,193.824,149.024z M191.78,146.276c0.646,0.108,1.059,0.95,0.921,1.881
		s-0.773,1.597-1.419,1.489c-0.646-0.108-1.059-0.95-0.921-1.881S191.134,146.168,191.78,146.276z M189.404,143.911
		c0.646,0.108,1.058,0.95,0.92,1.881s-0.772,1.597-1.419,1.489c-0.646-0.108-1.059-0.95-0.921-1.881
		S188.757,143.803,189.404,143.911z M184.921,144.015c0.138-0.931,0.773-1.597,1.419-1.489c0.646,0.108,1.059,0.95,0.921,1.881
		s-0.773,1.597-1.419,1.489C185.196,145.787,184.783,144.945,184.921,144.015z M181.994,143.525c0.138-0.931,0.773-1.598,1.42-1.489
		c0.646,0.108,1.058,0.95,0.92,1.881s-0.772,1.597-1.419,1.489C182.269,145.297,181.857,144.456,181.994,143.525z M178.942,143.886
		c0.139-0.931,0.773-1.597,1.42-1.489c0.646,0.108,1.058,0.95,0.92,1.881s-0.772,1.598-1.419,1.489
		C179.216,145.659,178.804,144.817,178.942,143.886z M176.032,145.148c0.138-0.931,0.772-1.597,1.419-1.489
		c0.646,0.108,1.059,0.95,0.921,1.88c-0.138,0.931-0.773,1.598-1.42,1.489C176.307,146.921,175.895,146.079,176.032,145.148z
		 M173.524,147.354c0.138-0.931,0.773-1.598,1.419-1.489c0.646,0.108,1.059,0.95,0.921,1.881s-0.773,1.597-1.419,1.489
		C173.798,149.126,173.386,148.284,173.524,147.354z M160.345,142.899c0.654,0,1.184,0.764,1.184,1.706s-0.529,1.706-1.184,1.706
		s-1.185-0.764-1.185-1.706S159.691,142.899,160.345,142.899z M157.924,140.522c0.653,0,1.184,0.764,1.184,1.706
		c0,0.942-0.53,1.706-1.184,1.706c-0.654,0-1.185-0.764-1.185-1.706C156.74,141.286,157.27,140.522,157.924,140.522z
		 M155.23,138.578c0.654,0,1.185,0.764,1.185,1.706s-0.53,1.706-1.185,1.706c-0.653,0-1.184-0.764-1.184-1.706
		S154.576,138.578,155.23,138.578z M152.002,137.716c0.654,0,1.184,0.764,1.184,1.706c0,0.942-0.529,1.706-1.184,1.706
		s-1.185-0.764-1.185-1.706C150.818,138.479,151.348,137.716,152.002,137.716z M149.039,137.716c0.654,0,1.185,0.764,1.185,1.706
		c0,0.942-0.53,1.706-1.185,1.706s-1.185-0.764-1.185-1.706C147.855,138.479,148.385,137.716,149.039,137.716z M149.406,151.305
		c0.891-1.934,1.337-4.029,1.337-4.029l0.594,4.19c2.524,0.161,2.377,0.483,6.98-0.967c-7.367,4.396-7.729,14.073-7.634,17.296
		c0.054,0.678,0.06,1.074,0.06,1.074s-0.04-0.398-0.06-1.074c-0.25-3.148-1.563-12.505-8.406-17.94
		C147.03,151.949,147.475,151.949,149.406,151.305z M146.076,138.578c0.654,0,1.185,0.764,1.185,1.706s-0.53,1.706-1.185,1.706
		c-0.653,0-1.184-0.764-1.184-1.706S145.423,138.578,146.076,138.578z M143.387,140.306c0.654,0,1.184,0.764,1.184,1.706
		s-0.529,1.706-1.184,1.706s-1.185-0.764-1.185-1.706S142.733,140.306,143.387,140.306z M141.231,142.899
		c0.654,0,1.185,0.764,1.185,1.706s-0.53,1.706-1.185,1.706c-0.653,0-1.184-0.764-1.184-1.706S140.577,142.899,141.231,142.899z
		 M126.025,144.72c0.644-0.125,1.294,0.524,1.454,1.451s-0.232,1.78-0.876,1.905c-0.643,0.125-1.294-0.524-1.454-1.451
		C124.99,145.699,125.381,144.846,126.025,144.72z M123.24,142.847c0.644-0.125,1.295,0.524,1.455,1.451
		c0.159,0.926-0.232,1.779-0.876,1.905s-1.294-0.524-1.454-1.451C122.204,143.826,122.597,142.973,123.24,142.847z M120.261,141.452
		c0.644-0.125,1.294,0.524,1.454,1.451s-0.232,1.78-0.876,1.905c-0.643,0.125-1.294-0.524-1.454-1.451
		C119.226,142.43,119.617,141.577,120.261,141.452z M116.94,141.223c0.644-0.125,1.294,0.524,1.454,1.451
		c0.159,0.927-0.232,1.78-0.876,1.905c-0.643,0.125-1.294-0.524-1.454-1.451C115.905,142.202,116.296,141.349,116.94,141.223z
		 M114.026,141.792c0.644-0.126,1.294,0.524,1.454,1.45c0.16,0.927-0.232,1.78-0.876,1.905c-0.643,0.125-1.294-0.524-1.454-1.451
		C112.99,142.77,113.382,141.917,114.026,141.792z M111.258,143.208c0.643-0.125,1.294,0.524,1.454,1.451
		c0.159,0.926-0.232,1.779-0.876,1.905c-0.643,0.125-1.294-0.524-1.454-1.451C110.223,144.187,110.615,143.333,111.258,143.208z
		 M108.905,145.423c0.644-0.125,1.295,0.524,1.454,1.451c0.16,0.926-0.231,1.779-0.875,1.905s-1.295-0.524-1.454-1.451
		C107.869,146.402,108.262,145.549,108.905,145.423z M107.225,148.388c0.643-0.125,1.294,0.524,1.454,1.45
		c0.159,0.927-0.232,1.78-0.876,1.905c-0.643,0.125-1.294-0.524-1.454-1.451C106.19,149.366,106.581,148.513,107.225,148.388z
		 M109.416,154.683c5.082,0.846,5.516,0.735,7.25-0.375c0.438-2.103,0.407-4.25,0.407-4.25l1.505,3.923
		c2.489-0.475,2.416-0.125,6.57-2.687c-6.188,6.118-4.398,15.614-3.592,18.722c0.203,0.646,0.295,1.028,0.295,1.028
		s-0.126-0.377-0.295-1.028C120.616,167.021,117.27,158.253,109.416,154.683z M95.343,150.967c0.641-0.142,1.306,0.492,1.485,1.414
		s-0.193,1.785-0.834,1.926c-0.641,0.141-1.306-0.492-1.485-1.415C94.329,151.97,94.702,151.108,95.343,150.967z M94.001,150.573
		c0.18,0.922-0.193,1.785-0.834,1.926c-0.641,0.141-1.306-0.492-1.485-1.414c-0.18-0.923,0.193-1.785,0.834-1.926
		C93.156,149.017,93.821,149.65,94.001,150.573z M86.832,151.032c-0.64,0.141-1.305-0.492-1.485-1.415
		c-0.18-0.922,0.193-1.785,0.834-1.926c0.641-0.142,1.306,0.492,1.485,1.414S87.473,150.89,86.832,151.032z M90.161,151.185
		c-0.64,0.141-1.305-0.492-1.485-1.414v0c-0.18-0.922,0.193-1.785,0.834-1.926c0.641-0.142,1.306,0.492,1.485,1.414
		C91.176,150.181,90.802,151.043,90.161,151.185z M91.448,160.837c3.608,0.596,3.889,0.485,4.917-0.542
		c-0.005-1.861-0.337-3.749-0.337-3.749l1.601,3.406c1.639-0.491,1.64-0.181,4.116-2.555c-3.356,5.56-0.752,13.858,0.251,16.568
		c0.233,0.562,0.352,0.896,0.352,0.896s-0.142-0.328-0.352-0.896C100.916,171.357,97.351,163.747,91.448,160.837z"/>
	<path d="M206.407,179.266c0-4.638-23.783-8.398-53.121-8.398h-0.002c-29.338,0-53.121,3.76-53.121,8.398v0
		c0,0.083,0.024,0.164,0.04,0.246c0.826,4.523,24.266,8.151,53.082,8.151h0.002c26.627,0,48.676-3.097,52.524-7.137
		C206.202,180.116,206.407,179.695,206.407,179.266L206.407,179.266z"/>
	<ellipse cx="152.002" cy="139.422" rx="1.184" ry="1.706"/>
	<ellipse cx="155.23" cy="140.284" rx="1.185" ry="1.706"/>
	<ellipse cx="149.039" cy="139.422" rx="1.185" ry="1.706"/>
	<ellipse cx="143.387" cy="142.011" rx="1.184" ry="1.706"/>
	<ellipse cx="146.076" cy="140.284" rx="1.185" ry="1.706"/>
	<ellipse cx="141.231" cy="144.604" rx="1.185" ry="1.706"/>
	<ellipse cx="157.924" cy="142.228" rx="1.184" ry="1.706"/>
	<ellipse cx="160.345" cy="144.604" rx="1.184" ry="1.706"/>
	<path d="M185.842,145.896c0.646,0.108,1.281-0.559,1.419-1.489s-0.274-1.772-0.921-1.881c-0.646-0.108-1.281,0.559-1.419,1.489
		S185.196,145.787,185.842,145.896z"/>
	<path d="M187.984,145.4c-0.138,0.931,0.274,1.772,0.921,1.881c0.646,0.108,1.281-0.559,1.419-1.489s-0.274-1.773-0.92-1.881
		C188.757,143.803,188.121,144.469,187.984,145.4z"/>
	<path d="M182.915,145.406c0.646,0.108,1.281-0.559,1.419-1.489s-0.274-1.773-0.92-1.881c-0.646-0.108-1.282,0.559-1.42,1.489
		S182.269,145.297,182.915,145.406z"/>
	<path d="M176.952,147.029c0.646,0.108,1.282-0.559,1.42-1.489c0.138-0.93-0.274-1.772-0.921-1.88
		c-0.646-0.108-1.281,0.558-1.419,1.489S176.307,146.921,176.952,147.029z"/>
	<path d="M179.863,145.767c0.646,0.108,1.281-0.559,1.419-1.489s-0.274-1.772-0.92-1.881c-0.646-0.108-1.281,0.559-1.42,1.489
		C178.804,144.817,179.216,145.659,179.863,145.767z"/>
	<path d="M174.445,149.234c0.646,0.108,1.281-0.559,1.419-1.489s-0.274-1.773-0.921-1.881c-0.646-0.108-1.281,0.559-1.419,1.489
		C173.386,148.284,173.798,149.126,174.445,149.234z"/>
	<path d="M190.361,147.766c-0.138,0.931,0.274,1.772,0.921,1.881c0.646,0.108,1.281-0.559,1.419-1.489s-0.274-1.773-0.921-1.881
		C191.134,146.168,190.498,146.835,190.361,147.766z"/>
	<path d="M193.325,152.395c0.646,0.108,1.281-0.559,1.419-1.489s-0.274-1.772-0.92-1.881c-0.646-0.108-1.282,0.559-1.42,1.489
		S192.679,152.286,193.325,152.395z"/>
	<path d="M117.518,144.579c0.644-0.125,1.035-0.979,0.876-1.905c-0.16-0.927-0.811-1.576-1.454-1.451s-1.035,0.979-0.876,1.905
		C116.224,144.055,116.875,144.705,117.518,144.579z"/>
	<path d="M120.839,144.808c0.644-0.125,1.036-0.979,0.876-1.905s-0.811-1.576-1.454-1.451s-1.035,0.979-0.876,1.905
		C119.545,144.283,120.197,144.933,120.839,144.808z"/>
	<path d="M113.15,143.697c0.16,0.927,0.812,1.576,1.454,1.451c0.644-0.125,1.036-0.979,0.876-1.905
		c-0.16-0.926-0.811-1.576-1.454-1.45C113.382,141.917,112.99,142.77,113.15,143.697z"/>
	<path d="M109.484,148.779c0.644-0.125,1.035-0.979,0.875-1.905c-0.159-0.927-0.811-1.576-1.454-1.451
		c-0.643,0.125-1.035,0.979-0.875,1.905C108.189,148.255,108.84,148.904,109.484,148.779z"/>
	<path d="M110.382,145.113c0.16,0.927,0.812,1.576,1.454,1.451c0.644-0.125,1.035-0.979,0.876-1.905
		c-0.16-0.927-0.812-1.576-1.454-1.451C110.615,143.333,110.223,144.187,110.382,145.113z"/>
	<path d="M107.803,151.743c0.644-0.125,1.035-0.979,0.876-1.905c-0.16-0.926-0.812-1.576-1.454-1.45
		c-0.644,0.125-1.035,0.978-0.876,1.905C106.509,151.219,107.16,151.869,107.803,151.743z"/>
	<path d="M123.819,146.203c0.644-0.125,1.035-0.979,0.876-1.905c-0.16-0.927-0.812-1.576-1.455-1.451
		c-0.643,0.125-1.035,0.979-0.875,1.905C122.525,145.679,123.175,146.328,123.819,146.203z"/>
	<path d="M125.149,146.625c0.16,0.927,0.812,1.576,1.454,1.451c0.644-0.125,1.036-0.979,0.876-1.905s-0.811-1.576-1.454-1.451
		S124.99,145.699,125.149,146.625z"/>
	<path d="M86.181,147.691c-0.641,0.141-1.014,1.003-0.834,1.926c0.181,0.923,0.846,1.556,1.485,1.415
		c0.641-0.142,1.014-1.004,0.834-1.926S86.822,147.55,86.181,147.691z"/>
	<path d="M89.51,147.845c-0.641,0.141-1.014,1.004-0.834,1.926v0c0.181,0.922,0.846,1.555,1.485,1.414
		c0.641-0.142,1.015-1.004,0.834-1.926C90.816,148.336,90.151,147.703,89.51,147.845z"/>
	<path d="M91.682,151.085c0.18,0.922,0.845,1.555,1.485,1.414c0.641-0.142,1.014-1.004,0.834-1.926
		c-0.181-0.922-0.846-1.556-1.485-1.414C91.875,149.3,91.502,150.162,91.682,151.085z"/>
	<path d="M95.994,154.307c0.641-0.142,1.014-1.004,0.834-1.926s-0.845-1.556-1.485-1.414c-0.641,0.141-1.014,1.003-0.834,1.926
		C94.689,153.815,95.354,154.448,95.994,154.307z"/>
	<path d="M214.147,151.544c0.605,0.263,1.368-0.23,1.703-1.103s0.115-1.792-0.49-2.056c-0.605-0.263-1.367,0.231-1.702,1.103
		S213.541,151.281,214.147,151.544z"/>
	<path d="M207.993,151.668c0.605,0.263,1.368-0.231,1.703-1.103s0.115-1.792-0.49-2.055c-0.605-0.263-1.368,0.23-1.703,1.103
		S207.388,151.405,207.993,151.668z"/>
	<path d="M211.098,151.15c0.605,0.263,1.368-0.23,1.703-1.103s0.115-1.792-0.49-2.056s-1.368,0.23-1.703,1.103
		C210.273,149.967,210.492,150.887,211.098,151.15z"/>
	<path d="M205.075,153.201c0.605,0.263,1.368-0.23,1.703-1.103s0.115-1.792-0.49-2.055c-0.605-0.263-1.367,0.23-1.702,1.103
		S204.47,152.938,205.075,153.201z"/>
	<path d="M150.683,167.795c0.02,0.676,0.06,1.074,0.06,1.074S150.737,168.473,150.683,167.795z"/>
	<path d="M150.683,167.795c-0.096-3.223,0.267-12.9,7.634-17.296c-4.604,1.45-4.456,1.128-6.98,0.967l-0.594-4.19
		c0,0-0.446,2.095-1.337,4.029c-1.931,0.645-2.376,0.645-7.129-1.45C149.12,155.29,150.432,164.646,150.683,167.795z"/>
	<path d="M121.556,170.017c-0.806-3.108-2.596-12.604,3.592-18.722c-4.154,2.562-4.081,2.212-6.57,2.687l-1.505-3.923
		c0,0,0.03,2.147-0.407,4.25c-1.734,1.11-2.168,1.221-7.25,0.375C117.27,158.253,120.616,167.021,121.556,170.017z"/>
	<path d="M121.556,170.017c0.169,0.651,0.295,1.028,0.295,1.028S121.759,170.662,121.556,170.017z"/>
	<path d="M180.886,170.398c-0.139,0.661-0.193,1.058-0.193,1.058S180.78,171.07,180.886,170.398z"/>
	<path d="M185.74,150.541c0,0-0.922,1.911-2.236,3.548c-2.021,0.114-2.453-0.004-6.566-3.29c5.357,7.074,4.442,16.482,3.948,19.599
		c0.662-3.148,3.274-12.423,11.438-14.733c-4.799,0.188-4.579-0.085-6.987-0.909L185.74,150.541z"/>
	<path d="M101.744,157.397c-2.477,2.375-2.478,2.064-4.116,2.555l-1.601-3.406c0,0,0.332,1.888,0.337,3.749
		c-1.028,1.027-1.309,1.137-4.917,0.542c5.903,2.91,9.469,10.521,10.548,13.129C100.992,171.255,98.388,162.958,101.744,157.397z"/>
	<path d="M101.996,173.966c0.21,0.568,0.352,0.896,0.352,0.896S102.229,174.527,101.996,173.966z"/>
	<path d="M210.235,163.243c-3.248-0.805-3.009-0.983-4.324-2.132l1.713-3.343c0,0-1.266,1.369-2.7,2.437
		c-1.38-0.311-1.626-0.493-3.229-3.982c1.132,6.836-2.724,14.312-4.108,16.722C199.094,170.53,204.015,163.491,210.235,163.243z"/>
	<path d="M197.586,172.943c-0.313,0.5-0.482,0.807-0.482,0.807S197.293,173.453,197.586,172.943z"/>
	<path fill="#F3EF7D" d="M150.781,110.963c0.079-0.012,0.16-0.015,0.237-0.033c0.719-0.163,1.347-0.562,1.825-1.11
		c0.488-0.561,0.802-1.279,0.877-2.076l-2.939,0.018V110.963z"/>
	<path fill="#F3EF7D" d="M153.715,106.984c-0.177-1.636-1.383-2.932-2.935-3.167v3.185L153.715,106.984z"/>
	<path fill="#F3EF7D" d="M149.784,110.963c0.088,0.013,0.178,0.022,0.268,0.028v-3.225l-3.108,0.019l-0.004-0.759l3.112-0.019
		v-3.218c-0.077,0.005-0.153,0.013-0.229,0.024c-1.699,0.236-3.014,1.739-3.014,3.577c0,0.993,0.384,1.892,1.003,2.546
		C148.331,110.485,149.019,110.848,149.784,110.963z"/>
	<polygon points="150.781,111.016 150.781,110.963 150.781,107.762 150.052,107.767 150.052,110.991 150.052,111.016 	"/>
	<polygon points="150.052,103.765 150.052,103.789 150.052,107.007 150.781,107.002 150.781,103.817 150.781,103.805 
		150.781,103.765 	"/>
	<ellipse fill="#F3EF7D" cx="150.582" cy="128.515" rx="1.604" ry="1.814"/>
	<ellipse fill="#F3EF7D" cx="150.481" cy="124.74" rx="1.502" ry="1.706"/>
	<ellipse fill="#F3EF7D" cx="150.481" cy="121.172" rx="1.502" ry="1.598"/>
	<ellipse fill="#F3EF7D" cx="150.485" cy="118.049" rx="1.299" ry="1.274"/>
	<path fill="#F3EF7D" d="M150.484,116.512L150.484,116.512c0.718,0,1.3-0.667,1.3-1.49c0-0.823-0.582-1.49-1.299-1.49h-0.001
		c-0.717,0-1.299,0.667-1.299,1.49C149.185,115.845,149.767,116.512,150.484,116.512z"/>
	<ellipse fill="#F3EF7D" cx="150.488" cy="112.214" rx="1.097" ry="1.058"/>
	<polygon points="150.052,107.007 146.94,107.026 146.944,107.785 150.052,107.767 150.781,107.762 153.72,107.744 153.889,107.743 
		153.884,106.983 153.715,106.984 150.781,107.002 	"/>
	<ellipse fill="#F3EF7D" cx="150.585" cy="132.516" rx="2.01" ry="2.138"/>
</g>
</svg>
