<?xml version="1.0" encoding="utf-8"?>
<!-- Generator: Adobe Illustrator 16.0.0, SVG Export Plug-In . SVG Version: 6.00 Build 0)  -->
<svg version="1.2" baseProfile="tiny"
	 id="svg551" xmlns:cc="http://creativecommons.org/ns#" xmlns:dc="http://purl.org/dc/elements/1.1/" xmlns:rdf="http://www.w3.org/1999/02/22-rdf-syntax-ns#"
	 xmlns="http://www.w3.org/2000/svg" xmlns:xlink="http://www.w3.org/1999/xlink" x="0px" y="0px" width="512px" height="512px"
	 viewBox="0 0 512 512" xml:space="preserve">
<g id="flag">
	<rect id="rect628" x="0" fill="#FFCC00" width="512" height="512"/>
	<rect id="rect626" x="203.76" y="42.685" fill="#FF6600" width="163.63" height="426.63"/>
	<rect id="rect625" x="42.663" y="42.685" fill="#006600" width="161.229" height="426.7"/>
	<g id="g8183" transform="matrix(.58168 0 0 .58168 -100.53 195.38)">
		<rect id="rect627" x="410.1" y="42.671" fill="#991B33" width="571.229" height="426.71"/>
		<g id="g602" transform="matrix(2.3701 0 0 2.3701 0 -.000076422)">
			<path id="path579" fill="#FFCC00" stroke="#991B33" stroke-linecap="round" stroke-linejoin="round" d="M267.94,101.34
				l3.555,0.091c0,0-4.01,3.372-3.099,7.929c4.193-6.197,5.742-5.014,5.742-5.014c-1.276,1.367-3.737,3.281-1.823,7.475
				c1.641-4.284,5.012-7.565,5.012-7.565s-0.912,4.739,1.093,9.114c1.458-4.375,3.919-8.111,3.919-8.111s-0.364,4.739,1.732,6.47
				c1.64-1.458,2.734-5.195,2.734-5.195s3.099,5.469,5.013,6.289c1.549-3.737,1.549-6.653,1.549-6.653s6.379,4.558,11.482,1.914
				c-4.557-1.64-6.106-5.468-6.106-5.468s8.294,3.644,11.848,2.005c-3.464-2.644-11.574-6.563-11.574-6.563s6.015,2.187,7.746,1.641
				c-0.82-1.185-3.463-2.643-3.463-2.643"/>
			<path id="selection_x5F_to_x5F_path_x23_1" fill="#FFCC00" d="M317.72,56.88c10.99-1,27.97,7.98,36.97,13.97
				c0-2,0-3.99,1.99-4.99c2-1,5,0.999,4,3.989c-3.001,6.98-14.99-1-18.98-2.99l2,3.99c-6-1-7-2-10.989-6.99c-1,3.99-1,4.99-6,4.99
				c1.88-2.96,2.51-3.95,0-6.98l-1,5.981l-4.99-6.98v6.98c-1-0.99-5-3.99-7-3.99c-2.99-1-4.99,4.99-5.99,7.99
				c3-3.001,3.989-4.99,8.99-3.001c-2.71,2.56-1.92,5.63,1,7.98c0,0,0.52-4.15,0.84-5.1c1.59,1.19,4.96,5.66,9.15,6.1
				c3,0,6-1,8.99-1.99c9.99-0.999,31.97,0.99,26.98,15.961c-1,3-2,4.99-4,6.99c13.99,4.99,2,22.95-1,31.93
				c-2,7.98-0.61,14.34,9.24,13.31c-1.99,3.99-5.24,4.65-9.24,4.65c0,0,0.5,2.4,3.07,3.53c-4.27,3.83,1.48,9.57-1.07,12.44
				c-4.3,2.06-9.991-1-9.991-1l-0.28,2.83c0,0-7.55-0.52-7.71-0.839c0,0,2.15-4.021,1.99-4.101c-2,2.991-3.91,4.74-7.99,4.101
				c0,0,0.32-1.88,2.55-4.26c-3.03,3.02-3.36,4.34-6.54,4.26c0-4.99,2.99-10.97,8.99-8.98c1,0,4.15,2.48,5.63,0.88
				c1.2-1.721,0.49-7.54,0.49-9.54c0.63-8.82-1.131-8.3-6.12-13.29c-4-2.99-6.922-7.574-11.912-8.574
				c-5-1-13.068,4.584-17.068,6.574c-9.99,5.99-18.98,9.979-29.97,11.98c0,0,0.217-0.51,0.217-1.508
				c0-0.673,10.788-9.069,12.674-23.81c-2.952,14.549-13.441,22.235-13.836,24.938c-0.394,2.704-2.536,7.317-2.796,7.618
				c1.297-0.778,5.458-2.816,10.731-3.249c-1.137,6.249-6.99,4.99-7.99,7.98c0,3.001,4,6.99,0,8.98h-15.98
				c0,0,2.459-3.404,2.576-4.342c-2.151,1.305-3.516,4.73-8.227,4.379c0.172-1.288,2.428-3.305,2.049-4.097
				c-2.695,2.5-3.96,4.607-7.398,4.06c1-2.99,1-6.98,5-6.98c3.001-1,6,1,7.99-2c4-4.99-0.729-15.905-1.719-21.896
				c0-4.99,0.016-5.936-1.271-12.024l1,17.96c-4-3-8-4.99-11-8.98c-6.99-8.98-4.99-18.96,4-24.95c4-2.991,6.16-4.55,11.16-6.541
				c-1-2.999,1.42-5.209-2.12-6.14c-1.06,1.85-2.1,3.87-4.12,3.7l1.08-4.99c0,0-3.6,0.22-2.89,6.66c-4.14-1.99-2.11-6.66-2.11-6.66
				h-2c0,0-0.01,5.94-3.27,7.139c0.88-2.79,1.27-7.139,1.27-7.139s-5.35,6.379-8.461,4.31c1.83-2.07,3.25-2.41,3-4.91
				c-0.239-2.49-1.529-5.702-1.764-6.21c1.132,0.547,8.669,2.797,13.396,0.453c-0.313,1.562-0.172,3.367-0.172,3.367
				c4.99-1,5.99-1,10.99,0.99c-1-6.98-5-7.98-8.99-12.97v3.989c-4-0.99-5-1.989-7-5.98l-2.99,1.99c-5.27-3.11-9.16-10.49-1.68-10.06
				c4.46,0.56,0.68,4.08,0.68,4.08s11.441-3.6,15.98-4c0,0-1.32-2.79-5.54-3.27c3.5-2.629,7.02-3.479,9.54,2.06
				c2.51,0.14,4.85-2.879,3.36-6.799c3.71-0.06,5.54,2.29,7.23,4.759c1.38,0.251,2.77-1.2,2.44-6.16c3.5,2.991,5.22,3.91,5.449,6.43
				c2.98,0.66,5-0.01,9.49-2.01c-0.99,4-0.99,4.99-4.99,6.99c2.82,3.485,3.117,7.691,2.526,9.22
				c-0.979-0.283-1.223-0.349-1.918-0.538c0.217,1.542,0.531,5.784,0.392,8.279h-2l2.999,8.98l-2,3.001
				c6.99-3.001,13.99-2,20.98-3.99c7.99-1,15.99-4,24.98-4c5.99,0,5.99,3,13.99,3v-4.99c0-3.989-3-7.98-8-8.979
				c-2.99,0-7.99,1.989-10.99,2.989c-3.989,1-9.99,1-13.99,1c-12.98-2-10.91-3.26-15.44-5.689c-2.71,0.72-4.23,3.02-5.58,7.079
				c-2.51-3.679-1.95-8.38,1.04-10.37C299.74,63.86,307.73,58.87,317.72,56.88L317.72,56.88z"/>
			<path id="selection_to_path" fill="#FFCC00" stroke="#991B33" stroke-linejoin="round" d="M320.72,146.69c-2-3-9-7.99-7-12.98
				c3-4.99,19.99-12.97,22.98-1.99c1,2.99-2.082,10.927-3.082,13.927c1.513-0.389,3.195-2.713,8.119-1.871
				c-0.917,3.92-6.907,6.943-6.907,6.943c0.608,2.652-4.12,14.921-4.12,14.921h-12.99l2-3.99l-3,3.99h-5l4-4.99
				c0,0-4.731,5.542-8.763,5.321c1-7.98,5.763-9.311,12.763-6.311C320.72,155.67,322.71,150.68,320.72,146.69L320.72,146.69z"/>
			<path id="path577" fill="#FFCC00" stroke="#991B33" d="M267.22,71.542c-1.347,0.828-0.247,6.311,1.822,5.377
				C271.621,75.756,268.243,70.912,267.22,71.542z"/>
			<path id="path578" fill="#FFCC00" stroke="#991B33" stroke-linecap="round" stroke-linejoin="round" d="M268.49,69.811
				c2.461,1.732,6.379,6.38,11.21,6.107c-3.646-3.008-2.916-5.195-2.916-5.195c1.914,2.278,8.293,4.375,10.389,3.463
				c-2.46-1.823-2.916-2.005-3.463-3.737c2.917,0.364,6.562,1.002,9.478-0.273"/>
			<path id="path580" fill="#FFCC00" stroke="#991B33" stroke-linecap="round" stroke-linejoin="round" d="M273.23,100.25
				l0.273-4.193c0,0,2.734,6.379,4.739,6.47c-1.276-4.647-0.729-8.384-0.729-8.384"/>
			<path id="path581" fill="#FFCC00" stroke="#991B33" stroke-linecap="round" stroke-linejoin="round" d="M279.61,95.147
				c0,0,5.468,10.026,8.111,8.385c-4.011-3.555-3.555-8.203-3.555-8.203s1.823,6.197,7.2,8.111c0.364-3.463-2.096-9.114-2.096-9.114
				s4.465,7.839,6.744,8.02c1.458-1.822,0.911-3.736,0.911-3.736"/>
			<path id="path582" fill="#FFCC00" stroke="#991B33" stroke-linecap="round" stroke-linejoin="round" d="M275.33,88.221
				l4.01,5.104l0.638-6.836c0,0,3.919,3.099,4.648,3.008c0.729-0.091-1.094-7.29-1.094-7.29s5.286,8.02,5.651,7.837
				c0.363-0.182,0.545-7.929,0.545-7.929s4.011,11.028,5.378,10.937c1.367-0.091,1.002-1.548,1.002-1.548"/>
			<path id="path583" fill="#FFCC00" stroke="#991B33" stroke-linecap="round" stroke-linejoin="round" d="M272.32,79.289
				c0,0,6.197,5.65,6.835,5.286c0.638-0.365-2.551-6.562-2.551-6.562s3.555,3.372,4.921,3.645c1.367,0.273,0.456-4.374,0.456-4.374
				s4.192,3.554,4.921,3.372c0.729-0.183,0.365-3.372,0.365-3.372s2.734,2.734,2.916,2.734c0.182,0-0.547-7.838-0.547-7.838
				s6.107,6.471,6.562,6.379"/>
			<path id="path584" fill="#FFCC00" stroke="#991B33" stroke-linecap="round" stroke-linejoin="round" d="M247.53,81.294
				c0.273,0.456,1.288,8.515,13.774,5.234c1.185-0.638,0.664,2.252,0.612,3.099c0.547-0.091,6.498-2.214,10.599,0.793
				c-0.482-3.333-1.381-5.572-4.935-7.486c-1.731-0.364-2.995,0.521-2.995,0.521S249.535,83.572,247.53,81.294z"/>
			<path id="selection_x5F_to_x5F_path_x23_2" fill="#FFCC00" stroke="#991B33" stroke-linecap="round" stroke-linejoin="round" d="
				M240.72,132.61c-0.207,0.934-0.86,1.202-2.725,3.897c0.829,1.14,4.643,2.922,5.679,1.99c0.933-0.519,1-2.99,1-2.99
				c2,2.99,5.518,7.705,9.518,8.705c2.99,1,5.99-0.999,5.99-3.99c0-2.99-4.518-7.819-6.508-9.809c-5-5.99-4.56-17.302-14.011-15.728
				c-0.049,0.086-0.427,1.373-1.333,1.602c0.759,1.454,1.185,2.682-0.632,3.138c1.413,1.388,1.635,2.396-0.181,3.093
				c1.099,1.474,2.386,2.015-0.144,3.276C240.02,128.374,240.59,132.17,240.72,132.61"/>
			<path id="path585" fill="#FFCC00" stroke="#991B33" d="M238.26,48.041c-3.005,4.352-3.317,52.232-2.384,61.871
				c-3.006,1.969-8.602,1.14-10.156,0.518C226.446,107.01,229.036,51.461,238.26,48.041z"/>
			<path id="path586" fill="#FFCC00" d="M229.76,146.18c0,0-13.266,1.865-7.67-6.01c4.769-2.073,4.664,2.798,2.902,4.456
				c2.177,0.242,3.628-1.175,3.938-3.317c-2.694-3.627,1.14-6.011,0.933-6.011c-9.223,2.073-10.467-4.249-7.047-5.285
				c4.32,0.241,2.938,1.623,4.665,2.902c3.109-2.867,4.975-3.143,6.84-0.208c1.865-2.901,4.56-2.59,4.663-2.279
				c3.006,5.077-3.627,5.388-6.321,4.766c2.28,2.488,1.347,4.871,0.621,6.634c0.069,1.727,1.383,2.003,3.524,2.693
				c-4.559-12.575,16.064,3.351-4.664,1.762c0.035,0.552,0.069,1.105,0.103,1.658c1.693,0.311,2.867,0.725,3.419,2.487
				c-0.724,0.967-1.864,1.105-3.626,0.415c0,0,1.036,2.901-0.829,3.731c-1.555-0.933-1.762-3.213-1.762-3.213
				c-0.863,1.071-2.142,0.379-3.212-0.518C227.204,148.46,229.933,149.599,229.76,146.18L229.76,146.18z"/>
			<path id="path587" fill="#FFCC00" d="M218.36,107.84c0.794-3.594,9.154-3.145,5.182,0.725c2.659,4.249,10.812,3.628,13.887,1.245
				c-2.592-4.941,4.457-3.87,4.146-0.105C240.711,116.371,217.462,115.474,218.36,107.84z"/>
			<path id="path592" fill="#FFCC00" stroke="#991B33" d="M384.27,171.44c2.49,4.66,6.911,15.702,9.36,18.34
				c2.295,2.052,8.01,1.81,9.77-0.51c0,0,3.66,3.77,5.141,4.91c0.88-0.3,1.42-1.14,1.42-1.14c-1.49-1.62-3.52-2.53-4.52-5.53
				c1.49-1.99,2.311-5.86,1.31-8.86C402.38,171.33,387.84,174.22,384.27,171.44z"/>
			<path id="path593" fill="#FFCC00" stroke="#991B33" d="M202.8,44.287c-2.49-4.66-6.911-15.702-9.359-18.34
				c-2.295-2.052-8.01-1.81-9.77,0.51c0,0-3.66-3.77-5.14-4.91c-0.88,0.3-1.42,1.14-1.42,1.14c1.49,1.62,3.52,2.53,4.52,5.53
				c-1.49,1.99-2.31,5.86-1.31,8.86C184.69,44.397,199.23,41.507,202.8,44.287z"/>
			<path id="path594" fill="#FFCC00" stroke="#991B33" d="M201.32,170.73c-4.66,2.49-15.702,6.911-18.34,9.36
				c-2.052,2.295-1.81,8.01,0.51,9.77c0,0-3.77,3.66-4.91,5.14c0.3,0.88,1.14,1.42,1.14,1.42c1.62-1.49,2.53-3.521,5.529-4.52
				c1.99,1.49,5.86,2.31,8.86,1.31C201.43,188.84,198.54,174.3,201.32,170.73z"/>
			<path id="path595" fill="#FFCC00" stroke="#991B33" d="M384.65,44.286c2.49-4.66,6.911-15.702,9.359-18.34
				c2.295-2.052,8.01-1.81,9.77,0.51c0,0,3.66-3.77,5.14-4.91c0.88,0.3,1.42,1.14,1.42,1.14c-1.49,1.62-3.52,2.53-4.52,5.53
				c1.49,1.99,2.31,5.86,1.31,8.86C402.76,44.396,388.22,41.506,384.65,44.286z"/>
			<path id="path596" fill="#FFCC00" stroke="#FFCC00" stroke-linejoin="round" d="M222.1,116.03
				c-0.196,1.518,3.427,2.179,7.141,2.197c3.714,0.018,7.521-0.605,7.692-1.659c0.049-1.884-3.243-0.282-6.988-0.312
				C226.2,116.226,223.079,114.757,222.1,116.03z"/>
			<path id="path597" fill="#FFCC00" stroke="#FFCC00" stroke-linejoin="round" d="M222.4,120.24c0.048,1.42,3.647,1.762,6.829,1.86
				c3.183,0.098,6.389-0.538,6.976-1.566c-0.564-1.616-4.1-0.269-6.977-0.195C226.352,120.412,223.158,118.918,222.4,120.24
				L222.4,120.24z"/>
			<path id="path598" fill="#FFCC00" stroke="#FFCC00" stroke-linejoin="round" d="M223.43,124.01
				c-0.245,1.077,2.926,1.847,5.844,1.866c2.919,0.018,7.056-1.108,7.08-2.258c-0.171-0.905-4.259,0.318-7.006,0.41
				C226.6,124.12,223.43,123.032,223.43,124.01z"/>
			<path id="path599" fill="#FFCC00" stroke="#FFCC00" stroke-linejoin="round" d="M223.08,127.88
				c0.245,1.052,3.844,1.408,7.007,1.169c3.164-0.238,6.382-1.218,6.651-2.344c-0.146-0.71-3.78,0.551-6.792,0.704
				C226.935,127.562,223.031,127.047,223.08,127.88L223.08,127.88z"/>
		</g>
	</g>
</g>
</svg>
