<?xml version="1.0" encoding="utf-8"?>
<!-- Generator: Adobe Illustrator 16.0.0, SVG Export Plug-In . SVG Version: 6.00 Build 0)  -->
<svg version="1.2" baseProfile="tiny"
	 id="svg665" xmlns:cc="http://creativecommons.org/ns#" xmlns:dc="http://purl.org/dc/elements/1.1/" xmlns:rdf="http://www.w3.org/1999/02/22-rdf-syntax-ns#"
	 xmlns="http://www.w3.org/2000/svg" xmlns:xlink="http://www.w3.org/1999/xlink" x="0px" y="0px" width="512px" height="512px"
	 viewBox="0 0 512 512" xml:space="preserve">
<g>
	<rect x="0" y="325.96" fill="#FFFFFF" width="512" height="46.56"/>
	<rect x="0" y="418.73" fill="#FFFFFF" width="512" height="46.14"/>
	<rect x="232.74" y="46.549" fill="#FFFFFF" width="279.26" height="46.812"/>
	<polygon fill="#FFFFFF" points="512,232.856 232.67,232.856 232.67,232.75 0,232.75 0,279.26 512,279.26 	"/>
	<rect x="232.74" y="139.855" fill="#FFFFFF" width="279.26" height="46.205"/>
	<path fill="#000066" d="M232.67,186.06h0.07v-46.205h-0.07V93.361h0.07V46.549h-0.07V0.055h0.07V0H0v0.083V232.75h232.67V186.06z
		 M166.35,177.47l-50.71-30.98l-50.465,31.29l18.769-50.85L33.571,95.536l62.321-0.438l19.328-50.691l19.744,50.574l62.321,0.067
		l-50.115,31.693l19.184,50.732L166.35,177.47z"/>
	<rect x="0" y="464.87" fill="#CC0000" width="512" height="0.56"/>
	<polygon fill="#CC0000" points="512,465.43 0,465.43 0,511.997 0,512 512,512 	"/>
	<rect x="0" y="372.52" fill="#CC0000" width="512" height="46.211"/>
	<rect x="0" y="279.26" fill="#CC0000" width="512" height="46.7"/>
	<polygon fill="#CC0000" points="232.67,46.549 232.74,46.549 512,46.549 512,0.055 232.74,0.055 232.67,0.055 	"/>
	<polygon fill="#CC0000" points="232.67,186.06 232.67,232.75 232.67,232.856 512,232.856 512,186.06 232.74,186.06 	"/>
	<polygon fill="#CC0000" points="232.67,93.361 232.67,139.855 232.74,139.855 512,139.855 512,93.361 232.74,93.361 	"/>
	<polygon fill="#FFFFFF" points="197.285,95.048 134.964,94.981 115.22,44.407 95.892,95.098 33.571,95.536 83.944,126.93 
		65.175,177.78 115.64,146.49 166.35,177.47 166.354,177.473 147.17,126.741 	"/>
</g>
</svg>
