<?xml version="1.0" encoding="utf-8"?>
<!-- Generator: Adobe Illustrator 16.0.0, SVG Export Plug-In . SVG Version: 6.00 Build 0)  -->
<svg version="1.2" baseProfile="tiny"
	 id="svg2" xmlns:cc="http://creativecommons.org/ns#" xmlns:dc="http://purl.org/dc/elements/1.1/" xmlns:rdf="http://www.w3.org/1999/02/22-rdf-syntax-ns#" sodipodi:docname="ls.svg" inkscape:version="0.48.4 r9939" xmlns:svg="http://www.w3.org/2000/svg" xmlns:inkscape="http://www.inkscape.org/namespaces/inkscape" xmlns:sodipodi="http://sodipodi.sourceforge.net/DTD/sodipodi-0.dtd"
	 xmlns="http://www.w3.org/2000/svg" xmlns:xlink="http://www.w3.org/1999/xlink" x="0px" y="0px" width="512px" height="512px"
	 viewBox="0 0 512 512" xml:space="preserve">
<sodipodi:namedview  inkscape:current-layer="svg2" inkscape:pageopacity="0" inkscape:window-maximized="1" inkscape:window-x="65" inkscape:window-y="24" inkscape:window-width="1215" inkscape:window-height="776" inkscape:pageshadow="2" id="namedview28" pagecolor="#ffffff" gridtolerance="10" guidetolerance="10" objecttolerance="10" inkscape:zoom="0.72" inkscape:cy="300" borderopacity="1" inkscape:cx="450" bordercolor="#666666" showgrid="false">
	</sodipodi:namedview>
<g>
	<path fill="#FFFFFF" d="M512,153.6H0v204.8h512V153.6z M258.313,349.324c-0.654,0.008-1.307,0.012-1.956,0.012
		c-46.953,0-79.749-20.194-80.074-20.398l-0.33-0.207l13.822-29.488l7.788,2.692l40.484-54.514l-0.333-0.703
		c-0.546-1.15-13.346-28.398-11.179-48.092c1.908-17.338,10.863-28.198,24.87-30.574l-0.013-1.817l0.111-0.126
		c0.122-0.138,3.011-3.377,6.086-3.444c0.001,0,0.002,0,0.002,0c3.139,0,6.107,3.049,6.232,3.179l0.123,0.128l-0.001,0.178
		l-0.004,1.829c14.414,2.062,22.413,11.671,24.987,29.792c2.699,18.997-9.345,45.169-10.98,48.609l41.766,55.241l6.895-2.997
		l14.288,29.116l-0.303,0.217C340.303,328.165,310.994,348.698,258.313,349.324z"/>
	<path fill="#FFFFFF" d="M276.556,212.272h-9.495l0.073,19.804l7.795,10.31c3.155-7.155,11.829-28.631,9.646-43.997
		c-2.232-15.714-8.69-23.94-20.643-25.945l-0.058,27.919L276.556,212.272z"/>
	<path fill="#FFFFFF" d="M249.566,212.792h-9.412l11.489-12.036l-0.206-28.233c-11.654,2.294-18.875,11.535-20.532,26.584
		c-1.762,16.01,7.552,38.455,10.131,44.288l8.457-11.388L249.566,212.792z"/>
	<rect x="0" y="358.4" fill="#009543" width="512" height="153.6"/>
	<rect x="0" fill="#00209F" width="512" height="153.6"/>
	<path d="M257.686,163.543c-2.456,0.052-4.873,2.456-5.413,3.026l0.01,1.339c1.523-0.217,3.104-0.336,4.74-0.354l0.597-0.003
		c1.906,0,3.716,0.109,5.442,0.315l0.003-1.535C262.493,165.779,260.034,163.543,257.686,163.543z"/>
	<path d="M238.732,247.974l-40.847,55.001l-7.649-2.644l-13.153,28.061c3.558,2.113,35.111,20.063,79.274,20.063
		c0.646,0,1.295-0.003,1.946-0.011c49.51-0.589,78.227-18.821,81.472-20.994l-13.587-27.687l-6.758,2.938l-0.209-0.275
		l-41.703-55.158l-0.344,0.705H238.732z M194.491,311.586l2.557,7.868l-7.475,1.573
		C189.573,321.027,193.901,312.373,194.491,311.586z M190.95,325.355l7.868-2.557l1.574,6.295L190.95,325.355z M202.36,311.782
		l11.017,3.345l2.558,5.508l-9.64,2.754L202.36,311.782z M209.835,332.24l-1.377-4.721l9.049-2.951l5.114,10.82L209.835,332.24z
		 M222.621,317.684l11.017,2.361l3.147,4.721l-9.64,3.738L222.621,317.684z M230.49,336.568l-1.574-4.131l10.229-3.541l6.295,9.836
		L230.49,336.568z M243.277,320.831l17.901,0.787l1.574,3.737l-13.967,5.115L243.277,320.831z M254.293,339.126l-2.951-5.114
		l13.771-5.115l6.491,9.639L254.293,339.126z M328.258,323.979l-7.475,2.558l-0.591-3.541l4.328-6.491L328.258,323.979z
		 M320.39,308.635l2.164,3.147l-6.099,9.049l-6.295-8.065L320.39,308.635z M313.898,330.273l-12.196,3.147l-2.36-4.131l8.853-6.688
		L313.898,330.273z M303.079,315.323l3.147,3.345l-9.246,7.277l-5.705-7.081L303.079,315.323z M294.423,335.191l-14.754,2.361
		l-2.95-4.722l11.016-5.509L294.423,335.191z M285.374,323.979l-11.016,5.312l-4.722-8.065l12.787-1.574L285.374,323.979z"/>
	<path d="M242.21,211.912h8.239l-0.076,20.388l-0.086,0.116l-8.289,11.161h32.399c0.037-0.083,0.082-0.182,0.123-0.272
		l-8.265-10.931v-0.147l-0.077-20.834h8.157l-11.342-10.649l0.001-0.191l0.058-28.246c-1.703-0.237-3.511-0.358-5.433-0.358
		l-0.548,0.003c-1.66,0.018-3.238,0.172-4.756,0.421l0.209,28.732L242.21,211.912z"/>
	<path d="M326.608,298.624l-6.895,2.997l-41.766-55.241c-0.08,0.17-0.144,0.303-0.171,0.358l-0.259,0.532l41.703,55.158l0.209,0.275
		l6.758-2.938l13.587,27.687c-3.245,2.173-31.962,20.405-81.472,20.994c-0.651,0.008-1.301,0.011-1.946,0.011
		c-44.164,0-75.717-17.95-79.274-20.063l13.153-28.061l7.649,2.644l40.847-55.001h-0.422l-0.263-0.553l-40.484,54.514l-7.788-2.692
		l-13.822,29.488l0.33,0.207c0.326,0.204,33.122,20.398,80.074,20.398c0.649,0,1.302-0.004,1.956-0.012
		c52.682-0.626,81.99-21.159,82.28-21.367l0.303-0.217L326.608,298.624z"/>
	<path d="M241.997,243.577l8.289-11.161l0.086-0.116l0.076-20.388h-8.239l10.315-10.806l-0.209-28.732
		c-0.294,0.048-0.59,0.093-0.878,0.15l0.206,28.233l-11.489,12.036h9.412l-0.072,19.216l-8.457,11.388
		c0.025,0.059,0.055,0.126,0.08,0.181H241.997z"/>
	<path d="M262.993,200.743l11.342,10.649h-8.157l0.077,20.834v0.147l8.265,10.931c0.124-0.274,0.259-0.575,0.409-0.917l-7.795-10.31
		l-0.073-19.804h9.495l-12.682-11.909l0.058-27.919c-0.291-0.048-0.582-0.096-0.88-0.138l-0.058,28.246L262.993,200.743z"/>
	<path d="M252.283,167.909l-0.01-1.339c0.54-0.57,2.957-2.974,5.413-3.026c2.349,0,4.808,2.236,5.379,2.788l-0.003,1.535
		c0.295,0.036,0.589,0.071,0.879,0.112l0.004-1.829l0.001-0.178l-0.123-0.128c-0.125-0.13-3.094-3.179-6.232-3.179
		c0,0-0.001,0-0.002,0c-3.075,0.066-5.964,3.306-6.086,3.444l-0.111,0.126l0.013,1.817
		C251.697,168.002,251.987,167.951,252.283,167.909z"/>
	<path d="M238.309,247.974h0.422h38.442l0.344-0.705l0.259-0.532c0.027-0.055,0.091-0.188,0.171-0.358
		c1.636-3.44,13.68-29.612,10.98-48.609c-2.574-18.122-10.573-27.73-24.987-29.792c-0.29-0.041-0.584-0.077-0.879-0.112
		c-1.727-0.207-3.536-0.315-5.442-0.315l-0.597,0.003c-1.636,0.018-3.216,0.138-4.74,0.354c-0.296,0.042-0.586,0.094-0.878,0.144
		c-14.007,2.375-22.962,13.236-24.87,30.574c-2.167,19.694,10.633,46.942,11.179,48.092l0.333,0.703L238.309,247.974z
		 M230.906,199.107c1.657-15.05,8.878-24.291,20.532-26.584c0.289-0.057,0.584-0.102,0.878-0.15
		c1.518-0.249,3.096-0.403,4.756-0.421l0.548-0.003c1.922,0,3.729,0.121,5.433,0.358c0.298,0.042,0.589,0.089,0.88,0.138
		c11.952,2.005,18.41,10.231,20.643,25.945c2.184,15.366-6.49,36.842-9.646,43.997c-0.15,0.342-0.285,0.643-0.409,0.917
		c-0.041,0.09-0.086,0.19-0.123,0.272h-32.399h-0.881c-0.024-0.055-0.054-0.123-0.08-0.181
		C238.458,237.562,229.144,215.117,230.906,199.107z"/>
	<path fill="#FFFFFF" d="M194.491,311.586c-0.591,0.787-4.918,9.441-4.918,9.441l7.475-1.573L194.491,311.586z"/>
	<polygon fill="#FFFFFF" points="190.95,325.355 200.393,329.094 198.819,322.799 	"/>
	<polygon fill="#FFFFFF" points="213.376,315.127 202.36,311.782 206.294,323.389 215.934,320.635 	"/>
	<polygon fill="#FFFFFF" points="208.458,327.52 209.835,332.24 222.621,335.389 217.507,324.568 	"/>
	<polygon fill="#FFFFFF" points="233.638,320.045 222.621,317.684 227.146,328.504 236.785,324.766 	"/>
	<polygon fill="#FFFFFF" points="228.916,332.438 230.49,336.568 245.441,338.732 239.146,328.896 	"/>
	<polygon fill="#FFFFFF" points="261.178,321.618 243.277,320.831 248.785,330.471 262.752,325.355 	"/>
	<polygon fill="#FFFFFF" points="251.342,334.012 254.293,339.126 271.604,338.535 265.113,328.896 	"/>
	<polygon fill="#FFFFFF" points="274.359,329.29 285.374,323.979 282.424,319.65 269.637,321.225 	"/>
	<polygon fill="#FFFFFF" points="279.669,337.553 294.423,335.191 287.735,327.322 276.719,332.831 	"/>
	<polygon fill="#FFFFFF" points="306.227,318.668 303.079,315.323 291.276,318.864 296.981,325.945 	"/>
	<polygon fill="#FFFFFF" points="301.701,333.421 313.898,330.273 308.194,322.602 299.341,329.29 	"/>
	<polygon fill="#FFFFFF" points="322.554,311.782 320.39,308.635 310.16,312.766 316.455,320.831 	"/>
	<polygon fill="#FFFFFF" points="320.783,326.536 328.258,323.979 324.521,316.504 320.193,322.995 	"/>
</g>
</svg>
