<?xml version="1.0" encoding="utf-8"?>
<!-- Generator: Adobe Illustrator 16.0.0, SVG Export Plug-In . SVG Version: 6.00 Build 0)  -->
<svg version="1.2" baseProfile="tiny"
	 id="svg2" xmlns:cc="http://creativecommons.org/ns#" xmlns:dc="http://purl.org/dc/elements/1.1/" xmlns:rdf="http://www.w3.org/1999/02/22-rdf-syntax-ns#"
	 xmlns="http://www.w3.org/2000/svg" xmlns:xlink="http://www.w3.org/1999/xlink" x="0px" y="0px" width="512px" height="512px"
	 viewBox="0 0 512 512" xml:space="preserve">
<g>
	<rect x="0" y="384" fill="#239E46" width="512" height="128"/>
	<path d="M512,128H0v256h512V128z M210.751,301.249c-24.99-24.997-24.985-65.52,0.012-90.51c24.992-24.986,65.506-24.986,90.498,0
		c-24.997-17.838-59.722-12.034-77.56,12.962c-17.838,24.997-12.034,59.721,12.963,77.559c19.324,13.79,45.272,13.79,64.597,0
		C276.264,326.251,235.741,326.246,210.751,301.249z M320,301.261V266.67L287.129,256L320,245.33v-34.59l20.352,27.984
		l32.896-10.678L352.917,256l20.331,27.955l-32.896-10.679L320,301.261z"/>
	<rect x="0" fill="#E70013" width="512" height="128"/>
	<polygon fill="#FFFFFF" points="352.917,256 373.248,228.045 340.352,238.723 320,210.739 320,245.33 287.129,256 320,266.67 
		320,301.261 340.352,273.276 373.248,283.955 	"/>
	<path fill="#FFFFFF" d="M236.664,301.261c-24.997-17.838-30.801-52.562-12.963-77.559c17.838-24.997,52.562-30.8,77.56-12.962
		c-24.992-24.986-65.506-24.986-90.498,0c-24.997,24.99-25.002,65.513-0.012,90.51s65.513,25.002,90.51,0.012
		C281.937,315.051,255.989,315.051,236.664,301.261z"/>
</g>
</svg>
