<?xml version="1.0" encoding="utf-8"?>
<!-- Generator: Adobe Illustrator 16.0.0, SVG Export Plug-In . SVG Version: 6.00 Build 0)  -->
<svg version="1.2" baseProfile="tiny"
	 id="svg378" xmlns:cc="http://creativecommons.org/ns#" xmlns:dc="http://purl.org/dc/elements/1.1/" xmlns:rdf="http://www.w3.org/1999/02/22-rdf-syntax-ns#"
	 xmlns="http://www.w3.org/2000/svg" xmlns:xlink="http://www.w3.org/1999/xlink" x="0px" y="0px" width="512px" height="512px"
	 viewBox="0 0 512 512" xml:space="preserve">
<g id="flag">
	<rect id="rect171" x="0" fill="#EB0013" width="512" height="512"/>
	<path id="path401" fill="#0B5035" d="M296.81,313.37L163.41,406.66l34.373-105.26l17.854,12.931l-12.81,38.45l86.999-62.695
		L296.81,313.37L296.81,313.37z M310.493,252.445l46.566,156.5l-87.442-65.254l17.985-12.746l31.118,23.349l-32.521-102.72
		l24.294,0.874V252.445z M255.295,221.371l163.909,0.193l-89.322,64.422l-7.146-20.854l33.212-22.235l-108.35,1.529l7.703-23.057
		L255.295,221.371z M208.952,263.21l51.9-156.73l35.721,107.75l-22.043,0.279l-13.157-41.272l-32.922,104.49L208.952,263.21
		L208.952,263.21z M235.551,319.536l-132.23-97.057l111.62-0.863l-6.511,21.059l-41.429-0.167l88.358,62.936L235.551,319.536
		L235.551,319.536z"/>
</g>
</svg>
