<?xml version="1.0" encoding="utf-8"?>
<!-- Generator: Adobe Illustrator 16.0.0, SVG Export Plug-In . SVG Version: 6.00 Build 0)  -->
<svg version="1.2" baseProfile="tiny"
	 id="svg548" xmlns:cc="http://creativecommons.org/ns#" xmlns:dc="http://purl.org/dc/elements/1.1/" xmlns:rdf="http://www.w3.org/1999/02/22-rdf-syntax-ns#"
	 xmlns="http://www.w3.org/2000/svg" xmlns:xlink="http://www.w3.org/1999/xlink" x="0px" y="0px" width="512px" height="512px"
	 viewBox="0 0 512 512" xml:space="preserve">
<g id="flag" transform="matrix(4.2666667,0,0,6.4,0,6e-6)">
	<rect id="rect551" x="0" fill="#00319C" width="40" height="80"/>
	<rect id="rect552" x="40" fill="#FFDE00" width="40" height="80"/>
	<rect id="rect553" x="80" fill="#DE2110" width="40" height="80"/>
</g>
<g id="g943" transform="matrix(.56007 0 0 .53518 9.8408 -55.998)">
	<path id="path905" fill="#FF1900" stroke="#000000" d="M499.523,705.337l35.216,53.175c1.956,2.954,3.913,5.91,0.959,7.866
		s-1.995,9.821-0.038,12.775c3.913,5.909,8.823,6.907,11.778,4.951l26.587-17.609c2.954-1.958,3.951-6.868,0.038-12.777
		c-2.246-2.978-8.823-6.907-11.778-4.949c-2.954,1.956-4.91-0.998-6.866-3.952l-35.218-53.175"/>
	<path id="path907" fill="#A77B3B" stroke="#000000" stroke-width="3.125" d="M513.268,667.746
		c15.747,18.718,21.229,40.02,12.244,47.58c-8.985,7.558-29.035-1.489-44.782-20.207s-21.229-40.02-12.242-47.58
		C477.471,639.981,497.521,649.028,513.268,667.746z"/>
	<path id="path898" fill="#FF1900" stroke="#000000" d="M356.694,683.703l-31.091,55.687c-1.728,3.095-3.456,6.188-6.549,4.46
		c-3.095-1.726-9.642,2.733-11.37,5.828c-3.454,6.186-2.087,11.007,1.006,12.737l27.844,15.543c3.093,1.73,7.914,0.361,11.369-5.825
		c1.616-3.363,2.089-11.01-1.006-12.737c-3.093-1.728-1.365-4.821,0.363-7.916l31.091-55.687"/>
	<path id="path895" fill="#A77B3B" stroke="#000000" stroke-width="3.125" d="M457.139,644.887H428.79
		c-0.936,0.938-8.997,54.067-17.715,74.409c-10.629,24.802-42.465,46.69-42.465,46.69s19.072,6.045,24.748,10.003
		c1.411-0.414,31.835-7.085,35.379-46.062c3.543,38.976-21.206,56.691-21.206,56.691s35.434,10.631,35.434,35.433
		c0-24.802,35.434-35.433,35.434-35.433s-17.773-17.715-21.316-56.691c7.086,38.976,34.078,45.648,35.488,46.062
		c5.676-3.958,24.747-10.003,24.747-10.003s-31.835-21.888-42.465-46.69C466.136,698.954,458.075,645.825,457.139,644.887
		L457.139,644.887z"/>
	<path id="path728" fill="#A77B3B" stroke="#000000" stroke-width="3.125" d="M336.611,467.7l53.15,17.716
		c17.715,0,35.433-17.697,35.433-35.414c0.589-39.414-14.174-53.168-17.717-53.168l7.088-7.086l-10.631-10.63
		c0,0,3.554-18.382,38.976-17.698c35.422,0.685,35.434,17.716,35.434,35.433c0,17.717-17.717,17.717-17.717,53.15
		c0,17.717,17.717,35.433,35.433,35.433l53.15-17.715V644.88H336.609V467.699L336.611,467.7z"/>
	<g id="g853" transform="translate(-.000038147 -.00018311)">
		<path id="path732" fill="none" stroke="#000000" stroke-width="0.603" d="M418.107,474.798l3.543,10.63l3.543-10.63l3.545,10.63
			l7.086-10.63l3.451,11.23l3.635-11.23l5.227,11.23l5.402-11.23l3.545,10.63l3.543-10.63"/>
		<path id="path827" fill="none" stroke="#000000" stroke-width="0.25" d="M432.279,435.83l-7.086,38.975"/>
		<path id="path828" fill="none" stroke="#000000" stroke-width="0.25" d="M435.829,435.83v38.975"/>
		<path id="path829" fill="none" stroke="#000000" stroke-width="0.25" d="M442.91,435.83v38.975"/>
		<path id="path830" fill="none" stroke="#000000" stroke-width="0.25" d="M450,435.83l3.543,38.975"/>
		<path id="path831" fill="none" stroke="#000000" stroke-width="0.25" d="M457.09,435.83l3.543,38.975"/>
	</g>
	<g id="g712">
		<path id="path691" fill="#A77B3B" stroke="#000000" stroke-width="3.125" d="M301.18,361.42
			c-35.433,17.717-35.433,53.149-35.433,70.866c1.25,16.117,0,354.33,0,354.33s2.305-20.023,17.717-35.433l17.715-17.716
			l17.717-17.718c12.95-11.773,17.715-35.433,17.715-53.149V414.57C336.613,414.57,336.613,396.854,301.18,361.42L301.18,361.42z"/>
		<path id="path692" fill="none" stroke="#000000" stroke-width="3.125" d="M336.62,432.29c-0.417,0-17.715-17.717-17.715-17.717
			l-17.717,17.717l-17.715-17.717l-17.717,17.717"/>
		<path id="path693" fill="none" stroke="#000000" stroke-width="3.125" d="M336.62,449.98c-0.417,0-17.715,17.717-17.715,17.717
			l-17.717-17.717l-17.715,17.717l-17.717-17.717"/>
		<path id="path694" fill="none" stroke="#000000" stroke-width="3.125" d="M336.62,503.154c-0.417,0-17.715-17.716-17.715-17.716
			l-17.717,17.716l-17.715-17.716l-17.717,17.716"/>
		<path id="path695" fill="none" stroke="#000000" stroke-width="3.125" d="M318.69,414.596l0.208,301.183"/>
		<path id="path696" fill="none" stroke="#000000" stroke-width="3.125" d="M301.18,432.276l0.207,300.491"/>
		<path id="path697" fill="none" stroke="#000000" stroke-width="3.125" d="M283.459,414.574l0.209,336.617"/>
	</g>
	<g id="g720">
		<path id="path675" fill="#A77B3B" stroke="#000000" stroke-width="3.125" d="M584.649,361.42
			c35.433,17.717,35.433,53.149,35.433,70.866c-1.25,16.117,0,354.33,0,354.33s-2.305-20.023-17.717-35.433l-17.715-17.716
			l-17.717-17.718c-12.95-11.773-17.715-35.433-17.715-53.149V414.57C549.217,414.57,549.217,396.854,584.649,361.42L584.649,361.42
			z"/>
		<path id="path676" fill="none" stroke="#000000" stroke-width="3.125" d="M549.21,432.29c0.417,0,17.715-17.717,17.715-17.717
			l17.717,17.717l17.715-17.717l17.717,17.717"/>
		<path id="path677" fill="none" stroke="#000000" stroke-width="3.125" d="M549.21,449.98c0.417,0,17.715,17.717,17.715,17.717
			l17.717-17.717l17.715,17.717l17.717-17.717"/>
		<path id="path678" fill="none" stroke="#000000" stroke-width="3.125" d="M549.21,503.154c0.417,0,17.715-17.716,17.715-17.716
			l17.717,17.716l17.715-17.716l17.717,17.716"/>
		<path id="path679" fill="none" stroke="#000000" stroke-width="3.125" d="M567.14,414.596l-0.208,301.183"/>
		<path id="path680" fill="none" stroke="#000000" stroke-width="3.125" d="M584.649,432.276l-0.207,300.491"/>
		<path id="path681" fill="none" stroke="#000000" stroke-width="3.125" d="M602.36,414.574l-0.208,336.617"/>
	</g>
	<path id="path903" fill="#A77B3B" stroke="#000000" stroke-width="3.125" d="M396.393,678.682
		c-9.409,22.579-25.822,37.225-36.66,32.707c-10.837-4.514-11.998-26.481-2.589-49.06c9.409-22.579,25.822-37.223,36.66-32.707
		C404.641,634.136,405.802,656.102,396.393,678.682z"/>
	<g id="g860">
		<rect id="rect741" x="336.611" y="485.43" fill="#FF0000" width="212.599" height="106.299"/>
		<path id="path742" fill="#564DFF" d="M336.611,591.731H549.21v53.149c0,35.433-53.15,35.433-106.299,70.865
			c-53.15-35.433-106.3-35.433-106.3-70.865V591.731z"/>
		<path id="path740" fill="none" stroke="#FFFF00" stroke-width="2.5" d="M336.611,485.43h212.601v159.45
			c0,35.433-53.15,35.433-106.299,70.865c-53.15-35.433-106.301-35.433-106.301-70.865V485.43z"/>
		<path id="path744" fill="#FFFF00" stroke="#000000" stroke-width="3.0112" d="M403.933,492.516c0,0-35.433,26.036-35.433,50.995
			c0,24.956,37.204,33.276,37.204,33.276s-12.403,0-12.403,33.274c0,16.638,37.206,8.321,37.206,16.638
			c0,8.321-0.527,28.446,0,41.597c0,8.317-24.803,0-24.803,8.317c0,4.16,18.603,24.959,37.206,24.959
			c18.601,0,37.204-20.798,37.204-24.959c0-8.317-24.803,0-24.803-8.317v-41.597c0-8.317,37.204,0,37.204-16.638
			c0-33.274-12.401-33.274-12.401-33.274s37.204-8.32,37.204-33.276c0-24.957-35.433-50.995-35.433-50.995
			s19.93,34.355,19.93,50.995c0,8.319-9.301,24.956-34.104,24.956c0,0-6.272-8.318-12.401,0c0,0-7.133-8.318-12.401,0
			c-1.819,2.871-5.046-8.318-12.403,0c-3.126,2.206-5.588-8.318-12.403,0c-12.401,0-37.202-8.318-37.204-24.956
			C380.901,526.873,403.933,492.516,403.933,492.516L403.933,492.516z"/>
		<path id="path746" fill="#FFFF00" stroke="#000000" stroke-width="3.0112" d="M404.566,641.384
			c-2.479,1.664,3.207,28.772,4.961,29.949c2.481,1.662,17.363,1.662,19.843,0c1.768-1.186,0-26.621-2.479-28.285
			C424.409,641.384,406.32,640.209,404.566,641.384z"/>
		<path id="path747" fill="#FFFF00" stroke="#000000" stroke-width="3.0112" d="M481.264,641.384
			c2.481,1.664-3.207,28.772-4.961,29.949c-2.479,1.662-17.361,1.662-19.843,0c-1.766-1.186,0-26.621,2.481-28.285
			C461.421,641.384,479.509,640.209,481.264,641.384z"/>
		<path id="path748" fill="#FFFF00" stroke="#000000" stroke-width="3.0112" d="M430.088,631.569c0,5.155-5.745,9.334-12.83,9.334
			c-7.086,0-12.83-4.179-12.83-9.334c0-5.155,5.744-9.333,12.83-9.333C424.342,622.235,430.088,626.414,430.088,631.569z"/>
		<path id="path749" fill="#FFFF00" stroke="#000000" stroke-width="3.0112" d="M481.403,631.57c0,5.155-5.744,9.334-12.83,9.334
			c-7.084,0-12.83-4.179-12.83-9.334c0-5.155,5.745-9.333,12.83-9.333C475.659,622.237,481.403,626.416,481.403,631.57z"/>
		<path id="path750" d="M465.243,685.769c0,2.297-2.778,4.16-6.202,4.16s-6.2-1.863-6.2-4.16c0-2.296,2.776-4.16,6.2-4.16
			S465.243,683.473,465.243,685.769z"/>
		<path id="path751" d="M432.993,685.769c0,2.297-2.776,4.16-6.202,4.16c-3.425,0-6.2-1.863-6.2-4.16c0-2.296,2.776-4.16,6.2-4.16
			C430.217,681.608,432.993,683.473,432.993,685.769z"/>
		<polygon id="polygon785" fill="#FFFF00" stroke="#000000" points="442.914,552.756 435.324,542.746 422.865,544.453 
			424.581,532.005 414.573,524.414 424.581,516.814 422.865,504.365 435.324,506.082 442.914,496.063 450.504,506.082 
			462.962,504.365 461.245,516.814 471.255,524.414 461.245,532.005 462.962,544.453 450.504,542.746 		"/>
		<path id="path786" fill="#FFFF00" stroke="#000000" d="M496.06,591.729l21.26,10.631l21.258-10.631L517.32,581.1L496.06,591.729z"
			/>
		<path id="path788" fill="#FFFF00" stroke="#000000" d="M343.701,591.729l21.26,10.631l21.259-10.631L364.961,581.1
			L343.701,591.729z"/>
		<path id="path790" fill="#FFFF00" stroke="#000000" d="M529.039,655.172c-6.601-4.379-17.585-2.16-23.729,1.369
			c-6.146,3.529-12.291,7.06-13.142,19.806c-7.058-12.29-1.48-23.665,7.848-29.022C509.343,641.966,523.681,645.844,529.039,655.172
			z"/>
		<path id="path792" fill="#FFFF00" stroke="#000000" d="M382.676,634.253c0,3.914-3.172,7.087-7.086,7.087
			c-3.914,0-7.086-3.173-7.086-7.087s3.172-7.087,7.086-7.087C379.505,627.166,382.676,630.339,382.676,634.253z"/>
		<path id="path793" fill="#FFFF00" stroke="#000000" d="M375.59,659.057c0,3.914-3.173,7.085-7.086,7.085
			c-3.914,0-7.088-3.171-7.088-7.085s3.173-7.085,7.088-7.085C372.417,651.971,375.59,655.142,375.59,659.057z"/>
		<path id="path795" fill="#FFFF00" stroke="#000000" d="M372.047,644.884c0,3.912-3.173,7.085-7.086,7.085
			c-3.914,0-7.086-3.173-7.086-7.085c0-3.914,3.172-7.087,7.086-7.087C368.874,637.797,372.047,640.97,372.047,644.884z"/>
		<path id="path796" fill="#FFFF00" stroke="#000000" d="M389.764,659.057c0,3.914-3.173,7.085-7.088,7.085
			c-3.913,0-7.086-3.171-7.086-7.085s3.173-7.085,7.086-7.085C386.591,651.971,389.764,655.142,389.764,659.057z"/>
		<path id="path797" fill="#FFFF00" stroke="#000000" d="M393.307,644.884c0,3.912-3.173,7.085-7.086,7.085
			c-3.914,0-7.088-3.173-7.088-7.085c0-3.914,3.173-7.087,7.088-7.087C390.134,637.797,393.307,640.97,393.307,644.884z"/>
		<path id="path791" fill="#FFFF00" stroke="#000000" d="M382.676,648.427c0,3.912-3.172,7.085-7.086,7.085
			c-3.913,0-7.086-3.173-7.086-7.085c0-3.916,3.173-7.087,7.086-7.087C379.505,641.34,382.676,644.512,382.676,648.427z"/>
	</g>
	<g id="g881">
		<path id="path822" fill="#DA4500" d="M408.672,401.583c-17.883,0-20.247,2.954-28.346,5.908c0-8.15,19.914-17.717,37.797-17.717
			C418.123,395.678,413.397,401.584,408.672,401.583z"/>
		<path id="path823" fill="#CAC9C7" d="M435.826,382.676c0,3.914-3.172,7.087-7.086,7.087c-3.914,0-7.086-3.173-7.086-7.087
			c0-3.913,3.172-7.086,7.086-7.086C432.654,375.59,435.826,378.763,435.826,382.676z"/>
		<path id="path825" fill="#FFFF00" stroke="#000000" d="M361.419,357.87v10.63h17.717v53.15h10.631V368.5h17.715v-10.63h-17.715
			v-14.173h-10.631v14.173H361.419z"/>
		<path id="path821" fill="#DA4500" d="M418.09,389.776c-20.861,0-33.07,1.967-42.519,5.905c0-10.866,12.207-23.622,33.07-23.622
			C413.364,372.058,418.09,383.869,418.09,389.776z"/>
	</g>
	<g id="g920">
		<path id="path908" fill="#008500" stroke="#000000" stroke-width="0.875" d="M233.863,577.906
			c-5.091-11.482-5.009-15.177,4.059-2.039l109.314,216.846l-3.32,0.991L233.861,577.903L233.863,577.906z"/>
		<path id="path912" fill="#008F00" d="M307.991,720.559c1.116-16.076-27.009-33.466-28.121-32.336
			c-1.112,1.129,1.711,10.489,7.044,15.366c-10.214-5.505-20.912-8.897-21.136-6.507c-0.833,3.222,15.874,10.921,17.26,13.894
			c0.227,2.124-12.268,1.847-12.042,3.971C271.223,717.072,306.19,735.562,307.991,720.559L307.991,720.559z"/>
		<path id="path913" fill="#008F00" d="M279.888,673.729c1.116-16.076-27.009-33.466-28.121-32.336s1.711,10.489,7.044,15.366
			c-10.214-5.505-20.912-8.897-21.136-6.507c-0.833,3.224,15.874,10.921,17.26,13.893c0.227,2.124-12.268,1.847-12.042,3.971
			C243.12,670.244,278.087,688.732,279.888,673.729L279.888,673.729z"/>
		<path id="path914" fill="#008F00" d="M258.386,631.209c1.116-16.076-27.011-33.466-28.123-32.336
			c-1.112,1.13,1.711,10.489,7.044,15.366c-10.214-5.505-20.912-8.897-21.136-6.507c-0.832,3.222,15.874,10.921,17.26,13.894
			c0.227,2.124-12.268,1.847-12.042,3.971c0.227,2.126,35.194,20.616,36.995,5.613H258.386z"/>
		<path id="path915" fill="#008F00" d="M237.126,585.138c1.116-16.074-27.011-33.466-28.123-32.335
			c-1.112,1.129,1.711,10.489,7.044,15.367c-10.214-5.506-20.912-8.897-21.136-6.507c-0.832,3.223,15.874,10.92,17.26,13.893
			c0.227,2.125-12.268,1.848-12.042,3.972c0.227,2.126,35.194,20.614,36.995,5.611H237.126z"/>
		<path id="path916" fill="#008F00" d="M244.431,583.054c13.609-8.631,10.945-41.591,9.374-41.818
			c-1.569-0.227-7.433,7.595-8.2,14.782c-1.62-11.489-5.229-22.116-7.288-20.88c-3.09,1.24,0.614,19.257-0.957,22.137
			c-1.578,1.442-8.76-8.786-10.338-7.344c-1.576,1.443,4.26,40.564,17.41,33.12V583.054z"/>
		<path id="path917" fill="#008F00" d="M264.143,623.498c15.708-3.591,24.202-35.549,22.798-36.287
			c-1.404-0.737-9.543,4.677-12.666,11.197c2.309-11.372,2.453-22.594,0.101-22.116c-3.327,0.138-5.85,18.357-8.294,20.547
			c-1.967,0.832-5.323-11.206-7.29-10.374C256.823,587.299,249.263,626.124,264.143,623.498L264.143,623.498z"/>
		<path id="path918" fill="#008F00" d="M287.691,664.872c14.326-7.376,14.626-40.443,13.083-40.808
			c-1.543-0.367-8.085,6.898-9.492,13.988c-0.584-11.589-3.227-22.495-5.388-21.448c-3.189,0.956-1.114,19.233-2.938,21.961
			c-1.7,1.294-7.937-9.534-9.637-8.241C271.618,631.62,273.927,671.105,287.691,664.872L287.691,664.872z"/>
		<path id="path919" fill="#008F00" d="M313.176,718.891c15.001-5.89,18.643-38.757,17.145-39.276
			c-1.498-0.522-8.741,6.044-10.859,12.956c0.593-11.589-0.935-22.707-3.189-21.884c-3.269,0.63-3.055,19.023-5.145,21.552
			c-1.822,1.117-6.931-10.29-8.753-9.173c-1.822,1.117-3.522,40.635,10.804,35.825H313.176z"/>
	</g>
	<path id="path899" fill="#FF1900" stroke="#000000" d="M346.182,775.23c-3.815,6.834-15.912,7.348-27.018,1.148
		c-11.107-6.201-17.016-16.768-13.201-23.601c3.817-6.836,15.914-7.35,27.02-1.15C344.088,757.83,349.997,768.397,346.182,775.23z"
		/>
	<g id="g935" transform="matrix(.72399 .23860 -0.265 .71579 631.68 213.1)">
		<path id="path934" fill="#FFFF00" stroke="#000000" stroke-width="0.625" d="M155.909,414.57l0-7.087l7.088-0.001l-0.002-7.085
			l7.088-0.001l0,7.087l7.085,0l0,7.087l-7.085,0l0.001,17.716l-7.088,0l-0.001-17.716H155.909z"/>
		<polygon id="rect930" fill="#FFFF00" stroke="#000000" stroke-width="0.6305" points="162.989,474.8 170.077,474.8 
			170.076,680.309 162.991,680.31 		"/>
		<polygon id="rect931" fill="#FFFF00" stroke="#000000" stroke-width="0.625" points="159.45,676.77 173.624,676.771 
			173.621,733.462 159.448,733.463 		"/>
		<path id="path932" fill="#FFFF00" stroke="#000000" stroke-width="0.625" d="M155.909,439.371l21.259-0.001
			c14.173,0-3.544,38.977-3.544,38.977l-14.171,0C159.454,478.346,141.736,439.37,155.909,439.371z"/>
		<path id="path933" fill="#FFFF00" stroke="#000000" stroke-width="0.625" d="M173.62,434.06c-0.002,2.936-3.175,5.315-7.088,5.316
			c-3.914-0.001-7.087-2.379-7.085-5.315c0-2.935,3.172-5.315,7.086-5.315C170.447,428.745,173.62,431.124,173.62,434.06z"/>
	</g>
	<path id="path906" fill="#FF1900" stroke="#000000" d="M576.027,756.669c4.323,6.527-0.772,17.51-11.375,24.534
		c-10.605,7.025-22.706,7.427-27.028,0.901c-4.322-6.525,0.771-17.51,11.376-24.534
		C559.604,750.547,571.705,750.142,576.027,756.669z"/>
</g>
</svg>
