<?xml version="1.0" encoding="utf-8"?>
<!-- Generator: Adobe Illustrator 16.0.0, SVG Export Plug-In . SVG Version: 6.00 Build 0)  -->
<svg version="1.2" baseProfile="tiny"
	 id="svg2" xmlns:cc="http://creativecommons.org/ns#" xmlns:dc="http://purl.org/dc/elements/1.1/" xmlns:rdf="http://www.w3.org/1999/02/22-rdf-syntax-ns#"
	 xmlns="http://www.w3.org/2000/svg" xmlns:xlink="http://www.w3.org/1999/xlink" x="0px" y="0px" width="512px" height="512px"
	 viewBox="0 0 512 512" xml:space="preserve">
<g>
	<polygon fill="#ED2939" points="512.01,256.005 512.01,0 0,0 341.34,256.005 	"/>
	<polygon fill="#002395" points="341.34,256.005 0,512.01 512.01,512.01 512.01,256.005 	"/>
	<path fill="#FFFFFF" d="M0,0v512.01l341.34-256.005L0,0z M87.11,182.258l-0.087-0.125l0.135-0.072
		c0.049-0.026,4.758-2.583,4.012-6.524c-0.389-0.08-0.719-0.167-0.977-0.261c0,0-12.47,2.798-11.737,0.371l0.002,0.014
		c0.704-1.697,5.134-5.262,16.958-6.795c-0.004-0.072,0.001-0.136-0.004-0.21l-0.01-0.136l0.136-0.01
		c0.05-0.003,5.008-0.4,5.492-4.583l0.017-0.141l0.14,0.023c0.004,0,0.413,0.066,1.037,0.066c1.638,0,4.619-0.442,6.183-3.401
		l0.047-0.089l0.099,0.02c0.007,0.001,0.652,0.128,1.524,0.128c1.676,0,3.847-0.445,4.667-2.563l0.047-0.122l0.124,0.043
		c0.01,0.003,1.003,0.343,2.327,0.343c1.545,0,3.711-0.467,5.255-2.692l0.062-0.089l0.1,0.04c0.014,0.005,1.358,0.537,2.922,0.537
		c1.927,0,3.327-0.771,4.159-2.291l0.119-0.216l0.119,0.216c0.842,1.524,2.247,2.296,4.175,2.296c1.573,0,2.919-0.536,2.933-0.542
		l0.1-0.04l0.062,0.088c1.572,2.246,3.751,2.717,5.303,2.717c1.302,0,2.271-0.33,2.281-0.333l0.122-0.042l0.048,0.12
		c0.853,2.121,3.056,2.566,4.753,2.566c0.862,0,1.495-0.122,1.501-0.123l0.099-0.019l0.047,0.089c1.57,2.96,4.558,3.402,6.199,3.402
		c0.623,0,1.031-0.066,1.035-0.066l0.14-0.023l0.017,0.14c0.214,1.759,1.206,3.067,2.948,3.887c1.309,0.616,2.566,0.709,2.579,0.71
		l0.135,0.009l-0.009,0.135c-0.039,0.572-0.008,1.087,0.063,1.564c7.602,0.045,15.48,1.546,23.582,7.277
		c1.878,1.353-4.745,1.569-9.866-0.608c0,0-4.502,0.233-9.487,0.252c0.533,3.028,4.016,4.92,4.059,4.943l0.134,0.071l-0.085,0.125
		c-1.908,2.814-0.999,5.499-0.545,6.484c4.537,0.244,9.52,0.507,13.994-0.088c5.652-1.389,11.318-2.701,16.398-5.478
		c-4.159,25.727-12.436,54.432-2.771,79.955c0.454,2.986,1.291,5.749,1.444,8.882c2.282,8.981,2.979,21.072-2.281,28.999v0.81
		c-9.686,14.331-29.189,13.325-45.009,15.175c-8.778,0.928-17.676,2.687-23.746,9.008c-1.779-1.82-3.811-3.523-6.581-4.682
		c-1.318-0.572-3.586-1.459-5.498-1.856c-10.056-2.183-21.298-3.963-32.163-4.604c-11.222-1.285-23.481-7.767-26.984-18.916
		c-5.869-23.234,8.437-42.982,5.262-66.502c-1.459-15.881-4.425-31.427-7.097-46.596c8.416,3.761,17.201,6.622,26.887,5.979
		l0.838-0.118c0.941-0.154,1.909-0.274,2.883-0.384C88.327,187.231,88.875,184.811,87.11,182.258z M183.872,344.04l0.083,5.051
		l-0.071,0.04c-14.371,7.925-47.433,9.362-53.338,9.311c-0.091,0.001-0.19,0.001-0.294,0.001c-6.692,0-39.259-1.517-53.509-9.366
		l-0.071-0.039l0-0.081l0.045-5.005c-14.857-2.505-26.756-8.739-35.493-18.628c-14.728-16.669-17.632-41.282-15.645-57.295
		l0.016-0.128l0.128,0.009l4.824,0.349c0.475-4.769,1.537-10.62,3.715-17.199l0.14,0.022l0.03-0.096l14.629,4.656l-4.428,23.713
		l-3.993,0.62c0.872,6.542,2.748,14.657,6.93,22.317c8.917,16.333,25.038,25.142,47.917,26.182l0.143,0.007l-0.261,2.55
		c7.793,3.254,22.576,5.698,35.142,5.698c0.094,0.001,0.189,0.001,0.283,0.001c12.442,0,26.57-2.359,34.321-5.635l-0.283-2.536
		l0.145-0.007c22.877-1.017,38.926-9.811,47.7-26.14c4.12-7.667,5.922-15.784,6.733-22.323l-3.982-0.64l-0.019-0.093l-4.608-23.584
		l14.574-4.614l0.032,0.102l0.008-0.002v-0.106l0.016,0.103l0.112-0.024c2.283,6.698,3.378,12.594,3.885,17.192l4.816-0.329
		l0.008,0.123l0.135-0.013c2.11,16.024-0.604,40.641-15.194,57.276C210.543,335.345,198.7,341.558,183.872,344.04z"/>
	<path fill="#FFFF00" d="M129.832,190.473c11.835-6.664,27.166-3.503,40.48-2.17l-0.007,0l1.668,0.449
		c-0.483-1.138-1.21-3.726,0.563-6.449c-0.66-0.386-3.609-2.263-4.082-5.108c-3.687,0.008-7.594-0.104-10.114-0.517
		c0,0-4.613,3.753-10.621,3.384c0.781,1.946-2.219,9.21-21.108,3.746c-3.119,0.957-14.486,2.861-13.245-0.516
		c-2.993,0-8.241,0.963-9.022-0.74c-0.754-1.674,9.239-4.208,10.99-6.021c0,0-17.911,0.17-23.877-0.941
		c0.621,3.695-3.268,6.183-4.042,6.635c1.672,2.515,1.213,4.893,0.76,6.142c4.461-0.483,9.155-0.633,13.27-1.369
		C110.851,186.084,121.898,185.798,129.832,190.473z"/>
	<path fill="#FFFF00" d="M158.54,164.137c-0.175,0.021-0.505,0.051-0.941,0.051c-1.686,0-4.744-0.452-6.392-3.459
		c-0.215,0.035-0.757,0.11-1.455,0.11c-1.434,0-3.962-0.344-4.956-2.62c-0.306,0.091-1.155,0.309-2.248,0.309
		c-1.596,0-3.83-0.479-5.464-2.747c-0.348,0.127-1.541,0.523-2.933,0.523c-1.918,0-3.398-0.771-4.294-2.232
		c-0.887,1.458-2.362,2.227-4.279,2.227c-1.387,0-2.575-0.392-2.922-0.519c-1.606,2.247-3.827,2.722-5.417,2.722
		c-1.112,0-1.981-0.226-2.293-0.319c-0.959,2.275-3.454,2.618-4.872,2.618c-0.708,0-1.26-0.079-1.478-0.115
		c-1.642,3.006-4.693,3.458-6.375,3.458c-0.436,0-0.767-0.03-0.941-0.051c-0.545,3.885-4.776,4.575-5.59,4.672
		c0.001,0.022,0,0.042,0.001,0.063c6.671-0.839,15.649-1.036,27.606,0.096c0,0,5.666,3.461,8.995,3.015
		c1.897-0.245-1.117,0.118-3.594-1.94c-2.526-2.058-3.063-6.279,2.707-6.167c5.743,0.146,27.243,1.361,27.647,3.293
		c0.377,1.954-11.367,2.77-15.735,2.658c-4.39-0.118-3.88,2.101,0.488,1.934c6.538-0.234,13.363-1.456,20.429-1.445
		c-0.066-0.447-0.097-0.926-0.07-1.451C163.354,168.726,159.109,168.036,158.54,164.137z"/>
	<path d="M88.176,188.368c0.453-1.249,0.912-3.627-0.76-6.142c0.774-0.453,4.664-2.94,4.042-6.635
		c-0.097-0.018-0.199-0.036-0.289-0.055c0.747,3.941-3.962,6.499-4.012,6.524l-0.135,0.072l0.087,0.125
		c1.765,2.553,1.217,4.973,0.765,6.143C87.975,188.39,88.075,188.378,88.176,188.368z"/>
	<path d="M168.456,177.196c0.472,2.845,3.422,4.722,4.082,5.108c-1.773,2.723-1.046,5.311-0.563,6.449l0.222,0.06
		c0.033,0.002,0.068,0.003,0.102,0.005c-0.454-0.986-1.363-3.67,0.545-6.484l0.085-0.125l-0.134-0.071
		c-0.043-0.022-3.525-1.915-4.059-4.943C168.643,177.195,168.549,177.195,168.456,177.196z"/>
	<path d="M95.692,168.83c-0.001-0.022,0-0.042-0.001-0.063c0.814-0.097,5.044-0.787,5.59-4.672c0.175,0.021,0.505,0.051,0.941,0.051
		c1.683,0,4.733-0.452,6.375-3.458c0.218,0.037,0.77,0.115,1.478,0.115c1.418,0,3.913-0.343,4.872-2.618
		c0.312,0.093,1.181,0.319,2.293,0.319c1.59,0,3.811-0.475,5.417-2.722c0.348,0.126,1.536,0.519,2.922,0.519
		c1.917,0,3.392-0.769,4.279-2.227c0.896,1.461,2.375,2.232,4.294,2.232c1.393,0,2.585-0.396,2.933-0.523
		c1.634,2.268,3.868,2.747,5.464,2.747c1.093,0,1.942-0.218,2.248-0.309c0.994,2.276,3.522,2.62,4.956,2.62
		c0.698,0,1.24-0.075,1.455-0.11c1.648,3.007,4.706,3.459,6.392,3.459c0.436,0,0.766-0.03,0.941-0.051
		c0.569,3.899,4.813,4.589,5.625,4.685c-0.027,0.525,0.004,1.003,0.07,1.451c0.09,0,0.181,0.001,0.271,0.001
		c-0.071-0.477-0.102-0.993-0.063-1.564l0.009-0.135l-0.135-0.009c-0.012-0.001-1.27-0.094-2.579-0.71
		c-1.743-0.82-2.734-2.127-2.948-3.887l-0.017-0.14l-0.14,0.023c-0.004,0-0.412,0.066-1.035,0.066c-1.641,0-4.629-0.442-6.199-3.402
		l-0.047-0.089l-0.099,0.019c-0.006,0.001-0.64,0.123-1.501,0.123c-1.697,0-3.9-0.445-4.753-2.566l-0.048-0.12l-0.122,0.042
		c-0.01,0.003-0.979,0.333-2.281,0.333c-1.551,0-3.73-0.471-5.303-2.717l-0.062-0.088l-0.1,0.04
		c-0.013,0.006-1.36,0.542-2.933,0.542c-1.928,0-3.333-0.772-4.175-2.296l-0.119-0.216l-0.119,0.216
		c-0.833,1.52-2.232,2.291-4.159,2.291c-1.564,0-2.909-0.532-2.922-0.537l-0.1-0.04l-0.062,0.089
		c-1.544,2.225-3.71,2.691-5.255,2.692c-1.324,0-2.317-0.339-2.327-0.343l-0.124-0.043l-0.047,0.122
		c-0.82,2.118-2.991,2.563-4.667,2.563c-0.872,0-1.517-0.127-1.524-0.128l-0.099-0.02l-0.047,0.089
		c-1.563,2.959-4.545,3.401-6.183,3.401c-0.624,0-1.033-0.066-1.037-0.066l-0.14-0.023l-0.017,0.141
		c-0.484,4.184-5.442,4.58-5.492,4.583l-0.136,0.01l0.01,0.136c0.006,0.074,0,0.138,0.004,0.21
		C95.507,168.853,95.599,168.841,95.692,168.83z"/>
	<path fill="#FF0000" d="M171.974,188.752l-1.668-0.449l0.007,0c-13.314-1.333-28.646-4.494-40.48,2.17
		c-7.935-4.675-18.981-4.389-28.387-3.475c-4.115,0.736-8.809,0.886-13.27,1.369c-0.101,0.011-0.201,0.022-0.301,0.033
		c-0.975,0.109-1.942,0.23-2.883,0.384l-0.838,0.118c-9.686,0.643-18.471-2.219-26.887-5.979
		c2.672,15.169,5.638,30.715,7.097,46.596c3.175,23.521-11.131,43.268-5.262,66.502c3.503,11.149,15.763,17.631,26.984,18.916
		c10.865,0.642,22.107,2.422,32.163,4.604c1.912,0.397,4.18,1.284,5.498,1.856c2.771,1.158,4.802,2.861,6.581,4.682
		c6.07-6.321,14.968-8.08,23.746-9.008c15.819-1.85,35.323-0.844,45.009-15.175v-0.81c5.261-7.927,4.563-20.018,2.281-28.999
		c-0.153-3.133-0.99-5.896-1.444-8.882c-9.665-25.523-1.389-54.229,2.771-79.955c-5.08,2.777-10.746,4.088-16.398,5.478
		c-4.475,0.596-9.458,0.332-13.994,0.088c-0.034-0.002-0.068-0.003-0.102-0.005L171.974,188.752z M192.062,195.537
		c-3.336,21.623-9.741,44.272-1.877,66.021l0.005-0.001c-0.062,1.681,0.845,3,1.173,4.556c1.849,11.156,3.636,25.936-7.851,32.857
		c-12.707,8.079-29.371,4.619-44.074,8.896c-2.938,0.816-6.985,3.518-9.051,5.429c-1.326-0.872-2.658-2.212-4.368-3
		c-12.1-6.434-27.828-4.277-41.484-7.752c-6.859-2.17-14.012-7.515-15.75-14.535c-4.466-18.419,6.231-34.119,4.969-52.392
		c-0.816-13.955-3.161-27.351-6.385-40.434c10.676,4.975,23.034,5.805,35.037,3.419c8.891-1.243,19.239-1.27,27.57,2.491
		c4.592-1.976,9.965-2.861,14.913-3.406c9.406,0.915,19.518,2.617,29.204,2.547C180.562,199.898,186.438,198.028,192.062,195.537z"
		/>
	<path fill="#80CFE1" d="M129.976,201.092c-8.331-3.761-18.68-3.734-27.57-2.491c-12.003,2.386-24.361,1.556-35.037-3.419
		c3.224,13.083,5.568,26.479,6.385,40.434c1.263,18.273-9.435,33.973-4.969,52.392c1.738,7.021,8.891,12.365,15.75,14.535
		c13.656,3.475,29.385,1.318,41.484,7.752c1.71,0.788,3.042,2.128,4.368,3c2.065-1.911,6.113-4.612,9.051-5.429
		c14.703-4.276,31.367-0.816,44.074-8.896c11.486-6.922,9.699-21.701,7.851-32.857c-0.328-1.556-1.235-2.875-1.173-4.556
		l-0.005,0.001c-7.864-21.749-1.459-44.398,1.877-66.021c-5.624,2.491-11.5,4.361-17.969,4.696
		c-9.687,0.069-19.798-1.633-29.204-2.547C139.941,198.23,134.568,199.116,129.976,201.092z M75.434,216.991
		c-0.613-2.553,0.119-5.729,1.968-7.633c-0.411-1.046-1.779-0.774-2.589-1.374c-1.849-1.571-4.515-3.23-4.382-6.064
		c5.06-1.911,11.109-0.509,14.787,3.335l0.014,0c0.454-0.613,0.635-1.717,1.598-1.688c2.094,0.558,3.518,4.388,6.092,1.904
		c0.915-0.203,1.264,1.04,2.017,1.187c0.482,2.128,2.191-0.433,3.469-0.287c2.729-1.214,6.105-1.5,9.337-0.9
		c0.098,2.086-1.535,4.389-3.587,5.575c0.042,2.101,1.946,3.448,1.912,5.561c-0.328,0.789-0.056,2.03-1.249,2.289
		c-1.515-0.272-3.008-0.433-4.264-1.277c-0.154-0.153-0.279-0.454-0.601-0.356c-0.153,0.705,0.949,1.403,1.382,2.121
		c-0.761,1.298-2.023,0.112-3.084,0.125c-0.314,0.747-0.015,1.688-0.782,2.17c-1.34-0.042-1.611-1.5-2.436-2.226
		c-0.844,0.914,0.594,1.458,0.796,2.184c-0.517,2.749-0.446,5.435-3.196,7.235l-1.842,0.915c-0.503-1.382-0.188-3.476-0.523-4.92
		c-1.089,1.772-1.939,3.322-3.538,4.821c-1.87-0.614-2.959-2.819-3.37-4.647c-0.781-2.128-0.335-4.675,1.347-6.217
		c-0.572-1.116-2.533-0.858-2.812-2.448C78.958,214.465,77.332,219.727,75.434,216.991z M156.854,227.135
		c2.425-3.122,7.682-6.474,10.325-7.414c0.018-3.309,0.263-15.112,2.847-17.636c0.396-0.387,0.842-0.555,1.32-0.565v0.013
		c0.492,0.024,0.898,0.187,1.286,0.564c2.689,2.623,2.942,14.842,2.965,17.635c2.711,0.946,7.943,4.255,10.423,7.445l0.732,0.941
		l-30.626-0.045L156.854,227.135z M142.889,225.143l32.475,20.974h-3.895l0.1,19.44l3.723,0.004l0.053,5.74h-1.503l0.087,20.686
		l6.628,0.006v0.582l0.575-0.001l0.006,6.947l-0.583-0.001l-100.707-0.113l-0.049-7.499l0.586,0.001l6.108,0.005l-0.081-20.634
		l-1.768-0.051v-5.769l0.583,0.001l3.148,0.004l-0.1-19.378l-3.843-0.021l32.28-20.935l-0.051-9.526h-4.22l17.269-12.42
		l17.355,12.426h-4.229L142.889,225.143z"/>
	<polygon fill="#80CFE1" points="171.333,202.115 171.333,202.115 171.333,202.088 171.332,202.103 	"/>
	<polygon fill="#FFFFFF" points="161.099,258.748 161.094,251.205 156.74,251.205 156.77,258.748 	"/>
	<polygon fill="#FFFFFF" points="141.67,214.778 141.668,214.447 143.441,214.447 129.714,204.618 116.055,214.441 117.822,214.441 
		117.823,214.772 129.72,206.33 	"/>
	<path fill="#FFFFFF" d="M138.45,225.123l-0.03-7.558l-17.342-0.013l0.029,7.558L138.45,225.123z M134.591,218.554l0.036,5.511
		h-9.663l-0.036-5.511H134.591z"/>
	<polygon fill="#FFFFFF" points="118.993,229.395 101.15,242.5 158.598,242.553 140.615,229.422 	"/>
	<polygon fill="#FFFFFF" points="133.22,248.039 133.255,257.284 135.362,257.286 135.326,250.018 142.004,250.018 142.027,257.291 
		144.104,257.293 144.052,248.051 	"/>
	<path fill="#FFFFFF" d="M94.716,248.009l0.051,13.83h10.857l-0.077-13.816L94.716,248.009z M96.854,259.841l-0.032-9.857h6.655
		l0.048,9.874L96.854,259.841z"/>
	<polygon fill="#FFFFFF" points="97.99,251.147 98.014,258.679 102.355,258.689 102.319,251.147 	"/>
	<polygon fill="#FFFFFF" points="119.747,251.17 119.766,257.274 124.099,257.277 124.075,251.17 	"/>
	<polygon fill="#FFFFFF" points="133.455,222.9 133.435,219.718 126.1,219.718 126.12,222.9 	"/>
	<path fill="#FFFFFF" d="M115.348,257.271l-0.034-10.403l13.166,0.015l0.039,10.399l3.572,0.002l-0.039-10.41l13.158,0.014
		l0.058,10.406l3.001,0.002l0.009,0.58l0.028,7.409l22.098,0.016l-0.104-20.348h1.117l-29.688-19.174l-0.058-10.875l-23.846-0.032
		l0.058,10.89l-29.546,19.16l1.099,0.006l0.104,20.316l22.836,0.016l-0.029-7.991L115.348,257.271z M165.541,262.483l-0.575,0.003
		v0.582h-12.604l-0.045-16.181h13.152L165.541,262.483z M139.579,216.402l0.04,9.886l-19.671-0.015l-0.039-9.886L139.579,216.402z
		 M118.613,228.229l22.383,0.028l19.733,14.41l-0.341,0.468l0,0.584l-62.784-0.058L118.613,228.229z M93.607,263.003l-0.06-16.16
		l13.159,0.017l0.089,16.144H93.607z"/>
	<path fill="#FFFFFF" d="M164.374,261.904l-0.064-13.853h-10.826l0.039,13.853H164.374z M162.257,250.041l0.008,9.872h-6.653
		l-0.04-9.872H162.257z"/>
	<polygon fill="#FFFFFF" points="121.327,213.713 138.179,213.736 129.721,207.757 	"/>
	<polygon fill="#FFFFFF" points="116.482,248.033 116.511,257.271 118.602,257.273 118.579,250.006 125.234,250.006 
		125.263,257.278 127.354,257.28 127.32,248.045 	"/>
	<polygon fill="#FFFFFF" points="136.496,251.182 136.526,257.287 140.863,257.29 140.844,251.182 	"/>
	<polygon points="129.712,203.185 112.443,215.605 116.663,215.605 116.714,225.131 84.434,246.066 88.277,246.086 88.376,265.465 
		112.377,265.491 112.376,265.26 89.539,265.244 89.435,244.928 88.336,244.922 117.882,225.762 117.824,214.873 117.681,214.873 
		117.823,214.772 117.822,214.441 116.055,214.441 129.714,204.618 143.441,214.447 141.668,214.447 141.67,214.778 
		141.849,214.905 141.67,214.904 141.728,225.779 171.416,244.953 170.299,244.953 170.404,265.301 148.306,265.285 148.307,265.53 
		171.569,265.557 171.469,246.117 175.364,246.117 142.889,225.143 142.839,215.611 147.067,215.611 	"/>
	<polygon fill="#FFFFFF" points="81.005,298.244 179.973,298.354 179.968,293.156 80.972,293.073 	"/>
	<path d="M172.766,292.281v-0.004l-2.843-0.002l0.001,0.245l-1.164,0.008l-0.002-0.255l-20.348-0.019l0.003,0.82l-35.937-0.057
		l-0.003-0.798L91.409,292.2l-0.003,0.246l-0.582-0.01v0.003v-0.003l-0.582-0.01l0.002-0.228l-3.167-0.003l-0.582,0.002
		l-0.001-0.285l-6.108-0.005l-0.586-0.001l0.049,7.499l100.707,0.113l0.583,0.001l-0.006-6.947l-0.575,0.001v-0.582l-6.628-0.006
		l0.001,0.289L172.766,292.281z M179.968,293.156l0.006,5.198l-98.968-0.11l-0.033-5.171L179.968,293.156z"/>
	<path fill="#FFFFFF" d="M112.381,266.655l-26.571-0.029v3.472l0.599,0.017v-0.032l5.226-0.01l-0.002,0.191l0.024,0.001
		L91.409,292.2l21.063,0.021L112.381,266.655z M106.83,271.291l0.067,16.181l-13.173-0.017l-0.076-16.164H106.83z"/>
	<polygon fill="#FFFFFF" points="90.457,271.395 87.578,271.312 87.659,292.194 87.077,292.196 90.245,292.199 	"/>
	<path fill="#FFFFFF" d="M164.466,286.353l-0.065-13.837l-10.811-0.013l0.052,13.85H164.466z M162.332,274.479l0.056,9.857h-6.656
		l-0.071-9.857H162.332z"/>
	<path fill="#FFFFFF" d="M105.728,286.306l-0.058-13.851H94.819l0.065,13.838L105.728,286.306z M103.595,274.421l0.031,9.886h-6.662
		l-0.04-9.886H103.595z"/>
	<polygon fill="#FFFFFF" points="102.458,283.143 102.435,275.585 98.094,275.585 98.124,283.143 	"/>
	<polygon fill="#FFFFFF" points="161.217,283.172 161.175,275.643 156.834,275.643 156.888,283.172 	"/>
	<path fill="#FFFFFF" d="M148.409,292.255l20.348,0.019l-0.198-22.137h5.61l-0.031-3.414l-25.827-0.028L148.409,292.255z
		 M165.56,271.354l0.073,15.579l-0.582,0.003v0.581h-12.568l-0.061-16.18L165.56,271.354z"/>
	<polygon fill="#FFFFFF" points="172.677,271.301 169.823,271.301 169.923,292.275 172.766,292.277 	"/>
	<polygon fill="#FFFFFF" points="90.824,292.439 90.824,292.437 90.824,292.437 	"/>
	<polygon points="148.307,265.53 148.311,266.694 174.138,266.723 174.17,270.137 168.559,270.137 168.758,292.273 168.76,292.528 
		169.924,292.521 169.923,292.275 169.823,271.301 172.677,271.301 172.766,292.277 172.766,292.281 173.93,292.275 
		173.929,291.986 173.842,271.301 175.344,271.301 175.292,265.561 171.569,265.557 	"/>
	<polygon points="87.077,292.196 87.659,292.194 87.578,271.312 90.457,271.395 90.245,292.199 90.242,292.427 90.824,292.437 
		90.824,292.437 91.406,292.446 91.409,292.2 91.657,270.265 91.633,270.264 91.635,270.072 86.409,270.082 86.409,270.114 
		85.81,270.098 85.81,266.626 112.381,266.655 112.377,265.491 88.376,265.465 85.228,265.461 84.646,265.46 84.646,271.229 
		86.414,271.279 86.494,291.913 86.495,292.198 	"/>
	<path d="M106.897,287.472l-0.067-16.181H93.649l0.076,16.164L106.897,287.472z M105.671,272.455l0.058,13.851l-10.845-0.013
		l-0.065-13.838H105.671z"/>
	<path d="M103.626,284.307l-0.031-9.886h-6.67l0.04,9.886H103.626z M102.435,275.585l0.023,7.558h-4.334l-0.03-7.558H102.435z"/>
	<path d="M165.051,287.517v-0.581l0.582-0.003l-0.073-15.579l-13.139-0.017l0.061,16.18H165.051z M164.401,272.516l0.065,13.837
		h-10.823l-0.052-13.85L164.401,272.516z"/>
	<path d="M162.387,284.336l-0.056-9.857h-6.671l0.071,9.857H162.387z M161.175,275.643l0.042,7.529h-4.329l-0.054-7.529H161.175z"/>
	<path d="M152.362,263.068h12.604v-0.582l0.575-0.003l-0.072-15.596h-13.152L152.362,263.068z M164.31,248.051l0.064,13.853h-10.851
		l-0.039-13.853H164.31z"/>
	<path d="M162.264,259.912l-0.008-9.872h-6.686l0.04,9.872H162.264z M161.094,251.205l0.006,7.543h-4.329l-0.03-7.543H161.094z"/>
	<path d="M93.547,246.843l0.06,16.16h13.188l-0.089-16.144L93.547,246.843z M94.767,261.839l-0.051-13.83l10.832,0.014l0.077,13.816
		H94.767z"/>
	<path d="M96.822,249.983l0.032,9.857l6.671,0.017l-0.048-9.874H96.822z M98.014,258.679l-0.024-7.531h4.329l0.036,7.542
		L98.014,258.679z"/>
	<polygon points="115.314,246.867 115.348,257.271 116.511,257.271 116.482,248.033 127.32,248.045 127.354,257.28 128.518,257.281 
		128.48,246.882 	"/>
	<polygon points="118.579,250.006 118.602,257.273 119.766,257.274 119.747,251.17 124.075,251.17 124.099,257.277 125.263,257.278 
		125.234,250.006 	"/>
	<polygon points="132.052,246.874 132.09,257.283 133.255,257.284 133.22,248.039 144.052,248.051 144.104,257.293 145.268,257.294 
		145.21,246.888 	"/>
	<polygon points="135.326,250.018 135.362,257.286 136.526,257.287 136.496,251.182 140.844,251.182 140.863,257.29 
		142.027,257.291 142.004,250.018 	"/>
	<polygon fill="#FFFFFF" points="126.364,264.249 126.846,264.255 126.61,263.801 	"/>
	<polygon fill="#FFFFFF" points="115.582,264.238 116.064,264.238 115.829,263.796 	"/>
	<path fill="#FFFFFF" d="M133.045,260.597L133,260.538l-0.105,0.107c-0.975,0.996-0.006,2.718,0.004,2.735l0.023,0.04l0.106-0.158
		C133.981,261.846,133.084,260.646,133.045,260.597z"/>
	<polygon fill="#FFFFFF" points="126.892,259.423 126.326,259.423 126.606,259.938 	"/>
	<polygon fill="#FFFFFF" points="132.726,264.275 133.22,264.275 132.976,263.822 	"/>
	<polygon fill="#FFFFFF" points="120.728,264.238 121.214,264.238 120.977,263.787 	"/>
	<path fill="#FFFFFF" d="M126.669,260.561l-0.055-0.07l-0.104,0.11c-0.971,1.028,0.018,2.718,0.028,2.735l0.031,0.052l0.096-0.142
		C127.63,261.814,126.678,260.573,126.669,260.561z"/>
	<path fill="#FFFFFF" d="M121.056,260.561l-0.061-0.078l-0.114,0.12c-0.971,1.018,0.007,2.72,0.018,2.737l0.036,0.062l0.1-0.15
		C121.991,261.8,121.095,260.611,121.056,260.561z"/>
	<polygon fill="#FFFFFF" points="143.966,264.273 144.48,264.273 144.235,263.784 	"/>
	<polygon fill="#FFFFFF" points="138.356,264.275 138.856,264.275 138.608,263.803 	"/>
	<path fill="#FFFFFF" d="M144.178,263.446l0.125-0.187c0.95-1.412,0.033-2.61-0.006-2.66l-0.053-0.068l-0.107,0.11
		c-0.977,1.008-0.008,2.718,0.001,2.735L144.178,263.446z"/>
	<path fill="#FFFFFF" d="M138.679,260.601l-0.046-0.058l-0.103,0.104c-0.992,1.008-0.02,2.715-0.01,2.731l0.028,0.049l0.117-0.173
		C139.631,261.826,138.689,260.613,138.679,260.601z"/>
	<polygon fill="#FFFFFF" points="113.551,268.342 113.636,291.856 116.503,291.861 116.389,268.344 	"/>
	<polygon fill="#FFFFFF" points="117.553,268.345 117.667,291.863 143.007,291.902 142.892,268.365 	"/>
	<polygon fill="#FFFFFF" points="144.171,291.904 147.244,291.909 147.154,268.369 144.056,268.366 	"/>
	<path fill="#FFFFFF" d="M113.547,267.178l33.603,0.027l-0.034-8.745l-0.737-0.001l-0.946,1.745c0.426,0.737,0.775,2.045,0.02,3.409
		l0.913,1.824h-4.371l0.983-1.78c-0.301-0.652-0.852-2.215,0.042-3.486l-0.939-1.715l-1.314-0.001l-0.953,1.754
		c0.417,0.735,0.755,2.037,0.004,3.394l0.963,1.837h-4.371l0.952-1.774c-0.302-0.65-0.859-2.219,0.052-3.494l-0.951-1.719
		l-1.325-0.001l-0.956,1.759c0.414,0.735,0.749,2.037,0,3.396l0.989,1.834h-4.42l0.986-1.78c-0.3-0.653-0.851-2.221,0.04-3.485
		l-0.964-1.727l-2.049-0.001l-0.958,1.73c0.418,0.743,0.761,2.059,0.009,3.418l0.959,1.846l-4.362-0.049l0.966-1.766
		c-0.307-0.651-0.868-2.207,0.012-3.487l-0.922-1.695l-1.346-0.002l-0.931,1.729c0.415,0.733,0.75,2.038-0.003,3.419l0.952,1.812
		h-4.385l0.983-1.78c-0.301-0.651-0.854-2.212,0.024-3.483l-0.934-1.7l-0.858-0.001l-0.945,1.738
		c0.415,0.741,0.754,2.056,0.014,3.414l0.962,1.812h-4.403l0.994-1.779c-0.31-0.654-0.874-2.214,0.016-3.485l-0.944-1.703h-0.149
		L113.547,267.178z"/>
	<path fill="#FFFFFF" d="M115.886,260.556l-0.048-0.064l-0.111,0.115c-0.982,1.014,0.016,2.711,0.026,2.729l0.035,0.059l0.097-0.146
		C116.828,261.834,115.925,260.607,115.886,260.556z"/>
	<polygon fill="#FFFFFF" points="116.109,259.423 115.543,259.423 115.828,259.938 	"/>
	<polygon fill="#FFFFFF" points="120.697,259.423 120.988,259.952 121.272,259.423 	"/>
	<polygon fill="#FFFFFF" points="144.517,259.449 143.953,259.452 144.236,259.968 	"/>
	<polygon fill="#FFFFFF" points="132.992,259.96 133.273,259.445 132.703,259.445 132.991,259.963 	"/>
	<polygon fill="#FFFFFF" points="138.343,259.445 138.626,259.956 138.904,259.445 	"/>
	<path d="M112.381,266.655l0.092,25.565l0.003,0.798l35.937,0.057l-0.003-0.82l-0.098-25.561l-0.004-1.164l-0.001-0.245
		l-0.028-7.409l-0.009-0.58l-3.001-0.002l-1.164-0.001l-2.077-0.002l-1.164-0.001l-4.337-0.003l-1.164-0.001l-2.107-0.002
		l-1.165-0.001l-3.572-0.002l-1.165-0.001l-2.09-0.002l-1.164-0.001l-4.333-0.003l-1.164-0.001l-2.091-0.002l-1.164-0.001
		l-3.001-0.002l0.029,7.991l0.001,0.231L112.381,266.655z M113.515,258.435h0.149l-0.098-0.176h4.501l-0.098,0.179l0.858,0.001
		l-0.099-0.18h4.492l-0.099,0.183l1.346,0.002l-0.1-0.185h4.499l-0.104,0.188l2.049,0.001l-0.093-0.166h4.51l-0.092,0.17
		l1.325,0.001l-0.094-0.171h4.492l-0.095,0.174l1.314,0.001l-0.087-0.158l4.486-0.024l-0.101,0.186l0.737,0.001l0.034,8.745h0.581
		l-0.001,1.164h-0.576l0.09,23.54l-3.073-0.005l0.003,0.587l-1.164,0.006l-0.003-0.595l-25.34-0.039l0.003,0.616l-1.164,0.006
		l-0.003-0.624l-2.867-0.005l-0.085-23.515l-0.831-0.001l0.001-1.164l0.825,0.001L113.515,258.435z"/>
	<polygon points="112.721,267.177 112.72,268.341 113.551,268.342 116.389,268.344 116.388,268.022 117.552,268.017 
		117.553,268.345 142.892,268.365 142.891,268.05 144.055,268.044 144.056,268.366 147.154,268.369 147.729,268.369 147.73,267.205 
		147.149,267.205 113.547,267.178 	"/>
	<polygon points="117.552,268.017 116.388,268.022 116.389,268.344 116.503,291.861 116.506,292.485 117.67,292.479 
		117.667,291.863 117.553,268.345 	"/>
	<polygon points="144.055,268.044 142.891,268.05 142.892,268.365 143.007,291.902 143.01,292.497 144.174,292.491 144.171,291.904 
		144.056,268.366 	"/>
	<path d="M160.387,243.135l0.341-0.468l-19.733-14.41l-22.383-0.028l-21.01,15.432l62.784,0.058L160.387,243.135z M101.15,242.5
		l17.844-13.106l21.621,0.027l17.983,13.131L101.15,242.5z"/>
	<path d="M139.619,226.288l-0.04-9.886l-19.67-0.015l0.039,9.886L139.619,226.288z M138.42,217.565l0.03,7.558l-17.343-0.013
		l-0.029-7.558L138.42,217.565z"/>
	<path d="M134.627,224.064l-0.036-5.511h-9.663l0.036,5.511H134.627z M133.435,219.718l0.021,3.183h-7.335l-0.021-3.183H133.435z"/>
	<path d="M141.849,214.905l-0.179-0.127l-11.949-8.448l-11.897,8.442l-0.142,0.101h0.143l23.846,0.032L141.849,214.905z
		 M121.327,213.713l8.395-5.957l8.458,5.979L121.327,213.713z"/>
	<path fill="#FFFFFF" d="M171.332,202.103l-0.014,0.581c-0.063,0.002-0.234-0.004-0.479,0.234
		c-1.725,1.685-2.498,9.866-2.498,17.227v0.44l-0.424,0.12c-2.087,0.59-6.71,3.441-9.333,6.207l25.704,0.038
		c-2.683-2.841-7.316-5.638-9.429-6.231l-0.424-0.119l0-0.441c-0.008-7.302-0.91-15.564-2.616-17.229
		c-0.245-0.238-0.415-0.233-0.472-0.233l-0.014-0.582l0,0L171.332,202.103z"/>
	<path d="M186.02,227.176c-2.48-3.19-7.712-6.499-10.423-7.445c-0.023-2.792-0.276-15.012-2.965-17.635
		c-0.388-0.378-0.794-0.541-1.286-0.564v-0.013c-0.478,0.01-0.924,0.179-1.32,0.565c-2.584,2.523-2.83,14.327-2.847,17.636
		c-2.643,0.94-7.899,4.292-10.325,7.414l-0.729,0.938l30.626,0.045L186.02,227.176z M171.333,202.115l0.014,0.582
		c0.058,0,0.228-0.004,0.472,0.233c1.706,1.665,2.607,9.927,2.616,17.229l0,0.441l0.424,0.119c2.113,0.593,6.747,3.39,9.429,6.231
		l-25.704-0.038c2.624-2.766,7.246-5.616,9.333-6.207l0.424-0.12v-0.44c0-7.361,0.772-15.542,2.498-17.227
		c0.245-0.239,0.416-0.232,0.479-0.234l0.014-0.581l0-0.015L171.333,202.115z"/>
	<path d="M114.592,263.623l-0.994,1.779h4.403l-0.962-1.812c0.741-1.358,0.401-2.673-0.014-3.414l0.945-1.738l0.098-0.179h-4.501
		l0.098,0.176l0.944,1.703C113.718,261.409,114.282,262.969,114.592,263.623z M115.582,264.238l0.247-0.442l0.235,0.442H115.582z
		 M115.885,263.248l-0.097,0.146l-0.035-0.059c-0.01-0.018-1.008-1.715-0.026-2.729l0.111-0.115l0.048,0.064
		C115.925,260.607,116.828,261.834,115.885,263.248z M116.109,259.423l-0.28,0.516l-0.285-0.516H116.109z"/>
	<path d="M119.762,260.139c-0.878,1.271-0.325,2.832-0.024,3.483l-0.983,1.78h4.385l-0.952-1.812
		c0.752-1.381,0.417-2.686,0.003-3.419l0.931-1.729l0.099-0.183h-4.492l0.099,0.18L119.762,260.139z M120.728,264.238l0.249-0.451
		l0.237,0.451H120.728z M121.035,263.251l-0.1,0.15l-0.036-0.062c-0.01-0.018-0.988-1.72-0.018-2.737l0.114-0.12l0.061,0.078
		C121.095,260.611,121.991,261.8,121.035,263.251z M120.988,259.952l-0.291-0.529h0.575L120.988,259.952z"/>
	<path d="M125.39,260.139c-0.88,1.28-0.318,2.836-0.012,3.487l-0.966,1.766l4.362,0.049l-0.959-1.846
		c0.751-1.359,0.409-2.675-0.009-3.418l0.958-1.73l0.104-0.188h-4.499l0.1,0.185L125.39,260.139z M126.892,259.423l-0.286,0.516
		l-0.28-0.516H126.892z M126.364,264.249l0.246-0.448l0.236,0.454L126.364,264.249z M126.664,263.246l-0.096,0.142l-0.031-0.052
		c-0.01-0.018-0.999-1.707-0.028-2.735l0.104-0.11l0.055,0.07C126.678,260.573,127.63,261.814,126.664,263.246z"/>
	<path d="M131.737,263.659l-0.986,1.78h4.42l-0.989-1.834c0.749-1.358,0.414-2.66,0-3.396l0.956-1.759l0.092-0.17h-4.51l0.093,0.166
		l0.964,1.727C130.886,261.438,131.436,263.006,131.737,263.659z M132.726,264.275l0.25-0.453l0.245,0.453H132.726z
		 M133.028,263.263l-0.106,0.158l-0.023-0.04c-0.01-0.018-0.979-1.739-0.004-2.735l0.105-0.107l0.045,0.059
		C133.084,260.646,133.981,261.846,133.028,263.263z M132.703,259.445h0.57l-0.28,0.515l-0.001,0.003L132.703,259.445z"/>
	<path d="M137.414,260.171c-0.911,1.275-0.354,2.844-0.052,3.494l-0.952,1.774h4.371l-0.963-1.837
		c0.751-1.356,0.413-2.658-0.004-3.394l0.953-1.754l0.095-0.174h-4.492l0.094,0.171L137.414,260.171z M138.356,264.275l0.252-0.473
		l0.248,0.473H138.356z M138.666,263.254l-0.117,0.173l-0.028-0.049c-0.01-0.017-0.982-1.724,0.01-2.731l0.103-0.104l0.046,0.058
		C138.689,260.613,139.631,261.826,138.666,263.254z M138.626,259.956l-0.283-0.511h0.561L138.626,259.956z"/>
	<path d="M142.977,263.657l-0.983,1.78h4.371l-0.913-1.824c0.756-1.364,0.406-2.672-0.02-3.409l0.946-1.745l0.101-0.186
		l-4.486,0.024l0.087,0.158l0.939,1.715C142.125,261.442,142.676,263.005,142.977,263.657z M144.137,260.642l0.107-0.11l0.053,0.068
		c0.04,0.05,0.957,1.248,0.006,2.66l-0.125,0.187l-0.04-0.069C144.129,263.359,143.16,261.649,144.137,260.642z M143.953,259.452
		l0.564-0.003l-0.282,0.519L143.953,259.452z M144.48,264.273h-0.514l0.269-0.489L144.48,264.273z"/>
	<path fill="#FFFF00" d="M121.647,344.074c-0.251-0.152-0.655-0.251-1.165-0.286l-2.589-0.139l-0.224,3.258l2.61,0.132
		c0.579,0.029,1.082-0.034,1.451-0.271h-0.007c0.384-0.229,0.593-0.621,0.628-1.221C122.401,344.85,122.17,344.346,121.647,344.074z
		"/>
	<path fill="#FFFF00" d="M126.802,344.074l-0.027,3.217l3.056,0.034c0.594,0,1.089-0.104,1.431-0.334
		c0.356-0.251,0.537-0.67,0.537-1.299c0-0.669-0.229-1.13-0.719-1.36c-0.265-0.125-0.628-0.182-1.088-0.223l-3.183-0.035H126.802z"
		/>
	<path fill="#FFFF00" d="M136.714,350.4c0.579,0.706,1.486,0.992,2.7,0.929c1.165-0.027,1.954-0.495,2.429-1.325
		c0.481-0.816,0.662-1.745,0.628-2.791c-0.063-1.088-0.426-1.961-1.061-2.59c-0.621-0.641-1.459-0.969-2.478-0.912
		c-1.012,0.055-1.787,0.403-2.387,1.129c-0.593,0.671-0.845,1.66-0.781,2.959C135.834,348.832,136.142,349.704,136.714,350.4
		L136.714,350.4z"/>
	<path fill="#FFFF00" d="M130.477,337L130.477,337c-12.546-0.005-27.295-2.441-35.136-5.689l-1.419,13.893l-0.121,0.001
		c-0.394,0.004-0.797,0.006-1.187,0.006c-0.034,0-0.066-0.002-0.1-0.002l-15.416,3.366l-0.058-0.266l14.301-3.123
		c-5.049-0.058-9.842-0.448-14.354-1.193l-0.044,4.885c14.236,7.788,46.635,9.294,53.307,9.294c0.208,0.001,0.378,0.001,0.584,0
		c6.608,0,38.708-1.497,52.846-9.238l-0.079-4.854c-4.498,0.737-9.276,1.124-14.314,1.177l14.34,3.133l-0.058,0.266l-15.458-3.377
		c-0.426,0-0.864-0.003-1.295-0.008l-0.12-0.002l-1.55-13.894c-7.803,3.272-21.922,5.626-34.354,5.626
		C130.688,337,130.583,337,130.477,337z M122.855,347.451c-0.496,0.503-1.229,0.762-2.213,0.685l-3.042-0.21l-0.258,3.971
		l-0.007-0.014l-1.291-0.084l0.6-9.35l4.348,0.271c0.858,0.084,1.542,0.342,2.023,0.83c0.502,0.51,0.719,1.2,0.656,2.045
		C123.636,346.322,123.37,346.963,122.855,347.451z M135.171,344.498c0.775-1.214,1.976-1.814,3.608-1.918
		c1.73-0.07,3.008,0.39,3.88,1.43c0.69,0.774,1.061,1.814,1.151,3.091c0.069,1.431-0.244,2.589-0.9,3.587
		c-0.81,1.102-2.003,1.702-3.587,1.771c-1.479,0.084-2.68-0.355-3.587-1.227c-0.816-0.873-1.249-2.031-1.34-3.434
		c-0.062-1.299,0.182-2.373,0.782-3.301H135.171z M133.138,345.596c0,0.571-0.118,1.039-0.349,1.408
		c-0.244,0.336-0.579,0.608-1.025,0.845c0.397,0.133,0.655,0.349,0.844,0.601c0.217,0.217,0.314,0.606,0.335,1.172l0.028,1.249
		c0.014,0.342,0.042,0.614,0.098,0.795c0.062,0.287,0.209,0.475,0.391,0.572l0.028,0.203h-1.605
		c-0.056-0.085-0.077-0.203-0.118-0.314c-0.021-0.153-0.028-0.384-0.049-0.761l-0.077-1.57c-0.021-0.585-0.237-1.012-0.677-1.214
		c-0.272-0.132-0.663-0.173-1.193-0.173l-2.986-0.043l-0.028,3.991v0.027h-1.291l0.035-9.378l4.487,0.043
		c0.726,0.014,1.34,0.126,1.821,0.342C132.698,343.788,133.138,344.521,133.138,345.596z"/>
	<path d="M95.341,331.311c7.841,3.248,22.59,5.685,35.136,5.689h0c0.105,0,0.21,0,0.316,0c12.432,0,26.551-2.354,34.354-5.626
		l-0.031-0.279c-7.751,3.275-21.879,5.635-34.321,5.635c-0.094,0-0.189,0-0.283-0.001c-12.565,0-27.349-2.444-35.142-5.698
		L95.341,331.311z"/>
	<path d="M183.602,344.079l0.079,4.854c-14.138,7.741-46.238,9.238-52.846,9.238c-0.206,0.001-0.376,0.001-0.584,0
		c-6.672,0-39.071-1.506-53.307-9.294l0.044-4.885c-0.089-0.016-0.182-0.026-0.271-0.041l-0.045,5.005l0,0.081l0.071,0.039
		c14.25,7.85,46.817,9.366,53.509,9.366c0.104,0,0.203,0,0.294-0.001c5.905,0.052,38.967-1.386,53.338-9.311l0.071-0.04
		l-0.083-5.051C183.783,344.055,183.691,344.064,183.602,344.079z"/>
	<path fill="#FFFF00" d="M48.751,255.827l-14.277-4.543c-2.14,6.5-3.186,12.279-3.656,16.995l8.567,0.62l0.102-0.146l0.08,0.158
		l0.27,0.02l0.003,0.122c0.003,0.127,0.008,0.283,0.012,0.421l4.639,9.162L48.751,255.827z"/>
	<path d="M30.819,268.278c0.47-4.716,1.516-10.494,3.656-16.995l14.277,4.543l-4.259,22.809l0.143,0.282l-0.121,0.062l0.023,0.135
		l-3.919,0.683c0.008,0.06,0.015,0.118,0.023,0.178l3.993-0.62l4.428-23.713l-14.629-4.656l-0.03,0.096l-0.14-0.022
		c-2.178,6.579-3.24,12.43-3.715,17.199L30.819,268.278z"/>
	<path fill="#7E7E7E" d="M39.87,270.109c0.068,2.26,0.219,5.551,0.713,9.418l3.727-0.649L39.87,270.109z"/>
	<polygon points="39.386,268.898 39.568,268.911 39.488,268.753 	"/>
	<path d="M44.514,278.979l0.121-0.062l-0.143-0.282l-4.639-9.162c0.006,0.207,0.011,0.407,0.018,0.636l4.44,8.769l-3.727,0.649
		c0.011,0.09,0.022,0.179,0.034,0.27l3.919-0.683L44.514,278.979z"/>
	<path fill="#FFFF00" d="M71.185,330.693l-3.057-0.971l-1.012,3.043l2.882,0.921c0.587,0.182,1.089,0.182,1.486,0.112
		c0.447-0.154,0.733-0.518,0.922-1.075c0.229-0.642,0.125-1.172-0.266-1.542C71.932,330.993,71.617,330.826,71.185,330.693z"/>
	<path fill="#FFFF00" d="M52.599,319.883l-1.808-1.842l-2.414,2.211l1.793,1.85c0.412,0.426,0.83,0.67,1.256,0.768
		c0.433,0.104,0.894-0.07,1.354-0.496c0.509-0.474,0.677-0.977,0.509-1.527C53.171,320.559,52.948,320.225,52.599,319.883z"/>
	<path fill="#FFFF00" d="M93.579,344.934c0.033,0,0.065,0,0.098,0l1.655-16.195c-22.904-1.075-39.052-9.929-47.999-26.315
		c-7.178-13.147-7.611-27.646-7.759-33.24l-13.74-0.993c-1.949,15.96,0.966,40.397,15.595,56.954
		c11.583,13.109,28.762,19.767,51.058,19.792l1.044-0.228L93.579,344.934z M29.429,290.947c-0.21-1.187-0.056-2.107,0.418-2.847
		c0.481-0.761,1.242-1.2,2.275-1.347v-0.014l0.216,1.172c-0.523,0.104-0.941,0.314-1.249,0.586
		c-0.551,0.516-0.739,1.291-0.551,2.345c0.083,0.446,0.244,0.886,0.446,1.235c0.419,0.711,0.963,0.997,1.654,0.885
		c0.509-0.09,0.844-0.285,1.005-0.647c0.153-0.356,0.265-0.901,0.3-1.599l0.062-1.318c0.042-0.816,0.133-1.458,0.314-1.814
		c0.286-0.643,0.823-1.04,1.626-1.172c0.858-0.154,1.611,0.041,2.261,0.529c0.656,0.454,1.089,1.242,1.249,2.289
		c0.202,0.957,0.111,1.814-0.266,2.588c-0.362,0.755-1.061,1.215-2.128,1.41l-0.209-1.186c0.495-0.182,0.865-0.356,1.109-0.6
		c0.418-0.469,0.544-1.145,0.384-2.072c-0.126-0.755-0.384-1.243-0.774-1.486c-0.384-0.287-0.768-0.398-1.187-0.328
		c-0.468,0.07-0.774,0.328-0.921,0.746c-0.091,0.279-0.161,0.857-0.224,1.744l-0.062,1.367c-0.035,0.643-0.133,1.174-0.35,1.536
		c-0.342,0.669-0.921,1.081-1.765,1.214c-1.068,0.181-1.892-0.063-2.478-0.747C29.987,292.747,29.617,291.944,29.429,290.947z
		 M33.71,305.723l-2.184-6.615h-0.001l9.226-2.777l2.149,6.496l-1.124,0.355l-1.758-5.338l-2.806,0.846l1.626,4.932l-1.074,0.342
		l-1.612-4.945l-3.126,0.934l1.786,5.457L33.71,305.723z M40.113,318.211l-0.601-1.04l4.996-2.63
		c0.182-0.105,0.461-0.259,0.865-0.475c0.398-0.182,0.845-0.426,1.291-0.656l-8.485,1.444l-0.621-1.103l5.792-6.146l-0.279,0.14
		c-0.181,0.104-0.495,0.259-0.921,0.502c-0.419,0.259-0.732,0.419-0.935,0.502l-4.982,2.673l-0.608-1.05l-0.006,0.003v-0.014
		l0.006,0.011l8.479-4.497l0.907,1.584l-5.834,6.168l8.521-1.459l0.879,1.57L40.113,318.211z M49.668,323.141l-2.101-2.128
		l-2.959,2.714h-0.014l-0.907-0.914l7.02-6.447l3.015,3.078c0.579,0.6,0.894,1.241,0.9,1.926c0,0.704-0.3,1.359-0.928,1.918
		c-0.559,0.53-1.193,0.803-1.934,0.846C51.035,324.146,50.345,323.832,49.668,323.141z M63.551,327.89l-4.94-2.958l-1.528,2.414
		l4.543,2.756l-0.586,0.914l-4.55-2.742l-1.73,2.699l5.003,3.009l-0.6,0.942l-6.085-3.664l5.087-7.976l6.015,3.656L63.551,327.89z
		 M73.711,332.982c-0.168,0.558-0.446,0.955-0.774,1.241c-0.35,0.259-0.761,0.404-1.235,0.489c0.313,0.258,0.502,0.529,0.614,0.83
		c0.132,0.285,0.076,0.684-0.07,1.213l-0.362,1.215c-0.098,0.321-0.146,0.6-0.182,0.775c-0.007,0.285,0.084,0.516,0.244,0.641
		l-0.091,0.217l-1.5-0.488c-0.021-0.084-0.021-0.209-0.021-0.328c0.042-0.111,0.091-0.355,0.188-0.727l0.426-1.513
		c0.175-0.58,0.07-1.048-0.279-1.361c-0.181-0.188-0.551-0.369-1.061-0.503l-2.847-0.928l-1.271,3.803h-0.007l-1.249-0.383
		l2.986-8.896l4.271,1.318c0.704,0.266,1.242,0.552,1.618,0.887C73.865,331.126,74.053,331.971,73.711,332.982z"/>
	<path d="M76.988,343.992c4.512,0.745,9.304,1.136,14.354,1.193l1.144-0.25c-22.296-0.025-39.475-6.683-51.058-19.792
		c-14.628-16.557-17.544-40.994-15.595-56.954l13.74,0.993c0.148,5.595,0.582,20.093,7.759,33.24
		c8.947,16.387,25.095,25.24,47.999,26.315l-1.655,16.195c-0.033,0-0.065,0-0.098,0l0.009,0.04l-1.074,0.234
		c0.034,0,0.066,0.002,0.1,0.002c0.39,0,0.792-0.002,1.187-0.006l0.121-0.001l1.419-13.893l0.028-0.28l0.261-2.55l-0.143-0.007
		c-22.878-1.04-39-9.849-47.917-26.182c-4.182-7.66-6.058-15.775-6.93-22.317c-0.008-0.06-0.015-0.118-0.023-0.178
		c-0.012-0.091-0.023-0.18-0.034-0.27c-0.494-3.867-0.646-7.158-0.713-9.418c-0.007-0.229-0.012-0.429-0.018-0.636
		c-0.004-0.138-0.008-0.294-0.012-0.421l-0.003-0.122l-0.27-0.02l-0.182-0.013l-8.567-0.62l-0.271-0.021l-4.824-0.349l-0.128-0.009
		l-0.016,0.128c-1.987,16.013,0.917,40.626,15.645,57.295c8.737,9.889,20.636,16.123,35.493,18.628
		C76.806,343.966,76.899,343.977,76.988,343.992z"/>
	<polygon points="77.098,348.574 92.514,345.208 93.588,344.974 93.579,344.934 93.53,344.708 92.486,344.936 91.342,345.186 
		77.041,348.309 	"/>
	<path fill="#FFFF00" d="M211.115,255.958l4.449,22.769l4.535-9.045c0.003-0.164,0.007-0.348,0.009-0.498l0.002-0.125l0.124-0.009
		l0.188-0.013l0.055-0.109l0.072,0.101l8.603-0.588c-0.514-4.713-1.614-10.488-3.816-16.985L211.115,255.958z"/>
	<path d="M219.431,279.92l-3.919-0.703l0.024-0.133l-0.121-0.061l0.149-0.297l-4.449-22.769l14.22-4.502
		c2.202,6.497,3.302,12.272,3.816,16.985l0.279-0.019c-0.507-4.598-1.603-10.494-3.885-17.192l-0.112,0.024l-0.016-0.103v0.106
		l-0.008,0.002l-0.032-0.102l-14.574,4.614l4.608,23.584l0.019,0.093l3.982,0.64C219.418,280.032,219.424,279.977,219.431,279.92z"
		/>
	<path fill="#7E7E7E" d="M219.463,279.649c0.453-3.821,0.576-7.086,0.624-9.342l-4.348,8.674L219.463,279.649z"/>
	<polygon points="220.422,269.037 220.548,269.028 220.476,268.928 	"/>
	<path d="M215.414,279.023l0.121,0.061l-0.024,0.133l3.919,0.703c0.011-0.091,0.021-0.181,0.032-0.271l-3.725-0.668l4.348-8.674
		c0.005-0.228,0.008-0.42,0.012-0.626l-4.535,9.045L215.414,279.023z"/>
	<path fill="#FFFF00" d="M193.945,331.443c0.244-0.342,0.244-0.83,0.028-1.389c-0.23-0.656-0.635-0.984-1.187-1.025
		c-0.307-0.035-0.663,0.014-1.074,0.167l-3.001,1.089l1.165,3l2.819-1.012C193.282,332.058,193.687,331.799,193.945,331.443z"/>
	<path fill="#FFFF00" d="M212.921,324.388l1.542-1.675c0.314-0.343,0.523-0.629,0.643-0.872c0.195-0.488,0.223-0.998,0.098-1.557
		c-0.146-0.446-0.377-0.894-0.768-1.402c-0.224-0.272-0.44-0.517-0.685-0.705c-0.893-0.781-1.73-1.214-2.554-1.284
		c-0.823-0.098-1.577,0.244-2.289,0.998l-1.529,1.682L212.921,324.388z"/>
	<path fill="#FFFF00" d="M168.143,345.006c0.001,0,0.002,0,0.002,0c22.272,0.001,39.377-6.629,50.846-19.705
		c14.49-16.521,17.216-40.957,15.146-56.929l-13.761,0.94c-0.096,5.591-0.394,20.077-7.46,33.228
		c-8.804,16.385-24.878,25.226-47.782,26.276l1.806,16.183c0.036,0,0.073,0,0.109,0.001l0.048-0.223L168.143,345.006z
		 M224.662,279.805l-0.098,1.187c-0.517,0-0.928,0.091-1.229,0.3c-0.544,0.301-0.844,0.936-0.935,1.863
		c-0.077,0.769,0.027,1.284,0.321,1.676c0.293,0.328,0.662,0.536,1.096,0.571c0.46,0.042,0.823-0.104,1.074-0.46
		c0.182-0.245,0.397-0.775,0.69-1.633l0.426-1.299c0.21-0.6,0.461-1.061,0.754-1.389c0.523-0.544,1.207-0.773,2.065-0.711
		c1.047,0.111,1.793,0.545,2.178,1.34c0.376,0.803,0.522,1.689,0.433,2.693c-0.119,1.137-0.489,2.031-1.173,2.631
		c-0.684,0.613-1.535,0.822-2.568,0.738h0.001l0.118-1.186c0.544,0.015,1.005-0.07,1.354-0.258c0.685-0.37,1.082-1.074,1.187-2.114
		c0.042-0.487,0.021-0.914-0.091-1.319c-0.202-0.78-0.642-1.214-1.347-1.283c-0.523-0.057-0.9,0.069-1.172,0.356
		c-0.245,0.327-0.503,0.802-0.698,1.472l-0.433,1.235c-0.279,0.809-0.537,1.367-0.816,1.681c-0.446,0.587-1.074,0.789-1.877,0.733
		c-0.858-0.091-1.557-0.433-2.052-1.089c-0.51-0.6-0.719-1.458-0.593-2.52c0.083-0.969,0.404-1.785,0.977-2.441
		C222.785,279.98,223.609,279.693,224.662,279.805z M219.323,295.746l8.716-2.944l-7.655-1.688l0.279-1.145l9.435,2.03l-0.3,1.417
		l-8.729,3.008l7.654,1.653l-0.271,1.214h-0.007l-9.435-2.086L219.323,295.746z M218.006,300.412l1.088,0.418l-2.156,5.198
		l2.701,1.062l2.017-4.787l1.032,0.426l-1.995,4.779l3.021,1.228l2.212-5.26l1.088,0.411l-2.692,6.418l0.006,0.002h-0.007
		l0.001-0.002l-8.961-3.586L218.006,300.412z M213.446,310.018l8.317,4.85l-0.684,1.115l-0.007-0.014l-8.304-4.877L213.446,310.018z
		 M208.26,316.977c0.886-0.969,1.905-1.402,3.105-1.311c1.081,0.082,2.107,0.529,3.091,1.401c0.781,0.67,1.347,1.438,1.717,2.227
		c0.635,1.458,0.397,2.749-0.69,3.948l-0.008,0.015l-2.616,2.819l-7.216-6.295L208.26,316.977z M203.208,321.836l0.649,0.942
		l-4.815,3.076l1.647,2.387l4.444-2.86l0.607,0.914l-4.445,2.861l1.814,2.63l4.898-3.134l0.649,0.922l-5.976,3.813l0.002,0.003
		h-0.007l0.005-0.003l-5.35-7.806L203.208,321.836z M191.293,328.198c0.691-0.243,1.291-0.354,1.814-0.313
		c0.991,0.07,1.695,0.614,2.079,1.611c0.203,0.531,0.244,1.006,0.154,1.43c-0.084,0.42-0.308,0.775-0.614,1.132
		c0.397,0.027,0.732,0.125,0.998,0.271c0.265,0.188,0.495,0.502,0.719,1.012l0.495,1.173c0.16,0.293,0.272,0.544,0.391,0.718
		c0.16,0.245,0.377,0.37,0.601,0.37l0.083,0.203l-1.514,0.557c-0.07-0.082-0.161-0.159-0.202-0.285
		c-0.091-0.098-0.203-0.314-0.343-0.67l-0.635-1.431c-0.251-0.571-0.628-0.872-1.123-0.935c-0.272-0.028-0.636,0.062-1.158,0.23
		l-2.792,1.005l1.466,3.761l0.007,0.027l-1.235,0.453l-3.405-8.818L191.293,328.198z M176.891,336.429
		c0.182,1.062,0.572,1.96,1.214,2.561c0.594,0.614,1.466,0.83,2.604,0.67c0.851-0.14,1.535-0.481,2.017-1.067
		c0.502-0.558,0.648-1.402,0.481-2.491l-3.008,0.461l-0.153-1.032l4.187-0.643l0.816,4.961l-0.83,0.125l-0.517-1.145
		c-0.349,0.518-0.697,0.915-1.005,1.145c-0.517,0.406-1.214,0.664-2.086,0.789c-1.131,0.174-2.163-0.028-3.099-0.629
		c-1.025-0.76-1.688-1.891-1.939-3.459c-0.272-1.543-0.028-2.861,0.684-3.901c0.677-1.005,1.66-1.591,2.986-1.779v0.014
		c0.9-0.153,1.682-0.11,2.394,0.133c1.047,0.328,1.752,1.103,2.191,2.288l-1.291,0.182c-0.279-0.641-0.677-1.08-1.214-1.326
		c-0.523-0.229-1.18-0.285-1.934-0.174c-0.879,0.133-1.584,0.572-2.079,1.277C176.822,334.14,176.675,335.146,176.891,336.429z"/>
	<path d="M234.389,268.203l-0.135,0.013l-0.008-0.123l-4.816,0.329l-0.279,0.019l-8.603,0.588l-0.126,0.009l-0.188,0.013
		l-0.124,0.009l-0.002,0.125c-0.002,0.15-0.006,0.334-0.009,0.498c-0.003,0.206-0.007,0.398-0.012,0.626
		c-0.047,2.256-0.17,5.521-0.624,9.342c-0.011,0.09-0.021,0.18-0.032,0.271c-0.007,0.057-0.013,0.112-0.02,0.169
		c-0.812,6.539-2.613,14.656-6.733,22.323c-8.774,16.329-24.823,25.123-47.7,26.14l-0.145,0.007l0.283,2.536l0.031,0.279
		l1.55,13.894l0.12,0.002c0.431,0.005,0.869,0.008,1.295,0.008l-1.072-0.234l0.009-0.043c-0.036-0.001-0.073-0.001-0.109-0.001
		l-1.806-16.183c22.903-1.051,38.978-9.892,47.782-26.276c7.066-13.15,7.365-27.637,7.46-33.228l13.761-0.94
		c2.07,15.972-0.656,40.407-15.146,56.929c-11.469,13.076-28.574,19.706-50.846,19.705c0,0-0.001,0-0.002,0l1.144,0.25
		c5.039-0.053,9.817-0.439,14.314-1.177c0.089-0.015,0.182-0.024,0.27-0.039c14.828-2.482,26.671-8.695,35.324-18.561
		C233.786,308.844,236.499,284.228,234.389,268.203z"/>
	<polygon points="183.628,348.389 169.287,345.256 168.143,345.006 167.097,344.777 167.049,345 167.04,345.043 168.112,345.277 
		183.57,348.654 	"/>
	<path fill="#009FC5" d="M120.991,342.721l-4.348-0.271l-0.6,9.35l1.291,0.084l0.007,0.014l0.258-3.971l3.042,0.21
		c0.984,0.077,1.717-0.182,2.213-0.685c0.516-0.488,0.781-1.129,0.816-1.855c0.062-0.845-0.154-1.535-0.656-2.045
		C122.533,343.062,121.85,342.805,120.991,342.721z M121.724,346.768h0.007c-0.369,0.237-0.872,0.301-1.451,0.271l-2.61-0.132
		l0.224-3.258l2.589,0.139c0.51,0.035,0.914,0.134,1.165,0.286c0.523,0.271,0.754,0.775,0.705,1.473
		C122.317,346.146,122.108,346.538,121.724,346.768z"/>
	<path fill="#009FC5" d="M125.497,343.006l-0.035,9.378h1.291v-0.027l0.028-3.991l2.986,0.043c0.53,0,0.921,0.041,1.193,0.173
		c0.439,0.202,0.656,0.629,0.677,1.214l0.077,1.57c0.021,0.377,0.027,0.607,0.049,0.761c0.041,0.111,0.062,0.229,0.118,0.314h1.605
		l-0.028-0.203c-0.182-0.098-0.328-0.285-0.391-0.572c-0.056-0.181-0.084-0.453-0.098-0.795l-0.028-1.249
		c-0.021-0.565-0.118-0.955-0.335-1.172c-0.188-0.252-0.446-0.468-0.844-0.601c0.446-0.236,0.781-0.509,1.025-0.845
		c0.23-0.369,0.349-0.837,0.349-1.408c0-1.074-0.439-1.808-1.332-2.205c-0.481-0.216-1.096-0.328-1.821-0.342L125.497,343.006z
		 M131.079,344.332c0.489,0.23,0.719,0.691,0.719,1.36c0,0.629-0.181,1.048-0.537,1.299c-0.342,0.229-0.837,0.334-1.431,0.334
		l-3.056-0.034l0.027-3.217h0.007l3.183,0.035C130.451,344.15,130.815,344.207,131.079,344.332z"/>
	<path fill="#009FC5" d="M135.737,351.232c0.907,0.871,2.107,1.311,3.587,1.227c1.584-0.069,2.777-0.67,3.587-1.771
		c0.656-0.998,0.97-2.156,0.9-3.587c-0.091-1.276-0.461-2.316-1.151-3.091c-0.872-1.04-2.149-1.5-3.88-1.43
		c-1.633,0.104-2.833,0.704-3.608,1.918h0.008c-0.601,0.928-0.845,2.002-0.782,3.301
		C134.488,349.201,134.92,350.359,135.737,351.232z M136.546,344.84c0.6-0.726,1.375-1.074,2.387-1.129
		c1.019-0.057,1.856,0.271,2.478,0.912c0.635,0.629,0.997,1.502,1.061,2.59c0.034,1.046-0.146,1.975-0.628,2.791
		c-0.475,0.83-1.264,1.298-2.429,1.325c-1.214,0.063-2.121-0.223-2.7-0.929h-0.001c-0.571-0.696-0.879-1.568-0.948-2.602
		C135.701,346.5,135.953,345.511,136.546,344.84z"/>
	<path fill="#009FC5" d="M179.389,332.109c0.754-0.111,1.41-0.055,1.934,0.174c0.537,0.246,0.935,0.686,1.214,1.326l1.291-0.182
		c-0.439-1.186-1.145-1.96-2.191-2.288c-0.712-0.243-1.493-0.286-2.394-0.133v-0.014c-1.326,0.188-2.31,0.774-2.986,1.779
		c-0.712,1.04-0.956,2.358-0.684,3.901c0.251,1.568,0.914,2.699,1.939,3.459c0.936,0.601,1.968,0.803,3.099,0.629
		c0.872-0.125,1.569-0.383,2.086-0.789c0.308-0.229,0.656-0.627,1.005-1.145l0.517,1.145l0.83-0.125l-0.816-4.961l-4.187,0.643
		l0.153,1.032l3.008-0.461c0.167,1.089,0.021,1.934-0.481,2.491c-0.481,0.586-1.166,0.928-2.017,1.067
		c-1.138,0.16-2.01-0.056-2.604-0.67c-0.642-0.601-1.032-1.499-1.214-2.561c-0.216-1.283-0.069-2.289,0.419-3.042
		C177.805,332.682,178.51,332.242,179.389,332.109z"/>
	<path fill="#009FC5" d="M191.719,338.064l-0.007-0.027l-1.466-3.761l2.792-1.005c0.522-0.168,0.886-0.259,1.158-0.23
		c0.495,0.062,0.872,0.363,1.123,0.935l0.635,1.431c0.14,0.355,0.252,0.572,0.343,0.67c0.041,0.126,0.132,0.203,0.202,0.285
		l1.514-0.557l-0.083-0.203c-0.224,0-0.44-0.125-0.601-0.37c-0.118-0.174-0.23-0.425-0.391-0.718l-0.495-1.173
		c-0.224-0.51-0.454-0.823-0.719-1.012c-0.266-0.146-0.601-0.244-0.998-0.271c0.307-0.356,0.53-0.712,0.614-1.132
		c0.09-0.424,0.049-0.898-0.154-1.43c-0.384-0.997-1.088-1.541-2.079-1.611c-0.523-0.041-1.123,0.07-1.814,0.313l-4.215,1.501
		l3.405,8.818L191.719,338.064z M188.711,330.285l3.001-1.089c0.411-0.153,0.768-0.202,1.074-0.167
		c0.552,0.041,0.956,0.369,1.187,1.025c0.216,0.559,0.216,1.047-0.028,1.389c-0.258,0.355-0.662,0.614-1.249,0.83l-2.819,1.012
		L188.711,330.285z"/>
	<polygon fill="#009FC5" points="208.658,329.574 208.009,328.652 203.111,331.786 201.296,329.156 205.741,326.295 
		205.134,325.381 200.69,328.241 199.042,325.854 203.858,322.778 203.208,321.836 197.333,325.582 202.683,333.388 	"/>
	<polygon fill="#009FC5" points="202.685,333.391 202.683,333.388 202.678,333.391 	"/>
	<path fill="#009FC5" d="M215.475,323.257l0.008-0.015c1.088-1.199,1.325-2.49,0.69-3.948c-0.37-0.789-0.936-1.557-1.717-2.227
		c-0.983-0.872-2.01-1.319-3.091-1.401c-1.2-0.092-2.22,0.342-3.105,1.311l-2.617,2.805l7.216,6.295L215.475,323.257z
		 M208.908,317.891c0.712-0.754,1.466-1.096,2.289-0.998c0.823,0.07,1.661,0.503,2.554,1.284c0.244,0.188,0.461,0.433,0.685,0.705
		c0.391,0.509,0.621,0.956,0.768,1.402c0.125,0.559,0.098,1.068-0.098,1.557c-0.119,0.243-0.328,0.529-0.643,0.872l-1.542,1.675
		l-5.542-4.815L208.908,317.891z"/>
	<polygon fill="#009FC5" points="221.079,315.982 221.763,314.867 213.446,310.018 212.769,311.092 221.073,315.969 	"/>
	<polygon fill="#009FC5" points="227.014,303.887 225.926,303.476 223.714,308.735 220.693,307.508 222.688,302.729 
		221.656,302.303 219.639,307.09 216.938,306.028 219.094,300.83 218.006,300.412 215.361,306.719 224.322,310.305 	"/>
	<polygon fill="#009FC5" points="224.327,310.307 224.322,310.305 224.321,310.307 	"/>
	<polygon fill="#009FC5" points="228.45,299.291 228.722,298.077 221.068,296.424 229.797,293.416 230.097,291.999 220.662,289.969 
		220.383,291.113 228.038,292.802 219.323,295.746 219.009,297.205 228.444,299.291 	"/>
	<path fill="#009FC5" d="M221.279,283.021c-0.126,1.062,0.083,1.92,0.593,2.52c0.495,0.656,1.193,0.998,2.052,1.089
		c0.803,0.056,1.431-0.146,1.877-0.733c0.279-0.313,0.537-0.872,0.816-1.681l0.433-1.235c0.195-0.67,0.453-1.145,0.698-1.472
		c0.271-0.287,0.648-0.413,1.172-0.356c0.705,0.069,1.145,0.503,1.347,1.283c0.112,0.405,0.133,0.832,0.091,1.319
		c-0.104,1.04-0.502,1.744-1.187,2.114c-0.349,0.188-0.81,0.272-1.354,0.258l-0.118,1.186h-0.001
		c1.033,0.084,1.885-0.125,2.568-0.738c0.684-0.6,1.054-1.494,1.173-2.631c0.09-1.004-0.057-1.891-0.433-2.693
		c-0.385-0.795-1.131-1.229-2.178-1.34c-0.858-0.062-1.542,0.167-2.065,0.711c-0.293,0.328-0.544,0.789-0.754,1.389l-0.426,1.299
		c-0.293,0.857-0.509,1.388-0.69,1.633c-0.251,0.355-0.614,0.502-1.074,0.46c-0.434-0.035-0.803-0.243-1.096-0.571
		c-0.294-0.392-0.398-0.907-0.321-1.676c0.091-0.928,0.391-1.562,0.935-1.863c0.301-0.209,0.712-0.3,1.229-0.3l0.098-1.187
		c-1.054-0.111-1.877,0.176-2.407,0.775C221.683,281.236,221.362,282.053,221.279,283.021z"/>
	<path fill="#009FC5" d="M33.065,294.164c0.844-0.133,1.423-0.545,1.765-1.214c0.217-0.362,0.314-0.894,0.35-1.536l0.062-1.367
		c0.062-0.887,0.133-1.465,0.224-1.744c0.146-0.418,0.453-0.676,0.921-0.746c0.419-0.07,0.803,0.041,1.187,0.328
		c0.391,0.243,0.648,0.731,0.774,1.486c0.16,0.928,0.034,1.604-0.384,2.072c-0.244,0.243-0.614,0.418-1.109,0.6l0.209,1.186
		c1.067-0.195,1.766-0.655,2.128-1.41c0.377-0.773,0.468-1.631,0.266-2.588c-0.16-1.047-0.593-1.835-1.249-2.289
		c-0.649-0.488-1.402-0.684-2.261-0.529c-0.803,0.132-1.34,0.529-1.626,1.172c-0.182,0.356-0.272,0.998-0.314,1.814l-0.062,1.318
		c-0.035,0.697-0.146,1.242-0.3,1.599c-0.161,0.362-0.496,0.558-1.005,0.647c-0.691,0.112-1.235-0.174-1.654-0.885
		c-0.202-0.35-0.363-0.789-0.446-1.235c-0.188-1.054,0-1.829,0.551-2.345c0.308-0.271,0.726-0.482,1.249-0.586l-0.216-1.172v0.014
		c-1.033,0.146-1.794,0.586-2.275,1.347c-0.474,0.739-0.628,1.66-0.418,2.847c0.188,0.997,0.558,1.8,1.158,2.47
		C31.173,294.101,31.996,294.345,33.065,294.164z"/>
	<polygon fill="#009FC5" points="36.153,299.018 37.765,303.963 38.839,303.621 37.213,298.689 40.019,297.844 41.777,303.182 
		42.901,302.826 40.751,296.33 31.526,299.107 31.527,299.107 33.71,305.723 34.813,305.408 33.027,299.951 	"/>
	<path fill="#009FC5" d="M47.698,312.168l-8.521,1.459l5.834-6.168l-0.907-1.584l-8.479,4.497l0.608,1.05l4.982-2.673
		c0.202-0.083,0.516-0.243,0.935-0.502c0.426-0.243,0.74-0.397,0.921-0.502l0.279-0.14l-5.792,6.146l0.621,1.103l8.485-1.444
		c-0.446,0.23-0.893,0.475-1.291,0.656c-0.404,0.216-0.684,0.369-0.865,0.475l-4.996,2.63l0.601,1.04l8.464-4.473L47.698,312.168z"
		/>
	<polygon fill="#009FC5" points="35.618,310.375 35.624,310.372 35.618,310.361 	"/>
	<path fill="#009FC5" d="M54.622,321.369c-0.007-0.685-0.321-1.326-0.9-1.926l-3.015-3.078l-7.02,6.447l0.907,0.914h0.014
		l2.959-2.714l2.101,2.128c0.677,0.691,1.367,1.005,2.093,0.992c0.74-0.043,1.375-0.315,1.934-0.846
		C54.323,322.729,54.622,322.073,54.622,321.369z M52.781,322.373c-0.461,0.426-0.922,0.601-1.354,0.496
		c-0.426-0.098-0.844-0.342-1.256-0.768l-1.793-1.85l2.414-2.211l1.808,1.842c0.349,0.342,0.572,0.676,0.69,0.963
		C53.457,321.396,53.289,321.899,52.781,322.373z"/>
	<polygon fill="#009FC5" points="53.077,331.26 59.162,334.924 59.762,333.981 54.759,330.973 56.49,328.273 61.039,331.016 
		61.625,330.102 57.082,327.346 58.611,324.932 63.551,327.89 64.179,326.94 58.164,323.284 	"/>
	<path fill="#009FC5" d="M71.492,329.598l-4.271-1.318l-2.986,8.896l1.249,0.383h0.007l1.271-3.803l2.847,0.928
		c0.51,0.134,0.88,0.315,1.061,0.503c0.35,0.313,0.454,0.781,0.279,1.361l-0.426,1.513c-0.098,0.371-0.146,0.615-0.188,0.727
		c0,0.119,0,0.244,0.021,0.328l1.5,0.488l0.091-0.217c-0.16-0.125-0.251-0.355-0.244-0.641c0.035-0.176,0.084-0.454,0.182-0.775
		l0.362-1.215c0.146-0.529,0.202-0.928,0.07-1.213c-0.112-0.301-0.301-0.572-0.614-0.83c0.475-0.085,0.886-0.23,1.235-0.489
		c0.328-0.286,0.606-0.684,0.774-1.241c0.342-1.012,0.153-1.856-0.601-2.498C72.735,330.149,72.197,329.863,71.492,329.598z
		 M72.406,332.724c-0.188,0.558-0.475,0.921-0.922,1.075c-0.397,0.069-0.899,0.069-1.486-0.112l-2.882-0.921l1.012-3.043
		l3.057,0.971c0.433,0.133,0.747,0.3,0.956,0.488C72.531,331.552,72.636,332.082,72.406,332.724z"/>
	<path fill="#BC715F" d="M91.458,175.591c5.966,1.112,23.877,0.941,23.877,0.941c-1.751,1.813-11.744,4.347-10.99,6.021
		c0.781,1.703,6.029,0.74,9.022,0.74c-1.241,3.376,10.126,1.473,13.245,0.516c18.89,5.464,21.89-1.8,21.108-3.746
		c6.008,0.369,10.621-3.384,10.621-3.384c2.52,0.413,6.427,0.525,10.114,0.517c0.093,0,0.187,0,0.28-0.001
		c4.985-0.019,9.487-0.252,9.487-0.252c5.121,2.177,11.744,1.961,9.866,0.608c-8.102-5.73-15.98-7.231-23.582-7.277
		c-0.09,0-0.181-0.001-0.271-0.001c-7.065-0.01-13.891,1.211-20.429,1.445c-4.368,0.167-4.878-2.052-0.488-1.934
		c4.368,0.112,16.112-0.705,15.735-2.658c-0.404-1.932-21.904-3.146-27.647-3.293c-5.771-0.111-5.233,4.11-2.707,6.167
		c2.477,2.058,5.491,1.695,3.594,1.94c-3.329,0.446-8.995-3.015-8.995-3.015c-11.957-1.132-20.936-0.935-27.606-0.096
		c-0.093,0.012-0.185,0.023-0.276,0.035c-11.824,1.533-16.254,5.098-16.958,6.795l-0.002-0.014
		c-0.732,2.427,11.737-0.371,11.737-0.371c0.257,0.094,0.588,0.181,0.977,0.261C91.26,175.555,91.362,175.573,91.458,175.591z"/>
	<path fill="#008737" d="M81.896,216.378c0.279,1.59,2.24,1.332,2.812,2.448c-1.682,1.542-2.128,4.089-1.347,6.217
		c0.411,1.828,1.5,4.033,3.37,4.647c1.599-1.5,2.449-3.049,3.538-4.821c0.335,1.444,0.021,3.538,0.523,4.92l1.842-0.915
		c2.75-1.8,2.68-4.486,3.196-7.235c-0.202-0.726-1.64-1.27-0.796-2.184c0.824,0.727,1.096,2.184,2.436,2.226
		c0.768-0.482,0.468-1.423,0.782-2.17c1.061-0.014,2.323,1.172,3.084-0.125c-0.433-0.718-1.535-1.417-1.382-2.121
		c0.321-0.098,0.446,0.203,0.601,0.356c1.256,0.844,2.749,1.005,4.264,1.277c1.193-0.258,0.921-1.5,1.249-2.289
		c0.034-2.113-1.87-3.46-1.912-5.561c2.052-1.186,3.685-3.489,3.587-5.575c-3.231-0.6-6.608-0.314-9.337,0.9
		c-1.277-0.146-2.986,2.415-3.469,0.287c-0.753-0.146-1.102-1.389-2.017-1.187c-2.574,2.484-3.998-1.347-6.092-1.904
		c-0.963-0.029-1.144,1.075-1.598,1.688l-0.014,0c-3.678-3.844-9.728-5.246-14.787-3.335c-0.133,2.833,2.533,4.493,4.382,6.064
		c0.81,0.6,2.178,0.328,2.589,1.374c-1.849,1.905-2.581,5.08-1.968,7.633C77.332,219.727,78.958,214.465,81.896,216.378z
		 M97.767,215.603c0.62,1.703-1.103,1.66-2.08,2.135l-0.97-0.042c0.23-0.474-0.419-0.677-0.579-1.004
		c-0.446-0.112-0.816,0.027-1.067,0.404c0.216,1.082,1.535,1.926,0.174,2.889c-1.151-0.076-2.938,0.37-2.833-1.221
		c-0.433-0.9,1.173-2.289-0.544-2.344c-0.565,1.214-1.187,2.386-2.659,1.235l0.182-1.73c1.409,0.042,3.077,0.286,3.712-1.291
		c0.405-1.145-0.704-2.198,0.286-3.105c1.438-0.328,2.247,0.635,2.98,1.59c0.349,0.803-0.789,1.445,0.181,2.031
		c0.308-0.258,0.685-0.614,0.845-0.761C96.224,214.633,97.187,214.78,97.767,215.603z M94.381,211.822l0.468-0.426
		c0.439,0.53,0.774,1.487,1.158,2.191v0C94.793,213.929,94.982,212.415,94.381,211.822z M91.464,208.546
		c0.761-0.844,0.838-4.102,2.659-1.675l-0.008,0c0.063,0.447-0.229,1.074,0.356,1.389c0.761-0.413,1.569-0.099,2.01,0.656
		c-0.007,0.404,0.118,0.934-0.412,1.129l-1.186-0.223c0.083-0.23-0.294-0.376-0.44-0.6c-0.523-0.161-0.83,0.264-1.221,0.522
		c0.293,0.446,0.97,0.691,0.81,1.264c-0.698,0.697-1.04-0.6-1.808-0.273c-0.523-0.202,0.188-1.29-0.635-1.618
		c-0.978,0-0.328,1.604-1.577,0.977c-0.446-0.503-0.887-1.179-0.405-1.745C90.131,208.001,91.018,208.092,91.464,208.546z
		 M90.573,211.066c-0.502,2.317-2.247-0.118-3.063-0.216C88.599,208.918,89.282,211.479,90.573,211.066z M83.531,206.825
		c0.803-1.083,2.045,0.39,2.651-0.37c0.098-0.67-0.488-1.486,0.272-1.948c0.523,0.091,1.193-0.195,1.409,0.461h-0.007
		c-0.118,2.316,1.563,0.627,2.812,2.03c-0.978-0.384-1.688,1.688-2.645,0.502l-0.601,0.573c0.349,0.794,1.026,0.899,0.321,1.771
		c-1.047,0.398-1.256-0.914-1.745-1.43c-0.083-0.229,0.161-0.663-0.223-0.816c-0.594,0.502-1.215,0.684-2.031,0.601
		C83.524,207.752,83.091,207.167,83.531,206.825z M79.364,212.972c1.005-1.583,2.764,0.05,3.852-0.726
		c0.154-1.36-0.349-2.546,0.9-3.299c1.067-0.189,1.563,0.613,2.212,1.283h-0.007c0.51,0.733-0.111,1.73,0.537,2.546
		c1.02-1.904,2.003,0.412,3.218,0.23c0.369,0.454,0.125,1.082,0.195,1.598c-1.501,0.398-3.308,0.873-4.634-0.328l-0.37,0.425
		c0.789,0.733,1.535,1.563,0.907,2.791c-1.123,0.244-2.861,0.272-3.426-0.886c-0.293-0.956,0.684-1.646-0.35-2.415
		c-0.746,0.928-0.711,2.171-2.268,1.326C79.168,214.988,78.882,213.894,79.364,212.972z"/>
	<path fill="#FFFF00" d="M85.778,207.599c0.384,0.153,0.14,0.587,0.223,0.816c0.489,0.517,0.698,1.828,1.745,1.43
		c0.705-0.872,0.027-0.977-0.321-1.771l0.601-0.573c0.956,1.186,1.667-0.886,2.645-0.502c-1.249-1.403-2.931,0.286-2.812-2.03h0.007
		c-0.216-0.656-0.886-0.371-1.409-0.461c-0.761,0.461-0.175,1.278-0.272,1.948c-0.606,0.76-1.849-0.713-2.651,0.37
		c-0.439,0.342-0.007,0.927,0.216,1.375C84.563,208.282,85.184,208.101,85.778,207.599z"/>
	<path fill="#FFFF00" d="M89.608,208.351c-0.481,0.565-0.041,1.241,0.405,1.745c1.249,0.627,0.6-0.977,1.577-0.977
		c0.823,0.328,0.111,1.417,0.635,1.618c0.768-0.327,1.109,0.97,1.808,0.273c0.16-0.573-0.517-0.817-0.81-1.264
		c0.391-0.258,0.697-0.683,1.221-0.522c0.146,0.223,0.523,0.369,0.44,0.6l1.186,0.223c0.53-0.195,0.405-0.726,0.412-1.129
		c-0.44-0.754-1.249-1.068-2.01-0.656c-0.586-0.315-0.293-0.942-0.356-1.389l0.008,0c-1.821-2.427-1.898,0.831-2.659,1.675
		C91.018,208.092,90.131,208.001,89.608,208.351z"/>
	<path fill="#FFFF00" d="M82.399,214.193c1.033,0.769,0.057,1.459,0.35,2.415c0.564,1.158,2.303,1.13,3.426,0.886
		c0.628-1.228-0.118-2.058-0.907-2.791l0.37-0.425c1.326,1.2,3.133,0.726,4.634,0.328c-0.07-0.516,0.174-1.144-0.195-1.598
		c-1.215,0.182-2.198-2.134-3.218-0.23c-0.648-0.816-0.027-1.813-0.537-2.546h0.007c-0.648-0.67-1.145-1.472-2.212-1.283
		c-1.249,0.753-0.746,1.939-0.9,3.299c-1.088,0.775-2.847-0.858-3.852,0.726c-0.481,0.922-0.195,2.017,0.768,2.547
		C81.688,216.364,81.653,215.121,82.399,214.193z"/>
	<path fill="#FFFFFF" d="M87.51,210.85c0.816,0.098,2.562,2.533,3.063,0.216C89.282,211.479,88.599,208.918,87.51,210.85z"/>
	<path fill="#FFFFFF" d="M96.007,213.588L96.007,213.588c-0.384-0.705-0.719-1.662-1.158-2.192l-0.468,0.426
		C94.982,212.415,94.793,213.929,96.007,213.588z"/>
	<path fill="#FFFF00" d="M94.549,215.149c-0.97-0.585,0.168-1.228-0.181-2.031c-0.733-0.955-1.543-1.918-2.98-1.59
		c-0.99,0.907,0.119,1.96-0.286,3.105c-0.635,1.576-2.303,1.332-3.712,1.291l-0.182,1.73c1.473,1.151,2.094-0.021,2.659-1.235
		c1.717,0.055,0.111,1.443,0.544,2.344c-0.104,1.591,1.682,1.145,2.833,1.221c1.361-0.963,0.042-1.807-0.174-2.889
		c0.251-0.377,0.621-0.516,1.067-0.404c0.16,0.327,0.81,0.53,0.579,1.004l0.97,0.042c0.978-0.475,2.7-0.432,2.08-2.135
		c-0.58-0.823-1.543-0.969-2.373-1.214C95.234,214.535,94.857,214.891,94.549,215.149z M92.262,217.06
		c-0.621,0.049-1.054-0.195-1.431-0.614c-0.279-1.04,0.495-1.144,1.089-1.555c0.69-0.287,0.977,0.516,1.416,0.83
		C93.699,216.579,92.722,216.635,92.262,217.06z"/>
	<path d="M91.92,214.891c-0.594,0.411-1.368,0.516-1.089,1.555c0.377,0.419,0.81,0.664,1.431,0.614
		c0.46-0.425,1.438-0.481,1.074-1.34C92.897,215.406,92.611,214.604,91.92,214.891z M92.489,216.282L92.489,216.282
		c-0.154,0.203-0.37,0.14-0.601,0.195l-0.217-1.039C92.132,215.479,92.733,215.626,92.489,216.282z"/>
	<path fill="#FFFFFF" d="M91.671,215.438l0.217,1.039c0.23-0.055,0.446,0.007,0.6-0.195h0.001
		C92.733,215.626,92.132,215.479,91.671,215.438z"/>
</g>
</svg>
