<?xml version="1.0" encoding="utf-8"?>
<!-- Generator: Adobe Illustrator 16.0.0, SVG Export Plug-In . SVG Version: 6.00 Build 0)  -->
<svg version="1.2" baseProfile="tiny"
	 id="svg650" xmlns:cc="http://creativecommons.org/ns#" xmlns:dc="http://purl.org/dc/elements/1.1/" xmlns:rdf="http://www.w3.org/1999/02/22-rdf-syntax-ns#"
	 xmlns="http://www.w3.org/2000/svg" xmlns:xlink="http://www.w3.org/1999/xlink" x="0px" y="0px" width="512px" height="512px"
	 viewBox="0 0 512 512" xml:space="preserve">
<g id="flag">
	<rect id="rect659" x="0" fill="#3B5AA3" width="511.899" height="512"/>
	<path id="path656" fill="#FFFFFF" d="M139.06,1.241l-5.399,87.962l-23.12-56.095l8.87,59.71L83.614,44.566l23.467,55.055
		L60.067,63.154l36.593,45.826L43.519,85.428l46.549,35.244l-57.895-7.655l54.706,21.687l-85.871,7.854l86.083,5.753l-54.547,22.427
		l57.311-7.755l-46.377,34.245l53.819-23.615l-36.708,46.202l46.7-35.358l-23.137,53.817l37.383-46.801l-10.119,58.338
		l23.514-54.511l5.315,86.111l8.292-85.898l20.274,54.843l-7.729-59.095l37.198,46.841l-24.441-54.708l46.682,37.649l-37.113-47.005
		l55.481,23.1l-49.103-35.857l59.797,10.08l-57.246-21.987l89.038-5.529l-89.038-8.292l58.606-19.535l-60.733,7.628l50.18-35.082
		l-56.558,22.75l39.06-47.352l-47.564,37.146l22.888-56.832l-36.921,48.327l7.931-60.27l-21.963,56.868l-8.204-87.962L139.06,1.241z
		"/>
	<path id="path655" fill="#E2AE57" d="M0,498.22L511.94,0l-0.03,92.71L0,512V498.22z"/>
	<path id="path654" fill="#FFFFFF" d="M17.918,511.98L511.997,191.17l-0.109-101.85L-0.002,512l17.918-0.02H17.918z"/>
</g>
</svg>
