<?xml version="1.0" encoding="utf-8"?>
<!-- Generator: Adobe Illustrator 16.0.0, SVG Export Plug-In . SVG Version: 6.00 Build 0)  -->
<svg version="1.2" baseProfile="tiny"
	 id="svg704" xmlns:cc="http://creativecommons.org/ns#" xmlns:dc="http://purl.org/dc/elements/1.1/" xmlns:rdf="http://www.w3.org/1999/02/22-rdf-syntax-ns#"
	 xmlns="http://www.w3.org/2000/svg" xmlns:xlink="http://www.w3.org/1999/xlink" x="0px" y="0px" width="512px" height="512px"
	 viewBox="0 0 512 512" xml:space="preserve">
<g>
	<path fill="#ED3D00" d="M512,511.39l-30.801-0.06L314.045,323.184c-11.095,9.002-24.449,15.442-39.112,18.387l36.787,170.065H512
		V511.39z"/>
	<path fill="#ED3D00" d="M345.454,242.854L512,219.155V85.067L330.789,206.384C338.29,217.073,343.424,229.469,345.454,242.854z"/>
	<path fill="#ED3D00" d="M199.496,188.451c11.02-8.944,24.271-15.357,38.818-18.33L201.52,0.003V0H0v0.241l32.34,0.062
		L199.496,188.451z"/>
	<path fill="#ED3D00" d="M274.633,169.998c14.979,2.956,28.602,9.559,39.86,18.816L480.921,0H201.52l109.9,0.103L274.633,169.998z"
		/>
	<path fill="#ED3D00" d="M183.078,205.936L0,84.332v134.554l168.101,23.922C170.164,229.253,175.413,216.715,183.078,205.936z"/>
	<path fill="#ED3D00" d="M238.619,341.57c-14.85-2.981-28.356-9.551-39.535-18.734l-167.727,188.8h276.176l-105.714-0.099
		L238.619,341.57z"/>
	<path fill="#ED3D00" d="M168.101,268.815L0,292.76v134.218l182.923-121.504C175.342,294.743,170.15,282.281,168.101,268.815z"/>
	<path fill="#ED3D00" d="M330.465,305.701L512,426.284V292.486l-166.544-23.725C343.399,282.342,338.144,294.904,330.465,305.701z"
		/>
	<path fill="#FFD100" d="M167.119,255.88c0-0.022,0-0.044,0-0.066c-0.002-4.419,0.335-8.762,0.981-13.005L0,218.886v73.874
		l168.101-23.944C167.459,264.595,167.121,260.275,167.119,255.88z"/>
	<path fill="#FFD100" d="M182.923,305.474L0,426.978v84.781l31.3-0.059l0.057-0.064l167.727-188.8
		C192.937,317.786,187.496,311.946,182.923,305.474z"/>
	<path fill="#FFD100" d="M256.809,343.367c-6.232,0.002-12.315-0.617-18.19-1.797L201.82,511.537l105.714,0.099l4.187,0.004v-0.002
		v-0.002L274.933,341.57C269.079,342.746,263.018,343.365,256.809,343.367z"/>
	<path fill="#FFD100" d="M330.789,206.384L512,85.067V0h-31.079L314.493,188.814C320.701,193.919,326.191,199.83,330.789,206.384z"
		/>
	<path fill="#FFD100" d="M238.314,170.121c5.948-1.215,12.11-1.859,18.427-1.861c6.127-0.002,12.109,0.598,17.892,1.738
		L311.42,0.103L201.52,0v0.003L238.314,170.121z"/>
	<path fill="#FFD100" d="M314.045,323.184L481.199,511.33L512,511.39v-85.105L330.465,305.701
		C325.821,312.229,320.293,318.113,314.045,323.184z"/>
	<path fill="#FFD100" d="M346.43,255.748c0,0.022,0,0.044,0,0.066c0.002,4.399-0.333,8.723-0.974,12.948L512,292.486v-73.332
		l-166.546,23.699C346.092,247.062,346.428,251.366,346.43,255.748z"/>
	<path fill="#FFD100" d="M199.496,188.451L32.34,0.302L0,0.241v84.091l183.078,121.604
		C187.721,199.406,193.248,193.521,199.496,188.451z"/>
	<path fill="#ED3D00" d="M330.465,305.701c7.679-10.797,12.934-23.359,14.991-36.939c0.641-4.226,0.976-8.549,0.974-12.948
		c0-0.022,0-0.044,0-0.066c-0.002-4.381-0.338-8.686-0.976-12.894c-2.03-13.385-7.164-25.78-14.665-36.47
		c-4.599-6.554-10.088-12.465-16.296-17.569c-11.259-9.257-24.882-15.861-39.86-18.816c-5.782-1.141-11.765-1.741-17.892-1.738
		c-6.317,0.002-12.479,0.646-18.427,1.861c-14.547,2.973-27.798,9.386-38.818,18.33c-6.248,5.07-11.775,10.955-16.418,17.485
		c-7.665,10.779-12.914,23.317-14.977,36.872c-0.646,4.244-0.983,8.586-0.981,13.005c0,0.022,0,0.044,0,0.066
		c0.002,4.396,0.339,8.715,0.982,12.936c2.049,13.466,7.241,25.928,14.822,36.658c4.573,6.473,10.014,12.312,16.161,17.362
		c11.179,9.184,24.685,15.753,39.535,18.734c5.875,1.18,11.958,1.799,18.19,1.797c6.209-0.002,12.271-0.621,18.124-1.797
		c14.663-2.944,28.018-9.385,39.112-18.387C320.293,318.113,325.821,312.229,330.465,305.701z M256.803,338.063
		c-45.693,0.017-82.748-36.779-82.766-82.187c0-0.021,0-0.042,0-0.062c-0.018-45.408,37.01-82.232,82.703-82.249
		s82.748,36.779,82.766,82.187c0,0.021,0,0.042,0,0.062C339.523,301.223,302.495,338.047,256.803,338.063z"/>
	<path fill="#FFD100" d="M339.506,255.814c0-0.021,0-0.042,0-0.062c-0.018-45.408-37.072-82.204-82.766-82.187
		s-82.721,36.841-82.703,82.249c0,0.021,0,0.042,0,0.062c0.018,45.408,37.072,82.204,82.766,82.187
		C302.495,338.047,339.523,301.223,339.506,255.814z"/>
</g>
</svg>
