<?xml version="1.0" encoding="utf-8"?>
<!-- Generator: Adobe Illustrator 16.0.0, SVG Export Plug-In . SVG Version: 6.00 Build 0)  -->
<svg version="1.2" baseProfile="tiny"
	 id="svg378" xmlns:cc="http://creativecommons.org/ns#" xmlns:dc="http://purl.org/dc/elements/1.1/" xmlns:rdf="http://www.w3.org/1999/02/22-rdf-syntax-ns#"
	 xmlns="http://www.w3.org/2000/svg" xmlns:xlink="http://www.w3.org/1999/xlink" x="0px" y="0px" width="512px" height="512px"
	 viewBox="0 0 512 512" xml:space="preserve">
<g id="flag" transform="matrix(.50106 0 0 1 0 15.937)">
	<rect id="rect171" x="0" y="-15.937" fill="#D61517" width="1021.799" height="512"/>
	<rect id="rect403" x="340.61" y="-15.937" fill="#018EDF" width="340.61" height="512"/>
</g>
<g id="g6961" transform="matrix(.58220 0 0 .58220 -17.756 118.89)">
	<path id="path226" fill="#FFD700" fill-opacity="0.8667" d="M173.289,121.21c12.728,0.367,14.685-4.047,14.685-8.462V97.662
		c0-1.839,4.895-3.678,4.895-6.99c0-3.311-2.447-6.99-3.425-9.198c-1.469,5.519-3.917,11.038-8.323,12.878
		c-1.957-4.416-2.447-5.887-1.468-8.095c0.978-2.207,0-5.519-1.957-8.83c-1.469,6.99-5.876,8.83-6.364,11.037
		c-0.491,2.207-1.959,8.462-4.896,5.15c-2.937-3.311-4.895-7.358-6.364-11.773c-2.937,8.829-1.469,10.67-0.49,12.141
		c0.98,1.472,1.959,5.887,1.959,7.726c0,1.84-1.959,9.199-0.98,11.406S162.029,121.945,173.289,121.21L173.289,121.21z"/>
	<path id="path227" fill="#FFD700" fill-opacity="0.8667" d="M208.714,153.057c0,13.324-14.372,24.125-32.098,24.125
		c-17.728,0-32.098-10.801-32.098-24.125c0-13.323,14.37-24.125,32.098-24.125C194.342,128.932,208.714,139.733,208.714,153.057z"/>
	<path id="path232" fill="#FFD700" fill-opacity="0.8667" d="M221.389,162.59c-16.945,23.674-49.581,30.254-73.781,14.383
		c-6.379-4.183-11.044-8.866-15.482-14.863c4.002,17.019,16.135,29.067,32.922,33.368C189.759,201.807,215,187.073,221.389,162.59
		L221.389,162.59z"/>
	<rect id="rect233" x="127.501" y="349.12" fill="#FFD700" fill-opacity="0.8667" width="95.501" height="19.868"/>
	<path id="path235" fill="#FFD700" fill-opacity="0.8667" d="M132.17,208.71l42.588,25.843l43.078-25.843H132.17z"/>
	<rect id="rect249" x="132.17" y="236.691" fill="#FFD700" fill-opacity="0.8667" width="86.156" height="19.867"/>
	<path id="path250" fill="#FFD700" fill-opacity="0.8667" d="M132.17,381.719l42.588,20.236l43.078-20.236H132.17L132.17,381.719z"
		/>
	<rect id="rect251" x="67.719" y="209" fill="#FFD700" fill-opacity="0.8667" width="41.574" height="192.1"/>
	<rect id="rect612" x="238.74" y="209" fill="#FFD700" fill-opacity="0.8667" width="41.574" height="192.1"/>
	<path id="path633" fill="#FFD700" fill-opacity="0.8667" d="M145.829,276.48c12.711-9.408,31.702-16.453,38.531-8.828
		c6.864,7.887,8.494,14.934,6.991,21.274c-2.031,5.502-11.158,12.072-17.901,8.585c-7.749-3.655-20.112,9.019-21.532,16.017
		c-1.852,7.464-2.033,16.341,0.097,24.577c-20.301-23.671-21.682-51.056-6.184-61.625H145.829z M180.349,288.176
		c-3.501,2.06-8.595-0.034-11.371-4.67c-2.774-4.636-0.644-6.364,2.857-8.424c3.502-2.056,7.057-3.673,9.831,0.964
		C184.442,280.685,183.852,286.119,180.349,288.176L180.349,288.176z M199.961,330.221c-12.552,9.642-33.23,13.362-40.128,5.82
		c-6.936-7.806-1.193-17.663,0.228-24.047c1.957-5.552,10.993-10.413,17.757-7.021c7.765,3.546,20.234-10.364,18.761-19.278
		c1.755-7.52-0.654-8.799-4.314-19.831c20.519,23.431,23.01,53.511,7.697,64.357H199.961z M171.989,315.383
		c3.465-2.122,7.632-1.037,10.453,3.573s2.63,8.231-0.834,10.353c-3.465,2.12-8.895,1.941-11.718-2.669
		C167.07,322.03,168.526,317.503,171.989,315.383L171.989,315.383z"/>
</g>
</svg>
