<?xml version="1.0" encoding="utf-8"?>
<!-- Generator: Adobe Illustrator 16.0.0, SVG Export Plug-In . SVG Version: 6.00 Build 0)  -->
<svg version="1.2" baseProfile="tiny"
	 id="svg672" xmlns:cc="http://creativecommons.org/ns#" xmlns:dc="http://purl.org/dc/elements/1.1/" xmlns:rdf="http://www.w3.org/1999/02/22-rdf-syntax-ns#"
	 xmlns="http://www.w3.org/2000/svg" xmlns:xlink="http://www.w3.org/1999/xlink" x="0px" y="0px" width="512px" height="512px"
	 viewBox="0 0 512 512" xml:space="preserve">
<g>
	<path fill="#199D00" d="M0.001,0v511.983h511.983V0H0.001z M361.92,197.021l1.176-9.243l4.812,7.976l9.15-1.736l-6.095,7.039
		l4.476,8.173l-8.577-3.629l-6.389,6.785l0.8-9.28l-8.42-3.975L361.92,197.021z M318.342,137.462l8.764,3.142l5.998-7.129
		l-0.28,9.311l8.63,3.502l-8.938,2.611l-0.67,9.294l-5.24-7.699l-9.047,2.238l5.703-7.365L318.342,137.462z M251.447,127.425
		l4.036-11.927l4.233,11.854l12.585,0.156l-9.96,7.688l3.735,12.025l-10.387-7.107l-10.282,7.273l3.549-12.077l-10.085-7.522
		L251.447,127.425z M176.57,133.332l5.998,7.129l8.764-3.143l-4.92,7.904l5.703,7.365l-9.047-2.238l-5.239,7.699l-0.671-9.294
		l-8.938-2.61l8.63-3.503L176.57,133.332z M139.712,195.413l4.812-7.976l1.176,9.243l9.067,2.11l-8.42,3.975l0.8,9.281l-6.389-6.786
		l-8.577,3.629l4.476-8.173l-6.095-7.039L139.712,195.413z M206.534,375.818l98.584-0.292
		C281.954,386.754,230.669,387.73,206.534,375.818z M313.849,371.057h-119.27c-4.04-1.402-8.728-4.422-13.09-7.117h-0.004
		l145.453-0.355C323.061,366.074,318.697,368.727,313.849,371.057z M333.399,358.779l-158.221-0.135
		c-3.652-1.963-7.398-5.298-9.909-7.947h0.002l177.985,0.486C339.916,353.769,337.224,356.84,333.399,358.779z M346.011,347.945
		l-184.363-0.808c-3.461-2.399-8.064-7.999-10.61-11.313h0.001c0.971,0,207.256-0.162,207.256-0.162
		C354.685,339.757,350.429,344.174,346.011,347.945z M363.952,327.746h-84.361l-24.889-19.716l-25.858,20.04l-83.392-0.324
		c-1.896-1.982-5.108-6.311-6.141-9.696l84.038,0.323l31.353-23.596v0.001l31.029,23.919l85.493-0.162
		C368.962,321.605,366.376,325.161,363.952,327.746z M367.053,285.717c3.656,1.98,7.313,3.961,10.97,5.942
		c-8.228,7.771-20.112,15.541-37.025,17.826c-16.303,2.134-31.692,1.524-47.995,1.829c-12.646-8.229-25.653-16.401-38.3-24.628
		c-12.037,8.38-24.63,15.79-36.667,24.171c-15.084,1.066-29.712,1.219-45.254,0.457c0,0-32.454-5.484-40.682-19.655
		c-0.458-1.372,10.513-6.4,10.513-6.4c16.608,11.733,35.045,22.095,69.48,20.571c-42.511-3.81-71.309-27.274-79.993-48.912
		c23.007-16.151,61.1-15.846,92.335,6.399c-9.751-12.189-42.358-25.75-66.737-21.94c-3.505-3.658-6.552-8.229-10.057-11.886
		c28.036-6.248,67.043,11.733,81.365,26.512c-15.084-24.226-26.055-51.653-8.228-85.022c3.504,3.352,7.466,6.705,10.97,10.057
		c-13.407,24.531-8.532,53.177,2.286,73.137c-18.741-38.702-3.657-76.946,21.026-95.535c28.798,17.37,37.026,63.538,20.113,96.451
		c9.599-5.486,17.37-46.626,4.114-74.052c3.048-3.657,6.095-7.313,9.143-10.97c19.96,26.969,7.923,70.395-8.686,86.85
		c12.646-10.971,45.405-32.454,83.65-27.425c-3.048,3.657-7.923,6.856-10.971,10.513c-31.389-1.219-56.833,12.189-68.108,23.77
		c27.578-18.284,65.67-27.428,93.706-6.857c-12.95,34.588-49.673,44.949-79.993,47.996
		C323.779,306.895,347.701,299.277,367.053,285.717z"/>
	<path fill="#FEFFFF" d="M378.023,256.918c-28.036-20.57-66.128-11.427-93.706,6.857c11.275-11.581,36.72-24.989,68.108-23.77
		c3.048-3.657,7.923-6.856,10.971-10.513c-38.245-5.028-71.004,16.455-83.65,27.425c16.608-16.455,28.646-59.881,8.686-86.85
		c-3.048,3.657-6.095,7.313-9.143,10.97c13.256,27.426,5.484,68.566-4.114,74.052c16.913-32.913,8.685-79.081-20.113-96.451
		c-24.684,18.589-39.768,56.833-21.026,95.535c-10.818-19.96-15.693-48.606-2.286-73.137c-3.504-3.352-7.466-6.705-10.97-10.057
		c-17.827,33.369-6.856,60.796,8.228,85.022c-14.322-14.779-53.329-32.76-81.365-26.512c3.505,3.657,6.552,8.228,10.057,11.886
		c24.379-3.81,56.986,9.751,66.737,21.94c-31.235-22.246-69.328-22.55-92.335-6.399c8.685,21.638,37.482,45.103,79.993,48.912
		c-34.436,1.523-52.872-8.838-69.48-20.571c0,0-10.971,5.028-10.513,6.4c8.228,14.171,40.682,19.655,40.682,19.655
		c15.542,0.762,30.17,0.609,45.254-0.457c12.037-8.381,24.63-15.791,36.667-24.171c12.646,8.227,25.653,16.399,38.3,24.628
		c16.303-0.305,31.692,0.305,47.995-1.829c16.913-2.285,28.798-10.056,37.025-17.826c-3.656-1.981-7.313-3.962-10.97-5.942
		c-19.352,13.561-43.274,21.178-69.023,19.197C328.35,301.867,365.073,291.506,378.023,256.918z"/>
	<path fill="#FFFFFF" d="M254.702,294.778L254.702,294.778l-31.353,23.595l-84.038-0.323c1.032,3.386,4.245,7.714,6.141,9.696
		l83.392,0.324l25.858-20.04l24.889,19.716h84.361c2.424-2.585,5.01-6.141,7.272-9.211l-85.493,0.162L254.702,294.778z"/>
	<path fill="#FFFFFF" d="M305.118,375.526l-98.584,0.292C230.669,387.73,281.954,386.754,305.118,375.526z"/>
	<path fill="#FFFFFF" d="M151.037,335.824c2.546,3.314,7.149,8.914,10.61,11.313l184.363,0.808
		c4.418-3.771,8.674-8.188,12.283-12.283C358.294,335.662,152.009,335.824,151.037,335.824L151.037,335.824z"/>
	<path fill="#FFFFFF" d="M165.269,350.697c2.511,2.649,6.257,5.984,9.909,7.947l158.221,0.135c3.825-1.939,6.518-5.011,9.857-7.596
		l-177.985-0.486H165.269z"/>
	<path fill="#FFFFFF" d="M181.49,363.939c4.362,2.695,9.05,5.715,13.09,7.117h119.27c4.848-2.33,9.212-4.982,13.09-7.473
		l-145.453,0.355H181.49z"/>
	<polygon fill="#FEB700" points="326.606,150.494 331.846,158.193 332.516,148.899 341.453,146.288 332.823,142.786 
		333.104,133.475 327.106,140.604 318.342,137.462 323.262,145.367 317.559,152.731 	"/>
	<polygon fill="#FEB700" points="245.407,147.388 255.69,140.115 266.076,147.222 262.341,135.197 272.301,127.508 259.716,127.353 
		255.483,115.499 251.447,127.425 238.871,127.789 248.956,135.311 	"/>
	<polygon fill="#FEB700" points="360.473,212.386 366.862,205.601 375.439,209.23 370.963,201.057 377.058,194.018 367.907,195.754 
		363.096,187.778 361.92,197.021 352.853,199.131 361.273,203.106 	"/>
	<polygon fill="#FEB700" points="177.157,148.755 177.828,158.049 183.068,150.35 192.115,152.588 186.411,145.223 191.331,137.319 
		182.568,140.461 176.57,133.332 176.85,142.642 168.22,146.145 	"/>
	<polygon fill="#FEB700" points="132.181,208.89 140.758,205.26 147.147,212.046 146.347,202.765 154.767,198.791 145.699,196.68 
		144.524,187.438 139.712,195.413 130.562,193.678 136.656,200.717 	"/>
</g>
</svg>
