<?xml version="1.0" encoding="utf-8"?>
<!-- Generator: Adobe Illustrator 16.0.0, SVG Export Plug-In . SVG Version: 6.00 Build 0)  -->
<svg version="1.2" baseProfile="tiny"
	 id="svg378" xmlns:cc="http://creativecommons.org/ns#" xmlns:dc="http://purl.org/dc/elements/1.1/" xmlns:rdf="http://www.w3.org/1999/02/22-rdf-syntax-ns#"
	 xmlns="http://www.w3.org/2000/svg" xmlns:xlink="http://www.w3.org/1999/xlink" x="0px" y="0px" width="512px" height="512px"
	 viewBox="0 0 512 512" xml:space="preserve">
<g>
	<path fill="#2D9C4B" d="M-0.004,0v511.993H511.99V0H-0.004z M251.281,158.301l12.619-41.294l14.177,40.285l43.471-1.667
		l-34.711,26.497l14.244,40.264l-35.632-23.908l-34.667,26.549l12.693-41.272l-35.667-23.858L251.281,158.301z M78.431,152.815
		c73.68,204.167,296.163,211.661,376.724,0C454.581,435.651,83.302,448.766,78.431,152.815z"/>
	<path fill="#FFE900" d="M78.431,152.815c4.871,295.95,376.15,282.836,376.724,0C374.594,364.477,152.111,356.982,78.431,152.815z"
		/>
	<polygon fill="#FFE900" points="230.781,225.027 265.448,198.478 301.08,222.385 286.836,182.121 321.547,155.625 278.076,157.292 
		263.9,117.007 251.281,158.301 207.808,159.896 243.475,183.754 	"/>
</g>
</svg>
