<?xml version="1.0" encoding="utf-8"?>
<!-- Generator: Adobe Illustrator 16.0.0, SVG Export Plug-In . SVG Version: 6.00 Build 0)  -->
<svg version="1.2" baseProfile="tiny"
	 id="svg548" xmlns:cc="http://creativecommons.org/ns#" xmlns:dc="http://purl.org/dc/elements/1.1/" xmlns:rdf="http://www.w3.org/1999/02/22-rdf-syntax-ns#"
	 xmlns="http://www.w3.org/2000/svg" xmlns:xlink="http://www.w3.org/1999/xlink" x="0px" y="0px" width="512px" height="512px"
	 viewBox="0 0 512 512" xml:space="preserve">
<g id="flag">
	<rect id="rect877" x="0" fill="#000066" width="512" height="512"/>
	<g id="g678" transform="matrix(1.135 0 0 1.1421 235.95 209.34)">
		<g id="g555">
			<path id="path552" fill="#FFFFFF" d="M40.148,18.913h177.16l-0.211,126.06c1.474,50.675-30.111,82.12-88.227,96.298
				c-41.275-10.25-88.863-31.45-88.933-94.859l0.211-127.5V18.913z"/>
			<path id="path553" fill="#00A2BD" stroke="#000000" d="M44.069,22.713h169.3l-0.2,120.79
				c1.408,48.559-28.777,78.69-84.317,92.276c-39.437-9.819-84.915-30.13-84.982-90.9l0.2-122.17L44.069,22.713z"/>
			<path id="path554" fill="#A53D08" d="M212.06,157.82c-6.159,46.351-41.856,66.603-83.209,77.352
				c-36.604-9.819-75.983-25.494-83.617-77.119l166.83-0.233H212.06z"/>
		</g>
		<g id="g580">
			<path id="path578" fill="#FFC6B5" stroke="#000000" stroke-width="1.25" stroke-linejoin="round" d="M155.769,197.17
				c0.095,0.093,0.658,9.294-4.318,14.928c4.413,1.409,7.418-0.282,8.826-2.066c1.408-1.784,1.878-4.037,1.878-4.037
				s1.22-0.752,1.408-2.441c0.094-2.348-0.939-2.348-1.784-2.817l0.187-5.258C161.967,195.48,156.897,192.381,155.769,197.17
				L155.769,197.17z"/>
			<path id="path579" fill="#FF9A08" stroke="#000000" stroke-linecap="round" d="M155.49,210.32l-1.503-1.221"/>
		</g>
		<path id="path671" fill="#FFC6B5" stroke="#000000" d="M141.64,69.393c0,0,0.117,5.625-0.235,6.211
			c-0.351,0.586-3.554,2.07-3.554,2.07l2.734,5.82c0,0,7.695-1.094,7.734-1.094c0.039,0,3.32-8.71,3.32-8.71
			s-1.719-2.891-1.289-5.898C147.773,59.627,141.757,69.432,141.64,69.393L141.64,69.393z"/>
		<path id="path583" fill="#005121" stroke="#000000" stroke-width="1.25" stroke-linejoin="round" d="M131.45,203.09
			c0,0,4.318,4.319,9.295,3.756c11.268-1.22,14.554-11.267,18.028-11.361c3.473-0.094,5.634,6.103,8.92,5.352
			c-2.817-5.164-5.822-16.619-5.353-24.694c0.471-8.075,0.471-42.065,0.471-42.065s-5.634-17.558-8.263-20.469
			c2.629-2.817,4.413-7.793,4.319-13.239c-0.094-5.446,0-11.455,0-11.455s1.314-1.502,1.221-5.727
			c-0.094-4.225-7.136-10.328-8.075-10.048c-0.939,0.282-9.765,7.888-10.516,9.672c-0.752,1.785-1.784-6.479-0.095-7.23
			c1.691-0.751-3.943-1.221-7.511,3.005c-3.568,4.225-2.536,124.69-2.441,124.5V203.09z"/>
		<path id="path559" d="M89.102,45.097l33.044,0.118l-0.236-15.224l12.038,0.118l0.118,15.106h32.926l0.118,11.802l-33.044,0.118
			l-0.264,139.18l-11.742,0.074l-0.15-139.37l-32.815,0.118l0.007-12.038V45.097z"/>
		<path id="path560" fill="#FFC6B5" stroke="#000000" d="M122.029,81.959c0,0-2.258-0.398-3.984,0.133
			c-1.726,0.53,2.656-19.586,2.656-21.246c1.527-0.73,9.162-2.125,8.963-7.502c-0.531-3.253-11.818,0.198-11.619,4.315
			c-0.73,2.058-8.099,23.038-6.639,29.943c2.589,2.057,7.37,1.659,10.623,1.129V81.959L122.029,81.959z"/>
		<path id="path561" fill="none" stroke="#000000" stroke-width="0.625" stroke-linecap="round" d="M124.22,53.211
			c0,0-0.664,3.718,2.721,4.249"/>
		<path id="path563" fill="none" stroke="#000000" stroke-width="0.375" d="M129.2,53.143c-0.133,0.067-4.382,2.723-4.382,2.723"/>
		<path id="path564" fill="none" stroke="#000000" stroke-width="0.375" d="M128.94,54.804l-2.988,2.191"/>
		<path id="path565" fill="none" stroke="#000000" stroke-width="0.375" d="M127.81,52.348l-3.319,1.991"/>
		<path id="path566" fill="#FF9A08" stroke="#000000" d="M95.49,163.561l30.139,31.266c10.422-11.454,3.194-54.272-10.514-62.158
			c-1.643,5.07-4.437,11.149-7.407,13.109c-6.534,4.453-22.546,9.66-17.194,12.993c1.221-1.69,4.413-3.285,5.915,0.47
			c1.784,5.915-6.666,6.292-6.666,6.292s-5.352-0.658-6.29-6.104c-0.94-5.445,7.972-10.417,8.732-10.797
			c0.751-0.282,12.393-3.381,14.365-13.709c2.441-10.141,4.977-8.639,5.446-8.827c15.21,1.503,25.163,28.733,25.727,47.887
			c0.563,19.154-7.793,31.83-9.296,32.675c-1.502,0.845-36.243-41.219-36.243-41.219L95.49,163.561L95.49,163.561z"/>
		<path id="path567" fill="none" stroke="#000000" d="M117.46,134.45l0.187,56.43"/>
		<path id="path568" fill="none" stroke="#000000" d="M114.08,135.48c0,0.094,0.187,51.267,0.187,51.267"/>
		<path id="path569" fill="none" stroke="#000000" d="M110.42,142.9l0.187,40.75"/>
		<path id="path570" fill="none" stroke="#000000" d="M107.42,145.81l0.188,33.709"/>
		<path id="path571" fill="none" stroke="#000000" d="M104.22,147.32v28.45"/>
		<path id="path572" fill="none" stroke="#000000" d="M100.75,149.57v22.534"/>
		<path id="path573" fill="none" stroke="#000000" d="M97.744,151.35v17.276"/>
		<path id="path574" fill="none" stroke="#FFDF00" stroke-width="1.25" stroke-linecap="round" d="M95.021,167.13L126.1,202.71"/>
		<path id="path575" fill="none" stroke="#FFDF00" stroke-width="1.25" stroke-linecap="round" d="M127.6,144.689
			c0,0,14.085,30.798,1.033,56.149"/>
		<path id="path576" fill="none" stroke="#FFDF00" stroke-width="1.25" stroke-linecap="round" d="M91.358,160.65
			c0,0,1.033-2.723,2.348-1.596"/>
		<path id="path577" fill="none" stroke="#FFDF00" stroke-width="1.25" stroke-linecap="round" d="M88.917,152.76
			c0,0-5.633,4.976-2.535,8.169"/>
		<path id="path584" fill="none" stroke="#000000" d="M141.03,82.999c0,0,0.47,4.32-0.469,7.606
			c-0.939,3.286,3.568,12.394,1.877,14.272"/>
		<path id="path585" fill="none" stroke="#000000" d="M142.91,113.7l11.831-0.094"/>
		<path id="path586" fill="none" stroke="#000000" stroke-linecap="round" d="M138.59,118.49c0.094,0.186,1.408,6.197,1.033,10.327"
			/>
		<path id="path587" fill="none" stroke="#000000" stroke-linecap="round" d="M142.44,120.65c-0.375,1.221-5.258,15.117-5.07,15.68"
			/>
		<path id="path588" fill="none" stroke="#000000" stroke-linecap="round" d="M145.35,114.361c0.094,0.281-0.375,8.826-1.69,10.047"
			/>
		<path id="path589" fill="none" stroke="#000000" stroke-linecap="round" d="M151.36,113.7c0,0,7.7,17.84,7.606,24.881
			c-0.094,7.042,2.629,21.314,0.845,27.606"/>
		<path id="path590" fill="none" stroke="#000000" stroke-linecap="round" d="M153.8,138.4c0,0-0.564,13.24-6.103,18.403
			c-5.54,5.165,13.239,19.906,13.239,19.906"/>
		<path id="path591" fill="none" stroke="#000000" stroke-width="1.25" stroke-linecap="round" d="M153.61,175.86
			c0,0,2.066,18.215,5.54,19.53"/>
		<path id="path593" fill="none" stroke="#000000" stroke-width="1.25" stroke-linecap="round" d="M136.62,145.34
			c0.094,0.187-1.878,12.3-0.282,14.272c1.597,1.972,14.836,20.469,14.272,39.624"/>
		<path id="path594" fill="none" stroke="#000000" stroke-width="1.25" stroke-linecap="round" d="M146.85,193.51
			c0,0-0.376,11.549-11.079,12.488"/>
		<path id="path595" fill="none" stroke="#000000" stroke-width="1.25" stroke-linecap="round" d="M143.66,185.91
			c0,0,3.193,12.018-7.699,19.624"/>
		<path id="path596" fill="none" stroke="#000000" stroke-linecap="round" d="M147.879,156.889c0,0,12.3,12.77,12.864,18.404"/>
		<path id="path598" fill="none" stroke="#000000" stroke-linecap="round" d="M151.45,113.98c0,0,2.16,9.107,1.315,10.704"/>
		<path id="path663" fill="#FFC6B5" stroke="#000000" d="M113.51,132.69c0,0-1.317-2.304-1.152-4.857
			c0.165-2.551-0.412-6.502,7.82-9.713c5.021-5.103,10.618-8.149,13.663-9.712c4.445-2.881,7.326-2.223,9.96-3.211
			c1.729-1.974,1.646-6.338,3.456-10.206c1.811-3.869,5.021-11.853,8.478-10.618c3.458,1.235,0.741,11.606-0.576,15.228
			c-1.316,3.622-2.469,7.408-4.774,9.631c-2.305,2.221-12.758,6.255-14.816,6.996c-2.058,0.74-11.441,2.881-13.828,6.174
			c-2.388,3.292-2.223,8.149-8.232,10.29V132.69z"/>
		<path id="path664" fill="none" stroke="#000000" d="M112.85,125.78c0.247-0.081,4.115-1.317,5.926,2.141"/>
		<path id="path666" fill="#FFC6B5" stroke="#000000" stroke-width="1.25" stroke-linejoin="round" d="M141.91,55.2
			c0,0-1.741,2.836-2.222,4.562c-0.373,1.289-1.58-0.087-2.218,2.707l1.035,0.181c-0.411,0.823-0.546,2.215-0.628,2.543
			c-0.083,0.33-0.662,1.833-0.576,2.964c0.046,0.583,1.152,3.128,10.124-0.74C156.397,63.548,144.544,52.565,141.91,55.2
			L141.91,55.2z"/>
		<path id="path665" fill="#C59200" stroke="#000000" stroke-width="1.2611" stroke-linecap="round" stroke-linejoin="round" d="
			M140.9,55.563c0.921-0.494,7.457-1.071,6.368,11.688c1.257-0.165,2.011-0.329,2.764,0.906c0.755,1.235,0.671,2.716,2.012,2.716
			s1.509-0.246,1.844-1.235c0.334-0.987,5.53,1.153,6.869-3.456c-0.231-0.898-3.183-2.305-3.519-3.952
			c0.755-2.304-0.335-9.795-9.884-10.206C142.408,51.94,141.404,53.999,140.9,55.563L140.9,55.563z"/>
		<path id="path667" fill="none" stroke="#000000" stroke-linecap="round" d="M140.42,58.115c0.083,0.082,2.964,0.906,3.293,2.305"
			/>
		<path id="path670" d="M142.19,61.503c0,0.432-0.332,0.782-0.742,0.782c-0.41,0-0.743-0.35-0.743-0.782
			c0-0.431,0.332-0.781,0.743-0.781C141.857,60.722,142.19,61.072,142.19,61.503z"/>
		<path id="path672" fill="none" stroke="#000000" stroke-width="1.25" stroke-linecap="round" stroke-linejoin="round" d="
			M154.38,61.542c0,0-1.055,5.078,3.594,7.07"/>
		<path id="path673" fill="none" stroke="#000000" stroke-width="1.25" stroke-linecap="round" stroke-linejoin="round" d="
			M150.94,62.167c0,0,1.722,0.078,1.722,1.68c0,1.601-1.414,1.796-1.296,3.085c0.117,1.289,2.425,1.719,2.503,2.813"/>
		<path id="path674" fill="none" stroke="#000000" stroke-width="1.25" stroke-linecap="round" stroke-linejoin="round" d="
			M143.4,52.792c0.077,0,8.243,0.938,7.774,2.969c-0.469,2.031-1.758,1.211-1.719,2.969c0.039,1.757,3.281,0.703,3.281,0.703
			s0.196-1.484,1.563-1.367c1.367,0.118,0.742,1.679,2.617,1.641"/>
		<path id="path675" fill="none" stroke="#000000" stroke-width="1.25" stroke-linecap="round" d="M138.41,65.458l1.936-0.063"/>
		<path id="path676" fill="none" stroke="#000000" stroke-linecap="round" d="M143.45,73.696c0,0,0.719,3.36-2,3.04"/>
	</g>
	<g id="g878" transform="matrix(4.8028 0 0 6.3152 0 .062997)">
		<path id="path879" fill="#FFFFFF" d="M0,0v3.354L53.292,30H60v-3.354L6.708,0L0,0L0,0z M60,0v3.354L6.708,30H0v-3.354L53.292,0H60
			z"/>
		<path id="path880" fill="#FFFFFF" d="M25,0v30h10V0H25z M0,10v10h60V10H0z"/>
		<path id="path881" fill="#CC0000" d="M0,12v6h60v-6H0z M27,0v30h6V0H27z"/>
		<path id="path882" fill="#CC0000" d="M0,30l20-10h4.472l-20,10H0z M0,0l20,10h-4.472L0,2.236V0z M35.528,10l20-10H60L40,10H35.528
			z M60,30L40,20h4.472L60,27.764V30z"/>
	</g>
</g>
</svg>
