<?xml version="1.0" encoding="utf-8"?>
<!-- Generator: Adobe Illustrator 16.0.0, SVG Export Plug-In . SVG Version: 6.00 Build 0)  -->
<svg version="1.2" baseProfile="tiny"
	 id="svg548" xmlns:cc="http://creativecommons.org/ns#" xmlns:dc="http://purl.org/dc/elements/1.1/" xmlns:rdf="http://www.w3.org/1999/02/22-rdf-syntax-ns#"
	 xmlns="http://www.w3.org/2000/svg" xmlns:xlink="http://www.w3.org/1999/xlink" x="0px" y="0px" width="512px" height="512px"
	 viewBox="0 0 512 512" xml:space="preserve">
<g id="flag" transform="matrix(.68808 0 0 1.0321 0 -.0000064679)">
	<rect id="rect706" x="372.05" fill="#CE0000" width="372.05" height="496.06"/>
	<rect id="rect708" x="0" fill="#FFFFFF" width="372.05" height="496.06"/>
</g>
<g id="g647" transform="matrix(.35005 0 0 .35003 40.728 -25.527)">
	<path id="path606" fill="#F1EEEE" d="M183.107,381.66c0,2.314-2.62,4.189-5.853,4.189c-3.231,0-5.85-1.875-5.85-4.189
		c0-2.313,2.62-4.188,5.85-4.188C180.487,377.472,183.107,379.347,183.107,381.66z"/>
	<path id="path552" fill="#CC0000" d="M0.061,361.429v106.304h106.302c0,17.712,17.718,35.431,35.436,35.431v106.298h106.296
		V503.163c17.718,0,35.436-17.719,35.436-35.431h106.302V361.429H283.53c0-17.712-17.718-35.431-35.436-35.431V219.7H141.798
		v106.298c-17.718,0-35.436,17.719-35.436,35.431H0.061z"/>
	<path id="path553" fill="#FFE600" d="M3.601,364.969v99.212h106.302c0,17.712,17.712,35.436,35.43,35.436v106.298h99.216V499.617
		c17.718,0,35.43-17.724,35.43-35.436h106.302v-99.212H279.979c0-17.712-17.712-35.436-35.43-35.436V223.235h-99.216v106.298
		c-17.718,0-35.43,17.724-35.43,35.436H3.601z"/>
	<path id="path554" fill="#707070" d="M7.041,368.508v92.132h106.296c0,17.712,17.718,35.431,35.436,35.431v106.298h92.124V496.071
		c17.718,0,35.436-17.719,35.436-35.431h106.296v-92.132H276.333c0-17.712-17.718-35.429-35.436-35.429V226.781h-92.124v106.298
		c-17.718,0-35.436,17.718-35.436,35.429H7.041z"/>
	<path id="path555" fill="#A0A0A0" d="M10.581,372.049v85.04h106.296c0,17.712,17.718,35.436,35.436,35.436v106.298h85.038V492.525
		c17.718,0,35.436-17.724,35.436-35.436h106.296v-85.04H272.787c0-17.712-17.718-35.431-35.436-35.431V230.32h-85.038v106.298
		c-17.718,0-35.436,17.719-35.436,35.431H10.581L10.581,372.049z"/>
	<g id="g562" transform="matrix(.70711 -.70711 .70711 .70711 -304.01 361.65)">
		<path id="path556" fill="#D0D0D0" d="M347.239,299.414c0,8.806-14.279,15.944-31.891,15.943c-17.612,0-31.889-7.138-31.889-15.945
			c-0.001-8.805,14.276-15.945,31.888-15.945C332.96,283.468,347.239,290.608,347.239,299.414z"/>
		<path id="path557" fill="#808080" d="M336.615,299.413c0,8.806-9.519,15.946-21.259,15.945c-11.742,0-21.26-7.139-21.26-15.945
			c-0.001-8.805,9.518-15.945,21.259-15.945C327.096,283.469,336.615,290.607,336.615,299.413z"/>
		<path id="path560" fill="#D0D0D0" d="M301.178,290.548l3.543,0l3.545,10.631l3.541-10.631l3.543,0l-7.086,21.261L301.178,290.548z
			"/>
		<rect id="rect561" x="322.44" y="290.551" fill="#D0D0D0" width="3.544" height="21.259"/>
	</g>
	<g id="g567" transform="matrix(.70711 .70711 -.70711 .70711 247.8 -84.327)">
		<path id="path568" fill="#D0D0D0" d="M347.237,299.414c0,8.806-14.277,15.944-31.889,15.945s-31.888-7.139-31.888-15.945
			s14.277-15.944,31.889-15.945C332.961,283.469,347.238,290.608,347.237,299.414z"/>
		<path id="path569" fill="#808080" d="M336.616,299.413c-0.001,8.805-9.519,15.944-21.26,15.944
			c-11.741,0.001-21.261-7.137-21.261-15.943c0.003-8.807,9.521-15.946,21.261-15.947
			C327.097,283.467,336.616,290.607,336.616,299.413z"/>
		<path id="path570" fill="#D0D0D0" d="M301.179,290.548l3.543,0l3.543,10.629l3.543-10.629l3.543,0l-7.086,21.261L301.179,290.548z
			"/>
		<rect id="rect571" x="322.438" y="290.55" fill="#D0D0D0" width="3.546" height="21.261"/>
	</g>
	<g id="g572" transform="matrix(-.70711 .70711 -.70711 -.70711 693.78 467.48)">
		<path id="path573" fill="#D0D0D0" d="M347.239,299.414c0,8.806-14.279,15.944-31.891,15.944c-17.611,0-31.889-7.138-31.889-15.945
			s14.277-15.946,31.888-15.945C332.96,283.467,347.239,290.608,347.239,299.414z"/>
		<path id="path574" fill="#808080" d="M336.615,299.413c0,8.806-9.519,15.946-21.259,15.945c-11.742,0-21.26-7.139-21.261-15.944
			c0-8.806,9.519-15.946,21.26-15.946C327.096,283.469,336.616,290.607,336.615,299.413z"/>
		<path id="path575" fill="#D0D0D0" d="M301.179,290.547l3.543,0l3.544,10.632l3.542-10.632l3.543,0l-7.086,21.261L301.179,290.547z
			"/>
		<rect id="rect576" x="322.44" y="290.551" fill="#D0D0D0" width="3.543" height="21.258"/>
	</g>
	<g id="g577" transform="matrix(-.70711 -.70711 .70711 -.70711 141.97 913.46)">
		<path id="path578" fill="#D0D0D0" d="M347.237,299.413c0,8.806-14.276,15.945-31.889,15.945c-17.611,0-31.888-7.139-31.888-15.945
			c0-8.806,14.277-15.944,31.889-15.945C332.961,283.469,347.238,290.608,347.237,299.413z"/>
		<path id="path579" fill="#808080" d="M336.616,299.413c0,8.806-9.519,15.944-21.26,15.945c-11.742,0-21.262-7.138-21.26-15.946
			c0.001-8.805,9.519-15.944,21.26-15.945C327.097,283.467,336.615,290.607,336.616,299.413z"/>
		<path id="path580" fill="#D0D0D0" d="M301.179,290.548l3.543,0l3.544,10.63l3.542-10.63l3.543,0l-7.086,21.261L301.179,290.548z"
			/>
		<rect id="rect581" x="322.439" y="290.55" fill="#D0D0D0" width="3.545" height="21.261"/>
	</g>
	<path id="path582" fill="none" stroke="#707070" d="M269.289,414.57c0,41.096-33.313,74.409-74.409,74.409
		s-74.409-33.313-74.409-74.409c0-41.094,33.313-74.409,74.409-74.409S269.289,373.476,269.289,414.57z"/>
	<path id="path583" fill="none" stroke="#707070" d="M251.576,414.567c0,31.311-25.384,56.693-56.694,56.693
		c-31.312,0-56.694-25.382-56.694-56.693c0-31.31,25.381-56.692,56.694-56.692C226.192,357.876,251.576,383.257,251.576,414.567z"/>
	<path id="path584" fill="#D0D0D0" d="M170.081,474.799c0,1.957-1.587,3.545-3.546,3.545c-1.956,0-3.543-1.587-3.543-3.545
		c0-1.956,1.587-3.543,3.543-3.543C168.494,471.256,170.081,472.844,170.081,474.799z"/>
	<path id="path585" fill="#D0D0D0" d="M226.772,474.799c0,1.957-1.585,3.545-3.543,3.545c-1.956,0-3.543-1.587-3.543-3.545
		c0-1.956,1.587-3.543,3.543-3.543C225.188,471.256,226.772,472.844,226.772,474.799z"/>
	<path id="path586" fill="#D0D0D0" d="M192.522,474.802v3.694h-4.726c-4.723,0-4.723,3.695,0,3.695h4.726v3.694
		c0.017,3.831,4.123,4.291,4.425,0.299l0.299-3.992h4.726c4.723,0,4.723-3.695,0-3.695h-4.726v-3.694
		C197.245,471.107,192.522,471.107,192.522,474.802z"/>
	<path id="path590" fill="#D0D0D0" stroke="#707070" d="M177.251,422.453v2.095c0,0-1.11,1.603-8.191,2.094
		c-7.083,0.491-8.194,0-8.194,0c0.184,1.827,1.562,5.29,1.169,9.426c0.276,4.814-1.353,9.175-1.353,9.175
		c0.184,0.251-0.667,0.378-2.156,0.251c1.169-1.048,1.035-4.078,1.169-8.378c0.137-4.302-4.466-10.776-3.51-12.567
		C157.142,422.756,177.251,422.453,177.251,422.453z"/>
	<path id="path591" fill="#D0D0D0" stroke="#707070" d="M205.344,414.857c6.891-0.318,18.452-0.25,18.452-0.25
		s2.726,5.47,2.614,8.49c-0.114,3.021-1.052,5.592-2.338,4.306c-1.289-1.285,0.594-1.043,0.826-4.306
		c0.226-3.263-2.201-6.644-2.201-6.644s-4.943,2.159-12.375,1.723C202.886,417.741,206.178,414.987,205.344,414.857z"/>
	<path id="path588" fill="#D0D0D0" stroke="#707070" d="M207.69,420.257c6.888-0.319,11.413,0.738,11.413,0.738
		s2.726,5.468,2.611,8.49c-0.112,3.02-1.049,5.591-2.338,4.306c-1.286-1.286,0.597-1.045,0.826-4.306
		c0.229-3.263-2.201-6.644-2.201-6.644s-4.941,2.158-12.375,1.723c-7.432-0.437-5.312-0.88-6.146-1.01
		c-0.831-0.128-1.035,2.058-12.281,2.363c-11.246,0.306-16.979-2.363-16.979-2.363s-1.11,1.604-8.194,2.095s-8.194,0-8.194,0
		c0.184,1.826,1.562,5.29,1.172,9.426c0.276,4.814-1.356,9.175-1.356,9.175c0.184,0.25-0.667,0.378-2.157,0.25
		c1.172-1.048,1.035-4.077,1.172-8.378c0.134-4.301-4.469-10.775-3.512-12.567c0.957-1.791,6.057-0.116,7.022-1.046
		c0.968-0.932-4.542-7.488-3.51-13.615c1.029-6.127,6.866-4.4,14.044-4.189c7.178,0.211,23.077,2.07,26.919,0
		c3.844-2.07,2.182-9.733,5.853-14.661c2.341-3.143,5.853-4.189,9.363-4.189c2.343,0,5.853,8.378,5.853,10.472l-1.169,1.048h-1.172
		v1.048c-2.673,0.268-3.044-2.286-4.681-4.189c-0.703,2.95,2.341,12.567,2.341,18.85
		C210.014,418.318,207.827,420.626,207.69,420.257L207.69,420.257z"/>
	<path id="path592" fill="#D0D0D0" stroke="#707070" d="M185.157,411.178c0.098,2.087-9.047,6.767-9.789,8.62
		c-0.745,1.854,2.324,2.881,1.375,3.938s-1.732,0.665-1.925,0.861c-0.195,0.197-3.44-7.258-3.44-7.258s8.576-3.868,8.252-5.538
		c-0.326-1.668-6.333-2.684-7.426-6.89c-1.094-4.204-0.485-12.327-1.375-14.026c-0.887-1.698-11.413-3.319-11.421-5.887
		c-0.008-2.568,10.819-9.618,11.988-10.666c1.172-1.046,2.341,1.048,1.172,2.095c-1.172,1.048-9.647,7.523-9.647,8.571
		c0,1.048,7.022,2.094,9.363,2.094c2.341,0,3.512-1.046,3.512-2.094c0.014-0.907-2.343-1.048-2.343-3.141
		c0-2.095,1.172-3.143,3.512-3.143c1.172,0,3.42,1.342,3.512,3.143c0.089,1.799-2.084,1.953-2.341,3.141
		c-0.259,1.189,2.341,2.094,4.681,2.094c2.341,0,10.333,6.092,11.502,7.138c1.172,1.048,2.341,1.048,1.172,2.095
		c-1.172,1.048-0.485,2.288-1.657,1.24c-0.996-1.011-1.169-2.095-1.169-2.095c-0.1-0.951-8.679-5.235-9.848-4.189
		c-1.172,1.048,0,13.615,0,14.663C182.816,408.036,185.255,408.029,185.157,411.178L185.157,411.178z"/>
	<rect id="rect604" x="170.229" y="386.899" fill="#A7A7A7" width="14.047" height="14.663"/>
	<path id="rect593" fill="#808080" d="M168.589,369.016l47.133,70.753c0.388,0.583,0.477,1.176,0.201,1.325l0,0
		c-0.279,0.148-0.817-0.206-1.208-0.79l-47.131-70.753c-0.388-0.583-0.48-1.176-0.201-1.324l0,0
		C167.66,368.08,168.201,368.433,168.589,369.016z"/>
	<path id="path594" fill="#D0D0D0" stroke="#707070" d="M173.741,375.377c0,1.156-1.046,2.095-2.341,2.095
		c-1.292,0-2.341-0.939-2.341-2.095s1.049-2.094,2.341-2.094C172.695,373.283,173.741,374.221,173.741,375.377z"/>
	<path id="path596" fill="#808080" d="M214.701,394.442c0,0.868-5.434,1.887-11.706,1.887s-11.703-1.02-11.703-1.887
		s5.432,1.258,11.703,1.258S214.701,393.574,214.701,394.442z"/>
	<rect id="rect603" x="171.401" y="401.561" fill="#A7A7A7" width="11.703" height="4.188"/>
	<path id="path597" fill="#808080" d="M209.453,391.243c-1.135,2.126-2.212,3.642-2.405,3.387c-0.195-0.254,0.569-2.183,1.705-4.309
		c1.133-2.126,2.21-3.642,2.405-3.388C211.35,387.188,210.586,389.117,209.453,391.243z"/>
	<path id="path598" fill="#808080" d="M212.433,396.74c-1.292,1.134-2.369,1.868-2.405,1.641c-0.036-0.229,0.982-1.334,2.274-2.468
		c1.292-1.133,2.369-1.868,2.405-1.639C214.743,394.502,213.724,395.607,212.433,396.74z"/>
	<path id="path599" fill="#808080" d="M210.926,394.091c0.954,1.733,1.582,3.2,1.403,3.275c-0.179,0.077-1.094-1.267-2.048-3.001
		s-1.582-3.2-1.403-3.277C209.057,391.013,209.975,392.357,210.926,394.091z"/>
	<path id="path600" fill="#808080" d="M210.017,403.13c0,0.29-3.669,0.525-8.194,0.525c-4.525,0-8.191-0.234-8.191-0.525
		c0-0.289,3.669-0.523,8.191-0.523C206.348,402.607,210.017,402.841,210.017,403.13z"/>
	<path id="path601" fill="#808080" d="M183.107,402.081c0,0.289-2.62,0.523-5.853,0.523c-3.231,0-5.85-0.234-5.85-0.523
		s2.62-0.523,5.85-0.523C180.487,401.558,183.107,401.792,183.107,402.081z"/>
	<path id="path609" fill="#D0D0D0" stroke="#808080" d="M157.363,438.501c0,0,1.931,4.693,10.16,4.758
		c8.23,0.064,11.061-1.408,7.733-3.893c-3.331-2.484-9.522-1.712-8.721,0.432c0.798,2.146-2.324,2.861-3.058,1.352
		c-0.736-1.508-3.682-5.973,1.618-6.272c5.301-0.299,16.524-1.925,19.33,1.19c2.807,3.114-3.169,5.937,1.347,6.597
		c4.519,0.658,5.161-0.755,12.936-1.182c7.778-0.427,10.743,1.442,13.408,1.182c2.664-0.261,2.288-4.841,0.181-6.003
		c-2.109-1.162-6.157-1.375-7.195-2.649c-1.035-1.275-3.858-0.237-3.596-1.677c0.265-1.44,4.003,0.99,4.045,0.255
		c0.003-0.022,0.619-0.511,0.742-0.633c-0.469-0.107-0.739,0.067-1.091,0.253c0.382-0.305,0.36-0.448,0.488-0.698
		c-0.067-0.095-0.533,0.354-0.611,0.261c-0.078-0.093,0.541-0.732,0.262-0.501c-0.098,0.067-0.837,0.432-0.845,0.181
		c0.011-0.103,0.385-0.366,0.254-0.509c-0.106-0.119-0.67,0.138-0.739,0.167c0.321-0.43,0.298-0.424-0.011-0.742
		c-0.271-0.319-0.466-0.311-0.907,0.049c0.181-0.518,0.232-0.626-0.209-0.823c-0.365-0.197-0.382-0.384-0.834,0.541
		c0.173-0.99-0.29-1.032-0.098-1.502c0.114-0.43,0.717-0.611,1.713-0.516c1.931,0.017,2.963,2.332,3.596,2.325
		c0.63-0.008,1.336-2.454,4.045-1.461s3.041,1.195,4.405,1.784s-0.957,1.488-0.179,2.649c0.778,1.162,6.096,5.041,4.584,9.084
		c-1.509,4.044-5.404,4.683-5.753,6.435c-0.349,1.751,12.325,1.032,15.553,1.622c3.231,0.589,5.264,3.002,5.395,3.407
		c0.131,0.405-5.663,0.378-5.663,0.378s-2.977-1.537-10.071-1.675c-7.094-0.139-9.795-3.002-12.451-3.36
		c-2.656-0.36-8.316,0.601-11.48,0.46c-3.164-0.142-6.369-0.643-8.417-0.921c-2.05-0.279-12.244,4.602-12.211,5.739
		c-2.126-0.081-7.128-0.352-6.921-0.216c0.206,0.135,0.896-2.214,4.796-2.627c3.903-0.413,7.7-2.282,7.574-3.51
		c-0.126-1.228,0.753-5.439,1.08-7.245c0.324-1.807,1.785-2.678,1.437-3.623c-0.346-0.944-4.804-1.919-9.081-1.893
		c-4.277,0.028-9.022,0.268-9.708,1.299c-0.689,1.029-0.17,4.022,0.717,3.676c0.89-0.345-0.215-2.3,0.72-2.703
		c0.935-0.402,3.328-0.759,5.574-0.81c2.249-0.052,6.154,1.912,6.115,2.542c-0.042,0.628,1.258,2.719-0.538,3.514
		c-1.797,0.795-5.474,1.151-8.991,0.974c-3.521-0.179-7.08-1.387-8.364-2.162C158.152,441.023,157.363,438.663,157.363,438.501
		L157.363,438.501z"/>
	<path id="path610" d="M209.473,431.552c0,0.519-0.421,0.939-0.94,0.939c-0.519,0-0.937-0.42-0.937-0.939
		c0-0.519,0.418-0.939,0.937-0.939C209.052,430.614,209.473,431.034,209.473,431.552z"/>
	<path id="path615" fill="#D0D0D0" d="M253.616,417.965l4.558,0.983l7.613-5.21l-0.591,2.736l-3.964,2.649
		c-0.739,0.485-1.473,0.93-2.193,1.334c0.452,0.632,0.954,1.385,1.501,2.265l2.452,3.973l-0.564,2.62l-4.74-8.117l-4.558-0.983
		L253.616,417.965L253.616,417.965z"/>
	<path id="path618" fill="#D0D0D0" d="M245.86,384.453l8.816-4.061l-2.396-5.2l1.18-0.544l5.764,12.511l-1.18,0.544l-2.405-5.221
		l-8.816,4.061L245.86,384.453z"/>
	<path id="path619" fill="#D0D0D0" d="M232.196,367.837l8.118-7.432l1.593,1.74l-0.209,12.567l6.372-5.835l1.49,1.627l-8.115,7.432
		l-1.593-1.741l0.212-12.573l-6.377,5.841L232.196,367.837z"/>
	<path id="path622" fill="#D0D0D0" d="M196.729,353.512l1.331-10.925l2.282,0.279l-1.174,9.635l8.498,1.035l-0.156,1.289
		L196.729,353.512z"/>
	<path id="path623" fill="#D0D0D0" d="M179.282,355.09l-1.97-10.828l2.263-0.411l1.738,9.55l8.42-1.532l0.234,1.278L179.282,355.09
		L179.282,355.09z"/>
	<path id="path626" fill="#D0D0D0" d="M147.024,370.994l-0.806-1.007l5.741-4.609l2.553,3.189c-0.524,1.152-1.166,2.217-1.922,3.193
		c-0.759,0.974-1.632,1.857-2.62,2.648c-1.331,1.066-2.689,1.857-4.067,2.371c-1.378,0.506-2.617,0.639-3.722,0.4
		c-1.099-0.239-1.989-0.781-2.667-1.625c-0.67-0.836-1.018-1.834-1.049-2.996c-0.025-1.172,0.34-2.348,1.094-3.529
		c0.756-1.18,1.808-2.313,3.161-3.395c0.979-0.785,1.944-1.392,2.899-1.822c0.954-0.437,1.802-0.657,2.542-0.658
		c0.737-0.001,1.453,0.193,2.151,0.584l-1.392,1.578c-0.555-0.275-1.082-0.416-1.585-0.423c-0.502-0.008-1.096,0.137-1.774,0.438
		c-0.684,0.297-1.37,0.72-2.053,1.268c-0.82,0.657-1.465,1.306-1.936,1.945c-0.474,0.636-0.792,1.23-0.954,1.784
		c-0.159,0.551-0.215,1.06-0.173,1.532c0.081,0.809,0.371,1.523,0.868,2.144c0.614,0.766,1.331,1.242,2.156,1.426
		c0.834,0.179,1.749,0.075,2.742-0.311c0.996-0.386,1.944-0.94,2.837-1.656c0.778-0.622,1.462-1.324,2.05-2.104
		c0.589-0.784,0.988-1.438,1.2-1.957l-1.283-1.601L147.024,370.994L147.024,370.994z"/>
	<path id="path631" fill="#D0D0D0" d="M146.675,450.122l-8.975,6.372l-6.788-9.56l1.06-0.752l5.457,7.683l2.779-1.972l-4.723-6.651
		l1.06-0.752l4.72,6.651l4.079-2.895L146.675,450.122L146.675,450.122z"/>
	<path id="path634" fill="#D0D0D0" d="M133.446,435.804c1.275-0.36,2.131-1.184,2.561-2.473c0.427-1.295,0.407-2.759-0.053-4.396
		c-0.471-1.664-1.228-2.928-2.271-3.792c-1.049-0.872-2.251-1.115-3.616-0.73c-0.862,0.244-1.548,0.688-2.059,1.332
		c-0.516,0.639-0.826,1.452-0.926,2.441c-0.106,0.985-0.006,2.025,0.307,3.13c0.441,1.565,1.166,2.821,2.168,3.761
		C130.556,436.012,131.85,436.253,133.446,435.804z M134.068,438.092c-1.758,0.495-3.345,0.139-4.757-1.073
		c-1.417-1.208-2.461-2.994-3.125-5.35c-0.435-1.544-0.597-3.002-0.48-4.375c0.117-1.373,0.505-2.498,1.161-3.381
		c0.647-0.89,1.504-1.484,2.561-1.783c1.074-0.304,2.131-0.232,3.175,0.212c1.041,0.446,1.958,1.235,2.748,2.365
		c0.79,1.134,1.389,2.426,1.799,3.878c0.444,1.576,0.6,3.052,0.469,4.426c-0.134,1.377-0.524,2.503-1.177,3.376
		C135.789,437.262,134.997,437.83,134.068,438.092z"/>
	<path id="path637" fill="#D0D0D0" d="M134.988,415.752l-11.003-0.248l0.176-7.704c0.033-1.55,0.162-2.724,0.379-3.525
		c0.212-0.802,0.575-1.438,1.088-1.908c0.511-0.47,1.068-0.7,1.674-0.686c0.781,0.018,1.428,0.432,1.947,1.242
		c0.516,0.812,0.829,2.052,0.937,3.72c0.198-0.603,0.391-1.06,0.58-1.373c0.405-0.663,0.907-1.289,1.504-1.876l3.063-2.955
		l-0.064,2.893l-2.341,2.247c-0.678,0.657-1.194,1.198-1.554,1.625s-0.614,0.812-0.762,1.156c-0.148,0.336-0.254,0.682-0.315,1.036
		c-0.042,0.261-0.07,0.688-0.084,1.278l-0.059,2.669l4.885,0.11L134.988,415.752z M128.896,413.315l0.112-4.945
		c0.022-1.05-0.025-1.872-0.148-2.468c-0.126-0.597-0.338-1.052-0.63-1.367c-0.298-0.315-0.625-0.477-0.979-0.484
		c-0.522-0.013-0.954,0.279-1.306,0.872c-0.349,0.586-0.536,1.521-0.566,2.808l-0.123,5.502L128.896,413.315z"/>
	<path id="path640" fill="#D0D0D0" d="M159.469,364.898l0.075-12.871l2.126-1.272l11.756,5.791l-2.249,1.345l-3.451-1.818
		l-6.235,3.732l0.073,3.84L159.469,364.898L159.469,364.898z M161.45,358.445l5.058-3.026l-3.122-1.684
		c-0.951-0.511-1.693-0.953-2.232-1.325c0.173,0.718,0.265,1.48,0.276,2.285L161.45,358.445z"/>
	<path id="path643" fill="#D0D0D0" d="M214.606,355.002l11.876-4.965l2,1.458l-0.731,13.085l-2.117-1.543l0.324-3.888l-5.872-4.28
		l-3.507,1.569L214.606,355.002z M221.321,354.303l4.762,3.469l0.329-3.532c0.098-1.074,0.215-1.932,0.346-2.57
		c-0.594,0.438-1.258,0.82-1.995,1.145L221.321,354.303z"/>
	<path id="path646" fill="#D0D0D0" d="M250.748,395.275l10.704-2.561l1.794,7.495c0.36,1.507,0.536,2.674,0.527,3.507
		c0,0.829-0.19,1.534-0.564,2.122c-0.374,0.586-0.856,0.949-1.445,1.089c-0.759,0.181-1.493-0.054-2.198-0.707
		c-0.709-0.65-1.325-1.77-1.855-3.359c-0.036,0.636-0.109,1.13-0.209,1.479c-0.223,0.744-0.55,1.474-0.979,2.196l-2.209,3.637
		l-0.675-2.812l1.693-2.77c0.485-0.806,0.848-1.463,1.088-1.966c0.24-0.505,0.385-0.943,0.444-1.314
		c0.056-0.361,0.07-0.723,0.039-1.083c-0.025-0.262-0.109-0.681-0.246-1.257l-0.622-2.595l-4.751,1.138L250.748,395.275z
		 M257.262,396.083l1.152,4.807c0.243,1.022,0.499,1.806,0.77,2.352c0.273,0.544,0.594,0.929,0.957,1.161
		c0.368,0.227,0.725,0.301,1.071,0.218c0.505-0.12,0.854-0.512,1.038-1.175c0.19-0.654,0.134-1.608-0.165-2.861l-1.28-5.35
		L257.262,396.083z"/>
</g>
</svg>
