<?xml version="1.0" encoding="utf-8"?>
<!-- Generator: Adobe Illustrator 16.0.0, SVG Export Plug-In . SVG Version: 6.00 Build 0)  -->
<svg version="1.2" baseProfile="tiny"
	 id="svg378" xmlns:cc="http://creativecommons.org/ns#" xmlns:dc="http://purl.org/dc/elements/1.1/" xmlns:rdf="http://www.w3.org/1999/02/22-rdf-syntax-ns#"
	 xmlns="http://www.w3.org/2000/svg" xmlns:xlink="http://www.w3.org/1999/xlink" x="0px" y="0px" width="512px" height="512px"
	 viewBox="0 0 512 512" xml:space="preserve">
<g>
	<path fill="#2D9C4B" d="M440.32,437.08V70.872H71.681V437.08H440.32z M325.77,143.79c-132.819,38.09-113.899,211.8,10.6,225.06
		C139.18,406.62,111.12,124.14,325.77,143.79z"/>
	<rect x="0" y="511.997" fill="#2D9C4B" width="512" height="0.003"/>
	<rect x="0" y="70.872" fill="#2D9C4B" width="0.001" height="366.208"/>
	<path fill="#FFFFFF" d="M336.369,368.85c-124.499-13.26-143.419-186.97-10.6-225.06C111.12,124.14,139.18,406.62,336.369,368.85z"
		/>
	<polygon fill="#B71401" points="0,70.872 0.001,70.872 0.001,12.19 71.681,12.19 71.681,70.872 440.32,70.872 440.32,12.19 
		512,12.19 512,0 0,0 	"/>
	<polygon fill="#B71401" points="440.32,437.08 71.681,437.08 71.681,499.81 0.001,499.81 0.001,437.08 0,437.08 0,511.997 
		512,511.997 512,499.81 440.32,499.81 	"/>
	<polygon fill="#B71401" points="0.001,499.81 71.681,499.81 71.681,437.08 71.681,70.872 71.681,12.19 0.001,12.19 0.001,70.872 
		0.001,437.08 	"/>
	<polygon fill="#B71401" points="440.32,70.872 440.32,437.08 440.32,499.81 512,499.81 512,437.08 512,70.872 512,12.19 
		440.32,12.19 	"/>
</g>
</svg>
