<?xml version="1.0" encoding="utf-8"?>
<!-- Generator: Adobe Illustrator 16.0.0, SVG Export Plug-In . SVG Version: 6.00 Build 0)  -->
<svg version="1.2" baseProfile="tiny"
	 id="svg378" xmlns:cc="http://creativecommons.org/ns#" xmlns:dc="http://purl.org/dc/elements/1.1/" xmlns:rdf="http://www.w3.org/1999/02/22-rdf-syntax-ns#"
	 xmlns="http://www.w3.org/2000/svg" xmlns:xlink="http://www.w3.org/1999/xlink" x="0px" y="0px" width="512px" height="512px"
	 viewBox="0 0 512 512" xml:space="preserve">
<g>
	<rect x="-0.002" y="170.667" fill="#F41408" width="512" height="170.667"/>
	<rect x="-0.002" y="341.334" fill="#21873B" width="512" height="170.666"/>
	<path d="M511.998,0h-512v170.667h512V0z M433.267,131.273c0.672,1.841-0.229,5.089-3.174,6.163
		c-5.521,2.014-27.974,10.206-51.169,14.08l0.001,0c20.24-11.972,43.763-21.804,47.945-22.913
		C431.054,127.493,432.596,129.433,433.267,131.273z M427.158,116.511c0.827,1.776,0.208,5.09-2.634,6.413
		c-5.328,2.48-26.996,12.568-49.772,18.417v0c19.139-13.664,41.731-25.478,45.804-26.941
		C424.629,112.935,426.331,114.735,427.158,116.511z M419.163,101.222c0.987,1.692,0.679,5.048-2.028,6.628
		c-5.076,2.963-25.717,15.014-47.854,22.946l0.001,0c17.791-15.377,39.193-29.232,43.112-31.066
		C416.314,97.896,418.176,99.531,419.163,101.222z M410.549,87.816c1.13,1.602,1.108,4.972-1.453,6.778
		c-4.804,3.387-24.338,17.159-45.716,26.957l0.001,0c16.41-16.843,36.549-32.478,40.297-34.641
		C407.426,84.745,409.421,86.215,410.549,87.816z M401.038,75.455c1.26,1.501,1.521,4.861-0.881,6.875
		c-4.503,3.777-22.815,19.136-43.298,30.689v0c14.943-18.158,33.701-35.424,37.255-37.893
		C397.669,72.656,399.78,73.954,401.038,75.455z M356.995,154.6l-196.816,0.041v-0.001c22.308-54.325,84.506-80.312,138.831-58.004
		C326.368,107.87,345.749,127.241,356.995,154.6z M383.076,63.677c3.324-2.771,5.541-1.664,6.927-0.28
		c1.386,1.385,1.94,4.709-0.275,6.927c-4.154,4.157-21.048,21.063-40.438,34.368c0,0,0,0,0,0l-0.001,0c0,0,0.001,0,0.001-0.001
		C362.582,85.294,379.753,66.449,383.076,63.677z M377.98,52.395c1.502,1.258,2.346,4.521,0.333,6.924
		c-3.775,4.505-19.125,22.823-37.277,37.773v0l-0.001,0c0,0,0.001,0,0.001-0.001c11.544-20.487,27.002-40.761,30.069-43.813
		C374.173,50.228,376.479,51.137,377.98,52.395z M365.079,42.507c1.606,1.123,2.731,4.3,0.936,6.869
		c-3.367,4.817-17.061,24.407-33.838,40.884v0c9.712-21.417,23.341-42.963,26.131-46.271
		C361.099,40.68,363.474,41.385,365.079,42.507z M351.377,33.791c1.698,0.979,3.096,4.045,1.531,6.761
		c-2.936,5.092-14.869,25.8-30.146,43.677v0c7.809-22.182,19.508-44.834,21.999-48.372
		C347.252,32.318,349.681,32.813,351.377,33.791z M336.904,26.267c1.776,0.826,3.438,3.759,2.116,6.601
		c-2.478,5.33-12.553,27.003-26.206,46.149v0c5.837-22.78,15.508-46.37,17.679-50.112C332.665,25.161,335.127,25.441,336.904,26.267
		z M322.186,20.175c1.841,0.671,3.747,3.451,2.673,6.396c-2.013,5.521-10.197,27.977-22.164,48.22v0
		c3.867-23.195,11.486-47.525,13.33-51.44S320.346,19.504,322.186,20.175z M306.42,15.206c1.894,0.505,4.038,3.105,3.23,6.133
		c-1.515,5.679-7.674,28.772-17.797,49.998v0c1.794-23.448,7.223-48.358,8.711-52.421C302.054,14.852,304.528,14.701,306.42,15.206z
		 M284.906,15.89c1.126-4.179,3.577-4.547,5.506-4.21c1.931,0.336,4.296,2.737,3.758,5.825c-1.01,5.79-5.113,29.336-13.329,51.37v0
		C280.564,45.359,283.78,20.068,284.906,15.89z M270.075,14.317c0.778-4.257,3.19-4.826,5.142-4.649s4.506,2.375,4.224,5.497
		c-0.529,5.853-2.682,29.657-9.057,52.292v-0.001C268.173,44.043,269.297,18.574,270.075,14.317z M253.986,14.002
		c0.41-4.308,2.765-5.082,4.724-5.073s4.693,1.98,4.679,5.114c-0.025,5.877-0.131,29.778-4.543,52.876v0
		C254.637,43.783,253.574,18.31,253.986,14.002z M242.056,9.627c1.952-0.172,4.856,1.538,5.133,4.66
		c0.518,5.854,2.624,29.662,0.367,53.069v0c-6.33-22.648-9.744-47.913-9.733-52.24C237.832,10.788,240.106,9.8,242.056,9.627z
		 M225.937,11.762c1.929-0.342,4.972,1.107,5.52,4.194c1.026,5.787,5.203,29.32,4.998,52.835v0
		c-8.283-22.009-13.89-46.88-14.257-51.191C221.83,13.287,224.008,12.104,225.937,11.762z M209.917,15.338
		c1.892-0.511,5.05,0.666,5.867,3.691c1.533,5.674,7.767,28.747,9.634,52.188l0,0v0.001c0,0,0-0.001,0-0.001
		c-10.189-21.193-17.966-45.474-18.711-49.736C205.961,17.219,208.027,15.849,209.917,15.338z M194.835,20.104
		c1.842-0.67,5.089,0.234,6.16,3.179c2.009,5.523,10.179,27.983,14.03,51.182v0v0.001c0,0,0-0.001,0-0.001
		c-11.953-20.251-21.762-43.783-22.867-47.967S192.995,20.773,194.835,20.104z M180.087,26.194c1.777-0.825,5.09-0.203,6.409,2.64
		c2.475,5.331,12.539,27.01,18.363,49.793l-0.001,0c-13.643-19.153-25.432-41.759-26.891-45.833
		C176.508,28.719,178.311,27.019,180.087,26.194z M165.199,33.937c1.696-0.982,5.051-0.66,6.622,2.052
		c2.944,5.086,14.919,25.77,22.772,47.936c0,0,0,0,0,0v0c0,0,0,0,0-0.001c-15.313-17.847-29.089-39.299-30.91-43.225
		C161.863,36.774,163.505,34.918,165.199,33.937z M151.643,42.582c1.604-1.125,4.976-1.094,6.773,1.473
		c3.373,4.813,17.089,24.386,26.826,45.791l0,0v0c0,0,0,0,0-0.001c-16.797-16.458-32.374-36.641-34.526-40.395
		S150.039,43.706,151.643,42.582z M138.976,52.21c1.503-1.257,4.863-1.515,6.875,0.89c3.771,4.508,19.107,22.839,30.636,43.335
		l-0.001,0c-18.14-14.965-35.382-33.745-37.847-37.301C136.173,55.577,137.474,53.467,138.976,52.21z M126.667,63.393
		c1.385-1.386,4.709-1.942,6.927,0.273c4.158,4.154,21.068,21.044,34.376,40.431l0,0v0c0,0,0,0,0-0.001
		c-19.402-13.288-38.25-30.455-41.022-33.778S125.282,64.778,126.667,63.393z M116.053,74.854c1.264-1.497,4.529-2.33,6.925-0.308
		c4.492,3.791,22.758,19.205,37.646,37.408l-0.001,0c-20.447-11.615-40.668-27.143-43.709-30.222
		C113.872,78.653,114.789,76.351,116.053,74.854z M105.886,87.948c1.126-1.604,4.305-2.723,6.87-0.923
		c4.812,3.376,24.375,17.105,40.822,33.914l-0.001,0c-21.398-9.751-42.92-23.42-46.223-26.216
		C104.052,91.926,104.761,89.551,105.886,87.948z M96.796,102.115c0.976-1.699,4.041-3.101,6.759-1.539
		c5.096,2.928,25.819,14.835,43.716,30.091l-0.001,0c-22.191-7.78-44.858-19.451-48.399-21.938
		C95.328,106.242,95.82,103.813,96.796,102.115z M89.264,116.509c0.824-1.777,3.755-3.441,6.599-2.122
		c5.332,2.473,27.014,12.528,46.171,26.166c0,0,0,0,0.001,0v0c0,0-0.001,0-0.001-0.001c-22.785-5.817-46.383-15.467-50.127-17.635
		C88.161,120.749,88.44,118.286,89.264,116.509z M83.235,130.929c0.673-1.84,3.454-3.744,6.398-2.667
		c5.521,2.017,27.969,10.221,48.202,22.205c-23.193-3.887-47.517-11.526-51.43-13.373C82.491,135.246,82.563,132.769,83.235,130.929
		z M69.083,169v-13.853h20.949c-4.142-0.901-7.083-1.659-8.262-2.088c-4.066-1.481-4.223-3.954-3.722-5.848
		c0.501-1.894,3.096-4.044,6.126-3.243c4.329,1.145,18.772,4.968,34.801,11.179h279.63c15.911-6.445,30.28-10.895,33.467-11.445
		c4.264-0.736,5.629,1.332,6.136,3.224c0.507,1.893-0.677,5.049-3.704,5.859c-1.69,0.453-4.935,1.32-9.264,2.361h25.071V169H69.083z
		"/>
	<path fill="#F31509" d="M299.01,96.636c-54.325-22.308-116.523,3.679-138.831,58.004v0.001l196.816-0.041
		C345.749,127.241,326.368,107.87,299.01,96.636z"/>
	<path fill="#F31509" d="M258.845,66.919c4.412-23.098,4.518-46.999,4.543-52.876c0.015-3.134-2.72-5.105-4.679-5.114
		s-4.313,0.765-4.724,5.073C253.574,18.31,254.637,43.783,258.845,66.919L258.845,66.919z"/>
	<path fill="#F31509" d="M270.384,67.456c6.375-22.635,8.527-46.439,9.057-52.292c0.282-3.122-2.272-5.32-4.224-5.497
		s-4.363,0.392-5.142,4.649C269.297,18.574,268.173,44.043,270.384,67.456L270.384,67.456z"/>
	<path fill="#F31509" d="M280.84,68.875c8.216-22.034,12.319-45.58,13.329-51.37c0.538-3.088-1.827-5.489-3.758-5.825
		c-1.929-0.336-4.38,0.032-5.506,4.21C283.78,20.068,280.564,45.359,280.84,68.875L280.84,68.875z"/>
	<path fill="#F31509" d="M291.854,71.337c10.123-21.226,16.282-44.319,17.797-49.998c0.808-3.028-1.337-5.628-3.23-6.133
		c-1.893-0.505-4.366-0.354-5.855,3.71C299.076,22.979,293.648,47.889,291.854,71.337L291.854,71.337z"/>
	<path fill="#F31509" d="M302.695,74.792c11.967-20.243,20.151-42.699,22.164-48.22c1.074-2.945-0.832-5.725-2.673-6.396
		c-1.84-0.671-4.317-0.74-6.161,3.175S306.562,51.596,302.695,74.792L302.695,74.792z"/>
	<path fill="#F31509" d="M312.814,79.017c13.653-19.146,23.729-40.819,26.206-46.149c1.321-2.842-0.34-5.775-2.116-6.601
		c-1.776-0.826-4.238-1.106-6.411,2.637C328.322,32.647,318.651,56.236,312.814,79.017L312.814,79.017z"/>
	<path fill="#F31509" d="M322.762,84.229c15.277-17.877,27.211-38.585,30.146-43.677c1.564-2.716,0.167-5.783-1.531-6.761
		c-1.696-0.978-4.125-1.473-6.616,2.066C342.27,39.395,330.571,62.047,322.762,84.229L322.762,84.229z"/>
	<path fill="#F31509" d="M332.177,90.26c16.777-16.478,30.471-36.067,33.838-40.884c1.796-2.569,0.671-5.746-0.936-6.869
		c-1.605-1.122-3.98-1.827-6.771,1.481C355.518,47.296,341.889,68.842,332.177,90.26L332.177,90.26z"/>
	<path fill="#F31509" d="M378.313,59.319c2.013-2.402,1.169-5.666-0.333-6.924c-1.501-1.258-3.807-2.167-6.875,0.884
		c-3.067,3.052-18.525,23.326-30.069,43.813C359.188,82.142,374.537,63.824,378.313,59.319z"/>
	<polygon fill="#F31509" points="341.035,97.093 341.035,97.092 341.034,97.093 	"/>
	<polygon fill="#F31509" points="349.29,104.692 349.29,104.692 349.289,104.693 	"/>
	<path fill="#F31509" d="M389.728,70.324c2.216-2.217,1.661-5.542,0.275-6.927c-1.386-1.384-3.603-2.492-6.927,0.28
		c-3.323,2.772-20.494,21.617-33.786,41.015C368.68,91.388,385.573,74.481,389.728,70.324z"/>
	<path fill="#F31509" d="M356.86,113.019L356.86,113.019c20.482-11.552,38.795-26.912,43.298-30.688
		c2.401-2.014,2.141-5.374,0.881-6.875c-1.259-1.501-3.369-2.798-6.924-0.329C390.561,77.595,371.803,94.861,356.86,113.019z"/>
	<path fill="#F31509" d="M363.381,121.55L363.381,121.55c21.377-9.797,40.911-23.569,45.715-26.956
		c2.562-1.806,2.583-5.176,1.453-6.778c-1.128-1.601-3.123-3.071-6.871-0.907C399.93,89.072,379.791,104.707,363.381,121.55z"/>
	<path fill="#F31509" d="M369.281,130.797c22.138-7.933,42.778-19.983,47.854-22.946c2.707-1.58,3.016-4.937,2.028-6.628
		c-0.987-1.691-2.85-3.327-6.77-1.492C408.475,101.564,387.073,115.419,369.281,130.797L369.281,130.797z"/>
	<path fill="#F31509" d="M374.752,141.34c22.776-5.849,44.444-15.937,49.772-18.417c2.842-1.323,3.461-4.636,2.634-6.413
		c-0.827-1.775-2.529-3.576-6.603-2.112C416.484,115.862,393.891,127.676,374.752,141.34L374.752,141.34z"/>
	<path fill="#F31509" d="M378.925,151.515L378.925,151.515c23.194-3.873,45.647-12.065,51.168-14.079
		c2.945-1.074,3.846-4.322,3.174-6.163c-0.671-1.84-2.213-3.78-6.396-2.671C422.688,129.711,399.165,139.543,378.925,151.515z"/>
	<path fill="#F31509" d="M434.504,152.786c3.027-0.811,4.211-3.967,3.704-5.859c-0.507-1.892-1.872-3.96-6.136-3.224
		c-3.187,0.55-17.556,5-33.467,11.445h26.635C429.57,154.106,432.814,153.239,434.504,152.786z"/>
	<path fill="#F31509" d="M247.556,67.356c2.257-23.407,0.15-47.215-0.367-53.069c-0.276-3.122-3.181-4.832-5.133-4.66
		c-1.95,0.173-4.224,1.161-4.233,5.488C237.812,19.443,241.226,44.708,247.556,67.356L247.556,67.356z"/>
	<path fill="#F31509" d="M236.454,68.79L236.454,68.79c0.205-23.515-3.972-47.047-4.998-52.834c-0.548-3.086-3.591-4.536-5.52-4.194
		s-4.106,1.525-3.739,5.837C222.565,21.91,228.171,46.781,236.454,68.79z"/>
	<polygon fill="#F31509" points="225.418,71.218 225.418,71.218 225.418,71.219 	"/>
	<path fill="#F31509" d="M225.418,71.218c-1.867-23.441-8.101-46.515-9.634-52.188c-0.817-3.026-3.976-4.202-5.867-3.691
		c-1.891,0.511-3.956,1.881-3.21,6.144C207.452,25.744,215.229,50.024,225.418,71.218z"/>
	<path fill="#F31509" d="M215.026,74.464c-3.851-23.198-12.021-45.658-14.03-51.182c-1.071-2.945-4.318-3.849-6.16-3.179
		c-1.84,0.669-3.782,2.209-2.677,6.394S203.073,54.213,215.026,74.464z"/>
	<polygon fill="#F31509" points="215.026,74.465 215.026,74.464 215.026,74.466 	"/>
	<path fill="#F31509" d="M204.859,78.626L204.859,78.626c-5.823-22.783-15.888-44.461-18.362-49.792
		c-1.319-2.843-4.632-3.465-6.409-2.64c-1.776,0.825-3.579,2.525-2.119,6.6C179.427,36.867,191.216,59.473,204.859,78.626z"/>
	<polygon fill="#F31509" points="194.594,83.926 194.594,83.925 194.594,83.926 	"/>
	<path fill="#F31509" d="M194.594,83.925c-7.853-22.166-19.828-42.85-22.772-47.936c-1.571-2.712-4.926-3.034-6.622-2.052
		c-1.694,0.981-3.337,2.837-1.516,6.764C165.504,44.626,179.281,66.078,194.594,83.925z"/>
	<path fill="#F31509" d="M185.242,89.846c-9.736-21.405-23.453-40.978-26.826-45.791c-1.798-2.567-5.169-2.598-6.773-1.473
		c-1.604,1.124-3.079,3.115-0.927,6.869S168.445,73.388,185.242,89.846z"/>
	<polygon fill="#F31509" points="185.242,89.847 185.242,89.846 185.242,89.847 	"/>
	<path fill="#F31509" d="M176.486,96.435L176.486,96.435c-11.527-20.496-26.863-38.827-30.635-43.335
		c-2.012-2.404-5.372-2.147-6.875-0.89c-1.502,1.256-2.803,3.366-0.337,6.923C141.104,62.69,158.346,81.47,176.486,96.435z"/>
	<polygon fill="#F31509" points="167.971,104.097 167.97,104.096 167.971,104.097 	"/>
	<path fill="#F31509" d="M167.97,104.096c-13.309-19.387-30.218-36.277-34.376-40.431c-2.218-2.215-5.542-1.659-6.927-0.273
		c-1.385,1.386-2.491,3.603,0.281,6.926S148.568,90.808,167.97,104.096z"/>
	<path fill="#F31509" d="M160.622,111.954L160.622,111.954c-14.887-18.203-33.152-33.617-37.645-37.408
		c-2.396-2.021-5.661-1.189-6.925,0.308s-2.181,3.799,0.86,6.878C119.954,84.811,140.175,100.338,160.622,111.954z"/>
	<path fill="#F31509" d="M107.355,94.722c3.303,2.796,24.824,16.464,46.223,26.216l0.001,0
		c-16.447-16.808-36.011-30.537-40.822-33.914c-2.565-1.8-5.744-0.681-6.87,0.923C104.761,89.551,104.052,91.926,107.355,94.722z"/>
	<path fill="#F31509" d="M98.87,108.729c3.541,2.487,26.208,14.157,48.399,21.938l0.001,0
		c-17.896-15.255-38.62-27.163-43.716-30.091c-2.718-1.562-5.783-0.16-6.759,1.539C95.82,103.813,95.328,106.242,98.87,108.729z"/>
	<path fill="#F31509" d="M91.906,122.917c3.744,2.168,27.342,11.818,50.127,17.635c-19.157-13.637-40.839-23.692-46.171-26.166
		c-2.844-1.319-5.774,0.345-6.599,2.122C88.44,118.286,88.161,120.749,91.906,122.917z"/>
	<polygon fill="#F31509" points="142.034,140.553 142.033,140.553 142.034,140.554 	"/>
	<path fill="#F31509" d="M86.406,137.093c3.913,1.847,28.236,9.486,51.43,13.373c-20.233-11.984-42.682-20.188-48.202-22.205
		c-2.944-1.076-5.726,0.827-6.398,2.667C82.563,132.769,82.491,135.246,86.406,137.093z"/>
	<path fill="#F31509" d="M84.174,143.968c-3.03-0.801-5.625,1.349-6.126,3.243c-0.501,1.894-0.345,4.367,3.722,5.848
		c1.179,0.429,4.12,1.188,8.262,2.088h28.943C102.947,148.936,88.503,145.113,84.174,143.968z"/>
	<polygon points="425.24,155.147 398.606,155.147 118.975,155.147 90.032,155.147 69.083,155.147 69.083,169 450.312,169 
		450.312,155.147 	"/>
</g>
</svg>
