<?xml version="1.0" encoding="utf-8"?>
<!-- Generator: Adobe Illustrator 16.0.0, SVG Export Plug-In . SVG Version: 6.00 Build 0)  -->
<svg version="1.2" baseProfile="tiny"
	 id="svg3337" xmlns:cc="http://creativecommons.org/ns#" xmlns:dc="http://purl.org/dc/elements/1.1/" xmlns:rdf="http://www.w3.org/1999/02/22-rdf-syntax-ns#"
	 xmlns="http://www.w3.org/2000/svg" xmlns:xlink="http://www.w3.org/1999/xlink" x="0px" y="0px" width="512px" height="512px"
	 viewBox="0 0 512 512" xml:space="preserve">
<g id="flag" transform="matrix(.57143 0 0 1 0 15.937)">
	<rect id="rect880" x="0" y="-15.937" fill="#FFFFFF" width="895.999" height="512"/>
	<rect id="rect1200" x="0" y="-15.937" fill="#0B7226" width="300.03" height="512"/>
	<rect id="rect1201" x="597.699" y="-15.937" fill="#BC0000" width="298.301" height="512"/>
</g>
<g id="g877" transform="matrix(.42219 0 0 .42219 -24.916 315.31)">
	<path id="path723" fill="#9C4314" d="M398.4-85.657c0.194-0.254,8.762-15.252,7.747-12.838c3.946,3.026,11.154,0.157,5.924-6.643
		c1.272-2.753,2.88-4.848,4.152-7.601c2.875-5.385-3.282-7.707-5.718-3.983c-1.49,2.852-2.928,4.548-4.418,7.402
		c-7.758-3.682-8.267,4.978-4.554,6.491c-1.647,2.332-4.453,6.176-6.1,8.508C396.42-91.435,397.41-88.546,398.4-85.657L398.4-85.657
		z"/>
	<path id="path724" fill="#9C4314" d="M397.37-89.011c-0.254-0.19-15.377-8.545-12.946-7.564c2.97-3.988,0-11.154-6.724-5.829
		c-2.771-1.235-4.892-2.813-7.661-4.043c-5.424-2.799-7.659,3.391-3.902,5.773c2.875,1.448,4.589,2.861,7.464,4.312
		c-3.571,7.809,5.096,8.198,6.555,4.464c2.357,1.615,11.48,6.902,13.835,8.517C396.866-84.41,394.495-87.982,397.37-89.011
		L397.37-89.011z"/>
	<path id="path721" fill="#9C4314" d="M452.07,2.647c0.049-0.315,0.439-17.584,0.696-14.975c4.911,0.777,9.884-5.177,2.045-8.665
		c-0.19-3.026,0.222-5.635,0.032-8.66c-0.037-6.107-6.558-5.214-6.925-0.78c0.049,3.218-0.409,5.394-0.359,8.612
		c-8.577,0.458-4.899,8.318-0.916,7.878c-0.338,2.836-0.974,7.55-1.309,10.386C447.578-1.488,449.824,0.58,452.07,2.647z"/>
	<path id="path722" fill="#9C4314" d="M449.57,0.186c-0.315-0.046-17.589-0.19-14.984-0.486c0.71-4.922-5.313-9.807-8.69-1.92
		c-3.023,0.231-5.639-0.143-8.663,0.09c-6.102,0.125-5.119,6.632-0.68,6.937c3.217-0.097,5.399,0.328,8.616,0.236
		c0.578,8.568,8.385,4.779,7.89,0.8c2.84,0.301,11.704,1.226,14.545,1.522C449.639,5.095,447.534,2.46,449.57,0.186L449.57,0.186z"
		/>
	<path id="path691" fill="#42B2F3" stroke="#000000" stroke-width="2.5" d="M628.309,59.394c0,0,5.926,7.999,8.591,8.295
		c8.295,0.592,74.058,0,74.058,0c0-0.099,2.371-1.381,2.371-1.483c2.172-2.762,1.973-4.344,4.145-7.108
		c3.456-3.458,8.394-4.543,11.85-7.999c14.813-3.555,28.141-7.108,42.954-9.479c-1.184-8.787-10.071-6.912-14.811-10.367
		c-1.48-1.383-1.187-2.764-0.298-4.147c10.962-5.038,21.921-10.071,32.883-15.109V8.444c-23.304,2.764-44.83,7.305-69.911,8.292
		L634.529,51.99C632.456,54.458,630.384,56.926,628.309,59.394z"/>
	<path id="path610" fill="none" stroke="#000000" d="M391.62-97.902h-0.296c1.485,0,0.303,0.097,0-3.558"/>
	<path id="path611" fill="#008D00" stroke="#286726" stroke-width="4.625" d="M392.89-93.966
		c-4.443-15.701-11.623-29.459-28.382-33.526c-3.141-0.715-5.373-9.687-0.136-9.271c2.963,1.187,0.058-0.562,3.021,0.625
		c2.933,1.046,7.499-1.268,5.614-6.258c0-0.592-5.593-10.52-5.593-10.816c-1.048-1.135,0.897-7.499,5.926-4.147
		c2.369,1.556,4.74,5.206,8.156,5.924c1.258-0.209,2.089-4.11,1.878-7.13c0-0.296,0.296-10.24,0.296-10.24
		c-1.191-5.991,4.113-9.049,8.366-4.566c0.298,1.482-0.035,1.497,0.261,2.978c0.976,1.983,2.16,2.292,3.553,0.296l5.63-5.629
		c3.342-1.242,5.429-2.484,5.628,4.445c0,0-4.61,5.779-6.791,7.875c-1.133,1.675-3.597,3.953,0.678,5.21
		c0.296,0,6.114,0.837,6.114,0.837c3.981,1.654,4.399,6.033,1.466,6.43c0,0-3.102,3.62-8.549,6.639
		c-1.675,1.345-3.053,2.963-1.589,4.812c3.143,1.221,2.144,0.051,7.501,0.051c4.522-1.047,4.103,10.025-4.064,9.275
		c-2.447,0.583-5.672,0.342-6.997,4.249c-0.592,3.042-0.738,8.885-0.738,10.367c-0.507,7.053,0.53,16.83,0.53,17.126
		C395.261-93.373,393.482-95.15,392.89-93.966L392.89-93.966z"/>
	<path id="path612" fill="#008D00" stroke="#286726" stroke-width="4.625" d="M441.379-3.63
		c-0.578-0.738-15.421-17.006-32.568-15.178c-3.199,0.389-8.329-7.305-3.259-8.679c3.187,0.116,0.706-0.34,3.893-0.224
		c2.695-1.89-2.179-7.707-4.381-5.688c-0.199-0.557-5.878,1.217-8.285,0.726c-7.45-0.712-10.705-9.04-5.262-12.195
		c3.386,1.291,9.787,1.411,13.245,0.934c3.421-1.041,1.837-4.154-1.476-4.622c-4.716-0.696-23.737-5.332-22.058-7.638
		c-3.143-5.239-0.023-9.278,5.496-6.495c4.554,2.762,5.086,1.212,3.976-0.851c-1.349-3.914-2.646-2.975-2.845-6.375
		c-0.335-2.188,0.375-4.168,3.606-2.794c1.362-1.147,3.606,7.055,12.074,3.946c1.566,1.309,2.901-8.873,8.778-7.323
		c4.404,1.36,1.395,5.942,2.255,12.41c0.706,4.258,4.962,3.282,5.547,1.071c-0.923-9.789,8.644-9.96,9.738-6.652
		c0.909,2.415,1.728,9,0.569,15.19c-0.629,3.146-0.13,9.389,1.874,10.633c3.37,0.09,1.196-0.675,3.514-4.161
		c3.902-2.512,9.972,6.585,2.868,11.154c-7.492,1.615,4.247,30.16,5.235,31.756C442.827-3.519,441.539-4.946,441.379-3.63z"/>
	<path id="path702" fill="#9C4314" d="M533.401,72.725c0-0.317-2.322-17.436-1.658-14.899c4.973,0,8.952-6.659,0.661-8.878
		c-0.661-2.958-0.661-5.6-1.325-8.558c-0.992-6.023-7.293-4.12-6.96,0.317c0.551,3.169,0.442,5.389,0.995,8.561
		c-8.399,1.795-3.537,8.982,0.331,7.925c0.111,2.852,0.22,7.608,0.331,10.462C528.317,69.343,530.859,71.036,533.401,72.725z"/>
	<path id="path720" fill="#9C4314" d="M533.1,70.708c-0.317,0.005-17.401,2.568-14.875,1.867c-0.069-4.971-6.784-8.854-8.885-0.534
		c-2.949,0.703-5.591,0.74-8.54,1.446c-6.009,1.078-4.018,7.349,0.414,6.955c3.164-0.597,5.385-0.518,8.547-1.115
		c1.913,8.373,9.03,3.407,7.918-0.444c2.852-0.15,11.753-0.625,14.603-0.775C533.937,75.542,531.444,73.271,533.1,70.708z"/>
	<path id="path637" fill="#33B1E9" stroke="#000000" stroke-width="2.625" d="M527.269-22.91
		c41.814,24.683,52.558,21.098,50.814,10.161c2.003,0,2.436,1.746,8.371-2.628c-0.826,16.168,16.781,25.467,27.514,23.515
		c9.685,0.625,8.436,13.434,8.436,13.434c0.59,13.108-3.819,18.405-3.231,31.514c-0.146,0-0.294-1.564-0.442-1.564
		c-11.915-2.834-35.393-3.167-44.185-5.066c40.303-27.493-30.993-28.245-37.373-29.182c-4.816-0.625-1.379-5.311,1.432-6.56
		c22.182-4.376-20.85-25.384-19.731-27.882c-2.628-1.561,0.185-2.813,0.185-2.813C522.004-21.894,524.324-20.995,527.269-22.91
		L527.269-22.91z"/>
	<path id="path643" fill="#983D25" stroke="#000000" stroke-width="3.75" d="M631.679-1.997c-7.27,0-13.122,5.852-13.122,13.122
		c-2.186,9.997-1.874,24.056,0,37.491c0,7.27,5.852,13.122,13.122,13.122c28.951,3.123,60.092,2.188,86.854,0
		c7.27,0,13.122-5.852,13.122-13.122c3.437-11.873,2.5-24.368,0-37.491c0-7.27-5.852-13.122-13.122-13.122
		C689.583-3.246,660.005-4.81,631.679-1.997z"/>
	<path id="path1138" fill="#268728" stroke="#000003" stroke-width="2.5" stroke-linecap="round" stroke-linejoin="round" d="
		M533.889-358.88c-6.604,5.721-13.21,11.442-19.816,17.163c-8.14,3.598-16.987,8.08-10.617,27.249
		c-3.715,24.595,16.101,28.487,33.443,23.355c2.889-6.37,3.807-10.766,6.699-17.137c-7.668-1.18-11.771,1.507-18.731,1.035
		c-4.777-0.766-5.13-4.365-3.361-6.723c7.49-3.716,14.272-7.254,21.762-10.97c-0.176-1.122-0.354-0.296-0.53-1.417
		c-6.194,3.185-10.615,4.247-17.163,6.901c-5.191,1.83-6.664-4.837-4.601-7.786c0,0,13.448-19.287,13.448-19.462
		C535.545-350.728,534.766-357.556,533.889-358.88z"/>
	<path id="path614" fill="#FFFFFF" stroke="#000000" stroke-width="2.5" d="M589.29-21.7c0,5.734-4.649,10.383-10.383,10.383
		s-10.381-4.649-10.381-10.383s4.647-10.383,10.381-10.383S589.29-27.434,589.29-21.7z"/>
	<path id="path615" fill="#FFFFFF" stroke="#000000" stroke-width="2.6515" d="M540.046,17.458c0,5.406-4.383,9.791-9.789,9.791
		c-5.408,0-9.791-4.386-9.791-9.791s4.383-9.789,9.791-9.789C535.663,7.669,540.046,12.052,540.046,17.458z"/>
	<path id="path616" fill="#FFFFFF" stroke="#000000" stroke-width="2.625" d="M783.295,39.407c0,5.408-4.381,9.791-9.789,9.791
		c-5.406,0-9.789-4.383-9.789-9.791c0-5.406,4.383-9.789,9.789-9.789C778.912,29.618,783.295,34.001,783.295,39.407z"/>
	<path id="path1143" fill="#BA4600" stroke="#000000" stroke-linejoin="round" d="M534.83-345.799
		c0.234,5.886,0.393,13.277,0.393,15.529c-0.25-5.504-2.177-9.913-2.891-12.079C533.19-343.763,534.581-345.799,534.83-345.799
		L534.83-345.799z"/>
	<path id="path617" fill="#973100" stroke="#000000" stroke-width="3.8182" d="M630.826,51.278c0,5.408-4.383,9.789-9.789,9.789
		c-5.408,0-9.789-4.381-9.789-9.789c0-5.406,4.381-9.789,9.789-9.789C626.442,41.489,630.826,45.872,630.826,51.278z"/>
	<path id="path618" fill="#973100" stroke="#000000" stroke-width="3.8182" d="M734.057,51.278c0,5.408-4.383,9.789-9.791,9.789
		c-5.406,0-9.789-4.381-9.789-9.789c0-5.406,4.383-9.789,9.789-9.789C729.673,41.489,734.057,45.872,734.057,51.278z"/>
	<path id="path619" fill="#973100" stroke="#000000" stroke-width="3.8182" d="M734.057,3.809c0,5.408-4.383,9.789-9.791,9.789
		c-5.406,0-9.789-4.381-9.789-9.789s4.383-9.789,9.789-9.789C729.673-5.98,734.057-1.599,734.057,3.809z"/>
	<path id="path620" fill="#973100" stroke="#000000" stroke-width="3.8182" d="M631.416,3.809c0,5.408-4.383,9.789-9.789,9.789
		c-5.406,0-9.789-4.381-9.789-9.789s4.381-9.789,9.789-9.789C627.032-5.98,631.416-1.599,631.416,3.809z"/>
	<path id="path621" fill="#008D00" stroke="#286726" stroke-width="4.625" d="M534.86,78.038
		c-0.578-0.738-4.975-13.198-29.823-13.742c-3.495-0.204-5.713,0.8-12.794,0.31c-4.101,0.338-2.494-4.552-0.867-6.31
		c2.695-1.892-9.602-0.969-13.828-0.467c-4.263-0.245-7.129-0.971-9.537-1.462c-7.45-0.712-11.811-5.945-6.368-9.104
		c2.281-2.239,11.554,0.31,15.012-0.169c3.421-1.041,2.942-6.803-0.372-7.27c-4.714-0.699-25.28-2.239-23.603-4.548
		c-3.143-5.237-2.232-7.95,5.938-6.935c4.554,2.762,4.423-0.777,3.315-2.838c-1.351-3.916-8.834-4.522-9.033-7.922
		c-1.219-8.156,4.131-9.252,7.363-7.874c1.365-1.15-6.113-7.527,2.355-10.636c2.103-0.662,6.433-0.148,7.892,7.587
		c4.406,1.362,1.362-5.075,7.337-7.693c5.123-2.147-0.34,22.946,5.767,22.721c5.265,2.142,4.228-13.714,8.635-10.629
		c9.525-2.443,4.915,30.431,9.06,28.446c6.881,6.019,7.601-5.413,9.606-4.166c3.368,0.09,5.612,0.208,3.733,7.767
		c-1.399,5.882,0.694,7.247,1.763,9.606c6.437,14.184,16.094,14.05,19.319,20.577C536.769,82.939,535.02,76.722,534.86,78.038z"/>
	<path id="path622" fill="#009400" stroke="#000000" stroke-width="2.5" d="M653.859,99.853
		c-11.88,9.761-24.223,16.083-28.742,26.244c5.415-0.729,7.506-1.633,11.547-1.124c4.374-9.789,18.135-15.017,26.256-22.932
		c-3.019-0.729-6.039-1.457-9.06-2.186V99.853z"/>
	<path id="path629" fill="#009400" stroke="#000000" stroke-width="2.5" d="M685.639,100.9c10.744,9.923,24.061,15.595,28.745,26.08
		c-5.415-0.729-7.675-1.469-10.902-0.636c-4.376-9.789-18.78-15.505-26.904-23.42C679.599,102.196,682.62,101.629,685.639,100.9
		L685.639,100.9z"/>
	<path id="path630" fill="#FFFFFF" stroke="#000000" stroke-width="2.5" d="M677.52,102.92
		c13.018,7.811,18.213,13.434,26.233,23.432c-3.854,0.231-9.259,1.98-11.237,3.125c-9.685-12.602-17.184-17.08-25.307-24.993
		C670.229,103.753,674.499,103.648,677.52,102.92L677.52,102.92z"/>
	<path id="path827" fill="#FFBA00" stroke="#000000" stroke-width="2.5" stroke-opacity="0.7724" d="M554.63-320.04
		c-5.214,1.434-7.464,5.831-7.939,9.932c-19.213,13.456-5.248,39.946,12.567,34.444c-13.182-19.741,0-30.891,14.663-23.972
		c4.443,3.259,7.541,10.055,7.959,9.636c2.79-6.048,13.825-11.312,13.825-11.312s8.891,1.194,10.494-4.557
		c1.013-3.679,9.197-18.904,9.197-18.904c-9.498-1.955-18.993-3.91-28.488-5.865c-6.565-0.14-13.127-0.279-19.691-0.419
		l-10.471,4.608C555.35-324.213,556.027-322.274,554.63-320.04L554.63-320.04z"/>
	<path id="path631" fill="#D40000" stroke="#000000" stroke-width="2.5" d="M666.901,103.549
		c13.018,7.814,18.988,15.125,27.005,25.122c-3.527,1.043-4.721,6.849-6.699,7.996c-6.25-12.602-16.583-23.341-27.519-34.067
		C662.709,101.87,663.88,104.28,666.901,103.549L666.901,103.549z"/>
	<path id="path627" fill="#FFFFFF" stroke="#000000" stroke-width="2.5" d="M661.981,102.041
		c-13.018,7.809-17.563,12.782-25.583,22.782c3.854,0.234,8.607,2.628,10.587,3.773c9.685-12.602,17.184-17.078,25.305-24.993
		C669.272,102.874,664.999,102.769,661.981,102.041L661.981,102.041z"/>
	<path id="path628" fill="#D40000" stroke="#000000" stroke-width="2.5" d="M672.6,102.67c-13.018,7.811-18.5,15.609-26.517,25.606
		c6.451,4.622,4.881,4.904,6.208,7.511c6.25-12.599,19.997-23.013,30.931-33.741C680.203,101.315,675.621,103.399,672.6,102.67
		L672.6,102.67z"/>
	<path id="path635" fill="#973000" stroke="#000000" stroke-width="2.2433" d="M526.589-18.078
		c-1.559,5.653-10.326,7.784-19.578,4.76c-9.252-3.023-15.488-10.055-13.927-15.706c1.561-5.653,10.328-7.784,19.58-4.76
		C521.916-30.763,528.15-23.731,526.589-18.078z"/>
	<path id="path761" fill="#008D2B" stroke="#005E00" stroke-width="2.5" d="M651.449,86.275
		c-9.384,6.743-22.654,15.752-32.036,22.495c-1.929,1.645,6.504,3.37,9.595,1.86c9.907-6.803,15.116-11.255,25.023-18.056
		c1.888-1.055,3.777-2.11,5.665-3.162C655.652,89.12,655.493,86.566,651.449,86.275z"/>
	<path id="path636" fill="#973000" stroke="#000000" stroke-width="2.5489" d="M583.741,43.078
		c2.075,4.64-2.611,10.904-10.467,13.987c-7.855,3.086-15.907,1.823-17.982-2.82s2.612-10.904,10.469-13.987
		C573.616,37.173,581.666,38.436,583.741,43.078z"/>
	<path id="path756" fill="#008D00" stroke="#000000" stroke-width="2.6276" d="M747.16-17.634
		c0.49-25.747,23.066-3.204,31.932-13.811c20.829-24.549,22.615-26.418,41.018-23.755c49.324,19.381-2.16,64.204-52.57,43.794
		C762.008-14.451,752.693-14.59,747.16-17.634z"/>
	<g id="g660" transform="translate(315.19 -492.21)">
		<path id="path657" fill="#6D390B" d="M617.986,389.723c-0.659,2.877-4.022,4.406-7.515,3.414c-3.49-0.992-5.79-4.129-5.13-7.006
			c0.657-2.878,4.022-4.406,7.513-3.412C616.346,383.709,618.643,386.848,617.986,389.723z"/>
		
			<rect id="rect659" x="612.801" y="393.031" transform="matrix(-0.7553 -0.6553 0.6553 -0.7553 830.4795 1100.9294)" fill="#6D390B" width="15.887" height="4.824"/>
	</g>
	<path id="path1192" fill="#6D390B" d="M858.7-65.686l2.621,3.669l9.051-7.888l-2.618-3.669L858.7-65.686L858.7-65.686z"/>
	<path id="path638" fill="none" stroke="#000000" stroke-width="3.75" stroke-linecap="round" d="M631.679-2.312
		c15.31,4.689,26.557,60.3,41.555,65.298"/>
	<path id="path639" fill="none" stroke="#000000" stroke-width="3.75" stroke-linecap="round" d="M646.36-2.622
		c15.308,4.686,26.244,60.298,41.24,65.296"/>
	<path id="path640" fill="none" stroke="#000000" stroke-width="3.75" stroke-linecap="round" d="M660.729-3.246
		c15.31,4.686,26.557,60.61,41.555,65.608"/>
	<path id="path645" fill="#973000" stroke="#000000" stroke-width="2.2433" d="M807.442,4.336
		c2.075,4.642-2.611,10.904-10.469,13.99c-7.855,3.086-15.905,1.823-17.98-2.82c-2.075-4.642,2.611-10.904,10.467-13.987
		C797.315-1.567,805.367-0.304,807.442,4.336z"/>
	<path id="path650" fill="#DC0000" stroke="#000000" stroke-width="2.3875" d="M865.9-52.92c0.766,2.968-0.564,6.821-5.787,8.168
		c-5.225,1.351-10.129-0.685-10.895-3.655c-0.768-2.97,2.258-7.238,7.483-8.588C861.924-58.344,865.132-55.89,865.9-52.92
		L865.9-52.92z"/>
	<path id="path719" fill="#008D00" stroke="#286026" stroke-width="4.625" d="M636,89.428c-7.747,1.571-25.402,5.396-33.098,20.829
		c-1.397,2.903-13.013,5.154-11.438,0.143c1.816-2.625,2.463-2.854,4.279-5.477c-0.143-3.289-7.668-2.315-7.152,0.625
		c-0.576-0.13-4.217,0.574-5.926,2.339c-4.615,5.891-12.493,5.632-12.22-0.655c2.912-2.156,4.388-4.226,5.847-7.397
		c0.965-3.442-5.769-4.672-7.945-2.133c-4.61,2.41-7.501,5.866-12.986,8.54c-6.107,2.197-11.975-1.716-6.659-4.867
		c4.781-2.35,0.798-7.779-1.536-7.955c-4.027-0.974-20.524,1.811-23.494,0.146c-2.322-0.303-6.569-6.412-1.594-7.504
		c4.506-1.471,12.033,1.649,13.976-7.161c1.945-14.832,25.486,7.589,21.662,1.397c-8.623-12.75,6.056-15.747,10.488-7.062
		c1.807,3.921,10.77,9.733,13.367,8.642c4.888,0.539-9.065-12.352,2.012-14.454c2.526,0.537,7.032,0.729,10.143,5.038
		c2.311,2.225,2.803,11.39,11.45,12.148c1.89-2.79,0.074-1.369-1.615-5.202c-0.014-4.642,7.663-4.263,10.943,3.592
		c3.248,5.996,20.399,1.924,36.091,2.285c5.029-0.823,13.118,3.599-14.596,4.145V89.428z"/>
	<path id="path648" fill="#DC0000" stroke="#000000" stroke-width="2.5" d="M848.529-53.47c2.762,4.24,2.704,10.962-4.758,15.819
		c-7.46,4.857-16.198,4.251-18.958,0.009c-2.762-4.242-0.273-12.509,7.187-17.367C839.459-59.861,845.767-57.713,848.529-53.47z"/>
	<path id="path651" fill="#DC0000" stroke="#000000" stroke-width="2.3875" d="M853.87-71.057c2.584,1.649,4.238,5.373,1.332,9.923
		c-2.901,4.548-7.876,6.403-10.462,4.751c-2.584-1.649-3.282-6.835-0.379-11.385C847.261-72.315,851.281-72.706,853.87-71.057
		L853.87-71.057z"/>
	<path id="path649" fill="#DC0000" stroke="#000000" stroke-width="2.3875" d="M861.73-63.343c1.672,2.57,1.638,6.643-2.884,9.588
		c-4.522,2.942-9.819,2.577-11.491,0.005c-1.672-2.572-0.167-7.582,4.358-10.525C856.232-67.217,860.055-65.912,861.73-63.343z"/>
	<path id="path653" fill="#D90000" stroke="#000000" stroke-width="1.7964" d="M878.548-78.57c1.261,1.931,1.233,4.996-2.17,7.212
		c-3.4,2.216-7.386,1.938-8.646,0.005c-1.258-1.934-0.125-5.704,3.28-7.92c3.4-2.214,6.278-1.233,7.538,0.703H878.548z"/>
	<path id="path633" fill="#FFFFFF" stroke="#000000" stroke-width="2.5" d="M663.579,77.587c-6.655,0.782-10.444,1.194-11.723,6.007
		c-0.71,3.268-0.141,7.543,0.426,11.212c0,4.214,5.318,7.006,11.512,8.207h10.656c4.487,0,12.789-4.393,12.789-8.605
		c0.664-2.382,0.638-6.229,0.638-8.831c0-7.087-5.003-7.527-11.258-8.188L663.579,77.587L663.579,77.587z"/>
	<path id="path654" fill="#008F00" stroke="#286326" stroke-width="4.125" d="M900.18-6.119
		c-0.738-24.597-7.217-60.24,22.976-72.464c3.895-1.015,5.302,1.18,3.976,4.42L900.18-6.119z"/>
	<path id="path656" fill="#008C00" stroke="#286326" stroke-width="4.125" d="M939.2-56.202
		c5.376-10.111,18.657-12.657,23.344-12.343c-9.269,9.474-18.537,32.7-23.744,40.303C931.3-15.33,909.43-6.165,896.31,1.438
		C910.994-18.559,924.516-36.208,939.2-56.202z"/>
	<path id="path692" fill="#009400" stroke="#000000" d="M664.15,77.467c0,0-6.666,1.184-6.814,1.184
		c-0.148,0-5.184,3.257-5.184,3.257s-1.039,6.37-1.039,6.518c0,0.148,1.187,7.258,1.187,7.258l3.111,4.293l8.144,2.813l0.594-25.326
		V77.467z"/>
	<path id="path655" fill="#008D00" stroke="#286326" stroke-width="4.125" d="M896.209,1.391
		c0.884-0.884,17.281-78.199,44.626-87.354c4.418,5.741,2.288,18.227,0.521,24.856C932.961-32.239,912.557-12.452,896.209,1.391z"/>
	<g id="g663" transform="matrix(-.80432 -.59419 -.59419 .80432 1685.2 -40.01)">
		<path id="path664" fill="#6D390B" d="M617.986,389.724c-0.657,2.879-4.022,4.405-7.514,3.413s-5.789-4.13-5.13-7.008
			c0.658-2.876,4.021-4.403,7.512-3.411C616.347,383.711,618.646,386.847,617.986,389.724z"/>
		
			<rect id="rect665" x="612.803" y="397.855" transform="matrix(0.7553 -0.6554 0.6554 0.7553 -107.2702 503.5838)" fill="#6D390B" width="15.887" height="-4.821"/>
	</g>
	<g id="g666" transform="matrix(1.0037 .37206 -.36090 1.0348 410.2 -647.81)">
		<path id="path667" fill="#6D390B" d="M617.987,389.725c-0.659,2.877-4.023,4.406-7.516,3.413
			c-3.491-0.993-5.788-4.131-5.131-7.007c0.657-2.878,4.023-4.406,7.514-3.413C616.346,383.712,618.644,386.847,617.987,389.725z"/>
		<polygon id="rect668" fill="#6D390B" points="616.326,388.418 628.324,398.828 625.165,402.469 613.165,392.06 		"/>
	</g>
	<g id="g669" transform="matrix(-.83426 .67078 -.70314 -.84060 1699.1 -80.203)">
		<path id="path670" fill="#6D390B" d="M617.987,389.725c-0.658,2.876-4.024,4.406-7.516,3.414s-5.789-4.129-5.131-7.008
			c0.659-2.878,4.023-4.404,7.514-3.412C616.347,383.711,618.645,386.849,617.987,389.725z"/>
		<polygon id="rect671" fill="#6D390B" points="616.326,388.416 628.326,398.828 625.167,402.471 613.166,392.061 		"/>
	</g>
	<path id="path682" fill="#008C00" stroke="#286326" stroke-width="3.3559" d="M884.319,24.432c16.8-9.104,6.273,3.669,5.23,10.661
		c-4.964,17.258-9.604,17.367-15.442,20.307c-8.706,7.943-36.602,4.09-49.565,7.365C840.789,50.966,868.072,36.229,884.319,24.432
		L884.319,24.432z"/>
	<path id="path673" fill="#008C00" stroke="#286326" stroke-width="3.3559" d="M859.169,20.43c7.016-5.57,8.167-17.862,7.7-22.12
		c-6.359,9.081-22.631,19.06-27.847,24.308c-8.929,7.689-14.411,28.252-19.217,40.729C833.471,48.636,845.503,35.139,859.169,20.43z
		"/>
	<path id="path675" fill="#008C00" stroke="#286326" stroke-width="4.125" d="M771.811,91.037
		c10.987-3.222,29.714,4.897,32.767,8.466c-13.256-0.002-34.738,9.204-43.812,10.795c-14.478,3.664-54.626-18.986-68.999-22.222
		C715.762,86.867,747.248,94.516,771.811,91.037L771.811,91.037z"/>
	<path id="path759" fill="#00602B" stroke="#004500" stroke-width="2.5" d="M688.169,88.704
		c9.384,6.743,22.654,15.752,32.039,22.495c1.927,1.645-6.504,3.37-9.597,1.857c-9.905-6.8-15.116-11.255-25.021-18.056
		c-1.887-1.052-3.777-2.107-5.665-3.162C683.969,91.549,684.126,88.993,688.169,88.704L688.169,88.704z"/>
	<path id="path674" fill="#008C00" stroke="#286326" stroke-width="3.9395" d="M818.41,62.778
		c1.126-0.426,45.862-60.823,73.674-58.324c1.67,6.627-5.096,16.578-9.25,21.618C864.117,47.757,838.305,57.058,818.41,62.778z"/>
	<g id="g676" transform="matrix(.70997 .80116 -.80594 .74261 688.26 -730.62)">
		<path id="path677" fill="#6D390B" d="M617.987,389.726c-0.659,2.875-4.023,4.403-7.515,3.411
			c-3.492-0.992-5.789-4.127-5.131-7.005c0.657-2.877,4.02-4.406,7.512-3.413C616.347,383.712,618.644,386.849,617.987,389.726z"/>
		<polygon id="rect678" fill="#6D390B" points="616.325,388.417 628.326,398.828 625.164,402.472 613.164,392.061 		"/>
	</g>
	<g id="g679" transform="matrix(-1.0595 .15277 -.17740 -1.0815 1548.5 405.75)">
		<path id="path680" fill="#6D390B" d="M617.988,389.724c-0.659,2.88-4.023,4.406-7.514,3.413c-3.493-0.992-5.791-4.129-5.132-7.004
			c0.659-2.88,4.021-4.407,7.514-3.413C616.349,383.711,618.644,386.848,617.988,389.724z"/>
		<polygon id="rect681" fill="#6D390B" points="616.325,388.417 628.327,398.828 625.165,402.471 613.165,392.06 		"/>
	</g>
	<path id="path660" fill="#DC0000" stroke="#000000" stroke-width="1.8674" d="M445.101-140.67c1.309-1.955,4.33-3.241,8.094-1.132
		c3.763,2.107,5.355,5.801,4.043,7.758c-1.312,1.957-5.542,2.547-9.306,0.439C444.169-135.712,443.789-138.715,445.101-140.67z"/>
	<path id="path684" fill="#008C00" stroke="#286326" stroke-width="3.3559" d="M764.14,82.967
		c18.472-4.885,17.374-13.781,26.004-21.56c-19.98-2.924-35.918,4.147-44.455,8.843c-13.483,8.697-16.971,18.135-28.655,24.637
		C736.952,92.344,745.925,89.485,764.14,82.967L764.14,82.967z"/>
	<path id="path685" fill="#008C00" stroke="#286326" stroke-width="3.9395" d="M703.889,88.373
		c52.838,3.985,44.421-17.466,102.331-16.934c-0.856,6.782-11.912,15.29-17.616,18.472c-25.324,13.39-66.934,19.664-84.71-1.538
		H703.889z"/>
	<path id="path693" fill="#D40000" stroke="#000000" d="M677.039,77.319l0.148,24.882l6.814-2.667c0,0,2.813-4.443,2.813-4.74
		S688,88.722,688,88.574c0-0.148-0.592-7.11-0.592-7.11l-5.184-3.405L677.039,77.319L677.039,77.319z"/>
	<polygon id="rect656" fill="#6D390B" points="457.062,-153.737 448.607,-163.029 451.483,-165.464 459.939,-156.174 	"/>
	<path id="path663" fill="#DC0000" stroke="#000000" stroke-width="2.2073" d="M446.419-148.02c1.434-2.495,4.742-4.137,8.861-1.445
		c4.12,2.69,5.861,7.404,4.425,9.901c-1.434,2.496-6.065,3.252-10.187,0.562C445.402-141.692,444.985-145.522,446.419-148.02
		L446.419-148.02z"/>
	<path id="path658" fill="#DC0000" stroke="#000000" stroke-width="2.0065" d="M469.701-158.43c2.408,0.099,5.019,2.229,4.885,7.075
		c-0.136,4.842-2.755,8.545-5.165,8.445c-2.41-0.098-4.964-3.795-4.83-8.639C464.727-156.394,467.288-158.527,469.701-158.43z"/>
	<path id="path661" fill="#DC0000" stroke="#000000" stroke-width="2.1989" d="M457.851-156.5c2.729-0.717,6.287,0.495,7.568,5.3
		c1.284,4.803-0.555,9.325-3.287,10.041c-2.729,0.716-6.687-2.053-7.969-6.858C452.88-152.821,455.119-155.784,457.851-156.5
		L457.851-156.5z"/>
	<path id="path665" fill="#008D00" stroke="#000000" stroke-width="2.5" stroke-linecap="round" stroke-linejoin="round" d="
		M525.909-79.442c-8.237-20.945-30.72-55.72-53.622-38.959c-25.416,21.923,11.591,56.416,43.151,54.459l10.474-15.5H525.909z"/>
	<path id="path659" fill="#DC0000" stroke="#000000" stroke-width="2.6168" d="M460.52-140.84c4.402-2.96,11.459-3.028,16.703,4.661
		c5.244,7.691,4.774,16.814,0.375,19.772c-4.402,2.961-13.131,0.523-18.375-7.166C453.978-131.26,456.118-137.877,460.52-140.84z"/>
	<path id="path662" fill="#DC0000" stroke="#000000" stroke-width="1.8803" d="M444.24-175.83c2.005-1.35,5.225-1.38,7.617,2.127
		c2.389,3.505,2.177,7.668,0.169,9.018c-2.005,1.349-5.989,0.238-8.38-3.27C441.256-171.46,442.233-174.48,444.24-175.83z"/>
	<path id="path666" fill="#008D00" stroke="#000000" stroke-width="2.6276" d="M595.879-54.518
		c-10.351-18.417-38.601-41.446-67.376-26.712c-34.026,23.88,13.726,59.655,62.597,42.015
		C595.486-43.758,591.494-49.975,595.879-54.518z"/>
	<path id="path668" fill="#008D00" stroke="#000000" stroke-width="2.6276" d="M691.81-43.626
		c-10.351-18.414-65.831-39.353-89.998-21.685c-30.257,33.938,14.145,57.559,73.908,40.759
		C680.104-29.095,687.425-39.083,691.81-43.626z"/>
	<path id="path669" fill="none" stroke="#000000" stroke-width="2.5" stroke-linecap="round" stroke-linejoin="round" d="
		M476.339-112.419c0.296,0,6.222,7.404,6.222,7.404l-0.298-10.367"/>
	<path id="path671" fill="none" stroke="#000000" stroke-width="2.5" stroke-linecap="round" stroke-linejoin="round" d="
		M486.709-97.903l6.222,6.22"/>
	<path id="path672" fill="none" stroke="#000000" stroke-width="2.5" stroke-linecap="round" stroke-linejoin="round" d="
		M508.63-102.05l0.592,7.108l3.851-0.296"/>
	<path id="path676" fill="none" stroke="#000000" stroke-width="2.5" stroke-linecap="round" stroke-linejoin="round" d="
		M508.63-78.352c-1.48-0.888-6.516-5.038-6.516-5.038"/>
	<path id="path678" fill="none" stroke="#000000" stroke-width="2.5" stroke-linecap="round" stroke-linejoin="round" d="
		M494.111-77.76l-8.295-2.665"/>
	<path id="path679" fill="none" stroke="#000000" stroke-width="2.5" d="M478.409-93.461l-7.999-2.665"/>
	<path id="path681" fill="none" stroke="#000000" stroke-width="2.5" stroke-linecap="round" stroke-linejoin="round" d="
		M463.309-98.199h-6.814"/>
	<path id="path683" fill="none" stroke="#000000" stroke-linecap="round" stroke-linejoin="round" d="M495.299-120.71v-8.887"/>
	<path id="path686" fill="none" stroke="#000000" stroke-width="2.5" stroke-linecap="round" stroke-linejoin="round" d="
		M483.45-72.725c-0.888,0-12.44-0.592-12.44-0.592"/>
	<path id="path687" fill="none" stroke="#000000" stroke-width="2.5" stroke-linecap="round" stroke-linejoin="round" d="
		M504.189-64.726l-8.887,2.963"/>
	<path id="path688" fill="none" stroke="#000000" stroke-width="2.5" stroke-linecap="round" stroke-linejoin="round" d="
		M517.519-96.422c0.296-0.296,7.406-3.854,7.406-3.854"/>
	<path id="path689" fill="none" stroke="#000000" stroke-width="2.5" stroke-linecap="round" stroke-linejoin="round" d="
		M497.37-106.5c0-0.296-2.371-9.775-2.371-9.775"/>
	<path id="path694" fill="none" stroke="#000000" stroke-width="2.5" d="M663.429,77.439c-6.655,0.782-10.444,1.194-11.723,6.007
		c-0.71,3.268-0.141,7.543,0.428,11.212c1.184,6.139,5.318,7.006,11.51,8.207H674.3c4.487,0,11.753-2.91,12.937-8.457
		c0.812-2.827,0.493-6.377,0.493-8.979c-0.592-6.495-5.003-7.527-11.26-8.188L663.429,77.439z"/>
	<path id="path695" fill="none" stroke="#000000" stroke-width="2.5" d="M664.159,77.448l-0.211,24.718"/>
	<path id="path696" fill="none" stroke="#000000" stroke-width="2.5" d="M677.15,77.448l-0.21,24.718"/>
	<path id="path699" fill="#008C00" stroke="#286326" stroke-width="2.2464" d="M944.45-133.92
		c3.907-12.849-9.62-15.887-12.632-23.102c-6.178,12.087-4.013,24.395-2.919,30.872c2.533,10.508,11.85,17.774,13.393,26.651
		C945.024-112.753,944.584-120.876,944.45-133.92z"/>
	<path id="path700" fill="#008C00" stroke="#286326" stroke-width="2.9852" d="M962.349-145.851
		c0.264-7.031,9.435-12.065,13.131-13.175c-2.292,13.673,1.823,20.094,0.736,25.701c-0.819,9.155-17.586,23.14-24.713,30.912
		C955.118-117.43,958.734-130.836,962.349-145.851z"/>
	<path id="path698" fill="#008C00" stroke="#286326" stroke-width="3.195" d="M943.039-91.049
		c0.449-0.84-6.979-65.352,11.626-78.739c4.874,2.864,6.47,12.096,6.831,17.161C962.522-130.392,963.253-119.093,943.039-91.049z"/>
	<path id="path712" fill="#DC0000" stroke="#000000" stroke-width="2.7639" d="M569.91-92.582
		c5.322,1.689,10.011,7.494,7.131,16.929c-2.878,9.435-7.335,15.502-14.33,13.395c-9.093-2.105-10.723-10.534-7.848-19.971
		C557.744-91.662,564.586-94.269,569.91-92.582L569.91-92.582z"/>
	<path id="path717" fill="#DC0000" stroke="#000000" stroke-width="3.1678" d="M578.911-102.219
		c1.691,1.184,2.702,3.678,0.638,6.495c-2.063,2.817-5.445,3.793-7.136,2.605c-1.691-1.189-2.024-4.58,0.037-7.402
		C574.511-103.338,577.217-103.408,578.911-102.219z"/>
	<path id="path718" fill="#DC0000" stroke="#000000" stroke-width="3.1678" d="M564.919-105.119c2.022-0.43,4.534,0.527,5.191,3.958
		c0.657,3.43-0.935,6.571-2.956,6.997c-2.022,0.43-4.733-1.638-5.392-5.07C561.104-102.663,562.897-104.694,564.919-105.119z"/>
	<path id="path713" fill="#DC0000" stroke="#000000" stroke-width="3.1678" d="M570.789-97.632c1.98,0.594,3.724,2.639,2.653,5.965
		c-1.071,3.324-3.974,5.311-5.954,4.719c-1.98-0.597-3.363-3.713-2.295-7.036S568.809-98.226,570.789-97.632L570.789-97.632z"/>
	<path id="path714" fill="#DC0000" stroke="#000000" stroke-width="2.5172" d="M573.66-109.519c1.652,0.449,3.107,1.996,2.214,4.511
		c-0.893,2.517-3.317,4.022-4.969,3.571c-1.652-0.449-2.806-2.808-1.915-5.325C569.883-109.274,572.008-109.97,573.66-109.519
		L573.66-109.519z"/>
	<path id="path715" fill="#DC0000" stroke="#000000" stroke-width="3.1704" d="M582.329-94.387c1.807,1.244,2.817,3.608,0.446,5.977
		c-2.371,2.371-6.116,2.935-7.92,1.693c-1.809-1.242-2.04-4.367,0.328-6.736C577.553-95.821,580.523-95.626,582.329-94.387
		L582.329-94.387z"/>
	<path id="path716" fill="#DC0000" stroke="#000000" stroke-width="2.8772" d="M559.589-99.568c1.839-0.222,4.002,0.87,4.302,4.069
		c0.303,3.199-1.376,5.94-3.215,6.16c-1.841,0.222-4.09-1.906-4.393-5.103C555.981-97.641,557.748-99.348,559.589-99.568z"/>
	<path id="path701" fill="none" stroke="#000000" d="M532.029,66.801v-0.296V66.801L532.029,66.801z"/>
	<path id="path750" fill="#FFFFFF" stroke="#000000" stroke-width="2.5" d="M770.939-57.081c10.37,5.531,6.814,18.468-0.592,21.923
		c-0.396-8.494-5.824-11.061-13.922-13.034C760.671-50.563,765.214-58.265,770.939-57.081z"/>
	<path id="path751" fill="#008D00" stroke="#000000" stroke-width="2.6276" d="M671.929-5.356
		c3.814-56.217,46.53-63.036,74.84-53.307c41.457,30.084-0.585,55.079-62.643,56.698C678.595-5.009,677.462-2.314,671.929-5.356z"/>
	<path id="path740" fill="#FFFFFF" stroke="#000000" stroke-width="2.657" d="M684.35-68.517
		c-13.261-0.534-17.263,12.403-12.06,19.157c5.279-7.103,12.033-6.541,21.038-4.103C690.568-57.669,690.596-66.613,684.35-68.517z"
		/>
	<path id="path739" fill="#FFFFFF" stroke="#000000" stroke-width="2.5" d="M691.269-51.692
		c-10.367,5.528-8.158,18.463-0.754,21.919c0.396-8.491,5.827-11.057,13.922-13.032C700.193-45.173,696.996-52.878,691.269-51.692
		L691.269-51.692z"/>
	<path id="path738" fill="#F6AA00" stroke="#000000" stroke-width="2.5" stroke-linecap="round" stroke-linejoin="round" d="
		M772.31-56.012c0.12-4.626-3.53-8.626-7.811-9.271c-5.158-0.629-10.108,2.933-15.266-0.837
		c-0.627-0.421-12.609-10.76-16.046-15.579c-3.44-1.885-10.645-5.42-10.645-5.42c-4.245,5.531-7.233,11.899-13.365,15.544
		c-3.049,1.221-4.212,2.651-9.775,2.197c-5.753-2.69-12.081-4.071-15.368-1.152c2.797,5.542,2.033,12.551,0.851,17.882
		c2.075,1.184,4.358-0.234,6.849,0.322c7.682,0.206,5.729,8.457,8.591,12.012c8.091,2.2,12.204-1.675,13.381-8.274
		c2.142-3.363,8.679-3.8,13.33-5.07c5.036-0.974,11.33-2.574,15.946,0.014c3.812,2.026,6.368,4.471,8.295,8.591
		c0,0,6.07,0.541,12.146-0.592C763.632-49.291,762.884-55.927,772.31-56.012z"/>
	<path id="path741" fill="none" stroke="#000000" stroke-width="2.5" d="M718.66-81.318c0.097,4.446,0.197,8.889,0.296,13.333
		c1.58,4.839,12.343,4.344,13.624,1.184c-0.097-5.038-0.197-10.071-0.296-15.107"/>
	<path id="path742" fill="none" stroke="#000000" stroke-width="2.5" stroke-linecap="round" d="M722.209-52.876
		c2.325-0.786,3.185-7.249,3.185-7.249"/>
	<path id="path743" fill="none" stroke="#000000" stroke-width="2.5" stroke-linecap="round" d="M731.69-54.655l0.592-5.332"/>
	<path id="path744" fill="none" stroke="#000000" stroke-width="2.5" stroke-linecap="round" d="M741.47-54.657l-0.888-5.625"/>
	<path id="path745" fill="none" stroke="#000000" stroke-width="2.5" stroke-linecap="round" d="M715.7-58.802
		c-0.359,0.199-5.036-5.628-3.553-5.036"/>
	<path id="path746" fill="none" stroke="#000000" stroke-width="2.5" stroke-linecap="round" d="M707.1-50.211
		c0.592,0-7.737-8.628-6.257-8.036"/>
	<path id="path747" fill="none" stroke="#000000" stroke-width="2.5" stroke-linecap="round" d="M699.399-66.209
		c-0.215-0.662-0.592-3.849,0.888-3.257"/>
	<path id="path748" fill="none" stroke="#000000" stroke-width="2.5" stroke-linecap="round" d="M717.969-68.191
		c-12.655,10.925-24.572,6.326-26.291,15.514"/>
	<path id="path749" fill="none" stroke="#000000" stroke-width="2.5" stroke-linecap="round" d="M749.3-62.017
		c0.444-0.534,1.966-3.363,0.372-3.356"/>
	<path id="path752" fill="none" stroke="#000000" stroke-width="2.5" stroke-linecap="round" stroke-linejoin="round" d="
		M546.06-56.614c0.164-0.245,9.615-1.025,9.615-1.025l-8.767-5.544"/>
	<path id="path753" fill="none" stroke="#000000" stroke-width="2.5" stroke-linecap="round" stroke-linejoin="round" d="
		M603.649-47.172c0.167-0.245,9.618-1.025,9.618-1.025l-7.508-8.69"/>
	<path id="path754" fill="none" stroke="#000000" stroke-width="2.5" stroke-linecap="round" stroke-linejoin="round" d="
		M626.94-45.597c-0.465-1.506,9.932,0.234,9.618-1.025l-6.565-7.117"/>
	<path id="path755" fill="none" stroke="#000000" stroke-width="2.5" stroke-linecap="round" stroke-linejoin="round" d="
		M614.509-78.743c0.296,0,6.222,7.404,6.222,7.404l-0.298-10.367"/>
	<path id="path757" fill="none" stroke="#000000" stroke-width="2.5" stroke-linecap="round" stroke-linejoin="round" d="
		M792.89-29.31c0.224,0.194-0.056,10.562-0.056,10.562l6.803-7.379"/>
	<path id="path758" fill="none" stroke="#000000" stroke-width="2.5" stroke-linecap="round" stroke-linejoin="round" d="
		M716.96-31.984c0.201,0.215-1.145,9.604-1.145,9.604l10.145-5.383"/>
	<path id="path763" fill="none" stroke="#000000" stroke-width="2.5" stroke-linecap="round" stroke-linejoin="round" d="
		M539.16-80.096l6.22,6.22"/>
	<path id="path764" fill="none" stroke="#000000" stroke-width="2.5" stroke-linecap="round" stroke-linejoin="round" d="
		M527.831-69.736l6.22,6.22"/>
	<path id="path765" fill="none" stroke="#000000" stroke-width="2.5" stroke-linecap="round" stroke-linejoin="round" d="
		M570.26-53.607l8.762-0.782"/>
	<path id="path766" fill="none" stroke="#000000" stroke-width="2.5" stroke-linecap="round" stroke-linejoin="round" d="
		M556.34-44.947l8.776-0.622"/>
	<path id="path767" fill="none" stroke="#000000" stroke-width="2.5" stroke-linecap="round" stroke-linejoin="round" d="
		M619.781-64.881l6.22,6.222"/>
	<path id="path768" fill="none" stroke="#000000" stroke-width="2.5" stroke-linecap="round" stroke-linejoin="round" d="
		M645.68-61.643l6.22,6.222"/>
	<path id="path769" fill="none" stroke="#000000" stroke-width="2.5" stroke-linecap="round" stroke-linejoin="round" d="
		M597.441-72.974l6.22,6.22"/>
	<path id="path770" fill="none" stroke="#000000" stroke-width="2.5" stroke-linecap="round" stroke-linejoin="round" d="
		M532.041-92.724l6.22,6.22"/>
	<path id="path771" fill="none" stroke="#000000" stroke-width="2.5" stroke-linecap="round" stroke-linejoin="round" d="
		M601.549-17l5.755-6.652"/>
	<path id="path772" fill="none" stroke="#000000" stroke-width="2.5" stroke-linecap="round" stroke-linejoin="round" d="
		M630.689-11.495l5.755-6.655"/>
	<path id="path773" fill="none" stroke="#000000" stroke-width="2.5" stroke-linecap="round" stroke-linejoin="round" d="
		M518.78-45.516l8.764-0.782"/>
	<path id="path774" fill="none" stroke="#000000" stroke-width="2.663" stroke-linecap="round" stroke-linejoin="round" d="
		M535.369-51.756c-1.43,0.079,4.437-0.379,6.056,0.268l-8.651-6.19"/>
	<path id="path775" fill="none" stroke="#000000" stroke-width="2.5" stroke-linecap="round" stroke-linejoin="round" d="
		M546.301-33.21l8.762-0.782"/>
	<path id="path776" fill="none" stroke="#000000" stroke-width="2.5" stroke-linecap="round" stroke-linejoin="round" d="
		M650.23-41.708l8.773-0.622"/>
	<path id="path777" fill="none" stroke="#000000" stroke-width="2.5" stroke-linecap="round" stroke-linejoin="round" d="
		M635.341-29.405l8.773-0.622"/>
	<path id="path778" fill="none" stroke="#000000" stroke-width="2.5" stroke-linecap="round" stroke-linejoin="round" d="
		M645.909-74.536c0.296,0,6.222,7.407,6.222,7.407l-0.298-10.367"/>
	<path id="path780" fill="none" stroke="#000000" stroke-width="2.5" stroke-linecap="round" stroke-linejoin="round" d="
		M731.29-48.044l-6.222,6.22"/>
	<path id="path781" fill="none" stroke="#000000" stroke-width="2.5" stroke-linecap="round" stroke-linejoin="round" d="
		M751.689-41.246l-6.22,6.222"/>
	<path id="path782" fill="none" stroke="#000000" stroke-width="2.5" stroke-linecap="round" stroke-linejoin="round" d="
		M742.619-23.761l-6.22,6.22"/>
	<path id="path783" fill="none" stroke="#000000" stroke-width="2.5" stroke-linecap="round" stroke-linejoin="round" d="
		M815.789-22.144l-6.222,6.222"/>
	<path id="path784" fill="none" stroke="#000000" stroke-width="2.5" stroke-linecap="round" stroke-linejoin="round" d="
		M777.269-26.676l-6.22,6.22"/>
	<path id="path785" fill="none" stroke="#000000" stroke-width="2.5" stroke-linecap="round" stroke-linejoin="round" d="
		M815.149-63.909l-6.22,6.222"/>
	<path id="path786" fill="none" stroke="#000000" stroke-width="2.5" stroke-linecap="round" stroke-linejoin="round" d="
		M844.578-21.853l-8.757-0.835"/>
	<path id="path787" fill="none" stroke="#000000" stroke-width="2.5" stroke-linecap="round" stroke-linejoin="round" d="
		M771.029-2.335l0.426-8.79"/>
	<path id="path788" fill="none" stroke="#000000" stroke-width="2.5" stroke-linecap="round" stroke-linejoin="round" d="
		M798.788-42.115l4.478-7.578"/>
	<path id="path789" fill="none" stroke="#000000" stroke-width="2.5" stroke-linecap="round" stroke-linejoin="round" d="
		M812.708-33.7l4.478-7.573"/>
	<path id="path790" fill="none" stroke="#000000" stroke-width="2.5" stroke-linecap="round" stroke-linejoin="round" d="
		M824.299-9.603c-0.192,0.227-9.671-0.074-9.671-0.074l6.794,4.955"/>
	<path id="path791" fill="none" stroke="#000000" stroke-width="2.5" stroke-linecap="round" stroke-linejoin="round" d="
		M692.68-12.235c0.201,0.217-1.145,9.604-1.145,9.604l10.145-5.383"/>
	<path id="path792" fill="none" stroke="#000000" stroke-width="2.5" stroke-linecap="round" stroke-linejoin="round" d="
		M614.639-29.407c1.157-0.858,7.02-2.683,6.703-3.942l-6.238-2.258"/>
	<path id="path828" fill="#9C4314" stroke="#000000" stroke-width="2.5" stroke-linejoin="round" stroke-opacity="0.7724" d="
		M878.809-88.655c4.11,3.187,11.043-33.112,9.979-44.471c0-0.749-1.288-24.839,3.754-42.047c3.185-5.794,3.301-49.203-1.478-60.617
		c3.807-0.32,8.42-1.553,8.986-6.205c-17.579,6.508-21.755-37.157-38.67-62.232c-16.515-25.148-37.016-39.808-58.311-55.068
		c1.661-4.269,4.117-8.273,7.372-12.277c-26.149,13.098-66.897-34.326-127.021-30.784c-13.552,1.351-19.937,2.17-23.404,10.42
		c-11.177,0.948-22.622,3.488-22.652,18.239c0.023,3.534,3.231,9.988,10.42,10.071c9.851,2.836,17.845,0.629,24.512,14.349
		c0.5,3.754,1.265,10.429,1.765,14.183c0,0-8.818-11.172-13.64-13.03c1.279-1.857-0.759-3.133,2.956-6.006
		c-4.513-2.61-12.588-0.486-12.588-0.486s-17.466-8.222-31.534-6.007c0-1.501-2.692-11.391-2.692-11.391
		c-2.489,6.967-7.985,6.59-8.79,13.203c-1.501-4.755-3.534-10.572-5.036-15.327c-4.936,6.743-3.504,14.015-5.255,21.022
		c-1.957,1.593-5.861,1.682-6.844-2.831c-0.5-5.506-1.177-6.057-1.147-12.624c-3.564,6.211-7.837,9.235-9.278,19.96
		c-1.501-4.004-2.295-7.832-3.796-11.835c0.19,13.947-11.838,22.316-23.233,32.107c-3.199,5.923,0.502,6.006,0.752,9.009
		c2.001,1,4.004,2.002,6.005,3.004c3.504-0.25,7.275-0.501,10.777-0.751c1.751,2.252,0.319,2.386,4.992,3.842
		c12.511,3.504,28.173-11.541,40.461,12.099c-5.66,4.708-11.318,15.79-9.542,17.844c2.251,0-4.522,3.185,4.633,0.266
		c-9.558,9.29-16.032,21.507-16.032,22.259c-1.062,2.608,3.851-0.354,2.824,4.387c1.344-3.555,2.271-0.296,2.271-0.296
		c-21.808,23.591-0.729,48.889-3.079,62.516c3.627,5.841,4.078-0.11,8.612-0.756c3.837,16.714,14.811,26.851,21.567,40.118
		c-3.49-1.07-10.423-1.449-14.177,0.14c0.319,6.29,6.007,12.271,10.511,17.769c-3.252,1.002-6.257,2.001-9.509,3.012
		c-6.757,3.5-11.249,7.18-16.004,12.431c-3.171,7.659,15.137,9.521,23.91,10.809c-0.796,2.75-1.918,6.211-0.324,9.232
		c13.802,1.328,29.753-2.753,29.753-3.502c0-0.759,3.458-2.697,3.458-2.697c1.857,3.719,5.945,4.816,7.758,4.288
		c2.609,0,6.657-10.39,4.8-18.352c5.005,6,9.715,15.562,14.72,21.572c1.515,1.589,3.474,0.421,4.726-0.652
		c4.254,6.763,10.127,13.522,14.383,20.272c2.251,2.579,1.767,1.628,4.813,1.818c2.785-0.897,5.154-1.268,6.611-6.669
		c0,0,0.923,0.84,2.234,3.814c3.361,2.392,5.734-3.354,7.592-5.214c1.062-2.563,5.204,0.5,5.204-0.999
		c1.503,0.999,2.487,5.399,3.99,6.398c2.297-0.849,4.58-5.898,4.756-11.26c2.283,4.7,2.986,4.312,4.74,5.57
		c1.501-1.258,1.973-6.157,3.474-7.409c-0.324-2.591,18.033,17.7,18.785,17.7c1.811,1.321,12.188,4.499,14.309,0.789
		c5.181,3.46,19.12,5.602,21.38,0.042c11.473,4.899,24.974-0.59,24.405-6.07c10.464,4.18,26.776,1.388,26.776,0.638
		c1.86-0.217,6.902-5.119,2.126-8.829c-34.789-24.28-86.563-64.48-106.481-74.158c0-7.167-5.422-33.02-11.262-40.141
		c-1.062-3.671,1.33-8.208,4.781-7.943c13.536,12.658,18.458,11.452,25.624,13.492c7.758,6.119,10.543,15.463,18.301,23.972
		c3.655,1.168,7.975,4.871,6.851,1.261c-4.841-12.151-10.693-23.913-25.187-39.711c7.506,3.754,19.805,13.698,28.109,20.903
		c5.535,9.123,7.09,16.389,12.095,27.902c3.629,2.3,7.335,10.784,6.803,3.754c-0.796-13.225-10.071-34.226-10.071-35.728
		c14.746,11.763,14.591,29.994,19.037,41.148c3.849,5.66,5.787,13.18,7.379,11.42c1.857-2.57-4.376-34.411-4.376-34.411
		c-1.002-4.004-1.501-8.54-2.503-12.544c10.973,6.316,14.811,30.418,19.946,59.295c0.014,4.598,1.888,9.641,1.638,12.639
		c2.355,2.91,5.068,10.941,4.945,6.15c0,0,0.007-46.975-3.178-57.767c-0.796-5.749,1.411-15.153,1.411-15.153
		c4.004,19.52,8.274,40.631,12.278,60.15v14.272c2.003,1.999,4.004,3.999,6.007,6.009c1.249-11.769,2.503-23.529,3.754-35.29
		c0,0-4.506-41.297-4.506-42.046v-12.013c-0.09-4.232,3.798-3.421,6.363,1.373c0.5,10.261,0.47,18.398,0.972,28.659
		c1.751,11.756,2.97,20.337,3.928,35.288c0.469,12.248,0.941,41.219,3.534,40.72H878.809z"/>
	<path id="path793" fill="none" stroke="#000000" stroke-width="2.5" stroke-linecap="round" stroke-linejoin="round" d="
		M684.33-20.749c-0.564-1.323-0.969-7.45-2.267-7.437l-3.655,5.542"/>
	<path id="path794" fill="none" stroke="#000000" stroke-width="2.5" stroke-linecap="round" stroke-linejoin="round" d="
		M794.12-54.185l-0.747,6.199"/>
	<path id="path795" fill="none" stroke="#000000" stroke-width="2.5" stroke-linecap="round" stroke-linejoin="round" d="
		M739.511-8.472c-1.429,0.173-7.427-1.136-7.774,0.113l4.307,5.047"/>
	<path id="path823" fill="none" stroke="#000000" d="M647.7-147.351v0.649V-147.351v0.649V-147.351v6.477v4.856
		c0.331,1.605,0.324,3.396,0.324,5.179c0.204,1.372,0.682,3.021,1.295,4.534c0.088,1.92,0.625,3.18,1.295,4.855
		c0.136,1.656,0.703,3.072,1.295,4.534c0.139,1.663,0.678,2.535,0.969,3.886c0.47,1.554,1.039,2.568,1.619,3.562
		c0.423,0.421,0.583,0.842,0.971,0.971"/>
	<path id="path825" fill="none" stroke="#000000" d="M622.441-107.53c0-0.525-0.083-2.114,0.648-3.238
		c1.145-1.628,2.066-2.639,3.56-4.21c1.77-1.124,3.03-2.459,4.534-3.886c1.612-1.027,2.422-1.936,3.886-2.912
		c0.897-0.916,1.934-1.372,2.912-1.943c1.115-0.548,1.927-1.358,3.562-1.617c0.988-0.495,3.035-0.324,4.534-0.324
		c1.543,0,2.084-0.298,3.56-0.324"/>
	<path id="path829" fill="none" stroke="#000000" stroke-width="2.5" stroke-linecap="round" stroke-opacity="0.7724" d="M857.8-220
		c5.003,3.628,10.511,11.513,12.764,25.777"/>
	<path id="path830" fill="none" stroke="#000000" stroke-width="2.5" stroke-linecap="round" stroke-opacity="0.7724" d="
		M829.659-215.14c7.259,6.507,11.353,13.584,16.768,29.531"/>
	<path id="path831" fill="#00C600" stroke="#000000" stroke-width="2.5" stroke-linecap="round" stroke-opacity="0.7724" d="
		M812.13-207.36c4.42,5.047,7.09,10.344,9.509,16.643"/>
	<path id="path832" fill="#00C600" stroke="#000000" stroke-width="2.5" stroke-linecap="round" stroke-opacity="0.7724" d="
		M782.099-223.88c5.755,6.632,15.014,16.768,19.77,27.028"/>
	<path id="path833" fill="none" stroke="#000000" stroke-width="2.5" stroke-opacity="0.7724" d="M659.859-393.24
		c0.421,28.847,42.646,21.812,46.199,48.917c8.082,29.579,4.714,48.688-7.108,58.081c-6.71,6.91-1.578,17.653,0.421,23.17
		c10.973,27.814,27.544,32.292,34.671,56.301"/>
	<path id="path834" fill="none" stroke="#000000" stroke-width="2.5" stroke-linecap="round" stroke-opacity="0.7724" d="
		M644.07-373.55c0-0.554,0.99-1.521,1.971-1.971c4.203-1.369,6.787-1.449,11.087-1.723c3.694,0,7.143,0.163,10.837,0.739"/>
	<path id="path835" fill="none" stroke="#000000" stroke-width="2.5" stroke-opacity="0.7724" d="M698.74-108.751l14.679,23.88"/>
	<path id="path836" fill="none" stroke="#000000" stroke-width="2.5" stroke-opacity="0.7724" d="M745.529-144.28l78.596,60.191"/>
	<path id="path837" fill="none" stroke="#000000" stroke-width="2.5" stroke-opacity="0.7724" d="M743.441-127.769l57.434,50.421"/>
	<path id="path838" fill="none" stroke="#000000" stroke-width="2.5" stroke-opacity="0.7724" d="M635.359-190.31
		c7.564,15.019,28.941,34.966,41.767,38.146c0.437-9.646-0.111-13.372-1.645-20.059"/>
	<path id="path839" fill="none" stroke="#000000" stroke-width="2.5" stroke-opacity="0.7724" d="M659.7-198.86
		c7.564,15.018,14.471,31.022,34.53,40.121c2.084-14.581-2.41-34.421-13.483-54.591"/>
	<path id="path840" fill="none" stroke="#000000" stroke-width="2.5" stroke-opacity="0.7724" d="M663.239-219
		c6.907,4.166,13.155,6.028,17.76,6.576c2.082-14.579,3.907-30.007-7.987-50.881"/>
	<path id="path841" fill="none" stroke="#000000" stroke-width="2.5" stroke-opacity="0.7724" d="M636.68-210.369
		c10.194,11.072,18.417,11.619,23.02,12.167c3.398-9.975,4.825-31.133,0.659-53.934"/>
	<path id="path842" fill="none" stroke="#000000" stroke-width="2.5" stroke-opacity="0.7724" d="M610.269-201.49
		c10.15,13.136,33.554,38.07,46.144,47.131c0.437-2.09,1.087-3.063,0.921-9.747"/>
	<path id="path843" fill="none" stroke="#000000" stroke-width="2.5" stroke-opacity="0.7724" d="M783.619-345.771
		c10.874,12.537,52.836,54.723,61.142,74.468c14.339,32.273,40.78,38.409,47.37,34.796"/>
	<path id="path844" fill="none" stroke="#000000" stroke-width="2.5" stroke-opacity="0.7724" d="M711.719-171.38
		c3.777,15.441,10.633,43.532,20.515,47.971c1.7-1.658,3.139-4.73,2.97-11.42"/>
	<path id="path845" fill="none" stroke="#000000" stroke-width="2.5" stroke-opacity="0.7724" d="M654.711-258.89
		c4.437,4.517,5.44,8.631,10.046,9.181c5.609-4.588,15.488-30.161,11.94-49.039"/>
	<path id="path846" fill="none" stroke="#000000" stroke-width="2.5" stroke-opacity="0.7724" d="M631.429-259.59
		c2.086,10.159,4.032,18.741,11.223,18.819c11.956-9.995,15.486-32.368,11.938-51.245"/>
	<path id="path847" fill="none" stroke="#000000" stroke-width="2.5" stroke-opacity="0.7724" d="M626.801-205.84l-5.385-11.831"/>
	<path id="path848" fill="none" stroke="#000000" stroke-width="2.5" stroke-opacity="0.7724" d="M742.969-110.09l36.043,32.742"/>
	<path id="path849" fill="none" stroke="#000000" stroke-width="2.5" stroke-opacity="0.7724" d="M725.81-123.259l11.121,31.31"/>
	<path id="path850" fill="none" stroke="#000000" stroke-width="2.5" stroke-opacity="0.7724" d="M676.801-151.93
		c7.564,15.02,23.677,36.701,36.503,39.881c0.44-2.082,0.194-3.891,0.028-10.571"/>
	<path id="path851" fill="none" stroke="#000000" stroke-width="2.5" stroke-opacity="0.7724" d="M657.28-154.94
		c7.564,15.01,29.79,39.481,42.616,46.649c0.437-2.079,2.308-2.48,2.142-9.16"/>
	<path id="path852" fill="none" stroke="#000000" stroke-width="2.5" stroke-opacity="0.7724" d="M712.64-112.679l16.06,26.628"/>
	<path id="path853" fill="none" stroke="#000000" stroke-width="2.5" stroke-opacity="0.7724" d="M693.429-179.511
		c6.907,4.167,14.156,7.657,18.761,8.207c0.703-16.236-4.957-42.42-16.578-62.467"/>
	<path id="path854" fill="none" stroke="#000000" stroke-width="2.5" stroke-opacity="0.7724" d="M613.51-264.65
		c-2.052,7.677-1.767,16.07,5.424,16.15c19.955-8.615,8.04-17.199,25.178-46.28"/>
	<path id="path855" fill="none" stroke="#000000" stroke-width="2.5" stroke-opacity="0.7724" d="M639.84-317.47
		c7.564,15.018,9.782,25.229,21.567,29.087c2.359-1.064,8.228-27.609-11.672-49.158"/>
	<path id="path856" fill="none" stroke="#000000" stroke-width="2.5" stroke-opacity="0.7724" d="M664.081-304.951
		c3.886,4.519,9.578,5.599,14.184,5.32c4.506-9-5.128-34.499-17.811-47.685"/>
	<path id="path857" fill="none" stroke="#000000" stroke-width="2.5" stroke-opacity="0.7724" d="M775.539-325.741
		c9.495,13.364,51.154,60.011,69.011,74.901c4.011-0.512,9.949,4.471,4.393-12.389"/>
	<path id="path858" fill="none" stroke="#000000" stroke-width="2.5" stroke-opacity="0.7724" d="M770.86-296.23
		c9.495,13.363,26.88,35.987,44.735,50.878c4.49,1.676,8.831,1.138,10.259-0.03c1.531-1.475,0.136-12.065,0.532-22.839"/>
	<path id="path859" fill="none" stroke="#000000" stroke-width="2.5" stroke-opacity="0.7724" d="M759.549-279.4
		c10.874,11.984,25.227,25.781,42.806,41.776c4.487,1.675,8.366,1.741,8.88-0.03c0.426-1.751,1.24-1.309,0.254-12.084"/>
	<path id="path860" fill="none" stroke="#000000" stroke-width="2.5" stroke-opacity="0.7724" d="M744.38-257.89
		c10.874,11.983,20.813,20.815,30.669,23.018c4.765,0.571,7.265,0.638,7.777-1.133c0.428-1.751,0.136-10.135-0.021-19.806"/>
	<path id="path861" fill="none" stroke="#000000" stroke-width="2.5" stroke-opacity="0.7724" d="M728.931-241.89
		c10.874,11.984,10.883,16.954,20.739,19.156c4.765,0.572,8.292-0.056,9.155-1.684c1.531-3.406,2.068-7.101,1.911-16.772"/>
	<path id="path862" fill="none" stroke="#000000" stroke-width="2.5" stroke-linecap="round" stroke-opacity="0.7724" d="
		M724.52-320.23c10.952,1.993,11.859-7.476,10.973-14.251c-1.08-8.494-7.085-12.211-14.198-10.425"/>
	<path id="path863" fill="none" stroke="#000000" stroke-width="2.5" stroke-linecap="round" stroke-opacity="0.7724" d="
		M718.45-282.721c5.161,1.994,11.646,1.867,14.006-4.044c1.906-4.497,1.191-15.52-5.922-13.735"/>
	<path id="path864" fill="none" stroke="#000000" stroke-width="2.5" stroke-linecap="round" stroke-opacity="0.7724" d="
		M726.169-300.64c9.851,0.614,10.772-3.884,10.42-9.562c-0.389-6.619-4.876-11.658-11.989-9.872"/>
	<path id="path869" fill="none" stroke="#000000" stroke-width="2.5" stroke-opacity="0.7724" d="M735.75-326.38
		c14.383-8.658,55.817,26.062,24.304,37.117"/>
	<path id="path870" fill="none" stroke="#000000" stroke-width="2.5" stroke-opacity="0.7724" d="M732.699-301.78
		c14.385-8.658,46.06,19.667,13.943,30.7"/>
	<path id="path871" fill="none" stroke="#000000" stroke-width="2.5" stroke-opacity="0.7724" d="M727.309-282.241
		c16.06,0.559,34.539,26.333,3.053,29.486"/>
	<path id="path872" fill="none" stroke="#000000" stroke-width="2.5" stroke-linecap="round" stroke-opacity="0.7724" d="
		M708.39-268.47c5.16,1.993,8.142,3.285,12.747-0.694c1.818-1.668,4.217-9.317-2.568-13.56"/>
	<path id="path873" fill="none" stroke="#000000" stroke-width="2.5" stroke-opacity="0.7724" d="M573.931-299.62
		c5.431-7.01,18.706-11.479,23.249-2.197"/>
	<path id="path874" fill="none" stroke="#000000" stroke-width="2.5" stroke-opacity="0.7724" d="M718.08-267.221
		c9.356,3.073,24.239,29.1-0.756,31.754"/>
	<path id="path875" fill="none" stroke="#000000" stroke-width="2.5" stroke-linecap="round" stroke-opacity="0.7724" d="
		M706.149-384.95c10.791,2.04,16.238,19.472,24.836,20.815c15.727,2.345-2.031-18.199-5.433-20.51"/>
	<path id="path876" fill="none" stroke="#000000" stroke-width="2.5" stroke-opacity="0.7724" d="M547.069-310.441
		c4.839,0.198,9.382-0.692,12.442-6.419"/>
	<path id="path883" fill="none" stroke="#000000" stroke-width="2.5" stroke-opacity="0.7724" d="M595.04-260.47
		c2.688,5.011,9.597,3.008,15.308-0.467c7.809-4.467,1.226-20.16,19.846-33.542"/>
	<path id="path884" fill="none" stroke="#000000" stroke-width="2.5" stroke-opacity="0.7724" d="M604.931-194.38
		c10.15,13.136,29.404,32.737,41.404,43.272c0.437-2.079,2.385-3.14,2.216-9.829"/>
	<path id="path885" fill="none" stroke="#000000" stroke-width="2.5" stroke-opacity="0.7724" d="M645.951-152l23.082,32.07"/>
	<path id="path886" fill="none" stroke="#000000" stroke-width="2.5" stroke-opacity="0.7724" d="M694.091-159.73
		c3.775,15.436,18.789,39.886,28.668,44.327c1.702-1.67,2.843-8.29,2.676-14.98"/>
	<path id="path887" fill="none" stroke="#000000" stroke-width="2.5" stroke-opacity="0.7724" d="M688.72-115.519l-1.411,14.309"/>
	<path id="path888" fill="none" stroke="#000000" stroke-width="2.5" stroke-opacity="0.7724" d="M723.28-187.08
		c3.775,15.439,9.449,53.01,18.144,59.82c1.7-1.658,5.211-32.872,5.045-39.56"/>
	<path id="path889" fill="none" stroke="#000000" stroke-width="2.5" stroke-opacity="0.7724" d="M711.61-188.14
		c5.128,0.612,8.117,0.594,12.13,0.551c0.706-16.236-6.329-35.319-17.947-55.366"/>
	<path id="path890" fill="#00C600" stroke="#000000" stroke-width="2.5" stroke-linecap="round" stroke-opacity="0.7724" d="
		M740.209-228.23l-0.8,16.416"/>
	<path id="path891" fill="none" stroke="#000000" stroke-width="2.5" stroke-opacity="0.7724" d="M682.239-235.25
		c5.427,2.093,9.303,2.77,13.612,2.43c4.453-21.986-6.756-22.009-20.725-37.552"/>
	<path id="path892" fill="none" stroke="#000000" stroke-width="2.5" stroke-linecap="round" stroke-opacity="0.7724" d="
		M744.66-381.4c10.788,2.04,3.948,18.177,18.616,23.186c12.31,4.103,5.373-12.867,1.971-15.177"/>
	<path id="path893" fill="none" stroke="#000000" stroke-width="2.5" stroke-opacity="0.7724" d="M728.621-345.15
		c7.784-5.662,35.612,2.175,45.029,10.085c2.697,2.515,6.814,12.555-5.979,21.787"/>
	<path id="path902" fill="none" stroke="#000000" stroke-width="2.5" stroke-opacity="0.7724" d="M581.18-331.851
		c22.34-21.8,32.7-19.318,58.278-3.237c3.669,0.863,7.663,0.108,10.036-1.295c1.295-3.13,0.06-6.319-1.619-8.741
		c-11.441-8.202-19.964-10.577-30.757-9.066"/>
	<path id="path903" fill="none" stroke="#000000" stroke-width="2.5" stroke-opacity="0.7724" d="M613.329-250.95
		c-5.022,7.404-9.13,23.507-0.648,41.442c0.338,2.063,2.505,4.128,0.324,5.504c-4.18,2.106-6.07,5.586-8.417,9.066"/>
	<path id="path904" fill="none" stroke="#000000" stroke-width="2.5" stroke-opacity="0.7724" d="M743.519-136.462
		c0.153-27.164-3.817-48.835-14.651-68.449"/>
	<path id="path905" fill="none" stroke="#000000" stroke-width="2.5" stroke-opacity="0.7724" d="M696.589-242.22
		c3.588-0.382,8.089,0.611,10.302-0.458c1.069-3.968-1.985-8.852-3.204-12.591c2.059-0.229,4.578-0.229,6.181-0.687
		c0.916-3.434,0-8.243,0-12.363"/>
	<path id="path906" fill="#FFFFFF" stroke="#000000" stroke-width="2.5" stroke-opacity="0.7724" d="M562.4-319.55
		c0.863-6.044,6.259-12.736,12.303-16.188c2.914-1.619,4.857,0.324,6.151,0.969c1.619,2.592,0.648,7.447,0,9.39
		c-1.617,3.238-4.855,5.829-10.682,8.095C567.149-318.579,565.421-318.255,562.4-319.55L562.4-319.55z"/>
	<path id="path907" fill="none" stroke="#000000" stroke-width="2.5" stroke-opacity="0.7724" d="M614.211-204.29
		c1.293,0.646,14.244,14.893,14.244,14.893h7.772l0.645-21.692"/>
	
		<path id="path908" fill="none" stroke="#000000" stroke-width="2.5" stroke-linecap="round" stroke-linejoin="round" stroke-opacity="0.7724" d="
		M635.251-246.05c-2.591,8.526-1.619,17.052,0,25.578"/>
	<path id="path909" fill="none" stroke="#000000" stroke-width="2.5" stroke-opacity="0.7724" d="M618.379-205.84l3.035-11.831"/>
	<path id="path910" fill="none" stroke="#000000" stroke-width="2.5" stroke-opacity="0.7724" d="M623.919-250.591
		c-3.886,7.123-4.989,18.825-2.97,27.321"/>
	<path id="path911" fill="none" stroke="#000000" stroke-width="2.5" stroke-opacity="0.7724" d="M729.759-203.25l-7.326,0.147"/>
	<path id="path1170" fill="#9F3000" stroke="#000000" stroke-width="2.5" d="M467.29-230.77c1.029,3.171-2.433,1.469-3.176,2.361
		c-3.636,1.284-9.405-3.172-13.046-13.95c1.776-3.016,12.225-9.503,15.576-8.107c0,0,6.574,2.505,7.363,5.251
		C472.747-241.21,467.066-230.324,467.29-230.77L467.29-230.77z"/>
	<path id="path912" fill="none" stroke="#000000" stroke-width="2.5" stroke-opacity="0.7724" d="M729.759-203.25l0.123-14.423"/>
	<path id="path913" fill="none" stroke="#000000" stroke-width="2.5" stroke-opacity="0.7724" d="M741.669-127.468l2.059,35.187"/>
	<path id="path1153" fill="#238700" stroke="#000000" stroke-width="2.5" d="M467.05-229.54c7.099,6.677,18.253,2.199,20.029,18.508
		c0.761,9.127-12.169,27.38,0,43.86c4.309,6.339,15.465,13.183,15.465,13.183c5.831,6.507,7.605,18.085,11.408,27.127
		c8.026,12,19.099,14.619,27.887,11.663c0,0,28.902-12.93,28.902-13.185c0-0.252-14.702-19.773-14.702-19.52
		s-16.481,13.946-16.735,13.946c-1.774-0.254-11.406,0.759-14.956-11.41c-0.254-15.55-7.943-24.159-20.283-30.423
		c-6.252-4.734-11.237-12.252-5.829-22.816c3.125-9.635,6.252-25.86-4.818-36.763c-7.099-4.733-12.169-8.451-19.777-9.887
		C463.585-241.456,463.67-242.471,467.05-229.54L467.05-229.54z"/>
	<path id="path914" fill="none" stroke="#000000" stroke-width="2.5" stroke-opacity="0.7724" d="M609.971-365.26
		c-3.886,7.122-3.532,11.392-2.884,18.515"/>
	<path id="path915" fill="none" stroke="#000000" stroke-width="2.5" stroke-opacity="0.7724" d="M590.249-330.23h0.324h1.295h7.446
		c2.41-0.064,3.442-0.978,5.181-2.266c1.168-0.66,2.408-1.654,3.56-2.591c0.96-0.687,2.114-1.492,3.238-1.943
		c1.837,0,3.273,0.135,4.857,0.649c1.464,0.614,2.669,1.493,3.884,2.266c1.212,0.485,2.308,0.648,4.21,0.648
		c1.975,0,4.048-0.091,5.827,0.324c1.714,0.115,3.629,0.49,4.857,0.971c1.568,0.988,2.512,2.167,3.562,3.238
		c0.062,1.719,0.627,2.771,0.648,4.531c0,1.506,0.169,3.546-0.324,4.534c0,1.863-0.298,3.186-0.648,4.533
		c-1.191,1.118-1.622,1.982-3.238,2.266c-1.272,0.999-3.178,0.971-5.181,0.971h-5.179c-1.124-0.937-2.489-1.912-3.886-3.237
		c-0.752-1.741-1.247-2.307-2.912-2.913c-1.402-0.22-3.065-0.325-4.857-0.325c-1.582,0-2.898,0.11-3.886-0.646
		c-0.895-0.852-2.181-1.299-3.56-1.619c-1.469-0.416-3.199-0.324-4.857-0.324h-2.591"/>
	<path id="path916" fill="none" stroke="#000000" stroke-width="2.5" stroke-opacity="0.7724" d="M598.669-327.32l0.324,0.324
		c-0.733-0.733-0.465-0.38,1.295,0.325c2.144,0.495,4.45,0.902,6.8,0.97c2.227,0,4.254,0.273,6.474,0.324
		c1.55,0,3.178,0.127,4.534-0.324"/>
	<path id="path917" fill="none" stroke="#000000" stroke-width="2.5" stroke-opacity="0.7724" d="M619.39-332.501h-0.324
		c1.015,0,0.391-0.083-0.971,1.619c-0.132,1.849-0.527,2.869,0.324,4.534c1.055,0.35,2.84,1.135,3.562,1.942
		c1.041,0.745,0.971,1.413,0.971,3.237c-0.625,1.013-1.184,1.826-1.943,3.238c-0.407,1.018-0.937,2.384-1.295,3.561
		c-0.37,1.479-0.627,2.887-0.648,4.534v3.237"/>
	<path id="path918" fill="none" stroke="#000000" stroke-width="2.5" stroke-opacity="0.7724" d="M736.589-370.2
		c0.361,0.692,6.567,13.085,14.279,5.224c1.145-1.339,1.543-2.313,1.543-4.598c0-1.191-0.162-2.578-0.458-3.56"/>
	<path id="path1183" fill="#FFFFFF" stroke="#000000" stroke-width="1.3573" d="M549.75-120.932
		c3.733,5.204,10.522,2.526,11.882-1.64c-4.647,0.303-6.423-2.443-8.063-6.648C552.576-126.809,548.704-123.916,549.75-120.932
		L549.75-120.932z"/>
	<path id="path919" fill="none" stroke="#000000" stroke-width="2.5" stroke-opacity="0.7724" d="M769.349-358.63
		c0,0.241,6.576,6.288,16.525,6.288c2.401,0,13.807-2.881,17.443-7.949"/>
	<path id="path920" fill="none" stroke="#000000" stroke-width="2.5" stroke-opacity="0.7724" d="M783.131-352.8
		c0.146,0.971,0.458,4.514,0.458,6.868c-0.03,2.496,0.567,4.581-0.375,6.662c-1.022,2.651-2.158,3.711-4.663,4.62
		c-2.04,0.924-2.473,0.039-4.744,0.124"/>
	<path id="path921" fill="none" stroke="#000000" stroke-width="2.5" stroke-opacity="0.7724" d="M728.371-365.33
		c0,0.153,7.016,16.818,9.322,18.509"/>
	<path id="path1184" fill="#FFFFFF" stroke="#000000" stroke-width="1.3573" d="M554.309-123.971
		c3.736,5.204,10.522,2.526,11.882-1.64c-4.647,0.303-6.421-2.443-8.061-6.648C557.135-129.849,553.263-126.957,554.309-123.971
		L554.309-123.971z"/>
	<path id="path1185" fill="#FFFFFF" stroke="#000000" stroke-width="1.3573" d="M561.401-127.01
		c3.733,5.204,10.52,2.526,11.882-1.642c-4.647,0.305-6.423-2.443-8.063-6.648C564.225-132.89,560.353-129.997,561.401-127.01
		L561.401-127.01z"/>
	<path id="path922" fill="none" stroke="#000000" stroke-width="2.5" stroke-opacity="0.7724" d="M688.35-373.86h0.458h1.832
		c7.275-1.227,31.717,3.281,35.964,7.78"/>
	<path id="path923" fill="none" stroke="#000000" stroke-width="2.5" stroke-opacity="0.7724" d="M692.93-255.73
		c-0.153-0.153,0.34,2.802,0.19,2.65c0.902,0.902-0.139-2.439-0.648-4.482c-0.763-1.82-0.916-3.021-0.916-5.494v-1.832"/>
	<path id="path924" fill="none" stroke="#000000" stroke-width="2.5" stroke-opacity="0.7724" d="M647.23-147.96v0.65V-147.96v0.65
		v-2.65v8.48v4.849c0.331,1.61,0.324,3.4,0.324,5.179c0.204,1.381,0.682,3.021,1.295,4.543c0.088,1.92,0.625,3.178,1.295,4.848
		c0.136,1.661,0.703,3.081,1.293,4.541c0.141,1.658,0.68,2.528,0.971,3.879c0.47,1.559,1.039,2.572,1.619,3.562
		c0.423,0.43,0.833,2.6,1.221,2.72"/>
	<path id="path925" fill="none" stroke="#000000" stroke-width="2.5" stroke-opacity="0.7724" d="M627.479-167.06v0.324v1.295v7.123
		c0.423,2.147,0.497,4.417,0.971,6.477c0.176,1.85,0.622,3.43,0.971,5.18c0.155,1.73,2.227,7.87,2.914,9.39
		c0.766,1.429,1.899,2.919,2.591,3.881c1.293,0.398,2.35,0.86,3.886,0.969h4.531c1.818-0.349,2.443-0.539,3.238-1.941
		c0.437-0.87,0.409-1.48,0.971-1.938"/>
	<path id="path926" fill="none" stroke="#000000" stroke-width="2.5" stroke-opacity="0.7724" d="M621.98-108.131
		c0-0.527-0.083-2.119,0.648-3.238c1.145-1.631,2.066-2.642,3.56-4.21c1.769-1.131,6.169-7.18,19.428-10.682
		c1.545,0,2.084-0.301,3.562-0.328"/>
	<path id="path927" fill="none" stroke="#000000" stroke-width="2.5" stroke-opacity="0.7724" d="M623.549-137.51
		c0.109,0.109,7.247,3.84,10.95,3.999"/>
	<path id="path1104" fill="none" stroke="#000000" d="M643.941-124.97h-0.356H643.941C643.823-124.97,643.703-124.97,643.941-124.97
		z"/>
	<path id="path1106" fill="#FFBC00" stroke="#000000" stroke-width="2.5" d="M640.76-125.32
		c-1.062-0.708-35.388-10.617-34.68-10.617c0.708,0-12.562,9.023-12.562,9.023l32.732,11.149l13.094-9.555H640.76z"/>
	<path id="path1107" fill="#F7B200" stroke="#000000" stroke-width="2.5" d="M607.961-136.2c2.167-5.505,1.584-12.761-5.505-17.266
		c-16.182-9.925-43.373-9.092-48.545,2.503c-5.588-0.752-8.424,3.753-9.259,8.258c-14.429,3.92-1.08,20.592,2.503,21.265
		c4.848,1.658,6.174,0.442,7.006-1.143c2.699,0.664,6.4-2.223,7.33-4.212c3.428,0.631,6.03,0.569,6.095-2.868
		c9.821,9.204,23.355,15.574,24.861,3.722C597.617-129.361,602.789-132.779,607.961-136.2L607.961-136.2z"/>
	<path id="path1109" fill="none" stroke="#000000" stroke-width="2.5" d="M544.67-142.96c-0.918,6.425,3.396,13.345,10.235,20.021"
		/>
	<path id="path1110" fill="none" stroke="#000000" stroke-width="2.5" d="M553.659-150.971c-0.916,6.423,0.918,17.349,7.758,24.023"
		/>
	<path id="path1111" fill="none" stroke="#000000" stroke-width="2.5" d="M563.799-157.87c-6.28,5.275-2.857,21.596,3.983,28.269"/>
	<path id="path1108" fill="#288800" stroke="#000100" stroke-width="2.5" stroke-linejoin="round" d="M580.599-291.291
		c14.494,19.195-5.773,40.404-23.482,52.624c-20.88,16.422-32.154,48.433,4.668,50.399c13.293-0.245,27.734-1.423,35.86,8.99
		s8.424,29.646-12.042,41.974c-2.005-1.772-4.987-7.05-7.208-8.659c-2.221-1.61-3.68,0.453-5.686-1.316
		c-0.708-6.606,10.087-16.437-0.123-18.813c-13.21,2.241-59.46,2.435-58.87-41.683c1.015-9.832,6.271-20.868,14.707-32.095
		c8.433-11.23,31.557-25.153,33.776-31.249c3.562-5.263-2.949-15.509-8.14-16.925C549.812-299.369,568.569-311.461,580.599-291.291
		L580.599-291.291z"/>
	<path id="path1117" fill="none" stroke="#000000" stroke-width="2.5" d="M548.399-257.321l0.502,25.775"/>
	<path id="path1118" fill="none" stroke="#000000" stroke-width="2.5" d="M534.89-247.06l27.523,4.004"/>
	<path id="path1119" fill="none" stroke="#000000" stroke-width="2.5" d="M555.16-263.07l23.272,4.753"/>
	<path id="path1120" fill="none" stroke="#000000" stroke-width="2.5" stroke-opacity="0.6415" d="M530.66-242.57l19.379,11.476"/>
	<path id="path1121" fill="none" stroke="#000000" stroke-width="2.5" stroke-opacity="0.6415" d="M516.851-218.33l15.132,16.077"/>
	<path id="path1122" fill="none" stroke="#000000" stroke-width="2.5" stroke-opacity="0.6415" d="M530.831-241.511l2.568,38.018"/>
	<path id="path1123" fill="none" stroke="#000000" stroke-width="2.5" stroke-opacity="0.6415" d="M520.39-225.58l24.863,0.507"/>
	<path id="path1125" fill="none" stroke="#000000" stroke-width="2.5" d="M494.379-161.36c3.849-3.648,7.869-8.882,10.356-14.003"/>
	<path id="path1126" fill="none" stroke="#000000" stroke-width="2.5" d="M502.169-154.81c5.202-3.219,11.875-5.756,18.495-7.102"/>
	<path id="path1127" fill="none" stroke="#000000" stroke-width="2.5" d="M511.72-132.691c4.508-3.756,9.359-7.741,12.676-12.974"/>
	<path id="path1128" fill="none" stroke="#000000" stroke-width="2.5" d="M511.901-131.831c7.934-0.192,15.981-1.008,23.802-2.447"
		/>
	<path id="path1129" fill="none" stroke="#000000" stroke-width="2.5" d="M526.059-116.241c5.903-2.221,11.295-5.635,15.664-9.049"
		/>
	<path id="path1130" fill="none" stroke="#000000" stroke-width="2.5" d="M484.999-169.32c4.575-3.694,9.151-7.898,12.875-12.273"/>
	<path id="path1131" fill="none" stroke="#000000" stroke-width="2.5" d="M481.641-181.17c4.973-1.335,9.833-3.862,14.07-6.218"/>
	<path id="path1132" fill="none" stroke="#000000" stroke-width="2.5" d="M483.38-193.511c4.022-1.559,8.727-2.21,13.09-2.466"/>
	<path id="path1133" fill="none" stroke="#000000" stroke-width="2.5" d="M487.13-204.881c4.867-0.479,8.147-0.183,13.013,1.34"/>
	<path id="path1134" fill="none" stroke="#000000" stroke-width="2.5" d="M487.939-212.11c4.027-2.162,8.554-3.57,13.083-2.978"/>
	<path id="path1135" fill="none" stroke="#000000" stroke-width="2.5" d="M485.941-217.45l14.022-9.575"/>
	<path id="path1136" fill="none" stroke="#000000" stroke-width="2.5" d="M483.459-221.41l11.945-11.84"/>
	<path id="path1137" fill="none" stroke="#000000" stroke-width="2.5" d="M480.07-223.05l8.75-14.946"/>
	<path id="path1140" fill="none" stroke="#000000" stroke-width="2.5" d="M514.979-311.401l-0.109,21.3"/>
	<path id="path1141" fill="none" stroke="#000000" stroke-width="2.5" d="M536.53-308c-3.141,6.137-7.538,13.395-13.189,18.815"/>
	<path id="path1142" fill="none" stroke="#000000" stroke-width="2.5" d="M520.63-312.12c-6.257-0.5-12.167,2.888-16.923,6.892"/>
	<path id="path1145" fill="#9D4600" fill-opacity="0.9937" stroke="#000000" stroke-linecap="round" stroke-linejoin="round" d="
		M553.98-295.86c10.397,3.825,24.202,9.083,22.765,39.619c8.607-9.322,12.551-22.408,1.615-38.9
		C571.009-303.09,560.253-304.764,553.98-295.86z"/>
	<path id="path1146" fill="none" stroke="#000000" stroke-width="2.5" d="M558.669-285.68c0.419-5.916,8.695-13.234,13.057-14.848"
		/>
	<path id="path1147" fill="none" stroke="#000000" stroke-width="2.5" d="M561.849-280.33c2.181-7.56,11.607-13.564,15.97-15.177"/>
	<path id="path1148" fill="none" stroke="#000000" stroke-width="2.5" d="M562.051-269.61c4.025,0.062,19.263-8.388,22.749-13.421"
		/>
	<path id="path1149" fill="none" stroke="#000000" stroke-width="2.5" d="M563.3-275.25c4.899-3.406,14.103-11.114,18.463-12.728"/>
	<path id="path1150" fill="none" stroke="#000000" stroke-width="2.5" d="M576.75-269.08c3.669-2.089,4.922-1.575,8.767-5.532"/>
	<path id="path1151" fill="none" stroke="#000000" stroke-width="2.5" d="M553.98-295.68c10.458,3.406,23.244,11.114,22.407,39.438"
		/>
	<path id="path1154" fill="none" stroke="#000000" stroke-width="2.5" stroke-opacity="0.6415" d="M519.171-186.24l14.23-17.252"/>
	<path id="path1155" fill="none" stroke="#000000" stroke-width="2.5" stroke-opacity="0.6415" d="M520.94-182.69l12.71-0.013"/>
	<path id="path1156" fill="none" stroke="#000000" stroke-width="2.5" stroke-opacity="0.6415" d="M513.85-199.931l17.781,10.129"/>
	<path id="path1157" fill="#9D4600" stroke="#000000" d="M537.789-201.65c-3.403-0.315-5.357-0.963-8.316-2.059
		c1.395,22.915,3.68,24.09,7.302,32.735c10.834,6.869,29.584,5.265,37.523,3.551c0.854,1.198,5.544,7.02,2.658,8.712
		c-3.109,1.951-4.372,5.732-4.485,11.845c1.837,2.069,3.752,0.272,5.621,1.603c1.869,1.331,4.071,6.042,5.804,10.097
		c0,0,23.041-15.838,19.305-30.736c-2.454-13.996-11.917-18.761-11.917-18.761c-13.377-6.689-32.182-2.253-39.043-4.817
		C543.708-191.376,538.337-198.752,537.789-201.65L537.789-201.65z"/>
	<path id="path1158" fill="none" stroke="#000000" stroke-width="2.5" d="M575.749-161.22c11.542-5.268,23.746-5.699,27.056-5.215"
		/>
	<path id="path1159" fill="none" stroke="#000000" stroke-width="2.5" d="M530.609-191.83c2.505-1.466,6.192-4.597,10.439-4.531"/>
	<path id="path1160" fill="none" stroke="#000000" stroke-width="2.5" d="M551.841-166.59c2.049-12.14,7.252-20.339,9.932-22.388"/>
	<path id="path1161" fill="none" stroke="#000000" stroke-width="2.5" d="M558.771-165.64c2.049-12.14,7.723-20.811,10.404-22.861"
		/>
	<path id="path1162" fill="none" stroke="#000000" stroke-width="2.5" d="M566.499-166.43c2.052-12.14,7.254-20.022,9.935-22.071"/>
	<path id="path1163" fill="none" stroke="#000000" stroke-width="2.5" d="M572.33-167.38c2.049-12.14,8.829-18.13,11.51-20.181"/>
	<path id="path1164" fill="none" stroke="#000000" stroke-width="2.5" d="M576.209-163.94c2.052-12.14,12.361-18.885,15.042-20.935"
		/>
	<path id="path1165" fill="none" stroke="#000000" stroke-width="2.5" d="M576.53-162.05c7.027-10.108,18.579-15.019,21.877-15.731"
		/>
	<path id="path1167" fill="none" stroke="#000000" stroke-width="2.5" d="M544.58-168.16c2.049-12.14,7.409-18.76,10.09-20.811"/>
	<path id="path1168" fill="none" stroke="#000000" stroke-width="2.5" d="M537.65-170.37c2.049-12.14,8.357-18.287,11.038-20.338"/>
	<path id="path1113" fill="none" stroke="#000000" stroke-width="2.5" d="M573.66-145.43c5.447-4.286,9.151,9.555,9.421,11.235
		c0.271,1.677,1.288,3.386,3.999,4.952"/>
	<path id="path1169" fill="none" stroke="#000000" stroke-width="2.5" d="M533.389-178.73c2.209-6.149,7.097-12.927,9.777-14.977"/>
	<path id="path1112" fill="#FFFFFF" stroke="#000000" stroke-width="2.657" d="M563.26-157.31
		c-7.071,11.23,1.089,21.146,10.245,17.17c-1.05-7.763-3.037-12.693,4.043-20.159C572.529-160.001,568.021-161.778,563.26-157.31z"
		/>
	<path id="path1171" fill="none" stroke="#000000" stroke-width="2.5" d="M536.59-239.89l3.345,16.499"/>
	<path id="path1172" fill="none" stroke="#000000" stroke-width="2.5" d="M539.94-224.73l-6.021,20.289"/>
	<path id="path1173" fill="none" stroke="#000000" stroke-width="2.5" d="M575.499-160.16c12.454-2.428,24.419,0.001,27.526,1.247"
		/>
	<path id="path1174" fill="none" stroke="#000000" stroke-width="2.6888" d="M574.03-158.17c12.764-0.185,23.894,5.028,26.638,7.077
		"/>
	<path id="path1175" fill="none" stroke="#000000" stroke-width="2.6707" d="M574.16-155.8c12.28,2.793,17.783,9.019,19.93,11.649"
		/>
	<path id="path1176" fill="none" stroke="#000000" stroke-width="2.6707" d="M573.311-152.97
		c11.015,6.1,13.495,11.105,14.825,14.228"/>
	
		<rect id="rect1177" x="394.177" y="-95.017" transform="matrix(-0.9736 0.2284 -0.2284 -0.9736 765.4283 -250.5328)" fill="#296526" width="6.075" height="28.102"/>
	<path id="path1179" fill="#296526" d="M440.25-1.507l12.419,14.147l4.64-3.923l-11.66-14.653L440.25-1.507L440.25-1.507z"/>
	<path id="path1180" fill="#296526" d="M819.379,58.927L803.99,69.769l3.407,5.029l15.812-10.03L819.379,58.927L819.379,58.927z"/>
	<path id="path1181" fill="#296526" d="M900.559-8.756L886.831,4.128l4.076,4.506l14.258-12.139L900.559-8.756L900.559-8.756z"/>
	<path id="path1182" fill="#296526" d="M944.08-99.626l-4.994,12.324l2.729,3.534l5.371-11.727L944.08-99.626L944.08-99.626z"/>
	<path id="path1186" fill="none" stroke="#000000" stroke-width="2.5" d="M537.479-169.7c-6.666-10.971-7.511-22.449-7.846-33.673
		c3.544,1.689,6.329,2.616,8.353,2.025"/>
	<path id="path1187" fill="none" stroke="#000000" stroke-width="2.5" d="M514.26-312.04c-5.489-13.725,0.849-21.161,7.693-27.678"
		/>
	<path id="path1188" d="M523.205-343.54c1.157,1.463,0.453,4.114-1.568,5.922c-2.022,1.808-4.598,2.088-5.753,0.625
		c-1.156-1.463-0.453-4.115,1.568-5.923C519.474-344.724,522.05-345.003,523.205-343.54z"/>
	<path id="path1189" fill="none" stroke="#000000" stroke-width="3.25" d="M487.659-239.051c-1.147,0-21.033-2.676-21.033-2.676"/>
	<path id="path1190" fill="none" stroke="#000000" stroke-width="3.25" d="M479.249-224.52c0-0.766-13.002-16.827-13.002-16.827"/>
</g>
</svg>
