<?xml version="1.0" encoding="utf-8"?>
<!-- Generator: Adobe Illustrator 16.0.0, SVG Export Plug-In . SVG Version: 6.00 Build 0)  -->
<svg version="1.2" baseProfile="tiny"
	 id="svg378" xmlns:cc="http://creativecommons.org/ns#" xmlns:dc="http://purl.org/dc/elements/1.1/" xmlns:rdf="http://www.w3.org/1999/02/22-rdf-syntax-ns#"
	 xmlns="http://www.w3.org/2000/svg" xmlns:xlink="http://www.w3.org/1999/xlink" x="0px" y="0px" width="512px" height="512px"
	 viewBox="0 0 512 512" xml:space="preserve">
<g id="flag" transform="matrix(.50098 0 0 1.0013 0 15.301)">
	<rect id="rect149" x="0.001" y="-15.281" fill="#E80008" width="1021.999" height="511.34"/>
	<rect id="rect299" x="0.001" y="21.244" fill="#FFFFFF" width="1021.999" height="36.525"/>
	<rect id="rect300" x="0.001" y="94.293" fill="#FFFFFF" width="1021.999" height="36.525"/>
	<rect id="rect301" x="0.001" y="167.34" fill="#FFFFFF" width="1021.999" height="36.525"/>
	<rect id="rect302" x="0.001" y="240.39" fill="#FFFFFF" width="1021.999" height="36.525"/>
	<rect id="rect303" x="0.001" y="313.44" fill="#FFFFFF" width="1021.999" height="36.525"/>
	<rect id="rect304" x="0.001" y="386.49" fill="#FFFFFF" width="1021.999" height="36.526"/>
	<rect id="rect305" x="0.001" y="459.54" fill="#FFFFFF" width="1021.999" height="36.525"/>
</g>
<g id="g4539" transform="matrix(.51574 0 0 .51574 -.96191 7.5535)">
	<rect id="rect298" x="0" y="-15.937" fill="#000689" width="507.72" height="292.811"/>
	<g id="g4518">
		<path id="path297" fill="#FFEE00" d="M257.759,232.94c-54.626,30.397-122.92,9.857-152.44-45.2
			C75.804,132.682,96.182,63.85,150.81,34.1c33.777-18.395,70.876-18.76,104.581-0.667c-19.02-4.578-36.005-4.331-54.459,1.15
			c-53.759,15.97-84.663,73.362-68.979,128.111c15.682,54.744,72.043,86.214,125.8,70.244L257.759,232.94z"/>
		<polygon id="polygon291" fill="#FFEE00" points="238.945,61.858 295.908,95.855 276.8,32.334 313.364,87.679 323.716,22.156 
			332.64,87.892 370.395,33.34 349.921,96.441 407.605,63.669 361.776,111.638 427.968,107.142 365.864,130.481 427.449,155.146 
			361.376,149.23 406.16,198.168 349.197,164.171 368.303,227.695 331.741,172.348 321.387,237.868 321.387,237.868 
			312.463,172.135 274.71,226.691 295.185,163.585 237.501,196.358 283.329,148.389 217.138,152.885 279.241,129.545 
			217.655,104.881 283.729,110.797 		"/>
	</g>
</g>
</svg>
