<?xml version="1.0" encoding="utf-8"?>
<!-- Generator: Adobe Illustrator 16.0.0, SVG Export Plug-In . SVG Version: 6.00 Build 0)  -->
<svg version="1.2" baseProfile="tiny"
	 id="svg912" xmlns:cc="http://creativecommons.org/ns#" xmlns:dc="http://purl.org/dc/elements/1.1/" xmlns:rdf="http://www.w3.org/1999/02/22-rdf-syntax-ns#"
	 xmlns="http://www.w3.org/2000/svg" xmlns:xlink="http://www.w3.org/1999/xlink" x="0px" y="0px" width="512px" height="512px"
	 viewBox="0 0 512 512" xml:space="preserve">
<g>
	<polygon fill="#009A00" points="511.984,159.955 511.984,0 0,0 209.954,159.955 	"/>
	<polygon fill="#FFFFFF" points="230.979,175.973 511.984,175.973 511.984,159.955 209.954,159.955 	"/>
	<polygon points="336.01,255.992 231.033,335.969 511.984,335.969 511.984,175.973 230.979,175.973 	"/>
	<polygon fill="#FFFFFF" points="210.008,351.987 511.984,351.987 511.984,335.969 231.033,335.969 	"/>
	<polygon fill="#FFCA00" points="210.008,351.987 0,511.983 511.984,511.983 511.984,351.987 	"/>
	<path fill="#FF0000" d="M131.536,224.717l-1.827-2.04c-0.827,0.339-1.737,0.505-2.767,0.505c-0.53,0-1.097-0.042-1.785-0.129
		c-0.149-0.02-0.286-0.091-0.386-0.204l-3.889-4.348l-0.567,6.859c-0.01,0.122-0.056,0.239-0.132,0.335l-7.957,10.078l15.753,0.058
		L131.536,224.717z"/>
	<path fill="#FF0000" d="M231.033,335.969l104.977-79.977l-105.031-80.019l-21.025-16.018L0,0v159.955v0.041v15.977v159.996v16.019
		v159.996l210.008-159.996L231.033,335.969z M147.315,175.41l14.623,45.582l1.054-1.021c0.124-0.12,0.296-0.18,0.463-0.176
		l5.397,0.246l7.085-6.596l0.272-4.486c0.018-0.284,0.223-0.52,0.501-0.575c0.282-0.054,0.56,0.083,0.684,0.338
		c0.622,1.271,3.444,2.485,4.399,2.786c0.036-0.039,0.075-0.081,0.118-0.127c0.556-0.595,1.395-1.494,2.371-1.494
		c0.328,0,0.808,0.107,1.232,0.616c0.893,1.259,0.638,1.954,0.303,2.561c-0.032,0.059-0.06,0.11-0.083,0.155l0.342,0.256
		l28.934-20.44c0.267-0.189,0.634-0.141,0.843,0.112c0.208,0.252,0.187,0.623-0.049,0.849l-26.888,25.815
		c-0.04,0.039-0.084,0.071-0.133,0.098c-0.798,0.436-2.041,0.331-2.88-0.134l-15.896,13.472c-0.136,0.116-0.315,0.166-0.491,0.143
		c-0.176-0.024-0.333-0.123-0.433-0.271c-0.918-1.369-1.893-2.199-3.208-2.72l-0.72,0.626l1.554,4.844l63.441-0.289l-41.763,30.107
		l6.202,20.353c0.005,0.017-0.002,0.032,0.001,0.049c6.444,7.396,11.109,12.751,11.233,12.89c0.112,0.126,0.171,0.294,0.16,0.462
		c-0.207,3.002-0.916,3.92-3.99,5.166c-0.246,0.101-0.529,0.034-0.705-0.167l-11.411-13.009c-0.142,0.079-0.302,0.12-0.463,0.075
		c-0.043-0.013-1.969-0.555-4.95-1.16l14.061,42.618l-51.228-37.505l-51.162,37.514l13.634-41.443h-6.937
		c-0.047,0-0.088-0.021-0.133-0.03l-11.846,14.216c-0.042,0.051-0.092,0.094-0.147,0.129c-0.567,0.356-1.149,0.537-1.728,0.537
		c-0.575,0-1.165-0.179-1.754-0.529c-0.059-0.035-0.111-0.079-0.156-0.132l-8.652-10.145c-0.07-0.071-0.123-0.159-0.153-0.258
		c-0.07-0.233-0.001-0.486,0.182-0.648l13.823-12.204c1.777-1.228,3.495-1.494,5.535-1.677l7.556-7.558
		c0.117-0.118,0.276-0.184,0.442-0.184h0.578l0.25-1.069c-0.117,0.011-0.238-0.009-0.347-0.066
		c-0.223-0.117-0.354-0.356-0.332-0.607l0.479-5.513l-41.942-30.191l23.719,0.087l16.827-23.856c0.091-0.128,0.226-0.218,0.38-0.251
		l3.601-0.771c0.084-0.018,0.172-0.019,0.257-0.001c0.026,0.005,2.587,0.528,4.647,0.528c1.539,0,1.976-0.287,2.089-0.402
		c0.909-5.766,4.558-6.631,6.662-6.631c1.069,0,2.245,0.211,3.401,0.61c0.098,0.034,0.186,0.092,0.256,0.168l8.525,9.278
		L147.315,175.41z"/>
	<path fill="#FFCA00" d="M107.01,264.819l1.337-0.168l3.242-13.825c0.026-0.111,0.082-0.213,0.162-0.295
		c0.669-0.683,4.029-4.106,4.459-4.455c0.036-0.028,0.074-0.053,0.114-0.073c3.909-1.953,17.264-3.573,17.831-3.641
		c0.048-0.006,0.093,0.013,0.141,0.019l5.319-4.432c0.19-0.159,0.458-0.19,0.681-0.078c0.222,0.112,0.357,0.345,0.343,0.594
		c-0.017,0.3,0.002,0.584,0.053,0.854c0.025-0.114,0.083-0.222,0.173-0.309l1.854-1.81l-11.183-12.483l-3.557,11.115l-15.753-0.058
		l-15.196,19.248c-0.117,0.148-0.294,0.235-0.483,0.238c-0.232-0.021-0.369-0.081-0.489-0.226L84.741,241.4
		c-0.18-0.217-0.192-0.529-0.03-0.76l3.495-4.955l-23.719-0.087l41.942,30.191l0.035-0.403
		C106.49,265.092,106.717,264.855,107.01,264.819z"/>
	<path fill="#FFCA00" d="M143.517,242.761c0.403-0.247,0.771-0.521,1.156-0.808c0.327-0.244,0.661-0.493,1.026-0.73
		c-0.029-0.042-0.059-0.085-0.088-0.128c-0.036-0.051-0.071-0.103-0.106-0.154c-0.203,0.147-0.405,0.299-0.607,0.45
		c-0.389,0.292-0.778,0.583-1.177,0.849c-0.258,0.172-0.603,0.129-0.811-0.103c-0.383-0.426-0.707-0.775-1.031-1.125
		c-0.323-0.349-0.647-0.698-1.028-1.122C141.293,241.07,142.348,241.97,143.517,242.761z"/>
	<path fill="#FFCA00" d="M159.267,237.816l-3.483,3.716c0.249,0.286,0.623,0.715,1.097,1.259c1.632-0.132,3.253-0.22,4.824-0.22
		c11.659,0,17.757,3.579,18.011,3.731c0.05,0.03,0.095,0.067,0.135,0.11l3.856,4.131c0.065,0.069,0.113,0.153,0.141,0.244
		l4.54,14.899l41.763-30.107l-63.441,0.289l-1.554-4.844l-4.707,4.093C160.406,236.408,160.07,236.911,159.267,237.816z"/>
	<path fill="#FFCA00" d="M154.678,233.903l-0.259-0.518c-0.027,0.038-0.058,0.073-0.092,0.104l-3.308,2.979
		c0.099,0.115,0.187,0.22,0.264,0.316C151.985,236.232,153.365,235.055,154.678,233.903z"/>
	<path fill="#FFCA00" d="M135.072,214.597c0.145,0.158,0.199,0.38,0.143,0.587l-0.682,2.504
		c1.627,1.839,11.592,13.101,13.395,15.129c0.817-0.59,2.821-2.572,3.736-3.477c0.756-0.748,1.011-0.997,1.14-1.09
		c0.14-0.101,0.314-0.14,0.483-0.108c0.169,0.032,0.317,0.132,0.41,0.277l0.547,0.854l0.357-1.076
		c0.032-0.095,0.086-0.181,0.158-0.251l7.178-6.954l-14.623-45.582l-12.463,38.947L135.072,214.597z"/>
	<path fill="#FFCA00" d="M156.192,291.287c-0.038,0.049-0.076,0.098-0.128,0.133c-3.125,2.139-6.062,3.207-8.913,3.207
		c-2.733,0-5.388-0.981-8.06-2.943c-0.06-0.044-0.106-0.098-0.146-0.156H109.77l-13.634,41.443l51.162-37.514l51.228,37.505
		l-14.061-42.618c-3.828-0.778-9.395-1.661-14.945-1.661C163.953,288.683,159.477,289.563,156.192,291.287z"/>
	<path fill="#FFFFFF" d="M121.335,260.856c0.221-0.198,0.551-0.213,0.79-0.033l0.628,0.471l1.269-1.088l0.208-0.835
		c0.03-0.118,0.093-0.226,0.183-0.308c3.673-3.392,6.05-5.562,7.602-6.953l-8.588,6.871c-0.231,0.186-0.562,0.184-0.791-0.008
		l-0.519-0.433v0.467c0,0.187-0.083,0.362-0.227,0.481l-13.71,11.347l-0.507,2.162L121.335,260.856z"/>
	<path fill="#FFFFFF" d="M116.201,280.702l-0.075-0.207l-2.243-1.981c-0.133-0.118-0.21-0.287-0.211-0.465s0.074-0.348,0.206-0.468
		l5.402-4.889c0.115-0.104,0.265-0.161,0.419-0.161h2.625c0.364-0.361,1.348-1.568,2.242-2.718l-1.119-1.438l-1.747,1.358
		c-0.163,0.246-0.173,0.378-0.162,0.409c0.001,0.002,0.077,0.191,0.749,0.374c0.307,0.04,0.543,0.303,0.543,0.62
		c0,0.348-0.282,0.65-0.634,0.625c-0.018,0-0.036,0-0.053-0.001c-0.436-0.03-0.783-0.069-1.13-0.108
		c-0.254-0.029-0.509-0.059-0.803-0.083l-9.907,8.804c0.002,0.25-0.018,0.526-0.064,0.817
		C110.496,281.159,112.764,280.894,116.201,280.702z"/>
	<path fill="#FFFFFF" d="M140.58,290.857c1.589,1.532,3.985,2.442,6.542,2.442c2.584,0,5.211-0.898,7.637-2.584
		c-1.725-2.047-4.087-3.646-6.83-4.886C143.884,287.787,141.569,289.846,140.58,290.857z"/>
	<path fill="#FFFFFF" d="M119.747,290.277c-0.048-0.057-0.095-0.114-0.121-0.186l-2.974-8.154c-3.75,0.193-6.213,0.488-6.304,0.499
		c-0.162,0.018-0.314-0.03-0.436-0.116c-0.181,0.418-0.437,0.848-0.796,1.272l-5.394,6.678l-0.006,0.007H119.747z"/>
	<path fill="#FFFFFF" d="M141.97,253.31c-0.129,0.11-0.3,0.163-0.467,0.146c-0.169-0.017-0.324-0.102-0.43-0.235l-3.103-3.93
		l-0.099,0.344l2.148,3.101c0.126,0.182,0.146,0.417,0.053,0.619c-0.093,0.201-0.286,0.338-0.507,0.359
		c-0.025,0.002-2.499,0.262-3.704,1.759c-0.534,0.664-0.738,1.459-0.624,2.433c0.207,1.757,5.792,3.448,12.146,4.669l0.098-13.967
		L141.97,253.31z"/>
	<path fill="#FFFFFF" d="M129.205,280.676c7.341,0.426,13.353,1.599,18.027,3.487l0.068-9.627
		c-8.229-2.273-17.704-7.896-19.984-9.294l-0.94,1.254l2.081,3.236c0.154,0.239,0.126,0.553-0.067,0.762l-5.937,6.431l1.011,3.583
		C125.296,280.514,127.226,280.562,129.205,280.676z"/>
	<path fill="#FFFFFF" d="M146.365,285.176c-6.788-2.623-15.425-3.349-22.542-3.399l1.367,4.844c0.072,0.255-0.025,0.527-0.241,0.681
		l-4.216,2.977h18.62C140.368,289.033,142.653,287.061,146.365,285.176z"/>
	<path fill="#FFFFFF" d="M180.473,280.708l-30.226-34.458l-1.758,1.5l-0.106,15.012c3.023,0.552,6.162,0.994,8.938,1.284
		c0.325,0.034,0.569,0.313,0.56,0.64c-0.273,9.601-0.345,10.166-0.991,10.199c-0.986,0.408-2.175,0.614-3.539,0.614
		c-1.545,0-3.261-0.265-5.052-0.703l-0.067,9.501C154.993,281.314,165.551,278.938,180.473,280.708z"/>
	<path fill="#FFFFFF" d="M149.437,285.142c2.692,1.354,4.827,3.002,6.408,4.935c3.5-1.761,8.065-2.644,13.675-2.644
		c8.104,0,16.213,1.843,19.11,2.573l-6.92-7.89C166.372,280.063,155.999,282.323,149.437,285.142z"/>
	<path fill="#FFFFFF" d="M114.554,259.872l16.917-14.066l0.214-1.069c0.028-0.14,0.103-0.266,0.213-0.357l0.66-0.55
		c-3.55,0.479-11.563,1.661-14.995,2.998L114.554,259.872z"/>
	<path fill="#FFFFFF" d="M178.921,247.29c-0.96-0.52-6.873-3.469-17.215-3.469c-1.243,0-2.518,0.058-3.804,0.143
		c4.945,5.678,16.438,18.873,26.932,30.921L178.921,247.29z"/>
	<path fill="#FFFFFF" d="M112.766,251.282l-2.935,12.517l3.136-2.607l3.04-13.183C115.095,248.917,113.756,250.273,112.766,251.282z
		"/>
	<path fill="#FFFFFF" d="M182.696,251.29l-2.46-2.635l5.954,27.787c2.224,2.553,4.385,5.033,6.413,7.361L182.696,251.29z"/>
	<path d="M138.926,290.858c0.1-0.167,0.25-0.366,0.425-0.581h-18.62l-0.158,0.111c-0.159,0.111-0.361,0.142-0.547,0.086
		c-0.114-0.036-0.204-0.109-0.28-0.197h-16.031l-1.016,1.22c0.045,0.01,0.086,0.03,0.133,0.03h6.937h29.176
		C138.815,291.331,138.798,291.071,138.926,290.858z"/>
	<path d="M183.708,250.542l-3.856-4.131c-0.04-0.043-0.085-0.08-0.135-0.11c-0.254-0.152-6.353-3.731-18.011-3.731
		c-1.571,0-3.192,0.088-4.824,0.22c0.299,0.344,0.64,0.735,1.021,1.172c1.286-0.085,2.561-0.143,3.804-0.143
		c10.343,0,16.255,2.95,17.215,3.469l-0.016-0.073l0.978-0.21l0.353,1.647l2.46,2.635l9.907,32.513
		c0.679,0.78,1.343,1.542,1.989,2.284c-0.003-0.017,0.003-0.032-0.001-0.049l-6.202-20.353l-4.54-14.899
		C183.822,250.695,183.773,250.612,183.708,250.542z"/>
	<path d="M116.324,246.003c-0.041,0.021-0.079,0.045-0.114,0.073c-0.43,0.348-3.79,3.772-4.459,4.455
		c-0.08,0.082-0.136,0.184-0.162,0.295l-3.242,13.825l0.54-0.067l0.944-0.785l2.935-12.517c0.989-1.009,2.329-2.365,3.241-3.273
		l0.351-1.522c0.077-0.336,0.413-0.549,0.75-0.468c0.336,0.078,0.546,0.413,0.468,0.75l-0.014,0.06
		c3.431-1.337,11.444-2.519,14.995-2.998l1.739-1.449c-0.047-0.005-0.093-0.024-0.141-0.019
		C133.589,242.43,120.233,244.05,116.324,246.003z"/>
	<path d="M188.63,290.006c-2.897-0.73-11.006-2.573-19.11-2.573c-5.61,0-10.175,0.883-13.675,2.644
		c0.123,0.15,0.249,0.298,0.365,0.451c0.103,0.137,0.146,0.31,0.118,0.478c-0.017,0.106-0.069,0.2-0.136,0.282
		c3.285-1.724,7.761-2.604,13.328-2.604c5.55,0,11.117,0.883,14.945,1.661c2.98,0.605,4.907,1.147,4.95,1.16
		c0.162,0.045,0.321,0.004,0.463-0.075L188.63,290.006z"/>
	<path d="M107.621,273.045l0.053-0.047l0.507-2.162l-1.209,1.001c-0.099,0.083-0.219,0.128-0.342,0.139l-0.25,1.069H107.621z"/>
	<path d="M140.58,290.857c-0.067,0.069-0.146,0.147-0.201,0.206c4.675,3.19,9.169,3.095,14.42-0.303
		c-0.013-0.016-0.027-0.029-0.04-0.045c-2.426,1.686-5.053,2.584-7.637,2.584C144.565,293.3,142.17,292.39,140.58,290.857z"/>
	<path d="M116.652,281.938l-0.451-1.235c-3.437,0.191-5.705,0.457-5.961,0.488c-0.057,0.357-0.158,0.737-0.328,1.13
		c0.122,0.086,0.274,0.134,0.436,0.116C110.439,282.426,112.902,282.131,116.652,281.938z"/>
	<path d="M139.351,290.277c-0.176,0.215-0.325,0.414-0.425,0.581c-0.128,0.213-0.111,0.473,0.021,0.669
		c0.04,0.059,0.086,0.112,0.146,0.156c2.671,1.962,5.327,2.943,8.06,2.943c2.851,0,5.787-1.068,8.913-3.207
		c0.052-0.035,0.09-0.084,0.128-0.133c0.066-0.082,0.119-0.176,0.136-0.282c0.028-0.168-0.015-0.341-0.118-0.478
		c-0.116-0.153-0.242-0.301-0.365-0.451c-1.581-1.933-3.715-3.581-6.408-4.935c6.562-2.818,16.935-5.078,32.272-3.025l-1.236-1.408
		c-14.923-1.77-25.48,0.606-32.242,3.589l-0.008,1.104l-1-0.008l0.009-1.23c-4.675-1.889-10.687-3.062-18.027-3.487
		c-1.979-0.114-3.909-0.162-5.741-0.168l0.358,1.269c7.118,0.051,15.755,0.776,22.542,3.399
		C142.653,287.061,140.368,289.033,139.351,290.277z M147.929,285.83c2.743,1.24,5.104,2.839,6.83,4.886
		c0.013,0.016,0.027,0.029,0.04,0.045c-5.25,3.397-9.745,3.493-14.42,0.303c0.055-0.059,0.134-0.137,0.201-0.206
		C141.569,289.846,143.884,287.787,147.929,285.83z"/>
	<path d="M147.483,248.608l-0.098,13.967c0.331,0.063,0.664,0.126,0.999,0.187l0.106-15.012L147.483,248.608z"/>
	<path d="M147.224,285.394l1,0.008l0.008-1.104l0.067-9.501c-0.331-0.081-0.663-0.167-0.998-0.26l-0.068,9.627L147.224,285.394z"/>
	<path d="M180.236,248.654l-0.353-1.647l-0.978,0.21l0.016,0.073l5.913,27.595c0.454,0.521,0.906,1.04,1.356,1.557L180.236,248.654z
		"/>
	<path d="M117.576,246.768c0.078-0.336-0.132-0.672-0.468-0.75c-0.337-0.081-0.672,0.132-0.75,0.468l-0.351,1.522l-3.04,13.183
		l1.587-1.319l3.008-13.045L117.576,246.768z"/>
	<path d="M155.739,228.737l-0.723,2.17l-0.133,0.609l1.128,2.258c0.126,0.253,0.067,0.561-0.146,0.748
		c-4.273,3.77-4.505,3.77-4.774,3.77c-0.166,0-0.332-0.072-0.449-0.189c-0.086-0.086-0.148-0.197-0.175-0.316
		c-0.083-0.145-0.383-0.489-0.515-0.641c-0.245-0.281-0.337-0.387-0.39-0.544c-0.079-0.236-0.01-0.496,0.174-0.663l3.604-3.246
		l0.229-1.026c-0.039-0.125-0.039-0.259,0.003-0.385l0.162-0.487l-0.684-1.069c-0.156,0.153-0.333,0.329-0.508,0.501
		c-3.436,3.398-4.197,3.972-4.739,3.973c0,0,0,0,0,0c-0.182,0-0.393-0.101-0.529-0.244l-0.002,0.002
		c-0.431-0.474-13.35-15.075-13.899-15.696c-0.139-0.158-0.19-0.375-0.135-0.578l0.68-2.497l-8.403-9.146
		c-0.715-0.235-1.747-0.492-2.845-0.492c-3.053,0-4.886,1.918-5.447,5.702c-0.009,0.063-0.029,0.125-0.057,0.184
		c-0.384,0.783-1.417,1.148-3.248,1.148c-1.94,0-4.201-0.417-4.769-0.528l-3.235,0.693l-19.906,28.22l10.52,12.671l22.557-28.571
		l0.672-8.12c0.021-0.249,0.188-0.461,0.424-0.541c0.238-0.077,0.499-0.01,0.665,0.176l4.701,5.256
		c0.531,0.062,0.979,0.091,1.396,0.091c1.03,0,1.871-0.182,2.645-0.572c0.251-0.127,0.558-0.07,0.747,0.141l13.716,15.311
		c0.224,0.25,0.211,0.63-0.029,0.864l-1.852,1.807c0.219,0.24,0.423,0.46,0.628,0.68c0.218,0.235,0.437,0.471,0.673,0.73
		c0.228-0.164,0.453-0.333,0.679-0.502c0.384-0.288,0.768-0.576,1.16-0.838c0.276-0.184,0.648-0.12,0.847,0.145
		c0.132,0.176,0.309,0.432,0.485,0.687c0.167,0.242,0.334,0.484,0.459,0.651c0.109,0.146,0.15,0.331,0.111,0.508
		s-0.152,0.33-0.312,0.416c-0.536,0.292-0.994,0.633-1.478,0.994c-0.499,0.372-1.014,0.755-1.627,1.089
		c-0.202,0.109-0.448,0.1-0.64-0.025c-1.616-1.053-3.247-2.376-3.667-4.336l-6.619,5.516l-0.214,1.07
		c-0.028,0.14-0.103,0.267-0.213,0.358l-22.895,19.036c-0.092,0.076-0.203,0.125-0.322,0.14l-1.557,0.195l-0.341,3.925
		l13.542-11.208v-1.507c0-0.242,0.14-0.463,0.36-0.566c0.218-0.102,0.479-0.068,0.665,0.086l1.152,0.96l11.177-8.941
		c0.132-0.104,0.3-0.153,0.469-0.132c0.167,0.021,0.319,0.109,0.421,0.245c0.732,0.975,0.783,1.335,0.621,1.659
		c-0.065,0.131-0.191,0.242-0.333,0.307c-0.654,0.459-6.395,5.704-10,9.032l-0.211,0.847c-0.031,0.126-0.101,0.238-0.2,0.323
		l-1.801,1.544c-0.224,0.189-0.548,0.201-0.782,0.025l-0.621-0.465l-13.51,12.007c-0.114,0.102-0.262,0.158-0.415,0.158h-1.799
		l-7.534,7.536c-0.104,0.104-0.242,0.168-0.388,0.181c-2.019,0.174-3.567,0.379-5.102,1.435l-13.3,11.748l8.214,9.631
		c0.365,0.204,0.703,0.304,1.029,0.304c0.32,0,0.642-0.098,0.982-0.297l12.795-15.354l5.396-6.681
		c0.83-0.981,0.942-1.98,0.893-2.647c-0.015-0.194,0.062-0.385,0.208-0.514l10.327-9.177c0.125-0.112,0.281-0.171,0.458-0.156
		c0.091,0.006,0.179,0.013,0.263,0.02c-0.067-0.428,0.079-0.894,0.434-1.389c0.035-0.048,0.076-0.092,0.124-0.128l2.315-1.801
		c0.131-0.103,0.296-0.145,0.461-0.127c0.165,0.021,0.314,0.105,0.416,0.236l1.8,2.314c0.175,0.225,0.176,0.539,0.002,0.765
		c-2.76,3.588-2.985,3.588-3.325,3.588h-2.588l-4.706,4.258l1.838,1.624c0.078,0.069,0.137,0.157,0.173,0.255l3.274,8.979
		l3.345-2.362l-2.71-9.606c-0.059-0.209-0.005-0.435,0.143-0.594l5.846-6.332l-2.054-3.195c-0.141-0.22-0.131-0.504,0.026-0.713
		l1.544-2.059c0.195-0.26,0.559-0.326,0.833-0.154c0.165,0.104,16.578,10.368,25.858,10.368c1.111,0,2.076-0.149,2.874-0.445
		c0.121-1.066,0.281-4.94,0.39-8.576c-4.809-0.53-22.094-2.741-22.617-7.175c-0.154-1.309,0.147-2.442,0.896-3.368
		c0.989-1.225,2.536-1.785,3.548-2.032l-1.765-2.548c-0.107-0.154-0.139-0.348-0.087-0.528l0.516-1.801
		c0.065-0.226,0.25-0.396,0.48-0.441c0.232-0.044,0.466,0.042,0.612,0.226l3.456,4.378l8.252-7.039
		c0.261-0.221,0.651-0.192,0.875,0.063l51.153,58.315c2.196-0.929,2.61-1.496,2.784-3.669c-1.061-1.213-7.733-8.866-50.248-57.682
		c-0.211-0.242-0.204-0.604,0.015-0.838l3.858-4.115c0.657-0.74,0.858-0.968,0.859-2.146c0-0.181,0.079-0.353,0.215-0.471
		l5.917-5.145c0.169-0.147,0.403-0.19,0.613-0.12c1.541,0.529,2.725,1.393,3.769,2.762l15.748-13.347
		c0.249-0.211,0.616-0.196,0.847,0.035c0.229,0.23,1.255,0.55,1.808,0.301l20.82-19.989l-22.511,15.903
		c-0.222,0.156-0.519,0.153-0.735-0.01l-1.032-0.772c-0.158-0.118-0.25-0.304-0.25-0.5c0-0.447,0.181-0.776,0.314-1.016
		c0.188-0.342,0.283-0.514-0.199-1.196c-0.108-0.127-0.202-0.127-0.242-0.127c-0.433,0-1.125,0.741-1.458,1.097
		c-0.349,0.374-0.542,0.58-0.876,0.58c-0.367,0-2.962-0.888-4.584-2.245l-0.194,3.201c-0.01,0.16-0.081,0.311-0.198,0.42
		l-7.46,6.945c-0.122,0.114-0.285,0.176-0.454,0.167l-5.39-0.245L155.739,228.737z"/>
	<path d="M154.602,228.197l-0.357,1.076l-0.547-0.854c-0.093-0.145-0.241-0.245-0.41-0.277c-0.168-0.032-0.343,0.007-0.483,0.108
		c-0.129,0.093-0.384,0.343-1.14,1.09c-0.916,0.905-2.919,2.887-3.736,3.477c-1.803-2.028-11.768-13.291-13.395-15.129l0.682-2.504
		c0.057-0.207,0.002-0.429-0.143-0.587l-0.22-0.24l-8.525-9.278c-0.07-0.076-0.159-0.134-0.256-0.168
		c-1.156-0.399-2.332-0.61-3.401-0.61c-2.104,0-5.753,0.865-6.662,6.631c-0.113,0.115-0.55,0.402-2.089,0.402
		c-2.061,0-4.622-0.523-4.647-0.528c-0.085-0.018-0.173-0.017-0.257,0.001l-3.601,0.771c-0.154,0.033-0.289,0.123-0.38,0.251
		l-16.827,23.856l-3.495,4.955c-0.163,0.231-0.15,0.542,0.03,0.76l11.318,13.634c0.12,0.145,0.256,0.205,0.489,0.226
		c0.188-0.002,0.366-0.09,0.483-0.238l15.196-19.248l7.957-10.078c0.076-0.096,0.122-0.213,0.132-0.335l0.567-6.859l3.889,4.348
		c0.1,0.112,0.237,0.184,0.386,0.204c0.688,0.088,1.254,0.129,1.785,0.129c1.03,0,1.94-0.166,2.767-0.505l1.827,2.04l11.183,12.483
		l-1.854,1.81c-0.089,0.087-0.147,0.195-0.173,0.309c-0.051-0.271-0.07-0.555-0.053-0.854c0.014-0.249-0.121-0.482-0.343-0.594
		c-0.223-0.112-0.491-0.081-0.681,0.078l-5.319,4.432l-1.739,1.449l-0.66,0.55c-0.11,0.091-0.185,0.217-0.213,0.357l-0.214,1.069
		l-16.917,14.066l-1.587,1.319l-3.136,2.607l-0.944,0.785l-0.54,0.067l-1.337,0.168c-0.292,0.036-0.52,0.272-0.545,0.566
		l-0.035,0.403l-0.479,5.513c-0.022,0.251,0.109,0.49,0.332,0.607c0.109,0.058,0.229,0.077,0.347,0.066
		c0.124-0.011,0.243-0.056,0.342-0.139l1.209-1.001l13.71-11.347c0.144-0.119,0.227-0.295,0.227-0.481v-0.467l0.519,0.433
		c0.229,0.191,0.559,0.193,0.791,0.008l8.588-6.871c-1.552,1.39-3.929,3.561-7.602,6.953c-0.09,0.082-0.153,0.189-0.183,0.308
		l-0.208,0.835l-1.269,1.088l-0.628-0.471c-0.239-0.18-0.569-0.165-0.79,0.033l-13.661,12.142l-0.053,0.047h-1.242h-0.578
		c-0.166,0-0.325,0.065-0.442,0.184l-7.556,7.558c-2.04,0.183-3.757,0.449-5.535,1.677l-13.823,12.204
		c-0.183,0.162-0.252,0.415-0.182,0.648c0.03,0.099,0.083,0.187,0.153,0.258l8.652,10.145c0.044,0.053,0.097,0.097,0.156,0.132
		c0.589,0.351,1.179,0.529,1.754,0.529c0.579,0,1.161-0.181,1.728-0.537c0.056-0.035,0.105-0.078,0.147-0.129l11.846-14.216
		l1.016-1.22l0.006-0.007l5.394-6.678c0.359-0.425,0.615-0.854,0.796-1.272c0.17-0.393,0.271-0.772,0.328-1.13
		c0.047-0.291,0.067-0.567,0.064-0.817l9.907-8.804c0.293,0.024,0.548,0.054,0.803,0.083c0.348,0.039,0.694,0.078,1.13,0.108
		c0.017,0.001,0.035,0.001,0.053,0.001c0.352,0.025,0.634-0.277,0.634-0.625c0-0.317-0.237-0.58-0.543-0.62
		c-0.672-0.183-0.748-0.372-0.749-0.374c-0.011-0.031-0.001-0.163,0.162-0.409l1.747-1.358l1.119,1.438
		c-0.895,1.149-1.878,2.356-2.242,2.718h-2.625c-0.155,0-0.304,0.058-0.419,0.161l-5.402,4.889c-0.132,0.12-0.207,0.29-0.206,0.468
		s0.078,0.347,0.211,0.465l2.243,1.981l0.075,0.207l0.451,1.235l2.974,8.154c0.026,0.071,0.073,0.129,0.121,0.186
		c0.076,0.088,0.166,0.161,0.28,0.197c0.186,0.056,0.388,0.025,0.547-0.086l0.158-0.111l4.216-2.977
		c0.216-0.153,0.313-0.426,0.241-0.681l-1.367-4.844l-0.358-1.269l-1.011-3.583l5.937-6.431c0.193-0.209,0.221-0.522,0.067-0.762
		l-2.081-3.236l0.94-1.254c2.281,1.397,11.755,7.021,19.984,9.294c0.335,0.093,0.667,0.179,0.998,0.26
		c1.792,0.438,3.507,0.703,5.052,0.703c1.364,0,2.553-0.206,3.539-0.614c0.646-0.033,0.718-0.599,0.991-10.199
		c0.01-0.326-0.234-0.605-0.56-0.64c-2.776-0.29-5.915-0.732-8.938-1.284c-0.334-0.061-0.667-0.123-0.999-0.187
		c-6.353-1.221-11.938-2.912-12.146-4.669c-0.114-0.974,0.09-1.769,0.624-2.433c1.206-1.497,3.679-1.757,3.704-1.759
		c0.221-0.021,0.414-0.159,0.507-0.359c0.093-0.201,0.073-0.437-0.053-0.619l-2.148-3.101l0.099-0.344l3.103,3.93
		c0.105,0.133,0.26,0.218,0.43,0.235c0.167,0.017,0.337-0.036,0.467-0.146l5.512-4.702l1.006-0.858l1.758-1.5l30.226,34.458
		l1.236,1.408l6.92,7.89l1.249,1.423l11.411,13.009c0.175,0.201,0.459,0.268,0.705,0.167c3.075-1.246,3.783-2.164,3.99-5.166
		c0.012-0.168-0.048-0.336-0.16-0.462c-0.124-0.139-4.789-5.493-11.233-12.89c-0.646-0.742-1.31-1.504-1.989-2.284
		c-2.028-2.328-4.189-4.809-6.413-7.361c-0.45-0.517-0.902-1.035-1.356-1.557c-10.495-12.049-21.987-25.243-26.932-30.921
		c-0.38-0.437-0.721-0.828-1.021-1.172c-0.474-0.544-0.849-0.974-1.097-1.259l3.483-3.716c0.803-0.905,1.139-1.408,1.182-2.7
		l4.707-4.093l0.72-0.626c1.316,0.521,2.29,1.352,3.208,2.72c0.099,0.148,0.257,0.247,0.433,0.271
		c0.175,0.023,0.354-0.027,0.491-0.143l15.896-13.472c0.84,0.465,2.082,0.569,2.88,0.134c0.049-0.027,0.094-0.06,0.133-0.098
		l26.888-25.815c0.236-0.226,0.257-0.596,0.049-0.849c-0.209-0.253-0.576-0.302-0.843-0.112l-28.934,20.44l-0.342-0.256
		c0.023-0.045,0.051-0.096,0.083-0.155c0.335-0.607,0.589-1.302-0.303-2.561c-0.424-0.509-0.905-0.616-1.232-0.616
		c-0.976,0-1.815,0.899-2.371,1.494c-0.043,0.046-0.082,0.088-0.118,0.127c-0.956-0.3-3.778-1.515-4.399-2.786
		c-0.125-0.254-0.402-0.392-0.684-0.338c-0.278,0.056-0.484,0.292-0.501,0.575l-0.272,4.486l-7.085,6.596l-5.397-0.246
		c-0.167-0.004-0.339,0.056-0.463,0.176l-1.054,1.021l-7.178,6.954C154.688,228.016,154.634,228.102,154.602,228.197z
		 M169.058,221.302c0.169,0.009,0.332-0.053,0.454-0.167l7.46-6.945c0.118-0.109,0.188-0.26,0.198-0.42l0.194-3.201
		c1.622,1.357,4.218,2.245,4.584,2.245c0.334,0,0.527-0.206,0.876-0.58c0.333-0.356,1.025-1.097,1.458-1.097
		c0.04,0,0.134,0,0.242,0.127c0.482,0.682,0.388,0.854,0.199,1.196c-0.133,0.24-0.314,0.569-0.314,1.016
		c0,0.197,0.093,0.382,0.25,0.5l1.032,0.772c0.216,0.163,0.513,0.166,0.735,0.01l22.511-15.903l-20.82,19.989
		c-0.553,0.249-1.579-0.071-1.808-0.301c-0.23-0.23-0.598-0.246-0.847-0.035l-15.748,13.347c-1.044-1.37-2.229-2.233-3.769-2.762
		c-0.21-0.071-0.444-0.027-0.613,0.12l-5.917,5.145c-0.136,0.119-0.215,0.291-0.215,0.471c-0.001,1.178-0.203,1.406-0.859,2.146
		l-3.858,4.115c-0.219,0.234-0.226,0.596-0.015,0.838c42.515,48.815,49.187,56.469,50.248,57.682
		c-0.174,2.173-0.588,2.74-2.784,3.669l-51.153-58.315c-0.225-0.256-0.615-0.284-0.875-0.063l-8.252,7.039l-3.456-4.378
		c-0.146-0.184-0.379-0.27-0.612-0.226c-0.23,0.045-0.415,0.216-0.48,0.441l-0.516,1.801c-0.051,0.18-0.02,0.374,0.087,0.528
		l1.765,2.548c-1.012,0.247-2.559,0.807-3.548,2.032c-0.749,0.926-1.05,2.06-0.896,3.368c0.522,4.434,17.808,6.645,22.617,7.175
		c-0.108,3.636-0.269,7.51-0.39,8.576c-0.798,0.296-1.763,0.445-2.874,0.445c-9.281,0-25.694-10.264-25.858-10.368
		c-0.274-0.172-0.638-0.105-0.833,0.154l-1.544,2.059c-0.157,0.209-0.167,0.493-0.026,0.713l2.054,3.195l-5.846,6.332
		c-0.147,0.159-0.202,0.385-0.143,0.594l2.71,9.606l-3.345,2.362l-3.274-8.979c-0.036-0.098-0.096-0.186-0.173-0.255l-1.838-1.624
		l4.706-4.258h2.588c0.34,0,0.564,0,3.325-3.588c0.173-0.226,0.172-0.54-0.002-0.765l-1.8-2.314
		c-0.102-0.131-0.251-0.216-0.416-0.236c-0.165-0.018-0.33,0.024-0.461,0.127l-2.315,1.801c-0.047,0.036-0.089,0.08-0.124,0.128
		c-0.355,0.495-0.501,0.961-0.434,1.389c-0.084-0.007-0.172-0.014-0.263-0.02c-0.177-0.015-0.333,0.044-0.458,0.156l-10.327,9.177
		c-0.146,0.129-0.223,0.319-0.208,0.514c0.05,0.667-0.063,1.666-0.893,2.647l-5.396,6.681l-12.795,15.354
		c-0.34,0.199-0.662,0.297-0.982,0.297c-0.326,0-0.664-0.1-1.029-0.304l-8.214-9.631l13.3-11.748
		c1.535-1.056,3.083-1.261,5.102-1.435c0.146-0.013,0.284-0.077,0.388-0.181l7.534-7.536h1.799c0.153,0,0.301-0.057,0.415-0.158
		l13.51-12.007l0.621,0.465c0.233,0.176,0.558,0.164,0.782-0.025l1.801-1.544c0.099-0.085,0.168-0.197,0.2-0.323l0.211-0.847
		c3.606-3.328,9.347-8.572,10-9.032c0.143-0.065,0.268-0.175,0.333-0.307c0.162-0.324,0.111-0.685-0.621-1.659
		c-0.102-0.135-0.253-0.223-0.421-0.245c-0.169-0.021-0.337,0.027-0.469,0.132l-11.177,8.941l-1.152-0.96
		c-0.186-0.154-0.447-0.188-0.665-0.086c-0.22,0.104-0.36,0.324-0.36,0.566v1.507l-13.542,11.208l0.341-3.925l1.557-0.195
		c0.119-0.015,0.23-0.063,0.322-0.14l22.895-19.036c0.11-0.091,0.186-0.218,0.213-0.358l0.214-1.07l6.619-5.516
		c0.42,1.96,2.051,3.283,3.667,4.336c0.192,0.125,0.438,0.135,0.64,0.025c0.614-0.334,1.129-0.718,1.627-1.089
		c0.484-0.361,0.942-0.703,1.478-0.994c0.16-0.086,0.273-0.239,0.312-0.416s-0.002-0.363-0.111-0.508
		c-0.125-0.167-0.292-0.409-0.459-0.651c-0.176-0.255-0.353-0.511-0.485-0.687c-0.199-0.265-0.571-0.329-0.847-0.145
		c-0.393,0.262-0.776,0.55-1.16,0.838c-0.226,0.169-0.451,0.339-0.679,0.502c-0.236-0.259-0.455-0.495-0.673-0.73
		c-0.205-0.22-0.409-0.44-0.628-0.68l1.852-1.807c0.24-0.234,0.252-0.615,0.029-0.864l-13.716-15.311
		c-0.189-0.211-0.495-0.268-0.747-0.141c-0.774,0.39-1.614,0.572-2.645,0.572c-0.417,0-0.865-0.029-1.396-0.091l-4.701-5.256
		c-0.166-0.186-0.427-0.253-0.665-0.176c-0.237,0.08-0.403,0.292-0.424,0.541l-0.672,8.12l-22.557,28.571l-10.52-12.671
		l19.906-28.22l3.235-0.693c0.568,0.111,2.829,0.528,4.769,0.528c1.831,0,2.863-0.365,3.248-1.148
		c0.028-0.058,0.048-0.12,0.057-0.184c0.561-3.784,2.394-5.702,5.447-5.702c1.099,0,2.13,0.256,2.845,0.492l8.403,9.146l-0.68,2.497
		c-0.055,0.203-0.004,0.42,0.135,0.578c0.55,0.622,13.469,15.223,13.899,15.696l0.002-0.002c0.136,0.143,0.347,0.244,0.529,0.244
		c0,0,0,0,0,0c0.542,0,1.303-0.575,4.739-3.973c0.175-0.173,0.352-0.348,0.508-0.501l0.684,1.069l-0.162,0.487
		c-0.042,0.125-0.042,0.26-0.003,0.385l-0.229,1.026l-3.604,3.246c-0.185,0.167-0.253,0.427-0.174,0.663
		c0.053,0.157,0.145,0.263,0.39,0.544c0.132,0.152,0.432,0.496,0.515,0.641c0.027,0.119,0.089,0.23,0.175,0.316
		c0.117,0.117,0.283,0.189,0.449,0.189c0.269,0,0.501,0,4.774-3.77c0.212-0.188,0.272-0.495,0.146-0.748l-1.128-2.258l0.133-0.609
		l0.723-2.17l7.929-7.681L169.058,221.302z M154.327,233.489c0.035-0.031,0.065-0.066,0.092-0.104l0.259,0.518
		c-1.313,1.152-2.693,2.329-3.395,2.882c-0.077-0.097-0.165-0.202-0.264-0.316L154.327,233.489z M141.88,241.013
		c0.324,0.349,0.647,0.698,1.031,1.125c0.208,0.232,0.553,0.274,0.811,0.103c0.398-0.266,0.788-0.557,1.177-0.849
		c0.202-0.151,0.404-0.303,0.607-0.45c0.035,0.051,0.07,0.103,0.106,0.154c0.03,0.043,0.059,0.086,0.088,0.128
		c-0.365,0.237-0.699,0.486-1.026,0.73c-0.385,0.287-0.753,0.562-1.156,0.808c-1.169-0.791-2.225-1.691-2.666-2.869
		C141.233,240.315,141.556,240.665,141.88,241.013z"/>
</g>
</svg>
