<?xml version="1.0" encoding="utf-8"?>
<!-- Generator: Adobe Illustrator 16.0.0, SVG Export Plug-In . SVG Version: 6.00 Build 0)  -->
<svg version="1.2" baseProfile="tiny"
	 id="svg378" xmlns:cc="http://creativecommons.org/ns#" xmlns:dc="http://purl.org/dc/elements/1.1/" xmlns:rdf="http://www.w3.org/1999/02/22-rdf-syntax-ns#"
	 xmlns="http://www.w3.org/2000/svg" xmlns:xlink="http://www.w3.org/1999/xlink" x="0px" y="0px" width="512px" height="512px"
	 viewBox="0 0 512 512" xml:space="preserve">
<g>
	<polygon fill="#FFFFFF" points="50.364,511.82 512,206.013 512,180.561 17.868,511.84 0,511.862 0,512 512,512 512,511.595 	"/>
	<polygon fill="#FFFFFF" points="0,0 0,0.192 463.072,0 	"/>
	<polygon fill="#FFFFFF" points="512,0.302 512,0 466.596,0 0,299.818 0,326.863 505.178,0.239 	"/>
	<path fill="#3662A2" d="M463.072,0L0,0.192v299.626L466.596,0H463.072z M154.085,183.389l-23.184-13.997l-13.412,23.577
		l-13.051-23.729l-23.393,13.742l0.572-27.1l-27.107,0.211l14.045-23.209l-23.555-13.367l23.755-13.097L55.064,83.052l27.098,0.52
		l-0.159-27.104l23.183,14l13.413-23.58l13.051,23.729l23.393-13.738l-0.572,27.101l27.104-0.215l-14.042,23.211l23.552,13.367
		l-23.755,13.096l13.697,23.366l-27.1-0.52L154.085,183.389z"/>
	<polygon fill="#38A100" points="512,511.595 512,206.013 50.364,511.82 	"/>
	<polygon fill="#C70000" points="512,180.561 512,0.302 505.178,0.239 0,326.863 0,511.862 17.868,511.84 	"/>
	<path fill="#FFE700" d="M167.327,133.44l23.755-13.096l-23.552-13.367l14.042-23.211l-27.104,0.215l0.572-27.101l-23.393,13.738
		l-13.051-23.729l-13.413,23.58l-23.183-14l0.159,27.104l-27.098-0.52l13.692,23.368l-23.755,13.097l23.555,13.367l-14.045,23.209
		l27.107-0.211l-0.572,27.1l23.393-13.742l13.051,23.729l13.412-23.577l23.184,13.997l-0.16-27.103l27.1,0.52L167.327,133.44z
		 M118.047,169.269c-27.461,0-49.722-22.088-49.722-49.336s22.261-49.336,49.722-49.336c27.46,0,49.721,22.088,49.721,49.336
		S145.507,169.269,118.047,169.269z"/>
	<path fill="#3662A2" d="M118.047,70.597c-27.461,0-49.722,22.088-49.722,49.336s22.261,49.336,49.722,49.336
		c27.46,0,49.721-22.088,49.721-49.336S145.507,70.597,118.047,70.597z M118.046,158.862c-21.5,0-38.929-17.43-38.929-38.929
		c0-21.5,17.429-38.93,38.929-38.93s38.93,17.43,38.93,38.93C156.976,141.432,139.546,158.862,118.046,158.862z"/>
	<circle fill="#FFE700" cx="118.046" cy="119.932" r="38.929"/>
</g>
</svg>
