<?xml version="1.0" encoding="utf-8"?>
<!-- Generator: Adobe Illustrator 16.0.0, SVG Export Plug-In . SVG Version: 6.00 Build 0)  -->
<svg version="1.2" baseProfile="tiny"
	 id="svg571" xmlns:cc="http://creativecommons.org/ns#" xmlns:dc="http://purl.org/dc/elements/1.1/" xmlns:rdf="http://www.w3.org/1999/02/22-rdf-syntax-ns#"
	 xmlns="http://www.w3.org/2000/svg" xmlns:xlink="http://www.w3.org/1999/xlink" x="0px" y="0px" width="512px" height="512px"
	 viewBox="0 0 512 512" xml:space="preserve">
<g id="flag" transform="matrix(0.5 0 0 1 130 0)">
	<rect id="rect609" x="51.663" fill="#FFFFFF" width="400.709" height="512"/>
	<rect id="rect608" x="-260" fill="#198200" width="311.66" height="512"/>
	<rect id="rect610" x="452.37" fill="#198200" width="311.631" height="512"/>
</g>
<g id="g9098" transform="matrix(.57525 0 0 .57525 105.35 104.32)">
	<path id="path575" fill="#198200" stroke="#000000" stroke-width="1.2902" stroke-linecap="round" stroke-linejoin="round" d="
		M239.22,396.411v71.316c9.609,0.1,19.215,0.199,28.824,0.297c0,0-9.211-62.104-4.161-70.425c5.052-8.32,9.807-7.132,9.807-7.132
		s18.72,5.646,20.799,4.755c2.081-0.893-0.297-7.133,9.807-6.241c3.268-1.188,1.485-6.835,4.456-7.132
		c2.973-0.297,60.322,16.046,72.803,0.594c-3.27-8.617-14.561-0.594-17.533-0.297c-2.674,0-13.965-5.348-20.502,0
		c-5.943-4.458-32.985-7.429-32.985-7.429c-3.567-3.567,64.481,1.783,68.345-0.891c8.023-8.025-14.858-7.132-18.423-4.458
		c-6.341-3.862-14.289-3.565-19.142-0.891c-2.327-5.567-24.441-3.168-36.723-4.753c-3.93-2.307-3.258-3.618-0.594-5.052
		c25.655,1.09,51.184,4.417,76.962,3.27c6.969-9.086-8.777-12.491-18.423-4.757c-5.662-9.31-17.233-0.295-24.96-1.188
		c-7.726-0.89-4.159-10.4,5.646-8.914c9.806,1.485,27.339-0.592,30.607-5.05c3.268-4.458-1.951-8.986-18.127-4.755
		c-5.473-5.349-17.531,0-23.176,1.783c-7.512-4.19-24.96-0.594-30.904,0.891c-5.818-3.616,30.607-9.508,30.607-9.508
		c14.061-0.25,21.989-2.674,26.446-3.862c21.256-11.395-0.304-12.607-11.459-4.326c-6.923-5.405-13.501,0.462-19.74,2.543
		c-6.241,2.078-18.127,3.565-18.127,2.674c0-0.891,16.937-11.293,16.937-11.293s20.801-1.485,24.962-2.08
		c4.159-0.594,25.451-11.522-3.567-4.159c-10.103,0.89-16.046,0.295-19.91,0.594c-22.402-2.317,2.081-4.458,2.081-4.458
		s31.717-2.915,32.092-4.458c0.621-12.366-25.852-6.536-26.149-6.536c0.076-8.836-24.665,0.295-24.665,0
		c-4.728-2.788,2.674-5.646,2.674-5.646c6.538-1.586,16.311-2.051,18.867-4.132c0,0,18.463-0.178,20.653-5.079
		c-4.528-12.493-39.057,2.217-43.682,4.458c-6.241,0,4.161-10.104,4.458-10.401c0.297-0.297,28.527-1.485,41.898-19.613
		c0.929-11.033-15.749,6.241-15.749,6.241c-1.244-14.309-18.126,0.892-27.931,2.08c-9.806,1.188-10.103-4.457-3.268-5.349
		c6.833-0.89,14.561-0.296,18.423-10.697c3.862-10.401,15.452,0.594,17.533-3.269c2.08-3.863-4.161-7.132-4.161-7.132
		s8.617-8.915-5.349-8.617c-13.966,0.297-32.092-1.783-32.092-1.783s14.561-5.647,28.23-5.35c13.669,0.297,6.241-9.805-6.835-9.805
		c-13.075,0-19.91-4.458-19.91-4.458c7.429-2.773,14.858-5.547,22.286-8.32c-0.494-2.08-0.99-4.161-1.485-6.24
		c0,0,13.075-10.401-5.349-8.024c-18.423,2.378-20.502,2.675-20.502,2.675s-36.847,5.646-37.144,5.646s-10.103-2.971-0.594-5.349
		c9.508-2.377,43.088-9.211,48.138-7.428c5.052,1.783-0.594-12.48-18.423-14.264c-17.83-1.783-28.824,4.458-28.824,4.458
		s-11.59-4.161-0.891-7.727c10.697-3.565,27.636,1.189,27.636,1.189s19.017-5.645,3.268-8.023
		c-15.749-2.378-20.716,2.129-27.931,2.378c-2.881-3.596,24.723-4.455,26.446-7.43c-2.911-5.35-20.008,0-30.012,0
		c-4.256-1.805-4.529-4.732,0.297-6.538c10.203-0.396,19.783,0.204,29.984-0.193c-0.297-5.448,0.029-11.891-0.268-17.339
		c-12.941-2.365-28.125,1.706-35.391,1.362c1.944-5.944,29.902-7.47,33.012-9.087c6.471-8.088-27.337,0-27.634,0
		c-5.896-0.871-5.516-4.595-1.783-6.835c8.617-0.991,27.936,1.255,26.475-4.589c-1.12-5.475-13.401-2.543-18.452-1.354
		c-5.052,1.187-12.481,0.297-12.481,0.297c-3.234-4.355,29.121-2.584,28.824-5.943c-0.421-3.857-20.504-1.188-27.339-0.891
		c-5.339-3.685,25.653-6.116,26.15-6.538c1.12-9.879-20.799,0-24.96,0s-2.08-6.241-2.08-6.241s8.617-3.863,8.32-4.457
		c-0.299-0.594-6.538-2.674-7.133-2.674c-0.592,0,0-6.835,0-6.835s7.133-5.349,6.538-6.835c-0.594-1.485-8.32,1.188-8.32,1.188
		v-5.943c0,0,5.646-0.594,6.241-3.269s-6.835-2.972-6.835-2.972c-0.99-10.4-1.981-20.801-2.971-31.201
		c-0.891,9.707-1.783,19.414-2.674,29.121c-3.27,0.495-6.538,0.991-9.807,1.485c0,0,6.835,3.863,8.025,7.726
		c1.187,3.863-8.322,2.675-8.322,2.675s7.726,6.537,8.322,8.914c0.592,2.378-10.698,2.972-10.698,2.972s9.508,6.835,10.103,10.697
		c0.594,3.863,0,5.943,0,5.943s-15.749-13.669-25.853-9.806c-5.249,2.743,12.028,4.012,23.477,13.966
		c-0.027,2.216-27.8-6.765-28.824-1.189c0.643,1.552,29.658,5.718,31.797,9.509c-10.6,0.396-32.52-2.319-31.797,1.188
		c-2.215,4.049,20.703,1.75,30.31,5.052c2.815,3.199,2.521,5.903-2.377,6.24c-9.259-4.427-29.963-7.733-30.012-2.081
		c0.126,1.509,21.404,0.53,29.119,5.647c-10.3,2.343-45.235-4.769-45.457-1.305c0.995,1.617,6.531,8.733,16.039,8.436
		c9.51-0.297,31.498,3.863,32.985,6.835c1.485,2.972-28.527-6.24-39.818-0.892c-11.291,5.35,32.389,2.081,39.521,8.619
		s-14.264-0.595-14.264-0.595s-29.715-4.16-34.173-2.08c-4.458,2.08-9.508,6.835-9.508,6.835s2.971,5.943,5.943,4.755
		c2.971-1.189-0.893,3.566-0.893,3.566s41.602,10.102,50.815,19.017c9.211,8.916-52.893-13.966-52.893-13.966
		s-24.962,9.211,1.485,9.806c-3.044,4.452,1.485,7.132,1.485,7.132s43.979,9.211,48.437,16.344
		c4.456,7.132-30.012-6.836-37.74-10.698c-7.726-3.863-29.715,2.378-29.418,3.862c0.297,1.486,10.698,3.567,10.994,6.24
		c0.299,2.675-12.776,3.566-12.776,5.943s55.569,13.966,70.425,26.447c14.858,12.48-43.682-14.857-43.682-14.857s3.27,4.456,0,5.645
		c-3.268,1.188-14.856-16.641-33.875-5.645c-3.463,4.523,16.589,8.12,21.692,8.617c-1.743,4.479-3.27,5.943,3.862,10.4
		c7.132,4.458-13.966-6.536-13.966-5.943c0,0.594,1.487,7.726,1.487,7.726c-6.585-5.348-14.535-6.964-21.989-1.486
		c0,0-0.297,5.35,7.427,8.619c-4.217,8.619,4.755,5.943,19.019,13.966c-21.198-5.54-22.881,4.755-7.726,7.132
		c15.155,2.378,56.757,3.864,66.562,16.64c9.806,12.778-13.932-4.899-16.64-5.348c-0.594,0.295-1.188,6.536-1.188,6.536
		c-6.339-3.669-12.182-6.964-19.764-8.519c-0.596,1.188-0.443,2.874-1.037,4.061c-6.88-4.96-12.888-8.43-22.881-8.913
		c-0.396,1.586-0.793,3.169-1.188,4.754c0,0-8.32-10.401-24.665,0c-9.126,6.543,34.47,2.377,41.602,10.104
		c7.132,7.724,1.485,8.914,1.485,8.914c-5.943-2.178-11.887-4.358-17.829-6.538c0,0-21.098-3.864-27.042,0.89
		c-5.943,4.757,86.769,16.345,89.443,29.121c1.803,6.93-21.789-7.274-42.195-13.371c-0.793,2.278-1.586,4.556-2.378,6.835
		c0,0-8.103-8.142-17.234-9.51c-0.297,0,1.783,8.023,1.783,8.023s-22.879-10.697-34.469-5.052
		c-11.59,5.646,40.414,8.617,45.167,13.968c4.753,5.348-15.749-3.565-17.531,0c-1.784,3.565-27.043-6.538-26.744-1.783
		c0.297,4.753,3.565,7.429,3.565,7.429s52.596,5.05,54.38,11.289c1.783,6.241-29.121-3.565-29.121-3.565s-2.971,4.458-0.594,6.538
		c2.377,2.081-17.829-11.885-16.046-2.674c-6.553-2.609-23.475-10.698-21.098-4.458c2.378,6.241,47.843,15.156,47.843,15.156
		s-19.91,1.484-19.019,6.536c-25.612-15.603-24.96-5.646-24.366-5.348c0.596,0.295-32.983-8.322-7.726,5.348
		c25.257,13.669,13.669,11.293,13.966,11.59s2.675,6.836,2.08,6.836c-0.594,0-17.233-8.916-22.879-9.51
		c-5.646-0.594-32.391,7.429-3.864,19.91c28.527,12.479,46.058-2.973,61.809-1.188c15.749,1.783,23.176,4.456,21.691,9.508
		c-1.485,5.05-16.088-16.554-31.457,2.136c-17.484-3.46-29.349-5.468-20.324,7.38c-28.552-10.668-45.982,3.261-10.026,8.909
		c35.333,1.041,57.052-8.619,57.052-8.619s5.943,10.996,14.562,3.268c8.617-7.724,8.914,2.971,9.211,2.971
		c0.295,0,8.32-3.565,8.32-3.565h2.08H239.22z"/>
	<path id="path580" fill="#FFFFFF" stroke="#000000" stroke-width="1.0321" stroke-linecap="round" stroke-linejoin="round" d="
		M242.7,354.22v-4.976c0,0-11.223-1.993-16.698-0.873c-3.242-1.857-6.305-4.303-10.179-2.239c-0.747,1.618,7.093,5.848,9.705,5.848
		C228.588,353.916,242.7,354.469,242.7,354.22L242.7,354.22z"/>
	<path id="path581" fill="#FFFFFF" stroke="#000000" stroke-width="1.0321" stroke-linecap="round" stroke-linejoin="round" d="
		M242.569,362.309c0,0-11.223-4.101-15.703,0.625c0.733,5.027,13.214,7.463,15.829,6.095c2.613-1.368,0-6.47-0.124-6.719H242.569z"
		/>
	<path id="path582" fill="#FFFFFF" stroke="#000000" stroke-width="1.0321" stroke-linecap="round" stroke-linejoin="round" d="
		M261.489,364.3v3.485c0,0,13.438,2.611,15.803-0.25C279.657,364.674,266.592,362.808,261.489,364.3L261.489,364.3z"/>
	<path id="path583" fill="#FFFFFF" stroke="#000000" stroke-width="1.0321" stroke-linecap="round" stroke-linejoin="round" d="
		M260.87,350.419l0.496,3.932c0,0,11.571,2.614,16.051-3.731S267.248,350.67,260.87,350.419L260.87,350.419z"/>
	<path id="path584" fill="#FFFFFF" stroke="#000000" stroke-width="1.0321" stroke-linecap="round" stroke-linejoin="round" d="
		M261.489,336.929v2.613c0,0,8.711,1.37,10.702-2.363C274.182,333.446,261.739,337.179,261.489,336.929L261.489,336.929z"/>
	<path id="path585" fill="#FFFFFF" stroke="#000000" stroke-width="1.0321" stroke-linecap="round" stroke-linejoin="round" d="
		M243.291,328.889c-1.341-1.912-6.071-6.645-18.762-8.013C215.708,320.846,240.461,333.853,243.291,328.889z"/>
	<path id="path586" fill="#FFFFFF" stroke="#000000" stroke-width="1.0321" stroke-linecap="round" stroke-linejoin="round" d="
		M261.24,315.65c0,0-0.497,3.607-0.373,3.607c0.126,0,29.865-8.835,36.832-8.211c6.224-1.76,7.466-6.096,7.217-6.096
		C299.603,301.077,273.931,308.06,261.24,315.65L261.24,315.65z"/>
	<path id="path587" fill="#FFFFFF" stroke="#000000" stroke-width="1.0321" stroke-linecap="round" stroke-linejoin="round" d="
		M261.859,305.07c-0.124,0.623-0.374,3.485-0.374,3.485s21.03-4.108,26.629-8.088c5.599-3.983-26.006,4.726-26.254,4.602H261.859z"
		/>
	<path id="path588" fill="#FFFFFF" stroke="#000000" stroke-width="1.0321" stroke-linecap="round" stroke-linejoin="round" d="
		M260.99,294.75l0.002,3.507c0,0,14.036-0.428,16.92-3.259C279.754,292.168,265.543,294.597,260.99,294.75L260.99,294.75z"/>
	<path id="path589" fill="#FFFFFF" stroke="#000000" stroke-width="1.0321" stroke-linecap="round" stroke-linejoin="round" d="
		M290.279,324.211c0,0,7.291,1.019,8.66-1.097C298.671,319.359,290.279,324.333,290.279,324.211z"/>
	<path id="path590" fill="#FFFFFF" stroke="#000000" stroke-width="1.0321" stroke-linecap="round" stroke-linejoin="round" d="
		M261.61,281.68c-0.124,0.621,0.124,7.714,0.124,7.714s33.722-10.7,35.835-12.693C299.684,274.711,304.378,268.719,261.61,281.68
		L261.61,281.68z"/>
	<path id="path591" fill="#FFFFFF" stroke="#000000" stroke-width="1.0321" stroke-linecap="round" stroke-linejoin="round" d="
		M260.61,270.98v5.599c0,0,13.562-0.995,19.786-6.098C286.616,265.381,260.61,271.104,260.61,270.98L260.61,270.98z"/>
	<path id="path592" fill="#FFFFFF" stroke="#000000" stroke-width="1.0321" stroke-linecap="round" stroke-linejoin="round" d="
		M244.309,258.29l0.873,5.101c0,0-44.671-14.433-44.548-14.433C200.758,248.958,198.385,241.605,244.309,258.29L244.309,258.29z"/>
	<path id="path593" fill="#FFFFFF" stroke="#000000" stroke-width="1.0321" stroke-linecap="round" stroke-linejoin="round" d="
		M245.06,240.37c-0.124,0.497-0.124,4.852-0.25,4.728c-0.124-0.125-30.982-12.94-32.102-11.821
		C208.61,223.675,245.06,240.619,245.06,240.37L245.06,240.37z"/>
	<path id="path594" fill="#FFFFFF" stroke="#000000" stroke-width="1.0321" stroke-linecap="round" stroke-linejoin="round" d="
		M260.119,248.33c0,0.125,0.497,4.355,0.497,4.355s18.915-3.982,20.035-5.848c1.119-1.867-20.531,1.617-20.531,1.492H260.119z"/>
	<path id="path595" fill="#FFFFFF" stroke="#000000" stroke-width="1.0321" stroke-linecap="round" stroke-linejoin="round" d="
		M260.561,258.41c0.175,1.07,0.547,4.481,0.547,4.481s7.592-0.622,8.711-2.365C270.938,258.784,260.561,258.535,260.561,258.41
		L260.561,258.41z"/>
	<path id="path596" fill="#FFFFFF" stroke="#000000" stroke-width="1.0321" stroke-linecap="round" stroke-linejoin="round" d="
		M259.371,235.39c0,0.373,0.124,4.23,0.124,4.23s20.779-4.106,23.02-6.096C284.754,231.533,258.997,235.39,259.371,235.39
		L259.371,235.39z"/>
	<path id="path597" fill="#FFFFFF" stroke="#000000" stroke-width="1.0321" stroke-linecap="round" stroke-linejoin="round" d="
		M259.49,223.94c0,0.249-0.745,4.23-0.248,4.23c0.497,0,25.259-4.23,29.116-7.714C292.215,216.972,259.863,224.314,259.49,223.94
		L259.49,223.94z"/>
	<path id="path598" fill="#FFFFFF" stroke="#000000" stroke-width="1.0321" stroke-linecap="round" stroke-linejoin="round" d="
		M259.119,203.79v4.355c0,0,16.053-3.36,19.039-6.72C281.145,198.066,259.119,204.039,259.119,203.79z"/>
	<path id="path599" fill="#FFFFFF" stroke="#000000" stroke-width="1.0321" stroke-linecap="round" stroke-linejoin="round" d="
		M256.379,174.42l0.373,6.594c0,0,21.526-2.985,24.638-6.594c3.11-3.608-25.133,0-25.01,0H256.379z"/>
	<path id="path600" fill="#FFFFFF" stroke="#000000" stroke-width="1.0321" stroke-linecap="round" stroke-linejoin="round" d="
		M246.43,125.02v4.106c0,0-10.204-0.497-7.714-2.24C241.203,125.144,246.43,125.393,246.43,125.02z"/>
	<path id="path601" fill="#FFFFFF" stroke="#000000" stroke-width="1.0321" stroke-linecap="round" stroke-linejoin="round" d="
		M255.891,130.5l0.248,5.6c0,0,13.191-1.244,14.187-3.36C271.32,130.625,256.138,130.5,255.891,130.5L255.891,130.5z"/>
	<path id="path602" fill="#FFFFFF" stroke="#000000" stroke-width="1.0321" stroke-linecap="round" stroke-linejoin="round" d="
		M255.14,138.59c0,0,0.248,3.484,0.497,3.484c0.248,0,5.225-0.373,6.346-1.742C263.102,138.964,255.638,138.839,255.14,138.59
		L255.14,138.59z"/>
	<path id="path603" fill="#FFFFFF" stroke="#000000" stroke-width="1.0321" stroke-linecap="round" stroke-linejoin="round" d="
		M243.939,154.51c0,0.372,0.373,5.35,0.124,5.225c-0.248-0.125-28.867-8.336-31.481-8.212
		C209.971,151.648,209.223,144.929,243.939,154.51L243.939,154.51z"/>
	<path id="path604" fill="#FFFFFF" stroke="#000000" stroke-width="1.0321" stroke-linecap="round" stroke-linejoin="round" d="
		M246.301,163.85c0,0.996,0.621,6.222-0.373,5.973c-0.997-0.249-19.411-6.097-17.545-7.839
		C230.248,160.242,246.301,164.223,246.301,163.85L246.301,163.85z"/>
	<path id="path605" fill="#FFFFFF" stroke="#000000" stroke-width="1.0321" stroke-linecap="round" stroke-linejoin="round" d="
		M244.69,203.16l0.124,4.728c0,0-32.102-9.705-33.221-11.322C210.472,194.949,207.36,187.359,244.69,203.16L244.69,203.16z"/>
	<path id="path606" fill="#FFFFFF" stroke="#000000" stroke-width="1.0321" stroke-linecap="round" stroke-linejoin="round" d="
		M245.931,214.74c0,0.125,0.25,4.479,0.124,4.479c-0.124,0-43.673-15.303-43.673-15.303S198.896,192.468,245.931,214.74
		L245.931,214.74z"/>
	<path id="path607" fill="#FFFFFF" stroke="#000000" stroke-width="1.0321" stroke-linejoin="round" d="M194.17,365.769
		c0,0.149-0.148,4.767-0.148,4.767s-8.488-2.383-11.17-7.147C187.766,362.048,194.319,365.918,194.17,365.769L194.17,365.769z"/>
</g>
</svg>
