<?xml version="1.0" encoding="utf-8"?>
<!-- Generator: Adobe Illustrator 16.0.0, SVG Export Plug-In . SVG Version: 6.00 Build 0)  -->
<svg version="1.2" baseProfile="tiny"
	 id="islenskifaninn" xmlns:cc="http://creativecommons.org/ns#" xmlns:dc="http://purl.org/dc/elements/1.1/" xmlns:rdf="http://www.w3.org/1999/02/22-rdf-syntax-ns#"
	 xmlns="http://www.w3.org/2000/svg" xmlns:xlink="http://www.w3.org/1999/xlink" x="0px" y="0px" width="512px" height="512px"
	 viewBox="0 0 512 512" xml:space="preserve">
<g>
	<rect x="137.717" y="495.067" fill="#FFFFFF" width="0.003" height="33.862"/>
	<rect x="234.536" y="496.536" fill="#FFFFFF" width="0.003" height="30.925"/>
	<rect x="219.075" fill="#FFFFFF" width="28.345" height="0.158"/>
	<rect x="123.727" fill="#FFFFFF" width="30.923" height="0.158"/>
	<polygon fill="#FFFFFF" points="154.65,0.158 123.727,0.158 123.727,198.431 0,198.431 0,224.84 154.65,224.84 	"/>
	<polygon fill="#FFFFFF" points="120.787,511.997 154.65,511.997 154.65,288.284 0,288.284 0,321.67 120.787,321.67 	"/>
	<polygon fill="#FFFFFF" points="247.42,0.158 219.075,0.158 219.075,224.84 512,224.84 512,198.431 247.42,198.431 	"/>
	<polygon fill="#FFFFFF" points="219.075,511.997 250,511.997 250,323.79 512,323.79 512,288.284 219.075,288.284 	"/>
	<polygon fill="#D72828" points="123.727,0.158 123.727,0 0,0 0,198.431 123.727,198.431 	"/>
	<polygon fill="#D72828" points="247.42,198.431 512,198.431 512,0 247.42,0 247.42,0.158 	"/>
	<polygon fill="#D72828" points="120.787,511.997 120.787,321.67 0,321.67 0,512 120.787,512 	"/>
	<polygon fill="#D72828" points="250,511.997 250,512 512,512 512,323.79 250,323.79 	"/>
	<polygon fill="#003897" points="219.075,288.284 154.65,288.284 154.65,511.997 154.65,512 219.075,512 219.075,511.997 	"/>
	<polygon fill="#003897" points="154.65,224.84 219.075,224.84 219.075,0.158 219.075,0 154.65,0 154.65,0.158 	"/>
	<polygon fill="#003897" points="219.075,288.284 512,288.284 512,224.84 219.075,224.84 154.65,224.84 0,224.84 0,288.284 
		154.65,288.284 	"/>
</g>
</svg>
