<?xml version="1.0" encoding="utf-8"?>
<!-- Generator: Adobe Illustrator 16.0.0, SVG Export Plug-In . SVG Version: 6.00 Build 0)  -->
<svg version="1.2" baseProfile="tiny"
	 id="svg548" xmlns:cc="http://creativecommons.org/ns#" xmlns:dc="http://purl.org/dc/elements/1.1/" xmlns:rdf="http://www.w3.org/1999/02/22-rdf-syntax-ns#"
	 xmlns="http://www.w3.org/2000/svg" xmlns:xlink="http://www.w3.org/1999/xlink" x="0px" y="0px" width="512px" height="512px"
	 viewBox="0 0 512 512" xml:space="preserve">
<g>
	<polygon fill="#FFFFFF" points="7.958,0 415.98,260.608 152.274,260.299 400.183,511.702 0.323,511.714 0.346,0 0,0 0,512 512,512 
		512,0 	"/>
	<path fill="#CE0000" d="M122.523,247.833l250.822,0.295L12.776,17.828l-0.021,481.455l357.713-0.01L122.523,247.833z
		 M33.115,163.228c10.036,18.209,16.161,27.087,31.915,36.568l4.82-4.424l-10.671-8.891l13.737-3.572l-7.391-12.439l14.392,1.048
		l-1.809-14.485l12.616,7.383l3.948-13.484l9.064,10.861l8.492-10.296l4.623,13.99l11.789-8.204l-1.512,14.228l14.134-1.659
		l-6.625,13.153l13.68,4.077l0,0l0.001,0l-0.001,0l-11.33,8.388l5.584,4.614c13.562-10.482,23.212-20.062,30.754-35.96
		c1.769,21.221-17.684,68.855-68.73,69.381C49.964,233.458,31.007,182.917,33.115,163.228z M158.14,424.963l-25.55-12.29
		l0.526,28.598l-18.787-20.9l-10.74,26.632l-9.149-26.319l-20.365,20.588l1.86-27.734l-26.884,11.427l12.602-24.918l-29.335,0.514
		l21.431-18.322l-27.295-10.476l26.986-8.924l-21.122-19.861l28.437,1.814l-11.703-26.22l25.55,12.29l-0.526-28.609l18.786,20.9
		l10.729-26.62l9.162,26.319l20.365-20.6l-1.874,27.733l26.897-11.414l-12.602,24.918l29.321-0.513l-21.43,18.322l27.308,10.463
		l-26.986,8.936l21.108,19.862l-28.437-1.828L158.14,424.963z"/>
	<path fill="#000063" d="M400.183,511.702L152.274,260.299l263.706,0.31L7.958,0H0.346L0.323,511.714L400.183,511.702z
		 M12.776,17.828l360.569,230.3l-250.822-0.295l247.945,251.44l-357.713,0.01L12.776,17.828z"/>
	<polygon fill="#FFFFFF" points="153.751,380.696 180.738,371.761 153.43,361.298 174.86,342.976 145.538,343.488 158.14,318.57 
		131.242,329.984 133.116,302.251 112.751,322.851 103.589,296.531 92.861,323.151 74.074,302.251 74.601,330.86 49.051,318.57 
		60.754,344.79 32.318,342.976 53.44,362.837 26.453,371.761 53.748,382.236 32.318,400.559 61.653,400.045 49.051,424.963 
		75.935,413.536 74.074,441.271 94.44,420.683 103.589,447.002 114.329,420.37 133.116,441.271 132.59,412.673 158.14,424.963 
		146.423,398.73 174.86,400.559 	"/>
	<path fill="#FFFFFF" d="M104.597,233.504c51.047-0.525,70.499-48.16,68.73-69.381c-7.542,15.898-17.192,25.478-30.754,35.96
		l-5.584-4.614l11.33-8.388l-13.68-4.077l6.625-13.153l-14.134,1.659l1.512-14.228l-11.789,8.204l-4.623-13.99l-8.492,10.296
		l-9.064-10.861l-3.948,13.484l-12.616-7.383l1.809,14.485l-14.392-1.048l7.391,12.439l-13.737,3.572l10.671,8.891l-4.82,4.424
		c-15.754-9.481-21.879-18.359-31.915-36.568C31.007,182.917,49.964,233.458,104.597,233.504z"/>
	<polygon fill="#FFFFFF" points="148.32,187.082 148.32,187.082 148.321,187.082 	"/>
</g>
</svg>
