<?xml version="1.0" encoding="utf-8"?>
<!-- Generator: Adobe Illustrator 16.0.0, SVG Export Plug-In . SVG Version: 6.00 Build 0)  -->
<svg version="1.2" baseProfile="tiny"
	 id="svg3473" xmlns:cc="http://creativecommons.org/ns#" xmlns:dc="http://purl.org/dc/elements/1.1/" xmlns:rdf="http://www.w3.org/1999/02/22-rdf-syntax-ns#"
	 xmlns="http://www.w3.org/2000/svg" xmlns:xlink="http://www.w3.org/1999/xlink" x="0px" y="0px" width="512px" height="512px"
	 viewBox="0 0 512 512" xml:space="preserve">
<g>
	<rect x="-0.006" fill="#002170" width="511.982" height="234.101"/>
	<polygon fill="#002170" points="116.189,277.883 127.578,320.578 159.444,286.603 147.345,331.589 191.934,318.092 
		158.954,350.998 204.318,361.611 159.304,373.619 193.289,405.492 148.302,393.385 161.8,437.974 128.885,405.004 118.281,450.366 
		106.273,405.353 74.4,439.329 86.506,394.342 41.917,407.839 74.888,374.934 29.526,364.32 74.539,352.312 40.553,320.439 
		85.54,332.547 72.052,287.957 104.957,320.928 115.028,277.883 -0.006,277.883 -0.006,511.983 511.977,511.983 511.977,277.883 	
		"/>
	<polygon fill="#FFB20D" points="115.571,275.564 116.189,277.883 511.977,277.883 511.977,234.101 -0.006,234.101 -0.006,277.883 
		115.028,277.883 	"/>
	<polygon fill="#FFFFFF" points="115.028,277.883 104.957,320.928 72.052,287.957 85.54,332.547 40.553,320.439 74.539,352.312 
		29.526,364.32 74.888,374.934 41.917,407.839 86.506,394.342 74.4,439.329 106.273,405.353 118.281,450.366 128.885,405.004 
		161.8,437.974 148.302,393.385 193.289,405.492 159.304,373.619 204.318,361.611 158.954,350.998 191.934,318.092 147.345,331.589 
		159.444,286.603 127.578,320.578 116.189,277.883 115.571,275.564 	"/>
</g>
</svg>
