<?xml version="1.0" encoding="utf-8"?>
<!-- Generator: Adobe Illustrator 16.0.0, SVG Export Plug-In . SVG Version: 6.00 Build 0)  -->
<svg version="1.2" baseProfile="tiny"
	 id="svg2498" xmlns:cc="http://creativecommons.org/ns#" xmlns:dc="http://purl.org/dc/elements/1.1/" xmlns:rdf="http://www.w3.org/1999/02/22-rdf-syntax-ns#"
	 xmlns="http://www.w3.org/2000/svg" xmlns:xlink="http://www.w3.org/1999/xlink" x="0px" y="0px" width="512px" height="512px"
	 viewBox="0 0 512 512" xml:space="preserve">
<g>
	<polygon fill="none" points="0.014,0 0.014,0.001 0.014,0.001 	"/>
	<path fill="#FFFFFF" d="M151.161,177.315l39.612-0.268L40.406,255.992h22.991l138.988-73.188v73.188h108.029v-73.188l148.23,72.768
		l35.192,0.42h18.146v-1.267l-160.539-79.93l42.663,0.331h-0.001l117.102,61.42l0.775,13.43v-9.163l-0.668-12.544L409.92,173.331
		h102.063V83.337l-119.889-0.449l119.889-59.451V2.075L355.528,81.089l-41.035,0.33l-0.001,0v0h0.001L472.66,1.259l39.323-0.641V0v0
		H0.014v0v0L169.329,83.78l-46.3-1.342L0.014,19.23v153.642l102.342,0.578L0.014,227.346v28.646h0.214L151.161,177.315z
		 M309.877,0.001L309.877,0.001L309.877,0.001l145.929,0.568L309.877,73.416V0.001z M52.693,0h0.011h149.159v77.915L52.693,0z
		 M0.555,28.869h0.007l107.193,54.469l-107.74-1.35L0.555,28.869z M0.021,156.304V99.466h221.736V0h68.229v99.466h221.735v56.838
		h-220.71c-0.336,0.433-0.675,0.864-1.025,1.284v98.181h-68.229v-98.737c-0.194-0.24-0.383-0.484-0.572-0.728H0.021z"/>
	<polygon fill="#CC0000" points="0.013,0 0.014,0.001 0.014,0 	"/>
	<polygon fill="#CC0000" points="169.329,83.78 0.014,0.001 0.014,0.001 0,12.23 0,19.223 0.014,19.23 123.03,82.438 	"/>
	<polygon fill="#000066" points="201.863,0 52.703,0 52.693,0 201.863,77.915 	"/>
	<path fill="#CC0000" d="M256.098,173.452c-13.875,0-26.249-6.408-34.341-16.42v98.737h68.229v-98.181
		C281.889,167.282,269.716,173.452,256.098,173.452z M267.133,229.632l-11.036-7.35l-11.037,7.349l4.23-11.875l-11.049-7.336
		l13.65,0.012l4.207-11.882l4.206,11.882l13.65-0.009l-11.05,7.333L267.133,229.632z"/>
	<path fill="#CC0000" d="M211.958,129.312c0-24.378,19.761-44.14,44.14-44.14c24.377,0,44.14,19.762,44.14,44.14
		c0,10.169-3.448,19.529-9.227,26.992h220.71V99.466H289.986V0h-68.229v99.466H0.021v56.838h221.164
		C215.406,148.841,211.958,139.482,211.958,129.312z M401.215,122.146l4.207-11.882l4.207,11.882l13.65-0.009l-11.051,7.333
		l4.229,11.877l-11.037-7.35l-11.036,7.348l4.229-11.875l-11.048-7.336L401.215,122.146z M251.892,38.02l4.207-11.882l4.206,11.882
		l13.65-0.009l-11.05,7.332l4.228,11.877l-11.036-7.35l-11.037,7.348l4.23-11.875l-11.049-7.336L251.892,38.02z M117.347,141.346
		l-11.036-7.35l-11.037,7.348l4.23-11.875l-11.049-7.336l13.65,0.012l4.207-11.882l4.207,11.882l13.649-0.009l-11.05,7.333
		L117.347,141.346z"/>
	
		<line fill="none" stroke="#000066" stroke-width="0" stroke-linecap="round" stroke-linejoin="round" x1="309.877" y1="0.001" x2="309.877" y2="0"/>
	<polygon fill="#000066" points="309.877,0.001 309.877,73.416 455.806,0.569 	"/>
	<polygon fill="#CC0000" points="314.491,81.42 314.492,81.419 314.491,81.419 	"/>
	<polygon fill="#CC0000" points="314.492,81.419 355.528,81.089 511.984,2.075 511.984,0.618 472.66,1.259 	"/>
	<polygon fill="#000066" points="0.014,172.872 0.014,172.877 0.014,227.346 102.356,173.45 	"/>
	<polygon fill="#CC0000" points="151.161,177.315 0.228,255.992 40.406,255.992 190.774,177.047 	"/>
	<polygon fill="#CC0000" points="394.107,175.127 394.108,175.127 351.445,174.796 511.984,254.726 511.984,249.978 
		511.208,236.547 	"/>
	<polygon fill="#000066" points="63.398,255.992 202.386,255.992 202.386,182.804 	"/>
	<polygon fill="#000066" points="511.984,83.337 511.984,23.437 392.095,82.888 	"/>
	<polygon fill="#000066" points="0.562,28.869 0.555,28.869 0.015,81.988 107.755,83.338 	"/>
	<polygon fill="#000066" points="310.415,182.804 310.415,255.992 493.838,255.992 458.646,255.572 	"/>
	<polygon fill="#000066" points="511.316,228.271 511.984,240.814 511.984,173.331 409.92,173.331 	"/>
	
		<line fill="none" stroke="#FFD900" stroke-width="0" stroke-linecap="round" stroke-linejoin="round" x1="511.984" y1="2.075" x2="511.984" y2="23.437"/>
	
		<line fill="none" stroke="#FFD900" stroke-width="0" stroke-linecap="round" stroke-linejoin="round" x1="511.984" y1="255.992" x2="511.984" y2="254.726"/>
	
		<line fill="none" stroke="#FFD900" stroke-width="0" stroke-linecap="round" stroke-linejoin="round" x1="511.984" y1="0" x2="511.984" y2="0.618"/>
	
		<line fill="none" stroke="#FFD900" stroke-width="0" stroke-linecap="round" stroke-linejoin="round" x1="511.984" y1="249.978" x2="511.984" y2="240.814"/>
	
		<line fill="none" stroke="#FFD900" stroke-width="0" stroke-linecap="round" stroke-linejoin="round" x1="511.984" y1="249.978" x2="511.984" y2="254.726"/>
	
		<line fill="none" stroke="#FFD900" stroke-width="0" stroke-linecap="round" stroke-linejoin="round" x1="511.984" y1="83.337" x2="511.984" y2="173.331"/>
	
		<line fill="none" stroke="#FFD900" stroke-width="0" stroke-linecap="round" stroke-linejoin="round" x1="511.984" y1="2.075" x2="511.984" y2="0.618"/>
	
		<line fill="none" stroke="#FFD900" stroke-width="0" stroke-linecap="round" stroke-linejoin="round" x1="511.984" y1="83.337" x2="511.984" y2="23.437"/>
	
		<line fill="none" stroke="#FFD900" stroke-width="0" stroke-linecap="round" stroke-linejoin="round" x1="511.984" y1="240.814" x2="511.984" y2="173.331"/>
	<polygon fill="#FFD900" points="511.984,255.992 493.838,255.992 310.415,255.992 202.386,255.992 63.398,255.992 40.406,255.992 
		0.228,255.992 0.014,255.992 0,255.992 0,511.983 0.544,511.983 511.984,511.983 	"/>
	<path fill="#000067" d="M256.098,85.172c-24.379,0-44.14,19.762-44.14,44.14c0,10.17,3.448,19.529,9.227,26.992
		c0.189,0.244,0.378,0.488,0.572,0.728c8.092,10.012,20.466,16.42,34.341,16.42c13.618,0,25.791-6.17,33.888-15.864
		c0.351-0.42,0.689-0.851,1.025-1.284c5.778-7.463,9.227-16.823,9.227-26.992C300.238,104.934,280.475,85.172,256.098,85.172z
		 M278.654,159.001l-22.27-15.7l-22.27,15.696l8.535-25.365l-22.293-15.67l27.543,0.026l8.488-25.38l8.488,25.38l27.543-0.019
		l-22.297,15.663L278.654,159.001z"/>
	<polygon fill="#FFF40D" points="264.876,117.989 256.388,92.609 247.9,117.989 220.357,117.963 242.65,133.633 234.115,158.998 
		256.384,143.302 278.654,159.001 270.122,133.633 292.419,117.97 	"/>
	<polygon fill="#FFF40D" points="394.384,141.344 405.42,133.996 416.457,141.346 412.229,129.469 423.28,122.137 409.629,122.146 
		405.422,110.264 401.215,122.146 387.566,122.133 398.614,129.469 	"/>
	<polygon fill="#FFF40D" points="260.305,210.432 256.099,198.549 251.892,210.432 238.241,210.419 249.29,217.755 245.06,229.63 
		256.097,222.282 267.133,229.632 262.906,217.755 273.955,210.423 	"/>
	<polygon fill="#FFF40D" points="245.06,57.218 256.097,49.87 267.133,57.22 262.906,45.343 273.955,38.011 260.305,38.02 
		256.099,26.137 251.892,38.02 238.241,38.007 249.29,45.343 	"/>
	<polygon fill="#FFF40D" points="110.52,122.146 106.313,110.264 102.106,122.146 88.455,122.133 99.504,129.469 95.274,141.344 
		106.311,133.996 117.347,141.346 113.119,129.469 124.169,122.137 	"/>
</g>
</svg>
