<?xml version="1.0" encoding="utf-8"?>
<!-- Generator: Adobe Illustrator 16.0.0, SVG Export Plug-In . SVG Version: 6.00 Build 0)  -->
<svg version="1.2" baseProfile="tiny"
	 id="svg566" xmlns:cc="http://creativecommons.org/ns#" xmlns:dc="http://purl.org/dc/elements/1.1/" xmlns:rdf="http://www.w3.org/1999/02/22-rdf-syntax-ns#"
	 xmlns="http://www.w3.org/2000/svg" xmlns:xlink="http://www.w3.org/1999/xlink" x="0px" y="0px" width="512px" height="512px"
	 viewBox="0 0 512 512" xml:space="preserve">
<g id="flag">
	<rect id="rect580" x="0.004" fill="#00006A" width="512" height="512"/>
	<g id="g560" transform="matrix(1.0176 0 0 .95605 -.00099034 -1.0435)">
		<path id="path572" fill="#FFFFFF" d="M0,1.094l237.695,241.385h48.757L53.89,1.207L0,1.094z"/>
		<path id="path577" fill="#FF0000" d="M268.641,242.465L35.917,1.089L17.806,1.385L251.504,242.47h17.136L268.641,242.465z"/>
		<path id="path581" fill="#FFFFFF" d="M286.457,1.094L48.761,242.479H0.005L232.567,1.207L286.457,1.094z"/>
		<path id="path579" fill="#FF0000" d="M268.59,1.095L35.957,242.471l-18.104,0.009L251.459,1.095H268.59L268.59,1.095z"/>
		<rect id="rect570" x="120.31" y="1.095" fill="#FFFFFF" width="45.831" height="241.38"/>
		<rect id="rect569" x="0.005" y="97.646" fill="#FFFFFF" width="286.44" height="48.276"/>
		<rect id="rect574" x="130.34" y="1.095" fill="#FF0000" width="25.78" height="241.38"/>
		<rect id="rect575" x="0.005" y="109.72" fill="#FF0000" width="286.44" height="24.138"/>
	</g>
	<g id="g8203" transform="matrix(.86562 0 0 .86562 -61.26 103.94)">
		<g id="g591" transform="matrix(1.0266 0 0 1.0321 -.00099878 .00044559)">
			<polygon id="polygon589" fill="#FFFFFF" points="519.07,106.764 497.039,90.569 474.2,105.594 482.799,79.642 461.449,62.565 
				488.79,62.72 498.43,37.14 506.74,63.187 534.039,64.455 511.84,80.398 			"/>
			<polygon id="polygon590" fill="#FF0000" points="510.234,93.652 497.203,84.278 483.884,93.24 488.779,77.95 476.133,68.052 
				492.195,67.977 497.701,52.897 502.73,68.141 518.771,68.72 505.836,78.217 			"/>
		</g>
		<g id="g594" transform="matrix(1.0266 0 0 1.0321 -86.795 144.08)">
			<polygon id="polygon595" fill="#FFFFFF" points="519.069,106.764 497.04,90.569 474.2,105.593 482.8,79.641 461.45,62.565 
				488.79,62.72 498.429,37.14 506.739,63.186 534.04,64.454 511.84,80.398 			"/>
			<polygon id="polygon596" fill="#FF0000" points="510.235,93.652 497.203,84.278 483.884,93.24 488.78,77.95 476.133,68.052 
				492.195,67.976 497.702,52.898 502.729,68.142 518.771,68.719 505.836,78.218 			"/>
		</g>
		<g id="g597" transform="matrix(1.0266 0 0 1.0321 90.83 129.88)">
			<polygon id="polygon598" fill="#FFFFFF" points="519.069,106.764 497.04,90.568 474.2,105.594 482.799,79.642 461.45,62.565 
				488.789,62.719 498.429,37.14 506.739,63.187 534.039,64.455 511.84,80.398 			"/>
			<polygon id="polygon599" fill="#FF0000" points="510.234,93.652 497.203,84.278 483.884,93.24 488.779,77.95 476.133,68.051 
				492.195,67.977 497.701,52.897 502.729,68.141 518.771,68.72 505.836,78.217 			"/>
		</g>
		<g id="g600" transform="matrix(1.0266 0 0 1.0321 -2.0195 334.84)">
			<polygon id="polygon601" fill="#FFFFFF" points="519.07,106.764 497.04,90.569 474.199,105.593 482.8,79.641 461.449,62.564 
				488.79,62.72 498.43,37.139 506.74,63.186 534.04,64.454 511.84,80.398 			"/>
			<polygon id="polygon602" fill="#FF0000" points="510.234,93.653 497.202,84.278 483.883,93.24 488.779,77.95 476.132,68.052 
				492.195,67.976 497.701,52.897 502.73,68.141 518.77,68.719 505.835,78.217 			"/>
		</g>
	</g>
</g>
</svg>
