<?xml version="1.0" encoding="utf-8"?>
<!-- Generator: Adobe Illustrator 16.0.0, SVG Export Plug-In . SVG Version: 6.00 Build 0)  -->
<svg version="1.2" baseProfile="tiny"
	 id="svg548" xmlns:cc="http://creativecommons.org/ns#" xmlns:dc="http://purl.org/dc/elements/1.1/" xmlns:rdf="http://www.w3.org/1999/02/22-rdf-syntax-ns#"
	 xmlns="http://www.w3.org/2000/svg" xmlns:xlink="http://www.w3.org/1999/xlink" x="0px" y="0px" width="512px" height="512px"
	 viewBox="0 0 512 512" xml:space="preserve">
<g>
	<path fill="#FFFFFF" d="M512,128H0v256h512V128z M373.865,241.594l-49.376,5.936v0l-0.312-17.811l39.062-16.562L373.865,241.594z
		 M360.43,205.35L360.43,205.35L360.43,205.35l-35.625,18.75c-0.521-2.032-0.962-3.986-3.437-5.626c0,0,2.187-1.25,2.187-3.438
		c0-2.186-2.812-2.5-2.812-3.75s2.578-2.342,2.733-5.155c-0.312-1.953-2.733-4.686-2.265-5.234l27.656-21.172L360.43,205.35
		L360.43,205.35z M192.436,288.474c-0.014-0.076-0.022-0.152-0.022-0.229c-0.004-0.623-0.423-62.271-0.555-64.776
		c0.009-1.436,1.294-2.139,2.428-2.759c0.475-0.259,1.357-0.743,1.477-1.009c-0.005-0.129-0.478-0.569-0.823-0.89
		c-0.881-0.819-2.087-1.94-2.246-3.935c-0.126-1.624,1.317-2.383,2.273-2.886c0.341-0.18,0.977-0.514,1.071-0.698
		c-0.018-0.413-0.804-1.069-1.435-1.597c-1-0.836-2.134-1.783-2.067-3.193c0.001-0.036,0.005-0.073,0.01-0.108
		c0.15-1.111,0.902-1.97,1.564-2.728c0.557-0.637,1.083-1.239,1.097-1.764c0.017-0.678-0.639-1.301-1.166-1.802
		c-0.534-0.508-1.266-1.203-0.881-2.169c0.437-1.096,1.819-1.098,3.282-1.099l6.794-0.139c0.042-0.001,0.087,0,0.129,0.004
		c0.266,0.012,2.34,0.065,2.859,0.042c0.525-0.013,1.012,0.281,1.215,0.766c0.203,0.486,0.08,1.047-0.308,1.403
		c-0.285,0.262-0.681,0.535-1.139,0.851c-0.751,0.518-2.51,1.731-2.459,2.401c0.029,0.365,0.634,0.664,1.553,1.078
		c1.268,0.571,3.004,1.352,3.176,3.363c0.159,1.951-1.461,2.76-2.534,3.296c-1.016,0.507-1.354,0.74-1.356,1.125
		c0.01,0.308,0.121,0.434,1.183,0.855c1.014,0.402,2.711,1.076,2.711,3.179c0,1.995-1.542,3-2.563,3.666
		c-0.425,0.277-1.068,0.696-1.055,0.897c0.056,0.886,1.41,1.792,2.057,2.092c0.448,0.208,0.735,0.662,0.728,1.155
		c-0.353,22.563-0.543,59.184,0.424,62.74c0.04,0.053,0.076,0.108,0.107,0.166c2.746,5.079,10.629,8.766,18.745,8.766
		c7.619-0.001,13.946-3.243,17.359-8.896c0.319-0.527,0.974-0.745,1.545-0.51c0.57,0.233,0.885,0.849,0.741,1.448
		c-4.437,18.488-14.554,29.526-27.062,29.526c-0.001,0-0.003,0-0.004,0C206.618,316.105,195.575,304.741,192.436,288.474z
		 M193.259,298.543l-41.039-0.328l-4.294-12.226l1.678-1.01c0.07,0.076,7.259,7.752,13.908,7.491
		c2.58-0.112,5.464-1.829,8.519-3.646c3.807-2.266,8.122-4.834,12.873-4.834c1.453,0,2.896,0.243,4.29,0.723l0.642,0.22l0.032,0.678
		c0.297,6.272,2.693,11.444,2.718,11.495L193.259,298.543z M249.01,254.377c-0.33-0.443-0.238-1.069,0.205-1.399
		c0.443-0.33,1.069-0.238,1.399,0.205l4.249,5.705l0.209-6.082c0.019-0.553,0.483-0.997,1.034-0.965
		c0.552,0.019,0.984,0.482,0.965,1.034l-0.188,5.479l4.035-4.883c0.35-0.426,0.98-0.487,1.407-0.134
		c0.426,0.352,0.486,0.982,0.134,1.408l-5.618,6.8l4.712,6.327c0.33,0.443,0.238,1.069-0.204,1.399
		c-0.18,0.134-0.39,0.198-0.597,0.198c-0.306,0-0.606-0.139-0.803-0.402l-4.42-5.935l-4.946,5.986
		c-0.198,0.239-0.483,0.363-0.771,0.363c-0.225,0-0.45-0.075-0.636-0.229c-0.426-0.352-0.486-0.981-0.134-1.407l5.258-6.364
		L249.01,254.377z M302.628,273.781c1.38,0.005,2.496,1.128,2.491,2.509c-0.005,1.377-1.123,2.491-2.5,2.491
		c-0.003,0-0.006,0-0.009,0l-92.499-0.311c-1.381-0.005-2.496-1.128-2.492-2.509c0.005-1.377,1.123-2.491,2.5-2.491
		c0.003,0,0.005,0,0.008,0L302.628,273.781z M267.448,254.377c-0.33-0.443-0.238-1.069,0.204-1.399
		c0.444-0.331,1.069-0.238,1.399,0.205l4.249,5.706l0.21-6.083c0.019-0.552,0.483-0.978,1.033-0.965
		c0.552,0.019,0.984,0.482,0.965,1.034l-0.189,5.479l4.036-4.884c0.35-0.426,0.98-0.487,1.407-0.134
		c0.426,0.352,0.486,0.982,0.134,1.408l-5.618,6.8l4.711,6.327c0.33,0.443,0.238,1.07-0.204,1.399
		c-0.18,0.134-0.39,0.198-0.597,0.198c-0.306,0-0.606-0.139-0.803-0.402l-4.419-5.935l-4.946,5.986
		c-0.197,0.239-0.483,0.363-0.771,0.363c-0.224,0-0.449-0.075-0.636-0.229c-0.426-0.352-0.486-0.981-0.134-1.407l5.258-6.364
		L267.448,254.377z M297.801,267.87c0.33,0.443,0.238,1.069-0.204,1.399c-0.18,0.134-0.39,0.198-0.597,0.198
		c-0.306,0-0.606-0.139-0.803-0.402l-4.42-5.936l-4.946,5.987c-0.197,0.239-0.483,0.363-0.771,0.363
		c-0.224,0-0.449-0.075-0.636-0.229c-0.426-0.352-0.486-0.981-0.134-1.407l5.258-6.364l-5.289-7.103
		c-0.33-0.443-0.238-1.069,0.204-1.399c0.444-0.331,1.07-0.238,1.399,0.205l4.25,5.706l0.209-6.083
		c0.02-0.552,0.499-0.978,1.033-0.965c0.552,0.019,0.984,0.482,0.965,1.034l-0.188,5.479l4.035-4.884
		c0.351-0.426,0.98-0.487,1.407-0.134c0.426,0.352,0.486,0.982,0.134,1.408l-5.618,6.8L297.801,267.87z M283.25,247.06
		L283.25,247.06l18.122-7.97l-0.312,7.19L283.25,247.06z M283.24,243.16l-0.076-8.124c0,0,16.872-15.233,20.466-18.047
		c0,3.125-1.951,5.545-1.951,5.545v11.876L283.24,243.16z M294.023,290.1h-16.348l-0.225-0.122
		c-3.677-2.007-6.904-4.035-9.164-8.556l-0.742-1.485l15.361,0.355l0.227,0.136c0.262,0.157,6.448,3.897,9.652,8.062L294.023,290.1z
		 M244.039,296.603l1.529-0.049c1.066-5.426,6.255-6.585,10.488-6.585c4.314,0,7.448,0.997,9.313,2.965
		c1.776,1.872,1.688,3.938,1.685,4.025l-0.049,0.918l-22.555,0.714l0.644-0.927L244.039,296.603z M244.878,279.937l-0.743,1.485
		c-2.261,4.521-5.489,6.549-9.166,8.556l-0.224,0.122h-16.348l1.239-1.609c3.205-4.165,9.389-7.905,9.651-8.062l0.227-0.136
		L244.878,279.937z M226.24,267.87c0.33,0.443,0.238,1.07-0.205,1.399c-0.179,0.134-0.389,0.198-0.596,0.198
		c-0.305,0-0.607-0.139-0.803-0.402l-4.419-5.935l-4.945,5.986c-0.198,0.239-0.483,0.363-0.771,0.363
		c-0.225,0-0.45-0.075-0.636-0.229c-0.426-0.352-0.486-0.981-0.134-1.407l5.258-6.364l-5.289-7.103
		c-0.33-0.443-0.238-1.069,0.205-1.399c0.443-0.33,1.07-0.238,1.399,0.205l4.249,5.705l0.209-6.083
		c0.019-0.552,0.45-0.997,1.034-0.965c0.552,0.019,0.984,0.482,0.965,1.034l-0.189,5.478l4.035-4.883
		c0.352-0.426,0.983-0.485,1.408-0.134c0.426,0.352,0.486,0.982,0.134,1.408l-5.619,6.8L226.24,267.87z M210.12,245.974v-7.5
		l18.75,8.046L210.12,245.974z M228.789,244.33L228.789,244.33L228.789,244.33L228.789,244.33l-18.671-9.61v-12.499
		c0,0-2.188,0.312-1.876-2.188c0.104-5.208,13.724,9.506,20.703,14.297L228.789,244.33z M256.351,301.49
		c0.343-0.031,0.742-0.048,1.14-0.048c10.213,0,18.83,11.319,19.654,13.292c0.281,0.673-0.033,1.095-0.181,1.245l-0.294,0.297
		l-40.18,0.024h-0.987l-0.048-1.033C235.435,313.679,244.093,301.812,256.351,301.49z M267.224,286.582
		c-0.144-0.6,0.171-1.215,0.741-1.448c0.567-0.234,1.226-0.019,1.545,0.51c3.413,5.653,9.739,8.896,17.358,8.896
		c8.116,0,15.999-3.687,18.745-8.766c0.031-0.059,0.067-0.113,0.107-0.166c0.968-3.557,0.777-40.177,0.424-62.74
		c-0.008-0.497,0.279-0.951,0.731-1.157c0.644-0.298,1.997-1.204,2.054-2.091c0.013-0.21-0.398-0.513-0.981-0.919
		c-0.957-0.667-2.404-1.674-2.404-3.644c0-2.083,1.608-2.762,2.569-3.168c0.985-0.416,1.08-0.536,1.092-0.912
		c-0.004-0.387-0.304-0.632-1.266-1.194c-0.982-0.574-2.468-1.442-2.313-3.333c0.16-1.877,1.378-2.7,2.268-3.301
		c0.769-0.52,1.021-0.729,1.056-1.218c0.066-0.939-0.726-1.67-1.768-2.529c-0.216-0.177-0.414-0.341-0.579-0.493
		c-0.388-0.356-0.511-0.917-0.308-1.403c0.203-0.485,0.701-0.786,1.215-0.766c0.521,0.023,2.44-0.029,2.7-0.042
		c0.044-0.003,0.088-0.008,0.132-0.004l6.817,0.139c1.439,0.001,2.821,0.002,3.259,1.098c0.385,0.966-0.347,1.662-0.881,2.169
		c-0.527,0.501-1.183,1.125-1.165,1.801c0.013,0.527,0.539,1.129,1.097,1.766c0.662,0.757,1.413,1.615,1.564,2.725
		c0.005,0.037,0.009,0.074,0.011,0.111c0.064,1.409-1.069,2.355-2.069,3.191c-0.631,0.527-1.417,1.184-1.427,1.625
		c0.086,0.155,0.722,0.49,1.063,0.67c0.956,0.503,2.399,1.263,2.272,2.885c-0.158,1.996-1.364,3.117-2.245,3.935
		c-0.345,0.321-0.817,0.76-0.812,0.944c0.109,0.214,0.992,0.696,1.466,0.956c1.135,0.62,2.421,1.324,2.43,2.686
		c-0.132,2.578-0.552,64.227-0.556,64.85c-0.001,0.076-0.008,0.152-0.022,0.229c-3.141,16.271-14.183,27.635-26.854,27.635
		C281.78,316.108,271.661,305.07,267.224,286.582z M320.155,297.105c0.024-0.051,2.421-5.223,2.719-11.495l0.032-0.678l0.642-0.22
		c1.394-0.479,2.838-0.723,4.29-0.723c4.75,0,9.065,2.568,12.872,4.834c3.055,1.817,5.939,3.534,8.52,3.646
		c6.66,0.282,13.838-7.414,13.908-7.491l1.678,1.01l-4.294,12.225l-41.041,0.33L320.155,297.105z M339.191,176.1L339.191,176.1
		c-0.279,0.557-18.655,19.243-18.655,19.243c-0.834-2.225-6.39-1.157-11.676-1.157c-5.287,0-6.023,1.695-5.743,3.086
		c0.556,3.618,2.342,0.952,2.342,4.292c0,3.338-2.572,2.12-2.803,4.564c0.256,2.807,4.039,2.114,1.823,4.241L283.2,230.795
		l0.061-19.356l39.512-61.495L339.191,176.1z M310.81,154.959L310.81,154.959l-27.65,49.329l0.036-20.79
		c0,0,2.293-3.496-1.324-3.217c-3.617,0.278-8.068-0.278-8.068-0.278l11.129-38.956L310.81,154.959z M234.594,160.18
		c3.036-7.336,6.174-14.922,25.07-14.922c4.577,0,10.05,0.455,16.264,1.351c0.631,0.091,1.092,0.643,1.07,1.28
		s-0.52,1.156-1.155,1.204c-11.873,0.896-18.49,6.532-18.153,15.461c0.346,9.143,8.718,20.184,18.598,20.184
		c0.001,0,0.001,0,0.001,0c0.216,0,0.433-0.005,0.648-0.016c0.336-0.016,0.676,0.107,0.924,0.343s0.389,0.563,0.389,0.906v58.438
		c0,0.389-0.181,0.755-0.488,0.991c-0.221,0.17-0.489,0.259-0.762,0.259c-0.107,0-0.216-0.014-0.322-0.042l-40.939-10.938
		c-0.545-0.146-0.925-0.638-0.927-1.202l-0.312-72.812C234.498,160.498,234.53,160.333,234.594,160.18z M237.051,258.888
		l0.209-6.083c0.019-0.552,0.451-0.997,1.034-0.965c0.552,0.019,0.984,0.482,0.965,1.034l-0.189,5.478l4.035-4.883
		c0.353-0.426,0.984-0.485,1.408-0.134c0.426,0.352,0.486,0.982,0.134,1.408l-5.619,6.8l4.711,6.327
		c0.33,0.443,0.238,1.07-0.205,1.399c-0.179,0.134-0.389,0.198-0.596,0.198c-0.305,0-0.607-0.139-0.803-0.402l-4.419-5.935
		l-4.945,5.986c-0.198,0.239-0.483,0.363-0.771,0.363c-0.225,0-0.45-0.075-0.636-0.229c-0.426-0.352-0.486-0.981-0.134-1.407
		l5.258-6.364l-5.289-7.103c-0.33-0.443-0.238-1.069,0.205-1.399c0.443-0.33,1.07-0.238,1.399,0.205L237.051,258.888z
		 M225.39,141.601l6.956,12.8c-4.174,2.504-4.452,49.251-4.452,49.251s-24.486-49.808-24.764-50.642L225.39,141.601z
		 M192.306,154.095l36.561,57.342l-0.077,18.361l-17.734-17.188c0,0-2.523-0.096-2.516-1.896c0.012-2.178,2.424-1.604,2.424-4.417
		c0-2.809-3.326-2.625-3.326-4.813c0-2.188,2.22-1.745,2.22-4.869c0-3.125-3.487-2.521-7.863-2.833
		c-4.375-0.312-8.668-0.014-9.19,1.947c0,0-18.621-20.696-18.933-21.009l-0.001,0L192.306,154.095z M161.689,176.912l29.062,25.312
		c0,0-2.812,2.207-2.593,4.265c0.036,1.899,3.4,2.127,3.347,4.025c-0.056,2.06-2.978,2.348-3.033,4.246
		c-0.146,1.876,2.813,3.916,2.813,3.916l-4.597,4.798L154.5,207.85l-0.001,0L161.689,176.912z M146.06,242.85l0.627-29.687
		l40.937,16.25l0.312,17.5L146.06,242.85L146.06,242.85z M187.304,252.536v24.687l-39.374-0.312l-5.626-26.561L187.304,252.536z
		 M145.614,315.33l2.257-1.52v-0.48h0.591c0.098-0.111,0.22-0.254,0.365-0.422c2.316-2.674,9.364-10.812,15.356-11.099
		c3.628-0.167,7.156,1.905,10.57,3.913c3.272,1.925,6.655,3.924,9.917,3.767c4.466-0.203,5.359-1.015,6.594-2.139
		c0.638-0.581,1.362-1.239,2.574-1.9l0.91-0.496l0.463,0.927c1.765,3.53,8.508,7.548,8.576,7.589l3.146,1.86l-58.058,0.007
		L145.614,315.33z M258.908,375.128l-50.737-11.13l1.634-1.309c0.49-0.394,12.083-9.594,23.438-9.594
		c6.616,0,10.583,2.602,14.082,4.897c2.691,1.764,5.014,3.288,8.185,3.541c3.61,0.292,7.048-1.578,10.727-3.568
		c3.808-2.059,8.124-4.394,13.224-4.557c9.871-0.367,21.918,6.717,22.415,7.011l1.967,1.159L258.908,375.128z M185.667,350.719
		l-5.485-5.062l1.422-0.606c0.874-0.373,21.481-9.136,27.526-9.453c3.002-0.167,6.829,1.602,10.863,3.478
		c4.416,2.051,8.977,4.164,12.899,4.021c3.422-0.138,6.562-1.521,9.887-2.984c3.958-1.743,8.445-3.719,14.184-3.893
		c5.2-0.133,8.596,1.649,11.883,3.394c3.148,1.67,6.122,3.247,10.688,3.247c0.568,0,1.157-0.025,1.753-0.074
		c4.757-0.396,6.548-1.82,8.444-3.327c2.5-1.986,5.075-4.035,13.534-3.862c14.938,0.317,27.375,13.507,27.897,14.068l1.572,1.69
		L185.667,350.719z M346.562,333.726l-0.3,0.433l-178.304-0.628c-0.156,0.072-0.331,0.111-0.516,0.111h0
		c-1.292,0-4.901-3.214-4.901-4.688c0-0.735,0.612-1.46,1.882-1.142c0.834-0.005,3.676-1.82,6.183-3.422
		c5.043-3.223,11.32-7.233,16.074-7.233c4.134,0,8.015,2.588,11.767,5.091c3.411,2.275,6.938,4.627,10.501,4.912
		c3.388,0.266,6.143-1.683,9.374-3.965c3.593-2.538,7.665-5.414,13.358-5.414c5.741,0,10.233,2.698,14.197,5.079
		c3.412,2.049,6.634,3.984,10.177,3.984c3.896,0,8.078-2.17,12.121-4.269c4.091-2.123,8.32-4.318,12.528-4.479
		c4.466-0.174,8.781,2.307,12.947,4.7c3.748,2.154,7.261,4.191,10.485,4.048c3.136-0.137,6.205-2.098,9.453-4.175
		c3.866-2.472,7.863-5.027,12.742-5.2l0.062-0.003l0.062,0.006c8.538,0.753,17.835,7.038,20.136,11.941
		C347.576,331.518,347.119,332.92,346.562,333.726z M363.272,315.337l-0.312-0.007h-57.743l3.146-1.86
		c0.067-0.041,6.812-4.059,8.576-7.589l0.463-0.927l0.91,0.496c1.213,0.661,1.937,1.319,2.575,1.9
		c1.235,1.124,2.128,1.936,6.595,2.139c3.274,0.175,6.645-1.842,9.917-3.767c3.413-2.008,6.935-4.081,10.568-3.913
		c5.993,0.286,13.042,8.425,15.357,11.099c0.146,0.168,0.268,0.311,0.365,0.422h0.571l0.01,0.474l2.267,1.526L363.272,315.337z
		 M365.74,277.221h-41.562l-0.312-24.062l45.622-3.438L365.74,277.221z"/>
	<path fill="#083D9C" d="M279.525,355.407c-4.628,0.149-8.547,2.269-12.337,4.318c-3.938,2.13-7.659,4.134-11.838,3.803
		c-3.68-0.294-6.324-2.027-9.122-3.863c-3.425-2.246-6.967-4.569-12.985-4.569c-8.314,0-16.871,5.34-20.455,7.867l46.041,10.101
		l39.95-12.046C294.935,359.042,286.49,355.188,279.525,355.407z"/>
	<path fill="#083D9C" d="M279.46,353.409c-5.1,0.163-9.416,2.498-13.224,4.557c-3.679,1.99-7.117,3.86-10.727,3.568
		c-3.171-0.253-5.494-1.777-8.185-3.541c-3.5-2.296-7.466-4.897-14.082-4.897c-11.355,0-22.948,9.2-23.438,9.594l-1.634,1.309
		l50.737,11.13l44.934-13.549l-1.967-1.159C301.378,360.126,289.331,353.042,279.46,353.409z M212.787,362.963
		c3.584-2.527,12.141-7.867,20.455-7.867c6.018,0,9.56,2.323,12.985,4.569c2.798,1.836,5.442,3.569,9.122,3.863
		c4.179,0.331,7.899-1.673,11.838-3.803c3.79-2.05,7.709-4.169,12.337-4.318c6.965-0.219,15.41,3.635,19.254,5.61l-39.95,12.046
		L212.787,362.963z"/>
	<path fill="#083D9C" d="M186.45,348.723l141.503,0.612c-3.881-3.559-13.756-11.506-24.731-11.738
		c-7.698-0.179-9.919,1.58-12.247,3.429c-2.046,1.626-4.162,3.307-9.522,3.753c-0.65,0.055-1.296,0.082-1.919,0.082
		c-5.063,0-8.399-1.77-11.625-3.48c-3.204-1.7-6.238-3.307-10.885-3.16c-5.35,0.161-9.462,1.972-13.438,3.723
		c-3.503,1.543-6.812,3-10.613,3.152c-4.379,0.195-9.191-2.054-13.821-4.206c-3.797-1.764-7.376-3.442-9.916-3.293
		c-4.823,0.253-20.576,6.677-25.419,8.695L186.45,348.723z"/>
	<path fill="#083D9C" d="M303.265,335.597c-8.459-0.173-11.034,1.876-13.534,3.862c-1.896,1.507-3.688,2.931-8.444,3.327
		c-0.596,0.049-1.185,0.074-1.753,0.074c-4.565,0-7.539-1.577-10.688-3.247c-3.287-1.744-6.683-3.526-11.883-3.394
		c-5.739,0.174-10.226,2.149-14.184,3.893c-3.325,1.464-6.465,2.847-9.887,2.984c-3.922,0.143-8.483-1.971-12.899-4.021
		c-4.035-1.876-7.861-3.645-10.863-3.478c-6.045,0.317-26.652,9.08-27.526,9.453l-1.422,0.606l5.485,5.062l147.068,0.637
		l-1.572-1.69C330.64,349.104,318.203,335.914,303.265,335.597z M219.151,340.889c4.63,2.152,9.442,4.401,13.821,4.206
		c3.801-0.152,7.11-1.609,10.613-3.152c3.977-1.751,8.088-3.562,13.438-3.723c4.646-0.146,7.681,1.46,10.885,3.16
		c3.226,1.711,6.562,3.48,11.625,3.48c0.623,0,1.269-0.027,1.919-0.082c5.36-0.446,7.477-2.127,9.522-3.753
		c2.328-1.849,4.549-3.607,12.247-3.429c10.976,0.232,20.851,8.18,24.731,11.738l-141.503-0.612l-2.634-2.432
		c4.843-2.019,20.596-8.442,25.419-8.695C211.774,337.446,215.353,339.125,219.151,340.889z"/>
	<path fill="#083D9C" d="M326.339,319.471c-4.307,0.175-8.052,2.568-11.674,4.884c-3.481,2.227-6.771,4.328-10.444,4.488
		c-3.768,0.159-7.562-2.01-11.568-4.312c-3.924-2.255-7.97-4.59-11.873-4.437c-3.762,0.144-7.789,2.234-11.684,4.256
		c-4.257,2.209-8.658,4.493-13.043,4.493c-4.097,0-7.551-2.074-11.207-4.271c-3.923-2.356-7.981-4.793-13.167-4.793
		c-5.058,0-8.691,2.566-12.204,5.048c-3.39,2.395-6.596,4.642-10.687,4.325c-4.082-0.327-7.828-2.825-11.451-5.242
		c-3.667-2.445-7.129-4.755-10.658-4.755c-4.169,0-10.427,3.999-14.997,6.918c-3.172,2.027-5.134,3.253-6.495,3.617
		c0.652,0.703,1.611,1.549,2.154,1.859l0.042-0.021h0.24l177.492,0.625c0.132-0.499,0.019-1.133-0.337-1.891
		C342.752,325.944,334.087,320.181,326.339,319.471z"/>
	<path fill="#083D9C" d="M326.453,317.473l-0.062-0.006l-0.062,0.003c-4.879,0.173-8.876,2.729-12.742,5.2
		c-3.248,2.077-6.317,4.038-9.453,4.175c-3.225,0.144-6.737-1.894-10.485-4.048c-4.166-2.394-8.481-4.874-12.947-4.7
		c-4.208,0.16-8.438,2.355-12.528,4.479c-4.043,2.099-8.225,4.269-12.121,4.269c-3.543,0-6.766-1.936-10.177-3.984
		c-3.963-2.381-8.456-5.079-14.197-5.079c-5.693,0-9.765,2.876-13.358,5.414c-3.231,2.282-5.986,4.23-9.374,3.965
		c-3.563-0.285-7.09-2.637-10.501-4.912c-3.752-2.503-7.633-5.091-11.767-5.091c-4.753,0-11.03,4.011-16.074,7.233
		c-2.507,1.602-5.348,3.417-6.183,3.422c-1.27-0.318-1.882,0.406-1.882,1.142c0,1.475,3.61,4.688,4.901,4.688h0
		c0.185,0,0.36-0.039,0.516-0.111l178.304,0.628l0.3-0.433c0.558-0.806,1.015-2.208,0.027-4.312
		C344.288,324.511,334.991,318.226,326.453,317.473z M345.115,332.154l-177.492-0.625h-0.24l-0.042,0.021
		c-0.543-0.311-1.502-1.156-2.154-1.859c1.36-0.364,3.323-1.59,6.495-3.617c4.57-2.919,10.828-6.918,14.997-6.918
		c3.528,0,6.991,2.31,10.658,4.755c3.623,2.417,7.37,4.915,11.451,5.242c4.091,0.316,7.297-1.931,10.687-4.325
		c3.513-2.481,7.146-5.048,12.204-5.048c5.186,0,9.244,2.437,13.167,4.793c3.656,2.196,7.11,4.271,11.207,4.271
		c4.385,0,8.786-2.284,13.043-4.493c3.895-2.021,7.922-4.112,11.684-4.256c3.903-0.153,7.949,2.182,11.873,4.437
		c4.007,2.302,7.801,4.471,11.568,4.312c3.674-0.16,6.963-2.262,10.444-4.488c3.622-2.315,7.367-4.709,11.674-4.884
		c7.748,0.71,16.413,6.474,18.439,10.793C345.134,331.021,345.247,331.655,345.115,332.154z"/>
	<path fill="#FF0000" d="M237.306,232.508l38.442,10.272v-55.551c-11.155-0.372-20.169-12.298-20.557-22.581
		c-0.301-7.968,4.206-13.81,12.369-16.51c-2.872-0.253-5.513-0.38-7.896-0.38c-17.031,0-19.851,6.353-22.664,13.146L237.306,232.508
		z"/>
	<path d="M235.737,234.678l40.939,10.938c0.106,0.028,0.215,0.042,0.322,0.042c0.272,0,0.541-0.089,0.762-0.259
		c0.308-0.236,0.488-0.603,0.488-0.991V185.97c0-0.342-0.141-0.67-0.389-0.906s-0.588-0.358-0.924-0.343
		c-0.216,0.011-0.433,0.016-0.648,0.016c0,0,0,0-0.001,0c-9.88,0-18.252-11.041-18.598-20.184
		c-0.337-8.93,6.28-14.565,18.153-15.461c0.636-0.048,1.134-0.567,1.155-1.204s-0.439-1.188-1.07-1.28
		c-6.214-0.896-11.687-1.351-16.264-1.351c-18.896,0-22.034,7.586-25.07,14.922c-0.063,0.153-0.096,0.317-0.095,0.483l0.312,72.812
		C234.812,234.04,235.192,234.532,235.737,234.678z M259.663,147.758c2.384,0,5.024,0.127,7.896,0.38
		c-8.163,2.7-12.669,8.542-12.369,16.51c0.388,10.283,9.402,22.208,20.557,22.581v55.551l-38.442-10.272l-0.307-71.604
		C239.813,154.111,242.633,147.758,259.663,147.758z"/>
	<path fill="#083D9C" d="M210.12,273.471c-1.377,0-2.495,1.114-2.5,2.491c-0.004,1.381,1.111,2.504,2.492,2.509l92.499,0.311
		c0.003,0,0.006,0,0.009,0c1.377,0,2.495-1.114,2.5-2.491c0.005-1.381-1.111-2.504-2.491-2.509l-92.5-0.311
		C210.126,273.471,210.123,273.471,210.12,273.471z"/>
	<path d="M219.551,258.888l-4.249-5.705c-0.33-0.443-0.957-0.535-1.399-0.205c-0.443,0.33-0.535,0.957-0.205,1.399l5.289,7.103
		l0.495-0.599L219.551,258.888z"/>
	<path d="M221.447,261.937c-0.019,0.54-0.462,0.966-0.999,0.966c-0.012,0-0.023,0-0.035-0.001c-0.002,0-0.003-0.001-0.005-0.001
		l-0.191,0.23l4.419,5.935c0.196,0.264,0.498,0.402,0.803,0.402c0.208,0,0.417-0.064,0.596-0.198
		c0.443-0.329,0.535-0.956,0.205-1.399l-4.711-6.327l-0.071,0.086L221.447,261.937z"/>
	<path d="M227.013,253.335c-0.425-0.351-1.056-0.292-1.408,0.134l-4.035,4.883l-0.113,3.276l0.071-0.086l5.619-6.8
		C227.499,254.317,227.439,253.687,227.013,253.335z"/>
	<path d="M219.448,261.868l0.034-0.987l-0.495,0.599l-5.258,6.364c-0.352,0.426-0.292,1.056,0.134,1.407
		c0.186,0.154,0.412,0.229,0.636,0.229c0.288,0,0.574-0.124,0.771-0.363l4.945-5.986l0.191-0.23
		C219.859,262.879,219.429,262.418,219.448,261.868z"/>
	<path d="M219.448,261.868c-0.019,0.55,0.411,1.011,0.959,1.032c0.002,0,0.003,0.001,0.005,0.001
		c0.012,0.001,0.023,0.001,0.035,0.001c0.537,0,0.98-0.426,0.999-0.966l0.011-0.308l0.113-3.276l0.189-5.478
		c0.019-0.552-0.413-1.015-0.965-1.034c-0.584-0.032-1.015,0.413-1.034,0.965l-0.209,6.083l-0.069,1.993L219.448,261.868z"/>
	<path d="M238.947,261.937c-0.019,0.54-0.462,0.966-0.999,0.966c-0.012,0-0.023,0-0.035-0.001c-0.002,0-0.003-0.001-0.005-0.001
		l-0.191,0.23l4.419,5.935c0.196,0.264,0.498,0.402,0.803,0.402c0.208,0,0.417-0.064,0.596-0.198
		c0.443-0.329,0.535-0.956,0.205-1.399l-4.711-6.327l-0.071,0.086L238.947,261.937z"/>
	<path d="M231.403,252.978c-0.443,0.33-0.535,0.957-0.205,1.399l5.289,7.103l0.495-0.599l0.069-1.993l-4.249-5.705
		C232.473,252.74,231.846,252.648,231.403,252.978z"/>
	<path d="M236.948,261.868l0.034-0.987l-0.495,0.599l-5.258,6.364c-0.352,0.426-0.292,1.056,0.134,1.407
		c0.186,0.154,0.412,0.229,0.636,0.229c0.288,0,0.574-0.124,0.771-0.363l4.945-5.986l0.191-0.23
		C237.359,262.879,236.929,262.418,236.948,261.868z"/>
	<path d="M238.958,261.629l0.071-0.086l5.619-6.8c0.352-0.426,0.292-1.056-0.134-1.408c-0.424-0.351-1.055-0.292-1.408,0.134
		l-4.035,4.883L238.958,261.629z"/>
	<path d="M236.948,261.868c-0.019,0.55,0.411,1.011,0.959,1.032c0.002,0,0.003,0.001,0.005,0.001
		c0.012,0.001,0.023,0.001,0.035,0.001c0.537,0,0.98-0.426,0.999-0.966l0.011-0.308l0.113-3.276l0.189-5.478
		c0.019-0.552-0.413-1.015-0.965-1.034c-0.583-0.032-1.015,0.413-1.034,0.965l-0.209,6.083l-0.069,1.993L236.948,261.868z"/>
	<path d="M256.759,261.937c-0.019,0.54-0.462,0.966-0.999,0.966c-0.012,0-0.023,0-0.035-0.001c-0.002,0-0.004-0.001-0.007-0.002
		l-0.19,0.231l4.42,5.935c0.196,0.264,0.497,0.402,0.803,0.402c0.207,0,0.417-0.064,0.597-0.198c0.442-0.33,0.534-0.956,0.204-1.399
		l-4.712-6.327l-0.07,0.086L256.759,261.937z"/>
	<path d="M254.863,258.888l-4.249-5.705c-0.33-0.443-0.956-0.535-1.399-0.205c-0.443,0.33-0.535,0.957-0.205,1.399l5.29,7.103
		l0.496-0.6L254.863,258.888z"/>
	<path d="M249.175,269.251c0.186,0.154,0.412,0.229,0.636,0.229c0.288,0,0.574-0.124,0.771-0.363l4.946-5.986l0.19-0.231
		c-0.549-0.021-0.978-0.481-0.958-1.031l0.034-0.988l-0.496,0.6l-5.258,6.364C248.689,268.27,248.749,268.899,249.175,269.251z"/>
	<path d="M256.77,261.629l0.07-0.086l5.618-6.8c0.353-0.426,0.292-1.056-0.134-1.408c-0.427-0.353-1.058-0.292-1.407,0.134
		l-4.035,4.883L256.77,261.629z"/>
	<path d="M254.76,261.868c-0.019,0.55,0.41,1.01,0.958,1.031c0.002,0.001,0.004,0.002,0.007,0.002
		c0.012,0.001,0.023,0.001,0.035,0.001c0.537,0,0.98-0.426,0.999-0.966l0.011-0.308l0.112-3.276l0.188-5.479
		c0.02-0.552-0.413-1.015-0.965-1.034c-0.55-0.032-1.015,0.413-1.034,0.965l-0.209,6.082l-0.068,1.992L254.76,261.868z"/>
	<path d="M273.3,258.889l-4.249-5.706c-0.33-0.443-0.955-0.536-1.399-0.205c-0.442,0.33-0.534,0.957-0.204,1.399l5.289,7.103
		l0.495-0.599L273.3,258.889z"/>
	<path d="M275.196,261.937c-0.019,0.54-0.462,0.966-0.998,0.966c-0.012,0-0.023,0-0.035-0.001c-0.002,0-0.004-0.001-0.006-0.001
		l-0.19,0.23l4.419,5.935c0.196,0.264,0.497,0.402,0.803,0.402c0.207,0,0.417-0.064,0.597-0.198
		c0.442-0.329,0.534-0.956,0.204-1.399l-4.711-6.327l-0.071,0.086L275.196,261.937z"/>
	<path d="M267.613,269.251c0.187,0.154,0.412,0.229,0.636,0.229c0.288,0,0.574-0.124,0.771-0.363l4.946-5.986l0.19-0.23
		c-0.549-0.022-0.979-0.482-0.959-1.032l0.034-0.987l-0.495,0.599l-5.258,6.364C267.126,268.27,267.187,268.899,267.613,269.251z"/>
	<path d="M275.206,261.629l0.071-0.086l5.618-6.8c0.353-0.426,0.292-1.056-0.134-1.408c-0.427-0.353-1.058-0.292-1.407,0.134
		l-4.036,4.884L275.206,261.629z"/>
	<path d="M273.198,261.868c-0.02,0.55,0.41,1.01,0.959,1.032c0.002,0,0.004,0.001,0.006,0.001c0.012,0.001,0.023,0.001,0.035,0.001
		c0.536,0,0.979-0.426,0.998-0.966l0.011-0.308l0.112-3.275l0.189-5.479c0.02-0.552-0.413-1.015-0.965-1.034
		c-0.55-0.013-1.015,0.413-1.033,0.965l-0.21,6.083l-0.068,1.992L273.198,261.868z"/>
	<path d="M293.008,261.937c-0.019,0.54-0.462,0.966-0.998,0.966c-0.012,0-0.023,0-0.035-0.001c-0.002,0-0.004-0.001-0.007-0.002
		l-0.19,0.23l4.42,5.936c0.196,0.264,0.497,0.402,0.803,0.402c0.207,0,0.417-0.064,0.597-0.198c0.442-0.33,0.534-0.956,0.204-1.399
		l-4.712-6.327l-0.07,0.085L293.008,261.937z"/>
	<path d="M291.113,258.889l-4.25-5.706c-0.329-0.443-0.955-0.536-1.399-0.205c-0.442,0.33-0.534,0.957-0.204,1.399l5.289,7.103
		l0.496-0.6L291.113,258.889z"/>
	<path d="M298.573,253.335c-0.427-0.353-1.057-0.292-1.407,0.134l-4.035,4.884l-0.112,3.274l0.07-0.085l5.618-6.8
		C299.06,254.317,298.999,253.687,298.573,253.335z"/>
	<path d="M291.01,261.868l0.034-0.988l-0.496,0.6l-5.258,6.364c-0.353,0.426-0.292,1.056,0.134,1.407
		c0.187,0.154,0.412,0.229,0.636,0.229c0.288,0,0.574-0.124,0.771-0.363l4.946-5.987l0.19-0.23
		C291.42,262.877,290.99,262.418,291.01,261.868z"/>
	<path d="M291.01,261.868c-0.02,0.55,0.41,1.009,0.958,1.031c0.003,0.001,0.005,0.002,0.007,0.002
		c0.012,0.001,0.023,0.001,0.035,0.001c0.536,0,0.979-0.426,0.998-0.966l0.011-0.309l0.112-3.274l0.188-5.479
		c0.02-0.552-0.413-1.015-0.965-1.034c-0.534-0.013-1.014,0.413-1.033,0.965l-0.209,6.083l-0.068,1.991L291.01,261.868z"/>
	<polygon fill="#EF7D08" points="187.304,277.223 187.304,252.536 142.304,250.35 147.93,276.91 	"/>
	<polygon fill="#EF7D08" points="187.623,229.413 146.687,213.163 146.06,242.85 146.06,242.85 187.935,246.913 	"/>
	<path fill="#EF7D08" d="M186.688,223.474l4.597-4.798c0,0-2.96-2.04-2.813-3.916c0.056-1.898,2.978-2.186,3.033-4.246
		c0.054-1.898-3.311-2.126-3.347-4.025c-0.22-2.058,2.593-4.265,2.593-4.265l-29.062-25.312l-7.189,30.938l0.001,0L186.688,223.474z
		"/>
	<polygon fill="#EF7D08" points="324.178,277.221 365.74,277.221 369.489,249.72 323.866,253.158 	"/>
	<polygon fill="#EF7D08" points="324.49,247.53 324.49,247.53 373.865,241.594 363.24,213.157 324.178,229.719 	"/>
	<polygon fill="#EF7D08" points="360.43,205.35 360.43,205.35 360.43,205.351 	"/>
	<path fill="#EF7D08" d="M321.211,200.897c-0.469,0.548,1.953,3.281,2.265,5.234c-0.155,2.813-2.733,3.905-2.733,5.155
		s2.812,1.564,2.812,3.75c0,2.188-2.187,3.438-2.187,3.438c2.475,1.64,2.916,3.594,3.437,5.626l35.625-18.75l-11.562-25.625
		L321.211,200.897z"/>
	<polygon fill="#EF7D08" points="301.372,239.09 283.249,247.06 283.25,247.06 301.061,246.28 	"/>
	<polygon fill="#EF7D08" points="210.12,238.474 210.12,245.974 228.87,246.52 	"/>
	<polygon fill="#EF7D08" points="228.79,244.33 228.789,244.33 228.789,244.33 	"/>
	<path fill="#EF7D08" d="M208.242,220.033c-0.312,2.5,1.876,2.188,1.876,2.188v12.499l18.671,9.61l0.156-10
		C221.966,229.539,208.346,214.825,208.242,220.033z"/>
	<path fill="#EF7D08" d="M301.678,222.535c0,0,1.951-2.42,1.951-5.545c-3.594,2.814-20.466,18.047-20.466,18.047l0.076,8.124
		l18.438-8.75V222.535z"/>
	<path fill="#EF7D08" d="M192.803,195.729c0.522-1.961,4.815-2.259,9.19-1.947c4.376,0.312,7.863-0.293,7.863,2.833
		c0,3.124-2.22,2.68-2.22,4.869c0,2.188,3.326,2.004,3.326,4.813c0,2.812-2.412,2.239-2.424,4.417
		c-0.008,1.8,2.516,1.896,2.516,1.896l17.734,17.188l0.077-18.361l-36.561-57.342l-18.437,20.625l0.001,0
		C174.182,175.033,192.803,195.729,192.803,195.729z"/>
	<path fill="#EF7D08" d="M232.346,154.401l-6.956-12.8l-22.26,11.409c0.277,0.834,24.764,50.642,24.764,50.642
		S228.172,156.905,232.346,154.401z"/>
	<path fill="#EF7D08" d="M281.871,180.281c3.617-0.279,1.324,3.217,1.324,3.217l-0.036,20.79l27.65-49.328v-0.001l-25.878-13.913
		l-11.129,38.956C273.803,180.002,278.254,180.559,281.871,180.281z"/>
	<path fill="#EF7D08" d="M283.2,230.795l21.278-20.426c2.216-2.127-1.567-1.434-1.823-4.241c0.23-2.444,2.803-1.227,2.803-4.564
		c0-3.34-1.786-0.674-2.342-4.292c-0.28-1.391,0.456-3.086,5.743-3.086c5.286,0,10.842-1.068,11.676,1.157
		c0,0,18.376-18.687,18.654-19.243l0.001,0l-16.418-26.156l-39.512,61.495L283.2,230.795z"/>
	<path fill="#FF0000" d="M219.29,313.608c0.001,0,0.003,0,0.004,0c10.003,0,18.377-8.122,23.038-22.029
		c-4,3.519-9.439,5.459-15.621,5.46c-9.002,0-17.506-4.033-20.812-9.839c-0.859-1.118-1.313-6.081-1.249-32.772
		c0.033-13.698,0.225-27.508,0.273-30.843c-1.006-0.613-2.648-1.898-2.769-3.809c-0.103-1.656,1.219-2.519,2.185-3.148
		c0.993-0.647,1.429-0.992,1.429-1.572c0-0.314-0.048-0.424-1.134-0.855c-1.008-0.4-2.696-1.071-2.76-3.15
		c0.013-2.029,1.654-2.849,2.739-3.391c0.926-0.463,1.176-0.646,1.159-0.851c-0.042-0.488-0.579-0.782-1.71-1.292
		c-1.212-0.545-2.872-1.292-3.02-3.164c-0.095-1.246,0.645-2.291,1.568-3.147l-5.865,0.12c0.53,0.671,0.989,1.541,0.961,2.639
		c-0.035,1.427-0.966,2.492-1.714,3.347c-0.399,0.456-0.847,0.968-0.951,1.332c0.098,0.241,0.762,0.796,1.165,1.132
		c1.02,0.852,2.288,1.911,2.323,3.487c0.039,1.656-1.428,2.428-2.398,2.939c-0.295,0.155-0.77,0.405-0.936,0.567
		c0.11,0.968,0.731,1.544,1.447,2.209c0.732,0.681,1.645,1.528,1.61,2.84c-0.043,1.594-1.553,2.42-2.767,3.084
		c-0.347,0.19-0.898,0.491-1.123,0.687c0.138,4.276,0.523,60.731,0.549,64.521C197.85,303.127,207.862,313.605,219.29,313.608z"/>
	<path d="M219.289,316.108c0.001,0,0.003,0,0.004,0c12.508,0,22.625-11.038,27.062-29.526c0.144-0.6-0.17-1.215-0.741-1.448
		c-0.571-0.235-1.226-0.018-1.545,0.51c-3.413,5.652-9.74,8.895-17.359,8.896c-8.116,0-15.999-3.687-18.745-8.766
		c-0.032-0.058-0.067-0.113-0.107-0.166c-0.967-3.557-0.777-40.177-0.424-62.74c0.007-0.494-0.28-0.948-0.728-1.155
		c-0.647-0.3-2.001-1.206-2.057-2.092c-0.013-0.202,0.63-0.62,1.055-0.897c1.021-0.666,2.563-1.671,2.563-3.666
		c0-2.103-1.697-2.776-2.711-3.179c-1.062-0.422-1.173-0.547-1.183-0.855c0.002-0.384,0.341-0.618,1.356-1.125
		c1.072-0.536,2.693-1.345,2.534-3.296c-0.172-2.012-1.909-2.792-3.176-3.363c-0.919-0.414-1.524-0.712-1.553-1.078
		c-0.051-0.67,1.708-1.883,2.459-2.401c0.458-0.316,0.854-0.589,1.139-0.851c0.388-0.356,0.511-0.917,0.308-1.403
		c-0.203-0.485-0.69-0.779-1.215-0.766c-0.519,0.023-2.593-0.029-2.859-0.042c-0.042-0.003-0.087-0.005-0.129-0.004l-6.794,0.139
		c-1.463,0.001-2.845,0.003-3.282,1.099c-0.385,0.966,0.347,1.661,0.881,2.169c0.527,0.501,1.183,1.125,1.166,1.802
		c-0.013,0.524-0.54,1.126-1.097,1.764c-0.663,0.758-1.414,1.617-1.564,2.728c-0.005,0.036-0.008,0.072-0.01,0.108
		c-0.067,1.41,1.067,2.357,2.067,3.193c0.631,0.527,1.417,1.184,1.435,1.597c-0.094,0.184-0.73,0.519-1.071,0.698
		c-0.956,0.503-2.399,1.262-2.273,2.886c0.158,1.995,1.365,3.116,2.246,3.935c0.345,0.321,0.818,0.76,0.823,0.89
		c-0.12,0.267-1.002,0.75-1.477,1.009c-1.134,0.62-2.418,1.323-2.428,2.759c0.131,2.505,0.55,64.153,0.555,64.776
		c0,0.076,0.008,0.152,0.022,0.229C195.575,304.741,206.618,316.105,219.289,316.108z M195.486,222.903
		c1.213-0.664,2.724-1.49,2.767-3.084c0.034-1.312-0.878-2.159-1.61-2.84c-0.716-0.665-1.336-1.242-1.447-2.209
		c0.166-0.162,0.641-0.412,0.936-0.567c0.971-0.511,2.438-1.283,2.398-2.939c-0.035-1.576-1.304-2.635-2.323-3.487
		c-0.402-0.336-1.066-0.892-1.165-1.132c0.104-0.364,0.552-0.876,0.951-1.332c0.748-0.855,1.679-1.92,1.714-3.347
		c0.028-1.098-0.431-1.967-0.961-2.639l5.865-0.12c-0.924,0.856-1.663,1.901-1.568,3.147c0.148,1.872,1.808,2.619,3.02,3.164
		c1.131,0.509,1.669,0.803,1.71,1.292c0.017,0.206-0.232,0.388-1.159,0.851c-1.085,0.542-2.726,1.361-2.739,3.391
		c0.064,2.079,1.752,2.75,2.76,3.15c1.085,0.431,1.134,0.541,1.134,0.855c0,0.58-0.436,0.924-1.429,1.572
		c-0.966,0.629-2.288,1.492-2.185,3.148c0.121,1.911,1.763,3.196,2.769,3.809c-0.049,3.335-0.24,17.145-0.273,30.843
		c-0.064,26.691,0.39,31.654,1.249,32.772c3.306,5.806,11.81,9.839,20.812,9.839c6.181-0.001,11.621-1.941,15.621-5.46
		c-4.66,13.907-13.035,22.029-23.038,22.029c-0.001,0-0.003,0-0.004,0c-11.428-0.003-21.44-10.481-24.377-25.497
		c-0.025-3.79-0.411-60.245-0.549-64.521C194.588,223.395,195.139,223.093,195.486,222.903z"/>
	<path fill="#FF0000" d="M286.868,297.039c-6.181,0-11.619-1.94-15.619-5.459c4.66,13.904,13.037,22.028,23.041,22.028
		c11.427,0,21.438-10.479,24.377-25.497c0.025-3.771,0.407-59.673,0.547-64.522c-0.224-0.196-0.774-0.497-1.121-0.686
		c-1.214-0.664-2.724-1.49-2.767-3.083c-0.034-1.312,0.878-2.16,1.61-2.841c0.715-0.665,1.336-1.241,1.446-2.209
		c-0.166-0.162-0.641-0.412-0.936-0.567c-0.97-0.511-2.437-1.282-2.399-2.938c0.036-1.577,1.305-2.636,2.324-3.488
		c0.396-0.331,1.046-0.873,1.162-1.144c-0.111-0.363-0.553-0.869-0.947-1.319c-0.748-0.855-1.68-1.92-1.715-3.35
		c-0.028-1.097,0.431-1.966,0.961-2.637l-6.31-0.129c0.577,0.772,1.003,1.731,0.92,2.911c-0.127,1.745-1.296,2.535-2.15,3.112
		c-0.827,0.56-1.122,0.811-1.176,1.437c-0.021,0.258,0.182,0.439,1.083,0.966c0.992,0.58,2.491,1.456,2.504,3.381
		c-0.062,2.106-1.662,2.782-2.617,3.186c-1.005,0.424-1.043,0.522-1.043,0.866c0,0.601,0.406,0.947,1.333,1.592
		c0.906,0.631,2.148,1.496,2.048,3.126c-0.121,1.913-1.764,3.198-2.77,3.811c0.05,3.335,0.241,17.145,0.274,30.843
		c0.063,26.693-0.391,31.654-1.249,32.772C304.374,293.006,295.87,297.039,286.868,297.039z"/>
	<path d="M294.29,316.108c12.671,0,23.713-11.364,26.854-27.635c0.015-0.076,0.021-0.152,0.022-0.229
		c0.004-0.623,0.424-62.272,0.556-64.85c-0.009-1.362-1.295-2.065-2.43-2.686c-0.474-0.26-1.356-0.742-1.466-0.956
		c-0.005-0.184,0.468-0.623,0.812-0.944c0.881-0.818,2.087-1.939,2.245-3.935c0.127-1.622-1.316-2.382-2.272-2.885
		c-0.342-0.18-0.978-0.515-1.063-0.67c0.01-0.441,0.796-1.098,1.427-1.625c1-0.835,2.134-1.782,2.069-3.191
		c-0.002-0.037-0.006-0.075-0.011-0.111c-0.151-1.11-0.902-1.968-1.564-2.725c-0.558-0.637-1.084-1.239-1.097-1.766
		c-0.018-0.676,0.638-1.3,1.165-1.801c0.534-0.508,1.266-1.203,0.881-2.169c-0.438-1.096-1.819-1.097-3.259-1.098l-6.817-0.139
		c-0.044-0.004-0.088,0-0.132,0.004c-0.26,0.012-2.18,0.065-2.7,0.042c-0.514-0.02-1.012,0.281-1.215,0.766
		c-0.203,0.486-0.08,1.047,0.308,1.403c0.165,0.151,0.363,0.315,0.579,0.493c1.042,0.859,1.834,1.59,1.768,2.529
		c-0.035,0.49-0.287,0.699-1.056,1.218c-0.89,0.601-2.107,1.424-2.268,3.301c-0.154,1.89,1.331,2.758,2.313,3.333
		c0.962,0.562,1.262,0.807,1.266,1.194c-0.012,0.375-0.106,0.496-1.092,0.912c-0.961,0.406-2.569,1.086-2.569,3.168
		c0,1.97,1.447,2.977,2.404,3.644c0.583,0.406,0.994,0.709,0.981,0.919c-0.057,0.887-1.41,1.793-2.054,2.091
		c-0.452,0.206-0.739,0.661-0.731,1.157c0.354,22.563,0.544,59.184-0.424,62.74c-0.04,0.053-0.076,0.107-0.107,0.166
		c-2.746,5.079-10.629,8.766-18.745,8.766c-7.619,0-13.945-3.242-17.358-8.896c-0.319-0.528-0.978-0.744-1.545-0.51
		c-0.57,0.233-0.885,0.849-0.741,1.448C271.661,305.07,281.78,316.108,294.29,316.108z M308.93,254.428
		c-0.033-13.698-0.225-27.508-0.274-30.843c1.006-0.613,2.648-1.898,2.77-3.811c0.101-1.63-1.142-2.495-2.048-3.126
		c-0.927-0.645-1.333-0.991-1.333-1.592c0-0.344,0.038-0.441,1.043-0.866c0.955-0.404,2.556-1.08,2.617-3.186
		c-0.013-1.925-1.512-2.801-2.504-3.381c-0.901-0.527-1.104-0.708-1.083-0.966c0.054-0.626,0.349-0.877,1.176-1.437
		c0.854-0.577,2.023-1.367,2.15-3.112c0.083-1.18-0.343-2.139-0.92-2.911l6.31,0.129c-0.53,0.671-0.989,1.541-0.961,2.637
		c0.035,1.429,0.967,2.494,1.715,3.35c0.395,0.45,0.836,0.956,0.947,1.319c-0.116,0.271-0.766,0.813-1.162,1.144
		c-1.02,0.852-2.288,1.912-2.324,3.488c-0.037,1.656,1.43,2.427,2.399,2.938c0.295,0.155,0.77,0.405,0.936,0.567
		c-0.11,0.968-0.731,1.545-1.446,2.209c-0.732,0.681-1.645,1.529-1.61,2.841c0.043,1.593,1.553,2.419,2.767,3.083
		c0.347,0.189,0.897,0.49,1.121,0.686c-0.14,4.849-0.521,60.751-0.547,64.522c-2.938,15.018-12.95,25.497-24.377,25.497
		c-10.004,0-18.381-8.124-23.041-22.028c4,3.519,9.438,5.459,15.619,5.459c9.002,0,17.506-4.033,20.812-9.839
		C308.539,286.082,308.993,281.121,308.93,254.428z"/>
	<path fill="#083D9C" d="M238.161,314.3l36.344-0.022c-2.274-3.124-9.085-10.835-17.015-10.835c-0.341,0-0.683,0.015-1.027,0.044
		C247.168,303.731,240.346,311.28,238.161,314.3z"/>
	<path fill="#083D9C" d="M236.49,316.301l40.18-0.024l0.294-0.297c0.147-0.15,0.462-0.572,0.181-1.245
		c-0.824-1.973-9.441-13.292-19.654-13.292c-0.397,0-0.797,0.017-1.14,0.048c-12.258,0.321-20.916,12.188-20.895,13.777l0.048,1.033
		H236.49z M274.505,314.277l-36.344,0.022c2.186-3.02,9.007-10.568,18.302-10.813c0.345-0.029,0.687-0.044,1.027-0.044
		C265.42,303.442,272.231,311.153,274.505,314.277z"/>
	<path fill="#083D9C" d="M312.201,313.33h47.782h1.05c-5.48-6.165-9.906-9.367-13.163-9.522c-3.04-0.165-6.149,1.692-9.459,3.639
		c-3.521,2.071-7.15,4.227-11.022,4.041c-5.187-0.236-6.42-1.358-7.849-2.657c-0.403-0.366-0.815-0.742-1.364-1.119
		C316.747,309.835,314.193,311.906,312.201,313.33z"/>
	<path fill="#083D9C" d="M364.26,313.33h-0.571c-0.098-0.111-0.22-0.254-0.365-0.422c-2.315-2.674-9.364-10.812-15.357-11.099
		c-3.634-0.168-7.155,1.905-10.568,3.913c-3.272,1.925-6.643,3.941-9.917,3.767c-4.467-0.203-5.359-1.015-6.595-2.139
		c-0.639-0.581-1.362-1.239-2.575-1.9l-0.91-0.496l-0.463,0.927c-1.764,3.53-8.509,7.548-8.576,7.589l-3.146,1.86h57.743
		l0.312,0.007l3.265-0.007l-2.267-1.526L364.26,313.33z M319.54,308.83c1.429,1.299,2.662,2.421,7.849,2.657
		c3.872,0.186,7.502-1.97,11.022-4.041c3.31-1.946,6.419-3.804,9.459-3.639c3.257,0.155,7.683,3.357,13.163,9.522h-1.05h-47.782
		c1.991-1.424,4.546-3.495,5.975-5.619C318.725,308.088,319.137,308.464,319.54,308.83z"/>
	<path fill="#083D9C" d="M193.973,307.711c-0.548,0.377-0.96,0.752-1.363,1.119c-1.428,1.299-2.662,2.421-7.849,2.657
		c-3.843,0.177-7.5-1.969-11.021-4.041c-3.31-1.946-6.425-3.805-9.461-3.639c-3.255,0.155-7.681,3.357-13.161,9.522h1.03h47.801
		C197.957,311.906,195.402,309.835,193.973,307.711z"/>
	<path fill="#083D9C" d="M203.787,313.47c-0.068-0.041-6.812-4.059-8.576-7.589l-0.463-0.927l-0.91,0.496
		c-1.212,0.661-1.936,1.319-2.574,1.9c-1.235,1.124-2.127,1.936-6.594,2.139c-3.262,0.157-6.644-1.842-9.917-3.767
		c-3.415-2.008-6.942-4.08-10.57-3.913c-5.993,0.286-13.041,8.425-15.356,11.099c-0.146,0.168-0.268,0.311-0.365,0.422h-0.591v0.48
		l-2.257,1.52l3.262,0.007l58.058-0.007L203.787,313.47z M152.147,313.33h-1.03c5.48-6.165,9.906-9.367,13.161-9.522
		c3.036-0.166,6.151,1.692,9.461,3.639c3.521,2.072,7.179,4.218,11.021,4.041c5.188-0.236,6.421-1.358,7.849-2.657
		c0.403-0.367,0.815-0.742,1.363-1.119c1.429,2.124,3.984,4.195,5.975,5.619H152.147z"/>
	<path fill="#083D9C" d="M184.902,285.99c-4.201,0-8.089,2.314-11.851,4.553c-3.276,1.95-6.372,3.792-9.454,3.926
		c-4.736,0.221-9.489-2.906-12.451-5.342l2.494,7.099l36.536,0.294c-0.745-1.953-1.956-5.702-2.267-10.113
		C186.924,286.131,185.915,285.99,184.902,285.99z"/>
	<path fill="#083D9C" d="M189.834,284.933l-0.642-0.22c-1.394-0.479-2.837-0.723-4.29-0.723c-4.751,0-9.066,2.568-12.873,4.834
		c-3.054,1.817-5.939,3.534-8.519,3.646c-6.649,0.261-13.837-7.415-13.908-7.491l-1.678,1.01l4.294,12.226l41.039,0.328
		l-0.674-1.438c-0.024-0.051-2.42-5.223-2.718-11.495L189.834,284.933z M153.64,296.226l-2.494-7.099
		c2.962,2.436,7.714,5.562,12.451,5.342c3.083-0.134,6.178-1.976,9.454-3.926c3.761-2.238,7.65-4.553,11.851-4.553
		c1.013,0,2.022,0.141,3.008,0.416c0.311,4.411,1.521,8.16,2.267,10.113L153.64,296.226z"/>
	<path fill="#083D9C" d="M349.143,294.469c-3.084-0.134-6.179-1.976-9.456-3.926c-3.761-2.238-7.649-4.553-11.85-4.553
		c-1.013,0-2.021,0.141-3.008,0.416c-0.311,4.411-1.521,8.16-2.267,10.113l36.536-0.293l2.494-7.101
		C358.631,291.562,353.86,294.696,349.143,294.469z"/>
	<path fill="#083D9C" d="M364.815,285.989l-1.678-1.01c-0.07,0.077-7.248,7.773-13.908,7.491c-2.58-0.112-5.465-1.829-8.52-3.646
		c-3.807-2.266-8.122-4.834-12.872-4.834c-1.452,0-2.896,0.243-4.29,0.723l-0.642,0.22l-0.032,0.678
		c-0.298,6.272-2.694,11.444-2.719,11.495l-0.675,1.438l41.041-0.33L364.815,285.989z M322.563,296.52
		c0.745-1.953,1.956-5.702,2.267-10.113c0.986-0.275,1.995-0.416,3.008-0.416c4.2,0,8.089,2.314,11.85,4.553
		c3.277,1.95,6.372,3.792,9.456,3.926c4.717,0.228,9.488-2.906,12.45-5.343l-2.494,7.101L322.563,296.52z"/>
	<path fill="#083D9C" d="M264.9,295.942c-0.15-0.477-0.445-1.083-1.019-1.674c-1.462-1.504-4.167-2.3-7.824-2.3
		c-6.531,0-8.014,2.816-8.437,4.521L264.9,295.942z"/>
	<path fill="#083D9C" d="M267.006,297.877l0.049-0.918c0.004-0.087,0.092-2.153-1.685-4.025c-1.865-1.968-4.999-2.965-9.313-2.965
		c-4.233,0-9.422,1.159-10.488,6.585l-1.529,0.049l1.055,1.062l-0.644,0.927L267.006,297.877z M256.057,291.969
		c3.657,0,6.362,0.796,7.824,2.3c0.573,0.591,0.868,1.197,1.019,1.674l-17.279,0.547
		C248.043,294.785,249.526,291.969,256.057,291.969z"/>
	<path fill="#083D9C" d="M234.235,288.1c2.932-1.609,5.388-3.162,7.267-6.085l-11.406,0.264c-0.944,0.59-4.713,3.015-7.461,5.821
		H234.235z"/>
	<path fill="#083D9C" d="M219.636,288.49l-1.239,1.609h16.348l0.224-0.122c3.677-2.007,6.904-4.035,9.166-8.556l0.743-1.485
		l-15.364,0.355l-0.227,0.136C229.026,280.585,222.841,284.325,219.636,288.49z M241.502,282.015
		c-1.879,2.923-4.335,4.476-7.267,6.085h-11.6c2.748-2.807,6.517-5.231,7.461-5.821L241.502,282.015z"/>
	<path fill="#083D9C" d="M278.186,288.1h11.6c-2.748-2.807-6.518-5.231-7.462-5.821l-11.404-0.264
		C272.798,284.938,275.254,286.49,278.186,288.1z"/>
	<path fill="#083D9C" d="M283.132,280.428l-0.227-0.136l-15.361-0.355l0.742,1.485c2.26,4.521,5.487,6.549,9.164,8.556l0.225,0.122
		h16.348l-1.238-1.609C289.58,284.325,283.394,280.585,283.132,280.428z M282.323,282.278c0.944,0.59,4.714,3.015,7.462,5.821h-11.6
		c-2.932-1.609-5.388-3.162-7.267-6.085L282.323,282.278z"/>
	<rect x="0" y="384" fill="#DE2010" width="512" height="128"/>
	<rect x="0" fill="#DE2010" width="512" height="128"/>
</g>
</svg>
