<?xml version="1.0" encoding="utf-8"?>
<!-- Generator: Adobe Illustrator 16.0.0, SVG Export Plug-In . SVG Version: 6.00 Build 0)  -->
<svg version="1.2" baseProfile="tiny"
	 id="svg548" xmlns:cc="http://creativecommons.org/ns#" xmlns:dc="http://purl.org/dc/elements/1.1/" xmlns:rdf="http://www.w3.org/1999/02/22-rdf-syntax-ns#"
	 xmlns="http://www.w3.org/2000/svg" xmlns:xlink="http://www.w3.org/1999/xlink" x="0px" y="0px" width="512px" height="512px"
	 viewBox="0 0 512 512" xml:space="preserve">
<g>
	<path d="M-0.003,63.271v197.504l12.076-1.126l8.158-19.536l8.343,19.371l21.103,1.723l-15.844,13.92l4.882,20.598l-18.134-10.76
		L2.496,295.96l4.636-20.573l-7.135-6.122v242.719h511.983v-63.049L-0.003,63.271z M100.725,425.632l-15.005-9.579l-20.143,9.649
		l4.467-17.223l-15.397-16.186l17.769-1.085l10.624-19.631l6.512,16.562l21.966,4.035l-13.741,11.325L100.725,425.632z
		 M99.55,206.134l3.787,19.753l-17.983-9.011l-17.615,9.704l3.014-19.885L56.076,192.94l19.845-3.28l8.548-18.208l9.251,17.861
		l19.956,2.503L99.55,206.134z M139.238,341.426l-6.963-3.327l-6.69,3.846l1.019-7.668l-5.726-5.167l7.59-1.393l3.152-7.054
		l3.673,6.795l7.676,0.825l-5.32,5.592L139.238,341.426z M173.172,293.129l-15.265-7.455l-14.798,8.352l2.361-16.822l-12.526-11.49
		l16.735-2.949l7.048-15.454l7.998,15.006l16.869,1.935l-11.797,12.222L173.172,293.129z"/>
	<path fill="#FF0000" d="M511.981,0H-0.003v63.271l511.983,385.663V0z M252.998,193.144c0.083-0.098,8.292-9.797,10.225-13.501
		c1.623-3.477,2.865-6.686,3.963-9.518c3.265-8.43,5.624-14.521,14.535-19.867c3.374-2.412,7.184-3.595,11.612-3.595
		c4.132,0,8.169,1.031,11.731,1.94c2.827,0.722,5.498,1.404,7.648,1.404c0.001,0,0.001,0,0.002,0c2.768,0,5.655-0.969,6.202-8.048
		c-2.464-0.562-14.582-3.806-18.456-13.897l-16.606-7.277l0.217-0.958c0.145,0.005,14.543,0.456,22.611,0.456
		c2.196,0,3.74-0.033,4.593-0.099c1.335-0.737,2.926-1.127,4.61-1.127c4.019,0,9.044,2.289,11.357,7.393l8.163,0.426
		c-0.372-4.001-0.791-7.615-1.197-11.115c-2.128-18.333-3.534-30.443,8.388-52.299c9.686-14.533,12.162-16.771,28.681-19.131
		l0.791-0.113l-0.245,0.761c-0.021,0.068-2.165,6.849-0.077,10.125l0.143,0.224l-0.106,0.244c-1.924,4.411-2.87,6.446-3.357,7.402
		c3.068-0.076,7.387-2.065,7.431-2.086l0.895-0.415l-2.384,11.919l7.283-2.428l-4.922,12.306l7.197,2.399l-4.598,6.884v7.392
		l4.535-0.421l-2.148,6.442c9.979-6.404,20.025-9.781,29.133-9.781c5.354,0,10.398,1.165,14.991,3.461l1.08,0.54l-6.99,2.33
		c7.383,3.632,26.671,18.821,27.537,19.504l0.877,0.692l-1.1,0.193c-0.604,0.105-3.183,0.354-4.592,0.486l19.626,24.61l-1.379-0.304
		c-0.897-0.198-3.123-0.659-4.345-0.806c2.922,5.535,9.354,23.03,9.641,23.81c0.527,1.608,4.648,9.32,4.69,9.398l0.729,1.364
		l-1.39-0.679c-1.953-0.954-4.811-2.321-6.228-2.939c0.358,2.239,1.355,8.281,2.196,11.71c1.769,2.934,4.157,5.911,6.685,9.062
		c7.548,9.407,16.941,21.115,16.941,40.679c-1.074,13.981-8.994,22.805-15.449,27.752c-8.224,6.303-18.854,9.918-29.163,9.918
		c-6.482,0-12.525-1.453-17.475-4.202l-1.338-0.744l1.519-0.189c17.328-2.166,46.751-8.974,49.112-30.23
		c-0.003-7.062-2.698-14.118-5.076-20.343c-0.531-1.393-1.042-2.729-1.496-4.001c-2.203,6.569-4.608,13.191-9.093,17.675
		c-7.106,7.106-19.296,11.699-31.055,11.699c-8.626,0-16.069-2.403-21.525-6.949l-1.31-1.092l1.692,0.211
		c2.238,0.28,4.576,0.421,6.949,0.421c13.211,0,24.936-4.203,31.364-11.242c4.652-5.095,6.656-11.592,5.954-19.31
		c-2.376-16.626-22.701-23.759-34.263-27.621l1.096,6.578l-3.392,2.261l9.969,14.953l-7.467-2.489l6.963,18.567l-0.72,0.002
		c-0.148,0.013-0.151,0.002-2.447-1.164c-0.431-0.218-0.905-0.459-1.322-0.67c0.556,1.387,1.732,4.329,4.232,10.586l0.321,0.802
		l-0.855-0.122c-0.918-0.131-1.901-0.239-2.946-0.354c-6-0.662-14.179-1.564-23.683-8.211l-1.991,4.237l-0.456-0.223
		c-0.128-0.063-12.378-6.053-19.671-9.238l2.302,9.207l-0.763-0.138c-19.984-3.634-27.515-15.57-36.233-29.392
		c-2.554-4.048-5.189-8.226-8.276-12.423l-2.224,8.898l-9.438-2.359l-2.377,9.507l-0.532-0.212c-2.979-1.188-6.146-3.653-6.996-4.34
		c-1.667,0.551-11.006,3.663-18.585,6.699l-0.879,0.352l1.208-5.435c-3.146,0.813-14.512,3.693-17.715,3.693
		c-0.239,0-0.439-0.017-0.592-0.046l-0.889-0.174l0.62-0.66c0.673-0.715,1.562-1.534,2.287-2.177l-16.026,2.29l4.492-5.972
		l-13.968,1.188L252.998,193.144z"/>
	<path fill="#FFCC00" d="M268.324,191.695l-4.381,5.825l17.062-2.437l-1.352,1.127c-0.018,0.015-1.435,1.2-2.657,2.373
		c4.435-0.389,17.407-3.794,17.546-3.83l0.793-0.209l-1.152,5.188c8.178-3.227,17.924-6.424,18.025-6.457l0.263-0.086l0.213,0.178
		c0.034,0.029,3.303,2.739,6.414,4.131l2.339-9.355l9.438,2.359l2.493-9.972l0.631,0.841c3.385,4.514,6.214,8.999,8.95,13.335
		c8.48,13.443,15.819,25.078,34.803,28.797l-2.414-9.657l0.927,0.396c6.398,2.739,17.774,8.262,20.188,9.438l2.068-4.402l0.488,0.35
		c9.5,6.81,17.707,7.716,23.699,8.377c0.739,0.082,1.448,0.16,2.126,0.245c-1.65-4.128-4.323-10.816-4.397-10.992l-0.451-1.079
		l1.09,0.416c0.162,0.062,0.942,0.456,2.56,1.277c0.347,0.176,0.726,0.368,1.068,0.542L417.7,199.74l6.689,2.23l-8.906-13.36
		l3.687-2.458l-1.264-7.578l0.788,0.263c11.604,3.868,33.206,11.068,35.728,28.716c0.731,8.035-1.359,14.79-6.209,20.101
		c-6.614,7.243-18.615,11.567-32.103,11.567c-1.799,0-3.578-0.08-5.312-0.239c5.124,3.7,11.825,5.647,19.505,5.647
		c11.507,0,23.419-4.477,30.348-11.406c4.635-4.635,7.016-11.775,9.316-18.68l0.475-1.423l0.475,1.423
		c0.554,1.661,1.239,3.456,1.965,5.356c2.408,6.306,5.139,13.454,5.139,20.755c-1.068,9.639-7.413,17.313-18.862,22.864
		c-9.532,4.621-21.049,6.943-29.543,8.098c4.524,2.195,9.878,3.35,15.59,3.35c25.532,0,42.226-18.664,43.614-36.709
		c-0.002-19.174-9.273-30.729-16.723-40.015c-2.568-3.201-4.994-6.224-6.802-9.237l-0.057-0.137
		c-1.055-4.266-2.355-12.653-2.368-12.737l-0.12-0.779l0.756,0.223c0.682,0.201,3.875,1.723,5.777,2.641
		c-1.227-2.325-3.62-6.925-4.034-8.188c-0.068-0.184-7.37-20.044-9.981-24.388l-0.265-0.44l0.447-0.252
		c0.126-0.072,0.28-0.102,0.515-0.102c0.734,0,2.52,0.332,3.782,0.587l-19.035-23.869l0.925-0.084
		c0.034-0.003,2.637-0.24,4.264-0.416c-4.328-3.377-22.236-17.214-27.535-19.143l-1.348-0.491l7.261-2.42
		c-4.15-1.876-8.663-2.826-13.432-2.826c-9.276,0-19.576,3.597-29.784,10.402l-1.213,0.809l2.579-7.734l-4.102,0.381v-8.793
		l4.039-6.046l-6.961-2.32l4.516-11.288l-6.873,2.291l2.341-11.705c-1.63,0.673-5.145,1.963-7.666,1.777l-0.003,0.002l-0.122-0.013
		l-0.338,0l-0.506-1.099l0.588,0.064c0.528-0.973,2.28-4.894,3.421-7.504c-1.72-3.038-0.625-8.066-0.111-9.977
		c-15.415,2.263-17.906,4.605-27.2,18.546c-11.746,21.54-10.355,33.525-8.249,51.667c0.427,3.673,0.867,7.471,1.253,11.713
		l-0.463,0.042l-0.05,0.505l-9.371-0.489l-0.122-0.288c-2.074-4.885-6.8-7.072-10.563-7.072c-1.553,0-3.009,0.363-4.213,1.05
		l-0.205,0.064c-0.855,0.074-2.465,0.111-4.785,0.111c-6.012,0-15.525-0.25-20.066-0.38l14.634,6.413l0.073,0.199
		c4.008,10.838,18.071,13.529,18.213,13.555l0.437,0.08l-0.027,0.443c-0.403,6.511-2.633,9.415-7.23,9.416c-0.001,0-0.001,0-0.002,0
		c-2.276,0-5.006-0.697-7.896-1.435c-3.506-0.896-7.479-1.91-11.484-1.91c-4.214,0-7.833,1.122-11.064,3.431
		c-8.65,5.192-10.957,11.148-14.151,19.393c-1.102,2.846-2.352,6.072-3.998,9.599c-1.654,3.171-7.459,10.236-9.583,12.781
		L268.324,191.695z M425.29,165.725c0.348,0.137,1.223,0.333,2.33,0.583c6.085,1.367,20.336,4.568,22.67,13.955l0.281,1.13
		l-1.014-0.574c-3.354-1.902-7.037-3.865-10.599-5.764c-8.302-4.424-13.433-7.208-14.28-8.605l-0.77-1.27L425.29,165.725z"/>
	<path fill="#FFCC00" d="M261.69,198.852l16.026-2.29c-0.725,0.643-1.614,1.462-2.287,2.177l-0.62,0.66l0.889,0.174
		c0.152,0.03,0.353,0.046,0.592,0.046c3.203,0,14.568-2.879,17.715-3.693l-1.208,5.435l0.879-0.352
		c7.579-3.036,16.918-6.148,18.585-6.699c0.851,0.687,4.017,3.152,6.996,4.34l0.532,0.212l2.377-9.507l9.438,2.359l2.224-8.898
		c3.087,4.197,5.723,8.375,8.276,12.423c8.719,13.822,16.249,25.758,36.233,29.392l0.763,0.138l-2.302-9.207
		c7.293,3.185,19.543,9.175,19.671,9.238l0.456,0.223l1.991-4.237c9.504,6.647,17.683,7.549,23.683,8.211
		c1.045,0.115,2.028,0.224,2.946,0.354l0.855,0.122l-0.321-0.802c-2.5-6.257-3.677-9.199-4.232-10.586
		c0.417,0.21,0.892,0.452,1.322,0.67c2.296,1.166,2.299,1.177,2.447,1.164l0.72-0.002l-6.963-18.567l7.467,2.489l-9.969-14.953
		l3.392-2.261l-1.096-6.578c11.562,3.862,31.887,10.995,34.263,27.621c0.702,7.718-1.302,14.215-5.954,19.31
		c-6.429,7.039-18.153,11.242-31.364,11.242c-2.373,0-4.711-0.142-6.949-0.421l-1.692-0.211l1.31,1.092
		c5.456,4.546,12.899,6.949,21.525,6.949c11.759,0,23.948-4.592,31.055-11.699c4.484-4.484,6.89-11.106,9.093-17.675
		c0.454,1.273,0.965,2.609,1.496,4.001c2.378,6.225,5.073,13.281,5.076,20.343c-2.361,21.257-31.784,28.064-49.112,30.23
		l-1.519,0.189l1.338,0.744c4.949,2.749,10.992,4.202,17.475,4.202c10.31,0,20.939-3.615,29.163-9.918
		c6.455-4.947,14.375-13.771,15.449-27.752c0-19.564-9.394-31.271-16.941-40.679c-2.527-3.15-4.916-6.127-6.685-9.062
		c-0.841-3.43-1.838-9.472-2.196-11.71c1.417,0.618,4.274,1.985,6.228,2.939l1.39,0.679l-0.729-1.364
		c-0.042-0.078-4.163-7.79-4.69-9.398c-0.286-0.78-6.719-18.275-9.641-23.81c1.222,0.147,3.447,0.608,4.345,0.806l1.379,0.304
		l-19.626-24.61c1.409-0.132,3.988-0.381,4.592-0.486l1.1-0.193l-0.877-0.692c-0.866-0.684-20.154-15.872-27.537-19.504l6.99-2.33
		l-1.08-0.54c-4.593-2.296-9.637-3.461-14.991-3.461c-9.107,0-19.154,3.377-29.133,9.781l2.148-6.442l-4.535,0.421v-7.392
		l4.598-6.884l-7.197-2.399l4.922-12.306l-7.283,2.428l2.384-11.919l-0.895,0.415c-0.044,0.021-4.362,2.01-7.431,2.086
		c0.487-0.956,1.434-2.991,3.357-7.402l0.106-0.244l-0.143-0.224c-2.088-3.275,0.056-10.057,0.077-10.125l0.245-0.761l-0.791,0.113
		c-16.519,2.36-18.995,4.598-28.681,19.131c-11.922,21.856-10.516,33.967-8.388,52.299c0.406,3.5,0.825,7.114,1.197,11.115
		l-8.163-0.426c-2.313-5.104-7.339-7.393-11.357-7.393c-1.685,0-3.275,0.39-4.61,1.127c-0.853,0.065-2.396,0.099-4.593,0.099
		c-8.068,0-22.467-0.451-22.611-0.456l-0.217,0.958l16.606,7.277c3.874,10.091,15.992,13.335,18.456,13.897
		c-0.547,7.079-3.435,8.048-6.202,8.048c-0.001,0-0.001,0-0.002,0c-2.15,0-4.821-0.682-7.648-1.404
		c-3.562-0.91-7.6-1.94-11.731-1.94c-4.429,0-8.238,1.183-11.612,3.595c-8.911,5.346-11.271,11.437-14.535,19.867
		c-1.098,2.832-2.34,6.041-3.963,9.518c-1.933,3.704-10.143,13.403-10.225,13.501l-0.784,0.924l13.968-1.188L261.69,198.852z
		 M268.117,170.487c3.194-8.245,5.501-14.201,14.151-19.393c3.231-2.309,6.851-3.431,11.064-3.431c4.006,0,7.979,1.014,11.484,1.91
		c2.89,0.738,5.619,1.435,7.896,1.435c0.001,0,0.001,0,0.002,0c4.598-0.001,6.827-2.905,7.23-9.416l0.027-0.443l-0.437-0.08
		c-0.142-0.026-14.205-2.717-18.213-13.555l-0.073-0.199l-14.634-6.413c4.541,0.13,14.055,0.38,20.066,0.38
		c2.32,0,3.93-0.038,4.785-0.111l0.205-0.064c1.204-0.687,2.66-1.05,4.213-1.05c3.764,0,8.489,2.187,10.563,7.072l0.122,0.288
		l9.371,0.489l0.05-0.505l0.463-0.042c-0.386-4.243-0.826-8.041-1.253-11.713c-2.106-18.142-3.497-30.127,8.249-51.667
		c9.294-13.941,11.785-16.284,27.2-18.546c-0.514,1.911-1.608,6.938,0.111,9.977c-1.141,2.61-2.893,6.531-3.421,7.504l-0.588-0.064
		l0.506,1.099l0.338,0l0.122,0.013l0.003-0.002c2.521,0.186,6.036-1.104,7.666-1.777l-2.341,11.705l6.873-2.291l-4.516,11.288
		l6.961,2.32l-4.039,6.046v8.793l4.102-0.381l-2.579,7.734l1.213-0.809c10.208-6.805,20.508-10.402,29.784-10.402
		c4.769,0,9.281,0.95,13.432,2.826l-7.261,2.42l1.348,0.491c5.299,1.929,23.207,15.766,27.535,19.143
		c-1.627,0.176-4.229,0.413-4.264,0.416l-0.925,0.084l19.035,23.869c-1.263-0.255-3.048-0.587-3.782-0.587
		c-0.234,0-0.389,0.03-0.515,0.102l-0.447,0.252l0.265,0.44c2.611,4.344,9.913,24.205,9.981,24.388
		c0.414,1.262,2.808,5.862,4.034,8.188c-1.902-0.918-5.096-2.44-5.777-2.641l-0.756-0.223l0.12,0.779
		c0.013,0.084,1.313,8.471,2.368,12.737l0.057,0.137c1.808,3.013,4.233,6.036,6.802,9.237c7.449,9.285,16.721,20.841,16.723,40.015
		c-1.389,18.045-18.082,36.709-43.614,36.709c-5.712,0-11.065-1.154-15.59-3.35c8.494-1.154,20.011-3.477,29.543-8.098
		c11.449-5.551,17.794-13.225,18.862-22.864c0-7.302-2.73-14.449-5.139-20.755c-0.726-1.9-1.411-3.695-1.965-5.356l-0.475-1.423
		l-0.475,1.423c-2.301,6.905-4.682,14.044-9.316,18.68c-6.929,6.929-18.841,11.406-30.348,11.406c-7.68,0-14.381-1.947-19.505-5.647
		c1.733,0.159,3.513,0.239,5.312,0.239c13.487,0,25.488-4.324,32.103-11.567c4.85-5.311,6.94-12.065,6.209-20.101
		c-2.521-17.648-24.123-24.848-35.728-28.716l-0.788-0.263l1.264,7.578l-3.687,2.458l8.906,13.36l-6.689-2.23l7.002,18.673
		c-0.343-0.173-0.722-0.366-1.068-0.542c-1.617-0.821-2.397-1.215-2.56-1.277l-1.09-0.416l0.451,1.079
		c0.074,0.175,2.747,6.864,4.397,10.992c-0.678-0.085-1.387-0.164-2.126-0.245c-5.992-0.661-14.199-1.567-23.699-8.377l-0.488-0.35
		l-2.068,4.402c-2.413-1.176-13.789-6.698-20.188-9.438l-0.927-0.396l2.414,9.657c-18.983-3.72-26.322-15.354-34.803-28.797
		c-2.736-4.337-5.565-8.821-8.95-13.335l-0.631-0.841l-2.493,9.972l-9.438-2.359l-2.339,9.355c-3.111-1.392-6.38-4.103-6.414-4.131
		l-0.213-0.178l-0.263,0.086c-0.102,0.033-9.848,3.23-18.025,6.457l1.152-5.188l-0.793,0.209c-0.139,0.036-13.111,3.441-17.546,3.83
		c1.223-1.173,2.64-2.358,2.657-2.373l1.352-1.127l-17.062,2.437l4.381-5.825l-13.788,1.172c2.124-2.545,7.929-9.61,9.583-12.781
		C265.766,176.559,267.016,173.333,268.117,170.487z"/>
	<path fill="#FF0000" d="M427.401,167.283c-0.127-0.029-0.25-0.056-0.369-0.083c2.471,1.681,7.497,4.36,12.397,6.972
		c3.182,1.695,6.458,3.442,9.517,5.153C445.877,171.434,433.034,168.548,427.401,167.283z"/>
	<path fill="#FF0000" d="M438.959,175.054c3.562,1.898,7.245,3.862,10.599,5.764l1.014,0.574l-0.281-1.13
		c-2.334-9.387-16.585-12.588-22.67-13.955c-1.107-0.249-1.982-0.445-2.33-0.583l-1.381-0.546l0.77,1.27
		C425.527,167.847,430.657,170.63,438.959,175.054z M439.429,174.172c-4.9-2.612-9.927-5.291-12.397-6.972
		c0.119,0.027,0.242,0.054,0.369,0.083c5.634,1.266,18.477,4.151,21.545,12.042C445.887,177.614,442.611,175.867,439.429,174.172z"
		/>
	<polygon fill="#FFFFFF" points="89.551,388.141 83.039,371.578 72.415,391.209 54.647,392.294 70.044,408.479 65.577,425.702 
		85.72,416.053 100.725,425.632 97.776,403.501 111.517,392.176 	"/>
	<polygon fill="#FFFFFF" points="135.292,327.458 131.619,320.663 128.467,327.717 120.877,329.109 126.603,334.276 
		125.584,341.944 132.275,338.099 139.238,341.426 137.648,333.875 142.968,328.283 	"/>
	<polygon fill="#FFFFFF" points="164.726,262.315 156.728,247.31 149.68,262.764 132.945,265.713 145.471,277.203 143.11,294.025 
		157.907,285.674 173.172,293.129 169.798,276.472 181.595,264.25 	"/>
	<polygon fill="#FFFFFF" points="84.469,171.453 75.921,189.661 56.076,192.94 70.752,206.695 67.739,226.58 85.354,216.876 
		103.337,225.887 99.55,206.134 113.676,191.817 93.72,189.314 	"/>
	<polygon fill="#FFFFFF" points="2.496,295.96 20.581,284.965 38.715,295.725 33.833,275.127 49.677,261.207 28.574,259.484 
		20.232,240.114 12.073,259.649 -0.003,260.775 -0.003,269.265 7.132,275.387 	"/>
</g>
</svg>
