<?xml version="1.0" encoding="utf-8"?>
<!-- Generator: Adobe Illustrator 16.0.0, SVG Export Plug-In . SVG Version: 6.00 Build 0)  -->
<svg version="1.2" baseProfile="tiny"
	 id="svg378" xmlns:cc="http://creativecommons.org/ns#" xmlns:dc="http://purl.org/dc/elements/1.1/" xmlns:rdf="http://www.w3.org/1999/02/22-rdf-syntax-ns#"
	 xmlns="http://www.w3.org/2000/svg" xmlns:xlink="http://www.w3.org/1999/xlink" x="0px" y="0px" width="512px" height="512px"
	 viewBox="0 0 512 512" xml:space="preserve">
<g>
	<polygon fill="#F50013" points="301.128,256 0,430.479 0,512 511.999,512 511.999,256 	"/>
	<polygon fill="#00189A" points="301.128,256 511.999,256 511.999,0 0,0 0,80.644 301.69,255.675 	"/>
	<path fill="#FEFFFF" d="M301.69,255.675L0,80.644v74.805l1.952-2.256l9.758,9.263l-4.405,40.737
		c1.243,0.127,2.468,0.312,3.683,0.525l6.371-35.088l5.647,7.203l-7.834,28.78c5.224,1.359,10.127,3.505,14.59,6.293l15.023-25.056
		l9.107-0.914l-20.549,28.406c0.994,0.74,1.952,1.524,2.89,2.332l24.557-30.239l14.921-0.8l0.102,13.454l-32.401,25.104
		c0.764,0.976,1.505,1.97,2.2,3l29.676-19.753l-1.269,9.064l-26.17,14.335c2.27,4.033,4.029,8.39,5.18,12.99l28.197-7.6l7.188,5.665
		l-34.512,6.177c0.199,1.215,0.358,2.442,0.473,3.684l38.657-4.713l11.295,9.784l-9.268,9.753l-40.731-4.427
		c-0.128,1.243-0.313,2.468-0.526,3.684l35.081,6.389l-7.206,5.643l-28.771-7.848c-1.22,4.682-3.076,9.104-5.455,13.184
		l25.506,14.248l1.192,9.075l-29.03-19.675c-0.71,1.017-1.452,2.008-2.229,2.97l30.972,23.614l1.257,14.891l-13.444,0.514
		l-26.079-31.61c-0.953,0.793-1.938,1.546-2.946,2.272l20.662,29.068l-9.099-0.99l-15.126-25.711
		c-4.308,2.602-9.017,4.607-14.014,5.896l7.806,28.132l-5.612,7.23l-6.432-34.468c-1.214,0.208-2.438,0.388-3.678,0.512
		l4.998,38.612l-9.7,11.366L0,355.854v74.625L301.128,256L301.69,255.675z M225.503,282.412l-11.724-16.484l-19.095,6.697
		l11.791-17.071l-11.57-16.604l19.012,5.935l11.943-16.959l-0.042,20.739l18.952,6.123l-19.036,6.882L225.503,282.412z"/>
	<path fill="#ECA300" d="M7.305,203.192l4.405-40.737l-9.758-9.263L0,155.448v47.511c0.615-0.021,1.229-0.047,1.849-0.047
		C3.691,202.912,5.511,203.008,7.305,203.192z"/>
	<path fill="#ECA300" d="M23.006,175.832l-5.647-7.203l-6.371,35.088c1.414,0.247,2.812,0.538,4.184,0.895L23.006,175.832z"/>
	<path fill="#ECA300" d="M43.411,223.192l32.401-25.104l-0.102-13.454l-14.921,0.8l-24.557,30.239
		C38.865,217.938,41.27,220.456,43.411,223.192z"/>
	<path fill="#ECA300" d="M74.019,215.504l1.269-9.064l-29.676,19.753c0.797,1.18,1.536,2.401,2.237,3.646L74.019,215.504z"/>
	<path fill="#ECA300" d="M53.893,184.936l-9.107,0.914l-15.023,25.056c1.227,0.767,2.425,1.574,3.582,2.436L53.893,184.936z"/>
	<path fill="#ECA300" d="M81.677,276.867l7.206-5.643l-35.081-6.389c-0.248,1.413-0.54,2.812-0.897,4.184L81.677,276.867z"/>
	<path fill="#ECA300" d="M54.329,261.152l40.731,4.427l9.268-9.753l-11.295-9.784l-38.657,4.713c0.15,1.621,0.236,3.26,0.236,4.92
		C54.612,257.524,54.514,259.352,54.329,261.152z"/>
	<path fill="#ECA300" d="M88.414,240.894l-7.188-5.665l-28.197,7.6c0.349,1.393,0.638,2.808,0.873,4.242L88.414,240.894z"/>
	<path fill="#ECA300" d="M35.595,296.229l26.079,31.61l13.444-0.514l-1.257-14.891l-30.972-23.614
		C40.705,291.522,38.263,294.007,35.595,296.229z"/>
	<path fill="#ECA300" d="M74.149,305.526l-1.192-9.075L47.45,282.203c-0.729,1.25-1.506,2.467-2.332,3.648L74.149,305.526z"/>
	<path fill="#ECA300" d="M44.212,326.58l9.099,0.99l-20.662-29.068c-1.156,0.832-2.34,1.628-3.563,2.367L44.212,326.58z"/>
	<path fill="#ECA300" d="M12.154,346.784l-4.998-38.612c-1.745,0.174-3.515,0.266-5.307,0.266c-0.62,0-1.234-0.025-1.849-0.047
		v47.463l2.453,2.297L12.154,346.784z"/>
	<path fill="#ECA300" d="M17.266,342.128l5.612-7.23l-7.806-28.132c-1.39,0.358-2.807,0.648-4.239,0.895L17.266,342.128z"/>
	<polygon fill="#ECA300" points="244.771,254.787 225.819,248.664 225.861,227.925 213.917,244.884 194.906,238.949 
		206.476,255.554 194.685,272.625 213.78,265.928 225.503,282.412 225.735,261.669 	"/>
	<path fill="#ECA300" d="M7.156,308.172c1.241-0.124,2.464-0.304,3.678-0.512c1.432-0.246,2.849-0.536,4.239-0.895
		c4.997-1.289,9.706-3.295,14.014-5.896c1.223-0.739,2.407-1.535,3.563-2.367c1.007-0.727,1.993-1.479,2.946-2.272
		c2.668-2.223,5.11-4.707,7.294-7.408c0.778-0.962,1.52-1.953,2.229-2.97c0.826-1.182,1.603-2.398,2.332-3.648
		c2.379-4.08,4.235-8.502,5.455-13.184c0.357-1.372,0.649-2.771,0.897-4.184c0.213-1.216,0.398-2.44,0.526-3.684
		c0.186-1.801,0.283-3.628,0.283-5.478c0-1.66-0.086-3.299-0.236-4.92c-0.115-1.241-0.274-2.469-0.473-3.684
		c-0.235-1.434-0.524-2.85-0.873-4.242c-1.151-4.601-2.91-8.958-5.18-12.99c-0.701-1.246-1.44-2.466-2.237-3.646
		c-0.695-1.03-1.436-2.024-2.2-3c-2.142-2.736-4.546-5.255-7.178-7.519c-0.938-0.807-1.896-1.591-2.89-2.332
		c-1.156-0.862-2.355-1.669-3.582-2.436c-4.462-2.788-9.366-4.935-14.59-6.293c-1.373-0.357-2.771-0.648-4.184-0.895
		c-1.215-0.212-2.44-0.397-3.683-0.525c-1.794-0.185-3.614-0.28-5.456-0.28c-0.62,0-1.234,0.025-1.849,0.047v105.432
		c0.615,0.021,1.229,0.047,1.849,0.047C3.64,308.438,5.41,308.346,7.156,308.172z"/>
</g>
</svg>
