<?xml version="1.0" encoding="utf-8"?>
<!-- Generator: Adobe Illustrator 16.0.0, SVG Export Plug-In . SVG Version: 6.00 Build 0)  -->
<svg version="1.2" baseProfile="tiny"
	 id="svg378" xmlns:cc="http://creativecommons.org/ns#" xmlns:dc="http://purl.org/dc/elements/1.1/" xmlns:rdf="http://www.w3.org/1999/02/22-rdf-syntax-ns#"
	 xmlns="http://www.w3.org/2000/svg" xmlns:xlink="http://www.w3.org/1999/xlink" x="0px" y="0px" width="512px" height="512px"
	 viewBox="0 0 512 512" xml:space="preserve">
<g>
	<path fill="#0C590B" d="M97.52,0v512H512V0H97.52z M347.992,162.596l21.359,23.622l29.31-12.458l-15.864,27.614l20.905,24.025
		l-0.001,0l-31.165-6.556l-16.389,27.306l-3.396-31.666l-31.035-7.149l29.066-13.015L347.992,162.596z M254.044,365.355
		c-61.141-28.326-87.776-100.93-59.45-162.071c14.446-31.184,38.089-52.614,71.462-64.31c-3.839,3.246-7.637,6.613-11.799,10.908
		c-43.111,44.491-41.991,115.592,2.499,158.699c44.491,43.11,115.592,41.991,158.698-2.5l0.001,0.004
		C387.789,367.046,315.178,393.674,254.044,365.355z"/>
	<rect x="0" fill="#FFFFFF" width="97.52" height="512"/>
	<polygon fill="#FFFFFF" points="352.752,214.484 356.148,246.15 372.536,218.844 403.701,225.4 403.702,225.399 382.797,201.374 
		398.661,173.76 369.352,186.218 347.992,162.596 350.783,194.32 321.717,207.335 	"/>
	<path fill="#FFFFFF" d="M256.756,308.582c-44.49-43.106-45.61-114.208-2.499-158.699c4.162-4.295,7.96-7.662,11.799-10.908
		c-33.373,11.696-57.016,33.125-71.462,64.31c-28.326,61.141-1.69,133.745,59.45,162.071c61.134,28.318,133.745,1.69,161.411-59.27
		l-0.001-0.004C372.348,350.573,301.247,351.692,256.756,308.582z"/>
</g>
</svg>
