<?xml version="1.0" encoding="utf-8"?>
<!-- Generator: Adobe Illustrator 16.0.0, SVG Export Plug-In . SVG Version: 6.00 Build 0)  -->
<svg version="1.2" baseProfile="tiny"
	 id="svg378" xmlns:cc="http://creativecommons.org/ns#" xmlns:dc="http://purl.org/dc/elements/1.1/" xmlns:rdf="http://www.w3.org/1999/02/22-rdf-syntax-ns#"
	 xmlns="http://www.w3.org/2000/svg" xmlns:xlink="http://www.w3.org/1999/xlink" x="0px" y="0px" width="512px" height="512px"
	 viewBox="0 0 512 512" xml:space="preserve">
<g>
	<polygon fill="#ED0000" points="511.999,102.398 511.999,0 0,0 0,21.639 139.199,102.398 	"/>
	<polygon fill="#ED0000" points="403.392,255.675 314.46,307.203 511.999,307.203 511.999,204.797 315.697,204.797 	"/>
	<polygon fill="#ED0000" points="137.734,409.602 0,489.406 0,512 511.999,512 511.999,409.602 	"/>
	<polygon fill="#FFFFFF" points="315.697,204.797 511.999,204.797 511.999,102.398 139.199,102.398 	"/>
	<polygon fill="#FFFFFF" points="137.734,409.602 511.999,409.602 511.999,307.203 314.46,307.203 	"/>
	<path fill="#0050F0" d="M314.46,307.203l88.932-51.528l-87.695-50.878L139.199,102.398L0,21.639v467.767l137.733-79.805
		L314.46,307.203z M32.23,231.764l58.306-0.5l18.084-57.968l18.472,57.835l58.307,0.076l-46.887,36.242l17.947,58.016
		l-47.446-35.433l-47.215,35.781l17.561-58.145L32.23,231.764z"/>
	<polygon fill="#FFFFFF" points="61.797,325.812 109.012,290.031 156.458,325.464 138.511,267.448 185.398,231.206 127.091,231.13 
		108.619,173.295 90.535,231.263 32.23,231.764 79.358,267.668 	"/>
</g>
</svg>
