<?xml version="1.0" encoding="utf-8"?>
<!-- Generator: Adobe Illustrator 16.0.0, SVG Export Plug-In . SVG Version: 6.00 Build 0)  -->
<svg version="1.2" baseProfile="tiny"
	 id="svg548" xmlns:cc="http://creativecommons.org/ns#" xmlns:dc="http://purl.org/dc/elements/1.1/" xmlns:rdf="http://www.w3.org/1999/02/22-rdf-syntax-ns#"
	 xmlns="http://www.w3.org/2000/svg" xmlns:xlink="http://www.w3.org/1999/xlink" x="0px" y="0px" width="512px" height="512px"
	 viewBox="0 0 512 512" xml:space="preserve">
<g>
	<path fill="#009900" d="M191.82,404.514h-7.366v0.968h-5.815v-2.552c-48.159-3.332-89.754-30.555-112.946-69.877l-0.409,0.084
		l-0.792-2.159c-10.562-18.62-17.044-39.846-18.214-62.474l-0.755,0.082l-0.28-6.007l0.447-0.049l-0.653-14.017l-0.448,0.048
		l-0.28-6.007l2.993-0.324c1.882-14.376,5.919-28.078,11.775-40.776l-3.659-1.612l3.601-5.583l0.377,0.166l8.401-13.028
		l-0.377-0.166l3.601-5.583l2.609,1.149c24.093-32.771,61.91-54.873,105.011-57.855v-2.624h5.815v1.921h7.366V0.116H0v511.767
		H191.82V404.514z"/>
	
		<linearGradient id="SVGID_1_" gradientUnits="userSpaceOnUse" x1="1183.3049" y1="2373.582" x2="5027.4766" y2="2373.582" gradientTransform="matrix(0.08 0 0 -0.1332 -209.6569 572.1604)">
		<stop  offset="0" style="stop-color:#000000"/>
		<stop  offset="1" style="stop-color:#FFFFFF"/>
	</linearGradient>
	<rect x="0" y="511.935" fill="url(#SVGID_1_)" width="191.819" height="0.052"/>
	
		<linearGradient id="SVGID_2_" gradientUnits="userSpaceOnUse" x1="1183.3049" y1="2373.582" x2="5027.4766" y2="2373.582" gradientTransform="matrix(0.08 0 0 -0.1332 -209.6569 572.1604)">
		<stop  offset="0" style="stop-color:#000000"/>
		<stop  offset="1" style="stop-color:#FFFFFF"/>
	</linearGradient>
	<rect x="0" y="0.013" fill="url(#SVGID_2_)" width="191.819" height="0.052"/>
	<rect x="0" y="0.064" fill="#009900" width="191.819" height="0.052"/>
	
		<linearGradient id="SVGID_3_" gradientUnits="userSpaceOnUse" x1="1183.3049" y1="2373.582" x2="5027.4766" y2="2373.582" gradientTransform="matrix(0.08 0 0 -0.1332 -209.6569 572.1604)">
		<stop  offset="0" style="stop-color:#000000"/>
		<stop  offset="1" style="stop-color:#FFFFFF"/>
	</linearGradient>
	<rect x="0" y="0.064" fill="url(#SVGID_3_)" width="191.819" height="0.052"/>
	<rect x="0" y="511.883" fill="#009900" width="191.819" height="0.052"/>
	
		<linearGradient id="SVGID_4_" gradientUnits="userSpaceOnUse" x1="1183.3049" y1="2373.582" x2="5027.4766" y2="2373.582" gradientTransform="matrix(0.08 0 0 -0.1332 -209.6569 572.1604)">
		<stop  offset="0" style="stop-color:#000000"/>
		<stop  offset="1" style="stop-color:#FFFFFF"/>
	</linearGradient>
	<rect x="0" y="511.883" fill="url(#SVGID_4_)" width="191.819" height="0.052"/>
	<path fill="#FF0000" d="M191.82,0v0.013v0.052v0.052V118.24h6.204v-1.921h5.815v3.053c41.137,4.29,77.093,26.054,100.256,57.735
		l0.088-0.009l-0.006,0.12c0.031,0.043,0.063,0.086,0.095,0.129l4.65,0.146l1.711,5.376l-0.736-0.023l1.89,5.94
		c7.374,12.497,12.888,26.216,16.163,40.781l6.253,0.303l-0.077,6.004l-0.893-0.043l-0.182,14.009l0.892,0.043l-0.077,6.004
		l-2.55-0.124c0.055,1.566,0.094,3.138,0.098,4.717c0.004,0.159,0.004,0.294,0.004,0.453h-0.004
		c0.013,15.837-2.576,31.071-7.355,45.305l2.5,0.912l-2.596,5.579l-0.821-0.3l-6.059,13.02l0.821,0.3l-2.597,5.58l-0.703-0.257
		l-0.137,2.753l-3.319,0.328c-22.496,37.372-61.707,63.592-107.309,68.347v2.98h-5.815v-0.968h-6.204v107.369v0.052v0.052V512H512V0
		H191.82z"/>
	<path d="M304.183,177.098l-0.088,0.009c0.027,0.037,0.055,0.074,0.082,0.111L304.183,177.098z"/>
	<path d="M313.426,331.698l-0.875,0.087c-0.459,0.796-0.93,1.583-1.403,2.369l3.319-0.328l0.137-2.753l-1.126-0.411L313.426,331.698
		z"/>
	<path fill="#EFEF00" d="M313.426,331.698l0.052-1.036l-0.248-0.09c-0.228,0.403-0.448,0.812-0.679,1.213L313.426,331.698z"/>
	<path fill="#EFEF00" fill-opacity="0.9997" d="M178.638,121.799v-2.856c-43.101,2.982-80.918,25.084-105.011,57.855l2.666,1.174
		C99.884,146.188,136.701,124.76,178.638,121.799z"/>
	<path fill="#EFEF00" fill-opacity="0.9997" d="M68.646,332.447l-2.954,0.605c23.191,39.322,64.787,66.545,112.946,69.877v-2.85
		C131.868,396.776,91.437,370.479,68.646,332.447z"/>
	<path fill="#EFEF00" fill-opacity="0.9997" d="M63.551,327.162l-5.04-13.738l-0.427,0.088l-2.16-5.887l0.942-0.193
		c-4.378-12.372-7.062-25.541-7.756-39.234l-2.833,0.307c1.169,22.628,7.652,43.854,18.214,62.474l-1.368-3.728L63.551,327.162z"/>
	<path fill="#EFEF00" fill-opacity="0.9997" d="M61.68,202.602l-2.605-1.147c-5.856,12.698-9.893,26.399-11.775,40.776l2.915-0.316
		C52.099,228.062,56.023,214.854,61.68,202.602z"/>
	<path fill="#EFEF00" fill-opacity="0.9997" d="M300.647,177.232l3.625,0.114c-0.031-0.043-0.063-0.086-0.095-0.129
		c-0.027-0.037-0.055-0.074-0.082-0.111c-23.163-31.681-59.119-53.445-100.256-57.735v2.868
		C243.354,126.446,277.974,147.103,300.647,177.232z"/>
	<path fill="#EFEF00" fill-opacity="0.9997" d="M314.625,195.415l1.711,5.376l-1.397-0.044c4.347,9.061,7.743,18.662,10.056,28.678
		l2.955,0.143c-3.275-14.565-8.789-28.285-16.163-40.781l2.102,6.605L314.625,195.415z"/>
	<path fill="#EFEF00" fill-opacity="0.9997" d="M328.56,260.493c0.004,0.157,0.004,0.289,0.004,0.444h-0.004
		c0.012,15.493-2.516,30.396-7.184,44.323l2.682,0.979c4.779-14.233,7.368-29.468,7.355-45.305h0.004c0-0.159,0-0.294-0.004-0.453
		c-0.004-1.579-0.043-3.15-0.098-4.717l-2.861-0.139C328.514,257.242,328.556,258.863,328.56,260.493z"/>
	<path fill="#EFEF00" fill-opacity="0.9997" d="M313.23,330.572l-2.713-0.99c-21.664,38.191-60.863,65.179-106.678,70.056v2.863
		c45.602-4.755,84.812-30.975,107.309-68.347c0.474-0.786,0.944-1.573,1.403-2.369C312.781,331.384,313.002,330.976,313.23,330.572z
		"/>
	<path d="M106.122,172.303v-5.366h6.184c18.411-14.92,41.291-24.564,66.332-26.609v-18.529
		c-41.937,2.961-78.754,24.389-102.345,56.173l17.445,7.684C97.528,180.9,101.669,176.437,106.122,172.303z"/>
	<path d="M88.053,328.469l-19.407,3.979c22.791,38.032,63.223,64.329,109.992,67.633v-18.544
		C140.921,378.455,108.073,358.13,88.053,328.469z"/>
	<path d="M75.217,303.67c-4.435-11.731-7.092-24.331-7.646-37.474l-18.46,2.001c0.694,13.693,3.378,26.862,7.756,39.234
		L75.217,303.67z"/>
	<path d="M293.637,200.076c5.15,8.821,9.209,18.353,12.003,28.411l19.354,0.938c-2.312-10.016-5.709-19.617-10.056-28.678
		L293.637,200.076z"/>
	<path d="M270.447,166.937v4.516c1.772,1.612,3.495,3.278,5.17,4.991l25.03,0.788c-22.673-30.13-57.292-50.786-96.808-54.993v18.594
		c23.081,2.844,44.159,12.174,61.347,26.104H270.447z"/>
	<path d="M310.036,260.548c0.003,0.136,0.003,0.251,0.003,0.386h-0.003c0.01,13.264-2.129,26.027-6.077,37.973l17.417,6.354
		c4.668-13.927,7.195-28.83,7.184-44.323h0.004c0-0.155,0-0.287-0.004-0.444c-0.004-1.63-0.046-3.251-0.105-4.867l-18.574-0.9
		C309.977,256.655,310.031,258.596,310.036,260.548z"/>
	<path d="M203.839,381.029v18.608c45.814-4.877,85.014-31.864,106.678-70.056l-17.68-6.45
		C274.089,354.311,241.661,376.369,203.839,381.029z"/>
	<path d="M78.635,210.069l-16.955-7.467c-5.657,12.252-9.581,25.46-11.466,39.313l19.059-2.065
		C71.107,229.399,74.293,219.414,78.635,210.069z"/>
	<path d="M106.122,172.303c-4.453,4.134-8.594,8.597-12.384,13.353l12.384,5.454V172.303z"/>
	<path d="M178.638,166.937v-26.609c-25.041,2.045-47.921,11.688-66.332,26.609H178.638z"/>
	<path d="M117.198,322.494l-29.145,5.975c20.021,29.661,52.868,49.986,90.585,53.067v-21.542
		C152.365,357.143,129.893,342.789,117.198,322.494z"/>
	<path d="M265.186,166.937c-17.188-13.93-38.266-23.26-61.347-26.104v26.104H265.186z"/>
	<path d="M270.447,171.453v4.829l5.17,0.163C273.942,174.731,272.219,173.065,270.447,171.453z"/>
	<path d="M293.637,200.076l-23.19-0.73v27.435l35.193,1.706C302.846,218.429,298.787,208.897,293.637,200.076z"/>
	<path d="M270.447,286.678l33.513,12.229c3.948-11.945,6.087-24.709,6.077-37.973h0.003c0-0.135,0-0.25-0.003-0.386
		c-0.005-1.952-0.06-3.893-0.156-5.822l-39.434-1.911V286.678z"/>
	<path d="M203.839,359.149v21.88c37.822-4.66,70.25-26.719,88.998-57.897l-28.366-10.351
		C254.177,336.454,231.475,354.227,203.839,359.149z"/>
	<path d="M75.217,303.67l32.081-6.576c-0.566-3.097-0.94-6.252-1.091-9.463h-0.084v-3.097c0-0.097-0.008-0.19-0.008-0.287
		s0.007-0.19,0.008-0.287v-21.94l-38.552,4.177C68.125,279.339,70.782,291.938,75.217,303.67z"/>
	<path d="M106.122,222.175l-27.488-12.106c-4.341,9.345-7.527,19.331-9.361,29.78l36.849-3.993V222.175z"/>
	<polygon points="184.453,166.937 184.455,166.937 184.455,121.046 198.024,121.046 198.024,118.24 191.82,118.24 184.453,118.24 	
		"/>
	<polygon points="198.024,401.705 184.455,401.705 184.455,360.444 184.453,360.444 184.453,404.514 191.82,404.514 
		198.024,404.514 	"/>
	<rect x="184.455" y="121.046" fill="#EFEF00" width="13.568" height="45.891"/>
	<path fill="#EFEF00" d="M188.275,360.534c-1.281,0-2.553-0.036-3.819-0.09v41.261h13.568v-41.724
		C194.824,360.333,191.576,360.534,188.275,360.534z"/>
	<polygon points="178.638,140.328 178.638,166.937 180.725,166.937 180.725,118.886 182.372,118.886 182.372,166.937 
		184.453,166.937 184.453,118.24 184.453,116.319 178.638,116.319 178.638,118.943 178.638,121.799 	"/>
	<path d="M184.453,360.444c-0.697-0.029-1.388-0.082-2.081-0.128v42.594h-1.647V360.2c-0.699-0.059-1.393-0.131-2.087-0.206v21.542
		v18.544v2.85v2.552h5.815v-0.968V360.444z"/>
	<path fill="#EFEF00" d="M180.725,402.91h1.647v-42.594c-0.55-0.036-1.101-0.069-1.647-0.116V402.91z"/>
	<rect x="180.725" y="118.886" fill="#EFEF00" width="1.647" height="48.051"/>
	<path d="M203.839,381.029v-21.88c-0.691,0.123-1.385,0.238-2.082,0.345v43.416h-1.647v-43.175
		c-0.692,0.093-1.389,0.169-2.086,0.246v41.724v2.809v0.968h5.815v-2.98v-2.863V381.029z"/>
	<polygon points="198.024,121.046 198.024,166.937 200.11,166.937 200.11,118.886 201.757,118.886 201.757,166.937 203.839,166.937 
		203.839,140.833 203.839,122.239 203.839,119.372 203.839,116.319 198.024,116.319 198.024,118.24 	"/>
	<path fill="#EFEF00" d="M200.11,402.91h1.647v-43.416c-0.548,0.084-1.096,0.167-1.647,0.241V402.91z"/>
	<rect x="200.11" y="118.886" fill="#EFEF00" width="1.647" height="48.051"/>
	<polygon points="59.75,313.172 108.66,303.146 108.659,303.145 58.511,313.424 63.551,327.162 64.789,326.908 	"/>
	<path fill="#EFEF00" d="M108.66,303.146l-48.91,10.026l5.039,13.736l49.186-10.083C111.759,312.475,109.965,307.901,108.66,303.146
		z"/>
	<path d="M108.659,303.145c-0.196-0.713-0.362-1.436-0.536-2.155l-49.678,10.184l-0.612-1.668l49.885-10.227
		c-0.156-0.723-0.287-1.454-0.42-2.185l-32.081,6.576l-18.351,3.762l-0.942,0.193l2.16,5.887l0.427-0.088L108.659,303.145z"/>
	<path fill="#EFEF00" d="M57.833,309.505l0.612,1.668l49.678-10.184c-0.138-0.569-0.282-1.137-0.406-1.711L57.833,309.505z"/>
	<path d="M88.053,328.469l29.145-5.975c-0.417-0.667-0.841-1.331-1.237-2.012l-50.315,10.314l-0.612-1.668l50.039-10.258
		c-0.373-0.678-0.745-1.356-1.096-2.046l-49.186,10.083l-1.239,0.254l-0.427,0.088l1.368,3.728l0.792,2.159l0.409-0.084l2.954-0.605
		L88.053,328.469z"/>
	<path fill="#EFEF00" d="M65.032,329.129l0.612,1.668l50.315-10.314c-0.309-0.53-0.593-1.074-0.889-1.611L65.032,329.129z"/>
	<polygon points="46.988,262.39 46.334,248.374 106.122,241.895 106.122,241.894 45.035,248.514 45.689,262.53 	"/>
	<polygon fill="#EFEF00" points="106.122,241.895 46.334,248.374 46.988,262.39 106.122,255.982 	"/>
	<polygon points="106.122,241.894 106.122,239.733 45.676,246.283 45.597,244.581 106.122,238.022 106.122,235.856 69.273,239.849 
		50.214,241.915 47.3,242.23 44.307,242.555 44.587,248.562 45.035,248.514 	"/>
	<polygon fill="#EFEF00" points="106.122,238.022 45.597,244.581 45.676,246.283 106.122,239.733 	"/>
	<polygon points="67.571,266.196 106.122,262.02 106.122,259.858 46.611,266.308 46.531,264.605 106.122,258.148 106.122,255.982 
		46.988,262.39 45.689,262.53 45.241,262.579 45.522,268.586 46.277,268.504 49.111,268.197 	"/>
	<polygon fill="#EFEF00" points="46.531,264.605 46.611,266.308 106.122,259.858 106.122,258.148 	"/>
	<polygon points="68.888,181.881 106.122,198.28 106.122,198.278 67.794,181.397 59.393,194.425 60.487,194.907 	"/>
	<polygon fill="#EFEF00" points="106.122,198.28 68.888,181.881 60.487,194.907 106.122,215.006 	"/>
	<polygon points="106.122,198.278 106.122,195.712 69.707,179.674 70.728,178.093 106.122,193.681 106.122,191.109 93.739,185.655 
		76.293,177.972 73.627,176.798 71.018,175.648 67.417,181.231 67.794,181.397 	"/>
	<polygon fill="#EFEF00" points="70.728,178.093 69.707,179.674 106.122,195.712 106.122,193.681 	"/>
	<polygon points="78.635,210.069 106.122,222.175 106.122,219.61 57.705,198.286 58.726,196.704 106.122,217.578 106.122,215.006 
		60.487,194.907 59.393,194.425 59.016,194.259 55.415,199.843 59.074,201.455 61.68,202.602 	"/>
	<polygon fill="#EFEF00" points="58.726,196.704 57.705,198.286 106.122,219.61 106.122,217.578 	"/>
	<polygon points="270.447,232.789 270.447,232.791 331.928,235.77 331.746,249.778 333.051,249.841 333.233,235.832 	"/>
	<polygon fill="#EFEF00" points="270.447,246.807 331.746,249.778 331.928,235.77 270.447,232.791 	"/>
	<polygon points="305.64,228.487 270.447,226.781 270.447,228.937 332.982,231.967 332.959,233.668 270.447,230.639 
		270.447,232.789 333.233,235.832 334.125,235.875 334.202,229.871 327.949,229.568 324.994,229.425 	"/>
	<polygon fill="#EFEF00" points="332.959,233.668 332.982,231.967 270.447,228.937 270.447,230.639 	"/>
	<polygon points="270.447,246.807 270.447,248.962 332.722,251.98 332.699,253.682 270.447,250.665 270.447,252.814 309.88,254.726 
		328.454,255.626 331.316,255.765 333.865,255.888 333.943,249.884 333.051,249.841 331.746,249.778 	"/>
	<polygon fill="#EFEF00" points="270.447,250.665 332.699,253.682 332.722,251.98 270.447,248.962 	"/>
	<polygon points="270.447,181.604 270.447,181.606 308.82,182.814 312.812,195.357 313.888,195.392 311.786,188.787 
		309.897,182.847 	"/>
	<polygon fill="#EFEF00" points="270.447,194.024 312.812,195.357 308.82,182.814 270.447,181.606 	"/>
	<polygon points="300.647,177.232 275.616,176.444 270.447,176.282 270.447,178.191 308.551,179.391 309.035,180.915 270.447,179.7 
		270.447,181.604 309.897,182.847 310.633,182.87 308.922,177.493 304.272,177.347 	"/>
	<polygon fill="#EFEF00" points="270.447,179.7 309.035,180.915 308.551,179.391 270.447,178.191 	"/>
	<polygon points="270.447,194.024 270.447,195.934 314.254,197.312 314.739,198.836 270.447,197.441 270.447,199.346 
		293.637,200.076 314.939,200.747 316.336,200.791 314.625,195.415 313.888,195.392 312.812,195.357 	"/>
	<polygon fill="#EFEF00" points="314.739,198.836 314.254,197.312 270.447,195.934 270.447,197.441 	"/>
	<polygon points="269.88,292.998 269.88,293 321.939,311.994 315.882,325.013 317.082,325.45 323.141,312.431 	"/>
	<path fill="#EFEF00" d="M315.882,325.013l6.057-13.019L269.88,293c-0.596,4.839-1.663,9.544-3.188,14.064L315.882,325.013z"/>
	<path d="M303.959,298.906l-33.513-12.229v0.953h-0.104c-0.021,0.442-0.05,0.882-0.079,1.322l54.265,19.799l-0.735,1.582
		l-53.677-19.585c-0.068,0.753-0.145,1.503-0.236,2.249l53.261,19.433l0.821,0.3l2.596-5.579l-2.5-0.912l-2.682-0.979
		L303.959,298.906z"/>
	<path fill="#EFEF00" d="M323.793,310.334l0.735-1.582l-54.265-19.799c-0.039,0.602-0.093,1.199-0.147,1.796L323.793,310.334z"/>
	<path d="M315.882,325.013l-49.189-17.948c-0.234,0.696-0.498,1.38-0.753,2.067l49.935,18.22l-0.736,1.58l-49.808-18.174
		c-0.272,0.682-0.567,1.352-0.859,2.023l28.366,10.351l17.68,6.45l2.713,0.99l0.248,0.09l1.126,0.411l0.703,0.257l2.597-5.58
		l-0.821-0.3L315.882,325.013z"/>
	<path fill="#EFEF00" d="M315.138,328.932l0.736-1.58l-49.935-18.22c-0.202,0.543-0.396,1.089-0.609,1.626L315.138,328.932z"/>
	<path fill="#F6F6FB" d="M106.207,287.631c-0.048-1.027-0.081-2.06-0.084-3.097v3.097H106.207z"/>
	<path fill="#F6F6FB" d="M182.372,166.937h-1.647h-2.087h-66.332h-6.184v5.366v18.807v2.572v2.031v2.566v0.001v16.727v2.572v2.032
		v2.565v13.681v2.166v1.711v2.161v0.001v14.087v2.167v1.71v2.161v21.94c0.033-8.214,1.476-16.115,4.096-23.522v-4.99h-0.162v-2.189
		h-0.003v-3.142h0.165v-78.341h156.107v88.646c2.654,7.498,4.109,15.502,4.109,23.825c0,1.135-0.039,2.261-0.092,3.384h0.104v-0.953
		v-33.863v-2.15v-1.702v-2.155v-14.017v-0.001v-2.15v-1.702v-2.155v-27.435v-1.905v-1.508v-1.91v-12.418v-0.001V179.7v-1.508v-1.91
		v-4.829v-4.516h-5.261h-61.347h-2.082h-1.647h-2.086h-13.568h-0.002H182.372z"/>
	<path fill="#F6F6FB" d="M270.435,284.247c0-8.323-1.455-16.327-4.109-23.825v15.699h0.162v2.34h-0.162v7.974h-0.1
		c-1.812,38.533-36.018,69.259-77.964,69.259c-41.946,0-76.152-30.726-77.964-69.259h-0.08v-2.927c0-0.097-0.008-0.191-0.008-0.287
		s0.007-0.19,0.008-0.287v-18.678h-0.161v-2.338h0.161v-1.48c-2.62,7.407-4.063,15.309-4.096,23.522c0,0.097-0.008,0.19-0.008,0.287
		s0.007,0.19,0.008,0.287c0.004,1.037,0.036,2.069,0.084,3.097c0.151,3.211,0.525,6.366,1.091,9.463
		c0.133,0.73,0.265,1.462,0.42,2.185c0.124,0.574,0.268,1.142,0.406,1.711c0.173,0.72,0.34,1.442,0.536,2.155c0,0,0,0.001,0,0.001
		c1.305,4.756,3.099,9.329,5.315,13.68c0.351,0.689,0.724,1.368,1.096,2.046c0.295,0.537,0.58,1.081,0.889,1.611
		c0.396,0.681,0.82,1.345,1.237,2.012c12.695,20.295,35.168,34.648,61.44,37.5c0.694,0.075,1.388,0.147,2.087,0.206
		c0.547,0.047,1.098,0.08,1.647,0.116c0.693,0.046,1.384,0.099,2.081,0.128c0,0,0.001,0,0.002,0c1.267,0.054,2.539,0.09,3.819,0.09
		c3.301,0,6.55-0.201,9.749-0.553c0.697-0.077,1.394-0.153,2.086-0.246c0.552-0.074,1.1-0.157,1.647-0.241
		c0.697-0.106,1.391-0.222,2.082-0.345c27.636-4.923,50.338-22.695,60.632-46.368c0.292-0.672,0.587-1.342,0.859-2.023
		c0.214-0.537,0.407-1.083,0.609-1.626c0.255-0.688,0.519-1.371,0.753-2.067c1.524-4.521,2.592-9.226,3.188-14.064
		c0-0.001,0-0.001,0-0.002c0.092-0.746,0.168-1.496,0.236-2.249c0.055-0.597,0.108-1.194,0.147-1.796
		c0.029-0.44,0.058-0.88,0.079-1.322C270.396,286.508,270.435,285.382,270.435,284.247z"/>
	<path fill="#FF0000" d="M128.719,194.723c-4.479,0-8.112,3.828-8.109,8.545l4.465,0.025h11.765c0-0.013,0-0.025,0-0.039
		C136.837,198.537,133.198,194.715,128.719,194.723z M121.422,202.845c-0.003-4.245,3.267-7.69,7.298-7.69
		c4.031-0.007,7.307,3.433,7.31,7.678c0,0.034,0,0.062,0,0.096L121.422,202.845z"/>
	<rect x="124.45" y="182.153" fill="#FF0000" width="8.39" height="0.018"/>
	<path fill="#FF0000" d="M248.659,195.097c-4.479,0-8.112,3.828-8.109,8.545l4.465,0.025h11.765c0-0.013,0-0.025,0-0.039
		C256.778,198.912,253.139,195.089,248.659,195.097z M241.363,203.219c-0.003-4.245,3.266-7.69,7.298-7.69
		c4.031-0.007,7.307,3.433,7.31,7.678c0,0.034,0,0.062-0.001,0.096L241.363,203.219z"/>
	<rect x="185.536" y="182.527" fill="#FF0000" width="8.389" height="0.019"/>
	<path fill="#FF0000" d="M112.46,253.236h2.392v-3.056h2.407v2.951c0.711-1.444,1.457-2.871,2.265-4.262v-1.714h1.048
		c5.352-8.64,12.549-16.168,21.117-22.094v-16.226h4.432v-3.508h28.024v-1.386h31.247v1.386h25.027v3.508h4.441v16.243
		c8.312,5.753,15.335,13.013,20.631,21.334h0.852v1.376c0.867,1.434,1.691,2.893,2.455,4.386v-2.801h2.407v3.12h2.518v-3.119h2.407
		v3.142h-0.013v2.189h-6.087c0.003,0.006,0.006,0.012,0.009,0.018h4.104v6.452h1.977v2.338h-2.752
		c0.065,0.214,0.134,0.427,0.196,0.642h0.579v2.109c0.829,3.209,1.44,6.497,1.792,9.856h0.39v-15.699v-88.646H110.218v78.341h2.242
		V253.236z M113.048,205.907v-2.339h31.248v2.339H113.048z M197.936,203.667c0,0.022,0,0.043,0,0.067l-11.764-0.067h-9.684v-11.691
		h26.561v11.691H197.936z M264.236,206.281h-31.247v-2.339h31.247V206.281z M261.892,203.667h-5.111c0,0.022,0,0.043,0,0.067
		l-11.765-0.067h-9.683v-11.691h26.56V203.667z M263.879,180.337h-0.012v2.189h-8.69v0.019h6.715v6.452h1.977v2.338h-31.247v-2.338
		h2.711v-6.452h6.641v-0.019h-9.354v-2.189h-0.002v-3.142h2.407v3.12h2.392v-3.057h2.407v3.057h2.258v-2.917h11.997v2.917h2.469
		v-3.12h2.407v3.12h2.518v-3.12h2.407V180.337z M254.093,174.234v3.142h-2.408v-3.142H254.093z M249.42,174.171v3.142h-2.407v-3.142
		H249.42z M244.495,174.235v3.142h-2.407v-3.142H244.495z M192.841,174.234h2.407v3.142h-2.407V174.234z M188.168,174.171h2.407
		v3.142h-2.407V174.171z M183.243,174.235h2.407v3.142h-2.407V174.235z M173.773,177.196h2.407v3.12h2.392v-3.057h2.407v3.057h2.258
		v-2.917h11.997v2.917h2.47v-3.12h2.407v3.12h2.518v-3.12h2.407v3.142h-0.013v2.189h-8.689v0.019h6.715v6.452h1.976v2.338h-31.247
		v-2.338h2.711v-6.452h6.641v-0.019h-9.353v-2.189h-0.003V177.196z M131.744,173.86h2.408v3.142h-2.408V173.86z M127.073,173.797
		h2.407v3.142h-2.407V173.797z M122.148,173.861h2.407v3.142h-2.407V173.861z M119.883,176.885v3.056h2.258v-2.916h11.997v2.916
		h2.469v-3.12h2.407v3.12h2.518v-3.119h2.408v3.142h-0.013v2.189h-8.68v0.018h6.704v6.452h1.977v2.338h-31.247v-2.338h2.711v-6.452
		h6.651v-0.018h-9.363v-2.189h-0.003v-3.142h2.407v3.119h2.392v-3.056H119.883z M115.392,191.603h26.56v11.691h-5.111
		c0,0.022,0,0.043,0,0.067l-11.765-0.067h-9.683V191.603z"/>
	<rect x="244.38" y="182.527" fill="#FF0000" width="8.39" height="0.019"/>
	<path fill="#FF0000" d="M110.425,276.863h0.102c0.405-4.322,1.215-8.535,2.401-12.607h-2.71v18.678
		c0.007-1.623,0.087-3.229,0.207-4.826V276.863z"/>
	<path fill="#FF0000" d="M110.218,286.435h0.08c-0.045-0.972-0.076-1.946-0.08-2.927V286.435z"/>
	<path fill="#FF0000" d="M266.314,283.221c0,1.078-0.037,2.147-0.088,3.214h0.1v-7.974h-0.197
		C266.238,280.036,266.314,281.62,266.314,283.221z"/>
	<path fill="#FF0000" d="M110.218,261.918h2.55v-6.452h3.383c0.002-0.006,0.005-0.012,0.008-0.019h-5.94v4.99V261.918z"/>
	<path fill="#FF0000" d="M189.815,195.097c-4.479,0-8.112,3.828-8.108,8.545l4.465,0.025h11.765c0-0.013,0-0.025,0-0.039
		C197.933,198.912,194.294,195.089,189.815,195.097z M182.518,203.219c-0.003-4.245,3.267-7.69,7.298-7.69
		c4.032-0.007,7.307,3.433,7.31,7.678c0,0.034,0,0.062,0,0.096L182.518,203.219z"/>
	
		<rect x="235.088" y="311.793" transform="matrix(-0.7593 0.6508 -0.6508 -0.7593 619.2349 402.895)" fill="#FF0000" width="0.018" height="8.379"/>
	<path fill="#FF0000" d="M225.507,324.121c-2.918-3.392-8.195-3.646-11.778-0.57c-0.011,0.009-0.021,0.018-0.03,0.026l7.648,8.855
		l2.966,3.396C227.897,332.752,228.432,327.506,225.507,324.121z M214.505,323.951c0.025-0.021,0.047-0.041,0.072-0.062
		c3.226-2.77,7.975-2.539,10.602,0.513c2.632,3.048,2.149,7.769-1.075,10.536L214.505,323.951z"/>
	<path fill="#FF0000" d="M152.203,324.492c-2.924,3.385-2.389,8.63,1.195,11.707l2.958-3.387l7.655-8.865
		c-0.01-0.008-0.019-0.017-0.03-0.025C160.399,320.846,155.122,321.101,152.203,324.492z M153.608,335.309
		c-3.226-2.768-3.707-7.488-1.075-10.536c2.626-3.052,7.376-3.282,10.601-0.513c0.025,0.021,0.047,0.04,0.072,0.062L153.608,335.309
		z"/>
	
		<rect x="142.604" y="312.164" transform="matrix(-0.7593 -0.6508 0.6508 -0.7593 45.0128 649.3583)" fill="#FF0000" width="0.018" height="8.379"/>
	<path fill="#FF0000" d="M250.91,267.275c-4.479,0-8.112,3.828-8.108,8.546l4.442,0.025h11.789c0-0.013,0-0.025,0-0.039
		C259.029,271.09,255.391,267.269,250.91,267.275z M243.615,275.398c-0.004-4.245,3.266-7.69,7.298-7.69
		c4.031-0.007,7.306,3.433,7.31,7.679c0,0.033,0,0.062-0.001,0.096L243.615,275.398z"/>
	<path fill="#FF0000" d="M266.314,283.221c0-1.601-0.076-3.185-0.186-4.76H235.24v-2.34h30.695
		c-0.352-3.359-0.963-6.647-1.792-9.856v9.582h-5.111c0,0.022,0,0.044,0,0.067l-11.789-0.067h-9.66v-11.691h25.98
		c-0.062-0.215-0.131-0.428-0.196-0.642h-28.496v-2.338h2.712v-6.452h6.641v-0.018h-9.354v-2.189h-0.003v-3.142h2.408v3.119h2.391
		v-3.056h2.408v3.056h2.258v-2.916h11.997v2.916h2.469v-0.319c-0.764-1.493-1.588-2.952-2.455-4.386v1.766h-2.407v-3.142h1.555
		c-5.296-8.321-12.319-15.581-20.631-21.334v52.19h-0.059c-1.082,22.998-21.497,41.336-46.533,41.336
		c-25.035,0-45.45-18.338-46.532-41.336h-0.048v-1.774c0-0.048-0.004-0.096-0.004-0.144s0.004-0.096,0.004-0.144v-50.146
		c-8.568,5.925-15.766,13.454-21.117,22.094h1.359v3.142h-2.407v-1.428c-0.808,1.391-1.554,2.817-2.265,4.262v0.105h2.258v-2.917
		h11.997v2.917h2.47v-3.12h2.407v3.12h2.518v-3.12h2.407v3.142h-0.013v2.189h-8.68v0.019h6.705v6.452h1.976v2.338h-28.376
		c-1.186,4.072-1.996,8.285-2.401,12.607h31.145v2.339h-31.247v-1.095c-0.12,1.597-0.2,3.203-0.207,4.826
		c0,0.097-0.008,0.191-0.008,0.287s0.007,0.19,0.008,0.287c0.004,0.98,0.034,1.955,0.08,2.927
		c1.812,38.533,36.018,69.259,77.964,69.259c41.946,0,76.151-30.726,77.964-69.259C266.277,285.368,266.314,284.299,266.314,283.221
		z M251.672,249.492h-2.408v-3.142h2.408V249.492z M244.339,246.414h2.408v3.142h-2.408V246.414z M124.448,250.234v-3.142h2.408
		v3.142H124.448z M129.121,250.297v-3.142h2.407v3.142H129.121z M134.216,276.656l-11.665-0.067h-9.783v-11.691h26.561v11.691
		h-5.112C134.217,276.61,134.217,276.633,134.216,276.656z M240.899,309.886l1.571,1.819l-2.385,2.051l-1.571-1.819L240.899,309.886
		z M236.988,310.266l-1.572-1.82l2.386-2.051l1.571,1.82L236.988,310.266z M139.909,306.766l2.386,2.051l-1.571,1.82l-2.386-2.051
		L139.909,306.766z M136.812,310.257l2.386,2.051l-1.571,1.819l-2.386-2.051L136.812,310.257z M132.074,315.841l1.571-1.819
		l2.385,2.051l-1.571,1.819L132.074,315.841z M137.103,332.633l1.77-2.05l-4.899-4.212l4.336-5.021l-0.014-0.012l-6.106,7.071
		l-1.663-1.429l-0.001,0.001l-2.386-2.051l1.572-1.819l2.368,2.036l1.561-1.808l-2.321-1.995l1.571-1.819l2.321,1.995l1.474-1.707
		l-2.215-1.903l7.831-9.068l2.215,1.903l1.611-1.865l-2.369-2.037l1.572-1.82l2.369,2.037l1.643-1.902l-2.368-2.037l1.571-1.82
		l2.386,2.051l-0.009,0.011l1.662,1.429l-5.67,6.566l0.014,0.012l4.382-5.074l4.898,4.212l1.29-1.493l1.775,1.525l-20.397,23.62
		L137.103,332.633z M141.135,332.528l17.337-20.077l8.877,7.633l-3.336,3.863c0.016,0.015,0.033,0.028,0.05,0.044l-7.706,8.821
		l-6.345,7.348L141.135,332.528z M148.691,342.11l20.396-23.619l1.776,1.526l-20.397,23.619L148.691,342.11z M229.021,341.739
		l-1.776,1.526l-20.396-23.619l1.775-1.526L229.021,341.739z M227.699,339.789l-6.353-7.356l-7.699-8.812
		c0.018-0.016,0.034-0.029,0.051-0.043l-3.337-3.864l8.877-7.632l17.338,20.076L227.699,339.789z M241.024,319.444l1.474,1.706
		l2.32-1.995l1.571,1.819l-2.32,1.995l1.561,1.809l2.369-2.036l1.571,1.818l-2.385,2.051l-0.001-0.002l-1.664,1.43l-6.107-7.072
		l-0.014,0.012l4.336,5.022l-4.898,4.211l1.77,2.05l-1.775,1.526l-20.396-23.62l1.775-1.525l1.29,1.493l4.898-4.212l4.381,5.074
		l0.013-0.012l-5.67-6.566l1.663-1.43l-0.008-0.01l2.385-2.05l1.572,1.819l-2.369,2.037l1.643,1.902l2.37-2.037l1.571,1.82
		l-2.369,2.037l1.611,1.865l2.215-1.903l7.831,9.068L241.024,319.444z M245.637,315.47l-2.386,2.051l-1.571-1.819l2.386-2.051
		L245.637,315.47z"/>
	<path fill="#FF0000" d="M257.429,254.724h2.611c-0.003-0.006-0.006-0.012-0.009-0.018h-2.603V254.724z"/>
	<rect x="246.632" y="254.706" fill="#FF0000" width="8.39" height="0.018"/>
	<path fill="#FF0000" d="M126.095,268.018c-4.479,0-8.112,3.828-8.108,8.545l4.564,0.026h11.666c0-0.013,0-0.025,0-0.04
		C134.213,271.832,130.574,268.011,126.095,268.018z M126.096,268.45c4.032-0.007,7.307,3.433,7.31,7.679c0,0.033,0,0.062,0,0.095
		l-14.607-0.083C118.795,271.896,122.065,268.45,126.096,268.45z"/>
	<path fill="#FF0000" d="M119.419,255.466v-0.019h-3.261c-0.003,0.006-0.005,0.012-0.008,0.019H119.419z"/>
	<rect x="121.826" y="255.448" fill="#FF0000" width="8.39" height="0.019"/>
	<polygon fill="#FF0000" points="230.419,208.836 230.419,205.328 205.392,205.328 205.392,206.281 174.145,206.281 
		174.145,205.328 146.12,205.328 146.12,208.836 	"/>
	<path fill="#440000" d="M141.689,275.495v1.774h0.048C141.709,276.681,141.691,276.09,141.689,275.495z"/>
	<path fill="#440000" d="M141.689,275.208c0.023-6.625,1.649-12.898,4.539-18.505v-42.52h84.088v42.529
		c2.907,5.645,4.538,11.965,4.538,18.639c0,0.644-0.022,1.281-0.052,1.918h0.059v-52.19v-16.243h-4.441H146.12h-4.432v16.226
		V275.208z"/>
	<path fill="#440000" d="M234.854,275.352c0-6.674-1.631-12.994-4.538-18.639v19.232h-0.054
		c-0.977,20.756-19.402,37.306-41.996,37.306s-41.019-16.55-41.996-37.306h-0.042v-1.553c0-0.061-0.005-0.119-0.005-0.18
		s0.004-0.119,0.005-0.18v-17.33c-2.89,5.606-4.516,11.88-4.539,18.505c0,0.048-0.004,0.096-0.004,0.144s0.004,0.096,0.004,0.144
		c0.002,0.595,0.021,1.186,0.048,1.774c1.082,22.998,21.497,41.336,46.532,41.336c25.036,0,45.451-18.338,46.533-41.336
		C234.831,276.633,234.854,275.995,234.854,275.352z"/>
	<path fill="#FFFFFF" d="M146.228,274.033c0.023-4.729,0.952-9.258,2.634-13.448v-12.724h8.391c2.451-2.485,5.249-4.668,8.314-6.499
		v-9.105h10.636v-16.354h24.649v16.354h10.123v9.111c3.062,1.829,5.856,4.01,8.305,6.493h8.913v14.124
		c1.366,3.848,2.116,7.956,2.116,12.229c0,0.581-0.02,1.157-0.047,1.732h0.054v-19.232v-42.529h-84.088v42.52V274.033z"/>
	<path fill="#FFFFFF" d="M146.228,275.945h0.042c-0.024-0.516-0.04-1.033-0.042-1.553V275.945z"/>
	<path fill="#FFFFFF" d="M230.309,274.213c0-4.272-0.75-8.381-2.116-12.229v3.98h-0.028c-0.289,6.083-5.675,10.936-12.297,10.936
		c-2.133,0-4.138-0.504-5.888-1.389c-1.503,4.552-4.622,8.443-8.734,11.107v11.693h-0.029c-0.289,6.083-5.675,10.936-12.296,10.936
		c-6.622,0-12.008-4.853-12.297-10.936h-0.026v-0.49c0-0.006-0.001-0.012-0.001-0.018s0.001-0.012,0.001-0.018v-10.382
		c-4.691-2.617-8.279-6.763-9.966-11.694c-1.644,0.754-3.488,1.189-5.446,1.189c-6.622,0-12.008-4.853-12.297-10.936h-0.026v-0.49
		c0-0.006-0.001-0.012-0.001-0.018s0.001-0.012,0.001-0.018v-4.854c-1.682,4.19-2.611,8.72-2.634,13.448
		c0,0.061-0.005,0.119-0.005,0.18s0.004,0.119,0.005,0.18c0.002,0.52,0.018,1.037,0.042,1.553
		c0.977,20.756,19.402,37.306,41.996,37.306s41.019-16.55,41.996-37.306C230.289,275.37,230.309,274.794,230.309,274.213z"/>
	<path fill="#FFFFFF" d="M165.567,247.861v-6.499c-3.066,1.83-5.863,4.013-8.314,6.499H165.567z"/>
	<path fill="#FFFFFF" d="M210.975,247.861h8.305c-2.449-2.483-5.243-4.664-8.305-6.493V247.861z"/>
	<path fill="#FFFFFF" d="M165.567,247.861h7.943v5.454c0.846-0.673,1.745-1.29,2.692-1.843v-3.611h24.649v3.916
		c0.95,0.588,1.851,1.239,2.692,1.95v-5.865h7.431v-6.493v-9.111h-10.123v1.75h-0.029c-0.289,6.083-5.675,10.936-12.297,10.936
		s-12.008-4.853-12.297-10.936h-0.026v-0.49c0-0.006-0.001-0.012-0.001-0.018s0.001-0.012,0.001-0.018v-1.225h-10.636v9.105V247.861
		z"/>
	<path fill="#FFFFFF" d="M203.571,265.965h-0.026v-0.49c0-0.006-0.001-0.012-0.001-0.018s0.001-0.012,0.001-0.018v-11.713
		c-0.842-0.71-1.743-1.362-2.692-1.95v14.188h-0.029c-0.289,6.083-5.675,10.936-12.297,10.936s-12.008-4.853-12.297-10.936h-0.026
		v-0.49c0-0.006-0.001-0.012-0.001-0.018s0.001-0.012,0.001-0.018v-13.967c-0.947,0.553-1.846,1.169-2.692,1.843v12.65h-0.029
		c-0.203,4.284-2.934,7.948-6.85,9.746c1.687,4.932,5.275,9.077,9.966,11.694v-7.197h24.648v6.411
		c4.112-2.664,7.231-6.556,8.734-11.107C206.297,273.648,203.766,270.089,203.571,265.965z"/>
	<path fill="#3B3BFF" d="M176.597,298.312h0.026c-0.007-0.164-0.026-0.324-0.026-0.49V298.312z"/>
	<path fill="#3B3BFF" d="M201.245,280.208h-24.648v7.197v10.382c0.002-1.237,0.221-2.426,0.614-3.541v-13.312h23.416v13.311
		c0.396,1.121,0.616,2.316,0.616,3.561c0,0.172-0.02,0.338-0.027,0.508h0.029v-11.693V280.208z"/>
	<path fill="#3B3BFF" d="M200.627,294.244v3.889H200.6c-0.274,5.778-5.391,10.389-11.682,10.389s-11.408-4.61-11.682-10.389h-0.025
		v-0.465c0-0.006-0.001-0.012-0.001-0.018s0.001-0.012,0.001-0.018v-3.387c-0.393,1.115-0.612,2.304-0.614,3.541
		c0,0.006-0.001,0.012-0.001,0.018s0.001,0.012,0.001,0.018c0,0.166,0.019,0.326,0.026,0.49c0.289,6.083,5.675,10.936,12.297,10.936
		c6.621,0,12.007-4.853,12.296-10.936c0.008-0.17,0.027-0.336,0.027-0.508C201.243,296.561,201.023,295.365,200.627,294.244z"/>
	<path fill="#3B3BFF" d="M177.211,298.133h0.025c-0.007-0.155-0.025-0.308-0.025-0.465V298.133z"/>
	<path fill="#3B3BFF" d="M181.886,288.974c-0.124,0.013-0.244,0.037-0.371,0.037c-2.036,0-3.687-1.646-3.687-3.678
		s1.65-3.679,3.687-3.679s3.687,1.647,3.687,3.679c0,0.217-0.028,0.427-0.064,0.634h6.572c-0.036-0.207-0.064-0.417-0.064-0.634
		c0-2.031,1.65-3.679,3.687-3.679s3.687,1.647,3.687,3.679c0,1.831-1.344,3.337-3.1,3.619c2.853,1.982,4.707,5.135,4.707,8.698
		c0,0.163-0.019,0.321-0.026,0.482h0.027v-3.889v-13.311h-23.416v13.312v3.387C177.218,294.09,179.056,290.954,181.886,288.974z"/>
	<path fill="#3B3BFF" d="M195.919,288.952c-0.004,0-0.008,0-0.012,0.001v7.805h-0.017c-0.007,0.153-0.015,0.306-0.034,0.456
		c1.714,0.316,3.014,1.809,3.014,3.61c0,2.031-1.65,3.678-3.686,3.678c-1.486,0-2.758-0.882-3.342-2.145
		c-0.891,0.382-1.879,0.602-2.925,0.602c-1.279,0-2.474-0.324-3.505-0.882c-0.576,1.284-1.861,2.182-3.362,2.182
		c-2.036,0-3.687-1.646-3.687-3.678c0-1.998,1.599-3.616,3.589-3.669c-0.003-0.051-0.006-0.103-0.008-0.154h-0.015v-0.27
		c0-0.006-0.001-0.012-0.001-0.018s0.001-0.012,0.001-0.018v-7.484c-0.015,0.002-0.03,0.003-0.046,0.005
		c-2.83,1.98-4.668,5.116-4.675,8.659c0,0.006-0.001,0.012-0.001,0.018s0.001,0.012,0.001,0.018c0,0.157,0.018,0.31,0.025,0.465
		c0.274,5.778,5.391,10.389,11.682,10.389s11.408-4.61,11.682-10.389c0.008-0.161,0.026-0.319,0.026-0.482
		C200.626,294.087,198.772,290.935,195.919,288.952z"/>
	<path fill="#3B3BFF" d="M184.996,286.493h6.854c-0.058-0.172-0.109-0.345-0.141-0.526h-6.572
		C185.106,286.148,185.054,286.321,184.996,286.493z"/>
	<path fill="#3B3BFF" d="M181.932,296.758h0.015c-0.004-0.09-0.014-0.179-0.015-0.27V296.758z"/>
	<path fill="#3B3BFF" d="M182.613,293.689v-4.863c-0.219,0.068-0.446,0.116-0.681,0.143v7.484
		C181.935,295.463,182.183,294.528,182.613,293.689z"/>
	<path fill="#3B3BFF" d="M195.332,289.011c-0.037,0-0.07-0.01-0.106-0.011v4.691c0.432,0.843,0.681,1.783,0.681,2.779
		c0,0.097-0.011,0.191-0.016,0.287h0.017v-7.805C195.719,288.982,195.53,289.011,195.332,289.011z"/>
	<path fill="#3B3BFF" d="M192.224,287.295c-0.158-0.248-0.278-0.519-0.373-0.802h-6.854c-0.095,0.283-0.215,0.554-0.373,0.802
		H192.224z"/>
	<path fill="#3B3BFF" d="M191.585,301.601c-0.811,0.353-1.712,0.555-2.667,0.555c-1.192,0-2.303-0.312-3.253-0.847
		c-0.054,0.27-0.142,0.524-0.251,0.769c1.031,0.558,2.226,0.882,3.505,0.882c1.046,0,2.034-0.22,2.925-0.602
		C191.733,302.116,191.642,301.865,191.585,301.601z"/>
	<path fill="#3B3BFF" d="M182.656,296.963c-0.016-0.133-0.023-0.269-0.029-0.404h-0.014v-0.26v-2.609
		c-0.43,0.839-0.678,1.773-0.681,2.764c0,0.006-0.001,0.012-0.001,0.018s0.001,0.012,0.001,0.018c0,0.091,0.01,0.18,0.015,0.27
		c0.002,0.052,0.005,0.104,0.008,0.154c0.033-0.001,0.064-0.01,0.097-0.01C182.259,296.902,182.458,296.931,182.656,296.963z"/>
	<path fill="#3B3BFF" d="M195.226,293.691v2.867h-0.015c-0.009,0.2-0.029,0.397-0.06,0.592c0.012,0,0.023-0.004,0.035-0.004
		c0.23,0,0.453,0.027,0.671,0.067c0.019-0.15,0.026-0.303,0.034-0.456c0.004-0.096,0.016-0.19,0.016-0.287
		C195.906,295.475,195.657,294.534,195.226,293.691z"/>
	<path fill="#3B3BFF" d="M182.613,293.689v2.609c0-1.792,0.869-3.394,2.235-4.468c0.153-0.421,0.38-0.801,0.666-1.135v-0.69h0.769
		c0.58-0.381,1.272-0.605,2.019-0.605c0.747,0,1.439,0.225,2.02,0.605h2.004v1.37c1.743,1.042,2.9,2.855,2.9,4.923
		c0,0.088-0.01,0.173-0.014,0.26h0.015v-2.867V289c-1.266-0.036-2.366-0.705-3.002-1.705h-7.601
		c-0.462,0.727-1.171,1.269-2.011,1.531V293.689z"/>
	<path fill="#3B3BFF" d="M182.613,296.559h0.014c-0.004-0.087-0.014-0.172-0.014-0.26V296.559z"/>
	<path fill="#3B3BFF" d="M192.324,291.376v3.633h-0.06c0.035,0.182,0.061,0.366,0.061,0.558c0,1.746-1.525,3.162-3.406,3.162
		s-3.405-1.416-3.405-3.162c0-0.032,0.009-0.062,0.01-0.094c-0.559-0.646-0.909-1.476-0.909-2.395c0-0.44,0.09-0.856,0.232-1.247
		c-1.366,1.074-2.235,2.676-2.235,4.468c0,0.088,0.01,0.173,0.014,0.26c0.006,0.136,0.013,0.271,0.029,0.404
		c1.747,0.289,3.083,1.793,3.083,3.618c0,0.249-0.026,0.492-0.074,0.728c0.951,0.534,2.062,0.847,3.253,0.847
		c0.955,0,1.856-0.202,2.667-0.555c-0.054-0.251-0.086-0.51-0.086-0.776c0-2.02,1.632-3.655,3.651-3.674
		c0.031-0.194,0.051-0.392,0.06-0.592c0.004-0.087,0.014-0.172,0.014-0.26C195.225,294.231,194.068,292.418,192.324,291.376z"/>
	<path fill="#3B3BFF" d="M186.282,290.006h-0.769v0.69C185.74,290.434,185.991,290.196,186.282,290.006z"/>
	<path fill="#3B3BFF" d="M191.988,293.078c0,0.318-0.053,0.622-0.129,0.916c0.193,0.311,0.336,0.649,0.407,1.015h0.06v-3.633v-1.37
		h-2.004C191.323,290.663,191.988,291.792,191.988,293.078z"/>
	<path fill="#3B3BFF" d="M188.301,296.757c-1.114,0-2.101-0.504-2.777-1.284c-0.001,0.031-0.01,0.062-0.01,0.094
		c0,1.746,1.524,3.162,3.405,3.162s3.406-1.416,3.406-3.162c0-0.191-0.025-0.376-0.061-0.558c-0.07-0.365-0.214-0.704-0.407-1.015
		C191.448,295.58,190.018,296.757,188.301,296.757z"/>
	<path fill="#FFFFFF" d="M182.613,288.826c0.839-0.263,1.549-0.805,2.011-1.531c0.158-0.248,0.278-0.519,0.373-0.802
		c0.058-0.172,0.109-0.345,0.141-0.526c0.036-0.207,0.064-0.417,0.064-0.634c0-2.031-1.65-3.679-3.687-3.679
		s-3.687,1.647-3.687,3.679s1.65,3.678,3.687,3.678c0.127,0,0.248-0.024,0.371-0.037c0.016-0.002,0.031-0.003,0.046-0.005
		C182.167,288.942,182.393,288.895,182.613,288.826z"/>
	<path fill="#FFFFFF" d="M191.851,286.493c0.095,0.283,0.215,0.554,0.373,0.802c0.636,1,1.736,1.669,3.002,1.705
		c0.036,0.001,0.07,0.011,0.106,0.011c0.197,0,0.387-0.028,0.575-0.058c0.004-0.001,0.008-0.001,0.012-0.001
		c1.755-0.282,3.1-1.788,3.1-3.619c0-2.031-1.65-3.679-3.687-3.679s-3.687,1.647-3.687,3.679c0,0.217,0.028,0.427,0.064,0.634
		C191.741,286.148,191.793,286.321,191.851,286.493z"/>
	<path fill="#FFFFFF" d="M184.615,293.078c0,0.919,0.35,1.749,0.909,2.395c0.676,0.78,1.663,1.284,2.777,1.284
		c1.717,0,3.147-1.177,3.557-2.763c0.076-0.294,0.129-0.598,0.129-0.916c0-1.286-0.664-2.415-1.667-3.072
		c-0.581-0.381-1.273-0.605-2.02-0.605c-0.746,0-1.438,0.225-2.019,0.605c-0.291,0.19-0.543,0.428-0.769,0.69
		c-0.286,0.334-0.513,0.714-0.666,1.135C184.706,292.222,184.615,292.638,184.615,293.078z"/>
	<path fill="#FFFFFF" d="M185.665,301.309c0.047-0.235,0.074-0.479,0.074-0.728c0-1.825-1.335-3.329-3.083-3.618
		c-0.198-0.032-0.397-0.061-0.604-0.061c-0.033,0-0.064,0.009-0.097,0.01c-1.99,0.053-3.589,1.671-3.589,3.669
		c0,2.031,1.65,3.678,3.687,3.678c1.501,0,2.786-0.897,3.362-2.182C185.523,301.833,185.611,301.578,185.665,301.309z"/>
	<path fill="#FFFFFF" d="M195.186,297.146c-0.012,0-0.023,0.004-0.035,0.004c-2.02,0.019-3.651,1.654-3.651,3.674
		c0,0.267,0.032,0.525,0.086,0.776c0.057,0.265,0.148,0.516,0.259,0.757c0.584,1.263,1.856,2.145,3.342,2.145
		c2.035,0,3.686-1.646,3.686-3.678c0-1.802-1.3-3.294-3.014-3.61C195.639,297.174,195.416,297.146,195.186,297.146z"/>
	<rect x="131.744" y="173.86" fill="#FFFF00" width="2.408" height="3.142"/>
	<path fill="#FFFF00" d="M128.72,195.155c-4.031,0-7.301,3.445-7.298,7.69l14.607,0.083c0-0.034,0-0.062,0-0.096
		C136.027,198.588,132.751,195.148,128.72,195.155z"/>
	<rect x="113.048" y="203.568" fill="#FFFF00" width="31.248" height="2.339"/>
	<polygon fill="#FFFF00" points="115.084,179.941 115.084,176.822 112.677,176.822 112.677,179.963 112.68,179.963 112.68,182.153 
		122.043,182.153 122.043,181.729 124.45,181.729 124.45,182.153 132.84,182.153 132.84,181.665 135.247,181.665 135.247,182.153 
		143.927,182.153 143.927,179.963 143.94,179.963 143.94,176.822 141.531,176.822 141.531,179.941 139.014,179.941 139.014,176.821 
		136.607,176.821 136.607,179.941 134.138,179.941 134.138,177.025 122.141,177.025 122.141,179.941 119.883,179.941 
		119.883,176.885 117.476,176.885 117.476,179.941 	"/>
	<rect x="122.148" y="173.861" fill="#FFFF00" width="2.407" height="3.142"/>
	<polygon fill="#FFFF00" points="132.84,184.807 132.84,182.171 124.45,182.171 124.45,184.871 122.043,184.871 122.043,182.171 
		115.392,182.171 115.392,188.623 112.681,188.623 112.681,190.961 143.928,190.961 143.928,188.623 141.951,188.623 
		141.951,182.171 135.247,182.171 135.247,184.807 	"/>
	<rect x="127.073" y="173.797" fill="#FFFF00" width="2.407" height="3.142"/>
	<path fill="#FFFF00" d="M125.075,203.293l-4.465-0.025c-0.003-4.717,3.63-8.545,8.109-8.545c4.479-0.007,8.118,3.814,8.121,8.532
		c0,0.014,0,0.026,0,0.039h5.111v-11.691h-26.56v11.691H125.075z"/>
	<path fill="#FFFF00" d="M125.075,203.293l11.765,0.067c0-0.023,0-0.045,0-0.067H125.075z"/>
	<polygon fill="#FF0000" points="124.45,184.871 124.45,182.171 124.45,182.153 124.45,181.729 122.043,181.729 122.043,182.153 
		122.043,182.171 122.043,184.871 	"/>
	<polygon fill="#FF0000" points="132.84,181.665 132.84,182.153 132.84,182.171 132.84,184.807 135.247,184.807 135.247,182.171 
		135.247,182.153 135.247,181.665 	"/>
	<rect x="232.989" y="203.942" fill="#FFFF00" width="31.247" height="2.339"/>
	<path fill="#FFFF00" d="M248.66,195.529c-4.032,0-7.301,3.445-7.298,7.69l14.606,0.083c0.001-0.034,0.001-0.062,0.001-0.096
		C255.967,198.962,252.692,195.522,248.66,195.529z"/>
	<path fill="#FFFF00" d="M245.015,203.667l11.765,0.067c0-0.023,0-0.045,0-0.067H245.015z"/>
	<path fill="#FFFF00" d="M235.332,191.977v11.691h9.683l-4.465-0.025c-0.003-4.717,3.63-8.545,8.109-8.545
		c4.479-0.008,8.118,3.814,8.121,8.531c0,0.014,0,0.026,0,0.039h5.111v-11.691H235.332z"/>
	<polygon fill="#FFFF00" points="255.177,185.181 252.77,185.181 252.77,182.545 244.38,182.545 244.38,185.245 241.973,185.245 
		241.973,182.545 235.332,182.545 235.332,188.997 232.621,188.997 232.621,191.335 263.868,191.335 263.868,188.997 
		261.892,188.997 261.892,182.545 255.177,182.545 	"/>
	<rect x="251.685" y="174.234" fill="#FFFF00" width="2.408" height="3.142"/>
	<rect x="242.088" y="174.235" fill="#FFFF00" width="2.407" height="3.142"/>
	<polygon fill="#FFFF00" points="261.472,177.196 261.472,180.315 258.954,180.315 258.954,177.195 256.547,177.195 
		256.547,180.315 254.078,180.315 254.078,177.399 242.081,177.399 242.081,180.315 239.823,180.315 239.823,177.259 
		237.416,177.259 237.416,180.315 235.025,180.315 235.025,177.196 232.617,177.196 232.617,180.337 232.619,180.337 
		232.619,182.527 241.973,182.527 241.973,182.103 244.38,182.103 244.38,182.527 252.77,182.527 252.77,182.039 255.177,182.039 
		255.177,182.527 263.867,182.527 263.867,180.337 263.879,180.337 263.879,177.196 	"/>
	<rect x="247.013" y="174.171" fill="#FFFF00" width="2.407" height="3.142"/>
	<polygon fill="#FF0000" points="241.973,185.245 244.38,185.245 244.38,182.545 244.38,182.527 244.38,182.103 241.973,182.103 
		241.973,182.527 241.973,182.545 	"/>
	<polygon fill="#FF0000" points="252.77,182.039 252.77,182.527 252.77,182.545 252.77,185.181 255.177,185.181 255.177,182.545 
		255.177,182.527 255.177,182.039 	"/>
	<polygon fill="#FFFF00" points="173.776,182.527 183.128,182.527 183.128,182.103 185.536,182.103 185.536,182.527 
		193.925,182.527 193.925,182.039 196.333,182.039 196.333,182.527 205.023,182.527 205.023,180.337 205.035,180.337 
		205.035,177.196 202.628,177.196 202.628,180.315 200.111,180.315 200.111,177.195 197.703,177.195 197.703,180.315 
		195.234,180.315 195.234,177.399 183.237,177.399 183.237,180.315 180.979,180.315 180.979,177.259 178.572,177.259 
		178.572,180.315 176.18,180.315 176.18,177.196 173.773,177.196 173.773,180.337 173.776,180.337 	"/>
	<rect x="183.243" y="174.235" fill="#FFFF00" width="2.407" height="3.142"/>
	<rect x="188.168" y="174.171" fill="#FFFF00" width="2.407" height="3.142"/>
	<polygon fill="#FFFF00" points="193.925,185.181 193.925,182.545 185.536,182.545 185.536,185.245 183.128,185.245 
		183.128,182.545 176.488,182.545 176.488,188.997 173.777,188.997 173.777,191.335 205.024,191.335 205.024,188.997 
		203.048,188.997 203.048,182.545 196.333,182.545 196.333,185.181 	"/>
	<rect x="192.841" y="174.234" fill="#FFFF00" width="2.407" height="3.142"/>
	<path fill="#FFFF00" d="M203.048,191.977h-26.561v11.691h9.684l-4.465-0.025c-0.004-4.717,3.629-8.545,8.108-8.545
		c4.479-0.008,8.118,3.814,8.122,8.531c0,0.014,0,0.026,0,0.039h5.112V191.977z"/>
	<path fill="#FFFF00" d="M189.816,195.529c-4.031,0-7.301,3.445-7.298,7.69l14.607,0.083c0-0.034,0-0.062,0-0.096
		C197.122,198.962,193.848,195.522,189.816,195.529z"/>
	<path fill="#FFFF00" d="M186.172,203.667l11.764,0.067c0-0.023,0-0.045,0-0.067H186.172z"/>
	<polygon fill="#FFFF00" points="205.392,206.281 205.392,205.328 205.392,203.942 174.145,203.942 174.145,205.328 
		174.145,206.281 	"/>
	<polygon fill="#FF0000" points="185.536,185.245 185.536,182.545 185.536,182.527 185.536,182.103 183.128,182.103 
		183.128,182.527 183.128,182.545 183.128,185.245 	"/>
	<polygon fill="#FF0000" points="193.925,182.039 193.925,182.527 193.925,182.545 193.925,185.181 196.333,185.181 
		196.333,182.545 196.333,182.527 196.333,182.039 	"/>
	<polygon fill="#FFFF00" points="116.158,255.448 119.419,255.448 119.419,255.029 121.826,255.029 121.826,255.448 
		130.216,255.448 130.216,254.965 132.623,254.965 132.623,255.448 141.303,255.448 141.303,253.259 141.316,253.259 
		141.316,250.117 138.908,250.117 138.908,253.236 136.391,253.236 136.391,250.116 133.984,250.116 133.984,253.236 
		131.514,253.236 131.514,250.32 119.517,250.32 119.517,253.236 117.259,253.236 117.259,253.131 117.259,250.18 114.852,250.18 
		114.852,253.236 112.46,253.236 112.46,250.117 110.218,250.117 110.053,250.117 110.053,253.259 110.056,253.259 110.056,255.448 
		110.218,255.448 	"/>
	<polygon fill="#FFFF00" points="110.425,278.107 110.425,279.202 141.672,279.202 141.672,276.863 110.527,276.863 
		110.425,276.863 	"/>
	<polygon fill="#FFFF00" points="141.304,264.256 141.304,261.918 139.328,261.918 139.328,255.466 132.623,255.466 
		132.623,258.107 130.216,258.107 130.216,255.466 121.826,255.466 121.826,258.171 119.419,258.171 119.419,255.466 
		116.151,255.466 112.768,255.466 112.768,261.918 110.218,261.918 110.057,261.918 110.057,264.256 110.218,264.256 
		112.928,264.256 	"/>
	<path fill="#FFFF00" d="M122.551,276.589l11.665,0.067c0-0.023,0-0.046,0-0.067H122.551z"/>
	<path fill="#FFFF00" d="M133.406,276.224c0-0.033,0-0.062,0-0.095c-0.003-4.246-3.277-7.686-7.31-7.679
		c-4.031,0-7.301,3.445-7.298,7.69L133.406,276.224z"/>
	<path fill="#FFFF00" d="M139.328,264.897h-26.561v11.691h9.783l-4.564-0.026c-0.004-4.717,3.629-8.545,8.108-8.545
		c4.479-0.007,8.118,3.814,8.122,8.531c0,0.015,0,0.027,0,0.04h5.112V264.897z"/>
	<rect x="129.121" y="247.155" fill="#FFFF00" width="2.407" height="3.142"/>
	<polygon fill="#FFFF00" points="121.931,250.297 121.931,247.156 120.572,247.156 119.524,247.156 119.524,248.87 119.524,250.297 
			"/>
	<rect x="124.448" y="247.092" fill="#FFFF00" width="2.408" height="3.142"/>
	<polygon fill="#FF0000" points="119.419,258.171 121.826,258.171 121.826,255.466 121.826,255.448 121.826,255.029 
		119.419,255.029 119.419,255.448 119.419,255.466 	"/>
	<polygon fill="#FF0000" points="130.216,258.107 132.623,258.107 132.623,255.466 132.623,255.448 132.623,254.965 
		130.216,254.965 130.216,255.448 130.216,255.466 	"/>
	<polygon fill="#FFFF00" points="235.24,276.121 235.24,278.461 266.128,278.461 266.325,278.461 266.488,278.461 266.488,276.121 
		266.325,276.121 265.936,276.121 	"/>
	<path fill="#FFFF00" d="M259.032,275.914c0-0.023,0-0.045,0-0.067h-11.789L259.032,275.914z"/>
	<path fill="#FFFF00" d="M250.912,267.708c-4.032,0-7.302,3.445-7.298,7.69l14.606,0.084c0.001-0.034,0.001-0.062,0.001-0.096
		C258.218,271.141,254.944,267.701,250.912,267.708z"/>
	<path fill="#FFFF00" d="M237.584,275.847h9.66l-4.442-0.025c-0.004-4.718,3.629-8.546,8.108-8.546
		c4.48-0.007,8.118,3.814,8.122,8.532c0,0.014,0,0.026,0,0.039h5.111v-9.582v-2.109h-0.579h-25.98V275.847z"/>
	<polygon fill="#FFFF00" points="258.799,252.494 256.33,252.494 256.33,249.578 244.333,249.578 244.333,252.494 242.075,252.494 
		242.075,249.438 239.667,249.438 239.667,252.494 237.277,252.494 237.277,249.375 234.868,249.375 234.868,252.517 
		234.871,252.517 234.871,254.706 244.225,254.706 244.225,254.277 246.632,254.277 246.632,254.706 255.022,254.706 
		255.022,254.213 257.429,254.213 257.429,254.706 260.031,254.706 266.118,254.706 266.118,252.517 266.131,252.517 
		266.131,249.375 263.724,249.375 263.724,252.494 261.206,252.494 261.206,249.374 258.799,249.374 258.799,252.175 	"/>
	<polygon fill="#FFFF00" points="257.429,257.355 255.022,257.355 255.022,254.724 246.632,254.724 246.632,257.419 
		244.225,257.419 244.225,254.724 237.584,254.724 237.584,261.176 234.872,261.176 234.872,263.514 263.368,263.514 
		266.12,263.514 266.12,261.176 264.144,261.176 264.144,254.724 260.04,254.724 257.429,254.724 	"/>
	<polygon fill="#FFFF00" points="253.937,249.555 256.344,249.555 256.344,247.789 256.344,246.413 255.492,246.413 
		253.937,246.413 	"/>
	<rect x="249.264" y="246.35" fill="#FFFF00" width="2.408" height="3.142"/>
	<rect x="244.339" y="246.414" fill="#FFFF00" width="2.408" height="3.142"/>
	<polygon fill="#FF0000" points="246.632,257.419 246.632,254.724 246.632,254.706 246.632,254.277 244.225,254.277 
		244.225,254.706 244.225,254.724 244.225,257.419 	"/>
	<polygon fill="#FF0000" points="255.022,257.355 257.429,257.355 257.429,254.724 257.429,254.706 257.429,254.213 
		255.022,254.213 255.022,254.706 255.022,254.724 	"/>
	<path fill="#FFFF00" d="M156.357,332.812l-2.958,3.387c-3.584-3.077-4.119-8.322-1.195-11.707c2.919-3.392,8.195-3.646,11.779-0.57
		c0.011,0.009,0.02,0.018,0.03,0.025l3.336-3.863l-8.877-7.633l-17.337,20.077l8.877,7.632L156.357,332.812z"/>
	<path fill="#FFFF00" d="M152.532,324.772c-2.632,3.048-2.15,7.769,1.075,10.536l9.598-10.986c-0.025-0.022-0.047-0.041-0.072-0.062
		C159.908,321.49,155.158,321.721,152.532,324.772z"/>
	<polygon fill="#FFFF00" points="139.546,319.242 139.868,319.519 145.344,313.177 144.975,312.859 146.546,311.039 
		146.916,311.357 152.586,304.791 150.924,303.362 150.933,303.352 148.547,301.301 146.976,303.121 149.344,305.158 
		147.701,307.061 145.332,305.023 143.76,306.844 146.129,308.881 144.518,310.746 142.303,308.843 134.472,317.911 
		136.687,319.814 135.213,321.521 132.892,319.526 131.321,321.346 133.641,323.341 132.08,325.148 129.712,323.112 128.14,324.932 
		130.526,326.982 130.527,326.981 132.19,328.41 138.296,321.339 137.975,321.062 	"/>
	<polygon fill="#FFFF00" points="170.864,320.018 169.087,318.491 148.691,342.11 150.466,343.637 	"/>
	<polygon fill="#FFFF00" points="159.276,310.539 157.5,309.014 156.21,310.507 151.312,306.295 146.93,311.369 148.931,313.09 
		147.36,314.91 145.358,313.188 139.882,319.53 141.932,321.293 140.361,323.113 138.31,321.351 133.974,326.371 138.873,330.583 
		137.103,332.633 138.878,334.159 	"/>
	<path fill="#FFFF00" d="M156.357,332.812l7.706-8.821c-0.018-0.016-0.034-0.029-0.05-0.044L156.357,332.812z"/>
	<polygon fill="#FFFF00" points="140.724,310.637 142.295,308.816 139.909,306.766 138.338,308.586 	"/>
	<polygon fill="#FFFF00" points="137.626,314.127 139.198,312.308 136.812,310.257 135.24,312.076 	"/>
	<polygon fill="#FFFF00" points="136.031,316.072 133.646,314.021 132.074,315.841 134.459,317.892 	"/>
	<polygon fill="#FF0000" points="141.932,321.293 139.882,319.53 139.868,319.519 139.546,319.242 137.975,321.062 138.296,321.339 
		138.31,321.351 140.361,323.113 	"/>
	<polygon fill="#FF0000" points="146.546,311.039 144.975,312.859 145.344,313.177 145.358,313.188 147.36,314.91 148.931,313.09 
		146.93,311.369 146.916,311.357 	"/>
	<polygon fill="#FFFF00" points="241.68,315.701 243.251,317.521 245.637,315.47 244.066,313.65 	"/>
	<polygon fill="#FFFF00" points="235.415,308.445 236.988,310.266 239.372,308.215 237.801,306.395 	"/>
	<polygon fill="#FFFF00" points="242.47,311.705 240.899,309.886 238.514,311.937 240.085,313.756 	"/>
	<path fill="#FFFF00" d="M225.179,324.401c-2.627-3.052-7.376-3.282-10.602-0.513c-0.025,0.021-0.047,0.041-0.072,0.062
		l9.599,10.986C227.328,332.17,227.811,327.449,225.179,324.401z"/>
	<path fill="#FFFF00" d="M219.239,312.081l-8.877,7.632l3.337,3.864c0.01-0.009,0.02-0.018,0.03-0.026
		c3.583-3.076,8.86-2.821,11.778,0.57c2.925,3.385,2.39,8.631-1.194,11.707l-2.966-3.396l6.353,7.356l8.877-7.632L219.239,312.081z"
		/>
	<path fill="#FFFF00" d="M213.648,323.62l7.699,8.812l-7.648-8.855C213.682,323.591,213.665,323.604,213.648,323.62z"/>
	<polygon fill="#FFFF00" points="235.778,320.922 237.828,319.159 232.353,312.817 230.35,314.539 228.779,312.719 230.781,310.998 
		226.4,305.924 221.501,310.136 220.211,308.643 218.436,310.168 238.832,333.788 240.608,332.262 238.838,330.212 243.737,326.001 
		239.4,320.979 237.349,322.742 	"/>
	<polygon fill="#FFFF00" points="235.407,308.472 233.193,310.375 231.581,308.51 233.95,306.473 232.379,304.652 230.01,306.689 
		228.366,304.787 230.736,302.75 229.163,300.931 226.779,302.98 226.787,302.99 225.124,304.42 230.794,310.986 231.164,310.668 
		232.736,312.488 232.366,312.806 237.842,319.147 238.163,318.871 239.735,320.691 239.414,320.967 245.521,328.039 
		247.184,326.609 247.186,326.611 249.571,324.561 247.999,322.742 245.631,324.778 244.07,322.97 246.39,320.975 244.819,319.155 
		242.498,321.15 241.024,319.444 243.239,317.54 	"/>
	<polygon fill="#FFFF00" points="208.623,318.12 206.848,319.646 227.244,343.266 229.021,341.739 	"/>
	<polygon fill="#FF0000" points="238.163,318.871 237.842,319.147 237.828,319.159 235.778,320.922 237.349,322.742 239.4,320.979 
		239.414,320.967 239.735,320.691 	"/>
	<polygon fill="#FF0000" points="230.35,314.539 232.353,312.817 232.366,312.806 232.736,312.488 231.164,310.668 230.794,310.986 
		230.781,310.998 228.779,312.719 	"/>
	<path fill="#3B3BFF" d="M176.202,233.481c0.002-1.237,0.221-2.425,0.614-3.54v-13.312h23.417v13.31
		c0.396,1.122,0.616,2.316,0.616,3.561c0,0.171-0.02,0.338-0.027,0.508h0.029v-1.75v-16.354h-24.649v16.354V233.481z"/>
	<path fill="#3B3BFF" d="M176.202,233.518v0.49h0.026C176.221,233.844,176.203,233.683,176.202,233.518z"/>
	<path fill="#3B3BFF" d="M200.85,233.5c0-1.244-0.221-2.439-0.616-3.561v3.889h-0.028c-0.273,5.779-5.391,10.389-11.682,10.389
		s-11.408-4.61-11.682-10.389h-0.025v-0.464c0-0.006-0.001-0.012-0.001-0.018s0.001-0.012,0.001-0.018v-3.386
		c-0.393,1.115-0.612,2.303-0.614,3.54c0,0.006-0.001,0.012-0.001,0.018s0.001,0.012,0.001,0.018c0,0.165,0.019,0.326,0.026,0.49
		c0.289,6.083,5.675,10.936,12.297,10.936s12.008-4.853,12.297-10.936C200.83,233.838,200.85,233.671,200.85,233.5z"/>
	<path fill="#3B3BFF" d="M176.817,233.328c0.006-3.542,1.845-6.678,4.675-8.659c-0.124,0.012-0.244,0.037-0.371,0.037
		c-2.036,0-3.687-1.647-3.687-3.678s1.65-3.678,3.687-3.678s3.687,1.646,3.687,3.678c0,0.217-0.028,0.427-0.064,0.634h6.572
		c-0.036-0.207-0.064-0.417-0.064-0.634c0-2.031,1.65-3.678,3.687-3.678s3.687,1.646,3.687,3.678c0,1.831-1.344,3.337-3.1,3.619
		c2.853,1.983,4.707,5.136,4.707,8.699c0,0.163-0.019,0.321-0.026,0.482h0.028v-3.889v-13.31h-23.417v13.312V233.328z"/>
	<path fill="#3B3BFF" d="M176.817,233.364v0.464h0.025C176.835,233.673,176.817,233.521,176.817,233.364z"/>
	<path fill="#3B3BFF" d="M200.232,233.346c0-3.563-1.854-6.716-4.707-8.699c-0.004,0-0.007,0-0.011,0.001v7.805h-0.018
		c-0.007,0.153-0.015,0.306-0.034,0.456c1.714,0.316,3.015,1.809,3.015,3.61c0,2.032-1.65,3.678-3.687,3.678
		c-1.486,0-2.758-0.882-3.342-2.146c-0.891,0.382-1.879,0.602-2.925,0.602c-1.279,0-2.474-0.324-3.505-0.881
		c-0.575,1.284-1.861,2.182-3.362,2.182c-2.036,0-3.687-1.647-3.687-3.678c0-1.999,1.6-3.616,3.59-3.668
		c-0.003-0.051-0.006-0.103-0.008-0.155h-0.016v-0.288v-7.501c-0.015,0.002-0.03,0.003-0.046,0.005
		c-2.83,1.98-4.668,5.116-4.675,8.659c0,0.006-0.001,0.012-0.001,0.018s0.001,0.012,0.001,0.018c0,0.157,0.018,0.309,0.025,0.464
		c0.273,5.779,5.391,10.389,11.682,10.389s11.408-4.61,11.682-10.389C200.213,233.667,200.232,233.508,200.232,233.346z"/>
	<path fill="#3B3BFF" d="M191.456,222.188c-0.058-0.171-0.109-0.345-0.141-0.526h-6.572c-0.032,0.182-0.083,0.355-0.141,0.526
		H191.456z"/>
	<path fill="#3B3BFF" d="M181.537,232.165v0.288h0.016C181.549,232.357,181.537,232.262,181.537,232.165z"/>
	<path fill="#3B3BFF" d="M194.938,224.706c-0.037,0-0.07-0.01-0.106-0.011v4.69c0.432,0.844,0.681,1.783,0.681,2.779
		c0,0.097-0.011,0.192-0.016,0.288h0.018v-7.805C195.325,224.678,195.135,224.706,194.938,224.706z"/>
	<path fill="#3B3BFF" d="M182.218,229.386v-4.865c-0.219,0.069-0.446,0.116-0.681,0.143v7.501
		C181.537,231.169,181.786,230.229,182.218,229.386z"/>
	<path fill="#3B3BFF" d="M191.83,222.99c-0.158-0.248-0.278-0.519-0.374-0.802h-6.854c-0.095,0.284-0.216,0.554-0.374,0.802H191.83z
		"/>
	<path fill="#3B3BFF" d="M191.191,237.295c-0.811,0.352-1.712,0.555-2.666,0.555c-1.192,0-2.303-0.313-3.254-0.847
		c-0.054,0.269-0.142,0.524-0.251,0.769c1.031,0.557,2.226,0.881,3.505,0.881c1.046,0,2.034-0.219,2.925-0.602
		C191.338,237.812,191.248,237.561,191.191,237.295z"/>
	<path fill="#3B3BFF" d="M182.261,232.659c-0.016-0.133-0.023-0.269-0.029-0.404h-0.014v-0.26v-2.608
		c-0.432,0.843-0.681,1.783-0.681,2.779c0,0.097,0.011,0.192,0.016,0.288c0.002,0.052,0.005,0.104,0.008,0.155
		c0.033-0.001,0.063-0.01,0.096-0.01C181.865,232.598,182.064,232.626,182.261,232.659z"/>
	<path fill="#3B3BFF" d="M195.512,232.165c0-0.996-0.249-1.936-0.681-2.779v2.869h-0.015c-0.009,0.2-0.029,0.396-0.06,0.59
		c0.012,0,0.023-0.003,0.035-0.003c0.23,0,0.453,0.027,0.671,0.067c0.019-0.15,0.026-0.303,0.034-0.456
		C195.501,232.357,195.512,232.262,195.512,232.165z"/>
	<path fill="#3B3BFF" d="M182.218,229.386v2.608c0-1.792,0.869-3.394,2.235-4.468c0.153-0.42,0.38-0.801,0.666-1.134v-0.691h0.769
		c0.581-0.38,1.272-0.605,2.019-0.605c0.746,0,1.438,0.225,2.019,0.605h2.005v1.371c1.743,1.042,2.899,2.855,2.899,4.923
		c0,0.088-0.01,0.173-0.014,0.26h0.015v-2.869v-4.69c-1.266-0.037-2.366-0.705-3.001-1.705h-7.602
		c-0.461,0.727-1.171,1.269-2.01,1.531V229.386z"/>
	<path fill="#3B3BFF" d="M182.218,232.254h0.014c-0.004-0.087-0.014-0.172-0.014-0.26V232.254z"/>
	<path fill="#3B3BFF" d="M191.931,227.072v3.632h-0.061c0.035,0.182,0.061,0.367,0.061,0.558c0,1.747-1.525,3.162-3.406,3.162
		s-3.405-1.416-3.405-3.162c0-0.032,0.009-0.062,0.01-0.094c-0.559-0.645-0.909-1.475-0.909-2.394c0-0.44,0.09-0.856,0.232-1.248
		c-1.366,1.074-2.235,2.676-2.235,4.468c0,0.088,0.01,0.173,0.014,0.26c0.006,0.136,0.013,0.271,0.029,0.404
		c1.747,0.289,3.083,1.792,3.083,3.617c0,0.25-0.026,0.492-0.074,0.728c0.951,0.534,2.062,0.847,3.254,0.847
		c0.954,0,1.855-0.203,2.666-0.555c-0.054-0.25-0.086-0.509-0.086-0.776c0-2.02,1.632-3.655,3.652-3.674
		c0.03-0.194,0.05-0.391,0.06-0.59c0.004-0.087,0.014-0.172,0.014-0.26C194.83,229.927,193.674,228.114,191.931,227.072z"/>
	<path fill="#3B3BFF" d="M185.888,225.701h-0.769v0.691C185.345,226.129,185.597,225.892,185.888,225.701z"/>
	<path fill="#3B3BFF" d="M191.593,228.774c0,0.318-0.053,0.622-0.129,0.916c0.193,0.311,0.336,0.649,0.407,1.014h0.061v-3.632
		v-1.371h-2.005C190.928,226.358,191.593,227.487,191.593,228.774z"/>
	<path fill="#3B3BFF" d="M191.464,229.689c-0.41,1.585-1.84,2.762-3.556,2.762c-1.115,0-2.102-0.504-2.778-1.284
		c-0.001,0.032-0.01,0.062-0.01,0.094c0,1.747,1.524,3.162,3.405,3.162s3.406-1.416,3.406-3.162c0-0.191-0.025-0.376-0.061-0.558
		C191.8,230.338,191.657,230,191.464,229.689z"/>
	<path fill="#FFFFFF" d="M182.218,224.521c0.839-0.263,1.549-0.805,2.01-1.531c0.158-0.248,0.278-0.519,0.374-0.802
		c0.058-0.171,0.109-0.345,0.141-0.526c0.036-0.207,0.064-0.417,0.064-0.634c0-2.031-1.65-3.678-3.687-3.678
		s-3.687,1.646-3.687,3.678s1.65,3.678,3.687,3.678c0.127,0,0.248-0.025,0.371-0.037c0.016-0.002,0.031-0.003,0.046-0.005
		C181.772,224.637,181.999,224.59,182.218,224.521z"/>
	<path fill="#FFFFFF" d="M191.83,222.99c0.635,1,1.736,1.668,3.001,1.705c0.036,0.001,0.07,0.011,0.106,0.011
		c0.197,0,0.387-0.028,0.576-0.058c0.003,0,0.007,0,0.011-0.001c1.755-0.282,3.1-1.789,3.1-3.619c0-2.031-1.65-3.678-3.687-3.678
		s-3.687,1.646-3.687,3.678c0,0.217,0.028,0.427,0.064,0.634c0.032,0.182,0.083,0.355,0.141,0.526
		C191.552,222.472,191.672,222.742,191.83,222.99z"/>
	<path fill="#FFFFFF" d="M185.13,231.167c0.676,0.78,1.663,1.284,2.778,1.284c1.716,0,3.146-1.177,3.556-2.762
		c0.076-0.294,0.129-0.598,0.129-0.916c0-1.287-0.665-2.416-1.667-3.073c-0.581-0.38-1.272-0.605-2.019-0.605
		c-0.747,0-1.438,0.225-2.019,0.605c-0.291,0.191-0.543,0.428-0.769,0.691c-0.286,0.333-0.513,0.713-0.666,1.134
		c-0.142,0.392-0.232,0.808-0.232,1.248C184.221,229.693,184.571,230.523,185.13,231.167z"/>
	<path fill="#FFFFFF" d="M185.27,237.003c0.047-0.235,0.074-0.478,0.074-0.728c0-1.825-1.335-3.328-3.083-3.617
		c-0.198-0.033-0.397-0.061-0.604-0.061c-0.033,0-0.063,0.009-0.096,0.01c-1.991,0.052-3.59,1.669-3.59,3.668
		c0,2.031,1.65,3.678,3.687,3.678c1.501,0,2.787-0.898,3.362-2.182C185.129,237.528,185.217,237.272,185.27,237.003z"/>
	<path fill="#FFFFFF" d="M194.791,232.841c-0.012,0-0.023,0.003-0.035,0.003c-2.02,0.019-3.652,1.655-3.652,3.674
		c0,0.267,0.032,0.526,0.086,0.776c0.057,0.265,0.147,0.516,0.259,0.756c0.583,1.264,1.856,2.146,3.342,2.146
		c2.036,0,3.687-1.646,3.687-3.678c0-1.802-1.301-3.294-3.015-3.61C195.244,232.869,195.021,232.841,194.791,232.841z"/>
	<path fill="#3B3BFF" d="M176.202,265.475v0.49h0.026C176.221,265.801,176.203,265.641,176.202,265.475z"/>
	<path fill="#3B3BFF" d="M176.202,265.439c0.002-1.237,0.221-2.425,0.614-3.541v-13.312h23.417v13.31
		c0.396,1.121,0.616,2.316,0.616,3.561c0,0.172-0.02,0.338-0.027,0.508h0.029v-14.188v-3.916h-24.649v3.611V265.439z"/>
	<path fill="#3B3BFF" d="M200.85,265.457c0-1.244-0.221-2.439-0.616-3.561v3.889h-0.028c-0.274,5.778-5.391,10.389-11.682,10.389
		s-11.408-4.61-11.682-10.389h-0.025v-0.465c0-0.006-0.001-0.012-0.001-0.018s0.001-0.012,0.001-0.018v-3.387
		c-0.393,1.116-0.612,2.304-0.614,3.541c0,0.006-0.001,0.012-0.001,0.018s0.001,0.012,0.001,0.018c0,0.166,0.019,0.326,0.026,0.49
		c0.289,6.083,5.675,10.936,12.297,10.936s12.008-4.853,12.297-10.936C200.83,265.795,200.85,265.629,200.85,265.457z"/>
	<path fill="#3B3BFF" d="M176.817,265.285c0.006-3.543,1.845-6.678,4.674-8.658c-0.124,0.013-0.243,0.037-0.37,0.037
		c-2.035,0-3.686-1.647-3.686-3.679s1.65-3.678,3.686-3.678c2.036,0,3.687,1.646,3.687,3.678c0,0.217-0.028,0.427-0.064,0.634h6.572
		c-0.036-0.207-0.064-0.417-0.064-0.634c0-2.031,1.65-3.678,3.687-3.678s3.687,1.646,3.687,3.678c0,1.831-1.344,3.337-3.099,3.619
		c2.852,1.983,4.707,5.136,4.707,8.698c0,0.163-0.019,0.321-0.026,0.482h0.028v-3.889v-13.31h-23.417v13.312V265.285z"/>
	<path fill="#3B3BFF" d="M176.817,265.32v0.465h0.025C176.835,265.63,176.817,265.478,176.817,265.32z"/>
	<path fill="#3B3BFF" d="M200.232,265.303c0-3.562-1.854-6.715-4.707-8.698c-0.003,0.001-0.007,0.001-0.011,0.002v7.804h-0.018
		c-0.007,0.153-0.015,0.306-0.034,0.456c1.714,0.315,3.015,1.809,3.015,3.61c0,2.031-1.65,3.678-3.687,3.678
		c-1.486,0-2.758-0.882-3.342-2.145c-0.891,0.382-1.879,0.602-2.925,0.602c-1.279,0-2.474-0.324-3.505-0.882
		c-0.575,1.284-1.861,2.183-3.362,2.183c-2.036,0-3.687-1.647-3.687-3.679c0-1.998,1.6-3.616,3.59-3.668
		c-0.003-0.052-0.006-0.104-0.008-0.155h-0.016v-0.287v-7.501c-0.016,0.002-0.031,0.003-0.047,0.005
		c-2.829,1.98-4.667,5.115-4.674,8.658c0,0.006-0.001,0.012-0.001,0.018s0.001,0.012,0.001,0.018c0,0.157,0.018,0.31,0.025,0.465
		c0.274,5.778,5.391,10.389,11.682,10.389s11.408-4.61,11.682-10.389C200.213,265.624,200.232,265.466,200.232,265.303z"/>
	<path fill="#3B3BFF" d="M191.456,254.146c-0.058-0.171-0.109-0.345-0.141-0.526h-6.572c-0.032,0.182-0.083,0.355-0.141,0.526
		H191.456z"/>
	<path fill="#3B3BFF" d="M181.537,264.123v0.287h0.016C181.549,264.314,181.537,264.22,181.537,264.123z"/>
	<path fill="#3B3BFF" d="M182.218,261.344v-4.864c-0.219,0.068-0.446,0.116-0.681,0.143v7.501
		C181.537,263.127,181.786,262.187,182.218,261.344z"/>
	<path fill="#3B3BFF" d="M194.938,256.664c-0.037,0-0.07-0.01-0.106-0.011v4.69c0.432,0.843,0.681,1.783,0.681,2.779
		c0,0.097-0.011,0.191-0.016,0.287h0.018v-7.804C195.325,256.636,195.135,256.664,194.938,256.664z"/>
	<path fill="#3B3BFF" d="M191.829,254.948c-0.157-0.248-0.278-0.519-0.373-0.802h-6.854c-0.095,0.284-0.216,0.554-0.373,0.802
		H191.829z"/>
	<path fill="#3B3BFF" d="M191.191,269.253c-0.811,0.353-1.712,0.555-2.666,0.555c-1.192,0-2.303-0.312-3.254-0.847
		c-0.054,0.269-0.142,0.524-0.251,0.769c1.031,0.558,2.226,0.882,3.505,0.882c1.046,0,2.034-0.22,2.925-0.602
		C191.339,269.77,191.248,269.518,191.191,269.253z"/>
	<path fill="#3B3BFF" d="M182.261,264.616c-0.016-0.133-0.023-0.269-0.029-0.404h-0.014v-0.26v-2.608
		c-0.432,0.843-0.681,1.783-0.681,2.779c0,0.097,0.011,0.191,0.016,0.287c0.002,0.052,0.005,0.104,0.008,0.155
		c0.033-0.001,0.063-0.01,0.096-0.01C181.865,264.556,182.064,264.584,182.261,264.616z"/>
	<path fill="#3B3BFF" d="M194.831,261.344v2.868h-0.015c-0.009,0.2-0.029,0.396-0.06,0.591c0.012-0.001,0.023-0.004,0.035-0.004
		c0.23,0,0.453,0.027,0.671,0.067c0.019-0.15,0.026-0.303,0.034-0.456c0.004-0.096,0.016-0.19,0.016-0.287
		C195.512,263.127,195.263,262.187,194.831,261.344z"/>
	<path fill="#3B3BFF" d="M182.218,261.344v2.608c0-1.792,0.869-3.394,2.235-4.468c0.153-0.421,0.38-0.802,0.667-1.135v-0.691h0.769
		c0.581-0.381,1.273-0.605,2.02-0.605c0.746,0,1.438,0.225,2.019,0.605h2.005v1.371c1.743,1.042,2.899,2.855,2.899,4.923
		c0,0.088-0.01,0.173-0.014,0.26h0.015v-2.868v-4.69c-1.266-0.036-2.366-0.706-3.002-1.706h-7.601
		c-0.462,0.727-1.172,1.269-2.011,1.532V261.344z"/>
	<path fill="#3B3BFF" d="M182.218,264.212h0.014c-0.004-0.087-0.014-0.172-0.014-0.26V264.212z"/>
	<path fill="#3B3BFF" d="M191.931,259.029v3.632h-0.061c0.035,0.182,0.061,0.366,0.061,0.558c0,1.746-1.525,3.162-3.405,3.162
		c-1.881,0-3.406-1.416-3.406-3.162c0-0.032,0.009-0.062,0.01-0.094c-0.559-0.645-0.909-1.475-0.909-2.394
		c0-0.44,0.09-0.856,0.232-1.247c-1.366,1.074-2.235,2.676-2.235,4.468c0,0.088,0.01,0.173,0.014,0.26
		c0.006,0.136,0.013,0.271,0.029,0.404c1.747,0.289,3.083,1.792,3.083,3.617c0,0.249-0.026,0.492-0.073,0.728
		c0.951,0.534,2.062,0.847,3.254,0.847c0.954,0,1.855-0.202,2.666-0.555c-0.054-0.251-0.086-0.51-0.086-0.776
		c0-2.02,1.632-3.655,3.652-3.674c0.03-0.194,0.05-0.391,0.06-0.591c0.004-0.087,0.014-0.172,0.014-0.26
		C194.83,261.885,193.674,260.071,191.931,259.029z"/>
	<path fill="#3B3BFF" d="M185.888,257.658h-0.769v0.691C185.345,258.087,185.597,257.849,185.888,257.658z"/>
	<path fill="#3B3BFF" d="M191.593,260.731c0,0.318-0.053,0.621-0.129,0.916c0.193,0.31,0.336,0.648,0.406,1.014h0.061v-3.632v-1.371
		h-2.005C190.928,258.315,191.593,259.444,191.593,260.731z"/>
	<path fill="#3B3BFF" d="M191.464,261.647c-0.41,1.585-1.84,2.762-3.557,2.762c-1.115,0-2.102-0.504-2.778-1.284
		c-0.001,0.032-0.01,0.062-0.01,0.094c0,1.746,1.525,3.162,3.406,3.162c1.88,0,3.405-1.416,3.405-3.162
		c0-0.191-0.025-0.376-0.061-0.558C191.8,262.296,191.657,261.957,191.464,261.647z"/>
	<path fill="#FFFFFF" d="M182.218,256.479c0.839-0.263,1.549-0.805,2.011-1.532c0.157-0.248,0.278-0.519,0.373-0.802
		c0.058-0.171,0.109-0.345,0.141-0.526c0.036-0.207,0.064-0.417,0.064-0.634c0-2.031-1.65-3.678-3.687-3.678
		c-2.035,0-3.686,1.646-3.686,3.678s1.65,3.679,3.686,3.679c0.127,0,0.247-0.024,0.37-0.037c0.016-0.002,0.031-0.003,0.047-0.005
		C181.772,256.596,181.999,256.548,182.218,256.479z"/>
	<path fill="#FFFFFF" d="M191.829,254.948c0.636,1,1.736,1.669,3.002,1.706c0.036,0.001,0.07,0.011,0.106,0.011
		c0.197,0,0.387-0.028,0.576-0.058c0.004-0.001,0.008-0.001,0.011-0.002c1.755-0.282,3.099-1.789,3.099-3.619
		c0-2.031-1.65-3.678-3.687-3.678s-3.687,1.646-3.687,3.678c0,0.217,0.028,0.427,0.064,0.634c0.032,0.182,0.083,0.355,0.141,0.526
		C191.552,254.429,191.672,254.7,191.829,254.948z"/>
	<path fill="#FFFFFF" d="M185.13,263.125c0.676,0.78,1.663,1.284,2.778,1.284c1.716,0,3.146-1.177,3.557-2.762
		c0.076-0.295,0.129-0.598,0.129-0.916c0-1.287-0.665-2.416-1.667-3.073c-0.58-0.381-1.272-0.605-2.019-0.605
		c-0.747,0-1.439,0.225-2.02,0.605c-0.291,0.19-0.543,0.429-0.769,0.691c-0.287,0.333-0.514,0.714-0.667,1.135
		c-0.142,0.391-0.232,0.807-0.232,1.247C184.221,261.65,184.571,262.48,185.13,263.125z"/>
	<path fill="#FFFFFF" d="M185.271,268.961c0.047-0.235,0.073-0.479,0.073-0.728c0-1.825-1.335-3.328-3.083-3.617
		c-0.198-0.032-0.397-0.061-0.604-0.061c-0.033,0-0.063,0.009-0.096,0.01c-1.991,0.052-3.59,1.67-3.59,3.668
		c0,2.031,1.65,3.679,3.687,3.679c1.501,0,2.787-0.898,3.362-2.183C185.129,269.485,185.217,269.229,185.271,268.961z"/>
	<path fill="#FFFFFF" d="M194.791,264.799c-0.012,0-0.023,0.003-0.035,0.004c-2.02,0.019-3.652,1.654-3.652,3.674
		c0,0.267,0.032,0.525,0.086,0.776c0.057,0.265,0.148,0.517,0.259,0.757c0.584,1.263,1.856,2.145,3.342,2.145
		c2.036,0,3.687-1.646,3.687-3.678c0-1.802-1.301-3.295-3.015-3.61C195.244,264.826,195.021,264.799,194.791,264.799z"/>
	<path fill="#3B3BFF" d="M210.975,247.861h-7.431v5.865v11.713c0.002-1.237,0.221-2.425,0.614-3.541v-13.312h23.416v13.307
		c0.396,1.122,0.617,2.318,0.617,3.563c0,0.172-0.02,0.338-0.027,0.508h0.028v-3.98v-14.124h-8.913H210.975z"/>
	<path fill="#3B3BFF" d="M203.544,265.965h0.026c-0.007-0.164-0.026-0.324-0.026-0.49V265.965z"/>
	<path fill="#3B3BFF" d="M227.574,261.894v3.892h-0.027c-0.274,5.778-5.391,10.389-11.682,10.389s-11.408-4.61-11.682-10.389h-0.025
		v-0.465c0-0.006-0.001-0.012-0.001-0.018s0.001-0.012,0.001-0.018v-3.387c-0.393,1.116-0.612,2.304-0.614,3.541
		c0,0.006-0.001,0.012-0.001,0.018s0.001,0.012,0.001,0.018c0,0.166,0.019,0.326,0.026,0.49c0.196,4.124,2.727,7.684,6.409,9.547
		c1.75,0.885,3.755,1.389,5.888,1.389c6.622,0,12.008-4.853,12.297-10.936c0.008-0.17,0.027-0.336,0.027-0.508
		C228.192,264.212,227.97,263.016,227.574,261.894z"/>
	<path fill="#3B3BFF" d="M204.158,265.285c0.006-3.543,1.845-6.678,4.674-8.658c-0.124,0.013-0.243,0.037-0.37,0.037
		c-2.036,0-3.687-1.647-3.687-3.679s1.65-3.678,3.687-3.678s3.687,1.646,3.687,3.678c0,0.217-0.028,0.427-0.064,0.634h6.572
		c-0.036-0.207-0.064-0.417-0.064-0.634c0-2.031,1.65-3.678,3.687-3.678s3.687,1.646,3.687,3.678c0,1.831-1.344,3.337-3.099,3.619
		c2.852,1.983,4.707,5.136,4.707,8.698c0,0.163-0.019,0.321-0.026,0.482h0.027v-3.892v-13.307h-23.416v13.312V265.285z"/>
	<path fill="#3B3BFF" d="M204.158,265.32v0.465h0.025C204.177,265.63,204.159,265.478,204.158,265.32z"/>
	<path fill="#3B3BFF" d="M222.867,256.604c-0.004,0.001-0.008,0.001-0.012,0.002v7.804h-0.017c-0.007,0.153-0.015,0.306-0.034,0.456
		c1.714,0.315,3.015,1.809,3.015,3.61c0,2.031-1.65,3.678-3.687,3.678c-1.486,0-2.758-0.882-3.342-2.145
		c-0.891,0.382-1.879,0.602-2.925,0.602c-1.279,0-2.474-0.324-3.505-0.882c-0.575,1.284-1.861,2.183-3.362,2.183
		c-2.036,0-3.687-1.647-3.687-3.679c0-1.998,1.6-3.616,3.59-3.668c-0.003-0.052-0.006-0.104-0.008-0.155h-0.016v-0.287v-7.501
		c-0.016,0.002-0.031,0.003-0.047,0.005c-2.829,1.98-4.667,5.115-4.674,8.658c0,0.006-0.001,0.012-0.001,0.018
		s0.001,0.012,0.001,0.018c0,0.157,0.018,0.31,0.025,0.465c0.274,5.778,5.391,10.389,11.682,10.389s11.408-4.61,11.682-10.389
		c0.008-0.161,0.026-0.319,0.026-0.482C227.573,261.74,225.719,258.588,222.867,256.604z"/>
	<path fill="#3B3BFF" d="M218.798,254.146c-0.058-0.171-0.109-0.345-0.141-0.526h-6.572c-0.032,0.182-0.083,0.355-0.141,0.526
		H218.798z"/>
	<path fill="#3B3BFF" d="M208.879,264.123v0.287h0.016C208.89,264.314,208.879,264.22,208.879,264.123z"/>
	<path fill="#3B3BFF" d="M222.28,256.664c-0.037,0-0.07-0.01-0.106-0.011v4.69c0.432,0.843,0.681,1.783,0.681,2.779
		c0,0.097-0.011,0.191-0.016,0.287h0.017v-7.804C222.666,256.636,222.477,256.664,222.28,256.664z"/>
	<path fill="#3B3BFF" d="M209.56,261.344v-4.864c-0.219,0.068-0.446,0.116-0.681,0.143v7.501
		C208.879,263.127,209.128,262.187,209.56,261.344z"/>
	<path fill="#3B3BFF" d="M219.171,254.948c-0.157-0.248-0.278-0.519-0.373-0.802h-6.854c-0.095,0.284-0.216,0.554-0.373,0.802
		H219.171z"/>
	<path fill="#3B3BFF" d="M218.532,269.253c-0.811,0.353-1.712,0.555-2.666,0.555c-1.192,0-2.303-0.312-3.254-0.847
		c-0.054,0.269-0.142,0.524-0.251,0.769c1.031,0.558,2.226,0.882,3.505,0.882c1.046,0,2.034-0.22,2.925-0.602
		C218.68,269.77,218.59,269.518,218.532,269.253z"/>
	<path fill="#3B3BFF" d="M209.603,264.616c-0.016-0.133-0.023-0.269-0.029-0.404h-0.014v-0.26v-2.608
		c-0.432,0.843-0.681,1.783-0.681,2.779c0,0.097,0.011,0.191,0.016,0.287c0.002,0.052,0.005,0.104,0.008,0.155
		c0.033-0.001,0.063-0.01,0.096-0.01C209.206,264.556,209.406,264.584,209.603,264.616z"/>
	<path fill="#3B3BFF" d="M222.173,261.344v2.868h-0.015c-0.009,0.2-0.029,0.396-0.06,0.591c0.012-0.001,0.023-0.004,0.035-0.004
		c0.23,0,0.453,0.027,0.671,0.067c0.019-0.15,0.026-0.303,0.034-0.456c0.004-0.096,0.016-0.19,0.016-0.287
		C222.854,263.127,222.605,262.187,222.173,261.344z"/>
	<path fill="#3B3BFF" d="M209.56,261.344v2.608c0-1.792,0.869-3.394,2.235-4.468c0.153-0.421,0.38-0.802,0.667-1.135v-0.691h0.769
		c0.581-0.381,1.273-0.605,2.02-0.605c0.746,0,1.438,0.225,2.019,0.605h2.005v1.371c1.743,1.042,2.899,2.855,2.899,4.923
		c0,0.088-0.01,0.173-0.014,0.26h0.015v-2.868v-4.69c-1.266-0.036-2.366-0.706-3.002-1.706h-7.601
		c-0.462,0.727-1.172,1.269-2.011,1.532V261.344z"/>
	<path fill="#3B3BFF" d="M209.56,264.212h0.014c-0.004-0.087-0.014-0.172-0.014-0.26V264.212z"/>
	<path fill="#3B3BFF" d="M219.273,259.029v3.632h-0.061c0.035,0.182,0.061,0.366,0.061,0.558c0,1.746-1.525,3.162-3.406,3.162
		s-3.405-1.416-3.405-3.162c0-0.032,0.009-0.062,0.01-0.094c-0.559-0.645-0.909-1.475-0.909-2.394c0-0.44,0.09-0.856,0.232-1.247
		c-1.366,1.074-2.235,2.676-2.235,4.468c0,0.088,0.01,0.173,0.014,0.26c0.006,0.136,0.013,0.271,0.029,0.404
		c1.747,0.289,3.083,1.792,3.083,3.617c0,0.249-0.026,0.492-0.073,0.728c0.951,0.534,2.062,0.847,3.254,0.847
		c0.954,0,1.855-0.202,2.666-0.555c-0.054-0.251-0.086-0.51-0.086-0.776c0-2.02,1.632-3.655,3.652-3.674
		c0.03-0.194,0.05-0.391,0.06-0.591c0.004-0.087,0.014-0.172,0.014-0.26C222.172,261.885,221.015,260.071,219.273,259.029z"/>
	<path fill="#3B3BFF" d="M213.23,257.658h-0.769v0.691C212.687,258.087,212.939,257.849,213.23,257.658z"/>
	<path fill="#3B3BFF" d="M218.935,260.731c0,0.318-0.053,0.621-0.129,0.916c0.193,0.31,0.336,0.648,0.407,1.014h0.061v-3.632v-1.371
		h-2.005C218.27,258.315,218.935,259.444,218.935,260.731z"/>
	<path fill="#3B3BFF" d="M215.249,264.409c-1.115,0-2.102-0.504-2.778-1.284c-0.001,0.032-0.01,0.062-0.01,0.094
		c0,1.746,1.524,3.162,3.405,3.162s3.406-1.416,3.406-3.162c0-0.191-0.025-0.376-0.061-0.558c-0.07-0.365-0.213-0.704-0.407-1.014
		C218.396,263.232,216.966,264.409,215.249,264.409z"/>
	<path fill="#FFFFFF" d="M209.56,256.479c0.839-0.263,1.549-0.805,2.011-1.532c0.157-0.248,0.278-0.519,0.373-0.802
		c0.058-0.171,0.109-0.345,0.141-0.526c0.036-0.207,0.064-0.417,0.064-0.634c0-2.031-1.65-3.678-3.687-3.678
		s-3.687,1.646-3.687,3.678s1.65,3.679,3.687,3.679c0.127,0,0.247-0.024,0.37-0.037c0.016-0.002,0.031-0.003,0.047-0.005
		C209.114,256.596,209.341,256.548,209.56,256.479z"/>
	<path fill="#FFFFFF" d="M219.171,254.948c0.636,1,1.736,1.669,3.002,1.706c0.036,0.001,0.07,0.011,0.106,0.011
		c0.197,0,0.387-0.028,0.575-0.058c0.004-0.001,0.008-0.001,0.012-0.002c1.755-0.282,3.099-1.789,3.099-3.619
		c0-2.031-1.65-3.678-3.687-3.678s-3.687,1.646-3.687,3.678c0,0.217,0.028,0.427,0.064,0.634c0.032,0.182,0.083,0.355,0.141,0.526
		C218.893,254.429,219.014,254.7,219.171,254.948z"/>
	<path fill="#FFFFFF" d="M212.471,263.125c0.676,0.78,1.663,1.284,2.778,1.284c1.716,0,3.146-1.177,3.556-2.762
		c0.076-0.295,0.129-0.598,0.129-0.916c0-1.287-0.665-2.416-1.667-3.073c-0.58-0.381-1.272-0.605-2.019-0.605
		c-0.747,0-1.439,0.225-2.02,0.605c-0.291,0.19-0.543,0.429-0.769,0.691c-0.287,0.333-0.514,0.714-0.667,1.135
		c-0.142,0.391-0.232,0.807-0.232,1.247C211.563,261.65,211.913,262.48,212.471,263.125z"/>
	<path fill="#FFFFFF" d="M212.613,268.961c0.047-0.235,0.073-0.479,0.073-0.728c0-1.825-1.335-3.328-3.083-3.617
		c-0.198-0.032-0.397-0.061-0.604-0.061c-0.033,0-0.063,0.009-0.096,0.01c-1.991,0.052-3.59,1.67-3.59,3.668
		c0,2.031,1.65,3.679,3.687,3.679c1.501,0,2.787-0.898,3.362-2.183C212.47,269.485,212.558,269.229,212.613,268.961z"/>
	<path fill="#FFFFFF" d="M222.133,264.799c-0.012,0-0.023,0.003-0.035,0.004c-2.02,0.019-3.652,1.654-3.652,3.674
		c0,0.267,0.032,0.525,0.086,0.776c0.057,0.265,0.148,0.517,0.259,0.757c0.584,1.263,1.856,2.145,3.342,2.145
		c2.036,0,3.687-1.646,3.687-3.678c0-1.802-1.301-3.295-3.015-3.61C222.586,264.826,222.363,264.799,222.133,264.799z"/>
	<path fill="#3B3BFF" d="M148.862,265.439c0.002-1.237,0.221-2.425,0.614-3.541v-13.312h23.416v13.31
		c0.396,1.121,0.616,2.316,0.616,3.561c0,0.172-0.02,0.338-0.027,0.508h0.029v-12.65v-5.454h-7.943h-8.314h-8.391v12.724V265.439z"
		/>
	<path fill="#3B3BFF" d="M148.862,265.965h0.026c-0.007-0.164-0.026-0.324-0.026-0.49V265.965z"/>
	<path fill="#3B3BFF" d="M173.481,265.965c0.008-0.17,0.027-0.336,0.027-0.508c0-1.244-0.221-2.439-0.616-3.561v3.889h-0.028
		c-0.273,5.778-5.39,10.389-11.681,10.389c-6.292,0-11.408-4.61-11.682-10.389h-0.025v-0.465c0-0.006-0.001-0.012-0.001-0.018
		s0.001-0.012,0.001-0.018v-3.387c-0.393,1.116-0.612,2.304-0.614,3.541c0,0.006-0.001,0.012-0.001,0.018s0.001,0.012,0.001,0.018
		c0,0.166,0.019,0.326,0.026,0.49c0.289,6.083,5.675,10.936,12.297,10.936c1.958,0,3.802-0.436,5.446-1.189
		C170.547,273.913,173.278,270.249,173.481,265.965z"/>
	<path fill="#3B3BFF" d="M149.476,265.785h0.025c-0.007-0.155-0.025-0.308-0.025-0.465V265.785z"/>
	<path fill="#3B3BFF" d="M149.476,265.285c0.006-3.543,1.844-6.678,4.673-8.658c-0.123,0.013-0.243,0.037-0.37,0.037
		c-2.036,0-3.687-1.647-3.687-3.679s1.65-3.678,3.687-3.678s3.687,1.646,3.687,3.678c0,0.217-0.028,0.427-0.064,0.634h6.572
		c-0.036-0.207-0.064-0.417-0.064-0.634c0-2.031,1.65-3.678,3.687-3.678s3.687,1.646,3.687,3.678c0,1.831-1.344,3.337-3.099,3.62
		c2.852,1.982,4.706,5.135,4.706,8.697c0,0.163-0.019,0.321-0.026,0.482h0.028v-3.889v-13.31h-23.416v13.312V265.285z"/>
	<path fill="#3B3BFF" d="M172.89,265.303c0-3.562-1.854-6.715-4.706-8.697c-0.004,0-0.008,0-0.012,0.001v7.804h-0.017
		c-0.007,0.153-0.015,0.306-0.034,0.456c1.714,0.316,3.014,1.809,3.014,3.61c0,2.031-1.65,3.678-3.686,3.678
		c-1.486,0-2.758-0.882-3.342-2.145c-0.891,0.382-1.879,0.602-2.925,0.602c-1.279,0-2.474-0.324-3.505-0.882
		c-0.575,1.284-1.861,2.183-3.362,2.183c-2.036,0-3.687-1.647-3.687-3.679c0-1.998,1.6-3.615,3.589-3.668
		c-0.003-0.052-0.006-0.104-0.008-0.155h-0.015v-0.27c0-0.006-0.001-0.012-0.001-0.018s0.001-0.012,0.001-0.018v-7.483
		c-0.016,0.002-0.031,0.003-0.047,0.005c-2.829,1.98-4.667,5.115-4.673,8.658c0,0.006-0.001,0.012-0.001,0.018
		s0.001,0.012,0.001,0.018c0,0.157,0.018,0.31,0.025,0.465c0.273,5.778,5.39,10.389,11.682,10.389
		c6.291,0,11.407-4.61,11.681-10.389C172.871,265.624,172.89,265.466,172.89,265.303z"/>
	<path fill="#3B3BFF" d="M164.115,254.146c-0.058-0.171-0.109-0.345-0.141-0.526h-6.572c-0.032,0.182-0.083,0.355-0.141,0.526
		H164.115z"/>
	<path fill="#3B3BFF" d="M154.197,264.41h0.015c-0.004-0.09-0.014-0.179-0.015-0.27V264.41z"/>
	<path fill="#3B3BFF" d="M154.877,261.342v-4.862c-0.219,0.068-0.446,0.116-0.681,0.143v7.483
		C154.199,263.115,154.448,262.181,154.877,261.342z"/>
	<path fill="#3B3BFF" d="M167.597,256.664c-0.037,0-0.07-0.01-0.106-0.011v4.69c0.432,0.843,0.681,1.783,0.681,2.779
		c0,0.097-0.011,0.191-0.016,0.287h0.017v-7.804C167.984,256.636,167.794,256.664,167.597,256.664z"/>
	<path fill="#3B3BFF" d="M164.489,254.948c-0.157-0.248-0.278-0.519-0.373-0.802h-6.854c-0.095,0.284-0.216,0.554-0.373,0.802
		H164.489z"/>
	<path fill="#3B3BFF" d="M163.85,269.253c-0.811,0.353-1.712,0.555-2.667,0.555c-1.192,0-2.303-0.312-3.253-0.847
		c-0.054,0.27-0.142,0.524-0.251,0.769c1.031,0.558,2.226,0.882,3.505,0.882c1.046,0,2.034-0.22,2.925-0.602
		C163.998,269.769,163.907,269.518,163.85,269.253z"/>
	<path fill="#3B3BFF" d="M154.921,264.616c-0.016-0.133-0.023-0.269-0.029-0.404h-0.014v-0.26v-2.61
		c-0.43,0.839-0.678,1.773-0.681,2.764c0,0.006-0.001,0.012-0.001,0.018s0.001,0.012,0.001,0.018c0,0.091,0.01,0.18,0.015,0.27
		c0.002,0.052,0.005,0.104,0.008,0.155c0.033-0.001,0.064-0.01,0.097-0.01C154.524,264.556,154.723,264.584,154.921,264.616z"/>
	<path fill="#3B3BFF" d="M167.49,261.344v2.868h-0.015c-0.009,0.2-0.029,0.396-0.06,0.591c0.012-0.001,0.023-0.004,0.035-0.004
		c0.23,0,0.453,0.027,0.671,0.067c0.019-0.15,0.026-0.303,0.034-0.456c0.004-0.096,0.016-0.19,0.016-0.287
		C168.171,263.127,167.922,262.187,167.49,261.344z"/>
	<path fill="#3B3BFF" d="M154.877,261.342v2.61c0-1.792,0.869-3.394,2.235-4.468c0.153-0.421,0.38-0.802,0.667-1.135v-0.691h0.769
		c0.58-0.381,1.272-0.605,2.019-0.605c0.747,0,1.439,0.225,2.02,0.605h2.004v1.371c1.743,1.042,2.9,2.855,2.9,4.923
		c0,0.088-0.01,0.173-0.014,0.26h0.015v-2.868v-4.69c-1.266-0.036-2.366-0.706-3.002-1.706h-7.601
		c-0.462,0.727-1.172,1.269-2.011,1.532V261.342z"/>
	<path fill="#3B3BFF" d="M154.877,264.212h0.014c-0.004-0.087-0.014-0.172-0.014-0.26V264.212z"/>
	<path fill="#3B3BFF" d="M164.589,259.029v3.632h-0.06c0.035,0.182,0.061,0.366,0.061,0.558c0,1.746-1.525,3.162-3.406,3.162
		s-3.405-1.416-3.405-3.162c0-0.032,0.009-0.062,0.01-0.094c-0.559-0.645-0.909-1.475-0.909-2.394c0-0.44,0.09-0.856,0.232-1.247
		c-1.366,1.074-2.235,2.676-2.235,4.468c0,0.088,0.01,0.173,0.014,0.26c0.006,0.136,0.013,0.271,0.029,0.404
		c1.747,0.289,3.083,1.792,3.083,3.617c0,0.249-0.026,0.492-0.074,0.728c0.951,0.534,2.062,0.847,3.253,0.847
		c0.955,0,1.856-0.202,2.667-0.555c-0.054-0.251-0.086-0.51-0.086-0.776c0-2.02,1.632-3.655,3.652-3.674
		c0.03-0.194,0.05-0.391,0.06-0.591c0.004-0.087,0.014-0.172,0.014-0.26C167.49,261.885,166.332,260.071,164.589,259.029z"/>
	<path fill="#3B3BFF" d="M158.547,257.658h-0.769v0.691C158.004,258.086,158.256,257.849,158.547,257.658z"/>
	<path fill="#3B3BFF" d="M164.252,260.731c0,0.318-0.053,0.621-0.129,0.916c0.193,0.31,0.336,0.648,0.407,1.014h0.06v-3.632v-1.371
		h-2.004C163.588,258.315,164.252,259.444,164.252,260.731z"/>
	<path fill="#3B3BFF" d="M164.123,261.647c-0.41,1.585-1.84,2.762-3.557,2.762c-1.114,0-2.101-0.504-2.777-1.284
		c-0.001,0.032-0.01,0.062-0.01,0.094c0,1.746,1.524,3.162,3.405,3.162s3.406-1.416,3.406-3.162c0-0.191-0.025-0.376-0.061-0.558
		C164.459,262.296,164.316,261.957,164.123,261.647z"/>
	<path fill="#FFFFFF" d="M154.877,256.479c0.839-0.263,1.549-0.805,2.011-1.532c0.157-0.248,0.278-0.519,0.373-0.802
		c0.058-0.171,0.109-0.345,0.141-0.526c0.036-0.207,0.064-0.417,0.064-0.634c0-2.031-1.65-3.678-3.687-3.678
		s-3.687,1.646-3.687,3.678s1.65,3.679,3.687,3.679c0.126,0,0.247-0.024,0.37-0.037c0.016-0.002,0.032-0.003,0.047-0.005
		C154.431,256.596,154.658,256.548,154.877,256.479z"/>
	<path fill="#FFFFFF" d="M164.489,254.948c0.636,1,1.736,1.669,3.002,1.706c0.036,0.001,0.07,0.011,0.106,0.011
		c0.197,0,0.387-0.028,0.575-0.058c0.004-0.001,0.008-0.001,0.012-0.001c1.755-0.283,3.099-1.79,3.099-3.62
		c0-2.031-1.65-3.678-3.687-3.678s-3.687,1.646-3.687,3.678c0,0.217,0.028,0.427,0.064,0.634c0.032,0.182,0.083,0.355,0.141,0.526
		C164.211,254.429,164.331,254.7,164.489,254.948z"/>
	<path fill="#FFFFFF" d="M156.88,260.731c0,0.919,0.35,1.749,0.909,2.394c0.676,0.78,1.663,1.284,2.777,1.284
		c1.717,0,3.147-1.177,3.557-2.762c0.076-0.295,0.129-0.598,0.129-0.916c0-1.287-0.665-2.416-1.667-3.073
		c-0.581-0.381-1.273-0.605-2.02-0.605c-0.746,0-1.438,0.225-2.019,0.605c-0.291,0.19-0.543,0.428-0.769,0.691
		c-0.286,0.333-0.514,0.714-0.667,1.135C156.97,259.875,156.88,260.291,156.88,260.731z"/>
	<path fill="#FFFFFF" d="M157.929,268.961c0.047-0.235,0.074-0.479,0.074-0.728c0-1.825-1.335-3.328-3.083-3.617
		c-0.198-0.032-0.397-0.061-0.604-0.061c-0.033,0-0.064,0.009-0.097,0.01c-1.99,0.053-3.589,1.67-3.589,3.668
		c0,2.031,1.65,3.679,3.687,3.679c1.501,0,2.787-0.898,3.362-2.183C157.788,269.485,157.875,269.23,157.929,268.961z"/>
	<path fill="#FFFFFF" d="M167.45,264.799c-0.012,0-0.023,0.003-0.035,0.004c-2.02,0.019-3.652,1.654-3.652,3.674
		c0,0.267,0.032,0.525,0.086,0.776c0.057,0.265,0.148,0.516,0.259,0.757c0.584,1.263,1.856,2.145,3.342,2.145
		c2.035,0,3.686-1.646,3.686-3.678c0-1.802-1.3-3.294-3.014-3.61C167.904,264.826,167.68,264.799,167.45,264.799z"/>
</g>
</svg>
