<?xml version="1.0" encoding="utf-8"?>
<!-- Generator: Adobe Illustrator 16.0.0, SVG Export Plug-In . SVG Version: 6.00 Build 0)  -->
<svg version="1.2" baseProfile="tiny"
	 id="svg548" xmlns:cc="http://creativecommons.org/ns#" xmlns:dc="http://purl.org/dc/elements/1.1/" xmlns:rdf="http://www.w3.org/1999/02/22-rdf-syntax-ns#"
	 xmlns="http://www.w3.org/2000/svg" xmlns:xlink="http://www.w3.org/1999/xlink" x="0px" y="0px" width="512px" height="512px"
	 viewBox="0 0 512 512" xml:space="preserve">
<g>
	<path fill="#FFFFFF" d="M511.975,171.886H-0.009v168.221h511.983V171.886z M255.988,328.076c-39.743,0-72.076-32.334-72.076-72.077
		c0-39.744,32.333-72.078,72.076-72.078s72.076,32.334,72.076,72.078C328.064,295.742,295.731,328.076,255.988,328.076z"/>
	<rect x="-0.009" y="340.107" fill="#3D25CA" width="511.983" height="171.876"/>
	<rect x="-0.009" fill="#D60000" width="511.983" height="171.886"/>
	<path fill="#FFFFFF" d="M255.988,196.421c-32.851,0-59.576,26.727-59.576,59.578c0,32.851,26.726,59.577,59.576,59.577
		s59.576-26.727,59.576-59.577C315.564,223.148,288.838,196.421,255.988,196.421z M255.99,312.696
		c-31.262,0-56.695-25.434-56.695-56.695s25.434-56.695,56.695-56.695s56.695,25.434,56.695,56.695S287.251,312.696,255.99,312.696z
		"/>
	<path d="M255.988,183.921c-39.743,0-72.076,32.334-72.076,72.078c0,39.743,32.333,72.077,72.076,72.077
		s72.076-32.334,72.076-72.077C328.064,216.255,295.731,183.921,255.988,183.921z M255.988,315.576
		c-32.851,0-59.576-26.727-59.576-59.577c0-32.851,26.726-59.578,59.576-59.578s59.576,26.727,59.576,59.578
		C315.564,288.85,288.838,315.576,255.988,315.576z"/>
	<path fill="#D60000" d="M288.176,216.582c0.328-0.758,0.613-1.368,0.854-1.829c-0.478,0.374-0.983,0.716-1.52,1.027l-2.5,1.427
		l2.084,1.87L288.176,216.582z"/>
	<path fill="#D60000" d="M282.585,213.469c0.4-0.125,0.725-0.427,0.974-0.904c0.18-0.346,0.256-0.682,0.227-1.007
		c-0.023-0.328-0.142-0.597-0.354-0.808c-0.138-0.134-0.426-0.315-0.866-0.545l-1.872-0.977l-1.54,2.952l1.893,0.987
		C281.672,213.495,282.186,213.595,282.585,213.469z"/>
	<path fill="#D60000" d="M248.399,210.649c0.534-0.108,0.94-0.248,1.22-0.421c0.283-0.174,0.493-0.38,0.634-0.62
		c0.195-0.338,0.314-0.762,0.357-1.272c0.046-0.515-0.001-1.117-0.141-1.806c-0.192-0.955-0.48-1.66-0.863-2.114
		c-0.38-0.459-0.785-0.736-1.219-0.831c-0.312-0.066-0.786-0.035-1.424,0.093l-1.7,0.343l1.408,6.976L248.399,210.649z"/>
	<path fill="#D60000" d="M206.257,263.559c-0.177-0.25-0.405-0.418-0.685-0.507c-0.284-0.087-0.573-0.099-0.866-0.034
		c-0.431,0.096-0.754,0.312-0.969,0.652c-0.217,0.336-0.26,0.803-0.128,1.4l0.562,2.553l3.01-0.664l-0.506-2.293
		C206.57,264.179,206.429,263.809,206.257,263.559z"/>
	<path fill="#D60000" d="M255.989,214.354c-22.965,0-41.648,18.683-41.648,41.647c0,22.965,18.684,41.647,41.648,41.647
		s41.647-18.683,41.647-41.647C297.636,233.037,278.953,214.354,255.989,214.354z"/>
	<path fill="#D60000" d="M255.99,200.306c-30.71,0-55.695,24.985-55.695,55.695c0,30.711,24.985,55.695,55.695,55.695
		c30.711,0,55.695-24.984,55.695-55.695C311.685,225.291,286.7,200.306,255.99,200.306z M308.758,247.597l-5.344,0.585
		c-0.805,0.088-1.391,0.219-1.76,0.392c-0.364,0.175-0.632,0.435-0.804,0.778c-0.171,0.348-0.23,0.754-0.179,1.222
		c0.087,0.798,0.354,1.345,0.8,1.641c0.445,0.294,1.249,0.378,2.411,0.251l5.344-0.585l0.119,1.087l-5.35,0.585
		c-0.931,0.102-1.681,0.089-2.248-0.037c-0.568-0.127-1.052-0.416-1.45-0.867c-0.395-0.448-0.635-1.068-0.722-1.859
		c-0.084-0.77-0.003-1.415,0.242-1.936c0.245-0.522,0.639-0.918,1.181-1.189c0.545-0.271,1.309-0.46,2.29-0.568l5.35-0.586
		L308.758,247.597z M304.457,236.767c0.84,0.174,1.509,0.533,2.007,1.075c0.499,0.542,0.83,1.217,0.994,2.023
		c0.118,0.585,0.117,1.134-0.003,1.649c-0.115,0.518-0.337,0.95-0.664,1.296c-0.328,0.346-0.784,0.651-1.37,0.915l-0.495-0.905
		c0.44-0.216,0.775-0.441,1.005-0.674c0.229-0.235,0.388-0.535,0.478-0.902c0.094-0.367,0.1-0.756,0.017-1.164
		c-0.099-0.49-0.27-0.896-0.512-1.218c-0.239-0.324-0.518-0.568-0.836-0.733c-0.318-0.161-0.653-0.27-1.006-0.325
		c-0.606-0.091-1.24-0.07-1.9,0.064c-0.813,0.165-1.47,0.426-1.968,0.783c-0.497,0.362-0.83,0.807-1,1.335
		c-0.169,0.529-0.2,1.06-0.092,1.593c0.094,0.463,0.285,0.896,0.574,1.298c0.293,0.399,0.577,0.691,0.852,0.873l1.7-0.345
		l-0.482-2.379l1.071-0.217l0.701,3.426l-3.388,0.687c-0.58-0.43-1.048-0.9-1.401-1.411c-0.351-0.512-0.585-1.061-0.704-1.65
		c-0.161-0.795-0.117-1.558,0.133-2.286c0.255-0.727,0.712-1.328,1.371-1.807c0.659-0.478,1.438-0.808,2.335-0.99
		C302.761,236.598,303.623,236.594,304.457,236.767z M302.575,230.342l-6.485,7.493l-0.607-1.087l1.994-2.217l-1.684-3.014
		l-2.905,0.584l-0.566-1.013l9.68-1.774L302.575,230.342z M296.959,221.958c0.448,0.584,0.722,1.08,0.82,1.486
		c0.103,0.405,0.055,0.826-0.142,1.267c-0.196,0.439-0.498,0.815-0.904,1.127c-0.524,0.402-1.082,0.591-1.673,0.566
		c-0.59-0.024-1.176-0.314-1.755-0.868c0.052,0.325,0.062,0.593,0.033,0.806c-0.068,0.454-0.212,0.945-0.432,1.473l-1.137,2.683
		l-0.837-1.091l0.873-2.046c0.249-0.594,0.428-1.063,0.538-1.408c0.109-0.344,0.161-0.618,0.154-0.821
		c-0.005-0.2-0.039-0.382-0.105-0.544c-0.052-0.116-0.163-0.286-0.335-0.51l-0.771-1.005l-3.282,2.519l-0.665-0.867l7.39-5.671
		L296.959,221.958z M290.141,214.434l-3.706,9.19l-0.927-0.832l1.167-2.743l-2.569-2.306l-2.56,1.494l-0.863-0.775l8.582-4.815
		L290.141,214.434z M280.233,207.749l2.763,1.441c0.485,0.253,0.844,0.474,1.071,0.66c0.325,0.255,0.559,0.542,0.702,0.86
		c0.145,0.314,0.202,0.681,0.169,1.099c-0.028,0.42-0.149,0.835-0.362,1.244c-0.366,0.703-0.875,1.195-1.525,1.476
		c-0.649,0.278-1.492,0.147-2.527-0.393l-1.878-0.979l-1.751,3.358l-0.969-0.506L280.233,207.749z M264.307,202.414l1.076,0.188
		l-1.418,8.093l4.006,0.702l-0.189,1.083l-5.082-0.89L264.307,202.414z M253.626,201.657h5.971v1.099h-4.878v2.853h4.568v1.093
		h-4.568v3.171h5.069v1.099h-6.162V201.657z M246.763,202.598c0.63-0.127,1.118-0.18,1.467-0.16
		c0.488,0.027,0.928,0.165,1.319,0.415c0.51,0.321,0.933,0.778,1.271,1.371c0.341,0.588,0.594,1.289,0.758,2.103
		c0.14,0.693,0.192,1.323,0.157,1.887c-0.036,0.565-0.13,1.046-0.283,1.444c-0.154,0.394-0.345,0.72-0.572,0.978
		c-0.226,0.252-0.517,0.469-0.875,0.649c-0.354,0.18-0.776,0.319-1.267,0.417l-2.92,0.589l-1.843-9.131L246.763,202.598z
		 M229.338,208.263l7.815,6.092l-1.053,0.662l-2.316-1.877l-2.924,1.836l0.731,2.872l-0.982,0.617l-2.269-9.576L229.338,208.263z
		 M220.877,215.338c0.217-0.682,0.604-1.26,1.156-1.733c0.629-0.537,1.311-0.808,2.047-0.813s1.468,0.247,2.195,0.756l-0.632,0.916
		c-0.586-0.391-1.118-0.585-1.596-0.584c-0.478,0.002-0.927,0.182-1.346,0.541c-0.482,0.413-0.775,0.888-0.877,1.427
		c-0.101,0.537-0.026,1.082,0.219,1.635c0.243,0.55,0.564,1.058,0.964,1.525c0.515,0.603,1.041,1.063,1.581,1.382
		c0.539,0.313,1.068,0.441,1.586,0.382c0.519-0.058,0.97-0.251,1.352-0.578c0.465-0.398,0.729-0.886,0.793-1.464
		c0.064-0.579-0.102-1.214-0.496-1.908l1.032-0.473c0.484,0.918,0.672,1.774,0.565,2.568c-0.107,0.788-0.487,1.461-1.141,2.02
		c-0.677,0.578-1.359,0.895-2.049,0.949c-0.689,0.049-1.397-0.126-2.124-0.525c-0.724-0.401-1.374-0.94-1.952-1.617
		c-0.63-0.737-1.055-1.486-1.275-2.245C220.66,216.734,220.659,216.014,220.877,215.338z M217.727,217.981l6.929,6.226l-0.73,0.813
		l-6.929-6.226L217.727,217.981z M212.725,223.766l6.515,5.007l2.478-3.224l0.872,0.67l-3.145,4.09l-7.386-5.677L212.725,223.766z
		 M209.226,228.575c0.35-0.525,0.709-0.892,1.078-1.102c0.367-0.215,0.774-0.303,1.221-0.262c0.445,0.035,0.846,0.172,1.202,0.409
		c0.331,0.221,0.59,0.508,0.776,0.862c0.186,0.355,0.262,0.752,0.227,1.194c0.415-0.324,0.861-0.486,1.342-0.488
		c0.48-0.003,0.947,0.145,1.398,0.445c0.363,0.242,0.655,0.536,0.878,0.883c0.22,0.341,0.348,0.668,0.384,0.981
		c0.036,0.313-0.003,0.65-0.117,1.012c-0.115,0.356-0.319,0.753-0.61,1.19l-1.747,2.621l-7.75-5.168L209.226,228.575z
		 M202.351,246.188c0.047-0.547,0.112-0.961,0.196-1.244c0.11-0.397,0.285-0.723,0.524-0.979c0.234-0.255,0.551-0.448,0.948-0.579
		c0.399-0.136,0.828-0.184,1.288-0.144c0.79,0.068,1.439,0.349,1.95,0.84c0.506,0.492,0.709,1.32,0.608,2.483l-0.182,2.11
		l3.773,0.325l-0.094,1.089l-9.281-0.799L202.351,246.188z M201.663,252.451l1.1-0.009l0.04,4.879l2.854-0.023l-0.038-4.568
		l1.093-0.009l0.038,4.568l3.171-0.026l-0.042-5.069l1.099-0.009l0.052,6.162l-9.315,0.077L201.663,252.451z M203.403,268.912
		l-0.788-3.575c-0.158-0.72-0.196-1.284-0.113-1.694c0.079-0.41,0.301-0.771,0.665-1.087s0.797-0.527,1.298-0.638
		c0.645-0.143,1.229-0.077,1.754,0.196c0.524,0.272,0.932,0.782,1.223,1.53c0.091-0.316,0.194-0.564,0.311-0.744
		c0.254-0.383,0.593-0.767,1.016-1.152l2.166-1.947l0.296,1.342l-1.657,1.483c-0.478,0.433-0.839,0.782-1.084,1.048
		c-0.245,0.264-0.407,0.49-0.487,0.678c-0.082,0.184-0.127,0.363-0.136,0.537c-0.003,0.127,0.026,0.328,0.087,0.604l0.272,1.237
		l4.04-0.89l0.235,1.066L203.403,268.912z M212.491,242.877c-0.461,0.346-0.994,0.513-1.599,0.499
		c-0.609-0.015-1.373-0.205-2.291-0.568l-5.003-1.983l0.402-1.015l4.998,1.98c0.752,0.298,1.331,0.457,1.738,0.477
		c0.404,0.015,0.762-0.09,1.074-0.313c0.313-0.228,0.557-0.559,0.729-0.995c0.296-0.748,0.315-1.355,0.06-1.825
		c-0.256-0.469-0.928-0.919-2.015-1.35l-4.998-1.98h0.001l0.401-1.015l5.004,1.983c0.87,0.345,1.527,0.706,1.971,1.083
		c0.442,0.378,0.734,0.859,0.876,1.444c0.14,0.581,0.062,1.241-0.23,1.981C213.325,241.998,212.952,242.53,212.491,242.877z
		 M255.989,298.648c-23.517,0-42.648-19.132-42.648-42.647c0-23.516,19.132-42.647,42.648-42.647
		c23.516,0,42.647,19.131,42.647,42.647C298.636,279.517,279.504,298.648,255.989,298.648z M308.199,267.57l-3.198,0.553
		c-0.597,0.1-1.187,0.18-1.77,0.24c0.371,0.4,0.781,0.873,1.231,1.416l2.013,2.45l-0.441,1.194l-3.893-4.953l-3.701-1.369
		l0.38-1.025l3.7,1.369l6.141-1.122L308.199,267.57z M299.712,262.889l0.129-1.237l2.906-0.665l0.359-3.434l-2.712-1.195
		l0.121-1.154l8.935,4.123l-0.122,1.17L299.712,262.889z"/>
	<path fill="#D60000" d="M294.414,225.113c0.266,0.151,0.543,0.207,0.834,0.169c0.294-0.042,0.561-0.154,0.799-0.337
		c0.35-0.268,0.551-0.602,0.602-1.001c0.054-0.396-0.105-0.837-0.479-1.323l-1.591-2.073l-2.444,1.876l1.43,1.863
		C293.868,224.683,294.152,224.959,294.414,225.113z"/>
	<path fill="#D60000" d="M300.021,231.736c0.556-0.611,1.022-1.096,1.4-1.453c-0.572,0.199-1.163,0.359-1.771,0.479l-2.827,0.541
		l1.365,2.444L300.021,231.736z"/>
	<path fill="#D60000" d="M304.073,257.971l-0.291,2.784l2.655-0.589c0.807-0.18,1.468-0.307,1.981-0.381
		c-0.583-0.168-1.157-0.377-1.723-0.628L304.073,257.971z"/>
	<path fill="#D60000" d="M216.465,232.448c0.098-0.238,0.144-0.459,0.139-0.666c-0.005-0.207-0.07-0.418-0.197-0.633
		c-0.13-0.217-0.318-0.409-0.564-0.573c-0.289-0.192-0.583-0.294-0.883-0.304c-0.302-0.012-0.574,0.071-0.814,0.249
		c-0.242,0.172-0.51,0.478-0.801,0.915l-1.06,1.588l2.665,1.776l1.141-1.71C216.285,232.797,216.41,232.583,216.465,232.448z"/>
	<path fill="#D60000" d="M212.848,230.003c0.077-0.283,0.064-0.542-0.038-0.778c-0.101-0.238-0.287-0.448-0.559-0.629
		c-0.258-0.171-0.52-0.268-0.786-0.287c-0.27-0.023-0.509,0.044-0.714,0.201c-0.21,0.154-0.479,0.477-0.808,0.97l-0.916,1.374
		l2.343,1.562l0.99-1.485C212.629,230.527,212.792,230.217,212.848,230.003z"/>
	<path fill="#D60000" d="M230.863,210.742c-0.64-0.523-1.147-0.965-1.523-1.324c0.229,0.562,0.419,1.142,0.569,1.743l0.685,2.796
		l2.371-1.488L230.863,210.742z"/>
	<path fill="#D60000" d="M205.249,244.368c-0.388-0.033-0.727,0.026-1.017,0.178c-0.293,0.148-0.496,0.36-0.609,0.637
		c-0.07,0.179-0.127,0.515-0.17,1.009l-0.181,2.104l3.317,0.285v0l0.183-2.127c0.061-0.703-0.044-1.215-0.313-1.536
		C206.189,244.597,205.785,244.414,205.249,244.368z"/>
	<path d="M255.99,199.306c-31.262,0-56.695,25.434-56.695,56.695s25.434,56.695,56.695,56.695s56.695-25.434,56.695-56.695
		S287.251,199.306,255.99,199.306z M255.99,311.696c-30.71,0-55.695-24.984-55.695-55.695c0-30.71,24.985-55.695,55.695-55.695
		c30.711,0,55.695,24.985,55.695,55.695C311.685,286.712,286.7,311.696,255.99,311.696z"/>
	<path d="M255.989,213.354c-23.517,0-42.648,19.131-42.648,42.647c0,23.516,19.132,42.647,42.648,42.647
		c23.516,0,42.647-19.132,42.647-42.647C298.636,232.485,279.504,213.354,255.989,213.354z M255.989,297.648
		c-22.965,0-41.648-18.683-41.648-41.647c0-22.964,18.684-41.647,41.648-41.647s41.647,18.683,41.647,41.647
		C297.636,278.966,278.953,297.648,255.989,297.648z"/>
	<path fill="#FFE600" d="M298.821,266.076l-0.38,1.025l3.701,1.369l3.893,4.953l0.441-1.194l-2.013-2.45
		c-0.45-0.543-0.86-1.016-1.231-1.416c0.583-0.061,1.173-0.141,1.77-0.24l3.198-0.553l0.462-1.247l-6.141,1.122L298.821,266.076z"/>
	<path fill="#FFE600" d="M300.999,247.665c-0.542,0.271-0.936,0.667-1.181,1.189c-0.245,0.521-0.326,1.166-0.242,1.936
		c0.087,0.791,0.327,1.411,0.722,1.859c0.398,0.451,0.882,0.74,1.45,0.867c0.567,0.126,1.317,0.139,2.248,0.037l5.35-0.585
		l-0.119-1.087l-5.344,0.585c-1.162,0.127-1.966,0.043-2.411-0.251c-0.446-0.295-0.713-0.843-0.8-1.641
		c-0.052-0.467,0.008-0.874,0.179-1.222c0.172-0.344,0.439-0.603,0.804-0.778c0.369-0.173,0.955-0.304,1.76-0.392l5.344-0.585
		l-0.119-1.085l-5.35,0.586C302.308,247.205,301.544,247.394,300.999,247.665z"/>
	<path fill="#FFE600" d="M299.538,237.769c-0.659,0.479-1.116,1.081-1.371,1.807c-0.25,0.729-0.294,1.491-0.133,2.286
		c0.119,0.589,0.354,1.138,0.704,1.65c0.354,0.511,0.821,0.981,1.401,1.411l3.388-0.687l-0.701-3.426l-1.071,0.217l0.482,2.379
		l-1.7,0.345c-0.274-0.182-0.559-0.474-0.852-0.873c-0.289-0.402-0.48-0.834-0.574-1.298c-0.108-0.534-0.077-1.064,0.092-1.593
		c0.17-0.528,0.503-0.974,1-1.335c0.498-0.357,1.154-0.618,1.968-0.783c0.66-0.134,1.294-0.155,1.9-0.064
		c0.353,0.056,0.688,0.164,1.006,0.325c0.318,0.165,0.597,0.409,0.836,0.733c0.242,0.322,0.413,0.728,0.512,1.218
		c0.083,0.408,0.077,0.796-0.017,1.164c-0.09,0.367-0.249,0.667-0.478,0.902c-0.229,0.233-0.564,0.458-1.005,0.674l0.495,0.905
		c0.586-0.264,1.042-0.569,1.37-0.915c0.327-0.346,0.549-0.778,0.664-1.296c0.12-0.515,0.121-1.064,0.003-1.649
		c-0.164-0.807-0.495-1.481-0.994-2.023c-0.498-0.542-1.167-0.901-2.007-1.075c-0.834-0.172-1.696-0.168-2.584,0.012
		C300.976,236.96,300.198,237.291,299.538,237.769z"/>
	<polygon fill="#FFE600" points="267.971,211.397 263.965,210.695 265.383,202.602 264.307,202.414 262.699,211.589 
		267.781,212.479 	"/>
	<polygon fill="#FFE600" points="259.788,209.874 254.719,209.874 254.719,206.702 259.287,206.702 259.287,205.609 
		254.719,205.609 254.719,202.756 259.597,202.756 259.597,201.657 253.626,201.657 253.626,210.973 259.788,210.973 	"/>
	<path fill="#FFE600" d="M222.156,219.745c0.578,0.676,1.229,1.215,1.952,1.617c0.727,0.399,1.435,0.574,2.124,0.525
		c0.689-0.054,1.372-0.371,2.049-0.949c0.653-0.559,1.033-1.232,1.141-2.02c0.106-0.793-0.081-1.65-0.565-2.568l-1.032,0.473
		c0.395,0.694,0.561,1.329,0.496,1.908c-0.063,0.578-0.328,1.066-0.793,1.464c-0.382,0.327-0.833,0.52-1.352,0.578
		c-0.518,0.059-1.047-0.069-1.586-0.382c-0.54-0.319-1.066-0.78-1.581-1.382c-0.399-0.467-0.721-0.975-0.964-1.525
		c-0.245-0.554-0.319-1.099-0.219-1.635c0.102-0.539,0.395-1.015,0.877-1.427c0.419-0.358,0.868-0.539,1.346-0.541
		c0.478-0.001,1.01,0.193,1.596,0.584l0.632-0.916c-0.728-0.51-1.459-0.762-2.195-0.756s-1.418,0.276-2.047,0.813
		c-0.553,0.473-0.939,1.051-1.156,1.733c-0.218,0.676-0.217,1.396,0.003,2.162C221.101,218.259,221.526,219.008,222.156,219.745z"/>
	
		<rect x="216.168" y="220.954" transform="matrix(0.7438 0.6684 -0.6684 0.7438 204.6199 -90.8517)" fill="#FFE600" width="9.315" height="1.093"/>
	<polygon fill="#FFE600" points="222.589,226.219 221.717,225.549 219.24,228.773 212.725,223.766 212.059,224.632 219.445,230.31 	
		"/>
	<path fill="#FFE600" d="M213.841,239.297c-0.142-0.585-0.434-1.066-0.876-1.444c-0.443-0.377-1.101-0.738-1.971-1.083l-5.004-1.983
		l-0.401,1.015h-0.001l4.998,1.98c1.087,0.431,1.759,0.881,2.015,1.35c0.256,0.47,0.236,1.078-0.06,1.825
		c-0.173,0.436-0.416,0.768-0.729,0.995c-0.312,0.224-0.67,0.328-1.074,0.313c-0.407-0.021-0.986-0.179-1.738-0.477l-4.998-1.98
		l-0.402,1.015l5.003,1.983c0.918,0.364,1.682,0.553,2.291,0.568c0.604,0.014,1.138-0.153,1.599-0.499
		c0.461-0.347,0.834-0.879,1.119-1.599C213.904,240.538,213.981,239.878,213.841,239.297z"/>
	<polygon fill="#FFE600" points="210.977,252.182 209.878,252.191 209.92,257.261 206.749,257.287 206.711,252.719 205.618,252.729 
		205.656,257.297 202.803,257.32 202.763,252.441 201.663,252.451 201.713,258.421 211.029,258.344 	"/>
	<path fill="#FFE600" d="M248.738,211.702c0.49-0.099,0.912-0.238,1.267-0.417c0.358-0.18,0.649-0.397,0.875-0.649
		c0.228-0.258,0.418-0.584,0.572-0.978c0.153-0.398,0.247-0.879,0.283-1.444c0.035-0.564-0.018-1.194-0.157-1.887
		c-0.164-0.814-0.417-1.515-0.758-2.103c-0.338-0.593-0.761-1.05-1.271-1.371c-0.392-0.25-0.831-0.387-1.319-0.415
		c-0.349-0.02-0.837,0.033-1.467,0.16l-2.788,0.562l1.843,9.131L248.738,211.702z M246.963,203.679
		c0.638-0.128,1.111-0.16,1.424-0.093c0.434,0.094,0.839,0.371,1.219,0.831c0.383,0.454,0.671,1.159,0.863,2.114
		c0.14,0.689,0.187,1.292,0.141,1.806c-0.043,0.51-0.162,0.934-0.357,1.272c-0.141,0.24-0.351,0.446-0.634,0.62
		c-0.279,0.173-0.686,0.313-1.22,0.421l-1.728,0.349l-1.408-6.976L246.963,203.679z"/>
	<path fill="#FFE600" d="M278.645,213.156l1.878,0.979c1.035,0.54,1.878,0.671,2.527,0.393c0.65-0.281,1.159-0.773,1.525-1.476
		c0.213-0.409,0.334-0.824,0.362-1.244c0.033-0.417-0.024-0.784-0.169-1.099c-0.144-0.318-0.377-0.605-0.702-0.86
		c-0.228-0.186-0.586-0.406-1.071-0.66l-2.763-1.441l-4.308,8.259l0.969,0.506L278.645,213.156z M280.694,209.229l1.872,0.977
		c0.44,0.229,0.729,0.411,0.866,0.545c0.212,0.211,0.33,0.48,0.354,0.808c0.029,0.326-0.047,0.662-0.227,1.007
		c-0.249,0.477-0.573,0.778-0.974,0.904c-0.399,0.126-0.913,0.025-1.539-0.301l-1.893-0.987L280.694,209.229z"/>
	<path fill="#FFE600" d="M281.546,219.238l2.56-1.494l2.569,2.306l-1.167,2.743l0.927,0.832l3.706-9.19l-0.876-0.786l-8.582,4.815
		L281.546,219.238z M287.511,215.78c0.536-0.311,1.042-0.653,1.52-1.027c-0.241,0.46-0.526,1.07-0.854,1.829l-1.081,2.496
		l-2.084-1.87L287.511,215.78z"/>
	<path fill="#FFE600" d="M288.006,225.593l3.282-2.519l0.771,1.005c0.172,0.224,0.283,0.394,0.335,0.51
		c0.066,0.162,0.101,0.344,0.105,0.544c0.007,0.204-0.045,0.478-0.154,0.821c-0.11,0.345-0.289,0.814-0.538,1.408l-0.873,2.046
		l0.837,1.091l1.137-2.683c0.22-0.528,0.363-1.019,0.432-1.473c0.029-0.213,0.019-0.481-0.033-0.806
		c0.579,0.554,1.165,0.843,1.755,0.868c0.591,0.025,1.148-0.164,1.673-0.566c0.406-0.312,0.708-0.688,0.904-1.127
		c0.196-0.44,0.244-0.862,0.142-1.267c-0.099-0.407-0.372-0.902-0.82-1.486l-2.229-2.904l-7.39,5.671L288.006,225.593z
		 M294.579,220.548l1.591,2.073c0.373,0.485,0.532,0.927,0.479,1.323c-0.051,0.399-0.252,0.733-0.602,1.001
		c-0.238,0.183-0.505,0.295-0.799,0.337c-0.291,0.038-0.568-0.018-0.834-0.169c-0.263-0.154-0.546-0.43-0.85-0.825l-1.43-1.863
		L294.579,220.548z"/>
	<path fill="#FFE600" d="M292.888,232.101l2.905-0.584l1.684,3.014l-1.994,2.217l0.607,1.087l6.485-7.493l-0.574-1.027l-9.68,1.774
		L292.888,232.101z M299.651,230.762c0.607-0.12,1.198-0.28,1.771-0.479c-0.378,0.357-0.845,0.842-1.4,1.453l-1.832,2.011
		l-1.365-2.444L299.651,230.762z"/>
	<path fill="#FFE600" d="M300.516,255.204l-0.121,1.154l2.712,1.195l-0.359,3.434l-2.906,0.665l-0.129,1.237l9.616-2.393l0.122-1.17
		L300.516,255.204z M306.437,260.166l-2.655,0.589l0.291-2.784l2.623,1.187c0.565,0.251,1.14,0.46,1.723,0.628
		C307.905,259.859,307.243,259.986,306.437,260.166z"/>
	<path fill="#FFE600" d="M208.224,266.729l-0.272-1.237c-0.061-0.275-0.09-0.477-0.087-0.604c0.009-0.174,0.054-0.354,0.136-0.537
		c0.08-0.188,0.242-0.414,0.487-0.678c0.245-0.266,0.606-0.615,1.084-1.048l1.657-1.483l-0.296-1.342l-2.166,1.947
		c-0.423,0.386-0.762,0.77-1.016,1.152c-0.116,0.18-0.22,0.428-0.311,0.744c-0.291-0.748-0.698-1.258-1.223-1.53
		c-0.524-0.273-1.109-0.339-1.754-0.196c-0.501,0.11-0.934,0.322-1.298,0.638s-0.586,0.677-0.665,1.087
		c-0.083,0.41-0.045,0.975,0.113,1.694l0.788,3.575l9.097-2.006l-0.235-1.066L208.224,266.729z M204.172,267.623l-0.562-2.553
		c-0.132-0.598-0.089-1.064,0.128-1.4c0.215-0.34,0.538-0.557,0.969-0.652c0.293-0.064,0.582-0.053,0.866,0.034
		c0.279,0.089,0.508,0.257,0.685,0.507c0.172,0.25,0.312,0.62,0.419,1.107l0.506,2.293L204.172,267.623z"/>
	<path fill="#FFE600" d="M211.458,249.001l-3.773-0.325l0.182-2.11c0.101-1.164-0.103-1.991-0.608-2.483
		c-0.511-0.492-1.16-0.772-1.95-0.84c-0.46-0.04-0.889,0.008-1.288,0.144c-0.397,0.131-0.714,0.324-0.948,0.579
		c-0.239,0.255-0.414,0.581-0.524,0.979c-0.084,0.283-0.149,0.697-0.196,1.244l-0.268,3.103l9.281,0.799L211.458,249.001z
		 M206.773,246.455l-0.183,2.127v0l-3.317-0.285l0.181-2.104c0.043-0.495,0.1-0.83,0.17-1.009c0.113-0.277,0.316-0.489,0.609-0.637
		c0.29-0.152,0.629-0.211,1.017-0.178c0.536,0.046,0.939,0.229,1.21,0.551C206.729,245.24,206.833,245.751,206.773,246.455z"/>
	<path fill="#FFE600" d="M217.004,233.7c0.291-0.437,0.495-0.833,0.61-1.19c0.114-0.362,0.153-0.699,0.117-1.012
		c-0.036-0.312-0.164-0.64-0.384-0.981c-0.223-0.347-0.515-0.641-0.878-0.883c-0.451-0.301-0.918-0.449-1.398-0.445
		c-0.48,0.001-0.927,0.164-1.342,0.488c0.035-0.442-0.041-0.839-0.227-1.194c-0.187-0.354-0.445-0.642-0.776-0.862
		c-0.356-0.237-0.757-0.374-1.202-0.409c-0.446-0.041-0.854,0.047-1.221,0.262c-0.369,0.21-0.729,0.577-1.078,1.102l-1.719,2.578
		l7.75,5.168L217.004,233.7z M209.028,230.854l0.916-1.374c0.329-0.493,0.598-0.816,0.808-0.97c0.205-0.156,0.444-0.224,0.714-0.201
		c0.267,0.02,0.528,0.116,0.786,0.287c0.271,0.181,0.458,0.391,0.559,0.629c0.103,0.236,0.115,0.495,0.038,0.778
		c-0.056,0.214-0.219,0.524-0.487,0.927l-0.99,1.485L209.028,230.854z M212.284,233.025l1.06-1.588
		c0.291-0.438,0.559-0.743,0.801-0.915c0.24-0.178,0.513-0.261,0.814-0.249c0.3,0.01,0.594,0.111,0.883,0.304
		c0.246,0.165,0.435,0.356,0.564,0.573c0.127,0.215,0.192,0.426,0.197,0.633c0.005,0.207-0.041,0.428-0.139,0.666
		c-0.055,0.135-0.18,0.35-0.375,0.643l-1.141,1.71L212.284,233.025z"/>
	<path fill="#FFE600" d="M231.592,217.848l-0.731-2.872l2.924-1.836l2.316,1.877l1.053-0.662l-7.815-6.092l-0.997,0.626l2.269,9.576
		L231.592,217.848z M229.908,211.162c-0.15-0.601-0.341-1.182-0.569-1.743c0.376,0.359,0.884,0.8,1.523,1.324l2.102,1.727
		l-2.371,1.488L229.908,211.162z"/>
</g>
</svg>
