<?xml version="1.0" encoding="utf-8"?>
<!-- Generator: Adobe Illustrator 16.0.0, SVG Export Plug-In . SVG Version: 6.00 Build 0)  -->
<svg version="1.2" baseProfile="tiny"
	 id="svg378" xmlns:cc="http://creativecommons.org/ns#" xmlns:dc="http://purl.org/dc/elements/1.1/" xmlns:rdf="http://www.w3.org/1999/02/22-rdf-syntax-ns#"
	 xmlns="http://www.w3.org/2000/svg" xmlns:xlink="http://www.w3.org/1999/xlink" x="0px" y="0px" width="512px" height="512px"
	 viewBox="0 0 512 512" xml:space="preserve">
<g>
	<polygon fill="#660057" points="0,0 0,0.037 85.798,0.082 186.325,32.408 86.534,63.918 186.325,96.408 86.534,127.919 
		186.325,160.408 86.534,191.918 186.325,224.407 86.534,255.919 186.325,288.408 86.534,319.919 186.325,352.408 86.534,383.92 
		186.325,416.408 86.534,447.92 186.325,480.409 86.534,511.92 86.534,511.754 0,511.89 0,512 511.999,512 511.999,0 	"/>
	<polygon fill="#FFFFFF" points="86.534,511.92 186.325,480.409 86.534,447.92 186.325,416.408 86.534,383.92 186.325,352.408 
		86.534,319.919 186.325,288.408 86.534,255.919 186.325,224.407 86.534,191.918 186.325,160.408 86.534,127.919 186.325,96.408 
		86.534,63.918 186.325,32.408 85.798,0.082 0,0.037 0,511.89 86.534,511.754 	"/>
</g>
</svg>
