<?xml version="1.0" encoding="utf-8"?>
<!-- Generator: Adobe Illustrator 16.0.0, SVG Export Plug-In . SVG Version: 6.00 Build 0)  -->
<svg version="1.2" baseProfile="tiny"
	 id="svg1234" xmlns:cc="http://creativecommons.org/ns#" xmlns:dc="http://purl.org/dc/elements/1.1/" xmlns:rdf="http://www.w3.org/1999/02/22-rdf-syntax-ns#"
	 xmlns="http://www.w3.org/2000/svg" xmlns:xlink="http://www.w3.org/1999/xlink" x="0px" y="0px" width="512px" height="512px"
	 viewBox="0 0 512 512" xml:space="preserve">
<g>
	<path fill="#009AF4" d="M-0.009,0v255.992h511.983V0H-0.009z M451.797,159.088l-41.201-10.187l30.726,29.291l-37.176-20.498
		l22.097,36.237l-30.591-29.425l11.962,40.737l-21.942-36.34l1.021,42.43l-11.786-40.778l-10.001,41.253l-0.826-42.44
		l-20.343,37.259l10.188-41.212l-29.291,30.736l20.497-37.176l-36.237,22.097l29.415-30.591l-40.727,11.962l36.34-21.942
		l-42.429,1.021l40.777-11.787l-41.253-10.001l42.44-0.836l-37.259-20.333l41.201,10.188l-30.726-29.294L343.85,99.96
		l-22.097-36.243l30.591,29.423l-11.962-40.728l21.942,36.34l-1.021-42.437l11.787,40.779l10.001-41.253l0.825,42.441l20.343-37.26
		l-10.187,41.21l29.291-30.726l-20.498,37.169l36.237-22.099l-29.415,30.596l40.727-11.964l-36.34,21.944l42.43-1.022
		l-40.778,11.787l41.253,10.001l-42.44,0.826L451.797,159.088z"/>
	<rect x="-0.009" y="383.992" fill="#1C8F31" width="511.983" height="127.991"/>
	<rect x="-0.009" y="255.992" fill="#EFEF00" width="511.983" height="128"/>
	<path fill="#FFDA00" d="M415.726,127.919l40.778-11.787l-42.43,1.022l36.34-21.944l-40.727,11.964l29.415-30.596l-36.237,22.099
		l20.498-37.169l-29.291,30.726l10.187-41.21l-20.343,37.26l-0.825-42.441L373.09,87.095l-11.787-40.779l1.021,42.437l-21.942-36.34
		l11.962,40.728l-30.591-29.423L343.85,99.96l-37.176-20.501l30.726,29.294l-41.201-10.188l37.259,20.333l-42.44,0.836
		l41.253,10.001l-40.777,11.787l42.429-1.021l-36.34,21.942l40.727-11.962l-29.415,30.591l36.237-22.097l-20.497,37.176
		l29.291-30.736l-10.188,41.212l20.343-37.259l0.826,42.44l10.001-41.253l11.786,40.778l-1.021-42.43l21.942,36.34l-11.962-40.737
		l30.591,29.425l-22.097-36.237l37.176,20.498l-30.726-29.291l41.201,10.187l-37.259-20.342l42.44-0.826L415.726,127.919z
		 M373.999,161.2c-17.88,0-32.373-14.494-32.373-32.373s14.493-32.373,32.373-32.373c17.879,0,32.372,14.494,32.372,32.373
		S391.878,161.2,373.999,161.2z"/>
	<path fill="#0098F6" d="M373.999,96.454c-17.88,0-32.373,14.494-32.373,32.373s14.493,32.373,32.373,32.373
		c17.879,0,32.372-14.494,32.372-32.373S391.878,96.454,373.999,96.454z M374,155.233c-14.374,0-26.026-11.822-26.026-26.406
		s11.652-26.406,26.026-26.406s26.026,11.822,26.026,26.406S388.374,155.233,374,155.233z"/>
	<ellipse fill="#FFD900" cx="374" cy="128.828" rx="26.026" ry="26.406"/>
</g>
</svg>
