<?xml version="1.0" encoding="utf-8"?>
<!-- Generator: Adobe Illustrator 16.0.0, SVG Export Plug-In . SVG Version: 6.00 Build 0)  -->
<svg version="1.2" baseProfile="tiny"
	 id="svg761" xmlns:cc="http://creativecommons.org/ns#" xmlns:dc="http://purl.org/dc/elements/1.1/" xmlns:rdf="http://www.w3.org/1999/02/22-rdf-syntax-ns#"
	 xmlns="http://www.w3.org/2000/svg" xmlns:xlink="http://www.w3.org/1999/xlink" x="0px" y="0px" width="512px" height="512px"
	 viewBox="0 0 512 512" xml:space="preserve">
<g>
	<path fill="#199D00" d="M285.153,140.911c-1.801,0.148-4.375-0.644-1.224,3.1c0.469,0.52,1.392,1.726,2.607,3.382
		c-0.12-0.539-0.228-1.067-0.351-1.609C285.944,144.127,285.523,142.531,285.153,140.911z"/>
	<path fill="#199D00" d="M0.001,0v511.983h511.983V0H0.001z M421.005,139.674c3.439,1.71,5.454,11.29,5.074,14.025
		c-0.685,4.999-2.509,10.396-3.82,9.693c-1.426-0.627,0.285-7.412-0.398-9.522c-0.761-2.964-5.455-8.38-4.962-9.977
		C415.93,140.548,418.895,139.085,421.005,139.674z M369.16,131.596c0.663-4.248,1.888-1.755,3.907-0.45
		c4.028,3.107,5.401,4.73,10.107,9.898c5.565,6.946-6.921-0.583,1.639,8.409c0.257,0.261,0.676,0.737,1.21,1.369
		c-0.139-0.78-0.278-1.561-0.417-2.341c-0.297-4.392-1.069-8.86-1.366-13.252c-0.04-2.493,1.261-4.432,2.483-5.503
		c1.278-1.89,2.319-1.018,3.126-0.224c3.349,6.177,6.698,12.355,10.048,18.532c0.653,1.696-0.316,3.538-1.399,3.34
		c-0.669-0.297-0.816-0.354-1.889-1.256c-1.011-0.123-0.771,0.155-0.694,1.12c0.442,2.378,0.975,12.358,0.975,12.583
		c0,0.026,0.057,0.328,0.152,0.828c3.721,4.786,7.637,9.899,10.792,14.113c-1.649-11.281-3.71-22.748-5.987-34.631
		c-0.92-4.891-1.813-10.032,0.596-12.286c2.598-3.426,4.704-4.147,5.864-2.041c3.227,4.699,9.586,21.155,8.163,22.706
		c-0.951,1.678-2.896,0.185-3.407,1.633c-0.325,0.623,0.728,7.111,1.071,9.137c1.253,5.188,1.049,11.736,1.877,16.108
		c0.83,4.373-0.267,7.673,1.5,11.778c0.449,0.921,0.843,1.876,1.188,2.869c4.407,5.94,10.619,14.133,15.248,21.901
		c1.64,2.026,2.502,16.718-0.091,18.092c-4.177-7.501-8.593-14.637-13.157-21.51c0.001,3.428-0.033,7.126,0.006,11.138
		c0.064,4.933-9.371,15.342-9.062,12.729c0.431-13.139-0.173-26.002-1.48-38.946c-2.996-4.093-6.028-8.101-9.084-12.036
		c0.425,15.438,1.583,41.299-0.516,46.912c-1.895,4.657-3.999,7.003-7.236,8.818c-4.736,3.236-9.543,2.587-13.569-0.964
		c-2.474-1.317-4.456-2.877-6.14-5.297c-1.736-1.842-5.314-2.553-6.736,1.604c-2.025,2.264-2.077,13.684-6.394,18.157
		c-1.843,2.211-5.185,4.184-9.474,1.027c-4.71-2.394-6.658-5.5-9.078-10.341c-1.658-2.948-4.895-16.63,2.445-24.903l0.001,0
		c0.03-0.121,0.054-0.221,0.075-0.308c0.086-0.445,0.113-0.484,0,0c-0.428,2.198-2.29,14.379,4.361,23.466
		c3.245,3.171,6.174,1.764,7.21,0.12c4.02-7.368,6.695-18.051,12.609-23.762c2.145-1.973,4.132-2.763,7.146,0
		c0,0,5.896,9.233,7.368,9.825c2.024,1.933,5.045,0.183,5.045,0.183c1.984-0.856,4.101-6.791,4.278-13.598
		c-1.266-16.076-1.583-29.232-2.848-45.308c-0.002-0.008-0.003-0.016-0.004-0.024c-5.85-7.206-11.687-14.25-17.382-21.247
		c-1.564-1.936-3.385-5.221-3.37-6.97C368.62,139.645,368.896,135.328,369.16,131.596z M382.669,212.41
		c-0.761-2.964-3.682-8.542-3.188-10.138c-0.97-3.345,1.835-5.132,3.944-4.542c3.439,1.71,4.81,11.773,4.43,14.509
		c0.122,5.322-3.315,9.59-4.627,8.888C381.803,220.499,383.354,214.52,382.669,212.41z M386.276,190.586
		c0.376,1.559-19.244,14.89-20.644,14.353c-0.967,0.699-1.935-5.375,0-7.096c0.484-0.484,19.998-14.353,19.998-14.353
		C387.619,182.792,387.189,190.64,386.276,190.586z M361.031,165.209c1.44-0.938,3.657-1.99,5.315-0.981c0,0,1.718,2.405,1.386,2.71
		c2.125,1.018,3.027,0.433,3.243-0.432c0.145-1.513-0.629-2.416-0.637-4.082c0.9-4.521,6.067-5.224,8.013-2.341
		c1.425,1.757,1.947,5.492,2.162,8.013c-0.022,1.288-2.108-0.223-3.293,0.086c-1.186,0.311-1.471,1.678-1.562,2.916
		c-0.215,3.278-0.603,8.538-0.675,12.5c-3.893-0.071-12.044-7.573-14.423-11.969C359.661,169.109,360.239,166.65,361.031,165.209z
		 M339.564,129.253c2.598-3.426,2.11-1.552,3.271,0.554c1.93,4.916,8.072,13.156,10.541,18.815c0.779,4.488-6.355-2.194-4.921,5.523
		c1.188,4.082,7.054,45.246,7.291,50.64c0.238,5.395,1.578,10.992,0.784,20.17c-1.449,6.663-4.831,13.396-7.766,13.377
		c1.007-30.738-5.338-57.586-11.525-89.876C336.319,143.566,337.155,137.129,339.564,129.253z M323.732,127.901
		c1.805-3.827,2.185-2.396,3.275-0.252c3.071,4.801,8.459,17.266,6.985,18.771c-1.004,1.647-2.898,0.978-3.456,1.644
		c-0.345,0.611-0.515,3.004-0.236,5.041c4.333,20.905,6.438,43.412,5.781,72.336c-0.097,4.934-3.4,11.293-5.28,14.267
		c-7.028,12.75-14.619,17.594-23.243,18.595c-5.155,0.005-9.123-5.487-7.979-6.771c10.629-4.014,20.404-12.719,27.177-19.791
		c1.831-1.596,2.235-5.598,2.017-8.353c-2.688-28.481-3.951-53.397-8.065-81.878C320.557,136.439,321.832,131.012,323.732,127.901z
		 M308.99,126.659c3.773,1.579,6.436,9.223,5.567,12.955c-0.751,4.617-2.753,9.603-4.191,8.954c-1.563-0.58,1.066-4.589-0.437-8.796
		c-0.835-2.738-5.983-7.741-5.441-9.215C303.425,127.466,306.677,126.114,308.99,126.659z M306.552,156.271
		c0.422,0.108,0.797,0.25,1.03,0.558c0.153,0.337,0.27,1.164,0.27,1.675c0,0.493,0.33,0.604,0.594,0.893
		c0.445,0.284,0.321,0.223,0.87,0.223c0.491-0.098,0.743-0.336,0.816-1.004c0-0.57,0.189-1.061,0.325-1.563
		c0.322-0.494,0.312-0.646,0.9-0.67c0.481,0,0.651,0.048,0.917,0.223c0.266,0.379,0.706,1.022,0.706,1.62
		c-0.056,1.876,1.29,2.085,1.643,1.73c0.613-0.341,0.147-1.443,0.314-2.12c0.531-2.067,2.878-2.562,3.737-0.56
		c0.06,0.55,0.213,2.583,0.213,3.183c0.334,6.791-7.584,7.646-11.796,5.637c-3.138-1.302-3.039-6.009-2.867-6.197
		C304.093,158.903,304.252,156.279,306.552,156.271z M265.395,125.031c0.849-4.215,5.639-1.672,7.601-0.28
		c3.89,3.28,4.162,3.524,8.848,7.544c1.071,1.292,1.911,2.38,2.579,3.315c-0.014-1.999,0.337-4.14,1.4-6.551
		c2.701-3.593,2.643-3.087,4.392-0.608c5.426,7.622,10.041,13.262,11.542,21.584c0.641,4.844-3.987-4.404-2.787,3.929
		c0.425,1.762,1.035,7.029,1.642,13.589c3.864,5.712,7.12,10.678,8.069,12.44c2.562,4.753,10.615,17.125,16.433,29.646
		c1.55,2.095,2.129,16.99-0.521,18.25c-7.324-14.618-14.767-27.931-22.46-40.486c0.251,4.109,0.442,7.97,0.533,11.142
		c0.098,5.8,1.566,23.302,0.494,33.129c-1.649,7.105-6.363,11.964-9.296,11.849c0.971-16.482,0.645-33.403-0.419-49.054
		c-0.557-8.196-1.459-16.448-2.743-24.916c-6.412-9.612-13.024-18.914-19.915-28.177c-1.479-2.002-4.484-5.458-4.963-7.521
		C265.199,130.763,264.969,128.747,265.395,125.031z M269.937,243.638c-1.29,0.697-2.427,1.16-3.072-0.323
		c-0.254-1.095-0.336-1.627,0.491-2.257c1.357-1.983,5.55-4.838,5.646-4.838c1.934-0.968,3.823,0.759,3.709,0.645
		c0.322,1.935-1.225,3.736-0.74,6.317c0.423,1.041,0.732,2.195,2.64,1.755c3.098-2.438,5.968-2.595,9.066-2.75
		c2.375,0.143,2.469,4.163,0.967,4.193c-5.721,1.244-8.284,2.775-12.369,4.334c-1.936,1.128-3.596-0.303-3.596-0.464
		c0-0.161-1.133-1.098-0.342-3.662C272.477,244.531,271.649,243.404,269.937,243.638z M286.401,223.039
		c-10.903,3.506-22.18,5.042-33.642,6.428c-3.981,2.014-5.955,4.697-5.138,7.717c1.34,3.349,10.16,6.695,10.16,6.854
		c1.675,1.051,3.656,3.502-0.474,8.525c-17.851-0.785-31.683-8.381-36.472-19.103c-1.442-1.119-2.997-0.006-3.993,1.443
		c-6.969,8.983-13.826,17.074-25.707,21.369c-7.086,1.77-14.34-1.087-17.765-5.727c-2.294-2.641-2.206-5.557-3.048-6.188
		c-3.829,1.693-36.784,15.697-32.607,9.173c8.021-8.584,21.905-14.89,34.168-23.363c0.885-2.838,2.493-12.442,7.337-15.569
		c0.279,0.024-0.768,5.64-0.662,8.008c0.055,1.944-0.143,2.706,0.282,2.206c0.828-0.527,15.707-12.219,16.856-15.805
		c1.451-2.056,0.436-7.263,0.436-7.421c-2.791-7.191-6.704-7.803-8.155-11.375c-1.307-4.747-0.716-10.166,1.998-11.675
		c2.408-2.187,5.263-1.917,7.895,0.474c3.005,2.692,5.674,7.953,6.446,11.872c-0.517,1.55-3.933-1.03-5.118-0.261
		c2.098,2.172,3.077,4.678,3.835,7.745c1.938,8.208,1.347,11.399-0.604,16.708c-6.606,13.89-15.049,18.035-22.436,23.18
		c-0.197,0.07-0.328,3.524,2.45,5.393c0.957,1.005,4.811,1.521,9.341,0.07c8.755-4.774,17.844-13.569,22.354-23.367
		c1.31-7.412-0.507-15.27-2.434-22.123c-2.903-6.698-6.322-16.262-6.322-16.42c-0.113-4.177,0.227-5.626,2.059-7.709
		c2.838-2.01,1.511-3.414,5.754,0.828c5.312,9.083,8.727,20.844,9.238,31.266c-0.224,2.568,1.587,4.193,2.414,3.635
		c0.492-6.028,15.152-14.429,28.596-15.657c2.056-0.447,1.056-4.387,1.392-6.396c-0.807-7.463,4.193-14.257,11.201-14.799
		c9.537,1.41,12.712,6.502,12.873,14.275c-1.03,14.922-16.574,17.452-25.308,18.642c-1.34,0.507-1.898,1.125,0,1.856l36.594,0.166
		l1.867,1.079c0.224,0.872-0.534,0.145-1.979,2.523S286.511,219.376,286.401,223.039z M166.162,218.028
		c-0.278-3.76-4.845-5.706-4.749-7.331c-0.853-2.986,1.91-3.535,3.93-3.101c3.291,1.256,5.22,8.295,4.856,10.307
		c-0.656,3.672-2.402,7.638-3.655,7.123C165.179,224.564,166.818,219.578,166.162,218.028z M234.564,177.904
		c0.422,0.108,0.796,0.25,1.029,0.558c0.154,0.337,0.27,1.165,0.27,1.675c0,0.493,0.33,0.604,0.595,0.893
		c0.444,0.284,0.321,0.223,0.87,0.223c0.491-0.098,0.743-0.336,0.816-1.004c0-0.57,0.188-1.061,0.325-1.563
		c0.321-0.494,0.312-0.646,0.899-0.67c0.482,0,0.651,0.048,0.918,0.223c0.266,0.379,0.706,1.022,0.706,1.62
		c-0.056,1.876,1.29,2.085,1.642,1.73c0.613-0.341,0.147-1.443,0.315-2.12c0.531-2.067,2.877-2.562,3.737-0.56
		c0.06,0.55,0.212,2.583,0.212,3.183c2.442,6.49-7.584,7.646-11.796,5.637c-3.138-1.302-3.039-6.009-2.867-6.197
		C232.104,180.536,232.263,177.912,234.564,177.904z M223.719,125.627c1.882-4.688,4.73-4.82,5.483-0.595
		c-0.162,2.773-0.162,5.546-2.58,12.084c-1.613,3.566-5.16,2.379-4.517-0.396C221.945,136.72,222.912,127.41,223.719,125.627z
		 M195.497,131.185c0.113-4.447,3.84-8.307,5.712-9.562c2.665-1.581,2.707-0.198,2.635,1.754c-2.166,2.851-4.468,4.057-3.67,7.002
		c0.456,3.173,4.04-1.03,3.47,1.821c-0.464,1.7-0.929,2.373-2.305,3.386c-2.396,1.255-3.593,1.409-4.78-0.302
		C194.916,133.687,195.384,133.694,195.497,131.185z M188.627,135.277c3.901-3.893,4.12,19.788,7.353,22.815
		c1.327,2.311,3.215,3.952,4.988-1.775c1.932-7.858,5.092-17.728,11.488-23.577c1.332-1.139,4.449-2.503,6.339,1.269
		c1.281,2.436,0.891,13.916,0.721,20.929c0.938,4.4,2.548,5.116,4.603,6.501c2.199,1.062,5.07,1.789,7.717-1.057
		c1.884-2.197,2.203-2.942,3.64-5.139c0.941-7.732,0.097-14.683-1.977-18.953c-2.535-6.736,0.96-10.011,1.774-12.168
		c3.03-5.495,3.938-2.393,5.182,0.82c3.443,5.322,2.086,16.671,3.185,24.784c1.451,10.717,4.167,11.429,5.843,11.794
		c4.019,0.478,6.325-3.175,6.325-3.175c1.297-7.729-2.652-13.224-4.816-17.492c-2.463-3.208-2.58-6.192-2.028-8.619
		c0.425-2.113,0.113-4.342,2.282-6.337c3.096-2.595,6.304-2.288,8.619,0.253c2.667,2.964,6.563,8.83,5.323,10.901
		c-0.401,2.125-2.925,1.457-4.107,1.237c-2.345,0.335,0.174,5.58,0.174,5.833c1.451,3.49,1.478,8.319,3.375,11.779
		c1.859,2.878,5.619,1.593,7.558,1.306c1.521-0.93,1.62-1.227,3.142-2.157c1.166-0.661,2.964-0.926,2.788,2.282
		c0,0-2.977,8.624-6.94,10.519c-1.121,0.315-1.559,1.23-3.453-0.191c-1.088-2.13,0.507-3.314,0.761-4.497
		c0-0.67-2.717-1.613-4.311,0.508c-1.034,1.451-1.569,2.765-3.802,6.591c-1.659,2.886-8.819,3.916-12.169,2.576
		c-3.979-2.024-3.719-4.943-5.577-6.632c-1.913-1.255-3.716-1.171-5.07,0.253l-6.084,6.084c-0.507,0.508-6.971,5.766-14.785-0.262
		c-3.503-4.136-4.662-7.153-4.48-20.778c-0.707-1.478-1.748-1.171-3.125,1.704c-2.013,10.246-5.143,19.598-10.059,17.562
		C192.207,172.67,182.379,153.136,188.627,135.277z M175.504,140.512c1.427-1.188-0.711-3.356-2.851-4.367
		c-2.198-2.673-1.546-6.95,1.246-9.624c2.198-1.129,5.198-1.634,8.645-0.089c2.079,2.316,3.355,7.396-0.624,9.712
		c-0.802,0.773-0.892,1.545,0,2.317c0.832,0.713,1.575,1.248,2.408,1.961c0,0-16.042,18.356-19.429,19.604
		c-0.355,0.564-11.406,0.594-11.85,0C150.97,159.611,168.942,147.522,175.504,140.512z M175.551,165.105
		c0.456,1.027,0.685,1.711,2.508,1.37c4.334-3.877,4.22-1.826,4.22-1.826s-2.166,7.298-5.815,6.842
		c-0.456,0-3.878,1.142-6.044-1.938c-2.319-3.497-0.874-9.502,2.851-11.517c2.09-1.254,3.497-0.455,2.851,1.369
		C175.246,161.305,175.171,163.205,175.551,165.105z M111.093,125.639c0.422,0.108,0.797,0.25,1.03,0.558
		c0.153,0.337,0.27,1.165,0.27,1.675c0,0.493,0.33,0.604,0.595,0.893c0.444,0.284,0.32,0.223,0.869,0.223
		c0.492-0.098,0.743-0.336,0.816-1.004c0-0.57,0.189-1.061,0.325-1.563c0.322-0.493,0.313-0.646,0.9-0.67
		c0.482,0,0.651,0.048,0.918,0.223c0.265,0.378,0.705,1.021,0.705,1.619c-0.056,1.876,1.29,2.085,1.643,1.73
		c0.613-0.341,0.147-1.443,0.314-2.12c0.532-2.067,2.878-2.562,3.737-0.56c0.06,0.55,0.213,2.583,0.213,3.183
		c0.334,6.792-7.584,7.646-11.796,5.637c-3.138-1.302-3.04-6.009-2.867-6.196C108.634,128.271,108.792,125.647,111.093,125.639z
		 M77.399,124.389c4.854,1.463,5.142,8.6,4.783,10.686c-0.647,3.807-2.366,7.919-3.602,7.383c-1.344-0.478-0.053-5.646-0.698-7.254
		c-0.719-2.258-4.822-6.384-4.356-7.6C72.613,125.054,75.408,123.938,77.399,124.389z M65.539,145.134
		c3.096-3.584,4.231,11.722,6.08,17.939c2.139,8.554,5.188,5.285,5.868,0.651c0.506-4.1,1.692-8.717,1.692-8.717
		c1.39-8.971,6.343-14.379,8.268-14.261c2.425-0.429,3.602,0.213,4.599,2.815c1.257,2.602,1.624,12.867,0.209,19.389
		c-0.28,5.021,5.855,10.754,5.575,0.626c-1.008-7.562-1.66-14.053-3.738-21.437c-0.514-4.21-0.493-8.777-0.294-13.345
		c0.957-2.296,3.696-3.524,5.544-1.007c3.029,2.495,3.616,12.311,4.15,16.913c0,3.713,0.357,11.956,2.139,17.481
		c1.248,2.673,2.963,3.208,3.793,0.892c1.008,0-1.125-2.572-2.521-6.67c-1.931-4.456-3.178-14.404-0.504-19.038
		c0.978-1.604,3.024-1.604,4.538,0c1.513,2.688,3.381,3.951,4.002,7.887c0.89,2.852,2.139,4.017,0.534,14.292
		c0,1.008,6.048,5.544,6.048,5.544c1.848,1.951,4.053,2.475,6.259,1.217c0.544-3.223-0.693-6.802-1.573-8.957
		c-4.145-5.513-6.864-12.275-6.196-17.968c1.44-4.939,5.375-5.423,8.063-3.055c3.253,1.767,5.26,5.85,6.553,10.111
		c-0.473,1.961-2.551,2.139-3.916,0c-0.334,1.008,1.468,3.621,1.133,4.629c2.402,5.544,3.023,11.09,3.468,16.634
		c-0.113,5.834-4.68,9.531-12.278,11.624c-4.993,1.12-6.425-1.679-9.638-3.946c-2.017-1.109-4.924-0.973-4.98,1.304
		c-1.604,2.317,1.132,12.287,0.774,24.198c-0.355,20.285-7.831,18.145-7.831,18.145c-0.504-10.753-1.009-21.507-1.513-32.26
		c-1.263-3.137-3.415-3.244-6.638-2.995c-3.098-1.253-7.085-3.04-6.972-9.104v-18.65c-0.129-2.485-1.68-2.475-2.521-0.504
		c-4.45,3.987,2.328,25.974-9.964,24.792C63.589,178.144,64.653,157.095,65.539,145.134z M98.938,194.2
		c-10.847,5.303-21.338,10.25-32.009,15.374c0.39-7.256,15.218-20.353,25.33-20.538C98.841,189.22,97.188,191.586,98.938,194.2z
		 M71.613,255.427c-2.144,0.631-5.042-0.252-6.806-2.269c-3.319-4.269-2.796-18.587,3.22-28.171
		c1.353-1.727,2.025-3.034,1.363,1.244c-0.621,4.174-1.16,9.445-0.752,15.168c0.233,3.018,1.337,6.722,3.997,1.322
		c1.259-1.679,2.253-1.367,3.515,0.608C77.046,246.13,75.392,253.788,71.613,255.427z M82.474,237.024
		c0-4.515-0.179-5.823,0.535-10.516c0.713-8.436,5.167-11.702,6.236-3.208c0.179,4.278,0.715,11.407,2.496,14.614
		c7.188,13.605,49.485,10.634,50.793-32.613c-0.416-3.208-2.793-1.247-3.387,0.713c-6.3,47.764-62.673,41.704-45.804-1.781
		c5.704-3.922,3.21,13.009,5.527,17.464c3.74,7.129,10.691,6.238,19.424,2.317c14.435-7.665,14.972-17.643,14.259-18.535
		c-1.07-0.712-3.565,2.318-6.595,3.565c-3.684,0.952-7.9,1.366-11.407-2.852c-1.128-3.625-0.83-8.139,0.002-12.295
		c0.711-5.229,6.415-10.636,11.405-10.696c6.894-0.236,7.901,5.288,11.94,8.021c2.376,0.296,4.218-2.612,3.742-4.811
		c-3.089-18.773-5.109-33.09-8.198-51.862c-0.772-4.397,1.664-6.654,4.277-7.486c1.543-0.356,2.555-1.247,3.743,0.178
		c2.437,0.951,6.831,14.199,8.913,20.673c-1.901,2.375-3.804,0.832-5.883,0.892c1.604,12.238,3.207,23.94,4.812,36.178
		c4.989-2.912,7.484-2.079,6.95,4.1c0.417,2.673,4.396,2.316,6.595,0.535c3.268-9.209,8.674-8.438,9.98-2.497
		c0.118,1.901,3.09,1.843,3.387,0.357c0.238-1.545,0.475-3.088,0.713-4.633c0.237-1.426,2.791-2.137,6.238-3.208
		c-0.179,5.583-0.892,10.989-1.784,16.216c-1.543,5.346-8.971,6.774-13.188,3.743c-1.247-1.307-3.03-0.654-3.744,0.356
		c-1.663,2.02-9.207,7.07-14.613,1.247c-2.555-0.058,2.912,11.465-1.781,27.09C139.208,256.509,84.732,271.182,82.474,237.024z
		 M389.692,389.021c-2.673,0.34-4.078-1.602-5.482-3.668c-1.764,0.737-4.16,0.844-7.064,0.441
		c-3.824-0.239-7.649-0.225-11.473-0.463c-4.063-0.359-6.225,0.422-10.288,0.064c-0.837,1.314-1.926,3.135-4.411,2.549
		c-2.067-0.228-4.517-6.032-3.795-10.444c1.492-3.165,1.082-2.147,0.927-3.537c-37.524-0.956-75.407-2.629-112.21-2.151
		c-28.8,0.12-57.242,1.315-85.685,2.511c-15.178-0.239-26.769-2.63-34.776-14.341c0.718,0,38.72,2.15,49.834,1.434
		c20.555-0.24,39.316-1.912,60.229-2.51c41.229,0.717,82.101,0.718,123.325,3.585c-3.943-2.698-4.085-9.071,1.985-10.629
		c0.516-0.354,0.782,3.169,1.69,3.103c4.855-0.364,2.727,6.215,1.658,7.57h-0.001c9.178,0.338,15.185,0.42,23.348,1.391
		c0,0,7.038-0.695,9.553-1.076c10.625-1.013,11.096,15.177,11.096,15.177C398.035,387.521,394.37,388.018,389.692,389.021z
		 M401.114,256.778c-1.976-0.533-1.563-2.205-0.917-3.307c1.368-1.254,2.333-1.944,3.701-3.198c1.443-1.749,0.903-2.733,0.067-3.797
		c-1.444-0.912-2.847-0.781-2.937-3.087c0.228-1.52,0.656-2.081,1.91-2.347c2.319-0.19,3.154-0.38,5.245,0
		c2.053,0.684,2.542,1.521,1.973,2.775c-0.509,1.282-0.777,1.919-1.527,2.959c-0.899,1.672,0.989,1.958,1.565,1.958
		c1.21,0.148,3.008-0.394,3.806,0.518c0.114,0,0.57,1.938-0.798,2.964C413.202,252.331,404.764,257.805,401.114,256.778z
		 M444.92,230.943c-0.097,4.933-2.33,12.974-4.211,15.948c-7.028,10.611-17.217,11.327-25.841,12.328
		c-5.003-0.148-4.996-4.263,1.192-7.84c1.951-1.549,7.932-3.544,10.735-5.634c2.804-2.091,5.794-6.417,8.493-9.876
		c1.22-3.278,1.317-4.68,1.711-7.282c-0.702-27.412-4.105-50.646-8.678-81.573c-0.761-4.919-0.098-10.5,1.802-13.61
		c1.806-3.827,2.185-2.396,3.276-0.251c3.071,4.801,11.822,16.043,10.349,17.547c-1.005,1.647-3.815,0.06-4.374,1.492
		c-0.345,0.611,0.556,5.298,0.834,7.334C444.543,180.429,445.578,202.018,444.92,230.943z"/>
	<path fill="#FFFFFF" d="M73.752,180.303c12.292,1.182,5.514-20.805,9.964-24.792c0.841-1.97,2.392-1.98,2.521,0.504v18.65
		c-0.113,6.064,3.874,7.851,6.972,9.104c3.223-0.249,5.375-0.142,6.638,2.995c0.504,10.753,1.009,21.507,1.513,32.26
		c0,0,7.476,2.14,7.831-18.145c0.357-11.911-2.379-21.881-0.774-24.198c0.057-2.277,2.964-2.413,4.98-1.304
		c3.213,2.267,4.645,5.066,9.638,3.946c7.599-2.093,12.165-5.789,12.278-11.624c-0.444-5.544-1.065-11.09-3.468-16.634
		c0.335-1.008-1.467-3.621-1.133-4.629c1.365,2.139,3.443,1.961,3.916,0c-1.293-4.262-3.3-8.345-6.553-10.111
		c-2.688-2.369-6.623-1.885-8.063,3.055c-0.668,5.692,2.052,12.455,6.196,17.968c0.88,2.154,2.117,5.733,1.573,8.957
		c-2.206,1.258-4.411,0.734-6.259-1.217c0,0-6.048-4.536-6.048-5.544c1.604-10.275,0.355-11.44-0.534-14.292
		c-0.621-3.937-2.489-5.199-4.002-7.887c-1.514-1.604-3.561-1.604-4.538,0c-2.674,4.634-1.427,14.583,0.504,19.038
		c1.396,4.099,3.528,6.67,2.521,6.67c-0.83,2.316-2.545,1.782-3.793-0.892c-1.781-5.525-2.139-13.768-2.139-17.481
		c-0.534-4.602-1.121-14.418-4.15-16.913c-1.848-2.517-4.587-1.289-5.544,1.007c-0.199,4.568-0.22,9.135,0.294,13.345
		c2.078,7.384,2.73,13.875,3.738,21.437c0.28,10.128-5.855,4.395-5.575-0.626c1.415-6.522,1.048-16.787-0.209-19.389
		c-0.997-2.602-2.174-3.244-4.599-2.815c-1.925-0.118-6.878,5.291-8.268,14.261c0,0-1.187,4.618-1.692,8.717
		c-0.68,4.633-3.729,7.903-5.868-0.651c-1.849-6.217-2.984-21.523-6.08-17.939C64.653,157.095,63.589,178.144,73.752,180.303z"/>
	<path fill="#FFFFFF" d="M92.259,189.036c-10.112,0.185-24.94,13.282-25.33,20.538C77.6,204.45,88.091,199.503,98.938,194.2
		C97.188,191.586,98.841,189.22,92.259,189.036z"/>
	<path fill="#FFFFFF" d="M148.059,228.291c4.693-15.625-0.773-27.148,1.781-27.09c5.406,5.823,12.95,0.773,14.613-1.247
		c0.714-1.011,2.497-1.663,3.744-0.356c4.217,3.031,11.645,1.603,13.188-3.743c0.893-5.228,1.605-10.634,1.784-16.216
		c-3.447,1.07-6.001,1.781-6.238,3.208c-0.238,1.545-0.475,3.088-0.713,4.633c-0.297,1.486-3.269,1.544-3.387-0.357
		c-1.307-5.941-6.713-6.713-9.98,2.497c-2.198,1.781-6.178,2.138-6.595-0.535c0.534-6.178-1.961-7.011-6.95-4.1
		c-1.604-12.238-3.207-23.94-4.812-36.178c2.079-0.06,3.981,1.484,5.883-0.892c-2.082-6.475-6.477-19.723-8.913-20.673
		c-1.188-1.425-2.2-0.534-3.743-0.178c-2.613,0.832-5.05,3.089-4.277,7.486c3.089,18.771,5.109,33.089,8.198,51.862
		c0.476,2.198-1.366,5.107-3.742,4.811c-4.039-2.733-5.047-8.257-11.94-8.021c-4.99,0.06-10.694,5.466-11.405,10.696
		c-0.832,4.156-1.13,8.671-0.002,12.295c3.507,4.217,7.724,3.803,11.407,2.852c3.029-1.247,5.524-4.277,6.595-3.565
		c0.713,0.892,0.176,10.87-14.259,18.535c-8.732,3.921-15.684,4.812-19.424-2.317c-2.317-4.456,0.177-21.386-5.527-17.464
		c-16.869,43.485,39.504,49.545,45.804,1.781c0.594-1.96,2.971-3.921,3.387-0.713c-1.308,43.247-43.605,46.218-50.793,32.613
		c-1.781-3.207-2.317-10.335-2.496-14.614c-1.069-8.494-5.523-5.228-6.236,3.208c-0.714,4.693-0.535,6.001-0.535,10.516
		C84.732,271.182,139.208,256.509,148.059,228.291z M127.032,198.752c-0.334,0.658-1.891,0.395-3.004,0.395
		c-1.284-0.057-1.899-0.269-2.67-1.313c-0.369-1.161,0.73-2.283,1.225-3.149c0.606-1.032,3.846-2.113,5.006,0.787
		C128.089,196.744,127.632,198.092,127.032,198.752z"/>
	<path fill="#FFFFFF" d="M153.05,160.027c0.443,0.594,11.494,0.564,11.85,0c3.387-1.248,19.429-19.604,19.429-19.604
		c-0.833-0.713-1.576-1.248-2.408-1.961c-0.892-0.772-0.802-1.544,0-2.317c3.979-2.316,2.703-7.396,0.624-9.712
		c-3.446-1.545-6.446-1.04-8.645,0.089c-2.792,2.673-3.444,6.95-1.246,9.624c2.14,1.01,4.277,3.179,2.851,4.367
		C168.942,147.522,150.97,159.611,153.05,160.027z M176.785,131.207c1.015-0.249,2.339,0.655,2.96,2.018s0.302,2.669-0.712,2.917
		c-1.014,0.248-2.339-0.655-2.959-2.019C175.453,132.761,175.772,131.455,176.785,131.207z"/>
	<path fill="#FFFFFF" d="M72.635,242.721c-2.66,5.4-3.764,1.696-3.997-1.322c-0.408-5.723,0.131-10.994,0.752-15.168
		c0.662-4.278-0.011-2.97-1.363-1.244c-6.016,9.584-6.539,23.902-3.22,28.171c1.764,2.017,4.662,2.9,6.806,2.269
		c3.779-1.639,5.434-9.297,4.537-12.098C74.888,241.354,73.894,241.042,72.635,242.721z"/>
	<path fill="#FFFFFF" d="M324.592,227.89c2.649-1.259,2.07-16.154,0.521-18.25c-5.817-12.521-13.87-24.893-16.433-29.646
		c-0.949-1.762-4.205-6.729-8.069-12.44c0.562,6.089,1.12,13.287,1.521,19.85C309.825,199.959,317.268,213.271,324.592,227.89z"/>
	<path fill="#FFFFFF" d="M270.786,141.378c6.891,9.263,13.503,18.564,19.915,28.177c-1.092-7.191-2.471-14.547-4.165-22.162
		c-1.216-1.657-2.139-2.862-2.607-3.382c-3.151-3.744-0.577-2.952,1.224-3.1c-0.391-1.707-0.718-3.442-0.73-5.3
		c-0.668-0.935-1.508-2.023-2.579-3.315c-4.686-4.02-4.958-4.265-8.848-7.544c-1.962-1.393-6.752-3.936-7.601,0.28
		c-0.426,3.716-0.195,5.732,0.429,8.827C266.302,135.92,269.308,139.376,270.786,141.378z"/>
	<path fill="#FFFFFF" d="M326.755,231.743c-6.772,7.072-16.548,15.776-27.177,19.791c-1.144,1.284,2.824,6.775,7.979,6.771
		c8.624-1.001,16.215-5.845,23.243-18.595c1.88-2.974,5.184-9.333,5.28-14.267c0.657-28.924-1.448-51.432-5.781-72.336
		c-0.278-2.037-0.108-4.43,0.236-5.041c0.558-0.667,2.452,0.003,3.456-1.644c1.474-1.505-3.914-13.97-6.985-18.771
		c-1.091-2.144-1.471-3.575-3.275,0.252c-1.899,3.111-3.175,8.539-3.025,13.61c4.114,28.481,5.377,53.397,8.065,81.878
		C328.99,226.145,328.586,230.147,326.755,231.743z"/>
	<path fill="#FFFFFF" d="M439.375,152.189c0.559-1.432,3.369,0.156,4.374-1.492c1.474-1.504-7.277-12.746-10.349-17.547
		c-1.092-2.144-1.471-3.575-3.276,0.251c-1.899,3.111-2.562,8.691-1.802,13.61c4.572,30.927,7.976,54.162,8.678,81.573
		c-0.394,2.602-0.491,4.004-1.711,7.282c-2.699,3.46-5.689,7.785-8.493,9.876c-2.804,2.09-8.784,4.085-10.735,5.634
		c-6.188,3.577-6.195,7.692-1.192,7.84c8.624-1.001,18.812-1.717,25.841-12.328c1.881-2.974,4.114-11.015,4.211-15.948
		c0.658-28.925-0.377-50.514-4.711-71.419C439.931,157.487,439.031,152.8,439.375,152.189z"/>
	<path fill="#FFFFFF" d="M418.699,194.035c-0.346-0.992-0.739-1.948-1.188-2.869c-1.767-4.105-0.67-7.405-1.5-11.778
		c-0.828-4.372-0.624-10.919-1.877-16.108c-0.344-2.026-1.396-8.515-1.071-9.137c0.511-1.448,2.456,0.045,3.407-1.633
		c1.423-1.551-4.937-18.007-8.163-22.706c-1.16-2.106-3.267-1.385-5.864,2.041c-2.409,2.254-1.516,7.395-0.596,12.286
		c2.277,11.883,4.338,23.35,5.987,34.631c3.034,4.053,5.365,7.273,6.127,8.551C414.862,188.822,416.573,191.17,418.699,194.035z"/>
	<path fill="#FFFFFF" d="M411.643,236.385c-0.309,2.613,9.127-7.795,9.062-12.729c-0.039-4.012-0.005-7.71-0.006-11.138
		c-3.436-5.173-6.957-10.19-10.537-15.08C411.47,210.382,412.073,223.246,411.643,236.385z"/>
	<path fill="#FFFFFF" d="M374.984,183.6c0.072-3.963,0.46-9.223,0.675-12.5c0.092-1.238,0.377-2.605,1.562-2.916
		c1.185-0.31,3.271,1.202,3.293-0.086c-0.215-2.521-0.737-6.256-2.162-8.013c-1.945-2.883-7.112-2.18-8.013,2.341
		c0.008,1.667,0.781,2.569,0.637,4.082c-0.216,0.865-1.118,1.45-3.243,0.432c0.332-0.305-1.386-2.71-1.386-2.71
		c-1.658-1.009-3.875,0.043-5.315,0.981c-0.793,1.44-1.37,3.9-0.471,6.421C362.94,176.027,371.091,183.529,374.984,183.6z"/>
	<path fill="#FFFFFF" d="M285.153,140.911c0.37,1.62,0.791,3.216,1.033,4.874c0.123,0.542,0.23,1.07,0.351,1.609
		c1.694,7.615,3.073,14.971,4.165,22.162c1.284,8.467,2.187,16.719,2.743,24.916c1.063,15.651,1.39,32.571,0.419,49.054
		c2.933,0.116,7.646-4.744,9.296-11.849c1.072-9.828-0.396-27.33-0.494-33.129c-0.091-3.172-0.282-7.033-0.533-11.142
		c-0.401-6.563-0.959-13.761-1.521-19.85c-0.606-6.561-1.217-11.828-1.642-13.589c-1.2-8.333,3.428,0.915,2.787-3.929
		c-1.501-8.322-6.116-13.962-11.542-21.584c-1.749-2.479-1.69-2.985-4.392,0.608c-1.063,2.412-1.414,4.552-1.4,6.551
		C284.435,137.468,284.762,139.204,285.153,140.911z"/>
	<path fill="#FFFFFF" d="M401.078,185.402c3.056,3.935,6.088,7.943,9.084,12.036c3.58,4.89,7.102,9.907,10.537,15.08
		c4.564,6.873,8.98,14.008,13.157,21.51c2.593-1.374,1.73-16.066,0.091-18.092c-4.629-7.768-10.841-15.961-15.248-21.901
		c-2.126-2.865-3.838-5.213-4.738-6.723c-0.762-1.277-3.093-4.498-6.127-8.551c-3.155-4.214-7.071-9.328-10.792-14.113
		c0.732,3.8,3.888,19.53,4.031,20.599C401.074,185.298,401.076,185.352,401.078,185.402z"/>
	<path fill="#FFFFFF" d="M372.241,149.761c5.695,6.997,11.532,14.042,17.382,21.247c-1.199-6.728-2.399-13.457-3.6-20.186
		c-0.534-0.631-0.953-1.107-1.21-1.369c-8.56-8.993,3.927-1.463-1.639-8.409c-4.706-5.168-6.079-6.791-10.107-9.898
		c-2.02-1.306-3.244-3.798-3.907,0.45c-0.265,3.732-0.54,8.049-0.289,11.195C368.857,144.54,370.677,147.825,372.241,149.761z"/>
	<path fill="#1BA400" d="M122.583,194.685c-0.494,0.866-1.594,1.988-1.225,3.149c0.771,1.044,1.386,1.256,2.67,1.313
		c1.113,0,2.67,0.263,3.004-0.395c0.6-0.661,1.057-2.008,0.557-3.281C126.429,192.572,123.19,193.653,122.583,194.685z"/>
	<path fill="#FFFFFF" d="M387.056,362.85c-2.515,0.381-9.553,1.076-9.553,1.076c-8.163-0.971-14.17-1.053-23.348-1.391h0.001
		c1.068-1.355,3.197-7.935-1.658-7.57c-0.908,0.066-1.175-3.457-1.69-3.103c-6.07,1.558-5.929,7.931-1.985,10.629
		c-41.225-2.867-82.096-2.868-123.325-3.585c-20.913,0.598-39.675,2.27-60.229,2.51c-11.114,0.717-49.116-1.434-49.834-1.434
		c8.008,11.711,19.599,14.102,34.776,14.341c28.442-1.195,56.885-2.391,85.685-2.511c36.803-0.478,74.686,1.195,112.21,2.151
		c0.155,1.39,0.565,0.372-0.927,3.537c-0.722,4.412,1.728,10.217,3.795,10.444c2.485,0.586,3.574-1.234,4.411-2.549
		c4.063,0.357,6.225-0.424,10.288-0.064c3.823,0.238,7.648,0.224,11.473,0.463c2.904,0.402,5.301,0.296,7.064-0.441
		c1.404,2.066,2.81,4.008,5.482,3.668c4.679-1.004,8.344-1.5,8.46-10.995C398.152,378.026,397.681,361.837,387.056,362.85z
		 M382.071,380.246c-3.04-0.076-4.792-0.151-7.832-0.229c-0.104-2.979-7.706-2.488-7.487,0.096
		c-4.104,0.493-7.807-0.144-11.911-0.295c-1.214-1.512-1.059-4.232,0.389-4.856c9.351,0.456,18.137,0.106,27.487,0.562
		C384.409,376.965,383.199,380.5,382.071,380.246z"/>
	<path fill="#FFFFFF" d="M199.021,170.768c4.916,2.036,8.046-7.316,10.059-17.562c1.377-2.875,2.418-3.182,3.125-1.704
		c-0.182,13.625,0.978,16.643,4.48,20.778c7.814,6.028,14.278,0.77,14.785,0.262l6.084-6.084c1.354-1.424,3.157-1.508,5.07-0.253
		c1.858,1.689,1.598,4.608,5.577,6.632c3.35,1.34,10.51,0.31,12.169-2.576c2.232-3.826,2.768-5.14,3.802-6.591
		c1.594-2.121,4.311-1.178,4.311-0.508c-0.254,1.183-1.849,2.367-0.761,4.497c1.895,1.421,2.332,0.506,3.453,0.191
		c3.964-1.895,6.94-10.519,6.94-10.519c0.176-3.208-1.622-2.942-2.788-2.282c-1.521,0.93-1.621,1.227-3.142,2.157
		c-1.938,0.288-5.698,1.573-7.558-1.306c-1.897-3.46-1.924-8.289-3.375-11.779c0-0.254-2.519-5.498-0.174-5.833
		c1.183,0.22,3.706,0.888,4.107-1.237c1.24-2.072-2.656-7.937-5.323-10.901c-2.315-2.541-5.523-2.848-8.619-0.253
		c-2.169,1.995-1.857,4.225-2.282,6.337c-0.552,2.426-0.435,5.411,2.028,8.619c2.164,4.268,6.113,9.764,4.816,17.492
		c0,0-2.307,3.653-6.325,3.175c-1.676-0.365-4.392-1.077-5.843-11.794c-1.099-8.112,0.259-19.462-3.185-24.784
		c-1.243-3.213-2.151-6.315-5.182-0.82c-0.814,2.158-4.31,5.433-1.774,12.168c2.073,4.271,2.918,11.221,1.977,18.953
		c-1.437,2.197-1.756,2.942-3.64,5.139c-2.646,2.845-5.518,2.119-7.717,1.057c-2.055-1.385-3.664-2.101-4.603-6.501
		c0.17-7.013,0.561-18.493-0.721-20.929c-1.89-3.772-5.007-2.408-6.339-1.269c-6.396,5.849-9.557,15.718-11.488,23.577
		c-1.773,5.727-3.661,4.086-4.988,1.775c-3.232-3.028-3.451-26.708-7.353-22.815C182.379,153.136,192.207,172.67,199.021,170.768z"
		/>
	<path fill="#FFFFFF" d="M292.064,208.988l-1.867-1.079l-36.594-0.166c-1.898-0.731-1.34-1.349,0-1.856
		c8.733-1.19,24.277-3.72,25.308-18.642c-0.161-7.773-3.336-12.865-12.873-14.275c-7.008,0.542-12.008,7.336-11.201,14.799
		c-0.336,2.009,0.664,5.949-1.392,6.396c-13.443,1.228-28.104,9.628-28.596,15.657c-0.827,0.559-2.638-1.067-2.414-3.635
		c-0.512-10.421-3.926-22.183-9.238-31.266c-4.243-4.242-2.916-2.837-5.754-0.828c-1.832,2.083-2.172,3.533-2.059,7.709
		c0,0.158,3.419,9.722,6.322,16.42c1.927,6.853,3.743,14.711,2.434,22.123c-4.511,9.798-13.6,18.592-22.354,23.367
		c-4.53,1.451-8.384,0.935-9.341-0.07c-2.778-1.868-2.647-5.322-2.45-5.393c7.387-5.145,15.829-9.29,22.436-23.18
		c1.95-5.308,2.542-8.499,0.604-16.708c-0.758-3.066-1.737-5.572-3.835-7.745c1.186-0.769,4.602,1.811,5.118,0.261
		c-0.772-3.919-3.441-9.18-6.446-11.872c-2.632-2.39-5.486-2.661-7.895-0.474c-2.714,1.51-3.305,6.929-1.998,11.675
		c1.451,3.573,5.364,4.184,8.155,11.375c0,0.158,1.016,5.365-0.436,7.421c-1.149,3.585-16.028,15.277-16.856,15.805
		c-0.425,0.5-0.228-0.261-0.282-2.206c-0.105-2.369,0.941-7.984,0.662-8.008c-4.844,3.127-6.452,12.731-7.337,15.569
		c-12.263,8.473-26.147,14.779-34.168,23.363c-4.177,6.523,28.778-7.48,32.607-9.173c0.842,0.631,0.754,3.547,3.048,6.188
		c3.425,4.64,10.679,7.497,17.765,5.727c11.881-4.294,18.738-12.385,25.707-21.369c0.996-1.449,2.551-2.562,3.993-1.443
		c4.789,10.722,18.621,18.318,36.472,19.103c4.13-5.023,2.148-7.474,0.474-8.525c0-0.159-8.82-3.505-10.16-6.854
		c-0.817-3.02,1.156-5.703,5.138-7.717c11.462-1.386,22.738-2.922,33.642-6.428c0.11-3.663,2.24-9.149,3.685-11.528
		S292.287,209.86,292.064,208.988z M261.961,186.175c0.535-0.925,2.344-0.88,4.04,0.101s2.637,2.526,2.102,3.452
		c-0.534,0.925-2.344,0.88-4.039-0.102C262.367,188.645,261.426,187.1,261.961,186.175z M247.238,223.165
		c-3.924,1.344-7.695,2.394-7.713,8.064c1.451,7.902-1.991,5.19-4.044,4.117c-2.419-1.737-9.208-5.919-10.176-14.95
		c-0.146-2.155,1.535-3.968,4.24-3.956c4.075,1.107,10.087,1.188,15.301,1.726C249.093,218.435,251.215,221.768,247.238,223.165z"/>
	<path fill="#FFFFFF" d="M111.633,135.463c4.212,2.009,12.13,1.154,11.796-5.637c0-0.601-0.153-2.633-0.213-3.183
		c-0.859-2.002-3.205-1.508-3.737,0.56c-0.167,0.677,0.299,1.779-0.314,2.12c-0.353,0.355-1.698,0.146-1.643-1.73
		c0-0.598-0.44-1.241-0.705-1.619c-0.267-0.175-0.436-0.223-0.918-0.223c-0.587,0.024-0.578,0.177-0.9,0.67
		c-0.136,0.502-0.325,0.994-0.325,1.563c-0.073,0.668-0.324,0.906-0.816,1.004c-0.549,0-0.425,0.061-0.869-0.223
		c-0.265-0.289-0.595-0.399-0.595-0.893c0-0.511-0.116-1.338-0.27-1.675c-0.233-0.308-0.608-0.45-1.03-0.558
		c-2.301,0.008-2.459,2.632-2.327,3.628C108.593,129.454,108.495,134.161,111.633,135.463z"/>
	<path fill="#FFFFFF" d="M235.103,187.729c4.212,2.009,14.238,0.853,11.796-5.637c0-0.601-0.152-2.633-0.212-3.183
		c-0.86-2.002-3.206-1.508-3.737,0.56c-0.168,0.677,0.298,1.779-0.315,2.12c-0.352,0.355-1.697,0.146-1.642-1.73
		c0-0.598-0.44-1.241-0.706-1.62c-0.267-0.174-0.436-0.223-0.918-0.223c-0.587,0.023-0.578,0.176-0.899,0.67
		c-0.137,0.502-0.325,0.994-0.325,1.563c-0.073,0.668-0.325,0.906-0.816,1.004c-0.549,0-0.426,0.061-0.87-0.223
		c-0.265-0.289-0.595-0.399-0.595-0.893c0-0.511-0.115-1.338-0.27-1.675c-0.233-0.308-0.607-0.45-1.029-0.558
		c-2.301,0.008-2.46,2.632-2.328,3.627C232.064,181.72,231.965,186.426,235.103,187.729z"/>
	<path fill="#FFFFFF" d="M307.092,166.096c4.212,2.009,12.13,1.154,11.796-5.637c0-0.601-0.153-2.633-0.213-3.183
		c-0.859-2.002-3.206-1.508-3.737,0.56c-0.167,0.677,0.299,1.779-0.314,2.12c-0.353,0.355-1.698,0.146-1.643-1.73
		c0-0.598-0.44-1.241-0.706-1.62c-0.266-0.174-0.436-0.223-0.917-0.223c-0.588,0.023-0.578,0.176-0.9,0.67
		c-0.136,0.502-0.325,0.994-0.325,1.563c-0.073,0.668-0.325,0.906-0.816,1.004c-0.549,0-0.425,0.061-0.87-0.223
		c-0.264-0.289-0.594-0.399-0.594-0.893c0-0.511-0.116-1.338-0.27-1.675c-0.233-0.308-0.608-0.45-1.03-0.558
		c-2.3,0.008-2.459,2.632-2.327,3.627C304.053,160.087,303.954,164.793,307.092,166.096z"/>
	<path fill="#FFFFFF" d="M344.457,220.107C344.571,219.624,344.543,219.662,344.457,220.107L344.457,220.107z"/>
	<path fill="#FFFFFF" d="M389.627,171.032c1.265,16.076,1.582,29.232,2.848,45.308c-0.178,6.807-2.294,12.742-4.278,13.598
		c0,0-3.021,1.75-5.045-0.183c-1.473-0.591-7.368-9.825-7.368-9.825c-3.014-2.763-5.001-1.973-7.146,0
		c-5.914,5.711-8.59,16.394-12.609,23.762c-1.036,1.644-3.965,3.052-7.21-0.12c-6.651-9.087-4.789-21.268-4.361-23.466
		c-0.021,0.087-0.045,0.187-0.075,0.308l-0.001,0c-7.34,8.272-4.104,21.955-2.445,24.903c2.42,4.841,4.368,7.947,9.078,10.341
		c4.289,3.157,7.631,1.185,9.474-1.027c4.316-4.473,4.368-15.893,6.394-18.157c1.422-4.157,5-3.447,6.736-1.604
		c1.684,2.42,3.666,3.98,6.14,5.297c4.026,3.552,8.833,4.201,13.569,0.964c3.237-1.815,5.342-4.162,7.236-8.818
		c2.099-5.613,0.94-31.475,0.516-46.912c-0.002-0.051-0.004-0.104-0.005-0.155c-0.144-1.069-3.299-16.799-4.031-20.599
		c-0.096-0.5-0.152-0.802-0.152-0.828c0-0.224-0.532-10.205-0.975-12.583c-0.077-0.965-0.316-1.243,0.694-1.12
		c1.072,0.902,1.22,0.958,1.889,1.256c1.083,0.198,2.053-1.644,1.399-3.34c-3.35-6.177-6.699-12.355-10.048-18.532
		c-0.807-0.794-1.848-1.666-3.126,0.224c-1.223,1.071-2.523,3.011-2.483,5.503c0.297,4.392,1.069,8.86,1.366,13.252
		c0.139,0.78,0.278,1.561,0.417,2.341c1.2,6.729,2.4,13.458,3.6,20.186C389.624,171.016,389.625,171.024,389.627,171.032z"/>
	<path fill="#FFFFFF" d="M309.93,139.772c1.503,4.207-1.127,8.216,0.437,8.796c1.438,0.649,3.44-4.337,4.191-8.954
		c0.868-3.732-1.794-11.376-5.567-12.955c-2.313-0.545-5.565,0.807-4.502,3.897C303.947,132.031,309.095,137.034,309.93,139.772z"/>
	<path fill="#FFFFFF" d="M348.764,238.333c2.935,0.02,6.316-6.714,7.766-13.377c0.794-9.179-0.546-14.775-0.784-20.17
		c-0.237-5.395-6.103-46.558-7.291-50.64c-1.435-7.718,5.7-1.035,4.921-5.523c-2.469-5.659-8.611-13.899-10.541-18.815
		c-1.16-2.106-0.673-3.98-3.271-0.554c-2.409,7.876-3.245,14.313-2.325,19.204C343.426,180.748,349.771,207.596,348.764,238.333z"/>
	<path fill="#FFFFFF" d="M421.861,153.871c0.684,2.11-1.027,8.895,0.398,9.522c1.312,0.703,3.136-4.695,3.82-9.693
		c0.38-2.736-1.635-12.315-5.074-14.025c-2.11-0.589-5.075,0.875-4.106,4.22C416.406,145.49,421.1,150.906,421.861,153.871z"/>
	<path fill="#FFFFFF" d="M166.544,225.026c1.253,0.516,2.999-3.451,3.655-7.123c0.363-2.012-1.565-9.051-4.856-10.307
		c-2.02-0.435-4.782,0.114-3.93,3.101c-0.096,1.625,4.471,3.571,4.749,7.331C166.818,219.578,165.179,224.564,166.544,225.026z"/>
	<path fill="#1B9D00" d="M244.846,218.166c-5.214-0.538-11.226-0.619-15.301-1.726c-2.705-0.012-4.386,1.801-4.24,3.956
		c0.968,9.031,7.757,13.213,10.176,14.95c2.053,1.073,5.495,3.785,4.044-4.117c0.018-5.67,3.789-6.72,7.713-8.064
		C251.215,221.768,249.093,218.435,244.846,218.166z"/>
	<path fill="#FFFFFF" d="M77.882,135.203c0.646,1.608-0.646,6.777,0.698,7.254c1.235,0.536,2.954-3.576,3.602-7.383
		c0.358-2.086,0.071-9.222-4.783-10.686c-1.99-0.45-4.786,0.666-3.873,3.215C73.06,128.819,77.163,132.945,77.882,135.203z"/>
	<path fill="#FFFFFF" d="M173.27,158.035c-3.725,2.015-5.17,8.021-2.851,11.517c2.166,3.08,5.588,1.938,6.044,1.938
		c3.649,0.456,5.815-6.842,5.815-6.842s0.114-2.052-4.22,1.826c-1.823,0.342-2.052-0.343-2.508-1.37
		c-0.38-1.9-0.305-3.8,0.569-5.701C176.767,157.58,175.36,156.781,173.27,158.035z"/>
	<path fill="#FFFFFF" d="M196.559,135.284c1.188,1.711,2.385,1.557,4.78,0.302c1.376-1.014,1.841-1.687,2.305-3.386
		c0.57-2.851-3.014,1.352-3.47-1.821c-0.798-2.945,1.504-4.151,3.67-7.002c0.072-1.953,0.03-3.335-2.635-1.754
		c-1.872,1.255-5.599,5.115-5.712,9.562C195.384,133.694,194.916,133.687,196.559,135.284z"/>
	<path fill="#FFFFFF" d="M226.622,137.116c2.418-6.538,2.418-9.311,2.58-12.084c-0.753-4.225-3.602-4.092-5.483,0.595
		c-0.807,1.783-1.774,11.093-1.613,11.093C221.462,139.495,225.009,140.682,226.622,137.116z"/>
	<path fill="#FFFFFF" d="M385.63,183.491c0,0-19.514,13.869-19.998,14.353c-1.935,1.721-0.967,7.794,0,7.096
		c1.399,0.538,21.02-12.794,20.644-14.353C387.189,190.64,387.619,182.792,385.63,183.491z"/>
	<path fill="#FFFFFF" d="M383.229,221.126c1.312,0.703,4.749-3.566,4.627-8.888c0.38-2.736-0.99-12.799-4.43-14.509
		c-2.109-0.589-4.914,1.197-3.944,4.542c-0.494,1.597,2.427,7.174,3.188,10.138C383.354,214.52,381.803,220.499,383.229,221.126z"/>
	<path fill="#FFFFFF" d="M272.678,250.249c0,0.161,1.66,1.593,3.596,0.464c4.085-1.559,6.648-3.091,12.369-4.334
		c1.502-0.03,1.408-4.05-0.967-4.193c-3.099,0.156-5.969,0.312-9.066,2.75c-1.907,0.44-2.217-0.714-2.64-1.755
		c-0.484-2.581,1.062-4.382,0.74-6.317c0.114,0.114-1.775-1.613-3.709-0.645c-0.096,0-4.288,2.855-5.646,4.838
		c-0.827,0.63-0.745,1.162-0.491,2.257c0.646,1.483,1.782,1.021,3.072,0.323c1.712-0.233,2.54,0.894,2.399,2.95
		C271.545,249.151,272.678,250.088,272.678,250.249z"/>
	<path fill="#FFFFFF" d="M414,249.252c-0.798-0.912-2.596-0.37-3.806-0.518c-0.576,0-2.465-0.286-1.565-1.958
		c0.75-1.041,1.019-1.677,1.527-2.959c0.569-1.254,0.08-2.091-1.973-2.775c-2.091-0.38-2.926-0.19-5.245,0
		c-1.254,0.266-1.683,0.827-1.91,2.347c0.09,2.306,1.492,2.175,2.937,3.087c0.836,1.064,1.376,2.049-0.067,3.797
		c-1.368,1.254-2.333,1.944-3.701,3.198c-0.646,1.103-1.059,2.774,0.917,3.307c3.65,1.026,12.089-4.447,12.089-4.562
		C414.571,251.19,414.115,249.252,414,249.252z"/>
	
		<ellipse transform="matrix(-0.5006 0.8657 -0.8657 -0.5006 560.4196 52.621)" fill="#259F00" cx="265.032" cy="187.951" rx="1.935" ry="3.547"/>
	<path fill="#259F00" d="M179.033,136.143c1.014-0.249,1.333-1.555,0.712-2.917s-1.945-2.267-2.96-2.018
		c-1.014,0.248-1.332,1.554-0.711,2.917C176.695,135.487,178.02,136.391,179.033,136.143z"/>
	<path fill="#209000" d="M355.229,374.962c-1.447,0.624-1.603,3.345-0.389,4.856c4.104,0.151,7.807,0.788,11.911,0.295
		c-0.219-2.584,7.383-3.074,7.487-0.096c3.04,0.077,4.792,0.152,7.832,0.229c1.129,0.254,2.339-3.281,0.646-4.722
		C373.365,375.068,364.579,375.418,355.229,374.962z"/>
</g>
</svg>
