<?xml version="1.0" encoding="utf-8"?>
<!-- Generator: Adobe Illustrator 16.0.0, SVG Export Plug-In . SVG Version: 6.00 Build 0)  -->
<svg version="1.2" baseProfile="tiny"
	 id="svg548" xmlns:cc="http://creativecommons.org/ns#" xmlns:dc="http://purl.org/dc/elements/1.1/" xmlns:rdf="http://www.w3.org/1999/02/22-rdf-syntax-ns#"
	 xmlns="http://www.w3.org/2000/svg" xmlns:xlink="http://www.w3.org/1999/xlink" x="0px" y="0px" width="512px" height="512px"
	 viewBox="0 0 512 512" xml:space="preserve">
<g>
	<path fill="#0000D6" d="M511.984,0H0v485.343l511.983-256.4V0z M250.674,43.562l11.856-34.44l11.856,34.44l38.469-0.026
		l-31.143,21.253l11.916,34.425L262.525,77.91L231.42,99.209l11.922-34.42l-31.138-21.264L250.674,43.562z M59.535,43.562
		l11.856-34.44l11.855,34.44l38.47-0.026L90.574,64.789l11.916,34.425L71.386,77.91L40.281,99.209l11.922-34.42L21.066,43.525
		L59.535,43.562z M102.49,243.693l-31.104-21.304l-31.104,21.299l11.922-34.42l-31.138-21.264l38.47,0.036l11.856-34.44
		l11.855,34.44l38.47-0.026l-31.143,21.253L102.49,243.693z M167.516,150.994l-31.104,21.299l11.921-34.42l-31.137-21.264
		l38.47,0.036l11.855-34.44l11.856,34.44l38.47-0.026l-31.143,21.253l11.916,34.425L167.516,150.994z M293.629,243.693
		l-31.104-21.304l-31.104,21.299l11.922-34.42l-31.138-21.264l38.47,0.036l11.856-34.44l11.856,34.44l38.469-0.026l-31.143,21.253
		L293.629,243.693z"/>
	<polygon fill="#006000" points="54.862,511.983 511.984,511.983 511.984,283.504 	"/>
	<polygon fill="#FFCC00" points="511.984,228.942 0,485.343 0,507.164 0,511.983 27.175,511.983 54.862,511.983 511.984,283.504 	
		"/>
	<polygon fill="#FFFFFF" points="40.281,99.209 71.386,77.91 102.49,99.214 90.574,64.789 121.717,43.536 83.247,43.562 
		71.392,9.121 59.535,43.562 21.066,43.525 52.203,64.789 	"/>
	<polygon fill="#FFFFFF" points="231.42,99.209 262.525,77.91 293.629,99.214 281.713,64.789 312.856,43.536 274.387,43.562 
		262.531,9.121 250.674,43.562 212.204,43.525 243.342,64.789 	"/>
	<polygon fill="#FFFFFF" points="274.387,188.041 262.531,153.601 250.674,188.041 212.204,188.005 243.342,209.269 231.42,243.688 
		262.525,222.389 293.629,243.693 281.713,209.269 312.856,188.015 	"/>
	<polygon fill="#FFFFFF" points="217.847,116.62 179.377,116.646 167.521,82.205 155.665,116.646 117.196,116.609 148.332,137.873 
		136.411,172.293 167.516,150.994 198.62,172.298 186.704,137.873 	"/>
	<polygon fill="#FFFFFF" points="83.247,188.041 71.392,153.601 59.535,188.041 21.066,188.005 52.203,209.269 40.281,243.688 
		71.386,222.389 102.49,243.693 90.574,209.269 121.717,188.015 	"/>
</g>
</svg>
