<?xml version="1.0" encoding="utf-8"?>
<!-- Generator: Adobe Illustrator 16.0.0, SVG Export Plug-In . SVG Version: 6.00 Build 0)  -->
<svg version="1.2" baseProfile="tiny"
	 id="svg589" xmlns:cc="http://creativecommons.org/ns#" xmlns:dc="http://purl.org/dc/elements/1.1/" xmlns:rdf="http://www.w3.org/1999/02/22-rdf-syntax-ns#"
	 xmlns="http://www.w3.org/2000/svg" xmlns:xlink="http://www.w3.org/1999/xlink" x="0px" y="0px" width="512px" height="512px"
	 viewBox="0 0 512 512" xml:space="preserve">
<g>
	<rect x="0.001" y="0.305" fill="#004073" width="133.848" height="204.677"/>
	<rect x="0.001" y="307.378" fill="#003F73" width="133.848" height="204.589"/>
	<rect x="0.001" y="204.981" fill="#FFCC00" width="133.848" height="102.396"/>
	<polygon fill="#FFCC00" points="232.998,307.407 232.998,205.011 236.157,205.011 236.157,0.305 236.245,0.305 236.245,0.012 
		133.849,0.012 133.849,0.305 133.849,204.981 133.849,307.378 133.849,511.967 133.849,511.979 236.157,511.979 236.157,307.407 	
		"/>
	<polygon fill="#FFCC00" points="236.157,205.098 236.157,205.011 232.998,205.011 232.998,307.407 236.157,307.407 
		236.157,307.203 511.98,307.203 511.98,205.098 	"/>
	<polygon fill="#003F73" points="236.157,307.203 236.157,307.407 236.157,511.979 511.98,511.979 511.98,307.203 	"/>
	<polygon fill="#003F73" points="236.157,0.305 236.157,205.011 236.157,205.098 511.98,205.098 511.98,0.305 236.245,0.305 	"/>
</g>
</svg>
