<?xml version="1.0" encoding="utf-8"?>
<!-- Generator: Adobe Illustrator 16.0.0, SVG Export Plug-In . SVG Version: 6.00 Build 0)  -->
<svg version="1.2" baseProfile="tiny"
	 id="svg378" xmlns:cc="http://creativecommons.org/ns#" xmlns:dc="http://purl.org/dc/elements/1.1/" xmlns:rdf="http://www.w3.org/1999/02/22-rdf-syntax-ns#"
	 xmlns="http://www.w3.org/2000/svg" xmlns:xlink="http://www.w3.org/1999/xlink" x="0px" y="0px" width="512px" height="512px"
	 viewBox="0 0 512 512" xml:space="preserve">
<g>
	<rect x="0" y="256" fill="#FFFFFF" width="511.999" height="256"/>
	<path fill="#DF0000" d="M511.999,0H0v256h511.999V0z M44.24,156.256c-13.866-48.64,14.354-99.372,62.996-113.24
		c17.075-4.87,32.796-4.9,49.893-0.101c-35.46,8.13-61.808,34.386-69.257,70.085c-10.122,48.499,21.471,95.986,70.063,106.123
		C108.841,233.119,58.109,204.898,44.24,156.256z M148.405,133.426l-13.795-9.846l-13.728,9.938l5.102-16.153l-13.688-9.978
		l16.935-0.146l5.261-16.113l5.367,16.074l16.948,0.026l-13.622,10.071L148.405,133.426z M167.139,188.956l-13.795-9.846
		l-13.729,9.938l5.103-16.153l-13.688-9.978l16.935-0.146l5.261-16.114l5.367,16.074l16.948,0.027l-13.623,10.071L167.139,188.956z
		 M171.182,97.018l5.102-16.153l-13.688-9.978l16.935-0.146l5.261-16.114l5.367,16.074l16.948,0.026l-13.622,10.071l5.221,16.126
		l-13.795-9.846L171.182,97.018z M229.46,188.544l-13.794-9.846l-13.729,9.938l5.102-16.153l-13.688-9.978l16.936-0.146
		l5.261-16.113l5.366,16.074l16.948,0.026l-13.622,10.071L229.46,188.544z M234.248,123.624l-13.728,9.938l5.102-16.153
		l-13.688-9.978l16.935-0.146l5.261-16.113l5.367,16.074l16.948,0.026l-13.622,10.071l5.221,16.127L234.248,123.624z"/>
	<path fill="#FFFFFF" d="M87.872,113c7.449-35.699,33.797-61.955,69.257-70.085c-17.097-4.799-32.817-4.769-49.893,0.101
		c-48.642,13.868-76.862,64.6-62.996,113.24c13.868,48.642,64.601,76.863,113.695,62.866C109.343,208.986,77.75,161.499,87.872,113z
		"/>
	<polygon fill="#FFFFFF" points="139.858,107.202 134.49,91.128 129.23,107.241 112.295,107.387 125.984,117.365 120.882,133.519 
		134.61,123.58 148.405,133.426 143.184,117.299 156.806,107.228 	"/>
	<polygon fill="#FFFFFF" points="158.592,162.732 153.225,146.658 147.964,162.772 131.03,162.917 144.718,172.896 139.615,189.049 
		153.344,179.11 167.139,188.956 161.917,172.83 175.54,162.759 	"/>
	<polygon fill="#FFFFFF" points="220.913,162.32 215.547,146.247 210.286,162.36 193.351,162.506 207.039,172.484 201.938,188.637 
		215.666,178.699 229.46,188.544 224.24,172.418 237.862,162.347 	"/>
	<polygon fill="#FFFFFF" points="256.445,107.271 239.496,107.245 234.129,91.171 228.868,107.285 211.934,107.431 225.622,117.409 
		220.521,133.562 234.248,123.624 248.043,133.469 242.823,117.342 	"/>
	<polygon fill="#FFFFFF" points="193.484,80.799 207.106,70.728 190.157,70.701 184.79,54.627 179.53,70.741 162.595,70.887 
		176.283,80.865 171.182,97.018 184.909,87.08 198.704,96.925 	"/>
</g>
</svg>
