<?xml version="1.0" encoding="utf-8"?>
<!-- Generator: Adobe Illustrator 16.0.0, SVG Export Plug-In . SVG Version: 6.00 Build 0)  -->
<svg version="1.2" baseProfile="tiny"
	 id="svg552" xmlns:cc="http://creativecommons.org/ns#" xmlns:dc="http://purl.org/dc/elements/1.1/" xmlns:rdf="http://www.w3.org/1999/02/22-rdf-syntax-ns#"
	 xmlns="http://www.w3.org/2000/svg" xmlns:xlink="http://www.w3.org/1999/xlink" x="0px" y="0px" width="512px" height="512px"
	 viewBox="0 0 512 512" xml:space="preserve">
<g>
	<path fill="#FFFFFF" d="M77.681,92.978l5.854-1.971c0.001,0,0.002-0.001,0.003-0.001c-0.002-0.037-0.004-0.071-0.006-0.108
		c11.534-3.603,20.577-6.417,27.08-7.701c9.312-1.972,17.228-4.293,42.256-4.724c25.028,0.431,33.036,2.752,42.35,4.724
		c6.503,1.283,15.732,4.098,27.373,7.763c-0.002,0.036-0.004,0.07-0.007,0.106l5.775,1.912c-2.197,33.702-3.883,59.06-6.492,77.692
		h290.134V0H0v170.67h84.174C81.565,152.037,79.878,126.679,77.681,92.978z"/>
	<rect x="0" y="341.341" fill="#DE2918" width="512.001" height="170.66"/>
	<path fill="#08399C" d="M512.001,170.67H221.867c-2.164,15.453-4.961,26.286-9.217,33.37
		c-10.15,16.789-20.024,29.082-59.629,43.883c-39.605-14.801-49.479-27.094-59.63-43.883c-4.256-7.086-7.053-17.918-9.217-33.37H0
		v170.67h512.001V170.67z"/>
	<path fill="#DE2918" d="M222.583,91.066c-3.799,61.444-6.979,89.593-11.937,103.132c-9.626,23.193-24.865,35.909-57.664,48.039
		c-32.798-12.129-48.037-24.845-57.663-48.039c-4.958-13.537-8.091-41.605-11.782-103.192c-0.001,0-0.002,0-0.003,0.001
		l-5.854,1.971c2.197,33.701,3.884,59.059,6.493,77.692c2.164,15.452,4.961,26.284,9.217,33.37
		c10.15,16.789,20.024,29.082,59.63,43.883c39.604-14.801,49.479-27.094,59.629-43.883c4.256-7.084,7.054-17.917,9.217-33.37
		c2.609-18.633,4.295-43.991,6.492-77.692L222.583,91.066z"/>
	<path fill="#08399C" d="M95.32,194.198c9.626,23.193,24.865,35.909,57.663,48.039c32.799-12.129,48.038-24.845,57.664-48.039
		c4.958-13.539,8.138-41.688,11.937-103.132c0.002-0.036,0.005-0.07,0.007-0.106c-11.641-3.665-20.87-6.479-27.373-7.763
		c-9.313-1.972-17.321-4.293-42.35-4.724c-25.028,0.431-32.943,2.752-42.256,4.724c-6.503,1.283-15.546,4.098-27.08,7.701
		c0.002,0.037,0.004,0.071,0.006,0.108C87.228,152.593,90.362,180.661,95.32,194.198z M201.683,172.039l2.768,4.555l3.831,3.028
		c-0.731,6.211-2.644,11.916-5.057,16.958l0.136,0.271l-3.643,6.182h-0.042c-0.745,1.198-1.5,2.348-2.26,3.432l0.054-0.016
		l0.163,0.135l-4.835,5.959l-0.114-0.008c-1.089,1.265-2.121,2.391-3.027,3.326c-6.545,6.355-20.226,14.978-36.773,20.486
		c-16.501-5.628-29.995-14.131-36.54-20.486c-0.905-0.935-1.936-2.059-3.024-3.323l-0.073,0.005l-4.543-5.615l0.054-0.223
		c-0.836-1.181-1.667-2.436-2.485-3.754l-0.032,0l-0.618-1.047c-0.03-0.05-0.06-0.102-0.09-0.153l-2.944-4.987l0.136-0.142
		l0.072,0.012c-2.419-5.04-4.337-10.741-5.065-16.942l3.821-3.099l2.769-4.555l5.422-4.704l2.826-4.753l5.422-4.852l2.653-4.752
		l2.883-2.328l1.903-1.832l4.898,4.295l2.67,4.665l3.327,3.017l3.654-2.855l2.764-4.866l10.259-18.217l10.259,18.217l2.763,4.866
		l3.655,2.855l3.326-3.017l2.67-4.665l4.898-4.295l1.903,1.832l2.884,2.328l2.652,4.752l5.423,4.852l2.825,4.753L201.683,172.039z
		 M177.781,94.153l-6.298,1.056l-1.916,3.373l-2.155-3.474l-5.995-0.851l4.08-2.957l-4.2-2.691l6.636-1.017l1.514-3.703l1.573,3.723
		l6.91,0.947l-4.479,2.7L177.781,94.153z M154.523,113.51l6.91,0.948l-4.478,2.7l4.329,2.894l-6.297,1.056l-1.917,3.373
		l-2.154-3.474l-5.995-0.851l4.08-2.957l-4.201-2.691l6.636-1.018l1.515-3.702L154.523,113.51z M128.318,88.553l6.636-1.017
		l1.515-3.703l1.572,3.723l6.91,0.947l-4.478,2.7l4.329,2.894l-6.297,1.056l-1.917,3.373l-2.154-3.474l-5.995-0.851l4.08-2.957
		L128.318,88.553z"/>
	<polygon fill="#FFCC00" points="144.8,114.508 149.001,117.199 144.921,120.156 150.916,121.007 153.071,124.48 154.988,121.107 
		161.284,120.052 156.955,117.158 161.433,114.458 154.523,113.51 152.95,109.788 151.436,113.49 	"/>
	<path fill="#FFFFFF" d="M193.435,162.582l-5.423-4.852l-2.652-4.752l-2.884-2.328l-1.903-1.832l-4.898,4.295l-2.67,4.665
		l-3.326,3.017l-3.655-2.855l-2.763-4.866l-10.259-18.217l-10.259,18.217l-2.764,4.866l-3.654,2.855l-3.327-3.017l-2.67-4.665
		l-4.898-4.295l-1.903,1.832l-2.883,2.328l-2.653,4.752l-5.422,4.852l-2.826,4.753l-5.422,4.704l-2.769,4.555l-3.821,3.099
		c0.729,6.201,2.646,11.902,5.065,16.942l11.1,1.836l6.892-0.513l8.348-4.094l9.409,0.057l8.148,3.981l6.428,0.568l6.427-0.568
		l8.148-3.981l9.409-0.057l8.348,4.094l6.892,0.513l10.874-1.907l0.008,0.016c2.413-5.042,4.326-10.747,5.057-16.958l-3.831-3.028
		l-2.768-4.555l-5.423-4.704L193.435,162.582z"/>
	<path fill="#FFFFFF" d="M105.621,201.904l-0.09-0.153C105.561,201.802,105.591,201.854,105.621,201.904z"/>
	<path fill="#FFFFFF" d="M176.955,207.936l-9.408,0.057l-8.148,3.981l-6.428,0.568l-6.428-0.568l-8.148-3.981l-9.409-0.057
		l-8.348,4.094l-7.319,0.508c1.088,1.264,2.119,2.388,3.024,3.323c6.545,6.355,20.039,14.858,36.54,20.486
		c16.548-5.508,30.229-14.131,36.773-20.486c0.906-0.935,1.938-2.061,3.027-3.326l-7.38-0.505L176.955,207.936z"/>
	<path fill="#FFFFFF" d="M185.358,202.542l-8.347-4.095l-9.409,0.057l-8.148,3.981l-6.428,0.568l-6.428-0.568l-8.148-3.981
		l-9.409-0.057l-8.348,4.095l-6.892,0.512l-7.53-0.103c0.818,1.318,1.649,2.573,2.485,3.754l0.006-0.026l5.077,1.279l6.892-0.513
		l8.348-4.094l9.409,0.057l8.148,3.981l6.428,0.568l6.427-0.568l8.148-3.981l9.409-0.057l8.348,4.094l6.892,0.513l5.127-1.495
		c0.761-1.083,1.516-2.234,2.26-3.432l-7.426,0.022L185.358,202.542z"/>
	<polygon fill="#FFCC00" points="171.019,87.612 169.446,83.89 167.932,87.592 161.296,88.609 165.496,91.301 161.416,94.258 
		167.411,95.108 169.567,98.582 171.483,95.209 177.781,94.153 173.45,91.259 177.929,88.56 	"/>
	<polygon fill="#FFCC00" points="134.434,95.052 136.588,98.525 138.505,95.152 144.802,94.097 140.473,91.203 144.95,88.503 
		138.04,87.556 136.468,83.833 134.953,87.536 128.318,88.553 132.519,91.244 128.439,94.201 	"/>
	<polygon fill="#08399C" points="192.343,198.47 185.451,197.958 177.104,193.863 167.695,193.92 159.546,197.901 153.119,198.469 
		146.692,197.901 138.543,193.92 129.134,193.863 120.786,197.958 113.895,198.47 102.795,196.634 102.723,196.622 102.587,196.764 
		105.531,201.751 105.621,201.904 106.24,202.951 106.271,202.951 113.801,203.054 120.693,202.542 129.04,198.447 138.449,198.504 
		146.598,202.485 153.026,203.053 159.453,202.485 167.602,198.504 177.011,198.447 185.358,202.542 192.249,203.054 
		199.676,203.032 199.718,203.032 203.361,196.85 203.225,196.579 203.217,196.563 	"/>
	<polygon fill="#08399C" points="185.397,207.445 177.049,203.351 167.64,203.408 159.491,207.389 153.065,207.957 146.637,207.389 
		138.489,203.408 129.079,203.351 120.732,207.445 113.84,207.958 108.763,206.679 108.757,206.705 108.702,206.928 
		113.245,212.542 113.319,212.538 120.638,212.03 128.986,207.936 138.395,207.992 146.543,211.973 152.971,212.542 
		159.399,211.973 167.547,207.992 176.955,207.936 185.303,212.03 192.683,212.535 192.797,212.542 197.632,206.583 
		197.469,206.448 197.415,206.463 192.288,207.958 	"/>
</g>
</svg>
