<?xml version="1.0" encoding="utf-8"?>
<!-- Generator: Adobe Illustrator 16.0.0, SVG Export Plug-In . SVG Version: 6.00 Build 0)  -->
<svg version="1.2" baseProfile="tiny"
	 id="svg378" xmlns:cc="http://creativecommons.org/ns#" xmlns:dc="http://purl.org/dc/elements/1.1/" xmlns:rdf="http://www.w3.org/1999/02/22-rdf-syntax-ns#"
	 xmlns="http://www.w3.org/2000/svg" xmlns:xlink="http://www.w3.org/1999/xlink" x="0px" y="0px" width="512px" height="512px"
	 viewBox="0 0 512 512" xml:space="preserve">
<g>
	<polygon fill="#FFFFFF" points="64.733,116.198 314.505,116.198 314.505,170.667 511.999,170.667 511.999,0 0,0 0,170.667 
		64.733,170.667 	"/>
	<path fill="#01017E" d="M64.733,259.771v-89.105H0v170.667h97.655C78.717,316.352,69.674,287.938,64.733,259.771z"/>
	<path fill="#01017E" d="M314.505,258.781c-5.137,29.58-14.649,57.941-33.667,82.552h231.161V170.667H314.505V258.781z"/>
	<path fill="#FE0101" d="M280.838,341.333c-19.236,24.891-48.196,45.943-92.205,60.53c-43.782-14.431-72.229-35.799-90.978-60.53H0
		V512h511.999V341.333H280.838z"/>
	<path fill="#FFFFFF" d="M314.505,170.667v-54.468H64.733v54.468v89.105c4.941,28.167,13.984,56.58,32.922,81.562
		c18.749,24.731,47.196,46.1,90.978,60.53c44.009-14.587,72.969-35.64,92.205-60.53c19.018-24.61,28.53-52.972,33.667-82.552
		V170.667z M281.693,320.371c-9.677,16.559-23.78,31.715-41.877,44.41c-0.023,0.017-0.047,0.033-0.07,0.05
		c-0.428,0.3-0.857,0.599-1.29,0.896c-12.519,8.713-27.438,16.46-45.274,22.777c-1.5,0.532-3.01,1.056-4.539,1.562
		c-0.508-0.167-1.005-0.344-1.509-0.514C100.44,360.33,83.365,298.348,74.573,252.886V127.505h-0.008h0.008h229.607v125.381
		c-3.514,20.439-9.492,44.218-22.839,66.858C281.457,319.956,281.579,320.154,281.693,320.371z"/>
	
		<line fill="none" stroke="#FE0101" stroke-width="0" stroke-linecap="round" stroke-linejoin="round" x1="74.566" y1="127.505" x2="74.573" y2="127.505"/>
	<path fill="#FE0101" d="M304.181,127.505H74.573v125.381c8.792,45.462,25.866,107.444,112.56,136.667
		c-43.209-14.585-73.911-39.674-90.131-70.657c10.56-18.5,32.635-24.952,55.744-13.397h0.002
		c4.437-9.386,13.141-15.684,23.104-18.704v-32.922h-38.351c-5.764,0-11.145,2.95-16.717,4.425v-40.317
		c5.244,1.639,10.239,4.917,15.733,4.917h39.334v-20.159h-29.009c-5.084,0-9.506,3.606-14.259,5.408v-38.35
		c5.408,2.294,10.35,6.883,16.226,6.883h27.534v-17.209c0-8.038-4.59-15.405-6.884-23.109h38.842
		c-1.967,7.867-5.899,15.492-5.899,23.601v16.717h26.059c6.8,0,13.111-3.605,19.668-5.408v37.859
		c-5.901-1.967-11.482-5.901-17.701-5.901h-28.025v20.159h40.317c5.406,0,10.489-2.623,15.734-3.934v37.859
		c-5.409-1.147-10.697-3.441-16.227-3.441h-39.333v32.682c9.938,2.905,18.501,9.306,22.622,19.437
		c16.577-8.047,42.139-11.484,55.824,13.754c13.347-22.641,19.325-46.419,22.839-66.858V127.505z"/>
	<path fill="#FE0101" d="M238.456,365.727c-13.098,9-28.239,16.724-45.274,22.777C211.017,382.187,225.937,374.439,238.456,365.727z
		"/>
	<path fill="#FE0101" d="M239.815,364.781c-0.023,0.017-0.046,0.033-0.07,0.05C239.768,364.814,239.792,364.798,239.815,364.781z"/>
	<path fill="#FFFFFF" d="M202.896,286.554v-32.682h39.333c5.529,0,10.817,2.294,16.227,3.441v-37.859
		c-5.245,1.312-10.328,3.934-15.734,3.934h-40.317v-20.159h28.025c6.219,0,11.8,3.934,17.701,5.901v-37.859
		c-6.557,1.803-12.868,5.408-19.668,5.408h-26.059v-16.717c0-8.109,3.933-15.734,5.899-23.601h-38.842
		c2.294,7.704,6.884,15.071,6.884,23.109v17.209h-27.534c-5.876,0-10.817-4.588-16.226-6.883v38.35
		c4.753-1.802,9.175-5.408,14.259-5.408h29.009v20.159h-39.334c-5.494,0-10.489-3.278-15.733-4.917v40.317
		c5.572-1.475,10.953-4.425,16.717-4.425h38.351v32.922C184.573,284.15,194.252,284.027,202.896,286.554z"/>
	<path fill="#01017E" d="M225.518,305.99c-4.121-10.131-12.684-16.531-22.622-19.437c-8.644-2.526-18.323-2.403-27.043,0.24
		c-9.964,3.021-18.667,9.318-23.104,18.704h-0.002c-23.109-11.555-45.185-5.103-55.744,13.397
		c16.221,30.983,46.922,56.072,90.131,70.657c0.504,0.17,1.001,0.347,1.509,0.514c1.529-0.507,3.039-1.03,4.539-1.562
		c17.035-6.054,32.176-13.777,45.274-22.777c0.433-0.297,0.861-0.596,1.29-0.896c0.023-0.017,0.046-0.033,0.07-0.05
		c18.097-12.695,32.201-27.852,41.877-44.41c-0.113-0.217-0.235-0.415-0.351-0.627C267.656,294.506,242.095,297.943,225.518,305.99z
		"/>
</g>
</svg>
