<?xml version="1.0" encoding="utf-8"?>
<!-- Generator: Adobe Illustrator 16.0.0, SVG Export Plug-In . SVG Version: 6.00 Build 0)  -->
<svg version="1.2" baseProfile="tiny"
	 id="svg600" xmlns:cc="http://creativecommons.org/ns#" xmlns:dc="http://purl.org/dc/elements/1.1/" xmlns:rdf="http://www.w3.org/1999/02/22-rdf-syntax-ns#"
	 xmlns="http://www.w3.org/2000/svg" xmlns:xlink="http://www.w3.org/1999/xlink" x="0px" y="0px" width="512px" height="512px"
	 viewBox="0 0 512 512" xml:space="preserve">
<g id="flag">
	<g id="g1073" transform="matrix(.512 0 0 .85333 0 .000026)">
		<rect id="rect1071" x="0" y="300" fill="#19B6EF" width="1000" height="300"/>
		<rect id="rect1072" x="0" y="0" fill="#FFFFFF" width="1000" height="300"/>
	</g>
	<g id="g910" transform="matrix(1.7767 0 0 1.7767 -581.23 -248.83)">
		<path id="path630" fill="#FFDD00" stroke="#7D6C00" d="M469.46,343.7c31.488-23.557,65.414-71.625,25.659-96.902
			c-7.406-1.434-15.673-1.004-19.639,2.15c-2.102-1.195-3.775-1.099-5.877,1.147c-1.481-1.816-2.963-2.629-6.021-1.72
			c-6.116-3.106-11.658-3.775-18.921-1.864C410.067,267.296,431.234,316.607,469.46,343.7z"/>
		<g id="g892">
			<path id="path865" fill="#4FD46B" stroke="#3A9D4F" stroke-linejoin="round" d="M527.7,290.2c0,0,3.544-4.766,3.666-4.766
				c3.544-2.078,3.911-4.766,3.911-4.766c3.544-1.1,2.444-4.033,2.688-4.399c1.712-1.833,1.1-3.667,0.856-4.278
				c0-0.488,1.222-5.01-0.489-5.621c0.081-4.807-2.892-4.359-5.255-1.222c-2.526,0.733-3.096,2.811-2.2,5.133
				c-3.3,0-3.422,4.766-2.444,7.454c-4.399-0.122-1.955,4.766-2.078,5.011C524.889,283.479,527.455,290.445,527.7,290.2L527.7,290.2
				z"/>
			<g id="g876">
				<path id="path860" fill="#4FD46B" stroke="#3A9D4F" stroke-linejoin="round" d="M499.95,331.14
					c0.733,0.449,1.467,0.896,2.2,1.344c0.448,1.67,1.996,2.73,3.178,2.445c0.57,2.566,3.34,2.2,5.377,0.733
					c1.629,2.363,3.626,2.404,6.355,1.588c2.444,1.792,5.622,1.018,7.699-0.856c2.24,1.833,3.747,0.489,4.888-1.466
					c1.751,0.448,3.136,0.163,3.788-1.589c3.422-0.285,1.711-3.503-1.099-4.888c2.24-1.956,4.725-5.989,1.222-6.6
					c-1.1-0.813-3.177-0.651-4.766,0.123c-0.407-1.793-2.893-2.241-5.622-0.245c-0.937-1.996-4.196-1.059-5.744,0.367
					c-1.955-1.711-4.277-1.711-7.699,0.244L499.95,331.14z"/>
				<path id="path861" fill="#4FD46B" stroke="#3A9D4F" stroke-linejoin="round" d="M499.95,325.89
					c0.407-2.24-1.141-6.314,1.222-6.721c-0.448-3.748,0.204-7.984,4.522-7.577c0.693-3.544,0.53-6.844,4.644-7.333
					c0,0,3.3-11.487,6.722-3.544c1.344,2.323,1.1,6.11-1.589,5.377c0.53,2.852-0.407,5.336-3.544,5.255
					c1.385,1.996,0.937,4.726-0.611,5.989C507.527,320.187,503.739,323.039,499.95,325.89z"/>
				<path id="path862" fill="#4FD46B" stroke="#3A9D4F" stroke-linejoin="round" d="M519.87,311.59
					c1.181-0.244,2.363-0.489,3.544-0.733c3.666-2.444,5.133-3.422,6.966-0.734c3.055-0.652,5.988-0.326,5.866,2.078
					c3.626,0.244,3.585,2.566,3.178,4.399c0.57,3.218-0.815,7.414-3.056,2.322c-7.088-4.318-11.121-3.748-22.364-1.222
					C515.959,315.663,517.915,313.627,519.87,311.59z"/>
				<path id="path863" fill="#4FD46B" stroke="#3A9D4F" stroke-linejoin="round" d="M521.71,308.04
					c0.123-0.122,10.51-2.811,9.41-5.988c2.933-0.489,3.545-3.422,3.667-3.422c6.11-1.955,5.743-5.5,5.743-5.5
					c1.752-1.874,4.848-3.749,4.156-7.088c0.204-3.788,0.529-6.11-4.522-3.666c-3.789-0.367-5.133,1.833-6.233,5.133
					c-1.792-2.118-4.684,1.263-5.009,4.277c0,0-4.644,4.523-4.644,4.645c0,0.121-3.911,7.21-3.911,7.21
					C520.814,305.107,521.262,306.573,521.71,308.04z"/>
				<path id="path864" fill="#4FD46B" stroke="#3A9D4F" stroke-linejoin="round" d="M521.95,299.98
					c-2.485-1.874-3.87-4.114-3.422-6.355c-1.629-2.2-2.77-3.544-1.222-5.499c0,0-1.222-4.4-1.222-4.522
					c-3.177-1.222-1.833-3.91-0.978-4.888c-1.507-2.078-1.548-4.278-0.122-6.233c-0.041-3.911,2.729-2.444,5.01,0
					c0,0,3.789,2.689,0.978,5.133c2.811,0.978,3.667,3.421,2.078,4.399c2.444,1.1,2.81,3.3,1.466,4.767
					c2.485,1.996,1.548,4.481,2.322,6.721C525.209,295.662,523.579,297.821,521.95,299.98L521.95,299.98z"/>
				<path id="path866" fill="#4FD46B" stroke="#3A9D4F" stroke-linejoin="round" d="M526.35,281.77
					c-0.122-0.122-4.155-5.255-3.055-5.622c-0.244-1.589-1.466-3.3-0.733-4.888c-1.996-1.996-2.037-4.358-0.489-6.232
					c-1.344-1.833-0.733-4.277,1.1-5.866c-0.57-3.015,1.548-3.707,3.422-4.278c1.385-4.848,3.625-3.585,4.888,0.122
					c1.915,1.67,1.63,4.196,0.978,6.111c2.281,1.548,0.896,3.462-0.122,4.277C530.343,270.853,528.346,276.311,526.35,281.77z"/>
				<path id="path867" fill="#4FD46B" stroke="#3A9D4F" stroke-linejoin="round" d="M525.74,255.98l-3.422-3.422
					c0.884-1.813,1.596-5.009-0.977-6.477c-1.419-3.456-8.514-7.74-9.655,0.489c-1.08-2.483-3.34-4.929-5.01-2.077
					c-3.707-3.177-5.703-2.2-3.789,1.833c0,0-1.71,2.688,2.811,4.766c0.367,0.366-1.466,4.888,3.911,5.01
					c-1.018,1.548,0.652,3.707,2.811,3.544c-1.548,1.915,1.059,3.952,2.688,3.178c-0.693,2.118-0.652,3.137,2.322,3.422
					c1.1,1.263,2.2,2.525,3.3,3.788c0.896,1.222,1.792,2.444,2.688,3.666C524.192,267.793,524.966,261.887,525.74,255.98
					L525.74,255.98z"/>
				<path id="path868" fill="none" stroke="#3A9D4F" stroke-width="1.25" stroke-linecap="round" d="M527.82,288.04
					c0.173-0.173,6.567-14.863,7.431-19.357"/>
				<path id="path869" fill="none" stroke="#3A9D4F" stroke-width="1.25" stroke-linecap="round" d="M528.51,261.95
					c0,0,1.037,11.925-1.901,20.739"/>
				<path id="path870" fill="none" stroke="#3A9D4F" stroke-width="1.25" stroke-linecap="round" d="M508.81,249.85
					c0,0,13.135,12.616,14.344,17.801"/>
				<path id="path871" fill="none" stroke="#3A9D4F" stroke-width="1.25" stroke-linecap="round" d="M517.97,248.47
					c0,0,0.864,10.37,4.493,20.567"/>
				<path id="path872" fill="none" stroke="#3A9D4F" stroke-width="1.25" stroke-linecap="round" d="M541.13,286.14
					c0,0-13.135,11.061-19.53,20.739"/>
				<path id="path873" fill="none" stroke="#3A9D4F" stroke-width="1.25" stroke-linecap="round" d="M528.68,324.86
					c0,0-17.283,2.42-24.887,2.593"/>
				<path id="path874" fill="none" stroke="#3A9D4F" stroke-width="1.25" stroke-linecap="round" d="M522.98,332.29
					c0,0-21.431-0.519-22.987-2.074"/>
				<path id="path875" fill="none" stroke="#3A9D4F" stroke-width="1.25" stroke-linecap="round" d="M512.26,304.46
					c0,0.173-10.888,18.146-11.234,24.023"/>
			</g>
		</g>
		<path id="path608" fill="#65C7FF" stroke="#7D6C00" d="M469.34,340.23c-22.674-21.387-45.899-61.525-22.796-81.809
			c4.106,2.329,8.947,0.245,15.627-2.39c2.022,2.206,4.595,2.758,7.169,1.103c2.88,1.226,5.025,0.245,6.435-1.287
			c6.557,3.8,14.952,5.761,16.913,2.023C515.423,279.44,492.381,319.763,469.34,340.23L469.34,340.23z"/>
		<path id="path609" fill="#8FC753" d="M469.47,339.61c-9.737-9.79-18.621-20.643-25.423-34.616c1.164-0.98,1.705-1.284,2.318-3
			c3.493,0.491,5.331,0.613,9.927-0.184c0.919,3.432,1.103,6.312,3.309,9.191c1.532-3.002,3.064-6.004,4.596-9.008
			c3.125,0.736,6.986,0.92,9.927,0c1.9,2.574,1.226,6.435,4.596,9.376c2.022-5.944,4.045-6.373,6.067-9.56
			c3.003,1.042,4.903,0.612,7.354-0.185c1.287,1.471,0.644,1.447,2.987,3.606C488.985,317.431,480.561,329.683,469.47,339.61z"/>
		<path id="path575" fill="#FFFFFF" stroke="#000000" stroke-width="0.625" d="M442.793,238.689c0,1.109-0.899,2.009-2.008,2.009
			c-1.11,0-2.009-0.899-2.009-2.009c0-1.109,0.899-2.009,2.009-2.009C441.893,236.68,442.793,237.579,442.793,238.689z"/>
		<path id="path576" fill="#FFFFFF" stroke="#000000" stroke-width="0.625" d="M440.697,234.06c0,1.109-0.9,2.009-2.009,2.009
			s-2.008-0.899-2.008-2.009c0-1.109,0.899-2.009,2.008-2.009S440.697,232.951,440.697,234.06z"/>
		<path id="path577" fill="#FFFFFF" stroke="#000000" stroke-width="0.625" d="M438.251,229.78c0,1.109-0.9,2.009-2.009,2.009
			s-2.008-0.899-2.008-2.009s0.899-2.009,2.008-2.009S438.251,228.671,438.251,229.78z"/>
		<path id="path578" fill="#FFFFFF" stroke="#000000" stroke-width="0.625" d="M436.592,225.588c0,1.109-0.9,2.009-2.009,2.009
			s-2.008-0.899-2.008-2.009s0.899-2.009,2.008-2.009C435.693,223.579,436.592,224.479,436.592,225.588z"/>
		<path id="path579" fill="#FFFFFF" stroke="#000000" stroke-width="0.625" d="M436.854,221.047c0,1.109-0.899,2.009-2.008,2.009
			c-1.11,0-2.009-0.9-2.009-2.009c0-1.109,0.899-2.009,2.009-2.009C435.954,219.038,436.854,219.938,436.854,221.047z"/>
		<path id="path580" fill="#FFFFFF" stroke="#000000" stroke-width="0.625" d="M447.458,213.536c0,1.109-0.9,2.009-2.009,2.009
			s-2.008-0.899-2.008-2.009c0-1.109,0.899-2.009,2.008-2.009S447.458,212.427,447.458,213.536z"/>
		<path id="path581" fill="#FFFFFF" stroke="#000000" stroke-width="0.625" d="M443.491,214.235c0,1.109-0.899,2.009-2.008,2.009
			c-1.11,0-2.009-0.899-2.009-2.009s0.899-2.009,2.009-2.009C442.592,212.226,443.491,213.126,443.491,214.235z"/>
		<path id="path582" fill="#FFFFFF" stroke="#000000" stroke-width="0.625" d="M439.125,216.855c0,1.109-0.9,2.009-2.009,2.009
			s-2.008-0.899-2.008-2.009c0-1.109,0.899-2.009,2.008-2.009S439.125,215.746,439.125,216.855z"/>
		<path id="path583" fill="#FFFFFF" stroke="#000000" stroke-width="0.625" d="M452.574,213.623c0,1.109-0.899,2.009-2.008,2.009
			c-1.11,0-2.009-0.899-2.009-2.009c0-1.109,0.899-2.009,2.009-2.009C451.675,211.614,452.574,212.514,452.574,213.623z"/>
		<path id="path584" fill="#FFFFFF" stroke="#000000" stroke-width="0.625" d="M458.164,214.06c0,1.109-0.9,2.009-2.009,2.009
			s-2.008-0.899-2.008-2.009c0-1.109,0.899-2.009,2.008-2.009C457.265,212.051,458.164,212.951,458.164,214.06z"/>
		<path id="path585" fill="#FFFFFF" stroke="#000000" stroke-width="0.625" d="M463.142,213.798c0,1.109-0.899,2.009-2.008,2.009
			s-2.009-0.899-2.009-2.009s0.9-2.009,2.009-2.009S463.142,212.689,463.142,213.798z"/>
		<path id="path586" fill="#FFDD00" stroke="#7D6C00" stroke-width="0.2436" d="M474.746,210.592c0,2.846-2.307,5.153-5.153,5.153
			c-2.846,0-5.153-2.307-5.153-5.153c0-2.846,2.307-5.153,5.153-5.153C472.439,205.44,474.746,207.747,474.746,210.592z"/>
		<path id="path587" fill="#FFFFFF" stroke="#000000" stroke-width="0.625" d="M480.172,213.711c0,1.109-0.899,2.009-2.009,2.009
			c-1.109,0-2.008-0.899-2.008-2.009c0-1.109,0.899-2.009,2.008-2.009C479.273,211.702,480.172,212.602,480.172,213.711z"/>
		<path id="path588" fill="#FFFFFF" stroke="#000000" stroke-width="0.625" d="M485.413,214.147c0,1.109-0.899,2.009-2.009,2.009
			c-1.109,0-2.008-0.899-2.008-2.009s0.899-2.009,2.008-2.009C484.514,212.138,485.413,213.038,485.413,214.147z"/>
		<path id="path589" fill="#FFFFFF" stroke="#000000" stroke-width="0.625" d="M490.478,213.885c0,1.109-0.899,2.009-2.009,2.009
			c-1.109,0-2.008-0.9-2.008-2.009c0-1.109,0.899-2.009,2.008-2.009C489.579,211.876,490.478,212.776,490.478,213.885z"/>
		<path id="path590" fill="#FFFFFF" stroke="#000000" stroke-width="0.625" d="M494.757,213.711c0,1.109-0.899,2.009-2.009,2.009
			c-1.109,0-2.008-0.899-2.008-2.009c0-1.109,0.899-2.009,2.008-2.009C493.858,211.702,494.757,212.602,494.757,213.711z"/>
		<path id="path591" fill="#FFFFFF" stroke="#000000" stroke-width="0.625" d="M500.085,214.322c0,1.109-0.899,2.009-2.008,2.009
			c-1.11,0-2.009-0.9-2.009-2.009c0-1.109,0.899-2.009,2.009-2.009C499.186,212.313,500.085,213.213,500.085,214.322z"/>
		<path id="path592" fill="#FFFFFF" stroke="#000000" stroke-width="0.625" d="M504.277,216.942c0,1.109-0.899,2.009-2.009,2.009
			c-1.109,0-2.008-0.899-2.008-2.009s0.899-2.009,2.008-2.009C503.378,214.933,504.277,215.833,504.277,216.942z"/>
		<path id="path605" fill="#E40000" stroke="#AC0000" d="M440.85,231.12c1.711,3.254,3.421,6.634,5.132,9.888h47.565
			c1.836-3.171,3.672-6.342,5.508-9.513c-3.213-2.211-5.424-3.922-10.014-2.879c-2.587-3.713-5.424-4.422-9.638-4.005
			c-1.252-1.293-2.379-2.086-4.507-2.378c-3.338,0.083-6.675,0.167-10.013,0.25c-2.629,0.25-4.632,2.253-4.757,2.253
			c-4.256-0.501-8.136-0.376-9.137,3.755C447.109,227.531,444.355,228.575,440.85,231.12z"/>
		<path id="path593" fill="#FFFFFF" stroke="#000000" stroke-width="0.625" d="M506.024,221.309c0,1.109-0.899,2.009-2.008,2.009
			c-1.11,0-2.009-0.899-2.009-2.009s0.899-2.009,2.009-2.009C505.125,219.3,506.024,220.2,506.024,221.309z"/>
		<path id="path594" fill="#FFFFFF" stroke="#000000" stroke-width="0.625" d="M506.373,226.025c0,1.109-0.899,2.009-2.008,2.009
			c-1.11,0-2.009-0.899-2.009-2.009s0.899-2.009,2.009-2.009C505.474,224.016,506.373,224.916,506.373,226.025z"/>
		<path id="path595" fill="#FFFFFF" stroke="#000000" stroke-width="0.625" d="M504.888,230.392c0,1.109-0.899,2.009-2.008,2.009
			s-2.009-0.9-2.009-2.009c0-1.109,0.899-2.008,2.009-2.008C503.988,228.383,504.888,229.282,504.888,230.392z"/>
		<path id="path596" fill="#FFFFFF" stroke="#000000" stroke-width="0.625" d="M503.054,233.973c0,1.109-0.9,2.009-2.009,2.009
			s-2.008-0.899-2.008-2.009c0-1.109,0.899-2.009,2.008-2.009S503.054,232.863,503.054,233.973z"/>
		<path id="path597" fill="#FFFFFF" stroke="#000000" stroke-width="0.625" d="M500.871,238.514c0,1.109-0.899,2.009-2.008,2.009
			c-1.11,0-2.009-0.9-2.009-2.009c0-1.109,0.899-2.008,2.009-2.008C499.972,236.505,500.871,237.405,500.871,238.514z"/>
		<path id="path598" fill="#FFFFFF" stroke="#000000" stroke-width="0.4228" d="M472.76,232.757c0,1.64-1.33,2.969-2.97,2.969
			c-1.64,0-2.969-1.329-2.969-2.969c0-1.64,1.33-2.969,2.969-2.969C471.43,229.788,472.76,231.117,472.76,232.757z"/>
		<path id="path599" fill="#FFFFFF" stroke="#000000" stroke-width="0.3506" d="M473.348,225.926c0,1.978-1.603,3.581-3.58,3.581
			c-1.978,0-3.581-1.603-3.581-3.581c0-1.978,1.603-3.581,3.581-3.581C471.745,222.346,473.348,223.949,473.348,225.926z"/>
		<path id="path600" fill="#FFFFFF" stroke="#000000" stroke-width="0.3885" d="M472.831,219.292c0,1.785-1.447,3.231-3.231,3.231
			c-1.785,0-3.231-1.447-3.231-3.231c0-1.785,1.447-3.231,3.231-3.231C471.384,216.061,472.831,217.507,472.831,219.292z"/>
		<path id="path602" fill="#FFDD00" stroke="#7D6C00" stroke-width="0.625" d="M468.51,205.52c0-0.556-0.017-2.5,0.022-2.578
			l-2.144-0.039l0.061-1.906l1.861-0.022l0.022-1.666h2.639v1.527h2.083l-0.043,2.028l-2.162-0.022l-0.017,2.717L468.51,205.52
			L468.51,205.52z"/>
		<path id="path603" fill="none" stroke="#FFDD00" stroke-width="1.875" d="M445.74,241.01c-4.257-7.218-10.512-17.03-6.635-21.279
			c5.376-6.089,17.982-0.584,26.035-4.131c0.584,6.885-1.335,18.275,1.753,20.654c-0.96,0.834-1.92,1.669-2.879,2.503
			c-1.753-2.253-5.054-5.272-9.137,0.125c-2.337-2.043-4.993-1.684-6.243,1.033C447.443,240.075,447.512,240.551,445.74,241.01
			L445.74,241.01z"/>
		<path id="path604" fill="none" stroke="#FFDD00" stroke-width="1.875" d="M493.84,240.76c4.257-7.218,10.512-17.03,6.635-21.279
			c-5.376-6.089-17.982-0.584-26.035-4.131c-0.584,6.885,1.335,18.275-1.753,20.654c0.96,0.834,1.92,1.669,2.879,2.503
			c2.77-3.895,6.227-4.021,9.137,0.125c2.337-2.043,4.758-1.763,6.244,1.033C492.137,239.825,492.068,240.301,493.84,240.76z"/>
		<path id="path606" fill="#FFDD00" stroke="#7D6C00" d="M445.61,246.39c17.107-1.752,32.962-1.127,47.566,0
			c0.626-1.794,1.251-3.589,1.877-5.383c-16.606-3.004-28.08-3.379-49.818-0.375C445.36,242.551,445.485,244.471,445.61,246.39
			L445.61,246.39z"/>
		<path id="path610" fill="#C76E2E" d="M467.69,337.79c0.123-0.858,0.245-1.658,0.368-2.516c1.701,0.458,2.999,0.281,4.412-0.241
			c0.49-0.737,0.981-1.471,1.471-2.207c-0.368-0.429-0.735-0.857-1.103-1.286c-0.97,0.209-1.766,1.11-2.39,1.896
			c-0.977,0.046-1.839-0.426-2.758-0.61c-0.306-1.287-0.613-2.573-0.919-3.86c-0.912-1.078-2.804-1.003-2.39,0.919
			c0.061,0.49,0.123,0.981,0.184,1.471c0.368,0.919,0.505,2.184,1.103,2.872v1.508C466.342,336.421,467.016,337.105,467.69,337.79
			L467.69,337.79z"/>
		<path id="path611" fill="#C76E2E" d="M468.42,326.81c-1.279,0.634-2.797-0.469-4.412-1.103c-1.471-0.101-2.653,1.124-4.412,0.735
			c0.321-0.955,1.103-1.104,1.655-1.656c-0.404-2.48,0.919-3.309,1.287-3.309c0.367,0,1.837,0.368,1.837,0.368
			c0.49,0.06,0.981,0.123,1.471,0.184C466.705,323.623,467.908,325.044,468.42,326.81L468.42,326.81z"/>
		<path id="path613" fill="#FFE100" stroke="#E9BF00" d="M459.68,359.83c4.242-6.887,33.775-20.717,61.489-50.58
			c-28.21,27.162-45.841,33.83-68.927,50.414C454.721,359.719,457.201,359.775,459.68,359.83z"/>
		<path id="path617" fill="#9D4916" stroke="#68300E" stroke-width="0.625" d="M500.28,328.07c0,1.188-0.962,2.15-2.15,2.15
			c-1.187,0-2.15-0.962-2.15-2.15s0.963-2.15,2.15-2.15C499.318,325.92,500.28,326.882,500.28,328.07z"/>
		<path id="path618" fill="#9D4916" stroke="#68300E" stroke-width="0.625" d="M520.92,307.14c0,1.346-1.091,2.437-2.437,2.437
			c-1.346,0-2.437-1.091-2.437-2.437c0-1.346,1.091-2.437,2.437-2.437C519.829,304.703,520.92,305.794,520.92,307.14z"/>
		<path id="path619" fill="#9D4916" stroke="#68300E" stroke-width="0.625" d="M527.803,289.363c0,1.188-0.962,2.15-2.15,2.15
			c-1.187,0-2.15-0.962-2.15-2.15c0-1.187,0.963-2.15,2.15-2.15C526.841,287.213,527.803,288.176,527.803,289.363z"/>
		<path id="path620" fill="#9D4916" stroke="#68300E" stroke-width="0.625" d="M521.06,266.29c0,1.188-0.963,2.15-2.15,2.15
			c-1.188,0-2.15-0.963-2.15-2.15c0-1.188,0.962-2.15,2.15-2.15C520.097,264.14,521.06,265.103,521.06,266.29z"/>
		<path id="path631" fill="#FFFFFF" stroke="#A9A9A9" stroke-width="0.625" d="M446.68,301.9v-9.094l-0.925-0.77v-2.158l1.696-0.154
			l0.308-10.173l-1.08-0.617l-0.154-1.695c0,0,1.233,0.462,1.233,0.154s0.308-2.004,0.308-2.004s-0.77-0.154-0.77-0.462
			s0.924-1.079,0.924-1.079s-0.462-0.463-0.616-0.771c-0.154-0.308-0.462-1.695-0.462-1.695l0.462-1.696l-0.308-0.925l-0.771-1.387
			l1.079-1.079c0,0-0.308-1.387-0.308-1.695s0.77-1.541,0.924-1.696c0.155-0.154,1.388-1.849,1.388-1.849l2.62-0.617l3.083,0.463
			l1.695,1.079l0.308,2.774c0,0-0.308,1.695-0.462,1.695s-1.387,0.617-1.387,0.617s-1.542,0.154-1.696,0
			c-0.154-0.154,0.463,1.85,0.463,1.85v1.849l-0.154,2.312c0,0,0,1.079-0.155,1.233c-0.154,0.154-0.462,0.617-0.462,0.617
			l-0.154,2.312l2.466,0.616l-0.154,1.388l-1.696,0.154l0.309,9.402l2.466,0.462v2.621l-1.079,0.616l-0.308,9.402H446.68
			L446.68,301.9z"/>
		<path id="path632" fill="#FFFFFF" stroke="#A9A9A9" stroke-width="0.625" d="M484.14,302.06v-9.094l-0.925-0.77v-2.158
			l1.696-0.154l0.308-10.173l-1.079-0.617l-0.154-1.695c0,0,1.233,0.462,1.233,0.154c0-0.308,0.308-2.004,0.308-2.004
			s-0.77-0.154-0.77-0.462c0-0.308,0.924-1.079,0.924-1.079s-0.462-0.463-0.616-0.771c-0.154-0.308-0.462-1.695-0.462-1.695
			l0.462-1.696l-0.308-0.925l-0.771-1.387l1.079-1.079c0,0-0.308-1.387-0.308-1.695c0-0.308,0.77-1.541,0.924-1.696
			c0.155-0.154,1.388-1.849,1.388-1.849l2.62-0.617l3.083,0.463l1.695,1.079l0.308,2.774c0,0-0.308,1.695-0.462,1.695
			s-1.387,0.617-1.387,0.617s-1.542,0.154-1.696,0c-0.154-0.154,0.463,1.85,0.463,1.85v1.849l-0.154,2.312c0,0,0,1.079-0.155,1.233
			c-0.154,0.154-0.462,0.617-0.462,0.617l-0.154,2.312l2.466,0.616l-0.154,1.388l-1.696,0.154l0.309,9.402l2.466,0.462v2.621
			l-1.079,0.616l-0.308,9.402H484.14L484.14,302.06z"/>
		<path id="path633" fill="#FFFFFF" stroke="#A9A9A9" stroke-width="0.625" d="M465.18,302.37v-9.094l-0.925-0.77v-2.158
			l1.696-0.154l0.308-10.173l-1.079-0.617l-0.154-1.695c0,0,1.233,0.462,1.233,0.154c0-0.308,0.308-2.004,0.308-2.004
			s-0.77-0.154-0.77-0.462c0-0.308,0.924-1.079,0.924-1.079s-0.462-0.463-0.616-0.771c-0.154-0.308-0.462-1.695-0.462-1.695
			l0.462-1.696l-0.308-0.925l-0.771-1.387l1.079-1.079c0,0-0.308-1.387-0.308-1.695c0-0.308,0.77-1.541,0.924-1.696
			c0.155-0.154,1.388-1.849,1.388-1.849l2.62-0.617l3.083,0.463l1.695,1.079l0.308,2.774c0,0-0.308,1.695-0.462,1.695
			c-0.154,0-1.387,0.617-1.387,0.617s-1.542,0.154-1.696,0c-0.154-0.154,0.463,1.85,0.463,1.85v1.849l-0.154,2.312
			c0,0,0,1.079-0.155,1.233c-0.154,0.154-0.462,0.617-0.462,0.617l-0.154,2.312l2.466,0.616l-0.154,1.388l-1.696,0.154l0.309,9.402
			l2.466,0.462v2.621l-1.079,0.616l-0.308,9.402H465.18L465.18,302.37z"/>
		<path id="path624" d="M448.96,301.84v-7.167h4.014v7.454L448.96,301.84L448.96,301.84z"/>
		<path id="path625" d="M467.88,302.41l0.143-7.311h3.584v7.167L467.88,302.41L467.88,302.41z"/>
		<path id="path626" d="M486.52,302.27l-0.287-6.88l3.871-0.144v7.168L486.52,302.27L486.52,302.27z"/>
		<rect id="rect627" x="449.96" y="280.62" width="2.293" height="3.727"/>
		<rect id="rect628" x="468.17" y="280.77" width="3.153" height="3.583"/>
		<rect id="rect629" x="486.8" y="281.05" width="2.724" height="3.44"/>
		<path id="path644" fill="none" stroke="#A8A8A8" stroke-width="0.625" d="M451.15,264.3c2.466,2.774,2.62,2.774,2.62,2.774"/>
		<path id="path645" fill="none" stroke="#A8A8A8" stroke-width="0.625" d="M469.49,264.3c0.462,0.924,1.233,2.928,2.158,3.082"/>
		<path id="path646" fill="none" stroke="#A8A8A8" stroke-width="0.625" d="M489.22,264.76c0,0,0.771,2.158,1.85,2.466"/>
		<path id="path656" fill="#B97700" d="M448.53,256.53c7.211-2.331-1.685-6.993-3.162,0c-2.333,0.377-2.635,2.108-7.678,1.356
			c-12.195,19.873-3.162,51.941,32.52,85.139c-63.911-54.388-37.938-94.617-20.24-93.1C459.596,250.583,454.74,262.59,448.53,256.53
			z"/>
		<path id="path658" fill="none" stroke="#7D6C00" d="M450.54,246.34c0,0,5.872,1.581,5.872,4.065"/>
		<path id="path659" fill="none" stroke="#7D6C00" d="M456.41,245.89c0,0,4.065,1.806,4.968,3.387"/>
		<path id="path660" fill="none" stroke="#7D6C00" d="M488.48,246.57c0,0-5.195,0.678-6.324,2.258"/>
		<path id="path661" fill="none" stroke="#7D6C00" d="M480.57,247.02c0,0-2.935,2.484-2.71,3.161"/>
		<path id="path662" fill="none" stroke="#7D6C00" d="M479.9,257.86c-0.452-0.226-2.484-2.936-2.033-6.324"/>
		<path id="path663" fill="none" stroke="#7D6C00" d="M460.02,256.06c0,0,1.355-1.581,1.355-4.517"/>
		<path id="path664" fill="none" stroke="#7D6C00" d="M469.51,250.41l0.226,6.549"/>
		<path id="path665" fill="none" stroke="#7D6C00" d="M475.38,256.06c0-0.452,1.807-4.742-0.226-6.775"/>
		<path id="path666" fill="none" stroke="#7D6C00" d="M462.96,248.38c0,0-1.581,4.291-0.451,7.904"/>
		<path id="path667" fill="none" stroke="#7D6C00" d="M474.48,252.22c0,0-2.484,0.677-3.614,1.807"/>
		<path id="path668" fill="none" stroke="#7D6C00" d="M463.86,252.89c0-0.225,2.71-0.677,3.613,0.904"/>
		<path id="path627" fill="#C76E2E" d="M459.59,321.27c0.115,0.058,2.249-0.405,2.249-1.442c1.096-0.692,0.288-2.653,0.288-2.653
			c-0.673-0.135-1.345-0.269-2.018-0.405l-2.769-3.114c-0.134-0.961,0.193-1.864-0.403-2.883c-1.903,0.5-2.999,2.095-3.634,3.921
			c0.462,0.577,0.52,1.21,1.385,1.73c0.903,0.154,1.518-0.384,2.364-0.23c0.442,0.77,0.307,1.424,0.461,2.134
			C458.667,319.136,458.898,320.29,459.59,321.27z"/>
		<path id="path628" fill="#C76E2E" d="M457.11,307.95v-3.691c-0.884-0.039-1.769-0.077-2.653-0.116
			c-0.327,0.558-0.942,0.827-1.327,1.327c-0.615,0.308-1.23,0.615-1.845,0.923c0.769,0.922,1.711,1.442,2.307,1.903
			C454.938,308.7,456.053,308.7,457.11,307.95z"/>
		<path id="path629" fill="#C76E2E" d="M448.8,313.43c-0.481-0.808-0.961-1.615-1.442-2.423c0.884-0.288,1.999-0.173,2.826,0.173
			c0,0,0.635,1.501,0.173,2.077C450.126,313.775,448.742,313.545,448.8,313.43z"/>
		<path id="path634" fill="#C76E2E" d="M470.72,315.91c0.769-0.384,1.48-1.057,1.615-2.018c-0.884-1.019-1.769-2.038-2.653-3.057
			c-0.807-0.019-1.615-0.038-2.422-0.057c-0.557-0.577-1.461-0.692-2.191-0.692c0,0,0.75,1.153,1.73,1.384
			C467.491,313.026,470.49,315.91,470.72,315.91L470.72,315.91z"/>
		<path id="path635" fill="#C76E2E" d="M473.32,316.25c0-0.057,2.364-0.865,3.633-0.749c-0.115-0.981,1.788-3.23,1.788-3.23
			l3.345,4.383c-0.615,0.519-1.692,0.346-2.538,0.519c0,0-1.615,1.557-1.787,1.615c-0.173,0.058-3.114,0.749-4.556-0.115
			C472.57,317.462,473.377,316.077,473.32,316.25z"/>
		<path id="path636" fill="#C76E2E" d="M475.22,308.58c0.404-1.403,0.519-2.807,0-4.556c0,0-3.807-0.058-3.807,0
			c0,0.057-2.537,1.153-2.537,1.21c0,0.058,0.809,2.48,1.788,2.249c0.442,1.288,1.749,0.961,2.364,1.442
			C473.759,308.811,474.489,308.695,475.22,308.58L475.22,308.58z"/>
		<path id="path637" fill="#C76E2E" d="M490.16,304.72c-0.519,1.596-0.807,3.307-0.058,4.845c0.692,0.115,1.5,0.576,2.134,0.461
			c1.019-1.846,2.038-3.691,3.057-5.537C493.178,303.816,491.467,303.893,490.16,304.72z"/>
		<path id="path742" fill="#B97700" d="M491.1,256.03c-7.211-2.331,1.685-6.993,3.162,0c2.333,0.377,2.635,2.108,7.678,1.356
			c12.195,19.873,3.162,51.941-32.52,85.139c63.911-54.388,37.938-94.617,20.24-93.1C480.034,250.083,484.89,262.09,491.1,256.03z"
			/>
		<path id="path638" fill="#C76E2E" d="M491.83,310.95c-0.115,0-1.845,1.268-1.845,1.268c-0.827,0.327-1.653,0.654-2.48,0.981
			c-0.884,0.019-1.769,0.038-2.653,0.057c-0.192-0.616-0.385-1.23-0.577-1.845l2.019-1.788c-1.711-0.25-3.422,0.423-4.787,1.673
			c0,0,0,2.018,1.154,2.999c0.692,0.864,2.71,2.422,2.71,2.422c1.269,0.25,2.48,0.038,3.287-0.635
			C489.715,314.371,490.773,312.661,491.83,310.95L491.83,310.95z"/>
		<path id="path639" fill="#C76E2E" d="M477.87,329.06c0.866,0.231,6.806-7.67,6.806-7.67c-0.519-1.48-1.673-2.557-2.942-3.23
			c0,0-2.884,3.402-2.941,4.556c-0.461,1.038-1.787,5.017-1.211,5.537C477.524,328.368,477.294,329.982,477.87,329.06L477.87,329.06
			z"/>
		<path id="path745" fill="#006800" stroke="#004100" stroke-linejoin="round" d="M439.02,330.6
			c-8.895-7.737-20.897-12.002-37.651-6.214c4.508,1.95,9.382,2.62,13.525,4.752C422.936,329.625,430.978,330.113,439.02,330.6
			L439.02,330.6z"/>
		<path id="path839" fill="none" stroke="#00A400" stroke-width="1.25" stroke-linecap="round" d="M413.25,325.11
			c17.546,0.365,22.664,4.751,21.75,4.02"/>
		<path id="path744" fill="#006800" stroke="#004100" stroke-width="1.25" stroke-linejoin="round" d="M439.38,331.51
			c-5.24,1.035-12.49,6.096-14.622,5.848c-5.727-0.666-11.079-2.987-16.632-4.752c-2.307-0.733-4.631,0-6.946,0
			C420.859,323.285,427.561,324.564,439.38,331.51L439.38,331.51z"/>
		<path id="path746" fill="#006800" stroke="#004100" stroke-linejoin="round" d="M426.41,317.8c0,0-6.579,0.914-9.504,1.096
			c-2.925-0.181-7.177-2.907-11.88-7.859c-2.455-2.689-8.042-2.376-8.042-2.376C409.352,306.041,418.977,308.539,426.41,317.8z"/>
		<path id="path747" fill="#006800" stroke="#004100" stroke-linejoin="round" d="M417.45,305.01
			c-8.957-0.549-20.106-8.59-22.664-18.094c-0.001,0.121,3.289,2.071,2.741,2.559C412.21,293.191,413.185,296.176,417.45,305.01z"/>
		<path id="path748" fill="#006800" stroke="#004100" stroke-linejoin="round" d="M432.44,320.36
			c1.279-8.103,1.645-13.464-2.193-18.277c-3.168-3.656-3.96-5.849-6.214-10.967C423.363,301.778,421.047,310.612,432.44,320.36
			L432.44,320.36z"/>
		<path id="path749" fill="#006800" stroke="#004100" stroke-linejoin="round" d="M418.36,297.88
			c6.64-9.687,7.798-16.998,6.762-28.513c-0.183,0.914-2.376,6.58-2.558,6.58C412.694,282.161,417.081,291.849,418.36,297.88
			L418.36,297.88z"/>
		<path id="path752" fill="#006800" stroke="#004100" stroke-linejoin="round" d="M412.52,251.09
			c6.64,9.687,5.605,18.826,4.569,30.341c-0.183-0.914-2.376-6.58-2.558-6.58C404.661,268.637,411.241,257.121,412.52,251.09
			L412.52,251.09z"/>
		<path id="path755" fill="#006800" stroke="#004100" stroke-linejoin="round" d="M418,266.08
			c16.084-8.103,9.869-18.399,12.794-26.319C419.645,248.047,418.183,256.88,418,266.08z"/>
		<path id="path848" fill="none" stroke="#00A400" stroke-width="1.25" stroke-linecap="round" d="M420.19,264.07
			c2.011-5.666,6.032-15.353,6.397-15.353"/>
		<path id="path846" fill="none" stroke="#00A400" stroke-width="1.25" stroke-linecap="round" d="M415.44,275.95
			c-0.365-4.022-2.375-14.806-2.558-15.902"/>
		<path id="path750" fill="#006800" stroke="#004100" stroke-linejoin="round" d="M416.17,294.04
			c-8.957-0.549-18.644-12.794-21.202-22.298c-0.001,0.121,3.289,2.071,2.741,2.559C410.564,280.027,411.905,285.206,416.17,294.04z
			"/>
		<path id="path751" fill="#006800" stroke="#004100" stroke-linejoin="round" d="M413.51,285.63
			c-6.64-9.687-7.798-16.998-6.762-28.513c0.183,0.914,2.376,6.58,2.558,6.58C419.176,269.911,414.789,279.599,413.51,285.63
			L413.51,285.63z"/>
		<path id="path753" fill="#006800" stroke="#004100" stroke-linejoin="round" d="M419.46,268.64
			c16.632-7.372,11.514-15.109,16.449-23.212C424.76,253.714,419.643,259.44,419.46,268.64z"/>
		<path id="path847" fill="none" stroke="#00A400" stroke-width="1.25" stroke-linecap="round" d="M420.19,266.99
			c6.763-6.763,9.139-12.429,9.139-12.429"/>
		<g id="g768">
			<path id="path612" fill="#FFE100" stroke="#E9BF00" d="M479.36,359.99c2.7,0.055,5.399,0.11,8.099,0.165
				c-26.888-25.18-78.405-36.144-71.242-82.482C408.834,327.923,458.312,332.551,479.36,359.99z"/>
			<path id="path601" fill="#9D4916" stroke="#68300E" stroke-width="0.625" d="M420.44,267.72c0,1.425-1.155,2.58-2.58,2.58
				c-1.425,0-2.581-1.155-2.581-2.58s1.155-2.58,2.581-2.58C419.285,265.14,420.44,266.295,420.44,267.72z"/>
			<path id="path607" fill="#9D4916" stroke="#68300E" stroke-width="0.625" d="M418.86,281.91c0,1.346-1.091,2.437-2.437,2.437
				c-1.346,0-2.437-1.091-2.437-2.437s1.091-2.437,2.437-2.437C417.769,279.473,418.86,280.564,418.86,281.91z"/>
			<path id="path614" fill="#9D4916" stroke="#68300E" stroke-width="0.625" d="M421.15,302.13c0,1.187-0.963,2.15-2.15,2.15
				c-1.188,0-2.15-0.963-2.15-2.15c0-1.188,0.962-2.15,2.15-2.15C420.187,299.98,421.15,300.943,421.15,302.13z"/>
			<path id="path615" fill="#9D4916" stroke="#68300E" stroke-width="0.625" d="M439.927,324.49c0,1.187-0.963,2.15-2.15,2.15
				c-1.188,0-2.15-0.963-2.15-2.15c0-1.187,0.962-2.15,2.15-2.15C438.964,322.34,439.927,323.303,439.927,324.49z"/>
			<path id="path616" fill="#9D4916" stroke="#68300E" stroke-width="0.625" d="M442.65,330.904c0,1.188-0.962,2.15-2.15,2.15
				c-1.187,0-2.15-0.962-2.15-2.15c0-1.188,0.962-2.15,2.15-2.15C441.687,328.754,442.65,329.716,442.65,330.904z"/>
		</g>
		<g id="g800">
			<g id="g674">
				<g id="g650">
					<path id="path649" fill="#FFFFFF" stroke="#000000" stroke-width="0.625" d="M452.13,349.59
						c-1.414-1.281-2.313-2.103-2.868-3.499c-2.81-0.306-5.62-0.611-8.431-0.917c-0.038,1.606-0.076,3.211-0.115,4.817
						C444.521,349.857,448.326,349.724,452.13,349.59z"/>
					<path id="path640" fill="#FFFFFF" stroke="#000000" stroke-width="0.625" stroke-linejoin="round" d="M390.36,343.91
						c4.897,0.904,12.281-0.452,14.692,2.712c2.895,3.281-9.061,8.328-7.349,11.166c3.698,3.914,7.504,2.3,11.643,0.136
						c0.975-2.115,1.728-5.886,2.261-7.007c-1.507-3.466-5.555-5.165-4.521-10.398c6.827-2.551,19.95-2.34,21.363-1.356
						c1.109,2.175,0.112,3.166,0.338,4.899c-1.13,2.185-4.039,5.889-4.045,7.849c7.162,2.523,9.05-0.389,15.493-0.218
						c7.549,0.092,12.142,2.119,13.781-0.882c-1.123-2.59-8.047-0.483-10.675-2.147c-1.314-0.445-2.163-1.501-3.299-2.666
						c-1.136-1.165-4.329-1.224-4.807-4.092c1.336-6.132,10.185-5.195,11.632-6.134c7.685,0.527,15.371,1.055,23.056,1.582
						c4.177-0.118,6.539,7.398,0.899,9.66s-22.321-3.354-29.557,0.506c-0.374-1.574-5.573-3.955-5.948-4.03
						c-2.215,0.663-6.532,0.42-6.532,0.42c-1.055,1.959-2.259,3.392-3.314,5.352c-4.788-2.099-9.314,1.63-14.543,0.525
						c0,0-7.911,0.904-8.137,0.904c-0.226,0-5.198-0.452-5.198-0.452c-2.637,0.753-5.274,1.507-7.911,2.26
						c1.883-1.658,3.767-3.315,5.65-4.973C393.675,346.321,392.017,345.115,390.36,343.91L390.36,343.91z"/>
					<path id="path643" fill="#FFFFFF" stroke="#000000" stroke-width="0.625" d="M390.011,342.94c0,1.204-0.976,2.179-2.179,2.179
						s-2.179-0.976-2.179-2.179s0.976-2.18,2.179-2.18S390.011,341.736,390.011,342.94z"/>
					<path id="path647" fill="#FFFFFF" stroke="#000000" stroke-width="0.625" d="M389.44,353.72c0,1.203-0.976,2.179-2.179,2.179
						c-1.204,0-2.179-0.976-2.179-2.179c0-1.204,0.976-2.18,2.179-2.18C388.464,351.54,389.44,352.517,389.44,353.72z"/>
				</g>
				<g id="g655" transform="matrix(-1 0 0 1 939.11 .039062)">
					<path id="path669" fill="#FFFFFF" stroke="#000000" stroke-width="0.625" d="M452.13,349.59
						c-1.414-1.281-2.313-2.103-2.868-3.499c-2.81-0.306-5.62-0.611-8.431-0.917c-0.038,1.606-0.076,3.211-0.115,4.817
						C444.521,349.857,448.326,349.724,452.13,349.59z"/>
					<path id="path670" fill="#FFFFFF" stroke="#000000" stroke-width="0.625" stroke-linejoin="round" d="M390.36,343.91
						c4.897,0.905,12.281-0.452,14.692,2.712c2.895,3.281-9.061,8.328-7.349,11.167c3.698,3.912,7.504,2.3,11.643,0.136
						c0.975-2.115,1.728-5.886,2.261-7.007c-1.507-3.466-5.555-5.164-4.521-10.398c6.827-2.551,19.95-2.34,21.363-1.356
						c1.109,2.176,0.112,3.166,0.338,4.899c-1.13,2.185-4.039,5.889-4.045,7.849c7.162,2.523,9.05-0.389,15.493-0.218
						c7.549,0.093,12.142,2.121,13.781-0.881c-1.123-2.59-8.047-0.483-10.675-2.147c-1.314-0.445-2.163-1.501-3.299-2.666
						c-1.136-1.165-4.329-1.224-4.807-4.092c1.336-6.132,10.184-5.195,11.632-6.134c7.685,0.528,15.371,1.055,23.056,1.582
						c4.177-0.118,6.539,7.398,0.899,9.66c-5.64,2.261-22.321-3.355-29.557,0.505c-0.374-1.574-5.573-3.955-5.948-4.03
						c-2.215,0.663-6.532,0.42-6.532,0.42c-1.055,1.96-2.259,3.394-3.314,5.353c-4.788-2.099-9.314,1.63-14.543,0.525
						c0,0-7.911,0.904-8.137,0.904s-5.198-0.452-5.198-0.452c-2.637,0.753-5.274,1.507-7.911,2.26
						c1.883-1.658,3.767-3.315,5.65-4.973C393.675,346.321,392.017,345.115,390.36,343.91L390.36,343.91z"/>
					<path id="path671" fill="#FFFFFF" stroke="#000000" stroke-width="0.625" d="M390.012,342.94c0,1.204-0.976,2.179-2.179,2.179
						c-1.204,0-2.18-0.976-2.18-2.179s0.976-2.179,2.18-2.179S390.012,341.736,390.012,342.94z"/>
					<path id="path672" fill="#FFFFFF" stroke="#000000" stroke-width="0.625" d="M389.44,353.72c0,1.204-0.976,2.18-2.179,2.18
						s-2.179-0.976-2.179-2.18s0.976-2.179,2.179-2.179S389.44,352.516,389.44,353.72z"/>
				</g>
				<path id="path673" fill="#FFFFFF" d="M469.41,337.77c-1.94-0.364-2.63-0.26-3.945-0.39c-1.029,3.164-2.057,6.328-3.086,9.492
					c4.766,0.43,9.179,0.43,9.179,0.391C468.667,346.677,469.371,337.809,469.41,337.77L469.41,337.77z"/>
			</g>
			<g id="g775">
				<g>
					<path d="M449.264,344.275v-6.438h1.142v5.423h2.909v1.015H449.264z"/>
				</g>
				<g>
					<path d="M454.32,344.622v-6.438h1.143v6.438H454.32z"/>
				</g>
				<g>
					<path d="M459.305,345.056h-1.969v-6.434c0.867-0.041,1.475-0.062,1.824-0.062c0.668,0,1.19,0.143,1.566,0.428
						c0.377,0.286,0.565,0.694,0.565,1.225c0,0.51-0.27,0.912-0.809,1.208c0.8,0.278,1.2,0.853,1.2,1.723
						c0,0.586-0.221,1.051-0.664,1.395C460.577,344.884,460.005,345.056,459.305,345.056z M458.479,339.536v1.542
						c0.176,0.012,0.36,0.018,0.554,0.018c0.744,0,1.116-0.279,1.116-0.839c0-0.496-0.338-0.743-1.015-0.743
						C458.955,339.514,458.737,339.522,458.479,339.536z M458.479,341.971v2.127c0.231,0.02,0.419,0.031,0.563,0.031
						c0.51,0,0.879-0.086,1.109-0.259c0.23-0.173,0.345-0.461,0.345-0.862c0-0.366-0.107-0.633-0.321-0.8
						c-0.214-0.167-0.587-0.25-1.12-0.25C458.943,341.958,458.751,341.962,458.479,341.971z"/>
				</g>
				<g>
					<path d="M464.382,340.067v1.507h2.127v0.971h-2.127v1.929h2.918v1.015h-4.061v-6.438h4.109v1.015H464.382z"/>
				</g>
				<g>
					<path d="M472.599,345.576l-1.719-2.659c-0.173-0.003-0.414-0.013-0.725-0.031v2.689h-1.186v-6.438
						c0.064,0,0.312-0.011,0.743-0.033c0.431-0.022,0.778-0.033,1.042-0.033c1.635,0,2.452,0.633,2.452,1.898
						c0,0.381-0.112,0.728-0.338,1.042c-0.226,0.314-0.51,0.535-0.853,0.663l1.903,2.901H472.599z M470.155,340.131v1.789
						c0.211,0.018,0.372,0.026,0.483,0.026c0.477,0,0.827-0.068,1.048-0.202c0.221-0.135,0.332-0.397,0.332-0.787
						c0-0.317-0.119-0.538-0.356-0.663c-0.237-0.126-0.611-0.189-1.12-0.189C470.418,340.105,470.289,340.114,470.155,340.131z"/>
				</g>
				<g>
					<path d="M477.23,339.98v5.423h-1.142v-5.423h-2.048v-1.015h5.33v1.015H477.23z"/>
				</g>
				<g>
					<path d="M483.663,344.535l-0.471-1.305h-2.206l-0.448,1.305h-1.27l2.566-6.526h0.501l2.588,6.526H483.663z M482.085,339.978
						l-0.774,2.377h1.547L482.085,339.978z"/>
				</g>
				<g>
					<path d="M485.848,343.918l0.422-1.023c0.451,0.316,0.895,0.474,1.332,0.474c0.671,0,1.006-0.235,1.006-0.703
						c0-0.22-0.079-0.429-0.237-0.629c-0.158-0.199-0.484-0.422-0.978-0.67c-0.494-0.247-0.826-0.451-0.998-0.611
						c-0.171-0.159-0.303-0.35-0.395-0.569c-0.092-0.219-0.138-0.463-0.138-0.729c0-0.499,0.182-0.911,0.547-1.24
						c0.364-0.328,0.833-0.492,1.404-0.492c0.744,0,1.291,0.139,1.639,0.418l-0.347,0.984c-0.401-0.287-0.824-0.431-1.27-0.431
						c-0.264,0-0.468,0.07-0.613,0.209c-0.145,0.139-0.218,0.32-0.218,0.543c0,0.369,0.409,0.752,1.226,1.151
						c0.43,0.211,0.741,0.405,0.932,0.583c0.19,0.177,0.335,0.384,0.435,0.619c0.099,0.236,0.15,0.499,0.15,0.789
						c0,0.521-0.206,0.951-0.618,1.287c-0.412,0.337-0.963,0.506-1.654,0.506C486.873,344.384,486.332,344.229,485.848,343.918z"/>
				</g>
			</g>
		</g>
		<path id="path838" fill="none" stroke="#00A400" stroke-width="1.25" stroke-linecap="round" d="M418,331.33
			c6.032,0.731,14.44,0.182,18.095-0.001"/>
		<path id="path840" fill="none" stroke="#00A400" stroke-width="1.25" stroke-linecap="round" d="M408.86,310.67
			c5.118,4.021,16.267,6.396,16.084,6.396"/>
		<path id="path841" fill="none" stroke="#00A400" stroke-width="1.25" stroke-linecap="round" d="M431.34,318.17
			c-1.645-8.407-3.472-10.418-4.934-15.719"/>
		<path id="path842" fill="none" stroke="#00A400" stroke-width="1.25" stroke-linecap="round" d="M400.27,292.94
			c8.591,3.838,9.87,6.396,15.353,10.234"/>
		<path id="path843" fill="none" stroke="#00A400" stroke-width="1.25" stroke-linecap="round" d="M418.73,294.77
			c0.732-10.419,2.194-13.161,4.753-15.537"/>
		<path id="path844" fill="none" stroke="#00A400" stroke-width="1.25" stroke-linecap="round" d="M400.27,277.96
			c3.108,3.473,13.343,14.256,13.343,14.256"/>
		<path id="path845" fill="none" stroke="#00A400" stroke-width="1.25" stroke-linecap="round" d="M409.41,268.45
			c3.839,2.741,3.839,12.61,3.839,12.61"/>
	</g>
</g>
</svg>
