<?xml version="1.0" encoding="utf-8"?>
<!-- Generator: Adobe Illustrator 16.0.0, SVG Export Plug-In . SVG Version: 6.00 Build 0)  -->
<svg version="1.2" baseProfile="tiny"
	 id="svg611" xmlns:cc="http://creativecommons.org/ns#" xmlns:dc="http://purl.org/dc/elements/1.1/" xmlns:rdf="http://www.w3.org/1999/02/22-rdf-syntax-ns#"
	 xmlns="http://www.w3.org/2000/svg" xmlns:xlink="http://www.w3.org/1999/xlink" x="0px" y="0px" width="512px" height="512px"
	 viewBox="0 0 512 512" xml:space="preserve">
<g id="flag">
	<rect id="rect13410" x="0" fill="#FFFFFF" width="512" height="512"/>
	<g>
		<rect x="0.003" y="409.712" fill="#009900" width="512.004" height="102.29"/>
		<rect x="0.003" fill="#009900" width="512.004" height="102.398"/>
		<path fill="#FF0000" d="M0.003,153.396v204.471h512.004V153.396H0.003z M247.166,307.162l-66.085,44.379l24.578-72.118
			l-65.963-44.532l81.608-0.621l25.312-71.899l25.854,71.733l81.609,0.095l-65.626,44.953l25.121,71.958L247.166,307.162z"/>
		<polygon fill="#FFFF00" points="354.081,234.198 272.472,234.104 246.617,162.37 221.305,234.27 139.697,234.891 205.659,279.423 
			181.081,351.541 247.166,307.162 313.576,351.109 288.455,279.151 		"/>
	</g>
</g>
</svg>
