<?xml version="1.0" encoding="utf-8"?>
<!-- Generator: Adobe Illustrator 16.0.0, SVG Export Plug-In . SVG Version: 6.00 Build 0)  -->
<svg version="1.2" baseProfile="tiny"
	 id="svg1207" xmlns:cc="http://creativecommons.org/ns#" xmlns:dc="http://purl.org/dc/elements/1.1/" xmlns:rdf="http://www.w3.org/1999/02/22-rdf-syntax-ns#"
	 xmlns="http://www.w3.org/2000/svg" xmlns:xlink="http://www.w3.org/1999/xlink" x="0px" y="0px" width="512px" height="512px"
	 viewBox="0 0 512 512" xml:space="preserve">
<g>
	<path fill="#FFFF00" d="M228.587,225.721l6.164-19.596l11.788,37.479c0.423,0.422,0.833,0.83,1.23,1.226l38.655-0.028
		l-31.977,23.884l12.235,38.688l-31.938-23.941l-31.938,23.936l0.246-0.778l-58.442,59.121H512V146.29H148.776
		C179.435,176.779,208.479,205.695,228.587,225.721z M419.494,244.83l12.174-38.705l12.174,38.705l39.5-0.028l-31.977,23.884
		l12.234,38.688l-31.938-23.941l-31.938,23.936l12.241-38.682l-31.972-23.896L419.494,244.83z"/>
	<polygon fill="#FFFF00" points="0.504,146.29 0,146.29 0,365.71 0.2,365.71 	"/>
	<path fill="#009D00" d="M512,146.29V0H0.708c0.783,0,78.571,77.181,148.067,146.29H512z"/>
	<polygon fill="#009D00" points="0.706,0 0,0 0,146.29 0.504,146.29 	"/>
	<polygon fill="#009D00" points="0.2,365.71 0,365.71 0,504.3 0,510.588 	"/>
	<polygon fill="#009D00" points="512,365.71 144.611,365.71 0,511.998 0,512 512,512 	"/>
	<path fill="#F10600" d="M247.768,244.829c-0.397-0.396-0.807-0.804-1.23-1.226l0.386,1.226L247.768,244.829z"/>
	<path fill="#F10600" d="M144.611,365.71l58.442-59.121l11.995-37.903l-31.972-23.896l39.5,0.04l6.01-19.108
		c-20.107-20.026-49.151-48.942-79.811-79.431C79.279,77.181,1.491,0,0.708,0H0.706L0.504,146.29L0.2,365.71L0,510.588v1.41
		L144.611,365.71z"/>
	<polygon points="399.725,307.367 431.662,283.432 463.6,307.373 451.365,268.686 483.342,244.801 443.842,244.83 431.668,206.125 
		419.494,244.83 379.994,244.79 411.966,268.686 	"/>
	<polygon points="234.744,283.432 266.682,307.373 254.447,268.686 286.423,244.801 247.768,244.829 246.924,244.83 
		246.538,243.604 234.75,206.125 228.587,225.721 222.576,244.83 183.076,244.79 215.048,268.686 203.053,306.589 202.807,307.367 	
		"/>
</g>
</svg>
