<?xml version="1.0" encoding="utf-8"?>
<!-- Generator: Adobe Illustrator 16.0.0, SVG Export Plug-In . SVG Version: 6.00 Build 0)  -->
<svg version="1.2" baseProfile="tiny"
	 id="svg548" xmlns:cc="http://creativecommons.org/ns#" xmlns:dc="http://purl.org/dc/elements/1.1/" xmlns:rdf="http://www.w3.org/1999/02/22-rdf-syntax-ns#"
	 xmlns="http://www.w3.org/2000/svg" xmlns:xlink="http://www.w3.org/1999/xlink" x="0px" y="0px" width="512px" height="512px"
	 viewBox="0 0 512 512" xml:space="preserve">
<g>
	<rect x="0.001" fill="#3E5EB9" width="511.983" height="91.427"/>
	<rect x="0.001" y="420.563" fill="#3E5EB9" width="511.983" height="91.42"/>
	<rect x="0.001" y="91.427" fill="#FFD900" width="511.983" height="36.574"/>
	<rect x="0.001" y="383.992" fill="#FFD900" width="511.983" height="36.571"/>
	<path fill="#B10C0C" d="M511.985,307.927c-0.963,0.636-2.082,1.266-3.41,2.009l-1.106,0.621l-0.127-0.688
		c-0.529-2.875-1.551-5.933-2.539-8.891c-1.929-5.774-3.919-11.729-2.449-16.831c-1.787,1.125-3.408,2.292-5.383,3.734l-0.995,0.726
		l0.207-1.214c1.508-8.83,6.86-17.919,14.368-25.241h-76.304c-4.053,4.266-8.266,8.887-12.651,13.702
		c-34.914,38.335-82.73,90.836-165.598,90.836c-76.879,0-133.739-58.697-171.365-97.538c-2.342-2.418-4.607-4.754-6.802-7H15.914
		c1.616,3.32,1.439,6.823,1.234,10.715c-0.074,1.41-0.151,2.869-0.151,4.412v0.794l-0.716-0.343
		c-1.298-0.623-1.587-1.121-1.985-1.948c-0.072-0.15-0.149-0.31-0.241-0.484c0.585,4.371,0.199,10.084-0.148,15.222
		c-0.191,2.836-0.373,5.514-0.373,7.691l-0.943,0.232c-0.4-0.764-0.573-0.992-0.74-1.213c-0.103-0.135-0.202-0.267-0.334-0.482
		c-0.669,1.674-1.364,2.99-1.988,4.175c-1.437,2.725-2.571,4.877-2.571,9.651l-0.981,0.135c-0.404-1.44-0.432-2.069-0.45-2.486
		c-0.008-0.174-0.013-0.297-0.052-0.439c-1.128,1.541-3.292,2.979-5.473,4.375v71.834h511.983V307.927z"/>
	<path fill="#B10C0C" d="M477.991,212.736h-0.389c-0.681,0.38-1.428,0.622-2.198,0.622v-0.622h-1.414
		c-0.681,0.38-1.428,0.622-2.198,0.622v-0.622h-1.516c-0.681,0.381-1.43,0.623-2.2,0.623v-0.623h-68.393
		c4.44,4.503,8.677,8.991,12.736,13.378h26.396v-0.627c0.773,0,1.523,0.244,2.206,0.627h1.51v-0.628
		c0.774,0,1.525,0.244,2.209,0.628h1.403v-0.628c0.774,0,1.525,0.244,2.209,0.628h0.386l24.828-8.763l36.965,13.046l-36.965,13.046
		l-24.837-8.766h-0.388c-0.681,0.381-1.428,0.623-2.198,0.623v-0.623h-1.414c-0.681,0.381-1.428,0.623-2.198,0.623v-0.623h-1.516
		c-0.681,0.381-1.43,0.624-2.2,0.624v-0.624h-18.546c0.446,0.489,0.892,0.979,1.333,1.463c4.385,4.814,8.597,9.435,12.648,13.701
		h77.732V218.27l-9.157,3.232L477.991,212.736z"/>
	<path fill="#B10C0C" d="M3.966,226.114h97.056c4.399-4.391,9.001-8.878,13.808-13.378H33.226c-2.536,0-4.6-1.921-4.6-4.282
		s2.063-4.282,4.6-4.282h91.01c34.388-30.408,78.217-58.88,131.761-58.88c61.084,0,103.121,28.526,134.984,58.88h77.095v-0.627
		c0.773,0,1.524,0.244,2.207,0.627h1.509v-0.628c0.774,0,1.525,0.244,2.209,0.628h1.403v-0.628c0.774,0,1.525,0.244,2.209,0.628H478
		l24.827-8.762l9.157,3.232v-70.64H0.001v100.261C0.798,226.984,2.268,226.114,3.966,226.114z"/>
	<path fill="#B10C0C" d="M84.62,242.847c2.556-2.639,5.204-5.372,7.937-8.169H3.966c-1.698,0-3.168-0.871-3.965-2.148v17.312h77.823
		C80.017,247.597,82.28,245.263,84.62,242.847z"/>
	<path fill="#FFD900" d="M13.323,258.554c0.738,0.746,1.334,1.499,1.83,2.259h61.365c-1.386-1.413-2.752-2.799-4.073-4.119
		l-0.699-0.699l0.699-0.699c1.319-1.319,2.684-2.704,4.068-4.115H0.001v5.118c1.821-0.418,3.835-0.851,5.846-0.851
		C8.913,255.448,11.358,256.464,13.323,258.554z"/>
	<path fill="#FFD900" d="M439.551,255.295l0.698,0.699l-0.698,0.699c-1.323,1.323-2.667,2.701-4.027,4.119h76.446
		c0.005-0.005,0.01-0.009,0.015-0.014v-9.618h-76.456C436.887,252.597,438.23,253.974,439.551,255.295z"/>
	<path d="M435.529,251.181h76.456v-1.339h-77.732C434.679,250.291,435.106,250.74,435.529,251.181z"/>
	<path d="M76.517,260.812H15.153c0.29,0.443,0.542,0.891,0.761,1.34h61.917C77.388,261.699,76.953,261.257,76.517,260.812z"/>
	<path d="M511.97,260.812h-76.446c-0.424,0.441-0.851,0.891-1.277,1.34h76.304C511.016,261.699,511.489,261.252,511.97,260.812z"/>
	<path d="M77.824,249.842H0.001v1.339h76.511C76.948,250.736,77.382,250.294,77.824,249.842z"/>
	<path fill="#FFFFFF" d="M485.785,205.574c0.749,0.762,1.218,1.768,1.218,2.879c0,1.113-0.47,2.119-1.221,2.882l17.045,6.016
		l9.157-3.232v-11.328l-9.157-3.232L485.785,205.574z"/>
	<path d="M478,204.171h4.402c1.342,0,2.541,0.547,3.383,1.403l17.042-6.015l9.157,3.232v-4.15l-9.157-3.232L478,204.171z"/>
	<path d="M485.782,211.335c-0.841,0.854-2.039,1.4-3.38,1.4h-4.411l24.836,8.766l9.157-3.232v-4.15l-9.157,3.232L485.782,211.335z"
		/>
	<path fill="#FFD900" d="M468.076,210.859c1.148,0,2.409-1.26,2.409-2.407s-1.261-2.407-2.409-2.407v-0.623h-75.789
		c2.097,2.018,4.15,4.042,6.161,6.064h69.628V210.859z"/>
	<polygon fill="#FFD900" points="471.787,205.421 471.792,205.427 471.792,205.421 	"/>
	<polygon fill="#FFD900" points="471.792,211.477 471.784,211.486 471.792,211.486 	"/>
	<path fill="#FFD900" d="M29.876,208.454c0,1.672,1.502,3.032,3.35,3.032h82.943c2.178-2.023,4.397-4.047,6.658-6.064H33.226
		C31.379,205.421,29.876,206.782,29.876,208.454z"/>
	<path fill="#FFD900" d="M474.201,208.451c0-0.983-0.926-2.042-1.913-2.328c0.427,0.713,0.697,1.509,0.697,2.329
		c0,0.819-0.271,1.613-0.696,2.326C473.277,210.492,474.201,209.433,474.201,208.451z"/>
	<path fill="#FFD900" d="M477.814,208.451c0-0.938-0.846-1.941-1.781-2.279c0.409,0.701,0.669,1.478,0.669,2.279
		s-0.26,1.578-0.669,2.279C476.968,210.392,477.814,209.389,477.814,208.451z"/>
	<path fill="#FFD900" d="M482.403,211.486c1.848,0,3.351-1.36,3.351-3.032s-1.503-3.032-3.351-3.032h-3.286
		c0.725,0.862,1.197,1.926,1.197,3.029c0,1.105-0.475,2.172-1.202,3.035H482.403z"/>
	<path d="M479.116,205.421h3.286c1.848,0,3.351,1.36,3.351,3.032s-1.503,3.032-3.351,3.032h-3.291
		c-0.426,0.505-0.937,0.93-1.509,1.25h0.389h4.411c1.341,0,2.539-0.546,3.38-1.4c0.751-0.763,1.221-1.769,1.221-2.882
		c0-1.112-0.469-2.117-1.218-2.879c-0.842-0.856-2.041-1.403-3.383-1.403H478h-0.387
		C478.184,204.492,478.693,204.917,479.116,205.421z"/>
	<path d="M116.169,211.486H33.226c-1.847,0-3.35-1.36-3.35-3.032s1.502-3.032,3.35-3.032h89.602c0.467-0.417,0.938-0.833,1.409-1.25
		h-91.01c-2.536,0-4.6,1.921-4.6,4.282s2.063,4.282,4.6,4.282h81.604C115.275,212.319,115.72,211.902,116.169,211.486z"/>
	<path d="M471.792,211.486h-0.008c-0.426,0.505-0.937,0.93-1.508,1.25h1.516V211.486z"/>
	<path d="M475.405,211.599c-0.406,0.457-0.885,0.841-1.414,1.137h1.414V211.599z"/>
	<path d="M392.287,205.421h75.789v-1.25h-77.095C391.419,204.588,391.854,205.004,392.287,205.421z"/>
	<path d="M475.405,205.303v-1.131h-1.403C474.527,204.467,475,204.849,475.405,205.303z"/>
	<path d="M468.076,211.486h-69.628c0.414,0.417,0.824,0.833,1.235,1.25h68.393V211.486z"/>
	<path d="M471.787,205.421h0.005v-1.25h-1.509C470.854,204.492,471.364,204.917,471.787,205.421z"/>
	<path d="M475.405,205.303c0.239,0.27,0.448,0.56,0.628,0.869c0.936,0.338,1.781,1.34,1.781,2.279s-0.846,1.941-1.781,2.279
		c-0.18,0.309-0.389,0.6-0.628,0.869v1.137v0.622c0.771,0,1.518-0.242,2.198-0.622c0.572-0.32,1.083-0.745,1.509-1.25
		c0.728-0.863,1.202-1.93,1.202-3.035c0-1.103-0.473-2.167-1.197-3.029c-0.424-0.505-0.933-0.93-1.503-1.25
		c-0.684-0.384-1.435-0.628-2.209-0.628v0.628V205.303z"/>
	<path d="M471.792,205.421v0.005c0.185,0.221,0.35,0.451,0.496,0.696c0.987,0.285,1.913,1.345,1.913,2.328
		c0,0.982-0.925,2.041-1.912,2.327c-0.146,0.246-0.312,0.478-0.497,0.699v0.009v1.25v0.622c0.771,0,1.518-0.242,2.198-0.622
		c0.529-0.296,1.008-0.68,1.414-1.137c0.239-0.27,0.448-0.56,0.628-0.869c0.409-0.701,0.669-1.478,0.669-2.279
		s-0.26-1.578-0.669-2.279c-0.18-0.309-0.389-0.6-0.628-0.869c-0.404-0.454-0.878-0.836-1.403-1.131
		c-0.684-0.384-1.435-0.628-2.209-0.628v0.628V205.421z"/>
	<path d="M468.076,205.421v0.623c1.148,0,2.409,1.26,2.409,2.407s-1.261,2.407-2.409,2.407v0.627v1.25v0.623
		c0.771,0,1.52-0.242,2.2-0.623c0.571-0.32,1.082-0.745,1.508-1.25c0.003-0.003,0.005-0.006,0.008-0.009
		c0.186-0.221,0.351-0.453,0.497-0.699c0.426-0.713,0.696-1.507,0.696-2.326c0-0.82-0.271-1.615-0.697-2.329
		c-0.146-0.245-0.312-0.476-0.496-0.696c-0.002-0.001-0.003-0.003-0.005-0.005c-0.424-0.505-0.934-0.93-1.504-1.25
		c-0.683-0.383-1.434-0.627-2.207-0.627v0.627V205.421z"/>
	<path fill="#FFFFFF" d="M498.773,230.397l-25.205-8.896l-17.043,6.015c0.749,0.762,1.218,1.767,1.218,2.879
		c0,1.113-0.47,2.12-1.221,2.882l17.046,6.016L498.773,230.397z"/>
	<path d="M456.525,227.517l17.043-6.015l25.205,8.896l-25.205,8.896l-17.046-6.016c-0.841,0.854-2.038,1.4-3.379,1.4h-4.412
		l24.837,8.766l36.965-13.046l-36.965-13.046l-24.828,8.763h4.403C454.485,226.114,455.683,226.661,456.525,227.517z"/>
	<polygon fill="#FFD900" points="442.532,233.417 442.524,233.428 442.532,233.428 	"/>
	<polygon fill="#FFD900" points="442.527,227.364 442.532,227.371 442.532,227.364 	"/>
	<path fill="#FFD900" d="M99.771,227.364H3.966c-1.848,0-3.351,1.36-3.351,3.032s1.503,3.032,3.351,3.032H93.78
		C95.732,231.436,97.73,229.411,99.771,227.364z"/>
	<path fill="#FFD900" d="M438.817,232.801c1.147,0,2.408-1.26,2.408-2.407s-1.261-2.407-2.408-2.407v-0.623h-25.241
		c1.89,2.049,3.74,4.072,5.556,6.064h19.686V232.801z"/>
	<path fill="#FFD900" d="M444.941,230.393c0-0.983-0.927-2.043-1.914-2.328c0.428,0.714,0.698,1.51,0.698,2.33
		c0,0.819-0.271,1.613-0.696,2.326C444.015,232.435,444.941,231.375,444.941,230.393z"/>
	<path fill="#FFD900" d="M453.143,233.428c1.847,0,3.35-1.36,3.35-3.032s-1.503-3.032-3.35-3.032h-3.286
		c0.724,0.862,1.196,1.926,1.196,3.029c0,1.105-0.475,2.171-1.202,3.035H453.143z"/>
	<path fill="#FFD900" d="M448.553,230.393c0-0.939-0.846-1.941-1.781-2.279c0.409,0.701,0.669,1.478,0.669,2.279
		s-0.26,1.578-0.669,2.279C447.707,232.334,448.553,231.332,448.553,230.393z"/>
	<path d="M3.966,234.678h88.591c0.407-0.416,0.812-0.831,1.223-1.25H3.966c-1.848,0-3.351-1.36-3.351-3.032s1.503-3.032,3.351-3.032
		h95.805c0.415-0.416,0.833-0.833,1.25-1.25H3.966c-1.698,0-3.168,0.871-3.965,2.148v4.268
		C0.798,233.807,2.268,234.678,3.966,234.678z"/>
	<path d="M449.857,227.364h3.286c1.847,0,3.35,1.36,3.35,3.032s-1.503,3.032-3.35,3.032h-3.292c-0.425,0.505-0.936,0.93-1.508,1.25
		h0.388h4.412c1.341,0,2.538-0.546,3.379-1.4c0.751-0.762,1.221-1.769,1.221-2.882c0-1.112-0.469-2.117-1.218-2.879
		c-0.842-0.856-2.04-1.403-3.382-1.403h-4.403h-0.386C448.923,226.434,449.433,226.859,449.857,227.364z"/>
	<path d="M438.817,233.428h-19.686c0.381,0.418,0.762,0.835,1.14,1.25h18.546V233.428z"/>
	<path d="M446.145,233.54c-0.406,0.458-0.885,0.842-1.414,1.138h1.414V233.54z"/>
	<path d="M442.532,233.428h-0.009c-0.425,0.505-0.936,0.93-1.507,1.25h1.516V233.428z"/>
	<path d="M446.145,227.246v-1.132h-1.403C445.267,226.409,445.741,226.791,446.145,227.246z"/>
	<path d="M442.527,227.364h0.006v-1.25h-1.51C441.593,226.434,442.103,226.859,442.527,227.364z"/>
	<path d="M413.575,227.364h25.241v-1.25H412.42C412.807,226.531,413.193,226.948,413.575,227.364z"/>
	<path d="M446.145,227.246c0.239,0.27,0.447,0.56,0.627,0.868c0.936,0.337,1.781,1.34,1.781,2.279s-0.846,1.942-1.781,2.279
		c-0.18,0.309-0.388,0.599-0.627,0.868v1.138v0.623c0.771,0,1.518-0.242,2.198-0.623c0.572-0.32,1.083-0.745,1.508-1.25
		c0.728-0.864,1.202-1.93,1.202-3.035c0-1.103-0.473-2.167-1.196-3.029c-0.424-0.505-0.934-0.93-1.503-1.25
		c-0.684-0.384-1.435-0.628-2.209-0.628v0.628V227.246z"/>
	<path d="M442.532,227.364v0.007c0.185,0.22,0.349,0.45,0.494,0.694c0.987,0.285,1.914,1.345,1.914,2.328
		c0,0.983-0.926,2.042-1.912,2.328c-0.146,0.246-0.312,0.477-0.496,0.697v0.01v1.25v0.623c0.771,0,1.518-0.242,2.198-0.623
		c0.529-0.296,1.008-0.681,1.414-1.138c0.239-0.269,0.447-0.559,0.627-0.868c0.409-0.701,0.669-1.479,0.669-2.279
		s-0.26-1.578-0.669-2.279c-0.18-0.309-0.388-0.599-0.627-0.868c-0.403-0.455-0.878-0.836-1.403-1.132
		c-0.684-0.384-1.435-0.628-2.209-0.628v0.628V227.364z"/>
	<path d="M438.817,227.364v0.623c1.147,0,2.408,1.26,2.408,2.407s-1.261,2.407-2.408,2.407v0.626v1.25v0.624
		c0.771,0,1.52-0.242,2.2-0.624c0.571-0.32,1.082-0.745,1.507-1.25c0.003-0.003,0.006-0.007,0.009-0.01
		c0.185-0.221,0.35-0.452,0.496-0.697c0.426-0.713,0.696-1.507,0.696-2.326c0-0.82-0.271-1.616-0.698-2.33
		c-0.146-0.244-0.31-0.474-0.494-0.694c-0.002-0.002-0.004-0.004-0.006-0.007c-0.424-0.505-0.934-0.93-1.504-1.25
		c-0.683-0.383-1.433-0.627-2.206-0.627v0.627V227.364z"/>
	<path fill="#3D5DA7" d="M497.404,286.329c1.964-1.423,3.643-2.591,5.64-3.775l1.321-0.784l-0.607,1.411
		c-2.164,5.036-0.051,11.362,1.994,17.481c0.922,2.76,1.873,5.606,2.439,8.343c1.56-0.873,2.784-1.572,3.794-2.299v-11.684
		c-1.442,1.26-3.271,2.416-6.13,4.134c2.301-4.598,4.418-6.056,5.905-9.016c0.079-0.156,0.149-0.309,0.225-0.463v-27.502
		C504.6,269.129,499.204,277.803,497.404,286.329z"/>
	<path d="M510.55,262.152c-7.508,7.322-12.86,16.411-14.368,25.241l-0.207,1.214l0.995-0.726c1.975-1.442,3.596-2.609,5.383-3.734
		c-1.47,5.102,0.521,11.057,2.449,16.831c0.988,2.958,2.01,6.016,2.539,8.891l0.127,0.688l1.106-0.621
		c1.328-0.743,2.447-1.373,3.41-2.009v-1.221c-1.01,0.727-2.234,1.426-3.794,2.299c-0.566-2.736-1.518-5.583-2.439-8.343
		c-2.045-6.119-4.158-12.445-1.994-17.481l0.607-1.411l-1.321,0.784c-1.997,1.185-3.676,2.353-5.64,3.775
		c1.801-8.526,7.196-17.2,14.581-24.153v-1.377c-0.005,0.005-0.01,0.009-0.015,0.014
		C511.489,261.252,511.016,261.699,510.55,262.152z"/>
	<path fill="#A70000" d="M505.855,299.156c2.859-1.718,4.688-2.874,6.13-4.134v-5.345c-0.075,0.154-0.146,0.307-0.225,0.463
		C510.273,293.101,508.156,294.559,505.855,299.156z"/>
	<path fill="#3D5DA7" d="M5.065,306.531l0.398-0.865l0.486,0.819c0.11,0.186,0.198,0.345,0.269,0.485
		c0.439-2.746,1.381-4.532,2.426-6.514c0.732-1.389,1.562-2.963,2.323-5.078l0.397-1.104l0.521,1.052
		c0.357,0.719,0.525,0.979,0.679,1.188c0.06-1.836,0.199-3.904,0.345-6.062c0.408-6.037,0.87-12.88-0.268-17.234l0.865-0.45
		c1.03,1.21,1.412,2.002,1.69,2.58c0.237,0.491,0.375,0.778,0.808,1.083c0.021-1.256,0.084-2.452,0.145-3.616
		c0.279-5.295,0.499-9.477-3.547-13.566c-1.774-1.887-3.981-2.8-6.756-2.8c-1.98,0-4.021,0.455-5.846,0.876v19.143
		c1.753,1.229,3.713,2.552,6.273,5.103c-2.69-0.631-4.632-1.122-6.273-1.72v13.783c1.075,1.149,2.268,2.494,3.641,4.602
		c-1.455-0.665-2.634-1.219-3.641-1.747v14.482C2.257,309.512,4.379,308.02,5.065,306.531z"/>
	<path d="M5.474,307.783c0.039,0.143,0.044,0.266,0.052,0.439c0.018,0.417,0.046,1.046,0.45,2.486l0.981-0.135
		c0-4.774,1.135-6.927,2.571-9.651c0.625-1.185,1.319-2.501,1.988-4.175c0.132,0.216,0.232,0.348,0.334,0.482
		c0.167,0.221,0.34,0.449,0.74,1.213l0.943-0.232c0-2.178,0.181-4.855,0.373-7.691c0.347-5.138,0.733-10.851,0.148-15.222
		c0.092,0.175,0.168,0.334,0.241,0.484c0.398,0.827,0.688,1.325,1.985,1.948l0.716,0.343v-0.794c0-1.543,0.077-3.002,0.151-4.412
		c0.205-3.892,0.381-7.395-1.234-10.715c-0.219-0.449-0.472-0.896-0.761-1.34c-0.496-0.76-1.092-1.513-1.83-2.259
		c-1.964-2.09-4.41-3.106-7.476-3.106c-2.011,0-4.025,0.433-5.846,0.851v1.025c1.825-0.422,3.865-0.876,5.846-0.876
		c2.775,0,4.982,0.914,6.756,2.8c4.046,4.09,3.826,8.271,3.547,13.566c-0.061,1.164-0.124,2.36-0.145,3.616
		c-0.433-0.305-0.571-0.592-0.808-1.083c-0.279-0.578-0.66-1.37-1.69-2.58l-0.865,0.45c1.138,4.354,0.676,11.197,0.268,17.234
		c-0.146,2.158-0.286,4.227-0.345,6.062c-0.154-0.209-0.322-0.47-0.679-1.188l-0.521-1.052l-0.397,1.104
		c-0.761,2.115-1.591,3.689-2.323,5.078c-1.045,1.981-1.987,3.768-2.426,6.514c-0.071-0.141-0.159-0.3-0.269-0.485l-0.486-0.819
		l-0.398,0.865c-0.686,1.488-2.808,2.98-5.063,4.438v1.188C2.183,310.763,4.346,309.324,5.474,307.783z"/>
	<path fill="#A70000" d="M0.001,276.467v3.383c1.641,0.598,3.583,1.089,6.273,1.72C3.714,279.019,1.754,277.696,0.001,276.467z"/>
	<path fill="#A70000" d="M0.001,293.633v2.854c1.006,0.528,2.186,1.082,3.641,1.747C2.269,296.127,1.076,294.782,0.001,293.633z"/>
	<path fill="#FFFFFF" d="M243.234,184.445c9.729,10.943,1.605,15.354,11.903,16.073c10.861,0.797,4.705,11.563,13.84,11.937
		c6.387,0.278-0.638,25.793,5.511,34.212c6.264,8.777,11.509,2.572,11.618,8.913c0.109,6.558-17.045,5.897-17.346,26.1
		c-0.503,11.642-14.477,12.387-15.144,19.878c-0.829,7.046,27.528,11.002,27.151,17.31c-0.39,6.289-30.62,5.305-31.937,12.476
		c-0.664,6.339,40.188,11.553,44.731,29.467c59.616-12.785,97.577-54.451,126.571-86.286c6.089-6.686,11.854-13.016,17.323-18.529
		c-5.466-5.512-11.229-11.839-17.314-18.522c-34.667-38.068-82.145-90.204-164.146-90.204c-0.348,0-0.692,0.01-1.039,0.012
		C250.326,151.866,232.216,171.277,243.234,184.445z M284.365,295.006h-8.865V265.75h8.865V295.006z M302.094,295.006h-8.865V265.75
		h8.865V295.006z M319.823,295.006h-8.865V265.75h8.865V295.006z M337.559,295.006h-8.866V265.75h8.866V295.006z M355.288,295.006
		h-8.866V265.75h8.866V295.006z M373.018,295.006h-8.866V265.75h8.866V295.006z M355.288,246.245h-8.866v-29.256h8.866V246.245z
		 M293.229,216.989h8.865v29.256h-8.865V216.989z M310.958,216.989h8.865v29.256h-8.865V216.989z M328.693,216.989h8.866v29.256
		h-8.866V216.989z M275.499,246.245v-29.256h8.865v29.256H275.499z M373.018,246.245h-8.866v-29.256h8.866V246.245z"/>
	<path d="M435.524,260.812c1.36-1.418,2.704-2.796,4.027-4.119l0.698-0.699l-0.698-0.699c-1.321-1.322-2.664-2.698-4.022-4.115
		c-0.423-0.44-0.85-0.89-1.276-1.339c-4.052-4.266-8.264-8.886-12.648-13.701c-0.441-0.485-0.887-0.974-1.333-1.463
		c-0.378-0.415-0.759-0.832-1.14-1.25c-1.815-1.992-3.666-4.015-5.556-6.064c-0.383-0.416-0.769-0.833-1.155-1.25
		c-4.06-4.387-8.296-8.875-12.736-13.378c-0.411-0.417-0.821-0.833-1.235-1.25c-2.011-2.023-4.064-4.047-6.161-6.064
		c-0.434-0.417-0.868-0.833-1.306-1.25c-31.863-30.354-73.9-58.88-134.984-58.88c-53.544,0-97.373,28.472-131.761,58.88
		c-0.471,0.417-0.941,0.833-1.409,1.25c-2.261,2.017-4.48,4.041-6.658,6.064c-0.449,0.417-0.894,0.833-1.339,1.25
		c-4.807,4.5-9.409,8.987-13.808,13.378c-0.418,0.417-0.836,0.834-1.25,1.25c-2.042,2.047-4.039,4.072-5.991,6.064
		c-0.411,0.419-0.816,0.834-1.223,1.25c-2.733,2.797-5.381,5.53-7.937,8.169c-2.34,2.416-4.603,4.75-6.796,6.995
		c-0.442,0.453-0.876,0.895-1.312,1.339c-1.384,1.411-2.749,2.796-4.068,4.115l-0.699,0.699l0.699,0.699
		c1.321,1.32,2.687,2.706,4.073,4.119c0.436,0.444,0.871,0.887,1.313,1.34c2.195,2.246,4.459,4.582,6.802,7
		c37.625,38.841,94.486,97.538,171.365,97.538c82.867,0,130.684-52.501,165.598-90.836c4.386-4.815,8.599-9.437,12.651-13.702
		C434.673,261.703,435.1,261.254,435.524,260.812z M73.142,255.996c36.571-36.573,97.521-109.714,182.855-109.714
		c0,0-0.388,0.354-1.039,0.999c0.347-0.002,0.691-0.012,1.039-0.012c82.001,0,129.479,52.136,164.146,90.204
		c6.086,6.683,11.849,13.011,17.314,18.522c-5.469,5.514-11.234,11.844-17.323,18.529c-28.994,31.835-66.955,73.501-126.571,86.286
		c0.074,0.292,0.139,0.587,0.193,0.886c-6.298,2.059-24.216,3.998-37.759,4.009C170.669,365.771,109.713,292.562,73.142,255.996z"/>
	<path d="M293.756,361.695c-0.055-0.299-0.119-0.594-0.193-0.886c-4.543-17.914-45.396-23.128-44.731-29.467
		c1.316-7.171,31.547-6.187,31.937-12.476c0.377-6.308-27.98-10.264-27.151-17.31c0.667-7.491,14.641-8.236,15.144-19.878
		c0.301-20.203,17.455-19.542,17.346-26.1c-0.109-6.341-5.354-0.136-11.618-8.913c-6.148-8.418,0.876-33.934-5.511-34.212
		c-9.135-0.374-2.979-11.14-13.84-11.937c-10.298-0.718-2.174-5.13-11.903-16.073c-11.018-13.168,7.093-32.579,11.725-37.165
		c0.651-0.645,1.039-0.999,1.039-0.999c-85.335,0-146.284,73.141-182.855,109.714c36.571,36.567,97.527,109.776,182.855,109.708
		C269.54,365.693,287.458,363.754,293.756,361.695z M141.408,295.006V265.75h8.866v29.256H141.408z M159.138,295.006V265.75h8.866
		v29.256H159.138z M176.867,295.006V265.75h8.866v29.256H176.867z M194.603,295.006V265.75h8.865v29.256H194.603z M212.332,295.006
		V265.75h8.865v29.256H212.332z M230.062,295.006V265.75h8.865v29.256H230.062z M141.408,216.989h8.866v29.256h-8.866V216.989z
		 M168.004,246.245h-8.866v-29.256h8.866V246.245z M234.696,214.834v0.902l-0.765-0.478c-1.145-0.715-2.079-1.142-2.903-1.518
		c-0.879-0.401-1.622-0.741-2.25-1.288c0.227,0.719,0.546,1.432,0.889,2.2c0.325,0.726,0.666,1.491,0.963,2.337h8.298v29.256h-8.865
		v-24.424c-1.543-1.194-3.058-2.23-4.73-3.214c0.7,2.724-0.447,6.115-1.562,9.411c-1.293,3.821-2.514,7.431-0.444,9.075l1.45,1.151
		l-1.833-0.265c-0.582-0.084-1.164-0.195-1.746-0.318v8.585h-8.865v-11.979c-3.727-2.104-6.896-4.865-8.779-7.859
		c-0.032,0.029-0.055,0.062-0.085,0.091v19.747h-8.865v-21.256c-1.084-1.088-2.065-2.158-2.74-3.049
		c-0.763-1.007-1.264-1.885-1.509-2.646c-0.875,1.515-1.075,2.674-1.378,4.773l-0.141,0.979l-0.705-0.695
		c-0.816-0.805-1.614-1.614-2.396-2.429v24.323h-8.866v-29.256h4.676c-1.49-2.058-2.722-4.24-3.491-6.662
		c-0.649,0.831-1.07,1.345-1.492,1.861c-0.532,0.651-1.066,1.304-2.069,2.605l-0.702,0.912l-0.243-1.471
		c-1.366-8.279-1.416-8.791,1.018-15.14c-1.543,1.098-2.972,2.247-4.695,3.653l-1.006,0.82l0.196-1.284
		c2.217-14.509,13.55-29.71,27.56-36.968l1.396-0.724l-0.722,1.397c-0.834,1.613-1.142,2.62-0.915,2.993
		c0.224,0.368,1.265,0.418,2.252,0.418h0c0.415,0,0.873-0.009,1.372-0.019c0.607-0.012,1.274-0.025,1.999-0.025
		c5.872,0,14.942,0.948,25.864,9.148c4.228,3.182,10.051,15.389,10.051,21.067v0.618l-0.604-0.128
		c-3.124-0.665-7.744-2.875-10.563-4.323C229.603,199.21,234.696,206.567,234.696,214.834z"/>
	<rect x="141.408" y="216.989" fill="#FFFFFF" width="8.866" height="29.256"/>
	<rect x="141.408" y="265.75" fill="#FFFFFF" width="8.866" height="29.256"/>
	<rect x="159.138" y="216.989" fill="#FFFFFF" width="8.866" height="29.256"/>
	<rect x="159.138" y="265.75" fill="#FFFFFF" width="8.866" height="29.256"/>
	<path fill="#FFFFFF" d="M176.867,216.989v29.256h8.866v-24.323c-1.525-1.59-2.949-3.218-4.19-4.933H176.867z"/>
	<rect x="176.867" y="265.75" fill="#FFFFFF" width="8.866" height="29.256"/>
	<path fill="#FFFFFF" d="M202.24,230.324l0.076,0.063l-0.221,0.657l-0.345,0.011c-0.072-0.022-0.167-0.047-0.321-0.14l-0.018,0.021
		l-0.162-0.134c-1.206-0.797-4.194-3.351-6.647-5.812v21.256h8.865v-19.747C202.486,227.459,202.303,228.803,202.24,230.324z"/>
	<rect x="194.603" y="265.75" fill="#FFFFFF" width="8.865" height="29.256"/>
	<path fill="#FFFFFF" d="M212.332,234.266v11.979h8.865v-8.585C218.125,237.007,215.078,235.816,212.332,234.266z"/>
	<rect x="212.332" y="265.75" fill="#FFFFFF" width="8.865" height="29.256"/>
	<path fill="#FFFFFF" d="M231.474,222.932l-0.812-0.647c-0.202-0.161-0.4-0.309-0.6-0.463v24.424h8.865v-29.256h-8.298
		c0.479,1.36,0.845,2.932,0.845,4.904V222.932z"/>
	<rect x="230.062" y="265.75" fill="#FFFFFF" width="8.865" height="29.256"/>
	<rect x="275.499" y="216.989" width="8.865" height="29.256"/>
	<rect x="275.499" y="265.75" width="8.865" height="29.256"/>
	<rect x="293.229" y="216.989" width="8.865" height="29.256"/>
	<rect x="293.229" y="265.75" width="8.865" height="29.256"/>
	<rect x="310.958" y="216.989" width="8.865" height="29.256"/>
	<rect x="310.958" y="265.75" width="8.865" height="29.256"/>
	<rect x="328.693" y="216.989" width="8.866" height="29.256"/>
	<rect x="328.693" y="265.75" width="8.866" height="29.256"/>
	<rect x="346.422" y="216.989" width="8.866" height="29.256"/>
	<rect x="346.422" y="265.75" width="8.866" height="29.256"/>
	<rect x="364.152" y="216.989" width="8.866" height="29.256"/>
	<rect x="364.152" y="265.75" width="8.866" height="29.256"/>
	<path fill="#3D5DA7" d="M224.175,194.345l0.597-0.79c0.078,0.043,7.513,4.169,12.121,5.378c-0.406-5.604-5.81-16.755-9.628-19.629
		c-10.683-8.02-19.535-8.948-25.263-8.948c-0.718,0-1.378,0.013-1.979,0.025c-0.506,0.01-0.971,0.019-1.392,0.019h0
		c-1.349,0-2.602-0.069-3.107-0.898c-0.343-0.564-0.288-1.334,0.225-2.58c-12.712,7.136-22.937,20.86-25.478,34.209
		c1.758-1.42,3.272-2.593,5.063-3.779l1.305-0.864l-0.778,2.021c-2.639,6.848-2.724,7.069-1.458,14.767
		c0.589-0.751,0.987-1.237,1.384-1.723c0.536-0.654,1.069-1.307,2.077-2.616l0.622-0.808l0.258,0.986
		c1.412,5.394,5.196,9.65,9.39,13.829c0.329-2.058,0.72-3.377,2.211-5.47l0.884,0.44c-0.784,2.487,6.895,9.227,10.052,11.673
		c0.13-1.7,0.534-3.261,2.131-4.337l0.444-0.3l0.268,0.464c2.985,5.171,10.386,9.883,17.618,11.339
		c-1.236-2.21-0.105-5.553,1.081-9.059c1.243-3.674,2.528-7.474,1.08-9.983l-0.898-1.556l1.573,0.869
		c2.141,1.181,3.983,2.378,5.858,3.811c-0.183-2.427-0.974-4.195-1.682-5.777c-0.677-1.515-1.317-2.945-1.317-4.663l0.959-0.199
		c0.668,1.546,1.514,1.932,3.047,2.632c0.626,0.286,1.372,0.626,2.232,1.112C233.184,203.485,224.267,194.437,224.175,194.345z
		 M202.613,181.14c1.434-2.255,5.473,1.843,12.413,5.47c3.942,2.068,7.083,2.109,13.198,5.328
		c-8.624,0.451-10.822,0.295-17.977-3.002C203.092,185.638,201.178,183.395,202.613,181.14z M187.468,199.992
		c0.94-7.647-0.175-13.236,2.534-13.095c2.71,0.142,3.49,2.962,2.151,10.593c-1.34,7.63-2.469,9.484-7.788,16.146
		C185.175,206.884,186.941,204.34,187.468,199.992z M210.209,225.846c-3.051-5.458-3.167-7.813-1.055-8.638
		c2.112-0.825,2.684,3.728,5.422,9.304c1.551,3.172,3.614,4.643,6.015,9.572C214.638,232.417,213.259,231.304,210.209,225.846z
		 M198.51,225.998c-0.55-5.697,0.503-8.122,0.154-11.791c-0.602-6.457-2.597-10.83-0.234-11.232
		c2.361-0.402,3.556,1.764,3.811,8.283C202.495,217.776,201.865,219.513,198.51,225.998z M215.991,204.92
		c-5.311-3.939-6.439-6.139-4.749-7.803c1.689-1.665,4.208,2.441,9.268,6.624c2.872,2.382,5.505,2.928,9.959,6.633
		C223.118,209.35,221.302,208.86,215.991,204.92z"/>
	<path d="M237.313,200.061l0.604,0.128v-0.618c0-5.678-5.824-17.885-10.051-21.067c-10.922-8.2-19.992-9.148-25.864-9.148
		c-0.725,0-1.392,0.013-1.999,0.025c-0.499,0.01-0.957,0.019-1.372,0.019h0c-0.988,0-2.028-0.05-2.252-0.418
		c-0.227-0.373,0.081-1.379,0.915-2.993l0.722-1.397l-1.396,0.724c-14.01,7.257-25.343,22.459-27.56,36.968l-0.196,1.284l1.006-0.82
		c1.724-1.406,3.152-2.555,4.695-3.653c-2.434,6.349-2.384,6.861-1.018,15.14l0.243,1.471l0.702-0.912
		c1.003-1.302,1.537-1.955,2.069-2.605c0.422-0.516,0.843-1.031,1.492-1.861c0.769,2.422,2.001,4.604,3.491,6.662
		c1.242,1.715,2.666,3.343,4.19,4.933c0.782,0.815,1.58,1.624,2.396,2.429l0.705,0.695l0.141-0.979
		c0.303-2.099,0.503-3.258,1.378-4.773c0.245,0.761,0.747,1.639,1.509,2.646c0.675,0.892,1.656,1.961,2.74,3.049
		c2.453,2.461,5.441,5.016,6.647,5.812l0.162,0.134l0.018-0.021c0.154,0.092,0.249,0.118,0.321,0.14l0.345-0.011l0.221-0.657
		l-0.076-0.063c0.063-1.521,0.247-2.865,1.229-3.826c0.03-0.029,0.054-0.062,0.085-0.091c1.883,2.994,5.052,5.755,8.779,7.859
		c2.746,1.55,5.793,2.741,8.865,3.394c0.582,0.124,1.164,0.234,1.746,0.318l1.833,0.265l-1.45-1.151
		c-2.07-1.644-0.849-5.253,0.444-9.075c1.115-3.296,2.262-6.687,1.562-9.411c1.672,0.984,3.187,2.02,4.73,3.214
		c0.2,0.154,0.398,0.302,0.6,0.463l0.812,0.647v-1.039c0-1.973-0.366-3.544-0.845-4.904c-0.297-0.846-0.638-1.611-0.963-2.337
		c-0.343-0.768-0.662-1.48-0.889-2.2c0.628,0.547,1.372,0.886,2.25,1.288c0.824,0.376,1.758,0.803,2.903,1.518l0.765,0.478v-0.902
		c0-8.267-5.093-15.624-7.946-19.096C229.57,197.186,234.19,199.396,237.313,200.061z M233.675,213.942
		c-0.861-0.486-1.606-0.827-2.232-1.112c-1.534-0.7-2.379-1.086-3.047-2.632l-0.959,0.199c0,1.718,0.64,3.148,1.317,4.663
		c0.708,1.583,1.499,3.351,1.682,5.777c-1.875-1.433-3.717-2.63-5.858-3.811l-1.573-0.869l0.898,1.556
		c1.449,2.509,0.163,6.309-1.08,9.983c-1.186,3.506-2.317,6.849-1.081,9.059c-7.232-1.456-14.633-6.168-17.618-11.339l-0.268-0.464
		l-0.444,0.3c-1.597,1.076-2.001,2.638-2.131,4.337c-3.157-2.446-10.835-9.186-10.052-11.673l-0.884-0.44
		c-1.491,2.093-1.882,3.412-2.211,5.47c-4.194-4.179-7.979-8.435-9.39-13.829l-0.258-0.986l-0.622,0.808
		c-1.008,1.309-1.542,1.962-2.077,2.616c-0.397,0.486-0.795,0.972-1.384,1.723c-1.266-7.697-1.181-7.918,1.458-14.767l0.778-2.021
		l-1.305,0.864c-1.791,1.186-3.305,2.358-5.063,3.779c2.541-13.35,12.766-27.074,25.478-34.209c-0.513,1.245-0.568,2.015-0.225,2.58
		c0.505,0.829,1.758,0.898,3.107,0.898h0c0.42,0,0.885-0.009,1.392-0.019c0.601-0.012,1.261-0.025,1.979-0.025
		c5.729,0,14.581,0.928,25.263,8.948c3.818,2.874,9.222,14.025,9.628,19.629c-4.608-1.208-12.043-5.334-12.121-5.378l-0.597,0.79
		C224.267,194.437,233.184,203.485,233.675,213.942z"/>
	<path fill="#A70000" d="M192.154,197.49c1.339-7.63,0.559-10.451-2.151-10.593c-2.709-0.141-1.594,5.448-2.534,13.095
		c-0.527,4.348-2.293,6.892-3.103,13.644C189.685,206.975,190.814,205.121,192.154,197.49z"/>
	<path fill="#A70000" d="M198.43,202.975c-2.362,0.402-0.367,4.776,0.234,11.232c0.349,3.669-0.704,6.094-0.154,11.791
		c3.354-6.485,3.985-8.222,3.73-14.741C201.986,204.738,200.791,202.572,198.43,202.975z"/>
	<path fill="#A70000" d="M214.576,226.511c-2.738-5.576-3.31-10.129-5.422-9.304c-2.112,0.825-1.996,3.18,1.055,8.638
		c3.05,5.458,4.429,6.571,10.382,10.237C218.191,231.154,216.127,229.684,214.576,226.511z"/>
	<path fill="#A70000" d="M210.247,188.935c7.154,3.297,9.353,3.454,17.977,3.002c-6.115-3.219-9.256-3.26-13.198-5.328
		c-6.94-3.627-10.979-7.725-12.413-5.47C201.178,183.395,203.092,185.638,210.247,188.935z"/>
	<path fill="#A70000" d="M220.51,203.741c-5.06-4.182-7.578-8.289-9.268-6.624c-1.69,1.665-0.562,3.864,4.749,7.803
		c5.311,3.94,7.127,4.429,14.478,5.453C226.015,206.669,223.382,206.123,220.51,203.741z"/>
</g>
</svg>
