<?xml version="1.0" encoding="utf-8"?>
<!-- Generator: Adobe Illustrator 16.0.0, SVG Export Plug-In . SVG Version: 6.00 Build 0)  -->
<svg version="1.2" baseProfile="tiny"
	 id="svg3446" xmlns:cc="http://creativecommons.org/ns#" xmlns:dc="http://purl.org/dc/elements/1.1/" xmlns:rdf="http://www.w3.org/1999/02/22-rdf-syntax-ns#"
	 xmlns="http://www.w3.org/2000/svg" xmlns:xlink="http://www.w3.org/1999/xlink" x="0px" y="0px" width="512px" height="512px"
	 viewBox="0 0 512 512" xml:space="preserve">
<g>
	<rect x="0.005" y="511.567" fill="#FFFFFF" width="512.011" height="0.443"/>
	<path fill="#FFFFFF" d="M512.016,139.124H0.005v233.319h512.011V139.124z M345.022,224.422l3.442-11.936l3.68,12.119l11.915-0.27
		l-9.885,7.408l3.927,11.774l-9.781-7.537l-9.492,7.537l3.834-12.065l-9.792-7.117L345.022,224.422z M304.938,181.833l3.442-11.936
		l3.68,12.119l11.915-0.27l-9.885,7.407l3.927,11.774l-9.781-7.537l-9.492,7.537l3.834-12.065l-9.792-7.116L304.938,181.833z
		 M250.496,167.712l3.442-11.936l3.68,12.119l11.915-0.27l-9.885,7.407l3.927,11.774l-9.781-7.537l-9.492,7.537l3.834-12.065
		l-9.792-7.116L250.496,167.712z M196.522,181.833l3.442-11.936l3.68,12.119l11.915-0.27l-9.885,7.407l3.927,11.774l-9.781-7.537
		l-9.492,7.537l3.834-12.065l-9.792-7.116L196.522,181.833z M156.437,224.194l3.442-11.936l3.68,12.119l11.915-0.27l-9.885,7.407
		l3.927,11.774l-9.781-7.537l-9.492,7.537l3.834-12.065l-9.792-7.116L156.437,224.194z M138.4,295.219l3.834-12.066l-9.792-7.115
		l12.152,0.086l3.442-11.936l3.68,12.119l11.915-0.27l-9.885,7.406l3.927,11.775l-9.781-7.537L138.4,295.219z M253.977,343.096
		c-30.705,0-49.146,2.798-76.523,8.418l-0.038-11.879c27.416-5.672,45.856-8.471,76.562-8.471c30.706,0,49.146,2.799,76.562,8.471
		l0.136,11.947C303.122,345.894,284.683,343.096,253.977,343.096z M204.177,313.519l0.056,0.021l-0.015,0.034l5.344,7.407
		l10.327-0.303l-7.97,9.03l-15.602,0.399l-4.881-6.536l9.012-1.457l3.769-8.541L204.177,313.519z M241.034,318.321
		c0-0.04,7.086,0.04,7.086,0.04l5.959-4.75l5.817,4.69l7.025,0.101l-6.321,9.341h-13.286L241.034,318.321z M303.583,313.54
		l0.056-0.021l-0.04,0.056l3.768,8.541l9.012,1.457l-4.88,6.536l-15.602-0.399l-7.97-9.03l10.327,0.303l5.345-7.407L303.583,313.54z
		 M329.844,321.957c-14.92,0.18-21.752-8.463-24.985-14.373c-10.749,5.711-11.854,6.979-27.094,6.621
		c-10.071-0.324-16.348-6.188-21.74-12.436h-4.117c-5.393,6.247-11.668,12.111-21.739,12.436c-15.24,0.357-16.346-0.91-27.095-6.621
		c-3.233,5.91-10.065,14.553-24.986,14.373c-16.474-0.538-21.787-9.17-27.152-24.598c4.622,11.047,11.53,14.913,22.808,14.611
		c19.735,0.467,24.195-14.028,26.768-20.428c6.977,9.193,10.941,12.849,22.521,12.627c11.82,0.265,19.446-4.482,25.083-13.683
		v-39.711c-8.502-1.929-14.699-7.875-14.699-14.917c0-8.605,9.247-15.582,20.654-15.582c11.406,0,20.653,6.976,20.653,15.582
		c0,7.074-6.253,13.037-14.812,14.939v39.771c5.636,9.235,13.261,13.979,25.076,13.714c11.58,0.222,15.545-3.434,22.521-12.627
		c2.572,6.399,7.032,20.896,26.769,20.428c11.276,0.302,18.186-3.564,23.319-14.459
		C351.632,312.787,346.319,321.419,329.844,321.957z M359.936,287.682l-9.493,7.537l3.835-12.066l-9.792-7.115l12.152,0.086
		l3.442-11.936l3.68,12.119l11.914-0.27l-9.884,7.406l3.927,11.775L359.936,287.682z"/>
	<rect x="0.005" y="372.443" fill="#239F40" width="512.011" height="139.124"/>
	<rect x="0.005" fill="#CD1738" width="512.011" height="139.124"/>
	<polygon fill="#FFFF00" points="150.242,243.29 159.735,235.752 169.516,243.29 165.589,231.515 175.474,224.108 163.559,224.377 
		159.879,212.258 156.437,224.194 144.284,224.108 154.076,231.224 	"/>
	<polygon fill="#FFFF00" points="153.746,283.443 163.631,276.037 151.716,276.307 148.036,264.188 144.594,276.123 
		132.442,276.037 142.234,283.152 138.4,295.219 147.892,287.682 157.673,295.219 	"/>
	<polygon fill="#FFFF00" points="190.327,200.928 199.82,193.391 209.601,200.928 205.674,189.153 215.559,181.746 203.644,182.016 
		199.964,169.896 196.522,181.833 184.369,181.746 194.161,188.862 	"/>
	<polygon fill="#FFFF00" points="244.302,186.807 253.794,179.271 263.575,186.807 259.649,175.033 269.533,167.625 
		257.618,167.895 253.939,155.776 250.496,167.712 238.344,167.625 248.136,174.742 	"/>
	<polygon fill="#FFFF00" points="298.743,200.928 308.236,193.391 318.017,200.928 314.09,189.153 323.975,181.746 312.06,182.016 
		308.38,169.896 304.938,181.833 292.785,181.746 302.577,188.862 	"/>
	<polygon fill="#FFFF00" points="338.827,243.517 348.32,235.98 358.101,243.517 354.174,231.743 364.059,224.335 352.144,224.605 
		348.464,212.486 345.022,224.422 332.869,224.335 342.661,231.452 	"/>
	<polygon fill="#FFFF00" points="375.674,276.037 363.76,276.307 360.08,264.188 356.638,276.123 344.486,276.037 354.278,283.152 
		350.443,295.219 359.936,287.682 369.717,295.219 365.79,283.443 	"/>
	<path fill="#FFFF00" d="M259.911,246.853v3.945c8.56-1.902,14.812-7.866,14.812-14.939c0-8.605-9.247-15.582-20.653-15.582
		c-11.407,0-20.654,6.977-20.654,15.582c0,7.043,6.197,12.988,14.699,14.917v-3.923H259.911z M243.242,235.907
		c0-3.38,4.831-6.12,10.79-6.12s10.79,2.74,10.79,6.12s-4.83,6.12-10.79,6.12C248.073,242.026,243.242,239.287,243.242,235.907z"/>
	<path fill="#FFFF00" d="M259.911,290.569v-39.771v-3.945h-11.796v3.923v39.711c2.231-3.642,4.15-7.979,5.895-12.98
		C255.756,282.546,257.678,286.91,259.911,290.569z"/>
	<path fill="#FFFF00" d="M251.908,301.77h4.117c-0.698-0.809-1.383-1.624-2.058-2.435
		C253.292,300.146,252.607,300.961,251.908,301.77z"/>
	<path fill="#FFFF00" d="M334.277,312.084c-19.736,0.468-24.196-14.028-26.769-20.428c-6.976,9.193-10.94,12.849-22.521,12.627
		c-11.815,0.265-19.44-4.479-25.076-13.714c-2.233-3.659-4.156-8.023-5.901-13.062c-1.744,5.002-3.664,9.339-5.895,12.98
		c-5.637,9.2-13.263,13.947-25.083,13.683c-11.58,0.222-15.545-3.434-22.521-12.627c-2.572,6.399-7.032,20.895-26.768,20.428
		c-11.277,0.302-18.186-3.564-22.808-14.611c5.365,15.428,10.679,24.06,27.152,24.598c14.921,0.18,21.753-8.463,24.986-14.373
		c10.749,5.711,11.854,6.979,27.095,6.621c10.071-0.324,16.346-6.188,21.739-12.436c0.698-0.809,1.384-1.624,2.059-2.435
		c0.675,0.811,1.36,1.626,2.058,2.435c5.392,6.247,11.668,12.111,21.74,12.436c15.239,0.357,16.345-0.91,27.094-6.621
		c3.233,5.91,10.065,14.553,24.985,14.373c16.475-0.538,21.788-9.17,27.752-24.332C352.462,308.52,345.553,312.386,334.277,312.084z
		"/>
	<polygon fill="#FFFF00" points="204.177,313.519 204.218,313.574 204.233,313.54 	"/>
	<polygon fill="#FFFF00" points="191.437,323.572 196.318,330.108 211.919,329.709 219.889,320.679 209.562,320.981 
		204.218,313.574 200.448,322.115 	"/>
	<polygon fill="#FFFF00" points="303.583,313.54 303.599,313.574 303.639,313.519 	"/>
	<polygon fill="#FFFF00" points="287.927,320.679 295.897,329.709 311.498,330.108 316.378,323.572 307.366,322.115 
		303.599,313.574 298.254,320.981 	"/>
	<path fill="#FFFF00" d="M266.922,318.402l-7.025-0.101l-5.817-4.69l-5.959,4.75c0,0-7.086-0.08-7.086-0.04l6.28,9.422h13.286
		L266.922,318.402z"/>
	<path fill="#FFFF00" d="M253.977,331.164c-30.705,0-49.146,2.799-76.562,8.471l0.038,11.879c27.378-5.62,45.818-8.418,76.523-8.418
		c30.706,0,49.146,2.798,76.697,8.486l-0.136-11.947C303.123,333.963,284.683,331.164,253.977,331.164z"/>
	<ellipse fill="#FFFFFF" cx="254.032" cy="235.907" rx="10.79" ry="6.12"/>
</g>
</svg>
