<?xml version="1.0" encoding="utf-8"?>
<!-- Generator: Adobe Illustrator 16.0.0, SVG Export Plug-In . SVG Version: 6.00 Build 0)  -->
<svg version="1.2" baseProfile="tiny"
	 id="svg1" xmlns:cc="http://creativecommons.org/ns#" xmlns:dc="http://purl.org/dc/elements/1.1/" xmlns:rdf="http://www.w3.org/1999/02/22-rdf-syntax-ns#"
	 xmlns="http://www.w3.org/2000/svg" xmlns:xlink="http://www.w3.org/1999/xlink" x="0px" y="0px" width="512px" height="512px"
	 viewBox="0 0 512 512" xml:space="preserve">
<g>
	<polygon fill="#000066" points="0,28.622 0,85.333 113.422,85.333 	"/>
	<polygon fill="#000066" points="454.76,0.001 473.838,0.001 473.84,0 298.663,0 298.663,78.049 	"/>
	<path fill="#000066" d="M511.998,256.002H454.76l-156.097-78.048V256H281.6h-51.2H213.33v-78.044L57.24,256.001H0V512h512V256.003
		L511.998,256.002z M287.869,350.093l-13.951-10.128l-13.951,10.137l5.329-16.4l-13.951-10.137h17.244l5.329-16.408l5.329,16.4
		h17.244l-13.951,10.136L287.869,350.093z M350.747,240.899l5.329-16.409l5.328,16.4h17.245l-13.951,10.136l5.328,16.4
		l-13.95-10.128l-13.951,10.136l5.329-16.4l-13.951-10.136H350.747z M371.418,482.686l-15.342-11.153l-15.34,11.146l5.859-18.033
		l-15.34-11.146h18.961l5.861-18.024l5.859,18.032h18.961l-15.34,11.146L371.418,482.686z M438.175,325.518l-11.687-8.486
		l-11.678,8.484l4.461-13.728l-11.678-8.483h14.435l4.469-13.726l4.46,13.728h14.435l-11.678,8.484L438.175,325.518z"/>
	<polygon fill="#000066" points="512,227.382 512,170.666 398.569,170.666 	"/>
	<polygon fill="#000066" points="512,0.001 512,0 511.998,0.001 	"/>
	<polygon fill="#000066" points="512,85.333 512,28.621 398.576,85.333 	"/>
	<polygon fill="#000066" points="57.24,0.002 213.33,78.047 213.33,0 0,0 0.004,0.002 	"/>
	<polygon fill="#000066" points="0,170.666 0,227.381 113.43,170.666 	"/>
	
		<line fill="none" stroke="#FFFFFF" stroke-width="0" stroke-linecap="round" stroke-linejoin="round" x1="512" y1="0" x2="512" y2="0.001"/>
	<polygon fill="#FFFFFF" points="298.663,170.666 298.663,177.954 454.76,256.002 511.998,256.002 341.329,170.673 379.491,170.673 
		512,236.922 512,227.382 398.569,170.666 	"/>
	<polygon fill="#FFFFFF" points="341.329,85.333 398.576,85.333 512,28.621 512,0.001 511.998,0.001 	"/>
	<polygon fill="#FFFFFF" points="213.33,177.956 213.33,170.666 113.43,170.666 0,227.381 0,256 0.002,255.997 0.006,255.997 
		170.67,170.667 208.832,170.667 38.162,255.997 0.006,255.997 0,256 0,256.001 57.24,256.001 	"/>
	<polygon fill="#FFFFFF" points="0.004,0.002 170.67,85.333 213.33,85.333 213.33,78.047 57.24,0.002 	"/>
	<polygon fill="#FFFFFF" points="132.508,85.333 0,19.082 0,28.622 113.422,85.333 	"/>
	<polygon fill="#FFFFFF" points="454.76,0.001 298.663,78.049 298.663,85.333 303.168,85.333 303.17,85.333 473.838,0.001 	"/>
	<polygon fill="#FFFFFF" points="281.6,102.4 512,102.4 512,85.333 398.576,85.333 341.329,85.333 303.17,85.333 303.168,85.333 
		298.663,85.333 298.663,78.049 298.663,0 281.6,0 	"/>
	<polygon fill="#FFFFFF" points="230.4,102.4 230.4,0 213.33,0 213.33,78.047 213.33,85.333 170.67,85.333 132.508,85.333 
		113.422,85.333 0,85.333 0,102.4 	"/>
	<polygon fill="#FFFFFF" points="213.33,170.666 213.33,177.956 213.33,256 230.4,256 230.4,153.6 0,153.6 0,170.666 
		113.43,170.666 	"/>
	<polygon fill="#FFFFFF" points="281.6,153.6 281.6,256 298.663,256 298.663,177.954 298.663,170.666 398.569,170.666 512,170.666 
		512,153.6 	"/>
	<polygon fill="#CC0000" points="230.4,153.6 230.4,256 281.6,256 281.6,153.6 512,153.6 512,102.4 281.6,102.4 281.6,0 230.4,0 
		230.4,102.4 0,102.4 0,153.6 	"/>
	<polygon fill="#CC0000" points="0.002,255.997 0,256 0.006,255.997 	"/>
	<polygon fill="#CC0000" points="208.832,170.667 170.67,170.667 0.006,255.997 38.162,255.997 	"/>
	<polygon fill="#CC0000" points="303.17,85.333 341.329,85.333 511.998,0.001 512,0 473.84,0 473.838,0.001 	"/>
	<polygon fill="#CC0000" points="170.67,85.333 0.004,0.002 0,0 0,0.002 0,19.082 132.508,85.333 	"/>
	<polygon fill="#CC0000" points="341.329,170.673 511.998,256.002 512,256.003 512,256.002 512,236.922 379.491,170.673 	"/>
	
		<line fill="none" stroke="#CC0000" stroke-width="0" stroke-linecap="round" stroke-linejoin="round" x1="303.17" y1="85.333" x2="303.168" y2="85.333"/>
	<path fill="#FFFFFF" d="M342.125,267.436l13.951-10.136l13.95,10.128l-5.328-16.4l13.951-10.136h-17.245l-5.328-16.4l-5.329,16.409
		h-17.244l13.951,10.136L342.125,267.436z M338.298,242.447h13.582l4.196-12.915l4.196,12.917h13.582l-10.987,7.983l4.196,12.917
		l-10.987-7.982l-10.987,7.982l4.196-12.919L338.298,242.447z"/>
	<polygon fill="#CC0000" points="345.089,263.349 356.076,255.366 367.064,263.349 362.867,250.432 373.855,242.449 
		360.273,242.449 356.076,229.532 351.88,242.447 338.298,242.447 349.285,250.43 	"/>
	<path fill="#FFFFFF" d="M279.247,323.557l-5.329-16.4l-5.329,16.408h-17.244l13.951,10.137l-5.329,16.4l13.951-10.137
		l13.951,10.128l-5.329-16.4l13.951-10.136H279.247z M284.906,346.014l-10.987-7.982l-10.988,7.982l4.196-12.919l-10.987-7.983
		h13.582l4.196-12.914l4.197,12.916h13.581l-10.987,7.984L284.906,346.014z"/>
	<polygon fill="#CC0000" points="278.115,325.113 273.918,312.197 269.722,325.111 256.14,325.111 267.127,333.095 262.931,346.014 
		273.919,338.031 284.906,346.014 280.709,333.098 291.697,325.113 	"/>
	<path fill="#FFFFFF" d="M430.957,303.307l-4.46-13.728l-4.469,13.726h-14.435l11.678,8.483l-4.461,13.728l11.678-8.484
		l11.687,8.486l-4.461-13.727l11.678-8.484H430.957z M435.654,322.045l-9.156-6.648l-9.156,6.652l3.497-10.764l-9.156-6.653H423
		l3.497-10.769l3.498,10.765h11.317l-9.156,6.653L435.654,322.045z"/>
	<polygon fill="#CC0000" points="429.995,304.628 426.497,293.863 423,304.632 411.682,304.632 420.838,311.285 417.341,322.049 
		426.497,315.396 435.654,322.045 432.156,311.281 441.313,304.628 	"/>
	<path fill="#FFFFFF" d="M361.938,453.507l-5.859-18.032l-5.861,18.024h-18.961l15.34,11.146l-5.859,18.033l15.34-11.146
		l15.342,11.153l-5.859-18.033l15.34-11.146H361.938z M368.897,479.22l-12.82-9.313l-12.819,9.313l4.896-15.069l-12.819-9.313
		h15.846l4.898-15.071l4.896,15.07h15.846L364,464.149L368.897,479.22z"/>
	<polygon fill="#CC0000" points="360.975,454.836 356.078,439.766 351.18,454.837 335.334,454.837 348.154,464.15 343.257,479.22 
		356.076,469.906 368.897,479.22 364,464.149 376.821,454.836 	"/>
</g>
</svg>
