<?xml version="1.0" encoding="utf-8"?>
<!-- Generator: Adobe Illustrator 16.0.0, SVG Export Plug-In . SVG Version: 6.00 Build 0)  -->
<svg version="1.2" baseProfile="tiny"
	 id="svg548" xmlns:cc="http://creativecommons.org/ns#" xmlns:dc="http://purl.org/dc/elements/1.1/" xmlns:rdf="http://www.w3.org/1999/02/22-rdf-syntax-ns#"
	 xmlns="http://www.w3.org/2000/svg" xmlns:xlink="http://www.w3.org/1999/xlink" x="0px" y="0px" width="512px" height="512px"
	 viewBox="0 0 512 512" xml:space="preserve">
<g>
	<path fill="#004E00" d="M212.11,0v152.371l0.45-0.604v3.657l-0.45,0.605v20.715l0.452-1.205v21.942l-0.452-1.205v20.713l0.45,0.605
		v3.656v0v0l-0.45-0.604v291.336h299.874V0H212.11z M309.146,69.464l1.801-5.474l1.889,5.44l5.614,0.071l-4.443,3.529l1.666,5.519
		l-4.633-3.262l-4.587,3.338l1.583-5.543l-4.499-3.452L309.146,69.464z M283.261,49.351l1.801-5.474l1.888,5.441l5.615,0.071
		l-4.443,3.528l1.666,5.52l-4.633-3.262l-4.587,3.338l1.582-5.543l-4.498-3.453L283.261,49.351z M283.261,76.786l1.801-5.474
		l1.888,5.44l5.615,0.071l-4.443,3.529l1.666,5.519l-4.633-3.262l-4.587,3.338l1.582-5.543l-4.498-3.452L283.261,76.786z
		 M281.434,104.206l1.801-5.474l1.889,5.441l5.614,0.071l-4.443,3.529l1.666,5.519l-4.633-3.262l-4.587,3.338l1.583-5.543
		l-4.499-3.453L281.434,104.206z M254.357,89.924l-4.587,3.338l1.582-5.543l-4.498-3.452l5.609-0.167l1.801-5.474l1.888,5.44
		l5.615,0.071l-4.443,3.529l1.666,5.519L254.357,89.924z M260.573,171.885h14.12H260.573z M352.904,129.83
		c-21.944,29.254-70.627,28.407-89.598,7.664c27.9,13.453,61.12-0.063,73.139-18.636c12.323-17.333,13.836-46.437-7.468-73.141
		C362.046,73.142,369.356,104.23,352.904,129.83z"/>
	<polygon fill="#004E00" points="47.541,175.538 47.541,109.712 47.541,87.769 47.541,0 0,0 0,511.983 47.541,511.983 
		47.541,197.48 	"/>
	
		<line fill="none" stroke="#FFEF00" stroke-width="0" stroke-linecap="round" stroke-linejoin="round" x1="274.694" y1="171.885" x2="260.573" y2="171.885"/>
	<path fill="#FFFFFF" d="M328.977,45.717c21.304,26.704,19.791,55.808,7.468,73.141c-12.019,18.573-45.238,32.089-73.139,18.636
		c18.971,20.744,67.653,21.59,89.598-7.664C369.356,104.23,362.046,73.142,328.977,45.717z"/>
	<polygon fill="#FEFFFF" points="306.452,78.626 311.039,75.289 315.672,78.55 314.006,73.031 318.449,69.502 312.835,69.431 
		310.947,63.991 309.146,69.464 303.536,69.631 308.035,73.083 	"/>
	<polygon fill="#FEFFFF" points="278.74,113.368 283.327,110.03 287.96,113.292 286.294,107.773 290.738,104.244 285.123,104.173 
		283.235,98.732 281.434,104.206 275.824,104.373 280.323,107.825 	"/>
	<polygon fill="#FEFFFF" points="280.568,85.948 285.155,82.61 289.787,85.872 288.121,80.353 292.565,76.824 286.949,76.753 
		285.062,71.312 283.261,76.786 277.652,76.953 282.15,80.405 	"/>
	<polygon fill="#FEFFFF" points="280.568,58.513 285.155,55.174 289.787,58.437 288.121,52.917 292.565,49.389 286.949,49.317 
		285.062,43.876 283.261,49.351 277.652,49.517 282.15,52.97 	"/>
	<polygon fill="#FEFFFF" points="261.767,84.138 256.152,84.066 254.264,78.626 252.463,84.1 246.854,84.267 251.352,87.719 
		249.77,93.262 254.357,89.924 258.99,93.186 257.323,87.667 	"/>
	<polygon fill="#980000" points="180.854,240.525 177.571,237.857 177.571,243.193 	"/>
	<polygon fill="#980000" points="82.091,233.989 82.091,228.643 78.8,231.316 	"/>
	<path fill="#980000" d="M203.015,208.451l1.371-1.829l-4.114-5.485l2.743-3.657l-2.743-3.657l-4.114,5.485l-9.653-12.582
		l9.653-13.018l4.114,5.485l2.743-3.657l-2.743-3.657l4.114-5.486l-1.371-1.828l9.095-12.196V0h-0.007v10.972l-1.371-3.657V1.829
		h-4.114L203.874,0h-15.029l6.771,9.179l2.827-3.694l-1.372-1.829l1.372-1.828l9.6,12.799l-1.371,1.829l-2.743-3.657l-1.371,1.828
		l4.114,5.486l-1.372,1.829l6.803,9.143v3.657l-9.545-12.799l1.371-1.829l-4.114-5.486l2.743-3.657l-2.743-3.657l-4.114,5.486
		L186.047,0H73.601l-9.652,12.799l-4.114-5.486l-2.743,3.657l2.743,3.657l-4.114,5.486l1.371,1.829l-9.546,12.799v-3.657
		l6.804-9.143l-1.372-1.829l4.114-5.486l-1.371-1.828l-2.743,3.657l-1.371-1.829l9.6-12.799l1.371,1.828l-1.371,1.829l2.827,3.694
		L70.804,0h-15.03l-2.742,1.829h-4.114v5.486l-1.372,3.657V0h-0.004v87.769l1.371,3.657v5.486h4.114l2.743,1.829l-2.743,1.829
		h-4.114v5.486l-1.371,3.657v65.826l1.371,3.657v5.485h4.114l2.743,1.829l-2.743,1.828h-4.114v5.486l-1.371,3.657v314.503H212.11
		V220.647L203.015,208.451z M199.818,266.963l2.743-3.656l-2.743-3.657l4.114-5.485l-1.371-1.829l9.545-12.799v3.657l-6.803,9.142
		l1.372,1.829l-4.114,5.485l1.371,1.829l2.743-3.657l1.371,1.828l-9.6,12.8l-1.371-1.828l1.371-1.828l-2.713-3.412l-6.887,8.896
		l6.772,9.181l2.827-3.694l-1.371-1.829l1.371-1.828l9.6,12.8l-1.371,1.828l-2.743-3.656l-1.371,1.828l4.114,5.485l-1.372,1.828
		l6.803,9.144v3.656l-9.545-12.8l1.371-1.828l-4.114-5.485l2.743-3.657l-2.743-3.657l-4.114,5.486l-9.653-12.582l9.653-13.018
		L199.818,266.963z M177.788,490.657c0.218,3.241-15.283,6.731-19.868,4.239c-0.654-10.971,6.332-23.187,8.952-22.189
		c1.746,1.496-1.528,13.463-2.839,16.205C167.964,487.666,176.697,486.17,177.788,490.657z M148.693,437.058l-37.814-0.004
		l-37.806-20.457v-34.114l0.017-0.01l37.805-20.451l37.806,0.004l37.806,20.457v34.114l-0.017,0.01L148.693,437.058z
		 M93.354,471.339c2.62-0.997,9.606,11.219,8.952,22.188c-4.585,2.493-20.086-0.997-19.868-4.238
		c1.092-4.487,9.825-2.992,13.755-1.745C94.882,484.802,91.608,472.835,93.354,471.339z M178.657,334.455h-7.91v5.559h-31.674
		l-5.213,5.497l2.578,2.716h13.129l2.517-2.653h-13.183l2.755-2.905h18.629l-8.029,8.464l-18.512-0.007l-5.244-2.766l-5.273,2.771
		l-18.483,0.002l-0.019-0.02l-8.009-8.446l18.628,0.002l2.755,2.905l-13.183-0.003l2.518,2.656h13.129l2.577-2.716l-5.213-5.497
		H88.89v-5.559h-7.909v-5.558h-7.91v-25.14h7.91v-5.559h7.909v-5.558h29.038l5.213-5.497l-2.577-2.716h-13.129l-2.518,2.656
		l13.183-0.003l-2.755,2.904l-18.628,0.004l8.028-8.467l18.512,0.009l5.244,2.764l5.273-2.772h18.483l0.019,0.02l8.01,8.443h-18.629
		l-2.755-2.904h13.183l-2.517-2.653h-13.129l-2.578,2.716l5.213,5.497h31.674v5.558h7.91v5.559h7.909v25.14h-7.909V334.455z
		 M59.832,288.906l-4.114,5.485l1.371,1.828l-9.546,12.8v-3.656l6.803-9.144l-1.371-1.828l4.114-5.485l-1.371-1.828l-2.743,3.656
		l-1.371-1.828l9.6-12.8l1.371,1.828l-1.371,1.829l2.826,3.694l6.773-9.181l-6.887-8.896l-2.713,3.412l1.371,1.828l-1.371,1.828
		l-9.6-12.8l1.371-1.828l2.743,3.657l1.371-1.829l-4.114-5.485l1.371-1.829l-6.803-9.142v-3.657l9.546,12.799l-1.371,1.829
		l4.114,5.485l-2.743,3.657l2.743,3.656l4.113-5.484l9.654,13.018l-9.654,12.582l-4.113-5.486l-2.743,3.657L59.832,288.906z
		 M186.524,219.037v1.535l-2.835,1.535l2.835,1.535v1.535h-2.835l-2.833-1.535l-2.835,3.07l2.835,3.07l2.833-1.535h2.835v1.535
		l-2.835,1.535l2.835,1.535v1.535h-2.835l-2.833-1.535l-2.835,3.07l2.833,3.07l2.835-1.535h2.835v1.535l-2.835,1.535l2.835,1.535
		v1.535h-2.835l-2.835-1.535l-2.834,3.069h-0.449v6.25h2.262v2.375h-2.262v0.004h-0.005v2.119h-2.518v-2.119h-8.814v8.249h2.262
		v2.375h-2.262v0.002h-0.006v2.121h-2.518v-2.121h-18.226l-3.315,1.998l1.764,2.125v2.125h-1.764l-1.764-2.125l-1.764,2.125h-1.764
		v-2.125l1.764-2.125l-3.316-1.998h-0.421l-3.317,1.999l1.764,2.124v2.125h-1.764l-1.763-2.125l-1.764,2.125h-1.764v-2.125
		l1.764-2.124l-3.317-1.999h-0.421l-3.317,1.999l1.764,2.124v2.125h-1.764l-1.764-2.125l-1.763,2.125h-1.764v-2.125l1.764-2.124
		l-3.317-1.999H95.94v2.121h-2.518v-2.123h-2.268v-2.375h2.272v-8.249h-8.818v2.119h-2.518v-2.119v-0.004h-2.278v-2.375h2.278v-6.25
		h-0.455l-2.834-3.069l-2.835,1.535h-2.835v-1.535l2.835-1.535l-2.835-1.535v-1.535h2.835l2.835,1.535l2.833-3.07l-2.835-3.07
		l-2.833,1.535h-2.835v-1.535l2.835-1.535l-2.835-1.535v-1.535h2.835l2.833,1.535l2.835-3.07l-2.835-3.07l-2.833,1.535h-2.835
		v-1.535l2.835-1.535l-2.835-1.535v-1.535h2.835l2.833,1.535l2.836-3.069h0.455v-6.246h-2.278v-2.375h2.278v-2.123h2.518v2.123
		h8.818v-8.252h-2.272v-2.375h2.268v-2.123h2.518v2.125h18.207l3.334-2.01l-1.764-2.124v-2.125h1.764l1.763,2.125l1.764-2.125h1.764
		v2.125l-1.764,2.124l3.336,2.01h0.383l3.336-2.01l-1.764-2.124v-2.125h1.764l1.764,2.125l1.763-2.125h1.764v2.125l-1.764,2.124
		l3.336,2.01h0.383l3.336-2.009l-1.764-2.125v-2.125h1.764l1.764,2.125l1.764-2.125h1.764v2.125l-1.764,2.125l3.333,2.009h18.207
		v-2.125h2.518v2.123h2.268v2.375h-2.262v8.252h8.814v-2.123h2.518v2.123h0.005h2.262v2.375h-2.262v6.246h0.449l2.836,3.069
		l2.833-1.535H186.524z M186.575,164.233h-12.8v3.395h-14.628v10.188h-16.457v5.094h-25.726v-5.094h-16.456v-10.188H85.881v-3.395
		h-12.8V130.15h12.8v-3.396h14.628v-10.188h16.457v-5.094h25.725v5.094h16.457v10.188h14.628v3.396h12.8V164.233z M212.108,109.712
		l-1.372-3.657v-5.486h-4.114l-2.742-1.829l2.742-1.829h4.114v-5.486l1.372-3.657V109.712z M195.703,85.94l4.114,5.485l2.743-3.657
		l-2.743-3.657l4.114-5.485l-1.371-1.829l9.545-12.799v3.657l-6.803,9.142l1.372,1.829l-4.114,5.485l1.371,1.829l2.743-3.657
		l1.371,1.828l-9.6,12.8l-1.371-1.829l1.371-1.828l-2.713-3.411l-6.887,8.896l6.772,9.18l2.827-3.694l-1.371-1.829l1.371-1.828
		l9.6,12.799l-1.371,1.829l-2.743-3.657l-1.371,1.828l4.114,5.486l-1.372,1.829l6.803,9.143v3.657l-9.545-12.8l1.371-1.828
		l-4.114-5.486l2.743-3.657l-2.743-3.657l-4.114,5.486l-9.653-12.582L195.703,85.94z M73.019,42.977l6.802-8.174v-6.141l0.042-0.037
		l6.837-6.163h13.621l11.368-6.131l36.335,0.015l11.309,6.116h13.62l6.879,6.2v6.141l6.802,8.174v16.439l-6.802,8.174v6.141
		l-0.042,0.037l-6.837,6.162h-13.62l-11.337,6.131l-36.367-0.015L100.32,79.93H86.699l-6.879-6.2v-6.141l-6.802-8.174V42.977z
		 M47.542,129.824l6.803-9.143l-1.371-1.829l4.114-5.486l-1.371-1.828l-2.743,3.657l-1.371-1.829l9.6-12.799l1.371,1.828
		l-1.371,1.829l2.826,3.694l6.773-9.18l-6.887-8.896l-2.713,3.411l1.371,1.828l-1.371,1.829l-9.6-12.8l1.371-1.828l2.742,3.657
		l1.372-1.829l-4.114-5.485l1.371-1.829l-6.803-9.142v-3.657l9.546,12.799l-1.372,1.829l4.114,5.485l-2.742,3.657l2.742,3.657
		l4.114-5.485l9.654,13.017l-9.654,12.582l-4.114-5.486l-2.742,3.657l2.742,3.657l-4.114,5.486l1.372,1.828l-9.546,12.8V129.824z
		 M47.542,217.593l6.803-9.143l-1.371-1.829l4.114-5.485l-1.371-1.829l-2.743,3.657l-1.371-1.828l9.6-12.8l1.371,1.829l-1.371,1.829
		l2.826,3.694l6.773-9.18l-6.887-8.897l-2.713,3.411l1.371,1.829l-1.371,1.828l-9.6-12.799l1.371-1.829l2.742,3.657l1.372-1.829
		l-4.114-5.486l1.371-1.828l-6.803-9.143v-3.657l9.546,12.8l-1.372,1.828l4.114,5.486l-2.742,3.657l2.742,3.657l4.114-5.485
		l9.654,13.018l-9.654,12.582l-4.114-5.485l-2.742,3.657l2.742,3.657l-4.114,5.485l1.372,1.829l-9.546,12.799V217.593z
		 M47.542,263.308l1.371,3.657v5.485h4.114l2.743,1.829l-2.743,1.828h-4.114v5.485l-1.371,3.657V263.308z M47.542,345.588
		l1.371,3.656v5.486h4.114l2.743,1.828l-2.743,1.829h-4.114v5.485l-1.371,3.657V345.588z M47.543,391.3L47.543,391.3v-3.657
		l6.803-9.143l-1.371-1.828l4.114-5.486l-1.371-1.828l-2.743,3.656l-1.371-1.828l9.6-12.799l1.371,1.828l-1.371,1.828l2.826,3.695
		l6.773-9.18l-6.887-8.897l-2.713,3.411l1.371,1.828l-1.371,1.828l-9.6-12.799l1.371-1.828l2.743,3.656l1.371-1.828l-4.114-5.486
		l1.371-1.828l-6.803-9.143v-3.656l9.546,12.799l-1.371,1.828l4.114,5.486l-2.743,3.657l2.743,3.657l4.113-5.486l9.654,13.018
		l-9.654,12.582l-4.113-5.485l-2.743,3.657l2.743,3.656l-4.114,5.486l1.371,1.828L47.543,391.3L47.543,391.3z M70.2,425.015
		c-0.354,12.997-2.717,13.149-7.029,3.542c-1.908-3.629-2.144-18.703-0.424-19.266C65.233,409.239,70.133,419.989,70.2,425.015z
		 M73.908,443.821c-0.646,2.057-1.485,4.005-2.553,5.674c-4.811-1.565-15.831-16.513-14.229-18.968
		c2.858-2.781,9.274,5.259,11.909,9.341c0.146-3.246,2.756-15.5,4.828-15.346c1.612,0.781,2.321,7.155,1.291,13.86
		c0.355-0.928,0.75-1.521,1.181-1.572c2.668,0.737,4.605,15.882,0.208,25.194c-4.929-0.628-17.446-13.31-16.125-16.047
		c2.528-3.3,9.744,3.429,12.792,6.964C73.108,451.313,73.368,447.393,73.908,443.821z M65.766,461.147
		c2.114-3.782,10.024,1.373,13.446,4.235c-0.58-3.157-0.8-15.893,1.214-16.562c2.722,0.178,6.396,14.737,3.135,24.847
		C78.618,474.066,64.779,464.124,65.766,461.147z M73.096,475.007c1.763-4.091,10.076-0.223,13.729,2.078
		c-0.857-3.044-2.209-15.654-0.269-16.638c2.718-0.254,7.663,13.622,5.324,24.176C87.008,485.8,72.381,478.118,73.096,475.007z
		 M160.993,504.064c-9.598-0.289-13.365-5.927-22.256-6.045c4.251,3.416,6.108,6.674,6.108,6.674c0,0.253-6.326-3.594-14.362-5.577
		c-8.036,1.983-14.362,5.83-14.362,5.577c0,0,1.856-3.258,6.108-6.674c-8.891,0.118-12.658,5.756-22.256,6.045
		c-10.391,0.314-23.853-12.879-23.853-12.879s13.462,6.911,21.964,6.911s11.1-10.053,25.978-6.911
		c2.363,0.499,4.499,1.181,6.421,1.974c1.923-0.793,4.058-1.475,6.421-1.974c14.878-3.142,17.477,6.911,25.978,6.911
		c8.502,0,21.964-6.911,21.964-6.911S171.384,504.379,160.993,504.064z M168.347,485.991c-2.339-10.554,2.605-24.43,5.323-24.176
		c1.94,0.983,0.589,13.594-0.269,16.638c3.652-2.301,11.966-6.168,13.729-2.078C187.846,479.487,173.219,487.168,168.347,485.991z
		 M176.665,475.036c-3.262-10.108,0.413-24.669,3.135-24.847c2.014,0.669,1.795,13.404,1.214,16.562
		c3.422-2.862,11.332-8.019,13.447-4.235C195.448,465.493,181.608,475.435,176.665,475.036z M187.017,454.29
		c3.047-3.535,10.263-10.263,12.791-6.963c1.321,2.736-11.195,15.418-16.124,16.046c-4.397-9.312-2.46-24.456,0.208-25.194
		c0.43,0.051,0.825,0.644,1.18,1.57c-1.03-6.704-0.32-13.077,1.291-13.858c2.073-0.153,4.684,12.101,4.828,15.346
		c2.636-4.082,9.052-12.122,11.909-9.341c1.603,2.455-9.419,17.402-14.229,18.969c-1.066-1.668-1.906-3.615-2.551-5.671
		C186.859,448.764,187.119,452.683,187.017,454.29z M190.026,426.383c0.068-5.024,4.968-15.774,7.454-15.723
		c1.72,0.562,1.484,15.636-0.425,19.265C192.742,439.533,190.38,439.381,190.026,426.383z M212.106,391.299L212.106,391.299
		L212.106,391.299l-9.545-12.799l1.371-1.828l-4.114-5.486l2.743-3.656l-2.743-3.657l-4.114,5.485l-9.653-12.582l9.653-13.018
		l4.114,5.486l2.743-3.657l-2.743-3.657l4.114-5.486l-1.371-1.828l9.545-12.799v3.656l-6.803,9.143l1.372,1.828l-4.114,5.486
		l1.371,1.828l2.743-3.656l1.371,1.828l-9.6,12.799l-1.371-1.828l1.371-1.828l-2.713-3.411l-6.887,8.897l6.772,9.18l2.827-3.695
		l-1.371-1.828l1.371-1.828l9.6,12.799l-1.371,1.828l-2.743-3.656l-1.371,1.828l4.114,5.486l-1.372,1.828l6.803,9.143V391.299z
		 M212.108,367.53l-1.372-3.657v-5.485h-4.114l-2.742-1.829l2.742-1.828h4.114v-5.486l1.372-3.656V367.53z M212.108,285.25
		l-1.372-3.657v-5.485h-4.114l-2.742-1.828l2.742-1.829h4.114v-5.485l1.372-3.657V285.25z"/>
	<polygon fill="#980000" points="180.856,222.107 177.571,219.439 177.571,224.775 	"/>
	<polygon fill="#980000" points="180.856,231.316 177.571,228.647 177.571,233.984 	"/>
	<polygon fill="#980000" points="142.892,264.385 137.918,264.385 140.406,266.383 	"/>
	<polygon fill="#980000" points="207.129,166.395 203.015,171.881 204.386,173.709 207.129,170.052 208.5,171.881 198.901,184.68 
		197.53,182.852 198.901,181.023 196.188,177.612 189.301,186.509 196.073,195.689 198.901,191.995 197.53,190.166 198.901,188.337 
		208.5,201.137 207.129,202.965 204.386,199.309 203.015,201.137 207.129,206.623 205.757,208.451 212.11,216.989 212.11,196.276 
		211.19,193.824 211.19,188.339 207.075,188.339 204.333,186.51 207.075,184.681 211.19,184.681 211.19,179.196 212.11,176.744 
		212.11,156.029 205.757,164.567 	"/>
	<polygon fill="#980000" points="132.312,264.385 127.336,264.385 129.824,266.384 	"/>
	<polygon fill="#980000" points="82.091,224.78 82.091,219.434 78.8,222.107 	"/>
	<polygon fill="#980000" points="121.731,264.385 116.755,264.385 119.242,266.384 	"/>
	<polygon fill="#980000" points="116.742,198.256 121.745,198.256 119.243,196.246 	"/>
	<polygon fill="#980000" points="127.323,198.256 132.327,198.256 129.825,196.246 	"/>
	<polygon fill="#980000" points="137.906,198.256 142.907,198.256 140.406,196.248 	"/>
	<polygon fill="#980000" points="82.091,243.197 82.091,237.853 78.802,240.525 	"/>
	<polygon fill="#E69900" points="55.716,118.853 59.83,113.367 57.088,109.71 59.83,106.053 63.945,111.539 73.599,98.957 
		63.945,85.94 59.83,91.425 57.088,87.768 59.83,84.111 55.716,78.625 57.088,76.797 47.542,63.998 47.542,67.655 54.345,76.797 
		52.974,78.625 57.088,84.111 55.716,85.94 52.974,82.283 51.603,84.111 61.202,96.911 62.573,95.082 61.202,93.254 63.915,89.843 
		70.802,98.739 64.029,107.919 61.202,104.225 62.573,102.396 61.202,100.568 51.603,113.367 52.974,115.196 55.717,111.539 
		57.088,113.367 52.974,118.853 54.345,120.682 47.542,129.824 47.542,133.481 57.088,120.681 	"/>
	<polygon fill="#E69900" points="48.912,106.055 48.912,100.569 53.027,100.569 55.77,98.74 53.027,96.912 48.912,96.912 
		48.912,91.426 47.541,87.769 47.541,109.712 	"/>
	<polygon fill="#E69900" points="55.716,206.622 59.83,201.136 57.088,197.479 59.83,193.822 63.945,199.308 73.599,186.726 
		63.945,173.708 59.83,179.194 57.088,175.537 59.83,171.88 55.716,166.394 57.088,164.566 47.542,151.766 47.542,155.423 
		54.345,164.566 52.974,166.394 57.088,171.88 55.716,173.708 52.974,170.051 51.603,171.88 61.202,184.679 62.573,182.851 
		61.202,181.022 63.915,177.611 70.802,186.508 64.029,195.688 61.202,191.994 62.573,190.165 61.202,188.336 51.603,201.136 
		52.974,202.964 55.717,199.308 57.088,201.136 52.974,206.622 54.345,208.45 47.542,217.593 47.542,221.25 57.088,208.45 	"/>
	<polygon fill="#E69900" points="48.912,193.823 48.912,188.337 53.027,188.337 55.77,186.509 53.027,184.68 48.912,184.68 
		48.912,179.195 47.541,175.538 47.541,197.48 	"/>
	<polygon fill="#E69900" points="63.946,287.078 73.6,274.496 63.946,261.479 59.832,266.963 57.089,263.307 59.832,259.649 
		55.718,254.164 57.089,252.335 47.543,239.536 47.543,243.193 54.346,252.335 52.975,254.164 57.089,259.649 55.718,261.479 
		52.975,257.821 51.604,259.649 61.203,272.449 62.574,270.621 61.203,268.793 63.916,265.381 70.803,274.277 64.03,283.458 
		61.203,279.764 62.574,277.935 61.203,276.106 51.604,288.906 52.975,290.734 55.718,287.078 57.089,288.906 52.975,294.392 
		54.346,296.22 47.543,305.363 47.543,309.02 57.089,296.22 55.718,294.392 59.832,288.906 57.089,285.249 59.832,281.592 	"/>
	<polygon fill="#E69900" points="48.913,276.107 53.028,276.107 55.771,274.279 53.028,272.45 48.913,272.45 48.913,266.965 
		47.542,263.308 47.542,285.25 48.913,281.593 	"/>
	
		<line fill="none" stroke="#E69900" stroke-width="0" stroke-linecap="round" stroke-linejoin="round" x1="47.543" y1="391.299" x2="47.543" y2="391.3"/>
	<polygon fill="#E69900" points="55.718,376.672 59.832,371.186 57.089,367.529 59.832,363.872 63.946,369.357 73.6,356.775 
		63.946,343.758 59.832,349.244 57.089,345.587 59.832,341.93 55.718,336.443 57.089,334.615 47.543,321.816 47.543,325.473 
		54.346,334.615 52.975,336.443 57.089,341.93 55.718,343.758 52.975,340.102 51.604,341.93 61.203,354.729 62.574,352.9 
		61.203,351.072 63.916,347.661 70.803,356.559 64.03,365.738 61.203,362.043 62.574,360.215 61.203,358.387 51.604,371.186 
		52.975,373.014 55.718,369.357 57.089,371.186 52.975,376.672 54.346,378.5 47.543,387.643 47.543,391.299 57.089,378.5 	"/>
	<polygon fill="#E69900" points="48.913,358.388 53.028,358.388 55.771,356.559 53.028,354.73 48.913,354.73 48.913,349.244 
		47.542,345.588 47.542,367.53 48.913,363.873 	"/>
	<polygon fill="#E69900" points="195.703,111.539 199.818,106.053 202.561,109.71 199.818,113.367 203.932,118.853 202.561,120.681 
		212.106,133.481 212.106,129.824 205.303,120.682 206.675,118.853 202.561,113.367 203.932,111.539 206.675,115.196 
		208.046,113.367 198.447,100.568 197.075,102.396 198.447,104.225 195.619,107.919 188.847,98.739 195.734,89.843 198.447,93.254 
		197.075,95.082 198.447,96.911 208.046,84.111 206.675,82.283 203.932,85.94 202.561,84.111 206.675,78.625 205.303,76.797 
		212.106,67.655 212.106,63.998 202.561,76.797 203.932,78.625 199.818,84.111 202.561,87.768 199.818,91.425 195.703,85.94 
		186.05,98.957 	"/>
	<polygon fill="#E69900" points="210.736,96.912 206.621,96.912 203.879,98.74 206.621,100.569 210.736,100.569 210.736,106.055 
		212.108,109.712 212.108,87.769 210.736,91.426 	"/>
	
		<line fill="none" stroke="#E69900" stroke-width="0" stroke-linecap="round" stroke-linejoin="round" x1="212.56" y1="221.251" x2="212.56" y2="221.25"/>
	<polygon fill="#E69900" points="204.386,166.395 200.272,171.881 203.015,175.538 200.272,179.195 196.157,173.709 
		186.504,186.727 196.157,199.309 200.272,193.823 203.015,197.48 200.272,201.137 204.386,206.623 203.015,208.451 212.11,220.647 
		212.56,221.25 212.56,217.594 212.11,216.989 205.757,208.451 207.129,206.623 203.015,201.137 204.386,199.309 207.129,202.965 
		208.5,201.137 198.901,188.337 197.53,190.166 198.901,191.995 196.073,195.689 189.301,186.509 196.188,177.612 198.901,181.023 
		197.53,182.852 198.901,184.68 208.5,171.881 207.129,170.052 204.386,173.709 203.015,171.881 207.129,166.395 205.757,164.567 
		212.11,156.029 212.56,155.424 212.56,151.767 212.11,152.371 203.015,164.567 	"/>
	<polygon fill="#E69900" points="211.19,184.681 207.075,184.681 204.333,186.51 207.075,188.339 211.19,188.339 211.19,193.824 
		212.11,196.276 212.562,197.481 212.562,175.539 212.11,176.744 211.19,179.196 	"/>
	<polygon fill="#E69900" points="195.703,287.078 199.818,281.592 202.561,285.249 199.818,288.906 203.932,294.392 202.561,296.22 
		212.106,309.02 212.106,305.363 205.303,296.22 206.675,294.392 202.561,288.906 203.932,287.078 206.675,290.734 208.046,288.906 
		198.447,276.106 197.075,277.935 198.447,279.764 195.619,283.458 188.847,274.277 195.734,265.381 198.447,268.793 
		197.075,270.621 198.447,272.449 208.046,259.649 206.675,257.821 203.932,261.479 202.561,259.649 206.675,254.164 
		205.303,252.335 212.106,243.193 212.106,239.536 202.561,252.335 203.932,254.164 199.818,259.649 202.561,263.307 
		199.818,266.963 195.703,261.479 186.05,274.496 	"/>
	<polygon fill="#E69900" points="210.736,272.45 206.621,272.45 203.879,274.279 206.621,276.107 210.736,276.107 210.736,281.593 
		212.108,285.25 212.108,263.308 210.736,266.965 	"/>
	
		<line fill="none" stroke="#E69900" stroke-width="0" stroke-linecap="round" stroke-linejoin="round" x1="212.106" y1="391.299" x2="212.106" y2="391.3"/>
	<polygon fill="#E69900" points="206.675,376.672 202.561,371.186 203.932,369.357 206.675,373.014 208.046,371.186 
		198.447,358.387 197.075,360.215 198.447,362.043 195.619,365.738 188.847,356.559 195.734,347.661 198.447,351.072 197.075,352.9 
		198.447,354.729 208.046,341.93 206.675,340.102 203.932,343.758 202.561,341.93 206.675,336.443 205.303,334.615 212.106,325.473 
		212.106,321.816 202.561,334.615 203.932,336.443 199.818,341.93 202.561,345.587 199.818,349.244 195.703,343.758 186.05,356.775 
		195.703,369.357 199.818,363.872 202.561,367.529 199.818,371.186 203.932,376.672 202.561,378.5 212.106,391.299 212.106,387.643 
		205.303,378.5 	"/>
	<polygon fill="#E69900" points="210.736,354.73 206.621,354.73 203.879,356.559 206.621,358.388 210.736,358.388 210.736,363.873 
		212.108,367.53 212.108,345.588 210.736,349.244 	"/>
	<polygon fill="#E69900" points="61.205,5.485 62.576,3.656 61.205,1.828 51.606,14.627 52.977,16.456 55.72,12.799 57.091,14.627 
		52.977,20.113 54.349,21.941 47.545,31.084 47.545,34.741 57.091,21.941 55.72,20.113 59.834,14.627 57.091,10.97 59.834,7.313 
		63.948,12.799 73.601,0 70.804,0 64.032,9.179 	"/>
	<polygon fill="#E69900" points="48.917,7.314 48.917,1.829 53.031,1.829 55.774,0 47.545,0 47.545,10.972 	"/>
	<polygon fill="#E69900" points="199.815,7.313 202.558,10.97 199.815,14.627 203.929,20.113 202.558,21.941 212.103,34.741 
		212.103,31.084 205.3,21.941 206.672,20.113 202.558,14.627 203.929,12.799 206.672,16.456 208.043,14.627 198.444,1.828 
		197.072,3.656 198.444,5.485 195.616,9.179 188.845,0 186.047,0 195.7,12.799 	"/>
	<polygon fill="#E69900" points="210.732,1.829 210.732,7.314 212.103,10.972 212.103,0 203.874,0 206.617,1.829 	"/>
	<path fill="#E69900" d="M122.229,498.02c-4.251,3.416-6.108,6.674-6.108,6.674c0,0.253,6.326-3.594,14.362-5.577
		c-1.908-0.471-3.91-0.839-5.949-1.02C123.723,498.024,122.965,498.01,122.229,498.02z"/>
	<path fill="#E69900" d="M136.905,491.186c-2.363,0.499-4.499,1.181-6.421,1.974c3.396,1.401,6.125,3.15,8.254,4.86
		c8.891,0.118,12.658,5.756,22.256,6.045c10.391,0.314,23.853-12.879,23.853-12.879s-13.462,6.911-21.964,6.911
		C154.381,498.097,151.782,488.044,136.905,491.186z"/>
	<path fill="#E69900" d="M124.062,491.186c-14.878-3.142-17.476,6.911-25.978,6.911s-21.964-6.911-21.964-6.911
		s13.462,13.193,23.853,12.879c9.598-0.289,13.365-5.927,22.256-6.045c0.735-0.01,1.494,0.005,2.305,0.077
		c2.039,0.181,4.041,0.549,5.949,1.02c8.036,1.983,14.362,5.83,14.362,5.577c0,0-1.856-3.258-6.108-6.674
		c-2.128-1.71-4.857-3.459-8.254-4.86C128.56,492.366,126.425,491.685,124.062,491.186z"/>
	<path fill="#E69900" d="M82.438,489.289c-0.218,3.241,15.283,6.731,19.868,4.238c0.654-10.97-6.332-23.186-8.952-22.188
		c-1.746,1.496,1.528,13.463,2.839,16.205C92.263,486.297,83.53,484.802,82.438,489.289z"/>
	<path fill="#E69900" d="M91.88,484.623c2.339-10.554-2.606-24.43-5.324-24.176c-1.94,0.983-0.589,13.594,0.269,16.638
		c-3.652-2.301-11.966-6.169-13.729-2.078C72.381,478.118,87.008,485.8,91.88,484.623z"/>
	<path fill="#E69900" d="M83.561,473.668c3.262-10.109-0.413-24.669-3.135-24.847c-2.014,0.669-1.794,13.404-1.214,16.562
		c-3.422-2.862-11.332-8.018-13.446-4.235C64.779,464.124,78.618,474.066,83.561,473.668z"/>
	<path fill="#E69900" d="M60.418,445.958c-1.321,2.737,11.196,15.419,16.125,16.047c4.397-9.312,2.46-24.457-0.208-25.194
		c-0.431,0.051-0.826,0.645-1.181,1.572c-0.28,1.824-0.691,3.671-1.246,5.438c-0.541,3.571-0.801,7.492-0.698,9.101
		C70.162,449.387,62.947,442.658,60.418,445.958z"/>
	<path fill="#E69900" d="M73.864,424.522c-2.072-0.154-4.683,12.1-4.828,15.346c-2.635-4.082-9.051-12.122-11.909-9.341
		c-1.602,2.455,9.419,17.402,14.229,18.968c1.067-1.669,1.907-3.617,2.553-5.674c0.555-1.768,0.965-3.614,1.246-5.438
		C76.184,431.678,75.475,425.304,73.864,424.522z"/>
	<path fill="#E69900" d="M63.171,428.557c4.312,9.607,6.675,9.455,7.029-3.542c-0.067-5.025-4.968-15.775-7.453-15.724
		C61.028,409.854,61.263,424.928,63.171,428.557z"/>
	<path fill="#E69900" d="M166.872,472.707c-2.62-0.997-9.606,11.219-8.952,22.189c4.585,2.492,20.086-0.998,19.868-4.239
		c-1.092-4.487-9.824-2.991-13.755-1.745C165.344,486.17,168.618,474.203,166.872,472.707z"/>
	<path fill="#E69900" d="M173.402,478.453c0.857-3.044,2.209-15.654,0.269-16.638c-2.718-0.254-7.662,13.622-5.323,24.176
		c4.872,1.177,19.499-6.504,18.784-9.616C185.367,472.285,177.054,476.152,173.402,478.453z"/>
	<path fill="#E69900" d="M181.014,466.752c0.581-3.158,0.8-15.894-1.214-16.562c-2.722,0.178-6.396,14.738-3.135,24.847
		c4.942,0.398,18.782-9.543,17.796-12.52C192.346,458.733,184.436,463.89,181.014,466.752z"/>
	<path fill="#E69900" d="M183.892,438.179c-2.668,0.738-4.605,15.882-0.208,25.194c4.929-0.628,17.445-13.31,16.124-16.046
		c-2.528-3.3-9.744,3.428-12.791,6.963c0.102-1.607-0.158-5.526-0.698-9.097c-0.556-1.769-0.967-3.617-1.248-5.444
		C184.717,438.822,184.322,438.229,183.892,438.179z"/>
	<path fill="#E69900" d="M203.1,431.896c-2.857-2.781-9.273,5.259-11.909,9.341c-0.145-3.245-2.755-15.499-4.828-15.346
		c-1.611,0.781-2.321,7.154-1.291,13.858c0.28,1.827,0.692,3.676,1.248,5.444c0.646,2.056,1.485,4.003,2.551,5.671
		C193.681,449.298,204.702,434.351,203.1,431.896z"/>
	<path fill="#E69900" d="M197.055,429.925c1.909-3.629,2.145-18.703,0.425-19.265c-2.486-0.052-7.386,10.698-7.454,15.723
		C190.38,439.381,192.742,439.533,197.055,429.925z"/>
	<path fill="#980000" d="M178.532,298.324h-7.91v-5.558h-31.603l-5.332-5.622l0.041-0.043l2.655-2.798h13.236l2.754,2.903h-13.183
		l2.518,2.654h18.285l-7.792-8.213h-18.414l-5.289,2.788l-0.029-0.015l-5.26-2.771l-18.414-0.002l-7.791,8.217l18.284-0.004
		l2.518-2.654l-13.183,0.003l2.755-2.906h13.236l2.695,2.841l-0.041,0.043l-5.291,5.579H89.015v5.558h-7.909v5.559h-7.91v24.89h7.91
		v5.558h7.909v5.559h28.966l5.332,5.622l-0.041,0.043l-2.654,2.798h-13.236l-2.755-2.906l13.183,0.003l-2.518-2.655l-18.284-0.002
		l7.791,8.216l18.414-0.002l5.289-2.786l0.029,0.015l5.26,2.773h18.414l7.792-8.214H141.71l-2.518,2.655h13.183l-2.754,2.903
		h-13.236l-2.696-2.841l0.041-0.043l5.291-5.579h31.603v-5.559h7.91v-5.558h7.909v-24.89h-7.909V298.324z M184.368,306.099v20.456
		h-7.909v5.556l-7.909,0.053v5.509h-29.327l-10.72,8.476l-10.721-8.476H91.091v-5.559h-7.909v-5.506h-7.908v-20.455h7.908v-5.559
		h7.909v-5.612h26.691l10.721-8.476l10.72,8.476h29.327v5.609l7.909-0.053v5.561H184.368z"/>
	<path d="M186.567,303.758h-7.909v-5.559h-7.91v-5.558h-31.674l-5.213-5.497l2.578-2.716h13.129l2.517,2.653h-13.183l2.755,2.904
		h18.629l-8.01-8.443l-0.019-0.02h-18.483l-5.273,2.772l-5.244-2.764l-18.512-0.009l-8.028,8.467l18.628-0.004l2.755-2.904
		l-13.183,0.003l2.518-2.656h13.129l2.577,2.716l-5.213,5.497H88.89v5.558h-7.909v5.559h-7.91v25.14h7.91v5.558h7.909v5.559h29.038
		l5.213,5.497l-2.577,2.716h-13.129l-2.518-2.656l13.183,0.003l-2.755-2.905l-18.628-0.002l8.009,8.446l0.019,0.02l18.483-0.002
		l5.273-2.771l5.244,2.766l18.512,0.007l8.029-8.464h-18.629l-2.755,2.905h13.183l-2.517,2.653h-13.129l-2.578-2.716l5.213-5.497
		h31.674v-5.559h7.91v-5.558h7.909V303.758z M186.442,328.772h-7.909v5.558h-7.91v5.559h-31.603l-5.291,5.579l-0.041,0.043
		l2.696,2.841h13.236l2.754-2.903h-13.183l2.518-2.655h18.285l-7.792,8.214h-18.414l-5.26-2.773l-0.029-0.015l-5.289,2.786
		l-18.414,0.002l-7.791-8.216l18.284,0.002l2.518,2.655l-13.183-0.003l2.755,2.906h13.236l2.654-2.798l0.041-0.043l-5.332-5.622
		H89.015v-5.559h-7.909v-5.558h-7.91v-24.89h7.91v-5.559h7.909v-5.558h28.966l5.291-5.579l0.041-0.043l-2.695-2.841h-13.236
		l-2.755,2.906l13.183-0.003l-2.518,2.654l-18.284,0.004l7.791-8.217l18.414,0.002l5.26,2.771l0.029,0.015l5.289-2.788h18.414
		l7.792,8.213H141.71l-2.518-2.654h13.183l-2.754-2.903h-13.236l-2.655,2.798l-0.041,0.043l5.332,5.622h31.603v5.558h7.91v5.559
		h7.909V328.772z"/>
	<path fill="#004E00" d="M175.459,301.544l-7.909,0.053v-5.615h-28.675l-10.372-8.2l-10.373,8.2H92.091v5.612h-7.909v5.559h-7.909
		l0.001,18.455h7.908v5.506h7.909v5.559h26.039l10.373,8.2l10.372-8.2h28.675v-5.503l7.909-0.053v-5.562h7.909v-18.456h-7.909
		V301.544z M96.867,298.264h15.819L96.867,312.16V298.264z M96.867,334.4v-13.896l15.819,13.896H96.867z M115.381,317.785h-2.637
		v2.776h-0.108l-5.225,5.508l-5.224-5.508h-0.114v-2.776H99.44v-2.904h2.634v-2.785h0.125l5.213-5.496l5.214,5.496h0.119v2.785
		h2.637V317.785z M136.478,331.676h-2.639v2.785h-0.123l-5.218,5.5l-5.217-5.5h-0.113v-2.785h-2.635v-2.903h2.635v-2.776h0.113
		l5.217-5.5l5.218,5.5h0.123v2.776h2.639V331.676z M136.478,303.885h-2.639v2.777h-0.12l-5.221,5.504l-5.22-5.504h-0.11v-2.777
		h-2.635v-2.903h2.635v-2.776h0.111l5.219-5.502l5.22,5.502h0.121v2.776h2.639V303.885z M160.132,298.264v13.896l-15.819-13.896
		H160.132z M141.621,317.785v-2.904h2.641v-2.785h0.118l5.213-5.496l5.214,5.496h0.125v2.785h2.637v2.904h-2.637v2.776h-0.113
		l-5.225,5.508l-5.224-5.508h-0.109v-2.776H141.621z M160.136,334.4h-15.819l15.819-13.896V334.4z"/>
	<path fill="#E69900" d="M176.459,300.538l-7.909,0.053v-5.609h-29.327l-10.72-8.476l-10.721,8.476H91.091v5.612h-7.909v5.559
		h-7.908v20.455h7.908v5.506h7.909v5.559h26.691l10.721,8.476l10.72-8.476h29.327v-5.509l7.909-0.053v-5.556h7.909v-20.456h-7.909
		V300.538z M183.368,325.555h-7.909v5.562l-7.909,0.053v5.503h-28.675l-10.372,8.2l-10.373-8.2H92.091v-5.559h-7.909v-5.506h-7.908
		l-0.001-18.455h7.909v-5.559h7.909v-5.612h26.039l10.373-8.2l10.372,8.2h28.675v5.615l7.909-0.053v5.555h7.909V325.555z"/>
	<polygon fill="#980000" points="96.867,298.264 96.867,312.16 112.687,298.264 	"/>
	<polygon fill="#980000" points="160.132,298.264 144.313,298.264 160.132,312.16 	"/>
	<polygon fill="#980000" points="96.867,334.4 112.687,334.4 96.867,320.504 	"/>
	<polygon fill="#980000" points="160.136,334.4 160.136,320.504 144.317,334.4 	"/>
	<polygon fill="#980000" points="149.593,306.6 144.38,312.096 154.807,312.096 	"/>
	<polygon fill="#980000" points="107.411,306.6 102.198,312.096 112.626,312.096 	"/>
	<polygon fill="#980000" points="107.411,326.069 112.636,320.562 102.188,320.562 	"/>
	<polygon fill="#980000" points="149.595,326.069 154.82,320.562 144.371,320.562 	"/>
	<polygon fill="#E69900" points="128.498,339.961 133.716,334.461 123.281,334.461 	"/>
	<polygon fill="#E69900" points="128.498,312.166 133.719,306.662 123.279,306.662 	"/>
	<polygon fill="#E69900" points="128.498,292.703 123.28,298.205 133.718,298.205 	"/>
	<polygon fill="#E69900" points="128.498,320.496 123.281,325.996 133.716,325.996 	"/>
	<path fill="#E69900" d="M144.387,314.875h10.421v-2.654h-10.421V314.875z M153.427,312.693c0.364,0,0.659,0.311,0.659,0.695
		c0,0.383-0.295,0.694-0.659,0.694c-0.363,0-0.658-0.312-0.658-0.694C152.769,313.004,153.064,312.693,153.427,312.693z
		 M145.599,312.752c0.364,0,0.659,0.311,0.659,0.694s-0.295,0.694-0.659,0.694s-0.659-0.311-0.659-0.694
		S145.235,312.752,145.599,312.752z"/>
	<path d="M146.897,314.881h0.122h5.153h0.122h2.639v-2.785h-0.125H144.38h-0.118v2.785H146.897z M154.808,314.875h-10.421v-2.654
		h10.421V314.875z"/>
	<path fill="#CC0000" d="M104.84,317.657h5.143v-2.651h-5.143V317.657z M107.435,315.752c0.364,0,0.659,0.312,0.659,0.695
		s-0.295,0.695-0.659,0.695s-0.659-0.312-0.659-0.695S107.071,315.752,107.435,315.752z"/>
	<polygon points="104.837,317.657 104.84,317.657 104.84,315.006 109.983,315.006 109.983,315 104.837,315 	"/>
	<path fill="#CC0000" d="M147.022,315.006v2.651h5.147v-2.651H147.022z M149.548,316.912c-0.364,0-0.659-0.311-0.659-0.695
		c0-0.383,0.295-0.694,0.659-0.694s0.659,0.312,0.659,0.694C150.207,316.602,149.912,316.912,149.548,316.912z"/>
	<polygon points="147.022,315.006 152.169,315.006 152.169,317.657 152.172,317.657 152.172,314.881 147.019,314.881 
		147.019,317.657 147.022,317.657 	"/>
	<path fill="#990000" d="M123.293,298.33v2.651h10.421v-2.651H123.293z M124.572,300.345c-0.363,0-0.659-0.312-0.659-0.694
		c0-0.385,0.296-0.695,0.659-0.695c0.364,0,0.659,0.311,0.659,0.695C125.231,300.033,124.936,300.345,124.572,300.345z
		 M132.401,300.288c-0.364,0-0.659-0.312-0.659-0.694c0-0.385,0.295-0.695,0.659-0.695s0.659,0.311,0.659,0.695
		C133.06,299.977,132.765,300.288,132.401,300.288z"/>
	<polygon points="123.293,300.981 123.293,298.33 133.714,298.33 133.714,300.981 133.839,300.981 133.839,298.205 133.718,298.205 
		123.28,298.205 123.168,298.205 123.168,300.981 	"/>
	<path fill="#990000" d="M133.714,306.537v-2.652h-10.421v2.652H133.714z M132.401,304.555c0.364,0,0.659,0.311,0.659,0.695
		c0,0.383-0.295,0.694-0.659,0.694s-0.659-0.312-0.659-0.694C131.741,304.865,132.036,304.555,132.401,304.555z M124.522,304.439
		c0.364,0,0.659,0.311,0.659,0.695c0,0.383-0.295,0.694-0.659,0.694s-0.659-0.312-0.659-0.694
		C123.863,304.75,124.157,304.439,124.522,304.439z"/>
	<polygon points="133.714,303.885 133.714,306.537 123.293,306.537 123.293,303.885 123.168,303.885 123.168,306.662 
		123.279,306.662 133.719,306.662 133.839,306.662 133.839,303.885 	"/>
	<path fill="#990000" d="M120.658,301.106v2.653h15.694v-2.653H120.658z M128.522,303.115c-0.364,0-0.659-0.311-0.659-0.694
		s0.295-0.694,0.659-0.694c0.363,0,0.659,0.311,0.659,0.694S128.885,303.115,128.522,303.115z M121.943,303.115
		c-0.364,0-0.659-0.311-0.659-0.694s0.295-0.694,0.659-0.694c0.363,0,0.659,0.311,0.659,0.694S122.306,303.115,121.943,303.115z
		 M135.09,301.669c0.364,0,0.659,0.312,0.659,0.694c0,0.385-0.295,0.695-0.659,0.695s-0.659-0.311-0.659-0.695
		C134.431,301.98,134.726,301.669,135.09,301.669z"/>
	<path d="M133.714,300.981h-10.421h-0.125h-2.635v2.903h2.635h0.125h10.421h0.125h2.639v-2.903h-2.639H133.714z M136.353,303.76
		h-15.694v-2.653h15.694V303.76z"/>
	<path fill="#990000" d="M123.293,326.121v2.651h10.421v-2.651H123.293z M124.632,328.168c-0.364,0-0.659-0.311-0.659-0.695
		c0-0.383,0.295-0.694,0.659-0.694s0.659,0.312,0.659,0.694C125.291,327.857,124.996,328.168,124.632,328.168z M132.461,328.109
		c-0.364,0-0.659-0.311-0.659-0.694s0.295-0.694,0.659-0.694c0.363,0,0.659,0.311,0.659,0.694S132.824,328.109,132.461,328.109z"/>
	<polygon points="123.293,328.772 123.293,326.121 133.714,326.121 133.714,328.772 133.839,328.772 133.839,325.996 
		133.716,325.996 123.281,325.996 123.168,325.996 123.168,328.772 	"/>
	<path fill="#990000" d="M133.714,331.682h-10.421v2.654h10.421V331.682z M124.572,333.651c-0.363,0-0.659-0.312-0.659-0.694
		c0-0.385,0.296-0.695,0.659-0.695c0.364,0,0.659,0.311,0.659,0.695C125.231,333.34,124.936,333.651,124.572,333.651z
		 M132.461,333.766c-0.364,0-0.659-0.311-0.659-0.694s0.295-0.694,0.659-0.694c0.363,0,0.659,0.311,0.659,0.694
		S132.824,333.766,132.461,333.766z"/>
	<path d="M123.168,331.676v2.785h0.113h10.435h0.123v-2.785H123.168z M123.293,331.682h10.421v2.654h-10.421V331.682z"/>
	<path fill="#990000" d="M120.658,328.897v2.653h15.694v-2.653H120.658z M122.002,330.938c-0.364,0-0.659-0.312-0.659-0.694
		c0-0.384,0.295-0.695,0.659-0.695s0.659,0.312,0.659,0.695C122.661,330.627,122.366,330.938,122.002,330.938z M128.572,330.938
		c-0.364,0-0.659-0.312-0.659-0.694c0-0.384,0.295-0.695,0.659-0.695s0.659,0.312,0.659,0.695
		C129.231,330.627,128.936,330.938,128.572,330.938z M135.14,329.49c0.364,0,0.659,0.312,0.659,0.695s-0.295,0.695-0.659,0.695
		c-0.363,0-0.659-0.312-0.659-0.695S134.777,329.49,135.14,329.49z"/>
	<path d="M133.714,328.772h-10.421h-0.125h-2.635v2.903h2.635h10.671h2.639v-2.903h-2.639H133.714z M136.353,331.551h-15.694v-2.653
		h15.694V331.551z"/>
	<path fill="#E69900" d="M152.172,317.785v-0.003h-5.153v0.003h-0.122h-2.51v2.651h10.421v-2.651h-2.514H152.172z M145.549,319.625
		c-0.364,0-0.659-0.312-0.659-0.695s0.295-0.695,0.659-0.695c0.363,0,0.659,0.312,0.659,0.695S145.912,319.625,145.549,319.625z
		 M153.427,318.35c0.364,0,0.659,0.312,0.659,0.695s-0.295,0.695-0.659,0.695c-0.363,0-0.658-0.312-0.658-0.695
		S153.064,318.35,153.427,318.35z"/>
	<polygon points="144.371,320.562 154.82,320.562 154.933,320.562 154.933,317.785 154.808,317.785 154.808,320.437 
		144.387,320.437 144.387,317.785 144.262,317.785 144.262,320.562 	"/>
	<polygon points="152.172,317.657 152.169,317.657 147.022,317.657 147.019,317.657 147.019,317.782 152.172,317.782 	"/>
	<path fill="#E69900" d="M102.198,314.875h10.421v-2.654h-10.421V314.875z M111.323,312.925c0.364,0,0.659,0.312,0.659,0.694
		c0,0.385-0.295,0.695-0.659,0.695c-0.363,0-0.658-0.311-0.658-0.695C110.665,313.236,110.96,312.925,111.323,312.925z
		 M103.495,312.982c0.364,0,0.659,0.311,0.659,0.694s-0.295,0.694-0.659,0.694s-0.659-0.311-0.659-0.694
		S103.131,312.982,103.495,312.982z"/>
	<path d="M104.715,314.881h0.122V315h5.146v-0.119h0.13h2.632v-2.785h-0.119h-10.428h-0.125v2.785H104.715z M112.619,314.875
		h-10.421v-2.654h10.421V314.875z"/>
	<path fill="#E69900" d="M104.837,317.785h-0.122h-2.517v2.651h10.421v-2.651h-2.507h-0.13v-0.003h-5.146V317.785z M103.435,319.855
		c-0.363,0-0.659-0.311-0.659-0.694s0.296-0.694,0.659-0.694c0.364,0,0.659,0.311,0.659,0.694S103.799,319.855,103.435,319.855z
		 M111.323,318.582c0.364,0,0.659,0.311,0.659,0.694s-0.295,0.694-0.659,0.694c-0.363,0-0.658-0.311-0.658-0.694
		S110.96,318.582,111.323,318.582z"/>
	<polygon points="104.837,317.657 104.837,317.782 109.983,317.782 109.983,317.657 104.84,317.657 	"/>
	<polygon points="112.619,317.785 112.619,320.437 102.198,320.437 102.198,317.785 102.073,317.785 102.073,320.562 
		102.188,320.562 112.636,320.562 112.744,320.562 112.744,317.785 	"/>
	<path fill="#E69900" d="M104.712,317.66v-2.654h-5.147v2.654H104.712z M100.865,317.143c-0.364,0-0.659-0.312-0.659-0.695
		s0.295-0.695,0.659-0.695s0.659,0.312,0.659,0.695S101.23,317.143,100.865,317.143z"/>
	<path d="M102.198,317.785h2.517h0.122v-0.003v-0.125V315v-0.119h-0.122h-2.642H99.44v2.904h2.634H102.198z M99.565,315.006h5.147
		v2.654h-5.147V315.006z"/>
	<path fill="#E69900" d="M110.108,315.006v2.654h5.148v-2.654H110.108z M114.003,315.695c0.364,0,0.659,0.312,0.659,0.695
		s-0.295,0.695-0.659,0.695c-0.363,0-0.659-0.312-0.659-0.695S113.64,315.695,114.003,315.695z"/>
	<path d="M110.113,314.881h-0.13V315v0.006v2.651v0.125v0.003h0.13h2.507h0.125h2.637v-2.904h-2.637H110.113z M115.256,317.66
		h-5.148v-2.654h5.148V317.66z"/>
	<path fill="#E69900" d="M146.894,317.66v-2.654h-5.147v2.654H146.894z M142.969,316.912c-0.364,0-0.659-0.311-0.659-0.695
		c0-0.383,0.295-0.694,0.659-0.694s0.659,0.312,0.659,0.694C143.628,316.602,143.333,316.912,142.969,316.912z"/>
	<path d="M144.387,317.785h2.51h0.122v-0.003v-0.125v-2.776h-0.122h-2.635h-2.641v2.904h2.641H144.387z M141.746,315.006h5.147
		v2.654h-5.147V315.006z"/>
	<path fill="#E69900" d="M152.297,317.66h5.147v-2.654h-5.147V317.66z M156.117,315.465c0.363,0,0.659,0.311,0.659,0.694
		s-0.296,0.694-0.659,0.694c-0.364,0-0.659-0.311-0.659-0.694S155.753,315.465,156.117,315.465z"/>
	<path d="M152.294,314.881h-0.122v2.776v0.125v0.003h0.122h2.514h0.125h2.637v-2.904h-2.637H152.294z M157.445,317.66h-5.147v-2.654
		h5.147V317.66z"/>
	<ellipse fill="#FFFFFF" cx="122.002" cy="330.244" rx="0.659" ry="0.695"/>
	<ellipse fill="#FFFFFF" cx="128.572" cy="330.244" rx="0.659" ry="0.695"/>
	<ellipse fill="#FFFFFF" cx="135.14" cy="330.186" rx="0.659" ry="0.695"/>
	<ellipse fill="#FFFFFF" cx="124.632" cy="327.473" rx="0.659" ry="0.695"/>
	<ellipse fill="#FFFFFF" cx="132.461" cy="327.415" rx="0.659" ry="0.694"/>
	<ellipse fill="#FFFFFF" cx="124.572" cy="332.957" rx="0.659" ry="0.695"/>
	<ellipse fill="#FFFFFF" cx="132.461" cy="333.071" rx="0.659" ry="0.694"/>
	<ellipse fill="#FFFFFF" cx="142.969" cy="316.217" rx="0.659" ry="0.695"/>
	<ellipse fill="#FFFFFF" cx="149.548" cy="316.217" rx="0.659" ry="0.695"/>
	<ellipse fill="#FFFFFF" cx="156.117" cy="316.159" rx="0.659" ry="0.694"/>
	<ellipse fill="#FFFFFF" cx="145.599" cy="313.446" rx="0.659" ry="0.694"/>
	<ellipse fill="#FFFFFF" cx="153.427" cy="313.388" rx="0.659" ry="0.695"/>
	<ellipse fill="#FFFFFF" cx="145.549" cy="318.93" rx="0.659" ry="0.695"/>
	<ellipse fill="#FFFFFF" cx="153.427" cy="319.045" rx="0.659" ry="0.695"/>
	<ellipse fill="#FFFFFF" cx="121.943" cy="302.421" rx="0.659" ry="0.694"/>
	<ellipse fill="#FFFFFF" cx="128.522" cy="302.421" rx="0.659" ry="0.694"/>
	<ellipse fill="#FFFFFF" cx="135.09" cy="302.364" rx="0.659" ry="0.695"/>
	<ellipse fill="#FFFFFF" cx="124.572" cy="299.65" rx="0.659" ry="0.695"/>
	<ellipse fill="#FFFFFF" cx="132.401" cy="299.593" rx="0.659" ry="0.695"/>
	<ellipse fill="#FFFFFF" cx="124.522" cy="305.134" rx="0.659" ry="0.695"/>
	<ellipse fill="#FFFFFF" cx="132.401" cy="305.25" rx="0.659" ry="0.695"/>
	<ellipse fill="#FFFFFF" cx="100.865" cy="316.447" rx="0.659" ry="0.695"/>
	<ellipse fill="#FFFFFF" cx="107.435" cy="316.447" rx="0.659" ry="0.695"/>
	<ellipse fill="#FFFFFF" cx="114.003" cy="316.391" rx="0.659" ry="0.695"/>
	<ellipse fill="#FFFFFF" cx="103.495" cy="313.677" rx="0.659" ry="0.694"/>
	<ellipse fill="#FFFFFF" cx="111.323" cy="313.62" rx="0.659" ry="0.695"/>
	<ellipse fill="#FFFFFF" cx="103.435" cy="319.161" rx="0.659" ry="0.694"/>
	<ellipse fill="#FFFFFF" cx="111.323" cy="319.276" rx="0.659" ry="0.694"/>
	<polygon fill="#004E00" points="119.242,266.384 116.755,264.385 114.163,264.385 117.48,266.384 115.716,268.508 115.716,270.633 
		117.48,270.633 119.242,268.508 121.006,270.633 122.77,270.633 122.77,268.508 121.006,266.384 124.323,264.385 121.731,264.385 	
		"/>
	<polygon fill="#004E00" points="129.824,266.384 127.336,264.385 124.744,264.385 128.061,266.384 126.297,268.508 
		126.297,270.633 128.061,270.633 129.824,268.508 131.587,270.633 133.351,270.633 133.351,268.508 131.587,266.384 
		134.904,264.385 132.312,264.385 	"/>
	<polygon fill="#004E00" points="140.406,266.383 137.918,264.385 135.325,264.385 138.642,266.383 136.878,268.508 
		136.878,270.633 138.642,270.633 140.406,268.508 142.169,270.633 143.933,270.633 143.933,268.508 142.169,266.383 
		145.485,264.385 142.892,264.385 	"/>
	<polygon fill="#004E00" points="119.243,196.246 121.745,198.256 124.343,198.256 121.007,196.246 122.771,194.122 
		122.771,191.997 121.007,191.997 119.243,194.122 117.481,191.997 115.717,191.997 115.717,194.122 117.481,196.246 
		114.147,198.256 116.742,198.256 	"/>
	<polygon fill="#004E00" points="140.406,196.248 142.907,198.256 145.503,198.256 142.17,196.248 143.934,194.122 143.934,191.997 
		142.17,191.997 140.406,194.122 138.643,191.997 136.879,191.997 136.879,194.122 138.643,196.248 135.307,198.256 
		137.906,198.256 	"/>
	<polygon fill="#004E00" points="129.825,196.246 132.327,198.256 134.924,198.256 131.588,196.246 133.352,194.122 
		133.352,191.997 131.588,191.997 129.825,194.122 128.062,191.997 126.298,191.997 126.298,194.122 128.062,196.246 
		124.726,198.256 127.323,198.256 	"/>
	<polygon fill="#004E00" points="180.856,220.572 178.02,217.503 177.571,217.503 177.571,219.439 180.856,222.107 177.571,224.775 
		177.571,228.647 180.856,231.316 177.571,233.984 177.571,237.857 180.854,240.525 177.571,243.193 177.571,245.129 
		178.02,245.129 180.854,242.06 183.689,243.595 186.524,243.595 186.524,242.06 183.689,240.525 186.524,238.991 186.524,237.456 
		183.689,237.456 180.854,238.991 178.021,235.92 180.856,232.851 183.689,234.386 186.524,234.386 186.524,232.851 
		183.689,231.316 186.524,229.781 186.524,228.247 183.689,228.247 180.856,229.781 178.021,226.711 180.856,223.642 
		183.689,225.177 186.524,225.177 186.524,223.642 183.689,222.107 186.524,220.572 186.524,219.037 183.689,219.037 	"/>
	<polygon fill="#004E00" points="78.802,240.525 82.091,237.853 82.091,233.989 78.8,231.316 82.091,228.643 82.091,224.78 
		78.8,222.107 82.091,219.434 82.091,217.503 81.636,217.503 78.8,220.572 75.967,219.037 73.132,219.037 73.132,220.572 
		75.967,222.107 73.132,223.642 73.132,225.177 75.967,225.177 78.8,223.642 81.635,226.711 78.8,229.781 75.967,228.247 
		73.132,228.247 73.132,229.781 75.967,231.316 73.132,232.851 73.132,234.386 75.967,234.386 78.8,232.851 81.635,235.92 
		78.802,238.991 75.967,237.456 73.132,237.456 73.132,238.991 75.967,240.525 73.132,242.06 73.132,243.595 75.967,243.595 
		78.802,242.06 81.636,245.129 82.091,245.129 82.091,243.197 	"/>
	<rect x="177.571" y="251.63" fill="#004E00" width="2.012" height="1.875"/>
	<polygon points="177.571,251.63 179.582,251.63 179.582,253.505 177.571,253.505 177.571,253.755 179.832,253.755 179.832,251.38 
		177.571,251.38 	"/>
	<rect x="175.298" y="253.759" fill="#004E00" width="2.018" height="1.869"/>
	<polygon points="177.316,253.759 177.316,255.628 175.298,255.628 175.298,253.759 175.048,253.759 175.048,255.878 
		177.566,255.878 177.566,253.759 	"/>
	<rect x="163.96" y="264.385" fill="#004E00" width="2.018" height="1.871"/>
	<polygon points="165.978,264.385 165.978,266.256 163.96,266.256 163.96,264.385 163.71,264.385 163.71,266.506 166.228,266.506 
		166.228,264.385 	"/>
	<rect x="166.234" y="262.258" fill="#004E00" width="2.012" height="1.875"/>
	<polygon points="166.234,262.258 168.245,262.258 168.245,264.133 166.234,264.133 166.234,264.383 168.495,264.383 
		168.495,262.008 166.234,262.008 	"/>
	<polygon fill="#004E00" points="91.405,262.258 91.405,264.133 93.422,264.133 93.422,264.131 93.422,262.258 	"/>
	<polygon points="93.422,264.133 91.405,264.133 91.405,262.258 93.422,262.258 93.422,264.131 93.427,264.131 93.427,262.008 
		91.155,262.008 91.155,264.383 93.422,264.383 	"/>
	<rect x="80.063" y="251.63" fill="#004E00" width="2.018" height="1.875"/>
	<path d="M82.091,253.503v-2.124h-2.278v2.375h2.278V253.503z M80.063,253.505v-1.875h2.018v1.875H80.063z"/>
	<rect x="82.341" y="253.759" fill="#004E00" width="2.018" height="1.869"/>
	<polygon points="84.359,253.759 84.359,255.628 82.341,255.628 82.341,253.759 82.091,253.759 82.091,255.878 84.609,255.878 
		84.609,253.759 	"/>
	<rect x="82.341" y="207.008" fill="#004E00" width="2.018" height="1.873"/>
	<polygon points="82.33,208.881 82.341,208.881 82.341,207.008 84.359,207.008 84.359,208.881 84.609,208.881 84.609,206.758 
		82.091,206.758 82.091,208.881 	"/>
	<rect x="80.063" y="209.131" fill="#004E00" width="2.018" height="1.875"/>
	<path d="M82.091,209.133v-0.252h-2.278v2.375h2.278V209.133z M80.063,211.007v-1.875h2.018v1.875H80.063z"/>
	<polygon fill="#004E00" points="95.69,196.381 93.672,196.381 93.672,198.254 93.672,198.256 95.69,198.256 	"/>
	<polygon points="93.672,198.254 93.672,196.381 95.69,196.381 95.69,198.256 93.672,198.256 93.672,198.256 95.94,198.256 
		95.94,196.131 93.422,196.131 93.422,198.254 	"/>
	<polygon fill="#004E00" points="91.405,198.504 91.405,200.379 93.422,200.379 93.422,198.506 93.422,198.504 	"/>
	<path d="M93.427,198.256h0.245v0v-0.002h-0.25h-2.268v2.375h2.272V198.256z M93.422,200.379h-2.018v-1.875h2.018v0.002V200.379z"/>
	<polygon fill="#004E00" points="165.978,196.381 163.96,196.381 163.96,198.256 165.978,198.256 165.978,198.254 	"/>
	<polygon points="165.978,198.256 165.978,198.256 163.96,198.256 163.96,196.381 165.978,196.381 165.978,198.254 166.228,198.254 
		166.228,196.131 163.71,196.131 163.71,198.256 	"/>
	<rect x="166.234" y="198.504" fill="#004E00" width="2.012" height="1.875"/>
	<polygon points="165.978,198.254 165.978,198.256 165.978,198.256 166.234,198.256 166.234,198.504 168.245,198.504 
		168.245,200.379 166.234,200.379 166.234,200.629 168.495,200.629 168.495,198.254 166.228,198.254 	"/>
	<polygon fill="#004E00" points="175.298,207.008 175.298,208.881 177.315,208.881 177.316,208.881 177.316,207.008 	"/>
	<polygon points="175.298,208.881 175.298,207.008 177.316,207.008 177.316,208.881 177.566,208.881 177.566,206.758 
		175.048,206.758 175.048,208.881 	"/>
	<rect x="177.571" y="209.131" fill="#004E00" width="2.012" height="1.875"/>
	<polygon points="177.571,209.131 179.582,209.131 179.582,211.007 177.571,211.007 177.571,211.257 179.832,211.257 
		179.832,208.881 177.571,208.881 	"/>
	<rect x="93.672" y="264.385" fill="#004E00" width="2.018" height="1.871"/>
	<polygon points="95.69,264.385 95.69,266.256 93.672,266.256 93.672,264.385 93.427,264.385 93.427,264.131 93.422,264.131 
		93.422,264.133 93.422,264.383 93.422,266.506 95.94,266.506 95.94,264.385 	"/>
	<path fill="#970000" d="M177.321,209.131h-11.337v-10.625H93.677v10.625H82.341v44.378h11.336v10.625h72.307v-10.625h11.337
		V209.131z M163.966,251.634v10.625H95.695v-10.625H84.358v-40.627h11.337v-10.626h68.271v10.626h11.337v40.627H163.966z"/>
	<polygon fill="#970000" points="175.053,211.257 163.716,211.257 163.716,200.631 95.945,200.631 95.945,211.257 84.608,211.257 
		84.608,251.384 95.945,251.384 95.945,262.009 163.716,262.009 163.716,251.384 175.053,251.384 	"/>
	<path d="M177.571,237.857v-3.873v-5.337v-3.872v-5.336v-1.936v-6.246v-0.25v-1.875v-0.25h-0.005h-0.25h-0.001h-2.017h-0.25h-8.814
		v-8.252v-0.25v-1.875v-0.248h-0.256h-2.268h-18.207h-2.596h-5.001h-2.599h-0.383h-2.597h-5.003h-2.598h-0.383h-2.598h-5.003h-2.595
		H95.94h-2.268h-0.245v2.373v8.252h-8.818h-0.25h-2.018H82.33h-0.239v0.252v2.124v6.246v1.931v5.346v3.863v5.346v3.864v5.345v1.932
		v6.25v2.124v0.251v0.004h0.25h2.018h0.25h8.818v8.249v2.123v0.254h0.245h2.018h0.25h18.223h2.592h4.976h2.592h0.421h2.592h4.976
		h2.592h0.421h2.593h4.974h2.592h18.226h0.25h2.018h0.25h0.006v-0.002v-0.25v-1.875v-0.25v-8.249h8.814h0.25h2.018h0.25h0.005
		v-0.004v-0.25v-1.875v-0.25v-6.25v-1.937V237.857z M177.321,253.509h-11.337v10.625H93.677v-10.625H82.341v-44.378h11.336v-10.625
		h72.307v10.625h11.337V253.509z"/>
	<path d="M175.303,211.007h-11.337v-10.626H95.695v10.626H84.358v40.627h11.337v10.625h68.271v-10.625h11.337V211.007z
		 M163.716,251.384v10.625H95.945v-10.625H84.608v-40.127h11.337v-10.626h67.771v10.626h11.337v40.127H163.716z"/>
	<path fill="#980000" d="M80.071,73.619l6.725,6.061l13.616,0.015l11.308,6.116h36.212L159.3,79.68h13.556l6.725-6.061v-6.121
		l6.802-8.174V43.067l-6.802-8.174v-6.12l-6.725-6.061l-13.615-0.015l-11.309-6.116h-36.212l-11.368,6.131H86.795l-6.725,6.061
		v6.121l-6.802,8.174v16.257l6.802,8.174V73.619z M75.427,57.329v-6.13v-6.131l6.803-8.173v-6.131l6.802-6.131h8.431h5.173
		l11.337-6.131h11.655l0.004-0.003h4.182v-0.008l0.008,0.008h0.006h0.004l0.008-0.008v0.008h4.187l0.004,0.003h11.65l11.337,6.131
		h5.174h8.43l6.803,6.131v6.131l6.802,8.173v6.131v6.13l-6.802,8.174v6.13l-6.803,6.131h-13.604l-11.337,6.131h-15.835h-0.006v0.011
		l-0.012-0.011h-0.002l-0.012,0.011v-0.011h-0.006h-15.835l-11.337-6.131H89.031l-6.802-6.131v-6.13L75.427,57.329z"/>
	<path d="M79.821,73.73l6.879,6.2h13.621l11.308,6.116l36.367,0.015l11.337-6.131h13.62l6.837-6.162l0.042-0.037V67.59l6.802-8.174
		V42.976l-6.802-8.174v-6.141l-6.879-6.2h-13.62l-11.309-6.116l-36.335-0.015l-11.368,6.131H86.699l-6.837,6.163l-0.042,0.037v6.141
		l-6.802,8.174v16.439l6.802,8.174V73.73z M73.269,43.067l6.802-8.174v-6.121l6.725-6.061h13.557l11.368-6.131h36.212l11.309,6.116
		l13.615,0.015l6.725,6.061v6.12l6.802,8.174v16.258l-6.802,8.174v6.121l-6.725,6.061H159.3l-11.369,6.131h-36.212l-11.308-6.116
		L86.795,79.68l-6.725-6.061v-6.121l-6.802-8.174V43.067z"/>
	<rect x="84.694" y="54.854" fill="#E69900" width="0.003" height="2.91"/>
	<polygon fill="#E69900" points="85.741,55.282 87.841,57.325 86.638,58.496 88.805,58.496 93.285,55.654 89.95,53.252 
		89.941,53.252 89.941,55.282 	"/>
	<polygon fill="#E69900" points="82.23,71.633 89.031,77.764 102.635,77.764 113.972,83.895 129.807,83.895 129.807,83.894 
		125.631,83.894 120.761,79.807 113.035,79.807 108.837,77.763 110.937,75.72 115.135,77.763 119.333,77.763 122.591,73.006 
		113.165,68.016 104.82,73.079 104.058,77.759 102.408,76.008 97.462,77.759 95.814,76.008 99.111,72.504 97.462,70.753 
		102.408,70.753 108.787,66.706 99.523,66.706 95.754,68.992 94.992,73.673 93.344,71.921 88.397,73.673 86.748,71.921 
		90.046,68.417 88.397,66.667 93.344,66.667 96.333,64.77 96.333,57.85 96.234,57.778 91.216,60.822 90.454,65.502 88.805,63.751 
		83.859,65.502 82.21,63.751 85.508,60.248 84.681,59.369 83.643,59.369 77.347,51.199 75.427,51.199 75.427,57.329 82.23,65.503 	
		"/>
	<polygon fill="#E69900" points="127.74,79.819 129.807,81.833 129.807,79.819 	"/>
	<rect x="125.64" y="77.763" fill="#E69900" width="2.1" height="0.012"/>
	<polygon fill="#E69900" points="123.532,77.763 123.54,77.771 123.54,77.763 	"/>
	<polygon fill="#E69900" points="79.447,51.199 81.968,54.88 79.453,51.208 81.554,51.208 83.653,53.252 85.752,51.208 
		89.027,51.208 89.041,51.199 	"/>
	<polygon fill="#980000" points="108.787,66.706 102.408,70.753 97.462,70.753 99.111,72.504 95.814,76.008 97.462,77.759 
		102.408,76.008 104.058,77.759 104.82,73.079 113.165,68.016 110.693,66.706 	"/>
	<polygon fill="#980000" points="96.333,64.77 93.344,66.667 88.397,66.667 90.046,68.417 86.748,71.921 88.397,73.673 
		93.344,71.921 94.992,73.673 95.754,68.992 99.523,66.706 96.333,66.706 	"/>
	<polygon fill="#980000" points="88.805,58.496 86.638,58.496 85.741,59.369 84.681,59.369 85.508,60.248 82.21,63.751 
		83.859,65.502 88.805,63.751 90.454,65.502 91.216,60.822 96.234,57.778 93.285,55.654 	"/>
	<polygon fill="#E69900" points="170.61,51.199 180.208,51.199 180.211,51.195 176.012,45.065 176.004,45.065 180.198,51.188 
		178.097,51.188 175.998,49.145 173.899,51.188 170.624,51.188 170.609,51.198 	"/>
	<polygon fill="#E69900" points="160.54,29.888 162.19,31.639 157.242,31.639 150.856,35.691 160.115,35.691 163.897,33.397 
		164.658,28.716 166.307,30.468 171.254,28.716 172.903,30.468 169.605,33.972 171.254,35.723 166.307,35.723 163.318,37.62 
		163.318,44.548 163.417,44.619 168.435,41.575 169.197,36.895 170.846,38.646 175.792,36.895 177.441,38.646 174.143,42.15 
		174.964,43.022 176.012,43.022 182.309,51.195 182.31,51.195 182.309,51.195 182.31,51.196 182.309,51.196 182.307,51.199 
		184.224,51.199 184.224,45.068 177.422,36.895 177.422,30.764 170.619,24.633 162.19,24.633 163.837,26.385 	"/>
	<polygon fill="#E69900" points="173.912,47.109 171.814,45.065 173.01,43.901 170.846,43.901 166.366,46.743 169.7,49.145 
		169.714,49.145 169.714,47.109 	"/>
	<polygon fill="#E69900" points="131.912,22.578 129.844,20.564 129.844,22.578 	"/>
	<polygon fill="#E69900" points="129.844,18.516 129.844,18.521 136.111,24.622 136.111,24.629 136.124,24.629 	"/>
	<rect x="131.912" y="24.622" fill="#E69900" width="2.099" height="0.008"/>
	<polygon fill="#E69900" points="146.621,22.586 150.82,24.629 148.72,26.673 144.522,24.629 140.323,24.629 137.061,29.392 
		146.481,34.38 154.831,29.313 155.593,24.633 157.242,26.385 162.19,24.633 157.016,24.633 145.679,18.502 134.029,18.502 
		138.895,22.585 	"/>
	<polygon fill="#980000" points="123.54,77.775 123.54,77.771 123.532,77.763 123.54,77.763 123.54,75.732 125.64,75.732 
		125.64,77.763 127.74,77.763 127.74,75.732 122.591,73.006 119.333,77.763 115.135,77.763 110.937,75.72 108.837,77.763 
		113.035,79.807 120.761,79.807 125.631,83.894 129.807,83.894 129.807,83.876 	"/>
	<polygon fill="#FFFFFF" points="93.285,46.743 88.805,43.901 86.645,43.901 87.841,45.065 85.741,47.109 89.941,47.109 
		89.941,49.145 89.95,49.145 	"/>
	<polygon fill="#FFFFFF" points="123.532,24.629 123.54,24.629 123.54,24.622 	"/>
	<polygon fill="#FFFFFF" points="89.042,51.198 89.027,51.188 85.752,51.188 83.653,49.145 81.554,51.188 79.453,51.188 
		83.647,45.065 83.643,45.065 79.444,51.195 79.447,51.199 89.041,51.199 	"/>
	<polygon fill="#FFFFFF" points="104.058,24.633 104.82,29.313 113.17,34.38 122.594,29.39 119.333,24.629 115.135,24.629 
		110.937,26.673 108.837,24.629 113.035,22.586 120.761,22.585 125.627,18.502 113.972,18.502 102.635,24.633 97.462,24.633 
		102.408,26.385 	"/>
	<polygon fill="#FFFFFF" points="77.345,51.196 77.344,51.196 77.344,51.195 77.344,51.195 77.345,51.195 83.643,43.022 
		84.687,43.022 85.508,42.15 82.21,38.646 83.859,36.895 88.805,38.646 90.454,36.895 91.216,41.575 96.234,44.619 96.333,44.548 
		96.333,37.62 93.344,35.723 88.397,35.723 90.046,33.972 86.748,30.468 88.397,28.716 93.344,30.468 94.992,28.716 95.754,33.397 
		99.536,35.691 108.795,35.691 102.408,31.639 97.462,31.639 99.111,29.888 95.814,26.385 97.462,24.633 89.031,24.633 
		82.23,30.764 82.23,36.895 75.427,45.068 75.427,51.199 77.347,51.199 	"/>
	<rect x="125.64" y="24.622" fill="#FFFFFF" width="2.1" height="0.008"/>
	<polygon fill="#FFFFFF" points="127.74,22.578 129.813,22.578 129.838,22.578 129.844,22.578 129.844,20.564 129.825,20.546 	"/>
	<polygon fill="#FFFFFF" points="129.838,18.51 129.838,18.516 129.844,18.521 129.844,18.516 	"/>
	<polygon fill="#980000" points="113.035,22.586 108.837,24.629 110.937,26.673 115.135,24.629 119.333,24.629 122.594,29.39 
		127.74,26.665 127.74,24.629 125.64,24.629 125.64,26.665 123.54,26.665 123.54,24.629 123.532,24.629 123.54,24.622 
		123.54,24.622 129.813,18.516 129.813,18.499 125.631,18.499 125.627,18.502 120.761,22.585 	"/>
	<rect x="129.824" y="18.499" fill="#980000" width="0.004" height="0.003"/>
	<polygon fill="#980000" points="129.838,18.51 129.844,18.516 136.124,24.629 136.111,24.629 136.111,26.665 134.011,26.665 
		134.011,24.629 131.912,24.629 131.912,26.665 137.061,29.392 140.323,24.629 144.522,24.629 148.72,26.673 150.82,24.629 
		146.621,22.586 138.895,22.585 134.029,18.502 134.025,18.499 129.838,18.499 	"/>
	<polygon fill="#980000" points="129.83,18.499 129.826,18.499 129.828,18.5 	"/>
	<polygon fill="#FFFFFF" points="173.914,57.325 175.823,55.466 173.912,57.325 	"/>
	<polygon fill="#FFFFFF" points="173.016,58.496 171.814,57.325 173.912,55.282 169.714,55.282 169.714,53.252 169.7,53.252 
		166.366,55.654 170.846,58.496 	"/>
	<polygon fill="#FFFFFF" points="180.208,51.199 170.61,51.199 170.624,51.208 173.899,51.208 175.998,53.252 178.097,51.208 
		180.198,51.208 176.008,57.325 176.012,57.325 	"/>
	<polygon fill="#FFFFFF" points="136.124,77.763 136.111,77.763 136.111,77.775 129.838,83.881 129.838,83.882 	"/>
	<rect x="131.912" y="77.763" fill="#FFFFFF" width="2.099" height="0.012"/>
	<polygon fill="#FFFFFF" points="176.012,59.369 174.97,59.369 174.143,60.248 177.441,63.751 175.792,65.502 170.846,63.751 
		169.197,65.502 168.435,60.822 163.417,57.778 163.318,57.85 163.318,64.77 166.307,66.667 171.254,66.667 169.605,68.417 
		172.903,71.921 171.254,73.673 166.307,71.921 164.658,73.673 163.897,68.992 160.128,66.706 150.864,66.706 157.242,70.753 
		162.19,70.753 160.54,72.504 163.837,76.008 162.19,77.759 157.242,76.008 155.593,77.759 154.831,73.079 146.486,68.016 
		137.064,73.004 140.323,77.763 144.522,77.763 148.72,75.72 150.82,77.763 146.621,79.807 138.895,79.807 134.025,83.894 
		129.838,83.894 129.838,83.895 129.844,83.895 145.679,83.895 157.016,77.764 170.619,77.764 177.422,71.633 177.422,65.503 
		184.224,57.329 184.224,51.199 182.307,51.199 	"/>
	<polygon fill="#FFFFFF" points="129.824,83.895 129.826,83.895 129.825,83.894 	"/>
	<polygon fill="#FFFFFF" points="129.807,81.833 129.825,81.851 131.912,79.819 129.838,79.819 129.813,79.819 129.807,79.819 	"/>
	<polygon fill="#FFFFFF" points="129.813,83.881 129.807,83.876 129.807,83.894 129.807,83.895 129.813,83.895 	"/>
	<polygon fill="#980000" points="131.912,77.763 134.011,77.763 134.011,75.732 136.111,75.732 136.111,77.763 136.124,77.763 
		129.838,83.882 129.838,83.894 134.025,83.894 138.895,79.807 146.621,79.807 150.82,77.763 148.72,75.72 144.522,77.763 
		140.323,77.763 137.064,73.004 131.912,75.732 	"/>
	<polygon fill="#980000" points="99.536,35.691 95.754,33.397 94.992,28.716 93.344,30.468 88.397,28.716 86.748,30.468 
		90.046,33.972 88.397,35.723 93.344,35.723 96.333,37.62 96.333,35.691 	"/>
	<polygon fill="#980000" points="155.593,24.633 154.831,29.313 146.481,34.38 148.958,35.691 150.856,35.691 157.242,31.639 
		162.19,31.639 160.54,29.888 163.837,26.385 162.19,24.633 157.242,26.385 	"/>
	<polygon fill="#980000" points="99.111,29.888 97.462,31.639 102.408,31.639 108.795,35.691 110.693,35.691 113.17,34.38 
		104.82,29.313 104.058,24.633 102.408,26.385 97.462,24.633 95.814,26.385 	"/>
	<polygon fill="#980000" points="86.645,43.901 88.805,43.901 93.285,46.743 96.234,44.619 91.216,41.575 90.454,36.895 
		88.805,38.646 83.859,36.895 82.21,38.646 85.508,42.15 84.687,43.022 85.741,43.022 	"/>
	<polygon fill="#FFFFFF" points="127.74,77.763 127.74,77.775 125.64,77.775 125.64,77.763 125.64,75.732 123.54,75.732 
		123.54,77.763 123.54,77.771 123.54,77.775 129.807,83.876 129.813,83.881 129.813,81.863 129.825,81.851 129.807,81.833 
		127.74,79.819 129.807,79.819 129.813,79.819 129.813,75.697 111.698,65.492 107.157,65.492 107.156,65.493 107.155,65.492 
		98.095,65.492 98.095,57.318 89.059,51.21 89.025,51.21 89.027,51.208 85.752,51.208 83.653,53.252 81.554,51.208 79.453,51.208 
		81.968,54.88 83.643,57.325 85.737,57.325 83.653,55.295 83.655,55.293 83.643,55.282 85.741,53.238 89.941,53.238 89.941,53.252 
		89.95,53.252 93.285,55.654 96.234,57.778 96.333,57.85 96.333,64.77 96.333,66.706 99.523,66.706 108.787,66.706 110.693,66.706 
		113.165,68.016 122.591,73.006 127.74,75.732 	"/>
	<polygon fill="#FFFFFF" points="129.838,83.882 129.838,83.881 129.825,83.894 129.826,83.895 129.838,83.906 129.838,83.895 
		129.838,83.894 	"/>
	<polygon fill="#E69900" points="89.95,49.145 89.941,49.145 89.941,49.153 85.741,49.153 83.643,47.109 85.741,45.065 
		83.647,45.065 79.453,51.188 81.554,51.188 83.653,49.145 85.752,51.188 89.027,51.188 89.025,51.187 89.059,51.187 98.095,45.079 
		98.095,36.905 107.142,36.905 107.156,36.893 107.196,36.905 111.698,36.905 129.813,26.7 129.813,22.578 127.74,22.578 
		129.825,20.546 129.813,20.534 129.813,18.516 123.54,24.622 123.54,24.622 123.54,24.629 123.54,26.665 125.64,26.665 
		125.64,24.629 125.64,24.622 127.74,24.622 127.74,24.629 127.74,26.665 122.594,29.39 113.17,34.38 110.693,35.691 
		108.795,35.691 99.536,35.691 96.333,35.691 96.333,37.62 96.333,44.548 96.234,44.619 93.285,46.743 	"/>
	<polygon fill="#E69900" points="129.825,18.503 129.838,18.516 129.838,18.51 129.838,18.499 129.838,18.491 129.83,18.499 
		129.828,18.5 	"/>
	<polygon fill="#004E00" points="89.059,51.187 89.025,51.187 89.027,51.188 89.042,51.198 	"/>
	<polygon fill="#004E00" points="123.627,56.761 117.273,60.032 116.226,65.493 113.957,63.449 107.157,65.492 111.698,65.492 
		129.813,75.697 129.813,61.407 	"/>
	<polygon fill="#004E00" points="109.423,59.362 107.156,57.319 113.958,57.319 120.023,54.054 116.237,51.21 89.059,51.21 
		98.095,57.318 98.095,65.492 107.155,65.492 104.889,63.449 	"/>
	<polygon fill="#980000" points="171.254,35.723 169.605,33.972 172.903,30.468 171.254,28.716 166.307,30.468 164.658,28.716 
		163.897,33.397 160.115,35.691 163.318,35.691 163.318,37.62 166.307,35.723 	"/>
	<polygon fill="#980000" points="173.01,43.901 173.912,43.022 174.964,43.022 174.143,42.15 177.441,38.646 175.792,36.895 
		170.846,38.646 169.197,36.895 168.435,41.575 163.417,44.619 166.366,46.743 170.846,43.901 	"/>
	<polygon fill="#FFFFFF" points="129.813,18.516 129.813,20.534 129.825,20.546 129.844,20.564 131.912,22.578 129.844,22.578 
		129.838,22.578 129.813,22.578 129.813,26.7 129.815,26.699 129.815,26.687 129.825,26.693 129.836,26.687 129.836,26.699 
		147.952,36.905 152.455,36.905 152.495,36.893 152.509,36.905 161.557,36.905 161.557,45.079 170.592,51.187 170.626,51.187 
		170.624,51.188 173.899,51.188 175.998,49.145 178.097,51.188 180.198,51.188 176.004,45.065 173.912,45.065 176.012,47.109 
		173.912,49.153 169.714,49.153 169.714,49.145 169.7,49.145 166.366,46.743 163.417,44.619 163.318,44.548 163.318,37.62 
		163.318,35.691 160.115,35.691 150.856,35.691 148.958,35.691 146.481,34.38 137.061,29.392 131.912,26.665 131.912,24.629 
		131.912,24.622 134.011,24.622 134.011,24.629 134.011,26.665 136.111,26.665 136.111,24.629 136.111,24.622 129.844,18.521 
		129.838,18.516 129.825,18.503 129.821,18.499 129.813,18.491 129.813,18.499 	"/>
	<polygon fill="#004E00" points="170.609,51.198 170.594,51.208 170.624,51.208 170.61,51.199 	"/>
	<polygon fill="#004E00" points="150.228,43.024 152.495,45.067 145.694,45.067 139.62,48.337 143.415,51.187 170.592,51.187 
		161.557,45.079 161.557,36.905 152.509,36.905 154.762,38.937 	"/>
	<polygon fill="#004E00" points="129.836,40.989 136.015,45.629 142.378,42.354 143.425,36.893 145.694,38.937 152.455,36.905 
		147.952,36.905 129.836,26.699 	"/>
	<polygon fill="#004E00" points="129.815,26.687 129.815,26.699 129.825,26.693 	"/>
	<polygon fill="#980000" points="146.486,68.016 154.831,73.079 155.593,77.759 157.242,76.008 162.19,77.759 163.837,76.008 
		160.54,72.504 162.19,70.753 157.242,70.753 150.864,66.706 148.958,66.706 	"/>
	<polygon fill="#980000" points="160.128,66.706 163.897,68.992 164.658,73.673 166.307,71.921 171.254,73.673 172.903,71.921 
		169.605,68.417 171.254,66.667 166.307,66.667 163.318,64.77 163.318,66.706 	"/>
	<polygon fill="#980000" points="173.016,58.496 170.846,58.496 166.366,55.654 163.417,57.778 168.435,60.822 169.197,65.502 
		170.846,63.751 175.792,65.502 177.441,63.751 174.143,60.248 174.97,59.369 173.912,59.369 	"/>
	<polygon fill="#E69900" points="129.838,83.881 136.111,77.775 136.111,77.763 136.111,75.732 134.011,75.732 134.011,77.763 
		134.011,77.775 131.912,77.775 131.912,77.763 131.912,75.732 137.064,73.004 146.486,68.016 148.958,66.706 150.864,66.706 
		160.128,66.706 163.318,66.706 163.318,64.77 163.318,57.85 163.417,57.778 166.366,55.654 169.7,53.252 169.714,53.252 
		169.714,53.238 173.912,53.238 176.012,55.282 175.823,55.466 173.914,57.325 176.008,57.325 180.198,51.208 178.097,51.208 
		175.998,53.252 173.899,51.208 170.624,51.208 170.594,51.208 161.557,57.318 161.557,65.492 152.496,65.492 152.495,65.493 
		152.494,65.492 147.952,65.492 129.815,75.71 129.815,61.409 129.813,61.407 129.813,75.697 129.813,79.819 129.838,79.819 
		131.912,79.819 129.825,81.851 129.813,81.863 129.813,83.881 129.813,83.895 129.813,83.906 129.824,83.895 129.825,83.894 	"/>
	<polygon fill="#980000" points="143.431,51.199 139.63,54.054 145.694,57.319 152.495,57.319 150.228,59.362 154.762,63.449 
		152.496,65.492 161.557,65.492 161.557,57.318 170.594,51.208 170.609,51.198 170.624,51.188 170.626,51.187 170.592,51.187 
		143.415,51.187 	"/>
	<polygon fill="#980000" points="143.425,65.493 142.378,60.032 136.025,56.762 129.826,61.417 129.815,61.409 129.815,75.71 
		147.952,65.492 152.494,65.492 145.694,63.449 	"/>
	<polygon fill="#980000" points="111.698,36.905 107.196,36.905 113.957,38.937 116.226,36.893 117.273,42.354 123.637,45.63 
		129.826,40.981 129.836,40.989 129.836,26.699 129.836,26.687 129.825,26.693 129.815,26.699 129.813,26.7 	"/>
	<polygon fill="#980000" points="116.223,51.199 120.033,48.337 113.958,45.067 107.156,45.067 109.423,43.024 104.889,38.937 
		107.142,36.905 98.095,36.905 98.095,45.079 89.059,51.187 89.042,51.198 89.041,51.199 89.027,51.208 89.025,51.21 89.059,51.21 
		116.237,51.21 	"/>
	<polygon fill="#980000" points="143.425,36.893 142.378,42.354 136.015,45.629 137.986,47.109 138.223,47.109 138.223,47.288 
		139.62,48.337 145.694,45.067 152.495,45.067 150.228,43.024 154.762,38.937 152.509,36.905 152.495,36.893 152.455,36.905 
		145.694,38.937 	"/>
	<polygon fill="#980000" points="116.226,65.493 117.273,60.032 123.627,56.761 121.66,55.284 121.429,55.284 121.429,55.11 
		120.023,54.054 113.958,57.319 107.156,57.319 109.423,59.362 104.889,63.449 107.155,65.492 107.156,65.493 107.157,65.492 
		113.957,63.449 	"/>
	<polygon fill="#004E00" points="109.423,43.024 107.156,45.067 113.958,45.067 120.033,48.337 121.429,47.289 121.429,47.109 
		121.668,47.109 123.637,45.63 117.273,42.354 116.226,36.893 113.957,38.937 107.196,36.905 107.156,36.893 107.142,36.905 
		104.889,38.937 	"/>
	<polygon fill="#004E00" points="150.228,59.362 152.495,57.319 145.694,57.319 139.63,54.054 138.223,55.111 138.223,55.284 
		137.993,55.284 136.025,56.762 142.378,60.032 143.425,65.493 145.694,63.449 152.494,65.492 152.495,65.493 152.496,65.492 
		154.762,63.449 	"/>
	<polygon fill="#FFFFFF" points="121.429,47.289 120.033,48.337 116.223,51.199 116.237,51.21 120.023,54.054 121.429,55.11 	"/>
	<polygon fill="#FFFFFF" points="138.223,55.111 139.63,54.054 143.431,51.199 143.415,51.187 139.62,48.337 138.223,47.288 	"/>
	<polygon fill="#FFFFFF" points="136.025,56.762 137.993,55.284 131.926,55.284 131.926,59.37 127.727,59.37 127.727,55.284 
		121.66,55.284 123.627,56.761 129.813,61.407 129.815,61.409 129.826,61.417 	"/>
	<polygon fill="#FFFFFF" points="127.727,47.109 127.727,43.021 131.926,43.021 131.926,47.109 137.986,47.109 136.015,45.629 
		129.836,40.989 129.826,40.981 123.637,45.63 121.668,47.109 	"/>
	<polygon fill="#980000" points="86.638,58.496 87.841,57.325 85.741,55.282 89.941,55.282 89.941,53.252 89.941,53.238 
		85.741,53.238 83.643,55.282 83.655,55.293 85.741,57.325 85.737,57.325 83.643,57.325 81.968,54.88 79.447,51.199 79.444,51.195 
		79.444,51.196 77.345,51.196 77.347,51.199 83.643,59.369 84.681,59.369 85.741,59.369 	"/>
	<polygon fill="#980000" points="77.344,51.195 77.344,51.195 77.345,51.195 	"/>
	<polygon fill="#980000" points="79.444,51.195 83.643,45.065 83.647,45.065 85.741,45.065 83.643,47.109 85.741,49.153 
		89.941,49.153 89.941,49.145 89.941,47.109 85.741,47.109 87.841,45.065 86.645,43.901 85.741,43.022 84.687,43.022 83.643,43.022 
		77.345,51.195 77.344,51.195 77.344,51.196 77.345,51.196 79.444,51.196 	"/>
	<polygon fill="#980000" points="180.211,51.195 180.208,51.199 176.012,57.325 176.008,57.325 173.914,57.325 173.912,57.325 
		175.823,55.466 176.012,55.282 173.912,53.238 169.714,53.238 169.714,53.252 169.714,55.282 173.912,55.282 171.814,57.325 
		173.016,58.496 173.912,59.369 174.97,59.369 176.012,59.369 182.307,51.199 182.309,51.196 180.211,51.196 	"/>
	<polygon fill="#980000" points="182.31,51.195 182.309,51.195 182.309,51.195 	"/>
	<polygon fill="#980000" points="180.211,51.195 180.211,51.196 182.309,51.196 182.31,51.196 182.309,51.195 182.309,51.195 
		176.012,43.022 174.964,43.022 173.912,43.022 173.01,43.901 171.814,45.065 173.912,47.109 169.714,47.109 169.714,49.145 
		169.714,49.153 173.912,49.153 176.012,47.109 173.912,45.065 176.004,45.065 176.012,45.065 	"/>
	<rect x="127.727" y="55.284" fill="#980000" width="4.199" height="4.086"/>
	<rect x="127.727" y="43.021" fill="#980000" width="4.199" height="4.088"/>
	<polygon fill="#980000" points="131.926,47.109 127.727,47.109 121.668,47.109 121.429,47.109 121.429,47.289 121.429,55.11 
		121.429,55.284 121.66,55.284 127.727,55.284 131.926,55.284 137.993,55.284 138.223,55.284 138.223,55.111 138.223,47.288 
		138.223,47.109 137.986,47.109 	"/>
	<rect x="109.774" y="399.528" fill="#004E00" width="1.737" height="0.006"/>
	<path fill="#004E00" d="M110.903,362.088l-37.765,20.434v34.036l37.765,20.434h37.773l37.765-20.434v-34.036l-37.765-20.434
		H110.903z M184.748,399.473l0.001,16.398l-0.033,0.018l-36.584,19.564h-18.245h-0.118h-18.245l-0.014-0.008l-36.604-19.574
		l0.001-16.34l-0.001-16.338l0.033-0.018l36.6-19.566h18.229h0.119h18.244l0.014,0.008l36.604,19.576V399.473L184.748,399.473z"/>
	<rect x="148.081" y="399.528" fill="#004E00" width="1.8" height="0.005"/>
	<path d="M186.507,416.597v-34.114L148.7,362.025l-37.806-0.004L73.09,382.473l-0.017,0.01v34.114l37.806,20.457l37.814,0.004
		l37.796-20.451L186.507,416.597z M186.441,416.558l-37.765,20.434h-37.773l-37.765-20.434v-34.036l37.765-20.434h37.773
		l37.765,20.434V416.558z"/>
	<polygon fill="#E69900" points="159.151,423.886 180.736,414.266 159.151,414.266 	"/>
	<polygon fill="#E69900" points="148.081,410.931 142.597,410.931 129.896,417.4 131.722,417.4 131.722,433.698 138.809,433.698 
		133.426,428.899 133.426,417.426 133.459,417.408 142.631,412.511 149.882,412.511 149.882,399.591 149.881,399.591 
		149.881,399.533 148.081,399.533 	"/>
	<polygon fill="#E69900" points="111.511,388.116 116.994,388.116 129.664,381.663 127.934,381.663 127.934,365.365 
		120.847,365.365 126.23,370.163 126.23,381.638 126.197,381.655 117.025,386.553 109.774,386.553 109.774,399.473 109.774,399.528 
		111.511,399.528 	"/>
	<polygon fill="#E69900" points="100.505,375.178 78.92,384.797 100.505,384.797 	"/>
	<polygon fill="#FFFFFF" points="159.15,375.178 159.15,384.797 180.735,384.797 	"/>
	<polygon fill="#FFFFFF" points="148.081,388.116 148.081,399.528 149.881,399.528 149.881,386.553 142.615,386.553 
		142.601,386.545 133.425,381.638 133.425,370.163 133.446,370.145 138.808,365.365 131.721,365.365 131.721,381.663 
		129.928,381.663 142.597,388.116 	"/>
	<polygon fill="#FFFFFF" points="100.505,423.886 100.505,414.266 78.92,414.266 	"/>
	<polygon fill="#FFFFFF" points="111.511,410.931 111.511,399.534 109.774,399.534 109.774,399.591 109.774,412.511 117.04,412.511 
		117.054,412.519 126.23,417.426 126.23,428.899 126.209,428.918 120.847,433.698 127.934,433.698 127.934,417.4 129.697,417.4 
		116.994,410.931 	"/>
	<path fill="#E69900" d="M129.893,363.734v17.804h1.703V365.24h7.54l-5.586,4.979v11.344l9.096,4.864h7.36v13.038h34.616
		l0.001-16.198L148.1,363.734H129.893z M173.719,397.901h-2.285v-4.89h-4.572v4.89h-2.285v-11.408h2.285v4.89h4.572v-4.89h2.285
		V397.901z M159.025,374.984l0.088,0.04l21.941,9.778l-0.025,0.119h-22.004V374.984z M151.777,381.604h-2.285v-4.89h-4.572v4.89
		h-2.285v-11.408h2.285v4.89h4.572v-4.89h2.285V381.604z"/>
	<path d="M148.145,363.617l-0.014-0.008h-18.244v18.032l0.042,0.021h1.792v-16.298h7.087l-5.362,4.779l-0.021,0.019v11.475
		l9.176,4.907l0.014,0.008h7.267v12.976v0.005v0.058h0.001v-0.118h34.865l0.001-16.279L148.145,363.617z M184.622,399.466h-34.616
		v-13.038h-7.36l-9.096-4.864V370.22l5.586-4.979h-7.54v16.298h-1.703v-17.804H148.1l36.523,19.533L184.622,399.466z"/>
	<path d="M181.054,384.803l-21.941-9.778l-0.088-0.04v9.938h22.004L181.054,384.803z M159.15,375.178l21.585,9.619H159.15V375.178z"
		/>
	<path fill="#980000" d="M129.768,381.663h-0.104l-12.669,6.453h-5.483v11.412v0.006v11.396h5.483l12.702,6.47h0.072h0.118h0.009
		l12.701-6.47h5.484v-11.397v-0.005v-11.412h-5.484l-12.668-6.453l-0.042-0.021v0.021H129.768z M131.657,387.646h7.314v4.456
		l5.485,0.001v5.941h-5.485v-1.486h3.657v-2.971h-3.657l-7.314,5.944l7.314,5.942h3.658v-2.972h-3.658v-1.486h5.486v5.942
		l-5.486,0.002v4.456h-7.313v-4.456h1.829v2.971h3.657v-2.971l-7.315-5.944l-7.312,5.942v2.972h3.656v-2.972h1.828v4.458
		l-7.314-0.002v-4.456h-5.484v-5.942h5.484v1.485h-3.657v2.972h3.657l7.314-5.942l-7.314-5.942h-3.658v2.972h3.658v1.486H115.2
		v-5.943h5.486v-4.457h7.314v4.457h-1.829v-2.971h-3.656v2.971l7.314,5.941l7.313-5.942v-2.972h-3.657v2.972h-1.829V387.646z"/>
	<path fill="#E69900" d="M129.762,435.328v-17.803h-1.703v16.298h-7.54l5.586-4.98V417.5l-9.096-4.864h-7.36v-13.038H75.032
		l-0.001,16.199l36.523,19.531H129.762z M85.951,401.17h2.284v4.89h4.573v-4.89h2.285v11.408h-2.285v-4.89h-4.573v4.89h-2.284
		V401.17z M100.63,424.079l-0.088-0.04l-21.941-9.779l0.025-0.119h22.004V424.079z M110.168,428.875h-2.285v-11.408h2.285v4.89
		h4.572v-4.89h2.285v11.408h-2.285v-4.89h-4.572V428.875z"/>
	<path d="M129.769,417.4h-0.072h-1.763v16.298h-7.087l5.362-4.78l0.021-0.019v-11.474l-9.176-4.907l-0.014-0.008h-7.267v-12.92
		H74.907v-0.06l-0.001,16.34l36.604,19.574l0.014,0.008h18.245V417.4z M75.032,399.598h34.616v13.038h7.36l9.096,4.864v11.343
		l-5.586,4.98h7.54v-16.298h1.703v17.803h-18.207l-36.523-19.531L75.032,399.598z"/>
	<path d="M78.601,414.26l21.941,9.779l0.088,0.04v-9.938H78.626L78.601,414.26z M100.505,423.886l-21.585-9.62h21.585V423.886z"/>
	<path fill="#FFFFFF" d="M128.059,365.24v16.298h1.703v-17.804h-18.207l-36.523,19.533l0.001,16.198h34.616v-13.038h7.36
		l9.096-4.864V370.22l-5.586-4.979H128.059z M92.809,397.905v-4.89h-4.573v4.89h-2.284v-11.408h2.284v4.89h4.573v-4.89h2.285v11.408
		H92.809z M100.63,384.922H78.626l-0.025-0.119l22.029-9.818V384.922z M114.74,381.605v-4.889h-4.572v4.889h-2.285v-11.408h2.285
		v4.891h4.572v-4.891h2.285v11.408H114.74z"/>
	<path d="M109.774,399.591v-0.057v-0.006v-0.056v-12.92h7.251l9.172-4.897l0.033-0.018v-11.475l-5.383-4.798h7.087v16.298h1.73
		h0.104h0.119v-0.021v-18.032h-0.119h-18.229l-36.6,19.566l-0.033,0.018l0.001,16.338v0.06H109.774z M126.105,381.563l-9.096,4.864
		h-7.36v13.038H75.032l-0.001-16.198l36.523-19.533h18.207v17.804h-1.703V365.24h-7.54l5.586,4.979V381.563z"/>
	<path d="M78.626,384.922h22.004v-9.938l-22.029,9.818L78.626,384.922z M100.505,375.178v9.619H78.92L100.505,375.178z"/>
	<path fill="#FFFFFF" d="M131.597,433.823v-16.298h-1.703v17.803h18.207l36.523-19.531l-0.001-16.199h-34.616v13.038h-7.36
		l-9.096,4.864v11.343l5.586,4.98H131.597z M166.862,401.159v4.89h4.572v-4.89h2.285v11.408h-2.285v-4.89h-4.572v4.89h-2.285
		v-11.408H166.862z M159.026,414.141h22.004l0.025,0.119l-22.029,9.819V414.141z M142.634,417.467h2.285v4.89h4.572v-4.89h2.285
		v11.408h-2.285v-4.89h-4.572v4.89h-2.285V417.467z"/>
	<path d="M149.882,399.473v0.118v12.92h-7.251l-9.172,4.897l-0.033,0.018v11.474l5.383,4.799h-7.087V417.4h-1.826h-0.009h-0.118
		v18.053h0.118h18.245l36.584-19.564l0.033-0.018l-0.001-16.398h-0.001H149.882z M133.551,417.5l9.096-4.864h7.36v-13.038h34.616
		l0.001,16.199l-36.523,19.531h-18.207v-17.803h1.703v16.298h7.54l-5.586-4.98V417.5z"/>
	<path d="M181.03,414.141h-22.004v9.938l22.029-9.819L181.03,414.141z M159.151,423.886v-9.62h21.585L159.151,423.886z"/>
	<polygon fill="#980000" points="88.236,407.688 92.809,407.688 92.809,412.578 95.094,412.578 95.094,401.17 92.809,401.17 
		92.809,406.06 88.236,406.06 88.236,401.17 85.951,401.17 85.951,412.578 88.236,412.578 	"/>
	<polygon fill="#980000" points="114.74,428.875 117.026,428.875 117.026,417.467 114.74,417.467 114.74,422.356 110.168,422.356 
		110.168,417.467 107.883,417.467 107.883,428.875 110.168,428.875 110.168,423.985 114.74,423.985 	"/>
	<polygon fill="#980000" points="95.094,386.497 92.809,386.497 92.809,391.387 88.236,391.387 88.236,386.497 85.951,386.497 
		85.951,397.905 88.236,397.905 88.236,393.016 92.809,393.016 92.809,397.905 95.094,397.905 	"/>
	<polygon fill="#980000" points="117.026,370.197 114.74,370.197 114.74,375.088 110.168,375.088 110.168,370.197 107.883,370.197 
		107.883,381.605 110.168,381.605 110.168,376.717 114.74,376.717 114.74,381.605 117.026,381.605 	"/>
	<polygon fill="#980000" points="171.434,386.493 171.434,391.383 166.862,391.383 166.862,386.493 164.576,386.493 
		164.576,397.901 166.862,397.901 166.862,393.012 171.434,393.012 171.434,397.901 173.719,397.901 173.719,386.493 	"/>
	<polygon fill="#980000" points="144.919,423.985 149.491,423.985 149.491,428.875 151.777,428.875 151.777,417.467 
		149.491,417.467 149.491,422.356 144.919,422.356 144.919,417.467 142.634,417.467 142.634,428.875 144.919,428.875 	"/>
	<polygon fill="#980000" points="164.576,412.567 166.862,412.567 166.862,407.678 171.434,407.678 171.434,412.567 
		173.719,412.567 173.719,401.159 171.434,401.159 171.434,406.049 166.862,406.049 166.862,401.159 164.576,401.159 	"/>
	<polygon fill="#980000" points="149.491,370.196 149.491,375.086 144.919,375.086 144.919,370.196 142.634,370.196 
		142.634,381.604 144.919,381.604 144.919,376.715 149.491,376.715 149.491,381.604 151.777,381.604 151.777,370.196 	"/>
	<polygon fill="#004E00" points="133.487,389.131 137.144,389.131 137.144,392.103 129.83,398.045 122.516,392.104 122.516,389.133 
		126.172,389.133 126.172,392.104 128.001,392.104 128.001,387.646 120.687,387.646 120.687,392.104 115.2,392.104 115.2,398.047 
		120.687,398.047 120.687,396.561 117.029,396.561 117.029,393.589 120.687,393.589 128.001,399.531 120.687,405.474 
		117.03,405.474 117.03,402.502 120.687,402.502 120.687,401.017 115.202,401.017 115.202,406.959 120.687,406.959 120.687,411.415 
		128.001,411.417 128.001,406.959 126.173,406.959 126.173,409.931 122.517,409.931 122.517,406.959 129.829,401.017 
		137.145,406.961 137.145,409.932 133.488,409.932 133.488,406.961 131.658,406.961 131.658,411.417 138.972,411.417 
		138.972,406.961 144.458,406.959 144.458,401.017 138.972,401.017 138.972,402.503 142.63,402.503 142.63,405.475 138.972,405.475 
		131.657,399.532 138.972,393.588 142.629,393.588 142.629,396.559 138.972,396.559 138.972,398.045 144.457,398.045 
		144.457,392.104 138.972,392.103 138.972,387.646 131.657,387.646 131.657,392.103 133.487,392.103 	"/>
	<polygon fill="#980000" points="171.822,128.577 157.194,128.577 157.194,118.389 140.737,118.389 140.737,113.295 
		118.919,113.295 118.919,118.389 102.463,118.389 102.463,128.577 87.835,128.577 87.835,131.972 75.035,131.972 75.035,162.41 
		87.835,162.41 87.835,165.805 102.463,165.805 102.463,175.992 118.919,175.992 118.919,181.086 140.737,181.086 140.737,175.992 
		157.194,175.992 157.194,165.805 171.822,165.805 171.822,162.41 184.621,162.41 184.621,131.972 171.822,131.972 	"/>
	<path fill="#980000" d="M173.651,126.878h-14.628v-10.188h-16.457v-5.094h-25.475v5.094h-16.457v10.188H86.006v3.396h-12.8v33.833
		h12.8v3.395h14.628v10.188h16.456v5.094h25.476v-5.094h16.457v-10.188h14.628v-3.395h12.8v-33.833h-12.8V126.878z M184.746,131.847
		v30.688h-12.8v3.396h-14.628v10.187h-16.457v5.094h-22.067v-5.094h-16.456V165.93H87.71v-3.396h-12.8v-30.688h12.8v-3.396h14.628
		v-10.188h16.456v-5.094h22.067v5.094h16.457v10.188h14.628v3.396H184.746z"/>
	<path d="M173.776,126.753h-14.628v-10.188h-16.457v-5.094h-25.725v5.094h-16.457v10.188H85.881v3.396h-12.8v34.083h12.8v3.395
		h14.628v10.188h16.456v5.094h25.726v-5.094h16.457v-10.188h14.628v-3.395h12.8V130.15h-12.8V126.753z M186.45,164.108h-12.8v3.395
		h-14.628v10.188h-16.457v5.094H117.09v-5.094h-16.456v-10.188H86.006v-3.395h-12.8v-33.833h12.8v-3.396h14.628v-10.188h16.457
		v-5.094h25.475v5.094h16.457v10.188h14.628v3.396h12.8V164.108z"/>
	<path d="M171.947,128.452h-14.628v-10.188h-16.457v-5.094h-22.067v5.094h-16.456v10.188H87.71v3.396h-12.8v30.688h12.8v3.396
		h14.628v10.187h16.456v5.094h22.067v-5.094h16.457V165.93h14.628v-3.396h12.8v-30.688h-12.8V128.452z M184.621,162.41h-12.8v3.396
		h-14.628v10.187h-16.457v5.094h-21.817v-5.094h-16.456v-10.187H87.835v-3.396h-12.8v-30.438h12.8v-3.396h14.628v-10.188h16.456
		v-5.094h21.817v5.094h16.457v10.188h14.628v3.396h12.8V162.41z"/>
</g>
</svg>
