<?xml version="1.0" encoding="utf-8"?>
<!-- Generator: Adobe Illustrator 16.0.0, SVG Export Plug-In . SVG Version: 6.00 Build 0)  -->
<svg version="1.2" baseProfile="tiny"
	 id="svg378" xmlns:cc="http://creativecommons.org/ns#" xmlns:dc="http://purl.org/dc/elements/1.1/" xmlns:rdf="http://www.w3.org/1999/02/22-rdf-syntax-ns#"
	 xmlns="http://www.w3.org/2000/svg" xmlns:xlink="http://www.w3.org/1999/xlink" x="0px" y="0px" width="512px" height="512px"
	 viewBox="0 0 512 512" xml:space="preserve">
<g>
	<path fill="#E70013" d="M0.001,0v511.983h511.983V0H0.001z M256.664,384.89c-71.314,0-129.125-57.812-129.125-129.125
		c0-71.314,57.812-129.125,129.125-129.125c71.314,0,129.125,57.812,129.125,129.125C385.789,327.079,327.978,384.89,256.664,384.89
		z"/>
	<path fill="#FFFFFF" d="M256.664,126.64c-71.313,0-129.125,57.811-129.125,129.125c0,71.313,57.811,129.125,129.125,129.125
		c71.313,0,129.125-57.811,129.125-129.125C385.789,184.451,327.979,126.64,256.664,126.64z M256.669,341.4
		c-47.27,0-85.633-38.363-85.633-85.632c0-47.271,38.363-85.633,85.633-85.633c11.817,0,25.269,2.718,34.405,9.429
		c-62.629,2.357-78.469,55.475-78.469,76.883c0,21.408,10.128,69.152,78.468,76.203C283.297,337.664,268.487,341.4,256.669,341.4z
		 M332.11,291.785l-38.889-14.182L267.5,310.022l1.477-41.356l-38.786-14.449l39.797-11.374l1.745-41.356l23.119,34.338
		l39.869-11.116l-25.503,32.594L332.11,291.785z"/>
	<path fill="#E70013" d="M212.606,256.448c0-21.408,15.84-74.526,78.469-76.883c-9.137-6.711-22.588-9.429-34.405-9.429
		c-47.27,0-85.633,38.363-85.633,85.633c0,47.269,38.363,85.632,85.633,85.632c11.817,0,26.628-3.736,34.404-8.75
		C222.734,325.6,212.606,277.855,212.606,256.448z"/>
	<polygon fill="#E70013" points="294.852,235.825 271.733,201.487 269.988,242.843 230.191,254.217 268.977,268.666 267.5,310.022 
		293.221,277.604 332.11,291.785 309.218,257.303 334.721,224.709 	"/>
</g>
</svg>
