<?xml version="1.0" encoding="utf-8"?>
<!-- Generator: Adobe Illustrator 16.0.0, SVG Export Plug-In . SVG Version: 6.00 Build 0)  -->
<svg version="1.2" baseProfile="tiny"
	 id="svg548" xmlns:cc="http://creativecommons.org/ns#" xmlns:dc="http://purl.org/dc/elements/1.1/" xmlns:rdf="http://www.w3.org/1999/02/22-rdf-syntax-ns#"
	 xmlns="http://www.w3.org/2000/svg" xmlns:xlink="http://www.w3.org/1999/xlink" x="0px" y="0px" width="512px" height="512px"
	 viewBox="0 0 512 512" xml:space="preserve">
<g id="flag">
	<rect id="rect551" x="0" fill="#F31930" width="512" height="512"/>
	<g id="g3005" transform="translate(55.474 7.7293)">
		<path id="path670" fill="none" stroke="#000000" stroke-width="0.728" d="M393.349,220.64"/>
		<path id="path614" fill="#FFFFFF" d="M293.298,256.242c0,70.629-58.246,127.882-130.1,127.882
			c-71.853,0-130.1-57.254-130.1-127.882s58.247-127.881,130.1-127.881C235.052,128.361,293.298,185.614,293.298,256.242z"/>
		<path id="path615" fill="#F31830" d="M299.805,256.236c0,56.501-46.598,102.305-104.079,102.305s-104.08-45.804-104.08-102.305
			c0-56.5,46.599-102.303,104.08-102.303S299.805,199.736,299.805,256.236z"/>
		<path id="path563" fill="#FFFFFF" d="M318.63,196.5l-1.05,47.273l-44.104,11.972l43.474,15.482l-1.051,43.352l28.353-33.854
			l42.842,14.863l-24.782-36.332l30.242-36.125l-46.413,12.798L318.63,196.5L318.63,196.5z"/>
	</g>
</g>
</svg>
