<?xml version="1.0" encoding="utf-8"?>
<!-- Generator: Adobe Illustrator 16.0.0, SVG Export Plug-In . SVG Version: 6.00 Build 0)  -->
<svg version="1.2" baseProfile="tiny"
	 id="svg2498" xmlns:cc="http://creativecommons.org/ns#" xmlns:dc="http://purl.org/dc/elements/1.1/" xmlns:rdf="http://www.w3.org/1999/02/22-rdf-syntax-ns#"
	 xmlns="http://www.w3.org/2000/svg" xmlns:xlink="http://www.w3.org/1999/xlink" x="0px" y="0px" width="512px" height="512px"
	 viewBox="0 0 512 512" xml:space="preserve">
<g>
	<polygon fill="#FFFFFF" points="75.577,86.424 95.38,86.293 20.205,125.763 31.698,125.763 101.19,89.17 101.19,125.763 
		155.201,125.763 155.201,89.17 229.313,125.554 246.861,125.763 255.983,125.763 255.983,125.134 175.712,85.168 197.043,85.334 
		197.044,85.334 255.592,116.043 255.983,122.815 255.983,118.193 255.648,111.903 204.95,84.434 255.983,84.434 255.983,39.438 
		196.039,39.213 255.983,9.487 255.983,0 253.619,0 177.761,38.313 157.243,38.479 157.243,38.479 233.162,0 223.998,0 
		154.934,34.478 154.934,0 144.989,0 144.989,47.502 255.854,47.502 255.854,75.921 144.989,75.921 144.989,125.653 
		110.874,125.653 110.874,75.921 0.01,75.921 0.01,47.502 110.874,47.502 110.874,0 100.922,0 100.922,36.727 30.611,0 4.51,0 
		84.656,39.659 61.51,38.989 0.003,7.385 0.003,38.484 0.27,12.214 0.271,12.214 53.87,39.447 0.003,38.772 0.003,84.206 
		51.173,84.491 0.003,111.443 0.003,125.763 0.109,125.763 	"/>
	<polygon fill="#CC0000" points="84.656,39.659 4.51,0 0.001,0 0,0.391 0,7.383 0.003,7.385 61.51,38.989 	"/>
	<polygon fill="#000066" points="100.922,0 30.611,0 100.922,36.727 	"/>
	<polygon fill="#CC0000" points="0.01,47.502 0.01,75.921 110.874,75.921 110.874,125.653 144.989,125.653 144.989,75.921 
		255.854,75.921 255.854,47.502 144.989,47.502 144.989,0 110.874,0 110.874,47.502 	"/>
	<polygon fill="#000066" points="223.998,0 154.934,0 154.934,34.478 	"/>
	<polygon fill="#CC0000" points="157.243,38.479 177.761,38.313 253.619,0 233.162,0 157.243,38.479 	"/>
	<polygon fill="#000066" points="0.003,84.206 0.003,84.209 0.003,111.443 51.173,84.491 	"/>
	<polygon fill="#CC0000" points="75.577,86.424 0.109,125.763 20.205,125.763 95.38,86.293 	"/>
	<polygon fill="#CC0000" points="255.592,116.043 197.044,85.334 197.043,85.334 175.712,85.168 255.983,125.134 255.983,122.815 	
		"/>
	<rect x="511.969" fill="#000066" width="0.002" height="248.665"/>
	<polygon fill="#000066" points="204.95,84.434 255.648,111.903 255.983,118.193 255.983,84.434 	"/>
	<polygon fill="#000066" points="155.201,89.17 155.201,125.763 246.861,125.763 229.313,125.554 	"/>
	<polygon fill="#000066" points="196.039,39.213 255.983,39.438 255.983,9.487 	"/>
	<polygon fill="#000066" points="0.271,12.214 0.27,12.214 0.003,38.484 0,38.772 0.003,38.772 53.87,39.447 	"/>
	<polygon fill="#000066" points="31.698,125.763 101.19,125.763 101.19,89.17 	"/>
	<path fill="#009FCA" d="M255.983,39.438v44.996v33.76v4.622v2.319v0.629h14.155V245.81v2.855h241.831V0H255.983v9.487V39.438z
		 M459.656,213.714l7.028-20.416l7.028,20.416l22.805-0.015l-18.461,12.599l7.063,20.407l-18.438-12.629l-18.438,12.626
		l7.066-20.404l-18.457-12.605L459.656,213.714z"/>
	<polygon fill="#009FCA" points="270.138,245.81 270.138,125.763 255.983,125.763 246.861,125.763 155.201,125.763 101.19,125.763 
		31.698,125.763 20.205,125.763 0.109,125.763 0.003,125.763 0,125.763 0,245.81 	"/>
	<polygon fill="#009FCA" points="270.138,432.824 270.138,450.256 275.019,446.925 	"/>
	<polygon fill="#009FCA" points="270.138,367.724 270.138,385.155 275.019,381.824 	"/>
	<path fill="#009FCA" d="M270.138,248.665v5.091v109.157l16.256,11.134l18.438-12.626l-7.067,20.403l18.458,12.605l-22.804-0.021
		l-7.028,20.417l-7.029-20.417l-9.224,0.006v33.6l16.256,11.134l18.438-12.626l-7.067,20.403l18.458,12.605l-22.804-0.021
		l-7.028,20.416l-7.029-20.416l-9.224,0.007V512h241.837V248.665h-0.004h-0.002H270.138z M391.724,249.094l18.438,12.629
		l18.438-12.626l-7.067,20.404l18.458,12.604l-22.805-0.021l-7.028,20.417l-7.028-20.417l-22.804,0.016l18.461-12.599
		L391.724,249.094z M335.203,268.416l18.438,12.629l18.438-12.627l-7.066,20.404l18.458,12.605l-22.805-0.021l-7.028,20.416
		l-7.028-20.416l-22.805,0.016l18.461-12.6L335.203,268.416z M360.667,443.052l-7.028,20.416l-7.028-20.416l-22.805,0.015
		l18.461-12.599l-7.063-20.407l18.438,12.63l18.438-12.627l-7.066,20.404l18.458,12.605L360.667,443.052z M427.883,409.461
		l-18.438-12.629l-18.438,12.626l7.067-20.403l-18.458-12.605l22.805,0.021l7.028-20.416l7.028,20.416l22.804-0.016l-18.461,12.6
		L427.883,409.461z M485.119,372.618l-18.438-12.629l-18.438,12.626l7.066-20.404l-18.457-12.604l22.804,0.021l7.028-20.416
		l7.028,20.416l22.805-0.015l-18.461,12.599L485.119,372.618z"/>
	<path fill="#009FCA" d="M256.558,459.524l13.58-9.269v-17.432l-2.183-6.306l2.183,1.495v-33.6l-13.58,0.01l13.58-9.269v-17.432
		l-2.183-6.306l2.183,1.495V253.756v-5.091v-2.855H0V512h270.138v-52.484L256.558,459.524z M239.015,490.661l-18.438-12.63
		l-18.438,12.627l7.066-20.404l-18.458-12.605l22.805,0.021l7.028-20.416l7.028,20.416l22.805-0.015l-18.462,12.599L239.015,490.661
		z"/>
	<polygon fill="#FFF40D" points="448.242,246.702 466.681,234.076 485.119,246.705 478.056,226.298 496.517,213.699 
		473.712,213.714 466.684,193.298 459.656,213.714 436.852,213.693 455.309,226.298 	"/>
	<polygon fill="#FFF40D" points="416.477,376.471 409.448,356.055 402.42,376.471 379.615,376.449 398.073,389.055 391.006,409.458 
		409.445,396.832 427.883,409.461 420.82,389.055 439.281,376.455 	"/>
	<polygon fill="#FFF40D" points="473.712,339.627 466.684,319.211 459.656,339.627 436.852,339.606 455.309,352.211 
		448.242,372.615 466.681,359.989 485.119,372.618 478.056,352.211 496.517,339.612 	"/>
	<polygon fill="#FFF40D" points="227.608,457.67 220.579,437.254 213.551,457.67 190.746,457.648 209.204,470.254 202.138,490.658 
		220.576,478.031 239.015,490.661 231.95,470.254 250.412,457.655 	"/>
	<polygon fill="#FFF40D" points="270.138,367.724 275.019,381.824 270.138,385.155 256.558,394.424 270.138,394.414 
		279.362,394.408 286.391,414.825 293.419,394.408 316.223,394.43 297.765,381.824 304.832,361.421 286.394,374.047 
		270.138,362.913 267.955,361.418 	"/>
	<polygon fill="#FFF40D" points="346.611,301.406 353.639,321.822 360.667,301.406 383.472,301.428 365.014,288.822 372.08,268.418 
		353.642,281.045 335.203,268.416 342.267,288.822 323.806,301.422 	"/>
	<polygon fill="#FFF40D" points="380.326,282.1 403.13,282.084 410.158,302.501 417.187,282.084 439.991,282.105 421.533,269.501 
		428.601,249.097 410.162,261.723 391.724,249.094 398.787,269.501 	"/>
	<polygon fill="#FFF40D" points="372.08,410.063 353.642,422.69 335.203,410.061 342.267,430.468 323.806,443.066 346.611,443.052 
		353.639,463.468 360.667,443.052 383.472,443.073 365.014,430.468 	"/>
	<polygon fill="#FFF40D" points="270.138,432.824 275.019,446.925 270.138,450.256 256.558,459.524 270.138,459.516 
		279.362,459.509 286.391,479.925 293.419,459.509 316.223,459.53 297.765,446.925 304.832,426.521 286.394,439.147 
		270.138,428.014 267.955,426.519 	"/>
</g>
</svg>
