<?xml version="1.0" encoding="utf-8"?>
<!-- Generator: Adobe Illustrator 16.0.0, SVG Export Plug-In . SVG Version: 6.00 Build 0)  -->
<svg version="1.2" baseProfile="tiny"
	 id="svg977" xmlns:cc="http://creativecommons.org/ns#" xmlns:dc="http://purl.org/dc/elements/1.1/" xmlns:rdf="http://www.w3.org/1999/02/22-rdf-syntax-ns#"
	 xmlns="http://www.w3.org/2000/svg" xmlns:xlink="http://www.w3.org/1999/xlink" x="0px" y="0px" width="512px" height="512px"
	 viewBox="0 0 512 512" xml:space="preserve">
<g>
	<polygon fill="#DE2110" points="385.685,0 385.685,255.992 0,255.992 0,511.983 511.984,511.983 511.984,0 	"/>
	<path fill="#08399C" d="M385.685,0H0v255.992h385.685V0z M255.724,145.879l-1.262,2.016l27.636,30.66l-40.94-8.418l-2.696,4.783
		l-2.15,1.142l8.539,40.02l-30.99-27.52l-4.903,2.896l-2.632-0.091l-12.514,38.596l-12.948-38.957l-5.743,0.067l-2.538-1.58
		l-29.902,26.97l8.198-39.871l-4.877-2.735l-1.609-3.017l-39.239,8.364l26.92-30.306l-2.655-4.466l0.131-3.845l-38.277-12.41
		l38.584-12.827l-0.052-4.674l2.167-3.462l-27.201-30.17l40.225,8.269l2.07-3.672l3.542-1.881l-8.578-40.248l31.095,27.625
		l3.446-2.036l3.651,0.125l12.835-39.591l13.263,39.899l4.096-0.046l2.688,1.673l31.082-28.028l-8.514,41.408l3.851,2.161
		l1.287,2.411l40.904-8.725l-28.064,31.602l2.458,4.134l-0.084,2.47l39.572,12.82l-39.932,13.274L255.724,145.879z"/>
	<polygon fill="#FFFFFF" points="129.858,115.351 91.274,128.178 129.551,140.588 129.993,127.56 	"/>
	<polygon fill="#FFFFFF" points="173.126,67.138 142.031,39.512 150.61,79.76 162.003,73.708 	"/>
	<polygon fill="#FFFFFF" points="256.026,114.594 255.535,128.997 255.666,140.688 295.598,127.414 	"/>
	<polygon fill="#FFFFFF" points="206.322,65.535 193.059,25.636 180.223,65.227 193.49,65.681 	"/>
	<polygon fill="#FFFFFF" points="144.997,85.313 104.773,77.044 131.973,107.215 138.771,96.358 	"/>
	<polygon fill="#FFFFFF" points="132.075,148.899 105.155,179.205 144.394,170.841 138.051,158.953 	"/>
	<polygon fill="#FFFFFF" points="150.88,176.593 142.682,216.464 172.584,189.494 160.761,182.133 	"/>
	<polygon fill="#FFFFFF" points="213.86,188.562 244.85,216.082 236.311,176.062 223.527,182.851 	"/>
	<polygon fill="#FFFFFF" points="235.675,80.542 244.189,39.134 213.107,67.162 224.779,74.428 	"/>
	<polygon fill="#FFFFFF" points="253.652,107.99 281.716,76.388 240.812,85.113 247.479,97.604 	"/>
	<polygon fill="#FFFFFF" points="241.157,170.137 282.098,178.555 254.462,147.895 246.758,160.202 	"/>
	<polygon fill="#FFFFFF" points="180.864,191.007 193.812,229.964 206.325,191.368 192.039,190.876 	"/>
	<path fill="#005387" d="M256.026,114.594l0.084-2.47l-2.458-4.134l-6.173-10.386l-6.667-12.49l-1.287-2.411l-3.851-2.161
		l-10.896-6.114l-11.672-7.266l-2.688-1.673l-4.096,0.046l-12.832,0.146l-13.267-0.455l-3.651-0.125l-3.446,2.036l-11.123,6.571
		L150.61,79.76l-3.542,1.881l-2.07,3.672l-6.227,11.044l-6.797,10.857l-2.167,3.462l0.052,4.674l0.136,12.209l-0.442,13.028
		l-0.131,3.845l2.655,4.466l5.976,10.054l6.343,11.889l1.609,3.017l4.877,2.735l9.881,5.54l11.823,7.361l2.538,1.58l5.743-0.067
		l11.175-0.13l14.286,0.492l2.632,0.091l4.903-2.896l9.667-5.711l12.784-6.789l2.15-1.142l2.696-4.783l5.601-9.935l7.704-12.307
		l1.262-2.016l-0.058-5.191l-0.13-11.692L256.026,114.594z M192.771,180.147c-28.646,0-51.866-23.221-51.866-51.866
		s23.221-51.866,51.866-51.866c28.645,0,51.866,23.221,51.866,51.866S221.415,180.147,192.771,180.147z"/>
	<circle fill="#FFFFFF" cx="192.771" cy="128.281" r="51.866"/>
</g>
</svg>
