<?xml version="1.0" encoding="utf-8"?>
<!-- Generator: Adobe Illustrator 16.0.0, SVG Export Plug-In . SVG Version: 6.00 Build 0)  -->
<svg version="1.2" baseProfile="tiny"
	 id="svg548" xmlns:cc="http://creativecommons.org/ns#" xmlns:dc="http://purl.org/dc/elements/1.1/" xmlns:rdf="http://www.w3.org/1999/02/22-rdf-syntax-ns#"
	 xmlns="http://www.w3.org/2000/svg" xmlns:xlink="http://www.w3.org/1999/xlink" x="0px" y="0px" width="512px" height="512px"
	 viewBox="0 0 512 512" xml:space="preserve">
<g>
	<rect x="0.001" y="341.346" fill="#FFE700" width="511.983" height="85.319"/>
	<path d="M336.198,255.997c-0.003,44.225-35.983,80.204-80.209,80.204s-80.205-35.979-80.208-80.204H0.001v85.314h511.983v-85.314
		H336.198z"/>
	<path fill="#DE3908" d="M175.781,255.992c0-44.227,35.981-80.208,80.208-80.208c44.228,0,80.209,35.981,80.209,80.208
		c0,0.001,0,0.003,0,0.005h175.787v-85.318H0.001v85.318h175.779C175.781,255.995,175.781,255.993,175.781,255.992z"/>
	<rect x="0.001" y="85.355" fill="#FFE700" width="511.983" height="85.318"/>
	<rect x="0.001" width="511.983" height="85.318"/>
	<path fill="#FFFDFF" d="M255.989,176.783c-43.675,0-79.208,35.533-79.208,79.208c0,43.675,35.533,79.208,79.208,79.208
		c43.676,0,79.209-35.533,79.209-79.208C335.198,212.316,299.664,176.783,255.989,176.783z M307.586,278.676
		c-1.041,13.439-12.262,25.283-19.072,25.948c-0.036,0.007-0.072,0.01-0.109,0.01h-0.001c-0.166,0-0.325-0.065-0.442-0.183
		s-0.184-0.278-0.184-0.444c0-0.132,0.041-0.254,0.11-0.355c0.535-1.034,1.307-2.215,2.27-3.488c-0.707,0.355-1.306,0.531-1.8,0.531
		c-0.745,0-1.15-0.403-1.271-0.748c-0.032-0.092-0.043-0.191-0.029-0.288c0.011-0.088,0.091-0.555,0.538-1.274
		c-2.374,1.054-3.916,1.57-4.682,1.57c-0.528,0-0.771-0.236-0.883-0.435c-0.169-0.302-0.097-0.628,0.028-0.831
		c0.025-0.043,0.057-0.082,0.091-0.117l1.306-1.305c-0.4-0.161-0.86-0.431-1.363-0.866c-0.156-0.136-0.235-0.34-0.212-0.545
		c0.024-0.205,0.147-0.385,0.331-0.481c6.945-3.645,8.383-9.371,8.302-13.706c-0.592,2.098-1.877,4.336-4.49,6.066
		c-0.243,0.159-0.565,0.133-0.776-0.07c-0.211-0.201-0.255-0.522-0.104-0.772c0.67-1.116,1.131-2.454,1.158-4.022
		c-0.072,0.032-0.155,0.033-0.254,0.033h-0.25l-0.217-0.312c-0.021-0.049-0.699-1.64-2.13-3.909c-0.089,0.045-0.187,0.076-0.3,0.074
		c-0.053-0.004-0.098-0.004-0.147-0.015c-0.064-0.015-6.479-1.44-10.429-1.44c-1.764,0-2.324,0.289-2.484,0.414
		c-0.128,0.101-0.209,0.285-0.24,0.55c-0.291,2.449,3.466,8.715,5.066,10.736c0.938,1.185,1.027,2.865,0.239,4.494
		c-0.517,1.068-1.476,2.146-2.455,2.146c-0.121-0.01-4.583-0.552-8.073-0.552c-2.361,0-3.236,0.251-3.548,0.4
		c-1.065,0.942-0.368,12.012,0.912,21.943c0.101-0.002,0.213-0.003,0.336-0.003c2.721,0,9.277,0.43,11.829,4.373
		c0.116,0.114,0.188,0.272,0.188,0.447c0,0.348-0.289,0.614-0.634,0.625c-0.029,0-0.06-0.002-0.09-0.005
		c-1.78-0.227-3.558-0.342-5.281-0.342c-15.226,0-23.229,8.939-23.309,9.029c-0.119,0.137-0.292,0.214-0.471,0.214
		c-0.019,0-0.037-0.001-0.056-0.003c-0.199-0.018-0.377-0.129-0.48-0.301c-1.691-2.819,1.708-6.778,3.476-8.55
		c-1.109-0.159-3.014-0.352-5.75-0.352c-1.285,0-2.648,0.042-4.052,0.126c-0.203,0.019-0.391-0.071-0.518-0.225
		c-0.127-0.153-0.174-0.357-0.125-0.551c0.8-3.202,9.666-4.694,15.406-4.694c1.509,0,2.862,0.102,3.959,0.297
		c0.252-2.769-0.898-14.354-1.792-21.949c-0.364,0.009-0.892,0.019-1.562,0.019c-2.422,0-6.286-0.118-10.941-0.679
		c-4.637-0.556-6.116,3.86-7.068,6.731c-0.497,1.499-0.797,2.404-1.597,2.404c-0.174,0-0.349-0.055-0.504-0.158
		c-1.029-0.686-1.579-3.276-1.858-5.323c-0.601,1.573-1.247,4.013-1.083,6.971c0.02,0.061,0.03,0.126,0.03,0.193
		c0,0.348-0.304,0.612-0.635,0.625c-0.162-0.006-0.303-0.051-0.422-0.154c-1.289-1.128-1.807-3.245-2.009-4.984
		c-0.59,1.358-1.365,3.146-2.18,5.034c-0.111,0.256-0.382,0.397-0.653,0.372c-0.276-0.036-0.496-0.25-0.538-0.525
		c-2.084-13.592,5.362-14.954,8.542-15.536c0.433-0.079,0.807-0.147,1.06-0.226c0.953-0.362,3.679-0.553,8.067-0.553
		c4.835,0,11.501,0.274,13.709,0.618c0.556-1.873,0.264-7.408-0.292-12.206c-0.651-0.484-2.129-1.874-6.013-5.856
		c-6.277-1.712-12.132-7.961-13.94-10.035c-0.23,0.311-0.357,0.374-0.432,0.411c-0.243,0.122-0.537,0.072-0.727-0.123
		c-5.288-5.433-7.866-11.591-7.661-18.304c0.417-13.631,11.989-24.952,13.602-26.466l0.024-0.172
		c-1.297-0.574-2.052-1.424-2.23-2.537c-0.303-1.896,1.146-3.955,2.266-5.225c-2.252,0.348-6,0.862-8.549,0.862
		c-1.11,0-1.867-0.096-2.371-0.303c-0.038,0.009-0.076,0.018-0.113,0.027c-0.049,0.012-0.099,0.018-0.147,0.018
		c-0.282,0-0.538-0.192-0.607-0.479c-0.042-0.173-0.005-0.345,0.084-0.484c-0.013-0.113-0.024-0.228,0.002-0.345
		c0.453-1.993,7.733-4.27,11.581-5.341c-0.666-1.483-1.572-4.976,1.794-9.136l-5.125-9.44l0.264-0.264
		c2.412-2.412,6.239-3.687,11.066-3.687h0.284c0.121-0.004,0.318-0.01,0.598-0.01c2.524,0,11.152,0.473,16.204,6.55l0.056,0.083
		c0.031,0.059,0.055,0.108,0.028,0.211c3.342,3.599,4.721,6.217,5.271,10.047l0.118,0.118l-0.127,0.311
		c-0.193,0.467-5.907,1.713-8.021,2.15c0.306,1.507,0.122,7.943-7.111,13.929c-5.789,6.604-3.448,20.204-3.097,22.049
		c0.237-0.056,0.492-0.094,0.783-0.094c0.938,0,2.079,0.323,3.487,0.988c1.109,0.523,3.137,1.518,5.642,2.746
		c8.226,4.034,21.993,10.786,24.368,11.193c0.397,0.068,0.796,0.341,1.13,1.217C297.254,256.596,308.715,264.12,307.586,278.676z"/>
	<path d="M255.989,175.783c-44.227,0-80.208,35.981-80.208,80.208c0,0.001,0,0.003,0,0.005
		c0.003,44.225,35.982,80.204,80.208,80.204s80.206-35.979,80.209-80.204c0-0.001,0-0.003,0-0.005
		C336.198,211.765,300.216,175.783,255.989,175.783z M255.989,335.2c-43.675,0-79.208-35.533-79.208-79.208
		c0-43.676,35.533-79.208,79.208-79.208c43.676,0,79.209,35.533,79.209,79.208C335.198,299.667,299.664,335.2,255.989,335.2z"/>
	<path fill="#DE3108" d="M237.372,185.452l4.653,8.571c1.359-1.085,2.845-1.855,4.42-2.292c0.183-3.378,0.423-7.9,0.496-9.412
		C242.809,182.403,239.518,183.48,237.372,185.452z"/>
	<path d="M242.025,194.023l-4.653-8.571c2.146-1.972,5.437-3.049,9.57-3.132c-0.073,1.512-0.313,6.033-0.496,9.412
		c0.004-0.001,0.008-0.001,0.013-0.003l0.716-10.382l0.439-0.026c0,0,0.053-0.003,0.134-0.006h-0.284
		c-4.828,0-8.654,1.275-11.066,3.687l-0.264,0.264l5.125,9.44c0.034-0.042,0.062-0.083,0.097-0.126
		C241.573,194.382,241.799,194.203,242.025,194.023z"/>
	<path fill="#FFE700" d="M263.353,188c-4.945-5.455-13.245-5.715-15.242-5.694l-0.634,9.187c0.713-0.13,1.44-0.198,2.181-0.198
		c3.492,0,6.813,1.465,9.113,3.717c0.249-0.354,0.504-0.717,0.763-1.084L263.353,188z"/>
	<path d="M247.174,181.347l-0.716,10.382c0.336-0.093,0.675-0.173,1.019-0.236l0.634-9.187c1.998-0.021,10.297,0.239,15.242,5.694
		l0.466-0.723l0.438,0.46c0.135,0.142,0.246,0.272,0.376,0.412c0.026-0.104,0.003-0.153-0.028-0.211l-0.056-0.083
		c-5.052-6.077-13.68-6.55-16.204-6.55c-0.28,0-0.477,0.006-0.598,0.01c-0.081,0.003-0.134,0.006-0.134,0.006L247.174,181.347z"/>
	<path d="M258.771,195.011c0.013,0.013,0.026,0.025,0.039,0.038l0.724-1.122C259.275,194.294,259.02,194.658,258.771,195.011z"/>
	<path fill="#DE3108" d="M263.968,188.891l-4.456,6.915c1.013,1.193,1.748,2.559,2.111,4.021c1.601-0.337,5.969-1.381,7.254-1.736
		C268.338,194.642,267.044,192.213,263.968,188.891z"/>
	<path d="M263.819,187.277L263.353,188l-3.819,5.927l-0.724,1.122c0.246,0.244,0.48,0.496,0.702,0.757l4.456-6.915
		c3.076,3.322,4.37,5.75,4.909,9.2c-1.285,0.355-5.653,1.399-7.254,1.736c0.051,0.207,0.105,0.412,0.142,0.622
		c0.022,0.038,0.041,0.076,0.055,0.114c0.019,0.052,0.036,0.129,0.054,0.213c2.114-0.438,7.828-1.684,8.021-2.15l0.127-0.311
		l-0.118-0.118c-0.55-3.83-1.929-6.448-5.271-10.047c-0.13-0.139-0.241-0.27-0.376-0.412L263.819,187.277z"/>
	<path d="M253.894,213.811c6.842-5.671,6.994-11.732,6.77-12.75c-0.057-0.079-0.094-0.171-0.109-0.27
		c-0.69-4.547-5.579-8.246-10.896-8.246c-2.74,0-5.299,1.002-7.403,2.898c-3.939,4.77-1.392,8.391-1.366,8.427
		c0.121,0.167,0.152,0.382,0.084,0.576s-0.228,0.342-0.426,0.396c-5.011,1.352-9.501,3.058-10.956,4.099
		c3.324-0.781,9.638-2.182,10.785-1.854c0.332,0.095,0.524,0.441,0.429,0.773c-0.095,0.332-0.44,0.524-0.773,0.429
		c-0.535-0.126-3.402,0.383-6.783,1.111c3.279-0.253,7.199-0.914,7.905-1.035l0.015-0.012l0.007,0.008
		c0.058-0.01,0.094-0.016,0.098-0.017c0.194-0.038,0.398,0.026,0.542,0.165s0.213,0.338,0.186,0.536l-0.019,0.137
		c0.32,0.272,0.667,0.535,1.045,0.798c1.218,0.846,2.598,1.806,2.575,3.705l-0.002,0.203l-0.144,0.144
		c-0.255,0.255-0.348,0.491-0.466,0.788c-0.404,1.021-0.957,1.833-4.175,2.784l-0.085,0.611c-0.02,0.145-0.09,0.278-0.199,0.376
		c-0.129,0.118-12.943,11.933-13.361,25.74c-0.187,6.144,2.102,11.813,6.804,16.861c0.049-0.081,0.099-0.166,0.144-0.248
		c0.101-0.182,0.285-0.301,0.492-0.319c0.205-0.013,0.409,0.067,0.54,0.229c0.069,0.085,6.95,8.488,14.014,10.319
		c0.111,0.029,0.211,0.088,0.291,0.169c4.296,4.409,5.568,5.544,5.94,5.834c0.17,0.024,0.324,0.118,0.417,0.278
		c0.058,0.1,0.093,0.232,0.095,0.36c0.24,2.033,1.266,11.437-0.004,13.614c-0.147,0.253-0.448,0.37-0.728,0.281
		c-0.937-0.296-7.845-0.678-13.898-0.678c-5.761,0-7.277,0.339-7.662,0.484c-0.361,0.112-0.769,0.188-1.24,0.273
		c-3.082,0.563-8.645,1.582-7.804,11.837c1.318-3.045,2.349-5.41,2.349-5.41c0.12-0.276,0.426-0.424,0.715-0.358
		c0.294,0.069,0.497,0.338,0.481,0.64c-0.05,1.006,0.021,3.315,0.649,5.061c0.253-4.531,2.105-7.468,2.196-7.608
		c0.146-0.227,0.422-0.337,0.68-0.268c0.261,0.066,0.45,0.292,0.47,0.56c0.182,2.48,0.704,5.352,1.291,6.319
		c0.145-0.336,0.319-0.862,0.468-1.312c0.939-2.833,2.735-8.276,8.404-7.578c4.594,0.553,8.404,0.669,10.792,0.669
		c1.324,0,2.075-0.037,2.083-0.037c0.326-0.039,0.613,0.224,0.652,0.55c0.428,3.589,2.518,21.597,1.682,23.641
		c-0.116,0.284-0.423,0.445-0.72,0.372c-1.099-0.256-2.587-0.392-4.304-0.392c-5.689,0-11.625,1.342-13.564,2.907
		c0.981-0.042,1.937-0.063,2.854-0.063c4.834,0,7.136,0.575,7.231,0.6c0.225,0.058,0.398,0.234,0.453,0.459
		c0.054,0.226-0.021,0.462-0.194,0.615c-1.421,1.255-4.616,4.664-4.413,6.984c2.344-2.261,10.187-8.696,23.512-8.696
		c1.279,0,2.587,0.062,3.903,0.183c-2.76-2.561-8.162-2.781-9.915-2.781c-0.523,0-0.837,0.018-0.847,0.019
		c-0.326,0.02-0.612-0.218-0.656-0.542c-0.891-6.768-2.703-22.633-0.286-23.794c0.733-0.353,2.071-0.523,4.089-0.523
		c3.568,0,8.104,0.551,8.149,0.557c0.151-0.005,0.79-0.486,1.254-1.444c0.215-0.445,0.845-1.989-0.095-3.175
		c-1.188-1.501-5.704-8.492-5.327-11.659c0.072-0.607,0.312-1.073,0.711-1.387c0.594-0.464,1.628-0.68,3.255-0.68
		c2.853,0,6.805,0.687,9.024,1.122l-5.628-7.206c-3.405-2.92-7.79-5.558-13.284-6.871c-9.486-2.269-12.816-8.739-13.94-13.768
		c-0.991-4.433-0.406-8.881,0.475-9.882l0.133-0.294c0.263-0.595,0.592-1.307,1.179-1.819c-0.015-0.036-0.041-0.066-0.048-0.104
		C250.348,236.586,247.228,221.403,253.894,213.811z M267.009,290.253c-0.086,1.118-0.651,1.5-0.98,1.628
		c-0.555,0.216-1.326,0.325-2.294,0.325c-1.57,0-3.15-0.28-3.217-0.292c-0.292-0.053-0.507-0.303-0.515-0.599l-0.272-10.168
		c-0.006-0.226,0.11-0.438,0.305-0.554c0.195-0.114,0.438-0.118,0.633-0.004C265.091,283.139,267.193,287.84,267.009,290.253z
		 M251.935,260.385c0.055-0.237,0.242-0.421,0.48-0.471c0.242-0.053,0.484,0.043,0.629,0.238c3.159,4.24,4.585,5.474,8.242,8.418
		c0.26,0.209,0.31,0.584,0.115,0.854c-0.196,0.271-0.57,0.339-0.847,0.158c-0.581-0.376-1.418-0.809-2.741-0.809
		c-1.301,0-2.887,0.4-4.847,1.224c-0.079,0.033-0.161,0.049-0.242,0.049c-0.233,0-0.455-0.13-0.562-0.352
		c-1.641-3.373-0.653-7.526-0.281-9.09L251.935,260.385z M244.107,203.059c0-0.853,0.691-1.543,1.543-1.543
		c0.853,0,1.544,0.691,1.544,1.543c0,0.852-0.691,1.543-1.544,1.543C244.798,204.602,244.107,203.911,244.107,203.059z
		 M248.218,214.915c-0.502,1.765-1.122,3.523-1.721,5.225c-2.367,6.723-4.604,13.073-0.465,20.5
		c0.112,0.202,0.104,0.449-0.021,0.643c-0.125,0.193-0.352,0.301-0.577,0.284c-0.694-0.058-1.669-0.135-2.312-0.178
		c0.143,0.585,0.457,1.551,0.769,2.396c0.069,0.101,0.11,0.223,0.11,0.354c0,0.345-0.28,0.625-0.625,0.625
		c-0.008-0.001-0.014,0-0.02,0c-0.024,0-0.049-0.001-0.073-0.004l-2.428-0.286l0.856,1.59c0.1,0.111,0.16,0.257,0.16,0.418
		c0,0.348-0.256,0.645-0.634,0.625c-0.052,0-0.108-0.005-0.162-0.019l-1.45-0.363c0.256,0.836,0.544,1.958,0.523,2.711
		c0.012,0.143-0.016,0.291-0.086,0.403c-0.114,0.184-0.334,0.304-0.551,0.304c-0.335,0-1.095-0.53-1.709-1.006
		c-0.042,0.614-0.115,1.464-0.313,2.482c-0.051,0.262-0.262,0.462-0.526,0.499c-0.029,0.004-0.059,0.006-0.087,0.006
		c-0.232,0-0.449-0.129-0.557-0.34c-3.428-6.702-2.627-15.321,2.315-24.924c3.699-7.188,8.472-12.484,8.52-12.537
		c0.195-0.215,0.512-0.267,0.767-0.126C248.174,214.339,248.297,214.636,248.218,214.915z M248.064,208.977
		c-0.378-1.512,1.336-2.4,2.361-2.931c0.234-0.121,0.436-0.222,0.559-0.311c3.604-1.932,2.71-8.715,2.701-8.784l-0.145-1.043
		l0.899,0.547c2.593,1.579,3.707,4.123,3.137,7.166c-0.628,3.346-3.307,6.556-5.851,7.008l-0.186,0.045
		c-0.534,0.127-1.038,0.248-1.497,0.248C248.666,210.921,248.254,209.812,248.064,208.977z"/>
	<path d="M240.791,208.66l0.362-0.296c-0.706,0.122-4.626,0.782-7.905,1.035c-1.481,0.319-3.06,0.68-4.586,1.047
		c0.504,0.208,1.261,0.303,2.371,0.303c2.548,0,6.297-0.514,8.549-0.862C240.235,209.146,240.777,208.672,240.791,208.66z"/>
	<path d="M228.256,209.257c0.344-0.083,0.805-0.193,1.334-0.317c1.455-1.042,5.945-2.747,10.956-4.099
		c0.198-0.054,0.358-0.202,0.426-0.396s0.037-0.409-0.084-0.576c-0.026-0.036-2.573-3.658,1.366-8.427
		c2.104-1.896,4.663-2.898,7.403-2.898c5.317,0,10.206,3.699,10.896,8.246c0.016,0.099,0.053,0.19,0.109,0.27
		c0.225,1.019,0.072,7.08-6.77,12.75c-6.666,7.592-3.545,22.776-3.409,23.418c0.008,0.038,0.034,0.068,0.048,0.104
		c0.299-0.261,0.666-0.469,1.132-0.579c-0.352-1.846-2.692-15.446,3.097-22.049c7.233-5.986,7.417-12.422,7.111-13.929
		c-0.018-0.083-0.035-0.161-0.054-0.213c-0.014-0.038-0.032-0.076-0.055-0.114c-0.036-0.21-0.091-0.415-0.142-0.622
		c-0.363-1.463-1.099-2.828-2.111-4.021c-0.222-0.261-0.456-0.513-0.702-0.757c-0.013-0.013-0.026-0.025-0.039-0.038
		c-2.3-2.252-5.621-3.717-9.113-3.717c-0.74,0-1.468,0.068-2.181,0.198c-0.344,0.063-0.683,0.143-1.019,0.236
		c-0.004,0.001-0.008,0.002-0.013,0.003c-1.576,0.437-3.061,1.207-4.42,2.292c-0.226,0.18-0.452,0.359-0.67,0.557
		c-0.035,0.042-0.063,0.083-0.097,0.126c-3.367,4.16-2.46,7.653-1.794,9.136c-3.848,1.071-11.128,3.348-11.581,5.341
		c-0.027,0.118-0.015,0.232-0.002,0.345C227.964,209.397,228.094,209.296,228.256,209.257z"/>
	<path d="M275.971,269.967l5.628,7.206c-2.22-0.436-6.172-1.122-9.024-1.122c-1.627,0-2.661,0.216-3.255,0.68
		c-0.399,0.313-0.639,0.779-0.711,1.387c-0.377,3.167,4.14,10.158,5.327,11.659c0.939,1.186,0.31,2.729,0.095,3.175
		c-0.464,0.958-1.103,1.439-1.254,1.444c-0.046-0.006-4.581-0.557-8.149-0.557c-2.018,0-3.355,0.171-4.089,0.523
		c-2.417,1.161-0.604,17.026,0.286,23.794c0.044,0.324,0.33,0.562,0.656,0.542c0.01-0.001,0.323-0.019,0.847-0.019
		c1.753,0,7.155,0.221,9.915,2.781c-1.316-0.121-2.624-0.183-3.903-0.183c-13.325,0-21.168,6.436-23.512,8.696
		c-0.203-2.32,2.992-5.729,4.413-6.984c0.173-0.153,0.248-0.39,0.194-0.615c-0.054-0.225-0.228-0.401-0.453-0.459
		c-0.095-0.024-2.397-0.6-7.231-0.6c-0.917,0-1.873,0.021-2.854,0.063c1.939-1.565,7.875-2.907,13.564-2.907
		c1.717,0,3.205,0.136,4.304,0.392c0.297,0.073,0.604-0.088,0.72-0.372c0.836-2.044-1.254-20.052-1.682-23.641
		c-0.039-0.326-0.326-0.589-0.652-0.55c-0.009,0-0.76,0.037-2.083,0.037c-2.388,0-6.198-0.116-10.792-0.669
		c-5.668-0.698-7.465,4.745-8.404,7.578c-0.149,0.45-0.324,0.977-0.468,1.312c-0.587-0.968-1.109-3.839-1.291-6.319
		c-0.02-0.268-0.209-0.493-0.47-0.56c-0.257-0.069-0.534,0.041-0.68,0.268c-0.09,0.141-1.943,3.077-2.196,7.608
		c-0.628-1.745-0.7-4.055-0.649-5.061c0.015-0.302-0.188-0.57-0.481-0.64c-0.29-0.065-0.595,0.082-0.715,0.358
		c0,0-1.031,2.365-2.349,5.41c-0.841-10.255,4.722-11.273,7.804-11.837c0.472-0.086,0.879-0.161,1.24-0.273
		c0.384-0.146,1.9-0.484,7.662-0.484c6.053,0,12.961,0.382,13.898,0.678c0.28,0.089,0.581-0.028,0.728-0.281
		c1.27-2.178,0.244-11.581,0.004-13.614c-0.002-0.128-0.037-0.261-0.095-0.36c-0.093-0.16-0.247-0.254-0.417-0.278
		c-0.372-0.29-1.644-1.425-5.94-5.834c-0.08-0.081-0.18-0.14-0.291-0.169c-7.064-1.831-13.945-10.234-14.014-10.319
		c-0.13-0.162-0.334-0.242-0.54-0.229c-0.207,0.019-0.391,0.138-0.492,0.319c-0.045,0.082-0.095,0.167-0.144,0.248
		c-4.702-5.048-6.991-10.717-6.804-16.861c0.418-13.807,13.232-25.623,13.361-25.74c0.108-0.099,0.179-0.232,0.199-0.376
		l0.085-0.611c-0.211,0.062-0.432,0.125-0.666,0.188l-0.158,0.043l-0.153-0.059c-0.103-0.04-0.195-0.084-0.292-0.127l-0.024,0.172
		c-1.613,1.514-13.185,12.835-13.602,26.466c-0.205,6.713,2.373,12.872,7.661,18.304c0.19,0.195,0.484,0.245,0.727,0.123
		c0.075-0.037,0.202-0.101,0.432-0.411c1.808,2.074,7.663,8.323,13.94,10.035c3.883,3.982,5.361,5.372,6.013,5.856
		c0.556,4.798,0.848,10.333,0.292,12.206c-2.208-0.344-8.874-0.618-13.709-0.618c-4.388,0-7.114,0.19-8.067,0.553
		c-0.253,0.078-0.627,0.146-1.06,0.226c-3.18,0.582-10.626,1.944-8.542,15.536c0.042,0.275,0.262,0.489,0.538,0.525
		c0.271,0.025,0.542-0.116,0.653-0.372c0.815-1.889,1.59-3.676,2.18-5.034c0.202,1.739,0.72,3.856,2.009,4.984
		c0.119,0.104,0.26,0.148,0.422,0.154c0.331-0.013,0.635-0.277,0.635-0.625c0-0.067-0.011-0.133-0.03-0.193
		c-0.164-2.958,0.482-5.397,1.083-6.971c0.279,2.047,0.829,4.638,1.858,5.323c0.156,0.104,0.33,0.158,0.504,0.158
		c0.8,0,1.1-0.905,1.597-2.404c0.952-2.871,2.431-7.287,7.068-6.731c4.656,0.561,8.52,0.679,10.941,0.679
		c0.67,0,1.197-0.01,1.562-0.019c0.894,7.595,2.044,19.181,1.792,21.949c-1.098-0.195-2.451-0.297-3.959-0.297
		c-5.74,0-14.606,1.492-15.406,4.694c-0.048,0.193-0.001,0.397,0.125,0.551c0.127,0.153,0.315,0.243,0.518,0.225
		c1.404-0.084,2.768-0.126,4.052-0.126c2.736,0,4.64,0.192,5.75,0.352c-1.768,1.771-5.167,5.73-3.476,8.55
		c0.103,0.172,0.282,0.283,0.48,0.301c0.019,0.002,0.037,0.003,0.056,0.003c0.179,0,0.352-0.077,0.471-0.214
		c0.079-0.09,8.083-9.029,23.309-9.029c1.724,0,3.501,0.115,5.281,0.342c0.03,0.003,0.061,0.005,0.09,0.005
		c0.345-0.011,0.634-0.277,0.634-0.625c0-0.175-0.071-0.333-0.188-0.447c-2.552-3.943-9.108-4.373-11.829-4.373
		c-0.123,0-0.235,0.001-0.336,0.003c-1.28-9.932-1.978-21.001-0.912-21.943c0.312-0.149,1.187-0.4,3.548-0.4
		c3.49,0,7.952,0.542,8.073,0.552c0.979,0,1.938-1.077,2.455-2.146c0.788-1.629,0.699-3.31-0.239-4.494
		c-1.601-2.021-5.357-8.287-5.066-10.736c0.031-0.265,0.112-0.449,0.24-0.55c0.16-0.125,0.721-0.414,2.484-0.414
		c3.949,0,10.364,1.426,10.429,1.44c0.05,0.011,0.095,0.011,0.147,0.015c0.113,0.002,0.211-0.029,0.3-0.074
		C281.894,276.214,279.444,272.944,275.971,269.967z"/>
	<path d="M241.816,208.508c-0.144-0.139-0.348-0.203-0.542-0.165c-0.004,0.001-0.04,0.007-0.098,0.017l0.311,0.36
		c0.142,0.165,0.322,0.312,0.496,0.46l0.019-0.137C242.029,208.846,241.96,208.646,241.816,208.508z"/>
	<path fill="#9CA69C" d="M236.547,249.172c0.009-0.128,0.017-0.247,0.024-0.355c0.036-0.541,0.063-0.958,0.25-1.209
		c0.175-0.267,0.612-0.338,0.893-0.169c0.085,0.051,0.154,0.12,0.205,0.199c0.174,0.145,0.501,0.4,0.831,0.646
		c-0.189-0.842-0.507-1.795-0.665-2.223c-0.08-0.217-0.034-0.461,0.121-0.634s0.393-0.245,0.617-0.189l1.183,0.296l-0.82-1.523
		c-0.11-0.206-0.098-0.455,0.033-0.648c0.131-0.192,0.351-0.3,0.59-0.269l2.616,0.308c-0.856-2.465-0.638-2.78-0.489-2.996
		c0.117-0.168,0.364-0.299,0.569-0.299c0.255,0,1.147,0.065,1.903,0.124c-3.67-7.497-1.343-14.106,0.911-20.506
		c0.24-0.681,0.483-1.372,0.72-2.067C241.702,223.275,232.308,237.351,236.547,249.172z"/>
	<path fill="#9CA69C" d="M247.92,214.198c-0.254-0.14-0.572-0.088-0.767,0.126c-0.048,0.053-4.821,5.35-8.52,12.537
		c-4.942,9.604-5.743,18.222-2.315,24.924c0.108,0.211,0.324,0.34,0.557,0.34c0.029,0,0.058-0.002,0.087-0.006
		c0.264-0.037,0.475-0.237,0.526-0.499c0.199-1.018,0.271-1.868,0.313-2.482c0.614,0.476,1.374,1.006,1.709,1.006
		c0.216,0,0.437-0.12,0.551-0.304c0.07-0.113,0.098-0.261,0.086-0.403c0.021-0.753-0.268-1.875-0.523-2.711l1.45,0.363
		c0.054,0.013,0.11,0.019,0.162,0.019c0.378,0.02,0.635-0.277,0.634-0.625c0-0.161-0.061-0.307-0.16-0.418l-0.856-1.59l2.428,0.286
		c0.024,0.003,0.049,0.004,0.073,0.004c0.006,0,0.012-0.001,0.02,0c0.345,0,0.625-0.28,0.625-0.625c0-0.131-0.041-0.253-0.11-0.354
		c-0.312-0.845-0.625-1.811-0.769-2.396c0.642,0.043,1.617,0.12,2.312,0.178c0.225,0.017,0.452-0.091,0.577-0.284
		c0.125-0.194,0.133-0.441,0.021-0.643c-4.138-7.427-1.902-13.777,0.465-20.5c0.599-1.701,1.219-3.46,1.721-5.225
		C248.297,214.636,248.174,214.339,247.92,214.198z M245.318,219.724c-2.254,6.4-4.581,13.009-0.911,20.506
		c-0.755-0.059-1.648-0.124-1.903-0.124c-0.205,0-0.452,0.13-0.569,0.299c-0.149,0.216-0.367,0.53,0.489,2.996l-2.616-0.308
		c-0.24-0.031-0.459,0.077-0.59,0.269c-0.131,0.193-0.144,0.442-0.033,0.648l0.82,1.523l-1.183-0.296
		c-0.224-0.056-0.462,0.017-0.617,0.189s-0.201,0.417-0.121,0.634c0.158,0.428,0.476,1.38,0.665,2.223
		c-0.33-0.246-0.657-0.501-0.831-0.646c-0.05-0.079-0.12-0.148-0.205-0.199c-0.281-0.168-0.718-0.098-0.893,0.169
		c-0.186,0.252-0.213,0.669-0.25,1.209c-0.007,0.108-0.015,0.228-0.024,0.355c-4.239-11.821,5.155-25.897,9.492-31.515
		C245.801,218.353,245.558,219.043,245.318,219.724z"/>
	<path fill="#9CA69C" d="M249.037,208.745c0.268,1.176,0.694,1.176,1.006,1.176c0.341,0,0.77-0.102,1.265-0.22l0.216-0.051
		c2.164-0.386,4.521-3.286,5.069-6.213c0.253-1.348,0.303-3.729-1.82-5.517c0.117,2.178-0.027,6.933-3.263,8.663
		c-0.096,0.074-0.339,0.203-0.625,0.351C249.854,207.468,248.863,208.048,249.037,208.745z"/>
	<path fill="#9CA69C" d="M251.539,210.674l0.186-0.045c2.544-0.452,5.223-3.662,5.851-7.008c0.57-3.042-0.544-5.587-3.137-7.166
		l-0.899-0.547l0.145,1.043c0.009,0.068,0.903,6.852-2.701,8.784c-0.124,0.088-0.325,0.189-0.559,0.311
		c-1.024,0.531-2.739,1.419-2.361,2.931c0.19,0.834,0.602,1.944,1.979,1.944C250.502,210.921,251.006,210.801,251.539,210.674z
		 M250.885,206.934c0.286-0.148,0.529-0.277,0.625-0.351c3.235-1.73,3.379-6.485,3.263-8.663c2.123,1.788,2.073,4.169,1.82,5.517
		c-0.549,2.927-2.905,5.827-5.069,6.213l-0.216,0.051c-0.495,0.118-0.923,0.22-1.265,0.22c-0.312,0-0.738,0-1.006-1.176
		C248.863,208.048,249.854,207.468,250.885,206.934z"/>
	<circle fill="#FFFFFF" cx="245.65" cy="203.059" r="1.543"/>
	<path fill="#DE3108" d="M240.048,216.781c3.47-0.959,3.746-1.656,4.012-2.331c0.116-0.293,0.246-0.622,0.539-0.965
		c-0.072-1.248-1.035-1.917-2.142-2.687c-0.471-0.328-0.955-0.664-1.375-1.059c-1.075,1.027-3.061,3.448-2.779,5.212
		C238.43,215.746,239.001,216.345,240.048,216.781z"/>
	<path d="M239.99,217.833l0.158-0.043c0.234-0.063,0.455-0.126,0.666-0.188c3.218-0.951,3.771-1.762,4.175-2.784
		c0.118-0.297,0.21-0.533,0.466-0.788l0.144-0.144l0.002-0.203c0.023-1.899-1.357-2.858-2.575-3.705
		c-0.378-0.263-0.725-0.525-1.045-0.798c-0.174-0.149-0.354-0.295-0.496-0.46l-0.311-0.36l-0.007-0.008l-0.015,0.012l-0.362,0.296
		c-0.015,0.012-0.557,0.486-1.21,1.227c-1.12,1.27-2.569,3.329-2.266,5.225c0.178,1.113,0.933,1.962,2.23,2.537
		c0.097,0.042,0.189,0.087,0.292,0.127L239.99,217.833z M241.082,209.74c0.419,0.395,0.903,0.731,1.375,1.059
		c1.107,0.77,2.07,1.438,2.142,2.687c-0.292,0.343-0.422,0.671-0.539,0.965c-0.266,0.674-0.542,1.371-4.012,2.331
		c-1.046-0.436-1.617-1.035-1.745-1.829C238.021,213.188,240.007,210.768,241.082,209.74z"/>
	<path fill="#9CA69C" d="M253.056,268.611c1.976-0.776,3.632-1.111,5-1.084c-1.938-1.661-3.282-3.062-5.198-5.55
		C252.531,263.628,252.188,266.335,253.056,268.611z"/>
	<path fill="#9CA69C" d="M252.164,269.694c0.108,0.222,0.33,0.352,0.562,0.352c0.081,0,0.163-0.016,0.242-0.049
		c1.96-0.823,3.546-1.224,4.847-1.224c1.323,0,2.16,0.433,2.741,0.809c0.276,0.181,0.65,0.113,0.847-0.158
		c0.194-0.27,0.145-0.645-0.115-0.854c-3.657-2.944-5.083-4.178-8.242-8.418c-0.145-0.195-0.388-0.291-0.629-0.238
		c-0.238,0.05-0.426,0.233-0.48,0.471l-0.052,0.22C251.511,262.168,250.523,266.321,252.164,269.694z M258.057,267.527
		c-1.368-0.027-3.025,0.308-5,1.084c-0.869-2.276-0.526-4.983-0.197-6.634C254.775,264.466,256.119,265.866,258.057,267.527z"/>
	<path fill="#FFFFFF" d="M261.012,282.297l0.227,8.464c0.571,0.081,1.548,0.195,2.496,0.195c0.801,0,1.438-0.083,1.841-0.24
		c0.058-0.021,0.159-0.193,0.187-0.558C265.887,288.522,264.39,284.722,261.012,282.297z"/>
	<path fill="#FFFFFF" d="M260.035,280.594c-0.194,0.116-0.311,0.328-0.305,0.554l0.272,10.168c0.008,0.296,0.223,0.546,0.515,0.599
		c0.066,0.012,1.646,0.292,3.217,0.292c0.968,0,1.739-0.109,2.294-0.325c0.329-0.128,0.895-0.51,0.98-1.628
		c0.184-2.413-1.918-7.114-6.341-9.663C260.473,280.476,260.231,280.479,260.035,280.594z M265.575,290.716
		c-0.403,0.157-1.04,0.24-1.841,0.24c-0.948,0-1.925-0.114-2.496-0.195l-0.227-8.464c3.378,2.425,4.875,6.226,4.75,7.861
		C265.735,290.522,265.633,290.694,265.575,290.716z"/>
	<path fill="#9CA69C" d="M255.509,238.552c-1.254-0.592-2.284-0.892-3.061-0.892c-1.339,0-1.729,0.879-2.18,1.897l-0.226,0.495
		l-0.09,0.073c-0.41,0.407-1.44,4.768,0.024,9.999c1.219,4.354,4.454,9.971,12.942,12c13.744,3.287,20.764,14.586,22.881,18.631
		c0.026-0.233,0.054-0.499,0.083-0.778c-1.231-4.141-5.37-9.5-15.117-16.226c-1.17-0.808-1.24-0.855-1.236-1.229
		c0-0.076,0.028-0.146,0.056-0.215c-2.79-2.652-5.888-5.426-6.604-5.807c-1.068-0.212-3.979-1.987-5.688-3.072
		c-1.441-0.717-2.81-3.579-2.273-5.852c0.24-1.015,1.079-2.717,4.004-2.717c0.856,0,1.847,0.151,2.942,0.448
		c0.036,0.009,0.071,0.022,0.104,0.039c8.676,4.119,10.112,4.578,10.169,4.596l7.993,2.506c-0.213-0.22-0.444-0.461-0.723-0.749
		c-0.194-0.201-0.231-0.505-0.092-0.747c0.139-0.241,0.417-0.362,0.692-0.294c0.542,0.135,1.105,0.285,1.679,0.443
		c-4.744-2.041-12.672-5.895-20.653-9.809C258.638,240.066,256.615,239.073,255.509,238.552z"/>
	<path d="M285.883,279.976c-0.029,0.279-0.057,0.545-0.083,0.778c-2.117-4.045-9.137-15.344-22.881-18.631
		c-8.488-2.029-11.723-7.646-12.942-12c-1.465-5.231-0.435-9.592-0.024-9.999l0.09-0.073l0.226-0.495
		c0.451-1.018,0.84-1.897,2.18-1.897c0.776,0,1.806,0.3,3.061,0.892c1.106,0.521,3.129,1.514,5.628,2.74
		c7.981,3.914,15.909,7.769,20.653,9.809c1.667,0.459,3.454,1.021,5.285,1.703c-0.334-0.875-0.732-1.149-1.13-1.217
		c-2.375-0.407-16.143-7.159-24.368-11.193c-2.505-1.229-4.533-2.223-5.642-2.746c-1.409-0.665-2.549-0.988-3.487-0.988
		c-0.291,0-0.546,0.038-0.783,0.094c-0.467,0.11-0.833,0.318-1.132,0.579c-0.587,0.512-0.916,1.224-1.179,1.819l-0.133,0.294
		c-0.881,1.001-1.466,5.45-0.475,9.882c1.124,5.029,4.455,11.499,13.94,13.768c5.494,1.313,9.879,3.951,13.284,6.871
		c3.473,2.978,5.923,6.247,7.479,8.715c1.431,2.27,2.109,3.86,2.13,3.909l0.217,0.312h0.25c0.099,0,0.182-0.001,0.254-0.033
		C286.317,281.979,286.193,281.017,285.883,279.976z"/>
	<path fill="#DE3108" d="M283.24,253.482l6.173,6.899c0.2,0.224,0.213,0.558,0.031,0.796c-0.181,0.237-0.509,0.313-0.774,0.181
		c-3.426-1.698-7.121-3.449-9.535-4.5c1.498,1.709,2.422,3.329,2.675,3.797c0.098,0.11,0.157,0.256,0.157,0.415
		c0,0.348-0.299,0.609-0.634,0.625c-0.062-0.004-0.122-0.007-0.184-0.024l-0.679-0.195c-2.024-0.582-3.88-1.109-5.811-1.55
		l-0.305,0.229c1.121,0.867,1.665,1.466,1.931,2.263c0.071,0.214,0.022,0.449-0.129,0.616c-0.12,0.133-0.289,0.206-0.464,0.206
		c-0.046,0-0.092-0.005-0.138-0.016c-1.545-0.349-2.984-0.441-4.015-0.455c12.198,8.43,17.485,15.899,15.762,22.247
		c3.568-3.943,2.201-9.096,2.133-9.345c-0.09-0.321,0.089-0.656,0.406-0.761c0.315-0.105,0.659,0.058,0.778,0.369
		c0.054,0.139,5.071,13.657-6.942,20.712c0.607,0.319,0.937,0.238,0.939,0.239c0.267-0.052,0.561,0.068,0.691,0.312
		s0.102,0.54-0.094,0.736l-1.17,1.169c1.008-0.32,2.777-1.023,5.901-2.537c0.287-0.137,0.631-0.04,0.8,0.228
		c0.171,0.269,0.112,0.621-0.135,0.821c-1.369,1.106-1.938,1.998-2.168,2.482c0.51-0.042,1.903-0.485,5.088-3.259
		c0.118-0.103,0.264-0.153,0.41-0.153c0.163,0,0.326,0.063,0.448,0.189c0.231,0.239,0.236,0.616,0.011,0.86
		c-2.063,2.228-3.725,4.336-4.787,6.062c6.33-1.816,15.81-12.713,16.728-24.562c0.676-8.712-3.089-20.182-24.392-26.143
		c0.216,0.229,0.38,0.411,0.503,0.557c0.046,0.027,0.09,0.06,0.129,0.099l-0.025,0.027c0.022,0.029,0.031,0.046,0.051,0.072
		l0.354,0.111C283.068,253.336,283.164,253.398,283.24,253.482z"/>
	<path d="M281.79,251.101c-0.573-0.158-1.137-0.308-1.679-0.443c-0.275-0.068-0.554,0.053-0.692,0.294
		c-0.14,0.242-0.103,0.546,0.092,0.747c0.278,0.288,0.51,0.529,0.723,0.749l2.372,0.744c-0.02-0.026-0.028-0.043-0.051-0.072
		l0.025-0.027c-0.039-0.039-0.083-0.072-0.129-0.099c-0.123-0.146-0.287-0.327-0.503-0.557
		c21.303,5.961,25.067,17.431,24.392,26.143c-0.918,11.849-10.397,22.745-16.728,24.562c1.062-1.727,2.724-3.835,4.787-6.062
		c0.226-0.244,0.221-0.621-0.011-0.86c-0.122-0.126-0.285-0.189-0.448-0.189c-0.146,0-0.292,0.051-0.41,0.153
		c-3.185,2.773-4.578,3.217-5.088,3.259c0.229-0.484,0.799-1.376,2.168-2.482c0.247-0.2,0.306-0.553,0.135-0.821
		c-0.169-0.268-0.513-0.364-0.8-0.228c-3.124,1.514-4.894,2.217-5.901,2.537l1.17-1.169c0.195-0.196,0.225-0.493,0.094-0.736
		s-0.425-0.363-0.691-0.312c-0.003-0.001-0.332,0.08-0.939-0.239c12.014-7.055,6.996-20.573,6.942-20.712
		c-0.119-0.312-0.463-0.475-0.778-0.369c-0.317,0.104-0.496,0.439-0.406,0.761c0.068,0.249,1.436,5.401-2.133,9.345
		c1.724-6.348-3.563-13.817-15.762-22.247c-0.1-0.002-0.217-0.007-0.308-0.007c-0.523,0-0.84,0.021-0.852,0.021
		c-0.176,0.011-0.349-0.05-0.476-0.171c-0.106-0.102-0.214-0.203-0.32-0.305c-0.027,0.069-0.056,0.139-0.056,0.215
		c-0.004,0.373,0.066,0.421,1.236,1.229c9.747,6.726,13.886,12.085,15.117,16.226c0.31,1.041,0.434,2.004,0.418,2.894
		c-0.027,1.568-0.488,2.906-1.158,4.022c-0.15,0.25-0.106,0.571,0.104,0.772c0.211,0.203,0.533,0.229,0.776,0.07
		c2.613-1.73,3.898-3.969,4.49-6.066c0.081,4.335-1.356,10.062-8.302,13.706c-0.184,0.097-0.307,0.276-0.331,0.481
		c-0.023,0.205,0.056,0.409,0.212,0.545c0.503,0.436,0.963,0.705,1.363,0.866l-1.306,1.305c-0.034,0.035-0.065,0.074-0.091,0.117
		c-0.125,0.203-0.197,0.529-0.028,0.831c0.111,0.198,0.354,0.435,0.883,0.435c0.766,0,2.308-0.517,4.682-1.57
		c-0.447,0.72-0.527,1.187-0.538,1.274c-0.014,0.097-0.003,0.196,0.029,0.288c0.12,0.345,0.525,0.748,1.271,0.748
		c0.494,0,1.093-0.176,1.8-0.531c-0.963,1.273-1.734,2.454-2.27,3.488c-0.069,0.102-0.11,0.224-0.11,0.355
		c0,0.166,0.066,0.327,0.184,0.444s0.276,0.183,0.442,0.183h0.001c0.037,0,0.073-0.003,0.109-0.01
		c6.811-0.665,18.031-12.509,19.072-25.948c1.129-14.556-10.332-22.08-20.511-25.873C285.244,252.121,283.457,251.56,281.79,251.101
		z"/>
	<path d="M273.789,259.728c0.204,0.15,0.391,0.291,0.565,0.426l0.305-0.229C274.369,259.859,274.083,259.789,273.789,259.728z"/>
	<path fill="#FFFFFF" d="M261.587,246.499c-3.049-0.814-4.947-0.341-5.351,1.365c-0.41,1.734,0.752,4.017,1.671,4.477
		c2.171,1.374,4.771,2.864,5.279,2.931c0.083,0,0.143,0.015,0.219,0.047c1.08,0.45,5.802,4.902,7.169,6.203
		c0.159-0.006,0.383-0.011,0.658-0.011c0.78,0,1.858,0.043,3.064,0.214c-0.601-0.548-1.566-1.229-3.081-2.297l-0.422-0.298
		c-0.236-0.167-0.327-0.475-0.22-0.743c0.107-0.268,0.39-0.428,0.672-0.386c3.161,0.471,5.795,1.19,8.724,2.029
		c-0.766-1.165-2.057-2.889-3.765-4.287c-0.211-0.172-0.285-0.461-0.186-0.713c0.1-0.253,0.334-0.411,0.623-0.394
		c1.027,0.068,6.227,2.51,9.703,4.192l-3.924-4.385l-10.548-3.308C271.836,251.125,270.472,250.715,261.587,246.499z"/>
	<path d="M262.072,245.345c-0.033-0.016-0.068-0.029-0.104-0.039c-1.096-0.297-2.086-0.448-2.942-0.448
		c-2.926,0-3.765,1.703-4.004,2.717c-0.537,2.272,0.832,5.134,2.273,5.852c1.709,1.084,4.619,2.859,5.688,3.072
		c0.717,0.381,3.814,3.155,6.604,5.807c0.106,0.102,0.214,0.203,0.32,0.305c0.127,0.121,0.3,0.182,0.476,0.171
		c0.012,0,0.328-0.021,0.852-0.021c0.091,0,0.208,0.005,0.308,0.007c1.03,0.014,2.47,0.106,4.015,0.455
		c0.046,0.011,0.092,0.016,0.138,0.016c0.175,0,0.344-0.073,0.464-0.206c0.151-0.167,0.2-0.402,0.129-0.616
		c-0.266-0.797-0.81-1.396-1.931-2.263c-0.175-0.135-0.361-0.275-0.565-0.426c0.294,0.062,0.58,0.132,0.87,0.197
		c1.931,0.44,3.786,0.968,5.811,1.55l0.679,0.195c0.062,0.018,0.121,0.021,0.184,0.024c0.335-0.016,0.634-0.277,0.634-0.625
		c0-0.159-0.06-0.305-0.157-0.415c-0.253-0.468-1.177-2.088-2.675-3.797c2.414,1.051,6.109,2.802,9.535,4.5
		c0.266,0.133,0.594,0.057,0.774-0.181c0.182-0.238,0.169-0.572-0.031-0.796l-6.173-6.899c-0.075-0.084-0.172-0.146-0.279-0.18
		l-0.354-0.111l-2.372-0.744l-7.993-2.506C272.184,249.923,270.747,249.464,262.072,245.345z M282.422,254.443l3.924,4.385
		c-3.477-1.682-8.676-4.124-9.703-4.192c-0.289-0.017-0.523,0.141-0.623,0.394c-0.1,0.252-0.025,0.541,0.186,0.713
		c1.708,1.398,2.999,3.122,3.765,4.287c-2.929-0.839-5.562-1.559-8.724-2.029c-0.282-0.042-0.564,0.118-0.672,0.386
		c-0.107,0.269-0.017,0.576,0.22,0.743l0.422,0.298c1.515,1.067,2.48,1.749,3.081,2.297c-1.206-0.171-2.284-0.214-3.064-0.214
		c-0.275,0-0.499,0.005-0.658,0.011c-1.367-1.301-6.089-5.753-7.169-6.203c-0.076-0.032-0.136-0.047-0.219-0.047
		c-0.509-0.066-3.108-1.557-5.279-2.931c-0.919-0.46-2.081-2.743-1.671-4.477c0.403-1.707,2.302-2.18,5.351-1.365
		c8.885,4.217,10.249,4.626,10.287,4.637L282.422,254.443z"/>
	<path fill="#FFFFFF" d="M233.248,209.398c3.381-0.728,6.248-1.237,6.783-1.111c0.333,0.095,0.678-0.097,0.773-0.429
		c0.095-0.332-0.097-0.678-0.429-0.773c-1.147-0.328-7.461,1.074-10.785,1.854c-0.529,0.124-0.99,0.234-1.334,0.317
		c-0.163,0.039-0.292,0.14-0.376,0.27c-0.089,0.139-0.126,0.311-0.084,0.484c0.069,0.287,0.325,0.479,0.607,0.479
		c0.048,0,0.098-0.005,0.147-0.018c0.037-0.009,0.075-0.018,0.113-0.027C230.188,210.078,231.767,209.717,233.248,209.398z"/>
	<rect x="0.001" y="426.67" fill="#DE3908" width="511.983" height="85.313"/>
</g>
</svg>
