<?xml version="1.0" encoding="utf-8"?>
<!-- Generator: Adobe Illustrator 16.0.0, SVG Export Plug-In . SVG Version: 6.00 Build 0)  -->
<svg version="1.2" baseProfile="tiny"
	 id="svg153" xmlns:cc="http://creativecommons.org/ns#" xmlns:dc="http://purl.org/dc/elements/1.1/" xmlns:rdf="http://www.w3.org/1999/02/22-rdf-syntax-ns#"
	 xmlns="http://www.w3.org/2000/svg" xmlns:xlink="http://www.w3.org/1999/xlink" x="0px" y="0px" width="512px" height="512px"
	 viewBox="0 0 512 512" xml:space="preserve">
<desc  id="desc3">The United States of America flag, produced by Daniel McRae</desc>
<g>
	<rect x="389.123" fill="#BD3D44" width="122.882" height="39.385"/>
	<rect x="389.123" y="78.77" fill="#BD3D44" width="122.882" height="39.385"/>
	<rect x="389.123" y="157.54" fill="#BD3D44" width="122.882" height="39.385"/>
	<rect x="389.123" y="236.31" fill="#BD3D44" width="122.882" height="39.385"/>
	<rect x="0" y="315.08" fill="#BD3D44" width="512.005" height="39.385"/>
	<rect x="0" y="393.85" fill="#BD3D44" width="512.005" height="39.386"/>
	<rect x="0" y="472.62" fill="#BD3D44" width="512.005" height="39.385"/>
	<rect x="389.123" y="39.385" fill="#FFFFFF" width="122.882" height="39.385"/>
	<rect x="389.123" y="118.155" fill="#FFFFFF" width="122.882" height="39.385"/>
	<rect x="389.123" y="196.925" fill="#FFFFFF" width="122.882" height="39.385"/>
	<polygon fill="#FFFFFF" points="512.005,275.695 389.123,275.695 0,275.695 0,315.08 512.005,315.08 	"/>
	<rect x="0" y="354.465" fill="#FFFFFF" width="512.005" height="39.385"/>
	<rect x="0" y="433.235" fill="#FFFFFF" width="512.005" height="39.385"/>
	<path fill="#192F5D" d="M389.123,236.31v-39.385V157.54v-39.385V78.77V39.385V0H0v39.385V78.77v39.385v39.385v39.385v39.385v39.385
		h389.123V236.31z M365.967,205.745l-9.27-6.734l-9.269,6.734l3.54-10.897l-9.269-6.734h11.457l3.54-10.896l3.541,10.896h11.457
		l-9.27,6.734L365.967,205.745z M61.315,215.683l3.541-10.897l3.54,10.897h11.457l-9.269,6.734l3.54,10.896l-9.269-6.734
		l-9.27,6.734l3.541-10.896l-9.27-6.734H61.315z M91.552,194.848l-9.269-6.734H93.74l3.54-10.896l3.541,10.896h11.457l-9.27,6.734
		l3.541,10.897l-9.27-6.734l-9.269,6.734L91.552,194.848z M82.283,77.835H93.74l3.54-10.896l3.541,10.896h11.457l-9.27,6.734
		l3.541,10.896l-9.27-6.734l-9.269,6.734l3.54-10.896L82.283,77.835z M147.138,77.835h11.458l3.54-10.896l3.541,10.896h11.457
		l-9.27,6.734l3.541,10.896l-9.27-6.734l-9.269,6.734l3.54-10.896L147.138,77.835z M211.99,77.835h11.458l3.54-10.896l3.541,10.896
		h11.457l-9.27,6.734l3.541,10.896l-9.27-6.734l-9.27,6.734l3.541-10.896L211.99,77.835z M276.845,77.835h11.457l3.541-10.896
		l3.54,10.896h11.457l-9.269,6.734l3.541,10.896l-9.27-6.734l-9.27,6.734l3.541-10.896L276.845,77.835z M262.957,160.544h11.458
		l-9.27,6.734l3.541,10.896l-9.27-6.734l-9.27,6.734l3.541-10.896l-9.27-6.734h11.457l3.541-10.896L262.957,160.544z
		 M268.687,233.314l-9.27-6.734l-9.27,6.734l3.541-10.896l-9.27-6.734h11.457l3.541-10.897l3.54,10.897h11.458l-9.27,6.734
		L268.687,233.314z M198.103,160.544h11.457l-9.27,6.734l3.541,10.896l-9.27-6.734l-9.27,6.734l3.541-10.896l-9.27-6.734h11.458
		l3.54-10.896L198.103,160.544z M203.831,233.314l-9.27-6.734l-9.27,6.734l3.541-10.896l-9.27-6.734h11.458l3.54-10.897
		l3.541,10.897h11.457l-9.27,6.734L203.831,233.314z M179.564,105.405h11.458l3.54-10.896l3.541,10.896h11.457l-9.27,6.735
		l3.541,10.896l-9.27-6.734l-9.27,6.734l3.541-10.896L179.564,105.405z M236.257,150.605l-9.27-6.734l-9.27,6.734l3.541-10.896
		l-9.27-6.734h11.458l3.54-10.897l3.541,10.897h11.457l-9.27,6.734L236.257,150.605z M158.596,132.975l3.54-10.897l3.541,10.897
		h11.457l-9.27,6.734l3.541,10.896l-9.27-6.734l-9.269,6.734l3.54-10.896l-9.27-6.734H158.596z M301.113,150.605l-9.27-6.734
		l-9.27,6.734l3.541-10.896l-9.27-6.734h11.457l3.541-10.897l3.54,10.897h11.457l-9.269,6.734L301.113,150.605z M268.687,123.036
		l-9.27-6.734l-9.27,6.734l3.541-10.896l-9.27-6.735h11.457l3.541-10.896l3.54,10.896h11.458l-9.27,6.735L268.687,123.036z
		 M114.709,105.405h11.457l3.54-10.896l3.541,10.896h11.457l-9.27,6.735l3.541,10.896l-9.27-6.734l-9.269,6.734l3.54-10.896
		L114.709,105.405z M93.74,132.975l3.54-10.897l3.541,10.897h11.457l-9.27,6.734l3.541,10.896l-9.27-6.734l-9.269,6.734l3.54-10.896
		l-9.269-6.734H93.74z M129.706,149.647l3.541,10.896h11.457l-9.27,6.734l3.541,10.896l-9.27-6.734l-9.269,6.734l3.54-10.896
		l-9.269-6.734h11.457L129.706,149.647z M138.976,233.314l-9.27-6.734l-9.269,6.734l3.54-10.896l-9.269-6.734h11.457l3.54-10.897
		l3.541,10.897h11.457l-9.27,6.734L138.976,233.314z M156.407,194.848l-9.27-6.734h11.458l3.54-10.896l3.541,10.896h11.457
		l-9.27,6.734l3.541,10.897l-9.27-6.734l-9.269,6.734L156.407,194.848z M221.259,194.848l-9.27-6.734h11.458l3.54-10.896
		l3.541,10.896h11.457l-9.27,6.734l3.541,10.897l-9.27-6.734l-9.27,6.734L221.259,194.848z M286.115,194.848l-9.27-6.734h11.457
		l3.541-10.896l3.54,10.896h11.457l-9.269,6.734l3.541,10.897l-9.27-6.734l-9.27,6.734L286.115,194.848z M333.537,233.314
		l-9.27-6.734l-9.269,6.734l3.54-10.896l-9.269-6.734h11.457l3.54-10.897l3.541,10.897h11.457l-9.27,6.734L333.537,233.314z
		 M327.809,160.544h11.457l-9.27,6.734l3.541,10.896l-9.27-6.734l-9.269,6.734l3.54-10.896l-9.269-6.734h11.457l3.54-10.896
		L327.809,160.544z M365.967,150.605l-9.27-6.734l-9.269,6.734l3.54-10.896l-9.269-6.734h11.457l3.54-10.897l3.541,10.897h11.457
		l-9.27,6.734L365.967,150.605z M333.537,123.036l-9.27-6.734l-9.269,6.734l3.54-10.896l-9.269-6.735h11.457l3.54-10.896
		l3.541,10.896h11.457l-9.27,6.735L333.537,123.036z M365.967,95.466l-9.27-6.734l-9.269,6.734l3.54-10.896l-9.269-6.734h11.457
		l3.54-10.896l3.541,10.896h11.457l-9.27,6.734L365.967,95.466z M353.157,22.696l3.54-10.896l3.541,10.896h11.457l-9.27,6.734
		l3.541,10.897l-9.27-6.735l-9.269,6.735l3.54-10.897l-9.269-6.734H353.157z M327.809,50.266h11.457L329.996,57l3.541,10.896
		l-9.27-6.734l-9.269,6.734L318.539,57l-9.269-6.734h11.457l3.54-10.897L327.809,50.266z M288.302,22.696l3.541-10.896l3.54,10.896
		h11.457l-9.269,6.734l3.541,10.897l-9.27-6.735l-9.27,6.735l3.541-10.897l-9.27-6.734H288.302z M262.957,50.266h11.458L265.146,57
		l3.541,10.896l-9.27-6.734l-9.27,6.734L253.689,57l-9.27-6.734h11.457l3.541-10.897L262.957,50.266z M223.448,22.696l3.54-10.896
		l3.541,10.896h11.457l-9.27,6.734l3.541,10.897l-9.27-6.735l-9.27,6.735l3.541-10.897l-9.27-6.734H223.448z M198.103,50.266h11.457
		L200.29,57l3.541,10.896l-9.27-6.734l-9.27,6.734L188.833,57l-9.27-6.734h11.458l3.54-10.897L198.103,50.266z M158.596,22.696
		l3.54-10.896l3.541,10.896h11.457l-9.27,6.734l3.541,10.897l-9.27-6.735l-9.269,6.735l3.54-10.897l-9.27-6.734H158.596z
		 M133.247,50.266h11.457L135.435,57l3.541,10.896l-9.27-6.734l-9.269,6.734L123.978,57l-9.269-6.734h11.457l3.54-10.897
		L133.247,50.266z M93.74,22.696l3.54-10.896l3.541,10.896h11.457l-9.27,6.734l3.541,10.897l-9.27-6.735l-9.269,6.735l3.54-10.897
		l-9.269-6.734H93.74z M68.396,50.266h11.457L70.584,57l3.54,10.896l-9.269-6.734l-9.27,6.734L59.127,57l-9.27-6.734h11.457
		l3.541-10.897L68.396,50.266z M17.429,22.696h11.457L32.427,11.8l3.54,10.896h11.458l-9.27,6.734l3.541,10.897l-9.27-6.735
		l-9.27,6.735l3.541-10.897L17.429,22.696z M17.429,77.835h11.457l3.541-10.896l3.54,10.896h11.458l-9.27,6.734l3.541,10.896
		l-9.27-6.734l-9.27,6.734l3.541-10.896L17.429,77.835z M49.858,105.405h11.457l3.541-10.896l3.54,10.896h11.457l-9.269,6.735
		l3.54,10.896l-9.269-6.734l-9.27,6.734l3.541-10.896L49.858,105.405z M41.697,150.605l-9.27-6.734l-9.27,6.734l3.541-10.896
		l-9.27-6.734h11.457l3.541-10.897l3.54,10.897h11.458l-9.27,6.734L41.697,150.605z M64.856,149.647l3.54,10.896h11.457
		l-9.269,6.734l3.54,10.896l-9.269-6.734l-9.27,6.734l3.541-10.896l-9.27-6.734h11.457L64.856,149.647z M17.429,188.113h11.457
		l3.541-10.896l3.54,10.896h11.458l-9.27,6.734l3.541,10.897l-9.27-6.734l-9.27,6.734l3.541-10.897L17.429,188.113z M41.697,260.883
		l-9.27-6.734l-9.27,6.734l3.541-10.896l-9.27-6.734h11.457l3.541-10.896l3.54,10.896h11.458l-9.27,6.734L41.697,260.883z
		 M106.55,260.883l-9.27-6.734l-9.269,6.734l3.54-10.896l-9.269-6.734H93.74l3.54-10.896l3.541,10.896h11.457l-9.27,6.734
		L106.55,260.883z M171.406,260.883l-9.27-6.734l-9.269,6.734l3.54-10.896l-9.27-6.734h11.458l3.54-10.896l3.541,10.896h11.457
		l-9.27,6.734L171.406,260.883z M236.257,260.883l-9.27-6.734l-9.27,6.734l3.541-10.896l-9.27-6.734h11.458l3.54-10.896
		l3.541,10.896h11.457l-9.27,6.734L236.257,260.883z M301.113,260.883l-9.27-6.734l-9.27,6.734l3.541-10.896l-9.27-6.734h11.457
		l3.541-10.896l3.54,10.896h11.457l-9.269,6.734L301.113,260.883z M365.967,260.883l-9.27-6.734l-9.269,6.734l3.54-10.896
		l-9.269-6.734h11.457l3.54-10.896l3.541,10.896h11.457l-9.27,6.734L365.967,260.883z"/>
	<polygon fill="#FFFFFF" points="23.157,40.328 32.427,33.593 41.697,40.328 38.156,29.431 47.425,22.696 35.967,22.696 
		32.427,11.8 28.886,22.696 17.429,22.696 26.698,29.431 	"/>
	<polygon fill="#FFFFFF" points="88.012,40.328 97.281,33.593 106.55,40.328 103.009,29.431 112.279,22.696 100.822,22.696 
		97.281,11.8 93.74,22.696 82.283,22.696 91.552,29.431 	"/>
	<polygon fill="#FFFFFF" points="152.867,40.328 162.136,33.593 171.406,40.328 167.865,29.431 177.134,22.696 165.677,22.696 
		162.136,11.8 158.596,22.696 147.138,22.696 156.407,29.431 	"/>
	<polygon fill="#FFFFFF" points="217.718,40.328 226.988,33.593 236.257,40.328 232.716,29.431 241.986,22.696 230.529,22.696 
		226.988,11.8 223.448,22.696 211.99,22.696 221.259,29.431 	"/>
	<polygon fill="#FFFFFF" points="282.573,40.328 291.843,33.593 301.113,40.328 297.572,29.431 306.84,22.696 295.383,22.696 
		291.843,11.8 288.302,22.696 276.845,22.696 286.115,29.431 	"/>
	<polygon fill="#FFFFFF" points="347.429,40.328 356.698,33.593 365.967,40.328 362.426,29.431 371.696,22.696 360.239,22.696 
		356.698,11.8 353.157,22.696 341.7,22.696 350.969,29.431 	"/>
	<polygon fill="#FFFFFF" points="61.315,50.266 49.858,50.266 59.127,57 55.586,67.897 64.856,61.163 74.124,67.897 70.584,57 
		79.853,50.266 68.396,50.266 64.856,39.369 	"/>
	<polygon fill="#FFFFFF" points="126.166,50.266 114.709,50.266 123.978,57 120.438,67.897 129.706,61.163 138.976,67.897 
		135.435,57 144.704,50.266 133.247,50.266 129.706,39.369 	"/>
	<polygon fill="#FFFFFF" points="191.022,50.266 179.564,50.266 188.833,57 185.292,67.897 194.562,61.163 203.831,67.897 
		200.29,57 209.56,50.266 198.103,50.266 194.562,39.369 	"/>
	<polygon fill="#FFFFFF" points="255.876,50.266 244.419,50.266 253.689,57 250.148,67.897 259.417,61.163 268.687,67.897 
		265.146,57 274.415,50.266 262.957,50.266 259.417,39.369 	"/>
	<polygon fill="#FFFFFF" points="320.728,50.266 309.271,50.266 318.539,57 314.999,67.897 324.268,61.163 333.537,67.897 
		329.996,57 339.266,50.266 327.809,50.266 324.268,39.369 	"/>
	<polygon fill="#FFFFFF" points="23.157,95.466 32.427,88.732 41.697,95.466 38.156,84.57 47.425,77.835 35.967,77.835 
		32.427,66.939 28.886,77.835 17.429,77.835 26.698,84.57 	"/>
	<polygon fill="#FFFFFF" points="97.281,88.732 106.55,95.466 103.009,84.57 112.279,77.835 100.822,77.835 97.281,66.939 
		93.74,77.835 82.283,77.835 91.552,84.57 88.012,95.466 	"/>
	<polygon fill="#FFFFFF" points="152.867,95.466 162.136,88.732 171.406,95.466 167.865,84.57 177.134,77.835 165.677,77.835 
		162.136,66.939 158.596,77.835 147.138,77.835 156.407,84.57 	"/>
	<polygon fill="#FFFFFF" points="217.718,95.466 226.988,88.732 236.257,95.466 232.716,84.57 241.986,77.835 230.529,77.835 
		226.988,66.939 223.448,77.835 211.99,77.835 221.259,84.57 	"/>
	<polygon fill="#FFFFFF" points="282.573,95.466 291.843,88.732 301.113,95.466 297.572,84.57 306.84,77.835 295.383,77.835 
		291.843,66.939 288.302,77.835 276.845,77.835 286.115,84.57 	"/>
	<polygon fill="#FFFFFF" points="371.696,77.835 360.239,77.835 356.698,66.939 353.157,77.835 341.7,77.835 350.969,84.57 
		347.429,95.466 356.698,88.732 365.967,95.466 362.426,84.57 	"/>
	<polygon fill="#FFFFFF" points="55.586,123.036 64.856,116.302 74.124,123.036 70.584,112.14 79.853,105.405 68.396,105.405 
		64.856,94.508 61.315,105.405 49.858,105.405 59.127,112.14 	"/>
	<polygon fill="#FFFFFF" points="120.438,123.036 129.706,116.302 138.976,123.036 135.435,112.14 144.704,105.405 133.247,105.405 
		129.706,94.508 126.166,105.405 114.709,105.405 123.978,112.14 	"/>
	<polygon fill="#FFFFFF" points="185.292,123.036 194.562,116.302 203.831,123.036 200.29,112.14 209.56,105.405 198.103,105.405 
		194.562,94.508 191.022,105.405 179.564,105.405 188.833,112.14 	"/>
	<polygon fill="#FFFFFF" points="274.415,105.405 262.957,105.405 259.417,94.508 255.876,105.405 244.419,105.405 253.689,112.14 
		250.148,123.036 259.417,116.302 268.687,123.036 265.146,112.14 	"/>
	<polygon fill="#FFFFFF" points="339.266,105.405 327.809,105.405 324.268,94.508 320.728,105.405 309.271,105.405 318.539,112.14 
		314.999,123.036 324.268,116.302 333.537,123.036 329.996,112.14 	"/>
	<polygon fill="#FFFFFF" points="35.967,132.975 32.427,122.078 28.886,132.975 17.429,132.975 26.698,139.709 23.157,150.605 
		32.427,143.871 41.697,150.605 38.156,139.709 47.425,132.975 	"/>
	<polygon fill="#FFFFFF" points="88.012,150.605 97.281,143.871 106.55,150.605 103.009,139.709 112.279,132.975 100.822,132.975 
		97.281,122.078 93.74,132.975 82.283,132.975 91.552,139.709 	"/>
	<polygon fill="#FFFFFF" points="152.867,150.605 162.136,143.871 171.406,150.605 167.865,139.709 177.134,132.975 
		165.677,132.975 162.136,122.078 158.596,132.975 147.138,132.975 156.407,139.709 	"/>
	<polygon fill="#FFFFFF" points="230.529,132.975 226.988,122.078 223.448,132.975 211.99,132.975 221.259,139.709 217.718,150.605 
		226.988,143.871 236.257,150.605 232.716,139.709 241.986,132.975 	"/>
	<polygon fill="#FFFFFF" points="295.383,132.975 291.843,122.078 288.302,132.975 276.845,132.975 286.115,139.709 
		282.573,150.605 291.843,143.871 301.113,150.605 297.572,139.709 306.84,132.975 	"/>
	<polygon fill="#FFFFFF" points="360.239,132.975 356.698,122.078 353.157,132.975 341.7,132.975 350.969,139.709 347.429,150.605 
		356.698,143.871 365.967,150.605 362.426,139.709 371.696,132.975 	"/>
	<polygon fill="#FFFFFF" points="49.858,160.544 59.127,167.278 55.586,178.175 64.856,171.44 74.124,178.175 70.584,167.278 
		79.853,160.544 68.396,160.544 64.856,149.647 61.315,160.544 	"/>
	<polygon fill="#FFFFFF" points="114.709,160.544 123.978,167.278 120.438,178.175 129.706,171.44 138.976,178.175 135.435,167.278 
		144.704,160.544 133.247,160.544 129.706,149.647 126.166,160.544 	"/>
	<polygon fill="#FFFFFF" points="191.022,160.544 179.564,160.544 188.833,167.278 185.292,178.175 194.562,171.44 203.831,178.175 
		200.29,167.278 209.56,160.544 198.103,160.544 194.562,149.647 	"/>
	<polygon fill="#FFFFFF" points="255.876,160.544 244.419,160.544 253.689,167.278 250.148,178.175 259.417,171.44 268.687,178.175 
		265.146,167.278 274.415,160.544 262.957,160.544 259.417,149.647 	"/>
	<polygon fill="#FFFFFF" points="320.728,160.544 309.271,160.544 318.539,167.278 314.999,178.175 324.268,171.44 333.537,178.175 
		329.996,167.278 339.266,160.544 327.809,160.544 324.268,149.647 	"/>
	<polygon fill="#FFFFFF" points="23.157,205.745 32.427,199.01 41.697,205.745 38.156,194.848 47.425,188.113 35.967,188.113 
		32.427,177.217 28.886,188.113 17.429,188.113 26.698,194.848 	"/>
	<polygon fill="#FFFFFF" points="106.55,205.745 103.009,194.848 112.279,188.113 100.822,188.113 97.281,177.217 93.74,188.113 
		82.283,188.113 91.552,194.848 88.012,205.745 97.281,199.01 	"/>
	<polygon fill="#FFFFFF" points="171.406,205.745 167.865,194.848 177.134,188.113 165.677,188.113 162.136,177.217 
		158.596,188.113 147.138,188.113 156.407,194.848 152.867,205.745 162.136,199.01 	"/>
	<polygon fill="#FFFFFF" points="236.257,205.745 232.716,194.848 241.986,188.113 230.529,188.113 226.988,177.217 
		223.448,188.113 211.99,188.113 221.259,194.848 217.718,205.745 226.988,199.01 	"/>
	<polygon fill="#FFFFFF" points="301.113,205.745 297.572,194.848 306.84,188.113 295.383,188.113 291.843,177.217 288.302,188.113 
		276.845,188.113 286.115,194.848 282.573,205.745 291.843,199.01 	"/>
	<polygon fill="#FFFFFF" points="371.696,188.113 360.239,188.113 356.698,177.217 353.157,188.113 341.7,188.113 350.969,194.848 
		347.429,205.745 356.698,199.01 365.967,205.745 362.426,194.848 	"/>
	<polygon fill="#FFFFFF" points="55.586,233.314 64.856,226.58 74.124,233.314 70.584,222.417 79.853,215.683 68.396,215.683 
		64.856,204.786 61.315,215.683 49.858,215.683 59.127,222.417 	"/>
	<polygon fill="#FFFFFF" points="133.247,215.683 129.706,204.786 126.166,215.683 114.709,215.683 123.978,222.417 
		120.438,233.314 129.706,226.58 138.976,233.314 135.435,222.417 144.704,215.683 	"/>
	<polygon fill="#FFFFFF" points="198.103,215.683 194.562,204.786 191.022,215.683 179.564,215.683 188.833,222.417 
		185.292,233.314 194.562,226.58 203.831,233.314 200.29,222.417 209.56,215.683 	"/>
	<polygon fill="#FFFFFF" points="262.957,215.683 259.417,204.786 255.876,215.683 244.419,215.683 253.689,222.417 
		250.148,233.314 259.417,226.58 268.687,233.314 265.146,222.417 274.415,215.683 	"/>
	<polygon fill="#FFFFFF" points="327.809,215.683 324.268,204.786 320.728,215.683 309.271,215.683 318.539,222.417 
		314.999,233.314 324.268,226.58 333.537,233.314 329.996,222.417 339.266,215.683 	"/>
	<polygon fill="#FFFFFF" points="35.967,243.252 32.427,232.356 28.886,243.252 17.429,243.252 26.698,249.987 23.157,260.883 
		32.427,254.149 41.697,260.883 38.156,249.987 47.425,243.252 	"/>
	<polygon fill="#FFFFFF" points="100.822,243.252 97.281,232.356 93.74,243.252 82.283,243.252 91.552,249.987 88.012,260.883 
		97.281,254.149 106.55,260.883 103.009,249.987 112.279,243.252 	"/>
	<polygon fill="#FFFFFF" points="165.677,243.252 162.136,232.356 158.596,243.252 147.138,243.252 156.407,249.987 
		152.867,260.883 162.136,254.149 171.406,260.883 167.865,249.987 177.134,243.252 	"/>
	<polygon fill="#FFFFFF" points="230.529,243.252 226.988,232.356 223.448,243.252 211.99,243.252 221.259,249.987 217.718,260.883 
		226.988,254.149 236.257,260.883 232.716,249.987 241.986,243.252 	"/>
	<polygon fill="#FFFFFF" points="295.383,243.252 291.843,232.356 288.302,243.252 276.845,243.252 286.115,249.987 
		282.573,260.883 291.843,254.149 301.113,260.883 297.572,249.987 306.84,243.252 	"/>
	<polygon fill="#FFFFFF" points="360.239,243.252 356.698,232.356 353.157,243.252 341.7,243.252 350.969,249.987 347.429,260.883 
		356.698,254.149 365.967,260.883 362.426,249.987 371.696,243.252 	"/>
</g>
</svg>
