<?xml version="1.0" encoding="utf-8"?>
<!-- Generator: Adobe Illustrator 16.0.0, SVG Export Plug-In . SVG Version: 6.00 Build 0)  -->
<svg version="1.2" baseProfile="tiny"
	 id="svg548" xmlns:cc="http://creativecommons.org/ns#" xmlns:dc="http://purl.org/dc/elements/1.1/" xmlns:rdf="http://www.w3.org/1999/02/22-rdf-syntax-ns#"
	 xmlns="http://www.w3.org/2000/svg" xmlns:xlink="http://www.w3.org/1999/xlink" x="0px" y="0px" width="512px" height="512px"
	 viewBox="0 0 512 512" xml:space="preserve">
<g>
	<rect x="0" y="177.216" fill="#FFFFFF" width="511.983" height="169.292"/>
	<rect x="0" fill="#FFFFFF" width="511.983" height="0"/>
	<path fill="#94ACD4" d="M511.984,0H0v165.477h511.983V0z M298.86,34.406l3.706-11.01l3.886,10.943l11.554,0.144l-9.144,7.097
		l3.429,11.101l-9.534-6.561l-9.439,6.714l3.257-11.148l-9.258-6.944L298.86,34.406z M256.059,34.406l3.705-11.01l3.887,10.943
		l11.554,0.144l-9.145,7.097l3.43,11.101l-9.535-6.561l-9.439,6.714l3.258-11.148l-9.259-6.944L256.059,34.406z M140.521,139.391
		c-72.349,33.904-109.352-19.5-107.875-61.903c2.541-50.118,58.876-90.991,114.366-50.704C95.99,12.798,63.668,48.92,64.156,81.292
		C64.642,113.664,94.475,147.942,140.521,139.391z M176.959,141.156l-9.534-6.561l-9.439,6.714l3.258-11.148l-9.259-6.944
		l11.544-0.335l3.706-11.009l3.886,10.942l11.554,0.144l-9.144,7.097L176.959,141.156z M210.225,78.97l3.706-11.01l3.886,10.943
		l11.555,0.144l-9.145,7.097l3.429,11.101l-9.534-6.561l-9.439,6.714l3.258-11.148l-9.259-6.944L210.225,78.97z M224.521,141.156
		l-9.535-6.561l-9.439,6.714l3.258-11.148l-9.258-6.944l11.544-0.335l3.705-11.009l3.887,10.942l11.554,0.144l-9.144,7.097
		L224.521,141.156z M256.059,78.97l3.705-11.01l3.887,10.943l11.554,0.144l-9.145,7.097l3.43,11.101l-9.535-6.561l-9.439,6.714
		l3.258-11.148l-9.259-6.944L256.059,78.97z M269.921,141.156l-9.535-6.561l-9.439,6.714l3.258-11.148l-9.259-6.944l11.545-0.335
		l3.705-11.009l3.886,10.942l11.555,0.144l-9.145,7.097L269.921,141.156z M311.867,141.156l-9.535-6.561l-9.439,6.714l3.258-11.148
		l-9.258-6.944l11.544-0.335l3.705-11.009l3.887,10.942l11.554,0.144l-9.145,7.097L311.867,141.156z M309.294,86.144l3.43,11.101
		l-9.534-6.561l-9.439,6.714l3.257-11.148l-9.258-6.944l11.544-0.335l3.705-11.01l3.887,10.943l11.554,0.144L309.294,86.144z
		 M336.48,34.406l3.705-11.01l3.887,10.943l11.554,0.144l-9.144,7.097l3.429,11.101l-9.535-6.561l-9.439,6.714l3.258-11.148
		l-9.258-6.944L336.48,34.406z M336.913,78.97l3.705-11.01l3.887,10.943l11.554,0.144l-9.145,7.097l3.43,11.101l-9.535-6.561
		l-9.439,6.714l3.258-11.148l-9.259-6.944L336.913,78.97z M341.242,134.595l-9.439,6.714l3.258-11.148l-9.259-6.944l11.545-0.335
		l3.705-11.009l3.887,10.942l11.554,0.144l-9.145,7.097l3.43,11.101L341.242,134.595z"/>
	<polygon fill="#B73000" points="511.984,165.477 0,165.477 0,177.212 0,177.216 511.984,177.216 	"/>
	<rect x="0" y="358.246" fill="#00A900" width="511.983" height="153.737"/>
	<rect x="0" y="346.508" fill="#B73000" width="511.983" height="11.738"/>
	<polygon fill="#FEFFFF" points="250.515,52.833 259.954,46.12 269.49,52.68 266.06,41.58 275.204,34.482 263.651,34.339 
		259.764,23.396 256.059,34.406 244.514,34.741 253.773,41.685 	"/>
	<polygon fill="#FEFFFF" points="218.682,122.814 214.795,111.872 211.09,122.881 199.546,123.217 208.804,130.161 205.546,141.309 
		214.986,134.595 224.521,141.156 221.092,130.055 230.236,122.958 	"/>
	<polygon fill="#FEFFFF" points="264.081,122.814 260.196,111.872 256.49,122.881 244.946,123.217 254.204,130.161 250.947,141.309 
		260.386,134.595 269.921,141.156 266.491,130.055 275.636,122.958 	"/>
	<polygon fill="#FEFFFF" points="306.029,122.814 302.142,111.872 298.437,122.881 286.893,123.217 296.151,130.161 
		292.893,141.309 302.332,134.595 311.867,141.156 308.438,130.055 317.582,122.958 	"/>
	<polygon fill="#FEFFFF" points="356.492,122.958 344.939,122.814 341.052,111.872 337.347,122.881 325.802,123.217 
		335.061,130.161 331.803,141.309 341.242,134.595 350.778,141.156 347.348,130.055 	"/>
	<polygon fill="#FEFFFF" points="171.12,122.814 167.235,111.872 163.529,122.881 151.985,123.217 161.243,130.161 157.986,141.309 
		167.425,134.595 176.959,141.156 173.531,130.055 182.674,122.958 	"/>
	<polygon fill="#FEFFFF" points="204.682,97.397 214.121,90.684 223.656,97.244 220.227,86.144 229.371,79.046 217.817,78.903 
		213.931,67.96 210.225,78.97 198.681,79.305 207.94,86.249 	"/>
	<polygon fill="#FEFFFF" points="250.515,97.397 259.954,90.684 269.49,97.244 266.06,86.144 275.204,79.046 263.651,78.903 
		259.764,67.96 256.059,78.97 244.514,79.305 253.773,86.249 	"/>
	<polygon fill="#FEFFFF" points="302.998,67.96 299.293,78.97 287.749,79.305 297.007,86.249 293.75,97.397 303.19,90.684 
		312.724,97.244 309.294,86.144 318.439,79.046 306.885,78.903 	"/>
	<polygon fill="#FEFFFF" points="331.369,97.397 340.809,90.684 350.344,97.244 346.914,86.144 356.059,79.046 344.505,78.903 
		340.618,67.96 336.913,78.97 325.368,79.305 334.627,86.249 	"/>
	<polygon fill="#FEFFFF" points="330.936,52.833 340.375,46.12 349.91,52.68 346.482,41.58 355.625,34.482 344.072,34.339 
		340.185,23.396 336.48,34.406 324.936,34.741 334.194,41.685 	"/>
	<polygon fill="#FEFFFF" points="293.317,52.833 302.756,46.12 312.29,52.68 308.862,41.58 318.005,34.482 306.451,34.339 
		302.566,23.396 298.86,34.406 287.316,34.741 296.573,41.685 	"/>
	<path fill="#FFFFFF" d="M147.012,26.784C91.522-13.504,35.187,27.369,32.646,77.487c-1.477,42.403,35.526,95.808,107.875,61.903
		c-46.046,8.551-75.879-25.727-76.365-58.099C63.668,48.92,95.99,12.798,147.012,26.784z"/>
</g>
</svg>
