<?xml version="1.0" encoding="utf-8"?>
<!-- Generator: Adobe Illustrator 16.0.0, SVG Export Plug-In . SVG Version: 6.00 Build 0)  -->
<svg version="1.2" baseProfile="tiny"
	 id="svg378" xmlns:cc="http://creativecommons.org/ns#" xmlns:dc="http://purl.org/dc/elements/1.1/" xmlns:rdf="http://www.w3.org/1999/02/22-rdf-syntax-ns#"
	 xmlns="http://www.w3.org/2000/svg" xmlns:xlink="http://www.w3.org/1999/xlink" x="0px" y="0px" width="512px" height="512px"
	 viewBox="0 0 512 512" xml:space="preserve">
<g>
	<rect x="0" y="341.34" fill="#DC0000" width="512" height="170.66"/>
	<rect x="0" fill="#FFCB00" width="512" height="170.67"/>
	<path fill="#0000BA" d="M512,170.67H0v170.67h512V170.67z M402.409,281.68l4.826,14.456l15.234,0.019l-12.25,9.059l4.689,14.5
		l-12.397-8.855l-12.336,8.943l4.588-14.533l-12.313-8.974l15.234-0.125L402.409,281.68z M367.523,246.131l4.726-14.489
		l4.826,14.455l15.234,0.02l-12.25,9.058l4.688,14.5l-12.396-8.855l-12.336,8.942l4.588-14.532l-12.313-8.974L367.523,246.131z
		 M314.055,212.761l4.726-14.489l4.826,14.456l15.234,0.019l-12.25,9.059l4.688,14.5l-12.396-8.856l-12.336,8.943l4.588-14.533
		l-12.313-8.974L314.055,212.761z M252.364,205.17l4.726-14.489l4.826,14.455l15.234,0.019l-12.251,9.059l4.689,14.5l-12.396-8.856
		l-12.337,8.943l4.589-14.533l-12.313-8.974L252.364,205.17z M190.658,212.728l4.827-14.456l4.725,14.489l15.234,0.125
		l-12.313,8.974l4.588,14.533l-12.336-8.943l-12.397,8.856l4.689-14.5l-12.25-9.059L190.658,212.728z M137.191,246.098l4.827-14.455
		l4.725,14.489l15.234,0.125l-12.313,8.974l4.588,14.532l-12.336-8.942l-12.397,8.855l4.689-14.5l-12.25-9.058L137.191,246.098z
		 M107.027,296.136l4.826-14.456l4.726,14.489l15.233,0.125l-12.313,8.974l4.588,14.533l-12.336-8.943l-12.396,8.855l4.689-14.5
		l-12.251-9.059L107.027,296.136z"/>
	<polygon fill="#FFFFFF" points="244.855,228.801 257.192,219.858 269.588,228.714 264.899,214.214 277.15,205.155 261.915,205.136 
		257.089,190.681 252.364,205.17 237.13,205.295 249.444,214.269 	"/>
	<polygon fill="#FFFFFF" points="306.547,236.392 318.883,227.449 331.28,236.305 326.591,221.805 338.841,212.746 323.607,212.728 
		318.781,198.272 314.055,212.761 298.822,212.886 311.135,221.859 	"/>
	<polygon fill="#FFFFFF" points="360.015,269.763 372.351,260.82 384.747,269.676 380.059,255.175 392.309,246.117 377.074,246.098 
		372.248,231.643 367.523,246.131 352.289,246.256 364.603,255.23 	"/>
	<polygon fill="#FFFFFF" points="394.764,305.268 390.176,319.801 402.512,310.857 414.909,319.713 410.22,305.213 422.47,296.154 
		407.236,296.136 402.409,281.68 397.685,296.169 382.45,296.294 	"/>
	<polygon fill="#FFFFFF" points="182.986,236.305 195.383,227.449 207.719,236.392 203.131,221.859 215.445,212.886 200.21,212.761 
		195.486,198.272 190.658,212.728 175.425,212.746 187.675,221.805 	"/>
	<polygon fill="#FFFFFF" points="129.518,269.676 141.915,260.82 154.251,269.763 149.663,255.23 161.977,246.256 146.742,246.131 
		142.018,231.643 137.191,246.098 121.957,246.117 134.207,255.175 	"/>
	<polygon fill="#FFFFFF" points="99.354,319.713 111.75,310.857 124.086,319.801 119.498,305.268 131.812,296.294 116.578,296.169 
		111.853,281.68 107.027,296.136 91.792,296.154 104.043,305.213 	"/>
</g>
</svg>
