<?xml version="1.0" encoding="utf-8"?>
<!-- Generator: Adobe Illustrator 16.0.0, SVG Export Plug-In . SVG Version: 6.00 Build 0)  -->
<svg version="1.2" baseProfile="tiny"
	 id="svg548" xmlns:cc="http://creativecommons.org/ns#" xmlns:dc="http://purl.org/dc/elements/1.1/" xmlns:rdf="http://www.w3.org/1999/02/22-rdf-syntax-ns#"
	 xmlns="http://www.w3.org/2000/svg" xmlns:xlink="http://www.w3.org/1999/xlink" x="0px" y="0px" width="512px" height="512px"
	 viewBox="0 0 512 512" xml:space="preserve">
<g>
	<path d="M104.55,256.299c-1.062,0.359-1.65,0.556-1.95,2.403c0.287,0.196,0.727,0.186,1.212,0.114
		c-0.223-0.466,0.574-0.325,0.652-1.248c0.859-0.657,1.526,0.217,2.384-0.7c0.171-0.283,0.374-0.54,0.578-0.791
		C106.437,256.324,105.116,256.688,104.55,256.299z"/>
	<path d="M0,51.199v409.589l332.79-204.799L0,51.199z M98.007,314.506v-0.002c0-5.319-0.825-10.639,0-10.639
		c46.81,0,58.512-31.916,58.512-53.195c0-21.277-16.261-42.554-46.81-42.554c-35.108,0-46.81,20.787-46.81,42.554
		c0,21.277,17.554,37.237,35.107,37.237c23.405,0,29.257-5.319,46.81-26.597c-5.852,26.597-35.107,37.236-46.81,37.236
		c-23.405,0-46.809-15.958-46.809-47.875c0-26.597,17.554-53.192,58.514-53.192c35.108,0,58.511,26.597,58.511,53.192
		C168.223,287.909,138.967,314.506,98.007,314.506z M118.25,236.793c1.149,0.867,1.896,0.167,1.223,1.86
		c-0.911,1.433-1.279,1.663-2.438,1.047c-0.814-0.018-3.004,1.188-3.974,1.014c-0.766-0.16-1.364-0.145-1.667,0.394
		c1.217-0.098,1.153,1.074,1.697,2.352c-0.007,0.023-0.008,0.054-0.015,0.078c0.041-0.004,0.08-0.003,0.122-0.009
		c1.114,0.307,3.09-1.594,3.357-0.416c-0.771,2.718-0.241,1.488-1.335,1.805c-0.424,0.023-1.368,0.484-2.237,0.821
		c-0.011,0.471-0.064,0.926-0.199,1.318c0.721,0.179,0.965,0.388,1.261,1.136c0.069,0.128,0.11,0.243,0.144,0.354
		c0.137-0.677,0.309-1.288,0.66-1.557c0.871-0.121,0.285-0.648,1.06,0.313c1.25,0.942,0.784,1.862,0.181,2.863
		c-0.303,0.762-0.342,3.638-1.169,4.271c-0.094,1.272-0.146,1.975,1.43,3.031c0.883-0.676,0.64-3.491,1.521-4.167
		c1.259-0.964,1.363-1.863,2.713-0.202c0.461,1.596,0.913,0.768-0.477,1.866c-0.917,0.702-0.702,3.452-1.498,3.773
		c-1.35,0.443-0.968,1.09,0.017,2.613c0.757,1.148,1.605,2.459,2.325,3.096c1.152,2.004,0.701,2.206-0.034,3.401
		c-1.509,0.189-1.797-0.308-2.425-1.519c-0.312-1.219-0.543-1.326-1.643-2.492c-0.969-1.516-0.528-2.174-1.693-1.705
		c-0.587,0.762-1.542,1.745-2.154,2.775c-1.068,0.818-2.861-0.337-3.913-0.754c-0.827-0.008-0.982,0.18-1.956-0.377
		c-0.975-1.848-0.489-1.37,0.478-1.867c0.882-0.676,2.915,0.394,3.798-0.283c0.92-0.703,1.823-1.499,2.13-2.381
		c-1.31-1.317-1.342-1.809-2.803-1.229c-0.799,0.611-2.005,0.946-2.885,1.503c0.237,0.281,0.212,0.688-0.223,1.614
		c-1.13,0.991-0.301,1.124-1.679,0.207c-0.892-0.611-3.042,0.555-3.582-0.078c-0.835-1.107-1.224-0.523-2.11,0.933
		c-0.663,1.113-1.425,2.368-1.687,3.265c-1.216,1.783-1.539,1.432-2.766,1.162c-0.686-1.347-0.384-1.791,0.375-2.804
		c0.876-0.72,0.883-0.974,1.438-2.414c0.886-1.438,1.574-1.257,0.783-2.184c-0.823-0.282-1.956-0.831-3.006-1.044
		c-1.039-0.713-0.735-2.797-0.769-3.928c-0.285-0.777-0.492-0.857-0.384-1.965c1.151-1.561,0.937-0.938,1.679-0.208
		c0.858,0.589,0.71,2.868,1.567,3.457c0.895,0.614,1.857,1.182,2.679,1.159c0.605-1.688,0.992-1.891,0.008-3.057
		c-0.858-0.589-1.613-1.788-2.471-2.377c-1.056-0.724-0.675-2.194-0.872-3.32c0.512-1.371,0.528-0.021,1.494-0.334
		c0.836,0.574,0.363,1.506,1.408,1.987c0.878,0.184,1.679,0.721,2.454,0.665c0.38-0.198,1.03-1.134,1.375-1.437
		c-0.389-0.675-1.06-0.641-2.167-1.147c-0.055-0.041-0.088-0.098-0.136-0.145c-0.476-0.09-0.92-0.162-1.202-0.091
		c-1.244,0.148-1.647,0.282-2.663-0.586c-0.455-1.575-0.791-0.763,0.478-1.866c0.651-0.299,1.772,0.098,2.729,0.188
		c-0.007-0.757,0.037-1.536-0.054-2.164c-0.113-1.222,0.003-1.566,0.549-1.703c-0.337-0.068-0.686,0.251-1.423,0.799
		c-1.168,0.895-2.754-0.495-4.077-1.004c-1.078-0.21-1.038-0.214-1.339-1.6c0.227-0.922,2.1,0.267,3.091-0.492
		c1.115-0.939,1.337-1.292,0.362-2.903c-0.568-0.077-1.246,0.579-1.866,1.054c-0.735,0.387-3.142-0.798-3.912-0.754
		c0.005-1.645,1.953,0.004,3.115-0.886c0.329-1.028,0.895-1.382,0.527-2.654c-0.311,0.083-0.663,0.976-1.514,1.159
		c-1.055-0.531-1.739-0.518-2.638-0.98c0.071-0.641,0.673-1.613,1.044-2.301c0.642-0.898,1.559-1.568,2.483-2.277
		c0.629-0.648,0.885-1.592,1.185-1.657c1.857-0.418,1.264,1.132,1.125,2.139c-1.146,1.505-1.109,1.166,0.205,2.469
		c0.61,0.01,1.376-0.679,2.056-1.199c1.071-0.821,0.494-3.189,1.447-2.984c0.266,1.224,1.437,3.864,0.599,4.793
		c-1.031,0.866-1.286,1.654-1.776,2.486c0.047,0.744,0.637,1.335,1.15,1.745c0.883-0.676,0.64-3.49,1.522-4.167
		c1.254-0.874,0.908-1.946,2.194-0.556c0.953,1.541,1.018,2.023-0.009,3.008c-0.34,0.858-0.105,3.664-0.65,4.625
		c-0.65,1.079-0.858,1.938,0.558,2.574c0.344,0.111,0.643,0.103,0.906,0.017c-0.149-0.703-0.256-1.481-0.486-1.832
		c-0.559-1.113-0.809-1.444-0.464-2.7c1.115-0.979,0.339-1.009,1.679-0.208c0.411,0.439,0.519,1.401,0.714,2.255
		c0.145-1.265-0.25-3.005,0.687-2.858c2.188,1.906,1.271,0.852,1.126,2.139c-0.137,0.429-0.106,1.489-0.13,2.488
		c0.329,0.005,0.635-0.164,1.035-0.648c1.076-1.845,0.902-1.731-0.464-2.7c-1.137-0.78-0.57-2.752-0.625-4.17
		c-0.21-1.083-0.192-1.048,0.823-1.816c0.826-0.111,0.523,2.061,1.487,2.722c1.153,0.715,1.518,0.798,2.479-0.68
		c-0.139-0.559-0.908-0.963-1.512-1.377c-0.572-0.553-0.46-3.223-0.768-3.929c1.333-0.572,0.685,1.831,1.815,2.607
		c0.948-0.053,1.434,0.353,2.334-0.438c-0.177-0.261-1.023-0.278-1.471-1.01c0.058-1.174-0.194-1.811-0.137-2.814
		c0.544-0.158,1.543,0.064,2.23,0.171c0.953,0.286,1.818,0.908,2.719,1.526c0.746,0.361,1.601,0.271,1.759,0.528
		c0.993,1.592-0.471,1.58-1.335,1.805c-1.623-0.546-1.335-0.63-1.927,1.058c0.207,0.576,1.035,1.051,1.695,1.504
		c1.043,0.716,2.756-0.656,2.926,0.309c-0.896,0.678-2.621,2.701-3.669,2.243c-1.064-0.663-1.792-0.624-2.639-0.791
		c-0.585,0.305-0.856,1.065-1.007,1.689C115.198,237.419,117.392,236.204,118.25,236.793z"/>
	<polygon points="511.984,245.032 511.984,226.731 354.733,226.731 0,0 0,18.29 354.733,245.032 	"/>
	<path d="M112.792,250.733c-0.352,0.02-0.807,0.227-1.294,0.445c0.561,0.589,0.911,0.616,1.829-0.022
		c0.363-0.278,0.534-0.92,0.673-1.625C113.716,249.895,113.235,250.229,112.792,250.733z"/>
	<polygon points="511.984,285.252 511.984,266.973 354.733,266.973 0,493.705 0,511.98 0.386,511.737 354.733,285.252 	"/>
	<path d="M108.176,253.719c-0.192-0.453-0.43-0.938-0.513-1.226c-0.527,0.097-0.808,0.468-1.216,1
		c0.064,0.054,0.121,0.104,0.198,0.163C106.994,253.895,107.565,253.834,108.176,253.719z"/>
	<polygon fill="#FFFF00" points="511.984,266.973 511.984,245.032 354.733,245.032 0,18.29 0,51.199 332.79,255.989 0,460.788 
		0,493.701 0,493.705 354.733,266.973 	"/>
	<polygon fill="#40AA40" points="511.984,285.252 354.733,285.252 0.386,511.737 0,511.983 511.984,511.983 	"/>
	<polygon fill="#CE0000" points="511.984,226.731 511.984,0 0,0 354.733,226.731 	"/>
	<path fill="#FFFF00" d="M104.176,259.29c-0.209-0.217-0.309-0.358-0.364-0.474c-0.485,0.071-0.925,0.082-1.212-0.114
		c0.3-1.847,0.888-2.044,1.95-2.403c0.566,0.389,1.887,0.024,2.876-0.222c0.415-0.508,0.837-0.983,1.01-1.55
		c-0.012-0.197-0.127-0.496-0.26-0.808c-0.611,0.115-1.182,0.176-1.531-0.064c-0.077-0.058-0.133-0.109-0.198-0.163
		c-0.192,0.25-0.41,0.531-0.7,0.843c-1.275,0.907-3.184-0.599-4.619-0.963c-1.598-0.504-1.521-0.799-1.126-2.139
		c0.539-1.397,2.5,0.258,3.634-0.532c1.272-0.505,1.183-1.136,1.587-2.341c-0.702-2.063-0.587-1.958-1.742-0.917
		c-0.294,0.499-1.316,0.255-2.218,0.084c0.047,0.046,0.081,0.104,0.136,0.145c1.107,0.506,1.778,0.473,2.167,1.147
		c-0.345,0.303-0.995,1.239-1.375,1.437c-0.775,0.056-1.576-0.481-2.454-0.665c-1.045-0.481-0.572-1.413-1.408-1.987
		c-0.966,0.312-0.982-1.037-1.494,0.334c0.197,1.126-0.184,2.596,0.872,3.32c0.857,0.589,1.612,1.788,2.471,2.377
		c0.984,1.166,0.598,1.368-0.008,3.057c-0.821,0.022-1.784-0.545-2.679-1.159c-0.857-0.589-0.709-2.868-1.567-3.457
		c-0.742-0.731-0.527-1.353-1.679,0.208c-0.108,1.107,0.099,1.188,0.384,1.965c0.033,1.131-0.271,3.215,0.769,3.928
		c1.05,0.213,2.183,0.762,3.006,1.044c0.791,0.927,0.103,0.745-0.783,2.184c-0.556,1.44-0.562,1.694-1.438,2.414
		c-0.759,1.013-1.061,1.457-0.375,2.804c1.227,0.27,1.55,0.621,2.766-1.162c0.262-0.896,1.023-2.151,1.687-3.265
		c0.887-1.456,1.275-2.04,2.11-0.933c0.54,0.633,2.69-0.533,3.582,0.078c1.378,0.917,0.549,0.784,1.679-0.207
		c0.435-0.926,0.46-1.333,0.223-1.614c-0.092,0.059-0.198,0.106-0.281,0.171C106.486,260.521,105.288,259.529,104.176,259.29z"/>
	<path fill="#FFFF00" d="M110.854,250.425c0.256,0.31,0.461,0.561,0.645,0.753c0.487-0.219,0.942-0.426,1.294-0.445
		c0.443-0.503,0.924-0.838,1.208-1.202c0.064-0.326,0.124-0.661,0.189-0.985c-0.033-0.111-0.074-0.225-0.144-0.354
		c-0.296-0.748-0.54-0.957-1.261-1.136c-0.106,0.311-0.259,0.586-0.508,0.777C111.232,248.711,110.761,249.308,110.854,250.425z"/>
	<path fill="#FFFF00" d="M106.639,240.148c0.154-0.225,0.229-0.533,0.269-0.874c-0.195-0.854-0.303-1.816-0.714-2.255
		c-1.34-0.801-0.563-0.771-1.679,0.208c-0.345,1.256-0.095,1.587,0.464,2.7c0.23,0.35,0.337,1.128,0.486,1.832
		C106.045,241.57,106.437,240.968,106.639,240.148z"/>
	<path fill="#FFFF00" d="M101.837,244.952c0.716-0.738,1.032-1.114,0.502-2.26c-0.615-0.913-0.922-1.321-1.24-1.385
		c-0.545,0.137-0.662,0.48-0.549,1.703c0.09,0.628,0.046,1.407,0.054,2.164C101.083,245.218,101.524,245.192,101.837,244.952z"/>
	<path fill="#FFFF00" d="M112.984,245.739c0.869-0.337,1.813-0.797,2.237-0.821c1.094-0.316,0.563,0.913,1.335-1.805
		c-0.268-1.179-2.243,0.723-3.357,0.416c-0.042,0.005-0.081,0.005-0.122,0.009C112.934,244.076,113.004,244.915,112.984,245.739z"/>
	<path fill="#FFFF00" d="M115.347,235.14c0.847,0.167,1.574,0.128,2.639,0.791c1.048,0.458,2.772-1.565,3.669-2.243
		c-0.17-0.964-1.883,0.407-2.926-0.309c-0.66-0.453-1.488-0.928-1.695-1.504c0.592-1.688,0.304-1.604,1.927-1.058
		c0.864-0.225,2.328-0.212,1.335-1.805c-0.158-0.257-1.013-0.167-1.759-0.528c-0.9-0.618-1.766-1.24-2.719-1.526
		c-0.688-0.106-1.687-0.329-2.23-0.171c-0.058,1.003,0.194,1.64,0.137,2.814c0.447,0.732,1.294,0.749,1.471,1.01
		c-0.9,0.791-1.386,0.385-2.334,0.438c-1.131-0.776-0.482-3.179-1.815-2.607c0.308,0.707,0.195,3.376,0.768,3.929
		c0.604,0.414,1.373,0.819,1.512,1.377c-0.961,1.478-1.325,1.395-2.479,0.68c-0.964-0.662-0.661-2.833-1.487-2.722
		c-1.016,0.768-1.033,0.732-0.823,1.816c0.055,1.418-0.512,3.391,0.625,4.17c1.366,0.969,1.54,0.854,0.464,2.7
		c-0.399,0.484-0.706,0.654-1.035,0.648c-0.021,0.856-0.082,1.668-0.332,1.992c-1.19,0.94-1.608,1.208-0.716,2.799
		c1.344,0.007,0.563-2.307,1.825-3.274c0.696-1.18,0.9-1.43,1.892-1.449c0.052-0.008,0.088,0,0.135-0.004
		c0.303-0.538,0.901-0.554,1.667-0.394c0.97,0.174,3.159-1.031,3.974-1.014c1.158,0.616,1.526,0.386,2.438-1.047
		c0.673-1.693-0.073-0.993-1.223-1.86c-0.858-0.589-3.052,0.626-3.91,0.037C114.49,236.205,114.762,235.445,115.347,235.14z"/>
	<path fill="#FFFF00" d="M109.367,242.56c-1.262,0.967-0.481,3.281-1.825,3.274c-0.893-1.592-0.475-1.859,0.716-2.799
		c0.25-0.324,0.311-1.136,0.332-1.992c0.024-0.999-0.007-2.059,0.13-2.488c0.145-1.288,1.062-0.233-1.126-2.139
		c-0.937-0.147-0.542,1.594-0.687,2.858c-0.039,0.341-0.115,0.649-0.269,0.874c-0.202,0.82-0.594,1.422-1.174,1.61
		c-0.264,0.086-0.562,0.094-0.906-0.017c-1.416-0.636-1.208-1.495-0.558-2.574c0.545-0.96,0.311-3.767,0.65-4.625
		c1.026-0.984,0.962-1.467,0.009-3.008c-1.286-1.391-0.94-0.318-2.194,0.556c-0.883,0.676-0.64,3.491-1.522,4.167
		c-0.514-0.409-1.104-1.001-1.15-1.745c0.49-0.832,0.745-1.62,1.776-2.486c0.838-0.929-0.333-3.569-0.599-4.793
		c-0.953-0.205-0.376,2.164-1.447,2.984c-0.68,0.52-1.445,1.209-2.056,1.199c-1.314-1.303-1.352-0.964-0.205-2.469
		c0.139-1.007,0.732-2.557-1.125-2.139c-0.3,0.065-0.556,1.009-1.185,1.657c-0.925,0.708-1.842,1.379-2.483,2.277
		c-0.371,0.688-0.973,1.66-1.044,2.301c0.898,0.462,1.583,0.449,2.638,0.98c0.851-0.183,1.203-1.075,1.514-1.159
		c0.367,1.272-0.198,1.626-0.527,2.654c-1.162,0.89-3.11-0.759-3.115,0.886c0.771-0.044,3.177,1.142,3.912,0.754
		c0.62-0.475,1.298-1.131,1.866-1.054c0.975,1.611,0.753,1.964-0.362,2.903c-0.991,0.759-2.864-0.43-3.091,0.492
		c0.301,1.385,0.261,1.389,1.339,1.6c1.323,0.509,2.909,1.898,4.077,1.004c0.737-0.548,1.086-0.867,1.423-0.799
		c0.318,0.064,0.625,0.472,1.24,1.385c0.53,1.146,0.214,1.522-0.502,2.26c-0.313,0.24-0.754,0.266-1.233,0.221
		c-0.957-0.09-2.078-0.486-2.729-0.188c-1.269,1.103-0.933,0.291-0.478,1.866c1.016,0.869,1.419,0.735,2.663,0.586
		c0.282-0.071,0.726,0,1.202,0.091c0.901,0.171,1.924,0.415,2.218-0.084c1.155-1.042,1.04-1.146,1.742,0.917
		c-0.404,1.205-0.314,1.836-1.587,2.341c-1.134,0.791-3.095-0.865-3.634,0.532c-0.395,1.34-0.472,1.634,1.126,2.139
		c1.436,0.364,3.344,1.871,4.619,0.963c0.29-0.312,0.507-0.593,0.7-0.843c0.409-0.531,0.689-0.902,1.216-1
		c0.083,0.289,0.32,0.773,0.513,1.226c0.132,0.312,0.248,0.611,0.26,0.808c-0.173,0.567-0.595,1.042-1.01,1.55
		c-0.205,0.25-0.407,0.507-0.578,0.791c-0.857,0.917-1.524,0.043-2.384,0.7c-0.078,0.923-0.875,0.782-0.652,1.248
		c0.055,0.115,0.155,0.257,0.364,0.474c1.112,0.239,2.31,1.231,3.395,0.401c0.083-0.064,0.189-0.112,0.281-0.171
		c0.879-0.557,2.085-0.892,2.885-1.503c1.461-0.58,1.493-0.089,2.803,1.229c-0.307,0.882-1.21,1.678-2.13,2.381
		c-0.883,0.677-2.916-0.393-3.798,0.283c-0.967,0.497-1.452,0.02-0.478,1.867c0.974,0.557,1.129,0.369,1.956,0.377
		c1.052,0.417,2.845,1.572,3.913,0.754c0.612-1.03,1.567-2.014,2.154-2.775c1.165-0.469,0.725,0.189,1.693,1.705
		c1.1,1.166,1.331,1.273,1.643,2.492c0.628,1.211,0.916,1.708,2.425,1.519c0.735-1.195,1.187-1.397,0.034-3.401
		c-0.72-0.637-1.568-1.947-2.325-3.096c-0.984-1.523-1.366-2.17-0.017-2.613c0.796-0.321,0.581-3.071,1.498-3.773
		c1.39-1.098,0.938-0.271,0.477-1.866c-1.35-1.661-1.454-0.762-2.713,0.202c-0.882,0.676-0.639,3.491-1.521,4.167
		c-1.576-1.057-1.523-1.759-1.43-3.031c0.827-0.633,0.866-3.509,1.169-4.271c0.604-1.001,1.069-1.921-0.181-2.863
		c-0.774-0.961-0.188-0.434-1.06-0.313c-0.352,0.269-0.523,0.88-0.66,1.557c-0.065,0.324-0.125,0.659-0.189,0.985
		c-0.139,0.704-0.31,1.347-0.673,1.625c-0.918,0.638-1.268,0.612-1.829,0.022c-0.183-0.192-0.389-0.444-0.645-0.753
		c-0.093-1.117,0.378-1.714,1.423-2.59c0.25-0.191,0.402-0.466,0.508-0.777c0.134-0.392,0.188-0.847,0.199-1.318
		c0.021-0.824-0.05-1.663,0.093-2.201c0.006-0.024,0.007-0.055,0.015-0.078c-0.544-1.278-0.479-2.45-1.697-2.352
		c-0.047,0.004-0.083-0.004-0.135,0.004C110.268,241.13,110.064,241.38,109.367,242.56z"/>
	<path fill="#FFFF00" d="M109.712,197.48c-40.96,0-58.514,26.595-58.514,53.192c0,31.917,23.403,47.875,46.809,47.875
		c11.702,0,40.958-10.64,46.81-37.236c-17.553,21.277-23.404,26.597-46.81,26.597c-17.554,0-35.107-15.96-35.107-37.237
		c0-21.768,11.701-42.554,46.81-42.554c30.549,0,46.81,21.277,46.81,42.554c0,21.279-11.702,53.195-58.512,53.195
		c-0.825,0,0,5.319,0,10.639v0.002c40.96,0,70.216-26.597,70.216-63.833C168.223,224.077,144.821,197.48,109.712,197.48z"/>
</g>
</svg>
