<?xml version="1.0" encoding="utf-8"?>
<!-- Generator: Adobe Illustrator 16.0.0, SVG Export Plug-In . SVG Version: 6.00 Build 0)  -->
<svg version="1.2" baseProfile="tiny"
	 id="svg548" xmlns:cc="http://creativecommons.org/ns#" xmlns:dc="http://purl.org/dc/elements/1.1/" xmlns:rdf="http://www.w3.org/1999/02/22-rdf-syntax-ns#"
	 xmlns="http://www.w3.org/2000/svg" xmlns:xlink="http://www.w3.org/1999/xlink" x="0px" y="0px" width="512px" height="512px"
	 viewBox="0 0 512 512" xml:space="preserve">
<g id="flag">
	<rect id="rect551" x="0" fill="#FF0000" width="512" height="512"/>
	<rect id="rect552" x="0" y="-1" fill="#00006B" width="256" height="128"/>
	<g id="g4187" transform="matrix(.45782 0 0 .45782 122.59 5.0147)">
		<polygon id="polygon553" fill="#FFFFFF" points="21.7,243.674 -0.473,228.71 -21.727,243.923 -14.976,217.234 -35.379,200.783 
			-9.027,199.258 -0.379,173.871 9.149,199.618 34.895,200.377 14.435,217.823 		"/>
		<polygon id="polygon555" fill="#FFFFFF" points="17.903,66.137 0.16,54.737 -17.258,66.05 -12.423,44.793 -28.039,30.891 
			-7.301,29.154 0.448,9.249 8.434,29.432 28.85,31.032 13.044,45.243 		"/>
		<polygon id="polygon556" fill="#FFFFFF" points="-60.5,130.022 -77.765,118.177 -95.412,130.02 -89.917,109.259 -106.184,95.444 
			-85.542,94.459 -77.942,74.078 -70.666,94.228 -49.713,95.448 -65.863,108.888 		"/>
		<polygon id="polygon557" fill="#FFFFFF" points="96.688,115.748 80.123,105.061 64.003,115.879 68.64,96.167 53.79,83.548 
			73.222,82.052 80.155,63.435 87.524,82.222 106.664,83.335 91.795,96.442 		"/>
		<polygon id="polygon558" fill="#FFFFFF" points="50.356,162.428 39.313,155.55 28.306,162.497 31.175,149.431 21.425,140.674 
			34.245,139.477 39.23,127.117 44.285,139.443 57.111,140.563 47.412,149.377 		"/>
	</g>
</g>
</svg>
