<?xml version="1.0" encoding="utf-8"?>
<!-- Generator: Adobe Illustrator 16.0.0, SVG Export Plug-In . SVG Version: 6.00 Build 0)  -->
<svg version="1.2" baseProfile="tiny"
	 id="svg548" xmlns:cc="http://creativecommons.org/ns#" xmlns:dc="http://purl.org/dc/elements/1.1/" xmlns:rdf="http://www.w3.org/1999/02/22-rdf-syntax-ns#"
	 xmlns="http://www.w3.org/2000/svg" xmlns:xlink="http://www.w3.org/1999/xlink" x="0px" y="0px" width="512px" height="512px"
	 viewBox="0 0 512 512" xml:space="preserve">
<g id="flag">
	<g>
		<polygon fill="none" points="324.356,203.884 23.034,0.008 23.022,0.008 324.344,203.884 		"/>
		<polygon points="-0.001,152.625 -0.001,359.456 153.948,255.984 		"/>
		<polygon fill="#0000CC" points="511.999,512 511.999,341.418 335.773,341.418 82.316,512 		"/>
		<path fill="#FF0000" d="M66.054,0h-0.001c-0.058-0.008-0.1-0.005-0.126,0.008h0.159C66.077,0.006,66.063,0.001,66.054,0z"/>
		<polygon fill="#FF0000" points="511.999,170.678 511.999,0.016 82.218,0.008 335.762,170.678 		"/>
		<polygon fill="#FFCC00" points="-0.001,359.456 -0.001,399.546 212.575,255.972 -0.001,112.52 -0.001,152.601 153.966,255.972 
			153.948,255.984 		"/>
		<polygon fill="#009933" points="-0.001,511.991 23.022,511.991 324.344,308.144 511.999,308.144 511.999,203.884 324.356,203.884 
			324.344,203.884 23.022,0.008 -0.001,0.008 -0.001,112.52 212.575,255.972 212.575,255.972 -0.001,399.546 		"/>
		
			<line fill="none" stroke="#FFFFFF" stroke-width="0" stroke-linecap="round" stroke-linejoin="round" x1="23.034" y1="0.008" x2="23.022" y2="0.008"/>
		<polygon fill="#FFFFFF" points="511.999,203.884 511.999,170.678 335.762,170.678 82.218,0.008 82.217,0.008 66.086,0.008 
			65.927,0.008 23.034,0.008 324.356,203.884 		"/>
		<polygon fill="#FFFFFF" points="511.999,308.211 324.356,308.211 23.122,512 82.305,512 335.762,341.418 335.773,341.418 
			511.999,341.418 		"/>
	</g>
</g>
</svg>
