<?xml version="1.0" encoding="utf-8"?>
<!-- Generator: Adobe Illustrator 16.0.0, SVG Export Plug-In . SVG Version: 6.00 Build 0)  -->
<svg version="1.2" baseProfile="tiny"
	 id="svg548" xmlns:cc="http://creativecommons.org/ns#" xmlns:dc="http://purl.org/dc/elements/1.1/" xmlns:rdf="http://www.w3.org/1999/02/22-rdf-syntax-ns#"
	 xmlns="http://www.w3.org/2000/svg" xmlns:xlink="http://www.w3.org/1999/xlink" x="0px" y="0px" width="512px" height="512px"
	 viewBox="0 0 512 512" xml:space="preserve">
<g>
	<path fill="#198A00" d="M374.173,137.835c0.918,0.655,2.468,1.388,3.292,1.76c1.942-1.025,4.541-1.015,6.097-0.987l0.525,0.006
		c0.101,0.001,0.193,0,0.266-0.003c0.203-0.265,0.413-0.597,0.531-0.79l-0.196-3.543c-0.025,0.028-0.051,0.066-0.076,0.093
		c-0.621,0.663-1.266,0.883-1.82,0.65c-0.219-0.091-0.343-0.323-0.299-0.555c1.41-7.406-0.236-11.593-5.316-21.407
		c-0.111,5.573-0.219,10.396-0.69,14.061c0.688,2.287,0.712,2.833,0.776,4.26c0.02,0.437,0.043,0.961,0.091,1.653
		c0.02,0.054,0.03,0.113,0.03,0.174c0,0.279-0.18,0.497-0.51,0.5c-0.079-0.007-0.155-0.015-0.227-0.049
		c-0.842-0.405-1.711-1.296-2.532-2.351C373.963,133.908,373.907,136.952,374.173,137.835z"/>
	<path fill="#198A00" d="M375.093,145.462c0-0.065-0.002-0.119-0.002-0.186c-0.019-0.107-0.028-0.209-0.043-0.314
		c-0.053,0.042-0.104,0.087-0.158,0.127C374.967,145.216,375.025,145.338,375.093,145.462z"/>
	<path fill="#198A00" d="M331.843,183.982v-0.207h90.026v0.155h90.105V0H-0.009v511.983h239.943V183.982H331.843z M245.788,62.965
		c0.077-0.087,0.269-0.165,0.481-0.165c0.524,0,1.061,0.458,2.035,1.292c1.052,0.899,2.492,2.131,4.479,3.233
		c0.097,0.04,0.195,0.081,0.295,0.123c-3.799-2.81-6.676-7.732-6.815-9.744c-0.045-0.654,0.206-0.958,0.423-1.098
		c0.138-0.093,0.312-0.144,0.509-0.144c0.886,0,2.235,1.062,4.74,3.096c1.093,0.887,2.302,1.869,3.545,2.784
		c-4.67-4.533-5.89-9.669-6.132-10.969c-0.166-0.89-0.367-2.458,0.153-2.969c0.057-0.056,0.125-0.097,0.201-0.121
		c1.015-0.314,2.551,1.136,5.096,3.697c1.669,1.681,3.561,3.585,4.518,3.801c0.096,0.021,0.183,0.071,0.251,0.142
		c0.771,0.805,2.933,2.015,10.242,5.441c-3.856-3.382-12.432-12.472-10.39-16.702c0.12-0.189,0.325-0.406,0.73-0.406
		c0.727,0,1.924,0.728,4.151,2.123c2.366,1.481,5.311,3.324,8.285,4.436c8.238,3.643,16.365,7.334,25.247,12.356
		c-0.32-0.348-0.659-0.712-0.985-1.063c-4.616-4.964-6.768-7.55-6.509-8.816c0.057-0.274,0.221-0.493,0.465-0.622
		c0.174-0.123,0.398-0.185,0.671-0.185c1.339,0,4.432,1.561,9.113,3.922c6.416,3.237,15.202,7.67,23.816,10.155
		c0.632,0.099,1.471,0.229,2.423,0.376c6.058,0.94,16.641,2.584,22.781,4.665c-0.003-0.045,0-0.091,0.009-0.136
		c3.463-16.85,14.071-18.669,18.471-18.669c4.084,0,8.155,1.489,10.219,3.722c5.953,0.641,9.14,2.248,9.472,4.776
		c0.304,2.317-2.047,4.432-3.447,4.965c-0.174,0.067-0.373,0.03-0.512-0.095c-0.14-0.125-0.197-0.318-0.149-0.499
		c0.24-0.918,0.21-1.596-0.095-2.072c-0.135-0.212-0.328-0.386-0.564-0.532c-0.049,0.087-0.124,0.16-0.218,0.205
		c-1.075,0.521-1.742,0.543-2.664,0.573c-0.428,0.014-0.928,0.03-1.579,0.103c-0.561,0.082-2.524,0.501-3.567,2.355
		c-0.984,1.75-0.825,4.189,0.473,7.25c0.01,0.021,0.041,0.131,0.047,0.154c0.047,0.174,0.104,0.38,0.192,0.602
		c1.5-0.949,6.666-2.185,16.42-2.185c3.449,0,7.289,0.156,11.413,0.462c0.083,0.009,0.142,0.012,0.206,0.012
		c2.286,0,11.113-3.053,15.855-4.693c1.138-0.394,2.111-0.73,2.819-0.966c6.716-1.256,26.862-5.696,32.242-9.767
		c0.089-0.067,0.194-0.109,0.306-0.123c1.178-0.133,1.907,0.347,2.064,1.243c0.229,1.3-1.022,3.559-2.896,5.529
		c12.194-5.258,31.9-14.039,34.249-16.175c0.128-0.115,0.299-0.168,0.464-0.161c0.17,0.012,0.328,0.092,0.438,0.224
		c0.23,0.277,0.299,0.655,0.204,1.125c-0.373,1.851-3.588,5.984-9.259,10.545c2.7-1.581,5.2-3.108,7.477-4.499
		c6.288-3.842,10.314-6.293,12.234-6.046c0.294,0.062,0.712,0.275,0.826,1.102c0.319,2.3-1.53,7.365-9.086,13.486
		c3.777-2.126,6.834-3.98,9.091-5.348c3.562-2.16,4.72-2.843,5.362-2.843c0.322,0,0.512,0.16,0.595,0.256
		c0.07,0.08,0.175,0.238,0.183,0.474c0.027,0.171,0,0.353-0.037,0.53c-0.455,2.123-3.126,6.937-9.901,12.412
		c2.82-1.292,4.664-1.967,5.636-1.967c0.404,0,0.715,0.116,0.924,0.343c0.108,0.12,0.231,0.317,0.242,0.606
		c0.03,0.141,0.023,0.297-0.021,0.469c-0.328,1.277-3.646,5.698-9.561,10.643c0.734-0.334,1.294-0.482,1.71-0.433
		c0.311,0.06,0.611,0.292,0.595,0.772c-0.038,1.106-2.108,5.635-8.444,10.437c-5.311,4.025-15.033,9.228-31.644,11.852
		c0.017,0.046,0.028,0.094,0.036,0.144c0.087,0.526-0.323,0.946-1.254,1.281c-0.892,0.673-7.988,5.801-18.062,6.273
		c1.5,0.541,1.899,0.953,2.082,1.683c0.04,0.161,0.015,0.331-0.07,0.473c-0.612,1.021-3.566,1.818-7.119,1.975
		c0.58,0.298,0.881,0.629,0.93,1.071c0.01,0.09,0,0.181-0.028,0.267c-0.282,0.847-3.868,2.571-7.361,2.571
		c-0.923,0-1.804-0.126-2.646-0.351c2.728,2.175,4.337,3.754,4.446,5.046c0.037,0.448-0.104,0.855-0.406,1.179
		c-0.053,0.056-0.114,0.101-0.183,0.134c-0.867,0.421-1.915,0.634-3.116,0.634c-4.469,0-10.386-2.891-14.461-5.244
		c1.89,1.734,3.597,2.818,4.876,3.63c1.504,0.956,2.498,1.587,2.696,2.575c0.109,0.551-0.059,1.135-0.514,1.786
		c-0.061,0.087-0.143,0.157-0.238,0.204c-0.834,0.405-1.776,0.61-2.803,0.61c-2.713,0-5.711-1.449-8.191-3.046
		c0.033,0.142,0.051,0.284,0.049,0.425c-0.004,0.46-0.206,0.869-0.582,1.182c-0.103,0.085-0.229,0.136-0.361,0.144
		c-3.213,0.184-6.416-1.992-8.459-3.756c0.04,0.084,0.075,0.174,0.116,0.256c1.333,2.382,2.527,2.986,3.487,3.471
		c0.663,0.335,1.29,0.651,1.639,1.466c0.099,0.231,0.011,0.5-0.206,0.627c-0.384,0.226-0.802,0.341-1.244,0.341
		c-1.388,0-2.761-1.125-3.973-2.117c-0.629-0.515-1.275-1.045-1.771-1.269c-0.175,0.736,1.134,3.34,3.897,7.756
		c1.276,2.04,1.524,2.469,1.5,2.806c-0.006,0.072-0.027,0.147-0.062,0.21c-0.157,0.286-0.476,0.289-0.6,0.289
		c-0.001,0-0.003,0-0.004,0c-0.738,0-3.259-0.512-5.826-2.163c0.073,1.101,0.125,1.92,0.142,2.227
		c0.151,0.123,0.866,0.539,3.646,0.626c2.834,0.432,3.785,3.446,3.698,4.574c-0.062,0.814-0.677,0.837-0.746,0.837
		c-0.457,0-0.69-0.408-0.768-0.542c-0.484-0.849-2.188-1.603-2.904-1.86c-0.336,0.042-0.808,0.182-0.954,0.399
		c-0.014,0.021-0.04,0.06-0.044,0.137c2.217,0.959,4.303,3.15,2.538,8.152c-0.851,2.408-3.514,2.478-3.814,2.478
		c-0.239,0-0.468-0.136-0.572-0.351c-0.105-0.214-0.09-0.47,0.058-0.659c0.343-0.44,0.846-1.339,0.737-1.878
		c-0.015-0.074-0.045-0.163-0.132-0.251c-0.257,0.048-0.508,0.073-0.749,0.073c-2.451,0-3.408-2.501-3.593-3.928
		c-0.039-0.061-0.114-0.155-0.208-0.155c-0.051,0-0.215,0.022-0.505,0.258c0.497,2.844,0.223,5.035-0.817,6.518
		c-0.644,0.917-1.43,1.324-1.902,1.496c-0.101,0.521-0.18,1.614,0.663,2.421c0.183,0.175,0.242,0.444,0.149,0.68
		s-0.318,0.393-0.571,0.397c-0.004,0-0.101,0.001-0.104,0.001c-3.324,0-3.377-2.699-3.401-3.996c-0.005-0.211-0.01-0.479-0.03-0.647
		c-0.221-0.168-0.422-0.427-0.579-0.751c-0.256-0.528-0.529-1.532-0.249-3.198c-1.4,1.141-2.675,1.175-3.476,1.021
		c0.016,0.579,0.098,1.444,0.378,2.472c0.072,0.263-0.034,0.542-0.263,0.689c-0.229,0.147-0.526,0.131-0.737-0.042
		c-0.721-0.594-1.209-1.103-1.564-1.62c-0.325,1.773-1.445,2.95-1.936,3.389c-0.031,0.548,0.003,2.027,1.128,3.028
		c0.201,0.178,0.266,0.465,0.16,0.712c-0.1,0.231-0.326,0.379-0.575,0.379c-0.017,0-0.033,0-0.05-0.002
		c-2.649-0.212-3.532-2.169-3.675-3.438c-0.567-0.375-1.701-1.333-2.427-3.33c-1.044,2.312-3.146,3.042-4.041,3.252
		c-0.077,0.377-0.108,1.099,0.463,1.907c0.149,0.21,0.153,0.491,0.012,0.707c-0.142,0.215-0.402,0.319-0.654,0.266
		c-1.138-0.249-1.973-0.808-2.481-1.662c-0.684-1.146-0.563-2.503-0.446-3.161c-0.274-0.294-0.621-0.81-0.711-1.59
		c-0.092-0.802,0.11-1.683,0.604-2.635c-1.574,0.794-3.097,1.195-4.55,1.195c-0.598,0-1.063-0.069-1.391-0.128
		c-0.247,0.338-0.717,1.03-1.399,2.244c-0.132,0.236-0.401,0.358-0.665,0.307c-0.265-0.051-0.466-0.267-0.5-0.534
		c-0.277-2.177-0.085-3.206,0.2-3.682c0.117-1.136,1.023-6.451,7.601-6.451c4.196,0,5.44-3.481,5.791-5.058
		c-0.133,0.04-0.263,0.064-0.389,0.064c-0.243,0-0.474-0.076-0.664-0.219c-0.494-0.37-0.411-1.19,0.231-5.211
		c0.053-0.33,0.107-0.673,0.163-1.027c-1.366,2.538-3.108,3.865-3.929,3.865c-0.225,0-0.421-0.084-0.554-0.238
		c-0.097-0.111-0.202-0.307-0.159-0.609c0.522-1.916,0.804-3.705,1.075-5.434c0.211-1.345,0.41-2.615,0.704-3.838
		c0.278-1.158,0.635-2.247,0.978-3.239c-0.502,0.643-0.952,1.147-1.188,1.327l0.002,0.003c-0.021,0.016-0.046,0.031-0.074,0.045
		c-0.008,0.004-0.016,0.008-0.022,0.012v0c-0.26,0.124-0.55,0.045-0.691-0.137c-0.229-0.296-0.146-0.671,0.211-2.059
		c0.084-0.327,0.2-0.778,0.28-1.149c-1.245,0.522-3.567,0.986-6.04,0.986c-2.568,0-7.187-0.524-9.265-4.037
		c-0.046-0.079-0.07-0.169-0.069-0.26c0.011-0.955,1.173-2.129,2.788-3.302c-3.807,1.369-8.359,2.741-11.1,2.741
		c-1.153,0-1.929-0.24-2.371-0.734c-0.19-0.212-0.401-0.573-0.387-1.12c-0.051-0.122-0.069-0.259-0.052-0.402
		c0.065-0.519,0.867-1.349,2.094-2.338c-0.708,0.384-1.187,0.645-1.263,0.689c-0.386,0.223-4.34,1.473-7.351,1.473
		c-1.747,0-2.904-0.433-3.439-1.286c-0.208-0.426-0.284-0.582,2.065-2.037c-1.894,0.478-4.355,0.943-6.533,0.943
		c-2.063,0-3.568-0.425-4.472-1.262c-0.118-0.11-0.197-0.338-0.178-0.499c0.052-0.408,0.539-0.843,2.236-1.925
		c-0.859,0.255-1.676,0.444-2.452,0.6c-2.457,0.39-4.854,0.401-6.509,0.034c-3.289-0.732-6.183-2.939-6.064-3.856
		c-0.02-0.469,0.425-0.601,2.893-1.334c1.914-0.568,4.662-1.384,6.715-2.361c-5.047,1.478-9.61,2.225-13.601,2.225
		c-6.862,0-10.142-2.219-10.917-3.393c-0.224-0.338-0.281-0.641-0.17-0.901c0.188-0.411,0.591-0.508,3.32-0.812
		c0.787-0.088,1.863-0.208,2.081-0.289c0.214-0.118,0.819-0.352,2.98-1.129c-3.38,0.755-6.939,1.33-9.604,1.191
		c-6.709-0.413-10.66-2.672-11.575-3.999c-0.205-0.297-0.27-0.573-0.192-0.821c0.175-0.502,0.773-0.795,5.518-1.38
		c0.284-0.035,0.509-0.063,0.644-0.082c0.273-0.024,1.48-0.369,3.093-0.863c-1.09,0.056-2.142,0.083-3.135,0.083
		c-9.305,0-12.001-2.44-12.729-3.49c-0.37-0.533-0.498-1.061-0.353-1.45c0.169-0.485,2.279-0.812,3.957-0.997
		c-9.036-2.361-16.151-5.515-21.116-9.369c-5.228-4.059-6.181-7.44-6.348-8.38C245.377,63.955,245.353,63.252,245.788,62.965z"/>
	<polygon fill="#198A00" points="421.852,511.952 421.852,511.87 331.867,511.87 331.867,511.983 511.975,511.983 511.975,511.952 	
		"/>
	<polygon fill="#EF7D00" points="421.869,511.87 421.852,511.87 421.852,511.952 511.975,511.952 511.975,183.93 421.869,183.93 	
		"/>
	<polygon points="421.869,183.93 421.869,183.775 331.843,183.775 331.843,183.982 331.867,183.982 331.867,511.87 421.852,511.87 
		421.869,511.87 	"/>
	<polygon fill="#DE2010" points="331.867,183.982 331.843,183.982 239.935,183.982 239.935,511.983 331.867,511.983 331.867,511.87 
			"/>
	<path fill="#EF7D00" d="M417.817,113.095c2.015,1.159,3.48,1.967,4.157,2.274c1.085,0.493,2.289,0.743,3.58,0.743
		c2.596,0,4.976-1.039,5.895-1.602c-0.674-0.303-2.468-0.754-4.212-1.193l-0.269-0.067c-4.04-0.467-7.945-1.695-11.527-3.635
		c-0.167-0.09-0.269-0.249-0.305-0.422c-0.893-0.131-1.773-0.294-2.585-0.479C414.063,110.154,415.942,111.654,417.817,113.095z"/>
	<path fill="#EF7D00" d="M413.003,101.021l-0.28,0.45c5.133,3.287,9.585,5.906,10.646,5.906c0.024,0,0.047-0.001,0.068-0.004
		c0.193-0.025,0.384,0.063,0.489,0.228c0.104,0.165,0.104,0.375-0.002,0.54c-0.598,0.923-2.166,1.391-4.663,1.391
		c-0.053,0-0.105,0-0.159,0c-0.136-0.001-0.28-0.007-0.422-0.011c3.342,1.19,6.411,1.968,8.593,2.518
		c1.106,0.124,2.298,0.194,3.463,0.194c3.831,0,6.276-0.736,7.069-1.196c-0.459-0.396-1.864-0.844-5.682-1.886
		c-3.049-0.333-6.165-1.18-9.167-2.5c-0.3-0.132-0.446-0.473-0.337-0.781c0.109-0.308,0.437-0.479,0.755-0.394
		c2.53,0.695,4.643,1.267,6.404,1.743l2.674,0.725c0.987,0.103,2.09,0.164,3.183,0.164c0.001,0,0.002,0,0.003,0
		c10.03,0,17.488-5.108,18.69-5.982c-0.298-0.017-0.676-0.028-1.154-0.028l-0.104,0c-4.646,0.61-9.729,0.996-15.033,1.15
		c-0.002,0.094-0.02,0.189-0.075,0.271C434.03,109.325,423.536,106.272,413.003,101.021z"/>
	<path fill="#EF7D00" d="M454.127,75.122c0.206-0.067,0.434,0.007,0.561,0.185c0.127,0.178,0.125,0.417-0.006,0.591
		c-3.776,5.035-9.381,6.007-14.175,5.666c0.433,0.301,0.87,0.662,1.403,1.128c0.062,0.054,0.108,0.121,0.138,0.197
		c0.138,0.359,0.037,0.731-0.27,0.997c-0.092,0.079-0.218,0.147-0.351,0.213c2.436-0.67,4.832-1.354,7.12-2.046
		c10.623-3.281,21.151-7.457,31.289-12.408c18.253-9.833,20.01-18.075,19.688-19.577c-1.729,0.105-5.91,2.661-11.177,5.878
		c-5.722,3.496-12.842,7.846-21.028,11.767c-6.592,3.414-13.753,6.023-21.266,7.749c-0.329,0.077-0.671-0.132-0.748-0.468
		c-0.078-0.335,0.13-0.671,0.465-0.75c6.658-1.571,13.53-4.076,21.009-7.658c12.805-6.629,19.516-14.209,21.115-17.098
		c-7.004,4.246-34.778,16.129-36.058,16.676c-0.146,0.063-0.312,0.067-0.461,0.012l-0.04-0.015
		c-0.677,0.439-1.374,0.808-2.072,1.062c-3.156,1.444-10.69,4.18-17.825,6.091C435.577,74.194,449.216,76.717,454.127,75.122z"/>
	<path fill="#EF7D00" d="M412.19,102.332c-1.447-0.929-3.079-1.996-4.93-3.23c-4.13-2.752-13.932-9.482-14.17-10.021
		c-0.091-0.204-0.036-0.449,0.135-0.592c0.337-0.284,0.336-0.286,2.767,1.334c4.214,2.81,10.806,6.972,17.551,10.329l2.537-4.089
		c-4.859-2.384-10.223-5.787-15.771-10.832c-0.019-0.017-0.028-0.04-0.045-0.06c-0.546,0.021-1.157,0.036-1.821,0.036
		c-1.241,0-2.373-0.05-3.391-0.15c0.049,0.129,0.074,0.267,0.072,0.412c-0.009,0.882-1.021,1.281-1.138,1.323
		c-0.036,0.014-0.074,0.023-0.113,0.03c-0.053,0.009-1.312,0.215-3.063,0.215c-1.672,0-3.181-0.192-4.519-0.555
		c1.402,2.987,12.674,13.039,18.544,17.181l4.953,2.539L412.19,102.332z"/>
	<path fill="#EF7D00" d="M434.601,84.507c2.461,0.849,2.684,1.222,2.981,2.314c0.045,0.167,0.129,0.729-0.626,1.065
		c-1.637,0.728-9.013,0.221-15.2-0.971l-0.581,0.937c0.523,0.278,1.034,0.543,1.523,0.795c1.087,0.559,2.118,1.102,3.14,1.728
		c1.507,0.108,6.914,0.088,8.803-0.182c0.267-0.038,0.525,0.151,0.565,0.424c0.039,0.273-0.151,0.527-0.425,0.566
		c-1.216,0.174-3.957,0.253-6.192,0.253c-0.956,0-1.818-0.015-2.431-0.042c-0.022,0.015-0.036,0.039-0.061,0.05
		c-1.985,0.881-4.58,1.662-8.037,1.427l-1.447,2.332c6.057,2.958,11.324,4.324,15.149,5.31c2.412,0.622,4.2,1.084,5.312,1.726
		c0.101-0.12,0.246-0.202,0.413-0.219c7.367-0.769,12.609-1.163,15.579-1.172c31.14-4.064,40.681-17.272,42.006-20.883
		c-0.957,0.383-2.619,1.375-4.479,2.487c-2.582,1.542-5.795,3.462-9.778,5.444c-4.933,2.57-10.167,4.599-15.546,6.025
		c-13.009,3.604-26.459,3.677-39.828,0.212c-0.33-0.086-0.531-0.421-0.45-0.754c0.082-0.332,0.415-0.538,0.748-0.46
		c6.642,1.533,13.249,2.31,19.64,2.31c0.003,0,0.005,0,0.007,0c6.687,0,13.269-0.847,19.563-2.516
		c5.133-1.422,10.143-3.364,15.31-5.936c14.047-7.317,21.52-16.923,22.227-18.588c-1.639,0.123-6.905,2.7-11.737,5.119
		c-5.261,3.309-11.644,6.392-18.921,9.135c-2.721,1.15-4.854,1.899-6.497,2.281c-0.335,0.075-0.654-0.12-0.743-0.441
		c-0.091-0.322,0.089-0.658,0.407-0.762c2.194-0.72,4.346-1.476,6.393-2.248c4.716-1.993,10.588-4.95,15.77-7.559l3.032-1.524
		c11.051-6.947,14.604-13.301,15.326-15.456c-0.85,0.435-2.39,1.368-4.104,2.408c-4.302,2.607-11.5,6.972-21.025,11.625
		c-8.302,4.472-18.899,8.675-31.476,12.482c-2.909,0.898-5.875,1.745-8.813,2.516c-0.338,0.089-0.674-0.112-0.762-0.444
		c-0.089-0.333,0.108-0.674,0.44-0.764c0.076-0.021,0.15-0.042,0.227-0.063C438.63,84.695,436.698,84.68,434.601,84.507z"/>
	<path fill="#EF7D00" d="M420.646,88.706c-1.781-0.947-3.8-2.117-6.347-3.991c-0.656-0.343-1.133-0.703-1.374-1.075
		c-0.133-0.205-0.1-0.475,0.08-0.64c0.181-0.166,0.451-0.177,0.646-0.027c0.412,0.319,0.811,0.621,1.197,0.905
		c1.467,0.721,4.189,1.482,7.484,2.109l2.12-3.417c-0.65-0.228-1.21-0.466-1.643-0.709c-0.224-0.126-0.315-0.399-0.214-0.635
		c0.102-0.235,0.364-0.354,0.609-0.278c0.663,0.208,1.287,0.404,1.887,0.591l4.868-7.844c-2.795,0.707-5.478,1.267-7.746,1.536
		c0.526,0.513,0.564,1.053,0.55,1.294c-0.098,1.608-2.797,3.235-7.766,3.235c-1.145,0-2.35-0.086-3.606-0.256
		c1.807,1.314,2.026,2.072,1.955,2.606c-0.081,0.606-0.604,0.893-0.899,0.967c-0.039,0.01-0.078,0.016-0.118,0.018
		c-0.099,0.006-4.804,0.243-8.937-0.254c0.229,0.317,0.328,0.632,0.305,0.952c-0.063,0.856-0.962,1.18-1.064,1.213
		c-0.044,0.015-0.091,0.025-0.138,0.029c-0.025,0.002-0.259,0.024-0.63,0.051c7.31,4.99,12.729,6.667,16.795,6.818L420.646,88.706z"
		/>
	<path d="M451.337,66.159l0.04,0.015c0.149,0.056,0.315,0.052,0.461-0.012c1.279-0.546,29.054-12.43,36.058-16.676
		c-1.6,2.888-8.311,10.468-21.115,17.098c-7.479,3.583-14.351,6.087-21.009,7.658c-0.335,0.079-0.543,0.415-0.465,0.75
		c0.077,0.336,0.419,0.545,0.748,0.468c7.513-1.725,14.674-4.335,21.266-7.749c8.187-3.921,15.307-8.271,21.028-11.767
		c5.267-3.217,9.448-5.772,11.177-5.878c0.321,1.502-1.436,9.744-19.688,19.577c-10.138,4.952-20.666,9.127-31.289,12.408
		c-2.288,0.693-4.685,1.376-7.12,2.046c-0.352,0.175-0.829,0.308-1.426,0.396c-0.076,0.021-0.15,0.042-0.227,0.063
		c-0.332,0.09-0.529,0.432-0.44,0.764c0.088,0.332,0.424,0.533,0.762,0.444c2.938-0.771,5.904-1.618,8.813-2.516
		c12.576-3.807,23.174-8.01,31.476-12.482c9.525-4.653,16.724-9.018,21.025-11.625c1.714-1.04,3.254-1.973,4.104-2.408
		c-0.723,2.154-4.275,8.509-15.326,15.456l-3.032,1.524c-5.182,2.609-11.054,5.566-15.77,7.559
		c-2.047,0.772-4.198,1.528-6.393,2.248c-0.318,0.104-0.498,0.44-0.407,0.762c0.089,0.321,0.408,0.516,0.743,0.441
		c1.644-0.381,3.776-1.13,6.497-2.281c7.277-2.743,13.66-5.827,18.921-9.135c4.832-2.419,10.099-4.996,11.737-5.119
		c-0.707,1.665-8.18,11.271-22.227,18.588c-5.167,2.571-10.177,4.513-15.31,5.936c-6.295,1.669-12.877,2.516-19.563,2.516
		c-0.002,0-0.004,0-0.007,0c-6.391,0-12.998-0.777-19.64-2.31c-0.333-0.078-0.666,0.128-0.748,0.46
		c-0.081,0.333,0.12,0.668,0.45,0.754c13.369,3.465,26.819,3.392,39.828-0.212c5.379-1.426,10.613-3.455,15.546-6.025
		c3.983-1.982,7.196-3.902,9.778-5.444c1.859-1.112,3.521-2.104,4.479-2.487c-1.325,3.611-10.866,16.819-42.006,20.883
		c-2.97,0.009-8.212,0.403-15.579,1.172c-0.167,0.017-0.312,0.099-0.413,0.219c0.354,0.204,0.641,0.425,0.854,0.676
		c0.082,0.096,0.11,0.214,0.108,0.333c5.305-0.155,10.388-0.54,15.033-1.15l0.104,0c0.479,0,0.856,0.011,1.154,0.028
		c-1.202,0.874-8.66,5.981-18.69,5.982c-0.001,0-0.002,0-0.003,0c-1.093,0-2.195-0.061-3.183-0.164l-2.674-0.725
		c-1.762-0.477-3.874-1.048-6.404-1.743c-0.318-0.086-0.646,0.085-0.755,0.394c-0.109,0.309,0.037,0.649,0.337,0.781
		c3.002,1.319,6.118,2.167,9.167,2.5c3.817,1.042,5.223,1.491,5.682,1.886c-0.793,0.46-3.238,1.196-7.069,1.196
		c-1.165,0-2.356-0.07-3.463-0.194c-2.182-0.549-5.251-1.328-8.593-2.518c-1.088-0.031-2.32-0.148-3.544-0.327
		c0.036,0.173,0.138,0.332,0.305,0.422c3.582,1.94,7.487,3.168,11.527,3.635l0.269,0.067c1.744,0.439,3.538,0.89,4.212,1.193
		c-0.919,0.563-3.299,1.602-5.895,1.602c-1.291,0-2.495-0.25-3.58-0.743c-0.677-0.308-2.143-1.116-4.157-2.274
		c0.619,0.476,1.237,0.947,1.841,1.405c1.211,0.919,2.298,1.751,3.251,2.511c0.842,0.225,1.723,0.352,2.646,0.351
		c3.493,0,7.079-1.724,7.361-2.571c0.028-0.086,0.038-0.177,0.028-0.267c-0.049-0.442-0.35-0.773-0.93-1.071
		c3.553-0.157,6.507-0.954,7.119-1.975c0.085-0.142,0.11-0.312,0.07-0.473c-0.183-0.73-0.582-1.142-2.082-1.683
		c10.074-0.473,17.171-5.6,18.062-6.273c0.931-0.335,1.341-0.754,1.254-1.281c-0.008-0.05-0.02-0.098-0.036-0.144
		c16.61-2.624,26.333-7.826,31.644-11.852c6.336-4.802,8.406-9.33,8.444-10.437c0.017-0.48-0.284-0.712-0.595-0.772
		c-0.416-0.05-0.976,0.098-1.71,0.433c5.915-4.945,9.232-9.366,9.561-10.643c0.044-0.172,0.051-0.329,0.021-0.469
		c-0.011-0.29-0.134-0.487-0.242-0.606c-0.209-0.228-0.52-0.343-0.924-0.343c-0.972,0-2.815,0.674-5.636,1.967
		c6.775-5.475,9.446-10.289,9.901-12.412c0.037-0.177,0.064-0.358,0.037-0.53c-0.008-0.236-0.112-0.394-0.183-0.474
		c-0.083-0.096-0.272-0.256-0.595-0.256c-0.643,0-1.8,0.683-5.362,2.843c-2.257,1.368-5.313,3.221-9.091,5.348
		c7.556-6.122,9.405-11.186,9.086-13.486c-0.114-0.827-0.532-1.04-0.826-1.102c-1.92-0.248-5.946,2.204-12.234,6.046
		c-2.276,1.391-4.776,2.918-7.477,4.499c5.671-4.561,8.886-8.695,9.259-10.545c0.095-0.47,0.026-0.848-0.204-1.125
		c-0.109-0.131-0.268-0.212-0.438-0.224c-0.165-0.007-0.336,0.046-0.464,0.161c-2.349,2.136-22.055,10.917-34.249,16.175
		C453.294,64.694,452.34,65.508,451.337,66.159z"/>
	<path fill="#EF7D00" d="M360.607,141.79c-6.129,0-6.361,5.228-6.368,5.451c-0.005,0.148-0.062,0.29-0.16,0.398
		c-0.026,0.054-0.125,0.295-0.149,0.908c0.462-0.705,0.703-0.977,0.719-0.995c0.144-0.158,0.357-0.232,0.567-0.198l0.187,0.035
		c0.295,0.058,0.741,0.145,1.359,0.145c2.069,0,4.348-0.964,6.77-2.865c0.259-0.201,0.629-0.171,0.85,0.072
		c0.22,0.243,0.214,0.616-0.013,0.853c-2.141,2.229-2.5,3.65-2.423,4.45c0.067,0.709,0.493,1.018,0.512,1.031
		c0.216,0.153,0.322,0.434,0.25,0.689c-0.004,0.015-0.411,1.502,0.233,2.577c0.096,0.159,0.209,0.302,0.342,0.428
		c-0.171-1.03,0.174-1.777,0.195-1.822c0.094-0.196,0.283-0.33,0.5-0.353c0.165-0.019,4.104-0.518,3.944-5.504l-0.01-0.22
		c-0.012-0.343,0.255-0.631,0.598-0.646c0.356-0.011,0.634,0.25,0.651,0.591l0.01,0.222c0,0,0,0,0,0.001v0.01
		c0.232,4.618,2.591,5.803,2.69,5.852c0.217,0.104,0.36,0.326,0.36,0.566c0.002,0.166,0.048,1.241,0.895,1.949
		c-0.53-1.335-0.338-2.598-0.326-2.673c0.026-0.163,0.117-0.31,0.251-0.406c0.143-0.105,3.509-2.657,0.476-7.069
		c-0.1-0.144-0.134-0.322-0.095-0.492c0.038-0.17,0.146-0.316,0.298-0.403c0.444-0.256,0.87-0.632,1.268-1.05
		c0.088-1.018,0.427-1.885,1.015-2.589c0.093-0.11,0.209-0.192,0.311-0.291c-0.951-0.45-2.235-1.104-3.034-1.712
		c-0.079-0.06-0.143-0.138-0.186-0.228c-0.649-1.364-0.235-7.333-0.127-8.729l-0.02-0.109c-0.528-0.807-1.018-1.624-1.43-2.347
		c-0.603,2.479-2.09,5.436-3.571,7.044l-0.18,0.542C367.671,135.694,366.748,141.79,360.607,141.79z"/>
	<path d="M373.092,138.5c0.043,0.09,0.106,0.168,0.186,0.228c0.799,0.608,2.083,1.262,3.034,1.712
		c0.343-0.336,0.728-0.62,1.153-0.845c-0.824-0.372-2.374-1.104-3.292-1.76c-0.266-0.883-0.21-3.927-0.059-6.529
		c-0.406-0.521-0.797-1.076-1.169-1.645l0.02,0.109C372.857,131.166,372.443,137.136,373.092,138.5z"/>
	<path d="M375.093,145.462c-0.068-0.125-0.126-0.246-0.203-0.373c0.054-0.04,0.105-0.085,0.158-0.127
		c-0.081-0.583-0.106-1.134-0.062-1.643c-0.397,0.418-0.823,0.794-1.268,1.05c-0.151,0.087-0.26,0.233-0.298,0.403
		c-0.039,0.17-0.005,0.349,0.095,0.492c3.033,4.413-0.333,6.964-0.476,7.069c-0.134,0.097-0.225,0.243-0.251,0.406
		c-0.012,0.075-0.204,1.337,0.326,2.673c-0.847-0.708-0.893-1.783-0.895-1.949c0-0.24-0.144-0.462-0.36-0.566
		c-0.1-0.048-2.458-1.234-2.69-5.852v-0.01c0,0,0-0.001,0-0.001l-0.01-0.222c-0.018-0.342-0.295-0.603-0.651-0.591
		c-0.343,0.015-0.609,0.304-0.598,0.646l0.01,0.22c0.16,4.986-3.779,5.486-3.944,5.504c-0.217,0.022-0.406,0.156-0.5,0.353
		c-0.021,0.045-0.366,0.792-0.195,1.822c-0.133-0.126-0.246-0.269-0.342-0.428c-0.645-1.075-0.237-2.562-0.233-2.577
		c0.072-0.255-0.034-0.536-0.25-0.689c-0.019-0.013-0.444-0.322-0.512-1.031c-0.077-0.799,0.282-2.22,2.423-4.45
		c0.227-0.237,0.232-0.609,0.013-0.853c-0.221-0.244-0.591-0.273-0.85-0.072c-2.422,1.901-4.7,2.865-6.77,2.865
		c-0.618,0-1.064-0.087-1.359-0.145l-0.187-0.035c-0.21-0.034-0.424,0.041-0.567,0.198c-0.016,0.018-0.257,0.29-0.719,0.995
		c0.024-0.612,0.123-0.854,0.149-0.908c0.098-0.109,0.155-0.25,0.16-0.398c0.007-0.223,0.239-5.451,6.368-5.451
		c6.142,0,7.064-6.096,7.158-6.889l0.18-0.542c-0.53,0.576-1.06,0.977-1.547,1.123c-0.351,1.577-1.595,5.058-5.791,5.058
		c-6.577,0-7.483,5.315-7.601,6.451c-0.285,0.477-0.478,1.505-0.2,3.682c0.034,0.267,0.235,0.483,0.5,0.534
		c0.264,0.051,0.533-0.071,0.665-0.307c0.683-1.214,1.152-1.906,1.399-2.244c0.327,0.06,0.793,0.128,1.391,0.128
		c1.453,0,2.976-0.401,4.55-1.195c-0.494,0.952-0.696,1.833-0.604,2.635c0.09,0.781,0.437,1.296,0.711,1.59
		c-0.117,0.658-0.237,2.015,0.446,3.161c0.509,0.854,1.344,1.413,2.481,1.662c0.252,0.053,0.513-0.051,0.654-0.266
		c0.142-0.215,0.138-0.496-0.012-0.707c-0.571-0.808-0.54-1.53-0.463-1.907c0.896-0.211,2.997-0.94,4.041-3.252
		c0.726,1.996,1.859,2.954,2.427,3.33c0.143,1.269,1.025,3.226,3.675,3.438c0.017,0.001,0.033,0.002,0.05,0.002
		c0.249,0,0.476-0.148,0.575-0.379c0.105-0.247,0.041-0.534-0.16-0.712c-1.125-1.001-1.159-2.48-1.128-3.028
		c0.49-0.438,1.61-1.615,1.936-3.389C375.188,148.672,375.097,147.529,375.093,145.462z"/>
	<path fill="#EF7D00" d="M403.703,125.034c0.03,0,0.061,0,0.09,0c0.018-0.038,0.021-0.071,0.021-0.101
		c0.008-0.723-1.578-2.099-2.525-2.921c-1.115-0.967-1.567-1.38-1.567-1.892c0-0.248,0.146-0.473,0.374-0.573
		c0.081-0.035,0.166-0.052,0.251-0.052c0.154,0,0.307,0.057,0.424,0.166c1.204,1.112,7.464,6.657,12.437,6.657
		c0.773,0,1.48-0.14,2.106-0.416c0.182-0.288,0.256-0.519,0.222-0.689c-0.093-0.464-0.996-1.039-2.141-1.765
		c-2.028-1.288-5.093-3.235-8.308-7.271c-0.191-0.241-0.18-0.585,0.029-0.812c0.208-0.228,0.552-0.268,0.807-0.097
		c1.875,1.25,11.544,7.489,17.728,7.489c0.948,0,1.768-0.151,2.439-0.448c0.02-0.041,0.024-0.085,0.02-0.145
		c-0.107-1.278-3.879-4.141-7.207-6.667c-3.132-2.377-6.638-5.048-8.746-7.479c-0.646-0.252-1.105-0.517-1.27-0.779l0.081-0.051
		l-1.81-0.927c0.999,1.06,2.268,2.119,3.44,3.098c2.331,1.945,4.172,3.481,3.786,4.795c-0.057,0.195-0.227,0.336-0.43,0.357
		c-4.642,0.464-10.009-2.259-14.3-5.554c2.177,2.43,3.384,4.089,3.157,5.151c-0.081,0.378-0.41,1.012-1.711,1.012
		c-2.139,0-6.353-1.708-10.318-4.579c1.66,2.896,2.561,5.575,3.377,8.003c0.14,0.414,0.276,0.821,0.415,1.22
		c0.03,0.021,0.064,0.039,0.091,0.065C395.52,120.746,399.712,125.034,403.703,125.034z"/>
	<path d="M419.657,114.5c-0.604-0.458-1.222-0.93-1.841-1.405c-1.875-1.441-3.754-2.94-5.266-4.381
		c-0.925-0.21-1.754-0.447-2.396-0.697c2.108,2.431,5.614,5.102,8.746,7.479c3.328,2.526,7.1,5.388,7.207,6.667
		c0.005,0.06,0,0.104-0.02,0.145c-0.672,0.297-1.491,0.448-2.439,0.448c-6.184,0-15.853-6.238-17.728-7.489
		c-0.255-0.171-0.599-0.13-0.807,0.097c-0.209,0.227-0.221,0.571-0.029,0.812c3.215,4.037,6.279,5.983,8.308,7.271
		c1.145,0.727,2.048,1.301,2.141,1.765c0.034,0.17-0.04,0.401-0.222,0.689c-0.626,0.276-1.333,0.416-2.106,0.416
		c-4.973,0-11.232-5.545-12.437-6.657c-0.117-0.108-0.27-0.166-0.424-0.166c-0.085,0-0.17,0.017-0.251,0.052
		c-0.228,0.1-0.374,0.325-0.374,0.573c0,0.512,0.452,0.925,1.567,1.892c0.947,0.822,2.533,2.198,2.525,2.921
		c0,0.03-0.003,0.063-0.021,0.101c-0.029,0-0.06,0-0.09,0c-3.991,0-8.184-4.288-9.038-5.206c-0.026-0.026-0.061-0.043-0.091-0.065
		c0.34,0.984,0.69,1.91,1.087,2.752c2.043,1.764,5.246,3.939,8.459,3.756c0.133-0.008,0.259-0.059,0.361-0.144
		c0.376-0.313,0.578-0.722,0.582-1.182c0.002-0.141-0.016-0.283-0.049-0.425c2.48,1.597,5.479,3.046,8.191,3.046
		c1.026,0,1.969-0.205,2.803-0.61c0.096-0.046,0.178-0.117,0.238-0.204c0.455-0.65,0.623-1.234,0.514-1.786
		c-0.198-0.988-1.192-1.62-2.696-2.575c-1.279-0.812-2.986-1.896-4.876-3.63c4.075,2.353,9.992,5.244,14.461,5.244
		c1.201,0,2.249-0.213,3.116-0.634c0.068-0.033,0.13-0.079,0.183-0.134c0.303-0.324,0.443-0.731,0.406-1.179
		c-0.109-1.292-1.719-2.872-4.446-5.046C421.955,116.251,420.868,115.419,419.657,114.5z"/>
	<path d="M409.31,106.973l0.478-0.77l-4.953-2.539c0.249,0.176,0.491,0.345,0.72,0.498c0.069,0.047,0.126,0.11,0.164,0.185
		c0.325,0.625,0.833,1.269,1.439,1.913l1.81,0.927L409.31,106.973z"/>
	<path fill="#EF7D00" d="M390.809,85.788c1.422,0,2.517-0.147,2.792-0.188c0.109-0.05,0.232-0.132,0.274-0.185
		c-0.048-0.005-0.304-0.334-1.523-0.811c-0.532-0.126-1.073-0.31-1.532-0.52c-0.298-0.137-0.439-0.481-0.324-0.788
		s0.45-0.475,0.763-0.379c0.584,0.173,1.105,0.35,1.549,0.523c1.373,0.335,3.294,0.517,5.635,0.517c1.898,0,3.465-0.125,3.846-0.159
		c0.072-0.035,0.149-0.089,0.17-0.123c-0.001,0-0.001,0-0.001,0c-0.011,0-0.126-0.453-1.789-1.307
		c-1.424-0.345-2.444-0.792-3.118-1.364c-0.23-0.196-0.287-0.531-0.134-0.792c0.154-0.262,0.476-0.375,0.757-0.269
		c1.159,0.432,2.145,0.85,2.929,1.244c3.883,0.902,9.811,0.716,10.969,0.668c-0.143-0.289-0.827-1.189-4.111-3.022
		c-0.271-0.152-0.391-0.481-0.278-0.771s0.425-0.455,0.725-0.383c2.364,0.551,4.582,0.831,6.594,0.831
		c4.462,0,6.476-1.365,6.518-2.061c0.019-0.308-0.561-0.84-2.234-1.044c-0.408-0.001-0.849-0.031-1.241-0.083
		c-0.328-0.044-0.565-0.336-0.54-0.667c0.025-0.33,0.292-0.557,0.635-0.578c0.46,0.009,0.896,0.038,1.298,0.087l0.103-0.003
		c7.578,0,24.705-6.015,29.256-8.095c3.84-1.399,7.253-6.117,6.998-7.558c-0.019-0.11-0.078-0.241-0.532-0.23
		c-5.776,4.185-25.887,8.63-32.537,9.867c-0.621,0.213-1.59,0.549-2.723,0.94c-7.335,2.537-14.671,4.986-16.593,4.743
		c-4.062-0.301-7.871-0.456-11.29-0.456c-9.396,0-13.729,1.167-15.267,1.726c0.158,0.221,0.353,0.498,0.596,0.846
		c0.014,0.02,0.031,0.044,0.045,0.064c2.355,1.777,5.002,4.744,7.893,8.839c0.13,0.065,0.26,0.13,0.384,0.174
		C387.18,85.53,388.877,85.788,390.809,85.788z"/>
	<path d="M376.156,75.098c0.432,0.254,0.879,0.567,1.332,0.91c-0.014-0.02-0.031-0.044-0.045-0.064
		c-0.243-0.348-0.438-0.625-0.596-0.846c1.537-0.56,5.87-1.726,15.267-1.726c3.419,0,7.228,0.154,11.29,0.456
		c1.922,0.243,9.258-2.207,16.593-4.743c1.133-0.392,2.102-0.727,2.723-0.94c6.65-1.237,26.761-5.683,32.537-9.867
		c0.454-0.01,0.514,0.12,0.532,0.23c0.255,1.441-3.158,6.159-6.998,7.558c-4.551,2.08-21.678,8.095-29.256,8.095l-0.103,0.003
		c-0.401-0.049-0.838-0.078-1.298-0.087c-0.343,0.021-0.609,0.248-0.635,0.578c-0.025,0.331,0.212,0.623,0.54,0.667
		c0.393,0.052,0.833,0.082,1.241,0.083c1.674,0.205,2.253,0.736,2.234,1.044c-0.042,0.696-2.056,2.061-6.518,2.061
		c-2.012,0-4.229-0.28-6.594-0.831c-0.3-0.072-0.612,0.092-0.725,0.383s0.007,0.62,0.278,0.771c3.284,1.833,3.969,2.733,4.111,3.022
		c-1.158,0.047-7.086,0.234-10.969-0.668c-0.784-0.394-1.77-0.812-2.929-1.244c-0.281-0.106-0.603,0.007-0.757,0.269
		c-0.153,0.262-0.097,0.596,0.134,0.792c0.674,0.573,1.694,1.019,3.118,1.364c1.663,0.854,1.778,1.308,1.789,1.307c0,0,0,0,0.001,0
		c-0.021,0.034-0.098,0.088-0.17,0.123c-0.381,0.033-1.947,0.159-3.846,0.159c-2.341,0-4.262-0.182-5.635-0.517
		c-0.443-0.173-0.965-0.35-1.549-0.523c-0.312-0.095-0.647,0.072-0.763,0.379s0.026,0.651,0.324,0.788
		c0.459,0.21,1,0.393,1.532,0.52c1.22,0.477,1.476,0.805,1.523,0.811c-0.042,0.053-0.165,0.134-0.274,0.185
		c-0.275,0.041-1.37,0.188-2.792,0.188c-1.932,0-3.629-0.258-5.044-0.767c-0.124-0.044-0.254-0.109-0.384-0.174
		c0.226,0.318,0.447,0.622,0.675,0.955c0.048,0.069,0.077,0.149,0.085,0.233c0.013,0.123,0.068,0.277,0.149,0.449
		c1.338,0.363,2.847,0.555,4.519,0.555c1.751,0,3.011-0.206,3.063-0.215c0.039-0.007,0.077-0.017,0.113-0.03
		c0.116-0.042,1.129-0.441,1.138-1.323c0.002-0.145-0.023-0.282-0.072-0.412c1.018,0.1,2.149,0.15,3.391,0.15
		c0.664,0,1.275-0.015,1.821-0.036c-0.146-0.18-0.159-0.438-0.009-0.624c0.165-0.207,0.465-0.248,0.678-0.095
		c0.32,0.226,0.621,0.419,0.934,0.633c0.371-0.027,0.604-0.048,0.63-0.051c0.047-0.004,0.094-0.014,0.138-0.029
		c0.103-0.034,1.001-0.357,1.064-1.213c0.023-0.319-0.076-0.634-0.305-0.952c4.133,0.497,8.838,0.26,8.937,0.254
		c0.04-0.002,0.079-0.008,0.118-0.018c0.296-0.074,0.818-0.361,0.899-0.967c0.071-0.534-0.148-1.292-1.955-2.606
		c1.257,0.17,2.462,0.256,3.606,0.256c4.969,0,7.668-1.627,7.766-3.235c0.015-0.241-0.023-0.781-0.55-1.294
		c2.269-0.27,4.951-0.829,7.746-1.536l0.117-0.189l0.176-0.468c0.106,0.035,0.531,0.135,1.187,0.274
		c7.135-1.911,14.669-4.647,17.825-6.091c0.698-0.254,1.396-0.623,2.072-1.062c1.003-0.651,1.957-1.465,2.788-2.339
		c1.873-1.97,3.125-4.229,2.896-5.529c-0.157-0.896-0.887-1.375-2.064-1.243c-0.111,0.013-0.217,0.055-0.306,0.123
		c-5.38,4.071-25.526,8.511-32.242,9.767c-0.708,0.236-1.682,0.572-2.819,0.966c-4.742,1.641-13.569,4.693-15.855,4.693
		c-0.064,0-0.123-0.002-0.206-0.012c-4.124-0.307-7.964-0.462-11.413-0.462c-9.754,0-14.92,1.235-16.42,2.185
		C375.794,74.554,375.934,74.822,376.156,75.098z"/>
	<path fill="#EF7D00" d="M386.059,138.292c-0.019,0.033-0.47,0.804-0.877,1.279c-0.233,0.271-0.585,0.292-1.095,0.292l-0.546-0.006
		c-1.784-0.027-5.117-0.076-6.58,1.675c-0.696,0.833-0.908,2.036-0.63,3.578c0.007,0.037,0.01,0.074,0.01,0.111
		c0,2.021,0.023,2.954,0.579,3.801c-0.098-1.019-0.019-1.655-0.014-1.696c0.027-0.209,0.158-0.39,0.348-0.481
		c0.19-0.093,0.412-0.082,0.594,0.026c0.001,0,0.381,0.211,0.963,0.211c0.91,0,2.297-0.508,3.736-2.929
		c0.116-0.196,0.323-0.306,0.537-0.306c0.095,0,0.189,0.021,0.279,0.066c0.293,0.146,0.423,0.494,0.299,0.797
		c-1.558,3.79-0.769,5.296-0.472,5.493c0.161,0.046,0.238,0.132,0.317,0.28c0.182,0.337,0.19,0.777,0.201,1.335
		c0.024,1.233,0.121,2.153,0.952,2.551c-0.509-1.342-0.07-2.66-0.045-2.732c0.075-0.219,0.265-0.378,0.493-0.414
		c0.027-0.005,0.859-0.167,1.518-1.13c0.847-1.239,1.028-3.271,0.526-5.875c-0.04-0.204,0.024-0.414,0.171-0.561
		c0.557-0.556,1.104-0.838,1.625-0.838c0.784,0,1.245,0.617,1.394,0.981c0.022,0.054,0.037,0.113,0.043,0.171
		c0.014,0.12,0.338,2.931,2.364,2.931c0.227,0,0.473-0.034,0.731-0.099c0.154-0.041,0.318-0.019,0.46,0.06
		c0.494,0.277,0.811,0.699,0.915,1.223c0.112,0.557-0.038,1.15-0.252,1.655c0.56-0.212,1.159-0.624,1.438-1.417
		c1.235-3.498,0.538-5.689-2.13-6.7c-0.176-0.066-0.312-0.208-0.371-0.387c-0.233-0.7-0.046-1.195,0.152-1.488
		c0.574-0.848,1.881-0.948,2.027-0.957c0.079-0.004,0.158,0.005,0.234,0.031c0.2,0.066,1.476,0.508,2.53,1.254
		c-0.093-0.194-0.204-0.391-0.338-0.583c-0.48-0.686-1.106-1.093-1.86-1.209c-1.125-0.03-4.775-0.145-4.775-1.741
		c-0.004-0.12-0.092-1.482-0.217-3.322c-1.525-1.243-2.962-2.927-3.924-5.213c-0.3,1.521-0.862,3.172-1.532,4.495l0.303,5.441
		C386.15,138.065,386.12,138.187,386.059,138.292z"/>
	<path d="M391.296,133.22c0.125,1.84,0.213,3.202,0.217,3.322c0,1.597,3.65,1.711,4.775,1.741c0.754,0.116,1.38,0.523,1.86,1.209
		c0.134,0.192,0.245,0.389,0.338,0.583c-1.055-0.746-2.33-1.188-2.53-1.254c-0.076-0.026-0.155-0.035-0.234-0.031
		c-0.146,0.009-1.453,0.109-2.027,0.957c-0.198,0.292-0.386,0.788-0.152,1.488c0.06,0.178,0.195,0.32,0.371,0.387
		c2.668,1.011,3.365,3.202,2.13,6.7c-0.279,0.793-0.879,1.204-1.438,1.417c0.214-0.504,0.364-1.098,0.252-1.655
		c-0.104-0.523-0.421-0.946-0.915-1.223c-0.142-0.079-0.306-0.101-0.46-0.06c-0.259,0.065-0.505,0.099-0.731,0.099
		c-2.026,0-2.351-2.811-2.364-2.931c-0.006-0.058-0.021-0.117-0.043-0.171c-0.148-0.364-0.609-0.981-1.394-0.981
		c-0.521,0-1.068,0.282-1.625,0.838c-0.146,0.146-0.211,0.356-0.171,0.561c0.502,2.604,0.32,4.636-0.526,5.875
		c-0.658,0.963-1.49,1.125-1.518,1.13c-0.229,0.036-0.418,0.195-0.493,0.414c-0.025,0.073-0.464,1.39,0.045,2.732
		c-0.831-0.398-0.928-1.318-0.952-2.551c-0.011-0.558-0.02-0.998-0.201-1.335c-0.079-0.148-0.156-0.233-0.317-0.28
		c-0.297-0.196-1.086-1.703,0.472-5.493c0.124-0.303-0.006-0.65-0.299-0.797c-0.09-0.045-0.185-0.066-0.279-0.066
		c-0.214,0-0.421,0.11-0.537,0.306c-1.439,2.421-2.826,2.929-3.736,2.929c-0.582,0-0.962-0.211-0.963-0.211
		c-0.182-0.108-0.403-0.12-0.594-0.026c-0.189,0.091-0.32,0.272-0.348,0.481c-0.005,0.041-0.084,0.678,0.014,1.696
		c-0.556-0.847-0.579-1.78-0.579-3.801c0-0.037-0.003-0.074-0.01-0.111c-0.278-1.542-0.066-2.746,0.63-3.578
		c1.463-1.751,4.796-1.703,6.58-1.675l0.546,0.006c0.51,0,0.861-0.02,1.095-0.292c0.407-0.475,0.858-1.247,0.877-1.279
		c0.062-0.105,0.091-0.227,0.084-0.349l-0.303-5.441c-0.361,0.714-0.753,1.327-1.152,1.775l0.196,3.543
		c-0.118,0.192-0.328,0.525-0.531,0.79c-0.072,0.003-0.165,0.004-0.266,0.003l-0.525-0.006c-1.556-0.028-4.154-0.038-6.097,0.987
		c-0.426,0.225-0.811,0.508-1.153,0.845c-0.102,0.099-0.218,0.181-0.311,0.291c-0.588,0.704-0.927,1.571-1.015,2.589
		c-0.045,0.509-0.02,1.059,0.062,1.643c0.015,0.105,0.024,0.207,0.043,0.314c0,0.067,0.002,0.121,0.002,0.186
		c0.004,2.066,0.095,3.21,0.847,4.304c0.355,0.517,0.844,1.025,1.564,1.62c0.211,0.173,0.508,0.189,0.737,0.042
		c0.229-0.148,0.335-0.427,0.263-0.689c-0.28-1.028-0.362-1.893-0.378-2.472c0.801,0.153,2.075,0.12,3.476-1.021
		c-0.28,1.666-0.007,2.67,0.249,3.198c0.157,0.325,0.358,0.583,0.579,0.751c0.021,0.167,0.025,0.436,0.03,0.647
		c0.024,1.297,0.077,3.996,3.401,3.996c0.004,0,0.101-0.001,0.104-0.001c0.253-0.004,0.479-0.161,0.571-0.397
		s0.033-0.504-0.149-0.68c-0.843-0.807-0.764-1.9-0.663-2.421c0.473-0.172,1.259-0.578,1.902-1.496
		c1.04-1.483,1.314-3.674,0.817-6.518c0.29-0.236,0.454-0.258,0.505-0.258c0.094,0,0.169,0.094,0.208,0.155
		c0.185,1.427,1.142,3.928,3.593,3.928c0.241,0,0.492-0.025,0.749-0.073c0.087,0.088,0.117,0.177,0.132,0.251
		c0.108,0.539-0.395,1.438-0.737,1.878c-0.147,0.188-0.163,0.444-0.058,0.659c0.104,0.215,0.333,0.351,0.572,0.351
		c0.301,0,2.964-0.069,3.814-2.478c1.765-5.002-0.321-7.193-2.538-8.152c0.004-0.077,0.03-0.116,0.044-0.137
		c0.146-0.217,0.618-0.357,0.954-0.399c0.716,0.258,2.42,1.012,2.904,1.86c0.077,0.134,0.311,0.542,0.768,0.542
		c0.069,0,0.684-0.023,0.746-0.837c0.087-1.127-0.864-4.142-3.698-4.574c-2.779-0.087-3.494-0.503-3.646-0.626
		c-0.017-0.307-0.068-1.126-0.142-2.227C392.173,133.904,391.733,133.575,391.296,133.22z"/>
	<path fill="#EF7D00" d="M362.924,115.785l-4.659-14.657c-0.688-0.997-1.462-2.042-2.343-3.143
		c-6.465,5.338-10.18,3.371-10.339,3.283l-0.256-0.143v-0.293c-0.001-0.408,0.7-1.578,1.999-3.366
		c-2.349,1.594-6.361,4.023-12.916,7.88c-3.149,1.854-6.394,3.763-7.384,4.47c0.427,0.331,1.226,0.517,2.33,0.517
		c2.775,0,6.542-1.19,6.864-1.346c0.198-0.115,3.051-1.659,5.809-3.152c2.345-1.269,4.769-2.582,4.9-2.658
		c0.271-0.157,0.652-0.006,0.737,0.294c0.053,0.189-0.076,0.43-0.237,0.564l0.003,0.005c-0.007,0.004-0.02,0.011-0.036,0.021
		c-0.013,0.009-0.024,0.017-0.037,0.024c-6.783,4.123-10.138,6.736-10.47,7.49c0.039,0.083,0.055,0.175,0.045,0.269
		c-0.033,0.303,0.056,0.441,0.125,0.52c0.135,0.15,0.523,0.401,1.626,0.401c3.754,0,11.925-2.955,16.193-4.817
		c1.747-0.927,1.91-0.927,2.007-0.927c0.222,0,0.42,0.147,0.483,0.359c0.062,0.212-0.062,0.474-0.248,0.595
		c-0.35,0.228-1.305,0.655-1.843,0.89c-4.091,2.169-7.027,4.336-7.266,5.352c1.868,2.96,5.999,3.407,8.318,3.407
		c2.954,0,5.491-0.68,6.115-1.15c0.086-0.064,0.174-0.101,0.262-0.125c0.01-0.023,0.012-0.047,0.024-0.069
		C362.738,116.27,362.825,116.104,362.924,115.785z"/>
	<path fill="#EF7D00" d="M325.188,76.227l-0.609-0.272c-0.489,0.038-0.961,0.058-1.417,0.056l1.499,0.697
		C324.828,76.556,325.003,76.396,325.188,76.227z"/>
	<path fill="#EF7D00" d="M332.369,79.438l-1.211-0.542c-0.449,0.099-0.885,0.172-1.308,0.227l2.07,0.964
		C332.039,79.911,332.19,79.693,332.369,79.438z"/>
	<path fill="#EF7D00" d="M349.555,88.746c-7.249,7.46-13.59,9.233-17.628,9.233c-0.682,0-1.289-0.054-1.833-0.136
		c0.052,0.049,0.098,0.104,0.125,0.172c0.446,1.083-1.569,2.54-7.852,6.368c-1.674,1.02-3.699,2.254-4.39,2.828
		c0.734,0.489,1.904,0.742,3.472,0.742c3.937,0,8.732-1.576,9.118-1.783c6.167-3.451,17.903-10.343,18.703-11.573
		c0.039-0.21,0.211-0.378,0.432-0.404c0.04-0.005,0.076,0.004,0.114,0.008c0.576-0.73,1.2-1.506,1.876-2.335
		C350.78,90.801,350.091,89.76,349.555,88.746z"/>
	<path fill="#EF7D00" d="M343.713,84.771c-0.193,0.178-0.397,0.35-0.594,0.527l5.779,2.689c0.042-0.043,0.082-0.079,0.123-0.122
		c0.023-0.025,0.054-0.038,0.081-0.056c-1.308-2.993-1.209-5.682-0.752-7.798C347.374,81.224,345.815,82.979,343.713,84.771z"/>
	<path fill="#EF7D00" d="M317.156,72.636l-2.287-1.022c-1.087-0.277-2.228-0.633-3.376-1.034l5.019,2.335
		C316.711,72.836,316.926,72.746,317.156,72.636z"/>
	<path fill="#EF7D00" d="M327.084,95.865c0.04-0.081,0.102-0.149,0.178-0.197c3.058-1.96,6.131-4,9.048-6.147
		c-11.598,4.97-15.021,3.857-18.331,2.782c-0.64-0.208-1.244-0.404-1.906-0.553c-0.211-0.047-0.368-0.225-0.389-0.44
		c-0.021-0.215,0.1-0.419,0.298-0.506c3.203-1.397,4.563-2.337,8.2-4.852c0.185-0.127,0.375-0.258,0.571-0.394
		c-5.263,2.052-11.13,3.236-14.711,2.292c-0.243-0.064-0.401-0.298-0.369-0.547c0.028-0.22,0.196-0.391,0.408-0.428
		c0.35-0.137,1.854-1.107,3.834-2.431c-3.08,0.664-7.181,0.726-8.32,0.124c-0.514-0.272-0.517-0.67-0.494-0.828
		c0.038-0.258,0.271-0.437,0.528-0.428c0.504-0.118,2.459-2.013,4.834-4.541c-3.031,0.608-9.221,0.82-11.116-0.758
		c-0.145-0.121-0.209-0.312-0.167-0.496s0.184-0.328,0.366-0.374c2.128-0.532,4.887-2.959,6.512-4.544
		c-2.222,0.604-5.85,1.294-8.027,0.146c-0.901-0.475-1.482-1.213-1.728-2.194c-0.038-0.152-0.002-0.313,0.097-0.436
		c0.099-0.123,0.237-0.208,0.406-0.185c3.486,0.121,6.459-1.474,7.66-2.226c-2.555-1.175-4.406-2.146-4.608-2.252
		c-0.022-0.012-0.037-0.032-0.057-0.046c-0.069-0.007-0.139-0.026-0.2-0.062c-9.733-5.675-18.511-9.671-27.392-13.6
		c-3.043-1.136-6.034-3.009-8.438-4.514c-1.463-0.916-2.973-1.861-3.533-1.962c-1.661,4.058,9.348,15.056,11.591,16.433
		c1.087,0.64,6.197,3.079,10.706,5.23c5.438,2.596,7.438,3.55,8.17,4.01c0.039,0.018,0.08,0.037,0.12,0.055l-0.009,0.018
		c0.312,0.214,0.31,0.309,0.305,0.452c-0.008,0.199-0.135,0.378-0.32,0.451c-0.127,0.05-0.265,0.045-0.39-0.01
		c-24.873-11.29-29.95-13.731-31.465-15.187c-1.235-0.385-2.997-2.158-4.857-4.032c-1.342-1.351-3.144-3.165-3.921-3.417
		c-0.066,0.523,0.039,2.144,0.852,4.406c1.163,3.236,4.293,9.174,12.188,12.576c0.034,0.015,0.066,0.033,0.097,0.055
		c0.159,0.117,0.621,0.374,1.912,0.937l3.07,1.276c2.368,0.956,5.292,2.092,8.198,3.222c13.424,5.217,13.386,5.325,13.141,6.027
		c-0.069,0.2-0.265,0.336-0.477,0.337c-0.263,0-1.826-0.584-21.247-8.662c-1.187-0.479-2.241-0.916-3.085-1.283
		c-2.296-0.955-4.568-1.899-4.846-2.006c-2.9-1.138-6.097-3.733-8.666-5.819c-1.605-1.303-3.417-2.774-4.051-2.867
		c-0.224,1.145,3.357,8.04,8.377,10.357c0.574,0.253,1.492,0.683,2.668,1.233c2.377,1.113,5.97,2.794,9.925,4.507
		c3.352,1.333,6.405,2.54,8.437,3.342c1.061,0.419,1.737,0.687,2.167,0.877c0.117,0.042,0.233,0.083,0.35,0.123l-0.013,0.037
		c0.415,0.216,0.396,0.318,0.354,0.534c-0.056,0.293-0.394,0.474-0.677,0.372c-3.213-1.124-6.921-2.594-11.016-4.367
		c-6.912-2.749-12.125-4.856-15.48-6.258c-2.124-1.176-3.609-2.445-4.693-3.372c-0.454-0.388-0.957-0.818-1.24-0.983
		c-0.005,0.339,0.109,1.131,0.752,2.36c1.607,3.071,7.625,10.752,28.74,15.727l0.106,0.015c0.077,0,0.173-0.007,0.284-0.018
		c0.714-0.117,1.745-0.312,2.843-0.532c0.998-0.22,2.088-0.477,3.062-0.706c2.013-0.474,2.799-0.652,3.063-0.652
		c0.217,0,0.448,0.149,0.515,0.354c0.067,0.206-0.022,0.453-0.197,0.58c-0.273,0.201-6.188,1.392-6.247,1.404
		c-1.397,0.308-2.361,0.487-2.937,0.546c-0.703,0.115-0.955,0.128-1.081,0.128c-0.024,0-0.102-0.003-0.126-0.007
		c-0.042-0.006-0.103-0.008-0.176-0.008c-1.082,0-4.14,0.445-5.062,0.684c0.047,0.136,0.153,0.347,0.377,0.604
		c0.746,0.852,3.381,2.833,11.729,2.833c1.176,0,2.437-0.04,3.748-0.119c0.849-0.051,3.849-0.967,6.26-1.704
		c2.771-0.846,4.362-1.325,4.869-1.325c0.207,0,0.486,0.155,0.561,0.348c0.031,0.081,0.111,0.368-0.181,0.631
		c-0.654,0.592-14.335,4.876-15.103,4.941c-0.11,0.017-0.342,0.045-0.634,0.081c-2.42,0.298-3.945,0.549-4.549,0.747
		c0.691,0.809,4.089,3.054,10.733,3.462c0.255,0.014,0.522,0.02,0.798,0.02c5.318,0,13.609-2.439,17.149-3.48
		c1.435-0.422,1.704-0.498,1.875-0.498c0.197,0,0.394,0.121,0.475,0.3c0.08,0.179,0.045,0.398-0.086,0.546
		c-0.174,0.197-0.562,0.377-7.538,2.864c-2.494,0.889-5.321,1.896-5.613,2.053c-0.28,0.16-0.897,0.24-2.464,0.415
		c-0.738,0.083-1.767,0.197-2.32,0.304c0.678,0.776,3.468,2.808,9.977,2.808c4.673,0,10.17-1.056,16.34-3.137
		c0.207-0.07,0.436,0.002,0.564,0.179c0.129,0.177,0.128,0.417-0.002,0.592c-1.492,2.016-6.451,3.487-9.731,4.461
		c-0.727,0.215-1.523,0.452-1.98,0.616c0.611,0.64,2.406,2.043,5.084,2.639c1.528,0.341,3.823,0.32,6.116-0.042
		c3.562-0.713,7.62-2.063,13.009-7.044c0.045-0.042,0.101-0.063,0.156-0.085c-0.964-0.196-1.652-0.485-2.001-0.731
		C326.861,96.52,326.994,96.045,327.084,95.865z"/>
	<path fill="#EF7D00" d="M376.098,110.829l-13.231-3.474c2.52,6.23,0.832,9.254,0.726,9.433c-0.035,0.059-0.088,0.098-0.139,0.136
		c0.034,0.371-0.097,0.955-0.375,2.041c0.646-0.839,1.466-2.001,1.888-2.941c0.103-0.229,0.359-0.348,0.601-0.274
		c0.24,0.072,0.39,0.312,0.349,0.56c-0.131,0.796-0.476,1.781-0.875,2.921c-0.402,1.149-0.857,2.452-1.19,3.837
		c-0.284,1.184-0.48,2.435-0.688,3.76c-0.251,1.597-0.51,3.243-0.948,4.962c1.121-0.682,3.646-3.485,4.274-8.402
		c0.124-1.409,0.16-2.593,0.11-3.599c-0.015-0.239-0.033-0.485-0.057-0.735c-0.025-0.274,0.175-0.517,0.448-0.544
		c0.281-0.022,0.518,0.172,0.547,0.445c0.026,0.251,0.047,0.514,0.06,0.784c0.077,1.295,0.038,2.567-0.116,3.775
		c-0.2,2.281-0.597,4.764-0.916,6.759c-0.273,1.713-0.581,3.636-0.536,4.247c1.213-0.198,4.38-4.925,4.741-8.722
		c0.021-0.218,0.182-0.397,0.396-0.442c0.218-0.044,0.434,0.057,0.539,0.248c0.896,1.619,2.836,5.125,4.597,6.624
		c-0.016-0.302-0.027-0.566-0.038-0.804c-0.064-1.432-0.084-1.864-0.766-4.118c-0.021-0.068-0.026-0.14-0.018-0.21
		c0.49-3.731,0.591-8.748,0.706-14.557l0.026-1.304c-0.042-0.065-0.075-0.137-0.083-0.22
		C376.123,110.951,376.106,110.893,376.098,110.829z"/>
	<path fill="#EF7D00" d="M388.5,100.564c-0.036,0.249-0.25,0.429-0.494,0.429c-0.023,0-0.048-0.001-0.071-0.005
		c-0.273-0.039-0.464-0.292-0.425-0.566c0.021-0.143-0.001-0.481-0.053-0.954l-13.156-24.6c-2.182-2.144-2.99-4.5-3.031-4.622
		c-0.087-0.262,0.055-0.544,0.316-0.632c0.258-0.086,0.545,0.053,0.633,0.315c0.008,0.024,0.603,1.734,2.11,3.497
		c-1.217-3.133-1.3-5.691-0.218-7.615c1.266-2.251,3.619-2.756,4.311-2.857c0.701-0.078,1.226-0.096,1.674-0.111
		c0.373-0.012,0.682-0.022,0.983-0.065c-0.416-0.159-0.833-0.317-1.249-0.475l-0.643-0.243c-0.6-0.125-1.453-0.352-2.097-0.824
		c-0.202-0.149-0.264-0.424-0.143-0.645c0.121-0.219,0.388-0.315,0.621-0.225c0.657,0.258,1.315,0.509,1.974,0.758
		c0.267,0.052,0.616,0.115,0.967,0.179c1.55,0.279,3.152,0.568,3.908,1.754c0.315,0.493,0.449,1.085,0.402,1.792
		c1.018-0.734,2.143-2.079,1.966-3.422c-0.259-1.979-3.375-3.375-8.774-3.932c-0.126-0.013-0.242-0.074-0.325-0.169
		c-1.481-1.699-5.116-3.528-9.599-3.528c-4.131,0-14.06,1.72-17.432,17.59c0.024,0.023,0.049,0.046,0.075,0.07
		c0.26,0.243,0.583,0.544,1.435,1.18c0.207,0.154,0.263,0.44,0.129,0.66c-0.135,0.221-0.411,0.303-0.646,0.191
		c-5.135-2.481-18.042-4.485-24.976-5.562c-0.954-0.148-1.795-0.279-2.488-0.391c-8.763-2.524-17.598-6.981-24.048-10.236
		c-4.058-2.047-7.562-3.815-8.663-3.815c-0.08,0-0.11,0.011-0.11,0.011c-0.037,0.032-0.049,0.039-0.093,0.058
		c-0.171,0.905,4.37,5.788,6.309,7.873c1.82,1.958,2.498,2.709,2.712,3.126c0.011,0.004,0.022,0.004,0.032,0.009
		c0.135,0.072,13.565,7.124,19.117,6.635c0.204-0.021,0.413,0.099,0.5,0.293s0.042,0.422-0.112,0.568
		c-0.466,0.44-0.993,0.799-1.511,1.095l4.151,1.855c1.338,0.062,2.845-0.034,4.528-0.414c0.221-0.049,0.441,0.052,0.548,0.247
		c0.107,0.195,0.073,0.438-0.084,0.595c-0.41,0.41-0.854,0.833-1.282,1.231l3.309,1.479c1.538-0.171,3.286-0.614,5.096-1.559
		c0.208-0.107,0.468-0.057,0.618,0.126c0.15,0.184,0.151,0.447,0.002,0.631c-0.796,0.986-1.438,1.852-1.903,2.506l1.482,0.663
		l1.334,0.083c0.275,0.017,0.485,0.254,0.468,0.53c-0.017,0.265-0.236,0.469-0.499,0.469c-0.01,0-0.021,0-0.031-0.001l-1.023-0.064
		l7.034,3.273c0.425-0.337,0.844-0.676,1.23-1.013c2.035-1.895,3.874-3.876,5.431-5.96c0.077-0.103,0.187-0.164,0.304-0.188
		c0.08-0.228,0.158-0.446,0.23-0.645c0.187-0.511,0.418-1.146,0.395-1.318c-0.038-0.269,0.145-0.53,0.413-0.573
		c0.269-0.046,0.52,0.124,0.569,0.39c0.054,0.286-0.024,0.631-0.174,1.089l6.85,21.546c1.869,2.411,3.257,4.575,4.278,6.5
		c0.11-1.054,0.396-2.453,1.014-4.306c0.058-0.172,0.204-0.3,0.382-0.333c0.186-0.033,0.362,0.033,0.478,0.172
		c0.95,1.145,1.979,1.724,2.805,2.189c0.519,0.292,0.967,0.545,1.299,0.877c0.132,0.113,0.807,0.346,1.401,0.552
		c2.674,0.924,7.618,2.64,8.133,6.997c0.02,0.024,0.041,0.045,0.056,0.073c5.305,10.163,7.807,14.955,6.443,23.085
		c0.082-0.061,0.175-0.144,0.28-0.256c1.323-1.412,2.876-5.611,2.712-8.137c-0.017-0.26,0.168-0.489,0.426-0.527
		c0.024-0.003,0.05-0.005,0.073-0.005c0.229,0,0.434,0.158,0.487,0.387c1.684,7.237,7.951,9.478,10.227,9.878
		c-0.271-0.463-0.674-1.108-1.047-1.704c-2.9-4.634-5-8.26-3.51-9.284c0.111-0.076,0.251-0.105,0.384-0.078
		c0.755,0.155,1.555,0.811,2.48,1.569c1.162,0.952,2.5,2.04,3.563,1.874c-0.198-0.184-0.471-0.327-0.863-0.525
		c-1.024-0.518-2.428-1.227-3.922-3.897c-0.655-1.324-1.153-2.806-1.682-4.375c-1.026-3.054-2.189-6.513-4.862-10.27
		c-1.769-1.567-3.23-3.235-4.346-4.958c-0.138-0.212-0.095-0.494,0.101-0.656c0.194-0.162,0.479-0.153,0.663,0.021
		c1.65,1.561,3.107,3.215,4.329,4.919c4.601,4.046,9.923,6.201,12.005,6.201c0.417,0,0.704-0.086,0.732-0.22
		c0.204-0.959-2.82-4.2-5.029-6.566c-3.331-3.568-5.355-5.821-5.021-7.1c0.053-0.202,0.226-0.35,0.433-0.371
		c0.217-0.015,0.406,0.09,0.499,0.276c2.257,4.57,12.947,13.755,20.678,13.411c-0.3-0.806-2.019-2.241-3.436-3.424
		c-1.916-1.599-4.083-3.407-5.065-5.203c-3.927-2.667-14.31-11.285-18.224-16.148C387.406,92.527,388.649,99.52,388.5,100.564z
		 M366.852,58.887c-0.904-0.193-1.839-0.393-2.77-0.449l-1.401-0.085l1.14-0.819c2.103-1.512,3.932-2.278,5.437-2.278
		c2.141,0,3.092,1.598,3.092,2.206l-0.05,0.218c-0.525,1.083-1.423,1.61-2.742,1.61C368.734,59.289,367.82,59.094,366.852,58.887z
		 M380.814,109.091c-0.001-0.014-0.076-0.714-0.542-1.767l-1.31-2.169c-0.436-0.565-0.966-1.156-1.627-1.75
		c-3.468-3.122-4.353-7.128-4.389-7.297c-0.058-0.27,0.115-0.535,0.385-0.593c0.271-0.056,0.535,0.115,0.594,0.384
		c0.004,0.019,0.216,0.967,0.818,2.271l1.679,2.779c0.45,0.583,0.974,1.165,1.583,1.713c3.494,3.145,3.794,6.213,3.805,6.342
		c0.023,0.274-0.18,0.515-0.453,0.54c-0.016,0.001-0.03,0.002-0.045,0.002C381.056,109.545,380.838,109.35,380.814,109.091z"/>
	<path d="M251.821,72.875c4.965,3.854,12.08,7.007,21.116,9.369c-1.678,0.185-3.788,0.512-3.957,0.997
		c-0.146,0.389-0.018,0.917,0.353,1.45c0.728,1.049,3.424,3.49,12.729,3.49c0.993,0,2.045-0.028,3.135-0.083
		c-1.612,0.494-2.819,0.839-3.093,0.863c-0.135,0.019-0.359,0.047-0.644,0.082c-4.744,0.584-5.343,0.877-5.518,1.38
		c-0.077,0.248-0.013,0.524,0.192,0.821c0.915,1.327,4.866,3.585,11.575,3.999c2.664,0.139,6.224-0.436,9.604-1.191
		c-2.161,0.777-2.767,1.012-2.98,1.129c-0.218,0.082-1.294,0.201-2.081,0.289c-2.729,0.304-3.133,0.401-3.32,0.812
		c-0.111,0.26-0.054,0.563,0.17,0.901c0.775,1.173,4.055,3.393,10.917,3.393c3.99,0,8.554-0.747,13.601-2.225
		c-2.053,0.977-4.801,1.793-6.715,2.361c-2.468,0.733-2.912,0.865-2.893,1.334c-0.118,0.917,2.775,3.125,6.064,3.856
		c1.654,0.367,4.052,0.355,6.509-0.034c0.776-0.155,1.593-0.345,2.452-0.6c-1.697,1.082-2.185,1.517-2.236,1.925
		c-0.02,0.16,0.06,0.389,0.178,0.499c0.903,0.837,2.408,1.262,4.472,1.262c2.178,0,4.64-0.465,6.533-0.943
		c-2.35,1.456-2.273,1.611-2.065,2.037c0.535,0.853,1.692,1.286,3.439,1.286c3.011,0,6.965-1.25,7.351-1.473
		c0.076-0.044,0.555-0.305,1.263-0.689c-1.227,0.989-2.028,1.819-2.094,2.338c-0.018,0.143,0.001,0.28,0.052,0.402
		c-0.015,0.546,0.196,0.907,0.387,1.12c0.442,0.494,1.218,0.734,2.371,0.734c2.74,0,7.293-1.373,11.1-2.741
		c-1.615,1.173-2.777,2.347-2.788,3.302c-0.001,0.091,0.023,0.182,0.069,0.26c2.078,3.513,6.696,4.037,9.265,4.037
		c2.473,0,4.795-0.464,6.04-0.986c-0.08,0.372-0.196,0.823-0.28,1.149c-0.356,1.388-0.44,1.763-0.211,2.059
		c0.142,0.182,0.432,0.261,0.691,0.137v0c0.007-0.003,0.015-0.007,0.022-0.012c0.028-0.014,0.054-0.03,0.074-0.045l-0.002-0.003
		c0.236-0.18,0.687-0.684,1.188-1.327c-0.343,0.993-0.699,2.081-0.978,3.239c-0.294,1.223-0.493,2.493-0.704,3.838
		c-0.271,1.729-0.553,3.518-1.075,5.434c-0.043,0.302,0.062,0.499,0.159,0.609c0.133,0.153,0.329,0.238,0.554,0.238
		c0.82,0,2.562-1.328,3.929-3.865c-0.056,0.354-0.11,0.697-0.163,1.027c-0.643,4.021-0.726,4.841-0.231,5.211
		c0.19,0.144,0.421,0.219,0.664,0.219c0.126,0,0.256-0.024,0.389-0.064c0.487-0.146,1.017-0.546,1.547-1.123
		c1.481-1.609,2.969-4.565,3.571-7.044c0.412,0.723,0.901,1.54,1.43,2.347c0.372,0.568,0.763,1.124,1.169,1.645
		c0.821,1.054,1.69,1.946,2.532,2.351c0.071,0.034,0.147,0.042,0.227,0.049c0.33-0.003,0.51-0.221,0.51-0.5
		c0-0.061-0.011-0.12-0.03-0.174c-0.048-0.692-0.071-1.217-0.091-1.653c-0.064-1.426-0.089-1.973-0.776-4.26
		c0.472-3.664,0.579-8.488,0.69-14.061c5.08,9.814,6.727,14.001,5.316,21.407c-0.044,0.232,0.08,0.464,0.299,0.555
		c0.555,0.233,1.199,0.013,1.82-0.65c0.025-0.027,0.051-0.064,0.076-0.093c0.399-0.449,0.791-1.061,1.152-1.775
		c0.67-1.323,1.232-2.974,1.532-4.495c0.962,2.286,2.398,3.97,3.924,5.213c0.437,0.355,0.877,0.684,1.319,0.968
		c2.567,1.651,5.088,2.163,5.826,2.163c0.001,0,0.003,0,0.004,0c0.124,0,0.442-0.002,0.6-0.289c0.035-0.063,0.057-0.138,0.062-0.21
		c0.024-0.337-0.224-0.766-1.5-2.806c-2.764-4.416-4.072-7.02-3.897-7.756c0.495,0.223,1.142,0.753,1.771,1.269
		c1.212,0.993,2.585,2.117,3.973,2.117c0.442,0,0.86-0.115,1.244-0.341c0.217-0.128,0.305-0.396,0.206-0.627
		c-0.349-0.815-0.976-1.131-1.639-1.466c-0.96-0.485-2.154-1.089-3.487-3.471c-0.041-0.082-0.076-0.172-0.116-0.256
		c-0.396-0.842-0.747-1.768-1.087-2.752c-0.139-0.399-0.275-0.806-0.415-1.22c-0.816-2.428-1.717-5.106-3.377-8.003
		c3.966,2.871,8.18,4.579,10.318,4.579c1.301,0,1.63-0.634,1.711-1.012c0.227-1.062-0.98-2.721-3.157-5.151
		c4.291,3.295,9.658,6.019,14.3,5.554c0.203-0.021,0.373-0.162,0.43-0.357c0.386-1.313-1.455-2.85-3.786-4.795
		c-1.173-0.979-2.441-2.038-3.44-3.098c-0.606-0.644-1.114-1.288-1.439-1.913c-0.038-0.074-0.095-0.138-0.164-0.185
		c-0.229-0.153-0.471-0.322-0.72-0.498c-5.87-4.142-17.142-14.194-18.544-17.181c-0.081-0.172-0.137-0.326-0.149-0.449
		c-0.008-0.083-0.037-0.164-0.085-0.233c-0.228-0.333-0.449-0.636-0.675-0.955c-2.891-4.095-5.537-7.062-7.893-8.839
		c-0.453-0.342-0.9-0.655-1.332-0.91c-0.223-0.276-0.362-0.544-0.462-0.792c-0.089-0.222-0.146-0.427-0.192-0.602
		c-0.006-0.023-0.037-0.132-0.047-0.154c-1.298-3.061-1.457-5.5-0.473-7.25c1.043-1.854,3.007-2.273,3.567-2.355
		c0.651-0.073,1.151-0.089,1.579-0.103c0.922-0.03,1.589-0.052,2.664-0.573c0.094-0.045,0.169-0.118,0.218-0.205
		c0.236,0.146,0.43,0.319,0.564,0.532c0.305,0.477,0.335,1.154,0.095,2.072c-0.048,0.181,0.01,0.374,0.149,0.499
		c0.139,0.125,0.338,0.163,0.512,0.095c1.4-0.533,3.751-2.647,3.447-4.965c-0.332-2.529-3.519-4.136-9.472-4.776
		c-2.063-2.233-6.135-3.722-10.219-3.722c-4.399,0-15.008,1.819-18.471,18.669c-0.009,0.045-0.012,0.091-0.009,0.136
		c-6.141-2.081-16.724-3.724-22.781-4.665c-0.952-0.147-1.791-0.278-2.423-0.376c-8.614-2.485-17.4-6.918-23.816-10.155
		c-4.682-2.362-7.774-3.922-9.113-3.922c-0.272,0-0.497,0.062-0.671,0.185c-0.244,0.129-0.408,0.348-0.465,0.622
		c-0.259,1.266,1.893,3.852,6.509,8.816c0.326,0.351,0.665,0.715,0.985,1.063c-8.882-5.022-17.009-8.714-25.247-12.356
		c-2.975-1.112-5.919-2.955-8.285-4.436c-2.228-1.395-3.425-2.123-4.151-2.123c-0.405,0-0.61,0.216-0.73,0.406
		c-2.042,4.23,6.533,13.32,10.39,16.702c-7.31-3.427-9.471-4.637-10.242-5.441c-0.068-0.071-0.155-0.12-0.251-0.142
		c-0.957-0.216-2.849-2.121-4.518-3.801c-2.544-2.562-4.081-4.012-5.096-3.697c-0.076,0.024-0.145,0.065-0.201,0.121
		c-0.52,0.51-0.319,2.079-0.153,2.969c0.243,1.3,1.462,6.436,6.132,10.969c-1.244-0.915-2.453-1.897-3.545-2.784
		c-2.505-2.034-3.854-3.096-4.74-3.096c-0.196,0-0.371,0.051-0.509,0.144c-0.218,0.14-0.468,0.443-0.423,1.098
		c0.139,2.012,3.016,6.935,6.815,9.744c-0.1-0.042-0.199-0.083-0.295-0.123c-1.986-1.103-3.427-2.334-4.479-3.233
		c-0.974-0.833-1.511-1.292-2.035-1.292c-0.212,0-0.404,0.077-0.481,0.165c-0.435,0.287-0.411,0.99-0.315,1.529
		C245.64,65.434,246.593,68.815,251.821,72.875z M376.677,75.515c3.656,2.351,9.078,9.699,9.517,11.016
		c0.082,0.306,0.257,1.135,0.475,2.242c3.914,4.864,14.297,13.481,18.224,16.148c0.982,1.796,3.149,3.604,5.065,5.203
		c1.417,1.183,3.136,2.618,3.436,3.424c-7.73,0.344-18.421-8.841-20.678-13.411c-0.093-0.187-0.282-0.291-0.499-0.276
		c-0.207,0.021-0.38,0.169-0.433,0.371c-0.335,1.279,1.689,3.532,5.021,7.1c2.209,2.366,5.233,5.607,5.029,6.566
		c-0.028,0.134-0.315,0.22-0.732,0.22c-2.082,0-7.404-2.155-12.005-6.201c-1.222-1.704-2.679-3.358-4.329-4.919
		c-0.185-0.174-0.469-0.183-0.663-0.021c-0.195,0.162-0.238,0.443-0.101,0.656c1.115,1.724,2.577,3.392,4.346,4.958
		c2.673,3.757,3.836,7.216,4.862,10.27c0.528,1.569,1.026,3.052,1.682,4.375c1.494,2.671,2.897,3.38,3.922,3.897
		c0.393,0.198,0.665,0.342,0.863,0.525c-1.063,0.166-2.401-0.922-3.563-1.874c-0.926-0.759-1.726-1.414-2.48-1.569
		c-0.133-0.027-0.272,0.001-0.384,0.078c-1.49,1.023,0.609,4.649,3.51,9.284c0.373,0.596,0.776,1.241,1.047,1.704
		c-2.275-0.4-8.543-2.641-10.227-9.878c-0.054-0.229-0.258-0.387-0.487-0.387c-0.023,0-0.049,0.002-0.073,0.005
		c-0.258,0.038-0.442,0.267-0.426,0.527c0.164,2.526-1.389,6.725-2.712,8.137c-0.105,0.113-0.198,0.196-0.28,0.256
		c1.363-8.13-1.139-12.923-6.443-23.085c-0.015-0.028-0.036-0.049-0.056-0.073c0.006,0.046,0.018,0.089,0.022,0.136
		c0.025,0.275-0.176,0.519-0.451,0.545c-0.016,0.002-0.031,0.002-0.048,0.002c-0.174,0-0.324-0.094-0.414-0.233l-0.026,1.304
		c-0.115,5.809-0.216,10.826-0.706,14.557c-0.009,0.07-0.003,0.142,0.018,0.21c0.682,2.253,0.701,2.686,0.766,4.118
		c0.011,0.238,0.022,0.502,0.038,0.804c-1.761-1.5-3.701-5.005-4.597-6.624c-0.105-0.191-0.321-0.292-0.539-0.248
		c-0.215,0.045-0.375,0.224-0.396,0.442c-0.361,3.797-3.528,8.523-4.741,8.722c-0.045-0.611,0.263-2.534,0.536-4.247
		c0.319-1.996,0.716-4.479,0.916-6.759c0.154-1.208,0.193-2.48,0.116-3.775c-0.013-0.271-0.033-0.533-0.06-0.784
		c-0.029-0.273-0.266-0.468-0.547-0.445c-0.273,0.027-0.474,0.27-0.448,0.544c0.023,0.25,0.042,0.497,0.057,0.735
		c0.05,1.006,0.014,2.19-0.11,3.599c-0.628,4.917-3.153,7.721-4.274,8.402c0.438-1.72,0.697-3.366,0.948-4.962
		c0.208-1.325,0.404-2.576,0.688-3.76c0.333-1.386,0.788-2.688,1.19-3.837c0.399-1.14,0.744-2.125,0.875-2.921
		c0.041-0.248-0.108-0.488-0.349-0.56c-0.241-0.074-0.498,0.044-0.601,0.274c-0.422,0.94-1.241,2.102-1.888,2.941
		c0.278-1.086,0.409-1.669,0.375-2.041c-0.087,0.064-0.185,0.109-0.291,0.109c-0.087,0-0.175-0.022-0.255-0.07
		c-0.216-0.127-0.291-0.391-0.199-0.616c-0.088,0.024-0.176,0.061-0.262,0.125c-0.624,0.47-3.161,1.15-6.115,1.15
		c-2.319,0-6.45-0.447-8.318-3.407c0.238-1.015,3.175-3.182,7.266-5.352c0.538-0.234,1.493-0.662,1.843-0.89
		c0.186-0.121,0.311-0.382,0.248-0.595c-0.063-0.212-0.262-0.359-0.483-0.359c-0.097,0-0.26,0-2.007,0.927
		c-4.269,1.862-12.439,4.817-16.193,4.817c-1.103,0-1.491-0.251-1.626-0.401c-0.069-0.078-0.158-0.217-0.125-0.52
		c0.01-0.093-0.006-0.186-0.045-0.269c0.332-0.754,3.687-3.367,10.47-7.49c0.013-0.008,0.024-0.016,0.037-0.024
		c0.017-0.01,0.029-0.017,0.036-0.021l-0.003-0.005c0.161-0.135,0.29-0.375,0.237-0.564c-0.085-0.301-0.467-0.452-0.737-0.294
		c-0.132,0.076-2.556,1.389-4.9,2.658c-2.758,1.494-5.61,3.038-5.809,3.152c-0.322,0.156-4.089,1.346-6.864,1.346
		c-1.104,0-1.903-0.186-2.33-0.517c0.99-0.707,4.234-2.616,7.384-4.47c6.555-3.857,10.567-6.286,12.916-7.88
		c0.672-0.927,1.508-2.022,2.49-3.266c-0.038-0.004-0.074-0.013-0.114-0.008c-0.221,0.026-0.393,0.194-0.432,0.404
		c-0.8,1.23-12.536,8.123-18.703,11.573c-0.386,0.207-5.182,1.783-9.118,1.783c-1.567,0-2.737-0.253-3.472-0.742
		c0.69-0.574,2.716-1.809,4.39-2.828c6.282-3.828,8.298-5.285,7.852-6.368c-0.027-0.068-0.073-0.124-0.125-0.172
		c-0.182-0.027-0.356-0.056-0.521-0.089c-0.056,0.022-0.111,0.043-0.156,0.085c-5.389,4.98-9.446,6.331-13.009,7.044
		c-2.293,0.362-4.588,0.382-6.116,0.042c-2.678-0.596-4.473-1.999-5.084-2.639c0.457-0.164,1.254-0.401,1.98-0.616
		c3.28-0.974,8.239-2.446,9.731-4.461c0.13-0.175,0.131-0.415,0.002-0.592c-0.129-0.177-0.357-0.25-0.564-0.179
		c-6.17,2.082-11.667,3.137-16.34,3.137c-6.509,0-9.299-2.032-9.977-2.808c0.554-0.107,1.582-0.222,2.32-0.304
		c1.566-0.174,2.184-0.254,2.464-0.415c0.292-0.157,3.119-1.164,5.613-2.053c6.977-2.487,7.364-2.667,7.538-2.864
		c0.131-0.147,0.166-0.367,0.086-0.546c-0.081-0.179-0.277-0.3-0.475-0.3c-0.171,0-0.44,0.075-1.875,0.498
		c-3.54,1.042-11.831,3.48-17.149,3.48c-0.275,0-0.543-0.006-0.798-0.02c-6.645-0.409-10.042-2.654-10.733-3.462
		c0.604-0.198,2.129-0.448,4.549-0.747c0.292-0.036,0.523-0.064,0.634-0.081c0.768-0.064,14.448-4.349,15.103-4.941
		c0.292-0.264,0.212-0.55,0.181-0.631c-0.074-0.193-0.354-0.348-0.561-0.348c-0.507,0-2.099,0.479-4.869,1.325
		c-2.411,0.736-5.411,1.652-6.26,1.704c-1.312,0.079-2.572,0.119-3.748,0.119c-8.349,0-10.983-1.981-11.729-2.833
		c-0.224-0.257-0.33-0.467-0.377-0.604c0.922-0.239,3.979-0.684,5.062-0.684c0.073,0,0.134,0.001,0.176,0.008
		c0.024,0.004,0.102,0.007,0.126,0.007c0.126,0,0.378-0.014,1.081-0.128c0.575-0.059,1.539-0.238,2.937-0.546
		c0.06-0.012,5.974-1.203,6.247-1.404c0.175-0.127,0.265-0.374,0.197-0.58c-0.066-0.206-0.298-0.354-0.515-0.354
		c-0.265,0-1.051,0.179-3.063,0.652c-0.975,0.229-2.064,0.486-3.062,0.706c-1.098,0.22-2.129,0.416-2.843,0.532
		c-0.111,0.011-0.207,0.018-0.284,0.018l-0.106-0.015c-21.115-4.974-27.133-12.655-28.74-15.727
		c-0.643-1.229-0.757-2.021-0.752-2.36c0.283,0.166,0.786,0.596,1.24,0.983c1.084,0.927,2.569,2.196,4.693,3.372
		c3.355,1.402,8.568,3.509,15.48,6.258c4.095,1.773,7.803,3.243,11.016,4.367c0.283,0.103,0.621-0.079,0.677-0.372
		c0.041-0.215,0.061-0.317-0.354-0.534l0.013-0.037c-0.116-0.041-0.232-0.082-0.35-0.123c-0.43-0.19-1.106-0.458-2.167-0.877
		c-2.031-0.803-5.085-2.009-8.437-3.342c-3.955-1.712-7.548-3.394-9.925-4.507c-1.177-0.55-2.094-0.98-2.668-1.233
		c-5.02-2.317-8.601-9.212-8.377-10.357c0.634,0.093,2.446,1.564,4.051,2.867c2.569,2.085,5.765,4.681,8.666,5.819
		c0.277,0.107,2.55,1.051,4.846,2.006c0.844,0.368,1.898,0.805,3.085,1.283c19.421,8.078,20.984,8.662,21.247,8.662
		c0.212,0,0.407-0.137,0.477-0.337c0.245-0.702,0.283-0.81-13.141-6.027c-2.906-1.129-5.83-2.266-8.198-3.222l-3.07-1.276
		c-1.291-0.563-1.753-0.82-1.912-0.937c-0.03-0.021-0.062-0.04-0.097-0.055c-7.895-3.402-11.024-9.339-12.188-12.576
		c-0.813-2.262-0.918-3.883-0.852-4.406c0.777,0.252,2.58,2.066,3.921,3.417c1.861,1.874,3.622,3.647,4.857,4.032
		c1.515,1.456,6.592,3.897,31.465,15.187c0.125,0.055,0.263,0.06,0.39,0.01c0.186-0.072,0.312-0.251,0.32-0.451
		c0.005-0.143,0.008-0.238-0.305-0.452l0.009-0.018c-0.04-0.018-0.081-0.037-0.12-0.055c-0.731-0.459-2.731-1.414-8.17-4.01
		c-4.509-2.152-9.619-4.591-10.706-5.23c-2.243-1.377-13.252-12.375-11.591-16.433c0.561,0.101,2.07,1.046,3.533,1.962
		c2.404,1.505,5.396,3.377,8.438,4.514c8.881,3.928,17.658,7.924,27.392,13.6c0.062,0.036,0.131,0.055,0.2,0.062
		c-0.196-0.144-0.27-0.408-0.152-0.629c0.124-0.235,0.408-0.323,0.644-0.218c-0.214-0.417-0.892-1.168-2.712-3.126
		c-1.938-2.085-6.479-6.968-6.309-7.873c0.044-0.02,0.056-0.026,0.093-0.058c0,0,0.03-0.011,0.11-0.011
		c1.102,0,4.605,1.768,8.663,3.815c6.45,3.254,15.285,7.711,24.048,10.236c0.693,0.112,1.534,0.243,2.488,0.391
		c6.934,1.077,19.841,3.081,24.976,5.562c0.234,0.112,0.511,0.03,0.646-0.191c0.134-0.22,0.078-0.506-0.129-0.66
		c-0.852-0.636-1.175-0.938-1.435-1.18c-0.026-0.024-0.051-0.047-0.075-0.07c3.372-15.871,13.301-17.59,17.432-17.59
		c4.482,0,8.117,1.829,9.599,3.528c0.083,0.095,0.199,0.156,0.325,0.169c5.399,0.557,8.516,1.953,8.774,3.932
		c0.177,1.344-0.948,2.688-1.966,3.422c0.047-0.707-0.087-1.299-0.402-1.792c-0.756-1.186-2.358-1.475-3.908-1.754
		c-0.351-0.063-0.7-0.126-0.967-0.179c-0.658-0.25-1.316-0.5-1.974-0.758c-0.233-0.09-0.5,0.005-0.621,0.225
		c-0.121,0.22-0.06,0.496,0.143,0.645c0.644,0.472,1.497,0.7,2.097,0.824l0.643,0.243c0.416,0.158,0.833,0.315,1.249,0.475
		c-0.302,0.042-0.61,0.053-0.983,0.065c-0.448,0.015-0.973,0.033-1.674,0.111c-0.691,0.101-3.045,0.605-4.311,2.857
		c-1.082,1.924-0.999,4.482,0.218,7.615C374.95,74.152,375.722,74.886,376.677,75.515z"/>
	<path fill="#EF7D00" d="M331.574,81.072c-0.08-0.157-0.071-0.345,0.022-0.495c0.014-0.021,0.127-0.199,0.324-0.491l-2.07-0.964
		c-2.831,0.368-5.021-0.149-5.855-0.4c-0.024,0.026-0.044,0.056-0.074,0.077c-7.323,5.107-10.701,7.337-12.287,8.312
		c4.763,0.452,13.104-1.91,18.938-5.506c0.231-0.143,0.535-0.074,0.684,0.156c0.147,0.229,0.083,0.535-0.144,0.686
		c-2.77,1.846-4.777,3.234-6.36,4.328c-3.185,2.201-4.651,3.215-7.103,4.372c0.216,0.067,0.429,0.136,0.639,0.205
		c3.173,1.031,6.454,2.097,18.022-2.919c2.188-1.037,4.107-2.317,5.756-3.625l-7.034-3.273l-3.043-0.19
		C331.813,81.333,331.655,81.229,331.574,81.072z"/>
	<path fill="#EF7D00" d="M324.66,76.707l-1.499-0.697c-3.496-0.017-6.003-1.089-7.254-1.635l-0.078-0.033
		c-0.484,0.611-1.635,2.021-2.717,3.042c-2.396,2.65-5.019,5.387-6.537,6.457c1.995,0.346,8.354-0.04,9.863-1.417
		c1.879-1.716,6.308-4.125,6.894-4.44c0.027-0.086,0.075-0.166,0.146-0.228C323.488,77.748,323.989,77.314,324.66,76.707z"/>
	<path fill="#EF7D00" d="M316.512,72.915l-5.019-2.335c-2.057-0.718-4.131-1.579-5.95-2.391c-0.604,0.432-3.871,2.632-8.026,2.741
		c0.219,0.391,0.543,0.697,0.979,0.928c2.846,1.5,9.065-0.776,9.128-0.798c0.213-0.08,0.458-0.002,0.588,0.188
		c0.129,0.19,0.111,0.444-0.043,0.615c-0.177,0.196-3.948,4.345-7.245,5.841c2.792,0.889,9.32,0.448,10.516-0.255
		c0.255-0.15,0.559-0.395,0.883-0.695c0.987-1.087,1.999-2.227,2.974-3.352c0.062-0.071,0.143-0.113,0.227-0.14
		c0.01-0.003,0.015-0.014,0.025-0.016C315.558,73.244,315.955,73.136,316.512,72.915z"/>
	<path fill="#EF7D00" d="M328.21,96.247c0.367,0.231,1.179,0.571,2.483,0.712c2.598,0.278,9.562-0.045,18.205-8.972l-5.779-2.689
		C338.674,89.287,333.436,92.888,328.21,96.247z"/>
	<path d="M349.555,88.746c-0.167-0.316-0.316-0.628-0.452-0.937c-0.027,0.019-0.058,0.031-0.081,0.056
		c-0.041,0.043-0.081,0.079-0.123,0.122c-8.643,8.927-15.607,9.25-18.205,8.972c-1.305-0.141-2.116-0.481-2.483-0.712
		c5.226-3.359,10.464-6.96,14.909-10.949c0.196-0.177,0.4-0.349,0.594-0.527c2.102-1.792,3.661-3.547,4.638-4.76
		c0.193-0.897,0.444-1.694,0.68-2.364c-0.117,0.023-0.227,0.085-0.304,0.188c-1.557,2.084-3.396,4.065-5.431,5.96
		c-0.387,0.337-0.806,0.675-1.23,1.013c-1.648,1.307-3.567,2.588-5.756,3.625c-11.568,5.017-14.85,3.95-18.022,2.919
		c-0.21-0.068-0.423-0.137-0.639-0.205c2.451-1.157,3.918-2.171,7.103-4.372c1.583-1.094,3.591-2.482,6.36-4.328
		c0.227-0.151,0.291-0.457,0.144-0.686c-0.148-0.229-0.452-0.299-0.684-0.156c-5.833,3.596-14.175,5.958-18.938,5.506
		c1.586-0.974,4.964-3.205,12.287-8.312c0.03-0.021,0.05-0.05,0.074-0.077c-0.204-0.062-0.337-0.108-0.367-0.12
		c-0.165-0.062-0.284-0.207-0.315-0.38c-0.015-0.081-0.005-0.162,0.02-0.238c-0.586,0.315-5.015,2.724-6.894,4.44
		c-1.51,1.377-7.868,1.764-9.863,1.417c1.519-1.07,4.142-3.807,6.537-6.457c1.082-1.021,2.232-2.432,2.717-3.042l-0.346-0.149
		c-0.198-0.082-0.322-0.282-0.309-0.496c0.014-0.204,0.155-0.371,0.348-0.434c-0.084,0.027-0.164,0.069-0.227,0.14
		c-0.975,1.125-1.986,2.265-2.974,3.352c-0.324,0.3-0.628,0.545-0.883,0.695c-1.195,0.703-7.724,1.144-10.516,0.255
		c3.297-1.496,7.068-5.645,7.245-5.841c0.154-0.171,0.172-0.425,0.043-0.615c-0.13-0.191-0.375-0.268-0.588-0.188
		c-0.062,0.022-6.282,2.298-9.128,0.798c-0.437-0.23-0.761-0.537-0.979-0.928c4.155-0.109,7.423-2.309,8.026-2.741
		c-0.371-0.165-0.729-0.328-1.077-0.487c-1.201,0.752-4.174,2.347-7.66,2.226c-0.169-0.023-0.308,0.062-0.406,0.185
		c-0.099,0.122-0.135,0.283-0.097,0.436c0.245,0.98,0.826,1.719,1.728,2.194c2.178,1.149,5.806,0.459,8.027-0.146
		c-1.625,1.585-4.384,4.012-6.512,4.544c-0.183,0.045-0.324,0.19-0.366,0.374s0.022,0.375,0.167,0.496
		c1.896,1.578,8.085,1.367,11.116,0.758c-2.375,2.528-4.33,4.423-4.834,4.541c-0.257-0.008-0.49,0.17-0.528,0.428
		c-0.022,0.158-0.02,0.556,0.494,0.828c1.14,0.602,5.24,0.54,8.32-0.124c-1.979,1.324-3.484,2.294-3.834,2.431
		c-0.212,0.038-0.38,0.208-0.408,0.428c-0.032,0.249,0.126,0.483,0.369,0.547c3.581,0.944,9.448-0.24,14.711-2.292
		c-0.196,0.136-0.387,0.267-0.571,0.394c-3.637,2.514-4.997,3.455-8.2,4.852c-0.198,0.087-0.318,0.291-0.298,0.506
		c0.021,0.215,0.178,0.393,0.389,0.44c0.662,0.148,1.267,0.345,1.906,0.553c3.31,1.075,6.733,2.188,18.331-2.782
		c-2.917,2.148-5.99,4.188-9.048,6.147c-0.076,0.048-0.138,0.117-0.178,0.197c-0.09,0.18-0.224,0.655,0.488,1.157
		c0.349,0.247,1.037,0.536,2.001,0.731c0.164,0.033,0.339,0.062,0.521,0.089c0.544,0.082,1.151,0.136,1.833,0.136
		C335.965,97.979,342.306,96.206,349.555,88.746z"/>
	<path fill="#EF7D00" d="M374.743,98.169c0.385,0.832,0.928,1.806,1.679,2.779L374.743,98.169z"/>
	<path fill="#EF7D00" d="M380.272,107.324c-0.275-0.623-0.693-1.369-1.31-2.169L380.272,107.324z"/>
	<path d="M381.81,109.004c-0.011-0.129-0.311-3.198-3.805-6.342c-0.609-0.548-1.133-1.13-1.583-1.713
		c-0.751-0.973-1.294-1.947-1.679-2.779c-0.603-1.303-0.814-2.251-0.818-2.271c-0.059-0.27-0.322-0.44-0.594-0.384
		c-0.27,0.058-0.442,0.323-0.385,0.593c0.036,0.169,0.921,4.175,4.389,7.297c0.661,0.595,1.191,1.185,1.627,1.75
		c0.616,0.8,1.034,1.546,1.31,2.169c0.466,1.052,0.541,1.753,0.542,1.767c0.024,0.259,0.242,0.455,0.498,0.455
		c0.015,0,0.029,0,0.045-0.002C381.63,109.519,381.833,109.278,381.81,109.004z"/>
	<path fill="#EF7D00" d="M387.457,99.469c-0.32-2.934-1.842-11.226-2.222-12.652c-0.395-1.183-5.677-8.261-9.104-10.464
		c-0.697-0.459-1.303-0.965-1.83-1.484L387.457,99.469z"/>
	<path d="M374.329,73.427c-1.508-1.762-2.103-3.472-2.11-3.497c-0.088-0.262-0.375-0.401-0.633-0.315
		c-0.262,0.087-0.403,0.37-0.316,0.632c0.041,0.122,0.85,2.478,3.031,4.622c0.527,0.519,1.133,1.025,1.83,1.484
		c3.428,2.203,8.71,9.282,9.104,10.464c0.38,1.426,1.901,9.718,2.222,12.652c0.052,0.472,0.073,0.811,0.053,0.954
		c-0.039,0.273,0.151,0.527,0.425,0.566c0.023,0.003,0.048,0.005,0.071,0.005c0.244,0,0.458-0.18,0.494-0.429
		c0.148-1.045-1.094-8.038-1.832-11.791c-0.218-1.107-0.393-1.936-0.475-2.242c-0.438-1.317-5.86-8.666-9.517-11.016
		C375.722,74.886,374.95,74.152,374.329,73.427z"/>
	<path fill="#EF7D00" d="M358.265,101.128l4.659,14.657C363.379,114.321,364.079,109.559,358.265,101.128z"/>
	<path fill="#EF7D00" d="M352.721,91.521l0.285,0.319l-0.271,0.331c-4.47,5.456-5.832,7.606-6.242,8.37
		c1.09,0.285,4.274,0.552,9.173-3.646l0.39-0.334l0.323,0.398c0.325,0.399,0.636,0.792,0.936,1.178l-6.85-21.546
		c-0.073,0.223-0.158,0.464-0.264,0.754C349.173,80.166,347.26,85.417,352.721,91.521z"/>
	<path d="M362.866,107.355l-0.092-0.024c-0.031,0.115-0.099,0.221-0.206,0.289c-0.225,0.144-0.521,0.093-0.674-0.126
		c-0.076-0.109-0.513-0.849-0.303-2.857c-1.021-1.925-2.409-4.089-4.278-6.5c-0.3-0.387-0.61-0.779-0.936-1.178l-0.323-0.398
		l-0.39,0.334c-4.898,4.198-8.083,3.931-9.173,3.646c0.41-0.764,1.772-2.914,6.242-8.37l0.271-0.331l-0.285-0.319
		c-5.461-6.104-3.548-11.355-2.521-14.176c0.105-0.29,0.19-0.531,0.264-0.754c0.149-0.458,0.228-0.804,0.174-1.089
		c-0.05-0.266-0.301-0.436-0.569-0.39c-0.269,0.043-0.451,0.304-0.413,0.573c0.023,0.171-0.208,0.807-0.395,1.318
		c-0.072,0.199-0.15,0.417-0.23,0.645c-0.235,0.67-0.486,1.466-0.68,2.364c-0.457,2.117-0.556,4.805,0.752,7.798
		c0.136,0.309,0.285,0.621,0.452,0.937c0.536,1.014,1.225,2.055,2.138,3.12c-0.676,0.829-1.3,1.605-1.876,2.335
		c-0.982,1.243-1.818,2.338-2.49,3.266c-1.299,1.789-2,2.958-1.999,3.366v0.293l0.256,0.143c0.159,0.088,3.874,2.055,10.339-3.283
		c0.881,1.1,1.655,2.146,2.343,3.143c5.814,8.431,5.114,13.193,4.659,14.657c-0.099,0.319-0.187,0.485-0.191,0.494
		c-0.013,0.022-0.015,0.046-0.024,0.069c-0.092,0.225-0.017,0.488,0.199,0.616c0.08,0.047,0.168,0.07,0.255,0.07
		c0.106,0,0.204-0.045,0.291-0.109c0.051-0.038,0.104-0.077,0.139-0.136C363.698,116.609,365.386,113.585,362.866,107.355z"/>
	<path fill="#EF7D00" d="M376.098,110.829c-0.496-3.682-5.007-5.25-7.454-6.096c-1.024-0.354-1.528-0.536-1.782-0.79
		c-0.235-0.235-0.628-0.457-1.083-0.713c-0.693-0.391-1.595-0.898-2.482-1.77c-1.271,4.202-0.578,5.465-0.57,5.478
		c0.071,0.122,0.084,0.264,0.049,0.393l0.092,0.024L376.098,110.829z"/>
	<path d="M368.97,103.788c-0.595-0.206-1.27-0.439-1.401-0.552c-0.332-0.332-0.78-0.584-1.299-0.877
		c-0.826-0.465-1.854-1.045-2.805-2.189c-0.115-0.139-0.292-0.205-0.478-0.172c-0.178,0.033-0.324,0.161-0.382,0.333
		c-0.617,1.854-0.903,3.252-1.014,4.306c-0.21,2.008,0.227,2.748,0.303,2.857c0.153,0.219,0.449,0.271,0.674,0.126
		c0.107-0.068,0.175-0.174,0.206-0.289c0.035-0.129,0.022-0.271-0.049-0.393c-0.008-0.013-0.7-1.276,0.57-5.478
		c0.888,0.871,1.789,1.379,2.482,1.77c0.455,0.256,0.848,0.478,1.083,0.713c0.254,0.254,0.758,0.436,1.782,0.79
		c2.447,0.846,6.958,2.414,7.454,6.096c0.008,0.063,0.025,0.122,0.031,0.187c0.008,0.083,0.041,0.155,0.083,0.22
		c0.09,0.139,0.24,0.233,0.414,0.233c0.017,0,0.032,0,0.048-0.002c0.275-0.026,0.477-0.27,0.451-0.545
		c-0.005-0.047-0.017-0.089-0.022-0.136C376.588,106.428,371.644,104.712,368.97,103.788z"/>
	<path fill="#EF7D00" d="M371.323,57.388c-0.127-0.287-0.694-1.133-2.065-1.133c-1.036,0-2.292,0.453-3.744,1.348
		c0.525,0.088,1.041,0.198,1.548,0.306c0.914,0.195,1.778,0.379,2.496,0.379C370.428,58.289,370.965,58.018,371.323,57.388z"/>
	<path d="M372.299,57.679l0.05-0.218c0-0.607-0.951-2.206-3.092-2.206c-1.505,0-3.334,0.767-5.437,2.278l-1.14,0.819l1.401,0.085
		c0.931,0.057,1.865,0.256,2.77,0.449c0.968,0.207,1.882,0.401,2.705,0.401C370.876,59.289,371.774,58.762,372.299,57.679z
		 M367.061,57.909c-0.507-0.108-1.022-0.218-1.548-0.306c1.452-0.896,2.708-1.348,3.744-1.348c1.371,0,1.938,0.847,2.065,1.133
		c-0.357,0.629-0.895,0.9-1.766,0.9C368.839,58.289,367.975,58.104,367.061,57.909z"/>
	<path fill="#EF7D00" d="M428.551,86.914c5.021,0.552,7.51,0.336,8.033,0.049c-0.252-0.886-0.528-1.003-7-2.99
		c-0.351-0.108-0.719-0.221-1.104-0.339c-1.513-0.309-2.907-0.672-4.027-1.064l-2.12,3.417
		C424.255,86.354,426.372,86.674,428.551,86.914z"/>
	<path fill="#EF7D00" d="M429.222,82.815c4.953,0.899,10.688,0.993,11.775,0.408c-1.269-1.093-1.911-1.479-3.915-2.124
		c-3.387-0.666-5.805-1.731-5.865-1.759c-0.24-0.108-0.355-0.384-0.264-0.63c0.093-0.247,0.362-0.379,0.612-0.304
		c1.092,0.328,2.03,0.604,2.844,0.844c1.31,0.386,2.306,0.679,3.106,0.94c0.805,0.154,1.662,0.283,2.551,0.366
		c5.532,0.513,9.854-0.878,12.883-4.141c-7.116,1.122-22.586-2.207-23.096-2.461l0.224-0.447l-0.117,0.189l-4.868,7.844
		C426.668,82.03,428.039,82.453,429.222,82.815z"/>
	<path fill="#EF7D00" d="M418.083,86.082c1.131,0.706,2.142,1.267,3.092,1.77l0.581-0.937
		C420.459,86.665,419.211,86.387,418.083,86.082z"/>
	<path fill="#EF7D00" d="M407.868,98.305c1.631,1.082,3.274,2.155,4.854,3.167l0.28-0.45
		C411.282,100.164,409.562,99.25,407.868,98.305z"/>
	<path fill="#EF7D00" d="M406.88,89.318c3.395,2.483,6.664,4.385,9.733,5.884l1.447-2.332
		C415.051,92.666,411.389,91.694,406.88,89.318z"/>
	<path fill="#EF7D00" d="M436.884,103.3c-0.879-0.662-2.81-1.159-5.371-1.819c-3.894-1.003-9.257-2.388-15.434-5.417l-2.537,4.089
		C423.167,104.943,433.104,108.089,436.884,103.3z"/>
	<path fill="#EF7D00" d="M424.792,90.902c-0.824-0.479-1.669-0.914-2.551-1.366c-0.515-0.264-1.045-0.537-1.596-0.831l-1.985,3.199
		C421.171,91.998,423.173,91.521,424.792,90.902z"/>
	<path fill="#EF7D00" d="M409.734,106.708c0.5,0.592,6.316,2.062,10.521,1.794c0.989-0.062,1.642-0.21,2.072-0.379
		c-1.322-0.495-4.083-1.906-10.138-5.791l-2.402,3.871l-0.478,0.77L409.734,106.708z"/>
	<path d="M416.079,96.063c6.177,3.03,11.54,4.414,15.434,5.417c2.562,0.66,4.492,1.158,5.371,1.819
		c-3.78,4.79-13.717,1.643-23.342-3.147c-6.745-3.357-13.337-7.52-17.551-10.329c-2.431-1.62-2.43-1.618-2.767-1.334
		c-0.171,0.144-0.226,0.389-0.135,0.592c0.238,0.538,10.04,7.268,14.17,10.021c1.851,1.234,3.482,2.301,4.93,3.23
		c6.055,3.885,8.815,5.295,10.138,5.791c-0.431,0.169-1.083,0.317-2.072,0.379c-4.205,0.268-10.021-1.202-10.521-1.794l-0.424,0.265
		l-0.343,0.214l-0.081,0.051c0.164,0.262,0.624,0.526,1.27,0.779c0.642,0.25,1.471,0.487,2.396,0.697
		c0.812,0.185,1.692,0.348,2.585,0.479c1.224,0.179,2.456,0.296,3.544,0.327c0.142,0.004,0.286,0.01,0.422,0.011
		c0.054,0,0.106,0,0.159,0c2.497,0,4.065-0.468,4.663-1.391c0.106-0.164,0.106-0.375,0.002-0.54
		c-0.105-0.165-0.296-0.252-0.489-0.228c-0.021,0.003-0.044,0.004-0.068,0.004c-1.061,0-5.513-2.619-10.646-5.906
		c-1.58-1.012-3.224-2.085-4.854-3.167c1.693,0.946,3.414,1.859,5.135,2.717c10.533,5.251,21.026,8.304,24.959,2.497
		c0.056-0.082,0.073-0.177,0.075-0.271c0.002-0.12-0.026-0.238-0.108-0.333c-0.214-0.251-0.501-0.472-0.854-0.676
		c-1.111-0.641-2.899-1.104-5.312-1.726c-3.825-0.986-9.093-2.352-15.149-5.31c-3.069-1.5-6.339-3.401-9.733-5.884
		c4.509,2.376,8.171,3.348,11.181,3.553c3.457,0.235,6.052-0.545,8.037-1.427c0.024-0.011,0.038-0.036,0.061-0.05
		c-0.363-0.016-0.639-0.037-0.792-0.063c-0.272-0.045-0.457-0.303-0.411-0.575s0.308-0.458,0.575-0.411
		c0.067,0.011,0.178,0.021,0.308,0.03c-1.021-0.626-2.053-1.169-3.14-1.728c-0.489-0.251-1-0.517-1.523-0.795
		c-0.95-0.503-1.961-1.064-3.092-1.77c1.128,0.305,2.376,0.583,3.673,0.833c6.188,1.192,13.563,1.699,15.2,0.971
		c0.755-0.336,0.671-0.898,0.626-1.065c-0.298-1.092-0.521-1.465-2.981-2.314c2.097,0.172,4.029,0.188,5.401-0.014
		c0.597-0.087,1.074-0.221,1.426-0.396c0.133-0.066,0.259-0.134,0.351-0.213c0.307-0.265,0.407-0.638,0.27-0.997
		c-0.029-0.076-0.076-0.143-0.138-0.197c-0.533-0.467-0.971-0.828-1.403-1.128c4.794,0.341,10.398-0.631,14.175-5.666
		c0.131-0.174,0.133-0.413,0.006-0.591c-0.127-0.177-0.354-0.252-0.561-0.185c-4.911,1.595-18.55-0.928-22.688-1.81
		c-0.655-0.14-1.08-0.24-1.187-0.274l-0.176,0.468l-0.224,0.447c0.51,0.255,15.979,3.583,23.096,2.461
		c-3.028,3.263-7.351,4.654-12.883,4.141c-0.889-0.083-1.746-0.211-2.551-0.366c-0.801-0.261-1.797-0.555-3.106-0.94
		c-0.813-0.24-1.752-0.516-2.844-0.844c-0.25-0.075-0.52,0.058-0.612,0.304c-0.092,0.247,0.023,0.522,0.264,0.63
		c0.061,0.028,2.479,1.094,5.865,1.759c2.004,0.645,2.646,1.031,3.915,2.124c-1.088,0.585-6.822,0.491-11.775-0.408
		c-1.183-0.363-2.554-0.785-4.13-1.276c-0.6-0.188-1.224-0.383-1.887-0.591c-0.245-0.076-0.508,0.043-0.609,0.278
		c-0.102,0.235-0.01,0.509,0.214,0.635c0.433,0.243,0.992,0.481,1.643,0.709c1.12,0.392,2.515,0.755,4.027,1.064
		c0.386,0.119,0.754,0.231,1.104,0.339c6.472,1.986,6.748,2.104,7,2.99c-0.523,0.287-3.012,0.503-8.033-0.049
		c-2.179-0.24-4.296-0.56-6.219-0.927c-3.295-0.627-6.018-1.389-7.484-2.109c-0.387-0.285-0.785-0.586-1.197-0.905
		c-0.194-0.15-0.465-0.138-0.646,0.027c-0.18,0.165-0.213,0.436-0.08,0.64c0.241,0.372,0.718,0.732,1.374,1.075
		c2.547,1.874,4.565,3.044,6.347,3.991c0.551,0.293,1.081,0.566,1.596,0.831c0.882,0.453,1.727,0.887,2.551,1.366
		c-1.619,0.619-3.621,1.096-6.132,1.002c-4.065-0.151-9.485-1.828-16.795-6.818c-0.312-0.214-0.613-0.407-0.934-0.633
		c-0.213-0.153-0.513-0.112-0.678,0.095c-0.15,0.186-0.138,0.444,0.009,0.624c0.017,0.02,0.026,0.042,0.045,0.06
		C405.857,90.276,411.22,93.679,416.079,96.063z"/>
	<path d="M434.781,91.183c0.273-0.039,0.464-0.292,0.425-0.566c-0.04-0.273-0.299-0.462-0.565-0.424
		c-1.889,0.27-7.296,0.29-8.803,0.182c-0.13-0.009-0.24-0.019-0.308-0.03c-0.268-0.047-0.529,0.139-0.575,0.411
		s0.139,0.53,0.411,0.575c0.153,0.026,0.429,0.047,0.792,0.063c0.612,0.028,1.475,0.042,2.431,0.042
		C430.824,91.436,433.566,91.357,434.781,91.183z"/>
	<path fill="#EF7D00" d="M318.006,72.184c-0.951-0.081-2.016-0.285-3.137-0.57l2.287,1.022
		C317.43,72.507,317.718,72.358,318.006,72.184z"/>
	<path fill="#EF7D00" d="M325.573,75.869c-0.345,0.046-0.665,0.06-0.995,0.085l0.609,0.272
		C325.314,76.11,325.443,75.991,325.573,75.869z"/>
	<path fill="#EF7D00" d="M333.197,78.3c-0.7,0.259-1.381,0.451-2.038,0.596l1.211,0.542C332.599,79.112,332.871,78.733,333.197,78.3
		z"/>
	<path fill="#EF7D00" d="M334.783,80.517l-1.482-0.663c-0.144,0.203-0.273,0.388-0.383,0.546L334.783,80.517z"/>
	<path fill="#EF7D00" d="M324.825,77.903c0.945,0.217,2.618,0.473,4.663,0.246l-3.309-1.479
		C325.675,77.14,325.194,77.575,324.825,77.903z"/>
	<path fill="#EF7D00" d="M317.056,73.778c1.233,0.508,3.053,1.125,5.414,1.234l-4.151-1.855
		C317.874,73.41,317.437,73.62,317.056,73.778z"/>
	<path d="M304.466,67.702c0.348,0.159,0.706,0.322,1.077,0.487c1.819,0.812,3.894,1.672,5.95,2.391
		c1.148,0.401,2.289,0.757,3.376,1.034c1.121,0.286,2.186,0.49,3.137,0.57c-0.288,0.174-0.576,0.323-0.85,0.452
		c-0.23,0.109-0.445,0.2-0.645,0.279c-0.557,0.221-0.954,0.329-0.964,0.332c-0.011,0.002-0.016,0.013-0.025,0.016
		c-0.192,0.063-0.334,0.23-0.348,0.434c-0.014,0.214,0.11,0.414,0.309,0.496l0.346,0.149l0.078,0.033
		c1.251,0.546,3.758,1.618,7.254,1.635c0.456,0.002,0.928-0.018,1.417-0.056c0.33-0.025,0.65-0.039,0.995-0.085
		c-0.131,0.122-0.26,0.241-0.386,0.357c-0.185,0.17-0.359,0.329-0.527,0.48c-0.672,0.607-1.173,1.041-1.183,1.049
		c-0.07,0.062-0.118,0.141-0.146,0.228c-0.024,0.076-0.034,0.157-0.02,0.238c0.031,0.174,0.15,0.318,0.315,0.38
		c0.03,0.011,0.163,0.058,0.367,0.12c0.834,0.251,3.024,0.769,5.855,0.4c0.423-0.055,0.858-0.128,1.308-0.227
		c0.657-0.145,1.338-0.336,2.038-0.596c-0.325,0.434-0.598,0.812-0.827,1.138c-0.18,0.256-0.33,0.474-0.448,0.649
		c-0.197,0.292-0.311,0.47-0.324,0.491c-0.094,0.149-0.103,0.337-0.022,0.495s0.238,0.26,0.414,0.271l3.043,0.19l1.023,0.064
		c0.011,0,0.021,0.001,0.031,0.001c0.263,0,0.482-0.204,0.499-0.469c0.018-0.276-0.192-0.513-0.468-0.53l-1.334-0.083l-1.865-0.117
		c0.109-0.158,0.239-0.344,0.383-0.546c0.466-0.654,1.107-1.52,1.903-2.506c0.149-0.184,0.148-0.447-0.002-0.631
		c-0.15-0.183-0.41-0.233-0.618-0.126c-1.81,0.944-3.558,1.388-5.096,1.559c-2.045,0.227-3.718-0.029-4.663-0.246
		c0.368-0.328,0.85-0.763,1.354-1.233c0.428-0.398,0.872-0.821,1.282-1.231c0.157-0.157,0.191-0.4,0.084-0.595
		c-0.106-0.194-0.327-0.296-0.548-0.247c-1.684,0.38-3.19,0.477-4.528,0.414c-2.361-0.109-4.181-0.726-5.414-1.234
		c0.381-0.158,0.818-0.368,1.263-0.622c0.518-0.296,1.045-0.655,1.511-1.095c0.154-0.146,0.199-0.374,0.112-0.568
		s-0.296-0.314-0.5-0.293c-5.552,0.489-18.982-6.563-19.117-6.635c-0.01-0.005-0.021-0.005-0.032-0.009
		c-0.235-0.104-0.52-0.017-0.644,0.218c-0.117,0.222-0.044,0.485,0.152,0.629c0.02,0.015,0.034,0.035,0.057,0.046
		C300.06,65.557,301.911,66.527,304.466,67.702z"/>
</g>
</svg>
