<?xml version="1.0" encoding="utf-8"?>
<!-- Generator: Adobe Illustrator 16.0.0, SVG Export Plug-In . SVG Version: 6.00 Build 0)  -->
<svg version="1.2" baseProfile="tiny"
	 id="svg559" xmlns:cc="http://creativecommons.org/ns#" xmlns:dc="http://purl.org/dc/elements/1.1/" xmlns:rdf="http://www.w3.org/1999/02/22-rdf-syntax-ns#"
	 xmlns="http://www.w3.org/2000/svg" xmlns:xlink="http://www.w3.org/1999/xlink" x="0px" y="0px" width="512px" height="512px"
	 viewBox="0 0 512 512" xml:space="preserve">
<g>
	<polygon fill="#319208" points="29.256,511.983 511.984,511.983 511.984,438.85 127.099,438.85 29.256,511.711 	"/>
	<polygon fill="#DE2010" points="225.328,365.7 511.984,365.7 511.984,292.565 323.538,292.565 	"/>
	<polygon fill="#FFD200" points="511.984,438.845 511.984,365.704 225.323,365.704 127.106,438.845 	"/>
	<polygon fill="#DE2010" points="323.542,219.421 511.984,219.421 511.984,146.282 225.326,146.282 	"/>
	<polygon fill="#FFD200" points="225.326,146.282 511.984,146.282 511.984,73.141 127.109,73.141 	"/>
	<polygon fill="#319208" points="127.109,73.141 511.984,73.141 511.984,0 29.256,0 29.256,0.272 	"/>
	<polygon points="319.729,292.565 29.256,491.906 29.256,511.711 127.099,438.85 127.106,438.845 225.323,365.704 225.328,365.7 
		323.538,292.565 	"/>
	<polygon points="127.109,73.141 29.256,0.272 29.256,20.077 319.738,219.425 323.547,219.425 323.542,219.421 225.326,146.282 	"/>
	<polygon points="29.256,511.983 29.256,511.711 29.256,491.906 0,511.983 	"/>
	<polygon points="29.256,20.077 29.256,0.272 29.256,0 29.256,0 0,0 	"/>
	<polygon points="294.656,219.425 319.738,219.425 29.256,20.077 0,0 	"/>
	<polygon points="29.256,491.906 319.729,292.565 294.648,292.565 0,511.983 	"/>
	<polygon points="294.656,219.425 343.761,255.992 294.648,292.565 319.729,292.565 323.538,292.565 511.984,292.565 
		511.984,219.425 323.547,219.425 319.738,219.425 	"/>
	<path fill="#FFFFFF" d="M294.648,292.565l49.113-36.574l-49.104-36.567L0,0v0v73.141v73.139v0.002v73.139v0.004v73.135v0.006V365.7
		v0.004v73.141v0.005v73.134L294.648,292.565z M6.693,205.044l71.242,1.498c0.247-12.25-1.694-23.317-6.589-30.687
		c-4.623-6.96-11.488-10.077-20.437-9.219l0.056,0.089h-0.88l-0.944,0.114l0.843-1.529c1.421-2.63,2.363-4.375,10.286-7.75
		c4.142-11.905,10.943-18.457,19.168-18.457c11.548,0,24.037,12.658,33.298,33.071l19.236-57.513l27.271,90.366l97.404,0.855
		l-54.548,37.9c0.801,0.645,1.584,1.279,2.332,1.888c13.837,11.29,13.451,12.352,13.244,12.922
		c-0.254,1.301-1.806,1.996-4.591,1.997c-2.723,0-5.908-0.641-7.114-0.906c-0.708,3.019-4.612,19.674-8.551,36.329
		c-1.115,4.713-2.087,8.824-2.939,12.418l13.94,44.199l-26.572-20.176c-27.634-3.132-63.193-3.73-84.214-3.773
		c0.001,0.014,0.006,0.045,0.006,0.049h-0.5l-0.499,0.038c-0.001-0.013-0.007-0.057-0.012-0.089c-0.532,0-1.064-0.001-1.576-0.001
		c-2.785,0-5.547,0.013-8.294,0.03l-32.814,23.408l14.14-40.588c-2.499-10.979-5.708-23.383-6.186-25.224
		c-0.42-0.224-1.222-0.81-1.815-2.208c-1.477-3.48-1.386-11.375,7.427-29.213c0.514-1.222,1.008-2.476,1.492-3.744L6.693,205.044z"
		/>
	<path fill="#D62419" d="M188.021,333.211l-0.066-0.005c-1.982-0.266-4.023-0.515-6.105-0.751l26.572,20.176l-13.94-44.199
		C188.61,333.206,188.527,333.211,188.021,333.211z"/>
	<path fill="#D62419" d="M71.079,328.911l0.032-0.54c0.128-2.169-1.274-9.156-3.024-16.842l-14.14,40.588l32.814-23.408
		c-5.147,0.034-10.221,0.096-15.142,0.191L71.079,328.911z"/>
	<path fill="#D62419" d="M173.229,221.541c11.03,8.223,21.154,16.025,28.871,22.242l54.548-37.9l-97.404-0.855l-27.271-90.366
		l-19.236,57.513c1.558,3.433,3.026,7.078,4.381,10.926C124.981,186.619,150.88,204.878,173.229,221.541z"/>
	<path fill="#D62419" d="M69.005,251.141c5.228-13.719,8.636-29.996,8.93-44.599l-71.242-1.498L69.005,251.141z"/>
	<path fill="#F7DF00" d="M121.734,305.586l-8.701-9.325l-9.383,8.504C108.503,304.973,114.762,305.251,121.734,305.586z"/>
	<path fill="#F7DF00" d="M132.906,296.935l-9.954,8.71c5.716,0.276,11.871,0.59,18.089,0.931L132.906,296.935z"/>
	<path fill="#F7DF00" d="M102.59,305.725l-0.184,0.167l-0.157-0.182c-4.129-0.177-7.037-0.294-8.201-0.34
		c1.548,9.958,2.989,19.268,3.443,22.312c22.498,0.043,61.811,0.721,90.189,4.479c0.498-1.748,2.434-9.741,4.939-20.251
		C181.035,309.306,124.853,306.681,102.59,305.725z"/>
	<path fill="#F7DF00" d="M75.916,149.805c-1.735,0-3.147,1.413-3.147,3.148s1.412,3.148,3.147,3.148
		c1.736,0,3.148-1.412,3.148-3.148S77.652,149.805,75.916,149.805z"/>
	<path fill="#F7DF00" d="M70.803,282.486l0.831,0.256c-0.075-0.226-0.147-0.454-0.187-0.695c-0.047-0.654-0.918-14.98,7.807-22.027
		c6.026-5.711,12.087-22.773,11.426-27.735l0.991-0.132c0.701,5.261-5.396,22.59-11.759,28.619
		c-8.347,6.743-7.482,21.016-7.473,21.159c0.439,2.622,3.548,3.546,5.361,3.859c4.008,0.695,8.352-0.327,9.241-1.665
		c1.417-13.71,16.155-16.88,16.304-16.911c0.048-0.014,1.794-0.518,4.44-1.631l0.001-0.031c0.016,0.001,0.045,0.002,0.064,0.003
		c6.354-2.681,17.832-8.865,23.821-20.294c-10.448-3.797-19.29-8.621-24.125-14.77c-3.191-4.057-4.514-8.517-3.934-13.256
		l0.992,0.122c-0.547,4.464,0.707,8.675,3.727,12.516c14.829,18.856,68.577,25.125,88.812,27.484c6.255,0.73,8.053,0.963,8.63,1.257
		c0.515,0.121,4.279,0.977,7.309,0.977c1.261-0.001,3.41-0.165,3.631-1.267c-0.235-1.741-15.734-14.877-44.894-36.585
		c-22.175-16.508-47.875-34.601-55.302-37.808l-0.201-0.087l-0.072-0.207c-9.266-26.446-23.713-43.533-36.808-43.533
		c-7.813,0-14.311,6.39-18.295,17.993l-0.073,0.211l-0.206,0.087c-7.625,3.226-8.583,4.772-9.915,7.233
		c9.279-0.853,16.415,2.426,21.229,9.674c11.456,17.247,7.086,54.218-3.756,79.998c-9.047,18.312-8.552,25.601-7.453,28.318
		c0.615,1.521,1.479,1.845,1.515,1.857l0.227,0.081l0.014-0.103C62.794,285.463,69.617,286.34,70.803,282.486z M75.916,157.102
		c-2.287,0-4.147-1.861-4.147-4.148c0-2.288,1.86-4.148,4.147-4.148c2.288,0,4.148,1.861,4.148,4.148
		C80.065,155.241,78.204,157.102,75.916,157.102z M78.886,199.89l0.04-0.999c0.08,0.003,0.163,0.005,0.247,0.005
		c8.366,0,36.017-15.698,36.298-15.858l0.495,0.869c-1.157,0.659-28.162,15.988-36.81,15.988
		C79.064,199.896,78.975,199.894,78.886,199.89z"/>
	<path fill="#F7DF00" d="M188.031,296.593l-0.688-0.727l5.279-5.002c-12.226-1.96-24.839-3.254-37.497-4.251l6.737,7.963
		l-0.764,0.646l-6.963-8.231l-9.235,8.279l-0.668-0.744l8.994-8.063c-9.06-0.692-18.133-1.242-27.091-1.785
		c-3.874-0.234-7.795-0.478-11.729-0.728l8.309,8.95l-0.732,0.68l-8.275-8.913l-10.296,9.965l-10.293-12.01l0.226-0.193
		c-0.968-0.081-1.943-0.152-2.907-0.237c0.456,2.92,1.023,6.562,1.638,10.508l0.139-0.12l10.278,11.885l10.598-9.605l9.291,9.956
		l10.632-9.304l8.96,10.619l10.953-9.293l0.322,0.399c3.72,4.612,7.996,9.548,8.917,10.074c1.059-0.434,6.769-5.163,10.596-8.48
		l0.37-0.32l9.631,10.626l12.897-10.318l0.054,0.067c0.562-2.371,1.132-4.786,1.706-7.215c-1.18-0.208-2.364-0.41-3.553-0.605
		L188.031,296.593z M133.645,285.269l9.62,9.274l-0.694,0.721l-8.955-8.634l-8.276,7.321l-0.663-0.748L133.645,285.269z
		 M181.371,296.926l-7.333-7.013l-8.288,5.736l-0.569-0.822l8.958-6.201l7.923,7.577L181.371,296.926z"/>
	<path fill="#F7DF00" d="M153.062,251.36c-4.654,6.298-9.297,9.726-13.804,10.174c-0.338,0.034-0.666,0.05-0.979,0.05
		c-3.314,0-5.233-1.722-5.321-1.802l0.511-0.56c-1.304,0.828-2.655,1.44-4.052,1.82c-1.224,0.332-2.371,0.459-3.408,0.459
		c-3.265,0-5.45-1.257-5.569-1.327l0.506-0.862c0.035,0.021,3.568,2.036,8.23,0.759c4.492-1.229,8.52-4.991,11.973-11.182
		l0.873,0.487c-2.483,4.453-5.275,7.701-8.336,9.711c0.267,0.225,2.264,1.791,5.502,1.448c4.063-0.418,8.479-3.675,12.805-9.418
		c-6.663-1.535-13.273-3.355-19.37-5.515c-5.576,10.743-15.864,16.972-22.582,20.071c13.201,0.732,77.892,4.514,91.393,8.951
		c1.299-5.522,2.52-10.728,3.573-15.223c-1.044-0.243-4.29-0.622-7.979-1.053C187.374,257.225,170.131,255.212,153.062,251.36z"/>
	<path fill="#F7DF00" d="M92.313,294.223c0.512,3.284,1.049,6.735,1.578,10.14c1.026,0.04,3.66,0.145,7.456,0.305L92.313,294.223z"
		/>
	<path fill="#F7DF00" d="M183.744,309.632c4.012,0.429,7.159,0.866,9.108,1.306c0.795-3.338,1.645-6.913,2.52-10.608
		L183.744,309.632z"/>
	<path fill="#F7DF00" d="M89.351,281.714l-0.099-0.632l0.637,0.057c12.001,1.067,24.357,1.816,36.307,2.541
		c22.387,1.356,45.487,2.758,67.344,6.316l0.104-0.1l0.13,0.137c1.297,0.213,2.588,0.435,3.875,0.662
		c1.199-5.078,2.405-10.198,3.556-15.091c-13.901-4.663-88.003-8.759-93.186-9.039c-2.642,1.104-4.38,1.604-4.439,1.62
		c-0.176,0.038-14.281,3.087-15.555,16.15l-0.061,0.194c-0.901,1.62-4.221,2.478-7.487,2.478c-0.977,0-1.947-0.076-2.848-0.232
		c-3.12-0.539-5.185-1.883-5.935-3.827c-1.087,3.102-4.903,3.605-7.241,3.605c-0.625,0-1.142-0.035-1.474-0.066
		c1.295,4.991,8.965,34.799,9.133,41.403c7.397-0.141,15.112-0.212,22.94-0.212c0.464,0,0.948,0.001,1.429,0.001
		C95.637,322.062,91.591,296.067,89.351,281.714z M146.891,272.18c2.653,0,4.812,2.158,4.812,4.812s-2.158,4.812-4.812,4.812
		c-2.652,0-4.811-2.158-4.811-4.812S144.239,272.18,146.891,272.18z M127.653,270.518c2.653,0,4.812,2.159,4.812,4.812
		c0,2.652-2.158,4.811-4.812,4.811s-4.812-2.158-4.812-4.811C122.841,272.677,124.999,270.518,127.653,270.518z"/>
	<path fill="#F7DF00" d="M161.222,307.792c-1.442-1.189-4.261-4.374-8.43-9.529l-9.917,8.414
		C149.09,307.023,155.326,307.397,161.222,307.792z"/>
	<path fill="#F7DF00" d="M173.047,299.906c-3.166,2.735-7.907,6.736-9.99,8.01c6.967,0.478,13.38,0.982,18.611,1.502
		L173.047,299.906z"/>
	<path fill="#F7DF00" d="M127.653,279.141c2.102,0,3.812-1.709,3.812-3.811c0-2.103-1.71-3.812-3.812-3.812s-3.812,1.71-3.812,3.812
		C123.841,277.432,125.551,279.141,127.653,279.141z"/>
	<path fill="#F7DF00" d="M146.891,280.803c2.102,0,3.812-1.71,3.812-3.812s-1.71-3.812-3.812-3.812c-2.101,0-3.811,1.71-3.811,3.812
		S144.79,280.803,146.891,280.803z"/>
	<path fill="#F7DF00" d="M103.481,293.175l9.619-9.309c-6.258-0.402-12.534-0.846-18.761-1.356L103.481,293.175z"/>
	<path d="M69.005,251.141c-0.484,1.269-0.978,2.522-1.492,3.744c-8.813,17.838-8.904,25.732-7.427,29.213
		c0.593,1.398,1.395,1.984,1.815,2.208c0.478,1.841,3.687,14.245,6.186,25.224c1.75,7.686,3.152,14.673,3.024,16.842l-0.032,0.54
		l0.541-0.011c4.921-0.096,9.994-0.157,15.142-0.191c2.747-0.018,5.509-0.03,8.294-0.03c0.512,0,1.044,0.001,1.576,0.001
		c-0.02-0.146-0.069-0.482-0.147-1c-0.48,0-0.965-0.001-1.429-0.001c-7.828,0-15.543,0.071-22.94,0.212
		c-0.168-6.604-7.838-36.412-9.133-41.403c-0.214-0.02-0.354-0.038-0.391-0.043l0.121-0.888l-0.227-0.081
		c-0.037-0.013-0.9-0.336-1.515-1.857c-1.099-2.717-1.594-10.006,7.453-28.318c10.843-25.78,15.212-62.751,3.756-79.998
		c-4.814-7.248-11.95-10.526-21.229-9.674c1.332-2.461,2.29-4.007,9.915-7.233l0.206-0.087l0.073-0.211
		c3.984-11.603,10.482-17.993,18.295-17.993c13.094,0,27.542,17.087,36.808,43.533l0.072,0.207l0.201,0.087
		c7.427,3.207,33.127,21.3,55.302,37.808c29.16,21.708,44.659,34.844,44.894,36.585c-0.221,1.102-2.37,1.266-3.631,1.267
		c-3.03,0-6.794-0.855-7.309-0.977c0.055,0.028,0.103,0.057,0.139,0.086l-0.601,0.796c-0.056-0.028-0.16-0.06-0.304-0.093
		c-1.053,4.495-2.274,9.7-3.573,15.223c0.247,0.081,0.479,0.162,0.691,0.244l-0.359,0.934c-0.173-0.066-0.364-0.133-0.562-0.199
		c-1.151,4.893-2.357,10.013-3.556,15.091c0.131,0.023,0.264,0.044,0.395,0.067l-0.176,0.984c-0.149-0.026-0.3-0.051-0.45-0.077
		c-0.574,2.429-1.145,4.844-1.706,7.215l0.571,0.714l-0.913,0.73c-0.875,3.695-1.725,7.271-2.52,10.608
		c0.083,0.02,0.176,0.038,0.254,0.057l-0.231,0.973c-0.079-0.019-0.171-0.037-0.255-0.057c-2.505,10.51-4.441,18.503-4.939,20.251
		c-28.379-3.759-67.691-4.437-90.189-4.479c0.083,0.56,0.133,0.9,0.144,1c21.021,0.043,56.58,0.642,84.214,3.773
		c2.082,0.236,4.123,0.485,6.105,0.751l0.066,0.005c0.506,0,0.589-0.005,6.46-24.779c0.852-3.594,1.824-7.705,2.939-12.418
		c3.938-16.655,7.843-33.311,8.551-36.329c1.206,0.266,4.391,0.906,7.114,0.906c2.785-0.001,4.336-0.696,4.591-1.997
		c0.208-0.57,0.594-1.633-13.244-12.922c-0.747-0.609-1.531-1.243-2.332-1.888c-7.717-6.217-17.841-14.019-28.871-22.242
		c-22.349-16.663-48.248-34.922-56.112-38.439c-1.355-3.849-2.824-7.493-4.381-10.926c-9.261-20.414-21.75-33.071-33.298-33.071
		c-8.225,0-15.027,6.552-19.168,18.457c-7.922,3.375-8.865,5.12-10.286,7.75l-0.843,1.529l0.944-0.114h0.88l-0.056-0.089
		c8.949-0.858,15.814,2.258,20.437,9.219c4.896,7.37,6.836,18.437,6.589,30.687C77.641,221.145,74.233,237.422,69.005,251.141z"/>
	<path d="M75.916,148.805c-2.287,0-4.147,1.861-4.147,4.148c0,2.287,1.86,4.148,4.147,4.148c2.288,0,4.148-1.861,4.148-4.148
		C80.065,150.666,78.204,148.805,75.916,148.805z M75.916,156.102c-1.735,0-3.147-1.412-3.147-3.148s1.412-3.148,3.147-3.148
		c1.736,0,3.148,1.413,3.148,3.148S77.652,156.102,75.916,156.102z"/>
	<path d="M115.967,183.907l-0.495-0.869c-0.281,0.16-27.932,15.858-36.298,15.858c-0.084,0-0.167-0.002-0.247-0.005l-0.04,0.999
		c0.088,0.003,0.178,0.005,0.271,0.005C87.805,199.896,114.809,184.566,115.967,183.907z"/>
	<path d="M108.334,229.873c-3.02-3.84-4.274-8.051-3.727-12.516l-0.992-0.122c-0.581,4.739,0.743,9.199,3.934,13.256
		c4.835,6.149,13.677,10.973,24.125,14.77c0.059-0.113,0.124-0.221,0.182-0.335l0.891,0.454c-0.039,0.076-0.082,0.148-0.121,0.224
		c6.097,2.16,12.707,3.979,19.37,5.515c0.155-0.206,0.311-0.408,0.465-0.62l0.808,0.589c-0.068,0.094-0.137,0.181-0.205,0.273
		c17.068,3.853,34.312,5.865,43.967,6.991c3.689,0.431,6.935,0.81,7.979,1.053c0.145,0.033,0.249,0.064,0.304,0.093l0.601-0.796
		c-0.036-0.029-0.083-0.058-0.139-0.086c-0.577-0.294-2.375-0.526-8.63-1.257C176.911,254.998,123.162,248.729,108.334,229.873z"/>
	<path d="M133.687,259.088c3.061-2.011,5.853-5.259,8.336-9.711l-0.873-0.487c-3.453,6.191-7.481,9.954-11.973,11.182
		c-4.663,1.277-8.195-0.737-8.23-0.759l-0.506,0.862c0.119,0.07,2.304,1.327,5.569,1.327c1.037,0,2.184-0.127,3.408-0.459
		c1.397-0.38,2.749-0.992,4.052-1.82l0.164-0.179C133.635,259.045,133.668,259.072,133.687,259.088z"/>
	<path d="M139.189,260.536c-3.238,0.343-5.236-1.224-5.502-1.448c-0.019-0.016-0.052-0.043-0.054-0.044l-0.164,0.179l-0.511,0.56
		c0.087,0.08,2.006,1.802,5.321,1.802c0.314,0,0.641-0.016,0.979-0.05c4.506-0.448,9.15-3.876,13.804-10.174
		c0.068-0.092,0.137-0.179,0.205-0.273l-0.808-0.589c-0.155,0.212-0.31,0.414-0.465,0.62
		C147.669,256.861,143.252,260.118,139.189,260.536z"/>
	<path d="M71.696,282.948c-0.025-0.066-0.039-0.138-0.061-0.206l-0.831-0.256c-1.186,3.854-8.01,2.977-8.078,2.968l-0.014,0.103
		l-0.121,0.888c0.037,0.005,0.176,0.023,0.391,0.043c0.332,0.031,0.848,0.066,1.474,0.066
		C66.793,286.554,70.609,286.05,71.696,282.948z"/>
	<path d="M194.332,290.623l-0.465,0.441c1.188,0.195,2.373,0.397,3.553,0.605c0.149,0.026,0.3,0.051,0.45,0.077l0.176-0.984
		c-0.131-0.023-0.264-0.044-0.395-0.067c-1.288-0.228-2.579-0.449-3.875-0.662L194.332,290.623z"/>
	<path d="M97.491,327.682c-0.454-3.044-1.896-12.354-3.443-22.312c-0.332-0.013-0.533-0.021-0.569-0.022l0.039-1
		c0.08,0.003,0.214,0.008,0.374,0.015c-0.529-3.404-1.066-6.855-1.578-10.14l-0.855-0.989l0.618-0.534
		c-0.615-3.945-1.183-7.588-1.638-10.508c0.964,0.085,1.939,0.156,2.907,0.237l0.533-0.457l0.461,0.538
		c6.227,0.511,12.503,0.954,18.761,1.356l0.647-0.627l0.66,0.711c3.933,0.25,7.855,0.493,11.729,0.728
		c8.958,0.543,18.031,1.093,27.091,1.785l1.007-0.903l0.892,1.054c12.658,0.997,25.271,2.291,37.497,4.251l0.917-0.868
		c-21.857-3.559-44.957-4.96-67.344-6.316c-11.949-0.725-24.305-1.474-36.307-2.541l-0.637-0.057l0.099,0.632
		c2.24,14.354,6.287,40.348,7.133,45.966c0.078,0.518,0.127,0.854,0.147,1c0.004,0.032,0.01,0.076,0.012,0.089l0.499-0.038h0.5
		c0-0.004-0.004-0.035-0.006-0.049C97.624,328.582,97.575,328.241,97.491,327.682z"/>
	<polygon points="103.412,294.632 113.709,284.667 121.984,293.58 122.716,292.9 114.407,283.95 113.747,283.239 113.099,283.866 
		103.481,293.175 94.339,282.51 93.878,281.972 93.345,282.429 93.119,282.622 	"/>
	<polygon points="125.34,293.951 133.615,286.63 142.57,295.264 143.264,294.543 133.645,285.269 124.677,293.203 	"/>
	<polygon points="144.233,294.526 144.901,295.271 154.135,286.991 161.099,295.223 161.863,294.576 155.126,286.613 
		154.234,285.56 153.227,286.463 	"/>
	<polygon points="174.14,288.626 165.181,294.827 165.751,295.649 174.038,289.913 181.371,296.926 182.063,296.203 	"/>
	<polygon points="187.344,295.866 188.031,296.593 193.867,291.064 194.332,290.623 193.775,290.033 193.645,289.896 
		193.54,289.996 192.623,290.864 	"/>
	<path d="M182.762,309.136l-9.631-10.626l-0.37,0.32c-3.828,3.317-9.538,8.047-10.596,8.48c-0.921-0.526-5.197-5.462-8.917-10.074
		l-0.322-0.399l-10.953,9.293l-8.96-10.619l-10.632,9.304l-9.291-9.956l-10.598,9.605l-10.278-11.885l-0.139,0.12l-0.618,0.534
		l0.855,0.989l9.034,10.444c0.725,0.03,1.496,0.063,2.302,0.098l9.383-8.504l8.701,9.325c0.405,0.02,0.809,0.039,1.219,0.059
		l9.954-8.71l8.135,9.641c0.611,0.034,1.223,0.067,1.834,0.102l9.917-8.414c4.169,5.155,6.988,8.34,8.43,9.529
		c0.615,0.041,1.227,0.083,1.834,0.124c2.083-1.273,6.824-5.274,9.99-8.01l8.621,9.512c0.713,0.071,1.409,0.143,2.076,0.214
		l11.628-9.303l0.913-0.73l-0.571-0.714l-0.054-0.067L182.762,309.136z"/>
	<path d="M102.59,305.725c-0.115-0.005-0.229-0.01-0.341-0.015l0.157,0.182L102.59,305.725z"/>
	<path d="M181.668,309.418c-5.23-0.52-11.644-1.024-18.611-1.502c-0.607-0.041-1.219-0.083-1.834-0.124
		c-5.896-0.395-12.133-0.769-18.347-1.115c-0.612-0.034-1.223-0.067-1.834-0.102c-6.218-0.341-12.373-0.654-18.089-0.931
		c-0.41-0.02-0.813-0.039-1.219-0.059c-6.971-0.335-13.23-0.613-18.084-0.821c-0.807-0.034-1.577-0.067-2.302-0.098
		c-3.796-0.16-6.43-0.265-7.456-0.305c-0.16-0.007-0.294-0.012-0.374-0.015l-0.039,1c0.037,0.001,0.238,0.01,0.569,0.022
		c1.165,0.046,4.072,0.163,8.201,0.34c0.112,0.005,0.226,0.01,0.341,0.015c22.263,0.956,78.445,3.581,90.03,6.186
		c0.083,0.02,0.176,0.038,0.255,0.057l0.231-0.973c-0.079-0.019-0.171-0.037-0.254-0.057c-1.949-0.439-5.096-0.877-9.108-1.306
		C183.076,309.561,182.381,309.489,181.668,309.418z"/>
	<path d="M110.043,265.675c-0.718,0.331-1.396,0.629-2.023,0.891c5.183,0.28,79.285,4.376,93.186,9.039
		c0.198,0.066,0.389,0.133,0.562,0.199l0.359-0.934c-0.212-0.082-0.444-0.163-0.691-0.244
		C187.934,270.188,123.244,266.407,110.043,265.675z"/>
	<path d="M107.788,265.552l-0.001,0.031c0.021-0.009,0.043-0.019,0.065-0.028C107.833,265.554,107.804,265.553,107.788,265.552z"/>
	<path d="M132.624,245.604c0.039-0.076,0.083-0.147,0.121-0.224l-0.891-0.454c-0.058,0.114-0.123,0.222-0.182,0.335
		c-5.989,11.429-17.467,17.613-23.821,20.294c-0.022,0.01-0.044,0.02-0.065,0.028c-2.646,1.113-4.392,1.617-4.44,1.631
		c-0.149,0.031-14.888,3.201-16.304,16.911c-0.889,1.338-5.233,2.36-9.241,1.665c-1.813-0.313-4.922-1.237-5.361-3.859
		c-0.01-0.144-0.874-14.416,7.473-21.159c6.363-6.029,12.46-23.357,11.759-28.619l-0.991,0.132
		c0.661,4.962-5.4,22.023-11.426,27.735c-8.725,7.047-7.854,21.373-7.807,22.027c0.04,0.241,0.112,0.47,0.187,0.695
		c0.022,0.068,0.036,0.14,0.061,0.206c0.75,1.944,2.815,3.288,5.935,3.827c0.901,0.156,1.872,0.232,2.848,0.232
		c3.266,0,6.586-0.857,7.487-2.478l0.061-0.194c1.274-13.063,15.378-16.112,15.555-16.15c0.059-0.017,1.797-0.517,4.439-1.62
		c0.626-0.262,1.305-0.56,2.023-0.891C116.76,262.575,127.049,256.346,132.624,245.604z"/>
	<path d="M127.653,280.141c2.653,0,4.812-2.158,4.812-4.811c0-2.653-2.158-4.812-4.812-4.812s-4.812,2.159-4.812,4.812
		C122.841,277.982,124.999,280.141,127.653,280.141z M127.653,271.518c2.102,0,3.812,1.71,3.812,3.812
		c0,2.102-1.71,3.811-3.812,3.811s-3.812-1.709-3.812-3.811C123.841,273.228,125.551,271.518,127.653,271.518z"/>
	<path d="M146.891,281.803c2.653,0,4.812-2.158,4.812-4.812s-2.158-4.812-4.812-4.812c-2.652,0-4.811,2.158-4.811,4.812
		S144.239,281.803,146.891,281.803z M146.891,273.18c2.102,0,3.812,1.71,3.812,3.812s-1.71,3.812-3.812,3.812
		c-2.101,0-3.811-1.71-3.811-3.812S144.79,273.18,146.891,273.18z"/>
</g>
</svg>
